  0
SECTION
  2
HEADER
  9
$ANGBASE
  50
0.0
  9
$ANGDIR
  70
  1
  9
$MEASUREMENT
  70
0
  0
ENDSEC
  0
SECTION
  2
TABLES
  0
TABLE
  2
LTYPE
  70
1
  0
LTYPE
  2
CONTINUOUS
  70
0
  3
Solid line
  72
65
  73
0
  40
0.0
  0
ENDTAB
  0
TABLE
  2
STYLE
  70
4
  0
STYLE
  2
KICAD
  70
0
  40
0
  41
1
  42
1
  50
0
  71
0
  3
isocp.shx
  0
STYLE
  2
KICADB
  70
0
  40
0
  41
1
  42
1
  50
0
  71
0
  3
isocp.shx
  0
STYLE
  2
KICADI
  70
0
  40
0
  41
1
  42
1
  50
15
  71
0
  3
isocp.shx
  0
STYLE
  2
KICADBI
  70
0
  40
0
  41
1
  42
1
  50
15
  71
0
  3
isocp.shx
  0
ENDTAB
  0
TABLE
  2
LAYER
  70
30
  0
LAYER
  2
BLACK
  70
0
  62
7
  6
CONTINUOUS
  0
LAYER
  2
GRAY1
  70
0
  62
251
  6
CONTINUOUS
  0
LAYER
  2
GRAY2
  70
0
  62
8
  6
CONTINUOUS
  0
LAYER
  2
GRAY3
  70
0
  62
9
  6
CONTINUOUS
  0
LAYER
  2
WHITE
  70
0
  62
7
  6
CONTINUOUS
  0
LAYER
  2
LYELLOW
  70
0
  62
51
  6
CONTINUOUS
  0
LAYER
  2
BLUE1
  70
0
  62
178
  6
CONTINUOUS
  0
LAYER
  2
GREEN1
  70
0
  62
98
  6
CONTINUOUS
  0
LAYER
  2
CYAN1
  70
0
  62
138
  6
CONTINUOUS
  0
LAYER
  2
RED1
  70
0
  62
18
  6
CONTINUOUS
  0
LAYER
  2
MAGENTA1
  70
0
  62
228
  6
CONTINUOUS
  0
LAYER
  2
BROWN1
  70
0
  62
58
  6
CONTINUOUS
  0
LAYER
  2
BLUE2
  70
0
  62
5
  6
CONTINUOUS
  0
LAYER
  2
GREEN2
  70
0
  62
3
  6
CONTINUOUS
  0
LAYER
  2
CYAN2
  70
0
  62
4
  6
CONTINUOUS
  0
LAYER
  2
RED2
  70
0
  62
1
  6
CONTINUOUS
  0
LAYER
  2
MAGENTA2
  70
0
  62
6
  6
CONTINUOUS
  0
LAYER
  2
BROWN2
  70
0
  62
54
  6
CONTINUOUS
  0
LAYER
  2
BLUE3
  70
0
  62
171
  6
CONTINUOUS
  0
LAYER
  2
GREEN3
  70
0
  62
91
  6
CONTINUOUS
  0
LAYER
  2
CYAN3
  70
0
  62
131
  6
CONTINUOUS
  0
LAYER
  2
RED3
  70
0
  62
11
  6
CONTINUOUS
  0
LAYER
  2
MAGENTA3
  70
0
  62
221
  6
CONTINUOUS
  0
LAYER
  2
YELLOW3
  70
0
  62
2
  6
CONTINUOUS
  0
LAYER
  2
BLUE4
  70
0
  62
5
  6
CONTINUOUS
  0
LAYER
  2
GREEN4
  70
0
  62
3
  6
CONTINUOUS
  0
LAYER
  2
CYAN4
  70
0
  62
4
  6
CONTINUOUS
  0
LAYER
  2
RED4
  70
0
  62
1
  6
CONTINUOUS
  0
LAYER
  2
MAGENTA4
  70
0
  62
6
  6
CONTINUOUS
  0
LAYER
  2
YELLOW4
  70
0
  62
2
  6
CONTINUOUS
  0
ENDTAB
  0
ENDSEC
  0
SECTION
  2
ENTITIES
0
LINE
8
Black
10
154.566
20
-94.4436
11
155.065
21
-94.7312
0
LINE
8
Black
10
155.065
20
-94.7312
11
155.434
21
-95.1718
0
LINE
8
Black
10
155.434
20
-95.1718
11
155.631
21
-95.7124
0
LINE
8
Black
10
155.631
20
-95.7124
11
155.631
21
-96.2876
0
LINE
8
Black
10
155.631
20
-96.2876
11
155.434
21
-96.8282
0
LINE
8
Black
10
155.434
20
-96.8282
11
155.065
21
-97.2688
0
LINE
8
Black
10
155.065
20
-97.2688
11
154.566
21
-97.5564
0
LINE
8
Black
10
154.566
20
-97.5564
11
154
21
-97.6563
0
LINE
8
Black
10
154
20
-97.6563
11
153.434
21
-97.5564
0
LINE
8
Black
10
153.434
20
-97.5564
11
152.935
21
-97.2688
0
LINE
8
Black
10
152.935
20
-97.2688
11
152.566
21
-96.8282
0
LINE
8
Black
10
152.566
20
-96.8282
11
152.369
21
-96.2876
0
LINE
8
Black
10
152.369
20
-96.2876
11
152.369
21
-95.7124
0
LINE
8
Black
10
152.369
20
-95.7124
11
152.566
21
-95.1718
0
LINE
8
Black
10
152.566
20
-95.1718
11
152.935
21
-94.7312
0
LINE
8
Black
10
152.935
20
-94.7312
11
153.434
21
-94.4436
0
LINE
8
Black
10
153.434
20
-94.4436
11
154
21
-94.3437
0
LINE
8
Black
10
154
20
-94.3437
11
154.566
21
-94.4436
0
LINE
8
Black
10
154.566
20
-101.444
11
155.065
21
-101.731
0
LINE
8
Black
10
155.065
20
-101.731
11
155.434
21
-102.172
0
LINE
8
Black
10
155.434
20
-102.172
11
155.631
21
-102.712
0
LINE
8
Black
10
155.631
20
-102.712
11
155.631
21
-103.288
0
LINE
8
Black
10
155.631
20
-103.288
11
155.434
21
-103.828
0
LINE
8
Black
10
155.434
20
-103.828
11
155.065
21
-104.269
0
LINE
8
Black
10
155.065
20
-104.269
11
154.566
21
-104.556
0
LINE
8
Black
10
154.566
20
-104.556
11
154
21
-104.656
0
LINE
8
Black
10
154
20
-104.656
11
153.434
21
-104.556
0
LINE
8
Black
10
153.434
20
-104.556
11
152.935
21
-104.269
0
LINE
8
Black
10
152.935
20
-104.269
11
152.566
21
-103.828
0
LINE
8
Black
10
152.566
20
-103.828
11
152.369
21
-103.288
0
LINE
8
Black
10
152.369
20
-103.288
11
152.369
21
-102.712
0
LINE
8
Black
10
152.369
20
-102.712
11
152.566
21
-102.172
0
LINE
8
Black
10
152.566
20
-102.172
11
152.935
21
-101.731
0
LINE
8
Black
10
152.935
20
-101.731
11
153.434
21
-101.444
0
LINE
8
Black
10
153.434
20
-101.444
11
154
21
-101.344
0
LINE
8
Black
10
154
20
-101.344
11
154.566
21
-101.444
0
LINE
8
Black
10
154.566
20
-120.444
11
155.065
21
-120.731
0
LINE
8
Black
10
155.065
20
-120.731
11
155.434
21
-121.172
0
LINE
8
Black
10
155.434
20
-121.172
11
155.631
21
-121.712
0
LINE
8
Black
10
155.631
20
-121.712
11
155.631
21
-122.288
0
LINE
8
Black
10
155.631
20
-122.288
11
155.434
21
-122.828
0
LINE
8
Black
10
155.434
20
-122.828
11
155.065
21
-123.269
0
LINE
8
Black
10
155.065
20
-123.269
11
154.566
21
-123.556
0
LINE
8
Black
10
154.566
20
-123.556
11
154
21
-123.656
0
LINE
8
Black
10
154
20
-123.656
11
153.434
21
-123.556
0
LINE
8
Black
10
153.434
20
-123.556
11
152.935
21
-123.269
0
LINE
8
Black
10
152.935
20
-123.269
11
152.566
21
-122.828
0
LINE
8
Black
10
152.566
20
-122.828
11
152.369
21
-122.288
0
LINE
8
Black
10
152.369
20
-122.288
11
152.369
21
-121.712
0
LINE
8
Black
10
152.369
20
-121.712
11
152.566
21
-121.172
0
LINE
8
Black
10
152.566
20
-121.172
11
152.935
21
-120.731
0
LINE
8
Black
10
152.935
20
-120.731
11
153.434
21
-120.444
0
LINE
8
Black
10
153.434
20
-120.444
11
154
21
-120.344
0
LINE
8
Black
10
154
20
-120.344
11
154.566
21
-120.444
0
LINE
8
Black
10
161.05
20
-115.75
11
160.45
21
-115.75
0
LINE
8
Black
10
160.45
20
-115.75
11
160.45
21
-115.25
0
LINE
8
Black
10
160.45
20
-115.25
11
161.05
21
-115.25
0
LINE
8
Black
10
161.05
20
-115.25
11
161.05
21
-115.75
0
LINE
8
Black
10
161.7
20
-94.2
11
160.9
21
-94.2
0
LINE
8
Black
10
160.9
20
-94.2
11
160.9
21
-93.4
0
LINE
8
Black
10
160.9
20
-93.4
11
161.7
21
-93.4
0
LINE
8
Black
10
161.7
20
-93.4
11
161.7
21
-94.2
0
LINE
8
Black
10
162.15
20
-115.75
11
161.55
21
-115.75
0
LINE
8
Black
10
161.55
20
-115.75
11
161.55
21
-115.25
0
LINE
8
Black
10
161.55
20
-115.25
11
162.15
21
-115.25
0
LINE
8
Black
10
162.15
20
-115.25
11
162.15
21
-115.75
0
LINE
8
Black
10
162.65
20
-108.15
11
161.85
21
-108.15
0
LINE
8
Black
10
161.85
20
-108.15
11
161.85
21
-107.35
0
LINE
8
Black
10
161.85
20
-107.35
11
162.65
21
-107.35
0
LINE
8
Black
10
162.65
20
-107.35
11
162.65
21
-108.15
0
LINE
8
Black
10
162.65
20
-109.75
11
161.85
21
-109.75
0
LINE
8
Black
10
161.85
20
-109.75
11
161.85
21
-108.95
0
LINE
8
Black
10
161.85
20
-108.95
11
162.65
21
-108.95
0
LINE
8
Black
10
162.65
20
-108.95
11
162.65
21
-109.75
0
LINE
8
Black
10
163.3
20
-94.2
11
162.5
21
-94.2
0
LINE
8
Black
10
162.5
20
-94.2
11
162.5
21
-93.4
0
LINE
8
Black
10
162.5
20
-93.4
11
163.3
21
-93.4
0
LINE
8
Black
10
163.3
20
-93.4
11
163.3
21
-94.2
0
LINE
8
Black
10
164
20
-106.95
11
163.6
21
-106.95
0
LINE
8
Black
10
163.6
20
-106.95
11
163.6
21
-105.55
0
LINE
8
Black
10
163.6
20
-105.55
11
164
21
-105.55
0
LINE
8
Black
10
164
20
-105.55
11
164
21
-106.95
0
LINE
8
Black
10
164
20
-111.35
11
163.6
21
-111.35
0
LINE
8
Black
10
163.6
20
-111.35
11
163.6
21
-109.95
0
LINE
8
Black
10
163.6
20
-109.95
11
164
21
-109.95
0
LINE
8
Black
10
164
20
-109.95
11
164
21
-111.35
0
LINE
8
Black
10
164.3
20
-103.4
11
163.5
21
-103.4
0
LINE
8
Black
10
163.5
20
-103.4
11
163.5
21
-102.6
0
LINE
8
Black
10
163.5
20
-102.6
11
164.3
21
-102.6
0
LINE
8
Black
10
164.3
20
-102.6
11
164.3
21
-103.4
0
LINE
8
Black
10
164.3
20
-104.9
11
163.5
21
-104.9
0
LINE
8
Black
10
163.5
20
-104.9
11
163.5
21
-104.1
0
LINE
8
Black
10
163.5
20
-104.1
11
164.3
21
-104.1
0
LINE
8
Black
10
164.3
20
-104.1
11
164.3
21
-104.9
0
LINE
8
Black
10
164.3
20
-112.9
11
163.5
21
-112.9
0
LINE
8
Black
10
163.5
20
-112.9
11
163.5
21
-112.1
0
LINE
8
Black
10
163.5
20
-112.1
11
164.3
21
-112.1
0
LINE
8
Black
10
164.3
20
-112.1
11
164.3
21
-112.9
0
LINE
8
Black
10
164.65
20
-106.95
11
164.25
21
-106.95
0
LINE
8
Black
10
164.25
20
-106.95
11
164.25
21
-105.55
0
LINE
8
Black
10
164.25
20
-105.55
11
164.65
21
-105.55
0
LINE
8
Black
10
164.65
20
-105.55
11
164.65
21
-106.95
0
LINE
8
Black
10
164.65
20
-111.35
11
164.25
21
-111.35
0
LINE
8
Black
10
164.25
20
-111.35
11
164.25
21
-109.95
0
LINE
8
Black
10
164.25
20
-109.95
11
164.65
21
-109.95
0
LINE
8
Black
10
164.65
20
-109.95
11
164.65
21
-111.35
0
LINE
8
Black
10
165.3
20
-106.95
11
164.9
21
-106.95
0
LINE
8
Black
10
164.9
20
-106.95
11
164.9
21
-105.55
0
LINE
8
Black
10
164.9
20
-105.55
11
165.3
21
-105.55
0
LINE
8
Black
10
165.3
20
-105.55
11
165.3
21
-106.95
0
LINE
8
Black
10
165.3
20
-111.35
11
164.9
21
-111.35
0
LINE
8
Black
10
164.9
20
-111.35
11
164.9
21
-109.95
0
LINE
8
Black
10
164.9
20
-109.95
11
165.3
21
-109.95
0
LINE
8
Black
10
165.3
20
-109.95
11
165.3
21
-111.35
0
LINE
8
Black
10
165.9
20
-103.4
11
165.1
21
-103.4
0
LINE
8
Black
10
165.1
20
-103.4
11
165.1
21
-102.6
0
LINE
8
Black
10
165.1
20
-102.6
11
165.9
21
-102.6
0
LINE
8
Black
10
165.9
20
-102.6
11
165.9
21
-103.4
0
LINE
8
Black
10
165.9
20
-104.9
11
165.1
21
-104.9
0
LINE
8
Black
10
165.1
20
-104.9
11
165.1
21
-104.1
0
LINE
8
Black
10
165.1
20
-104.1
11
165.9
21
-104.1
0
LINE
8
Black
10
165.9
20
-104.1
11
165.9
21
-104.9
0
LINE
8
Black
10
165.9
20
-112.9
11
165.1
21
-112.9
0
LINE
8
Black
10
165.1
20
-112.9
11
165.1
21
-112.1
0
LINE
8
Black
10
165.1
20
-112.1
11
165.9
21
-112.1
0
LINE
8
Black
10
165.9
20
-112.1
11
165.9
21
-112.9
0
LINE
8
Black
10
165.95
20
-106.95
11
165.55
21
-106.95
0
LINE
8
Black
10
165.55
20
-106.95
11
165.55
21
-105.55
0
LINE
8
Black
10
165.55
20
-105.55
11
165.95
21
-105.55
0
LINE
8
Black
10
165.95
20
-105.55
11
165.95
21
-106.95
0
LINE
8
Black
10
165.95
20
-111.35
11
165.55
21
-111.35
0
LINE
8
Black
10
165.55
20
-111.35
11
165.55
21
-109.95
0
LINE
8
Black
10
165.55
20
-109.95
11
165.95
21
-109.95
0
LINE
8
Black
10
165.95
20
-109.95
11
165.95
21
-111.35
0
LINE
8
Black
10
166.4
20
-115.65
11
165.6
21
-115.65
0
LINE
8
Black
10
165.6
20
-115.65
11
165.6
21
-114.85
0
LINE
8
Black
10
165.6
20
-114.85
11
166.4
21
-114.85
0
LINE
8
Black
10
166.4
20
-114.85
11
166.4
21
-115.65
0
LINE
8
Black
10
166.4
20
-117.25
11
165.6
21
-117.25
0
LINE
8
Black
10
165.6
20
-117.25
11
165.6
21
-116.45
0
LINE
8
Black
10
165.6
20
-116.45
11
166.4
21
-116.45
0
LINE
8
Black
10
166.4
20
-116.45
11
166.4
21
-117.25
0
LINE
8
Black
10
166.4
20
-118.65
11
165.6
21
-118.65
0
LINE
8
Black
10
165.6
20
-118.65
11
165.6
21
-117.85
0
LINE
8
Black
10
165.6
20
-117.85
11
166.4
21
-117.85
0
LINE
8
Black
10
166.4
20
-117.85
11
166.4
21
-118.65
0
LINE
8
Black
10
166.4
20
-120.3
11
165.6
21
-120.3
0
LINE
8
Black
10
165.6
20
-120.3
11
165.6
21
-119.5
0
LINE
8
Black
10
165.6
20
-119.5
11
166.4
21
-119.5
0
LINE
8
Black
10
166.4
20
-119.5
11
166.4
21
-120.3
0
LINE
8
Black
10
167.65
20
-95.65
11
166.85
21
-95.65
0
LINE
8
Black
10
166.85
20
-95.65
11
166.85
21
-94.85
0
LINE
8
Black
10
166.85
20
-94.85
11
167.65
21
-94.85
0
LINE
8
Black
10
167.65
20
-94.85
11
167.65
21
-95.65
0
LINE
8
Black
10
167.65
20
-97.25
11
166.85
21
-97.25
0
LINE
8
Black
10
166.85
20
-97.25
11
166.85
21
-96.45
0
LINE
8
Black
10
166.85
20
-96.45
11
167.65
21
-96.45
0
LINE
8
Black
10
167.65
20
-96.45
11
167.65
21
-97.25
0
LINE
8
Black
10
168.65
20
-115.65
11
167.85
21
-115.65
0
LINE
8
Black
10
167.85
20
-115.65
11
167.85
21
-114.85
0
LINE
8
Black
10
167.85
20
-114.85
11
168.65
21
-114.85
0
LINE
8
Black
10
168.65
20
-114.85
11
168.65
21
-115.65
0
LINE
8
Black
10
168.65
20
-117.25
11
167.85
21
-117.25
0
LINE
8
Black
10
167.85
20
-117.25
11
167.85
21
-116.45
0
LINE
8
Black
10
167.85
20
-116.45
11
168.65
21
-116.45
0
LINE
8
Black
10
168.65
20
-116.45
11
168.65
21
-117.25
0
LINE
8
Black
10
168.65
20
-118.65
11
167.85
21
-118.65
0
LINE
8
Black
10
167.85
20
-118.65
11
167.85
21
-117.85
0
LINE
8
Black
10
167.85
20
-117.85
11
168.65
21
-117.85
0
LINE
8
Black
10
168.65
20
-117.85
11
168.65
21
-118.65
0
LINE
8
Black
10
168.65
20
-120.3
11
167.85
21
-120.3
0
LINE
8
Black
10
167.85
20
-120.3
11
167.85
21
-119.5
0
LINE
8
Black
10
167.85
20
-119.5
11
168.65
21
-119.5
0
LINE
8
Black
10
168.65
20
-119.5
11
168.65
21
-120.3
0
LINE
8
Black
10
169.05
20
-95.65
11
168.25
21
-95.65
0
LINE
8
Black
10
168.25
20
-95.65
11
168.25
21
-94.85
0
LINE
8
Black
10
168.25
20
-94.85
11
169.05
21
-94.85
0
LINE
8
Black
10
169.05
20
-94.85
11
169.05
21
-95.65
0
LINE
8
Black
10
169.16
20
-98.6
11
168.56
21
-98.6
0
LINE
8
Black
10
168.56
20
-98.6
11
168.56
21
-96.4
0
LINE
8
Black
10
168.56
20
-96.4
11
169.16
21
-96.4
0
LINE
8
Black
10
169.16
20
-96.4
11
169.16
21
-98.6
0
LINE
8
Black
10
169.16
20
-108
11
168.56
21
-108
0
LINE
8
Black
10
168.56
20
-108
11
168.56
21
-105.8
0
LINE
8
Black
10
168.56
20
-105.8
11
169.16
21
-105.8
0
LINE
8
Black
10
169.16
20
-105.8
11
169.16
21
-108
0
LINE
8
Black
10
170.43
20
-98.6
11
169.83
21
-98.6
0
LINE
8
Black
10
169.83
20
-98.6
11
169.83
21
-96.4
0
LINE
8
Black
10
169.83
20
-96.4
11
170.43
21
-96.4
0
LINE
8
Black
10
170.43
20
-96.4
11
170.43
21
-98.6
0
LINE
8
Black
10
170.43
20
-108
11
169.83
21
-108
0
LINE
8
Black
10
169.83
20
-108
11
169.83
21
-105.8
0
LINE
8
Black
10
169.83
20
-105.8
11
170.43
21
-105.8
0
LINE
8
Black
10
170.43
20
-105.8
11
170.43
21
-108
0
LINE
8
Black
10
170.65
20
-95.65
11
169.85
21
-95.65
0
LINE
8
Black
10
169.85
20
-95.65
11
169.85
21
-94.85
0
LINE
8
Black
10
169.85
20
-94.85
11
170.65
21
-94.85
0
LINE
8
Black
10
170.65
20
-94.85
11
170.65
21
-95.65
0
LINE
8
Black
10
170.9
20
-115.65
11
170.1
21
-115.65
0
LINE
8
Black
10
170.1
20
-115.65
11
170.1
21
-114.85
0
LINE
8
Black
10
170.1
20
-114.85
11
170.9
21
-114.85
0
LINE
8
Black
10
170.9
20
-114.85
11
170.9
21
-115.65
0
LINE
8
Black
10
170.9
20
-117.25
11
170.1
21
-117.25
0
LINE
8
Black
10
170.1
20
-117.25
11
170.1
21
-116.45
0
LINE
8
Black
10
170.1
20
-116.45
11
170.9
21
-116.45
0
LINE
8
Black
10
170.9
20
-116.45
11
170.9
21
-117.25
0
LINE
8
Black
10
170.9
20
-118.65
11
170.1
21
-118.65
0
LINE
8
Black
10
170.1
20
-118.65
11
170.1
21
-117.85
0
LINE
8
Black
10
170.1
20
-117.85
11
170.9
21
-117.85
0
LINE
8
Black
10
170.9
20
-117.85
11
170.9
21
-118.65
0
LINE
8
Black
10
170.9
20
-120.3
11
170.1
21
-120.3
0
LINE
8
Black
10
170.1
20
-120.3
11
170.1
21
-119.5
0
LINE
8
Black
10
170.1
20
-119.5
11
170.9
21
-119.5
0
LINE
8
Black
10
170.9
20
-119.5
11
170.9
21
-120.3
0
LINE
8
Black
10
171.7
20
-98.6
11
171.1
21
-98.6
0
LINE
8
Black
10
171.1
20
-98.6
11
171.1
21
-96.4
0
LINE
8
Black
10
171.1
20
-96.4
11
171.7
21
-96.4
0
LINE
8
Black
10
171.7
20
-96.4
11
171.7
21
-98.6
0
LINE
8
Black
10
171.7
20
-108
11
171.1
21
-108
0
LINE
8
Black
10
171.1
20
-108
11
171.1
21
-105.8
0
LINE
8
Black
10
171.1
20
-105.8
11
171.7
21
-105.8
0
LINE
8
Black
10
171.7
20
-105.8
11
171.7
21
-108
0
LINE
8
Black
10
172.97
20
-98.6
11
172.37
21
-98.6
0
LINE
8
Black
10
172.37
20
-98.6
11
172.37
21
-96.4
0
LINE
8
Black
10
172.37
20
-96.4
11
172.97
21
-96.4
0
LINE
8
Black
10
172.97
20
-96.4
11
172.97
21
-98.6
0
LINE
8
Black
10
172.97
20
-108
11
172.37
21
-108
0
LINE
8
Black
10
172.37
20
-108
11
172.37
21
-105.8
0
LINE
8
Black
10
172.37
20
-105.8
11
172.97
21
-105.8
0
LINE
8
Black
10
172.97
20
-105.8
11
172.97
21
-108
0
LINE
8
Black
10
174.24
20
-98.6
11
173.64
21
-98.6
0
LINE
8
Black
10
173.64
20
-98.6
11
173.64
21
-96.4
0
LINE
8
Black
10
173.64
20
-96.4
11
174.24
21
-96.4
0
LINE
8
Black
10
174.24
20
-96.4
11
174.24
21
-98.6
0
LINE
8
Black
10
174.24
20
-108
11
173.64
21
-108
0
LINE
8
Black
10
173.64
20
-108
11
173.64
21
-105.8
0
LINE
8
Black
10
173.64
20
-105.8
11
174.24
21
-105.8
0
LINE
8
Black
10
174.24
20
-105.8
11
174.24
21
-108
0
LINE
8
Black
10
175.51
20
-98.6
11
174.91
21
-98.6
0
LINE
8
Black
10
174.91
20
-98.6
11
174.91
21
-96.4
0
LINE
8
Black
10
174.91
20
-96.4
11
175.51
21
-96.4
0
LINE
8
Black
10
175.51
20
-96.4
11
175.51
21
-98.6
0
LINE
8
Black
10
175.51
20
-108
11
174.91
21
-108
0
LINE
8
Black
10
174.91
20
-108
11
174.91
21
-105.8
0
LINE
8
Black
10
174.91
20
-105.8
11
175.51
21
-105.8
0
LINE
8
Black
10
175.51
20
-105.8
11
175.51
21
-108
0
LINE
8
Black
10
176.7
20
-109.7
11
175.9
21
-109.7
0
LINE
8
Black
10
175.9
20
-109.7
11
175.9
21
-108.9
0
LINE
8
Black
10
175.9
20
-108.9
11
176.7
21
-108.9
0
LINE
8
Black
10
176.7
20
-108.9
11
176.7
21
-109.7
0
LINE
8
Black
10
176.7
20
-111.1
11
175.9
21
-111.1
0
LINE
8
Black
10
175.9
20
-111.1
11
175.9
21
-110.3
0
LINE
8
Black
10
175.9
20
-110.3
11
176.7
21
-110.3
0
LINE
8
Black
10
176.7
20
-110.3
11
176.7
21
-111.1
0
LINE
8
Black
10
176.78
20
-98.6
11
176.18
21
-98.6
0
LINE
8
Black
10
176.18
20
-98.6
11
176.18
21
-96.4
0
LINE
8
Black
10
176.18
20
-96.4
11
176.78
21
-96.4
0
LINE
8
Black
10
176.78
20
-96.4
11
176.78
21
-98.6
0
LINE
8
Black
10
176.78
20
-108
11
176.18
21
-108
0
LINE
8
Black
10
176.18
20
-108
11
176.18
21
-105.8
0
LINE
8
Black
10
176.18
20
-105.8
11
176.78
21
-105.8
0
LINE
8
Black
10
176.78
20
-105.8
11
176.78
21
-108
0
LINE
8
Black
10
178.05
20
-98.6
11
177.45
21
-98.6
0
LINE
8
Black
10
177.45
20
-98.6
11
177.45
21
-96.4
0
LINE
8
Black
10
177.45
20
-96.4
11
178.05
21
-96.4
0
LINE
8
Black
10
178.05
20
-96.4
11
178.05
21
-98.6
0
LINE
8
Black
10
178.05
20
-108
11
177.45
21
-108
0
LINE
8
Black
10
177.45
20
-108
11
177.45
21
-105.8
0
LINE
8
Black
10
177.45
20
-105.8
11
178.05
21
-105.8
0
LINE
8
Black
10
178.05
20
-105.8
11
178.05
21
-108
0
LINE
8
Black
10
178.3
20
-109.7
11
177.5
21
-109.7
0
LINE
8
Black
10
177.5
20
-109.7
11
177.5
21
-108.9
0
LINE
8
Black
10
177.5
20
-108.9
11
178.3
21
-108.9
0
LINE
8
Black
10
178.3
20
-108.9
11
178.3
21
-109.7
0
LINE
8
Black
10
178.3
20
-111.1
11
177.5
21
-111.1
0
LINE
8
Black
10
177.5
20
-111.1
11
177.5
21
-110.3
0
LINE
8
Black
10
177.5
20
-110.3
11
178.3
21
-110.3
0
LINE
8
Black
10
178.3
20
-110.3
11
178.3
21
-111.1
0
LINE
8
Black
10
186.566
20
-94.4436
11
187.065
21
-94.7312
0
LINE
8
Black
10
187.065
20
-94.7312
11
187.434
21
-95.1718
0
LINE
8
Black
10
187.434
20
-95.1718
11
187.631
21
-95.7124
0
LINE
8
Black
10
187.631
20
-95.7124
11
187.631
21
-96.2876
0
LINE
8
Black
10
187.631
20
-96.2876
11
187.434
21
-96.8282
0
LINE
8
Black
10
187.434
20
-96.8282
11
187.065
21
-97.2688
0
LINE
8
Black
10
187.065
20
-97.2688
11
186.566
21
-97.5564
0
LINE
8
Black
10
186.566
20
-97.5564
11
186
21
-97.6563
0
LINE
8
Black
10
186
20
-97.6563
11
185.434
21
-97.5564
0
LINE
8
Black
10
185.434
20
-97.5564
11
184.935
21
-97.2688
0
LINE
8
Black
10
184.935
20
-97.2688
11
184.566
21
-96.8282
0
LINE
8
Black
10
184.566
20
-96.8282
11
184.369
21
-96.2876
0
LINE
8
Black
10
184.369
20
-96.2876
11
184.369
21
-95.7124
0
LINE
8
Black
10
184.369
20
-95.7124
11
184.566
21
-95.1718
0
LINE
8
Black
10
184.566
20
-95.1718
11
184.935
21
-94.7312
0
LINE
8
Black
10
184.935
20
-94.7312
11
185.434
21
-94.4436
0
LINE
8
Black
10
185.434
20
-94.4436
11
186
21
-94.3437
0
LINE
8
Black
10
186
20
-94.3437
11
186.566
21
-94.4436
0
LINE
8
Black
10
186.566
20
-101.444
11
187.065
21
-101.731
0
LINE
8
Black
10
187.065
20
-101.731
11
187.434
21
-102.172
0
LINE
8
Black
10
187.434
20
-102.172
11
187.631
21
-102.712
0
LINE
8
Black
10
187.631
20
-102.712
11
187.631
21
-103.288
0
LINE
8
Black
10
187.631
20
-103.288
11
187.434
21
-103.828
0
LINE
8
Black
10
187.434
20
-103.828
11
187.065
21
-104.269
0
LINE
8
Black
10
187.065
20
-104.269
11
186.566
21
-104.556
0
LINE
8
Black
10
186.566
20
-104.556
11
186
21
-104.656
0
LINE
8
Black
10
186
20
-104.656
11
185.434
21
-104.556
0
LINE
8
Black
10
185.434
20
-104.556
11
184.935
21
-104.269
0
LINE
8
Black
10
184.935
20
-104.269
11
184.566
21
-103.828
0
LINE
8
Black
10
184.566
20
-103.828
11
184.369
21
-103.288
0
LINE
8
Black
10
184.369
20
-103.288
11
184.369
21
-102.712
0
LINE
8
Black
10
184.369
20
-102.712
11
184.566
21
-102.172
0
LINE
8
Black
10
184.566
20
-102.172
11
184.935
21
-101.731
0
LINE
8
Black
10
184.935
20
-101.731
11
185.434
21
-101.444
0
LINE
8
Black
10
185.434
20
-101.444
11
186
21
-101.344
0
LINE
8
Black
10
186
20
-101.344
11
186.566
21
-101.444
0
LINE
8
Black
10
186.566
20
-120.444
11
187.065
21
-120.731
0
LINE
8
Black
10
187.065
20
-120.731
11
187.434
21
-121.172
0
LINE
8
Black
10
187.434
20
-121.172
11
187.631
21
-121.712
0
LINE
8
Black
10
187.631
20
-121.712
11
187.631
21
-122.288
0
LINE
8
Black
10
187.631
20
-122.288
11
187.434
21
-122.828
0
LINE
8
Black
10
187.434
20
-122.828
11
187.065
21
-123.269
0
LINE
8
Black
10
187.065
20
-123.269
11
186.566
21
-123.556
0
LINE
8
Black
10
186.566
20
-123.556
11
186
21
-123.656
0
LINE
8
Black
10
186
20
-123.656
11
185.434
21
-123.556
0
LINE
8
Black
10
185.434
20
-123.556
11
184.935
21
-123.269
0
LINE
8
Black
10
184.935
20
-123.269
11
184.566
21
-122.828
0
LINE
8
Black
10
184.566
20
-122.828
11
184.369
21
-122.288
0
LINE
8
Black
10
184.369
20
-122.288
11
184.369
21
-121.712
0
LINE
8
Black
10
184.369
20
-121.712
11
184.566
21
-121.172
0
LINE
8
Black
10
184.566
20
-121.172
11
184.935
21
-120.731
0
LINE
8
Black
10
184.935
20
-120.731
11
185.434
21
-120.444
0
LINE
8
Black
10
185.434
20
-120.444
11
186
21
-120.344
0
LINE
8
Black
10
186
20
-120.344
11
186.566
21
-120.444
  0
ENDSEC
  0
EOF
