G04 #@! TF.FileFunction,Soldermask,Top*
%FSLAX46Y46*%
G04 Gerber Fmt 4.6, Leading zero omitted, Abs format (unit mm)*
G04 Created by KiCad (PCBNEW 0.201505031001+5637~23~ubuntu14.04.1-product) date Sat 23 May 2015 16:36:10 BST*
%MOMM*%
G01*
G04 APERTURE LIST*
%ADD10C,0.100000*%
%ADD11R,0.800000X0.700000*%
%ADD12R,0.700000X0.800000*%
%ADD13R,0.800000X0.800000*%
%ADD14R,0.500000X0.600000*%
%ADD15R,0.600000X0.500000*%
%ADD16R,1.300000X2.400000*%
%ADD17R,3.800000X2.400000*%
%ADD18R,0.400000X1.400000*%
%ADD19R,0.600000X2.200000*%
%ADD20C,1.700000*%
%ADD21R,0.700000X1.800000*%
%ADD22R,0.800000X1.800000*%
%ADD23R,0.300000X1.200000*%
%ADD24R,1.200000X0.300000*%
%ADD25C,1.016000*%
%ADD26R,1.000000X0.800000*%
%ADD27C,1.500000*%
%ADD28C,1.000000*%
%ADD29R,2.300000X2.500000*%
%ADD30C,6.300000*%
%ADD31C,0.600000*%
%ADD32C,1.200000*%
%ADD33R,2.286000X5.080000*%
%ADD34R,2.413000X5.080000*%
G04 APERTURE END LIST*
D10*
D11*
X92000000Y-159500000D03*
X92000000Y-160900000D03*
X106000000Y-159500000D03*
X106000000Y-160900000D03*
X99000000Y-159500000D03*
X99000000Y-160900000D03*
D12*
X100000000Y-163500000D03*
X98600000Y-163500000D03*
D11*
X92000000Y-158000000D03*
X92000000Y-156600000D03*
X106000000Y-156500000D03*
X106000000Y-157900000D03*
D12*
X123000000Y-162500000D03*
X121600000Y-162500000D03*
X123000000Y-154000000D03*
X121600000Y-154000000D03*
X118000000Y-163500000D03*
X116600000Y-163500000D03*
D11*
X112500000Y-153500000D03*
X112500000Y-154900000D03*
X99000000Y-156500000D03*
X99000000Y-157900000D03*
X120000000Y-157500000D03*
X120000000Y-158900000D03*
D12*
X119000000Y-151500000D03*
X120400000Y-151500000D03*
D11*
X98500000Y-131500000D03*
X98500000Y-130100000D03*
D12*
X112000000Y-133500000D03*
X113400000Y-133500000D03*
D11*
X95750000Y-143750000D03*
X95750000Y-142350000D03*
D12*
X99000000Y-134000000D03*
X100400000Y-134000000D03*
D11*
X100000000Y-145500000D03*
X100000000Y-146900000D03*
X108500000Y-136250000D03*
X108500000Y-137650000D03*
X97000000Y-143750000D03*
X97000000Y-142350000D03*
X105300000Y-145500000D03*
X105300000Y-146900000D03*
X104000000Y-145500000D03*
X104000000Y-146900000D03*
D12*
X93500000Y-140500000D03*
X92100000Y-140500000D03*
D11*
X106600000Y-130100000D03*
X106600000Y-131500000D03*
D12*
X101000000Y-151750000D03*
X102400000Y-151750000D03*
X105250000Y-151750000D03*
X103850000Y-151750000D03*
D13*
X112400000Y-150300000D03*
X114050000Y-150300000D03*
X112400000Y-151800000D03*
X114050000Y-151800000D03*
X111000000Y-123500000D03*
X111000000Y-121850000D03*
X104000000Y-123500000D03*
X104000000Y-121850000D03*
X107500000Y-123500000D03*
X107500000Y-121850000D03*
X100500000Y-123500000D03*
X100500000Y-121850000D03*
D14*
X98500000Y-166000000D03*
X98500000Y-164900000D03*
D15*
X122000000Y-166500000D03*
X123100000Y-166500000D03*
X118300000Y-126500000D03*
X117200000Y-126500000D03*
D14*
X129000000Y-165250000D03*
X129000000Y-166350000D03*
X130000000Y-165250000D03*
X130000000Y-166350000D03*
D16*
X115500000Y-161000000D03*
X113200000Y-161000000D03*
X117800000Y-161000000D03*
D17*
X115500000Y-154900000D03*
D18*
X123500000Y-156000000D03*
X122850000Y-156000000D03*
X122200000Y-156000000D03*
X121550000Y-156000000D03*
X121550000Y-160400000D03*
X122200000Y-160400000D03*
X122850000Y-160400000D03*
X123500000Y-160400000D03*
D19*
X104500000Y-156000000D03*
X103230000Y-156000000D03*
X101960000Y-156000000D03*
X100690000Y-156000000D03*
X100690000Y-161207000D03*
X101960000Y-161207000D03*
X103230000Y-161207000D03*
X104500000Y-161207000D03*
X90500000Y-156000000D03*
X89230000Y-156000000D03*
X87960000Y-156000000D03*
X86690000Y-156000000D03*
X86690000Y-161207000D03*
X87960000Y-161207000D03*
X89230000Y-161207000D03*
X90500000Y-161207000D03*
X97500000Y-156000000D03*
X96230000Y-156000000D03*
X94960000Y-156000000D03*
X93690000Y-156000000D03*
X93690000Y-161207000D03*
X94960000Y-161207000D03*
X96230000Y-161207000D03*
X97500000Y-161207000D03*
D20*
X131100000Y-136100000D03*
X129100000Y-136100000D03*
X112600000Y-135600000D03*
X112600000Y-137600000D03*
X112600000Y-139600000D03*
X112600000Y-141600000D03*
X112600000Y-143600000D03*
X112600000Y-145600000D03*
D21*
X95500000Y-129000000D03*
D22*
X94400000Y-129000000D03*
X93300000Y-129000000D03*
X92200000Y-129000000D03*
X91100000Y-129000000D03*
X90000000Y-129000000D03*
X88900000Y-129000000D03*
X87800000Y-129000000D03*
D21*
X86700000Y-129000000D03*
X95500000Y-138500000D03*
X86700000Y-138500000D03*
D22*
X94400000Y-138500000D03*
X93300000Y-138500000D03*
X92200000Y-138500000D03*
X91100000Y-138500000D03*
X90000000Y-138500000D03*
X88900000Y-138500000D03*
X87800000Y-138500000D03*
D23*
X100000000Y-144000000D03*
X100500000Y-144000000D03*
X101000000Y-144000000D03*
X101500000Y-144000000D03*
X102000000Y-144000000D03*
X102500000Y-144000000D03*
X103000000Y-144000000D03*
X103500000Y-144000000D03*
X104000000Y-144000000D03*
X104500000Y-144000000D03*
X105000000Y-144000000D03*
X105500000Y-144000000D03*
D24*
X107000000Y-142500000D03*
X107000000Y-142000000D03*
X107000000Y-141500000D03*
X107000000Y-141000000D03*
X107000000Y-140500000D03*
X107000000Y-140000000D03*
X107000000Y-139500000D03*
X107000000Y-139000000D03*
X107000000Y-138500000D03*
X107000000Y-138000000D03*
X107000000Y-137500000D03*
X107000000Y-137000000D03*
D23*
X105500000Y-135500000D03*
X105000000Y-135500000D03*
X104500000Y-135500000D03*
X104000000Y-135500000D03*
X103500000Y-135500000D03*
X103000000Y-135500000D03*
X102500000Y-135500000D03*
X102000000Y-135500000D03*
X101500000Y-135500000D03*
X101000000Y-135500000D03*
X100500000Y-135500000D03*
X100000000Y-135500000D03*
D24*
X98500000Y-137000000D03*
X98500000Y-137500000D03*
X98500000Y-138000000D03*
X98500000Y-138500000D03*
X98500000Y-139000000D03*
X98500000Y-139500000D03*
X98500000Y-140000000D03*
X98500000Y-140500000D03*
X98500000Y-141000000D03*
X98500000Y-141500000D03*
X98500000Y-142000000D03*
X98500000Y-142500000D03*
D25*
X100000000Y-131270000D03*
X100000000Y-130000000D03*
X101270000Y-131270000D03*
X101270000Y-130000000D03*
X102540000Y-131270000D03*
X102540000Y-130000000D03*
X103810000Y-131270000D03*
X103810000Y-130000000D03*
X105080000Y-131270000D03*
X105080000Y-130000000D03*
D26*
X109800000Y-161900000D03*
X109800000Y-160000000D03*
X107800000Y-160950000D03*
X93650000Y-147250000D03*
X93650000Y-149150000D03*
X95650000Y-148200000D03*
D13*
X119000000Y-153000000D03*
X119000000Y-154600000D03*
X120000000Y-153000000D03*
X120000000Y-154600000D03*
X107750000Y-158250000D03*
X107750000Y-156650000D03*
X128500000Y-155500000D03*
X126900000Y-155500000D03*
X128500000Y-154000000D03*
X126900000Y-154000000D03*
X92150000Y-150250000D03*
X92150000Y-148650000D03*
X109500000Y-153500000D03*
X109500000Y-155100000D03*
X111000000Y-150250000D03*
X111000000Y-151850000D03*
X111000000Y-153500000D03*
X111000000Y-155100000D03*
X111000000Y-125000000D03*
X111000000Y-126600000D03*
X104000000Y-125000000D03*
X104000000Y-126600000D03*
X107500000Y-125000000D03*
X107500000Y-126600000D03*
X100500000Y-124750000D03*
X100500000Y-126350000D03*
X102700000Y-147000000D03*
X102700000Y-145400000D03*
X92150000Y-147250000D03*
X92150000Y-145650000D03*
D27*
X81500000Y-146500000D03*
X88500000Y-146500000D03*
D28*
X125000000Y-156000000D03*
X115500000Y-153000000D03*
X89500000Y-154000000D03*
X88000000Y-154000000D03*
X120000000Y-164000000D03*
X125000000Y-164000000D03*
X117650000Y-151500000D03*
X95000000Y-154000000D03*
X96500000Y-154000000D03*
X101550000Y-154050000D03*
X107500000Y-155250000D03*
X125600000Y-154000000D03*
X95500000Y-140500000D03*
X87500000Y-127000000D03*
X89000000Y-127000000D03*
X110000000Y-137500000D03*
X110000000Y-139100000D03*
X110000000Y-140400000D03*
X110000000Y-141700000D03*
X130200000Y-154000000D03*
X111000000Y-156500000D03*
X93650000Y-145750000D03*
D29*
X100800000Y-149250000D03*
X105300000Y-149250000D03*
D30*
X82000000Y-128000000D03*
D31*
X82000000Y-125500000D03*
X84500000Y-128000000D03*
X82000000Y-130500000D03*
X79500000Y-128000000D03*
X80200000Y-126200000D03*
X83800000Y-126200000D03*
X80200000Y-129800000D03*
X83800000Y-129800000D03*
D30*
X130000000Y-128000000D03*
D31*
X130000000Y-125500000D03*
X132500000Y-128000000D03*
X130000000Y-130500000D03*
X127500000Y-128000000D03*
X128200000Y-126200000D03*
X131800000Y-126200000D03*
X128200000Y-129800000D03*
X131800000Y-129800000D03*
D30*
X130000000Y-160000000D03*
D31*
X130000000Y-157500000D03*
X132500000Y-160000000D03*
X130000000Y-162500000D03*
X127500000Y-160000000D03*
X128200000Y-158200000D03*
X131800000Y-158200000D03*
X128200000Y-161800000D03*
X131800000Y-161800000D03*
D30*
X82000000Y-160000000D03*
D31*
X82000000Y-157500000D03*
X84500000Y-160000000D03*
X82000000Y-162500000D03*
X79500000Y-160000000D03*
X80200000Y-158200000D03*
X83800000Y-158200000D03*
X80200000Y-161800000D03*
X83800000Y-161800000D03*
D27*
X98500000Y-168000000D03*
X96500000Y-168000000D03*
X94500000Y-168000000D03*
X92500000Y-168000000D03*
D32*
X100000000Y-170100000D03*
X91000000Y-170100000D03*
D27*
X87500000Y-168000000D03*
X85500000Y-168000000D03*
X83500000Y-168000000D03*
X81500000Y-168000000D03*
D32*
X89000000Y-170100000D03*
X80000000Y-170100000D03*
D27*
X109500000Y-168000000D03*
X107500000Y-168000000D03*
X105500000Y-168000000D03*
X103500000Y-168000000D03*
D32*
X111000000Y-170100000D03*
X102000000Y-170100000D03*
D27*
X116500000Y-168000000D03*
X114500000Y-168000000D03*
D32*
X118000000Y-170100000D03*
X113000000Y-170100000D03*
D27*
X130500000Y-168000000D03*
X128500000Y-168000000D03*
D32*
X132000000Y-170100000D03*
X127000000Y-170100000D03*
D27*
X123500000Y-168000000D03*
X121500000Y-168000000D03*
D32*
X125000000Y-170100000D03*
X120000000Y-170100000D03*
D15*
X94000000Y-126500000D03*
X95100000Y-126500000D03*
D13*
X109750000Y-158250000D03*
X109750000Y-156650000D03*
D28*
X113000000Y-164000000D03*
D15*
X116000000Y-166400000D03*
X114900000Y-166400000D03*
D33*
X120000000Y-122600000D03*
D34*
X115618500Y-122600000D03*
X124381500Y-122600000D03*
D33*
X92000000Y-122600000D03*
D34*
X87618500Y-122600000D03*
X96381500Y-122600000D03*
M02*
