G04 #@! TF.FileFunction,Legend,Bot*
%FSLAX46Y46*%
G04 Gerber Fmt 4.6, Leading zero omitted, Abs format (unit mm)*
G04 Created by KiCad (PCBNEW 0.201505031001+5637~23~ubuntu14.04.1-product) date Sat 23 May 2015 16:36:10 BST*
%MOMM*%
G01*
G04 APERTURE LIST*
%ADD10C,0.100000*%
%ADD11C,0.300000*%
%ADD12C,1.700000*%
%ADD13C,1.016000*%
%ADD14C,1.500000*%
%ADD15C,6.300000*%
%ADD16C,0.600000*%
%ADD17C,1.200000*%
%ADD18R,2.413000X5.080000*%
G04 APERTURE END LIST*
D10*
D11*
X97178572Y-160107143D02*
X97321429Y-160178571D01*
X97607143Y-160178571D01*
X97750001Y-160107143D01*
X97821429Y-160035714D01*
X97892858Y-159892857D01*
X97892858Y-159464286D01*
X97821429Y-159321429D01*
X97750001Y-159250000D01*
X97607143Y-159178571D01*
X97321429Y-159178571D01*
X97178572Y-159250000D01*
X95892858Y-159178571D02*
X95892858Y-160178571D01*
X96535715Y-159178571D02*
X96535715Y-159964286D01*
X96464287Y-160107143D01*
X96321429Y-160178571D01*
X96107144Y-160178571D01*
X95964287Y-160107143D01*
X95892858Y-160035714D01*
X95250001Y-160107143D02*
X95107144Y-160178571D01*
X94821429Y-160178571D01*
X94678572Y-160107143D01*
X94607144Y-159964286D01*
X94607144Y-159892857D01*
X94678572Y-159750000D01*
X94821429Y-159678571D01*
X95035715Y-159678571D01*
X95178572Y-159607143D01*
X95250001Y-159464286D01*
X95250001Y-159392857D01*
X95178572Y-159250000D01*
X95035715Y-159178571D01*
X94821429Y-159178571D01*
X94678572Y-159250000D01*
X94178572Y-159178571D02*
X93607143Y-159178571D01*
X93964286Y-160178571D02*
X93964286Y-158892857D01*
X93892858Y-158750000D01*
X93750000Y-158678571D01*
X93607143Y-158678571D01*
X93107143Y-160035714D02*
X93035715Y-160107143D01*
X93107143Y-160178571D01*
X93178572Y-160107143D01*
X93107143Y-160035714D01*
X93107143Y-160178571D01*
X91750000Y-160107143D02*
X91892857Y-160178571D01*
X92178571Y-160178571D01*
X92321429Y-160107143D01*
X92392857Y-160035714D01*
X92464286Y-159892857D01*
X92464286Y-159464286D01*
X92392857Y-159321429D01*
X92321429Y-159250000D01*
X92178571Y-159178571D01*
X91892857Y-159178571D01*
X91750000Y-159250000D01*
X90892857Y-160178571D02*
X91035715Y-160107143D01*
X91107143Y-160035714D01*
X91178572Y-159892857D01*
X91178572Y-159464286D01*
X91107143Y-159321429D01*
X91035715Y-159250000D01*
X90892857Y-159178571D01*
X90678572Y-159178571D01*
X90535715Y-159250000D01*
X90464286Y-159321429D01*
X90392857Y-159464286D01*
X90392857Y-159892857D01*
X90464286Y-160035714D01*
X90535715Y-160107143D01*
X90678572Y-160178571D01*
X90892857Y-160178571D01*
X89750000Y-160035714D02*
X89678572Y-160107143D01*
X89750000Y-160178571D01*
X89821429Y-160107143D01*
X89750000Y-160035714D01*
X89750000Y-160178571D01*
X88392857Y-159178571D02*
X88392857Y-160178571D01*
X89035714Y-159178571D02*
X89035714Y-159964286D01*
X88964286Y-160107143D01*
X88821428Y-160178571D01*
X88607143Y-160178571D01*
X88464286Y-160107143D01*
X88392857Y-160035714D01*
X87678571Y-160178571D02*
X87678571Y-158678571D01*
X87535714Y-159607143D02*
X87107143Y-160178571D01*
X87107143Y-159178571D02*
X87678571Y-159750000D01*
D10*
G36*
X124441600Y-162346618D02*
X124435797Y-162439916D01*
X124411919Y-162525134D01*
X124360259Y-162611684D01*
X124271113Y-162708977D01*
X124134773Y-162826426D01*
X123941533Y-162973443D01*
X123681690Y-163159439D01*
X123402283Y-163354466D01*
X123216525Y-163483452D01*
X122958897Y-163662429D01*
X122640938Y-163883375D01*
X122274189Y-164138269D01*
X121870189Y-164419091D01*
X121440479Y-164717820D01*
X120996597Y-165026434D01*
X120550084Y-165336912D01*
X120522395Y-165356167D01*
X119966928Y-165740872D01*
X119491504Y-166066741D01*
X119094233Y-166335017D01*
X118773220Y-166546939D01*
X118526574Y-166703748D01*
X118352403Y-166806683D01*
X118248813Y-166856985D01*
X118223695Y-166862800D01*
X118134882Y-166850547D01*
X118098234Y-166793754D01*
X118091600Y-166683032D01*
X118112666Y-166544156D01*
X118188115Y-166412124D01*
X118282100Y-166305333D01*
X118364590Y-166233994D01*
X118519585Y-166114146D01*
X118738850Y-165951471D01*
X119014154Y-165751650D01*
X119337264Y-165520366D01*
X119699946Y-165263299D01*
X120093968Y-164986131D01*
X120511098Y-164694544D01*
X120943101Y-164394219D01*
X121381747Y-164090838D01*
X121818801Y-163790081D01*
X122246031Y-163497631D01*
X122655204Y-163219169D01*
X123038088Y-162960377D01*
X123386450Y-162726936D01*
X123692056Y-162524528D01*
X123946675Y-162358834D01*
X124142072Y-162235535D01*
X124270017Y-162160314D01*
X124320191Y-162138400D01*
X124397867Y-162150076D01*
X124432863Y-162203820D01*
X124441548Y-162327706D01*
X124441600Y-162346618D01*
X124441600Y-162346618D01*
X124441600Y-162346618D01*
G37*
X124441600Y-162346618D02*
X124435797Y-162439916D01*
X124411919Y-162525134D01*
X124360259Y-162611684D01*
X124271113Y-162708977D01*
X124134773Y-162826426D01*
X123941533Y-162973443D01*
X123681690Y-163159439D01*
X123402283Y-163354466D01*
X123216525Y-163483452D01*
X122958897Y-163662429D01*
X122640938Y-163883375D01*
X122274189Y-164138269D01*
X121870189Y-164419091D01*
X121440479Y-164717820D01*
X120996597Y-165026434D01*
X120550084Y-165336912D01*
X120522395Y-165356167D01*
X119966928Y-165740872D01*
X119491504Y-166066741D01*
X119094233Y-166335017D01*
X118773220Y-166546939D01*
X118526574Y-166703748D01*
X118352403Y-166806683D01*
X118248813Y-166856985D01*
X118223695Y-166862800D01*
X118134882Y-166850547D01*
X118098234Y-166793754D01*
X118091600Y-166683032D01*
X118112666Y-166544156D01*
X118188115Y-166412124D01*
X118282100Y-166305333D01*
X118364590Y-166233994D01*
X118519585Y-166114146D01*
X118738850Y-165951471D01*
X119014154Y-165751650D01*
X119337264Y-165520366D01*
X119699946Y-165263299D01*
X120093968Y-164986131D01*
X120511098Y-164694544D01*
X120943101Y-164394219D01*
X121381747Y-164090838D01*
X121818801Y-163790081D01*
X122246031Y-163497631D01*
X122655204Y-163219169D01*
X123038088Y-162960377D01*
X123386450Y-162726936D01*
X123692056Y-162524528D01*
X123946675Y-162358834D01*
X124142072Y-162235535D01*
X124270017Y-162160314D01*
X124320191Y-162138400D01*
X124397867Y-162150076D01*
X124432863Y-162203820D01*
X124441548Y-162327706D01*
X124441600Y-162346618D01*
X124441600Y-162346618D01*
G36*
X124441600Y-160441618D02*
X124434316Y-160617303D01*
X124403374Y-160731507D01*
X124335142Y-160823853D01*
X124297389Y-160860718D01*
X124223520Y-160919871D01*
X124076306Y-161029356D01*
X123866034Y-161181820D01*
X123602994Y-161369907D01*
X123297473Y-161586262D01*
X122959760Y-161823531D01*
X122600144Y-162074358D01*
X122582889Y-162086348D01*
X121885519Y-162570875D01*
X121266828Y-163000675D01*
X120721992Y-163378901D01*
X120246189Y-163708707D01*
X119834595Y-163993244D01*
X119482386Y-164235666D01*
X119184741Y-164439125D01*
X118936835Y-164606775D01*
X118733846Y-164741769D01*
X118570950Y-164847258D01*
X118443325Y-164926396D01*
X118346147Y-164982337D01*
X118274592Y-165018232D01*
X118223839Y-165037234D01*
X118189064Y-165042497D01*
X118165443Y-165037173D01*
X118148153Y-165024416D01*
X118132372Y-165007377D01*
X118125466Y-165000133D01*
X118090961Y-164904999D01*
X118095163Y-164756039D01*
X118132693Y-164590966D01*
X118198176Y-164447492D01*
X118205900Y-164436006D01*
X118265988Y-164380176D01*
X118400733Y-164273768D01*
X118602011Y-164122443D01*
X118861702Y-163931858D01*
X119171682Y-163707673D01*
X119523831Y-163455548D01*
X119910025Y-163181142D01*
X120322144Y-162890113D01*
X120752065Y-162588122D01*
X121191666Y-162280828D01*
X121632825Y-161973889D01*
X122067420Y-161672965D01*
X122487330Y-161383715D01*
X122884431Y-161111799D01*
X123250603Y-160862875D01*
X123577723Y-160642604D01*
X123857670Y-160456644D01*
X124082320Y-160310654D01*
X124243553Y-160210294D01*
X124333247Y-160161223D01*
X124346705Y-160157200D01*
X124401461Y-160171213D01*
X124430199Y-160228850D01*
X124440724Y-160353504D01*
X124441600Y-160441618D01*
X124441600Y-160441618D01*
X124441600Y-160441618D01*
G37*
X124441600Y-160441618D02*
X124434316Y-160617303D01*
X124403374Y-160731507D01*
X124335142Y-160823853D01*
X124297389Y-160860718D01*
X124223520Y-160919871D01*
X124076306Y-161029356D01*
X123866034Y-161181820D01*
X123602994Y-161369907D01*
X123297473Y-161586262D01*
X122959760Y-161823531D01*
X122600144Y-162074358D01*
X122582889Y-162086348D01*
X121885519Y-162570875D01*
X121266828Y-163000675D01*
X120721992Y-163378901D01*
X120246189Y-163708707D01*
X119834595Y-163993244D01*
X119482386Y-164235666D01*
X119184741Y-164439125D01*
X118936835Y-164606775D01*
X118733846Y-164741769D01*
X118570950Y-164847258D01*
X118443325Y-164926396D01*
X118346147Y-164982337D01*
X118274592Y-165018232D01*
X118223839Y-165037234D01*
X118189064Y-165042497D01*
X118165443Y-165037173D01*
X118148153Y-165024416D01*
X118132372Y-165007377D01*
X118125466Y-165000133D01*
X118090961Y-164904999D01*
X118095163Y-164756039D01*
X118132693Y-164590966D01*
X118198176Y-164447492D01*
X118205900Y-164436006D01*
X118265988Y-164380176D01*
X118400733Y-164273768D01*
X118602011Y-164122443D01*
X118861702Y-163931858D01*
X119171682Y-163707673D01*
X119523831Y-163455548D01*
X119910025Y-163181142D01*
X120322144Y-162890113D01*
X120752065Y-162588122D01*
X121191666Y-162280828D01*
X121632825Y-161973889D01*
X122067420Y-161672965D01*
X122487330Y-161383715D01*
X122884431Y-161111799D01*
X123250603Y-160862875D01*
X123577723Y-160642604D01*
X123857670Y-160456644D01*
X124082320Y-160310654D01*
X124243553Y-160210294D01*
X124333247Y-160161223D01*
X124346705Y-160157200D01*
X124401461Y-160171213D01*
X124430199Y-160228850D01*
X124440724Y-160353504D01*
X124441600Y-160441618D01*
X124441600Y-160441618D01*
G36*
X124441600Y-158421002D02*
X124437925Y-158609349D01*
X124419410Y-158730216D01*
X124374815Y-158817663D01*
X124292901Y-158905745D01*
X124276500Y-158921306D01*
X124194159Y-158988466D01*
X124039283Y-159104482D01*
X123820157Y-159263647D01*
X123545065Y-159460254D01*
X123222291Y-159688597D01*
X122860120Y-159942968D01*
X122466836Y-160217662D01*
X122050723Y-160506970D01*
X121620067Y-160805186D01*
X121183151Y-161106603D01*
X120748260Y-161405515D01*
X120323678Y-161696214D01*
X119917690Y-161972993D01*
X119538580Y-162230147D01*
X119194632Y-162461967D01*
X118894132Y-162662746D01*
X118645363Y-162826779D01*
X118456609Y-162948358D01*
X118336156Y-163021777D01*
X118294695Y-163041979D01*
X118183889Y-163042800D01*
X118129410Y-163022877D01*
X118096418Y-162931945D01*
X118091800Y-162777885D01*
X118112471Y-162594175D01*
X118155343Y-162414293D01*
X118194887Y-162312713D01*
X118221541Y-162266064D01*
X118261454Y-162214167D01*
X118320662Y-162152541D01*
X118405196Y-162076704D01*
X118521093Y-161982175D01*
X118674384Y-161864472D01*
X118871105Y-161719115D01*
X119117289Y-161541622D01*
X119418971Y-161327512D01*
X119782184Y-161072304D01*
X120212961Y-160771516D01*
X120717338Y-160420666D01*
X121103187Y-160152766D01*
X121583191Y-159819604D01*
X122041259Y-159501564D01*
X122470128Y-159203693D01*
X122862533Y-158931043D01*
X123211213Y-158688662D01*
X123508902Y-158481600D01*
X123748340Y-158314907D01*
X123922261Y-158193632D01*
X124023402Y-158122826D01*
X124043814Y-158108358D01*
X124204572Y-158037321D01*
X124310514Y-158043435D01*
X124380021Y-158067352D01*
X124419290Y-158111687D01*
X124436915Y-158201188D01*
X124441488Y-158360603D01*
X124441600Y-158421002D01*
X124441600Y-158421002D01*
X124441600Y-158421002D01*
G37*
X124441600Y-158421002D02*
X124437925Y-158609349D01*
X124419410Y-158730216D01*
X124374815Y-158817663D01*
X124292901Y-158905745D01*
X124276500Y-158921306D01*
X124194159Y-158988466D01*
X124039283Y-159104482D01*
X123820157Y-159263647D01*
X123545065Y-159460254D01*
X123222291Y-159688597D01*
X122860120Y-159942968D01*
X122466836Y-160217662D01*
X122050723Y-160506970D01*
X121620067Y-160805186D01*
X121183151Y-161106603D01*
X120748260Y-161405515D01*
X120323678Y-161696214D01*
X119917690Y-161972993D01*
X119538580Y-162230147D01*
X119194632Y-162461967D01*
X118894132Y-162662746D01*
X118645363Y-162826779D01*
X118456609Y-162948358D01*
X118336156Y-163021777D01*
X118294695Y-163041979D01*
X118183889Y-163042800D01*
X118129410Y-163022877D01*
X118096418Y-162931945D01*
X118091800Y-162777885D01*
X118112471Y-162594175D01*
X118155343Y-162414293D01*
X118194887Y-162312713D01*
X118221541Y-162266064D01*
X118261454Y-162214167D01*
X118320662Y-162152541D01*
X118405196Y-162076704D01*
X118521093Y-161982175D01*
X118674384Y-161864472D01*
X118871105Y-161719115D01*
X119117289Y-161541622D01*
X119418971Y-161327512D01*
X119782184Y-161072304D01*
X120212961Y-160771516D01*
X120717338Y-160420666D01*
X121103187Y-160152766D01*
X121583191Y-159819604D01*
X122041259Y-159501564D01*
X122470128Y-159203693D01*
X122862533Y-158931043D01*
X123211213Y-158688662D01*
X123508902Y-158481600D01*
X123748340Y-158314907D01*
X123922261Y-158193632D01*
X124023402Y-158122826D01*
X124043814Y-158108358D01*
X124204572Y-158037321D01*
X124310514Y-158043435D01*
X124380021Y-158067352D01*
X124419290Y-158111687D01*
X124436915Y-158201188D01*
X124441488Y-158360603D01*
X124441600Y-158421002D01*
X124441600Y-158421002D01*
G36*
X124441600Y-156092351D02*
X124439235Y-156298770D01*
X124426428Y-156433760D01*
X124394612Y-156527473D01*
X124335218Y-156610063D01*
X124276500Y-156673386D01*
X124205777Y-156732789D01*
X124061360Y-156842230D01*
X123851548Y-156995950D01*
X123584639Y-157188192D01*
X123268933Y-157413196D01*
X122912727Y-157665206D01*
X122524321Y-157938463D01*
X122112014Y-158227210D01*
X121684103Y-158525687D01*
X121248889Y-158828138D01*
X120814669Y-159128804D01*
X120389743Y-159421927D01*
X119982409Y-159701749D01*
X119600966Y-159962512D01*
X119253712Y-160198458D01*
X118948946Y-160403829D01*
X118694968Y-160572867D01*
X118500076Y-160699813D01*
X118372568Y-160778911D01*
X118322762Y-160804350D01*
X118208318Y-160792214D01*
X118155100Y-160759808D01*
X118115758Y-160665951D01*
X118095557Y-160505633D01*
X118094043Y-160312087D01*
X118110761Y-160118544D01*
X118145256Y-159958238D01*
X118166791Y-159905150D01*
X118219200Y-159848031D01*
X118342001Y-159744715D01*
X118537018Y-159593874D01*
X118806076Y-159394185D01*
X119150999Y-159144323D01*
X119573610Y-158842963D01*
X120075734Y-158488780D01*
X120659194Y-158080449D01*
X121134799Y-157749311D01*
X121621596Y-157411432D01*
X122086306Y-157089719D01*
X122521835Y-156789030D01*
X122921089Y-156514226D01*
X123276972Y-156270164D01*
X123582390Y-156061703D01*
X123830248Y-155893703D01*
X124013452Y-155771023D01*
X124124908Y-155698520D01*
X124155168Y-155680760D01*
X124281339Y-155637834D01*
X124365181Y-155653226D01*
X124414547Y-155738220D01*
X124437289Y-155904103D01*
X124441600Y-156092351D01*
X124441600Y-156092351D01*
X124441600Y-156092351D01*
G37*
X124441600Y-156092351D02*
X124439235Y-156298770D01*
X124426428Y-156433760D01*
X124394612Y-156527473D01*
X124335218Y-156610063D01*
X124276500Y-156673386D01*
X124205777Y-156732789D01*
X124061360Y-156842230D01*
X123851548Y-156995950D01*
X123584639Y-157188192D01*
X123268933Y-157413196D01*
X122912727Y-157665206D01*
X122524321Y-157938463D01*
X122112014Y-158227210D01*
X121684103Y-158525687D01*
X121248889Y-158828138D01*
X120814669Y-159128804D01*
X120389743Y-159421927D01*
X119982409Y-159701749D01*
X119600966Y-159962512D01*
X119253712Y-160198458D01*
X118948946Y-160403829D01*
X118694968Y-160572867D01*
X118500076Y-160699813D01*
X118372568Y-160778911D01*
X118322762Y-160804350D01*
X118208318Y-160792214D01*
X118155100Y-160759808D01*
X118115758Y-160665951D01*
X118095557Y-160505633D01*
X118094043Y-160312087D01*
X118110761Y-160118544D01*
X118145256Y-159958238D01*
X118166791Y-159905150D01*
X118219200Y-159848031D01*
X118342001Y-159744715D01*
X118537018Y-159593874D01*
X118806076Y-159394185D01*
X119150999Y-159144323D01*
X119573610Y-158842963D01*
X120075734Y-158488780D01*
X120659194Y-158080449D01*
X121134799Y-157749311D01*
X121621596Y-157411432D01*
X122086306Y-157089719D01*
X122521835Y-156789030D01*
X122921089Y-156514226D01*
X123276972Y-156270164D01*
X123582390Y-156061703D01*
X123830248Y-155893703D01*
X124013452Y-155771023D01*
X124124908Y-155698520D01*
X124155168Y-155680760D01*
X124281339Y-155637834D01*
X124365181Y-155653226D01*
X124414547Y-155738220D01*
X124437289Y-155904103D01*
X124441600Y-156092351D01*
X124441600Y-156092351D01*
G36*
X124441600Y-153673523D02*
X124440032Y-153896868D01*
X124430786Y-154045665D01*
X124407050Y-154146962D01*
X124362009Y-154227808D01*
X124288852Y-154315250D01*
X124276500Y-154328980D01*
X124211640Y-154389580D01*
X124095037Y-154484080D01*
X123923620Y-154614656D01*
X123694318Y-154783484D01*
X123404060Y-154992741D01*
X123049777Y-155244602D01*
X122628398Y-155541244D01*
X122136852Y-155884842D01*
X121572068Y-156277572D01*
X120930977Y-156721611D01*
X120210508Y-157219135D01*
X119768000Y-157524146D01*
X119378503Y-157792386D01*
X119063957Y-158008312D01*
X118815589Y-158177168D01*
X118624626Y-158304199D01*
X118482296Y-158394649D01*
X118379825Y-158453764D01*
X118308442Y-158486786D01*
X118259373Y-158498962D01*
X118223845Y-158495534D01*
X118193087Y-158481749D01*
X118179188Y-158473968D01*
X118137043Y-158434596D01*
X118110680Y-158360269D01*
X118096727Y-158230778D01*
X118091814Y-158025918D01*
X118091600Y-157948773D01*
X118093928Y-157720245D01*
X118104520Y-157567018D01*
X118128780Y-157462833D01*
X118172118Y-157381431D01*
X118221416Y-157318317D01*
X118279953Y-157268858D01*
X118413633Y-157167614D01*
X118614138Y-157020413D01*
X118873151Y-156833087D01*
X119182356Y-156611465D01*
X119533436Y-156361376D01*
X119918073Y-156088652D01*
X120327951Y-155799122D01*
X120754753Y-155498616D01*
X121190162Y-155192965D01*
X121625860Y-154887997D01*
X122053532Y-154589544D01*
X122464860Y-154303435D01*
X122851527Y-154035500D01*
X123205216Y-153791569D01*
X123517610Y-153577472D01*
X123780393Y-153399040D01*
X123985248Y-153262102D01*
X124123856Y-153172488D01*
X124187600Y-153136132D01*
X124294841Y-153135456D01*
X124352700Y-153155451D01*
X124395448Y-153192310D01*
X124422147Y-153263000D01*
X124436280Y-153387823D01*
X124441332Y-153587082D01*
X124441600Y-153673523D01*
X124441600Y-153673523D01*
X124441600Y-153673523D01*
G37*
X124441600Y-153673523D02*
X124440032Y-153896868D01*
X124430786Y-154045665D01*
X124407050Y-154146962D01*
X124362009Y-154227808D01*
X124288852Y-154315250D01*
X124276500Y-154328980D01*
X124211640Y-154389580D01*
X124095037Y-154484080D01*
X123923620Y-154614656D01*
X123694318Y-154783484D01*
X123404060Y-154992741D01*
X123049777Y-155244602D01*
X122628398Y-155541244D01*
X122136852Y-155884842D01*
X121572068Y-156277572D01*
X120930977Y-156721611D01*
X120210508Y-157219135D01*
X119768000Y-157524146D01*
X119378503Y-157792386D01*
X119063957Y-158008312D01*
X118815589Y-158177168D01*
X118624626Y-158304199D01*
X118482296Y-158394649D01*
X118379825Y-158453764D01*
X118308442Y-158486786D01*
X118259373Y-158498962D01*
X118223845Y-158495534D01*
X118193087Y-158481749D01*
X118179188Y-158473968D01*
X118137043Y-158434596D01*
X118110680Y-158360269D01*
X118096727Y-158230778D01*
X118091814Y-158025918D01*
X118091600Y-157948773D01*
X118093928Y-157720245D01*
X118104520Y-157567018D01*
X118128780Y-157462833D01*
X118172118Y-157381431D01*
X118221416Y-157318317D01*
X118279953Y-157268858D01*
X118413633Y-157167614D01*
X118614138Y-157020413D01*
X118873151Y-156833087D01*
X119182356Y-156611465D01*
X119533436Y-156361376D01*
X119918073Y-156088652D01*
X120327951Y-155799122D01*
X120754753Y-155498616D01*
X121190162Y-155192965D01*
X121625860Y-154887997D01*
X122053532Y-154589544D01*
X122464860Y-154303435D01*
X122851527Y-154035500D01*
X123205216Y-153791569D01*
X123517610Y-153577472D01*
X123780393Y-153399040D01*
X123985248Y-153262102D01*
X124123856Y-153172488D01*
X124187600Y-153136132D01*
X124294841Y-153135456D01*
X124352700Y-153155451D01*
X124395448Y-153192310D01*
X124422147Y-153263000D01*
X124436280Y-153387823D01*
X124441332Y-153587082D01*
X124441600Y-153673523D01*
X124441600Y-153673523D01*
G36*
X124441600Y-142079022D02*
X124441429Y-143311065D01*
X124440906Y-144444499D01*
X124440012Y-145482313D01*
X124438729Y-146427499D01*
X124437037Y-147283046D01*
X124434920Y-148051945D01*
X124432359Y-148737186D01*
X124429335Y-149341760D01*
X124425830Y-149868655D01*
X124421825Y-150320864D01*
X124417304Y-150701375D01*
X124412246Y-151013179D01*
X124406635Y-151259267D01*
X124400451Y-151442628D01*
X124393676Y-151566253D01*
X124386292Y-151633132D01*
X124383046Y-151644929D01*
X124332350Y-151694864D01*
X124206103Y-151796094D01*
X124012470Y-151942913D01*
X123759614Y-152129618D01*
X123455700Y-152350503D01*
X123108892Y-152599863D01*
X122932335Y-152725791D01*
X122932335Y-145069600D01*
X122917600Y-145069600D01*
X122917600Y-138938979D01*
X122917600Y-137398800D01*
X122917456Y-137398800D01*
X122917456Y-134170973D01*
X122903821Y-133718996D01*
X122860134Y-133354602D01*
X122782575Y-133067216D01*
X122667323Y-132846265D01*
X122510556Y-132681175D01*
X122341324Y-132576636D01*
X122128047Y-132503816D01*
X121846396Y-132450865D01*
X121521634Y-132418181D01*
X121179024Y-132406166D01*
X120843827Y-132415221D01*
X120541307Y-132445745D01*
X120296725Y-132498141D01*
X120184023Y-132542423D01*
X120040595Y-132640883D01*
X119928652Y-132751646D01*
X119846223Y-132905240D01*
X119777072Y-133122759D01*
X119730970Y-133366588D01*
X119717200Y-133565900D01*
X119717200Y-133741200D01*
X120098200Y-133741200D01*
X120479200Y-133741200D01*
X120479200Y-133540832D01*
X120520906Y-133323179D01*
X120593500Y-133209291D01*
X120664998Y-133141120D01*
X120752625Y-133097548D01*
X120883848Y-133070072D01*
X121086135Y-133050186D01*
X121114200Y-133048076D01*
X121479855Y-133042157D01*
X121759057Y-133085440D01*
X121954617Y-133178601D01*
X122041435Y-133271060D01*
X122073009Y-133331276D01*
X122096233Y-133411687D01*
X122112329Y-133527481D01*
X122122520Y-133693846D01*
X122128027Y-133925971D01*
X122130074Y-134239044D01*
X122130200Y-134373965D01*
X122127957Y-134790762D01*
X122116389Y-135116779D01*
X122088235Y-135362818D01*
X122036236Y-135539678D01*
X121953131Y-135658159D01*
X121831660Y-135729061D01*
X121664563Y-135763185D01*
X121444579Y-135771331D01*
X121194858Y-135765358D01*
X120913005Y-135748698D01*
X120715680Y-135714090D01*
X120586046Y-135650523D01*
X120507269Y-135546986D01*
X120462513Y-135392469D01*
X120445525Y-135275290D01*
X120414248Y-135011200D01*
X120040324Y-135011200D01*
X119861578Y-135011933D01*
X119746253Y-135025755D01*
X119684351Y-135070099D01*
X119665874Y-135162395D01*
X119680826Y-135320077D01*
X119719209Y-135560577D01*
X119720544Y-135568793D01*
X119775794Y-135822342D01*
X119857321Y-136022564D01*
X119976072Y-136175011D01*
X120142996Y-136285234D01*
X120369041Y-136358785D01*
X120665155Y-136401215D01*
X121042288Y-136418077D01*
X121393600Y-136417148D01*
X121680067Y-136410916D01*
X121887935Y-136400495D01*
X122040203Y-136382536D01*
X122159867Y-136353689D01*
X122269925Y-136310605D01*
X122333400Y-136280270D01*
X122513540Y-136171544D01*
X122633263Y-136041596D01*
X122698401Y-135925600D01*
X122777989Y-135697492D01*
X122841092Y-135380850D01*
X122886219Y-134987627D01*
X122911877Y-134529778D01*
X122917456Y-134170973D01*
X122917456Y-137398800D01*
X122536600Y-137398800D01*
X122155600Y-137398800D01*
X122155600Y-138895009D01*
X122153615Y-139411822D01*
X122147625Y-139828730D01*
X122137570Y-140147352D01*
X122123393Y-140369309D01*
X122105037Y-140496217D01*
X122097797Y-140518081D01*
X122017339Y-140623157D01*
X121879516Y-140694410D01*
X121671114Y-140735793D01*
X121378919Y-140751262D01*
X121317400Y-140751600D01*
X121008977Y-140740311D01*
X120786690Y-140703808D01*
X120637324Y-140638136D01*
X120547663Y-140539342D01*
X120537002Y-140518081D01*
X120517204Y-140423272D01*
X120501606Y-140233969D01*
X120490149Y-139948553D01*
X120482777Y-139565404D01*
X120479430Y-139082904D01*
X120479200Y-138895009D01*
X120479200Y-137398800D01*
X120095014Y-137398800D01*
X119710828Y-137398800D01*
X119728102Y-139037100D01*
X119733584Y-139500069D01*
X119739664Y-139872743D01*
X119746985Y-140166424D01*
X119756189Y-140392417D01*
X119767918Y-140562025D01*
X119782815Y-140686552D01*
X119801523Y-140777302D01*
X119824683Y-140845579D01*
X119831801Y-140861666D01*
X119958452Y-141052064D01*
X120147350Y-141198290D01*
X120411043Y-141307591D01*
X120733200Y-141382242D01*
X120869320Y-141393552D01*
X121076637Y-141396132D01*
X121328033Y-141391217D01*
X121596388Y-141380038D01*
X121854584Y-141363829D01*
X122075502Y-141343822D01*
X122232023Y-141321251D01*
X122268322Y-141312456D01*
X122532944Y-141186027D01*
X122725895Y-140987600D01*
X122840564Y-140738567D01*
X122863751Y-140640519D01*
X122882047Y-140512371D01*
X122895949Y-140342490D01*
X122905955Y-140119245D01*
X122912564Y-139831006D01*
X122916273Y-139466139D01*
X122917580Y-139013015D01*
X122917600Y-138938979D01*
X122917600Y-145069600D01*
X122571117Y-145069600D01*
X122209899Y-145069600D01*
X122175752Y-145327013D01*
X122133374Y-145517911D01*
X122063208Y-145629643D01*
X122034302Y-145651504D01*
X121896264Y-145703294D01*
X121686850Y-145741191D01*
X121435673Y-145762415D01*
X121172347Y-145764184D01*
X120979801Y-145750523D01*
X120747368Y-145710548D01*
X120598656Y-145641372D01*
X120516303Y-145524060D01*
X120482949Y-145339674D01*
X120479200Y-145204473D01*
X120483710Y-145031599D01*
X120506400Y-144903534D01*
X120561008Y-144811684D01*
X120661272Y-144747451D01*
X120820931Y-144702241D01*
X121053724Y-144667456D01*
X121373388Y-144634501D01*
X121393141Y-144632630D01*
X121824782Y-144586332D01*
X122165386Y-144532995D01*
X122425514Y-144464591D01*
X122615723Y-144373090D01*
X122746573Y-144250465D01*
X122828623Y-144088688D01*
X122872432Y-143879729D01*
X122888558Y-143615560D01*
X122889624Y-143494800D01*
X122872953Y-143142493D01*
X122816719Y-142873889D01*
X122711178Y-142675562D01*
X122546584Y-142534089D01*
X122313192Y-142436044D01*
X122081745Y-142381932D01*
X121760632Y-142340977D01*
X121407303Y-142326553D01*
X121047431Y-142336920D01*
X120706692Y-142370337D01*
X120410758Y-142425064D01*
X120185305Y-142499359D01*
X120158732Y-142512301D01*
X120020334Y-142634080D01*
X119909123Y-142827406D01*
X119838402Y-143063179D01*
X119819915Y-143253500D01*
X119818800Y-143494800D01*
X120173432Y-143494800D01*
X120359462Y-143492810D01*
X120468023Y-143481000D01*
X120523242Y-143450603D01*
X120549242Y-143392854D01*
X120557947Y-143355100D01*
X120603977Y-143185099D01*
X120668306Y-143065310D01*
X120767050Y-142988517D01*
X120916323Y-142947502D01*
X121132238Y-142935048D01*
X121430910Y-142943936D01*
X121471338Y-142946003D01*
X121718753Y-142966219D01*
X121883568Y-142998540D01*
X121984456Y-143046916D01*
X121996722Y-143057138D01*
X122083913Y-143187288D01*
X122128794Y-143361327D01*
X122133298Y-143550538D01*
X122099356Y-143726203D01*
X122028902Y-143859607D01*
X121938719Y-143919119D01*
X121843494Y-143935155D01*
X121672539Y-143956735D01*
X121451363Y-143980856D01*
X121240729Y-144001314D01*
X120825388Y-144044425D01*
X120499481Y-144092336D01*
X120250844Y-144150569D01*
X120067313Y-144224645D01*
X119936724Y-144320086D01*
X119846912Y-144442413D01*
X119785716Y-144597147D01*
X119766219Y-144670623D01*
X119731272Y-144915152D01*
X119726381Y-145200413D01*
X119749011Y-145489433D01*
X119796628Y-145745239D01*
X119850506Y-145900078D01*
X119982129Y-146080883D01*
X120185396Y-146213563D01*
X120468786Y-146302365D01*
X120732239Y-146342040D01*
X121000491Y-146359182D01*
X121309319Y-146362639D01*
X121627821Y-146353632D01*
X121925095Y-146333381D01*
X122170243Y-146303106D01*
X122278007Y-146281013D01*
X122520930Y-146193274D01*
X122694355Y-146064948D01*
X122809744Y-145880267D01*
X122878561Y-145623458D01*
X122902843Y-145421389D01*
X122932335Y-145069600D01*
X122932335Y-152725791D01*
X122917600Y-152736301D01*
X122917600Y-151318000D01*
X122917600Y-149311400D01*
X122917600Y-147304800D01*
X121317400Y-147304800D01*
X119717200Y-147304800D01*
X119717200Y-147635000D01*
X119717200Y-147965200D01*
X120936400Y-147965200D01*
X122155600Y-147965200D01*
X122155600Y-148498600D01*
X122155600Y-149032000D01*
X121088800Y-149032000D01*
X120022000Y-149032000D01*
X120022000Y-149336800D01*
X120022000Y-149641600D01*
X121088800Y-149641600D01*
X122155600Y-149641600D01*
X122155600Y-150445933D01*
X122157637Y-150722089D01*
X122163263Y-150961709D01*
X122171747Y-151146730D01*
X122182359Y-151259089D01*
X122189466Y-151284133D01*
X122253936Y-151301169D01*
X122390481Y-151313332D01*
X122569602Y-151317999D01*
X122570466Y-151318000D01*
X122917600Y-151318000D01*
X122917600Y-152736301D01*
X122727354Y-152871994D01*
X122319250Y-153161190D01*
X121892745Y-153461746D01*
X121456002Y-153767957D01*
X121017186Y-154074119D01*
X120584461Y-154374527D01*
X120165990Y-154663476D01*
X119769939Y-154935260D01*
X119404471Y-155184175D01*
X119077750Y-155404516D01*
X118797940Y-155590577D01*
X118573206Y-155736655D01*
X118411712Y-155837044D01*
X118321622Y-155886039D01*
X118308065Y-155890000D01*
X118194636Y-155858909D01*
X118152560Y-155829039D01*
X118145476Y-155800087D01*
X118138916Y-155725866D01*
X118132863Y-155603282D01*
X118127299Y-155429242D01*
X118122210Y-155200651D01*
X118117579Y-154914416D01*
X118113389Y-154567442D01*
X118109624Y-154156635D01*
X118106267Y-153678901D01*
X118103304Y-153131146D01*
X118100716Y-152510276D01*
X118098489Y-151813197D01*
X118096605Y-151036815D01*
X118095048Y-150178035D01*
X118093802Y-149233764D01*
X118092852Y-148200907D01*
X118092179Y-147076371D01*
X118091769Y-145857061D01*
X118091604Y-144539883D01*
X118091600Y-144255860D01*
X118091658Y-142966502D01*
X118091849Y-141774879D01*
X118092199Y-140677128D01*
X118092732Y-139669385D01*
X118093475Y-138747785D01*
X118094451Y-137908464D01*
X118095686Y-137147557D01*
X118097206Y-136461202D01*
X118099036Y-135845533D01*
X118101200Y-135296687D01*
X118103725Y-134810799D01*
X118106635Y-134384004D01*
X118109955Y-134012440D01*
X118113711Y-133692242D01*
X118117928Y-133419545D01*
X118122631Y-133190485D01*
X118127845Y-133001199D01*
X118133595Y-132847822D01*
X118139908Y-132726489D01*
X118146807Y-132633337D01*
X118154319Y-132564502D01*
X118162467Y-132516119D01*
X118168327Y-132493120D01*
X118207412Y-132403058D01*
X118290868Y-132237723D01*
X118413233Y-132006692D01*
X118569045Y-131719539D01*
X118752843Y-131385838D01*
X118959165Y-131015165D01*
X119182548Y-130617096D01*
X119417531Y-130201203D01*
X119658652Y-129777064D01*
X119900450Y-129354253D01*
X120137462Y-128942344D01*
X120364227Y-128550913D01*
X120575282Y-128189535D01*
X120765167Y-127867784D01*
X120928419Y-127595236D01*
X121059577Y-127381466D01*
X121153178Y-127236048D01*
X121203761Y-127168558D01*
X121207139Y-127165848D01*
X121321658Y-127141341D01*
X121373681Y-127163842D01*
X121412820Y-127216454D01*
X121495601Y-127348275D01*
X121616525Y-127549592D01*
X121770094Y-127810689D01*
X121950807Y-128121850D01*
X122153168Y-128473360D01*
X122371676Y-128855505D01*
X122600833Y-129258569D01*
X122835141Y-129672836D01*
X123069099Y-130088592D01*
X123297210Y-130496121D01*
X123513975Y-130885708D01*
X123713894Y-131247638D01*
X123891469Y-131572196D01*
X124041202Y-131849666D01*
X124157592Y-132070333D01*
X124217427Y-132188112D01*
X124441600Y-132641625D01*
X124441600Y-142079022D01*
X124441600Y-142079022D01*
X124441600Y-142079022D01*
G37*
X124441600Y-142079022D02*
X124441429Y-143311065D01*
X124440906Y-144444499D01*
X124440012Y-145482313D01*
X124438729Y-146427499D01*
X124437037Y-147283046D01*
X124434920Y-148051945D01*
X124432359Y-148737186D01*
X124429335Y-149341760D01*
X124425830Y-149868655D01*
X124421825Y-150320864D01*
X124417304Y-150701375D01*
X124412246Y-151013179D01*
X124406635Y-151259267D01*
X124400451Y-151442628D01*
X124393676Y-151566253D01*
X124386292Y-151633132D01*
X124383046Y-151644929D01*
X124332350Y-151694864D01*
X124206103Y-151796094D01*
X124012470Y-151942913D01*
X123759614Y-152129618D01*
X123455700Y-152350503D01*
X123108892Y-152599863D01*
X122932335Y-152725791D01*
X122932335Y-145069600D01*
X122917600Y-145069600D01*
X122917600Y-138938979D01*
X122917600Y-137398800D01*
X122917456Y-137398800D01*
X122917456Y-134170973D01*
X122903821Y-133718996D01*
X122860134Y-133354602D01*
X122782575Y-133067216D01*
X122667323Y-132846265D01*
X122510556Y-132681175D01*
X122341324Y-132576636D01*
X122128047Y-132503816D01*
X121846396Y-132450865D01*
X121521634Y-132418181D01*
X121179024Y-132406166D01*
X120843827Y-132415221D01*
X120541307Y-132445745D01*
X120296725Y-132498141D01*
X120184023Y-132542423D01*
X120040595Y-132640883D01*
X119928652Y-132751646D01*
X119846223Y-132905240D01*
X119777072Y-133122759D01*
X119730970Y-133366588D01*
X119717200Y-133565900D01*
X119717200Y-133741200D01*
X120098200Y-133741200D01*
X120479200Y-133741200D01*
X120479200Y-133540832D01*
X120520906Y-133323179D01*
X120593500Y-133209291D01*
X120664998Y-133141120D01*
X120752625Y-133097548D01*
X120883848Y-133070072D01*
X121086135Y-133050186D01*
X121114200Y-133048076D01*
X121479855Y-133042157D01*
X121759057Y-133085440D01*
X121954617Y-133178601D01*
X122041435Y-133271060D01*
X122073009Y-133331276D01*
X122096233Y-133411687D01*
X122112329Y-133527481D01*
X122122520Y-133693846D01*
X122128027Y-133925971D01*
X122130074Y-134239044D01*
X122130200Y-134373965D01*
X122127957Y-134790762D01*
X122116389Y-135116779D01*
X122088235Y-135362818D01*
X122036236Y-135539678D01*
X121953131Y-135658159D01*
X121831660Y-135729061D01*
X121664563Y-135763185D01*
X121444579Y-135771331D01*
X121194858Y-135765358D01*
X120913005Y-135748698D01*
X120715680Y-135714090D01*
X120586046Y-135650523D01*
X120507269Y-135546986D01*
X120462513Y-135392469D01*
X120445525Y-135275290D01*
X120414248Y-135011200D01*
X120040324Y-135011200D01*
X119861578Y-135011933D01*
X119746253Y-135025755D01*
X119684351Y-135070099D01*
X119665874Y-135162395D01*
X119680826Y-135320077D01*
X119719209Y-135560577D01*
X119720544Y-135568793D01*
X119775794Y-135822342D01*
X119857321Y-136022564D01*
X119976072Y-136175011D01*
X120142996Y-136285234D01*
X120369041Y-136358785D01*
X120665155Y-136401215D01*
X121042288Y-136418077D01*
X121393600Y-136417148D01*
X121680067Y-136410916D01*
X121887935Y-136400495D01*
X122040203Y-136382536D01*
X122159867Y-136353689D01*
X122269925Y-136310605D01*
X122333400Y-136280270D01*
X122513540Y-136171544D01*
X122633263Y-136041596D01*
X122698401Y-135925600D01*
X122777989Y-135697492D01*
X122841092Y-135380850D01*
X122886219Y-134987627D01*
X122911877Y-134529778D01*
X122917456Y-134170973D01*
X122917456Y-137398800D01*
X122536600Y-137398800D01*
X122155600Y-137398800D01*
X122155600Y-138895009D01*
X122153615Y-139411822D01*
X122147625Y-139828730D01*
X122137570Y-140147352D01*
X122123393Y-140369309D01*
X122105037Y-140496217D01*
X122097797Y-140518081D01*
X122017339Y-140623157D01*
X121879516Y-140694410D01*
X121671114Y-140735793D01*
X121378919Y-140751262D01*
X121317400Y-140751600D01*
X121008977Y-140740311D01*
X120786690Y-140703808D01*
X120637324Y-140638136D01*
X120547663Y-140539342D01*
X120537002Y-140518081D01*
X120517204Y-140423272D01*
X120501606Y-140233969D01*
X120490149Y-139948553D01*
X120482777Y-139565404D01*
X120479430Y-139082904D01*
X120479200Y-138895009D01*
X120479200Y-137398800D01*
X120095014Y-137398800D01*
X119710828Y-137398800D01*
X119728102Y-139037100D01*
X119733584Y-139500069D01*
X119739664Y-139872743D01*
X119746985Y-140166424D01*
X119756189Y-140392417D01*
X119767918Y-140562025D01*
X119782815Y-140686552D01*
X119801523Y-140777302D01*
X119824683Y-140845579D01*
X119831801Y-140861666D01*
X119958452Y-141052064D01*
X120147350Y-141198290D01*
X120411043Y-141307591D01*
X120733200Y-141382242D01*
X120869320Y-141393552D01*
X121076637Y-141396132D01*
X121328033Y-141391217D01*
X121596388Y-141380038D01*
X121854584Y-141363829D01*
X122075502Y-141343822D01*
X122232023Y-141321251D01*
X122268322Y-141312456D01*
X122532944Y-141186027D01*
X122725895Y-140987600D01*
X122840564Y-140738567D01*
X122863751Y-140640519D01*
X122882047Y-140512371D01*
X122895949Y-140342490D01*
X122905955Y-140119245D01*
X122912564Y-139831006D01*
X122916273Y-139466139D01*
X122917580Y-139013015D01*
X122917600Y-138938979D01*
X122917600Y-145069600D01*
X122571117Y-145069600D01*
X122209899Y-145069600D01*
X122175752Y-145327013D01*
X122133374Y-145517911D01*
X122063208Y-145629643D01*
X122034302Y-145651504D01*
X121896264Y-145703294D01*
X121686850Y-145741191D01*
X121435673Y-145762415D01*
X121172347Y-145764184D01*
X120979801Y-145750523D01*
X120747368Y-145710548D01*
X120598656Y-145641372D01*
X120516303Y-145524060D01*
X120482949Y-145339674D01*
X120479200Y-145204473D01*
X120483710Y-145031599D01*
X120506400Y-144903534D01*
X120561008Y-144811684D01*
X120661272Y-144747451D01*
X120820931Y-144702241D01*
X121053724Y-144667456D01*
X121373388Y-144634501D01*
X121393141Y-144632630D01*
X121824782Y-144586332D01*
X122165386Y-144532995D01*
X122425514Y-144464591D01*
X122615723Y-144373090D01*
X122746573Y-144250465D01*
X122828623Y-144088688D01*
X122872432Y-143879729D01*
X122888558Y-143615560D01*
X122889624Y-143494800D01*
X122872953Y-143142493D01*
X122816719Y-142873889D01*
X122711178Y-142675562D01*
X122546584Y-142534089D01*
X122313192Y-142436044D01*
X122081745Y-142381932D01*
X121760632Y-142340977D01*
X121407303Y-142326553D01*
X121047431Y-142336920D01*
X120706692Y-142370337D01*
X120410758Y-142425064D01*
X120185305Y-142499359D01*
X120158732Y-142512301D01*
X120020334Y-142634080D01*
X119909123Y-142827406D01*
X119838402Y-143063179D01*
X119819915Y-143253500D01*
X119818800Y-143494800D01*
X120173432Y-143494800D01*
X120359462Y-143492810D01*
X120468023Y-143481000D01*
X120523242Y-143450603D01*
X120549242Y-143392854D01*
X120557947Y-143355100D01*
X120603977Y-143185099D01*
X120668306Y-143065310D01*
X120767050Y-142988517D01*
X120916323Y-142947502D01*
X121132238Y-142935048D01*
X121430910Y-142943936D01*
X121471338Y-142946003D01*
X121718753Y-142966219D01*
X121883568Y-142998540D01*
X121984456Y-143046916D01*
X121996722Y-143057138D01*
X122083913Y-143187288D01*
X122128794Y-143361327D01*
X122133298Y-143550538D01*
X122099356Y-143726203D01*
X122028902Y-143859607D01*
X121938719Y-143919119D01*
X121843494Y-143935155D01*
X121672539Y-143956735D01*
X121451363Y-143980856D01*
X121240729Y-144001314D01*
X120825388Y-144044425D01*
X120499481Y-144092336D01*
X120250844Y-144150569D01*
X120067313Y-144224645D01*
X119936724Y-144320086D01*
X119846912Y-144442413D01*
X119785716Y-144597147D01*
X119766219Y-144670623D01*
X119731272Y-144915152D01*
X119726381Y-145200413D01*
X119749011Y-145489433D01*
X119796628Y-145745239D01*
X119850506Y-145900078D01*
X119982129Y-146080883D01*
X120185396Y-146213563D01*
X120468786Y-146302365D01*
X120732239Y-146342040D01*
X121000491Y-146359182D01*
X121309319Y-146362639D01*
X121627821Y-146353632D01*
X121925095Y-146333381D01*
X122170243Y-146303106D01*
X122278007Y-146281013D01*
X122520930Y-146193274D01*
X122694355Y-146064948D01*
X122809744Y-145880267D01*
X122878561Y-145623458D01*
X122902843Y-145421389D01*
X122932335Y-145069600D01*
X122932335Y-152725791D01*
X122917600Y-152736301D01*
X122917600Y-151318000D01*
X122917600Y-149311400D01*
X122917600Y-147304800D01*
X121317400Y-147304800D01*
X119717200Y-147304800D01*
X119717200Y-147635000D01*
X119717200Y-147965200D01*
X120936400Y-147965200D01*
X122155600Y-147965200D01*
X122155600Y-148498600D01*
X122155600Y-149032000D01*
X121088800Y-149032000D01*
X120022000Y-149032000D01*
X120022000Y-149336800D01*
X120022000Y-149641600D01*
X121088800Y-149641600D01*
X122155600Y-149641600D01*
X122155600Y-150445933D01*
X122157637Y-150722089D01*
X122163263Y-150961709D01*
X122171747Y-151146730D01*
X122182359Y-151259089D01*
X122189466Y-151284133D01*
X122253936Y-151301169D01*
X122390481Y-151313332D01*
X122569602Y-151317999D01*
X122570466Y-151318000D01*
X122917600Y-151318000D01*
X122917600Y-152736301D01*
X122727354Y-152871994D01*
X122319250Y-153161190D01*
X121892745Y-153461746D01*
X121456002Y-153767957D01*
X121017186Y-154074119D01*
X120584461Y-154374527D01*
X120165990Y-154663476D01*
X119769939Y-154935260D01*
X119404471Y-155184175D01*
X119077750Y-155404516D01*
X118797940Y-155590577D01*
X118573206Y-155736655D01*
X118411712Y-155837044D01*
X118321622Y-155886039D01*
X118308065Y-155890000D01*
X118194636Y-155858909D01*
X118152560Y-155829039D01*
X118145476Y-155800087D01*
X118138916Y-155725866D01*
X118132863Y-155603282D01*
X118127299Y-155429242D01*
X118122210Y-155200651D01*
X118117579Y-154914416D01*
X118113389Y-154567442D01*
X118109624Y-154156635D01*
X118106267Y-153678901D01*
X118103304Y-153131146D01*
X118100716Y-152510276D01*
X118098489Y-151813197D01*
X118096605Y-151036815D01*
X118095048Y-150178035D01*
X118093802Y-149233764D01*
X118092852Y-148200907D01*
X118092179Y-147076371D01*
X118091769Y-145857061D01*
X118091604Y-144539883D01*
X118091600Y-144255860D01*
X118091658Y-142966502D01*
X118091849Y-141774879D01*
X118092199Y-140677128D01*
X118092732Y-139669385D01*
X118093475Y-138747785D01*
X118094451Y-137908464D01*
X118095686Y-137147557D01*
X118097206Y-136461202D01*
X118099036Y-135845533D01*
X118101200Y-135296687D01*
X118103725Y-134810799D01*
X118106635Y-134384004D01*
X118109955Y-134012440D01*
X118113711Y-133692242D01*
X118117928Y-133419545D01*
X118122631Y-133190485D01*
X118127845Y-133001199D01*
X118133595Y-132847822D01*
X118139908Y-132726489D01*
X118146807Y-132633337D01*
X118154319Y-132564502D01*
X118162467Y-132516119D01*
X118168327Y-132493120D01*
X118207412Y-132403058D01*
X118290868Y-132237723D01*
X118413233Y-132006692D01*
X118569045Y-131719539D01*
X118752843Y-131385838D01*
X118959165Y-131015165D01*
X119182548Y-130617096D01*
X119417531Y-130201203D01*
X119658652Y-129777064D01*
X119900450Y-129354253D01*
X120137462Y-128942344D01*
X120364227Y-128550913D01*
X120575282Y-128189535D01*
X120765167Y-127867784D01*
X120928419Y-127595236D01*
X121059577Y-127381466D01*
X121153178Y-127236048D01*
X121203761Y-127168558D01*
X121207139Y-127165848D01*
X121321658Y-127141341D01*
X121373681Y-127163842D01*
X121412820Y-127216454D01*
X121495601Y-127348275D01*
X121616525Y-127549592D01*
X121770094Y-127810689D01*
X121950807Y-128121850D01*
X122153168Y-128473360D01*
X122371676Y-128855505D01*
X122600833Y-129258569D01*
X122835141Y-129672836D01*
X123069099Y-130088592D01*
X123297210Y-130496121D01*
X123513975Y-130885708D01*
X123713894Y-131247638D01*
X123891469Y-131572196D01*
X124041202Y-131849666D01*
X124157592Y-132070333D01*
X124217427Y-132188112D01*
X124441600Y-132641625D01*
X124441600Y-142079022D01*
X124441600Y-142079022D01*
G36*
X110497000Y-149286000D02*
X110493304Y-149760491D01*
X110479759Y-150144907D01*
X110452683Y-150450588D01*
X110408391Y-150688871D01*
X110343198Y-150871096D01*
X110253421Y-151008600D01*
X110135376Y-151112723D01*
X109985378Y-151194801D01*
X109860553Y-151244792D01*
X109700121Y-151282888D01*
X109463915Y-151313565D01*
X109177557Y-151335816D01*
X108866673Y-151348632D01*
X108556884Y-151351003D01*
X108273815Y-151341921D01*
X108043089Y-151320378D01*
X108021831Y-151317177D01*
X107719085Y-151246469D01*
X107504040Y-151141664D01*
X107367051Y-150997750D01*
X107350460Y-150968319D01*
X107282223Y-150778866D01*
X107227344Y-150511216D01*
X107189162Y-150188278D01*
X107171018Y-149832960D01*
X107169983Y-149730500D01*
X107169600Y-149286000D01*
X108058600Y-149286000D01*
X108947600Y-149286000D01*
X108947600Y-149514600D01*
X108947600Y-149743200D01*
X108318524Y-149743200D01*
X108055430Y-149744304D01*
X107876631Y-149749398D01*
X107764834Y-149761150D01*
X107702743Y-149782229D01*
X107673063Y-149815304D01*
X107662995Y-149844361D01*
X107653848Y-149966334D01*
X107664444Y-150148883D01*
X107689844Y-150354026D01*
X107725106Y-150543784D01*
X107765291Y-150680175D01*
X107774157Y-150698978D01*
X107849828Y-150784962D01*
X107978466Y-150846577D01*
X108171205Y-150885838D01*
X108439178Y-150904761D01*
X108793518Y-150905361D01*
X108900057Y-150902796D01*
X109215134Y-150891564D01*
X109465819Y-150870490D01*
X109659409Y-150828953D01*
X109803198Y-150756334D01*
X109904484Y-150642014D01*
X109970563Y-150475371D01*
X110008731Y-150245787D01*
X110026283Y-149942640D01*
X110030517Y-149555312D01*
X110029608Y-149258687D01*
X110025123Y-148848113D01*
X110014162Y-148526674D01*
X109993929Y-148281972D01*
X109961626Y-148101610D01*
X109914457Y-147973190D01*
X109849624Y-147884313D01*
X109764330Y-147822583D01*
X109698728Y-147792008D01*
X109444111Y-147723140D01*
X109109165Y-147687468D01*
X108709956Y-147686097D01*
X108422810Y-147704193D01*
X108141324Y-147736027D01*
X107944905Y-147781906D01*
X107817051Y-147853324D01*
X107741261Y-147961773D01*
X107701034Y-148118749D01*
X107689487Y-148214960D01*
X107664673Y-148473200D01*
X107409899Y-148473200D01*
X107155126Y-148473200D01*
X107187937Y-148159277D01*
X107246882Y-147843558D01*
X107347616Y-147603183D01*
X107485853Y-147447214D01*
X107539734Y-147415448D01*
X107760285Y-147343439D01*
X108064557Y-147293014D01*
X108436657Y-147265782D01*
X108860688Y-147263353D01*
X108998400Y-147267814D01*
X109409118Y-147296529D01*
X109732510Y-147348855D01*
X109981261Y-147430507D01*
X110168057Y-147547197D01*
X110305582Y-147704642D01*
X110403564Y-147900826D01*
X110434657Y-147993334D01*
X110458128Y-148098278D01*
X110475001Y-148230832D01*
X110486300Y-148406169D01*
X110493048Y-148639465D01*
X110496270Y-148945894D01*
X110497000Y-149286000D01*
X110497000Y-149286000D01*
X110497000Y-149286000D01*
G37*
X110497000Y-149286000D02*
X110493304Y-149760491D01*
X110479759Y-150144907D01*
X110452683Y-150450588D01*
X110408391Y-150688871D01*
X110343198Y-150871096D01*
X110253421Y-151008600D01*
X110135376Y-151112723D01*
X109985378Y-151194801D01*
X109860553Y-151244792D01*
X109700121Y-151282888D01*
X109463915Y-151313565D01*
X109177557Y-151335816D01*
X108866673Y-151348632D01*
X108556884Y-151351003D01*
X108273815Y-151341921D01*
X108043089Y-151320378D01*
X108021831Y-151317177D01*
X107719085Y-151246469D01*
X107504040Y-151141664D01*
X107367051Y-150997750D01*
X107350460Y-150968319D01*
X107282223Y-150778866D01*
X107227344Y-150511216D01*
X107189162Y-150188278D01*
X107171018Y-149832960D01*
X107169983Y-149730500D01*
X107169600Y-149286000D01*
X108058600Y-149286000D01*
X108947600Y-149286000D01*
X108947600Y-149514600D01*
X108947600Y-149743200D01*
X108318524Y-149743200D01*
X108055430Y-149744304D01*
X107876631Y-149749398D01*
X107764834Y-149761150D01*
X107702743Y-149782229D01*
X107673063Y-149815304D01*
X107662995Y-149844361D01*
X107653848Y-149966334D01*
X107664444Y-150148883D01*
X107689844Y-150354026D01*
X107725106Y-150543784D01*
X107765291Y-150680175D01*
X107774157Y-150698978D01*
X107849828Y-150784962D01*
X107978466Y-150846577D01*
X108171205Y-150885838D01*
X108439178Y-150904761D01*
X108793518Y-150905361D01*
X108900057Y-150902796D01*
X109215134Y-150891564D01*
X109465819Y-150870490D01*
X109659409Y-150828953D01*
X109803198Y-150756334D01*
X109904484Y-150642014D01*
X109970563Y-150475371D01*
X110008731Y-150245787D01*
X110026283Y-149942640D01*
X110030517Y-149555312D01*
X110029608Y-149258687D01*
X110025123Y-148848113D01*
X110014162Y-148526674D01*
X109993929Y-148281972D01*
X109961626Y-148101610D01*
X109914457Y-147973190D01*
X109849624Y-147884313D01*
X109764330Y-147822583D01*
X109698728Y-147792008D01*
X109444111Y-147723140D01*
X109109165Y-147687468D01*
X108709956Y-147686097D01*
X108422810Y-147704193D01*
X108141324Y-147736027D01*
X107944905Y-147781906D01*
X107817051Y-147853324D01*
X107741261Y-147961773D01*
X107701034Y-148118749D01*
X107689487Y-148214960D01*
X107664673Y-148473200D01*
X107409899Y-148473200D01*
X107155126Y-148473200D01*
X107187937Y-148159277D01*
X107246882Y-147843558D01*
X107347616Y-147603183D01*
X107485853Y-147447214D01*
X107539734Y-147415448D01*
X107760285Y-147343439D01*
X108064557Y-147293014D01*
X108436657Y-147265782D01*
X108860688Y-147263353D01*
X108998400Y-147267814D01*
X109409118Y-147296529D01*
X109732510Y-147348855D01*
X109981261Y-147430507D01*
X110168057Y-147547197D01*
X110305582Y-147704642D01*
X110403564Y-147900826D01*
X110434657Y-147993334D01*
X110458128Y-148098278D01*
X110475001Y-148230832D01*
X110486300Y-148406169D01*
X110493048Y-148639465D01*
X110496270Y-148945894D01*
X110497000Y-149286000D01*
X110497000Y-149286000D01*
G36*
X100616400Y-147762000D02*
X99981400Y-147762000D01*
X99346400Y-147762000D01*
X99346400Y-149540000D01*
X99346400Y-151318000D01*
X99092400Y-151318000D01*
X98838400Y-151318000D01*
X98838400Y-149540000D01*
X98838400Y-147762000D01*
X98203400Y-147762000D01*
X97568400Y-147762000D01*
X97568400Y-147533400D01*
X97568400Y-147304800D01*
X99092400Y-147304800D01*
X100616400Y-147304800D01*
X100616400Y-147533400D01*
X100616400Y-147762000D01*
X100616400Y-147762000D01*
X100616400Y-147762000D01*
G37*
X100616400Y-147762000D02*
X99981400Y-147762000D01*
X99346400Y-147762000D01*
X99346400Y-149540000D01*
X99346400Y-151318000D01*
X99092400Y-151318000D01*
X98838400Y-151318000D01*
X98838400Y-149540000D01*
X98838400Y-147762000D01*
X98203400Y-147762000D01*
X97568400Y-147762000D01*
X97568400Y-147533400D01*
X97568400Y-147304800D01*
X99092400Y-147304800D01*
X100616400Y-147304800D01*
X100616400Y-147533400D01*
X100616400Y-147762000D01*
X100616400Y-147762000D01*
G36*
X105442400Y-151318000D02*
X105213800Y-151318000D01*
X104985200Y-151318000D01*
X104985200Y-150403600D01*
X104985200Y-149489200D01*
X103842200Y-149489200D01*
X102699200Y-149489200D01*
X102699200Y-150403600D01*
X102699200Y-151318000D01*
X102445200Y-151318000D01*
X102191200Y-151318000D01*
X102191200Y-149311400D01*
X102191200Y-147304800D01*
X102445200Y-147304800D01*
X102699200Y-147304800D01*
X102699200Y-148168400D01*
X102699200Y-149032000D01*
X103842200Y-149032000D01*
X104985200Y-149032000D01*
X104985200Y-148168400D01*
X104985200Y-147304800D01*
X105213800Y-147304800D01*
X105442400Y-147304800D01*
X105442400Y-149311400D01*
X105442400Y-151318000D01*
X105442400Y-151318000D01*
X105442400Y-151318000D01*
G37*
X105442400Y-151318000D02*
X105213800Y-151318000D01*
X104985200Y-151318000D01*
X104985200Y-150403600D01*
X104985200Y-149489200D01*
X103842200Y-149489200D01*
X102699200Y-149489200D01*
X102699200Y-150403600D01*
X102699200Y-151318000D01*
X102445200Y-151318000D01*
X102191200Y-151318000D01*
X102191200Y-149311400D01*
X102191200Y-147304800D01*
X102445200Y-147304800D01*
X102699200Y-147304800D01*
X102699200Y-148168400D01*
X102699200Y-149032000D01*
X103842200Y-149032000D01*
X104985200Y-149032000D01*
X104985200Y-148168400D01*
X104985200Y-147304800D01*
X105213800Y-147304800D01*
X105442400Y-147304800D01*
X105442400Y-149311400D01*
X105442400Y-151318000D01*
X105442400Y-151318000D01*
G36*
X112757600Y-151318000D02*
X112529000Y-151318000D01*
X112300400Y-151318000D01*
X112300400Y-149311400D01*
X112300400Y-147304800D01*
X112529000Y-147304800D01*
X112757600Y-147304800D01*
X112757600Y-149311400D01*
X112757600Y-151318000D01*
X112757600Y-151318000D01*
X112757600Y-151318000D01*
G37*
X112757600Y-151318000D02*
X112529000Y-151318000D01*
X112300400Y-151318000D01*
X112300400Y-149311400D01*
X112300400Y-147304800D01*
X112529000Y-147304800D01*
X112757600Y-147304800D01*
X112757600Y-149311400D01*
X112757600Y-151318000D01*
X112757600Y-151318000D01*
G36*
X116872400Y-151318000D02*
X115602400Y-151318000D01*
X114332400Y-151318000D01*
X114332400Y-151089400D01*
X114332400Y-150860800D01*
X115348400Y-150860800D01*
X116364400Y-150860800D01*
X116364400Y-149082800D01*
X116364400Y-147304800D01*
X116618400Y-147304800D01*
X116872400Y-147304800D01*
X116872400Y-149311400D01*
X116872400Y-151318000D01*
X116872400Y-151318000D01*
X116872400Y-151318000D01*
G37*
X116872400Y-151318000D02*
X115602400Y-151318000D01*
X114332400Y-151318000D01*
X114332400Y-151089400D01*
X114332400Y-150860800D01*
X115348400Y-150860800D01*
X116364400Y-150860800D01*
X116364400Y-149082800D01*
X116364400Y-147304800D01*
X116618400Y-147304800D01*
X116872400Y-147304800D01*
X116872400Y-149311400D01*
X116872400Y-151318000D01*
X116872400Y-151318000D01*
G36*
X105721800Y-144180600D02*
X105719086Y-144641168D01*
X105709736Y-145012923D01*
X105691938Y-145308537D01*
X105663880Y-145540682D01*
X105623749Y-145722029D01*
X105569734Y-145865252D01*
X105500021Y-145983021D01*
X105455940Y-146039629D01*
X105348557Y-146150425D01*
X105227879Y-146232893D01*
X105076902Y-146291507D01*
X104878626Y-146330742D01*
X104616048Y-146355074D01*
X104272167Y-146368977D01*
X104197800Y-146370774D01*
X103784240Y-146373230D01*
X103449511Y-146360752D01*
X103203107Y-146333771D01*
X103148410Y-146323044D01*
X102914002Y-146251680D01*
X102744480Y-146148885D01*
X102628861Y-145998664D01*
X102556165Y-145785021D01*
X102515409Y-145491961D01*
X102508025Y-145390306D01*
X102481678Y-144968000D01*
X102742839Y-144968000D01*
X103004000Y-144968000D01*
X103004000Y-145295367D01*
X103011236Y-145493683D01*
X103038826Y-145626063D01*
X103095589Y-145727516D01*
X103120633Y-145758329D01*
X103184946Y-145822432D01*
X103262070Y-145866579D01*
X103375496Y-145897803D01*
X103548717Y-145923135D01*
X103737759Y-145943064D01*
X104124405Y-145963625D01*
X104467962Y-145947597D01*
X104750849Y-145896920D01*
X104955486Y-145813535D01*
X104964701Y-145807659D01*
X105038083Y-145741750D01*
X105095598Y-145643700D01*
X105139058Y-145501999D01*
X105170271Y-145305137D01*
X105191049Y-145041605D01*
X105203201Y-144699893D01*
X105208537Y-144268491D01*
X105208597Y-144256800D01*
X105208634Y-143853765D01*
X105202518Y-143539655D01*
X105187683Y-143301855D01*
X105161561Y-143127753D01*
X105121585Y-143004735D01*
X105065185Y-142920188D01*
X104989796Y-142861499D01*
X104917342Y-142826057D01*
X104778633Y-142792299D01*
X104548003Y-142770180D01*
X104221773Y-142759416D01*
X104034111Y-142758200D01*
X103747503Y-142759171D01*
X103544349Y-142763711D01*
X103406508Y-142774262D01*
X103315840Y-142793264D01*
X103254205Y-142823158D01*
X103203462Y-142866384D01*
X103199295Y-142870526D01*
X103125129Y-142977601D01*
X103081951Y-143133282D01*
X103064778Y-143289626D01*
X103042588Y-143596400D01*
X102787326Y-143596400D01*
X102532064Y-143596400D01*
X102562164Y-143237360D01*
X102609605Y-142938326D01*
X102701840Y-142701881D01*
X102847222Y-142523201D01*
X103054104Y-142397466D01*
X103330837Y-142319853D01*
X103685776Y-142285540D01*
X104127272Y-142289707D01*
X104197800Y-142293157D01*
X104629466Y-142330080D01*
X104973291Y-142393021D01*
X105240715Y-142486429D01*
X105443180Y-142614753D01*
X105592128Y-142782441D01*
X105633914Y-142851585D01*
X105662685Y-142915722D01*
X105684529Y-142998407D01*
X105700360Y-143113439D01*
X105711089Y-143274618D01*
X105717631Y-143495745D01*
X105720897Y-143790620D01*
X105721799Y-144173044D01*
X105721800Y-144180600D01*
X105721800Y-144180600D01*
X105721800Y-144180600D01*
G37*
X105721800Y-144180600D02*
X105719086Y-144641168D01*
X105709736Y-145012923D01*
X105691938Y-145308537D01*
X105663880Y-145540682D01*
X105623749Y-145722029D01*
X105569734Y-145865252D01*
X105500021Y-145983021D01*
X105455940Y-146039629D01*
X105348557Y-146150425D01*
X105227879Y-146232893D01*
X105076902Y-146291507D01*
X104878626Y-146330742D01*
X104616048Y-146355074D01*
X104272167Y-146368977D01*
X104197800Y-146370774D01*
X103784240Y-146373230D01*
X103449511Y-146360752D01*
X103203107Y-146333771D01*
X103148410Y-146323044D01*
X102914002Y-146251680D01*
X102744480Y-146148885D01*
X102628861Y-145998664D01*
X102556165Y-145785021D01*
X102515409Y-145491961D01*
X102508025Y-145390306D01*
X102481678Y-144968000D01*
X102742839Y-144968000D01*
X103004000Y-144968000D01*
X103004000Y-145295367D01*
X103011236Y-145493683D01*
X103038826Y-145626063D01*
X103095589Y-145727516D01*
X103120633Y-145758329D01*
X103184946Y-145822432D01*
X103262070Y-145866579D01*
X103375496Y-145897803D01*
X103548717Y-145923135D01*
X103737759Y-145943064D01*
X104124405Y-145963625D01*
X104467962Y-145947597D01*
X104750849Y-145896920D01*
X104955486Y-145813535D01*
X104964701Y-145807659D01*
X105038083Y-145741750D01*
X105095598Y-145643700D01*
X105139058Y-145501999D01*
X105170271Y-145305137D01*
X105191049Y-145041605D01*
X105203201Y-144699893D01*
X105208537Y-144268491D01*
X105208597Y-144256800D01*
X105208634Y-143853765D01*
X105202518Y-143539655D01*
X105187683Y-143301855D01*
X105161561Y-143127753D01*
X105121585Y-143004735D01*
X105065185Y-142920188D01*
X104989796Y-142861499D01*
X104917342Y-142826057D01*
X104778633Y-142792299D01*
X104548003Y-142770180D01*
X104221773Y-142759416D01*
X104034111Y-142758200D01*
X103747503Y-142759171D01*
X103544349Y-142763711D01*
X103406508Y-142774262D01*
X103315840Y-142793264D01*
X103254205Y-142823158D01*
X103203462Y-142866384D01*
X103199295Y-142870526D01*
X103125129Y-142977601D01*
X103081951Y-143133282D01*
X103064778Y-143289626D01*
X103042588Y-143596400D01*
X102787326Y-143596400D01*
X102532064Y-143596400D01*
X102562164Y-143237360D01*
X102609605Y-142938326D01*
X102701840Y-142701881D01*
X102847222Y-142523201D01*
X103054104Y-142397466D01*
X103330837Y-142319853D01*
X103685776Y-142285540D01*
X104127272Y-142289707D01*
X104197800Y-142293157D01*
X104629466Y-142330080D01*
X104973291Y-142393021D01*
X105240715Y-142486429D01*
X105443180Y-142614753D01*
X105592128Y-142782441D01*
X105633914Y-142851585D01*
X105662685Y-142915722D01*
X105684529Y-142998407D01*
X105700360Y-143113439D01*
X105711089Y-143274618D01*
X105717631Y-143495745D01*
X105720897Y-143790620D01*
X105721799Y-144173044D01*
X105721800Y-144180600D01*
X105721800Y-144180600D01*
G36*
X100159200Y-146339600D02*
X98838400Y-146339600D01*
X97517600Y-146339600D01*
X97517600Y-146136400D01*
X97517600Y-145933200D01*
X98584400Y-145933200D01*
X99651200Y-145933200D01*
X99651200Y-145222000D01*
X99651200Y-144510800D01*
X98635200Y-144510800D01*
X97619200Y-144510800D01*
X97619200Y-144282200D01*
X97619200Y-144053600D01*
X98635200Y-144053600D01*
X99651200Y-144053600D01*
X99651200Y-143393200D01*
X99651200Y-142732800D01*
X98584400Y-142732800D01*
X97517600Y-142732800D01*
X97517600Y-142529600D01*
X97517600Y-142326400D01*
X98838400Y-142326400D01*
X100159200Y-142326400D01*
X100159200Y-144333000D01*
X100159200Y-146339600D01*
X100159200Y-146339600D01*
X100159200Y-146339600D01*
G37*
X100159200Y-146339600D02*
X98838400Y-146339600D01*
X97517600Y-146339600D01*
X97517600Y-146136400D01*
X97517600Y-145933200D01*
X98584400Y-145933200D01*
X99651200Y-145933200D01*
X99651200Y-145222000D01*
X99651200Y-144510800D01*
X98635200Y-144510800D01*
X97619200Y-144510800D01*
X97619200Y-144282200D01*
X97619200Y-144053600D01*
X98635200Y-144053600D01*
X99651200Y-144053600D01*
X99651200Y-143393200D01*
X99651200Y-142732800D01*
X98584400Y-142732800D01*
X97517600Y-142732800D01*
X97517600Y-142529600D01*
X97517600Y-142326400D01*
X98838400Y-142326400D01*
X100159200Y-142326400D01*
X100159200Y-144333000D01*
X100159200Y-146339600D01*
X100159200Y-146339600D01*
G36*
X111621853Y-146302472D02*
X111576380Y-146329238D01*
X111460274Y-146338751D01*
X111376723Y-146339468D01*
X111106600Y-146339336D01*
X110962739Y-145932007D01*
X110818878Y-145524679D01*
X110670246Y-145526737D01*
X110670246Y-145120400D01*
X110552206Y-144802900D01*
X110494466Y-144645574D01*
X110411536Y-144416939D01*
X110312230Y-144141423D01*
X110205364Y-143843458D01*
X110139749Y-143659767D01*
X110043053Y-143391881D01*
X109957875Y-143162103D01*
X109889985Y-142985506D01*
X109845157Y-142877161D01*
X109829587Y-142849879D01*
X109808363Y-142900117D01*
X109757786Y-143031894D01*
X109683083Y-143231217D01*
X109589483Y-143484091D01*
X109482216Y-143776522D01*
X109435679Y-143904112D01*
X109322656Y-144214168D01*
X109219842Y-144495613D01*
X109132847Y-144733135D01*
X109067285Y-144911420D01*
X109028767Y-145015155D01*
X109022523Y-145031500D01*
X109016243Y-145064284D01*
X109036296Y-145087871D01*
X109096285Y-145103760D01*
X109209812Y-145113450D01*
X109390480Y-145118441D01*
X109651892Y-145120234D01*
X109828888Y-145120400D01*
X110670246Y-145120400D01*
X110670246Y-145526737D01*
X109825585Y-145538439D01*
X108832291Y-145552200D01*
X108682454Y-145945900D01*
X108532616Y-146339600D01*
X108282908Y-146339600D01*
X108139410Y-146331776D01*
X108049117Y-146311806D01*
X108033200Y-146296810D01*
X108050490Y-146241471D01*
X108099859Y-146101286D01*
X108177553Y-145886481D01*
X108279819Y-145607283D01*
X108402905Y-145273919D01*
X108543057Y-144896613D01*
X108696523Y-144485593D01*
X108764968Y-144302910D01*
X109496737Y-142351800D01*
X109843080Y-142351800D01*
X110189424Y-142351800D01*
X110889029Y-144256800D01*
X111043177Y-144676775D01*
X111187010Y-145069099D01*
X111316603Y-145423032D01*
X111428033Y-145727840D01*
X111517376Y-145972784D01*
X111580708Y-146147129D01*
X111614104Y-146240138D01*
X111617740Y-146250700D01*
X111621853Y-146302472D01*
X111621853Y-146302472D01*
X111621853Y-146302472D01*
G37*
X111621853Y-146302472D02*
X111576380Y-146329238D01*
X111460274Y-146338751D01*
X111376723Y-146339468D01*
X111106600Y-146339336D01*
X110962739Y-145932007D01*
X110818878Y-145524679D01*
X110670246Y-145526737D01*
X110670246Y-145120400D01*
X110552206Y-144802900D01*
X110494466Y-144645574D01*
X110411536Y-144416939D01*
X110312230Y-144141423D01*
X110205364Y-143843458D01*
X110139749Y-143659767D01*
X110043053Y-143391881D01*
X109957875Y-143162103D01*
X109889985Y-142985506D01*
X109845157Y-142877161D01*
X109829587Y-142849879D01*
X109808363Y-142900117D01*
X109757786Y-143031894D01*
X109683083Y-143231217D01*
X109589483Y-143484091D01*
X109482216Y-143776522D01*
X109435679Y-143904112D01*
X109322656Y-144214168D01*
X109219842Y-144495613D01*
X109132847Y-144733135D01*
X109067285Y-144911420D01*
X109028767Y-145015155D01*
X109022523Y-145031500D01*
X109016243Y-145064284D01*
X109036296Y-145087871D01*
X109096285Y-145103760D01*
X109209812Y-145113450D01*
X109390480Y-145118441D01*
X109651892Y-145120234D01*
X109828888Y-145120400D01*
X110670246Y-145120400D01*
X110670246Y-145526737D01*
X109825585Y-145538439D01*
X108832291Y-145552200D01*
X108682454Y-145945900D01*
X108532616Y-146339600D01*
X108282908Y-146339600D01*
X108139410Y-146331776D01*
X108049117Y-146311806D01*
X108033200Y-146296810D01*
X108050490Y-146241471D01*
X108099859Y-146101286D01*
X108177553Y-145886481D01*
X108279819Y-145607283D01*
X108402905Y-145273919D01*
X108543057Y-144896613D01*
X108696523Y-144485593D01*
X108764968Y-144302910D01*
X109496737Y-142351800D01*
X109843080Y-142351800D01*
X110189424Y-142351800D01*
X110889029Y-144256800D01*
X111043177Y-144676775D01*
X111187010Y-145069099D01*
X111316603Y-145423032D01*
X111428033Y-145727840D01*
X111517376Y-145972784D01*
X111580708Y-146147129D01*
X111614104Y-146240138D01*
X111617740Y-146250700D01*
X111621853Y-146302472D01*
X111621853Y-146302472D01*
G36*
X116872400Y-146339600D02*
X116618400Y-146339600D01*
X116364400Y-146339600D01*
X116364400Y-145555279D01*
X116364400Y-144770958D01*
X116364400Y-144358400D01*
X116364400Y-143545600D01*
X116364400Y-142732800D01*
X115716700Y-142736508D01*
X115292982Y-142744595D01*
X114962183Y-142764155D01*
X114716154Y-142796258D01*
X114546747Y-142841972D01*
X114445814Y-142902369D01*
X114444659Y-142903512D01*
X114398213Y-142977686D01*
X114367064Y-143102702D01*
X114347425Y-143298267D01*
X114339953Y-143448213D01*
X114334551Y-143714319D01*
X114348872Y-143921638D01*
X114393870Y-144077633D01*
X114480499Y-144189765D01*
X114619711Y-144265494D01*
X114822460Y-144312284D01*
X115099698Y-144337595D01*
X115462380Y-144348889D01*
X115665900Y-144351481D01*
X116364400Y-144358400D01*
X116364400Y-144770958D01*
X115411900Y-144755179D01*
X115017808Y-144745820D01*
X114711250Y-144729719D01*
X114478197Y-144702847D01*
X114304619Y-144661174D01*
X114176486Y-144600669D01*
X114079768Y-144517305D01*
X114000436Y-144407050D01*
X113961907Y-144338709D01*
X113910885Y-144228827D01*
X113878047Y-144112044D01*
X113859664Y-143962552D01*
X113852009Y-143754542D01*
X113851024Y-143571000D01*
X113863142Y-143223063D01*
X113902340Y-142957237D01*
X113974036Y-142756369D01*
X114083645Y-142603307D01*
X114183931Y-142516806D01*
X114278930Y-142458176D01*
X114392701Y-142412715D01*
X114538651Y-142378846D01*
X114730190Y-142354992D01*
X114980725Y-142339577D01*
X115303664Y-142331024D01*
X115712415Y-142327756D01*
X115792900Y-142327611D01*
X116872400Y-142326400D01*
X116872400Y-144333000D01*
X116872400Y-146339600D01*
X116872400Y-146339600D01*
X116872400Y-146339600D01*
G37*
X116872400Y-146339600D02*
X116618400Y-146339600D01*
X116364400Y-146339600D01*
X116364400Y-145555279D01*
X116364400Y-144770958D01*
X116364400Y-144358400D01*
X116364400Y-143545600D01*
X116364400Y-142732800D01*
X115716700Y-142736508D01*
X115292982Y-142744595D01*
X114962183Y-142764155D01*
X114716154Y-142796258D01*
X114546747Y-142841972D01*
X114445814Y-142902369D01*
X114444659Y-142903512D01*
X114398213Y-142977686D01*
X114367064Y-143102702D01*
X114347425Y-143298267D01*
X114339953Y-143448213D01*
X114334551Y-143714319D01*
X114348872Y-143921638D01*
X114393870Y-144077633D01*
X114480499Y-144189765D01*
X114619711Y-144265494D01*
X114822460Y-144312284D01*
X115099698Y-144337595D01*
X115462380Y-144348889D01*
X115665900Y-144351481D01*
X116364400Y-144358400D01*
X116364400Y-144770958D01*
X115411900Y-144755179D01*
X115017808Y-144745820D01*
X114711250Y-144729719D01*
X114478197Y-144702847D01*
X114304619Y-144661174D01*
X114176486Y-144600669D01*
X114079768Y-144517305D01*
X114000436Y-144407050D01*
X113961907Y-144338709D01*
X113910885Y-144228827D01*
X113878047Y-144112044D01*
X113859664Y-143962552D01*
X113852009Y-143754542D01*
X113851024Y-143571000D01*
X113863142Y-143223063D01*
X113902340Y-142957237D01*
X113974036Y-142756369D01*
X114083645Y-142603307D01*
X114183931Y-142516806D01*
X114278930Y-142458176D01*
X114392701Y-142412715D01*
X114538651Y-142378846D01*
X114730190Y-142354992D01*
X114980725Y-142339577D01*
X115303664Y-142331024D01*
X115712415Y-142327756D01*
X115792900Y-142327611D01*
X116872400Y-142326400D01*
X116872400Y-144333000D01*
X116872400Y-146339600D01*
X116872400Y-146339600D01*
G36*
X84563600Y-137371245D02*
X84537530Y-137419963D01*
X84463997Y-137543073D01*
X84350013Y-137729205D01*
X84202590Y-137966992D01*
X84028741Y-138245064D01*
X83835478Y-138552052D01*
X83827000Y-138565473D01*
X83090400Y-139731386D01*
X83090400Y-140571693D01*
X83090400Y-141412000D01*
X82836400Y-141412000D01*
X82582400Y-141412000D01*
X82582400Y-140560363D01*
X82582399Y-139708726D01*
X81845799Y-138574175D01*
X81649839Y-138270689D01*
X81473496Y-137994409D01*
X81324017Y-137756943D01*
X81208647Y-137569902D01*
X81134631Y-137444898D01*
X81109199Y-137393812D01*
X81155109Y-137368599D01*
X81273414Y-137351959D01*
X81385445Y-137348000D01*
X81661690Y-137348000D01*
X82236345Y-138259000D01*
X82417904Y-138541627D01*
X82577448Y-138779856D01*
X82707747Y-138963573D01*
X82801571Y-139082662D01*
X82851687Y-139127007D01*
X82856010Y-139125849D01*
X82895956Y-139070983D01*
X82980927Y-138943911D01*
X83101913Y-138758463D01*
X83249901Y-138528471D01*
X83415879Y-138267766D01*
X83441338Y-138227549D01*
X83981656Y-137373400D01*
X84272628Y-137358164D01*
X84429070Y-137354444D01*
X84534695Y-137360491D01*
X84563600Y-137371245D01*
X84563600Y-137371245D01*
X84563600Y-137371245D01*
G37*
X84563600Y-137371245D02*
X84537530Y-137419963D01*
X84463997Y-137543073D01*
X84350013Y-137729205D01*
X84202590Y-137966992D01*
X84028741Y-138245064D01*
X83835478Y-138552052D01*
X83827000Y-138565473D01*
X83090400Y-139731386D01*
X83090400Y-140571693D01*
X83090400Y-141412000D01*
X82836400Y-141412000D01*
X82582400Y-141412000D01*
X82582400Y-140560363D01*
X82582399Y-139708726D01*
X81845799Y-138574175D01*
X81649839Y-138270689D01*
X81473496Y-137994409D01*
X81324017Y-137756943D01*
X81208647Y-137569902D01*
X81134631Y-137444898D01*
X81109199Y-137393812D01*
X81155109Y-137368599D01*
X81273414Y-137351959D01*
X81385445Y-137348000D01*
X81661690Y-137348000D01*
X82236345Y-138259000D01*
X82417904Y-138541627D01*
X82577448Y-138779856D01*
X82707747Y-138963573D01*
X82801571Y-139082662D01*
X82851687Y-139127007D01*
X82856010Y-139125849D01*
X82895956Y-139070983D01*
X82980927Y-138943911D01*
X83101913Y-138758463D01*
X83249901Y-138528471D01*
X83415879Y-138267766D01*
X83441338Y-138227549D01*
X83981656Y-137373400D01*
X84272628Y-137358164D01*
X84429070Y-137354444D01*
X84534695Y-137360491D01*
X84563600Y-137371245D01*
X84563600Y-137371245D01*
G36*
X88780000Y-137805200D02*
X88145000Y-137805200D01*
X87510000Y-137805200D01*
X87510000Y-139608600D01*
X87510000Y-141412000D01*
X87256000Y-141412000D01*
X87002000Y-141412000D01*
X87002000Y-139608600D01*
X87002000Y-137805200D01*
X86341600Y-137805200D01*
X85681200Y-137805200D01*
X85681200Y-137576600D01*
X85681200Y-137348000D01*
X87230600Y-137348000D01*
X88780000Y-137348000D01*
X88780000Y-137576600D01*
X88780000Y-137805200D01*
X88780000Y-137805200D01*
X88780000Y-137805200D01*
G37*
X88780000Y-137805200D02*
X88145000Y-137805200D01*
X87510000Y-137805200D01*
X87510000Y-139608600D01*
X87510000Y-141412000D01*
X87256000Y-141412000D01*
X87002000Y-141412000D01*
X87002000Y-139608600D01*
X87002000Y-137805200D01*
X86341600Y-137805200D01*
X85681200Y-137805200D01*
X85681200Y-137576600D01*
X85681200Y-137348000D01*
X87230600Y-137348000D01*
X88780000Y-137348000D01*
X88780000Y-137576600D01*
X88780000Y-137805200D01*
X88780000Y-137805200D01*
G36*
X90862800Y-141412000D02*
X90608800Y-141412000D01*
X90354800Y-141412000D01*
X90354800Y-139380000D01*
X90354800Y-137348000D01*
X90608800Y-137348000D01*
X90862800Y-137348000D01*
X90862800Y-139380000D01*
X90862800Y-141412000D01*
X90862800Y-141412000D01*
X90862800Y-141412000D01*
G37*
X90862800Y-141412000D02*
X90608800Y-141412000D01*
X90354800Y-141412000D01*
X90354800Y-139380000D01*
X90354800Y-137348000D01*
X90608800Y-137348000D01*
X90862800Y-137348000D01*
X90862800Y-139380000D01*
X90862800Y-141412000D01*
X90862800Y-141412000D01*
G36*
X95601864Y-140091200D02*
X95572936Y-140473692D01*
X95530541Y-140780085D01*
X95450524Y-141006683D01*
X95323725Y-141171219D01*
X95153985Y-141285000D01*
X95062644Y-141324568D01*
X94957888Y-141353157D01*
X94821013Y-141372846D01*
X94633316Y-141385719D01*
X94376092Y-141393856D01*
X94139400Y-141397923D01*
X93775531Y-141399549D01*
X93497485Y-141392332D01*
X93289789Y-141375349D01*
X93136976Y-141347674D01*
X93094105Y-141335453D01*
X92878190Y-141236730D01*
X92721188Y-141089621D01*
X92616870Y-140882101D01*
X92559004Y-140602144D01*
X92541429Y-140268664D01*
X92552049Y-139944002D01*
X92590974Y-139699364D01*
X92662699Y-139516004D01*
X92750578Y-139396694D01*
X92830495Y-139327514D01*
X92935319Y-139271600D01*
X93079480Y-139225593D01*
X93277410Y-139186136D01*
X93543539Y-139149871D01*
X93892299Y-139113439D01*
X94018351Y-139101686D01*
X94358506Y-139068259D01*
X94611240Y-139034398D01*
X94790532Y-138993219D01*
X94910355Y-138937835D01*
X94984685Y-138861361D01*
X95027499Y-138756910D01*
X95052771Y-138617598D01*
X95056285Y-138590301D01*
X95071461Y-138303770D01*
X95029822Y-138088756D01*
X94922571Y-137936027D01*
X94740909Y-137836351D01*
X94476041Y-137780495D01*
X94268888Y-137763950D01*
X93870015Y-137758094D01*
X93565605Y-137783476D01*
X93353338Y-137840420D01*
X93250400Y-137906800D01*
X93184882Y-138014502D01*
X93133014Y-138172222D01*
X93121293Y-138233338D01*
X93086463Y-138465600D01*
X92832378Y-138465600D01*
X92578293Y-138465600D01*
X92613710Y-138173500D01*
X92678293Y-137873381D01*
X92793315Y-137652111D01*
X92965773Y-137496692D01*
X92984029Y-137485679D01*
X93159489Y-137419167D01*
X93410408Y-137371144D01*
X93712293Y-137341862D01*
X94040652Y-137331573D01*
X94370993Y-137340529D01*
X94678824Y-137368981D01*
X94939654Y-137417183D01*
X95084135Y-137464062D01*
X95274948Y-137577547D01*
X95409083Y-137739741D01*
X95492626Y-137963908D01*
X95531665Y-138263309D01*
X95536400Y-138449412D01*
X95518309Y-138759764D01*
X95457897Y-139008363D01*
X95345957Y-139202315D01*
X95173279Y-139348721D01*
X94930657Y-139454687D01*
X94608880Y-139527317D01*
X94198742Y-139573714D01*
X94067087Y-139582954D01*
X93799527Y-139603728D01*
X93557957Y-139629645D01*
X93365964Y-139657676D01*
X93247132Y-139684794D01*
X93234144Y-139689876D01*
X93131484Y-139762078D01*
X93066576Y-139878320D01*
X93033476Y-140056890D01*
X93026242Y-140316076D01*
X93026416Y-140329080D01*
X93055952Y-140606256D01*
X93137101Y-140800018D01*
X93272822Y-140916144D01*
X93339942Y-140941293D01*
X93460879Y-140959328D01*
X93655503Y-140971566D01*
X93896067Y-140978025D01*
X94154825Y-140978725D01*
X94404030Y-140973684D01*
X94615936Y-140962922D01*
X94762796Y-140946458D01*
X94790447Y-140940291D01*
X94925421Y-140852229D01*
X95022106Y-140683225D01*
X95073111Y-140449124D01*
X95079200Y-140321431D01*
X95079200Y-140091200D01*
X95340532Y-140091200D01*
X95601864Y-140091200D01*
X95601864Y-140091200D01*
X95601864Y-140091200D01*
G37*
X95601864Y-140091200D02*
X95572936Y-140473692D01*
X95530541Y-140780085D01*
X95450524Y-141006683D01*
X95323725Y-141171219D01*
X95153985Y-141285000D01*
X95062644Y-141324568D01*
X94957888Y-141353157D01*
X94821013Y-141372846D01*
X94633316Y-141385719D01*
X94376092Y-141393856D01*
X94139400Y-141397923D01*
X93775531Y-141399549D01*
X93497485Y-141392332D01*
X93289789Y-141375349D01*
X93136976Y-141347674D01*
X93094105Y-141335453D01*
X92878190Y-141236730D01*
X92721188Y-141089621D01*
X92616870Y-140882101D01*
X92559004Y-140602144D01*
X92541429Y-140268664D01*
X92552049Y-139944002D01*
X92590974Y-139699364D01*
X92662699Y-139516004D01*
X92750578Y-139396694D01*
X92830495Y-139327514D01*
X92935319Y-139271600D01*
X93079480Y-139225593D01*
X93277410Y-139186136D01*
X93543539Y-139149871D01*
X93892299Y-139113439D01*
X94018351Y-139101686D01*
X94358506Y-139068259D01*
X94611240Y-139034398D01*
X94790532Y-138993219D01*
X94910355Y-138937835D01*
X94984685Y-138861361D01*
X95027499Y-138756910D01*
X95052771Y-138617598D01*
X95056285Y-138590301D01*
X95071461Y-138303770D01*
X95029822Y-138088756D01*
X94922571Y-137936027D01*
X94740909Y-137836351D01*
X94476041Y-137780495D01*
X94268888Y-137763950D01*
X93870015Y-137758094D01*
X93565605Y-137783476D01*
X93353338Y-137840420D01*
X93250400Y-137906800D01*
X93184882Y-138014502D01*
X93133014Y-138172222D01*
X93121293Y-138233338D01*
X93086463Y-138465600D01*
X92832378Y-138465600D01*
X92578293Y-138465600D01*
X92613710Y-138173500D01*
X92678293Y-137873381D01*
X92793315Y-137652111D01*
X92965773Y-137496692D01*
X92984029Y-137485679D01*
X93159489Y-137419167D01*
X93410408Y-137371144D01*
X93712293Y-137341862D01*
X94040652Y-137331573D01*
X94370993Y-137340529D01*
X94678824Y-137368981D01*
X94939654Y-137417183D01*
X95084135Y-137464062D01*
X95274948Y-137577547D01*
X95409083Y-137739741D01*
X95492626Y-137963908D01*
X95531665Y-138263309D01*
X95536400Y-138449412D01*
X95518309Y-138759764D01*
X95457897Y-139008363D01*
X95345957Y-139202315D01*
X95173279Y-139348721D01*
X94930657Y-139454687D01*
X94608880Y-139527317D01*
X94198742Y-139573714D01*
X94067087Y-139582954D01*
X93799527Y-139603728D01*
X93557957Y-139629645D01*
X93365964Y-139657676D01*
X93247132Y-139684794D01*
X93234144Y-139689876D01*
X93131484Y-139762078D01*
X93066576Y-139878320D01*
X93033476Y-140056890D01*
X93026242Y-140316076D01*
X93026416Y-140329080D01*
X93055952Y-140606256D01*
X93137101Y-140800018D01*
X93272822Y-140916144D01*
X93339942Y-140941293D01*
X93460879Y-140959328D01*
X93655503Y-140971566D01*
X93896067Y-140978025D01*
X94154825Y-140978725D01*
X94404030Y-140973684D01*
X94615936Y-140962922D01*
X94762796Y-140946458D01*
X94790447Y-140940291D01*
X94925421Y-140852229D01*
X95022106Y-140683225D01*
X95073111Y-140449124D01*
X95079200Y-140321431D01*
X95079200Y-140091200D01*
X95340532Y-140091200D01*
X95601864Y-140091200D01*
X95601864Y-140091200D01*
G36*
X100311600Y-141412000D02*
X100057600Y-141412000D01*
X99803600Y-141412000D01*
X99803600Y-140599200D01*
X99803600Y-139786400D01*
X99803600Y-139329200D01*
X99803600Y-138567200D01*
X99803600Y-137805200D01*
X98943307Y-137805200D01*
X98648672Y-137807990D01*
X98381791Y-137815709D01*
X98162606Y-137827380D01*
X98011060Y-137842027D01*
X97955795Y-137853568D01*
X97843469Y-137920784D01*
X97766655Y-138033651D01*
X97717627Y-138210306D01*
X97688659Y-138468887D01*
X97687690Y-138482935D01*
X97680073Y-138705581D01*
X97696220Y-138864013D01*
X97740585Y-138993768D01*
X97755458Y-139023693D01*
X97816845Y-139127043D01*
X97888208Y-139204060D01*
X97984619Y-139258580D01*
X98121148Y-139294439D01*
X98312865Y-139315473D01*
X98574842Y-139325520D01*
X98922149Y-139328414D01*
X98952700Y-139328451D01*
X99803600Y-139329200D01*
X99803600Y-139786400D01*
X98988277Y-139786400D01*
X98607047Y-139789520D01*
X98314922Y-139805685D01*
X98099445Y-139845101D01*
X97948160Y-139917974D01*
X97848611Y-140034512D01*
X97788343Y-140204920D01*
X97754899Y-140439404D01*
X97735824Y-140748171D01*
X97732838Y-140815100D01*
X97706853Y-141412000D01*
X97485226Y-141412000D01*
X97263600Y-141412000D01*
X97263789Y-140713500D01*
X97270269Y-140362583D01*
X97292480Y-140098321D01*
X97334902Y-139906392D01*
X97402018Y-139772473D01*
X97498309Y-139682245D01*
X97602631Y-139630642D01*
X97738416Y-139579016D01*
X97564508Y-139492208D01*
X97412003Y-139386338D01*
X97307070Y-139236306D01*
X97243624Y-139026451D01*
X97215575Y-138741108D01*
X97212878Y-138587480D01*
X97224359Y-138256329D01*
X97262126Y-138004512D01*
X97330972Y-137812060D01*
X97435688Y-137659007D01*
X97435736Y-137658952D01*
X97516674Y-137576127D01*
X97604099Y-137511024D01*
X97711180Y-137461266D01*
X97851085Y-137424480D01*
X98036982Y-137398290D01*
X98282038Y-137380321D01*
X98599421Y-137368198D01*
X99002300Y-137359546D01*
X99105100Y-137357850D01*
X100311600Y-137338633D01*
X100311600Y-139375316D01*
X100311600Y-141412000D01*
X100311600Y-141412000D01*
X100311600Y-141412000D01*
G37*
X100311600Y-141412000D02*
X100057600Y-141412000D01*
X99803600Y-141412000D01*
X99803600Y-140599200D01*
X99803600Y-139786400D01*
X99803600Y-139329200D01*
X99803600Y-138567200D01*
X99803600Y-137805200D01*
X98943307Y-137805200D01*
X98648672Y-137807990D01*
X98381791Y-137815709D01*
X98162606Y-137827380D01*
X98011060Y-137842027D01*
X97955795Y-137853568D01*
X97843469Y-137920784D01*
X97766655Y-138033651D01*
X97717627Y-138210306D01*
X97688659Y-138468887D01*
X97687690Y-138482935D01*
X97680073Y-138705581D01*
X97696220Y-138864013D01*
X97740585Y-138993768D01*
X97755458Y-139023693D01*
X97816845Y-139127043D01*
X97888208Y-139204060D01*
X97984619Y-139258580D01*
X98121148Y-139294439D01*
X98312865Y-139315473D01*
X98574842Y-139325520D01*
X98922149Y-139328414D01*
X98952700Y-139328451D01*
X99803600Y-139329200D01*
X99803600Y-139786400D01*
X98988277Y-139786400D01*
X98607047Y-139789520D01*
X98314922Y-139805685D01*
X98099445Y-139845101D01*
X97948160Y-139917974D01*
X97848611Y-140034512D01*
X97788343Y-140204920D01*
X97754899Y-140439404D01*
X97735824Y-140748171D01*
X97732838Y-140815100D01*
X97706853Y-141412000D01*
X97485226Y-141412000D01*
X97263600Y-141412000D01*
X97263789Y-140713500D01*
X97270269Y-140362583D01*
X97292480Y-140098321D01*
X97334902Y-139906392D01*
X97402018Y-139772473D01*
X97498309Y-139682245D01*
X97602631Y-139630642D01*
X97738416Y-139579016D01*
X97564508Y-139492208D01*
X97412003Y-139386338D01*
X97307070Y-139236306D01*
X97243624Y-139026451D01*
X97215575Y-138741108D01*
X97212878Y-138587480D01*
X97224359Y-138256329D01*
X97262126Y-138004512D01*
X97330972Y-137812060D01*
X97435688Y-137659007D01*
X97435736Y-137658952D01*
X97516674Y-137576127D01*
X97604099Y-137511024D01*
X97711180Y-137461266D01*
X97851085Y-137424480D01*
X98036982Y-137398290D01*
X98282038Y-137380321D01*
X98599421Y-137368198D01*
X99002300Y-137359546D01*
X99105100Y-137357850D01*
X100311600Y-137338633D01*
X100311600Y-139375316D01*
X100311600Y-141412000D01*
X100311600Y-141412000D01*
G36*
X104629600Y-141412000D02*
X103334200Y-141412000D01*
X102038800Y-141412000D01*
X102038800Y-141183400D01*
X102038800Y-140954800D01*
X103080200Y-140954800D01*
X104121600Y-140954800D01*
X104121600Y-140243600D01*
X104121600Y-139532400D01*
X103131000Y-139532400D01*
X102140400Y-139532400D01*
X102140400Y-139303800D01*
X102140400Y-139075200D01*
X103131000Y-139075200D01*
X104121600Y-139075200D01*
X104121600Y-138440200D01*
X104121600Y-137805200D01*
X103080200Y-137805200D01*
X102038800Y-137805200D01*
X102038800Y-137576600D01*
X102038800Y-137348000D01*
X103334200Y-137348000D01*
X104629600Y-137348000D01*
X104629600Y-139380000D01*
X104629600Y-141412000D01*
X104629600Y-141412000D01*
X104629600Y-141412000D01*
G37*
X104629600Y-141412000D02*
X103334200Y-141412000D01*
X102038800Y-141412000D01*
X102038800Y-141183400D01*
X102038800Y-140954800D01*
X103080200Y-140954800D01*
X104121600Y-140954800D01*
X104121600Y-140243600D01*
X104121600Y-139532400D01*
X103131000Y-139532400D01*
X102140400Y-139532400D01*
X102140400Y-139303800D01*
X102140400Y-139075200D01*
X103131000Y-139075200D01*
X104121600Y-139075200D01*
X104121600Y-138440200D01*
X104121600Y-137805200D01*
X103080200Y-137805200D01*
X102038800Y-137805200D01*
X102038800Y-137576600D01*
X102038800Y-137348000D01*
X103334200Y-137348000D01*
X104629600Y-137348000D01*
X104629600Y-139380000D01*
X104629600Y-141412000D01*
X104629600Y-141412000D01*
G36*
X109506400Y-137368807D02*
X109489881Y-137420917D01*
X109442828Y-137558006D01*
X109368995Y-137769412D01*
X109272138Y-138044477D01*
X109156012Y-138372539D01*
X109024371Y-138742937D01*
X108880971Y-139145012D01*
X108865768Y-139187562D01*
X108717692Y-139602047D01*
X108577642Y-139994319D01*
X108449971Y-140352171D01*
X108339030Y-140663394D01*
X108249170Y-140915782D01*
X108184742Y-141097126D01*
X108150100Y-141195219D01*
X108149792Y-141196100D01*
X108074449Y-141412000D01*
X107735715Y-141412000D01*
X107396981Y-141412000D01*
X106699090Y-139441120D01*
X106548519Y-139014456D01*
X106409101Y-138616616D01*
X106284409Y-138257999D01*
X106178014Y-137949004D01*
X106093487Y-137700027D01*
X106034400Y-137521469D01*
X106004324Y-137423728D01*
X106001200Y-137409120D01*
X106049611Y-137368275D01*
X106189125Y-137349175D01*
X106249764Y-137348000D01*
X106413679Y-137357870D01*
X106502140Y-137392651D01*
X106532750Y-137436900D01*
X106567296Y-137531750D01*
X106629071Y-137707029D01*
X106712922Y-137947710D01*
X106813699Y-138238767D01*
X106926249Y-138565174D01*
X107045422Y-138911906D01*
X107166067Y-139263937D01*
X107283031Y-139606242D01*
X107391164Y-139923794D01*
X107485315Y-140201569D01*
X107560331Y-140424539D01*
X107611061Y-140577680D01*
X107629963Y-140637300D01*
X107674452Y-140767205D01*
X107712562Y-140843741D01*
X107723741Y-140852466D01*
X107746819Y-140806076D01*
X107799251Y-140674373D01*
X107877112Y-140468038D01*
X107976474Y-140197752D01*
X108093411Y-139874196D01*
X108223995Y-139508051D01*
X108363400Y-139112566D01*
X108973000Y-137373400D01*
X109239700Y-137358045D01*
X109388558Y-137353951D01*
X109485367Y-137359880D01*
X109506400Y-137368807D01*
X109506400Y-137368807D01*
X109506400Y-137368807D01*
G37*
X109506400Y-137368807D02*
X109489881Y-137420917D01*
X109442828Y-137558006D01*
X109368995Y-137769412D01*
X109272138Y-138044477D01*
X109156012Y-138372539D01*
X109024371Y-138742937D01*
X108880971Y-139145012D01*
X108865768Y-139187562D01*
X108717692Y-139602047D01*
X108577642Y-139994319D01*
X108449971Y-140352171D01*
X108339030Y-140663394D01*
X108249170Y-140915782D01*
X108184742Y-141097126D01*
X108150100Y-141195219D01*
X108149792Y-141196100D01*
X108074449Y-141412000D01*
X107735715Y-141412000D01*
X107396981Y-141412000D01*
X106699090Y-139441120D01*
X106548519Y-139014456D01*
X106409101Y-138616616D01*
X106284409Y-138257999D01*
X106178014Y-137949004D01*
X106093487Y-137700027D01*
X106034400Y-137521469D01*
X106004324Y-137423728D01*
X106001200Y-137409120D01*
X106049611Y-137368275D01*
X106189125Y-137349175D01*
X106249764Y-137348000D01*
X106413679Y-137357870D01*
X106502140Y-137392651D01*
X106532750Y-137436900D01*
X106567296Y-137531750D01*
X106629071Y-137707029D01*
X106712922Y-137947710D01*
X106813699Y-138238767D01*
X106926249Y-138565174D01*
X107045422Y-138911906D01*
X107166067Y-139263937D01*
X107283031Y-139606242D01*
X107391164Y-139923794D01*
X107485315Y-140201569D01*
X107560331Y-140424539D01*
X107611061Y-140577680D01*
X107629963Y-140637300D01*
X107674452Y-140767205D01*
X107712562Y-140843741D01*
X107723741Y-140852466D01*
X107746819Y-140806076D01*
X107799251Y-140674373D01*
X107877112Y-140468038D01*
X107976474Y-140197752D01*
X108093411Y-139874196D01*
X108223995Y-139508051D01*
X108363400Y-139112566D01*
X108973000Y-137373400D01*
X109239700Y-137358045D01*
X109388558Y-137353951D01*
X109485367Y-137359880D01*
X109506400Y-137368807D01*
X109506400Y-137368807D01*
G36*
X111487600Y-141412000D02*
X111259000Y-141412000D01*
X111030400Y-141412000D01*
X111030400Y-139380000D01*
X111030400Y-137348000D01*
X111259000Y-137348000D01*
X111487600Y-137348000D01*
X111487600Y-139380000D01*
X111487600Y-141412000D01*
X111487600Y-141412000D01*
X111487600Y-141412000D01*
G37*
X111487600Y-141412000D02*
X111259000Y-141412000D01*
X111030400Y-141412000D01*
X111030400Y-139380000D01*
X111030400Y-137348000D01*
X111259000Y-137348000D01*
X111487600Y-137348000D01*
X111487600Y-139380000D01*
X111487600Y-141412000D01*
X111487600Y-141412000D01*
G36*
X116872400Y-141412000D02*
X116619058Y-141412000D01*
X116365716Y-141412000D01*
X116352358Y-139664168D01*
X116339000Y-137916336D01*
X115272200Y-139662229D01*
X114205400Y-141408122D01*
X113811700Y-141410061D01*
X113418000Y-141412000D01*
X113418000Y-139380000D01*
X113418000Y-137348000D01*
X113671341Y-137348000D01*
X113924683Y-137348000D01*
X113938041Y-139099946D01*
X113951400Y-140851892D01*
X115018200Y-139101256D01*
X116085000Y-137350621D01*
X116478700Y-137349310D01*
X116872400Y-137348000D01*
X116872400Y-139380000D01*
X116872400Y-141412000D01*
X116872400Y-141412000D01*
X116872400Y-141412000D01*
G37*
X116872400Y-141412000D02*
X116619058Y-141412000D01*
X116365716Y-141412000D01*
X116352358Y-139664168D01*
X116339000Y-137916336D01*
X115272200Y-139662229D01*
X114205400Y-141408122D01*
X113811700Y-141410061D01*
X113418000Y-141412000D01*
X113418000Y-139380000D01*
X113418000Y-137348000D01*
X113671341Y-137348000D01*
X113924683Y-137348000D01*
X113938041Y-139099946D01*
X113951400Y-140851892D01*
X115018200Y-139101256D01*
X116085000Y-137350621D01*
X116478700Y-137349310D01*
X116872400Y-137348000D01*
X116872400Y-139380000D01*
X116872400Y-141412000D01*
X116872400Y-141412000D01*
G36*
X88500600Y-134350800D02*
X88497388Y-134835354D01*
X88485413Y-135229235D01*
X88461169Y-135543230D01*
X88421146Y-135788131D01*
X88361838Y-135974726D01*
X88279736Y-136113806D01*
X88171332Y-136216160D01*
X88033118Y-136292577D01*
X87861587Y-136353847D01*
X87848063Y-136357901D01*
X87652690Y-136398406D01*
X87385365Y-136430144D01*
X87075467Y-136451730D01*
X86752374Y-136461779D01*
X86445467Y-136458906D01*
X86184123Y-136441726D01*
X86151140Y-136437888D01*
X85834428Y-136379953D01*
X85603444Y-136292254D01*
X85444867Y-136167656D01*
X85348958Y-136008121D01*
X85302647Y-135846906D01*
X85259718Y-135617365D01*
X85223490Y-135350444D01*
X85197284Y-135077091D01*
X85184420Y-134828251D01*
X85188217Y-134634871D01*
X85195525Y-134577923D01*
X85228603Y-134401600D01*
X86089901Y-134401600D01*
X86951200Y-134401600D01*
X86951200Y-134604800D01*
X86951200Y-134808000D01*
X86309829Y-134808000D01*
X85668459Y-134808000D01*
X85691184Y-135240969D01*
X85713230Y-135499745D01*
X85756832Y-135696655D01*
X85834204Y-135839376D01*
X85957557Y-135935583D01*
X86139107Y-135992954D01*
X86391066Y-136019164D01*
X86725648Y-136021889D01*
X86925800Y-136016903D01*
X87238196Y-136004993D01*
X87486173Y-135983724D01*
X87677170Y-135942346D01*
X87818624Y-135870111D01*
X87917971Y-135756269D01*
X87982651Y-135590068D01*
X88020100Y-135360761D01*
X88037755Y-135057597D01*
X88043056Y-134669826D01*
X88043400Y-134401600D01*
X88041440Y-133964759D01*
X88031366Y-133618437D01*
X88006885Y-133351569D01*
X87961702Y-133153090D01*
X87889524Y-133011935D01*
X87784058Y-132917039D01*
X87639010Y-132857338D01*
X87448087Y-132821766D01*
X87204995Y-132799259D01*
X87129000Y-132793945D01*
X86860785Y-132787233D01*
X86561199Y-132796925D01*
X86316907Y-132818532D01*
X86065952Y-132861476D01*
X85897380Y-132924272D01*
X85792041Y-133023110D01*
X85730786Y-133174177D01*
X85701255Y-133338946D01*
X85668110Y-133588800D01*
X85446055Y-133588800D01*
X85224000Y-133588800D01*
X85224000Y-133294763D01*
X85255347Y-132999955D01*
X85338300Y-132777312D01*
X85408668Y-132657432D01*
X85490745Y-132565523D01*
X85598319Y-132497926D01*
X85745181Y-132450982D01*
X85945117Y-132421032D01*
X86211918Y-132404416D01*
X86559372Y-132397476D01*
X86773400Y-132396481D01*
X87101405Y-132396574D01*
X87346224Y-132399421D01*
X87526268Y-132407049D01*
X87659948Y-132421483D01*
X87765675Y-132444750D01*
X87861860Y-132478875D01*
X87966913Y-132525886D01*
X87972330Y-132528423D01*
X88148485Y-132622279D01*
X88263359Y-132721193D01*
X88353097Y-132859050D01*
X88378730Y-132909423D01*
X88417429Y-132991739D01*
X88446932Y-133070906D01*
X88468484Y-133161661D01*
X88483332Y-133278740D01*
X88492721Y-133436878D01*
X88497898Y-133650812D01*
X88500108Y-133935277D01*
X88500597Y-134305009D01*
X88500600Y-134350800D01*
X88500600Y-134350800D01*
X88500600Y-134350800D01*
G37*
X88500600Y-134350800D02*
X88497388Y-134835354D01*
X88485413Y-135229235D01*
X88461169Y-135543230D01*
X88421146Y-135788131D01*
X88361838Y-135974726D01*
X88279736Y-136113806D01*
X88171332Y-136216160D01*
X88033118Y-136292577D01*
X87861587Y-136353847D01*
X87848063Y-136357901D01*
X87652690Y-136398406D01*
X87385365Y-136430144D01*
X87075467Y-136451730D01*
X86752374Y-136461779D01*
X86445467Y-136458906D01*
X86184123Y-136441726D01*
X86151140Y-136437888D01*
X85834428Y-136379953D01*
X85603444Y-136292254D01*
X85444867Y-136167656D01*
X85348958Y-136008121D01*
X85302647Y-135846906D01*
X85259718Y-135617365D01*
X85223490Y-135350444D01*
X85197284Y-135077091D01*
X85184420Y-134828251D01*
X85188217Y-134634871D01*
X85195525Y-134577923D01*
X85228603Y-134401600D01*
X86089901Y-134401600D01*
X86951200Y-134401600D01*
X86951200Y-134604800D01*
X86951200Y-134808000D01*
X86309829Y-134808000D01*
X85668459Y-134808000D01*
X85691184Y-135240969D01*
X85713230Y-135499745D01*
X85756832Y-135696655D01*
X85834204Y-135839376D01*
X85957557Y-135935583D01*
X86139107Y-135992954D01*
X86391066Y-136019164D01*
X86725648Y-136021889D01*
X86925800Y-136016903D01*
X87238196Y-136004993D01*
X87486173Y-135983724D01*
X87677170Y-135942346D01*
X87818624Y-135870111D01*
X87917971Y-135756269D01*
X87982651Y-135590068D01*
X88020100Y-135360761D01*
X88037755Y-135057597D01*
X88043056Y-134669826D01*
X88043400Y-134401600D01*
X88041440Y-133964759D01*
X88031366Y-133618437D01*
X88006885Y-133351569D01*
X87961702Y-133153090D01*
X87889524Y-133011935D01*
X87784058Y-132917039D01*
X87639010Y-132857338D01*
X87448087Y-132821766D01*
X87204995Y-132799259D01*
X87129000Y-132793945D01*
X86860785Y-132787233D01*
X86561199Y-132796925D01*
X86316907Y-132818532D01*
X86065952Y-132861476D01*
X85897380Y-132924272D01*
X85792041Y-133023110D01*
X85730786Y-133174177D01*
X85701255Y-133338946D01*
X85668110Y-133588800D01*
X85446055Y-133588800D01*
X85224000Y-133588800D01*
X85224000Y-133294763D01*
X85255347Y-132999955D01*
X85338300Y-132777312D01*
X85408668Y-132657432D01*
X85490745Y-132565523D01*
X85598319Y-132497926D01*
X85745181Y-132450982D01*
X85945117Y-132421032D01*
X86211918Y-132404416D01*
X86559372Y-132397476D01*
X86773400Y-132396481D01*
X87101405Y-132396574D01*
X87346224Y-132399421D01*
X87526268Y-132407049D01*
X87659948Y-132421483D01*
X87765675Y-132444750D01*
X87861860Y-132478875D01*
X87966913Y-132525886D01*
X87972330Y-132528423D01*
X88148485Y-132622279D01*
X88263359Y-132721193D01*
X88353097Y-132859050D01*
X88378730Y-132909423D01*
X88417429Y-132991739D01*
X88446932Y-133070906D01*
X88468484Y-133161661D01*
X88483332Y-133278740D01*
X88492721Y-133436878D01*
X88497898Y-133650812D01*
X88500108Y-133935277D01*
X88500597Y-134305009D01*
X88500600Y-134350800D01*
X88500600Y-134350800D01*
G36*
X83649200Y-136433600D02*
X82353800Y-136433600D01*
X81058400Y-136433600D01*
X81058400Y-136205000D01*
X81058400Y-135976400D01*
X82099800Y-135976400D01*
X83141200Y-135976400D01*
X83141200Y-135265200D01*
X83141200Y-134554000D01*
X82125200Y-134554000D01*
X81109200Y-134554000D01*
X81109200Y-134350800D01*
X81109200Y-134147600D01*
X82125200Y-134147600D01*
X83141200Y-134147600D01*
X83141200Y-133487200D01*
X83141200Y-132826800D01*
X82099800Y-132826800D01*
X81058400Y-132826800D01*
X81058400Y-132598200D01*
X81058400Y-132369600D01*
X82353800Y-132369600D01*
X83649200Y-132369600D01*
X83649200Y-134401600D01*
X83649200Y-136433600D01*
X83649200Y-136433600D01*
X83649200Y-136433600D01*
G37*
X83649200Y-136433600D02*
X82353800Y-136433600D01*
X81058400Y-136433600D01*
X81058400Y-136205000D01*
X81058400Y-135976400D01*
X82099800Y-135976400D01*
X83141200Y-135976400D01*
X83141200Y-135265200D01*
X83141200Y-134554000D01*
X82125200Y-134554000D01*
X81109200Y-134554000D01*
X81109200Y-134350800D01*
X81109200Y-134147600D01*
X82125200Y-134147600D01*
X83141200Y-134147600D01*
X83141200Y-133487200D01*
X83141200Y-132826800D01*
X82099800Y-132826800D01*
X81058400Y-132826800D01*
X81058400Y-132598200D01*
X81058400Y-132369600D01*
X82353800Y-132369600D01*
X83649200Y-132369600D01*
X83649200Y-134401600D01*
X83649200Y-136433600D01*
X83649200Y-136433600D01*
G36*
X93504400Y-136433600D02*
X92996400Y-136431291D01*
X92996400Y-135976400D01*
X92996400Y-134401600D01*
X92996400Y-132826800D01*
X92170900Y-132827083D01*
X91761840Y-132831767D01*
X91441446Y-132848551D01*
X91197063Y-132882000D01*
X91016035Y-132936682D01*
X90885709Y-133017163D01*
X90793428Y-133128010D01*
X90726540Y-133273788D01*
X90699589Y-133358016D01*
X90676753Y-133491336D01*
X90658846Y-133702743D01*
X90646155Y-133968834D01*
X90638969Y-134266202D01*
X90637574Y-134571442D01*
X90642258Y-134861148D01*
X90653309Y-135111916D01*
X90671015Y-135300339D01*
X90675376Y-135328458D01*
X90756379Y-135575883D01*
X90897510Y-135774559D01*
X91081401Y-135902045D01*
X91133712Y-135920657D01*
X91238034Y-135936633D01*
X91422881Y-135950824D01*
X91667178Y-135962164D01*
X91949853Y-135969589D01*
X92145500Y-135971818D01*
X92996400Y-135976400D01*
X92996400Y-136431291D01*
X92348700Y-136428349D01*
X92003106Y-136424561D01*
X91680217Y-136416885D01*
X91397831Y-136406068D01*
X91173747Y-136392859D01*
X91025763Y-136378005D01*
X90989800Y-136371258D01*
X90756581Y-136286724D01*
X90567047Y-136158165D01*
X90417753Y-135977048D01*
X90305258Y-135734838D01*
X90226118Y-135423002D01*
X90176891Y-135033008D01*
X90154133Y-134556323D01*
X90151600Y-134293811D01*
X90159145Y-133853253D01*
X90187230Y-133484873D01*
X90244025Y-133182323D01*
X90337704Y-132939255D01*
X90476436Y-132749321D01*
X90668395Y-132606172D01*
X90921752Y-132503462D01*
X91244679Y-132434840D01*
X91645347Y-132393961D01*
X92131928Y-132374474D01*
X92628100Y-132369985D01*
X93504400Y-132369600D01*
X93504400Y-134401600D01*
X93504400Y-136433600D01*
X93504400Y-136433600D01*
X93504400Y-136433600D01*
G37*
X93504400Y-136433600D02*
X92996400Y-136431291D01*
X92996400Y-135976400D01*
X92996400Y-134401600D01*
X92996400Y-132826800D01*
X92170900Y-132827083D01*
X91761840Y-132831767D01*
X91441446Y-132848551D01*
X91197063Y-132882000D01*
X91016035Y-132936682D01*
X90885709Y-133017163D01*
X90793428Y-133128010D01*
X90726540Y-133273788D01*
X90699589Y-133358016D01*
X90676753Y-133491336D01*
X90658846Y-133702743D01*
X90646155Y-133968834D01*
X90638969Y-134266202D01*
X90637574Y-134571442D01*
X90642258Y-134861148D01*
X90653309Y-135111916D01*
X90671015Y-135300339D01*
X90675376Y-135328458D01*
X90756379Y-135575883D01*
X90897510Y-135774559D01*
X91081401Y-135902045D01*
X91133712Y-135920657D01*
X91238034Y-135936633D01*
X91422881Y-135950824D01*
X91667178Y-135962164D01*
X91949853Y-135969589D01*
X92145500Y-135971818D01*
X92996400Y-135976400D01*
X92996400Y-136431291D01*
X92348700Y-136428349D01*
X92003106Y-136424561D01*
X91680217Y-136416885D01*
X91397831Y-136406068D01*
X91173747Y-136392859D01*
X91025763Y-136378005D01*
X90989800Y-136371258D01*
X90756581Y-136286724D01*
X90567047Y-136158165D01*
X90417753Y-135977048D01*
X90305258Y-135734838D01*
X90226118Y-135423002D01*
X90176891Y-135033008D01*
X90154133Y-134556323D01*
X90151600Y-134293811D01*
X90159145Y-133853253D01*
X90187230Y-133484873D01*
X90244025Y-133182323D01*
X90337704Y-132939255D01*
X90476436Y-132749321D01*
X90668395Y-132606172D01*
X90921752Y-132503462D01*
X91244679Y-132434840D01*
X91645347Y-132393961D01*
X92131928Y-132374474D01*
X92628100Y-132369985D01*
X93504400Y-132369600D01*
X93504400Y-134401600D01*
X93504400Y-136433600D01*
X93504400Y-136433600D01*
G36*
X95892000Y-136433600D02*
X95638000Y-136433600D01*
X95384000Y-136433600D01*
X95384000Y-134401600D01*
X95384000Y-132369600D01*
X95638000Y-132369600D01*
X95892000Y-132369600D01*
X95892000Y-134401600D01*
X95892000Y-136433600D01*
X95892000Y-136433600D01*
X95892000Y-136433600D01*
G37*
X95892000Y-136433600D02*
X95638000Y-136433600D01*
X95384000Y-136433600D01*
X95384000Y-134401600D01*
X95384000Y-132369600D01*
X95638000Y-132369600D01*
X95892000Y-132369600D01*
X95892000Y-134401600D01*
X95892000Y-136433600D01*
X95892000Y-136433600D01*
G36*
X100819600Y-136433600D02*
X100565600Y-136433600D01*
X100311600Y-136433600D01*
X100311600Y-135616518D01*
X100311600Y-134799436D01*
X100311600Y-134401600D01*
X100311600Y-133610086D01*
X100311600Y-132818572D01*
X99392713Y-132835386D01*
X98473827Y-132852200D01*
X98355585Y-132989766D01*
X98272280Y-133143332D01*
X98214789Y-133359367D01*
X98188080Y-133600902D01*
X98197125Y-133830966D01*
X98225279Y-133959131D01*
X98281912Y-134093350D01*
X98360738Y-134197027D01*
X98474447Y-134274081D01*
X98635731Y-134328432D01*
X98857281Y-134363999D01*
X99151789Y-134384703D01*
X99531945Y-134394464D01*
X99638500Y-134395624D01*
X100311600Y-134401600D01*
X100311600Y-134799436D01*
X99443745Y-134816418D01*
X98575891Y-134833400D01*
X98427745Y-134999301D01*
X98366283Y-135071344D01*
X98324718Y-135138640D01*
X98299157Y-135222202D01*
X98285711Y-135343044D01*
X98280489Y-135522178D01*
X98279600Y-135780619D01*
X98279600Y-135799401D01*
X98279600Y-136433600D01*
X98025600Y-136433600D01*
X97771600Y-136433600D01*
X97771600Y-135768177D01*
X97777701Y-135421511D01*
X97798895Y-135160792D01*
X97839515Y-134970937D01*
X97903895Y-134836864D01*
X97996370Y-134743491D01*
X98080204Y-134694238D01*
X98229196Y-134622078D01*
X98038585Y-134498730D01*
X97900069Y-134382981D01*
X97805526Y-134234262D01*
X97749731Y-134035390D01*
X97727460Y-133769180D01*
X97730647Y-133485951D01*
X97753725Y-133172802D01*
X97802337Y-132940117D01*
X97886228Y-132767997D01*
X98015142Y-132636540D01*
X98198825Y-132525847D01*
X98201426Y-132524551D01*
X98285883Y-132484724D01*
X98368459Y-132454077D01*
X98464050Y-132431095D01*
X98587551Y-132414259D01*
X98753856Y-132402053D01*
X98977860Y-132392959D01*
X99274457Y-132385460D01*
X99635674Y-132378456D01*
X100819600Y-132356810D01*
X100819600Y-134395205D01*
X100819600Y-136433600D01*
X100819600Y-136433600D01*
X100819600Y-136433600D01*
G37*
X100819600Y-136433600D02*
X100565600Y-136433600D01*
X100311600Y-136433600D01*
X100311600Y-135616518D01*
X100311600Y-134799436D01*
X100311600Y-134401600D01*
X100311600Y-133610086D01*
X100311600Y-132818572D01*
X99392713Y-132835386D01*
X98473827Y-132852200D01*
X98355585Y-132989766D01*
X98272280Y-133143332D01*
X98214789Y-133359367D01*
X98188080Y-133600902D01*
X98197125Y-133830966D01*
X98225279Y-133959131D01*
X98281912Y-134093350D01*
X98360738Y-134197027D01*
X98474447Y-134274081D01*
X98635731Y-134328432D01*
X98857281Y-134363999D01*
X99151789Y-134384703D01*
X99531945Y-134394464D01*
X99638500Y-134395624D01*
X100311600Y-134401600D01*
X100311600Y-134799436D01*
X99443745Y-134816418D01*
X98575891Y-134833400D01*
X98427745Y-134999301D01*
X98366283Y-135071344D01*
X98324718Y-135138640D01*
X98299157Y-135222202D01*
X98285711Y-135343044D01*
X98280489Y-135522178D01*
X98279600Y-135780619D01*
X98279600Y-135799401D01*
X98279600Y-136433600D01*
X98025600Y-136433600D01*
X97771600Y-136433600D01*
X97771600Y-135768177D01*
X97777701Y-135421511D01*
X97798895Y-135160792D01*
X97839515Y-134970937D01*
X97903895Y-134836864D01*
X97996370Y-134743491D01*
X98080204Y-134694238D01*
X98229196Y-134622078D01*
X98038585Y-134498730D01*
X97900069Y-134382981D01*
X97805526Y-134234262D01*
X97749731Y-134035390D01*
X97727460Y-133769180D01*
X97730647Y-133485951D01*
X97753725Y-133172802D01*
X97802337Y-132940117D01*
X97886228Y-132767997D01*
X98015142Y-132636540D01*
X98198825Y-132525847D01*
X98201426Y-132524551D01*
X98285883Y-132484724D01*
X98368459Y-132454077D01*
X98464050Y-132431095D01*
X98587551Y-132414259D01*
X98753856Y-132402053D01*
X98977860Y-132392959D01*
X99274457Y-132385460D01*
X99635674Y-132378456D01*
X100819600Y-132356810D01*
X100819600Y-134395205D01*
X100819600Y-136433600D01*
X100819600Y-136433600D01*
G36*
X105696400Y-136433600D02*
X105188400Y-136431262D01*
X105188400Y-135976400D01*
X105188400Y-135257204D01*
X105188400Y-134538008D01*
X105188400Y-134147600D01*
X105188400Y-133487200D01*
X105188400Y-132826800D01*
X104399368Y-132826800D01*
X104015073Y-132830266D01*
X103720968Y-132845370D01*
X103505747Y-132879173D01*
X103358104Y-132938732D01*
X103266732Y-133031109D01*
X103220325Y-133163361D01*
X103207577Y-133342549D01*
X103216513Y-133565339D01*
X103234252Y-133744824D01*
X103269884Y-133882300D01*
X103335687Y-133983446D01*
X103443939Y-134053938D01*
X103606919Y-134099455D01*
X103836905Y-134125674D01*
X104146177Y-134138272D01*
X104464500Y-134142400D01*
X105188400Y-134147600D01*
X105188400Y-134538008D01*
X104330779Y-134570387D01*
X104036361Y-134584078D01*
X103769434Y-134601279D01*
X103550053Y-134620330D01*
X103398271Y-134639569D01*
X103343268Y-134652152D01*
X103221575Y-134727162D01*
X103143881Y-134852641D01*
X103103017Y-135045879D01*
X103092057Y-135258074D01*
X103093607Y-135481180D01*
X103112090Y-135652257D01*
X103159309Y-135778233D01*
X103247067Y-135866039D01*
X103387167Y-135922605D01*
X103591413Y-135954859D01*
X103871607Y-135969732D01*
X104239554Y-135974154D01*
X104312100Y-135974366D01*
X105188400Y-135976400D01*
X105188400Y-136431262D01*
X104566100Y-136428400D01*
X104228028Y-136425253D01*
X103916237Y-136419366D01*
X103647850Y-136411299D01*
X103439996Y-136401612D01*
X103309801Y-136390867D01*
X103283400Y-136386421D01*
X103021133Y-136287867D01*
X102826203Y-136130624D01*
X102693869Y-135906921D01*
X102619388Y-135608988D01*
X102597883Y-135263263D01*
X102630833Y-134944036D01*
X102725838Y-134678040D01*
X102876260Y-134479846D01*
X102991756Y-134398800D01*
X103157312Y-134312282D01*
X103030913Y-134229462D01*
X102888079Y-134101490D01*
X102794366Y-133928102D01*
X102743597Y-133692004D01*
X102729544Y-133385600D01*
X102747457Y-133067484D01*
X102801903Y-132830195D01*
X102898503Y-132657774D01*
X103025534Y-132545261D01*
X103163536Y-132491382D01*
X103394903Y-132446463D01*
X103711735Y-132411250D01*
X104106131Y-132386492D01*
X104570187Y-132372938D01*
X104870900Y-132370502D01*
X105696400Y-132369600D01*
X105696400Y-134401600D01*
X105696400Y-136433600D01*
X105696400Y-136433600D01*
X105696400Y-136433600D01*
G37*
X105696400Y-136433600D02*
X105188400Y-136431262D01*
X105188400Y-135976400D01*
X105188400Y-135257204D01*
X105188400Y-134538008D01*
X105188400Y-134147600D01*
X105188400Y-133487200D01*
X105188400Y-132826800D01*
X104399368Y-132826800D01*
X104015073Y-132830266D01*
X103720968Y-132845370D01*
X103505747Y-132879173D01*
X103358104Y-132938732D01*
X103266732Y-133031109D01*
X103220325Y-133163361D01*
X103207577Y-133342549D01*
X103216513Y-133565339D01*
X103234252Y-133744824D01*
X103269884Y-133882300D01*
X103335687Y-133983446D01*
X103443939Y-134053938D01*
X103606919Y-134099455D01*
X103836905Y-134125674D01*
X104146177Y-134138272D01*
X104464500Y-134142400D01*
X105188400Y-134147600D01*
X105188400Y-134538008D01*
X104330779Y-134570387D01*
X104036361Y-134584078D01*
X103769434Y-134601279D01*
X103550053Y-134620330D01*
X103398271Y-134639569D01*
X103343268Y-134652152D01*
X103221575Y-134727162D01*
X103143881Y-134852641D01*
X103103017Y-135045879D01*
X103092057Y-135258074D01*
X103093607Y-135481180D01*
X103112090Y-135652257D01*
X103159309Y-135778233D01*
X103247067Y-135866039D01*
X103387167Y-135922605D01*
X103591413Y-135954859D01*
X103871607Y-135969732D01*
X104239554Y-135974154D01*
X104312100Y-135974366D01*
X105188400Y-135976400D01*
X105188400Y-136431262D01*
X104566100Y-136428400D01*
X104228028Y-136425253D01*
X103916237Y-136419366D01*
X103647850Y-136411299D01*
X103439996Y-136401612D01*
X103309801Y-136390867D01*
X103283400Y-136386421D01*
X103021133Y-136287867D01*
X102826203Y-136130624D01*
X102693869Y-135906921D01*
X102619388Y-135608988D01*
X102597883Y-135263263D01*
X102630833Y-134944036D01*
X102725838Y-134678040D01*
X102876260Y-134479846D01*
X102991756Y-134398800D01*
X103157312Y-134312282D01*
X103030913Y-134229462D01*
X102888079Y-134101490D01*
X102794366Y-133928102D01*
X102743597Y-133692004D01*
X102729544Y-133385600D01*
X102747457Y-133067484D01*
X102801903Y-132830195D01*
X102898503Y-132657774D01*
X103025534Y-132545261D01*
X103163536Y-132491382D01*
X103394903Y-132446463D01*
X103711735Y-132411250D01*
X104106131Y-132386492D01*
X104570187Y-132372938D01*
X104870900Y-132370502D01*
X105696400Y-132369600D01*
X105696400Y-134401600D01*
X105696400Y-136433600D01*
X105696400Y-136433600D01*
G36*
X112046400Y-136433600D02*
X111793066Y-136433600D01*
X111539733Y-136433600D01*
X111526366Y-134700076D01*
X111513000Y-132966552D01*
X110797194Y-134687376D01*
X110081388Y-136408200D01*
X109829786Y-136423190D01*
X109578185Y-136438181D01*
X108857860Y-134695990D01*
X108137534Y-132953800D01*
X108136167Y-134693700D01*
X108134800Y-136433600D01*
X107880800Y-136433600D01*
X107626800Y-136433600D01*
X107626800Y-134399545D01*
X107626800Y-132365491D01*
X108039665Y-132380245D01*
X108452530Y-132395000D01*
X109122200Y-134032101D01*
X109279322Y-134415251D01*
X109424693Y-134767912D01*
X109553767Y-135079195D01*
X109661998Y-135338214D01*
X109744840Y-135534081D01*
X109797747Y-135655909D01*
X109815745Y-135693078D01*
X109839871Y-135653467D01*
X109897856Y-135530171D01*
X109985201Y-135333588D01*
X110097405Y-135074113D01*
X110229970Y-134762142D01*
X110378396Y-134408072D01*
X110524307Y-134055976D01*
X111208995Y-132395000D01*
X111627697Y-132380245D01*
X112046400Y-132365491D01*
X112046400Y-134399545D01*
X112046400Y-136433600D01*
X112046400Y-136433600D01*
X112046400Y-136433600D01*
G37*
X112046400Y-136433600D02*
X111793066Y-136433600D01*
X111539733Y-136433600D01*
X111526366Y-134700076D01*
X111513000Y-132966552D01*
X110797194Y-134687376D01*
X110081388Y-136408200D01*
X109829786Y-136423190D01*
X109578185Y-136438181D01*
X108857860Y-134695990D01*
X108137534Y-132953800D01*
X108136167Y-134693700D01*
X108134800Y-136433600D01*
X107880800Y-136433600D01*
X107626800Y-136433600D01*
X107626800Y-134399545D01*
X107626800Y-132365491D01*
X108039665Y-132380245D01*
X108452530Y-132395000D01*
X109122200Y-134032101D01*
X109279322Y-134415251D01*
X109424693Y-134767912D01*
X109553767Y-135079195D01*
X109661998Y-135338214D01*
X109744840Y-135534081D01*
X109797747Y-135655909D01*
X109815745Y-135693078D01*
X109839871Y-135653467D01*
X109897856Y-135530171D01*
X109985201Y-135333588D01*
X110097405Y-135074113D01*
X110229970Y-134762142D01*
X110378396Y-134408072D01*
X110524307Y-134055976D01*
X111208995Y-132395000D01*
X111627697Y-132380245D01*
X112046400Y-132365491D01*
X112046400Y-134399545D01*
X112046400Y-136433600D01*
X112046400Y-136433600D01*
G36*
X117228000Y-136416871D02*
X117182131Y-136426189D01*
X117064235Y-136432262D01*
X116959195Y-136433600D01*
X116690391Y-136433600D01*
X116540354Y-136000767D01*
X116390318Y-135567935D01*
X116261317Y-135569731D01*
X116261317Y-135214400D01*
X116167315Y-134973100D01*
X116119988Y-134847234D01*
X116046350Y-134646051D01*
X115953822Y-134390071D01*
X115849825Y-134099812D01*
X115753290Y-133828306D01*
X115651826Y-133548825D01*
X115559887Y-133308682D01*
X115483226Y-133121857D01*
X115427596Y-133002330D01*
X115398747Y-132964082D01*
X115397968Y-132964706D01*
X115372365Y-133020625D01*
X115318823Y-133155553D01*
X115243461Y-133352776D01*
X115152399Y-133595582D01*
X115051753Y-133867256D01*
X114947644Y-134151086D01*
X114846190Y-134430358D01*
X114753509Y-134688359D01*
X114675720Y-134908376D01*
X114618942Y-135073695D01*
X114589293Y-135167604D01*
X114586400Y-135181541D01*
X114634406Y-135192481D01*
X114767259Y-135201878D01*
X114968208Y-135209074D01*
X115220505Y-135213414D01*
X115423858Y-135214400D01*
X116261317Y-135214400D01*
X116261317Y-135569731D01*
X115404165Y-135581667D01*
X114418012Y-135595400D01*
X114262040Y-136014500D01*
X114106068Y-136433600D01*
X113838947Y-136433600D01*
X113571825Y-136433600D01*
X113680788Y-136141500D01*
X113723977Y-136025942D01*
X113797925Y-135828335D01*
X113897730Y-135561766D01*
X114018492Y-135239321D01*
X114155310Y-134874086D01*
X114303282Y-134479150D01*
X114437043Y-134122200D01*
X115084336Y-132395000D01*
X115412510Y-132380139D01*
X115590578Y-132374560D01*
X115694447Y-132384112D01*
X115751329Y-132417767D01*
X115788439Y-132484498D01*
X115797711Y-132507139D01*
X115829565Y-132590509D01*
X115889892Y-132752231D01*
X115974212Y-132980063D01*
X116078047Y-133261762D01*
X116196920Y-133585086D01*
X116326350Y-133937794D01*
X116461860Y-134307642D01*
X116598971Y-134682389D01*
X116733204Y-135049792D01*
X116860081Y-135397610D01*
X116975124Y-135713599D01*
X117073854Y-135985518D01*
X117151791Y-136201124D01*
X117204459Y-136348176D01*
X117227378Y-136414431D01*
X117228000Y-136416871D01*
X117228000Y-136416871D01*
X117228000Y-136416871D01*
G37*
X117228000Y-136416871D02*
X117182131Y-136426189D01*
X117064235Y-136432262D01*
X116959195Y-136433600D01*
X116690391Y-136433600D01*
X116540354Y-136000767D01*
X116390318Y-135567935D01*
X116261317Y-135569731D01*
X116261317Y-135214400D01*
X116167315Y-134973100D01*
X116119988Y-134847234D01*
X116046350Y-134646051D01*
X115953822Y-134390071D01*
X115849825Y-134099812D01*
X115753290Y-133828306D01*
X115651826Y-133548825D01*
X115559887Y-133308682D01*
X115483226Y-133121857D01*
X115427596Y-133002330D01*
X115398747Y-132964082D01*
X115397968Y-132964706D01*
X115372365Y-133020625D01*
X115318823Y-133155553D01*
X115243461Y-133352776D01*
X115152399Y-133595582D01*
X115051753Y-133867256D01*
X114947644Y-134151086D01*
X114846190Y-134430358D01*
X114753509Y-134688359D01*
X114675720Y-134908376D01*
X114618942Y-135073695D01*
X114589293Y-135167604D01*
X114586400Y-135181541D01*
X114634406Y-135192481D01*
X114767259Y-135201878D01*
X114968208Y-135209074D01*
X115220505Y-135213414D01*
X115423858Y-135214400D01*
X116261317Y-135214400D01*
X116261317Y-135569731D01*
X115404165Y-135581667D01*
X114418012Y-135595400D01*
X114262040Y-136014500D01*
X114106068Y-136433600D01*
X113838947Y-136433600D01*
X113571825Y-136433600D01*
X113680788Y-136141500D01*
X113723977Y-136025942D01*
X113797925Y-135828335D01*
X113897730Y-135561766D01*
X114018492Y-135239321D01*
X114155310Y-134874086D01*
X114303282Y-134479150D01*
X114437043Y-134122200D01*
X115084336Y-132395000D01*
X115412510Y-132380139D01*
X115590578Y-132374560D01*
X115694447Y-132384112D01*
X115751329Y-132417767D01*
X115788439Y-132484498D01*
X115797711Y-132507139D01*
X115829565Y-132590509D01*
X115889892Y-132752231D01*
X115974212Y-132980063D01*
X116078047Y-133261762D01*
X116196920Y-133585086D01*
X116326350Y-133937794D01*
X116461860Y-134307642D01*
X116598971Y-134682389D01*
X116733204Y-135049792D01*
X116860081Y-135397610D01*
X116975124Y-135713599D01*
X117073854Y-135985518D01*
X117151791Y-136201124D01*
X117204459Y-136348176D01*
X117227378Y-136414431D01*
X117228000Y-136416871D01*
X117228000Y-136416871D01*
%LPC*%
D12*
X131100000Y-136100000D03*
X129100000Y-136100000D03*
X112600000Y-135600000D03*
X112600000Y-137600000D03*
X112600000Y-139600000D03*
X112600000Y-141600000D03*
X112600000Y-143600000D03*
X112600000Y-145600000D03*
D13*
X100000000Y-131270000D03*
X100000000Y-130000000D03*
X101270000Y-131270000D03*
X101270000Y-130000000D03*
X102540000Y-131270000D03*
X102540000Y-130000000D03*
X103810000Y-131270000D03*
X103810000Y-130000000D03*
X105080000Y-131270000D03*
X105080000Y-130000000D03*
D14*
X81500000Y-146500000D03*
X88500000Y-146500000D03*
D15*
X82000000Y-128000000D03*
D16*
X82000000Y-125500000D03*
X84500000Y-128000000D03*
X82000000Y-130500000D03*
X79500000Y-128000000D03*
X80200000Y-126200000D03*
X83800000Y-126200000D03*
X80200000Y-129800000D03*
X83800000Y-129800000D03*
D15*
X130000000Y-128000000D03*
D16*
X130000000Y-125500000D03*
X132500000Y-128000000D03*
X130000000Y-130500000D03*
X127500000Y-128000000D03*
X128200000Y-126200000D03*
X131800000Y-126200000D03*
X128200000Y-129800000D03*
X131800000Y-129800000D03*
D15*
X130000000Y-160000000D03*
D16*
X130000000Y-157500000D03*
X132500000Y-160000000D03*
X130000000Y-162500000D03*
X127500000Y-160000000D03*
X128200000Y-158200000D03*
X131800000Y-158200000D03*
X128200000Y-161800000D03*
X131800000Y-161800000D03*
D15*
X82000000Y-160000000D03*
D16*
X82000000Y-157500000D03*
X84500000Y-160000000D03*
X82000000Y-162500000D03*
X79500000Y-160000000D03*
X80200000Y-158200000D03*
X83800000Y-158200000D03*
X80200000Y-161800000D03*
X83800000Y-161800000D03*
D14*
X98500000Y-168000000D03*
X96500000Y-168000000D03*
X94500000Y-168000000D03*
X92500000Y-168000000D03*
D17*
X100000000Y-170100000D03*
X91000000Y-170100000D03*
D14*
X87500000Y-168000000D03*
X85500000Y-168000000D03*
X83500000Y-168000000D03*
X81500000Y-168000000D03*
D17*
X89000000Y-170100000D03*
X80000000Y-170100000D03*
D14*
X109500000Y-168000000D03*
X107500000Y-168000000D03*
X105500000Y-168000000D03*
X103500000Y-168000000D03*
D17*
X111000000Y-170100000D03*
X102000000Y-170100000D03*
D14*
X116500000Y-168000000D03*
X114500000Y-168000000D03*
D17*
X118000000Y-170100000D03*
X113000000Y-170100000D03*
D14*
X130500000Y-168000000D03*
X128500000Y-168000000D03*
D17*
X132000000Y-170100000D03*
X127000000Y-170100000D03*
D14*
X123500000Y-168000000D03*
X121500000Y-168000000D03*
D17*
X125000000Y-170100000D03*
X120000000Y-170100000D03*
D18*
X115618500Y-122600000D03*
X124381500Y-122600000D03*
X87618500Y-122600000D03*
X96381500Y-122600000D03*
M02*
