G04 #@! TF.FileFunction,Legend,Top*
%FSLAX46Y46*%
G04 Gerber Fmt 4.6, Leading zero omitted, Abs format (unit mm)*
G04 Created by KiCad (PCBNEW 0.201505031001+5637~23~ubuntu14.04.1-product) date Sat 23 May 2015 04:20:30 BST*
%MOMM*%
G01*
G04 APERTURE LIST*
%ADD10C,0.100000*%
%ADD11C,0.300000*%
%ADD12C,0.150000*%
%ADD13C,0.200000*%
%ADD14R,0.800000X0.700000*%
%ADD15R,0.700000X0.800000*%
%ADD16R,0.800000X0.800000*%
%ADD17R,0.500000X0.600000*%
%ADD18R,0.600000X0.500000*%
%ADD19R,1.300000X2.400000*%
%ADD20R,3.800000X2.400000*%
%ADD21R,0.400000X1.400000*%
%ADD22R,0.600000X2.200000*%
%ADD23C,1.700000*%
%ADD24R,0.700000X1.800000*%
%ADD25R,0.800000X1.800000*%
%ADD26R,0.300000X1.200000*%
%ADD27R,1.200000X0.300000*%
%ADD28R,2.286000X5.080000*%
%ADD29R,2.413000X5.080000*%
%ADD30C,1.016000*%
%ADD31R,1.000000X0.800000*%
%ADD32C,1.500000*%
%ADD33C,1.000000*%
%ADD34R,2.300000X2.500000*%
%ADD35C,6.300000*%
%ADD36C,0.600000*%
%ADD37C,1.200000*%
G04 APERTURE END LIST*
D10*
D11*
X115821429Y-150678571D02*
X115107143Y-150678571D01*
X115035714Y-151392857D01*
X115107143Y-151321429D01*
X115250000Y-151250000D01*
X115607143Y-151250000D01*
X115750000Y-151321429D01*
X115821429Y-151392857D01*
X115892857Y-151535714D01*
X115892857Y-151892857D01*
X115821429Y-152035714D01*
X115750000Y-152107143D01*
X115607143Y-152178571D01*
X115250000Y-152178571D01*
X115107143Y-152107143D01*
X115035714Y-152035714D01*
X116392857Y-151178571D02*
X116750000Y-152178571D01*
X117107142Y-151178571D01*
X114964286Y-148678571D02*
X115892857Y-148678571D01*
X115392857Y-149250000D01*
X115607143Y-149250000D01*
X115750000Y-149321429D01*
X115821429Y-149392857D01*
X115892857Y-149535714D01*
X115892857Y-149892857D01*
X115821429Y-150035714D01*
X115750000Y-150107143D01*
X115607143Y-150178571D01*
X115178571Y-150178571D01*
X115035714Y-150107143D01*
X114964286Y-150035714D01*
X116392857Y-149178571D02*
X116750000Y-150178571D01*
X117107142Y-149178571D01*
X117535714Y-148678571D02*
X118464285Y-148678571D01*
X117964285Y-149250000D01*
X118178571Y-149250000D01*
X118321428Y-149321429D01*
X118392857Y-149392857D01*
X118464285Y-149535714D01*
X118464285Y-149892857D01*
X118392857Y-150035714D01*
X118321428Y-150107143D01*
X118178571Y-150178571D01*
X117749999Y-150178571D01*
X117607142Y-150107143D01*
X117535714Y-150035714D01*
X122071429Y-147728571D02*
X121785715Y-147728571D01*
X121642858Y-147800000D01*
X121571429Y-147871429D01*
X121428572Y-148085714D01*
X121357143Y-148371429D01*
X121357143Y-148942857D01*
X121428572Y-149085714D01*
X121500000Y-149157143D01*
X121642858Y-149228571D01*
X121928572Y-149228571D01*
X122071429Y-149157143D01*
X122142858Y-149085714D01*
X122214286Y-148942857D01*
X122214286Y-148585714D01*
X122142858Y-148442857D01*
X122071429Y-148371429D01*
X121928572Y-148300000D01*
X121642858Y-148300000D01*
X121500000Y-148371429D01*
X121428572Y-148442857D01*
X121357143Y-148585714D01*
X122857143Y-148657143D02*
X124000000Y-148657143D01*
X124928572Y-148371429D02*
X124785714Y-148300000D01*
X124714286Y-148228571D01*
X124642857Y-148085714D01*
X124642857Y-148014286D01*
X124714286Y-147871429D01*
X124785714Y-147800000D01*
X124928572Y-147728571D01*
X125214286Y-147728571D01*
X125357143Y-147800000D01*
X125428572Y-147871429D01*
X125500000Y-148014286D01*
X125500000Y-148085714D01*
X125428572Y-148228571D01*
X125357143Y-148300000D01*
X125214286Y-148371429D01*
X124928572Y-148371429D01*
X124785714Y-148442857D01*
X124714286Y-148514286D01*
X124642857Y-148657143D01*
X124642857Y-148942857D01*
X124714286Y-149085714D01*
X124785714Y-149157143D01*
X124928572Y-149228571D01*
X125214286Y-149228571D01*
X125357143Y-149157143D01*
X125428572Y-149085714D01*
X125500000Y-148942857D01*
X125500000Y-148657143D01*
X125428572Y-148514286D01*
X125357143Y-148442857D01*
X125214286Y-148371429D01*
X125928571Y-147728571D02*
X126428571Y-149228571D01*
X126928571Y-147728571D01*
X127428571Y-149228571D02*
X127428571Y-147728571D01*
X127785714Y-147728571D01*
X127999999Y-147800000D01*
X128142857Y-147942857D01*
X128214285Y-148085714D01*
X128285714Y-148371429D01*
X128285714Y-148585714D01*
X128214285Y-148871429D01*
X128142857Y-149014286D01*
X127999999Y-149157143D01*
X127785714Y-149228571D01*
X127428571Y-149228571D01*
X129785714Y-149085714D02*
X129714285Y-149157143D01*
X129499999Y-149228571D01*
X129357142Y-149228571D01*
X129142857Y-149157143D01*
X128999999Y-149014286D01*
X128928571Y-148871429D01*
X128857142Y-148585714D01*
X128857142Y-148371429D01*
X128928571Y-148085714D01*
X128999999Y-147942857D01*
X129142857Y-147800000D01*
X129357142Y-147728571D01*
X129499999Y-147728571D01*
X129714285Y-147800000D01*
X129785714Y-147871429D01*
X131571428Y-149228571D02*
X131571428Y-147728571D01*
X132285714Y-149228571D02*
X132285714Y-147728571D01*
X133142857Y-149228571D01*
X133142857Y-147728571D01*
X123428572Y-150128571D02*
X122714286Y-150128571D01*
X122642857Y-150842857D01*
X122714286Y-150771429D01*
X122857143Y-150700000D01*
X123214286Y-150700000D01*
X123357143Y-150771429D01*
X123428572Y-150842857D01*
X123500000Y-150985714D01*
X123500000Y-151342857D01*
X123428572Y-151485714D01*
X123357143Y-151557143D01*
X123214286Y-151628571D01*
X122857143Y-151628571D01*
X122714286Y-151557143D01*
X122642857Y-151485714D01*
X123928571Y-150128571D02*
X124428571Y-151628571D01*
X124928571Y-150128571D01*
X125428571Y-151628571D02*
X125428571Y-150128571D01*
X125785714Y-150128571D01*
X125999999Y-150200000D01*
X126142857Y-150342857D01*
X126214285Y-150485714D01*
X126285714Y-150771429D01*
X126285714Y-150985714D01*
X126214285Y-151271429D01*
X126142857Y-151414286D01*
X125999999Y-151557143D01*
X125785714Y-151628571D01*
X125428571Y-151628571D01*
X127785714Y-151485714D02*
X127714285Y-151557143D01*
X127499999Y-151628571D01*
X127357142Y-151628571D01*
X127142857Y-151557143D01*
X126999999Y-151414286D01*
X126928571Y-151271429D01*
X126857142Y-150985714D01*
X126857142Y-150771429D01*
X126928571Y-150485714D01*
X126999999Y-150342857D01*
X127142857Y-150200000D01*
X127357142Y-150128571D01*
X127499999Y-150128571D01*
X127714285Y-150200000D01*
X127785714Y-150271429D01*
X129857142Y-150128571D02*
X130142856Y-150128571D01*
X130285714Y-150200000D01*
X130428571Y-150342857D01*
X130499999Y-150628571D01*
X130499999Y-151128571D01*
X130428571Y-151414286D01*
X130285714Y-151557143D01*
X130142856Y-151628571D01*
X129857142Y-151628571D01*
X129714285Y-151557143D01*
X129571428Y-151414286D01*
X129499999Y-151128571D01*
X129499999Y-150628571D01*
X129571428Y-150342857D01*
X129714285Y-150200000D01*
X129857142Y-150128571D01*
X131142857Y-150128571D02*
X131142857Y-151342857D01*
X131214285Y-151485714D01*
X131285714Y-151557143D01*
X131428571Y-151628571D01*
X131714285Y-151628571D01*
X131857143Y-151557143D01*
X131928571Y-151485714D01*
X132000000Y-151342857D01*
X132000000Y-150128571D01*
X132500000Y-150128571D02*
X133357143Y-150128571D01*
X132928572Y-151628571D02*
X132928572Y-150128571D01*
X127642857Y-121550000D02*
X128357143Y-121550000D01*
X127500000Y-121978571D02*
X128000000Y-120478571D01*
X128500000Y-121978571D01*
X129000000Y-121978571D02*
X129000000Y-120478571D01*
X129357143Y-120478571D01*
X129571428Y-120550000D01*
X129714286Y-120692857D01*
X129785714Y-120835714D01*
X129857143Y-121121429D01*
X129857143Y-121335714D01*
X129785714Y-121621429D01*
X129714286Y-121764286D01*
X129571428Y-121907143D01*
X129357143Y-121978571D01*
X129000000Y-121978571D01*
X130428571Y-121550000D02*
X131142857Y-121550000D01*
X130285714Y-121978571D02*
X130785714Y-120478571D01*
X131285714Y-121978571D01*
X131785714Y-121978571D02*
X131785714Y-120478571D01*
X132285714Y-121550000D01*
X132785714Y-120478571D01*
X132785714Y-121978571D01*
X128107143Y-122950000D02*
X127964286Y-122878571D01*
X127750000Y-122878571D01*
X127535715Y-122950000D01*
X127392857Y-123092857D01*
X127321429Y-123235714D01*
X127250000Y-123521429D01*
X127250000Y-123735714D01*
X127321429Y-124021429D01*
X127392857Y-124164286D01*
X127535715Y-124307143D01*
X127750000Y-124378571D01*
X127892857Y-124378571D01*
X128107143Y-124307143D01*
X128178572Y-124235714D01*
X128178572Y-123735714D01*
X127892857Y-123735714D01*
X129678572Y-124378571D02*
X129178572Y-123664286D01*
X128821429Y-124378571D02*
X128821429Y-122878571D01*
X129392857Y-122878571D01*
X129535715Y-122950000D01*
X129607143Y-123021429D01*
X129678572Y-123164286D01*
X129678572Y-123378571D01*
X129607143Y-123521429D01*
X129535715Y-123592857D01*
X129392857Y-123664286D01*
X128821429Y-123664286D01*
X130321429Y-123592857D02*
X130821429Y-123592857D01*
X131035715Y-124378571D02*
X130321429Y-124378571D01*
X130321429Y-122878571D01*
X131035715Y-122878571D01*
X131678572Y-124378571D02*
X131678572Y-122878571D01*
X133178572Y-122950000D02*
X133035715Y-122878571D01*
X132821429Y-122878571D01*
X132607144Y-122950000D01*
X132464286Y-123092857D01*
X132392858Y-123235714D01*
X132321429Y-123521429D01*
X132321429Y-123735714D01*
X132392858Y-124021429D01*
X132464286Y-124164286D01*
X132607144Y-124307143D01*
X132821429Y-124378571D01*
X132964286Y-124378571D01*
X133178572Y-124307143D01*
X133250001Y-124235714D01*
X133250001Y-123735714D01*
X132964286Y-123735714D01*
X114785717Y-133928571D02*
X114785717Y-132928571D01*
X114785717Y-133214286D02*
X114857145Y-133071429D01*
X114928574Y-133000000D01*
X115071431Y-132928571D01*
X115214288Y-132928571D01*
X115642859Y-132571429D02*
X115714288Y-132500000D01*
X115857145Y-132428571D01*
X116214288Y-132428571D01*
X116357145Y-132500000D01*
X116428574Y-132571429D01*
X116500002Y-132714286D01*
X116500002Y-132857143D01*
X116428574Y-133071429D01*
X115571431Y-133928571D01*
X116500002Y-133928571D01*
X118214287Y-132571429D02*
X118285716Y-132500000D01*
X118428573Y-132428571D01*
X118785716Y-132428571D01*
X118928573Y-132500000D01*
X119000002Y-132571429D01*
X119071430Y-132714286D01*
X119071430Y-132857143D01*
X119000002Y-133071429D01*
X118142859Y-133928571D01*
X119071430Y-133928571D01*
X120000001Y-132428571D02*
X120142858Y-132428571D01*
X120285715Y-132500000D01*
X120357144Y-132571429D01*
X120428573Y-132714286D01*
X120500001Y-133000000D01*
X120500001Y-133357143D01*
X120428573Y-133642857D01*
X120357144Y-133785714D01*
X120285715Y-133857143D01*
X120142858Y-133928571D01*
X120000001Y-133928571D01*
X119857144Y-133857143D01*
X119785715Y-133785714D01*
X119714287Y-133642857D01*
X119642858Y-133357143D01*
X119642858Y-133000000D01*
X119714287Y-132714286D01*
X119785715Y-132571429D01*
X119857144Y-132500000D01*
X120000001Y-132428571D01*
X121928572Y-133928571D02*
X121071429Y-133928571D01*
X121500001Y-133928571D02*
X121500001Y-132428571D01*
X121357144Y-132642857D01*
X121214286Y-132785714D01*
X121071429Y-132857143D01*
X123285715Y-132428571D02*
X122571429Y-132428571D01*
X122500000Y-133142857D01*
X122571429Y-133071429D01*
X122714286Y-133000000D01*
X123071429Y-133000000D01*
X123214286Y-133071429D01*
X123285715Y-133142857D01*
X123357143Y-133285714D01*
X123357143Y-133642857D01*
X123285715Y-133785714D01*
X123214286Y-133857143D01*
X123071429Y-133928571D01*
X122714286Y-133928571D01*
X122571429Y-133857143D01*
X122500000Y-133785714D01*
X124000000Y-133357143D02*
X125142857Y-133357143D01*
X126142857Y-132428571D02*
X126285714Y-132428571D01*
X126428571Y-132500000D01*
X126500000Y-132571429D01*
X126571429Y-132714286D01*
X126642857Y-133000000D01*
X126642857Y-133357143D01*
X126571429Y-133642857D01*
X126500000Y-133785714D01*
X126428571Y-133857143D01*
X126285714Y-133928571D01*
X126142857Y-133928571D01*
X126000000Y-133857143D01*
X125928571Y-133785714D01*
X125857143Y-133642857D01*
X125785714Y-133357143D01*
X125785714Y-133000000D01*
X125857143Y-132714286D01*
X125928571Y-132571429D01*
X126000000Y-132500000D01*
X126142857Y-132428571D01*
X128000000Y-132428571D02*
X127285714Y-132428571D01*
X127214285Y-133142857D01*
X127285714Y-133071429D01*
X127428571Y-133000000D01*
X127785714Y-133000000D01*
X127928571Y-133071429D01*
X128000000Y-133142857D01*
X128071428Y-133285714D01*
X128071428Y-133642857D01*
X128000000Y-133785714D01*
X127928571Y-133857143D01*
X127785714Y-133928571D01*
X127428571Y-133928571D01*
X127285714Y-133857143D01*
X127214285Y-133785714D01*
X128714285Y-133357143D02*
X129857142Y-133357143D01*
X130499999Y-132571429D02*
X130571428Y-132500000D01*
X130714285Y-132428571D01*
X131071428Y-132428571D01*
X131214285Y-132500000D01*
X131285714Y-132571429D01*
X131357142Y-132714286D01*
X131357142Y-132857143D01*
X131285714Y-133071429D01*
X130428571Y-133928571D01*
X131357142Y-133928571D01*
X131857142Y-132428571D02*
X132785713Y-132428571D01*
X132285713Y-133000000D01*
X132499999Y-133000000D01*
X132642856Y-133071429D01*
X132714285Y-133142857D01*
X132785713Y-133285714D01*
X132785713Y-133642857D01*
X132714285Y-133785714D01*
X132642856Y-133857143D01*
X132499999Y-133928571D01*
X132071427Y-133928571D01*
X131928570Y-133857143D01*
X131857142Y-133785714D01*
X128535715Y-164928571D02*
X127821429Y-164928571D01*
X127821429Y-163428571D01*
X129035715Y-164142857D02*
X129535715Y-164142857D01*
X129750001Y-164928571D02*
X129035715Y-164928571D01*
X129035715Y-163428571D01*
X129750001Y-163428571D01*
X130392858Y-164928571D02*
X130392858Y-163428571D01*
X130750001Y-163428571D01*
X130964286Y-163500000D01*
X131107144Y-163642857D01*
X131178572Y-163785714D01*
X131250001Y-164071429D01*
X131250001Y-164285714D01*
X131178572Y-164571429D01*
X131107144Y-164714286D01*
X130964286Y-164857143D01*
X130750001Y-164928571D01*
X130392858Y-164928571D01*
X114464287Y-162928571D02*
X113750001Y-162928571D01*
X113678572Y-163642857D01*
X113750001Y-163571429D01*
X113892858Y-163500000D01*
X114250001Y-163500000D01*
X114392858Y-163571429D01*
X114464287Y-163642857D01*
X114535715Y-163785714D01*
X114535715Y-164142857D01*
X114464287Y-164285714D01*
X114392858Y-164357143D01*
X114250001Y-164428571D01*
X113892858Y-164428571D01*
X113750001Y-164357143D01*
X113678572Y-164285714D01*
X114964286Y-162928571D02*
X115464286Y-164428571D01*
X115964286Y-162928571D01*
X121392858Y-163892857D02*
X121607144Y-163964286D01*
X121678572Y-164035714D01*
X121750001Y-164178571D01*
X121750001Y-164392857D01*
X121678572Y-164535714D01*
X121607144Y-164607143D01*
X121464286Y-164678571D01*
X120892858Y-164678571D01*
X120892858Y-163178571D01*
X121392858Y-163178571D01*
X121535715Y-163250000D01*
X121607144Y-163321429D01*
X121678572Y-163464286D01*
X121678572Y-163607143D01*
X121607144Y-163750000D01*
X121535715Y-163821429D01*
X121392858Y-163892857D01*
X120892858Y-163892857D01*
X122321429Y-164250000D02*
X123035715Y-164250000D01*
X122178572Y-164678571D02*
X122678572Y-163178571D01*
X123178572Y-164678571D01*
X123464286Y-163178571D02*
X124321429Y-163178571D01*
X123892858Y-164678571D02*
X123892858Y-163178571D01*
X114000000Y-165357143D02*
X115142857Y-165357143D01*
X114571428Y-165928571D02*
X114571428Y-164785714D01*
X115857143Y-165357143D02*
X117000000Y-165357143D01*
X121000000Y-165357143D02*
X122142857Y-165357143D01*
X121571428Y-165928571D02*
X121571428Y-164785714D01*
X122857143Y-165357143D02*
X124000000Y-165357143D01*
X103892858Y-166178571D02*
X103892858Y-164678571D01*
X104392858Y-165750000D01*
X104892858Y-164678571D01*
X104892858Y-166178571D01*
X105535715Y-164821429D02*
X105607144Y-164750000D01*
X105750001Y-164678571D01*
X106107144Y-164678571D01*
X106250001Y-164750000D01*
X106321430Y-164821429D01*
X106392858Y-164964286D01*
X106392858Y-165107143D01*
X106321430Y-165321429D01*
X105464287Y-166178571D01*
X106392858Y-166178571D01*
X107535715Y-165392857D02*
X107035715Y-165392857D01*
X107035715Y-166178571D02*
X107035715Y-164678571D01*
X107750001Y-164678571D01*
X109178572Y-166035714D02*
X109107143Y-166107143D01*
X108892857Y-166178571D01*
X108750000Y-166178571D01*
X108535715Y-166107143D01*
X108392857Y-165964286D01*
X108321429Y-165821429D01*
X108250000Y-165535714D01*
X108250000Y-165321429D01*
X108321429Y-165035714D01*
X108392857Y-164892857D01*
X108535715Y-164750000D01*
X108750000Y-164678571D01*
X108892857Y-164678571D01*
X109107143Y-164750000D01*
X109178572Y-164821429D01*
X95214286Y-166178571D02*
X94714286Y-165464286D01*
X94357143Y-166178571D02*
X94357143Y-164678571D01*
X94928571Y-164678571D01*
X95071429Y-164750000D01*
X95142857Y-164821429D01*
X95214286Y-164964286D01*
X95214286Y-165178571D01*
X95142857Y-165321429D01*
X95071429Y-165392857D01*
X94928571Y-165464286D01*
X94357143Y-165464286D01*
X96357143Y-165392857D02*
X96571429Y-165464286D01*
X96642857Y-165535714D01*
X96714286Y-165678571D01*
X96714286Y-165892857D01*
X96642857Y-166035714D01*
X96571429Y-166107143D01*
X96428571Y-166178571D01*
X95857143Y-166178571D01*
X95857143Y-164678571D01*
X96357143Y-164678571D01*
X96500000Y-164750000D01*
X96571429Y-164821429D01*
X96642857Y-164964286D01*
X96642857Y-165107143D01*
X96571429Y-165250000D01*
X96500000Y-165321429D01*
X96357143Y-165392857D01*
X95857143Y-165392857D01*
X83428572Y-164750000D02*
X83285715Y-164678571D01*
X83071429Y-164678571D01*
X82857144Y-164750000D01*
X82714286Y-164892857D01*
X82642858Y-165035714D01*
X82571429Y-165321429D01*
X82571429Y-165535714D01*
X82642858Y-165821429D01*
X82714286Y-165964286D01*
X82857144Y-166107143D01*
X83071429Y-166178571D01*
X83214286Y-166178571D01*
X83428572Y-166107143D01*
X83500001Y-166035714D01*
X83500001Y-165535714D01*
X83214286Y-165535714D01*
X84142858Y-166178571D02*
X84142858Y-164678571D01*
X84714286Y-164678571D01*
X84857144Y-164750000D01*
X84928572Y-164821429D01*
X85000001Y-164964286D01*
X85000001Y-165178571D01*
X84928572Y-165321429D01*
X84857144Y-165392857D01*
X84714286Y-165464286D01*
X84142858Y-165464286D01*
X85571429Y-166107143D02*
X85785715Y-166178571D01*
X86142858Y-166178571D01*
X86285715Y-166107143D01*
X86357144Y-166035714D01*
X86428572Y-165892857D01*
X86428572Y-165750000D01*
X86357144Y-165607143D01*
X86285715Y-165535714D01*
X86142858Y-165464286D01*
X85857144Y-165392857D01*
X85714286Y-165321429D01*
X85642858Y-165250000D01*
X85571429Y-165107143D01*
X85571429Y-164964286D01*
X85642858Y-164821429D01*
X85714286Y-164750000D01*
X85857144Y-164678571D01*
X86214286Y-164678571D01*
X86428572Y-164750000D01*
X114642858Y-128978571D02*
X114642858Y-127478571D01*
X115142858Y-128550000D01*
X115642858Y-127478571D01*
X115642858Y-128978571D01*
X116285715Y-128550000D02*
X117000001Y-128550000D01*
X116142858Y-128978571D02*
X116642858Y-127478571D01*
X117142858Y-128978571D01*
X118500001Y-128978571D02*
X118000001Y-128264286D01*
X117642858Y-128978571D02*
X117642858Y-127478571D01*
X118214286Y-127478571D01*
X118357144Y-127550000D01*
X118428572Y-127621429D01*
X118500001Y-127764286D01*
X118500001Y-127978571D01*
X118428572Y-128121429D01*
X118357144Y-128192857D01*
X118214286Y-128264286D01*
X117642858Y-128264286D01*
X118928572Y-127478571D02*
X119785715Y-127478571D01*
X119357144Y-128978571D02*
X119357144Y-127478571D01*
X121000001Y-128978571D02*
X120285715Y-128978571D01*
X120285715Y-127478571D01*
X121500001Y-128192857D02*
X122000001Y-128192857D01*
X122214287Y-128978571D02*
X121500001Y-128978571D01*
X121500001Y-127478571D01*
X122214287Y-127478571D01*
X122642858Y-127478571D02*
X123500001Y-127478571D01*
X123071430Y-128978571D02*
X123071430Y-127478571D01*
X125071429Y-127621429D02*
X125142858Y-127550000D01*
X125285715Y-127478571D01*
X125642858Y-127478571D01*
X125785715Y-127550000D01*
X125857144Y-127621429D01*
X125928572Y-127764286D01*
X125928572Y-127907143D01*
X125857144Y-128121429D01*
X125000001Y-128978571D01*
X125928572Y-128978571D01*
X118178572Y-131378571D02*
X117678572Y-130664286D01*
X117321429Y-131378571D02*
X117321429Y-129878571D01*
X117892857Y-129878571D01*
X118035715Y-129950000D01*
X118107143Y-130021429D01*
X118178572Y-130164286D01*
X118178572Y-130378571D01*
X118107143Y-130521429D01*
X118035715Y-130592857D01*
X117892857Y-130664286D01*
X117321429Y-130664286D01*
X118750000Y-130950000D02*
X119464286Y-130950000D01*
X118607143Y-131378571D02*
X119107143Y-129878571D01*
X119607143Y-131378571D01*
X120107143Y-131378571D02*
X120107143Y-129878571D01*
X120464286Y-129878571D01*
X120678571Y-129950000D01*
X120821429Y-130092857D01*
X120892857Y-130235714D01*
X120964286Y-130521429D01*
X120964286Y-130735714D01*
X120892857Y-131021429D01*
X120821429Y-131164286D01*
X120678571Y-131307143D01*
X120464286Y-131378571D01*
X120107143Y-131378571D01*
X121607143Y-131378571D02*
X121607143Y-129878571D01*
X122607143Y-129878571D02*
X122892857Y-129878571D01*
X123035715Y-129950000D01*
X123178572Y-130092857D01*
X123250000Y-130378571D01*
X123250000Y-130878571D01*
X123178572Y-131164286D01*
X123035715Y-131307143D01*
X122892857Y-131378571D01*
X122607143Y-131378571D01*
X122464286Y-131307143D01*
X122321429Y-131164286D01*
X122250000Y-130878571D01*
X122250000Y-130378571D01*
X122321429Y-130092857D01*
X122464286Y-129950000D01*
X122607143Y-129878571D01*
X110178571Y-126035714D02*
X109464286Y-126535714D01*
X110178571Y-126892857D02*
X108678571Y-126892857D01*
X108678571Y-126321429D01*
X108750000Y-126178571D01*
X108821429Y-126107143D01*
X108964286Y-126035714D01*
X109178571Y-126035714D01*
X109321429Y-126107143D01*
X109392857Y-126178571D01*
X109464286Y-126321429D01*
X109464286Y-126892857D01*
X109750000Y-125464286D02*
X109750000Y-124750000D01*
X110178571Y-125607143D02*
X108678571Y-125107143D01*
X110178571Y-124607143D01*
X110178571Y-124107143D02*
X108678571Y-124107143D01*
X108678571Y-123750000D01*
X108750000Y-123535715D01*
X108892857Y-123392857D01*
X109035714Y-123321429D01*
X109321429Y-123250000D01*
X109535714Y-123250000D01*
X109821429Y-123321429D01*
X109964286Y-123392857D01*
X110107143Y-123535715D01*
X110178571Y-123750000D01*
X110178571Y-124107143D01*
X110178571Y-122607143D02*
X108678571Y-122607143D01*
X108678571Y-121607143D02*
X108678571Y-121321429D01*
X108750000Y-121178571D01*
X108892857Y-121035714D01*
X109178571Y-120964286D01*
X109678571Y-120964286D01*
X109964286Y-121035714D01*
X110107143Y-121178571D01*
X110178571Y-121321429D01*
X110178571Y-121607143D01*
X110107143Y-121750000D01*
X109964286Y-121892857D01*
X109678571Y-121964286D01*
X109178571Y-121964286D01*
X108892857Y-121892857D01*
X108750000Y-121750000D01*
X108678571Y-121607143D01*
X106678571Y-125035714D02*
X105964286Y-125535714D01*
X106678571Y-125892857D02*
X105178571Y-125892857D01*
X105178571Y-125321429D01*
X105250000Y-125178571D01*
X105321429Y-125107143D01*
X105464286Y-125035714D01*
X105678571Y-125035714D01*
X105821429Y-125107143D01*
X105892857Y-125178571D01*
X105964286Y-125321429D01*
X105964286Y-125892857D01*
X105892857Y-123892857D02*
X105964286Y-123678571D01*
X106035714Y-123607143D01*
X106178571Y-123535714D01*
X106392857Y-123535714D01*
X106535714Y-123607143D01*
X106607143Y-123678571D01*
X106678571Y-123821429D01*
X106678571Y-124392857D01*
X105178571Y-124392857D01*
X105178571Y-123892857D01*
X105250000Y-123750000D01*
X105321429Y-123678571D01*
X105464286Y-123607143D01*
X105607143Y-123607143D01*
X105750000Y-123678571D01*
X105821429Y-123750000D01*
X105892857Y-123892857D01*
X105892857Y-124392857D01*
X101750000Y-125107143D02*
X101678571Y-125250000D01*
X101678571Y-125464286D01*
X101750000Y-125678571D01*
X101892857Y-125821429D01*
X102035714Y-125892857D01*
X102321429Y-125964286D01*
X102535714Y-125964286D01*
X102821429Y-125892857D01*
X102964286Y-125821429D01*
X103107143Y-125678571D01*
X103178571Y-125464286D01*
X103178571Y-125321429D01*
X103107143Y-125107143D01*
X103035714Y-125035714D01*
X102535714Y-125035714D01*
X102535714Y-125321429D01*
X103178571Y-124392857D02*
X101678571Y-124392857D01*
X101678571Y-123821429D01*
X101750000Y-123678571D01*
X101821429Y-123607143D01*
X101964286Y-123535714D01*
X102178571Y-123535714D01*
X102321429Y-123607143D01*
X102392857Y-123678571D01*
X102464286Y-123821429D01*
X102464286Y-124392857D01*
X103107143Y-122964286D02*
X103178571Y-122750000D01*
X103178571Y-122392857D01*
X103107143Y-122250000D01*
X103035714Y-122178571D01*
X102892857Y-122107143D01*
X102750000Y-122107143D01*
X102607143Y-122178571D01*
X102535714Y-122250000D01*
X102464286Y-122392857D01*
X102392857Y-122678571D01*
X102321429Y-122821429D01*
X102250000Y-122892857D01*
X102107143Y-122964286D01*
X101964286Y-122964286D01*
X101821429Y-122892857D01*
X101750000Y-122821429D01*
X101678571Y-122678571D01*
X101678571Y-122321429D01*
X101750000Y-122107143D01*
X99607143Y-125964286D02*
X99678571Y-125750000D01*
X99678571Y-125392857D01*
X99607143Y-125250000D01*
X99535714Y-125178571D01*
X99392857Y-125107143D01*
X99250000Y-125107143D01*
X99107143Y-125178571D01*
X99035714Y-125250000D01*
X98964286Y-125392857D01*
X98892857Y-125678571D01*
X98821429Y-125821429D01*
X98750000Y-125892857D01*
X98607143Y-125964286D01*
X98464286Y-125964286D01*
X98321429Y-125892857D01*
X98250000Y-125821429D01*
X98178571Y-125678571D01*
X98178571Y-125321429D01*
X98250000Y-125107143D01*
X98964286Y-124178572D02*
X99678571Y-124178572D01*
X98178571Y-124678572D02*
X98964286Y-124178572D01*
X98178571Y-123678572D01*
X99607143Y-123250001D02*
X99678571Y-123035715D01*
X99678571Y-122678572D01*
X99607143Y-122535715D01*
X99535714Y-122464286D01*
X99392857Y-122392858D01*
X99250000Y-122392858D01*
X99107143Y-122464286D01*
X99035714Y-122535715D01*
X98964286Y-122678572D01*
X98892857Y-122964286D01*
X98821429Y-123107144D01*
X98750000Y-123178572D01*
X98607143Y-123250001D01*
X98464286Y-123250001D01*
X98321429Y-123178572D01*
X98250000Y-123107144D01*
X98178571Y-122964286D01*
X98178571Y-122607144D01*
X98250000Y-122392858D01*
D12*
X91500000Y-161250000D02*
X91500000Y-159150000D01*
X92500000Y-159150000D02*
X92500000Y-161250000D01*
X105500000Y-161250000D02*
X105500000Y-159150000D01*
X106500000Y-159150000D02*
X106500000Y-161250000D01*
X98500000Y-161250000D02*
X98500000Y-159150000D01*
X99500000Y-159150000D02*
X99500000Y-161250000D01*
X98250000Y-163000000D02*
X100350000Y-163000000D01*
X100350000Y-164000000D02*
X98250000Y-164000000D01*
X92500000Y-156250000D02*
X92500000Y-158350000D01*
X91500000Y-158350000D02*
X91500000Y-156250000D01*
X105500000Y-158250000D02*
X105500000Y-156150000D01*
X106500000Y-156150000D02*
X106500000Y-158250000D01*
X121250000Y-162000000D02*
X123350000Y-162000000D01*
X123350000Y-163000000D02*
X121250000Y-163000000D01*
X121250000Y-153500000D02*
X123350000Y-153500000D01*
X123350000Y-154500000D02*
X121250000Y-154500000D01*
X116250000Y-163000000D02*
X118350000Y-163000000D01*
X118350000Y-164000000D02*
X116250000Y-164000000D01*
X112000000Y-155250000D02*
X112000000Y-153150000D01*
X113000000Y-153150000D02*
X113000000Y-155250000D01*
X98500000Y-158250000D02*
X98500000Y-156150000D01*
X99500000Y-156150000D02*
X99500000Y-158250000D01*
X119500000Y-159250000D02*
X119500000Y-157150000D01*
X120500000Y-157150000D02*
X120500000Y-159250000D01*
X120750000Y-152000000D02*
X118650000Y-152000000D01*
X118650000Y-151000000D02*
X120750000Y-151000000D01*
X99000000Y-129750000D02*
X99000000Y-131850000D01*
X98000000Y-131850000D02*
X98000000Y-129750000D01*
X113750000Y-134000000D02*
X111650000Y-134000000D01*
X111650000Y-133000000D02*
X113750000Y-133000000D01*
X96250000Y-142000000D02*
X96250000Y-144100000D01*
X95250000Y-144100000D02*
X95250000Y-142000000D01*
X100750000Y-134500000D02*
X98650000Y-134500000D01*
X98650000Y-133500000D02*
X100750000Y-133500000D01*
X99500000Y-147250000D02*
X99500000Y-145150000D01*
X100500000Y-145150000D02*
X100500000Y-147250000D01*
X108000000Y-138000000D02*
X108000000Y-135900000D01*
X109000000Y-135900000D02*
X109000000Y-138000000D01*
X97500000Y-142000000D02*
X97500000Y-144100000D01*
X96500000Y-144100000D02*
X96500000Y-142000000D01*
X104800000Y-147250000D02*
X104800000Y-145150000D01*
X105800000Y-145150000D02*
X105800000Y-147250000D01*
X103500000Y-147250000D02*
X103500000Y-145150000D01*
X104500000Y-145150000D02*
X104500000Y-147250000D01*
X91750000Y-140000000D02*
X93850000Y-140000000D01*
X93850000Y-141000000D02*
X91750000Y-141000000D01*
X106100000Y-131850000D02*
X106100000Y-129750000D01*
X107100000Y-129750000D02*
X107100000Y-131850000D01*
X102750000Y-152250000D02*
X100650000Y-152250000D01*
X100650000Y-151250000D02*
X102750000Y-151250000D01*
X103500000Y-151250000D02*
X105600000Y-151250000D01*
X105600000Y-152250000D02*
X103500000Y-152250000D01*
X112000000Y-150800000D02*
X114500000Y-150800000D01*
X112000000Y-149800000D02*
X114500000Y-149800000D01*
X113200000Y-150500000D02*
X113100000Y-150500000D01*
X113300000Y-150400000D02*
X113100000Y-150400000D01*
X113200000Y-150100000D02*
X113100000Y-150100000D01*
X113300000Y-150200000D02*
X113100000Y-150200000D01*
X113400000Y-150300000D02*
X113100000Y-150300000D01*
X113000000Y-149900000D02*
X113500000Y-150300000D01*
X113500000Y-150300000D02*
X113000000Y-150700000D01*
X113000000Y-150700000D02*
X113000000Y-149900000D01*
X112000000Y-152300000D02*
X114500000Y-152300000D01*
X112000000Y-151300000D02*
X114500000Y-151300000D01*
X113200000Y-152000000D02*
X113100000Y-152000000D01*
X113300000Y-151900000D02*
X113100000Y-151900000D01*
X113200000Y-151600000D02*
X113100000Y-151600000D01*
X113300000Y-151700000D02*
X113100000Y-151700000D01*
X113400000Y-151800000D02*
X113100000Y-151800000D01*
X113000000Y-151400000D02*
X113500000Y-151800000D01*
X113500000Y-151800000D02*
X113000000Y-152200000D01*
X113000000Y-152200000D02*
X113000000Y-151400000D01*
X111500000Y-123900000D02*
X111500000Y-121400000D01*
X110500000Y-123900000D02*
X110500000Y-121400000D01*
X111200000Y-122700000D02*
X111200000Y-122800000D01*
X111100000Y-122600000D02*
X111100000Y-122800000D01*
X110800000Y-122700000D02*
X110800000Y-122800000D01*
X110900000Y-122600000D02*
X110900000Y-122800000D01*
X111000000Y-122500000D02*
X111000000Y-122800000D01*
X110600000Y-122900000D02*
X111000000Y-122400000D01*
X111000000Y-122400000D02*
X111400000Y-122900000D01*
X111400000Y-122900000D02*
X110600000Y-122900000D01*
X104500000Y-123900000D02*
X104500000Y-121400000D01*
X103500000Y-123900000D02*
X103500000Y-121400000D01*
X104200000Y-122700000D02*
X104200000Y-122800000D01*
X104100000Y-122600000D02*
X104100000Y-122800000D01*
X103800000Y-122700000D02*
X103800000Y-122800000D01*
X103900000Y-122600000D02*
X103900000Y-122800000D01*
X104000000Y-122500000D02*
X104000000Y-122800000D01*
X103600000Y-122900000D02*
X104000000Y-122400000D01*
X104000000Y-122400000D02*
X104400000Y-122900000D01*
X104400000Y-122900000D02*
X103600000Y-122900000D01*
X108000000Y-123900000D02*
X108000000Y-121400000D01*
X107000000Y-123900000D02*
X107000000Y-121400000D01*
X107700000Y-122700000D02*
X107700000Y-122800000D01*
X107600000Y-122600000D02*
X107600000Y-122800000D01*
X107300000Y-122700000D02*
X107300000Y-122800000D01*
X107400000Y-122600000D02*
X107400000Y-122800000D01*
X107500000Y-122500000D02*
X107500000Y-122800000D01*
X107100000Y-122900000D02*
X107500000Y-122400000D01*
X107500000Y-122400000D02*
X107900000Y-122900000D01*
X107900000Y-122900000D02*
X107100000Y-122900000D01*
X101000000Y-123900000D02*
X101000000Y-121400000D01*
X100000000Y-123900000D02*
X100000000Y-121400000D01*
X100700000Y-122700000D02*
X100700000Y-122800000D01*
X100600000Y-122600000D02*
X100600000Y-122800000D01*
X100300000Y-122700000D02*
X100300000Y-122800000D01*
X100400000Y-122600000D02*
X100400000Y-122800000D01*
X100500000Y-122500000D02*
X100500000Y-122800000D01*
X100100000Y-122900000D02*
X100500000Y-122400000D01*
X100500000Y-122400000D02*
X100900000Y-122900000D01*
X100900000Y-122900000D02*
X100100000Y-122900000D01*
X98850000Y-166300000D02*
X98850000Y-164600000D01*
X98150000Y-166300000D02*
X98150000Y-164600000D01*
X121700000Y-166850000D02*
X123400000Y-166850000D01*
X121700000Y-166150000D02*
X123400000Y-166150000D01*
X118600000Y-126150000D02*
X116900000Y-126150000D01*
X118600000Y-126850000D02*
X116900000Y-126850000D01*
X128650000Y-164950000D02*
X128650000Y-166650000D01*
X129350000Y-164950000D02*
X129350000Y-166650000D01*
X129650000Y-164950000D02*
X129650000Y-166650000D01*
X130350000Y-164950000D02*
X130350000Y-166650000D01*
X112000000Y-160000000D02*
X112000000Y-156000000D01*
X112000000Y-156000000D02*
X119000000Y-156000000D01*
X119000000Y-156000000D02*
X119000000Y-160000000D01*
X119000000Y-160000000D02*
X112000000Y-160000000D01*
X124200000Y-156000000D02*
G75*
G03X124200000Y-156000000I-200000J0D01*
G01*
X124100000Y-156000000D02*
G75*
G03X124100000Y-156000000I-100000J0D01*
G01*
X121000000Y-156000000D02*
X121000000Y-160500000D01*
X124000000Y-156000000D02*
X124000000Y-160500000D01*
X105300000Y-156000000D02*
G75*
G03X105300000Y-156000000I-200000J0D01*
G01*
X105200000Y-156000000D02*
G75*
G03X105200000Y-156000000I-100000J0D01*
G01*
X100100000Y-156000000D02*
X100100000Y-161200000D01*
X105100000Y-156000000D02*
X105100000Y-161200000D01*
X91300000Y-156000000D02*
G75*
G03X91300000Y-156000000I-200000J0D01*
G01*
X91200000Y-156000000D02*
G75*
G03X91200000Y-156000000I-100000J0D01*
G01*
X86100000Y-156000000D02*
X86100000Y-161200000D01*
X91100000Y-156000000D02*
X91100000Y-161200000D01*
X98300000Y-156000000D02*
G75*
G03X98300000Y-156000000I-200000J0D01*
G01*
X98200000Y-156000000D02*
G75*
G03X98200000Y-156000000I-100000J0D01*
G01*
X93100000Y-156000000D02*
X93100000Y-161200000D01*
X98100000Y-156000000D02*
X98100000Y-161200000D01*
X134000000Y-134500000D02*
X134000000Y-146800000D01*
X134000000Y-146800000D02*
X111400000Y-146800000D01*
X111400000Y-146800000D02*
X111400000Y-134500000D01*
X111400000Y-134500000D02*
X134000000Y-134500000D01*
X86900000Y-136800000D02*
G75*
G03X86900000Y-136800000I-200000J0D01*
G01*
X86800000Y-136800000D02*
G75*
G03X86800000Y-136800000I-100000J0D01*
G01*
X96200000Y-128900000D02*
X96200000Y-138600000D01*
X86000000Y-128900000D02*
X86000000Y-138600000D01*
X99200000Y-144000000D02*
G75*
G03X99200000Y-144000000I-200000J0D01*
G01*
X99100000Y-144000000D02*
G75*
G03X99100000Y-144000000I-100000J0D01*
G01*
X99500000Y-135500000D02*
X98500000Y-135500000D01*
X98500000Y-135500000D02*
X98500000Y-136500000D01*
X106000000Y-135500000D02*
X107000000Y-135500000D01*
X107000000Y-135500000D02*
X107000000Y-136500000D01*
X106000000Y-144000000D02*
X107000000Y-144000000D01*
X107000000Y-144000000D02*
X107000000Y-143000000D01*
X98500000Y-143000000D02*
X98500000Y-144000000D01*
X98500000Y-144000000D02*
X99500000Y-144000000D01*
X86412000Y-119933000D02*
X97588000Y-119933000D01*
X105080000Y-132349500D02*
X105080000Y-133175000D01*
X105080000Y-133175000D02*
X103619500Y-133175000D01*
X103619500Y-133175000D02*
X103619500Y-132349500D01*
X100000000Y-132349500D02*
X100000000Y-133175000D01*
X100000000Y-133175000D02*
X101460500Y-133175000D01*
X101460500Y-133175000D02*
X101460500Y-132349500D01*
X100000000Y-128920500D02*
X100000000Y-128095000D01*
X100000000Y-128095000D02*
X105080000Y-128095000D01*
X105080000Y-128095000D02*
X105080000Y-128920500D01*
X102540000Y-128920500D02*
X105715000Y-128920500D01*
X105715000Y-128920500D02*
X105715000Y-132349500D01*
X105715000Y-132349500D02*
X99365000Y-132349500D01*
X99365000Y-132349500D02*
X99365000Y-128920500D01*
X99365000Y-128920500D02*
X102540000Y-128920500D01*
X114412000Y-119933000D02*
X125588000Y-119933000D01*
X109500000Y-161400000D02*
X109500000Y-160500000D01*
X108100000Y-159500000D02*
X108100000Y-160400000D01*
X108100000Y-162400000D02*
X108100000Y-161500000D01*
X108100000Y-159500000D02*
X109500000Y-159500000D01*
X109500000Y-162400000D02*
X108100000Y-162400000D01*
X93950000Y-147750000D02*
X93950000Y-148650000D01*
X95350000Y-149650000D02*
X95350000Y-148750000D01*
X95350000Y-146750000D02*
X95350000Y-147650000D01*
X95350000Y-149650000D02*
X93950000Y-149650000D01*
X93950000Y-146750000D02*
X95350000Y-146750000D01*
X118500000Y-152600000D02*
X118500000Y-155000000D01*
X119500000Y-152600000D02*
X119500000Y-155000000D01*
X119500000Y-152600000D02*
X119500000Y-155000000D01*
X120500000Y-152600000D02*
X120500000Y-155000000D01*
X108250000Y-158650000D02*
X108250000Y-156250000D01*
X107250000Y-158650000D02*
X107250000Y-156250000D01*
X128900000Y-155000000D02*
X126500000Y-155000000D01*
X128900000Y-156000000D02*
X126500000Y-156000000D01*
X128900000Y-153500000D02*
X126500000Y-153500000D01*
X128900000Y-154500000D02*
X126500000Y-154500000D01*
X92650000Y-150650000D02*
X92650000Y-148250000D01*
X91650000Y-150650000D02*
X91650000Y-148250000D01*
X111300000Y-151300000D02*
X108900000Y-151300000D01*
X111300000Y-152300000D02*
X108900000Y-152300000D01*
X111300000Y-149800000D02*
X108900000Y-149800000D01*
X111300000Y-150800000D02*
X108900000Y-150800000D01*
X111300000Y-152800000D02*
X108900000Y-152800000D01*
X111300000Y-153800000D02*
X108900000Y-153800000D01*
X110500000Y-124600000D02*
X110500000Y-127000000D01*
X111500000Y-124600000D02*
X111500000Y-127000000D01*
X103500000Y-124600000D02*
X103500000Y-127000000D01*
X104500000Y-124600000D02*
X104500000Y-127000000D01*
X107000000Y-124600000D02*
X107000000Y-127000000D01*
X108000000Y-124600000D02*
X108000000Y-127000000D01*
X100000000Y-124350000D02*
X100000000Y-126750000D01*
X101000000Y-124350000D02*
X101000000Y-126750000D01*
X103200000Y-147400000D02*
X103200000Y-145000000D01*
X102200000Y-147400000D02*
X102200000Y-145000000D01*
X92650000Y-147650000D02*
X92650000Y-145250000D01*
X91650000Y-147650000D02*
X91650000Y-145250000D01*
X91000000Y-146500000D02*
G75*
G03X91000000Y-146500000I-6000000J0D01*
G01*
X100750000Y-147650000D02*
X105350000Y-147650000D01*
X105550000Y-147850000D02*
X105350000Y-147650000D01*
X100550000Y-147850000D02*
X100750000Y-147650000D01*
X100700000Y-150850000D02*
X105400000Y-150850000D01*
X100550000Y-150650000D02*
X100700000Y-150850000D01*
X105550000Y-150650000D02*
X105400000Y-150850000D01*
X85300000Y-128000000D02*
G75*
G03X85300000Y-128000000I-3300000J0D01*
G01*
X133300000Y-128000000D02*
G75*
G03X133300000Y-128000000I-3300000J0D01*
G01*
X133300000Y-160000000D02*
G75*
G03X133300000Y-160000000I-3300000J0D01*
G01*
X85300000Y-160000000D02*
G75*
G03X85300000Y-160000000I-3300000J0D01*
G01*
D13*
X99500000Y-168500000D02*
X99200000Y-168500000D01*
X97200000Y-168500000D02*
X97800000Y-168500000D01*
X95200000Y-168500000D02*
X95800000Y-168500000D01*
X93200000Y-168500000D02*
X93800000Y-168500000D01*
X91500000Y-168500000D02*
X91800000Y-168500000D01*
X90500000Y-164500000D02*
X91500000Y-164500000D01*
X91500000Y-164500000D02*
X91500000Y-168500000D01*
X100500000Y-164500000D02*
X99500000Y-164500000D01*
X99500000Y-164500000D02*
X99500000Y-168500000D01*
X90500000Y-176200000D02*
X100500000Y-176200000D01*
X90500000Y-171000000D02*
X90500000Y-176200000D01*
X90500000Y-164500000D02*
X90500000Y-169200000D01*
X100500000Y-169200000D02*
X100500000Y-164500000D01*
X100500000Y-176200000D02*
X100500000Y-171000000D01*
X88500000Y-168500000D02*
X88200000Y-168500000D01*
X86200000Y-168500000D02*
X86800000Y-168500000D01*
X84200000Y-168500000D02*
X84800000Y-168500000D01*
X82200000Y-168500000D02*
X82800000Y-168500000D01*
X80500000Y-168500000D02*
X80800000Y-168500000D01*
X79500000Y-164500000D02*
X80500000Y-164500000D01*
X80500000Y-164500000D02*
X80500000Y-168500000D01*
X89500000Y-164500000D02*
X88500000Y-164500000D01*
X88500000Y-164500000D02*
X88500000Y-168500000D01*
X79500000Y-176200000D02*
X89500000Y-176200000D01*
X79500000Y-171000000D02*
X79500000Y-176200000D01*
X79500000Y-164500000D02*
X79500000Y-169200000D01*
X89500000Y-169200000D02*
X89500000Y-164500000D01*
X89500000Y-176200000D02*
X89500000Y-171000000D01*
X110500000Y-168500000D02*
X110200000Y-168500000D01*
X108200000Y-168500000D02*
X108800000Y-168500000D01*
X106200000Y-168500000D02*
X106800000Y-168500000D01*
X104200000Y-168500000D02*
X104800000Y-168500000D01*
X102500000Y-168500000D02*
X102800000Y-168500000D01*
X101500000Y-164500000D02*
X102500000Y-164500000D01*
X102500000Y-164500000D02*
X102500000Y-168500000D01*
X111500000Y-164500000D02*
X110500000Y-164500000D01*
X110500000Y-164500000D02*
X110500000Y-168500000D01*
X101500000Y-176200000D02*
X111500000Y-176200000D01*
X101500000Y-171000000D02*
X101500000Y-176200000D01*
X101500000Y-164500000D02*
X101500000Y-169200000D01*
X111500000Y-169200000D02*
X111500000Y-164500000D01*
X111500000Y-176200000D02*
X111500000Y-171000000D01*
X113500000Y-168500000D02*
X113800000Y-168500000D01*
X115800000Y-168500000D02*
X115200000Y-168500000D01*
X117500000Y-168500000D02*
X117200000Y-168500000D01*
X112500000Y-164500000D02*
X113500000Y-164500000D01*
X113500000Y-164500000D02*
X113500000Y-168500000D01*
X118500000Y-164500000D02*
X117500000Y-164500000D01*
X117500000Y-164500000D02*
X117500000Y-168500000D01*
X112500000Y-176200000D02*
X118500000Y-176200000D01*
X112500000Y-171000000D02*
X112500000Y-176200000D01*
X112500000Y-164500000D02*
X112500000Y-169200000D01*
X118500000Y-169200000D02*
X118500000Y-164500000D01*
X118500000Y-176200000D02*
X118500000Y-171000000D01*
X127500000Y-168500000D02*
X127800000Y-168500000D01*
X129800000Y-168500000D02*
X129200000Y-168500000D01*
X131500000Y-168500000D02*
X131200000Y-168500000D01*
X126500000Y-164500000D02*
X127500000Y-164500000D01*
X127500000Y-164500000D02*
X127500000Y-168500000D01*
X132500000Y-164500000D02*
X131500000Y-164500000D01*
X131500000Y-164500000D02*
X131500000Y-168500000D01*
X126500000Y-176200000D02*
X132500000Y-176200000D01*
X126500000Y-171000000D02*
X126500000Y-176200000D01*
X126500000Y-164500000D02*
X126500000Y-169200000D01*
X132500000Y-169200000D02*
X132500000Y-164500000D01*
X132500000Y-176200000D02*
X132500000Y-171000000D01*
X120500000Y-168500000D02*
X120800000Y-168500000D01*
X122800000Y-168500000D02*
X122200000Y-168500000D01*
X124500000Y-168500000D02*
X124200000Y-168500000D01*
X119500000Y-164500000D02*
X120500000Y-164500000D01*
X120500000Y-164500000D02*
X120500000Y-168500000D01*
X125500000Y-164500000D02*
X124500000Y-164500000D01*
X124500000Y-164500000D02*
X124500000Y-168500000D01*
X119500000Y-176200000D02*
X125500000Y-176200000D01*
X119500000Y-171000000D02*
X119500000Y-176200000D01*
X119500000Y-164500000D02*
X119500000Y-169200000D01*
X125500000Y-169200000D02*
X125500000Y-164500000D01*
X125500000Y-176200000D02*
X125500000Y-171000000D01*
D12*
X93700000Y-126850000D02*
X95400000Y-126850000D01*
X93700000Y-126150000D02*
X95400000Y-126150000D01*
X110250000Y-158650000D02*
X110250000Y-156250000D01*
X109250000Y-158650000D02*
X109250000Y-156250000D01*
X116300000Y-166050000D02*
X114600000Y-166050000D01*
X116300000Y-166750000D02*
X114600000Y-166750000D01*
D10*
G36*
X113995736Y-132638875D02*
X113993366Y-132687746D01*
X113972523Y-132718489D01*
X113954842Y-132723000D01*
X113930121Y-132711207D01*
X113874208Y-132677355D01*
X113790543Y-132623733D01*
X113682563Y-132552633D01*
X113553707Y-132466343D01*
X113407414Y-132367155D01*
X113247121Y-132257357D01*
X113076267Y-132139240D01*
X113028800Y-132106240D01*
X112854527Y-131984672D01*
X112689338Y-131868944D01*
X112536790Y-131761580D01*
X112400440Y-131665108D01*
X112283844Y-131582054D01*
X112190559Y-131514943D01*
X112124142Y-131466302D01*
X112088149Y-131438657D01*
X112084542Y-131435530D01*
X112038296Y-131373875D01*
X112026334Y-131308989D01*
X112029800Y-131260576D01*
X112045620Y-131243531D01*
X112074288Y-131245565D01*
X112098883Y-131258810D01*
X112154107Y-131293668D01*
X112235971Y-131347387D01*
X112340488Y-131417211D01*
X112463669Y-131500388D01*
X112601526Y-131594163D01*
X112750070Y-131695783D01*
X112905314Y-131802495D01*
X113063270Y-131911543D01*
X113219948Y-132020175D01*
X113371361Y-132125637D01*
X113513521Y-132225175D01*
X113642440Y-132316035D01*
X113754128Y-132395464D01*
X113844598Y-132460707D01*
X113909862Y-132509012D01*
X113945932Y-132537623D01*
X113947209Y-132538770D01*
X113980170Y-132584882D01*
X113995736Y-132638875D01*
X113995736Y-132638875D01*
X113995736Y-132638875D01*
G37*
X113995736Y-132638875D02*
X113993366Y-132687746D01*
X113972523Y-132718489D01*
X113954842Y-132723000D01*
X113930121Y-132711207D01*
X113874208Y-132677355D01*
X113790543Y-132623733D01*
X113682563Y-132552633D01*
X113553707Y-132466343D01*
X113407414Y-132367155D01*
X113247121Y-132257357D01*
X113076267Y-132139240D01*
X113028800Y-132106240D01*
X112854527Y-131984672D01*
X112689338Y-131868944D01*
X112536790Y-131761580D01*
X112400440Y-131665108D01*
X112283844Y-131582054D01*
X112190559Y-131514943D01*
X112124142Y-131466302D01*
X112088149Y-131438657D01*
X112084542Y-131435530D01*
X112038296Y-131373875D01*
X112026334Y-131308989D01*
X112029800Y-131260576D01*
X112045620Y-131243531D01*
X112074288Y-131245565D01*
X112098883Y-131258810D01*
X112154107Y-131293668D01*
X112235971Y-131347387D01*
X112340488Y-131417211D01*
X112463669Y-131500388D01*
X112601526Y-131594163D01*
X112750070Y-131695783D01*
X112905314Y-131802495D01*
X113063270Y-131911543D01*
X113219948Y-132020175D01*
X113371361Y-132125637D01*
X113513521Y-132225175D01*
X113642440Y-132316035D01*
X113754128Y-132395464D01*
X113844598Y-132460707D01*
X113909862Y-132509012D01*
X113945932Y-132537623D01*
X113947209Y-132538770D01*
X113980170Y-132584882D01*
X113995736Y-132638875D01*
X113995736Y-132638875D01*
G36*
X113996748Y-132094801D02*
X113983434Y-132136726D01*
X113957253Y-132151500D01*
X113933072Y-132139695D01*
X113877671Y-132105795D01*
X113794447Y-132052075D01*
X113686797Y-131980809D01*
X113558118Y-131894270D01*
X113411806Y-131794732D01*
X113251259Y-131684469D01*
X113079873Y-131565756D01*
X113020628Y-131524494D01*
X112845603Y-131402236D01*
X112680001Y-131286186D01*
X112527289Y-131178802D01*
X112390936Y-131082539D01*
X112274410Y-130999853D01*
X112181180Y-130933202D01*
X112114714Y-130885041D01*
X112078480Y-130857826D01*
X112073959Y-130854055D01*
X112044669Y-130810728D01*
X112027541Y-130753450D01*
X112023346Y-130695206D01*
X112032852Y-130648978D01*
X112056834Y-130627751D01*
X112060508Y-130627500D01*
X112083315Y-130639257D01*
X112136766Y-130672714D01*
X112216927Y-130725147D01*
X112319864Y-130793835D01*
X112441641Y-130876054D01*
X112578326Y-130969082D01*
X112725982Y-131070196D01*
X112880677Y-131176674D01*
X113038476Y-131285792D01*
X113195444Y-131394828D01*
X113347647Y-131501060D01*
X113491151Y-131601765D01*
X113622021Y-131694219D01*
X113736324Y-131775701D01*
X113830124Y-131843488D01*
X113899488Y-131894856D01*
X113940480Y-131927085D01*
X113947209Y-131933151D01*
X113978047Y-131980230D01*
X113994756Y-132038374D01*
X113996748Y-132094801D01*
X113996748Y-132094801D01*
X113996748Y-132094801D01*
G37*
X113996748Y-132094801D02*
X113983434Y-132136726D01*
X113957253Y-132151500D01*
X113933072Y-132139695D01*
X113877671Y-132105795D01*
X113794447Y-132052075D01*
X113686797Y-131980809D01*
X113558118Y-131894270D01*
X113411806Y-131794732D01*
X113251259Y-131684469D01*
X113079873Y-131565756D01*
X113020628Y-131524494D01*
X112845603Y-131402236D01*
X112680001Y-131286186D01*
X112527289Y-131178802D01*
X112390936Y-131082539D01*
X112274410Y-130999853D01*
X112181180Y-130933202D01*
X112114714Y-130885041D01*
X112078480Y-130857826D01*
X112073959Y-130854055D01*
X112044669Y-130810728D01*
X112027541Y-130753450D01*
X112023346Y-130695206D01*
X112032852Y-130648978D01*
X112056834Y-130627751D01*
X112060508Y-130627500D01*
X112083315Y-130639257D01*
X112136766Y-130672714D01*
X112216927Y-130725147D01*
X112319864Y-130793835D01*
X112441641Y-130876054D01*
X112578326Y-130969082D01*
X112725982Y-131070196D01*
X112880677Y-131176674D01*
X113038476Y-131285792D01*
X113195444Y-131394828D01*
X113347647Y-131501060D01*
X113491151Y-131601765D01*
X113622021Y-131694219D01*
X113736324Y-131775701D01*
X113830124Y-131843488D01*
X113899488Y-131894856D01*
X113940480Y-131927085D01*
X113947209Y-131933151D01*
X113978047Y-131980230D01*
X113994756Y-132038374D01*
X113996748Y-132094801D01*
X113996748Y-132094801D01*
G36*
X113994834Y-131425960D02*
X113992604Y-131492050D01*
X113983617Y-131525823D01*
X113964423Y-131537161D01*
X113955856Y-131537667D01*
X113931394Y-131525859D01*
X113875726Y-131491954D01*
X113792258Y-131438228D01*
X113684395Y-131366958D01*
X113555543Y-131280421D01*
X113409109Y-131180891D01*
X113248499Y-131070647D01*
X113077118Y-130951965D01*
X113019231Y-130911651D01*
X112844292Y-130789432D01*
X112678747Y-130673358D01*
X112526074Y-130565897D01*
X112389748Y-130469514D01*
X112273246Y-130386676D01*
X112180046Y-130319850D01*
X112113623Y-130271503D01*
X112077456Y-130244102D01*
X112073038Y-130240346D01*
X112044389Y-130206540D01*
X112031232Y-130165392D01*
X112029624Y-130101774D01*
X112030705Y-130077904D01*
X112036162Y-130010443D01*
X112046180Y-129975413D01*
X112065065Y-129962911D01*
X112081081Y-129962059D01*
X112106579Y-129974166D01*
X112162554Y-130008120D01*
X112245032Y-130061161D01*
X112350040Y-130130532D01*
X112473606Y-130213472D01*
X112611756Y-130307225D01*
X112760519Y-130409030D01*
X112915920Y-130516130D01*
X113073989Y-130625765D01*
X113230751Y-130735178D01*
X113382233Y-130841609D01*
X113524464Y-130942300D01*
X113653471Y-131034492D01*
X113765280Y-131115426D01*
X113855919Y-131182344D01*
X113921415Y-131232487D01*
X113957795Y-131263097D01*
X113963054Y-131268881D01*
X113983116Y-131320395D01*
X113993914Y-131395912D01*
X113994834Y-131425960D01*
X113994834Y-131425960D01*
X113994834Y-131425960D01*
G37*
X113994834Y-131425960D02*
X113992604Y-131492050D01*
X113983617Y-131525823D01*
X113964423Y-131537161D01*
X113955856Y-131537667D01*
X113931394Y-131525859D01*
X113875726Y-131491954D01*
X113792258Y-131438228D01*
X113684395Y-131366958D01*
X113555543Y-131280421D01*
X113409109Y-131180891D01*
X113248499Y-131070647D01*
X113077118Y-130951965D01*
X113019231Y-130911651D01*
X112844292Y-130789432D01*
X112678747Y-130673358D01*
X112526074Y-130565897D01*
X112389748Y-130469514D01*
X112273246Y-130386676D01*
X112180046Y-130319850D01*
X112113623Y-130271503D01*
X112077456Y-130244102D01*
X112073038Y-130240346D01*
X112044389Y-130206540D01*
X112031232Y-130165392D01*
X112029624Y-130101774D01*
X112030705Y-130077904D01*
X112036162Y-130010443D01*
X112046180Y-129975413D01*
X112065065Y-129962911D01*
X112081081Y-129962059D01*
X112106579Y-129974166D01*
X112162554Y-130008120D01*
X112245032Y-130061161D01*
X112350040Y-130130532D01*
X112473606Y-130213472D01*
X112611756Y-130307225D01*
X112760519Y-130409030D01*
X112915920Y-130516130D01*
X113073989Y-130625765D01*
X113230751Y-130735178D01*
X113382233Y-130841609D01*
X113524464Y-130942300D01*
X113653471Y-131034492D01*
X113765280Y-131115426D01*
X113855919Y-131182344D01*
X113921415Y-131232487D01*
X113957795Y-131263097D01*
X113963054Y-131268881D01*
X113983116Y-131320395D01*
X113993914Y-131395912D01*
X113994834Y-131425960D01*
X113994834Y-131425960D01*
G36*
X113992199Y-130613405D02*
X113990412Y-130689997D01*
X113990400Y-130690272D01*
X113984093Y-130770389D01*
X113972762Y-130815715D01*
X113954411Y-130833683D01*
X113951719Y-130834339D01*
X113928535Y-130823757D01*
X113874105Y-130791054D01*
X113791802Y-130738476D01*
X113685000Y-130668269D01*
X113557070Y-130582678D01*
X113411387Y-130483947D01*
X113251323Y-130374322D01*
X113080250Y-130256048D01*
X113020386Y-130214408D01*
X112845256Y-130092031D01*
X112679565Y-129975523D01*
X112526790Y-129867378D01*
X112390408Y-129770093D01*
X112273895Y-129686161D01*
X112180728Y-129618078D01*
X112114383Y-129568339D01*
X112078338Y-129539438D01*
X112073959Y-129535211D01*
X112045110Y-129493263D01*
X112030573Y-129440578D01*
X112026347Y-129362070D01*
X112026334Y-129355655D01*
X112031688Y-129271067D01*
X112049559Y-129224355D01*
X112082654Y-129212216D01*
X112129906Y-129229290D01*
X112161414Y-129249033D01*
X112223029Y-129290191D01*
X112310602Y-129349854D01*
X112419985Y-129425113D01*
X112547028Y-129513058D01*
X112687584Y-129610780D01*
X112837504Y-129715370D01*
X112992638Y-129823918D01*
X113148839Y-129933514D01*
X113301958Y-130041250D01*
X113447845Y-130144215D01*
X113582353Y-130239501D01*
X113701334Y-130324198D01*
X113800637Y-130395396D01*
X113876115Y-130450187D01*
X113923619Y-130485661D01*
X113937483Y-130496937D01*
X113969553Y-130530826D01*
X113986519Y-130564998D01*
X113992199Y-130613405D01*
X113992199Y-130613405D01*
X113992199Y-130613405D01*
G37*
X113992199Y-130613405D02*
X113990412Y-130689997D01*
X113990400Y-130690272D01*
X113984093Y-130770389D01*
X113972762Y-130815715D01*
X113954411Y-130833683D01*
X113951719Y-130834339D01*
X113928535Y-130823757D01*
X113874105Y-130791054D01*
X113791802Y-130738476D01*
X113685000Y-130668269D01*
X113557070Y-130582678D01*
X113411387Y-130483947D01*
X113251323Y-130374322D01*
X113080250Y-130256048D01*
X113020386Y-130214408D01*
X112845256Y-130092031D01*
X112679565Y-129975523D01*
X112526790Y-129867378D01*
X112390408Y-129770093D01*
X112273895Y-129686161D01*
X112180728Y-129618078D01*
X112114383Y-129568339D01*
X112078338Y-129539438D01*
X112073959Y-129535211D01*
X112045110Y-129493263D01*
X112030573Y-129440578D01*
X112026347Y-129362070D01*
X112026334Y-129355655D01*
X112031688Y-129271067D01*
X112049559Y-129224355D01*
X112082654Y-129212216D01*
X112129906Y-129229290D01*
X112161414Y-129249033D01*
X112223029Y-129290191D01*
X112310602Y-129349854D01*
X112419985Y-129425113D01*
X112547028Y-129513058D01*
X112687584Y-129610780D01*
X112837504Y-129715370D01*
X112992638Y-129823918D01*
X113148839Y-129933514D01*
X113301958Y-130041250D01*
X113447845Y-130144215D01*
X113582353Y-130239501D01*
X113701334Y-130324198D01*
X113800637Y-130395396D01*
X113876115Y-130450187D01*
X113923619Y-130485661D01*
X113937483Y-130496937D01*
X113969553Y-130530826D01*
X113986519Y-130564998D01*
X113992199Y-130613405D01*
X113992199Y-130613405D01*
G36*
X113992455Y-129863004D02*
X113990416Y-129931445D01*
X113984431Y-130021917D01*
X113974470Y-130084698D01*
X113961685Y-130112798D01*
X113960424Y-130113391D01*
X113933054Y-130105780D01*
X113881077Y-130078623D01*
X113814195Y-130037173D01*
X113791091Y-130021655D01*
X113583644Y-129879206D01*
X113377312Y-129736717D01*
X113175343Y-129596486D01*
X112980983Y-129460811D01*
X112797481Y-129331988D01*
X112628083Y-129212316D01*
X112476037Y-129104091D01*
X112344590Y-129009612D01*
X112236990Y-128931175D01*
X112156484Y-128871078D01*
X112106320Y-128831619D01*
X112095125Y-128821796D01*
X112060428Y-128786494D01*
X112039927Y-128753934D01*
X112029898Y-128711636D01*
X112026615Y-128647124D01*
X112026334Y-128591348D01*
X112027070Y-128508540D01*
X112030955Y-128459385D01*
X112040499Y-128435205D01*
X112058213Y-128427325D01*
X112073959Y-128426812D01*
X112098170Y-128438643D01*
X112153016Y-128472108D01*
X112234510Y-128524471D01*
X112338671Y-128593000D01*
X112461514Y-128674959D01*
X112599055Y-128767614D01*
X112747312Y-128868231D01*
X112902301Y-128974075D01*
X113060037Y-129082413D01*
X113216538Y-129190509D01*
X113367820Y-129295630D01*
X113509899Y-129395042D01*
X113638791Y-129486008D01*
X113750514Y-129565797D01*
X113841083Y-129631672D01*
X113906515Y-129680900D01*
X113937500Y-129705949D01*
X113966549Y-129733609D01*
X113983641Y-129761543D01*
X113991400Y-129800943D01*
X113992455Y-129863004D01*
X113992455Y-129863004D01*
X113992455Y-129863004D01*
G37*
X113992455Y-129863004D02*
X113990416Y-129931445D01*
X113984431Y-130021917D01*
X113974470Y-130084698D01*
X113961685Y-130112798D01*
X113960424Y-130113391D01*
X113933054Y-130105780D01*
X113881077Y-130078623D01*
X113814195Y-130037173D01*
X113791091Y-130021655D01*
X113583644Y-129879206D01*
X113377312Y-129736717D01*
X113175343Y-129596486D01*
X112980983Y-129460811D01*
X112797481Y-129331988D01*
X112628083Y-129212316D01*
X112476037Y-129104091D01*
X112344590Y-129009612D01*
X112236990Y-128931175D01*
X112156484Y-128871078D01*
X112106320Y-128831619D01*
X112095125Y-128821796D01*
X112060428Y-128786494D01*
X112039927Y-128753934D01*
X112029898Y-128711636D01*
X112026615Y-128647124D01*
X112026334Y-128591348D01*
X112027070Y-128508540D01*
X112030955Y-128459385D01*
X112040499Y-128435205D01*
X112058213Y-128427325D01*
X112073959Y-128426812D01*
X112098170Y-128438643D01*
X112153016Y-128472108D01*
X112234510Y-128524471D01*
X112338671Y-128593000D01*
X112461514Y-128674959D01*
X112599055Y-128767614D01*
X112747312Y-128868231D01*
X112902301Y-128974075D01*
X113060037Y-129082413D01*
X113216538Y-129190509D01*
X113367820Y-129295630D01*
X113509899Y-129395042D01*
X113638791Y-129486008D01*
X113750514Y-129565797D01*
X113841083Y-129631672D01*
X113906515Y-129680900D01*
X113937500Y-129705949D01*
X113966549Y-129733609D01*
X113983641Y-129761543D01*
X113991400Y-129800943D01*
X113992455Y-129863004D01*
X113992455Y-129863004D01*
G36*
X113994954Y-121987874D02*
X113989602Y-125635645D01*
X113988922Y-126096080D01*
X113988277Y-126516045D01*
X113987643Y-126897406D01*
X113986995Y-127242026D01*
X113986311Y-127551770D01*
X113985564Y-127828502D01*
X113984730Y-128074087D01*
X113983786Y-128290388D01*
X113982707Y-128479271D01*
X113981469Y-128642598D01*
X113980047Y-128782235D01*
X113978417Y-128900047D01*
X113976555Y-128997896D01*
X113974436Y-129077648D01*
X113972036Y-129141166D01*
X113969330Y-129190315D01*
X113966295Y-129226960D01*
X113962906Y-129252965D01*
X113959138Y-129270193D01*
X113954968Y-129280509D01*
X113950371Y-129285778D01*
X113945322Y-129287864D01*
X113941917Y-129288380D01*
X113914543Y-129277381D01*
X113854647Y-129242682D01*
X113763974Y-129185439D01*
X113644271Y-129106807D01*
X113619973Y-129090463D01*
X113619973Y-122795833D01*
X113479320Y-122795833D01*
X113338667Y-122795833D01*
X113338667Y-122868539D01*
X113326661Y-122965783D01*
X113292835Y-123037782D01*
X113256067Y-123069894D01*
X113196567Y-123088846D01*
X113110079Y-123101361D01*
X113011547Y-123106794D01*
X112915919Y-123104495D01*
X112838141Y-123093820D01*
X112820153Y-123088763D01*
X112774589Y-123068484D01*
X112739984Y-123038681D01*
X112714872Y-122993854D01*
X112697789Y-122928501D01*
X112687270Y-122837120D01*
X112681851Y-122714210D01*
X112680090Y-122562690D01*
X112681932Y-122399848D01*
X112689192Y-122274828D01*
X112702742Y-122183364D01*
X112723458Y-122121188D01*
X112752214Y-122084034D01*
X112781110Y-122069590D01*
X112873276Y-122048050D01*
X112954856Y-122039607D01*
X113047676Y-122042626D01*
X113090214Y-122046416D01*
X113194190Y-122062503D01*
X113262451Y-122089568D01*
X113301168Y-122132440D01*
X113316510Y-122195950D01*
X113317500Y-122224333D01*
X113317500Y-122309000D01*
X113457981Y-122309000D01*
X113598463Y-122309000D01*
X113587767Y-122175752D01*
X113570581Y-122057841D01*
X113537310Y-121967074D01*
X113483476Y-121900415D01*
X113404605Y-121854829D01*
X113296219Y-121827282D01*
X113153842Y-121814739D01*
X113052917Y-121813145D01*
X112875624Y-121818981D01*
X112734684Y-121836939D01*
X112625330Y-121869090D01*
X112542793Y-121917503D01*
X112482303Y-121984249D01*
X112439092Y-122071399D01*
X112435591Y-122081163D01*
X112414973Y-122170234D01*
X112401861Y-122290487D01*
X112395889Y-122432268D01*
X112396692Y-122585918D01*
X112403904Y-122741780D01*
X112417159Y-122890198D01*
X112436091Y-123021514D01*
X112460337Y-123126071D01*
X112476845Y-123170990D01*
X112522365Y-123227881D01*
X112598483Y-123278321D01*
X112693467Y-123315206D01*
X112728733Y-123323547D01*
X112833871Y-123336948D01*
X112963168Y-123342825D01*
X113099129Y-123341193D01*
X113224259Y-123332068D01*
X113286727Y-123323028D01*
X113365280Y-123305396D01*
X113434836Y-123284531D01*
X113467677Y-123271044D01*
X113528915Y-123215934D01*
X113573981Y-123123307D01*
X113602049Y-122995103D01*
X113607603Y-122943390D01*
X113619973Y-122795833D01*
X113619973Y-129090463D01*
X113618120Y-129089217D01*
X113618120Y-123367333D01*
X113478393Y-123367333D01*
X113338667Y-123367333D01*
X113337745Y-123880625D01*
X113336650Y-124074004D01*
X113333839Y-124229581D01*
X113328872Y-124351868D01*
X113321308Y-124445378D01*
X113310709Y-124514623D01*
X113296632Y-124564114D01*
X113278640Y-124598364D01*
X113266312Y-124612947D01*
X113226703Y-124630743D01*
X113156521Y-124643029D01*
X113067143Y-124649787D01*
X112969947Y-124650996D01*
X112876308Y-124646638D01*
X112797604Y-124636692D01*
X112745210Y-124621141D01*
X112734661Y-124613853D01*
X112713572Y-124586242D01*
X112696843Y-124547101D01*
X112684008Y-124491788D01*
X112674597Y-124415658D01*
X112668143Y-124314069D01*
X112664179Y-124182376D01*
X112662236Y-124015936D01*
X112661838Y-123891208D01*
X112661334Y-123367333D01*
X112522073Y-123367333D01*
X112382813Y-123367333D01*
X112390176Y-123986458D01*
X112392742Y-124172457D01*
X112395721Y-124320933D01*
X112399398Y-124436695D01*
X112404059Y-124524553D01*
X112409989Y-124589317D01*
X112417473Y-124635797D01*
X112426795Y-124668802D01*
X112431265Y-124679667D01*
X112484924Y-124766172D01*
X112558794Y-124824558D01*
X112656029Y-124861423D01*
X112739105Y-124876079D01*
X112850571Y-124885338D01*
X112976814Y-124889073D01*
X113104219Y-124887155D01*
X113219171Y-124879456D01*
X113300583Y-124867508D01*
X113412066Y-124833412D01*
X113491262Y-124782303D01*
X113546869Y-124707779D01*
X113562507Y-124674648D01*
X113573915Y-124643022D01*
X113583059Y-124604537D01*
X113590287Y-124553987D01*
X113595950Y-124486169D01*
X113600396Y-124395879D01*
X113603974Y-124277913D01*
X113607034Y-124127067D01*
X113609391Y-123975875D01*
X113618120Y-123367333D01*
X113618120Y-129089217D01*
X113613834Y-129086334D01*
X113613834Y-126711667D01*
X113613834Y-126595250D01*
X113613834Y-126478833D01*
X113602885Y-126478833D01*
X113602885Y-125987994D01*
X113596344Y-125872183D01*
X113576036Y-125772717D01*
X113543535Y-125700686D01*
X113534519Y-125689188D01*
X113485633Y-125648123D01*
X113417233Y-125616583D01*
X113322492Y-125592456D01*
X113194587Y-125573629D01*
X113143502Y-125568175D01*
X112993023Y-125552912D01*
X112879471Y-125539419D01*
X112797647Y-125525284D01*
X112742354Y-125508091D01*
X112708391Y-125485428D01*
X112690560Y-125454878D01*
X112683663Y-125414029D01*
X112682501Y-125360466D01*
X112682500Y-125354096D01*
X112687897Y-125264702D01*
X112708729Y-125207112D01*
X112751961Y-125171652D01*
X112824556Y-125148651D01*
X112831490Y-125147134D01*
X112979522Y-125125757D01*
X113102417Y-125129486D01*
X113197509Y-125157354D01*
X113262129Y-125208394D01*
X113293613Y-125281640D01*
X113296334Y-125315662D01*
X113300799Y-125337876D01*
X113320344Y-125350361D01*
X113364191Y-125355831D01*
X113436878Y-125357000D01*
X113577423Y-125357000D01*
X113564990Y-125236537D01*
X113542122Y-125125687D01*
X113495978Y-125044030D01*
X113420424Y-124982049D01*
X113390218Y-124965417D01*
X113351303Y-124948326D01*
X113307719Y-124936474D01*
X113251062Y-124928949D01*
X113172928Y-124924839D01*
X113064914Y-124923233D01*
X113000000Y-124923083D01*
X112840230Y-124925444D01*
X112716648Y-124933750D01*
X112623307Y-124949840D01*
X112554261Y-124975549D01*
X112503565Y-125012715D01*
X112465271Y-125063176D01*
X112449273Y-125093231D01*
X112420734Y-125182892D01*
X112405378Y-125296213D01*
X112403655Y-125416480D01*
X112416016Y-125526980D01*
X112435745Y-125595691D01*
X112466460Y-125647839D01*
X112513501Y-125689685D01*
X112581701Y-125722813D01*
X112675894Y-125748809D01*
X112800911Y-125769258D01*
X112961585Y-125785746D01*
X113031750Y-125791212D01*
X113122823Y-125800713D01*
X113202133Y-125814132D01*
X113256910Y-125829116D01*
X113268886Y-125834890D01*
X113309907Y-125883547D01*
X113330261Y-125954864D01*
X113331053Y-126035973D01*
X113313384Y-126114006D01*
X113278357Y-126176094D01*
X113237059Y-126206237D01*
X113191968Y-126214865D01*
X113116739Y-126220419D01*
X113023499Y-126222242D01*
X112961052Y-126221182D01*
X112861150Y-126217238D01*
X112794450Y-126211643D01*
X112751825Y-126202394D01*
X112724144Y-126187487D01*
X112702278Y-126164919D01*
X112701760Y-126164280D01*
X112672957Y-126107153D01*
X112661334Y-126042572D01*
X112661334Y-125970833D01*
X112521311Y-125970833D01*
X112381289Y-125970833D01*
X112396194Y-126092542D01*
X112423614Y-126226813D01*
X112468480Y-126323017D01*
X112531099Y-126381796D01*
X112536198Y-126384547D01*
X112622782Y-126415496D01*
X112740411Y-126437966D01*
X112878498Y-126451165D01*
X113026457Y-126454299D01*
X113173704Y-126446573D01*
X113247369Y-126437871D01*
X113374021Y-126411923D01*
X113465506Y-126372326D01*
X113528323Y-126312917D01*
X113568971Y-126227532D01*
X113593951Y-126110007D01*
X113594086Y-126109059D01*
X113602885Y-125987994D01*
X113602885Y-126478833D01*
X113000000Y-126478833D01*
X112386167Y-126478833D01*
X112386167Y-127230250D01*
X112386167Y-127981667D01*
X112523750Y-127981667D01*
X112661334Y-127981667D01*
X112661334Y-127674750D01*
X112661334Y-127367833D01*
X113074084Y-127367833D01*
X113486834Y-127367833D01*
X113486834Y-127251417D01*
X113486834Y-127135000D01*
X113074084Y-127135000D01*
X112661334Y-127135000D01*
X112661334Y-126923333D01*
X112661334Y-126711667D01*
X113137584Y-126711667D01*
X113613834Y-126711667D01*
X113613834Y-129086334D01*
X113497285Y-129007942D01*
X113324761Y-128889998D01*
X113128447Y-128754132D01*
X113021167Y-128679316D01*
X112847757Y-128557837D01*
X112683415Y-128442206D01*
X112531709Y-128334969D01*
X112396207Y-128238670D01*
X112280475Y-128155855D01*
X112188080Y-128089068D01*
X112122591Y-128040855D01*
X112087574Y-128013760D01*
X112084542Y-128011100D01*
X112026334Y-127956911D01*
X112026334Y-124984085D01*
X112026334Y-122011259D01*
X112081221Y-121900838D01*
X112103573Y-121858055D01*
X112143974Y-121783001D01*
X112199850Y-121680374D01*
X112268624Y-121554871D01*
X112347720Y-121411192D01*
X112434561Y-121254032D01*
X112526572Y-121088091D01*
X112551401Y-121043411D01*
X112656967Y-120854043D01*
X112744297Y-120698753D01*
X112815331Y-120574405D01*
X112872012Y-120477862D01*
X112916279Y-120405986D01*
X112950073Y-120355641D01*
X112975337Y-120323689D01*
X112994010Y-120306994D01*
X113008034Y-120302420D01*
X113009804Y-120302577D01*
X113027764Y-120314387D01*
X113055897Y-120347671D01*
X113095809Y-120404973D01*
X113149108Y-120488838D01*
X113217398Y-120601809D01*
X113302288Y-120746430D01*
X113405383Y-120925245D01*
X113428088Y-120964917D01*
X113519916Y-121125974D01*
X113609242Y-121283485D01*
X113692818Y-121431663D01*
X113767398Y-121564721D01*
X113829735Y-121676872D01*
X113876582Y-121762329D01*
X113899107Y-121804479D01*
X113994954Y-121987874D01*
X113994954Y-121987874D01*
X113994954Y-121987874D01*
G37*
X113994954Y-121987874D02*
X113989602Y-125635645D01*
X113988922Y-126096080D01*
X113988277Y-126516045D01*
X113987643Y-126897406D01*
X113986995Y-127242026D01*
X113986311Y-127551770D01*
X113985564Y-127828502D01*
X113984730Y-128074087D01*
X113983786Y-128290388D01*
X113982707Y-128479271D01*
X113981469Y-128642598D01*
X113980047Y-128782235D01*
X113978417Y-128900047D01*
X113976555Y-128997896D01*
X113974436Y-129077648D01*
X113972036Y-129141166D01*
X113969330Y-129190315D01*
X113966295Y-129226960D01*
X113962906Y-129252965D01*
X113959138Y-129270193D01*
X113954968Y-129280509D01*
X113950371Y-129285778D01*
X113945322Y-129287864D01*
X113941917Y-129288380D01*
X113914543Y-129277381D01*
X113854647Y-129242682D01*
X113763974Y-129185439D01*
X113644271Y-129106807D01*
X113619973Y-129090463D01*
X113619973Y-122795833D01*
X113479320Y-122795833D01*
X113338667Y-122795833D01*
X113338667Y-122868539D01*
X113326661Y-122965783D01*
X113292835Y-123037782D01*
X113256067Y-123069894D01*
X113196567Y-123088846D01*
X113110079Y-123101361D01*
X113011547Y-123106794D01*
X112915919Y-123104495D01*
X112838141Y-123093820D01*
X112820153Y-123088763D01*
X112774589Y-123068484D01*
X112739984Y-123038681D01*
X112714872Y-122993854D01*
X112697789Y-122928501D01*
X112687270Y-122837120D01*
X112681851Y-122714210D01*
X112680090Y-122562690D01*
X112681932Y-122399848D01*
X112689192Y-122274828D01*
X112702742Y-122183364D01*
X112723458Y-122121188D01*
X112752214Y-122084034D01*
X112781110Y-122069590D01*
X112873276Y-122048050D01*
X112954856Y-122039607D01*
X113047676Y-122042626D01*
X113090214Y-122046416D01*
X113194190Y-122062503D01*
X113262451Y-122089568D01*
X113301168Y-122132440D01*
X113316510Y-122195950D01*
X113317500Y-122224333D01*
X113317500Y-122309000D01*
X113457981Y-122309000D01*
X113598463Y-122309000D01*
X113587767Y-122175752D01*
X113570581Y-122057841D01*
X113537310Y-121967074D01*
X113483476Y-121900415D01*
X113404605Y-121854829D01*
X113296219Y-121827282D01*
X113153842Y-121814739D01*
X113052917Y-121813145D01*
X112875624Y-121818981D01*
X112734684Y-121836939D01*
X112625330Y-121869090D01*
X112542793Y-121917503D01*
X112482303Y-121984249D01*
X112439092Y-122071399D01*
X112435591Y-122081163D01*
X112414973Y-122170234D01*
X112401861Y-122290487D01*
X112395889Y-122432268D01*
X112396692Y-122585918D01*
X112403904Y-122741780D01*
X112417159Y-122890198D01*
X112436091Y-123021514D01*
X112460337Y-123126071D01*
X112476845Y-123170990D01*
X112522365Y-123227881D01*
X112598483Y-123278321D01*
X112693467Y-123315206D01*
X112728733Y-123323547D01*
X112833871Y-123336948D01*
X112963168Y-123342825D01*
X113099129Y-123341193D01*
X113224259Y-123332068D01*
X113286727Y-123323028D01*
X113365280Y-123305396D01*
X113434836Y-123284531D01*
X113467677Y-123271044D01*
X113528915Y-123215934D01*
X113573981Y-123123307D01*
X113602049Y-122995103D01*
X113607603Y-122943390D01*
X113619973Y-122795833D01*
X113619973Y-129090463D01*
X113618120Y-129089217D01*
X113618120Y-123367333D01*
X113478393Y-123367333D01*
X113338667Y-123367333D01*
X113337745Y-123880625D01*
X113336650Y-124074004D01*
X113333839Y-124229581D01*
X113328872Y-124351868D01*
X113321308Y-124445378D01*
X113310709Y-124514623D01*
X113296632Y-124564114D01*
X113278640Y-124598364D01*
X113266312Y-124612947D01*
X113226703Y-124630743D01*
X113156521Y-124643029D01*
X113067143Y-124649787D01*
X112969947Y-124650996D01*
X112876308Y-124646638D01*
X112797604Y-124636692D01*
X112745210Y-124621141D01*
X112734661Y-124613853D01*
X112713572Y-124586242D01*
X112696843Y-124547101D01*
X112684008Y-124491788D01*
X112674597Y-124415658D01*
X112668143Y-124314069D01*
X112664179Y-124182376D01*
X112662236Y-124015936D01*
X112661838Y-123891208D01*
X112661334Y-123367333D01*
X112522073Y-123367333D01*
X112382813Y-123367333D01*
X112390176Y-123986458D01*
X112392742Y-124172457D01*
X112395721Y-124320933D01*
X112399398Y-124436695D01*
X112404059Y-124524553D01*
X112409989Y-124589317D01*
X112417473Y-124635797D01*
X112426795Y-124668802D01*
X112431265Y-124679667D01*
X112484924Y-124766172D01*
X112558794Y-124824558D01*
X112656029Y-124861423D01*
X112739105Y-124876079D01*
X112850571Y-124885338D01*
X112976814Y-124889073D01*
X113104219Y-124887155D01*
X113219171Y-124879456D01*
X113300583Y-124867508D01*
X113412066Y-124833412D01*
X113491262Y-124782303D01*
X113546869Y-124707779D01*
X113562507Y-124674648D01*
X113573915Y-124643022D01*
X113583059Y-124604537D01*
X113590287Y-124553987D01*
X113595950Y-124486169D01*
X113600396Y-124395879D01*
X113603974Y-124277913D01*
X113607034Y-124127067D01*
X113609391Y-123975875D01*
X113618120Y-123367333D01*
X113618120Y-129089217D01*
X113613834Y-129086334D01*
X113613834Y-126711667D01*
X113613834Y-126595250D01*
X113613834Y-126478833D01*
X113602885Y-126478833D01*
X113602885Y-125987994D01*
X113596344Y-125872183D01*
X113576036Y-125772717D01*
X113543535Y-125700686D01*
X113534519Y-125689188D01*
X113485633Y-125648123D01*
X113417233Y-125616583D01*
X113322492Y-125592456D01*
X113194587Y-125573629D01*
X113143502Y-125568175D01*
X112993023Y-125552912D01*
X112879471Y-125539419D01*
X112797647Y-125525284D01*
X112742354Y-125508091D01*
X112708391Y-125485428D01*
X112690560Y-125454878D01*
X112683663Y-125414029D01*
X112682501Y-125360466D01*
X112682500Y-125354096D01*
X112687897Y-125264702D01*
X112708729Y-125207112D01*
X112751961Y-125171652D01*
X112824556Y-125148651D01*
X112831490Y-125147134D01*
X112979522Y-125125757D01*
X113102417Y-125129486D01*
X113197509Y-125157354D01*
X113262129Y-125208394D01*
X113293613Y-125281640D01*
X113296334Y-125315662D01*
X113300799Y-125337876D01*
X113320344Y-125350361D01*
X113364191Y-125355831D01*
X113436878Y-125357000D01*
X113577423Y-125357000D01*
X113564990Y-125236537D01*
X113542122Y-125125687D01*
X113495978Y-125044030D01*
X113420424Y-124982049D01*
X113390218Y-124965417D01*
X113351303Y-124948326D01*
X113307719Y-124936474D01*
X113251062Y-124928949D01*
X113172928Y-124924839D01*
X113064914Y-124923233D01*
X113000000Y-124923083D01*
X112840230Y-124925444D01*
X112716648Y-124933750D01*
X112623307Y-124949840D01*
X112554261Y-124975549D01*
X112503565Y-125012715D01*
X112465271Y-125063176D01*
X112449273Y-125093231D01*
X112420734Y-125182892D01*
X112405378Y-125296213D01*
X112403655Y-125416480D01*
X112416016Y-125526980D01*
X112435745Y-125595691D01*
X112466460Y-125647839D01*
X112513501Y-125689685D01*
X112581701Y-125722813D01*
X112675894Y-125748809D01*
X112800911Y-125769258D01*
X112961585Y-125785746D01*
X113031750Y-125791212D01*
X113122823Y-125800713D01*
X113202133Y-125814132D01*
X113256910Y-125829116D01*
X113268886Y-125834890D01*
X113309907Y-125883547D01*
X113330261Y-125954864D01*
X113331053Y-126035973D01*
X113313384Y-126114006D01*
X113278357Y-126176094D01*
X113237059Y-126206237D01*
X113191968Y-126214865D01*
X113116739Y-126220419D01*
X113023499Y-126222242D01*
X112961052Y-126221182D01*
X112861150Y-126217238D01*
X112794450Y-126211643D01*
X112751825Y-126202394D01*
X112724144Y-126187487D01*
X112702278Y-126164919D01*
X112701760Y-126164280D01*
X112672957Y-126107153D01*
X112661334Y-126042572D01*
X112661334Y-125970833D01*
X112521311Y-125970833D01*
X112381289Y-125970833D01*
X112396194Y-126092542D01*
X112423614Y-126226813D01*
X112468480Y-126323017D01*
X112531099Y-126381796D01*
X112536198Y-126384547D01*
X112622782Y-126415496D01*
X112740411Y-126437966D01*
X112878498Y-126451165D01*
X113026457Y-126454299D01*
X113173704Y-126446573D01*
X113247369Y-126437871D01*
X113374021Y-126411923D01*
X113465506Y-126372326D01*
X113528323Y-126312917D01*
X113568971Y-126227532D01*
X113593951Y-126110007D01*
X113594086Y-126109059D01*
X113602885Y-125987994D01*
X113602885Y-126478833D01*
X113000000Y-126478833D01*
X112386167Y-126478833D01*
X112386167Y-127230250D01*
X112386167Y-127981667D01*
X112523750Y-127981667D01*
X112661334Y-127981667D01*
X112661334Y-127674750D01*
X112661334Y-127367833D01*
X113074084Y-127367833D01*
X113486834Y-127367833D01*
X113486834Y-127251417D01*
X113486834Y-127135000D01*
X113074084Y-127135000D01*
X112661334Y-127135000D01*
X112661334Y-126923333D01*
X112661334Y-126711667D01*
X113137584Y-126711667D01*
X113613834Y-126711667D01*
X113613834Y-129086334D01*
X113497285Y-129007942D01*
X113324761Y-128889998D01*
X113128447Y-128754132D01*
X113021167Y-128679316D01*
X112847757Y-128557837D01*
X112683415Y-128442206D01*
X112531709Y-128334969D01*
X112396207Y-128238670D01*
X112280475Y-128155855D01*
X112188080Y-128089068D01*
X112122591Y-128040855D01*
X112087574Y-128013760D01*
X112084542Y-128011100D01*
X112026334Y-127956911D01*
X112026334Y-124984085D01*
X112026334Y-122011259D01*
X112081221Y-121900838D01*
X112103573Y-121858055D01*
X112143974Y-121783001D01*
X112199850Y-121680374D01*
X112268624Y-121554871D01*
X112347720Y-121411192D01*
X112434561Y-121254032D01*
X112526572Y-121088091D01*
X112551401Y-121043411D01*
X112656967Y-120854043D01*
X112744297Y-120698753D01*
X112815331Y-120574405D01*
X112872012Y-120477862D01*
X112916279Y-120405986D01*
X112950073Y-120355641D01*
X112975337Y-120323689D01*
X112994010Y-120306994D01*
X113008034Y-120302420D01*
X113009804Y-120302577D01*
X113027764Y-120314387D01*
X113055897Y-120347671D01*
X113095809Y-120404973D01*
X113149108Y-120488838D01*
X113217398Y-120601809D01*
X113302288Y-120746430D01*
X113405383Y-120925245D01*
X113428088Y-120964917D01*
X113519916Y-121125974D01*
X113609242Y-121283485D01*
X113692818Y-121431663D01*
X113767398Y-121564721D01*
X113829735Y-121676872D01*
X113876582Y-121762329D01*
X113899107Y-121804479D01*
X113994954Y-121987874D01*
X113994954Y-121987874D01*
%LPC*%
D14*
X92000000Y-159500000D03*
X92000000Y-160900000D03*
X106000000Y-159500000D03*
X106000000Y-160900000D03*
X99000000Y-159500000D03*
X99000000Y-160900000D03*
D15*
X100000000Y-163500000D03*
X98600000Y-163500000D03*
D14*
X92000000Y-158000000D03*
X92000000Y-156600000D03*
X106000000Y-156500000D03*
X106000000Y-157900000D03*
D15*
X123000000Y-162500000D03*
X121600000Y-162500000D03*
X123000000Y-154000000D03*
X121600000Y-154000000D03*
X118000000Y-163500000D03*
X116600000Y-163500000D03*
D14*
X112500000Y-153500000D03*
X112500000Y-154900000D03*
X99000000Y-156500000D03*
X99000000Y-157900000D03*
X120000000Y-157500000D03*
X120000000Y-158900000D03*
D15*
X119000000Y-151500000D03*
X120400000Y-151500000D03*
D14*
X98500000Y-131500000D03*
X98500000Y-130100000D03*
D15*
X112000000Y-133500000D03*
X113400000Y-133500000D03*
D14*
X95750000Y-143750000D03*
X95750000Y-142350000D03*
D15*
X99000000Y-134000000D03*
X100400000Y-134000000D03*
D14*
X100000000Y-145500000D03*
X100000000Y-146900000D03*
X108500000Y-136250000D03*
X108500000Y-137650000D03*
X97000000Y-143750000D03*
X97000000Y-142350000D03*
X105300000Y-145500000D03*
X105300000Y-146900000D03*
X104000000Y-145500000D03*
X104000000Y-146900000D03*
D15*
X93500000Y-140500000D03*
X92100000Y-140500000D03*
D14*
X106600000Y-130100000D03*
X106600000Y-131500000D03*
D15*
X101000000Y-151750000D03*
X102400000Y-151750000D03*
X105250000Y-151750000D03*
X103850000Y-151750000D03*
D16*
X112400000Y-150300000D03*
X114050000Y-150300000D03*
X112400000Y-151800000D03*
X114050000Y-151800000D03*
X111000000Y-123500000D03*
X111000000Y-121850000D03*
X104000000Y-123500000D03*
X104000000Y-121850000D03*
X107500000Y-123500000D03*
X107500000Y-121850000D03*
X100500000Y-123500000D03*
X100500000Y-121850000D03*
D17*
X98500000Y-166000000D03*
X98500000Y-164900000D03*
D18*
X122000000Y-166500000D03*
X123100000Y-166500000D03*
X118300000Y-126500000D03*
X117200000Y-126500000D03*
D17*
X129000000Y-165250000D03*
X129000000Y-166350000D03*
X130000000Y-165250000D03*
X130000000Y-166350000D03*
D19*
X115500000Y-161000000D03*
X113200000Y-161000000D03*
X117800000Y-161000000D03*
D20*
X115500000Y-154900000D03*
D21*
X123500000Y-156000000D03*
X122850000Y-156000000D03*
X122200000Y-156000000D03*
X121550000Y-156000000D03*
X121550000Y-160400000D03*
X122200000Y-160400000D03*
X122850000Y-160400000D03*
X123500000Y-160400000D03*
D22*
X104500000Y-156000000D03*
X103230000Y-156000000D03*
X101960000Y-156000000D03*
X100690000Y-156000000D03*
X100690000Y-161207000D03*
X101960000Y-161207000D03*
X103230000Y-161207000D03*
X104500000Y-161207000D03*
X90500000Y-156000000D03*
X89230000Y-156000000D03*
X87960000Y-156000000D03*
X86690000Y-156000000D03*
X86690000Y-161207000D03*
X87960000Y-161207000D03*
X89230000Y-161207000D03*
X90500000Y-161207000D03*
X97500000Y-156000000D03*
X96230000Y-156000000D03*
X94960000Y-156000000D03*
X93690000Y-156000000D03*
X93690000Y-161207000D03*
X94960000Y-161207000D03*
X96230000Y-161207000D03*
X97500000Y-161207000D03*
D23*
X131100000Y-136100000D03*
X129100000Y-136100000D03*
X112600000Y-135600000D03*
X112600000Y-137600000D03*
X112600000Y-139600000D03*
X112600000Y-141600000D03*
X112600000Y-143600000D03*
X112600000Y-145600000D03*
D24*
X95500000Y-129000000D03*
D25*
X94400000Y-129000000D03*
X93300000Y-129000000D03*
X92200000Y-129000000D03*
X91100000Y-129000000D03*
X90000000Y-129000000D03*
X88900000Y-129000000D03*
X87800000Y-129000000D03*
D24*
X86700000Y-129000000D03*
X95500000Y-138500000D03*
X86700000Y-138500000D03*
D25*
X94400000Y-138500000D03*
X93300000Y-138500000D03*
X92200000Y-138500000D03*
X91100000Y-138500000D03*
X90000000Y-138500000D03*
X88900000Y-138500000D03*
X87800000Y-138500000D03*
D26*
X100000000Y-144000000D03*
X100500000Y-144000000D03*
X101000000Y-144000000D03*
X101500000Y-144000000D03*
X102000000Y-144000000D03*
X102500000Y-144000000D03*
X103000000Y-144000000D03*
X103500000Y-144000000D03*
X104000000Y-144000000D03*
X104500000Y-144000000D03*
X105000000Y-144000000D03*
X105500000Y-144000000D03*
D27*
X107000000Y-142500000D03*
X107000000Y-142000000D03*
X107000000Y-141500000D03*
X107000000Y-141000000D03*
X107000000Y-140500000D03*
X107000000Y-140000000D03*
X107000000Y-139500000D03*
X107000000Y-139000000D03*
X107000000Y-138500000D03*
X107000000Y-138000000D03*
X107000000Y-137500000D03*
X107000000Y-137000000D03*
D26*
X105500000Y-135500000D03*
X105000000Y-135500000D03*
X104500000Y-135500000D03*
X104000000Y-135500000D03*
X103500000Y-135500000D03*
X103000000Y-135500000D03*
X102500000Y-135500000D03*
X102000000Y-135500000D03*
X101500000Y-135500000D03*
X101000000Y-135500000D03*
X100500000Y-135500000D03*
X100000000Y-135500000D03*
D27*
X98500000Y-137000000D03*
X98500000Y-137500000D03*
X98500000Y-138000000D03*
X98500000Y-138500000D03*
X98500000Y-139000000D03*
X98500000Y-139500000D03*
X98500000Y-140000000D03*
X98500000Y-140500000D03*
X98500000Y-141000000D03*
X98500000Y-141500000D03*
X98500000Y-142000000D03*
X98500000Y-142500000D03*
D28*
X92000000Y-122600000D03*
D29*
X87618500Y-122600000D03*
X96381500Y-122600000D03*
D30*
X100000000Y-131270000D03*
X100000000Y-130000000D03*
X101270000Y-131270000D03*
X101270000Y-130000000D03*
X102540000Y-131270000D03*
X102540000Y-130000000D03*
X103810000Y-131270000D03*
X103810000Y-130000000D03*
X105080000Y-131270000D03*
X105080000Y-130000000D03*
D28*
X120000000Y-122600000D03*
D29*
X115618500Y-122600000D03*
X124381500Y-122600000D03*
D31*
X109800000Y-161900000D03*
X109800000Y-160000000D03*
X107800000Y-160950000D03*
X93650000Y-147250000D03*
X93650000Y-149150000D03*
X95650000Y-148200000D03*
D16*
X119000000Y-153000000D03*
X119000000Y-154600000D03*
X120000000Y-153000000D03*
X120000000Y-154600000D03*
X107750000Y-158250000D03*
X107750000Y-156650000D03*
X128500000Y-155500000D03*
X126900000Y-155500000D03*
X128500000Y-154000000D03*
X126900000Y-154000000D03*
X92150000Y-150250000D03*
X92150000Y-148650000D03*
X110900000Y-151800000D03*
X109300000Y-151800000D03*
X110900000Y-150300000D03*
X109300000Y-150300000D03*
X110900000Y-153300000D03*
X109300000Y-153300000D03*
X111000000Y-125000000D03*
X111000000Y-126600000D03*
X104000000Y-125000000D03*
X104000000Y-126600000D03*
X107500000Y-125000000D03*
X107500000Y-126600000D03*
X100500000Y-124750000D03*
X100500000Y-126350000D03*
X102700000Y-147000000D03*
X102700000Y-145400000D03*
X92150000Y-147250000D03*
X92150000Y-145650000D03*
D32*
X81500000Y-146500000D03*
X88500000Y-146500000D03*
D33*
X125000000Y-156000000D03*
X115500000Y-153000000D03*
X89500000Y-154000000D03*
X88000000Y-154000000D03*
X120000000Y-164000000D03*
X125000000Y-164000000D03*
X117650000Y-151500000D03*
X95000000Y-154000000D03*
X96500000Y-154000000D03*
X101550000Y-154050000D03*
X107500000Y-155250000D03*
X125600000Y-154000000D03*
X95500000Y-140500000D03*
X87500000Y-127000000D03*
X89000000Y-127000000D03*
X110000000Y-137500000D03*
X110000000Y-139100000D03*
X110000000Y-140400000D03*
X110000000Y-141700000D03*
X130200000Y-154000000D03*
X109750000Y-155000000D03*
X93650000Y-145750000D03*
D34*
X100800000Y-149250000D03*
X105300000Y-149250000D03*
D35*
X82000000Y-128000000D03*
D36*
X82000000Y-125500000D03*
X84500000Y-128000000D03*
X82000000Y-130500000D03*
X79500000Y-128000000D03*
X80200000Y-126200000D03*
X83800000Y-126200000D03*
X80200000Y-129800000D03*
X83800000Y-129800000D03*
D35*
X130000000Y-128000000D03*
D36*
X130000000Y-125500000D03*
X132500000Y-128000000D03*
X130000000Y-130500000D03*
X127500000Y-128000000D03*
X128200000Y-126200000D03*
X131800000Y-126200000D03*
X128200000Y-129800000D03*
X131800000Y-129800000D03*
D35*
X130000000Y-160000000D03*
D36*
X130000000Y-157500000D03*
X132500000Y-160000000D03*
X130000000Y-162500000D03*
X127500000Y-160000000D03*
X128200000Y-158200000D03*
X131800000Y-158200000D03*
X128200000Y-161800000D03*
X131800000Y-161800000D03*
D35*
X82000000Y-160000000D03*
D36*
X82000000Y-157500000D03*
X84500000Y-160000000D03*
X82000000Y-162500000D03*
X79500000Y-160000000D03*
X80200000Y-158200000D03*
X83800000Y-158200000D03*
X80200000Y-161800000D03*
X83800000Y-161800000D03*
D32*
X98500000Y-168000000D03*
X96500000Y-168000000D03*
X94500000Y-168000000D03*
X92500000Y-168000000D03*
D37*
X100000000Y-170100000D03*
X91000000Y-170100000D03*
D32*
X87500000Y-168000000D03*
X85500000Y-168000000D03*
X83500000Y-168000000D03*
X81500000Y-168000000D03*
D37*
X89000000Y-170100000D03*
X80000000Y-170100000D03*
D32*
X109500000Y-168000000D03*
X107500000Y-168000000D03*
X105500000Y-168000000D03*
X103500000Y-168000000D03*
D37*
X111000000Y-170100000D03*
X102000000Y-170100000D03*
D32*
X116500000Y-168000000D03*
X114500000Y-168000000D03*
D37*
X118000000Y-170100000D03*
X113000000Y-170100000D03*
D32*
X130500000Y-168000000D03*
X128500000Y-168000000D03*
D37*
X132000000Y-170100000D03*
X127000000Y-170100000D03*
D32*
X123500000Y-168000000D03*
X121500000Y-168000000D03*
D37*
X125000000Y-170100000D03*
X120000000Y-170100000D03*
D18*
X94000000Y-126500000D03*
X95100000Y-126500000D03*
D16*
X109750000Y-158250000D03*
X109750000Y-156650000D03*
D33*
X113000000Y-164000000D03*
D18*
X116000000Y-166400000D03*
X114900000Y-166400000D03*
M02*
