G04 #@! TF.FileFunction,Copper,L1,Top,Signal*
%FSLAX46Y46*%
G04 Gerber Fmt 4.6, Leading zero omitted, Abs format (unit mm)*
G04 Created by KiCad (PCBNEW 0.201505031001+5637~23~ubuntu14.04.1-product) date Sat 23 May 2015 04:20:30 BST*
%MOMM*%
G01*
G04 APERTURE LIST*
%ADD10C,0.100000*%
%ADD11R,0.800000X0.700000*%
%ADD12R,0.700000X0.800000*%
%ADD13R,0.800000X0.800000*%
%ADD14R,0.500000X0.600000*%
%ADD15R,0.600000X0.500000*%
%ADD16R,1.300000X2.400000*%
%ADD17R,3.800000X2.400000*%
%ADD18R,0.400000X1.400000*%
%ADD19R,0.600000X2.200000*%
%ADD20C,1.700000*%
%ADD21R,0.700000X1.800000*%
%ADD22R,0.800000X1.800000*%
%ADD23R,0.300000X1.200000*%
%ADD24R,1.200000X0.300000*%
%ADD25R,2.286000X5.080000*%
%ADD26R,2.413000X5.080000*%
%ADD27C,1.016000*%
%ADD28R,1.000000X0.800000*%
%ADD29C,1.500000*%
%ADD30C,1.000000*%
%ADD31R,2.300000X2.500000*%
%ADD32C,0.800000*%
%ADD33C,0.300000*%
%ADD34C,0.280000*%
%ADD35C,0.500000*%
%ADD36C,0.200000*%
%ADD37C,1.500000*%
%ADD38C,0.400000*%
%ADD39C,0.800000*%
%ADD40C,1.000000*%
%ADD41C,0.250000*%
G04 APERTURE END LIST*
D10*
D11*
X92000000Y-159500000D03*
X92000000Y-160900000D03*
X106000000Y-159500000D03*
X106000000Y-160900000D03*
X99000000Y-159500000D03*
X99000000Y-160900000D03*
D12*
X100000000Y-163500000D03*
X98600000Y-163500000D03*
D11*
X92000000Y-158000000D03*
X92000000Y-156600000D03*
X106000000Y-156500000D03*
X106000000Y-157900000D03*
D12*
X123000000Y-162500000D03*
X121600000Y-162500000D03*
X123000000Y-154000000D03*
X121600000Y-154000000D03*
X118000000Y-163500000D03*
X116600000Y-163500000D03*
D11*
X112500000Y-153500000D03*
X112500000Y-154900000D03*
X99000000Y-156500000D03*
X99000000Y-157900000D03*
X120000000Y-157500000D03*
X120000000Y-158900000D03*
D12*
X119000000Y-151500000D03*
X120400000Y-151500000D03*
D11*
X98500000Y-131500000D03*
X98500000Y-130100000D03*
D12*
X112000000Y-133500000D03*
X113400000Y-133500000D03*
D11*
X95750000Y-143750000D03*
X95750000Y-142350000D03*
D12*
X99000000Y-134000000D03*
X100400000Y-134000000D03*
D11*
X100000000Y-145500000D03*
X100000000Y-146900000D03*
X108500000Y-136250000D03*
X108500000Y-137650000D03*
X97000000Y-143750000D03*
X97000000Y-142350000D03*
X105300000Y-145500000D03*
X105300000Y-146900000D03*
X104000000Y-145500000D03*
X104000000Y-146900000D03*
D12*
X93500000Y-140500000D03*
X92100000Y-140500000D03*
D11*
X106600000Y-130100000D03*
X106600000Y-131500000D03*
D12*
X101000000Y-151750000D03*
X102400000Y-151750000D03*
X105250000Y-151750000D03*
X103850000Y-151750000D03*
D13*
X112400000Y-150300000D03*
X114050000Y-150300000D03*
X112400000Y-151800000D03*
X114050000Y-151800000D03*
X111000000Y-123500000D03*
X111000000Y-121850000D03*
X104000000Y-123500000D03*
X104000000Y-121850000D03*
X107500000Y-123500000D03*
X107500000Y-121850000D03*
X100500000Y-123500000D03*
X100500000Y-121850000D03*
D14*
X98500000Y-166000000D03*
X98500000Y-164900000D03*
D15*
X122000000Y-166500000D03*
X123100000Y-166500000D03*
X118300000Y-126500000D03*
X117200000Y-126500000D03*
D14*
X129000000Y-165250000D03*
X129000000Y-166350000D03*
X130000000Y-165250000D03*
X130000000Y-166350000D03*
D16*
X115500000Y-161000000D03*
X113200000Y-161000000D03*
X117800000Y-161000000D03*
D17*
X115500000Y-154900000D03*
D18*
X123500000Y-156000000D03*
X122850000Y-156000000D03*
X122200000Y-156000000D03*
X121550000Y-156000000D03*
X121550000Y-160400000D03*
X122200000Y-160400000D03*
X122850000Y-160400000D03*
X123500000Y-160400000D03*
D19*
X104500000Y-156000000D03*
X103230000Y-156000000D03*
X101960000Y-156000000D03*
X100690000Y-156000000D03*
X100690000Y-161207000D03*
X101960000Y-161207000D03*
X103230000Y-161207000D03*
X104500000Y-161207000D03*
X90500000Y-156000000D03*
X89230000Y-156000000D03*
X87960000Y-156000000D03*
X86690000Y-156000000D03*
X86690000Y-161207000D03*
X87960000Y-161207000D03*
X89230000Y-161207000D03*
X90500000Y-161207000D03*
X97500000Y-156000000D03*
X96230000Y-156000000D03*
X94960000Y-156000000D03*
X93690000Y-156000000D03*
X93690000Y-161207000D03*
X94960000Y-161207000D03*
X96230000Y-161207000D03*
X97500000Y-161207000D03*
D20*
X131100000Y-136100000D03*
X129100000Y-136100000D03*
X112600000Y-135600000D03*
X112600000Y-137600000D03*
X112600000Y-139600000D03*
X112600000Y-141600000D03*
X112600000Y-143600000D03*
X112600000Y-145600000D03*
D21*
X95500000Y-129000000D03*
D22*
X94400000Y-129000000D03*
X93300000Y-129000000D03*
X92200000Y-129000000D03*
X91100000Y-129000000D03*
X90000000Y-129000000D03*
X88900000Y-129000000D03*
X87800000Y-129000000D03*
D21*
X86700000Y-129000000D03*
X95500000Y-138500000D03*
X86700000Y-138500000D03*
D22*
X94400000Y-138500000D03*
X93300000Y-138500000D03*
X92200000Y-138500000D03*
X91100000Y-138500000D03*
X90000000Y-138500000D03*
X88900000Y-138500000D03*
X87800000Y-138500000D03*
D23*
X100000000Y-144000000D03*
X100500000Y-144000000D03*
X101000000Y-144000000D03*
X101500000Y-144000000D03*
X102000000Y-144000000D03*
X102500000Y-144000000D03*
X103000000Y-144000000D03*
X103500000Y-144000000D03*
X104000000Y-144000000D03*
X104500000Y-144000000D03*
X105000000Y-144000000D03*
X105500000Y-144000000D03*
D24*
X107000000Y-142500000D03*
X107000000Y-142000000D03*
X107000000Y-141500000D03*
X107000000Y-141000000D03*
X107000000Y-140500000D03*
X107000000Y-140000000D03*
X107000000Y-139500000D03*
X107000000Y-139000000D03*
X107000000Y-138500000D03*
X107000000Y-138000000D03*
X107000000Y-137500000D03*
X107000000Y-137000000D03*
D23*
X105500000Y-135500000D03*
X105000000Y-135500000D03*
X104500000Y-135500000D03*
X104000000Y-135500000D03*
X103500000Y-135500000D03*
X103000000Y-135500000D03*
X102500000Y-135500000D03*
X102000000Y-135500000D03*
X101500000Y-135500000D03*
X101000000Y-135500000D03*
X100500000Y-135500000D03*
X100000000Y-135500000D03*
D24*
X98500000Y-137000000D03*
X98500000Y-137500000D03*
X98500000Y-138000000D03*
X98500000Y-138500000D03*
X98500000Y-139000000D03*
X98500000Y-139500000D03*
X98500000Y-140000000D03*
X98500000Y-140500000D03*
X98500000Y-141000000D03*
X98500000Y-141500000D03*
X98500000Y-142000000D03*
X98500000Y-142500000D03*
D25*
X92000000Y-122600000D03*
D26*
X87618500Y-122600000D03*
X96381500Y-122600000D03*
D27*
X100000000Y-131270000D03*
X100000000Y-130000000D03*
X101270000Y-131270000D03*
X101270000Y-130000000D03*
X102540000Y-131270000D03*
X102540000Y-130000000D03*
X103810000Y-131270000D03*
X103810000Y-130000000D03*
X105080000Y-131270000D03*
X105080000Y-130000000D03*
D25*
X120000000Y-122600000D03*
D26*
X115618500Y-122600000D03*
X124381500Y-122600000D03*
D28*
X109800000Y-161900000D03*
X109800000Y-160000000D03*
X107800000Y-160950000D03*
X93650000Y-147250000D03*
X93650000Y-149150000D03*
X95650000Y-148200000D03*
D13*
X119000000Y-153000000D03*
X119000000Y-154600000D03*
X120000000Y-153000000D03*
X120000000Y-154600000D03*
X107750000Y-158250000D03*
X107750000Y-156650000D03*
X128500000Y-155500000D03*
X126900000Y-155500000D03*
X128500000Y-154000000D03*
X126900000Y-154000000D03*
X92150000Y-150250000D03*
X92150000Y-148650000D03*
X110900000Y-151800000D03*
X109300000Y-151800000D03*
X110900000Y-150300000D03*
X109300000Y-150300000D03*
X110900000Y-153300000D03*
X109300000Y-153300000D03*
X111000000Y-125000000D03*
X111000000Y-126600000D03*
X104000000Y-125000000D03*
X104000000Y-126600000D03*
X107500000Y-125000000D03*
X107500000Y-126600000D03*
X100500000Y-124750000D03*
X100500000Y-126350000D03*
X102700000Y-147000000D03*
X102700000Y-145400000D03*
X92150000Y-147250000D03*
X92150000Y-145650000D03*
D29*
X81500000Y-146500000D03*
X88500000Y-146500000D03*
D30*
X125000000Y-156000000D03*
X115500000Y-153000000D03*
X89500000Y-154000000D03*
X88000000Y-154000000D03*
X120000000Y-164000000D03*
X125000000Y-164000000D03*
X117650000Y-151500000D03*
X95000000Y-154000000D03*
X96500000Y-154000000D03*
X101550000Y-154050000D03*
X107500000Y-155250000D03*
X125600000Y-154000000D03*
X95500000Y-140500000D03*
X87500000Y-127000000D03*
X89000000Y-127000000D03*
X110000000Y-137500000D03*
X110000000Y-139100000D03*
X110000000Y-140400000D03*
X110000000Y-141700000D03*
X130200000Y-154000000D03*
X109750000Y-155000000D03*
X93650000Y-145750000D03*
D31*
X100800000Y-149250000D03*
X105300000Y-149250000D03*
D29*
X98500000Y-168000000D03*
X96500000Y-168000000D03*
X94500000Y-168000000D03*
X92500000Y-168000000D03*
X87500000Y-168000000D03*
X85500000Y-168000000D03*
X83500000Y-168000000D03*
X81500000Y-168000000D03*
X109500000Y-168000000D03*
X107500000Y-168000000D03*
X105500000Y-168000000D03*
X103500000Y-168000000D03*
X116500000Y-168000000D03*
X114500000Y-168000000D03*
X130500000Y-168000000D03*
X128500000Y-168000000D03*
X123500000Y-168000000D03*
X121500000Y-168000000D03*
D15*
X94000000Y-126500000D03*
X95100000Y-126500000D03*
D13*
X109750000Y-158250000D03*
X109750000Y-156650000D03*
D30*
X113000000Y-164000000D03*
D15*
X116000000Y-166400000D03*
X114900000Y-166400000D03*
D32*
X98500000Y-123000000D03*
X98600000Y-125000000D03*
X126400000Y-124200000D03*
X122400000Y-124200000D03*
X103100000Y-151200000D03*
X103000000Y-148400000D03*
X96000000Y-126500000D03*
X89800000Y-124600000D03*
X90000000Y-126000000D03*
X94250000Y-124250000D03*
X94250000Y-123000000D03*
X94250000Y-121750000D03*
X89800000Y-121600000D03*
X89750000Y-123000000D03*
X98700000Y-129300000D03*
X111000000Y-132000000D03*
X127500000Y-137500000D03*
X126000000Y-137500000D03*
X124500000Y-137500000D03*
X123000000Y-137500000D03*
X121500000Y-137500000D03*
X119500000Y-137500000D03*
X118500000Y-136500000D03*
X117500000Y-135500000D03*
X116500000Y-134500000D03*
X115500000Y-133500000D03*
X114500000Y-132500000D03*
X114000000Y-131000000D03*
X114000000Y-129500000D03*
X114000000Y-128000000D03*
X114000000Y-126500000D03*
X114000000Y-122600000D03*
X85600000Y-122600000D03*
X86700000Y-139900000D03*
X80000000Y-132000000D03*
X82000000Y-132000000D03*
X84000000Y-132000000D03*
X84000000Y-134000000D03*
X82000000Y-134000000D03*
X80000000Y-134000000D03*
X80000000Y-136000000D03*
X82000000Y-136000000D03*
X84000000Y-136000000D03*
X90000000Y-133000000D03*
X92000000Y-133000000D03*
X94000000Y-133000000D03*
X96000000Y-133000000D03*
X96000000Y-135000000D03*
X94000000Y-135000000D03*
X92000000Y-135000000D03*
X90000000Y-135000000D03*
X88000000Y-134000000D03*
X88000000Y-132000000D03*
X90000000Y-131000000D03*
X92000000Y-131000000D03*
X94000000Y-131000000D03*
X96000000Y-131000000D03*
X91000000Y-127000000D03*
X92000000Y-127000000D03*
X98000000Y-127000000D03*
X97000000Y-127000000D03*
X84000000Y-124000000D03*
X82000000Y-124000000D03*
X80000000Y-124000000D03*
X80000000Y-122000000D03*
X82000000Y-122000000D03*
X84000000Y-122000000D03*
X92900000Y-158000000D03*
X116625000Y-162675000D03*
X112000000Y-161000000D03*
X112500000Y-155700000D03*
X114700000Y-151000000D03*
X104300000Y-142500000D03*
X104600000Y-147300000D03*
X99600000Y-147200000D03*
X106700000Y-157900000D03*
X100000000Y-164300000D03*
X99200000Y-164900000D03*
X129500000Y-165450000D03*
X125000000Y-163100000D03*
X121600000Y-161900000D03*
X120000000Y-155400000D03*
X121000000Y-151500000D03*
X121600000Y-153400000D03*
X108900000Y-137300000D03*
X100000000Y-133600000D03*
X122400000Y-122600000D03*
X126400000Y-122600000D03*
X124400000Y-125800000D03*
X105700000Y-122300000D03*
X92100000Y-141200000D03*
X95000000Y-142350000D03*
X99000000Y-158650000D03*
X93650000Y-150100000D03*
X109200000Y-147700000D03*
X106600000Y-151200000D03*
X109600000Y-149600000D03*
X103200000Y-133200000D03*
X110400000Y-133200000D03*
X88150000Y-142700000D03*
X85350000Y-142650000D03*
X106250000Y-146000000D03*
X106350000Y-155300000D03*
X106350000Y-153250000D03*
X115200000Y-147800000D03*
X115400000Y-150200000D03*
X109800000Y-130100000D03*
X115100000Y-144800000D03*
X117600000Y-144800000D03*
X98400000Y-145550000D03*
X100400000Y-142000000D03*
X99150000Y-143550000D03*
X97600000Y-144800000D03*
X109700000Y-139300000D03*
X105600000Y-139000000D03*
X115200000Y-145900000D03*
X117600000Y-145900000D03*
X108400000Y-144400000D03*
X106700000Y-143800000D03*
X101500000Y-134000000D03*
X94400000Y-141500000D03*
X92600000Y-143300000D03*
D33*
X92000000Y-159500000D02*
X87100000Y-159500000D01*
X86690000Y-159910000D02*
X86690000Y-161207000D01*
X87100000Y-159500000D02*
X86690000Y-159910000D01*
D34*
X86690000Y-162810000D02*
X81500000Y-168000000D01*
X86690000Y-161207000D02*
X86690000Y-162810000D01*
D33*
X92000000Y-160900000D02*
X90807000Y-160900000D01*
X90807000Y-160900000D02*
X90500000Y-161207000D01*
D34*
X90500000Y-165000000D02*
X87500000Y-168000000D01*
X90500000Y-161207000D02*
X90500000Y-165000000D01*
D33*
X106000000Y-159500000D02*
X101100000Y-159500000D01*
X100690000Y-159910000D02*
X100690000Y-161207000D01*
X101100000Y-159500000D02*
X100690000Y-159910000D01*
D34*
X100690000Y-162440000D02*
X101000000Y-162750000D01*
X101000000Y-162750000D02*
X101000000Y-165500000D01*
X101000000Y-165500000D02*
X103500000Y-168000000D01*
X100690000Y-161207000D02*
X100690000Y-162440000D01*
D33*
X109400000Y-167900000D02*
X109500000Y-168000000D01*
X106000000Y-160900000D02*
X104807000Y-160900000D01*
X104807000Y-160900000D02*
X104500000Y-161207000D01*
D34*
X104500000Y-163000000D02*
X109500000Y-168000000D01*
X104500000Y-161207000D02*
X104500000Y-163000000D01*
D35*
X98500000Y-123000000D02*
X98500000Y-124900000D01*
D36*
X96381500Y-122600000D02*
X98500000Y-123000000D01*
D35*
X98500000Y-124900000D02*
X98600000Y-125000000D01*
X124381500Y-122600000D02*
X124381500Y-122981500D01*
X124381500Y-122981500D02*
X125600000Y-124200000D01*
X125600000Y-124200000D02*
X126400000Y-124200000D01*
X124381500Y-122600000D02*
X124381500Y-123018500D01*
X124381500Y-123018500D02*
X123200000Y-124200000D01*
X123200000Y-124200000D02*
X122400000Y-124200000D01*
D34*
X103100000Y-151200000D02*
X103100000Y-148500000D01*
D35*
X103100000Y-151750000D02*
X103100000Y-151200000D01*
D34*
X103100000Y-148500000D02*
X103000000Y-148400000D01*
D35*
X124381500Y-122600000D02*
X124381500Y-123231500D01*
X124381500Y-122600000D02*
X124381500Y-123218500D01*
X96381500Y-122600000D02*
X96381500Y-126118500D01*
X96381500Y-126118500D02*
X96000000Y-126500000D01*
X89800000Y-124600000D02*
X89750000Y-125750000D01*
X88500000Y-122600000D02*
X89800000Y-124600000D01*
X89750000Y-125750000D02*
X90000000Y-126000000D01*
X96381500Y-122600000D02*
X95500000Y-122600000D01*
X95500000Y-122600000D02*
X94250000Y-124250000D01*
X96381500Y-122600000D02*
X94250000Y-123000000D01*
X95500000Y-122600000D02*
X94250000Y-121750000D01*
X87618500Y-122600000D02*
X88500000Y-122600000D01*
X88500000Y-122600000D02*
X89800000Y-121600000D01*
X87618500Y-122600000D02*
X89750000Y-123000000D01*
X98500000Y-130100000D02*
X98500000Y-129500000D01*
X98500000Y-129500000D02*
X98700000Y-129300000D01*
X113400000Y-133500000D02*
X113400000Y-132900000D01*
X112500000Y-132000000D02*
X111000000Y-132000000D01*
X113400000Y-132900000D02*
X112500000Y-132000000D01*
X127500000Y-136100000D02*
X127500000Y-137500000D01*
X126000000Y-136100000D02*
X126000000Y-137500000D01*
X124500000Y-136100000D02*
X124500000Y-137500000D01*
X123000000Y-136100000D02*
X123000000Y-137500000D01*
X121500000Y-136100000D02*
X121500000Y-137500000D01*
X120700000Y-136100000D02*
X120700000Y-136300000D01*
X120700000Y-136300000D02*
X119500000Y-137500000D01*
X119800000Y-135200000D02*
X118500000Y-136500000D01*
X118800000Y-134200000D02*
X117500000Y-135500000D01*
X117800000Y-133200000D02*
X116500000Y-134500000D01*
X116800000Y-132200000D02*
X115500000Y-133500000D01*
X115618500Y-131450000D02*
X115550000Y-131450000D01*
X115550000Y-131450000D02*
X114500000Y-132500000D01*
X115618500Y-131000000D02*
X114000000Y-131000000D01*
X115618500Y-129500000D02*
X114000000Y-129500000D01*
X115618500Y-128000000D02*
X114000000Y-128000000D01*
X115618500Y-126500000D02*
X114000000Y-126500000D01*
X115618500Y-122600000D02*
X114000000Y-122600000D01*
D36*
X87618500Y-122600000D02*
X85600000Y-122600000D01*
D35*
X86700000Y-138500000D02*
X86700000Y-139900000D01*
D36*
X84000000Y-132000000D02*
X82000000Y-132000000D01*
X82000000Y-134000000D02*
X84000000Y-134000000D01*
X80000000Y-136000000D02*
X80000000Y-134000000D01*
X84000000Y-136000000D02*
X82000000Y-136000000D01*
X95500000Y-129000000D02*
X95500000Y-130500000D01*
X94000000Y-133000000D02*
X92000000Y-133000000D01*
X96000000Y-135000000D02*
X96000000Y-133000000D01*
X92000000Y-135000000D02*
X94000000Y-135000000D01*
X89000000Y-135000000D02*
X90000000Y-135000000D01*
X88000000Y-134000000D02*
X89000000Y-135000000D01*
X89000000Y-132000000D02*
X88000000Y-132000000D01*
X90000000Y-131000000D02*
X89000000Y-132000000D01*
X94000000Y-131000000D02*
X92000000Y-131000000D01*
X95500000Y-130500000D02*
X96000000Y-131000000D01*
X91000000Y-127000000D02*
X92000000Y-127000000D01*
X97000000Y-127000000D02*
X98000000Y-127000000D01*
X82000000Y-124000000D02*
X84000000Y-124000000D01*
X80000000Y-122000000D02*
X80000000Y-124000000D01*
X84000000Y-122000000D02*
X82000000Y-122000000D01*
D35*
X92000000Y-158000000D02*
X92900000Y-158000000D01*
X116600000Y-163500000D02*
X116600000Y-162700000D01*
X116600000Y-162700000D02*
X116625000Y-162675000D01*
X113200000Y-161000000D02*
X112000000Y-161000000D01*
X112500000Y-154900000D02*
X112500000Y-155700000D01*
X114050000Y-151000000D02*
X114700000Y-151000000D01*
D34*
X103500000Y-144000000D02*
X103500000Y-143200000D01*
X104200000Y-142500000D02*
X104300000Y-142500000D01*
X103500000Y-143200000D02*
X104200000Y-142500000D01*
D35*
X104600000Y-146900000D02*
X104600000Y-147300000D01*
X100000000Y-146900000D02*
X99900000Y-146900000D01*
X99900000Y-146900000D02*
X99600000Y-147200000D01*
X106000000Y-157900000D02*
X106700000Y-157900000D01*
X100000000Y-163500000D02*
X100000000Y-164300000D01*
X98500000Y-164900000D02*
X99200000Y-164900000D01*
X129500000Y-165250000D02*
X129500000Y-165450000D01*
X125000000Y-164000000D02*
X125000000Y-163100000D01*
X121600000Y-162500000D02*
X121600000Y-161900000D01*
D33*
X120000000Y-154600000D02*
X120000000Y-155400000D01*
X120400000Y-151500000D02*
X121000000Y-151500000D01*
X121600000Y-154000000D02*
X121600000Y-153400000D01*
X121600000Y-154000000D02*
X121600000Y-155950000D01*
X121600000Y-155950000D02*
X121550000Y-156000000D01*
D35*
X108500000Y-137650000D02*
X108550000Y-137650000D01*
X108550000Y-137650000D02*
X108900000Y-137300000D01*
X100400000Y-134000000D02*
X100000000Y-133600000D01*
X124381500Y-122600000D02*
X122400000Y-122600000D01*
X124381500Y-122600000D02*
X126400000Y-122600000D01*
X124381500Y-122600000D02*
X124381500Y-125781500D01*
X124381500Y-125781500D02*
X124400000Y-125800000D01*
X105700000Y-121850000D02*
X105700000Y-122300000D01*
X107500000Y-121850000D02*
X111000000Y-121850000D01*
X104000000Y-121850000D02*
X105700000Y-121850000D01*
X105700000Y-121850000D02*
X107500000Y-121850000D01*
X100500000Y-121850000D02*
X104000000Y-121850000D01*
X92100000Y-140500000D02*
X92100000Y-141200000D01*
X114050000Y-150300000D02*
X114050000Y-151000000D01*
X114050000Y-151000000D02*
X114050000Y-151800000D01*
X123100000Y-166500000D02*
X123100000Y-167600000D01*
X123100000Y-167600000D02*
X123500000Y-168000000D01*
X116000000Y-166400000D02*
X116000000Y-167500000D01*
X116000000Y-167500000D02*
X116500000Y-168000000D01*
X117200000Y-126500000D02*
X115618500Y-126500000D01*
X115618500Y-126500000D02*
X116000000Y-126500000D01*
X116000000Y-126500000D02*
X115618500Y-126500000D01*
D37*
X129100000Y-136100000D02*
X127500000Y-136100000D01*
X127500000Y-136100000D02*
X126000000Y-136100000D01*
X126000000Y-136100000D02*
X124500000Y-136100000D01*
X124500000Y-136100000D02*
X123000000Y-136100000D01*
X123000000Y-136100000D02*
X121500000Y-136100000D01*
X121500000Y-136100000D02*
X120700000Y-136100000D01*
X115618500Y-131018500D02*
X115618500Y-131450000D01*
X115618500Y-131450000D02*
X115618500Y-131000000D01*
X115618500Y-131000000D02*
X115618500Y-129500000D01*
X115618500Y-129500000D02*
X115618500Y-128000000D01*
X115618500Y-128000000D02*
X115618500Y-126500000D01*
X115618500Y-126500000D02*
X115618500Y-122600000D01*
X120700000Y-136100000D02*
X119800000Y-135200000D01*
X119800000Y-135200000D02*
X118800000Y-134200000D01*
X118800000Y-134200000D02*
X117800000Y-133200000D01*
X117800000Y-133200000D02*
X116800000Y-132200000D01*
X116800000Y-132200000D02*
X115618500Y-131018500D01*
D34*
X107000000Y-137500000D02*
X108350000Y-137500000D01*
X108350000Y-137500000D02*
X108500000Y-137650000D01*
X100500000Y-135500000D02*
X100500000Y-134100000D01*
X100500000Y-134100000D02*
X100400000Y-134000000D01*
X105080000Y-131270000D02*
X106370000Y-131270000D01*
X106370000Y-131270000D02*
X106600000Y-131500000D01*
D35*
X95100000Y-126500000D02*
X95200000Y-126500000D01*
X95200000Y-126500000D02*
X95500000Y-126200000D01*
D34*
X95500000Y-123481500D02*
X96381500Y-122600000D01*
D35*
X95500000Y-127000000D02*
X95500000Y-126200000D01*
X95500000Y-126200000D02*
X95500000Y-123481500D01*
D34*
X95500000Y-127000000D02*
X95500000Y-126900000D01*
D35*
X95500000Y-129000000D02*
X95500000Y-127000000D01*
X95500000Y-126900000D02*
X95100000Y-126500000D01*
D34*
X98500000Y-142000000D02*
X97350000Y-142000000D01*
X97350000Y-142000000D02*
X97000000Y-142350000D01*
X104000000Y-146900000D02*
X104600000Y-146900000D01*
X104600000Y-146900000D02*
X105300000Y-146900000D01*
D33*
X129000000Y-165250000D02*
X129500000Y-165250000D01*
X129500000Y-165250000D02*
X130000000Y-165250000D01*
X97000000Y-142350000D02*
X95750000Y-142350000D01*
X102400000Y-151750000D02*
X103100000Y-151750000D01*
X103100000Y-151750000D02*
X103850000Y-151750000D01*
X106000000Y-157900000D02*
X101150000Y-157900000D01*
X100690000Y-157440000D02*
X100690000Y-156000000D01*
X101150000Y-157900000D02*
X100690000Y-157440000D01*
X99000000Y-157900000D02*
X94400000Y-157900000D01*
X93690000Y-157190000D02*
X93690000Y-156000000D01*
X94400000Y-157900000D02*
X93690000Y-157190000D01*
X92000000Y-158000000D02*
X87250000Y-158000000D01*
X86690000Y-157440000D02*
X86690000Y-156000000D01*
X87250000Y-158000000D02*
X86690000Y-157440000D01*
X93690000Y-159810000D02*
X93690000Y-161207000D01*
X99000000Y-159500000D02*
X94000000Y-159500000D01*
X94000000Y-159500000D02*
X93690000Y-159810000D01*
D38*
X95750000Y-142350000D02*
X95000000Y-142350000D01*
D34*
X99300000Y-140500000D02*
X99600000Y-140800000D01*
X99600000Y-140800000D02*
X99600000Y-141000000D01*
X99400000Y-142000000D02*
X98500000Y-142000000D01*
X99600000Y-141800000D02*
X99600000Y-141000000D01*
X99400000Y-142000000D02*
X99600000Y-141800000D01*
X98500000Y-140500000D02*
X99300000Y-140500000D01*
X99000000Y-158650000D02*
X99000000Y-159500000D01*
X99000000Y-157900000D02*
X99000000Y-158650000D01*
D35*
X93650000Y-149150000D02*
X93650000Y-150100000D01*
D34*
X93690000Y-166810000D02*
X92500000Y-168000000D01*
X93690000Y-161207000D02*
X93690000Y-166810000D01*
D39*
X98750000Y-152800000D02*
X105900000Y-152800000D01*
X105900000Y-152800000D02*
X106350000Y-153250000D01*
X109500000Y-148000000D02*
X109500000Y-149250000D01*
D35*
X109200000Y-147700000D02*
X109500000Y-148000000D01*
D39*
X106600000Y-151200000D02*
X106350000Y-151450000D01*
X106350000Y-153250000D02*
X106350000Y-151450000D01*
X109500000Y-149500000D02*
X109500000Y-149250000D01*
X109600000Y-149600000D02*
X109500000Y-149500000D01*
D35*
X104500000Y-156000000D02*
X105500000Y-156000000D01*
X105500000Y-156000000D02*
X106000000Y-156500000D01*
D38*
X120000000Y-157500000D02*
X122400000Y-157500000D01*
X122850000Y-157050000D02*
X122850000Y-156000000D01*
X122400000Y-157500000D02*
X122850000Y-157050000D01*
X122200000Y-156000000D02*
X122200000Y-155700000D01*
X122200000Y-155700000D02*
X122850000Y-155050000D01*
X123500000Y-156000000D02*
X123500000Y-155700000D01*
X123500000Y-155700000D02*
X122850000Y-155050000D01*
X123500000Y-156000000D02*
X125000000Y-156000000D01*
D35*
X122850000Y-156000000D02*
X122850000Y-155050000D01*
D40*
X122850000Y-155050000D02*
X122850000Y-154150000D01*
D35*
X122850000Y-154150000D02*
X123000000Y-154000000D01*
X93300000Y-138500000D02*
X93300000Y-140300000D01*
X93300000Y-140300000D02*
X93500000Y-140500000D01*
X93300000Y-138500000D02*
X94400000Y-138500000D01*
X92200000Y-138500000D02*
X93300000Y-138500000D01*
D34*
X107000000Y-137000000D02*
X107000000Y-136500000D01*
D35*
X107250000Y-136250000D02*
X108500000Y-136250000D01*
X107000000Y-136500000D02*
X107250000Y-136250000D01*
D34*
X99000000Y-135200000D02*
X99000000Y-134000000D01*
X100000000Y-135500000D02*
X99300000Y-135500000D01*
X99300000Y-135500000D02*
X99000000Y-135200000D01*
X98500000Y-131500000D02*
X99770000Y-131500000D01*
X99770000Y-131500000D02*
X100000000Y-131270000D01*
X98500000Y-142900000D02*
X98500000Y-142500000D01*
X97000000Y-143750000D02*
X97650000Y-143750000D01*
X97650000Y-143750000D02*
X98500000Y-142900000D01*
D35*
X96400000Y-143750000D02*
X97000000Y-143750000D01*
X95750000Y-143750000D02*
X96400000Y-143750000D01*
D34*
X104000000Y-145500000D02*
X105300000Y-145500000D01*
X104000000Y-144000000D02*
X104000000Y-145500000D01*
X100000000Y-144000000D02*
X100000000Y-145500000D01*
D35*
X112000000Y-133500000D02*
X112000000Y-135000000D01*
X112000000Y-135000000D02*
X112600000Y-135600000D01*
X97500000Y-156000000D02*
X98500000Y-156000000D01*
X98500000Y-156000000D02*
X99000000Y-156500000D01*
X91500000Y-156100000D02*
X92000000Y-156600000D01*
X90500000Y-156000000D02*
X91400000Y-156000000D01*
X91400000Y-156000000D02*
X91500000Y-156100000D01*
X97500000Y-161207000D02*
X98693000Y-161207000D01*
X98693000Y-161207000D02*
X99000000Y-160900000D01*
X112850000Y-135600000D02*
X112600000Y-135600000D01*
X111950000Y-136250000D02*
X112600000Y-135600000D01*
X108500000Y-136250000D02*
X111950000Y-136250000D01*
X98725000Y-132475000D02*
X98975000Y-132725000D01*
X98500000Y-132250000D02*
X98725000Y-132475000D01*
X98500000Y-131500000D02*
X98500000Y-132250000D01*
X98975000Y-132725000D02*
X99000000Y-132750000D01*
X99000000Y-132750000D02*
X99000000Y-134000000D01*
X102475000Y-132475000D02*
X103200000Y-133200000D01*
X110400000Y-133200000D02*
X110700000Y-133500000D01*
X110700000Y-133500000D02*
X112000000Y-133500000D01*
X98725000Y-132475000D02*
X102475000Y-132475000D01*
X98750000Y-156250000D02*
X99000000Y-156500000D01*
D39*
X98750000Y-153050000D02*
X98750000Y-156250000D01*
X98750000Y-152400000D02*
X98750000Y-152800000D01*
X98750000Y-152800000D02*
X98750000Y-153050000D01*
D38*
X100000000Y-145500000D02*
X99600000Y-145500000D01*
D35*
X93500000Y-142950000D02*
X94300000Y-143750000D01*
X94300000Y-143750000D02*
X95750000Y-143750000D01*
X93500000Y-142150000D02*
X93500000Y-142950000D01*
X93500000Y-140500000D02*
X93500000Y-142150000D01*
X99600000Y-145500000D02*
X100000000Y-145500000D01*
X97850000Y-143750000D02*
X99600000Y-145500000D01*
X97000000Y-143750000D02*
X97850000Y-143750000D01*
X88700000Y-142150000D02*
X88150000Y-142700000D01*
X85350000Y-142650000D02*
X81500000Y-146500000D01*
X93500000Y-142150000D02*
X88700000Y-142150000D01*
D38*
X98750000Y-147950000D02*
X98750000Y-148000000D01*
X99600000Y-145500000D02*
X98750000Y-146350000D01*
X98750000Y-146350000D02*
X98750000Y-147950000D01*
D35*
X98750000Y-149500000D02*
X98750000Y-152400000D01*
D38*
X98750000Y-147950000D02*
X98750000Y-149500000D01*
D35*
X112600000Y-135600000D02*
X113200000Y-135600000D01*
D40*
X121750000Y-149000000D02*
X123000000Y-150250000D01*
X123000000Y-150250000D02*
X123000000Y-154000000D01*
X116400000Y-149000000D02*
X121750000Y-149000000D01*
X113900000Y-135600000D02*
X116400000Y-138100000D01*
X116400000Y-138100000D02*
X116400000Y-149000000D01*
X112600000Y-135600000D02*
X113900000Y-135600000D01*
X116400000Y-149000000D02*
X109900000Y-149000000D01*
D35*
X105750000Y-145500000D02*
X105300000Y-145500000D01*
X106250000Y-146000000D02*
X105750000Y-145500000D01*
X109500000Y-149250000D02*
X109300000Y-149450000D01*
X109300000Y-150300000D02*
X109300000Y-149450000D01*
X106450000Y-156050000D02*
X106450000Y-155400000D01*
X106450000Y-155400000D02*
X106350000Y-155300000D01*
X106000000Y-156500000D02*
X106450000Y-156050000D01*
X99350000Y-156500000D02*
X99000000Y-156500000D01*
X99900000Y-160100000D02*
X99900000Y-157050000D01*
X99900000Y-157050000D02*
X99350000Y-156500000D01*
X99100000Y-160900000D02*
X99900000Y-160100000D01*
X99000000Y-160900000D02*
X99100000Y-160900000D01*
X96400000Y-145100000D02*
X97000000Y-145700000D01*
X97000000Y-145700000D02*
X97000000Y-148550000D01*
X97000000Y-148550000D02*
X91500000Y-154050000D01*
X91500000Y-154050000D02*
X91500000Y-156100000D01*
X96400000Y-143750000D02*
X96400000Y-145100000D01*
D33*
X118000000Y-168500000D02*
X117750000Y-168500000D01*
X118000000Y-172000000D02*
X118750000Y-172000000D01*
X117000000Y-171000000D02*
X118000000Y-172000000D01*
X117000000Y-170750000D02*
X117000000Y-171000000D01*
X117000000Y-169250000D02*
X117000000Y-170750000D01*
X117750000Y-168500000D02*
X117000000Y-169250000D01*
D37*
X120000000Y-172000000D02*
X118750000Y-172000000D01*
X118750000Y-172000000D02*
X107500000Y-172000000D01*
X98500000Y-169000000D02*
X98500000Y-168000000D01*
X99000000Y-172000000D02*
X107500000Y-172000000D01*
X98000000Y-171000000D02*
X99000000Y-172000000D01*
X98000000Y-169500000D02*
X98000000Y-171000000D01*
X98500000Y-169000000D02*
X98000000Y-169500000D01*
D40*
X118500000Y-168500000D02*
X119000000Y-169000000D01*
X115500000Y-164500000D02*
X115500000Y-161000000D01*
X118000000Y-166000000D02*
X118000000Y-168500000D01*
X117000000Y-165000000D02*
X118000000Y-166000000D01*
X116000000Y-165000000D02*
X117000000Y-165000000D01*
X115500000Y-164500000D02*
X116000000Y-165000000D01*
X118000000Y-168500000D02*
X118500000Y-168500000D01*
D35*
X98600000Y-163500000D02*
X97600000Y-163500000D01*
X97800000Y-166000000D02*
X98500000Y-166000000D01*
X97400000Y-165600000D02*
X97800000Y-166000000D01*
X97400000Y-163700000D02*
X97400000Y-165600000D01*
X97600000Y-163500000D02*
X97400000Y-163700000D01*
D34*
X107750000Y-158250000D02*
X108500000Y-157500000D01*
X111600000Y-157900000D02*
X111600000Y-158800000D01*
X111200000Y-157500000D02*
X111600000Y-157900000D01*
X109900000Y-157500000D02*
X111200000Y-157500000D01*
X108500000Y-157500000D02*
X109900000Y-157500000D01*
D40*
X109800000Y-160000000D02*
X110400000Y-160000000D01*
X111600000Y-158800000D02*
X115500000Y-158800000D01*
X110400000Y-160000000D02*
X111600000Y-158800000D01*
D35*
X112500000Y-153500000D02*
X111100000Y-153500000D01*
X111100000Y-153500000D02*
X110900000Y-153300000D01*
X112500000Y-153500000D02*
X115000000Y-153500000D01*
X115000000Y-153500000D02*
X115500000Y-153000000D01*
X98500000Y-166000000D02*
X98500000Y-168000000D01*
D37*
X115500000Y-153000000D02*
X115500000Y-154900000D01*
X115500000Y-161000000D02*
X115500000Y-158800000D01*
X115500000Y-158800000D02*
X115500000Y-154900000D01*
D33*
X123500000Y-160400000D02*
X123500000Y-161250000D01*
X123500000Y-161250000D02*
X123000000Y-161750000D01*
X122200000Y-160400000D02*
X122200000Y-160950000D01*
X122200000Y-160950000D02*
X123000000Y-161750000D01*
D37*
X118000000Y-163500000D02*
X118000000Y-161200000D01*
X118000000Y-161200000D02*
X117800000Y-161000000D01*
X120000000Y-164000000D02*
X118500000Y-164000000D01*
X118500000Y-164000000D02*
X118000000Y-163500000D01*
D35*
X122000000Y-166500000D02*
X122000000Y-167500000D01*
X122000000Y-167500000D02*
X121500000Y-168000000D01*
D34*
X119000000Y-154600000D02*
X119000000Y-158200000D01*
X117800000Y-159400000D02*
X117800000Y-161000000D01*
X119000000Y-158200000D02*
X117800000Y-159400000D01*
D37*
X120000000Y-164000000D02*
X121200000Y-164000000D01*
D35*
X121200000Y-164000000D02*
X121500000Y-164300000D01*
D37*
X123000000Y-160550000D02*
X122850000Y-160400000D01*
X123000000Y-162500000D02*
X123000000Y-161750000D01*
X123000000Y-161750000D02*
X123000000Y-160550000D01*
X121500000Y-164300000D02*
X122600000Y-164300000D01*
X121500000Y-168000000D02*
X121500000Y-164300000D01*
X123000000Y-163900000D02*
X123000000Y-162500000D01*
X122600000Y-164300000D02*
X123000000Y-163900000D01*
D38*
X121550000Y-160400000D02*
X120500000Y-160400000D01*
X120000000Y-159900000D02*
X120000000Y-158900000D01*
X120500000Y-160400000D02*
X120000000Y-159900000D01*
D34*
X119000000Y-153000000D02*
X120000000Y-153000000D01*
X119000000Y-151500000D02*
X119000000Y-153000000D01*
D38*
X117650000Y-151500000D02*
X119000000Y-151500000D01*
D34*
X109339996Y-146739996D02*
X110700000Y-148100000D01*
X110700000Y-148100000D02*
X114900000Y-148100000D01*
X114900000Y-148100000D02*
X115200000Y-147800000D01*
X115400000Y-150200000D02*
X116700000Y-151500000D01*
X116700000Y-151500000D02*
X117650000Y-151500000D01*
X108000000Y-142800000D02*
X109339996Y-144139996D01*
X107000000Y-141500000D02*
X107800000Y-141500000D01*
X107800000Y-141500000D02*
X108000000Y-141700000D01*
X108000000Y-141700000D02*
X108000000Y-142800000D01*
X109339996Y-144139996D02*
X109339996Y-146739996D01*
X103900000Y-136700000D02*
X105700000Y-136700000D01*
X103000000Y-142900000D02*
X103500000Y-142400000D01*
X103500000Y-142400000D02*
X103500000Y-137100000D01*
X103500000Y-137100000D02*
X103900000Y-136700000D01*
X103000000Y-144000000D02*
X103000000Y-142900000D01*
X109500000Y-130400000D02*
X109800000Y-130100000D01*
X109500000Y-132900000D02*
X109500000Y-130400000D01*
X105700000Y-136700000D02*
X109500000Y-132900000D01*
X105080000Y-130000000D02*
X106500000Y-130000000D01*
X106500000Y-130000000D02*
X106600000Y-130100000D01*
X102000000Y-144000000D02*
X102000000Y-144800000D01*
X101000000Y-145800000D02*
X101000000Y-149250000D01*
X102000000Y-144800000D02*
X101000000Y-145800000D01*
D33*
X101000000Y-151750000D02*
X101000000Y-149250000D01*
D34*
X105100000Y-149250000D02*
X105100000Y-148900000D01*
X105100000Y-148900000D02*
X103800000Y-147600000D01*
X103300000Y-147600000D02*
X102700000Y-147000000D01*
X103800000Y-147600000D02*
X103300000Y-147600000D01*
D33*
X105250000Y-151750000D02*
X105250000Y-149400000D01*
X105250000Y-149400000D02*
X105100000Y-149250000D01*
D35*
X112400000Y-150300000D02*
X110900000Y-150300000D01*
X110900000Y-151800000D02*
X112400000Y-151800000D01*
D33*
X111000000Y-123500000D02*
X111000000Y-125000000D01*
X104000000Y-123500000D02*
X104000000Y-125000000D01*
X107500000Y-123500000D02*
X107500000Y-125000000D01*
X100500000Y-123500000D02*
X100500000Y-124750000D01*
D35*
X118300000Y-126500000D02*
X120000000Y-126500000D01*
X119800000Y-126600000D02*
X120000000Y-126600000D01*
X119900000Y-126600000D02*
X119800000Y-126600000D01*
X120000000Y-126500000D02*
X119900000Y-126600000D01*
D37*
X131100000Y-136100000D02*
X131100000Y-133900000D01*
X120000000Y-130800000D02*
X120000000Y-126600000D01*
X120000000Y-126600000D02*
X120000000Y-122600000D01*
X121900000Y-132700000D02*
X120000000Y-130800000D01*
X129900000Y-132700000D02*
X121900000Y-132700000D01*
X131100000Y-133900000D02*
X129900000Y-132700000D01*
D34*
X128500000Y-155500000D02*
X128400000Y-155500000D01*
X128500000Y-155500000D02*
X128500000Y-154000000D01*
X128310587Y-167810587D02*
X128500000Y-168000000D01*
X125800000Y-158100000D02*
X128400000Y-155500000D01*
X125800000Y-161678826D02*
X127060587Y-162939413D01*
X125800000Y-158100000D02*
X125800000Y-161678826D01*
X127060587Y-162939413D02*
X128310587Y-164189413D01*
X128310587Y-167810587D02*
X128310587Y-164189413D01*
X129000000Y-167500000D02*
X128500000Y-168000000D01*
X129000000Y-166350000D02*
X129000000Y-167500000D01*
X129200000Y-152900000D02*
X127978826Y-152900000D01*
X127978826Y-152900000D02*
X119878826Y-144800000D01*
X119878826Y-144800000D02*
X117600000Y-144800000D01*
X110300000Y-143700000D02*
X110300000Y-146341172D01*
X110300000Y-146341172D02*
X111058828Y-147100000D01*
X111058828Y-147100000D02*
X114000000Y-147100000D01*
X114000000Y-147100000D02*
X114200000Y-146900000D01*
X114200000Y-146900000D02*
X114200000Y-145700000D01*
X114200000Y-145700000D02*
X115100000Y-144800000D01*
X108200000Y-140500000D02*
X107000000Y-140500000D01*
X108200000Y-140500000D02*
X109000000Y-141300000D01*
X109000000Y-142400000D02*
X109000000Y-141300000D01*
X109000000Y-142400000D02*
X110300000Y-143700000D01*
X130200000Y-153900000D02*
X129200000Y-152900000D01*
X130200000Y-154000000D02*
X130200000Y-153900000D01*
X130700000Y-167800000D02*
X130500000Y-168000000D01*
X129400000Y-154000000D02*
X130200000Y-154000000D01*
X130200000Y-164000000D02*
X130700000Y-164500000D01*
X128800000Y-164000000D02*
X126300000Y-161500000D01*
X126300000Y-161500000D02*
X126300000Y-158400000D01*
X126300000Y-158400000D02*
X128400000Y-156300000D01*
X129100000Y-156300000D02*
X128400000Y-156300000D01*
X129400000Y-156000000D02*
X129100000Y-156300000D01*
X129400000Y-154000000D02*
X129400000Y-156000000D01*
X128800000Y-164000000D02*
X130200000Y-164000000D01*
X130700000Y-167800000D02*
X130700000Y-164500000D01*
X130000000Y-167500000D02*
X130500000Y-168000000D01*
X130000000Y-166350000D02*
X130000000Y-167500000D01*
X107000000Y-142500000D02*
X107000000Y-142650000D01*
X107650000Y-143300000D02*
X107000000Y-142650000D01*
X107650000Y-143300000D02*
X107650000Y-144800000D01*
X107650000Y-144800000D02*
X107900000Y-145050000D01*
X107900000Y-145050000D02*
X107900000Y-152950000D01*
X107900000Y-153650000D02*
X107900000Y-152950000D01*
X107050000Y-154500000D02*
X107900000Y-153650000D01*
X106950000Y-154500000D02*
X107050000Y-154500000D01*
X103700000Y-154500000D02*
X106950000Y-154500000D01*
X103230000Y-154970000D02*
X103700000Y-154500000D01*
X103230000Y-156000000D02*
X103230000Y-154970000D01*
X107500000Y-155050000D02*
X106950000Y-154500000D01*
X107500000Y-155250000D02*
X107500000Y-155050000D01*
X105500000Y-144000000D02*
X105500000Y-144200000D01*
X105750000Y-144000000D02*
X106400000Y-144650000D01*
X106400000Y-144650000D02*
X106800000Y-144650000D01*
X106800000Y-144650000D02*
X107419998Y-145269998D01*
X107419998Y-145269998D02*
X107419998Y-152480002D01*
X105750000Y-144000000D02*
X105500000Y-144000000D01*
X107419998Y-153330002D02*
X107419998Y-152480002D01*
X106730002Y-154019998D02*
X107419998Y-153330002D01*
X102880002Y-154019998D02*
X106730002Y-154019998D01*
X102300000Y-154600000D02*
X102880002Y-154019998D01*
X101960000Y-154940000D02*
X102300000Y-154600000D01*
X101960000Y-156000000D02*
X101960000Y-154940000D01*
X101750000Y-154050000D02*
X102300000Y-154600000D01*
X101550000Y-154050000D02*
X101750000Y-154050000D01*
X101960000Y-164460000D02*
X105500000Y-168000000D01*
X101960000Y-161207000D02*
X101960000Y-164460000D01*
X103230000Y-163730000D02*
X107500000Y-168000000D01*
X103230000Y-161207000D02*
X103230000Y-163730000D01*
D33*
X89500000Y-154000000D02*
X89500000Y-152750000D01*
X88900000Y-140600000D02*
X88900000Y-138500000D01*
X87250000Y-142250000D02*
X88900000Y-140600000D01*
X87250000Y-150500000D02*
X87250000Y-142250000D01*
X89500000Y-152750000D02*
X87250000Y-150500000D01*
X89230000Y-156000000D02*
X89230000Y-154270000D01*
X89230000Y-154270000D02*
X89500000Y-154000000D01*
X88000000Y-154000000D02*
X88000000Y-152750000D01*
X87800000Y-140200000D02*
X87800000Y-138500000D01*
X86250000Y-141750000D02*
X87800000Y-140200000D01*
X86250000Y-151000000D02*
X86250000Y-141750000D01*
X88000000Y-152750000D02*
X86250000Y-151000000D01*
X87960000Y-156000000D02*
X87960000Y-154040000D01*
X87960000Y-154040000D02*
X88000000Y-154000000D01*
D34*
X87960000Y-163540000D02*
X83500000Y-168000000D01*
X87960000Y-161207000D02*
X87960000Y-163540000D01*
X89230000Y-164270000D02*
X85500000Y-168000000D01*
X89230000Y-161207000D02*
X89230000Y-164270000D01*
D33*
X96230000Y-156000000D02*
X96230000Y-154270000D01*
X96230000Y-154270000D02*
X96500000Y-154000000D01*
D34*
X98209998Y-149090002D02*
X98200000Y-149100000D01*
X98400000Y-145550000D02*
X98209998Y-145740002D01*
X98209998Y-145740002D02*
X98209998Y-149100000D01*
X98209998Y-149100000D02*
X98209998Y-149090002D01*
X96480002Y-150800000D02*
X95550000Y-151730002D01*
X95550000Y-151730002D02*
X95550000Y-153050000D01*
X95550000Y-153050000D02*
X96500000Y-154000000D01*
X98209998Y-149090002D02*
X96500000Y-150800000D01*
X96500000Y-150800000D02*
X96480002Y-150800000D01*
X102500000Y-141500000D02*
X102000000Y-142000000D01*
X102000000Y-142000000D02*
X100400000Y-142000000D01*
X102500000Y-135500000D02*
X102500000Y-141500000D01*
D33*
X94960000Y-156000000D02*
X94960000Y-154040000D01*
X94960000Y-154040000D02*
X95000000Y-154000000D01*
D34*
X97700000Y-146250000D02*
X97600000Y-146150000D01*
X97600000Y-146150000D02*
X97600000Y-144800000D01*
X99800000Y-142900000D02*
X99150000Y-143550000D01*
X100700000Y-142900000D02*
X99800000Y-142900000D01*
X103000000Y-142100000D02*
X102200000Y-142900000D01*
X102200000Y-142900000D02*
X100700000Y-142900000D01*
X103000000Y-142100000D02*
X103000000Y-135500000D01*
X95000000Y-151600000D02*
X97700000Y-148900000D01*
X95000000Y-154000000D02*
X95000000Y-152700000D01*
X95000000Y-152700000D02*
X95000000Y-151600000D01*
X97700000Y-148900000D02*
X97700000Y-146250000D01*
X94960000Y-167540000D02*
X94500000Y-168000000D01*
X94960000Y-161207000D02*
X94960000Y-167540000D01*
X96230000Y-167730000D02*
X96500000Y-168000000D01*
X96230000Y-161207000D02*
X96230000Y-167730000D01*
X110000000Y-137500000D02*
X112500000Y-137500000D01*
X112500000Y-137500000D02*
X112600000Y-137600000D01*
X107000000Y-138500000D02*
X109400000Y-138500000D01*
X109400000Y-138500000D02*
X110000000Y-137900000D01*
X110000000Y-137900000D02*
X110000000Y-137500000D01*
D33*
X110100000Y-137600000D02*
X110000000Y-137500000D01*
D34*
X107000000Y-142000000D02*
X105900000Y-142000000D01*
X109700000Y-139300000D02*
X109900000Y-139100000D01*
X105600000Y-141700000D02*
X105600000Y-139000000D01*
X105900000Y-142000000D02*
X105600000Y-141700000D01*
X109900000Y-139100000D02*
X110000000Y-139100000D01*
X110000000Y-139100000D02*
X112100000Y-139100000D01*
X112100000Y-139100000D02*
X112600000Y-139600000D01*
X110000000Y-140400000D02*
X111400000Y-140400000D01*
X111400000Y-140400000D02*
X112600000Y-141600000D01*
X107000000Y-139000000D02*
X108200000Y-139000000D01*
X108200000Y-139000000D02*
X109600000Y-140400000D01*
X109600000Y-140400000D02*
X110000000Y-140400000D01*
X110000000Y-141700000D02*
X110700000Y-141700000D01*
X110700000Y-141700000D02*
X112600000Y-143600000D01*
X107000000Y-139500000D02*
X107900000Y-139500000D01*
X107900000Y-139500000D02*
X110000000Y-141600000D01*
X110000000Y-141600000D02*
X110000000Y-141700000D01*
X89000000Y-127000000D02*
X89000000Y-126800000D01*
X89000000Y-126800000D02*
X88200000Y-126000000D01*
X97100000Y-140000000D02*
X98500000Y-140000000D01*
X96600000Y-139500000D02*
X97100000Y-140000000D01*
X96600000Y-137400000D02*
X96600000Y-139500000D01*
X96200000Y-137000000D02*
X96600000Y-137400000D01*
X86300000Y-137000000D02*
X96200000Y-137000000D01*
X85700000Y-136400000D02*
X86300000Y-137000000D01*
X85700000Y-127400000D02*
X85700000Y-136400000D01*
X87100000Y-126000000D02*
X85700000Y-127400000D01*
X88200000Y-126000000D02*
X87100000Y-126000000D01*
X88900000Y-129000000D02*
X88900000Y-127100000D01*
X88900000Y-127100000D02*
X89000000Y-127000000D01*
X98500000Y-139500000D02*
X97300000Y-139500000D01*
X87800000Y-130100000D02*
X87800000Y-129000000D01*
X86200000Y-131700000D02*
X87800000Y-130100000D01*
X86200000Y-136119998D02*
X86200000Y-131700000D01*
X86580002Y-136500000D02*
X86200000Y-136119998D01*
X96400000Y-136500000D02*
X86580002Y-136500000D01*
X97080002Y-137180002D02*
X96400000Y-136500000D01*
X97080002Y-139280002D02*
X97080002Y-137180002D01*
X97300000Y-139500000D02*
X97080002Y-139280002D01*
X87800000Y-129000000D02*
X87800000Y-127300000D01*
X87800000Y-127300000D02*
X87500000Y-127000000D01*
X98500000Y-141000000D02*
X96000000Y-141000000D01*
X96000000Y-141000000D02*
X95500000Y-140500000D01*
X95500000Y-138500000D02*
X95500000Y-140500000D01*
X102500000Y-144000000D02*
X102500000Y-145200000D01*
X102500000Y-145200000D02*
X102700000Y-145400000D01*
X125600000Y-154000000D02*
X126900000Y-154000000D01*
X126900000Y-154000000D02*
X126900000Y-155500000D01*
X127050000Y-153850000D02*
X126900000Y-154000000D01*
X127050000Y-152650000D02*
X127050000Y-153850000D01*
X117600000Y-145900000D02*
X120300000Y-145900000D01*
X108480002Y-142601176D02*
X109819998Y-143941172D01*
X109819998Y-143941172D02*
X109819998Y-146539996D01*
X109819998Y-146539996D02*
X110880002Y-147600000D01*
X110880002Y-147600000D02*
X114200000Y-147600000D01*
X114200000Y-147600000D02*
X115200000Y-146600000D01*
X115200000Y-146600000D02*
X115200000Y-145900000D01*
X107000000Y-141000000D02*
X107978826Y-141000000D01*
X107978826Y-141000000D02*
X108480002Y-141501176D01*
X108480002Y-141501176D02*
X108480002Y-142580002D01*
X108480002Y-142580002D02*
X108480002Y-142601176D01*
X120300000Y-145900000D02*
X125600000Y-151200000D01*
X125600000Y-151200000D02*
X127050000Y-152650000D01*
X105500000Y-135500000D02*
X105500000Y-134078826D01*
X109000000Y-128600000D02*
X111000000Y-126600000D01*
X109000000Y-132600000D02*
X109000000Y-128600000D01*
X107819998Y-133780002D02*
X109000000Y-132600000D01*
X105798824Y-133780002D02*
X107819998Y-133780002D01*
X105500000Y-134078826D02*
X105798824Y-133780002D01*
X107500000Y-126600000D02*
X107500000Y-128100000D01*
X105000000Y-133900000D02*
X105000000Y-135500000D01*
X105600000Y-133300000D02*
X105000000Y-133900000D01*
X107578826Y-133300000D02*
X105600000Y-133300000D01*
X108460004Y-132418822D02*
X107578826Y-133300000D01*
X108460004Y-129060004D02*
X108460004Y-132418822D01*
X107500000Y-128100000D02*
X108460004Y-129060004D01*
X104000000Y-126600000D02*
X104000000Y-127800000D01*
X104500000Y-133678826D02*
X104500000Y-135500000D01*
X105378826Y-132800000D02*
X104500000Y-133678826D01*
X107400000Y-132800000D02*
X105378826Y-132800000D01*
X107980002Y-132219998D02*
X107400000Y-132800000D01*
X107980002Y-129280002D02*
X107980002Y-132219998D01*
X107100000Y-128400000D02*
X107980002Y-129280002D01*
X104600000Y-128400000D02*
X107100000Y-128400000D01*
X104000000Y-127800000D02*
X104600000Y-128400000D01*
X104000000Y-135500000D02*
X104000000Y-133500000D01*
X100500000Y-127800000D02*
X100500000Y-126350000D01*
X101600000Y-128900000D02*
X100500000Y-127800000D01*
X106900000Y-128900000D02*
X101600000Y-128900000D01*
X107500000Y-129500000D02*
X106900000Y-128900000D01*
X107500000Y-132000000D02*
X107500000Y-129500000D01*
X107200000Y-132300000D02*
X107500000Y-132000000D01*
X105200000Y-132300000D02*
X107200000Y-132300000D01*
X104000000Y-133500000D02*
X105200000Y-132300000D01*
D35*
X108400000Y-156650000D02*
X107750000Y-156650000D01*
X109750000Y-156650000D02*
X108400000Y-156650000D01*
X109750000Y-155000000D02*
X109750000Y-156650000D01*
D34*
X105000000Y-143000000D02*
X105100000Y-142900000D01*
X105000000Y-143000000D02*
X105000000Y-144000000D01*
X105800000Y-142900000D02*
X106700000Y-143800000D01*
X105100000Y-142900000D02*
X105800000Y-142900000D01*
X108400000Y-156650000D02*
X108400000Y-144400000D01*
X101000000Y-134750000D02*
X101500000Y-134250000D01*
X101500000Y-134250000D02*
X101500000Y-134000000D01*
X101000000Y-135500000D02*
X101000000Y-134750000D01*
X101270000Y-130000000D02*
X101270000Y-129370000D01*
X98500000Y-135100000D02*
X98100000Y-134700000D01*
X98100000Y-134700000D02*
X98100000Y-133500000D01*
X98100000Y-133500000D02*
X96819998Y-132219998D01*
X96819998Y-132219998D02*
X96819998Y-129180002D01*
X98500000Y-135100000D02*
X98500000Y-137000000D01*
X97500000Y-128500000D02*
X96819998Y-129180002D01*
X100400000Y-128500000D02*
X97500000Y-128500000D01*
X101270000Y-129370000D02*
X100400000Y-128500000D01*
D35*
X93550000Y-145650000D02*
X93650000Y-145750000D01*
X92600000Y-145650000D02*
X93550000Y-145650000D01*
X92150000Y-145650000D02*
X92600000Y-145650000D01*
D34*
X92600000Y-145500000D02*
X92600000Y-145650000D01*
X92600000Y-145650000D02*
X92600000Y-145500000D01*
X94400000Y-141500000D02*
X98500000Y-141500000D01*
X92600000Y-145650000D02*
X92600000Y-143300000D01*
D35*
X92150000Y-147250000D02*
X93650000Y-147250000D01*
D38*
X92600000Y-148200000D02*
X92150000Y-148650000D01*
X95650000Y-148200000D02*
X92600000Y-148200000D01*
D35*
X88500000Y-148350000D02*
X90400000Y-150250000D01*
X90400000Y-150250000D02*
X92150000Y-150250000D01*
X88500000Y-146500000D02*
X88500000Y-148350000D01*
X109300000Y-151800000D02*
X109300000Y-153300000D01*
D39*
X92000000Y-122600000D02*
X92000000Y-124100000D01*
X92000000Y-124100000D02*
X94000000Y-126500000D01*
D35*
X94400000Y-129000000D02*
X94400000Y-127100000D01*
X94400000Y-127100000D02*
X94000000Y-126700000D01*
X94000000Y-126700000D02*
X94000000Y-126500000D01*
D33*
X109800000Y-161900000D02*
X109800000Y-161700000D01*
X109800000Y-161700000D02*
X108900000Y-160800000D01*
X108900000Y-160800000D02*
X108900000Y-159100000D01*
X108900000Y-159100000D02*
X109750000Y-158250000D01*
D35*
X113000000Y-164000000D02*
X110950000Y-166050000D01*
X111000000Y-166000000D02*
X111000000Y-166100000D01*
X110950000Y-166050000D02*
X111000000Y-166000000D01*
D37*
X114500000Y-168000000D02*
X112900000Y-168000000D01*
X107800000Y-162900000D02*
X107800000Y-160950000D01*
X112900000Y-168000000D02*
X111000000Y-166100000D01*
X111000000Y-166100000D02*
X107800000Y-162900000D01*
D35*
X114900000Y-166400000D02*
X114900000Y-167600000D01*
X114900000Y-167600000D02*
X114500000Y-168000000D01*
D41*
G36*
X84935000Y-136375000D02*
X79125000Y-136375000D01*
X79125000Y-129967891D01*
X79369878Y-130213198D01*
X79415366Y-130323286D01*
X79675345Y-130583720D01*
X79785353Y-130629399D01*
X80057360Y-130901881D01*
X81315736Y-131424404D01*
X81815199Y-131424839D01*
X82183187Y-131425160D01*
X82678286Y-131425593D01*
X83937572Y-130905267D01*
X84213198Y-130630121D01*
X84323286Y-130584634D01*
X84583720Y-130324655D01*
X84629399Y-130214646D01*
X84901881Y-129942640D01*
X84935000Y-129862880D01*
X84935000Y-136375000D01*
X84935000Y-136375000D01*
G37*
X84935000Y-136375000D02*
X79125000Y-136375000D01*
X79125000Y-129967891D01*
X79369878Y-130213198D01*
X79415366Y-130323286D01*
X79675345Y-130583720D01*
X79785353Y-130629399D01*
X80057360Y-130901881D01*
X81315736Y-131424404D01*
X81815199Y-131424839D01*
X82183187Y-131425160D01*
X82678286Y-131425593D01*
X83937572Y-130905267D01*
X84213198Y-130630121D01*
X84323286Y-130584634D01*
X84583720Y-130324655D01*
X84629399Y-130214646D01*
X84901881Y-129942640D01*
X84935000Y-129862880D01*
X84935000Y-136375000D01*
G36*
X98645000Y-130225000D02*
X98625000Y-130225000D01*
X98625000Y-130245000D01*
X98375000Y-130245000D01*
X98375000Y-130225000D01*
X98355000Y-130225000D01*
X98355000Y-129975000D01*
X98375000Y-129975000D01*
X98375000Y-129955000D01*
X98625000Y-129955000D01*
X98625000Y-129975000D01*
X98645000Y-129975000D01*
X98645000Y-130225000D01*
X98645000Y-130225000D01*
G37*
X98645000Y-130225000D02*
X98625000Y-130225000D01*
X98625000Y-130245000D01*
X98375000Y-130245000D01*
X98375000Y-130225000D01*
X98355000Y-130225000D01*
X98355000Y-129975000D01*
X98375000Y-129975000D01*
X98375000Y-129955000D01*
X98625000Y-129955000D01*
X98625000Y-129975000D01*
X98645000Y-129975000D01*
X98645000Y-130225000D01*
G36*
X98875000Y-127735000D02*
X98213000Y-127735000D01*
X98213000Y-125264320D01*
X98213000Y-125015680D01*
X98213000Y-122881250D01*
X98056750Y-122725000D01*
X96506500Y-122725000D01*
X96506500Y-125608750D01*
X96662750Y-125765000D01*
X97712320Y-125765000D01*
X97942034Y-125669850D01*
X98117849Y-125494034D01*
X98213000Y-125264320D01*
X98213000Y-127735000D01*
X97500000Y-127735000D01*
X97207247Y-127793232D01*
X96959063Y-127959063D01*
X96475000Y-128443126D01*
X96475000Y-127975680D01*
X96379850Y-127745966D01*
X96204034Y-127570151D01*
X95974320Y-127475000D01*
X95781250Y-127475000D01*
X95625000Y-127631250D01*
X95625000Y-128875000D01*
X95645000Y-128875000D01*
X95645000Y-129125000D01*
X95625000Y-129125000D01*
X95625000Y-130368750D01*
X95781250Y-130525000D01*
X95974320Y-130525000D01*
X96054998Y-130491581D01*
X96054998Y-132219998D01*
X96113230Y-132512751D01*
X96279061Y-132760935D01*
X97335000Y-133816874D01*
X97335000Y-134700000D01*
X97393232Y-134992753D01*
X97559063Y-135240937D01*
X97735000Y-135416873D01*
X97735000Y-136244769D01*
X97661690Y-136258993D01*
X97485090Y-136375000D01*
X97356874Y-136375000D01*
X96940937Y-135959063D01*
X96692753Y-135793232D01*
X96400000Y-135735000D01*
X86965000Y-135735000D01*
X86965000Y-132016873D01*
X88340933Y-130640939D01*
X88340937Y-130640937D01*
X88340937Y-130640936D01*
X88420830Y-130521367D01*
X88500000Y-130537244D01*
X89300000Y-130537244D01*
X89452479Y-130507659D01*
X89600000Y-130537244D01*
X90400000Y-130537244D01*
X90552479Y-130507659D01*
X90700000Y-130537244D01*
X91500000Y-130537244D01*
X91652479Y-130507659D01*
X91800000Y-130537244D01*
X92600000Y-130537244D01*
X92739770Y-130510125D01*
X92775680Y-130525000D01*
X93018750Y-130525000D01*
X93175000Y-130368750D01*
X93175000Y-130164922D01*
X93187969Y-130145709D01*
X93237244Y-129900000D01*
X93237244Y-128100000D01*
X93191007Y-127861690D01*
X93175000Y-127837322D01*
X93175000Y-127631250D01*
X93018750Y-127475000D01*
X92775680Y-127475000D01*
X92738287Y-127490488D01*
X92600000Y-127462756D01*
X91800000Y-127462756D01*
X91647520Y-127492340D01*
X91500000Y-127462756D01*
X90700000Y-127462756D01*
X90547520Y-127492340D01*
X90400000Y-127462756D01*
X90025978Y-127462756D01*
X90124804Y-127224758D01*
X90125195Y-126777205D01*
X89954285Y-126363571D01*
X89638093Y-126046828D01*
X89224758Y-125875196D01*
X89157010Y-125875136D01*
X89018301Y-125736427D01*
X89179034Y-125669850D01*
X89354849Y-125494034D01*
X89450000Y-125264320D01*
X89450000Y-125015680D01*
X89450000Y-122881250D01*
X89293750Y-122725000D01*
X87743500Y-122725000D01*
X87743500Y-122745000D01*
X87493500Y-122745000D01*
X87493500Y-122725000D01*
X85943250Y-122725000D01*
X85787000Y-122881250D01*
X85787000Y-125015680D01*
X85787000Y-125264320D01*
X85882151Y-125494034D01*
X86057966Y-125669850D01*
X86263246Y-125754879D01*
X85212393Y-126805732D01*
X84905267Y-126062428D01*
X84630121Y-125786801D01*
X84584634Y-125676714D01*
X84324655Y-125416280D01*
X84214646Y-125370600D01*
X83942640Y-125098119D01*
X82684264Y-124575596D01*
X81321714Y-124574407D01*
X80062428Y-125094733D01*
X79786801Y-125369878D01*
X79676714Y-125415366D01*
X79416280Y-125675345D01*
X79370600Y-125785353D01*
X79125000Y-126030525D01*
X79125000Y-120725000D01*
X85787000Y-120725000D01*
X85787000Y-122318750D01*
X85943250Y-122475000D01*
X87493500Y-122475000D01*
X87493500Y-122455000D01*
X87743500Y-122455000D01*
X87743500Y-122475000D01*
X89293750Y-122475000D01*
X89450000Y-122318750D01*
X89450000Y-120725000D01*
X90219756Y-120725000D01*
X90219756Y-125140000D01*
X90265993Y-125378310D01*
X90403581Y-125587763D01*
X90611291Y-125727969D01*
X90857000Y-125777244D01*
X92063452Y-125777244D01*
X93212573Y-127156189D01*
X93226851Y-127167728D01*
X93246581Y-127197763D01*
X93344730Y-127264014D01*
X93381282Y-127318718D01*
X93525000Y-127462436D01*
X93525000Y-127531250D01*
X93425000Y-127631250D01*
X93425000Y-127835077D01*
X93412031Y-127854291D01*
X93362756Y-128100000D01*
X93362756Y-129900000D01*
X93408993Y-130138310D01*
X93425000Y-130162677D01*
X93425000Y-130368750D01*
X93581250Y-130525000D01*
X93824320Y-130525000D01*
X93861712Y-130509511D01*
X94000000Y-130537244D01*
X94800000Y-130537244D01*
X94973820Y-130503519D01*
X95025680Y-130525000D01*
X95218750Y-130525000D01*
X95375000Y-130368750D01*
X95375000Y-130164922D01*
X95387969Y-130145709D01*
X95437244Y-129900000D01*
X95437244Y-128100000D01*
X95391007Y-127861690D01*
X95375000Y-127837322D01*
X95375000Y-127631250D01*
X95275000Y-127531250D01*
X95275000Y-127268750D01*
X95381250Y-127375000D01*
X95524320Y-127375000D01*
X95754034Y-127279850D01*
X95929849Y-127104034D01*
X96025000Y-126874320D01*
X96025000Y-126781250D01*
X95868750Y-126625000D01*
X95225000Y-126625000D01*
X95225000Y-126645000D01*
X95128111Y-126645000D01*
X95018718Y-126481282D01*
X95018718Y-126481281D01*
X95007801Y-126470365D01*
X94995563Y-126355000D01*
X95225000Y-126355000D01*
X95225000Y-126375000D01*
X95868750Y-126375000D01*
X96025000Y-126218750D01*
X96025000Y-126125680D01*
X95929849Y-125895966D01*
X95798883Y-125765000D01*
X96100250Y-125765000D01*
X96256500Y-125608750D01*
X96256500Y-122725000D01*
X94706250Y-122725000D01*
X94550000Y-122881250D01*
X94550000Y-125015680D01*
X94550000Y-125264320D01*
X94645151Y-125494034D01*
X94776116Y-125625000D01*
X94675680Y-125625000D01*
X94623199Y-125646737D01*
X93780244Y-124635191D01*
X93780244Y-120725000D01*
X94550000Y-120725000D01*
X94550000Y-122318750D01*
X94706250Y-122475000D01*
X96256500Y-122475000D01*
X96256500Y-122455000D01*
X96506500Y-122455000D01*
X96506500Y-122475000D01*
X98056750Y-122475000D01*
X98213000Y-122318750D01*
X98213000Y-120725000D01*
X98875000Y-120725000D01*
X98875000Y-127735000D01*
X98875000Y-127735000D01*
G37*
X98875000Y-127735000D02*
X98213000Y-127735000D01*
X98213000Y-125264320D01*
X98213000Y-125015680D01*
X98213000Y-122881250D01*
X98056750Y-122725000D01*
X96506500Y-122725000D01*
X96506500Y-125608750D01*
X96662750Y-125765000D01*
X97712320Y-125765000D01*
X97942034Y-125669850D01*
X98117849Y-125494034D01*
X98213000Y-125264320D01*
X98213000Y-127735000D01*
X97500000Y-127735000D01*
X97207247Y-127793232D01*
X96959063Y-127959063D01*
X96475000Y-128443126D01*
X96475000Y-127975680D01*
X96379850Y-127745966D01*
X96204034Y-127570151D01*
X95974320Y-127475000D01*
X95781250Y-127475000D01*
X95625000Y-127631250D01*
X95625000Y-128875000D01*
X95645000Y-128875000D01*
X95645000Y-129125000D01*
X95625000Y-129125000D01*
X95625000Y-130368750D01*
X95781250Y-130525000D01*
X95974320Y-130525000D01*
X96054998Y-130491581D01*
X96054998Y-132219998D01*
X96113230Y-132512751D01*
X96279061Y-132760935D01*
X97335000Y-133816874D01*
X97335000Y-134700000D01*
X97393232Y-134992753D01*
X97559063Y-135240937D01*
X97735000Y-135416873D01*
X97735000Y-136244769D01*
X97661690Y-136258993D01*
X97485090Y-136375000D01*
X97356874Y-136375000D01*
X96940937Y-135959063D01*
X96692753Y-135793232D01*
X96400000Y-135735000D01*
X86965000Y-135735000D01*
X86965000Y-132016873D01*
X88340933Y-130640939D01*
X88340937Y-130640937D01*
X88340937Y-130640936D01*
X88420830Y-130521367D01*
X88500000Y-130537244D01*
X89300000Y-130537244D01*
X89452479Y-130507659D01*
X89600000Y-130537244D01*
X90400000Y-130537244D01*
X90552479Y-130507659D01*
X90700000Y-130537244D01*
X91500000Y-130537244D01*
X91652479Y-130507659D01*
X91800000Y-130537244D01*
X92600000Y-130537244D01*
X92739770Y-130510125D01*
X92775680Y-130525000D01*
X93018750Y-130525000D01*
X93175000Y-130368750D01*
X93175000Y-130164922D01*
X93187969Y-130145709D01*
X93237244Y-129900000D01*
X93237244Y-128100000D01*
X93191007Y-127861690D01*
X93175000Y-127837322D01*
X93175000Y-127631250D01*
X93018750Y-127475000D01*
X92775680Y-127475000D01*
X92738287Y-127490488D01*
X92600000Y-127462756D01*
X91800000Y-127462756D01*
X91647520Y-127492340D01*
X91500000Y-127462756D01*
X90700000Y-127462756D01*
X90547520Y-127492340D01*
X90400000Y-127462756D01*
X90025978Y-127462756D01*
X90124804Y-127224758D01*
X90125195Y-126777205D01*
X89954285Y-126363571D01*
X89638093Y-126046828D01*
X89224758Y-125875196D01*
X89157010Y-125875136D01*
X89018301Y-125736427D01*
X89179034Y-125669850D01*
X89354849Y-125494034D01*
X89450000Y-125264320D01*
X89450000Y-125015680D01*
X89450000Y-122881250D01*
X89293750Y-122725000D01*
X87743500Y-122725000D01*
X87743500Y-122745000D01*
X87493500Y-122745000D01*
X87493500Y-122725000D01*
X85943250Y-122725000D01*
X85787000Y-122881250D01*
X85787000Y-125015680D01*
X85787000Y-125264320D01*
X85882151Y-125494034D01*
X86057966Y-125669850D01*
X86263246Y-125754879D01*
X85212393Y-126805732D01*
X84905267Y-126062428D01*
X84630121Y-125786801D01*
X84584634Y-125676714D01*
X84324655Y-125416280D01*
X84214646Y-125370600D01*
X83942640Y-125098119D01*
X82684264Y-124575596D01*
X81321714Y-124574407D01*
X80062428Y-125094733D01*
X79786801Y-125369878D01*
X79676714Y-125415366D01*
X79416280Y-125675345D01*
X79370600Y-125785353D01*
X79125000Y-126030525D01*
X79125000Y-120725000D01*
X85787000Y-120725000D01*
X85787000Y-122318750D01*
X85943250Y-122475000D01*
X87493500Y-122475000D01*
X87493500Y-122455000D01*
X87743500Y-122455000D01*
X87743500Y-122475000D01*
X89293750Y-122475000D01*
X89450000Y-122318750D01*
X89450000Y-120725000D01*
X90219756Y-120725000D01*
X90219756Y-125140000D01*
X90265993Y-125378310D01*
X90403581Y-125587763D01*
X90611291Y-125727969D01*
X90857000Y-125777244D01*
X92063452Y-125777244D01*
X93212573Y-127156189D01*
X93226851Y-127167728D01*
X93246581Y-127197763D01*
X93344730Y-127264014D01*
X93381282Y-127318718D01*
X93525000Y-127462436D01*
X93525000Y-127531250D01*
X93425000Y-127631250D01*
X93425000Y-127835077D01*
X93412031Y-127854291D01*
X93362756Y-128100000D01*
X93362756Y-129900000D01*
X93408993Y-130138310D01*
X93425000Y-130162677D01*
X93425000Y-130368750D01*
X93581250Y-130525000D01*
X93824320Y-130525000D01*
X93861712Y-130509511D01*
X94000000Y-130537244D01*
X94800000Y-130537244D01*
X94973820Y-130503519D01*
X95025680Y-130525000D01*
X95218750Y-130525000D01*
X95375000Y-130368750D01*
X95375000Y-130164922D01*
X95387969Y-130145709D01*
X95437244Y-129900000D01*
X95437244Y-128100000D01*
X95391007Y-127861690D01*
X95375000Y-127837322D01*
X95375000Y-127631250D01*
X95275000Y-127531250D01*
X95275000Y-127268750D01*
X95381250Y-127375000D01*
X95524320Y-127375000D01*
X95754034Y-127279850D01*
X95929849Y-127104034D01*
X96025000Y-126874320D01*
X96025000Y-126781250D01*
X95868750Y-126625000D01*
X95225000Y-126625000D01*
X95225000Y-126645000D01*
X95128111Y-126645000D01*
X95018718Y-126481282D01*
X95018718Y-126481281D01*
X95007801Y-126470365D01*
X94995563Y-126355000D01*
X95225000Y-126355000D01*
X95225000Y-126375000D01*
X95868750Y-126375000D01*
X96025000Y-126218750D01*
X96025000Y-126125680D01*
X95929849Y-125895966D01*
X95798883Y-125765000D01*
X96100250Y-125765000D01*
X96256500Y-125608750D01*
X96256500Y-122725000D01*
X94706250Y-122725000D01*
X94550000Y-122881250D01*
X94550000Y-125015680D01*
X94550000Y-125264320D01*
X94645151Y-125494034D01*
X94776116Y-125625000D01*
X94675680Y-125625000D01*
X94623199Y-125646737D01*
X93780244Y-124635191D01*
X93780244Y-120725000D01*
X94550000Y-120725000D01*
X94550000Y-122318750D01*
X94706250Y-122475000D01*
X96256500Y-122475000D01*
X96256500Y-122455000D01*
X96506500Y-122455000D01*
X96506500Y-122475000D01*
X98056750Y-122475000D01*
X98213000Y-122318750D01*
X98213000Y-120725000D01*
X98875000Y-120725000D01*
X98875000Y-127735000D01*
D36*
G36*
X121400000Y-171140151D02*
X121284009Y-171723275D01*
X120980169Y-172178004D01*
X120980169Y-169905921D01*
X120831288Y-169545600D01*
X120555850Y-169269681D01*
X120195789Y-169120171D01*
X119805921Y-169119831D01*
X119445600Y-169268712D01*
X119169681Y-169544150D01*
X119020171Y-169904211D01*
X119019831Y-170294079D01*
X119168712Y-170654400D01*
X119444150Y-170930319D01*
X119804211Y-171079829D01*
X120194079Y-171080169D01*
X120554400Y-170931288D01*
X120830319Y-170655850D01*
X120979829Y-170295789D01*
X120980169Y-169905921D01*
X120980169Y-172178004D01*
X120959275Y-172209275D01*
X120473275Y-172534009D01*
X119890151Y-172650000D01*
X118980169Y-172650000D01*
X118980169Y-169905921D01*
X118831288Y-169545600D01*
X118555850Y-169269681D01*
X118195789Y-169120171D01*
X117805921Y-169119831D01*
X117445600Y-169268712D01*
X117169681Y-169544150D01*
X117020171Y-169904211D01*
X117019831Y-170294079D01*
X117168712Y-170654400D01*
X117444150Y-170930319D01*
X117804211Y-171079829D01*
X118194079Y-171080169D01*
X118554400Y-170931288D01*
X118830319Y-170655850D01*
X118979829Y-170295789D01*
X118980169Y-169905921D01*
X118980169Y-172650000D01*
X118109849Y-172650000D01*
X117526725Y-172534009D01*
X117040725Y-172209275D01*
X116715991Y-171723275D01*
X116600000Y-171140151D01*
X116600000Y-169609849D01*
X116695414Y-169130171D01*
X116723785Y-169130196D01*
X117139257Y-168958526D01*
X117457409Y-168640929D01*
X117629803Y-168225757D01*
X117629829Y-168195482D01*
X118109849Y-168100000D01*
X119890151Y-168100000D01*
X120369828Y-168195414D01*
X120369804Y-168223785D01*
X120541474Y-168639257D01*
X120700968Y-168799030D01*
X120700969Y-168799031D01*
X120859071Y-168957409D01*
X121067568Y-169043984D01*
X121274243Y-169129803D01*
X121304517Y-169129829D01*
X121400000Y-169609849D01*
X121400000Y-171140151D01*
X121400000Y-171140151D01*
G37*
X121400000Y-171140151D02*
X121284009Y-171723275D01*
X120980169Y-172178004D01*
X120980169Y-169905921D01*
X120831288Y-169545600D01*
X120555850Y-169269681D01*
X120195789Y-169120171D01*
X119805921Y-169119831D01*
X119445600Y-169268712D01*
X119169681Y-169544150D01*
X119020171Y-169904211D01*
X119019831Y-170294079D01*
X119168712Y-170654400D01*
X119444150Y-170930319D01*
X119804211Y-171079829D01*
X120194079Y-171080169D01*
X120554400Y-170931288D01*
X120830319Y-170655850D01*
X120979829Y-170295789D01*
X120980169Y-169905921D01*
X120980169Y-172178004D01*
X120959275Y-172209275D01*
X120473275Y-172534009D01*
X119890151Y-172650000D01*
X118980169Y-172650000D01*
X118980169Y-169905921D01*
X118831288Y-169545600D01*
X118555850Y-169269681D01*
X118195789Y-169120171D01*
X117805921Y-169119831D01*
X117445600Y-169268712D01*
X117169681Y-169544150D01*
X117020171Y-169904211D01*
X117019831Y-170294079D01*
X117168712Y-170654400D01*
X117444150Y-170930319D01*
X117804211Y-171079829D01*
X118194079Y-171080169D01*
X118554400Y-170931288D01*
X118830319Y-170655850D01*
X118979829Y-170295789D01*
X118980169Y-169905921D01*
X118980169Y-172650000D01*
X118109849Y-172650000D01*
X117526725Y-172534009D01*
X117040725Y-172209275D01*
X116715991Y-171723275D01*
X116600000Y-171140151D01*
X116600000Y-169609849D01*
X116695414Y-169130171D01*
X116723785Y-169130196D01*
X117139257Y-168958526D01*
X117457409Y-168640929D01*
X117629803Y-168225757D01*
X117629829Y-168195482D01*
X118109849Y-168100000D01*
X119890151Y-168100000D01*
X120369828Y-168195414D01*
X120369804Y-168223785D01*
X120541474Y-168639257D01*
X120700968Y-168799030D01*
X120700969Y-168799031D01*
X120859071Y-168957409D01*
X121067568Y-169043984D01*
X121274243Y-169129803D01*
X121304517Y-169129829D01*
X121400000Y-169609849D01*
X121400000Y-171140151D01*
D41*
G36*
X104108482Y-150925000D02*
X103981250Y-150925000D01*
X103875000Y-151031250D01*
X103875000Y-151725000D01*
X103895000Y-151725000D01*
X103895000Y-151775000D01*
X103875000Y-151775000D01*
X103875000Y-151795000D01*
X103825000Y-151795000D01*
X103825000Y-151775000D01*
X103825000Y-151725000D01*
X103825000Y-151031250D01*
X103718750Y-150925000D01*
X103415462Y-150925000D01*
X103259257Y-150989702D01*
X103139702Y-151109257D01*
X103125000Y-151144750D01*
X103110298Y-151109257D01*
X102990743Y-150989702D01*
X102834538Y-150925000D01*
X102531250Y-150925000D01*
X102425000Y-151031250D01*
X102425000Y-151725000D01*
X103068750Y-151725000D01*
X103125000Y-151668750D01*
X103181250Y-151725000D01*
X103825000Y-151725000D01*
X103825000Y-151775000D01*
X103181250Y-151775000D01*
X103125000Y-151831250D01*
X103068750Y-151775000D01*
X102425000Y-151775000D01*
X102425000Y-151795000D01*
X102375000Y-151795000D01*
X102375000Y-151775000D01*
X102355000Y-151775000D01*
X102355000Y-151725000D01*
X102375000Y-151725000D01*
X102375000Y-151031250D01*
X102268750Y-150925000D01*
X101992911Y-150925000D01*
X102112051Y-150901884D01*
X102254479Y-150808325D01*
X102349819Y-150667082D01*
X102383326Y-150500000D01*
X102383326Y-148000000D01*
X102351884Y-147837949D01*
X102348847Y-147833326D01*
X102734296Y-147833326D01*
X102900485Y-147999515D01*
X103083784Y-148121992D01*
X103300000Y-148165000D01*
X103565969Y-148165000D01*
X103716674Y-148315704D01*
X103716674Y-150500000D01*
X103748116Y-150662051D01*
X103841675Y-150804479D01*
X103982918Y-150899819D01*
X104108482Y-150925000D01*
X104108482Y-150925000D01*
G37*
X104108482Y-150925000D02*
X103981250Y-150925000D01*
X103875000Y-151031250D01*
X103875000Y-151725000D01*
X103895000Y-151725000D01*
X103895000Y-151775000D01*
X103875000Y-151775000D01*
X103875000Y-151795000D01*
X103825000Y-151795000D01*
X103825000Y-151775000D01*
X103825000Y-151725000D01*
X103825000Y-151031250D01*
X103718750Y-150925000D01*
X103415462Y-150925000D01*
X103259257Y-150989702D01*
X103139702Y-151109257D01*
X103125000Y-151144750D01*
X103110298Y-151109257D01*
X102990743Y-150989702D01*
X102834538Y-150925000D01*
X102531250Y-150925000D01*
X102425000Y-151031250D01*
X102425000Y-151725000D01*
X103068750Y-151725000D01*
X103125000Y-151668750D01*
X103181250Y-151725000D01*
X103825000Y-151725000D01*
X103825000Y-151775000D01*
X103181250Y-151775000D01*
X103125000Y-151831250D01*
X103068750Y-151775000D01*
X102425000Y-151775000D01*
X102425000Y-151795000D01*
X102375000Y-151795000D01*
X102375000Y-151775000D01*
X102355000Y-151775000D01*
X102355000Y-151725000D01*
X102375000Y-151725000D01*
X102375000Y-151031250D01*
X102268750Y-150925000D01*
X101992911Y-150925000D01*
X102112051Y-150901884D01*
X102254479Y-150808325D01*
X102349819Y-150667082D01*
X102383326Y-150500000D01*
X102383326Y-148000000D01*
X102351884Y-147837949D01*
X102348847Y-147833326D01*
X102734296Y-147833326D01*
X102900485Y-147999515D01*
X103083784Y-148121992D01*
X103300000Y-148165000D01*
X103565969Y-148165000D01*
X103716674Y-148315704D01*
X103716674Y-150500000D01*
X103748116Y-150662051D01*
X103841675Y-150804479D01*
X103982918Y-150899819D01*
X104108482Y-150925000D01*
M02*
