M48
;DRILL file {KiCad 0.201505031001+5637~23~ubuntu14.04.1-product} date Sat 23 May 2015 04:20:31 BST
;FORMAT={-:-/ absolute / inch / decimal}
FMAT,2
INCH,TZ
T1C0.024
T2C0.047
T3C0.130
%
G90
G05
M72
T1
X3.1299Y-5.0394
X3.1299Y-6.2992
X3.1575Y-4.9685
X3.1575Y-5.1102
X3.1575Y-6.2283
X3.1575Y-6.3701
X3.2283Y-4.9409
X3.2283Y-5.1378
X3.2283Y-6.2008
X3.2283Y-6.3976
X3.2992Y-4.9685
X3.2992Y-5.1102
X3.2992Y-6.2283
X3.2992Y-6.3701
X3.3268Y-5.0394
X3.3268Y-6.2992
X5.0197Y-5.0394
X5.0197Y-6.2992
X5.0472Y-4.9685
X5.0472Y-5.1102
X5.0472Y-6.2283
X5.0472Y-6.3701
X5.1181Y-4.9409
X5.1181Y-5.1378
X5.1181Y-6.2008
X5.1181Y-6.3976
X5.189Y-4.9685
X5.189Y-5.1102
X5.189Y-6.2283
X5.189Y-6.3701
X5.2165Y-5.0394
X5.2165Y-6.2992
T2
X3.1496Y-6.6969
X3.5039Y-6.6969
X3.5827Y-6.6969
X3.937Y-6.6969
X4.0157Y-6.6969
X4.3701Y-6.6969
X4.4488Y-6.6969
X4.6457Y-6.6969
X4.7244Y-6.6969
X4.9213Y-6.6969
X5.Y-6.6969
X5.1969Y-6.6969
T3
X3.2283Y-5.0394
X3.2283Y-6.2992
X5.1181Y-5.0394
X5.1181Y-6.2992
T0
M30
