G04 #@! TF.FileFunction,Copper,L2,Bot,Signal*
%FSLAX46Y46*%
G04 Gerber Fmt 4.6, Leading zero omitted, Abs format (unit mm)*
G04 Created by KiCad (PCBNEW 0.201505031001+5637~23~ubuntu14.04.1-product) date Sat 23 May 2015 04:20:30 BST*
%MOMM*%
G01*
G04 APERTURE LIST*
%ADD10C,0.100000*%
%ADD11C,1.700000*%
%ADD12R,2.413000X5.080000*%
%ADD13C,1.016000*%
%ADD14C,1.500000*%
%ADD15C,0.800000*%
%ADD16C,0.200000*%
%ADD17C,0.500000*%
%ADD18C,0.280000*%
%ADD19C,0.800000*%
G04 APERTURE END LIST*
D10*
D11*
X131100000Y-136100000D03*
X129100000Y-136100000D03*
X112600000Y-135600000D03*
X112600000Y-137600000D03*
X112600000Y-139600000D03*
X112600000Y-141600000D03*
X112600000Y-143600000D03*
X112600000Y-145600000D03*
D12*
X87618500Y-122600000D03*
X96381500Y-122600000D03*
D13*
X100000000Y-131270000D03*
X100000000Y-130000000D03*
X101270000Y-131270000D03*
X101270000Y-130000000D03*
X102540000Y-131270000D03*
X102540000Y-130000000D03*
X103810000Y-131270000D03*
X103810000Y-130000000D03*
X105080000Y-131270000D03*
X105080000Y-130000000D03*
D12*
X115618500Y-122600000D03*
X124381500Y-122600000D03*
D14*
X81500000Y-146500000D03*
X88500000Y-146500000D03*
X98500000Y-168000000D03*
X96500000Y-168000000D03*
X94500000Y-168000000D03*
X92500000Y-168000000D03*
X87500000Y-168000000D03*
X85500000Y-168000000D03*
X83500000Y-168000000D03*
X81500000Y-168000000D03*
X109500000Y-168000000D03*
X107500000Y-168000000D03*
X105500000Y-168000000D03*
X103500000Y-168000000D03*
X116500000Y-168000000D03*
X114500000Y-168000000D03*
X130500000Y-168000000D03*
X128500000Y-168000000D03*
X123500000Y-168000000D03*
X121500000Y-168000000D03*
D15*
X98500000Y-123000000D03*
X98600000Y-125000000D03*
X126400000Y-124200000D03*
X122400000Y-124200000D03*
X103100000Y-151200000D03*
X103000000Y-148400000D03*
X96000000Y-126500000D03*
X89800000Y-124600000D03*
X90000000Y-126000000D03*
X94250000Y-124250000D03*
X94250000Y-123000000D03*
X94250000Y-121750000D03*
X89800000Y-121600000D03*
X89750000Y-123000000D03*
X98700000Y-129300000D03*
X111000000Y-132000000D03*
X127500000Y-137500000D03*
X126000000Y-137500000D03*
X124500000Y-137500000D03*
X123000000Y-137500000D03*
X121500000Y-137500000D03*
X119500000Y-137500000D03*
X118500000Y-136500000D03*
X117500000Y-135500000D03*
X116500000Y-134500000D03*
X115500000Y-133500000D03*
X114500000Y-132500000D03*
X114000000Y-131000000D03*
X114000000Y-129500000D03*
X114000000Y-128000000D03*
X114000000Y-126500000D03*
X114000000Y-122600000D03*
X85600000Y-122600000D03*
X86700000Y-139900000D03*
X80000000Y-132000000D03*
X82000000Y-132000000D03*
X84000000Y-132000000D03*
X84000000Y-134000000D03*
X82000000Y-134000000D03*
X80000000Y-134000000D03*
X80000000Y-136000000D03*
X82000000Y-136000000D03*
X84000000Y-136000000D03*
X90000000Y-133000000D03*
X92000000Y-133000000D03*
X94000000Y-133000000D03*
X96000000Y-133000000D03*
X96000000Y-135000000D03*
X94000000Y-135000000D03*
X92000000Y-135000000D03*
X90000000Y-135000000D03*
X88000000Y-134000000D03*
X88000000Y-132000000D03*
X90000000Y-131000000D03*
X92000000Y-131000000D03*
X94000000Y-131000000D03*
X96000000Y-131000000D03*
X91000000Y-127000000D03*
X92000000Y-127000000D03*
X98000000Y-127000000D03*
X97000000Y-127000000D03*
X84000000Y-124000000D03*
X82000000Y-124000000D03*
X80000000Y-124000000D03*
X80000000Y-122000000D03*
X82000000Y-122000000D03*
X84000000Y-122000000D03*
X92900000Y-158000000D03*
X116625000Y-162675000D03*
X112000000Y-161000000D03*
X112500000Y-155700000D03*
X114700000Y-151000000D03*
X104300000Y-142500000D03*
X104600000Y-147300000D03*
X99600000Y-147200000D03*
X106700000Y-157900000D03*
X100000000Y-164300000D03*
X99200000Y-164900000D03*
X129500000Y-165450000D03*
X125000000Y-163100000D03*
X121600000Y-161900000D03*
X120000000Y-155400000D03*
X121000000Y-151500000D03*
X121600000Y-153400000D03*
X108900000Y-137300000D03*
X100000000Y-133600000D03*
X122400000Y-122600000D03*
X126400000Y-122600000D03*
X124400000Y-125800000D03*
X105700000Y-122300000D03*
X92100000Y-141200000D03*
X95000000Y-142350000D03*
X99000000Y-158650000D03*
X93650000Y-150100000D03*
X109200000Y-147700000D03*
X106600000Y-151200000D03*
X109600000Y-149600000D03*
X103200000Y-133200000D03*
X110400000Y-133200000D03*
X88150000Y-142700000D03*
X85350000Y-142650000D03*
X106250000Y-146000000D03*
X106350000Y-155300000D03*
X106350000Y-153250000D03*
X115200000Y-147800000D03*
X115400000Y-150200000D03*
X109800000Y-130100000D03*
X115100000Y-144800000D03*
X117600000Y-144800000D03*
X98400000Y-145550000D03*
X100400000Y-142000000D03*
X99150000Y-143550000D03*
X97600000Y-144800000D03*
X109700000Y-139300000D03*
X105600000Y-139000000D03*
X115200000Y-145900000D03*
X117600000Y-145900000D03*
X108400000Y-144400000D03*
X106700000Y-143800000D03*
X101500000Y-134000000D03*
X94400000Y-141500000D03*
X92600000Y-143300000D03*
D16*
X86700000Y-139900000D02*
X86700000Y-138700000D01*
X82000000Y-132000000D02*
X80000000Y-132000000D01*
X84000000Y-134000000D02*
X84000000Y-132000000D01*
X80000000Y-134000000D02*
X82000000Y-134000000D01*
X82000000Y-136000000D02*
X80000000Y-136000000D01*
X86700000Y-138700000D02*
X84000000Y-136000000D01*
X92000000Y-133000000D02*
X90000000Y-133000000D01*
X96000000Y-133000000D02*
X94000000Y-133000000D01*
X94000000Y-135000000D02*
X96000000Y-135000000D01*
X90000000Y-135000000D02*
X92000000Y-135000000D01*
X88000000Y-132000000D02*
X88000000Y-134000000D01*
X92000000Y-131000000D02*
X90000000Y-131000000D01*
X96000000Y-131000000D02*
X94000000Y-131000000D01*
X87618500Y-122600000D02*
X87618500Y-123218500D01*
X87618500Y-123218500D02*
X90000000Y-126000000D01*
X90000000Y-126000000D02*
X91000000Y-127000000D01*
X96381500Y-122600000D02*
X96381500Y-126381500D01*
X96381500Y-126381500D02*
X97000000Y-127000000D01*
X87618500Y-122600000D02*
X85600000Y-122600000D01*
X85600000Y-122600000D02*
X85000000Y-123000000D01*
X80000000Y-124000000D02*
X82000000Y-124000000D01*
X82000000Y-122000000D02*
X80000000Y-122000000D01*
X85000000Y-123000000D02*
X84000000Y-122000000D01*
D17*
X101270000Y-131270000D02*
X102540000Y-131270000D01*
X105080000Y-131720000D02*
X105080000Y-131270000D01*
X103300000Y-132300000D02*
X104500000Y-132300000D01*
X104500000Y-132300000D02*
X105080000Y-131720000D01*
X102540000Y-131540000D02*
X103300000Y-132300000D01*
X102540000Y-131270000D02*
X102540000Y-131540000D01*
D18*
X99000000Y-158650000D02*
X99050000Y-158650000D01*
D17*
X107200000Y-146000000D02*
X107500000Y-146000000D01*
X107500000Y-146000000D02*
X109200000Y-147700000D01*
D19*
X109300000Y-149950000D02*
X109300000Y-149900000D01*
X107850000Y-149950000D02*
X106600000Y-151200000D01*
X109300000Y-149950000D02*
X107850000Y-149950000D01*
X109300000Y-149900000D02*
X109600000Y-149600000D01*
D17*
X103200000Y-133200000D02*
X110400000Y-133200000D01*
X88150000Y-142700000D02*
X88100000Y-142650000D01*
X88100000Y-142650000D02*
X85350000Y-142650000D01*
X107250000Y-146000000D02*
X107200000Y-146000000D01*
X107200000Y-146000000D02*
X106250000Y-146000000D01*
X106350000Y-155300000D02*
X106350000Y-153250000D01*
D18*
X115200000Y-147800000D02*
X115400000Y-148000000D01*
X115400000Y-148000000D02*
X115400000Y-150200000D01*
X109700000Y-130000000D02*
X105080000Y-130000000D01*
X109800000Y-130100000D02*
X109700000Y-130000000D01*
X115100000Y-144800000D02*
X117600000Y-144800000D01*
X99900000Y-143200000D02*
X99900000Y-143900000D01*
X99900000Y-143150000D02*
X99900000Y-143200000D01*
X99900000Y-143900000D02*
X98400000Y-145400000D01*
X98400000Y-145400000D02*
X98400000Y-145550000D01*
X99900000Y-142500000D02*
X99900000Y-143200000D01*
X99900000Y-142500000D02*
X100400000Y-142000000D01*
X99150000Y-143550000D02*
X98850000Y-143550000D01*
X98850000Y-143550000D02*
X97600000Y-144800000D01*
X105900000Y-139300000D02*
X109700000Y-139300000D01*
X105600000Y-139000000D02*
X105900000Y-139300000D01*
X115200000Y-145900000D02*
X117600000Y-145900000D01*
X107300000Y-144400000D02*
X108400000Y-144400000D01*
X106700000Y-143800000D02*
X107300000Y-144400000D01*
X101000000Y-132750000D02*
X101500000Y-133250000D01*
X99250000Y-130000000D02*
X100000000Y-130000000D01*
X100000000Y-132750000D02*
X101000000Y-132750000D01*
X99000000Y-131750000D02*
X100000000Y-132750000D01*
X99000000Y-130250000D02*
X99000000Y-131750000D01*
X99250000Y-130000000D02*
X99000000Y-130250000D01*
X101500000Y-133250000D02*
X101500000Y-134000000D01*
X93750000Y-142150000D02*
X92600000Y-143300000D01*
X94400000Y-141500000D02*
X93750000Y-142150000D01*
D16*
G36*
X132900000Y-165990151D02*
X132867742Y-166152324D01*
X132781457Y-166281457D01*
X132652324Y-166367742D01*
X132490151Y-166400000D01*
X126990151Y-166400000D01*
X126769640Y-166443862D01*
X126574351Y-166574351D01*
X126443862Y-166769640D01*
X126400000Y-166990151D01*
X126400000Y-169285973D01*
X126234565Y-169451119D01*
X126214516Y-169464516D01*
X126201236Y-169484390D01*
X126152736Y-169532806D01*
X126000174Y-169900215D01*
X126000172Y-169901958D01*
X125988000Y-169872499D01*
X125988000Y-125219565D01*
X125988000Y-125060435D01*
X125988000Y-122750000D01*
X125888000Y-122650000D01*
X124431500Y-122650000D01*
X124431500Y-125440000D01*
X124531500Y-125540000D01*
X125667565Y-125540000D01*
X125814582Y-125479104D01*
X125927104Y-125366582D01*
X125988000Y-125219565D01*
X125988000Y-169872499D01*
X125848253Y-169534286D01*
X125567194Y-169252736D01*
X125199785Y-169100174D01*
X124801960Y-169099827D01*
X124650768Y-169162298D01*
X124650768Y-168224854D01*
X124649219Y-167767358D01*
X124477123Y-167351882D01*
X124331500Y-167293304D01*
X124331500Y-125440000D01*
X124331500Y-122650000D01*
X122875000Y-122650000D01*
X122775000Y-122750000D01*
X122775000Y-125060435D01*
X122775000Y-125219565D01*
X122835896Y-125366582D01*
X122948418Y-125479104D01*
X123095435Y-125540000D01*
X124231500Y-125540000D01*
X124331500Y-125440000D01*
X124331500Y-167293304D01*
X124292924Y-167277787D01*
X124222213Y-167348498D01*
X124222213Y-167207076D01*
X124148118Y-167022877D01*
X123724854Y-166849232D01*
X123267358Y-166850781D01*
X122851882Y-167022877D01*
X122777787Y-167207076D01*
X123500000Y-167929289D01*
X124222213Y-167207076D01*
X124222213Y-167348498D01*
X123570711Y-168000000D01*
X124292924Y-168722213D01*
X124477123Y-168648118D01*
X124650768Y-168224854D01*
X124650768Y-169162298D01*
X124434286Y-169251747D01*
X124222213Y-169463450D01*
X124222213Y-168792924D01*
X123500000Y-168070711D01*
X123429289Y-168141422D01*
X123429289Y-168000000D01*
X122707076Y-167277787D01*
X122522877Y-167351882D01*
X122499773Y-167408196D01*
X122475491Y-167349428D01*
X122152273Y-167025646D01*
X121729753Y-166850200D01*
X121272254Y-166849801D01*
X120849428Y-167024509D01*
X120525646Y-167347727D01*
X120350200Y-167770247D01*
X120349801Y-168227746D01*
X120524509Y-168650572D01*
X120847727Y-168974354D01*
X121270247Y-169149800D01*
X121727746Y-169150199D01*
X122150572Y-168975491D01*
X122474354Y-168652273D01*
X122499507Y-168591697D01*
X122522877Y-168648118D01*
X122707076Y-168722213D01*
X123429289Y-168000000D01*
X123429289Y-168141422D01*
X122777787Y-168792924D01*
X122851882Y-168977123D01*
X123275146Y-169150768D01*
X123732642Y-169149219D01*
X124148118Y-168977123D01*
X124222213Y-168792924D01*
X124222213Y-169463450D01*
X124152736Y-169532806D01*
X124000174Y-169900215D01*
X123999827Y-170298040D01*
X124151747Y-170665714D01*
X124432806Y-170947264D01*
X124800215Y-171099826D01*
X125198040Y-171100173D01*
X125565714Y-170948253D01*
X125847264Y-170667194D01*
X125999826Y-170299785D01*
X125999827Y-170298041D01*
X126150000Y-170661485D01*
X126150000Y-172490151D01*
X126117742Y-172652324D01*
X126031457Y-172781457D01*
X125902324Y-172867742D01*
X125740151Y-172900000D01*
X121000173Y-172900000D01*
X121000173Y-169901960D01*
X120848253Y-169534286D01*
X120567194Y-169252736D01*
X120199785Y-169100174D01*
X119801960Y-169099827D01*
X119434286Y-169251747D01*
X119152736Y-169532806D01*
X119000174Y-169900215D01*
X119000172Y-169901958D01*
X118848253Y-169534286D01*
X118567194Y-169252736D01*
X118400139Y-169183368D01*
X118400139Y-145741568D01*
X118278603Y-145447428D01*
X118181371Y-145350027D01*
X118277812Y-145253755D01*
X118399861Y-144959828D01*
X118400139Y-144641568D01*
X118278603Y-144347428D01*
X118053755Y-144122188D01*
X117759828Y-144000139D01*
X117441568Y-143999861D01*
X117225000Y-144089344D01*
X117225000Y-125219565D01*
X117225000Y-125060435D01*
X117225000Y-122750000D01*
X117125000Y-122650000D01*
X115668500Y-122650000D01*
X115668500Y-125440000D01*
X115768500Y-125540000D01*
X116904565Y-125540000D01*
X117051582Y-125479104D01*
X117164104Y-125366582D01*
X117225000Y-125219565D01*
X117225000Y-144089344D01*
X117147428Y-144121397D01*
X117008583Y-144260000D01*
X115691327Y-144260000D01*
X115568500Y-144136958D01*
X115568500Y-125440000D01*
X115568500Y-122650000D01*
X114112000Y-122650000D01*
X114012000Y-122750000D01*
X114012000Y-125060435D01*
X114012000Y-125219565D01*
X114072896Y-125366582D01*
X114185418Y-125479104D01*
X114332435Y-125540000D01*
X115468500Y-125540000D01*
X115568500Y-125440000D01*
X115568500Y-144136958D01*
X115553755Y-144122188D01*
X115259828Y-144000139D01*
X114941568Y-143999861D01*
X114647428Y-144121397D01*
X114422188Y-144346245D01*
X114300139Y-144640172D01*
X114299861Y-144958432D01*
X114421397Y-145252572D01*
X114568541Y-145399972D01*
X114522188Y-145446245D01*
X114400139Y-145740172D01*
X114399861Y-146058432D01*
X114521397Y-146352572D01*
X114746245Y-146577812D01*
X115040172Y-146699861D01*
X115358432Y-146700139D01*
X115652572Y-146578603D01*
X115791416Y-146440000D01*
X117008672Y-146440000D01*
X117146245Y-146577812D01*
X117440172Y-146699861D01*
X117758432Y-146700139D01*
X118052572Y-146578603D01*
X118277812Y-146353755D01*
X118399861Y-146059828D01*
X118400139Y-145741568D01*
X118400139Y-169183368D01*
X118199785Y-169100174D01*
X117801960Y-169099827D01*
X117650768Y-169162298D01*
X117650768Y-168224854D01*
X117649219Y-167767358D01*
X117477123Y-167351882D01*
X117292924Y-167277787D01*
X117222213Y-167348498D01*
X117222213Y-167207076D01*
X117148118Y-167022877D01*
X116724854Y-166849232D01*
X116267358Y-166850781D01*
X116200139Y-166878624D01*
X116200139Y-150041568D01*
X116078603Y-149747428D01*
X115940000Y-149608583D01*
X115940000Y-148103989D01*
X115999861Y-147959828D01*
X116000139Y-147641568D01*
X115878603Y-147347428D01*
X115653755Y-147122188D01*
X115359828Y-147000139D01*
X115041568Y-146999861D01*
X114747428Y-147121397D01*
X114522188Y-147346245D01*
X114400139Y-147640172D01*
X114399861Y-147958432D01*
X114521397Y-148252572D01*
X114746245Y-148477812D01*
X114860000Y-148525047D01*
X114860000Y-149608672D01*
X114722188Y-149746245D01*
X114600139Y-150040172D01*
X114599861Y-150358432D01*
X114721397Y-150652572D01*
X114946245Y-150877812D01*
X115240172Y-150999861D01*
X115558432Y-151000139D01*
X115852572Y-150878603D01*
X116077812Y-150653755D01*
X116199861Y-150359828D01*
X116200139Y-150041568D01*
X116200139Y-166878624D01*
X115851882Y-167022877D01*
X115777787Y-167207076D01*
X116500000Y-167929289D01*
X117222213Y-167207076D01*
X117222213Y-167348498D01*
X116570711Y-168000000D01*
X117292924Y-168722213D01*
X117477123Y-168648118D01*
X117650768Y-168224854D01*
X117650768Y-169162298D01*
X117434286Y-169251747D01*
X117222213Y-169463450D01*
X117222213Y-168792924D01*
X116500000Y-168070711D01*
X116429289Y-168141422D01*
X116429289Y-168000000D01*
X115707076Y-167277787D01*
X115600000Y-167320858D01*
X115600000Y-166990151D01*
X115556138Y-166769640D01*
X115425649Y-166574351D01*
X115230360Y-166443862D01*
X115009849Y-166400000D01*
X113850007Y-166400000D01*
X113850007Y-145351395D01*
X113659719Y-144891962D01*
X113659679Y-144891902D01*
X113465091Y-144805619D01*
X112670711Y-145600000D01*
X113465091Y-146394381D01*
X113659679Y-146308098D01*
X113849993Y-145848676D01*
X113850007Y-145351395D01*
X113850007Y-166400000D01*
X113394381Y-166400000D01*
X113394381Y-146465091D01*
X112600000Y-145670711D01*
X112529289Y-145741421D01*
X112529289Y-145600000D01*
X111734909Y-144805619D01*
X111540321Y-144891902D01*
X111350007Y-145351324D01*
X111349993Y-145848605D01*
X111540281Y-146308038D01*
X111540321Y-146308098D01*
X111734909Y-146394381D01*
X112529289Y-145600000D01*
X112529289Y-145741421D01*
X111805619Y-146465091D01*
X111891902Y-146659679D01*
X112351324Y-146849993D01*
X112848605Y-146850007D01*
X113308038Y-146659719D01*
X113308098Y-146659679D01*
X113394381Y-146465091D01*
X113394381Y-166400000D01*
X111200139Y-166400000D01*
X111200139Y-133041568D01*
X111078603Y-132747428D01*
X110853755Y-132522188D01*
X110600139Y-132416877D01*
X110600139Y-129941568D01*
X110478603Y-129647428D01*
X110253755Y-129422188D01*
X109959828Y-129300139D01*
X109641568Y-129299861D01*
X109347428Y-129421397D01*
X109308757Y-129460000D01*
X105823928Y-129460000D01*
X105595012Y-129230684D01*
X105261405Y-129092158D01*
X104900180Y-129091843D01*
X104566331Y-129229786D01*
X104445012Y-129350893D01*
X104325012Y-129230684D01*
X103991405Y-129092158D01*
X103630180Y-129091843D01*
X103296331Y-129229786D01*
X103175012Y-129350893D01*
X103055012Y-129230684D01*
X102721405Y-129092158D01*
X102360180Y-129091843D01*
X102026331Y-129229786D01*
X101905012Y-129350893D01*
X101785012Y-129230684D01*
X101451405Y-129092158D01*
X101090180Y-129091843D01*
X100756331Y-129229786D01*
X100635012Y-129350893D01*
X100515012Y-129230684D01*
X100181405Y-129092158D01*
X99820180Y-129091843D01*
X99486331Y-129229786D01*
X99255715Y-129460000D01*
X99250000Y-129460000D01*
X99043351Y-129501105D01*
X98868162Y-129618162D01*
X98868159Y-129618165D01*
X98618162Y-129868162D01*
X98501105Y-130043351D01*
X98460000Y-130250000D01*
X98460000Y-131750000D01*
X98501105Y-131956649D01*
X98618162Y-132131838D01*
X99618159Y-133131834D01*
X99618162Y-133131838D01*
X99618163Y-133131838D01*
X99793351Y-133248895D01*
X100000000Y-133290001D01*
X100000000Y-133290000D01*
X100000005Y-133290000D01*
X100776324Y-133290000D01*
X100927470Y-133441146D01*
X100822188Y-133546245D01*
X100700139Y-133840172D01*
X100699861Y-134158432D01*
X100821397Y-134452572D01*
X101046245Y-134677812D01*
X101340172Y-134799861D01*
X101658432Y-134800139D01*
X101952572Y-134678603D01*
X102177812Y-134453755D01*
X102299861Y-134159828D01*
X102300139Y-133841568D01*
X102178603Y-133547428D01*
X102040000Y-133408583D01*
X102040000Y-133250005D01*
X102040000Y-133250000D01*
X102040001Y-133250000D01*
X101998895Y-133043351D01*
X101881838Y-132868162D01*
X101817494Y-132803818D01*
X101381838Y-132368162D01*
X101206649Y-132251105D01*
X101000000Y-132210000D01*
X100223675Y-132210000D01*
X100188320Y-132174644D01*
X100513669Y-132040214D01*
X100623790Y-131930283D01*
X100652110Y-131958603D01*
X100722506Y-131888206D01*
X100767079Y-132047275D01*
X101102812Y-132180568D01*
X101463998Y-132175235D01*
X101772921Y-132047275D01*
X101817494Y-131888205D01*
X101270000Y-131340711D01*
X101255858Y-131354853D01*
X101185146Y-131284141D01*
X101199289Y-131270000D01*
X101185147Y-131255858D01*
X101255858Y-131185147D01*
X101270000Y-131199289D01*
X101284141Y-131185146D01*
X101354852Y-131255857D01*
X101340711Y-131270000D01*
X101705515Y-131634804D01*
X101762725Y-131772921D01*
X101875128Y-131804417D01*
X101888205Y-131817494D01*
X101905000Y-131812787D01*
X101921795Y-131817494D01*
X101934871Y-131804417D01*
X102047275Y-131772921D01*
X102100546Y-131638742D01*
X102469289Y-131270000D01*
X102455147Y-131255858D01*
X102525858Y-131185147D01*
X102540000Y-131199289D01*
X102554141Y-131185146D01*
X102624852Y-131255857D01*
X102610711Y-131270000D01*
X102624853Y-131284142D01*
X102554142Y-131354853D01*
X102540000Y-131340711D01*
X101992506Y-131888205D01*
X102037079Y-132047275D01*
X102372812Y-132180568D01*
X102733998Y-132175235D01*
X103042921Y-132047275D01*
X103087493Y-131888206D01*
X103087494Y-131888207D01*
X103157890Y-131958603D01*
X103186177Y-131930315D01*
X103294988Y-132039316D01*
X103628595Y-132177842D01*
X103989820Y-132178157D01*
X104323669Y-132040214D01*
X104433790Y-131930283D01*
X104462110Y-131958603D01*
X104532506Y-131888206D01*
X104577079Y-132047275D01*
X104912812Y-132180568D01*
X105273998Y-132175235D01*
X105582921Y-132047275D01*
X105627494Y-131888205D01*
X105080000Y-131340711D01*
X105065858Y-131354853D01*
X104995146Y-131284141D01*
X105009289Y-131270000D01*
X104995147Y-131255858D01*
X105065858Y-131185147D01*
X105080000Y-131199289D01*
X105094141Y-131185146D01*
X105164853Y-131255858D01*
X105150711Y-131270000D01*
X105698205Y-131817494D01*
X105857275Y-131772921D01*
X105990568Y-131437188D01*
X105985235Y-131076002D01*
X105857275Y-130767079D01*
X105698206Y-130722506D01*
X105768603Y-130652110D01*
X105740315Y-130623822D01*
X105824284Y-130540000D01*
X109116202Y-130540000D01*
X109121397Y-130552572D01*
X109346245Y-130777812D01*
X109640172Y-130899861D01*
X109958432Y-130900139D01*
X110252572Y-130778603D01*
X110477812Y-130553755D01*
X110599861Y-130259828D01*
X110600139Y-129941568D01*
X110600139Y-132416877D01*
X110559828Y-132400139D01*
X110241568Y-132399861D01*
X109947428Y-132521397D01*
X109918775Y-132550000D01*
X105990568Y-132550000D01*
X105627494Y-132550000D01*
X103681518Y-132550000D01*
X103653755Y-132522188D01*
X103359828Y-132400139D01*
X103087494Y-132399901D01*
X103041568Y-132399861D01*
X102747428Y-132521397D01*
X102522188Y-132746245D01*
X102400139Y-133040172D01*
X102399861Y-133358432D01*
X102521397Y-133652572D01*
X102746245Y-133877812D01*
X103040172Y-133999861D01*
X103358432Y-134000139D01*
X103652572Y-133878603D01*
X103681224Y-133850000D01*
X109918481Y-133850000D01*
X109946245Y-133877812D01*
X110240172Y-133999861D01*
X110558432Y-134000139D01*
X110852572Y-133878603D01*
X111077812Y-133653755D01*
X111199861Y-133359828D01*
X111200139Y-133041568D01*
X111200139Y-166400000D01*
X110500139Y-166400000D01*
X110500139Y-139141568D01*
X110378603Y-138847428D01*
X110153755Y-138622188D01*
X109859828Y-138500139D01*
X109541568Y-138499861D01*
X109247428Y-138621397D01*
X109108583Y-138760000D01*
X106366435Y-138760000D01*
X106278603Y-138547428D01*
X106053755Y-138322188D01*
X105759828Y-138200139D01*
X105441568Y-138199861D01*
X105147428Y-138321397D01*
X104922188Y-138546245D01*
X104800139Y-138840172D01*
X104799861Y-139158432D01*
X104921397Y-139452572D01*
X105146245Y-139677812D01*
X105440172Y-139799861D01*
X105699345Y-139800087D01*
X105900000Y-139840000D01*
X109108672Y-139840000D01*
X109246245Y-139977812D01*
X109540172Y-140099861D01*
X109858432Y-140100139D01*
X110152572Y-139978603D01*
X110377812Y-139753755D01*
X110499861Y-139459828D01*
X110500139Y-139141568D01*
X110500139Y-166400000D01*
X110400139Y-166400000D01*
X110400139Y-149441568D01*
X110339104Y-149293853D01*
X110278603Y-149147428D01*
X110053755Y-148922188D01*
X110000139Y-148899924D01*
X110000139Y-147541568D01*
X109878603Y-147247428D01*
X109653755Y-147022188D01*
X109359828Y-146900139D01*
X109319341Y-146900103D01*
X109200139Y-146780901D01*
X109200139Y-144241568D01*
X109078603Y-143947428D01*
X108853755Y-143722188D01*
X108559828Y-143600139D01*
X108241568Y-143599861D01*
X107947428Y-143721397D01*
X107808583Y-143860000D01*
X107523676Y-143860000D01*
X107499968Y-143836292D01*
X107500139Y-143641568D01*
X107378603Y-143347428D01*
X107153755Y-143122188D01*
X106859828Y-143000139D01*
X106541568Y-142999861D01*
X106247428Y-143121397D01*
X106022188Y-143346245D01*
X105900139Y-143640172D01*
X105899861Y-143958432D01*
X106021397Y-144252572D01*
X106246245Y-144477812D01*
X106540172Y-144599861D01*
X106736356Y-144600032D01*
X106918162Y-144781838D01*
X107093351Y-144898895D01*
X107300000Y-144940000D01*
X107808672Y-144940000D01*
X107946245Y-145077812D01*
X108240172Y-145199861D01*
X108558432Y-145200139D01*
X108852572Y-145078603D01*
X109077812Y-144853755D01*
X109199861Y-144559828D01*
X109200139Y-144241568D01*
X109200139Y-146780901D01*
X107959619Y-145540381D01*
X107748745Y-145399478D01*
X107707475Y-145391269D01*
X107500000Y-145350000D01*
X107250000Y-145350000D01*
X107200000Y-145350000D01*
X106731518Y-145350000D01*
X106703755Y-145322188D01*
X106409828Y-145200139D01*
X106091568Y-145199861D01*
X105797428Y-145321397D01*
X105572188Y-145546245D01*
X105450139Y-145840172D01*
X105449861Y-146158432D01*
X105571397Y-146452572D01*
X105796245Y-146677812D01*
X106090172Y-146799861D01*
X106408432Y-146800139D01*
X106702572Y-146678603D01*
X106731224Y-146650000D01*
X107200000Y-146650000D01*
X107230762Y-146650000D01*
X108399895Y-147819133D01*
X108399861Y-147858432D01*
X108521397Y-148152572D01*
X108746245Y-148377812D01*
X109040172Y-148499861D01*
X109358432Y-148500139D01*
X109652572Y-148378603D01*
X109877812Y-148153755D01*
X109999861Y-147859828D01*
X110000139Y-147541568D01*
X110000139Y-148899924D01*
X109906147Y-148860896D01*
X109759828Y-148800139D01*
X109441568Y-148799861D01*
X109147428Y-148921397D01*
X108922188Y-149146245D01*
X108922048Y-149146581D01*
X108918630Y-149150000D01*
X107850000Y-149150000D01*
X107543853Y-149210896D01*
X107284315Y-149384315D01*
X106035382Y-150633247D01*
X105922188Y-150746245D01*
X105800139Y-151040172D01*
X105799861Y-151358432D01*
X105921397Y-151652572D01*
X106146245Y-151877812D01*
X106293853Y-151939104D01*
X106440172Y-151999861D01*
X106758432Y-152000139D01*
X106906147Y-151939104D01*
X107052572Y-151878603D01*
X107165685Y-151765685D01*
X107277812Y-151653755D01*
X107277951Y-151653418D01*
X108181370Y-150750000D01*
X109300000Y-150750000D01*
X109606147Y-150689104D01*
X109865685Y-150515685D01*
X109966370Y-150364999D01*
X110164617Y-150166752D01*
X110165685Y-150165685D01*
X110277812Y-150053755D01*
X110339104Y-149906147D01*
X110399861Y-149759828D01*
X110400139Y-149441568D01*
X110400139Y-166400000D01*
X107150139Y-166400000D01*
X107150139Y-155141568D01*
X107028603Y-154847428D01*
X107000000Y-154818775D01*
X107000000Y-153731518D01*
X107027812Y-153703755D01*
X107149861Y-153409828D01*
X107150139Y-153091568D01*
X107028603Y-152797428D01*
X106803755Y-152572188D01*
X106509828Y-152450139D01*
X106191568Y-152449861D01*
X105897428Y-152571397D01*
X105672188Y-152796245D01*
X105550139Y-153090172D01*
X105549861Y-153408432D01*
X105671397Y-153702572D01*
X105700000Y-153731224D01*
X105700000Y-154818481D01*
X105672188Y-154846245D01*
X105550139Y-155140172D01*
X105549861Y-155458432D01*
X105671397Y-155752572D01*
X105896245Y-155977812D01*
X106190172Y-156099861D01*
X106508432Y-156100139D01*
X106802572Y-155978603D01*
X107027812Y-155753755D01*
X107149861Y-155459828D01*
X107150139Y-155141568D01*
X107150139Y-166400000D01*
X101200139Y-166400000D01*
X101200139Y-141841568D01*
X101078603Y-141547428D01*
X100853755Y-141322188D01*
X100559828Y-141200139D01*
X100241568Y-141199861D01*
X99947428Y-141321397D01*
X99722188Y-141546245D01*
X99600139Y-141840172D01*
X99599967Y-142036356D01*
X99518162Y-142118162D01*
X99401105Y-142293351D01*
X99360000Y-142500000D01*
X99360000Y-142770972D01*
X99309828Y-142750139D01*
X98991568Y-142749861D01*
X98697428Y-142871397D01*
X98472188Y-143096245D01*
X98423979Y-143212344D01*
X97636292Y-144000031D01*
X97441568Y-143999861D01*
X97147428Y-144121397D01*
X96922188Y-144346245D01*
X96800139Y-144640172D01*
X96799861Y-144958432D01*
X96921397Y-145252572D01*
X97146245Y-145477812D01*
X97440172Y-145599861D01*
X97599955Y-145600000D01*
X97599861Y-145708432D01*
X97721397Y-146002572D01*
X97946245Y-146227812D01*
X98240172Y-146349861D01*
X98558432Y-146350139D01*
X98852572Y-146228603D01*
X99077812Y-146003755D01*
X99199861Y-145709828D01*
X99200139Y-145391568D01*
X99191943Y-145371732D01*
X100281834Y-144281840D01*
X100281837Y-144281838D01*
X100281838Y-144281838D01*
X100398895Y-144106649D01*
X100440000Y-143900000D01*
X100440000Y-143200000D01*
X100440000Y-143150000D01*
X100440000Y-142800035D01*
X100558432Y-142800139D01*
X100852572Y-142678603D01*
X101077812Y-142453755D01*
X101199861Y-142159828D01*
X101200139Y-141841568D01*
X101200139Y-166400000D01*
X96331500Y-166400000D01*
X96331500Y-125440000D01*
X96331500Y-122650000D01*
X94875000Y-122650000D01*
X94775000Y-122750000D01*
X94775000Y-125060435D01*
X94775000Y-125219565D01*
X94835896Y-125366582D01*
X94948418Y-125479104D01*
X95095435Y-125540000D01*
X96231500Y-125540000D01*
X96331500Y-125440000D01*
X96331500Y-166400000D01*
X95200139Y-166400000D01*
X95200139Y-141341568D01*
X95078603Y-141047428D01*
X94853755Y-140822188D01*
X94559828Y-140700139D01*
X94241568Y-140699861D01*
X93947428Y-140821397D01*
X93722188Y-141046245D01*
X93600139Y-141340172D01*
X93599967Y-141536356D01*
X93368162Y-141768162D01*
X93368159Y-141768165D01*
X92636293Y-142500031D01*
X92441568Y-142499861D01*
X92147428Y-142621397D01*
X91922188Y-142846245D01*
X91800139Y-143140172D01*
X91799861Y-143458432D01*
X91921397Y-143752572D01*
X92146245Y-143977812D01*
X92440172Y-144099861D01*
X92758432Y-144100139D01*
X93052572Y-143978603D01*
X93277812Y-143753755D01*
X93399861Y-143459828D01*
X93400032Y-143263643D01*
X94131834Y-142531840D01*
X94131838Y-142531838D01*
X94131838Y-142531837D01*
X94363707Y-142299968D01*
X94558432Y-142300139D01*
X94852572Y-142178603D01*
X95077812Y-141953755D01*
X95199861Y-141659828D01*
X95200139Y-141341568D01*
X95200139Y-166400000D01*
X93990151Y-166400000D01*
X93769640Y-166443862D01*
X93574351Y-166574351D01*
X93443862Y-166769640D01*
X93400000Y-166990151D01*
X93400000Y-167320858D01*
X93292924Y-167277787D01*
X93222213Y-167348498D01*
X93222213Y-167207076D01*
X93148118Y-167022877D01*
X92724854Y-166849232D01*
X92267358Y-166850781D01*
X91851882Y-167022877D01*
X91777787Y-167207076D01*
X92500000Y-167929289D01*
X93222213Y-167207076D01*
X93222213Y-167348498D01*
X92570711Y-168000000D01*
X93292924Y-168722213D01*
X93400000Y-168679141D01*
X93400000Y-169009849D01*
X93443862Y-169230360D01*
X93574351Y-169425649D01*
X93769640Y-169556138D01*
X93990151Y-169600000D01*
X99124834Y-169600000D01*
X99000174Y-169900215D01*
X98999827Y-170298040D01*
X99151747Y-170665714D01*
X99432806Y-170947264D01*
X99800215Y-171099826D01*
X100198040Y-171100173D01*
X100565714Y-170948253D01*
X100847264Y-170667194D01*
X100999826Y-170299785D01*
X100999827Y-170298041D01*
X101151747Y-170665714D01*
X101432806Y-170947264D01*
X101800215Y-171099826D01*
X102198040Y-171100173D01*
X102565714Y-170948253D01*
X102847264Y-170667194D01*
X102999826Y-170299785D01*
X103000173Y-169901960D01*
X102875405Y-169600000D01*
X110124834Y-169600000D01*
X110000174Y-169900215D01*
X109999827Y-170298040D01*
X110151747Y-170665714D01*
X110432806Y-170947264D01*
X110800215Y-171099826D01*
X111198040Y-171100173D01*
X111565714Y-170948253D01*
X111847264Y-170667194D01*
X111999826Y-170299785D01*
X111999827Y-170298041D01*
X112151747Y-170665714D01*
X112432806Y-170947264D01*
X112800215Y-171099826D01*
X113198040Y-171100173D01*
X113565714Y-170948253D01*
X113847264Y-170667194D01*
X113999826Y-170299785D01*
X114000173Y-169901960D01*
X113875405Y-169600000D01*
X115009849Y-169600000D01*
X115230360Y-169556138D01*
X115425649Y-169425649D01*
X115556138Y-169230360D01*
X115600000Y-169009849D01*
X115600000Y-168679141D01*
X115707076Y-168722213D01*
X116429289Y-168000000D01*
X116429289Y-168141422D01*
X115777787Y-168792924D01*
X115851882Y-168977123D01*
X116275146Y-169150768D01*
X116732642Y-169149219D01*
X117148118Y-168977123D01*
X117222213Y-168792924D01*
X117222213Y-169463450D01*
X117152736Y-169532806D01*
X117000174Y-169900215D01*
X116999827Y-170298040D01*
X117151747Y-170665714D01*
X117432806Y-170947264D01*
X117800215Y-171099826D01*
X118198040Y-171100173D01*
X118565714Y-170948253D01*
X118847264Y-170667194D01*
X118999826Y-170299785D01*
X118999827Y-170298041D01*
X119151747Y-170665714D01*
X119432806Y-170947264D01*
X119800215Y-171099826D01*
X120198040Y-171100173D01*
X120565714Y-170948253D01*
X120847264Y-170667194D01*
X120999826Y-170299785D01*
X121000173Y-169901960D01*
X121000173Y-172900000D01*
X93222213Y-172900000D01*
X93222213Y-168792924D01*
X92500000Y-168070711D01*
X91777787Y-168792924D01*
X91851882Y-168977123D01*
X92275146Y-169150768D01*
X92732642Y-169149219D01*
X93148118Y-168977123D01*
X93222213Y-168792924D01*
X93222213Y-172900000D01*
X92009849Y-172900000D01*
X91847676Y-172867742D01*
X91718543Y-172781457D01*
X91632258Y-172652324D01*
X91600000Y-172490151D01*
X91600000Y-170914026D01*
X91847264Y-170667194D01*
X91999826Y-170299785D01*
X92000173Y-169901960D01*
X91848253Y-169534286D01*
X91600000Y-169285599D01*
X91600000Y-168679141D01*
X91707076Y-168722213D01*
X92429289Y-168000000D01*
X91707076Y-167277787D01*
X91600000Y-167320858D01*
X91600000Y-166990151D01*
X91556138Y-166769640D01*
X91425649Y-166574351D01*
X91230360Y-166443862D01*
X91009849Y-166400000D01*
X89650199Y-166400000D01*
X89650199Y-146272254D01*
X89475491Y-145849428D01*
X89225000Y-145598499D01*
X89225000Y-125219565D01*
X89225000Y-125060435D01*
X89225000Y-122750000D01*
X89125000Y-122650000D01*
X87668500Y-122650000D01*
X87668500Y-125440000D01*
X87768500Y-125540000D01*
X88904565Y-125540000D01*
X89051582Y-125479104D01*
X89164104Y-125366582D01*
X89225000Y-125219565D01*
X89225000Y-145598499D01*
X89152273Y-145525646D01*
X88950139Y-145441712D01*
X88950139Y-142541568D01*
X88828603Y-142247428D01*
X88603755Y-142022188D01*
X88309828Y-141900139D01*
X87991568Y-141899861D01*
X87749212Y-142000000D01*
X87568500Y-142000000D01*
X87568500Y-125440000D01*
X87568500Y-122650000D01*
X86112000Y-122650000D01*
X86012000Y-122750000D01*
X86012000Y-125060435D01*
X86012000Y-125219565D01*
X86072896Y-125366582D01*
X86185418Y-125479104D01*
X86332435Y-125540000D01*
X87468500Y-125540000D01*
X87568500Y-125440000D01*
X87568500Y-142000000D01*
X85831518Y-142000000D01*
X85803755Y-141972188D01*
X85509828Y-141850139D01*
X85191568Y-141849861D01*
X84897428Y-141971397D01*
X84672188Y-142196245D01*
X84550139Y-142490172D01*
X84549861Y-142808432D01*
X84671397Y-143102572D01*
X84896245Y-143327812D01*
X85190172Y-143449861D01*
X85508432Y-143450139D01*
X85802572Y-143328603D01*
X85831224Y-143300000D01*
X87618568Y-143300000D01*
X87696245Y-143377812D01*
X87990172Y-143499861D01*
X88308432Y-143500139D01*
X88602572Y-143378603D01*
X88827812Y-143153755D01*
X88949861Y-142859828D01*
X88950139Y-142541568D01*
X88950139Y-145441712D01*
X88729753Y-145350200D01*
X88272254Y-145349801D01*
X87849428Y-145524509D01*
X87525646Y-145847727D01*
X87350200Y-146270247D01*
X87349801Y-146727746D01*
X87524509Y-147150572D01*
X87847727Y-147474354D01*
X88270247Y-147649800D01*
X88727746Y-147650199D01*
X89150572Y-147475491D01*
X89474354Y-147152273D01*
X89649800Y-146729753D01*
X89650199Y-146272254D01*
X89650199Y-166400000D01*
X79509849Y-166400000D01*
X79347676Y-166367742D01*
X79218543Y-166281457D01*
X79132258Y-166152324D01*
X79100000Y-165990151D01*
X79100000Y-161884851D01*
X79115940Y-161923429D01*
X80071540Y-162880699D01*
X81320731Y-163399409D01*
X82673335Y-163400589D01*
X83923429Y-162884060D01*
X84880699Y-161928460D01*
X85399409Y-160679269D01*
X85400589Y-159326665D01*
X84884060Y-158076571D01*
X83928460Y-157119301D01*
X82679269Y-156600591D01*
X82650199Y-156600565D01*
X82650199Y-146272254D01*
X82475491Y-145849428D01*
X82152273Y-145525646D01*
X81729753Y-145350200D01*
X81272254Y-145349801D01*
X80849428Y-145524509D01*
X80525646Y-145847727D01*
X80350200Y-146270247D01*
X80349801Y-146727746D01*
X80524509Y-147150572D01*
X80847727Y-147474354D01*
X81270247Y-147649800D01*
X81727746Y-147650199D01*
X82150572Y-147475491D01*
X82474354Y-147152273D01*
X82649800Y-146729753D01*
X82650199Y-146272254D01*
X82650199Y-156600565D01*
X81326665Y-156599411D01*
X80076571Y-157115940D01*
X79119301Y-158071540D01*
X79100000Y-158118021D01*
X79100000Y-129884851D01*
X79115940Y-129923429D01*
X80071540Y-130880699D01*
X81320731Y-131399409D01*
X82673335Y-131400589D01*
X83923429Y-130884060D01*
X84880699Y-129928460D01*
X85399409Y-128679269D01*
X85400589Y-127326665D01*
X84884060Y-126076571D01*
X83928460Y-125119301D01*
X82679269Y-124600591D01*
X81326665Y-124599411D01*
X80076571Y-125115940D01*
X79119301Y-126071540D01*
X79100000Y-126118021D01*
X79100000Y-121109849D01*
X79132258Y-120947676D01*
X79218543Y-120818543D01*
X79347676Y-120732258D01*
X79509849Y-120700000D01*
X86012000Y-120700000D01*
X86012000Y-122450000D01*
X86112000Y-122550000D01*
X87568500Y-122550000D01*
X87568500Y-122530000D01*
X87668500Y-122530000D01*
X87668500Y-122550000D01*
X89125000Y-122550000D01*
X89225000Y-122450000D01*
X89225000Y-120700000D01*
X94775000Y-120700000D01*
X94775000Y-122450000D01*
X94875000Y-122550000D01*
X96331500Y-122550000D01*
X96331500Y-122530000D01*
X96431500Y-122530000D01*
X96431500Y-122550000D01*
X97888000Y-122550000D01*
X97988000Y-122450000D01*
X97988000Y-120700000D01*
X99190151Y-120700000D01*
X99352324Y-120732258D01*
X99481457Y-120818543D01*
X99567742Y-120947676D01*
X99600000Y-121109849D01*
X99600000Y-127540151D01*
X99567742Y-127702324D01*
X99481457Y-127831457D01*
X99352324Y-127917742D01*
X99190151Y-127950000D01*
X97988000Y-127950000D01*
X97988000Y-125219565D01*
X97988000Y-125060435D01*
X97988000Y-122750000D01*
X97888000Y-122650000D01*
X96431500Y-122650000D01*
X96431500Y-125440000D01*
X96531500Y-125540000D01*
X97667565Y-125540000D01*
X97814582Y-125479104D01*
X97927104Y-125366582D01*
X97988000Y-125219565D01*
X97988000Y-127950000D01*
X97790151Y-127950000D01*
X97569640Y-127993862D01*
X97374351Y-128124351D01*
X97243862Y-128319640D01*
X97200000Y-128540151D01*
X97200000Y-140134849D01*
X97241959Y-140345793D01*
X97367028Y-140532972D01*
X97554207Y-140658041D01*
X97775000Y-140701959D01*
X97995793Y-140658041D01*
X98182972Y-140532972D01*
X98308041Y-140345793D01*
X98350000Y-140134849D01*
X98350000Y-129359849D01*
X98382258Y-129197676D01*
X98468543Y-129068543D01*
X98597676Y-128982258D01*
X98759849Y-128950000D01*
X100209849Y-128950000D01*
X100430360Y-128906138D01*
X100625649Y-128775649D01*
X100756138Y-128580360D01*
X100800000Y-128359849D01*
X100800000Y-122309849D01*
X100832258Y-122147676D01*
X100918543Y-122018543D01*
X101047676Y-121932258D01*
X101209849Y-121900000D01*
X111490151Y-121900000D01*
X111652324Y-121932258D01*
X111781457Y-122018543D01*
X111867742Y-122147676D01*
X111900000Y-122309849D01*
X111900000Y-134536732D01*
X111892857Y-134539684D01*
X111540919Y-134891007D01*
X111350217Y-135350269D01*
X111349783Y-135847550D01*
X111539684Y-136307143D01*
X111832231Y-136600203D01*
X111540919Y-136891007D01*
X111350217Y-137350269D01*
X111349783Y-137847550D01*
X111539684Y-138307143D01*
X111832231Y-138600203D01*
X111540919Y-138891007D01*
X111350217Y-139350269D01*
X111349783Y-139847550D01*
X111539684Y-140307143D01*
X111832231Y-140600203D01*
X111540919Y-140891007D01*
X111350217Y-141350269D01*
X111349783Y-141847550D01*
X111539684Y-142307143D01*
X111832231Y-142600203D01*
X111540919Y-142891007D01*
X111350217Y-143350269D01*
X111349783Y-143847550D01*
X111539684Y-144307143D01*
X111855163Y-144623174D01*
X111805619Y-144734909D01*
X112600000Y-145529289D01*
X113394381Y-144734909D01*
X113344687Y-144622837D01*
X113659081Y-144308993D01*
X113849783Y-143849731D01*
X113850217Y-143352450D01*
X113660316Y-142892857D01*
X113367768Y-142599796D01*
X113659081Y-142308993D01*
X113849783Y-141849731D01*
X113850217Y-141352450D01*
X113660316Y-140892857D01*
X113367768Y-140599796D01*
X113659081Y-140308993D01*
X113849783Y-139849731D01*
X113850217Y-139352450D01*
X113660316Y-138892857D01*
X113367768Y-138599796D01*
X113659081Y-138308993D01*
X113849783Y-137849731D01*
X113850217Y-137352450D01*
X113660316Y-136892857D01*
X113367768Y-136599796D01*
X113659081Y-136308993D01*
X113849783Y-135849731D01*
X113850217Y-135352450D01*
X113660316Y-134892857D01*
X113308993Y-134540919D01*
X113100000Y-134454137D01*
X113100000Y-121109849D01*
X113132258Y-120947676D01*
X113218543Y-120818543D01*
X113347676Y-120732258D01*
X113509849Y-120700000D01*
X114012000Y-120700000D01*
X114012000Y-122450000D01*
X114112000Y-122550000D01*
X115568500Y-122550000D01*
X115568500Y-122530000D01*
X115668500Y-122530000D01*
X115668500Y-122550000D01*
X117125000Y-122550000D01*
X117225000Y-122450000D01*
X117225000Y-120700000D01*
X122775000Y-120700000D01*
X122775000Y-122450000D01*
X122875000Y-122550000D01*
X124331500Y-122550000D01*
X124331500Y-122530000D01*
X124431500Y-122530000D01*
X124431500Y-122550000D01*
X125888000Y-122550000D01*
X125988000Y-122450000D01*
X125988000Y-120700000D01*
X132490151Y-120700000D01*
X132652324Y-120732258D01*
X132781457Y-120818543D01*
X132867742Y-120947676D01*
X132900000Y-121109849D01*
X132900000Y-126115148D01*
X132884060Y-126076571D01*
X131928460Y-125119301D01*
X130679269Y-124600591D01*
X129326665Y-124599411D01*
X128076571Y-125115940D01*
X127119301Y-126071540D01*
X126600591Y-127320731D01*
X126599411Y-128673335D01*
X127115940Y-129923429D01*
X128071540Y-130880699D01*
X129320731Y-131399409D01*
X130673335Y-131400589D01*
X131923429Y-130884060D01*
X132880699Y-129928460D01*
X132900000Y-129881978D01*
X132900000Y-158115148D01*
X132884060Y-158076571D01*
X132350217Y-157541795D01*
X132350217Y-135852450D01*
X132160316Y-135392857D01*
X131808993Y-135040919D01*
X131349731Y-134850217D01*
X130852450Y-134849783D01*
X130392857Y-135039684D01*
X130076825Y-135355163D01*
X129965091Y-135305619D01*
X129894381Y-135376329D01*
X129894381Y-135234909D01*
X129808098Y-135040321D01*
X129348676Y-134850007D01*
X128851395Y-134849993D01*
X128391962Y-135040281D01*
X128391902Y-135040321D01*
X128305619Y-135234909D01*
X129100000Y-136029289D01*
X129894381Y-135234909D01*
X129894381Y-135376329D01*
X129170711Y-136100000D01*
X129965091Y-136894381D01*
X130077162Y-136844687D01*
X130391007Y-137159081D01*
X130850269Y-137349783D01*
X131347550Y-137350217D01*
X131807143Y-137160316D01*
X132159081Y-136808993D01*
X132349783Y-136349731D01*
X132350217Y-135852450D01*
X132350217Y-157541795D01*
X131928460Y-157119301D01*
X130679269Y-156600591D01*
X129894381Y-156599906D01*
X129894381Y-136965091D01*
X129100000Y-136170711D01*
X129029289Y-136241421D01*
X129029289Y-136100000D01*
X128234909Y-135305619D01*
X128040321Y-135391902D01*
X127850007Y-135851324D01*
X127849993Y-136348605D01*
X128040281Y-136808038D01*
X128040321Y-136808098D01*
X128234909Y-136894381D01*
X129029289Y-136100000D01*
X129029289Y-136241421D01*
X128305619Y-136965091D01*
X128391902Y-137159679D01*
X128851324Y-137349993D01*
X129348605Y-137350007D01*
X129808038Y-137159719D01*
X129808098Y-137159679D01*
X129894381Y-136965091D01*
X129894381Y-156599906D01*
X129326665Y-156599411D01*
X128076571Y-157115940D01*
X127119301Y-158071540D01*
X126600591Y-159320731D01*
X126599411Y-160673335D01*
X127115940Y-161923429D01*
X128071540Y-162880699D01*
X129320731Y-163399409D01*
X130673335Y-163400589D01*
X131923429Y-162884060D01*
X132880699Y-161928460D01*
X132900000Y-161881978D01*
X132900000Y-165990151D01*
X132900000Y-165990151D01*
G37*
X132900000Y-165990151D02*
X132867742Y-166152324D01*
X132781457Y-166281457D01*
X132652324Y-166367742D01*
X132490151Y-166400000D01*
X126990151Y-166400000D01*
X126769640Y-166443862D01*
X126574351Y-166574351D01*
X126443862Y-166769640D01*
X126400000Y-166990151D01*
X126400000Y-169285973D01*
X126234565Y-169451119D01*
X126214516Y-169464516D01*
X126201236Y-169484390D01*
X126152736Y-169532806D01*
X126000174Y-169900215D01*
X126000172Y-169901958D01*
X125988000Y-169872499D01*
X125988000Y-125219565D01*
X125988000Y-125060435D01*
X125988000Y-122750000D01*
X125888000Y-122650000D01*
X124431500Y-122650000D01*
X124431500Y-125440000D01*
X124531500Y-125540000D01*
X125667565Y-125540000D01*
X125814582Y-125479104D01*
X125927104Y-125366582D01*
X125988000Y-125219565D01*
X125988000Y-169872499D01*
X125848253Y-169534286D01*
X125567194Y-169252736D01*
X125199785Y-169100174D01*
X124801960Y-169099827D01*
X124650768Y-169162298D01*
X124650768Y-168224854D01*
X124649219Y-167767358D01*
X124477123Y-167351882D01*
X124331500Y-167293304D01*
X124331500Y-125440000D01*
X124331500Y-122650000D01*
X122875000Y-122650000D01*
X122775000Y-122750000D01*
X122775000Y-125060435D01*
X122775000Y-125219565D01*
X122835896Y-125366582D01*
X122948418Y-125479104D01*
X123095435Y-125540000D01*
X124231500Y-125540000D01*
X124331500Y-125440000D01*
X124331500Y-167293304D01*
X124292924Y-167277787D01*
X124222213Y-167348498D01*
X124222213Y-167207076D01*
X124148118Y-167022877D01*
X123724854Y-166849232D01*
X123267358Y-166850781D01*
X122851882Y-167022877D01*
X122777787Y-167207076D01*
X123500000Y-167929289D01*
X124222213Y-167207076D01*
X124222213Y-167348498D01*
X123570711Y-168000000D01*
X124292924Y-168722213D01*
X124477123Y-168648118D01*
X124650768Y-168224854D01*
X124650768Y-169162298D01*
X124434286Y-169251747D01*
X124222213Y-169463450D01*
X124222213Y-168792924D01*
X123500000Y-168070711D01*
X123429289Y-168141422D01*
X123429289Y-168000000D01*
X122707076Y-167277787D01*
X122522877Y-167351882D01*
X122499773Y-167408196D01*
X122475491Y-167349428D01*
X122152273Y-167025646D01*
X121729753Y-166850200D01*
X121272254Y-166849801D01*
X120849428Y-167024509D01*
X120525646Y-167347727D01*
X120350200Y-167770247D01*
X120349801Y-168227746D01*
X120524509Y-168650572D01*
X120847727Y-168974354D01*
X121270247Y-169149800D01*
X121727746Y-169150199D01*
X122150572Y-168975491D01*
X122474354Y-168652273D01*
X122499507Y-168591697D01*
X122522877Y-168648118D01*
X122707076Y-168722213D01*
X123429289Y-168000000D01*
X123429289Y-168141422D01*
X122777787Y-168792924D01*
X122851882Y-168977123D01*
X123275146Y-169150768D01*
X123732642Y-169149219D01*
X124148118Y-168977123D01*
X124222213Y-168792924D01*
X124222213Y-169463450D01*
X124152736Y-169532806D01*
X124000174Y-169900215D01*
X123999827Y-170298040D01*
X124151747Y-170665714D01*
X124432806Y-170947264D01*
X124800215Y-171099826D01*
X125198040Y-171100173D01*
X125565714Y-170948253D01*
X125847264Y-170667194D01*
X125999826Y-170299785D01*
X125999827Y-170298041D01*
X126150000Y-170661485D01*
X126150000Y-172490151D01*
X126117742Y-172652324D01*
X126031457Y-172781457D01*
X125902324Y-172867742D01*
X125740151Y-172900000D01*
X121000173Y-172900000D01*
X121000173Y-169901960D01*
X120848253Y-169534286D01*
X120567194Y-169252736D01*
X120199785Y-169100174D01*
X119801960Y-169099827D01*
X119434286Y-169251747D01*
X119152736Y-169532806D01*
X119000174Y-169900215D01*
X119000172Y-169901958D01*
X118848253Y-169534286D01*
X118567194Y-169252736D01*
X118400139Y-169183368D01*
X118400139Y-145741568D01*
X118278603Y-145447428D01*
X118181371Y-145350027D01*
X118277812Y-145253755D01*
X118399861Y-144959828D01*
X118400139Y-144641568D01*
X118278603Y-144347428D01*
X118053755Y-144122188D01*
X117759828Y-144000139D01*
X117441568Y-143999861D01*
X117225000Y-144089344D01*
X117225000Y-125219565D01*
X117225000Y-125060435D01*
X117225000Y-122750000D01*
X117125000Y-122650000D01*
X115668500Y-122650000D01*
X115668500Y-125440000D01*
X115768500Y-125540000D01*
X116904565Y-125540000D01*
X117051582Y-125479104D01*
X117164104Y-125366582D01*
X117225000Y-125219565D01*
X117225000Y-144089344D01*
X117147428Y-144121397D01*
X117008583Y-144260000D01*
X115691327Y-144260000D01*
X115568500Y-144136958D01*
X115568500Y-125440000D01*
X115568500Y-122650000D01*
X114112000Y-122650000D01*
X114012000Y-122750000D01*
X114012000Y-125060435D01*
X114012000Y-125219565D01*
X114072896Y-125366582D01*
X114185418Y-125479104D01*
X114332435Y-125540000D01*
X115468500Y-125540000D01*
X115568500Y-125440000D01*
X115568500Y-144136958D01*
X115553755Y-144122188D01*
X115259828Y-144000139D01*
X114941568Y-143999861D01*
X114647428Y-144121397D01*
X114422188Y-144346245D01*
X114300139Y-144640172D01*
X114299861Y-144958432D01*
X114421397Y-145252572D01*
X114568541Y-145399972D01*
X114522188Y-145446245D01*
X114400139Y-145740172D01*
X114399861Y-146058432D01*
X114521397Y-146352572D01*
X114746245Y-146577812D01*
X115040172Y-146699861D01*
X115358432Y-146700139D01*
X115652572Y-146578603D01*
X115791416Y-146440000D01*
X117008672Y-146440000D01*
X117146245Y-146577812D01*
X117440172Y-146699861D01*
X117758432Y-146700139D01*
X118052572Y-146578603D01*
X118277812Y-146353755D01*
X118399861Y-146059828D01*
X118400139Y-145741568D01*
X118400139Y-169183368D01*
X118199785Y-169100174D01*
X117801960Y-169099827D01*
X117650768Y-169162298D01*
X117650768Y-168224854D01*
X117649219Y-167767358D01*
X117477123Y-167351882D01*
X117292924Y-167277787D01*
X117222213Y-167348498D01*
X117222213Y-167207076D01*
X117148118Y-167022877D01*
X116724854Y-166849232D01*
X116267358Y-166850781D01*
X116200139Y-166878624D01*
X116200139Y-150041568D01*
X116078603Y-149747428D01*
X115940000Y-149608583D01*
X115940000Y-148103989D01*
X115999861Y-147959828D01*
X116000139Y-147641568D01*
X115878603Y-147347428D01*
X115653755Y-147122188D01*
X115359828Y-147000139D01*
X115041568Y-146999861D01*
X114747428Y-147121397D01*
X114522188Y-147346245D01*
X114400139Y-147640172D01*
X114399861Y-147958432D01*
X114521397Y-148252572D01*
X114746245Y-148477812D01*
X114860000Y-148525047D01*
X114860000Y-149608672D01*
X114722188Y-149746245D01*
X114600139Y-150040172D01*
X114599861Y-150358432D01*
X114721397Y-150652572D01*
X114946245Y-150877812D01*
X115240172Y-150999861D01*
X115558432Y-151000139D01*
X115852572Y-150878603D01*
X116077812Y-150653755D01*
X116199861Y-150359828D01*
X116200139Y-150041568D01*
X116200139Y-166878624D01*
X115851882Y-167022877D01*
X115777787Y-167207076D01*
X116500000Y-167929289D01*
X117222213Y-167207076D01*
X117222213Y-167348498D01*
X116570711Y-168000000D01*
X117292924Y-168722213D01*
X117477123Y-168648118D01*
X117650768Y-168224854D01*
X117650768Y-169162298D01*
X117434286Y-169251747D01*
X117222213Y-169463450D01*
X117222213Y-168792924D01*
X116500000Y-168070711D01*
X116429289Y-168141422D01*
X116429289Y-168000000D01*
X115707076Y-167277787D01*
X115600000Y-167320858D01*
X115600000Y-166990151D01*
X115556138Y-166769640D01*
X115425649Y-166574351D01*
X115230360Y-166443862D01*
X115009849Y-166400000D01*
X113850007Y-166400000D01*
X113850007Y-145351395D01*
X113659719Y-144891962D01*
X113659679Y-144891902D01*
X113465091Y-144805619D01*
X112670711Y-145600000D01*
X113465091Y-146394381D01*
X113659679Y-146308098D01*
X113849993Y-145848676D01*
X113850007Y-145351395D01*
X113850007Y-166400000D01*
X113394381Y-166400000D01*
X113394381Y-146465091D01*
X112600000Y-145670711D01*
X112529289Y-145741421D01*
X112529289Y-145600000D01*
X111734909Y-144805619D01*
X111540321Y-144891902D01*
X111350007Y-145351324D01*
X111349993Y-145848605D01*
X111540281Y-146308038D01*
X111540321Y-146308098D01*
X111734909Y-146394381D01*
X112529289Y-145600000D01*
X112529289Y-145741421D01*
X111805619Y-146465091D01*
X111891902Y-146659679D01*
X112351324Y-146849993D01*
X112848605Y-146850007D01*
X113308038Y-146659719D01*
X113308098Y-146659679D01*
X113394381Y-146465091D01*
X113394381Y-166400000D01*
X111200139Y-166400000D01*
X111200139Y-133041568D01*
X111078603Y-132747428D01*
X110853755Y-132522188D01*
X110600139Y-132416877D01*
X110600139Y-129941568D01*
X110478603Y-129647428D01*
X110253755Y-129422188D01*
X109959828Y-129300139D01*
X109641568Y-129299861D01*
X109347428Y-129421397D01*
X109308757Y-129460000D01*
X105823928Y-129460000D01*
X105595012Y-129230684D01*
X105261405Y-129092158D01*
X104900180Y-129091843D01*
X104566331Y-129229786D01*
X104445012Y-129350893D01*
X104325012Y-129230684D01*
X103991405Y-129092158D01*
X103630180Y-129091843D01*
X103296331Y-129229786D01*
X103175012Y-129350893D01*
X103055012Y-129230684D01*
X102721405Y-129092158D01*
X102360180Y-129091843D01*
X102026331Y-129229786D01*
X101905012Y-129350893D01*
X101785012Y-129230684D01*
X101451405Y-129092158D01*
X101090180Y-129091843D01*
X100756331Y-129229786D01*
X100635012Y-129350893D01*
X100515012Y-129230684D01*
X100181405Y-129092158D01*
X99820180Y-129091843D01*
X99486331Y-129229786D01*
X99255715Y-129460000D01*
X99250000Y-129460000D01*
X99043351Y-129501105D01*
X98868162Y-129618162D01*
X98868159Y-129618165D01*
X98618162Y-129868162D01*
X98501105Y-130043351D01*
X98460000Y-130250000D01*
X98460000Y-131750000D01*
X98501105Y-131956649D01*
X98618162Y-132131838D01*
X99618159Y-133131834D01*
X99618162Y-133131838D01*
X99618163Y-133131838D01*
X99793351Y-133248895D01*
X100000000Y-133290001D01*
X100000000Y-133290000D01*
X100000005Y-133290000D01*
X100776324Y-133290000D01*
X100927470Y-133441146D01*
X100822188Y-133546245D01*
X100700139Y-133840172D01*
X100699861Y-134158432D01*
X100821397Y-134452572D01*
X101046245Y-134677812D01*
X101340172Y-134799861D01*
X101658432Y-134800139D01*
X101952572Y-134678603D01*
X102177812Y-134453755D01*
X102299861Y-134159828D01*
X102300139Y-133841568D01*
X102178603Y-133547428D01*
X102040000Y-133408583D01*
X102040000Y-133250005D01*
X102040000Y-133250000D01*
X102040001Y-133250000D01*
X101998895Y-133043351D01*
X101881838Y-132868162D01*
X101817494Y-132803818D01*
X101381838Y-132368162D01*
X101206649Y-132251105D01*
X101000000Y-132210000D01*
X100223675Y-132210000D01*
X100188320Y-132174644D01*
X100513669Y-132040214D01*
X100623790Y-131930283D01*
X100652110Y-131958603D01*
X100722506Y-131888206D01*
X100767079Y-132047275D01*
X101102812Y-132180568D01*
X101463998Y-132175235D01*
X101772921Y-132047275D01*
X101817494Y-131888205D01*
X101270000Y-131340711D01*
X101255858Y-131354853D01*
X101185146Y-131284141D01*
X101199289Y-131270000D01*
X101185147Y-131255858D01*
X101255858Y-131185147D01*
X101270000Y-131199289D01*
X101284141Y-131185146D01*
X101354852Y-131255857D01*
X101340711Y-131270000D01*
X101705515Y-131634804D01*
X101762725Y-131772921D01*
X101875128Y-131804417D01*
X101888205Y-131817494D01*
X101905000Y-131812787D01*
X101921795Y-131817494D01*
X101934871Y-131804417D01*
X102047275Y-131772921D01*
X102100546Y-131638742D01*
X102469289Y-131270000D01*
X102455147Y-131255858D01*
X102525858Y-131185147D01*
X102540000Y-131199289D01*
X102554141Y-131185146D01*
X102624852Y-131255857D01*
X102610711Y-131270000D01*
X102624853Y-131284142D01*
X102554142Y-131354853D01*
X102540000Y-131340711D01*
X101992506Y-131888205D01*
X102037079Y-132047275D01*
X102372812Y-132180568D01*
X102733998Y-132175235D01*
X103042921Y-132047275D01*
X103087493Y-131888206D01*
X103087494Y-131888207D01*
X103157890Y-131958603D01*
X103186177Y-131930315D01*
X103294988Y-132039316D01*
X103628595Y-132177842D01*
X103989820Y-132178157D01*
X104323669Y-132040214D01*
X104433790Y-131930283D01*
X104462110Y-131958603D01*
X104532506Y-131888206D01*
X104577079Y-132047275D01*
X104912812Y-132180568D01*
X105273998Y-132175235D01*
X105582921Y-132047275D01*
X105627494Y-131888205D01*
X105080000Y-131340711D01*
X105065858Y-131354853D01*
X104995146Y-131284141D01*
X105009289Y-131270000D01*
X104995147Y-131255858D01*
X105065858Y-131185147D01*
X105080000Y-131199289D01*
X105094141Y-131185146D01*
X105164853Y-131255858D01*
X105150711Y-131270000D01*
X105698205Y-131817494D01*
X105857275Y-131772921D01*
X105990568Y-131437188D01*
X105985235Y-131076002D01*
X105857275Y-130767079D01*
X105698206Y-130722506D01*
X105768603Y-130652110D01*
X105740315Y-130623822D01*
X105824284Y-130540000D01*
X109116202Y-130540000D01*
X109121397Y-130552572D01*
X109346245Y-130777812D01*
X109640172Y-130899861D01*
X109958432Y-130900139D01*
X110252572Y-130778603D01*
X110477812Y-130553755D01*
X110599861Y-130259828D01*
X110600139Y-129941568D01*
X110600139Y-132416877D01*
X110559828Y-132400139D01*
X110241568Y-132399861D01*
X109947428Y-132521397D01*
X109918775Y-132550000D01*
X105990568Y-132550000D01*
X105627494Y-132550000D01*
X103681518Y-132550000D01*
X103653755Y-132522188D01*
X103359828Y-132400139D01*
X103087494Y-132399901D01*
X103041568Y-132399861D01*
X102747428Y-132521397D01*
X102522188Y-132746245D01*
X102400139Y-133040172D01*
X102399861Y-133358432D01*
X102521397Y-133652572D01*
X102746245Y-133877812D01*
X103040172Y-133999861D01*
X103358432Y-134000139D01*
X103652572Y-133878603D01*
X103681224Y-133850000D01*
X109918481Y-133850000D01*
X109946245Y-133877812D01*
X110240172Y-133999861D01*
X110558432Y-134000139D01*
X110852572Y-133878603D01*
X111077812Y-133653755D01*
X111199861Y-133359828D01*
X111200139Y-133041568D01*
X111200139Y-166400000D01*
X110500139Y-166400000D01*
X110500139Y-139141568D01*
X110378603Y-138847428D01*
X110153755Y-138622188D01*
X109859828Y-138500139D01*
X109541568Y-138499861D01*
X109247428Y-138621397D01*
X109108583Y-138760000D01*
X106366435Y-138760000D01*
X106278603Y-138547428D01*
X106053755Y-138322188D01*
X105759828Y-138200139D01*
X105441568Y-138199861D01*
X105147428Y-138321397D01*
X104922188Y-138546245D01*
X104800139Y-138840172D01*
X104799861Y-139158432D01*
X104921397Y-139452572D01*
X105146245Y-139677812D01*
X105440172Y-139799861D01*
X105699345Y-139800087D01*
X105900000Y-139840000D01*
X109108672Y-139840000D01*
X109246245Y-139977812D01*
X109540172Y-140099861D01*
X109858432Y-140100139D01*
X110152572Y-139978603D01*
X110377812Y-139753755D01*
X110499861Y-139459828D01*
X110500139Y-139141568D01*
X110500139Y-166400000D01*
X110400139Y-166400000D01*
X110400139Y-149441568D01*
X110339104Y-149293853D01*
X110278603Y-149147428D01*
X110053755Y-148922188D01*
X110000139Y-148899924D01*
X110000139Y-147541568D01*
X109878603Y-147247428D01*
X109653755Y-147022188D01*
X109359828Y-146900139D01*
X109319341Y-146900103D01*
X109200139Y-146780901D01*
X109200139Y-144241568D01*
X109078603Y-143947428D01*
X108853755Y-143722188D01*
X108559828Y-143600139D01*
X108241568Y-143599861D01*
X107947428Y-143721397D01*
X107808583Y-143860000D01*
X107523676Y-143860000D01*
X107499968Y-143836292D01*
X107500139Y-143641568D01*
X107378603Y-143347428D01*
X107153755Y-143122188D01*
X106859828Y-143000139D01*
X106541568Y-142999861D01*
X106247428Y-143121397D01*
X106022188Y-143346245D01*
X105900139Y-143640172D01*
X105899861Y-143958432D01*
X106021397Y-144252572D01*
X106246245Y-144477812D01*
X106540172Y-144599861D01*
X106736356Y-144600032D01*
X106918162Y-144781838D01*
X107093351Y-144898895D01*
X107300000Y-144940000D01*
X107808672Y-144940000D01*
X107946245Y-145077812D01*
X108240172Y-145199861D01*
X108558432Y-145200139D01*
X108852572Y-145078603D01*
X109077812Y-144853755D01*
X109199861Y-144559828D01*
X109200139Y-144241568D01*
X109200139Y-146780901D01*
X107959619Y-145540381D01*
X107748745Y-145399478D01*
X107707475Y-145391269D01*
X107500000Y-145350000D01*
X107250000Y-145350000D01*
X107200000Y-145350000D01*
X106731518Y-145350000D01*
X106703755Y-145322188D01*
X106409828Y-145200139D01*
X106091568Y-145199861D01*
X105797428Y-145321397D01*
X105572188Y-145546245D01*
X105450139Y-145840172D01*
X105449861Y-146158432D01*
X105571397Y-146452572D01*
X105796245Y-146677812D01*
X106090172Y-146799861D01*
X106408432Y-146800139D01*
X106702572Y-146678603D01*
X106731224Y-146650000D01*
X107200000Y-146650000D01*
X107230762Y-146650000D01*
X108399895Y-147819133D01*
X108399861Y-147858432D01*
X108521397Y-148152572D01*
X108746245Y-148377812D01*
X109040172Y-148499861D01*
X109358432Y-148500139D01*
X109652572Y-148378603D01*
X109877812Y-148153755D01*
X109999861Y-147859828D01*
X110000139Y-147541568D01*
X110000139Y-148899924D01*
X109906147Y-148860896D01*
X109759828Y-148800139D01*
X109441568Y-148799861D01*
X109147428Y-148921397D01*
X108922188Y-149146245D01*
X108922048Y-149146581D01*
X108918630Y-149150000D01*
X107850000Y-149150000D01*
X107543853Y-149210896D01*
X107284315Y-149384315D01*
X106035382Y-150633247D01*
X105922188Y-150746245D01*
X105800139Y-151040172D01*
X105799861Y-151358432D01*
X105921397Y-151652572D01*
X106146245Y-151877812D01*
X106293853Y-151939104D01*
X106440172Y-151999861D01*
X106758432Y-152000139D01*
X106906147Y-151939104D01*
X107052572Y-151878603D01*
X107165685Y-151765685D01*
X107277812Y-151653755D01*
X107277951Y-151653418D01*
X108181370Y-150750000D01*
X109300000Y-150750000D01*
X109606147Y-150689104D01*
X109865685Y-150515685D01*
X109966370Y-150364999D01*
X110164617Y-150166752D01*
X110165685Y-150165685D01*
X110277812Y-150053755D01*
X110339104Y-149906147D01*
X110399861Y-149759828D01*
X110400139Y-149441568D01*
X110400139Y-166400000D01*
X107150139Y-166400000D01*
X107150139Y-155141568D01*
X107028603Y-154847428D01*
X107000000Y-154818775D01*
X107000000Y-153731518D01*
X107027812Y-153703755D01*
X107149861Y-153409828D01*
X107150139Y-153091568D01*
X107028603Y-152797428D01*
X106803755Y-152572188D01*
X106509828Y-152450139D01*
X106191568Y-152449861D01*
X105897428Y-152571397D01*
X105672188Y-152796245D01*
X105550139Y-153090172D01*
X105549861Y-153408432D01*
X105671397Y-153702572D01*
X105700000Y-153731224D01*
X105700000Y-154818481D01*
X105672188Y-154846245D01*
X105550139Y-155140172D01*
X105549861Y-155458432D01*
X105671397Y-155752572D01*
X105896245Y-155977812D01*
X106190172Y-156099861D01*
X106508432Y-156100139D01*
X106802572Y-155978603D01*
X107027812Y-155753755D01*
X107149861Y-155459828D01*
X107150139Y-155141568D01*
X107150139Y-166400000D01*
X101200139Y-166400000D01*
X101200139Y-141841568D01*
X101078603Y-141547428D01*
X100853755Y-141322188D01*
X100559828Y-141200139D01*
X100241568Y-141199861D01*
X99947428Y-141321397D01*
X99722188Y-141546245D01*
X99600139Y-141840172D01*
X99599967Y-142036356D01*
X99518162Y-142118162D01*
X99401105Y-142293351D01*
X99360000Y-142500000D01*
X99360000Y-142770972D01*
X99309828Y-142750139D01*
X98991568Y-142749861D01*
X98697428Y-142871397D01*
X98472188Y-143096245D01*
X98423979Y-143212344D01*
X97636292Y-144000031D01*
X97441568Y-143999861D01*
X97147428Y-144121397D01*
X96922188Y-144346245D01*
X96800139Y-144640172D01*
X96799861Y-144958432D01*
X96921397Y-145252572D01*
X97146245Y-145477812D01*
X97440172Y-145599861D01*
X97599955Y-145600000D01*
X97599861Y-145708432D01*
X97721397Y-146002572D01*
X97946245Y-146227812D01*
X98240172Y-146349861D01*
X98558432Y-146350139D01*
X98852572Y-146228603D01*
X99077812Y-146003755D01*
X99199861Y-145709828D01*
X99200139Y-145391568D01*
X99191943Y-145371732D01*
X100281834Y-144281840D01*
X100281837Y-144281838D01*
X100281838Y-144281838D01*
X100398895Y-144106649D01*
X100440000Y-143900000D01*
X100440000Y-143200000D01*
X100440000Y-143150000D01*
X100440000Y-142800035D01*
X100558432Y-142800139D01*
X100852572Y-142678603D01*
X101077812Y-142453755D01*
X101199861Y-142159828D01*
X101200139Y-141841568D01*
X101200139Y-166400000D01*
X96331500Y-166400000D01*
X96331500Y-125440000D01*
X96331500Y-122650000D01*
X94875000Y-122650000D01*
X94775000Y-122750000D01*
X94775000Y-125060435D01*
X94775000Y-125219565D01*
X94835896Y-125366582D01*
X94948418Y-125479104D01*
X95095435Y-125540000D01*
X96231500Y-125540000D01*
X96331500Y-125440000D01*
X96331500Y-166400000D01*
X95200139Y-166400000D01*
X95200139Y-141341568D01*
X95078603Y-141047428D01*
X94853755Y-140822188D01*
X94559828Y-140700139D01*
X94241568Y-140699861D01*
X93947428Y-140821397D01*
X93722188Y-141046245D01*
X93600139Y-141340172D01*
X93599967Y-141536356D01*
X93368162Y-141768162D01*
X93368159Y-141768165D01*
X92636293Y-142500031D01*
X92441568Y-142499861D01*
X92147428Y-142621397D01*
X91922188Y-142846245D01*
X91800139Y-143140172D01*
X91799861Y-143458432D01*
X91921397Y-143752572D01*
X92146245Y-143977812D01*
X92440172Y-144099861D01*
X92758432Y-144100139D01*
X93052572Y-143978603D01*
X93277812Y-143753755D01*
X93399861Y-143459828D01*
X93400032Y-143263643D01*
X94131834Y-142531840D01*
X94131838Y-142531838D01*
X94131838Y-142531837D01*
X94363707Y-142299968D01*
X94558432Y-142300139D01*
X94852572Y-142178603D01*
X95077812Y-141953755D01*
X95199861Y-141659828D01*
X95200139Y-141341568D01*
X95200139Y-166400000D01*
X93990151Y-166400000D01*
X93769640Y-166443862D01*
X93574351Y-166574351D01*
X93443862Y-166769640D01*
X93400000Y-166990151D01*
X93400000Y-167320858D01*
X93292924Y-167277787D01*
X93222213Y-167348498D01*
X93222213Y-167207076D01*
X93148118Y-167022877D01*
X92724854Y-166849232D01*
X92267358Y-166850781D01*
X91851882Y-167022877D01*
X91777787Y-167207076D01*
X92500000Y-167929289D01*
X93222213Y-167207076D01*
X93222213Y-167348498D01*
X92570711Y-168000000D01*
X93292924Y-168722213D01*
X93400000Y-168679141D01*
X93400000Y-169009849D01*
X93443862Y-169230360D01*
X93574351Y-169425649D01*
X93769640Y-169556138D01*
X93990151Y-169600000D01*
X99124834Y-169600000D01*
X99000174Y-169900215D01*
X98999827Y-170298040D01*
X99151747Y-170665714D01*
X99432806Y-170947264D01*
X99800215Y-171099826D01*
X100198040Y-171100173D01*
X100565714Y-170948253D01*
X100847264Y-170667194D01*
X100999826Y-170299785D01*
X100999827Y-170298041D01*
X101151747Y-170665714D01*
X101432806Y-170947264D01*
X101800215Y-171099826D01*
X102198040Y-171100173D01*
X102565714Y-170948253D01*
X102847264Y-170667194D01*
X102999826Y-170299785D01*
X103000173Y-169901960D01*
X102875405Y-169600000D01*
X110124834Y-169600000D01*
X110000174Y-169900215D01*
X109999827Y-170298040D01*
X110151747Y-170665714D01*
X110432806Y-170947264D01*
X110800215Y-171099826D01*
X111198040Y-171100173D01*
X111565714Y-170948253D01*
X111847264Y-170667194D01*
X111999826Y-170299785D01*
X111999827Y-170298041D01*
X112151747Y-170665714D01*
X112432806Y-170947264D01*
X112800215Y-171099826D01*
X113198040Y-171100173D01*
X113565714Y-170948253D01*
X113847264Y-170667194D01*
X113999826Y-170299785D01*
X114000173Y-169901960D01*
X113875405Y-169600000D01*
X115009849Y-169600000D01*
X115230360Y-169556138D01*
X115425649Y-169425649D01*
X115556138Y-169230360D01*
X115600000Y-169009849D01*
X115600000Y-168679141D01*
X115707076Y-168722213D01*
X116429289Y-168000000D01*
X116429289Y-168141422D01*
X115777787Y-168792924D01*
X115851882Y-168977123D01*
X116275146Y-169150768D01*
X116732642Y-169149219D01*
X117148118Y-168977123D01*
X117222213Y-168792924D01*
X117222213Y-169463450D01*
X117152736Y-169532806D01*
X117000174Y-169900215D01*
X116999827Y-170298040D01*
X117151747Y-170665714D01*
X117432806Y-170947264D01*
X117800215Y-171099826D01*
X118198040Y-171100173D01*
X118565714Y-170948253D01*
X118847264Y-170667194D01*
X118999826Y-170299785D01*
X118999827Y-170298041D01*
X119151747Y-170665714D01*
X119432806Y-170947264D01*
X119800215Y-171099826D01*
X120198040Y-171100173D01*
X120565714Y-170948253D01*
X120847264Y-170667194D01*
X120999826Y-170299785D01*
X121000173Y-169901960D01*
X121000173Y-172900000D01*
X93222213Y-172900000D01*
X93222213Y-168792924D01*
X92500000Y-168070711D01*
X91777787Y-168792924D01*
X91851882Y-168977123D01*
X92275146Y-169150768D01*
X92732642Y-169149219D01*
X93148118Y-168977123D01*
X93222213Y-168792924D01*
X93222213Y-172900000D01*
X92009849Y-172900000D01*
X91847676Y-172867742D01*
X91718543Y-172781457D01*
X91632258Y-172652324D01*
X91600000Y-172490151D01*
X91600000Y-170914026D01*
X91847264Y-170667194D01*
X91999826Y-170299785D01*
X92000173Y-169901960D01*
X91848253Y-169534286D01*
X91600000Y-169285599D01*
X91600000Y-168679141D01*
X91707076Y-168722213D01*
X92429289Y-168000000D01*
X91707076Y-167277787D01*
X91600000Y-167320858D01*
X91600000Y-166990151D01*
X91556138Y-166769640D01*
X91425649Y-166574351D01*
X91230360Y-166443862D01*
X91009849Y-166400000D01*
X89650199Y-166400000D01*
X89650199Y-146272254D01*
X89475491Y-145849428D01*
X89225000Y-145598499D01*
X89225000Y-125219565D01*
X89225000Y-125060435D01*
X89225000Y-122750000D01*
X89125000Y-122650000D01*
X87668500Y-122650000D01*
X87668500Y-125440000D01*
X87768500Y-125540000D01*
X88904565Y-125540000D01*
X89051582Y-125479104D01*
X89164104Y-125366582D01*
X89225000Y-125219565D01*
X89225000Y-145598499D01*
X89152273Y-145525646D01*
X88950139Y-145441712D01*
X88950139Y-142541568D01*
X88828603Y-142247428D01*
X88603755Y-142022188D01*
X88309828Y-141900139D01*
X87991568Y-141899861D01*
X87749212Y-142000000D01*
X87568500Y-142000000D01*
X87568500Y-125440000D01*
X87568500Y-122650000D01*
X86112000Y-122650000D01*
X86012000Y-122750000D01*
X86012000Y-125060435D01*
X86012000Y-125219565D01*
X86072896Y-125366582D01*
X86185418Y-125479104D01*
X86332435Y-125540000D01*
X87468500Y-125540000D01*
X87568500Y-125440000D01*
X87568500Y-142000000D01*
X85831518Y-142000000D01*
X85803755Y-141972188D01*
X85509828Y-141850139D01*
X85191568Y-141849861D01*
X84897428Y-141971397D01*
X84672188Y-142196245D01*
X84550139Y-142490172D01*
X84549861Y-142808432D01*
X84671397Y-143102572D01*
X84896245Y-143327812D01*
X85190172Y-143449861D01*
X85508432Y-143450139D01*
X85802572Y-143328603D01*
X85831224Y-143300000D01*
X87618568Y-143300000D01*
X87696245Y-143377812D01*
X87990172Y-143499861D01*
X88308432Y-143500139D01*
X88602572Y-143378603D01*
X88827812Y-143153755D01*
X88949861Y-142859828D01*
X88950139Y-142541568D01*
X88950139Y-145441712D01*
X88729753Y-145350200D01*
X88272254Y-145349801D01*
X87849428Y-145524509D01*
X87525646Y-145847727D01*
X87350200Y-146270247D01*
X87349801Y-146727746D01*
X87524509Y-147150572D01*
X87847727Y-147474354D01*
X88270247Y-147649800D01*
X88727746Y-147650199D01*
X89150572Y-147475491D01*
X89474354Y-147152273D01*
X89649800Y-146729753D01*
X89650199Y-146272254D01*
X89650199Y-166400000D01*
X79509849Y-166400000D01*
X79347676Y-166367742D01*
X79218543Y-166281457D01*
X79132258Y-166152324D01*
X79100000Y-165990151D01*
X79100000Y-161884851D01*
X79115940Y-161923429D01*
X80071540Y-162880699D01*
X81320731Y-163399409D01*
X82673335Y-163400589D01*
X83923429Y-162884060D01*
X84880699Y-161928460D01*
X85399409Y-160679269D01*
X85400589Y-159326665D01*
X84884060Y-158076571D01*
X83928460Y-157119301D01*
X82679269Y-156600591D01*
X82650199Y-156600565D01*
X82650199Y-146272254D01*
X82475491Y-145849428D01*
X82152273Y-145525646D01*
X81729753Y-145350200D01*
X81272254Y-145349801D01*
X80849428Y-145524509D01*
X80525646Y-145847727D01*
X80350200Y-146270247D01*
X80349801Y-146727746D01*
X80524509Y-147150572D01*
X80847727Y-147474354D01*
X81270247Y-147649800D01*
X81727746Y-147650199D01*
X82150572Y-147475491D01*
X82474354Y-147152273D01*
X82649800Y-146729753D01*
X82650199Y-146272254D01*
X82650199Y-156600565D01*
X81326665Y-156599411D01*
X80076571Y-157115940D01*
X79119301Y-158071540D01*
X79100000Y-158118021D01*
X79100000Y-129884851D01*
X79115940Y-129923429D01*
X80071540Y-130880699D01*
X81320731Y-131399409D01*
X82673335Y-131400589D01*
X83923429Y-130884060D01*
X84880699Y-129928460D01*
X85399409Y-128679269D01*
X85400589Y-127326665D01*
X84884060Y-126076571D01*
X83928460Y-125119301D01*
X82679269Y-124600591D01*
X81326665Y-124599411D01*
X80076571Y-125115940D01*
X79119301Y-126071540D01*
X79100000Y-126118021D01*
X79100000Y-121109849D01*
X79132258Y-120947676D01*
X79218543Y-120818543D01*
X79347676Y-120732258D01*
X79509849Y-120700000D01*
X86012000Y-120700000D01*
X86012000Y-122450000D01*
X86112000Y-122550000D01*
X87568500Y-122550000D01*
X87568500Y-122530000D01*
X87668500Y-122530000D01*
X87668500Y-122550000D01*
X89125000Y-122550000D01*
X89225000Y-122450000D01*
X89225000Y-120700000D01*
X94775000Y-120700000D01*
X94775000Y-122450000D01*
X94875000Y-122550000D01*
X96331500Y-122550000D01*
X96331500Y-122530000D01*
X96431500Y-122530000D01*
X96431500Y-122550000D01*
X97888000Y-122550000D01*
X97988000Y-122450000D01*
X97988000Y-120700000D01*
X99190151Y-120700000D01*
X99352324Y-120732258D01*
X99481457Y-120818543D01*
X99567742Y-120947676D01*
X99600000Y-121109849D01*
X99600000Y-127540151D01*
X99567742Y-127702324D01*
X99481457Y-127831457D01*
X99352324Y-127917742D01*
X99190151Y-127950000D01*
X97988000Y-127950000D01*
X97988000Y-125219565D01*
X97988000Y-125060435D01*
X97988000Y-122750000D01*
X97888000Y-122650000D01*
X96431500Y-122650000D01*
X96431500Y-125440000D01*
X96531500Y-125540000D01*
X97667565Y-125540000D01*
X97814582Y-125479104D01*
X97927104Y-125366582D01*
X97988000Y-125219565D01*
X97988000Y-127950000D01*
X97790151Y-127950000D01*
X97569640Y-127993862D01*
X97374351Y-128124351D01*
X97243862Y-128319640D01*
X97200000Y-128540151D01*
X97200000Y-140134849D01*
X97241959Y-140345793D01*
X97367028Y-140532972D01*
X97554207Y-140658041D01*
X97775000Y-140701959D01*
X97995793Y-140658041D01*
X98182972Y-140532972D01*
X98308041Y-140345793D01*
X98350000Y-140134849D01*
X98350000Y-129359849D01*
X98382258Y-129197676D01*
X98468543Y-129068543D01*
X98597676Y-128982258D01*
X98759849Y-128950000D01*
X100209849Y-128950000D01*
X100430360Y-128906138D01*
X100625649Y-128775649D01*
X100756138Y-128580360D01*
X100800000Y-128359849D01*
X100800000Y-122309849D01*
X100832258Y-122147676D01*
X100918543Y-122018543D01*
X101047676Y-121932258D01*
X101209849Y-121900000D01*
X111490151Y-121900000D01*
X111652324Y-121932258D01*
X111781457Y-122018543D01*
X111867742Y-122147676D01*
X111900000Y-122309849D01*
X111900000Y-134536732D01*
X111892857Y-134539684D01*
X111540919Y-134891007D01*
X111350217Y-135350269D01*
X111349783Y-135847550D01*
X111539684Y-136307143D01*
X111832231Y-136600203D01*
X111540919Y-136891007D01*
X111350217Y-137350269D01*
X111349783Y-137847550D01*
X111539684Y-138307143D01*
X111832231Y-138600203D01*
X111540919Y-138891007D01*
X111350217Y-139350269D01*
X111349783Y-139847550D01*
X111539684Y-140307143D01*
X111832231Y-140600203D01*
X111540919Y-140891007D01*
X111350217Y-141350269D01*
X111349783Y-141847550D01*
X111539684Y-142307143D01*
X111832231Y-142600203D01*
X111540919Y-142891007D01*
X111350217Y-143350269D01*
X111349783Y-143847550D01*
X111539684Y-144307143D01*
X111855163Y-144623174D01*
X111805619Y-144734909D01*
X112600000Y-145529289D01*
X113394381Y-144734909D01*
X113344687Y-144622837D01*
X113659081Y-144308993D01*
X113849783Y-143849731D01*
X113850217Y-143352450D01*
X113660316Y-142892857D01*
X113367768Y-142599796D01*
X113659081Y-142308993D01*
X113849783Y-141849731D01*
X113850217Y-141352450D01*
X113660316Y-140892857D01*
X113367768Y-140599796D01*
X113659081Y-140308993D01*
X113849783Y-139849731D01*
X113850217Y-139352450D01*
X113660316Y-138892857D01*
X113367768Y-138599796D01*
X113659081Y-138308993D01*
X113849783Y-137849731D01*
X113850217Y-137352450D01*
X113660316Y-136892857D01*
X113367768Y-136599796D01*
X113659081Y-136308993D01*
X113849783Y-135849731D01*
X113850217Y-135352450D01*
X113660316Y-134892857D01*
X113308993Y-134540919D01*
X113100000Y-134454137D01*
X113100000Y-121109849D01*
X113132258Y-120947676D01*
X113218543Y-120818543D01*
X113347676Y-120732258D01*
X113509849Y-120700000D01*
X114012000Y-120700000D01*
X114012000Y-122450000D01*
X114112000Y-122550000D01*
X115568500Y-122550000D01*
X115568500Y-122530000D01*
X115668500Y-122530000D01*
X115668500Y-122550000D01*
X117125000Y-122550000D01*
X117225000Y-122450000D01*
X117225000Y-120700000D01*
X122775000Y-120700000D01*
X122775000Y-122450000D01*
X122875000Y-122550000D01*
X124331500Y-122550000D01*
X124331500Y-122530000D01*
X124431500Y-122530000D01*
X124431500Y-122550000D01*
X125888000Y-122550000D01*
X125988000Y-122450000D01*
X125988000Y-120700000D01*
X132490151Y-120700000D01*
X132652324Y-120732258D01*
X132781457Y-120818543D01*
X132867742Y-120947676D01*
X132900000Y-121109849D01*
X132900000Y-126115148D01*
X132884060Y-126076571D01*
X131928460Y-125119301D01*
X130679269Y-124600591D01*
X129326665Y-124599411D01*
X128076571Y-125115940D01*
X127119301Y-126071540D01*
X126600591Y-127320731D01*
X126599411Y-128673335D01*
X127115940Y-129923429D01*
X128071540Y-130880699D01*
X129320731Y-131399409D01*
X130673335Y-131400589D01*
X131923429Y-130884060D01*
X132880699Y-129928460D01*
X132900000Y-129881978D01*
X132900000Y-158115148D01*
X132884060Y-158076571D01*
X132350217Y-157541795D01*
X132350217Y-135852450D01*
X132160316Y-135392857D01*
X131808993Y-135040919D01*
X131349731Y-134850217D01*
X130852450Y-134849783D01*
X130392857Y-135039684D01*
X130076825Y-135355163D01*
X129965091Y-135305619D01*
X129894381Y-135376329D01*
X129894381Y-135234909D01*
X129808098Y-135040321D01*
X129348676Y-134850007D01*
X128851395Y-134849993D01*
X128391962Y-135040281D01*
X128391902Y-135040321D01*
X128305619Y-135234909D01*
X129100000Y-136029289D01*
X129894381Y-135234909D01*
X129894381Y-135376329D01*
X129170711Y-136100000D01*
X129965091Y-136894381D01*
X130077162Y-136844687D01*
X130391007Y-137159081D01*
X130850269Y-137349783D01*
X131347550Y-137350217D01*
X131807143Y-137160316D01*
X132159081Y-136808993D01*
X132349783Y-136349731D01*
X132350217Y-135852450D01*
X132350217Y-157541795D01*
X131928460Y-157119301D01*
X130679269Y-156600591D01*
X129894381Y-156599906D01*
X129894381Y-136965091D01*
X129100000Y-136170711D01*
X129029289Y-136241421D01*
X129029289Y-136100000D01*
X128234909Y-135305619D01*
X128040321Y-135391902D01*
X127850007Y-135851324D01*
X127849993Y-136348605D01*
X128040281Y-136808038D01*
X128040321Y-136808098D01*
X128234909Y-136894381D01*
X129029289Y-136100000D01*
X129029289Y-136241421D01*
X128305619Y-136965091D01*
X128391902Y-137159679D01*
X128851324Y-137349993D01*
X129348605Y-137350007D01*
X129808038Y-137159719D01*
X129808098Y-137159679D01*
X129894381Y-136965091D01*
X129894381Y-156599906D01*
X129326665Y-156599411D01*
X128076571Y-157115940D01*
X127119301Y-158071540D01*
X126600591Y-159320731D01*
X126599411Y-160673335D01*
X127115940Y-161923429D01*
X128071540Y-162880699D01*
X129320731Y-163399409D01*
X130673335Y-163400589D01*
X131923429Y-162884060D01*
X132880699Y-161928460D01*
X132900000Y-161881978D01*
X132900000Y-165990151D01*
M02*
