G04 #@! TF.FileFunction,Soldermask,Bot*
%FSLAX46Y46*%
G04 Gerber Fmt 4.6, Leading zero omitted, Abs format (unit mm)*
G04 Created by KiCad (PCBNEW 0.201505031001+5637~23~ubuntu14.04.1-product) date Sat 23 May 2015 16:36:10 BST*
%MOMM*%
G01*
G04 APERTURE LIST*
%ADD10C,0.100000*%
%ADD11C,1.700000*%
%ADD12C,1.016000*%
%ADD13C,1.500000*%
%ADD14C,6.300000*%
%ADD15C,0.600000*%
%ADD16C,1.200000*%
%ADD17R,2.413000X5.080000*%
G04 APERTURE END LIST*
D10*
D11*
X131100000Y-136100000D03*
X129100000Y-136100000D03*
X112600000Y-135600000D03*
X112600000Y-137600000D03*
X112600000Y-139600000D03*
X112600000Y-141600000D03*
X112600000Y-143600000D03*
X112600000Y-145600000D03*
D12*
X100000000Y-131270000D03*
X100000000Y-130000000D03*
X101270000Y-131270000D03*
X101270000Y-130000000D03*
X102540000Y-131270000D03*
X102540000Y-130000000D03*
X103810000Y-131270000D03*
X103810000Y-130000000D03*
X105080000Y-131270000D03*
X105080000Y-130000000D03*
D13*
X81500000Y-146500000D03*
X88500000Y-146500000D03*
D14*
X82000000Y-128000000D03*
D15*
X82000000Y-125500000D03*
X84500000Y-128000000D03*
X82000000Y-130500000D03*
X79500000Y-128000000D03*
X80200000Y-126200000D03*
X83800000Y-126200000D03*
X80200000Y-129800000D03*
X83800000Y-129800000D03*
D14*
X130000000Y-128000000D03*
D15*
X130000000Y-125500000D03*
X132500000Y-128000000D03*
X130000000Y-130500000D03*
X127500000Y-128000000D03*
X128200000Y-126200000D03*
X131800000Y-126200000D03*
X128200000Y-129800000D03*
X131800000Y-129800000D03*
D14*
X130000000Y-160000000D03*
D15*
X130000000Y-157500000D03*
X132500000Y-160000000D03*
X130000000Y-162500000D03*
X127500000Y-160000000D03*
X128200000Y-158200000D03*
X131800000Y-158200000D03*
X128200000Y-161800000D03*
X131800000Y-161800000D03*
D14*
X82000000Y-160000000D03*
D15*
X82000000Y-157500000D03*
X84500000Y-160000000D03*
X82000000Y-162500000D03*
X79500000Y-160000000D03*
X80200000Y-158200000D03*
X83800000Y-158200000D03*
X80200000Y-161800000D03*
X83800000Y-161800000D03*
D13*
X98500000Y-168000000D03*
X96500000Y-168000000D03*
X94500000Y-168000000D03*
X92500000Y-168000000D03*
D16*
X100000000Y-170100000D03*
X91000000Y-170100000D03*
D13*
X87500000Y-168000000D03*
X85500000Y-168000000D03*
X83500000Y-168000000D03*
X81500000Y-168000000D03*
D16*
X89000000Y-170100000D03*
X80000000Y-170100000D03*
D13*
X109500000Y-168000000D03*
X107500000Y-168000000D03*
X105500000Y-168000000D03*
X103500000Y-168000000D03*
D16*
X111000000Y-170100000D03*
X102000000Y-170100000D03*
D13*
X116500000Y-168000000D03*
X114500000Y-168000000D03*
D16*
X118000000Y-170100000D03*
X113000000Y-170100000D03*
D13*
X130500000Y-168000000D03*
X128500000Y-168000000D03*
D16*
X132000000Y-170100000D03*
X127000000Y-170100000D03*
D13*
X123500000Y-168000000D03*
X121500000Y-168000000D03*
D16*
X125000000Y-170100000D03*
X120000000Y-170100000D03*
D17*
X115618500Y-122600000D03*
X124381500Y-122600000D03*
X87618500Y-122600000D03*
X96381500Y-122600000D03*
M02*
