M48
;DRILL file {KiCad 0.201505031001+5637~23~ubuntu14.04.1-product} date Mon 29 Jun 2015 01:51:55 BST
;FORMAT={-:-/ absolute / inch / decimal}
FMAT,2
INCH,TZ
T1C0.016
T2C0.025
T3C0.028
T4C0.031
T5C0.039
%
G90
G05
M72
T1
X3.1496Y-4.8031
X3.1496Y-4.8819
X3.1496Y-5.1969
X3.1496Y-5.2756
X3.1496Y-5.3543
X3.2283Y-4.8031
X3.2283Y-4.8819
X3.2283Y-5.1969
X3.2283Y-5.2756
X3.2283Y-5.3543
X3.3071Y-4.8031
X3.3071Y-4.8819
X3.3071Y-5.1969
X3.3071Y-5.2756
X3.3071Y-5.3543
X3.3602Y-5.6161
X3.3701Y-4.8268
X3.4134Y-5.5079
X3.4646Y-5.1969
X3.4646Y-5.2756
X3.4705Y-5.6181
X3.5335Y-4.8425
X3.5354Y-4.7874
X3.5354Y-4.9055
X3.5433Y-4.9606
X3.5433Y-5.1575
X3.5433Y-5.2362
X3.5433Y-5.315
X3.5827Y-5.
X3.622Y-5.
X3.622Y-5.1575
X3.622Y-5.2362
X3.622Y-5.315
X3.626Y-5.5591
X3.6457Y-5.6417
X3.6575Y-6.2205
X3.687Y-5.9094
X3.7008Y-5.1575
X3.7008Y-5.2362
X3.7008Y-5.315
X3.7106Y-4.7933
X3.7106Y-4.8425
X3.7106Y-4.8917
X3.7165Y-5.5709
X3.7402Y-5.6043
X3.7795Y-4.9803
X3.7795Y-5.1575
X3.7795Y-5.2362
X3.7795Y-5.315
X3.8189Y-5.
X3.8425Y-5.7008
X3.8583Y-5.
X3.874Y-5.7303
X3.878Y-4.8425
X3.8819Y-4.9213
X3.8858Y-5.0906
X3.8976Y-6.2461
X3.9035Y-5.6516
X3.9055Y-6.4921
X3.9213Y-5.7953
X3.937Y-5.2598
X3.937Y-6.4685
X3.9606Y-5.2126
X3.9843Y-5.5984
X4.0551Y-5.8425
X4.0591Y-5.9528
X4.1063Y-5.6102
X4.1181Y-5.7992
X4.1614Y-4.815
X4.1614Y-5.4843
X4.187Y-6.0335
X4.187Y-6.1142
X4.2008Y-6.2165
X4.248Y-5.8228
X4.2598Y-5.9094
X4.2874Y-5.4055
X4.2913Y-5.8228
X4.2992Y-5.7835
X4.3012Y-5.9587
X4.3189Y-5.4843
X4.3228Y-5.9114
X4.3701Y-5.1969
X4.4094Y-6.3386
X4.4291Y-6.1299
X4.4882Y-4.8268
X4.4882Y-4.9803
X4.4882Y-5.0394
X4.4882Y-5.0984
X4.4882Y-5.1575
X4.5079Y-5.2165
X4.5157Y-5.9449
X4.5315Y-5.7008
X4.5354Y-5.7441
X4.5354Y-5.8189
X4.5433Y-5.9134
X4.5472Y-5.2559
X4.5866Y-5.2953
X4.5915Y-6.4045
X4.626Y-5.3346
X4.6299Y-5.7008
X4.6299Y-5.7441
X4.6654Y-5.374
X4.7047Y-5.4134
X4.7244Y-6.1181
X4.7638Y-5.9646
X4.7835Y-5.4134
X4.7874Y-6.0394
X4.7874Y-6.374
X4.8189Y-4.8268
X4.8189Y-4.8898
X4.8425Y-5.4134
X4.8976Y-4.9528
X4.9016Y-5.4134
X4.9213Y-6.4213
X4.9606Y-5.4134
X4.9764Y-4.8268
X4.9764Y-4.8898
X5.0197Y-5.4134
X5.0984Y-6.5138
T2
X3.937Y-5.1181
X3.937Y-5.1681
X3.987Y-5.1181
X3.987Y-5.1681
X4.037Y-5.1181
X4.037Y-5.1681
X4.087Y-5.1181
X4.087Y-5.1681
X4.137Y-5.1181
X4.137Y-5.1681
T3
X3.2087Y-6.6142
X3.2874Y-6.6142
X3.3661Y-6.6142
X3.4449Y-6.6142
X3.6417Y-6.6142
X3.7205Y-6.6142
X3.7992Y-6.6142
X3.878Y-6.6142
X4.0748Y-6.6142
X4.1535Y-6.6142
X4.2323Y-6.6142
X4.311Y-6.6142
X4.5079Y-6.6142
X4.5866Y-6.6142
X4.7835Y-6.6142
X4.8622Y-6.6142
X5.0591Y-6.6142
X5.1378Y-6.6142
T4
X3.2087Y-5.7677
X3.4843Y-5.7677
T5
X4.4331Y-5.3386
X4.4331Y-5.4173
X4.4331Y-5.4961
X4.4331Y-5.5748
X4.4331Y-5.6535
X4.4331Y-5.7323
X5.0827Y-5.3583
X5.1614Y-5.3583
T0
M30
