G04 #@! TF.FileFunction,Legend,Top*
%FSLAX46Y46*%
G04 Gerber Fmt 4.6, Leading zero omitted, Abs format (unit mm)*
G04 Created by KiCad (PCBNEW 0.201505031001+5637~23~ubuntu14.04.1-product) date Sun 28 Jun 2015 22:34:24 BST*
%MOMM*%
G01*
G04 APERTURE LIST*
%ADD10C,0.100000*%
%ADD11C,0.300000*%
%ADD12C,0.250000*%
%ADD13C,0.150000*%
%ADD14C,0.200000*%
%ADD15R,0.800000X0.800000*%
%ADD16R,0.600000X0.500000*%
%ADD17R,0.600000X2.200000*%
%ADD18R,0.400000X1.400000*%
%ADD19C,1.500000*%
%ADD20C,1.200000*%
%ADD21C,6.300000*%
%ADD22C,0.600000*%
%ADD23C,1.000000*%
G04 APERTURE END LIST*
D10*
D11*
X179678572Y-115107143D02*
X180821429Y-115107143D01*
X180250000Y-115678571D02*
X180250000Y-114535714D01*
X177821429Y-114178571D02*
X178678572Y-114178571D01*
X178250001Y-115678571D02*
X178250001Y-114178571D01*
X176714286Y-115678571D02*
X176214286Y-114964286D01*
X175857143Y-115678571D02*
X175857143Y-114178571D01*
X176428571Y-114178571D01*
X176571429Y-114250000D01*
X176642857Y-114321429D01*
X176714286Y-114464286D01*
X176714286Y-114678571D01*
X176642857Y-114821429D01*
X176571429Y-114892857D01*
X176428571Y-114964286D01*
X175857143Y-114964286D01*
X173678572Y-115107143D02*
X174821429Y-115107143D01*
X159750000Y-114357143D02*
X160892857Y-114357143D01*
X160321428Y-114928571D02*
X160321428Y-113785714D01*
X161607143Y-114357143D02*
X162750000Y-114357143D01*
D12*
X184972619Y-117309524D02*
X184925000Y-117261905D01*
X184877381Y-117166667D01*
X184877381Y-116928571D01*
X184925000Y-116833333D01*
X184972619Y-116785714D01*
X185067857Y-116738095D01*
X185163095Y-116738095D01*
X185305952Y-116785714D01*
X185877381Y-117357143D01*
X185877381Y-116738095D01*
X184877381Y-116119048D02*
X184877381Y-116023809D01*
X184925000Y-115928571D01*
X184972619Y-115880952D01*
X185067857Y-115833333D01*
X185258333Y-115785714D01*
X185496429Y-115785714D01*
X185686905Y-115833333D01*
X185782143Y-115880952D01*
X185829762Y-115928571D01*
X185877381Y-116023809D01*
X185877381Y-116119048D01*
X185829762Y-116214286D01*
X185782143Y-116261905D01*
X185686905Y-116309524D01*
X185496429Y-116357143D01*
X185258333Y-116357143D01*
X185067857Y-116309524D01*
X184972619Y-116261905D01*
X184925000Y-116214286D01*
X184877381Y-116119048D01*
X185877381Y-114833333D02*
X185877381Y-115404762D01*
X185877381Y-115119048D02*
X184877381Y-115119048D01*
X185020238Y-115214286D01*
X185115476Y-115309524D01*
X185163095Y-115404762D01*
X184877381Y-113928571D02*
X184877381Y-114404762D01*
X185353571Y-114452381D01*
X185305952Y-114404762D01*
X185258333Y-114309524D01*
X185258333Y-114071428D01*
X185305952Y-113976190D01*
X185353571Y-113928571D01*
X185448810Y-113880952D01*
X185686905Y-113880952D01*
X185782143Y-113928571D01*
X185829762Y-113976190D01*
X185877381Y-114071428D01*
X185877381Y-114309524D01*
X185829762Y-114404762D01*
X185782143Y-114452381D01*
X185496429Y-113452381D02*
X185496429Y-112690476D01*
X184877381Y-112023810D02*
X184877381Y-111928571D01*
X184925000Y-111833333D01*
X184972619Y-111785714D01*
X185067857Y-111738095D01*
X185258333Y-111690476D01*
X185496429Y-111690476D01*
X185686905Y-111738095D01*
X185782143Y-111785714D01*
X185829762Y-111833333D01*
X185877381Y-111928571D01*
X185877381Y-112023810D01*
X185829762Y-112119048D01*
X185782143Y-112166667D01*
X185686905Y-112214286D01*
X185496429Y-112261905D01*
X185258333Y-112261905D01*
X185067857Y-112214286D01*
X184972619Y-112166667D01*
X184925000Y-112119048D01*
X184877381Y-112023810D01*
X184877381Y-110833333D02*
X184877381Y-111023810D01*
X184925000Y-111119048D01*
X184972619Y-111166667D01*
X185115476Y-111261905D01*
X185305952Y-111309524D01*
X185686905Y-111309524D01*
X185782143Y-111261905D01*
X185829762Y-111214286D01*
X185877381Y-111119048D01*
X185877381Y-110928571D01*
X185829762Y-110833333D01*
X185782143Y-110785714D01*
X185686905Y-110738095D01*
X185448810Y-110738095D01*
X185353571Y-110785714D01*
X185305952Y-110833333D01*
X185258333Y-110928571D01*
X185258333Y-111119048D01*
X185305952Y-111214286D01*
X185353571Y-111261905D01*
X185448810Y-111309524D01*
X185496429Y-110309524D02*
X185496429Y-109547619D01*
X184972619Y-109119048D02*
X184925000Y-109071429D01*
X184877381Y-108976191D01*
X184877381Y-108738095D01*
X184925000Y-108642857D01*
X184972619Y-108595238D01*
X185067857Y-108547619D01*
X185163095Y-108547619D01*
X185305952Y-108595238D01*
X185877381Y-109166667D01*
X185877381Y-108547619D01*
X185305952Y-107976191D02*
X185258333Y-108071429D01*
X185210714Y-108119048D01*
X185115476Y-108166667D01*
X185067857Y-108166667D01*
X184972619Y-108119048D01*
X184925000Y-108071429D01*
X184877381Y-107976191D01*
X184877381Y-107785714D01*
X184925000Y-107690476D01*
X184972619Y-107642857D01*
X185067857Y-107595238D01*
X185115476Y-107595238D01*
X185210714Y-107642857D01*
X185258333Y-107690476D01*
X185305952Y-107785714D01*
X185305952Y-107976191D01*
X185353571Y-108071429D01*
X185401190Y-108119048D01*
X185496429Y-108166667D01*
X185686905Y-108166667D01*
X185782143Y-108119048D01*
X185829762Y-108071429D01*
X185877381Y-107976191D01*
X185877381Y-107785714D01*
X185829762Y-107690476D01*
X185782143Y-107642857D01*
X185686905Y-107595238D01*
X185496429Y-107595238D01*
X185401190Y-107642857D01*
X185353571Y-107690476D01*
X185305952Y-107785714D01*
X187241667Y-117309524D02*
X187241667Y-116833333D01*
X187527381Y-117404762D02*
X186527381Y-117071429D01*
X187527381Y-116738095D01*
X187527381Y-116404762D02*
X186527381Y-116404762D01*
X186527381Y-116166667D01*
X186575000Y-116023809D01*
X186670238Y-115928571D01*
X186765476Y-115880952D01*
X186955952Y-115833333D01*
X187098810Y-115833333D01*
X187289286Y-115880952D01*
X187384524Y-115928571D01*
X187479762Y-116023809D01*
X187527381Y-116166667D01*
X187527381Y-116404762D01*
X187241667Y-115452381D02*
X187241667Y-114976190D01*
X187527381Y-115547619D02*
X186527381Y-115214286D01*
X187527381Y-114880952D01*
X187527381Y-114547619D02*
X186527381Y-114547619D01*
X187241667Y-114214285D01*
X186527381Y-113880952D01*
X187527381Y-113880952D01*
X186575000Y-112119047D02*
X186527381Y-112214285D01*
X186527381Y-112357142D01*
X186575000Y-112500000D01*
X186670238Y-112595238D01*
X186765476Y-112642857D01*
X186955952Y-112690476D01*
X187098810Y-112690476D01*
X187289286Y-112642857D01*
X187384524Y-112595238D01*
X187479762Y-112500000D01*
X187527381Y-112357142D01*
X187527381Y-112261904D01*
X187479762Y-112119047D01*
X187432143Y-112071428D01*
X187098810Y-112071428D01*
X187098810Y-112261904D01*
X187527381Y-111071428D02*
X187051190Y-111404762D01*
X187527381Y-111642857D02*
X186527381Y-111642857D01*
X186527381Y-111261904D01*
X186575000Y-111166666D01*
X186622619Y-111119047D01*
X186717857Y-111071428D01*
X186860714Y-111071428D01*
X186955952Y-111119047D01*
X187003571Y-111166666D01*
X187051190Y-111261904D01*
X187051190Y-111642857D01*
X187003571Y-110642857D02*
X187003571Y-110309523D01*
X187527381Y-110166666D02*
X187527381Y-110642857D01*
X186527381Y-110642857D01*
X186527381Y-110166666D01*
X187527381Y-109738095D02*
X186527381Y-109738095D01*
X186575000Y-108738095D02*
X186527381Y-108833333D01*
X186527381Y-108976190D01*
X186575000Y-109119048D01*
X186670238Y-109214286D01*
X186765476Y-109261905D01*
X186955952Y-109309524D01*
X187098810Y-109309524D01*
X187289286Y-109261905D01*
X187384524Y-109214286D01*
X187479762Y-109119048D01*
X187527381Y-108976190D01*
X187527381Y-108880952D01*
X187479762Y-108738095D01*
X187432143Y-108690476D01*
X187098810Y-108690476D01*
X187098810Y-108880952D01*
D11*
X155928571Y-116642857D02*
X154428571Y-116642857D01*
X155500000Y-116142857D01*
X154428571Y-115642857D01*
X155928571Y-115642857D01*
X154571429Y-115000000D02*
X154500000Y-114928571D01*
X154428571Y-114785714D01*
X154428571Y-114428571D01*
X154500000Y-114285714D01*
X154571429Y-114214285D01*
X154714286Y-114142857D01*
X154857143Y-114142857D01*
X155071429Y-114214285D01*
X155928571Y-115071428D01*
X155928571Y-114142857D01*
X155928571Y-112642857D02*
X155214286Y-113142857D01*
X155928571Y-113500000D02*
X154428571Y-113500000D01*
X154428571Y-112928572D01*
X154500000Y-112785714D01*
X154571429Y-112714286D01*
X154714286Y-112642857D01*
X154928571Y-112642857D01*
X155071429Y-112714286D01*
X155142857Y-112785714D01*
X155214286Y-112928572D01*
X155214286Y-113500000D01*
X155928571Y-111285714D02*
X155928571Y-112000000D01*
X154428571Y-112000000D01*
X155928571Y-109642857D02*
X154928571Y-109642857D01*
X155214286Y-109642857D02*
X155071429Y-109571429D01*
X155000000Y-109500000D01*
X154928571Y-109357143D01*
X154928571Y-109214286D01*
X155928571Y-107928572D02*
X155928571Y-108785715D01*
X155928571Y-108357143D02*
X154428571Y-108357143D01*
X154642857Y-108500000D01*
X154785714Y-108642858D01*
X154857143Y-108785715D01*
X171178571Y-124678571D02*
X171178571Y-125392857D01*
X169678571Y-125392857D01*
X171178571Y-124178571D02*
X169678571Y-124178571D01*
X171178571Y-123464285D02*
X169678571Y-123464285D01*
X171178571Y-122607142D01*
X169678571Y-122607142D01*
X171178571Y-121892856D02*
X169678571Y-121892856D01*
X171178571Y-121035713D02*
X170321429Y-121678570D01*
X169678571Y-121035713D02*
X170535714Y-121892856D01*
X168928571Y-124535714D02*
X168214286Y-125035714D01*
X168928571Y-125392857D02*
X167428571Y-125392857D01*
X167428571Y-124821429D01*
X167500000Y-124678571D01*
X167571429Y-124607143D01*
X167714286Y-124535714D01*
X167928571Y-124535714D01*
X168071429Y-124607143D01*
X168142857Y-124678571D01*
X168214286Y-124821429D01*
X168214286Y-125392857D01*
X168857143Y-123964286D02*
X168928571Y-123750000D01*
X168928571Y-123392857D01*
X168857143Y-123250000D01*
X168785714Y-123178571D01*
X168642857Y-123107143D01*
X168500000Y-123107143D01*
X168357143Y-123178571D01*
X168285714Y-123250000D01*
X168214286Y-123392857D01*
X168142857Y-123678571D01*
X168071429Y-123821429D01*
X168000000Y-123892857D01*
X167857143Y-123964286D01*
X167714286Y-123964286D01*
X167571429Y-123892857D01*
X167500000Y-123821429D01*
X167428571Y-123678571D01*
X167428571Y-123321429D01*
X167500000Y-123107143D01*
X168857143Y-122535715D02*
X168928571Y-122321429D01*
X168928571Y-121964286D01*
X168857143Y-121821429D01*
X168785714Y-121750000D01*
X168642857Y-121678572D01*
X168500000Y-121678572D01*
X168357143Y-121750000D01*
X168285714Y-121821429D01*
X168214286Y-121964286D01*
X168142857Y-122250000D01*
X168071429Y-122392858D01*
X168000000Y-122464286D01*
X167857143Y-122535715D01*
X167714286Y-122535715D01*
X167571429Y-122464286D01*
X167500000Y-122392858D01*
X167428571Y-122250000D01*
X167428571Y-121892858D01*
X167500000Y-121678572D01*
X168928571Y-121035715D02*
X167428571Y-121035715D01*
X165178571Y-125285714D02*
X165178571Y-124357143D01*
X165750000Y-124857143D01*
X165750000Y-124642857D01*
X165821429Y-124500000D01*
X165892857Y-124428571D01*
X166035714Y-124357143D01*
X166392857Y-124357143D01*
X166535714Y-124428571D01*
X166607143Y-124500000D01*
X166678571Y-124642857D01*
X166678571Y-125071429D01*
X166607143Y-125214286D01*
X166535714Y-125285714D01*
X165678571Y-123857143D02*
X166678571Y-123500000D01*
X165678571Y-123142858D01*
X165178571Y-122714286D02*
X165178571Y-121785715D01*
X165750000Y-122285715D01*
X165750000Y-122071429D01*
X165821429Y-121928572D01*
X165892857Y-121857143D01*
X166035714Y-121785715D01*
X166392857Y-121785715D01*
X166535714Y-121857143D01*
X166607143Y-121928572D01*
X166678571Y-122071429D01*
X166678571Y-122500001D01*
X166607143Y-122642858D01*
X166535714Y-122714286D01*
D13*
X166750000Y-94850000D02*
X166750000Y-97250000D01*
X167750000Y-94850000D02*
X167750000Y-97250000D01*
X160900000Y-94300000D02*
X163300000Y-94300000D01*
X160900000Y-93300000D02*
X163300000Y-93300000D01*
X170650000Y-94750000D02*
X168250000Y-94750000D01*
X170650000Y-95750000D02*
X168250000Y-95750000D01*
X165900000Y-112000000D02*
X163500000Y-112000000D01*
X165900000Y-113000000D02*
X163500000Y-113000000D01*
X178300000Y-108800000D02*
X175900000Y-108800000D01*
X178300000Y-109800000D02*
X175900000Y-109800000D01*
X161750000Y-107350000D02*
X161750000Y-109750000D01*
X162750000Y-107350000D02*
X162750000Y-109750000D01*
X178300000Y-110200000D02*
X175900000Y-110200000D01*
X178300000Y-111200000D02*
X175900000Y-111200000D01*
X165900000Y-104000000D02*
X163500000Y-104000000D01*
X165900000Y-105000000D02*
X163500000Y-105000000D01*
X165900000Y-102500000D02*
X163500000Y-102500000D01*
X165900000Y-103500000D02*
X163500000Y-103500000D01*
X160450000Y-115850000D02*
X162150000Y-115850000D01*
X160450000Y-115150000D02*
X162150000Y-115150000D01*
X168250000Y-106000000D02*
X168250000Y-98500000D01*
X178350000Y-98500000D02*
X178350000Y-106000000D01*
X178550000Y-98500000D02*
G75*
G03X178550000Y-98500000I-200000J0D01*
G01*
X178450000Y-98500000D02*
G75*
G03X178450000Y-98500000I-100000J0D01*
G01*
X166450000Y-106250000D02*
G75*
G03X166450000Y-106250000I-200000J0D01*
G01*
X166350000Y-106250000D02*
G75*
G03X166350000Y-106250000I-100000J0D01*
G01*
X163250000Y-106250000D02*
X163250000Y-110750000D01*
X166250000Y-106250000D02*
X166250000Y-110750000D01*
D14*
X159250000Y-117750000D02*
X159550000Y-117750000D01*
X161550000Y-117750000D02*
X160950000Y-117750000D01*
X163250000Y-117750000D02*
X162950000Y-117750000D01*
X158250000Y-113750000D02*
X159250000Y-113750000D01*
X159250000Y-113750000D02*
X159250000Y-117750000D01*
X164250000Y-113750000D02*
X163250000Y-113750000D01*
X163250000Y-113750000D02*
X163250000Y-117750000D01*
X158250000Y-125450000D02*
X164250000Y-125450000D01*
X158250000Y-120250000D02*
X158250000Y-125450000D01*
X158250000Y-113750000D02*
X158250000Y-118450000D01*
X164250000Y-118450000D02*
X164250000Y-113750000D01*
X164250000Y-125450000D02*
X164250000Y-120250000D01*
X181250000Y-117750000D02*
X180950000Y-117750000D01*
X178950000Y-117750000D02*
X179550000Y-117750000D01*
X176950000Y-117750000D02*
X177550000Y-117750000D01*
X174950000Y-117750000D02*
X175550000Y-117750000D01*
X173250000Y-117750000D02*
X173550000Y-117750000D01*
X172250000Y-113750000D02*
X173250000Y-113750000D01*
X173250000Y-113750000D02*
X173250000Y-117750000D01*
X182250000Y-113750000D02*
X181250000Y-113750000D01*
X181250000Y-113750000D02*
X181250000Y-117750000D01*
X172250000Y-125450000D02*
X182250000Y-125450000D01*
X172250000Y-120250000D02*
X172250000Y-125450000D01*
X172250000Y-113750000D02*
X172250000Y-118450000D01*
X182250000Y-118450000D02*
X182250000Y-113750000D01*
X182250000Y-125450000D02*
X182250000Y-120250000D01*
D13*
X167750000Y-114850000D02*
X167750000Y-117250000D01*
X168750000Y-114850000D02*
X168750000Y-117250000D01*
X170000000Y-114850000D02*
X170000000Y-117250000D01*
X171000000Y-114850000D02*
X171000000Y-117250000D01*
X165500000Y-114850000D02*
X165500000Y-117250000D01*
X166500000Y-114850000D02*
X166500000Y-117250000D01*
X180000000Y-112750000D02*
X180000000Y-92750000D01*
X180000000Y-92750000D02*
X182000000Y-92750000D01*
X160000000Y-112750000D02*
X160000000Y-92750000D01*
X160000000Y-92750000D02*
X158000000Y-92750000D01*
X158000000Y-112750000D02*
X158000000Y-92750000D01*
X158000000Y-92750000D02*
X166000000Y-84750000D01*
X166000000Y-84750000D02*
X174000000Y-84750000D01*
X158000000Y-112750000D02*
X182000000Y-112750000D01*
X182000000Y-112750000D02*
X182000000Y-92750000D01*
X182000000Y-92750000D02*
X174000000Y-84750000D01*
X165500000Y-117850000D02*
X165500000Y-120350000D01*
X166500000Y-117850000D02*
X166500000Y-120350000D01*
X165800000Y-119050000D02*
X165800000Y-118950000D01*
X165900000Y-119150000D02*
X165900000Y-118950000D01*
X166200000Y-119050000D02*
X166200000Y-118950000D01*
X166100000Y-119150000D02*
X166100000Y-118950000D01*
X166000000Y-119250000D02*
X166000000Y-118950000D01*
X166400000Y-118850000D02*
X166000000Y-119350000D01*
X166000000Y-119350000D02*
X165600000Y-118850000D01*
X165600000Y-118850000D02*
X166400000Y-118850000D01*
X170000000Y-117850000D02*
X170000000Y-120350000D01*
X171000000Y-117850000D02*
X171000000Y-120350000D01*
X170300000Y-119050000D02*
X170300000Y-118950000D01*
X170400000Y-119150000D02*
X170400000Y-118950000D01*
X170700000Y-119050000D02*
X170700000Y-118950000D01*
X170600000Y-119150000D02*
X170600000Y-118950000D01*
X170500000Y-119250000D02*
X170500000Y-118950000D01*
X170900000Y-118850000D02*
X170500000Y-119350000D01*
X170500000Y-119350000D02*
X170100000Y-118850000D01*
X170100000Y-118850000D02*
X170900000Y-118850000D01*
X167750000Y-117850000D02*
X167750000Y-120350000D01*
X168750000Y-117850000D02*
X168750000Y-120350000D01*
X168050000Y-119050000D02*
X168050000Y-118950000D01*
X168150000Y-119150000D02*
X168150000Y-118950000D01*
X168450000Y-119050000D02*
X168450000Y-118950000D01*
X168350000Y-119150000D02*
X168350000Y-118950000D01*
X168250000Y-119250000D02*
X168250000Y-118950000D01*
X168650000Y-118850000D02*
X168250000Y-119350000D01*
X168250000Y-119350000D02*
X167850000Y-118850000D01*
X167850000Y-118850000D02*
X168650000Y-118850000D01*
X189300000Y-96000000D02*
G75*
G03X189300000Y-96000000I-3300000J0D01*
G01*
X189300000Y-122000000D02*
G75*
G03X189300000Y-122000000I-3300000J0D01*
G01*
X157300000Y-96000000D02*
G75*
G03X157300000Y-96000000I-3300000J0D01*
G01*
X157300000Y-122000000D02*
G75*
G03X157300000Y-122000000I-3300000J0D01*
G01*
X189300000Y-103000000D02*
G75*
G03X189300000Y-103000000I-3300000J0D01*
G01*
X157300000Y-103000000D02*
G75*
G03X157300000Y-103000000I-3300000J0D01*
G01*
D10*
G36*
X152745736Y-118388875D02*
X152743366Y-118437746D01*
X152722523Y-118468489D01*
X152704842Y-118473000D01*
X152680121Y-118461207D01*
X152624208Y-118427355D01*
X152540543Y-118373733D01*
X152432563Y-118302633D01*
X152303707Y-118216343D01*
X152157414Y-118117155D01*
X151997121Y-118007357D01*
X151826267Y-117889240D01*
X151778800Y-117856240D01*
X151604527Y-117734672D01*
X151439338Y-117618944D01*
X151286790Y-117511580D01*
X151150440Y-117415108D01*
X151033844Y-117332054D01*
X150940559Y-117264943D01*
X150874142Y-117216302D01*
X150838149Y-117188657D01*
X150834542Y-117185530D01*
X150788296Y-117123875D01*
X150776334Y-117058989D01*
X150779800Y-117010576D01*
X150795620Y-116993531D01*
X150824288Y-116995565D01*
X150848883Y-117008810D01*
X150904107Y-117043668D01*
X150985971Y-117097387D01*
X151090488Y-117167211D01*
X151213669Y-117250388D01*
X151351526Y-117344163D01*
X151500070Y-117445783D01*
X151655314Y-117552495D01*
X151813270Y-117661543D01*
X151969948Y-117770175D01*
X152121361Y-117875637D01*
X152263521Y-117975175D01*
X152392440Y-118066035D01*
X152504128Y-118145464D01*
X152594598Y-118210707D01*
X152659862Y-118259012D01*
X152695932Y-118287623D01*
X152697209Y-118288770D01*
X152730170Y-118334882D01*
X152745736Y-118388875D01*
X152745736Y-118388875D01*
X152745736Y-118388875D01*
G37*
X152745736Y-118388875D02*
X152743366Y-118437746D01*
X152722523Y-118468489D01*
X152704842Y-118473000D01*
X152680121Y-118461207D01*
X152624208Y-118427355D01*
X152540543Y-118373733D01*
X152432563Y-118302633D01*
X152303707Y-118216343D01*
X152157414Y-118117155D01*
X151997121Y-118007357D01*
X151826267Y-117889240D01*
X151778800Y-117856240D01*
X151604527Y-117734672D01*
X151439338Y-117618944D01*
X151286790Y-117511580D01*
X151150440Y-117415108D01*
X151033844Y-117332054D01*
X150940559Y-117264943D01*
X150874142Y-117216302D01*
X150838149Y-117188657D01*
X150834542Y-117185530D01*
X150788296Y-117123875D01*
X150776334Y-117058989D01*
X150779800Y-117010576D01*
X150795620Y-116993531D01*
X150824288Y-116995565D01*
X150848883Y-117008810D01*
X150904107Y-117043668D01*
X150985971Y-117097387D01*
X151090488Y-117167211D01*
X151213669Y-117250388D01*
X151351526Y-117344163D01*
X151500070Y-117445783D01*
X151655314Y-117552495D01*
X151813270Y-117661543D01*
X151969948Y-117770175D01*
X152121361Y-117875637D01*
X152263521Y-117975175D01*
X152392440Y-118066035D01*
X152504128Y-118145464D01*
X152594598Y-118210707D01*
X152659862Y-118259012D01*
X152695932Y-118287623D01*
X152697209Y-118288770D01*
X152730170Y-118334882D01*
X152745736Y-118388875D01*
X152745736Y-118388875D01*
G36*
X152746748Y-117844801D02*
X152733434Y-117886726D01*
X152707253Y-117901500D01*
X152683072Y-117889695D01*
X152627671Y-117855795D01*
X152544447Y-117802075D01*
X152436797Y-117730809D01*
X152308118Y-117644270D01*
X152161806Y-117544732D01*
X152001259Y-117434469D01*
X151829873Y-117315756D01*
X151770628Y-117274494D01*
X151595603Y-117152236D01*
X151430001Y-117036186D01*
X151277289Y-116928802D01*
X151140936Y-116832539D01*
X151024410Y-116749853D01*
X150931180Y-116683202D01*
X150864714Y-116635041D01*
X150828480Y-116607826D01*
X150823959Y-116604055D01*
X150794669Y-116560728D01*
X150777541Y-116503450D01*
X150773346Y-116445206D01*
X150782852Y-116398978D01*
X150806834Y-116377751D01*
X150810508Y-116377500D01*
X150833315Y-116389257D01*
X150886766Y-116422714D01*
X150966927Y-116475147D01*
X151069864Y-116543835D01*
X151191641Y-116626054D01*
X151328326Y-116719082D01*
X151475982Y-116820196D01*
X151630677Y-116926674D01*
X151788476Y-117035792D01*
X151945444Y-117144828D01*
X152097647Y-117251060D01*
X152241151Y-117351765D01*
X152372021Y-117444219D01*
X152486324Y-117525701D01*
X152580124Y-117593488D01*
X152649488Y-117644856D01*
X152690480Y-117677085D01*
X152697209Y-117683151D01*
X152728047Y-117730230D01*
X152744756Y-117788374D01*
X152746748Y-117844801D01*
X152746748Y-117844801D01*
X152746748Y-117844801D01*
G37*
X152746748Y-117844801D02*
X152733434Y-117886726D01*
X152707253Y-117901500D01*
X152683072Y-117889695D01*
X152627671Y-117855795D01*
X152544447Y-117802075D01*
X152436797Y-117730809D01*
X152308118Y-117644270D01*
X152161806Y-117544732D01*
X152001259Y-117434469D01*
X151829873Y-117315756D01*
X151770628Y-117274494D01*
X151595603Y-117152236D01*
X151430001Y-117036186D01*
X151277289Y-116928802D01*
X151140936Y-116832539D01*
X151024410Y-116749853D01*
X150931180Y-116683202D01*
X150864714Y-116635041D01*
X150828480Y-116607826D01*
X150823959Y-116604055D01*
X150794669Y-116560728D01*
X150777541Y-116503450D01*
X150773346Y-116445206D01*
X150782852Y-116398978D01*
X150806834Y-116377751D01*
X150810508Y-116377500D01*
X150833315Y-116389257D01*
X150886766Y-116422714D01*
X150966927Y-116475147D01*
X151069864Y-116543835D01*
X151191641Y-116626054D01*
X151328326Y-116719082D01*
X151475982Y-116820196D01*
X151630677Y-116926674D01*
X151788476Y-117035792D01*
X151945444Y-117144828D01*
X152097647Y-117251060D01*
X152241151Y-117351765D01*
X152372021Y-117444219D01*
X152486324Y-117525701D01*
X152580124Y-117593488D01*
X152649488Y-117644856D01*
X152690480Y-117677085D01*
X152697209Y-117683151D01*
X152728047Y-117730230D01*
X152744756Y-117788374D01*
X152746748Y-117844801D01*
X152746748Y-117844801D01*
G36*
X152744834Y-117175960D02*
X152742604Y-117242050D01*
X152733617Y-117275823D01*
X152714423Y-117287161D01*
X152705856Y-117287667D01*
X152681394Y-117275859D01*
X152625726Y-117241954D01*
X152542258Y-117188228D01*
X152434395Y-117116958D01*
X152305543Y-117030421D01*
X152159109Y-116930891D01*
X151998499Y-116820647D01*
X151827118Y-116701965D01*
X151769231Y-116661651D01*
X151594292Y-116539432D01*
X151428747Y-116423358D01*
X151276074Y-116315897D01*
X151139748Y-116219514D01*
X151023246Y-116136676D01*
X150930046Y-116069850D01*
X150863623Y-116021503D01*
X150827456Y-115994102D01*
X150823038Y-115990346D01*
X150794389Y-115956540D01*
X150781232Y-115915392D01*
X150779624Y-115851774D01*
X150780705Y-115827904D01*
X150786162Y-115760443D01*
X150796180Y-115725413D01*
X150815065Y-115712911D01*
X150831081Y-115712059D01*
X150856579Y-115724166D01*
X150912554Y-115758120D01*
X150995032Y-115811161D01*
X151100040Y-115880532D01*
X151223606Y-115963472D01*
X151361756Y-116057225D01*
X151510519Y-116159030D01*
X151665920Y-116266130D01*
X151823989Y-116375765D01*
X151980751Y-116485178D01*
X152132233Y-116591609D01*
X152274464Y-116692300D01*
X152403471Y-116784492D01*
X152515280Y-116865426D01*
X152605919Y-116932344D01*
X152671415Y-116982487D01*
X152707795Y-117013097D01*
X152713054Y-117018881D01*
X152733116Y-117070395D01*
X152743914Y-117145912D01*
X152744834Y-117175960D01*
X152744834Y-117175960D01*
X152744834Y-117175960D01*
G37*
X152744834Y-117175960D02*
X152742604Y-117242050D01*
X152733617Y-117275823D01*
X152714423Y-117287161D01*
X152705856Y-117287667D01*
X152681394Y-117275859D01*
X152625726Y-117241954D01*
X152542258Y-117188228D01*
X152434395Y-117116958D01*
X152305543Y-117030421D01*
X152159109Y-116930891D01*
X151998499Y-116820647D01*
X151827118Y-116701965D01*
X151769231Y-116661651D01*
X151594292Y-116539432D01*
X151428747Y-116423358D01*
X151276074Y-116315897D01*
X151139748Y-116219514D01*
X151023246Y-116136676D01*
X150930046Y-116069850D01*
X150863623Y-116021503D01*
X150827456Y-115994102D01*
X150823038Y-115990346D01*
X150794389Y-115956540D01*
X150781232Y-115915392D01*
X150779624Y-115851774D01*
X150780705Y-115827904D01*
X150786162Y-115760443D01*
X150796180Y-115725413D01*
X150815065Y-115712911D01*
X150831081Y-115712059D01*
X150856579Y-115724166D01*
X150912554Y-115758120D01*
X150995032Y-115811161D01*
X151100040Y-115880532D01*
X151223606Y-115963472D01*
X151361756Y-116057225D01*
X151510519Y-116159030D01*
X151665920Y-116266130D01*
X151823989Y-116375765D01*
X151980751Y-116485178D01*
X152132233Y-116591609D01*
X152274464Y-116692300D01*
X152403471Y-116784492D01*
X152515280Y-116865426D01*
X152605919Y-116932344D01*
X152671415Y-116982487D01*
X152707795Y-117013097D01*
X152713054Y-117018881D01*
X152733116Y-117070395D01*
X152743914Y-117145912D01*
X152744834Y-117175960D01*
X152744834Y-117175960D01*
G36*
X152742199Y-116363405D02*
X152740412Y-116439997D01*
X152740400Y-116440272D01*
X152734093Y-116520389D01*
X152722762Y-116565715D01*
X152704411Y-116583683D01*
X152701719Y-116584339D01*
X152678535Y-116573757D01*
X152624105Y-116541054D01*
X152541802Y-116488476D01*
X152435000Y-116418269D01*
X152307070Y-116332678D01*
X152161387Y-116233947D01*
X152001323Y-116124322D01*
X151830250Y-116006048D01*
X151770386Y-115964408D01*
X151595256Y-115842031D01*
X151429565Y-115725523D01*
X151276790Y-115617378D01*
X151140408Y-115520093D01*
X151023895Y-115436161D01*
X150930728Y-115368078D01*
X150864383Y-115318339D01*
X150828338Y-115289438D01*
X150823959Y-115285211D01*
X150795110Y-115243263D01*
X150780573Y-115190578D01*
X150776347Y-115112070D01*
X150776334Y-115105655D01*
X150781688Y-115021067D01*
X150799559Y-114974355D01*
X150832654Y-114962216D01*
X150879906Y-114979290D01*
X150911414Y-114999033D01*
X150973029Y-115040191D01*
X151060602Y-115099854D01*
X151169985Y-115175113D01*
X151297028Y-115263058D01*
X151437584Y-115360780D01*
X151587504Y-115465370D01*
X151742638Y-115573918D01*
X151898839Y-115683514D01*
X152051958Y-115791250D01*
X152197845Y-115894215D01*
X152332353Y-115989501D01*
X152451334Y-116074198D01*
X152550637Y-116145396D01*
X152626115Y-116200187D01*
X152673619Y-116235661D01*
X152687483Y-116246937D01*
X152719553Y-116280826D01*
X152736519Y-116314998D01*
X152742199Y-116363405D01*
X152742199Y-116363405D01*
X152742199Y-116363405D01*
G37*
X152742199Y-116363405D02*
X152740412Y-116439997D01*
X152740400Y-116440272D01*
X152734093Y-116520389D01*
X152722762Y-116565715D01*
X152704411Y-116583683D01*
X152701719Y-116584339D01*
X152678535Y-116573757D01*
X152624105Y-116541054D01*
X152541802Y-116488476D01*
X152435000Y-116418269D01*
X152307070Y-116332678D01*
X152161387Y-116233947D01*
X152001323Y-116124322D01*
X151830250Y-116006048D01*
X151770386Y-115964408D01*
X151595256Y-115842031D01*
X151429565Y-115725523D01*
X151276790Y-115617378D01*
X151140408Y-115520093D01*
X151023895Y-115436161D01*
X150930728Y-115368078D01*
X150864383Y-115318339D01*
X150828338Y-115289438D01*
X150823959Y-115285211D01*
X150795110Y-115243263D01*
X150780573Y-115190578D01*
X150776347Y-115112070D01*
X150776334Y-115105655D01*
X150781688Y-115021067D01*
X150799559Y-114974355D01*
X150832654Y-114962216D01*
X150879906Y-114979290D01*
X150911414Y-114999033D01*
X150973029Y-115040191D01*
X151060602Y-115099854D01*
X151169985Y-115175113D01*
X151297028Y-115263058D01*
X151437584Y-115360780D01*
X151587504Y-115465370D01*
X151742638Y-115573918D01*
X151898839Y-115683514D01*
X152051958Y-115791250D01*
X152197845Y-115894215D01*
X152332353Y-115989501D01*
X152451334Y-116074198D01*
X152550637Y-116145396D01*
X152626115Y-116200187D01*
X152673619Y-116235661D01*
X152687483Y-116246937D01*
X152719553Y-116280826D01*
X152736519Y-116314998D01*
X152742199Y-116363405D01*
X152742199Y-116363405D01*
G36*
X152742455Y-115613004D02*
X152740416Y-115681445D01*
X152734431Y-115771917D01*
X152724470Y-115834698D01*
X152711685Y-115862798D01*
X152710424Y-115863391D01*
X152683054Y-115855780D01*
X152631077Y-115828623D01*
X152564195Y-115787173D01*
X152541091Y-115771655D01*
X152333644Y-115629206D01*
X152127312Y-115486717D01*
X151925343Y-115346486D01*
X151730983Y-115210811D01*
X151547481Y-115081988D01*
X151378083Y-114962316D01*
X151226037Y-114854091D01*
X151094590Y-114759612D01*
X150986990Y-114681175D01*
X150906484Y-114621078D01*
X150856320Y-114581619D01*
X150845125Y-114571796D01*
X150810428Y-114536494D01*
X150789927Y-114503934D01*
X150779898Y-114461636D01*
X150776615Y-114397124D01*
X150776334Y-114341348D01*
X150777070Y-114258540D01*
X150780955Y-114209385D01*
X150790499Y-114185205D01*
X150808213Y-114177325D01*
X150823959Y-114176812D01*
X150848170Y-114188643D01*
X150903016Y-114222108D01*
X150984510Y-114274471D01*
X151088671Y-114343000D01*
X151211514Y-114424959D01*
X151349055Y-114517614D01*
X151497312Y-114618231D01*
X151652301Y-114724075D01*
X151810037Y-114832413D01*
X151966538Y-114940509D01*
X152117820Y-115045630D01*
X152259899Y-115145042D01*
X152388791Y-115236008D01*
X152500514Y-115315797D01*
X152591083Y-115381672D01*
X152656515Y-115430900D01*
X152687500Y-115455949D01*
X152716549Y-115483609D01*
X152733641Y-115511543D01*
X152741400Y-115550943D01*
X152742455Y-115613004D01*
X152742455Y-115613004D01*
X152742455Y-115613004D01*
G37*
X152742455Y-115613004D02*
X152740416Y-115681445D01*
X152734431Y-115771917D01*
X152724470Y-115834698D01*
X152711685Y-115862798D01*
X152710424Y-115863391D01*
X152683054Y-115855780D01*
X152631077Y-115828623D01*
X152564195Y-115787173D01*
X152541091Y-115771655D01*
X152333644Y-115629206D01*
X152127312Y-115486717D01*
X151925343Y-115346486D01*
X151730983Y-115210811D01*
X151547481Y-115081988D01*
X151378083Y-114962316D01*
X151226037Y-114854091D01*
X151094590Y-114759612D01*
X150986990Y-114681175D01*
X150906484Y-114621078D01*
X150856320Y-114581619D01*
X150845125Y-114571796D01*
X150810428Y-114536494D01*
X150789927Y-114503934D01*
X150779898Y-114461636D01*
X150776615Y-114397124D01*
X150776334Y-114341348D01*
X150777070Y-114258540D01*
X150780955Y-114209385D01*
X150790499Y-114185205D01*
X150808213Y-114177325D01*
X150823959Y-114176812D01*
X150848170Y-114188643D01*
X150903016Y-114222108D01*
X150984510Y-114274471D01*
X151088671Y-114343000D01*
X151211514Y-114424959D01*
X151349055Y-114517614D01*
X151497312Y-114618231D01*
X151652301Y-114724075D01*
X151810037Y-114832413D01*
X151966538Y-114940509D01*
X152117820Y-115045630D01*
X152259899Y-115145042D01*
X152388791Y-115236008D01*
X152500514Y-115315797D01*
X152591083Y-115381672D01*
X152656515Y-115430900D01*
X152687500Y-115455949D01*
X152716549Y-115483609D01*
X152733641Y-115511543D01*
X152741400Y-115550943D01*
X152742455Y-115613004D01*
X152742455Y-115613004D01*
G36*
X152744954Y-107737874D02*
X152739602Y-111385645D01*
X152738922Y-111846080D01*
X152738277Y-112266045D01*
X152737643Y-112647406D01*
X152736995Y-112992026D01*
X152736311Y-113301770D01*
X152735564Y-113578502D01*
X152734730Y-113824087D01*
X152733786Y-114040388D01*
X152732707Y-114229271D01*
X152731469Y-114392598D01*
X152730047Y-114532235D01*
X152728417Y-114650047D01*
X152726555Y-114747896D01*
X152724436Y-114827648D01*
X152722036Y-114891166D01*
X152719330Y-114940315D01*
X152716295Y-114976960D01*
X152712906Y-115002965D01*
X152709138Y-115020193D01*
X152704968Y-115030509D01*
X152700371Y-115035778D01*
X152695322Y-115037864D01*
X152691917Y-115038380D01*
X152664543Y-115027381D01*
X152604647Y-114992682D01*
X152513974Y-114935439D01*
X152394271Y-114856807D01*
X152369973Y-114840463D01*
X152369973Y-108545833D01*
X152229320Y-108545833D01*
X152088667Y-108545833D01*
X152088667Y-108618539D01*
X152076661Y-108715783D01*
X152042835Y-108787782D01*
X152006067Y-108819894D01*
X151946567Y-108838846D01*
X151860079Y-108851361D01*
X151761547Y-108856794D01*
X151665919Y-108854495D01*
X151588141Y-108843820D01*
X151570153Y-108838763D01*
X151524589Y-108818484D01*
X151489984Y-108788681D01*
X151464872Y-108743854D01*
X151447789Y-108678501D01*
X151437270Y-108587120D01*
X151431851Y-108464210D01*
X151430090Y-108312690D01*
X151431932Y-108149848D01*
X151439192Y-108024828D01*
X151452742Y-107933364D01*
X151473458Y-107871188D01*
X151502214Y-107834034D01*
X151531110Y-107819590D01*
X151623276Y-107798050D01*
X151704856Y-107789607D01*
X151797676Y-107792626D01*
X151840214Y-107796416D01*
X151944190Y-107812503D01*
X152012451Y-107839568D01*
X152051168Y-107882440D01*
X152066510Y-107945950D01*
X152067500Y-107974333D01*
X152067500Y-108059000D01*
X152207981Y-108059000D01*
X152348463Y-108059000D01*
X152337767Y-107925752D01*
X152320581Y-107807841D01*
X152287310Y-107717074D01*
X152233476Y-107650415D01*
X152154605Y-107604829D01*
X152046219Y-107577282D01*
X151903842Y-107564739D01*
X151802917Y-107563145D01*
X151625624Y-107568981D01*
X151484684Y-107586939D01*
X151375330Y-107619090D01*
X151292793Y-107667503D01*
X151232303Y-107734249D01*
X151189092Y-107821399D01*
X151185591Y-107831163D01*
X151164973Y-107920234D01*
X151151861Y-108040487D01*
X151145889Y-108182268D01*
X151146692Y-108335918D01*
X151153904Y-108491780D01*
X151167159Y-108640198D01*
X151186091Y-108771514D01*
X151210337Y-108876071D01*
X151226845Y-108920990D01*
X151272365Y-108977881D01*
X151348483Y-109028321D01*
X151443467Y-109065206D01*
X151478733Y-109073547D01*
X151583871Y-109086948D01*
X151713168Y-109092825D01*
X151849129Y-109091193D01*
X151974259Y-109082068D01*
X152036727Y-109073028D01*
X152115280Y-109055396D01*
X152184836Y-109034531D01*
X152217677Y-109021044D01*
X152278915Y-108965934D01*
X152323981Y-108873307D01*
X152352049Y-108745103D01*
X152357603Y-108693390D01*
X152369973Y-108545833D01*
X152369973Y-114840463D01*
X152368120Y-114839217D01*
X152368120Y-109117333D01*
X152228393Y-109117333D01*
X152088667Y-109117333D01*
X152087745Y-109630625D01*
X152086650Y-109824004D01*
X152083839Y-109979581D01*
X152078872Y-110101868D01*
X152071308Y-110195378D01*
X152060709Y-110264623D01*
X152046632Y-110314114D01*
X152028640Y-110348364D01*
X152016312Y-110362947D01*
X151976703Y-110380743D01*
X151906521Y-110393029D01*
X151817143Y-110399787D01*
X151719947Y-110400996D01*
X151626308Y-110396638D01*
X151547604Y-110386692D01*
X151495210Y-110371141D01*
X151484661Y-110363853D01*
X151463572Y-110336242D01*
X151446843Y-110297101D01*
X151434008Y-110241788D01*
X151424597Y-110165658D01*
X151418143Y-110064069D01*
X151414179Y-109932376D01*
X151412236Y-109765936D01*
X151411838Y-109641208D01*
X151411334Y-109117333D01*
X151272073Y-109117333D01*
X151132813Y-109117333D01*
X151140176Y-109736458D01*
X151142742Y-109922457D01*
X151145721Y-110070933D01*
X151149398Y-110186695D01*
X151154059Y-110274553D01*
X151159989Y-110339317D01*
X151167473Y-110385797D01*
X151176795Y-110418802D01*
X151181265Y-110429667D01*
X151234924Y-110516172D01*
X151308794Y-110574558D01*
X151406029Y-110611423D01*
X151489105Y-110626079D01*
X151600571Y-110635338D01*
X151726814Y-110639073D01*
X151854219Y-110637155D01*
X151969171Y-110629456D01*
X152050583Y-110617508D01*
X152162066Y-110583412D01*
X152241262Y-110532303D01*
X152296869Y-110457779D01*
X152312507Y-110424648D01*
X152323915Y-110393022D01*
X152333059Y-110354537D01*
X152340287Y-110303987D01*
X152345950Y-110236169D01*
X152350396Y-110145879D01*
X152353974Y-110027913D01*
X152357034Y-109877067D01*
X152359391Y-109725875D01*
X152368120Y-109117333D01*
X152368120Y-114839217D01*
X152363834Y-114836334D01*
X152363834Y-112461667D01*
X152363834Y-112345250D01*
X152363834Y-112228833D01*
X152352885Y-112228833D01*
X152352885Y-111737994D01*
X152346344Y-111622183D01*
X152326036Y-111522717D01*
X152293535Y-111450686D01*
X152284519Y-111439188D01*
X152235633Y-111398123D01*
X152167233Y-111366583D01*
X152072492Y-111342456D01*
X151944587Y-111323629D01*
X151893502Y-111318175D01*
X151743023Y-111302912D01*
X151629471Y-111289419D01*
X151547647Y-111275284D01*
X151492354Y-111258091D01*
X151458391Y-111235428D01*
X151440560Y-111204878D01*
X151433663Y-111164029D01*
X151432501Y-111110466D01*
X151432500Y-111104096D01*
X151437897Y-111014702D01*
X151458729Y-110957112D01*
X151501961Y-110921652D01*
X151574556Y-110898651D01*
X151581490Y-110897134D01*
X151729522Y-110875757D01*
X151852417Y-110879486D01*
X151947509Y-110907354D01*
X152012129Y-110958394D01*
X152043613Y-111031640D01*
X152046334Y-111065662D01*
X152050799Y-111087876D01*
X152070344Y-111100361D01*
X152114191Y-111105831D01*
X152186878Y-111107000D01*
X152327423Y-111107000D01*
X152314990Y-110986537D01*
X152292122Y-110875687D01*
X152245978Y-110794030D01*
X152170424Y-110732049D01*
X152140218Y-110715417D01*
X152101303Y-110698326D01*
X152057719Y-110686474D01*
X152001062Y-110678949D01*
X151922928Y-110674839D01*
X151814914Y-110673233D01*
X151750000Y-110673083D01*
X151590230Y-110675444D01*
X151466648Y-110683750D01*
X151373307Y-110699840D01*
X151304261Y-110725549D01*
X151253565Y-110762715D01*
X151215271Y-110813176D01*
X151199273Y-110843231D01*
X151170734Y-110932892D01*
X151155378Y-111046213D01*
X151153655Y-111166480D01*
X151166016Y-111276980D01*
X151185745Y-111345691D01*
X151216460Y-111397839D01*
X151263501Y-111439685D01*
X151331701Y-111472813D01*
X151425894Y-111498809D01*
X151550911Y-111519258D01*
X151711585Y-111535746D01*
X151781750Y-111541212D01*
X151872823Y-111550713D01*
X151952133Y-111564132D01*
X152006910Y-111579116D01*
X152018886Y-111584890D01*
X152059907Y-111633547D01*
X152080261Y-111704864D01*
X152081053Y-111785973D01*
X152063384Y-111864006D01*
X152028357Y-111926094D01*
X151987059Y-111956237D01*
X151941968Y-111964865D01*
X151866739Y-111970419D01*
X151773499Y-111972242D01*
X151711052Y-111971182D01*
X151611150Y-111967238D01*
X151544450Y-111961643D01*
X151501825Y-111952394D01*
X151474144Y-111937487D01*
X151452278Y-111914919D01*
X151451760Y-111914280D01*
X151422957Y-111857153D01*
X151411334Y-111792572D01*
X151411334Y-111720833D01*
X151271311Y-111720833D01*
X151131289Y-111720833D01*
X151146194Y-111842542D01*
X151173614Y-111976813D01*
X151218480Y-112073017D01*
X151281099Y-112131796D01*
X151286198Y-112134547D01*
X151372782Y-112165496D01*
X151490411Y-112187966D01*
X151628498Y-112201165D01*
X151776457Y-112204299D01*
X151923704Y-112196573D01*
X151997369Y-112187871D01*
X152124021Y-112161923D01*
X152215506Y-112122326D01*
X152278323Y-112062917D01*
X152318971Y-111977532D01*
X152343951Y-111860007D01*
X152344086Y-111859059D01*
X152352885Y-111737994D01*
X152352885Y-112228833D01*
X151750000Y-112228833D01*
X151136167Y-112228833D01*
X151136167Y-112980250D01*
X151136167Y-113731667D01*
X151273750Y-113731667D01*
X151411334Y-113731667D01*
X151411334Y-113424750D01*
X151411334Y-113117833D01*
X151824084Y-113117833D01*
X152236834Y-113117833D01*
X152236834Y-113001417D01*
X152236834Y-112885000D01*
X151824084Y-112885000D01*
X151411334Y-112885000D01*
X151411334Y-112673333D01*
X151411334Y-112461667D01*
X151887584Y-112461667D01*
X152363834Y-112461667D01*
X152363834Y-114836334D01*
X152247285Y-114757942D01*
X152074761Y-114639998D01*
X151878447Y-114504132D01*
X151771167Y-114429316D01*
X151597757Y-114307837D01*
X151433415Y-114192206D01*
X151281709Y-114084969D01*
X151146207Y-113988670D01*
X151030475Y-113905855D01*
X150938080Y-113839068D01*
X150872591Y-113790855D01*
X150837574Y-113763760D01*
X150834542Y-113761100D01*
X150776334Y-113706911D01*
X150776334Y-110734085D01*
X150776334Y-107761259D01*
X150831221Y-107650838D01*
X150853573Y-107608055D01*
X150893974Y-107533001D01*
X150949850Y-107430374D01*
X151018624Y-107304871D01*
X151097720Y-107161192D01*
X151184561Y-107004032D01*
X151276572Y-106838091D01*
X151301401Y-106793411D01*
X151406967Y-106604043D01*
X151494297Y-106448753D01*
X151565331Y-106324405D01*
X151622012Y-106227862D01*
X151666279Y-106155986D01*
X151700073Y-106105641D01*
X151725337Y-106073689D01*
X151744010Y-106056994D01*
X151758034Y-106052420D01*
X151759804Y-106052577D01*
X151777764Y-106064387D01*
X151805897Y-106097671D01*
X151845809Y-106154973D01*
X151899108Y-106238838D01*
X151967398Y-106351809D01*
X152052288Y-106496430D01*
X152155383Y-106675245D01*
X152178088Y-106714917D01*
X152269916Y-106875974D01*
X152359242Y-107033485D01*
X152442818Y-107181663D01*
X152517398Y-107314721D01*
X152579735Y-107426872D01*
X152626582Y-107512329D01*
X152649107Y-107554479D01*
X152744954Y-107737874D01*
X152744954Y-107737874D01*
X152744954Y-107737874D01*
G37*
X152744954Y-107737874D02*
X152739602Y-111385645D01*
X152738922Y-111846080D01*
X152738277Y-112266045D01*
X152737643Y-112647406D01*
X152736995Y-112992026D01*
X152736311Y-113301770D01*
X152735564Y-113578502D01*
X152734730Y-113824087D01*
X152733786Y-114040388D01*
X152732707Y-114229271D01*
X152731469Y-114392598D01*
X152730047Y-114532235D01*
X152728417Y-114650047D01*
X152726555Y-114747896D01*
X152724436Y-114827648D01*
X152722036Y-114891166D01*
X152719330Y-114940315D01*
X152716295Y-114976960D01*
X152712906Y-115002965D01*
X152709138Y-115020193D01*
X152704968Y-115030509D01*
X152700371Y-115035778D01*
X152695322Y-115037864D01*
X152691917Y-115038380D01*
X152664543Y-115027381D01*
X152604647Y-114992682D01*
X152513974Y-114935439D01*
X152394271Y-114856807D01*
X152369973Y-114840463D01*
X152369973Y-108545833D01*
X152229320Y-108545833D01*
X152088667Y-108545833D01*
X152088667Y-108618539D01*
X152076661Y-108715783D01*
X152042835Y-108787782D01*
X152006067Y-108819894D01*
X151946567Y-108838846D01*
X151860079Y-108851361D01*
X151761547Y-108856794D01*
X151665919Y-108854495D01*
X151588141Y-108843820D01*
X151570153Y-108838763D01*
X151524589Y-108818484D01*
X151489984Y-108788681D01*
X151464872Y-108743854D01*
X151447789Y-108678501D01*
X151437270Y-108587120D01*
X151431851Y-108464210D01*
X151430090Y-108312690D01*
X151431932Y-108149848D01*
X151439192Y-108024828D01*
X151452742Y-107933364D01*
X151473458Y-107871188D01*
X151502214Y-107834034D01*
X151531110Y-107819590D01*
X151623276Y-107798050D01*
X151704856Y-107789607D01*
X151797676Y-107792626D01*
X151840214Y-107796416D01*
X151944190Y-107812503D01*
X152012451Y-107839568D01*
X152051168Y-107882440D01*
X152066510Y-107945950D01*
X152067500Y-107974333D01*
X152067500Y-108059000D01*
X152207981Y-108059000D01*
X152348463Y-108059000D01*
X152337767Y-107925752D01*
X152320581Y-107807841D01*
X152287310Y-107717074D01*
X152233476Y-107650415D01*
X152154605Y-107604829D01*
X152046219Y-107577282D01*
X151903842Y-107564739D01*
X151802917Y-107563145D01*
X151625624Y-107568981D01*
X151484684Y-107586939D01*
X151375330Y-107619090D01*
X151292793Y-107667503D01*
X151232303Y-107734249D01*
X151189092Y-107821399D01*
X151185591Y-107831163D01*
X151164973Y-107920234D01*
X151151861Y-108040487D01*
X151145889Y-108182268D01*
X151146692Y-108335918D01*
X151153904Y-108491780D01*
X151167159Y-108640198D01*
X151186091Y-108771514D01*
X151210337Y-108876071D01*
X151226845Y-108920990D01*
X151272365Y-108977881D01*
X151348483Y-109028321D01*
X151443467Y-109065206D01*
X151478733Y-109073547D01*
X151583871Y-109086948D01*
X151713168Y-109092825D01*
X151849129Y-109091193D01*
X151974259Y-109082068D01*
X152036727Y-109073028D01*
X152115280Y-109055396D01*
X152184836Y-109034531D01*
X152217677Y-109021044D01*
X152278915Y-108965934D01*
X152323981Y-108873307D01*
X152352049Y-108745103D01*
X152357603Y-108693390D01*
X152369973Y-108545833D01*
X152369973Y-114840463D01*
X152368120Y-114839217D01*
X152368120Y-109117333D01*
X152228393Y-109117333D01*
X152088667Y-109117333D01*
X152087745Y-109630625D01*
X152086650Y-109824004D01*
X152083839Y-109979581D01*
X152078872Y-110101868D01*
X152071308Y-110195378D01*
X152060709Y-110264623D01*
X152046632Y-110314114D01*
X152028640Y-110348364D01*
X152016312Y-110362947D01*
X151976703Y-110380743D01*
X151906521Y-110393029D01*
X151817143Y-110399787D01*
X151719947Y-110400996D01*
X151626308Y-110396638D01*
X151547604Y-110386692D01*
X151495210Y-110371141D01*
X151484661Y-110363853D01*
X151463572Y-110336242D01*
X151446843Y-110297101D01*
X151434008Y-110241788D01*
X151424597Y-110165658D01*
X151418143Y-110064069D01*
X151414179Y-109932376D01*
X151412236Y-109765936D01*
X151411838Y-109641208D01*
X151411334Y-109117333D01*
X151272073Y-109117333D01*
X151132813Y-109117333D01*
X151140176Y-109736458D01*
X151142742Y-109922457D01*
X151145721Y-110070933D01*
X151149398Y-110186695D01*
X151154059Y-110274553D01*
X151159989Y-110339317D01*
X151167473Y-110385797D01*
X151176795Y-110418802D01*
X151181265Y-110429667D01*
X151234924Y-110516172D01*
X151308794Y-110574558D01*
X151406029Y-110611423D01*
X151489105Y-110626079D01*
X151600571Y-110635338D01*
X151726814Y-110639073D01*
X151854219Y-110637155D01*
X151969171Y-110629456D01*
X152050583Y-110617508D01*
X152162066Y-110583412D01*
X152241262Y-110532303D01*
X152296869Y-110457779D01*
X152312507Y-110424648D01*
X152323915Y-110393022D01*
X152333059Y-110354537D01*
X152340287Y-110303987D01*
X152345950Y-110236169D01*
X152350396Y-110145879D01*
X152353974Y-110027913D01*
X152357034Y-109877067D01*
X152359391Y-109725875D01*
X152368120Y-109117333D01*
X152368120Y-114839217D01*
X152363834Y-114836334D01*
X152363834Y-112461667D01*
X152363834Y-112345250D01*
X152363834Y-112228833D01*
X152352885Y-112228833D01*
X152352885Y-111737994D01*
X152346344Y-111622183D01*
X152326036Y-111522717D01*
X152293535Y-111450686D01*
X152284519Y-111439188D01*
X152235633Y-111398123D01*
X152167233Y-111366583D01*
X152072492Y-111342456D01*
X151944587Y-111323629D01*
X151893502Y-111318175D01*
X151743023Y-111302912D01*
X151629471Y-111289419D01*
X151547647Y-111275284D01*
X151492354Y-111258091D01*
X151458391Y-111235428D01*
X151440560Y-111204878D01*
X151433663Y-111164029D01*
X151432501Y-111110466D01*
X151432500Y-111104096D01*
X151437897Y-111014702D01*
X151458729Y-110957112D01*
X151501961Y-110921652D01*
X151574556Y-110898651D01*
X151581490Y-110897134D01*
X151729522Y-110875757D01*
X151852417Y-110879486D01*
X151947509Y-110907354D01*
X152012129Y-110958394D01*
X152043613Y-111031640D01*
X152046334Y-111065662D01*
X152050799Y-111087876D01*
X152070344Y-111100361D01*
X152114191Y-111105831D01*
X152186878Y-111107000D01*
X152327423Y-111107000D01*
X152314990Y-110986537D01*
X152292122Y-110875687D01*
X152245978Y-110794030D01*
X152170424Y-110732049D01*
X152140218Y-110715417D01*
X152101303Y-110698326D01*
X152057719Y-110686474D01*
X152001062Y-110678949D01*
X151922928Y-110674839D01*
X151814914Y-110673233D01*
X151750000Y-110673083D01*
X151590230Y-110675444D01*
X151466648Y-110683750D01*
X151373307Y-110699840D01*
X151304261Y-110725549D01*
X151253565Y-110762715D01*
X151215271Y-110813176D01*
X151199273Y-110843231D01*
X151170734Y-110932892D01*
X151155378Y-111046213D01*
X151153655Y-111166480D01*
X151166016Y-111276980D01*
X151185745Y-111345691D01*
X151216460Y-111397839D01*
X151263501Y-111439685D01*
X151331701Y-111472813D01*
X151425894Y-111498809D01*
X151550911Y-111519258D01*
X151711585Y-111535746D01*
X151781750Y-111541212D01*
X151872823Y-111550713D01*
X151952133Y-111564132D01*
X152006910Y-111579116D01*
X152018886Y-111584890D01*
X152059907Y-111633547D01*
X152080261Y-111704864D01*
X152081053Y-111785973D01*
X152063384Y-111864006D01*
X152028357Y-111926094D01*
X151987059Y-111956237D01*
X151941968Y-111964865D01*
X151866739Y-111970419D01*
X151773499Y-111972242D01*
X151711052Y-111971182D01*
X151611150Y-111967238D01*
X151544450Y-111961643D01*
X151501825Y-111952394D01*
X151474144Y-111937487D01*
X151452278Y-111914919D01*
X151451760Y-111914280D01*
X151422957Y-111857153D01*
X151411334Y-111792572D01*
X151411334Y-111720833D01*
X151271311Y-111720833D01*
X151131289Y-111720833D01*
X151146194Y-111842542D01*
X151173614Y-111976813D01*
X151218480Y-112073017D01*
X151281099Y-112131796D01*
X151286198Y-112134547D01*
X151372782Y-112165496D01*
X151490411Y-112187966D01*
X151628498Y-112201165D01*
X151776457Y-112204299D01*
X151923704Y-112196573D01*
X151997369Y-112187871D01*
X152124021Y-112161923D01*
X152215506Y-112122326D01*
X152278323Y-112062917D01*
X152318971Y-111977532D01*
X152343951Y-111860007D01*
X152344086Y-111859059D01*
X152352885Y-111737994D01*
X152352885Y-112228833D01*
X151750000Y-112228833D01*
X151136167Y-112228833D01*
X151136167Y-112980250D01*
X151136167Y-113731667D01*
X151273750Y-113731667D01*
X151411334Y-113731667D01*
X151411334Y-113424750D01*
X151411334Y-113117833D01*
X151824084Y-113117833D01*
X152236834Y-113117833D01*
X152236834Y-113001417D01*
X152236834Y-112885000D01*
X151824084Y-112885000D01*
X151411334Y-112885000D01*
X151411334Y-112673333D01*
X151411334Y-112461667D01*
X151887584Y-112461667D01*
X152363834Y-112461667D01*
X152363834Y-114836334D01*
X152247285Y-114757942D01*
X152074761Y-114639998D01*
X151878447Y-114504132D01*
X151771167Y-114429316D01*
X151597757Y-114307837D01*
X151433415Y-114192206D01*
X151281709Y-114084969D01*
X151146207Y-113988670D01*
X151030475Y-113905855D01*
X150938080Y-113839068D01*
X150872591Y-113790855D01*
X150837574Y-113763760D01*
X150834542Y-113761100D01*
X150776334Y-113706911D01*
X150776334Y-110734085D01*
X150776334Y-107761259D01*
X150831221Y-107650838D01*
X150853573Y-107608055D01*
X150893974Y-107533001D01*
X150949850Y-107430374D01*
X151018624Y-107304871D01*
X151097720Y-107161192D01*
X151184561Y-107004032D01*
X151276572Y-106838091D01*
X151301401Y-106793411D01*
X151406967Y-106604043D01*
X151494297Y-106448753D01*
X151565331Y-106324405D01*
X151622012Y-106227862D01*
X151666279Y-106155986D01*
X151700073Y-106105641D01*
X151725337Y-106073689D01*
X151744010Y-106056994D01*
X151758034Y-106052420D01*
X151759804Y-106052577D01*
X151777764Y-106064387D01*
X151805897Y-106097671D01*
X151845809Y-106154973D01*
X151899108Y-106238838D01*
X151967398Y-106351809D01*
X152052288Y-106496430D01*
X152155383Y-106675245D01*
X152178088Y-106714917D01*
X152269916Y-106875974D01*
X152359242Y-107033485D01*
X152442818Y-107181663D01*
X152517398Y-107314721D01*
X152579735Y-107426872D01*
X152626582Y-107512329D01*
X152649107Y-107554479D01*
X152744954Y-107737874D01*
X152744954Y-107737874D01*
%LPC*%
D15*
X167250000Y-95250000D03*
X167250000Y-96850000D03*
X161300000Y-93800000D03*
X162900000Y-93800000D03*
X170250000Y-95250000D03*
X168650000Y-95250000D03*
X165500000Y-112500000D03*
X163900000Y-112500000D03*
X177900000Y-109300000D03*
X176300000Y-109300000D03*
X162250000Y-107750000D03*
X162250000Y-109350000D03*
X177900000Y-110700000D03*
X176300000Y-110700000D03*
X165500000Y-104500000D03*
X163900000Y-104500000D03*
X165500000Y-103000000D03*
X163900000Y-103000000D03*
D16*
X160750000Y-115500000D03*
X161850000Y-115500000D03*
D17*
X177750000Y-97500000D03*
X176480000Y-97500000D03*
X175210000Y-97500000D03*
X173940000Y-97500000D03*
X173940000Y-106900000D03*
X175210000Y-106900000D03*
X176480000Y-106900000D03*
X177750000Y-106900000D03*
X172670000Y-97500000D03*
X171400000Y-97500000D03*
X170130000Y-97500000D03*
X168860000Y-97500000D03*
X172670000Y-106900000D03*
X171400000Y-106900000D03*
X170130000Y-106900000D03*
X168860000Y-106900000D03*
D18*
X165750000Y-106250000D03*
X165100000Y-106250000D03*
X164450000Y-106250000D03*
X163800000Y-106250000D03*
X163800000Y-110650000D03*
X164450000Y-110650000D03*
X165100000Y-110650000D03*
X165750000Y-110650000D03*
D19*
X162250000Y-117250000D03*
X160250000Y-117250000D03*
D20*
X163750000Y-119350000D03*
X158750000Y-119350000D03*
D19*
X180250000Y-117250000D03*
X178250000Y-117250000D03*
X176250000Y-117250000D03*
X174250000Y-117250000D03*
D20*
X181750000Y-119350000D03*
X172750000Y-119350000D03*
D15*
X168250000Y-115250000D03*
X168250000Y-116850000D03*
X170500000Y-115250000D03*
X170500000Y-116850000D03*
X166000000Y-115250000D03*
X166000000Y-116850000D03*
D19*
X159000000Y-93750000D03*
X159000000Y-95750000D03*
X159000000Y-97750000D03*
X159000000Y-99750000D03*
X159000000Y-101750000D03*
X159000000Y-103750000D03*
X159000000Y-105750000D03*
X159000000Y-107750000D03*
X159000000Y-109750000D03*
X159000000Y-111750000D03*
X181000000Y-111750000D03*
X181000000Y-109750000D03*
X181000000Y-107750000D03*
X181000000Y-105750000D03*
X181000000Y-103750000D03*
X181000000Y-101750000D03*
X181000000Y-99750000D03*
X181000000Y-97750000D03*
X181000000Y-95750000D03*
X181000000Y-93750000D03*
D15*
X166000000Y-118250000D03*
X166000000Y-119900000D03*
X170500000Y-118250000D03*
X170500000Y-119900000D03*
X168250000Y-118250000D03*
X168250000Y-119900000D03*
D21*
X186000000Y-96000000D03*
D22*
X186000000Y-93500000D03*
X188500000Y-96000000D03*
X186000000Y-98500000D03*
X183500000Y-96000000D03*
X184200000Y-94200000D03*
X187800000Y-94200000D03*
X184200000Y-97800000D03*
X187800000Y-97800000D03*
D21*
X186000000Y-122000000D03*
D22*
X186000000Y-119500000D03*
X188500000Y-122000000D03*
X186000000Y-124500000D03*
X183500000Y-122000000D03*
X184200000Y-120200000D03*
X187800000Y-120200000D03*
X184200000Y-123800000D03*
X187800000Y-123800000D03*
D21*
X154000000Y-96000000D03*
D22*
X154000000Y-93500000D03*
X156500000Y-96000000D03*
X154000000Y-98500000D03*
X151500000Y-96000000D03*
X152200000Y-94200000D03*
X155800000Y-94200000D03*
X152200000Y-97800000D03*
X155800000Y-97800000D03*
D21*
X154000000Y-122000000D03*
D22*
X154000000Y-119500000D03*
X156500000Y-122000000D03*
X154000000Y-124500000D03*
X151500000Y-122000000D03*
X152200000Y-120200000D03*
X155800000Y-120200000D03*
X152200000Y-123800000D03*
X155800000Y-123800000D03*
D21*
X186000000Y-103000000D03*
D22*
X186000000Y-100500000D03*
X188500000Y-103000000D03*
X186000000Y-105500000D03*
X183500000Y-103000000D03*
X184200000Y-101200000D03*
X187800000Y-101200000D03*
X184200000Y-104800000D03*
X187800000Y-104800000D03*
D21*
X154000000Y-103000000D03*
D22*
X154000000Y-100500000D03*
X156500000Y-103000000D03*
X154000000Y-105500000D03*
X151500000Y-103000000D03*
X152200000Y-101200000D03*
X155800000Y-101200000D03*
X152200000Y-104800000D03*
X155800000Y-104800000D03*
D23*
X157200000Y-93000000D03*
X157200000Y-99100000D03*
X166750000Y-113500000D03*
M02*
