M48
;DRILL file {KiCad 0.201505031001+5637~23~ubuntu14.04.1-product} date Sun 28 Jun 2015 22:34:25 BST
;FORMAT={-:-/ absolute / inch / decimal}
FMAT,2
INCH,TZ
T1C0.016
T2C0.028
T3C0.031
%
G90
G05
M72
T1
X6.3484Y-3.7303
X6.3484Y-3.8386
X6.4094Y-4.4291
X6.4528Y-4.0157
X6.4606Y-3.6929
X6.5846Y-3.8583
X6.6634Y-4.7205
X6.7992Y-3.7677
X6.9488Y-3.7677
T2
X6.3091Y-4.6161
X6.3878Y-4.6161
X6.8602Y-4.6161
X6.939Y-4.6161
X7.0177Y-4.6161
X7.0965Y-4.6161
T3
X6.2598Y-3.6909
X6.2598Y-3.7697
X6.2598Y-3.8484
X6.2598Y-3.9272
X6.2598Y-4.0059
X6.2598Y-4.0846
X6.2598Y-4.1634
X6.2598Y-4.2421
X6.2598Y-4.3209
X6.2598Y-4.3996
X7.126Y-3.6909
X7.126Y-3.7697
X7.126Y-3.8484
X7.126Y-3.9272
X7.126Y-4.0059
X7.126Y-4.0846
X7.126Y-4.1634
X7.126Y-4.2421
X7.126Y-4.3209
X7.126Y-4.3996
T0
M30
