M48
;DRILL file {KiCad 0.201505031001+5637~23~ubuntu14.04.1-product} date Sun 28 Jun 2015 22:34:25 BST
;FORMAT={-:-/ absolute / inch / decimal}
FMAT,2
INCH,TZ
T1C0.024
T2C0.047
T3C0.130
%
G90
G05
M72
T1
X5.9646Y-3.7795
X5.9646Y-4.0551
X5.9646Y-4.8031
X5.9921Y-3.7087
X5.9921Y-3.8504
X5.9921Y-3.9843
X5.9921Y-4.126
X5.9921Y-4.7323
X5.9921Y-4.874
X6.063Y-3.6811
X6.063Y-3.878
X6.063Y-3.9567
X6.063Y-4.1535
X6.063Y-4.7047
X6.063Y-4.9016
X6.1339Y-3.7087
X6.1339Y-3.8504
X6.1339Y-3.9843
X6.1339Y-4.126
X6.1339Y-4.7323
X6.1339Y-4.874
X6.1614Y-3.7795
X6.1614Y-4.0551
X6.1614Y-4.8031
X7.2244Y-3.7795
X7.2244Y-4.0551
X7.2244Y-4.8031
X7.252Y-3.7087
X7.252Y-3.8504
X7.252Y-3.9843
X7.252Y-4.126
X7.252Y-4.7323
X7.252Y-4.874
X7.3228Y-3.6811
X7.3228Y-3.878
X7.3228Y-3.9567
X7.3228Y-4.1535
X7.3228Y-4.7047
X7.3228Y-4.9016
X7.3937Y-3.7087
X7.3937Y-3.8504
X7.3937Y-3.9843
X7.3937Y-4.126
X7.3937Y-4.7323
X7.3937Y-4.874
X7.4213Y-3.7795
X7.4213Y-4.0551
X7.4213Y-4.8031
T2
X6.25Y-4.6988
X6.4469Y-4.6988
X6.8012Y-4.6988
X7.1555Y-4.6988
T3
X6.063Y-3.7795
X6.063Y-4.0551
X6.063Y-4.8031
X7.3228Y-3.7795
X7.3228Y-4.0551
X7.3228Y-4.8031
T0
M30
