G04 #@! TF.FileFunction,Soldermask,Top*
%FSLAX46Y46*%
G04 Gerber Fmt 4.6, Leading zero omitted, Abs format (unit mm)*
G04 Created by KiCad (PCBNEW 0.201505031001+5637~23~ubuntu14.04.1-product) date Sun 28 Jun 2015 22:34:24 BST*
%MOMM*%
G01*
G04 APERTURE LIST*
%ADD10C,0.100000*%
%ADD11R,0.800000X0.800000*%
%ADD12R,0.600000X0.500000*%
%ADD13R,0.600000X2.200000*%
%ADD14R,0.400000X1.400000*%
%ADD15C,1.500000*%
%ADD16C,1.200000*%
%ADD17C,6.300000*%
%ADD18C,0.600000*%
%ADD19C,1.000000*%
G04 APERTURE END LIST*
D10*
D11*
X167250000Y-95250000D03*
X167250000Y-96850000D03*
X161300000Y-93800000D03*
X162900000Y-93800000D03*
X170250000Y-95250000D03*
X168650000Y-95250000D03*
X165500000Y-112500000D03*
X163900000Y-112500000D03*
X177900000Y-109300000D03*
X176300000Y-109300000D03*
X162250000Y-107750000D03*
X162250000Y-109350000D03*
X177900000Y-110700000D03*
X176300000Y-110700000D03*
X165500000Y-104500000D03*
X163900000Y-104500000D03*
X165500000Y-103000000D03*
X163900000Y-103000000D03*
D12*
X160750000Y-115500000D03*
X161850000Y-115500000D03*
D13*
X177750000Y-97500000D03*
X176480000Y-97500000D03*
X175210000Y-97500000D03*
X173940000Y-97500000D03*
X173940000Y-106900000D03*
X175210000Y-106900000D03*
X176480000Y-106900000D03*
X177750000Y-106900000D03*
X172670000Y-97500000D03*
X171400000Y-97500000D03*
X170130000Y-97500000D03*
X168860000Y-97500000D03*
X172670000Y-106900000D03*
X171400000Y-106900000D03*
X170130000Y-106900000D03*
X168860000Y-106900000D03*
D14*
X165750000Y-106250000D03*
X165100000Y-106250000D03*
X164450000Y-106250000D03*
X163800000Y-106250000D03*
X163800000Y-110650000D03*
X164450000Y-110650000D03*
X165100000Y-110650000D03*
X165750000Y-110650000D03*
D15*
X162250000Y-117250000D03*
X160250000Y-117250000D03*
D16*
X163750000Y-119350000D03*
X158750000Y-119350000D03*
D15*
X180250000Y-117250000D03*
X178250000Y-117250000D03*
X176250000Y-117250000D03*
X174250000Y-117250000D03*
D16*
X181750000Y-119350000D03*
X172750000Y-119350000D03*
D11*
X168250000Y-115250000D03*
X168250000Y-116850000D03*
X170500000Y-115250000D03*
X170500000Y-116850000D03*
X166000000Y-115250000D03*
X166000000Y-116850000D03*
D15*
X159000000Y-93750000D03*
X159000000Y-95750000D03*
X159000000Y-97750000D03*
X159000000Y-99750000D03*
X159000000Y-101750000D03*
X159000000Y-103750000D03*
X159000000Y-105750000D03*
X159000000Y-107750000D03*
X159000000Y-109750000D03*
X159000000Y-111750000D03*
X181000000Y-111750000D03*
X181000000Y-109750000D03*
X181000000Y-107750000D03*
X181000000Y-105750000D03*
X181000000Y-103750000D03*
X181000000Y-101750000D03*
X181000000Y-99750000D03*
X181000000Y-97750000D03*
X181000000Y-95750000D03*
X181000000Y-93750000D03*
D11*
X166000000Y-118250000D03*
X166000000Y-119900000D03*
X170500000Y-118250000D03*
X170500000Y-119900000D03*
X168250000Y-118250000D03*
X168250000Y-119900000D03*
D17*
X186000000Y-96000000D03*
D18*
X186000000Y-93500000D03*
X188500000Y-96000000D03*
X186000000Y-98500000D03*
X183500000Y-96000000D03*
X184200000Y-94200000D03*
X187800000Y-94200000D03*
X184200000Y-97800000D03*
X187800000Y-97800000D03*
D17*
X186000000Y-122000000D03*
D18*
X186000000Y-119500000D03*
X188500000Y-122000000D03*
X186000000Y-124500000D03*
X183500000Y-122000000D03*
X184200000Y-120200000D03*
X187800000Y-120200000D03*
X184200000Y-123800000D03*
X187800000Y-123800000D03*
D17*
X154000000Y-96000000D03*
D18*
X154000000Y-93500000D03*
X156500000Y-96000000D03*
X154000000Y-98500000D03*
X151500000Y-96000000D03*
X152200000Y-94200000D03*
X155800000Y-94200000D03*
X152200000Y-97800000D03*
X155800000Y-97800000D03*
D17*
X154000000Y-122000000D03*
D18*
X154000000Y-119500000D03*
X156500000Y-122000000D03*
X154000000Y-124500000D03*
X151500000Y-122000000D03*
X152200000Y-120200000D03*
X155800000Y-120200000D03*
X152200000Y-123800000D03*
X155800000Y-123800000D03*
D17*
X186000000Y-103000000D03*
D18*
X186000000Y-100500000D03*
X188500000Y-103000000D03*
X186000000Y-105500000D03*
X183500000Y-103000000D03*
X184200000Y-101200000D03*
X187800000Y-101200000D03*
X184200000Y-104800000D03*
X187800000Y-104800000D03*
D17*
X154000000Y-103000000D03*
D18*
X154000000Y-100500000D03*
X156500000Y-103000000D03*
X154000000Y-105500000D03*
X151500000Y-103000000D03*
X152200000Y-101200000D03*
X155800000Y-101200000D03*
X152200000Y-104800000D03*
X155800000Y-104800000D03*
D19*
X157200000Y-93000000D03*
X157200000Y-99100000D03*
X166750000Y-113500000D03*
M02*
