G04 #@! TF.FileFunction,Copper,L1,Top,Signal*
%FSLAX46Y46*%
G04 Gerber Fmt 4.6, Leading zero omitted, Abs format (unit mm)*
G04 Created by KiCad (PCBNEW 0.201505031001+5637~23~ubuntu14.04.1-product) date Sun 28 Jun 2015 22:34:24 BST*
%MOMM*%
G01*
G04 APERTURE LIST*
%ADD10C,0.100000*%
%ADD11R,0.800000X0.800000*%
%ADD12R,0.600000X0.500000*%
%ADD13R,0.600000X2.200000*%
%ADD14R,0.400000X1.400000*%
%ADD15C,1.500000*%
%ADD16C,1.000000*%
%ADD17C,0.800000*%
%ADD18C,0.500000*%
%ADD19C,0.300000*%
%ADD20C,1.000000*%
%ADD21C,0.400000*%
G04 APERTURE END LIST*
D10*
D11*
X167250000Y-95250000D03*
X167250000Y-96850000D03*
X161300000Y-93800000D03*
X162900000Y-93800000D03*
X170250000Y-95250000D03*
X168650000Y-95250000D03*
X165500000Y-112500000D03*
X163900000Y-112500000D03*
X177900000Y-109300000D03*
X176300000Y-109300000D03*
X162250000Y-107750000D03*
X162250000Y-109350000D03*
X177900000Y-110700000D03*
X176300000Y-110700000D03*
X165500000Y-104500000D03*
X163900000Y-104500000D03*
X165500000Y-103000000D03*
X163900000Y-103000000D03*
D12*
X160750000Y-115500000D03*
X161850000Y-115500000D03*
D13*
X177750000Y-97500000D03*
X176480000Y-97500000D03*
X175210000Y-97500000D03*
X173940000Y-97500000D03*
X173940000Y-106900000D03*
X175210000Y-106900000D03*
X176480000Y-106900000D03*
X177750000Y-106900000D03*
X172670000Y-97500000D03*
X171400000Y-97500000D03*
X170130000Y-97500000D03*
X168860000Y-97500000D03*
X172670000Y-106900000D03*
X171400000Y-106900000D03*
X170130000Y-106900000D03*
X168860000Y-106900000D03*
D14*
X165750000Y-106250000D03*
X165100000Y-106250000D03*
X164450000Y-106250000D03*
X163800000Y-106250000D03*
X163800000Y-110650000D03*
X164450000Y-110650000D03*
X165100000Y-110650000D03*
X165750000Y-110650000D03*
D15*
X162250000Y-117250000D03*
X160250000Y-117250000D03*
X180250000Y-117250000D03*
X178250000Y-117250000D03*
X176250000Y-117250000D03*
X174250000Y-117250000D03*
D11*
X168250000Y-115250000D03*
X168250000Y-116850000D03*
X170500000Y-115250000D03*
X170500000Y-116850000D03*
X166000000Y-115250000D03*
X166000000Y-116850000D03*
D15*
X159000000Y-93750000D03*
X159000000Y-95750000D03*
X159000000Y-97750000D03*
X159000000Y-99750000D03*
X159000000Y-101750000D03*
X159000000Y-103750000D03*
X159000000Y-105750000D03*
X159000000Y-107750000D03*
X159000000Y-109750000D03*
X159000000Y-111750000D03*
X181000000Y-111750000D03*
X181000000Y-109750000D03*
X181000000Y-107750000D03*
X181000000Y-105750000D03*
X181000000Y-103750000D03*
X181000000Y-101750000D03*
X181000000Y-99750000D03*
X181000000Y-97750000D03*
X181000000Y-95750000D03*
X181000000Y-93750000D03*
D11*
X166000000Y-118250000D03*
X166000000Y-119900000D03*
X170500000Y-118250000D03*
X170500000Y-119900000D03*
X168250000Y-118250000D03*
X168250000Y-119900000D03*
D16*
X157200000Y-93000000D03*
X157200000Y-99100000D03*
X166750000Y-113500000D03*
D17*
X161250000Y-97500000D03*
X161250000Y-94750000D03*
X169250000Y-119900000D03*
X167250000Y-98000000D03*
X164100000Y-93800000D03*
X176500000Y-95700000D03*
X172700000Y-95700000D03*
X163900000Y-102000000D03*
X162800000Y-112500000D03*
D18*
X166750000Y-113500000D02*
X166750000Y-114500000D01*
X166750000Y-114500000D02*
X166000000Y-115250000D01*
X177750000Y-97500000D02*
X177750000Y-98500000D01*
X177750000Y-98500000D02*
X177000000Y-99250000D01*
X177000000Y-99250000D02*
X170500000Y-99250000D01*
X170500000Y-99250000D02*
X170130000Y-98880000D01*
X170130000Y-98880000D02*
X170130000Y-97500000D01*
X161300000Y-93800000D02*
X161300000Y-94700000D01*
X161250000Y-97500000D02*
X165500000Y-97500000D01*
X161300000Y-94700000D02*
X161250000Y-94750000D01*
X165500000Y-97500000D02*
X165250000Y-97500000D01*
X165250000Y-97500000D02*
X165500000Y-97500000D01*
X161300000Y-93800000D02*
X159050000Y-93800000D01*
X159050000Y-93800000D02*
X159000000Y-93750000D01*
X165500000Y-102000000D02*
X166250000Y-102000000D01*
X166750000Y-102500000D02*
X166750000Y-113500000D01*
X166250000Y-102000000D02*
X166750000Y-102500000D01*
X165500000Y-103000000D02*
X165500000Y-102000000D01*
X165500000Y-102000000D02*
X165500000Y-97500000D01*
X165500000Y-97500000D02*
X165500000Y-97250000D01*
X166250000Y-95250000D02*
X167250000Y-95250000D01*
X165500000Y-96000000D02*
X166250000Y-95250000D01*
X165500000Y-97250000D02*
X165500000Y-96000000D01*
X171400000Y-97500000D02*
X171400000Y-95650000D01*
X171000000Y-95250000D02*
X170250000Y-95250000D01*
X171400000Y-95650000D02*
X171000000Y-95250000D01*
X170130000Y-97500000D02*
X170130000Y-95370000D01*
X170130000Y-95370000D02*
X170250000Y-95250000D01*
X167250000Y-95250000D02*
X167250000Y-94500000D01*
X167250000Y-94500000D02*
X167500000Y-94250000D01*
X167500000Y-94250000D02*
X170000000Y-94250000D01*
X170000000Y-94250000D02*
X170250000Y-94500000D01*
X170250000Y-94500000D02*
X170250000Y-95250000D01*
D19*
X162250000Y-107750000D02*
X164750000Y-107750000D01*
X165100000Y-107400000D02*
X165100000Y-106250000D01*
X164750000Y-107750000D02*
X165100000Y-107400000D01*
X165750000Y-106250000D02*
X165750000Y-105650000D01*
X165750000Y-105650000D02*
X165100000Y-105000000D01*
X164450000Y-106250000D02*
X164450000Y-105650000D01*
X164450000Y-105650000D02*
X165100000Y-105000000D01*
D20*
X165500000Y-104500000D02*
X165500000Y-103000000D01*
X165100000Y-106250000D02*
X165100000Y-105000000D01*
X165100000Y-105000000D02*
X165100000Y-104900000D01*
X165100000Y-104900000D02*
X165500000Y-104500000D01*
D19*
X162250000Y-117250000D02*
X163750000Y-117250000D01*
X165400000Y-119900000D02*
X166000000Y-119900000D01*
X165000000Y-119500000D02*
X165400000Y-119900000D01*
X165000000Y-118500000D02*
X165000000Y-119500000D01*
X163750000Y-117250000D02*
X165000000Y-118500000D01*
D18*
X168250000Y-119900000D02*
X169250000Y-119900000D01*
X169250000Y-119900000D02*
X170500000Y-119900000D01*
X167250000Y-96850000D02*
X167250000Y-98000000D01*
X167250000Y-96850000D02*
X168650000Y-96850000D01*
X168650000Y-96850000D02*
X168500000Y-97000000D01*
X168500000Y-97000000D02*
X168650000Y-97000000D01*
X168650000Y-95250000D02*
X168650000Y-97000000D01*
X168650000Y-97000000D02*
X168650000Y-97290000D01*
X168650000Y-97290000D02*
X168860000Y-97500000D01*
X162900000Y-93800000D02*
X164100000Y-93800000D01*
X176480000Y-97500000D02*
X176480000Y-95720000D01*
X176480000Y-95720000D02*
X176500000Y-95700000D01*
X172670000Y-97500000D02*
X172670000Y-95730000D01*
X172670000Y-95730000D02*
X172700000Y-95700000D01*
X163900000Y-103000000D02*
X163900000Y-102000000D01*
X163900000Y-112500000D02*
X162800000Y-112500000D01*
D21*
X163800000Y-106250000D02*
X163800000Y-104600000D01*
X163800000Y-104600000D02*
X163900000Y-104500000D01*
D18*
X163900000Y-103000000D02*
X163900000Y-104500000D01*
X161850000Y-115500000D02*
X161850000Y-116850000D01*
X161850000Y-116850000D02*
X162250000Y-117250000D01*
D19*
X165750000Y-110650000D02*
X165100000Y-110650000D01*
X164450000Y-110650000D02*
X164450000Y-110850000D01*
X164450000Y-110850000D02*
X165000000Y-111400000D01*
X165000000Y-111400000D02*
X165000000Y-112000000D01*
X165000000Y-112000000D02*
X165500000Y-112500000D01*
D20*
X165500000Y-112500000D02*
X165500000Y-111050000D01*
X165500000Y-111050000D02*
X165100000Y-110650000D01*
X160250000Y-117250000D02*
X160250000Y-114750000D01*
X165500000Y-113400000D02*
X165500000Y-112500000D01*
X164800000Y-114100000D02*
X165500000Y-113400000D01*
X160900000Y-114100000D02*
X164800000Y-114100000D01*
X160250000Y-114750000D02*
X160900000Y-114100000D01*
D18*
X160750000Y-115500000D02*
X160750000Y-116750000D01*
X160750000Y-116750000D02*
X160250000Y-117250000D01*
X170130000Y-106900000D02*
X170130000Y-105870000D01*
X170130000Y-105870000D02*
X171750000Y-104250000D01*
X171750000Y-104250000D02*
X176750000Y-104250000D01*
X176750000Y-104250000D02*
X177750000Y-105250000D01*
X177750000Y-105250000D02*
X177750000Y-106900000D01*
X180250000Y-117250000D02*
X180250000Y-114250000D01*
X177900000Y-111900000D02*
X177900000Y-110700000D01*
X180250000Y-114250000D02*
X177900000Y-111900000D01*
X177900000Y-109300000D02*
X177900000Y-110700000D01*
X177750000Y-106900000D02*
X177750000Y-109150000D01*
X177750000Y-109150000D02*
X177900000Y-109300000D01*
X174250000Y-117250000D02*
X174250000Y-115000000D01*
X171400000Y-112150000D02*
X171400000Y-109600000D01*
X174250000Y-115000000D02*
X171400000Y-112150000D01*
X171400000Y-106900000D02*
X171400000Y-105600000D01*
X176480000Y-105480000D02*
X176480000Y-106900000D01*
X176000000Y-105000000D02*
X176480000Y-105480000D01*
X172000000Y-105000000D02*
X176000000Y-105000000D01*
X171400000Y-105600000D02*
X172000000Y-105000000D01*
X168860000Y-106900000D02*
X168860000Y-108960000D01*
X169500000Y-109600000D02*
X171400000Y-109600000D01*
X168860000Y-108960000D02*
X169500000Y-109600000D01*
X171400000Y-106900000D02*
X171400000Y-109600000D01*
X176300000Y-109300000D02*
X176300000Y-110700000D01*
X176480000Y-106900000D02*
X176480000Y-109120000D01*
X176480000Y-109120000D02*
X176300000Y-109300000D01*
D19*
X163800000Y-110650000D02*
X162650000Y-110650000D01*
X162250000Y-110250000D02*
X162250000Y-109350000D01*
X162650000Y-110650000D02*
X162250000Y-110250000D01*
D18*
X168250000Y-116850000D02*
X168250000Y-118250000D01*
X170500000Y-116850000D02*
X170500000Y-118250000D01*
X166000000Y-116850000D02*
X166000000Y-118250000D01*
D19*
X159000000Y-95750000D02*
X163500000Y-95750000D01*
X175210000Y-93710000D02*
X175210000Y-97500000D01*
X174250000Y-92750000D02*
X175210000Y-93710000D01*
X166500000Y-92750000D02*
X174250000Y-92750000D01*
X163500000Y-95750000D02*
X166500000Y-92750000D01*
X157200000Y-93000000D02*
X157200000Y-93950000D01*
X157200000Y-93950000D02*
X159000000Y-95750000D01*
X160500000Y-96500000D02*
X160250000Y-96500000D01*
X160500000Y-96500000D02*
X163750000Y-96500000D01*
X163750000Y-96500000D02*
X166750000Y-93500000D01*
X166750000Y-93500000D02*
X173250000Y-93500000D01*
X173250000Y-93500000D02*
X173940000Y-94190000D01*
X173940000Y-97500000D02*
X173940000Y-94190000D01*
X160250000Y-96500000D02*
X159000000Y-97750000D01*
X159000000Y-97750000D02*
X158550000Y-97750000D01*
X158550000Y-97750000D02*
X157200000Y-99100000D01*
D18*
X173940000Y-106900000D02*
X173940000Y-112940000D01*
X176250000Y-115250000D02*
X176250000Y-117250000D01*
X173940000Y-112940000D02*
X176250000Y-115250000D01*
X175210000Y-106900000D02*
X175210000Y-112210000D01*
X178000000Y-115000000D02*
X178000000Y-117000000D01*
X175210000Y-112210000D02*
X178000000Y-115000000D01*
X178000000Y-117000000D02*
X178250000Y-117250000D01*
D19*
X158750000Y-121000000D02*
X158250000Y-121000000D01*
X157500000Y-105250000D02*
X159000000Y-103750000D01*
X157500000Y-120250000D02*
X157500000Y-105250000D01*
X158250000Y-121000000D02*
X157500000Y-120250000D01*
X166500000Y-121000000D02*
X158750000Y-121000000D01*
X158750000Y-121000000D02*
X158700000Y-121000000D01*
X167750000Y-115250000D02*
X167250000Y-115750000D01*
X167250000Y-115750000D02*
X167250000Y-120250000D01*
X167250000Y-120250000D02*
X166500000Y-121000000D01*
X167750000Y-115250000D02*
X168250000Y-115250000D01*
X170500000Y-115250000D02*
X170250000Y-115250000D01*
X170250000Y-115250000D02*
X167500000Y-112500000D01*
X181000000Y-103750000D02*
X180500000Y-103750000D01*
X180500000Y-103750000D02*
X179250000Y-102500000D01*
X179250000Y-102500000D02*
X179250000Y-101250000D01*
X179250000Y-101250000D02*
X177850002Y-99850002D01*
X177850002Y-99850002D02*
X168399998Y-99850002D01*
X168399998Y-99850002D02*
X167500000Y-100750000D01*
X167500000Y-100750000D02*
X167500000Y-112500000D01*
M02*
