  0
SECTION
  2
HEADER
  9
$ANGBASE
  50
0.0
  9
$ANGDIR
  70
  1
  9
$MEASUREMENT
  70
0
  0
ENDSEC
  0
SECTION
  2
TABLES
  0
TABLE
  2
LTYPE
  70
1
  0
LTYPE
  2
CONTINUOUS
  70
0
  3
Solid line
  72
65
  73
0
  40
0.0
  0
ENDTAB
  0
TABLE
  2
STYLE
  70
4
  0
STYLE
  2
KICAD
  70
0
  40
0
  41
1
  42
1
  50
0
  71
0
  3
isocp.shx
  0
STYLE
  2
KICADB
  70
0
  40
0
  41
1
  42
1
  50
0
  71
0
  3
isocp.shx
  0
STYLE
  2
KICADI
  70
0
  40
0
  41
1
  42
1
  50
15
  71
0
  3
isocp.shx
  0
STYLE
  2
KICADBI
  70
0
  40
0
  41
1
  42
1
  50
15
  71
0
  3
isocp.shx
  0
ENDTAB
  0
TABLE
  2
LAYER
  70
30
  0
LAYER
  2
BLACK
  70
0
  62
7
  6
CONTINUOUS
  0
LAYER
  2
GRAY1
  70
0
  62
251
  6
CONTINUOUS
  0
LAYER
  2
GRAY2
  70
0
  62
8
  6
CONTINUOUS
  0
LAYER
  2
GRAY3
  70
0
  62
9
  6
CONTINUOUS
  0
LAYER
  2
WHITE
  70
0
  62
7
  6
CONTINUOUS
  0
LAYER
  2
LYELLOW
  70
0
  62
51
  6
CONTINUOUS
  0
LAYER
  2
BLUE1
  70
0
  62
178
  6
CONTINUOUS
  0
LAYER
  2
GREEN1
  70
0
  62
98
  6
CONTINUOUS
  0
LAYER
  2
CYAN1
  70
0
  62
138
  6
CONTINUOUS
  0
LAYER
  2
RED1
  70
0
  62
18
  6
CONTINUOUS
  0
LAYER
  2
MAGENTA1
  70
0
  62
228
  6
CONTINUOUS
  0
LAYER
  2
BROWN1
  70
0
  62
58
  6
CONTINUOUS
  0
LAYER
  2
BLUE2
  70
0
  62
5
  6
CONTINUOUS
  0
LAYER
  2
GREEN2
  70
0
  62
3
  6
CONTINUOUS
  0
LAYER
  2
CYAN2
  70
0
  62
4
  6
CONTINUOUS
  0
LAYER
  2
RED2
  70
0
  62
1
  6
CONTINUOUS
  0
LAYER
  2
MAGENTA2
  70
0
  62
6
  6
CONTINUOUS
  0
LAYER
  2
BROWN2
  70
0
  62
54
  6
CONTINUOUS
  0
LAYER
  2
BLUE3
  70
0
  62
171
  6
CONTINUOUS
  0
LAYER
  2
GREEN3
  70
0
  62
91
  6
CONTINUOUS
  0
LAYER
  2
CYAN3
  70
0
  62
131
  6
CONTINUOUS
  0
LAYER
  2
RED3
  70
0
  62
11
  6
CONTINUOUS
  0
LAYER
  2
MAGENTA3
  70
0
  62
221
  6
CONTINUOUS
  0
LAYER
  2
YELLOW3
  70
0
  62
2
  6
CONTINUOUS
  0
LAYER
  2
BLUE4
  70
0
  62
5
  6
CONTINUOUS
  0
LAYER
  2
GREEN4
  70
0
  62
3
  6
CONTINUOUS
  0
LAYER
  2
CYAN4
  70
0
  62
4
  6
CONTINUOUS
  0
LAYER
  2
RED4
  70
0
  62
1
  6
CONTINUOUS
  0
LAYER
  2
MAGENTA4
  70
0
  62
6
  6
CONTINUOUS
  0
LAYER
  2
YELLOW4
  70
0
  62
2
  6
CONTINUOUS
  0
ENDTAB
  0
ENDSEC
  0
SECTION
  2
ENTITIES
0
LINE
8
Black
10
116.05
20
-134
11
116.05
21
-59
0
LINE
8
Black
10
115.95
20
-134
11
115.95
21
-59
0
ARC
8
Black
10
116
20
-59
40
0.05
50
360
51
540
0
ARC
8
Black
10
116
20
-134
40
0.05
50
180
51
360
0
LINE
8
Black
10
116
20
-59.05
11
166
21
-59.05
0
LINE
8
Black
10
116
20
-58.95
11
166
21
-58.95
0
ARC
8
Black
10
166
20
-59
40
0.05
50
270
51
450
0
ARC
8
Black
10
116
20
-59
40
0.05
50
90
51
270
0
LINE
8
Black
10
166.05
20
-134
11
166.05
21
-59
0
LINE
8
Black
10
165.95
20
-134
11
165.95
21
-59
0
ARC
8
Black
10
166
20
-59
40
0.05
50
360
51
540
0
ARC
8
Black
10
166
20
-134
40
0.05
50
180
51
360
0
LINE
8
Black
10
116
20
-134.05
11
166
21
-134.05
0
LINE
8
Black
10
116
20
-133.95
11
166
21
-133.95
0
ARC
8
Black
10
166
20
-134
40
0.05
50
270
51
450
0
ARC
8
Black
10
116
20
-134
40
0.05
50
90
51
270
0
LINE
8
Black
10
148.15
20
-80.9
11
148.35
21
-81.1
0
LINE
8
Black
10
148.35
20
-80.9
11
148.15
21
-81.1
0
LINE
8
Black
10
148.15
20
-81.4
11
148.35
21
-81.6
0
LINE
8
Black
10
148.35
20
-81.4
11
148.15
21
-81.6
0
LINE
8
Black
10
148.15
20
-81.9
11
148.35
21
-82.1
0
LINE
8
Black
10
148.35
20
-81.9
11
148.15
21
-82.1
0
LINE
8
Black
10
148.75
20
-80.9
11
148.95
21
-81.1
0
LINE
8
Black
10
148.95
20
-80.9
11
148.75
21
-81.1
0
LINE
8
Black
10
148.75
20
-81.4
11
148.95
21
-81.6
0
LINE
8
Black
10
148.95
20
-81.4
11
148.75
21
-81.6
0
LINE
8
Black
10
148.75
20
-81.9
11
148.95
21
-82.1
0
LINE
8
Black
10
148.95
20
-81.9
11
148.75
21
-82.1
0
LINE
8
Black
10
149.35
20
-80.9
11
149.55
21
-81.1
0
LINE
8
Black
10
149.55
20
-80.9
11
149.35
21
-81.1
0
LINE
8
Black
10
149.35
20
-81.4
11
149.55
21
-81.6
0
LINE
8
Black
10
149.55
20
-81.4
11
149.35
21
-81.6
0
LINE
8
Black
10
149.35
20
-81.9
11
149.55
21
-82.1
0
LINE
8
Black
10
149.55
20
-81.9
11
149.35
21
-82.1
0
LINE
8
Black
10
149.95
20
-80.9
11
150.15
21
-81.1
0
LINE
8
Black
10
150.15
20
-80.9
11
149.95
21
-81.1
0
LINE
8
Black
10
149.95
20
-81.4
11
150.15
21
-81.6
0
LINE
8
Black
10
150.15
20
-81.4
11
149.95
21
-81.6
0
LINE
8
Black
10
149.95
20
-81.9
11
150.15
21
-82.1
0
LINE
8
Black
10
150.15
20
-81.9
11
149.95
21
-82.1
0
LINE
8
Black
10
150.55
20
-80.9
11
150.75
21
-81.1
0
LINE
8
Black
10
150.75
20
-80.9
11
150.55
21
-81.1
0
LINE
8
Black
10
150.55
20
-81.4
11
150.75
21
-81.6
0
LINE
8
Black
10
150.75
20
-81.4
11
150.55
21
-81.6
0
LINE
8
Black
10
150.55
20
-81.9
11
150.75
21
-82.1
0
LINE
8
Black
10
150.75
20
-81.9
11
150.55
21
-82.1
0
LINE
8
Black
10
151.15
20
-80.9
11
151.35
21
-81.1
0
LINE
8
Black
10
151.35
20
-80.9
11
151.15
21
-81.1
0
LINE
8
Black
10
151.15
20
-81.4
11
151.35
21
-81.6
0
LINE
8
Black
10
151.35
20
-81.4
11
151.15
21
-81.6
0
LINE
8
Black
10
151.15
20
-81.9
11
151.35
21
-82.1
0
LINE
8
Black
10
151.35
20
-81.9
11
151.15
21
-82.1
0
LINE
8
Black
10
151.75
20
-81.4
11
151.95
21
-81.6
0
LINE
8
Black
10
151.95
20
-81.4
11
151.75
21
-81.6
0
LINE
8
Black
10
152.35
20
-81.4
11
152.55
21
-81.6
0
LINE
8
Black
10
152.55
20
-81.4
11
152.35
21
-81.6
0
LINE
8
Black
10
152.95
20
-81.4
11
153.15
21
-81.6
0
LINE
8
Black
10
153.15
20
-81.4
11
152.95
21
-81.6
0
CIRCLE
8
Black
10
118
20
-62
40
0.3
0
CIRCLE
8
Black
10
118
20
-64
40
0.3
0
CIRCLE
8
Black
10
118
20
-66
40
0.3
0
CIRCLE
8
Black
10
118
20
-68
40
0.3
0
CIRCLE
8
Black
10
118
20
-70
40
0.3
0
CIRCLE
8
Black
10
118
20
-72
40
0.3
0
CIRCLE
8
Black
10
118
20
-74
40
0.3
0
CIRCLE
8
Black
10
118
20
-76
40
0.3
0
CIRCLE
8
Black
10
118
20
-78
40
0.3
0
CIRCLE
8
Black
10
118
20
-80
40
0.3
0
CIRCLE
8
Black
10
119.5
20
-90.4
40
0.3
0
CIRCLE
8
Black
10
119.6
20
-102
40
0.3
0
CIRCLE
8
Black
10
119.8
20
-88.3
40
0.3
0
CIRCLE
8
Black
10
119.8
20
-89.4
40
0.3
0
CIRCLE
8
Black
10
120
20
-67
40
0.3
0
CIRCLE
8
Black
10
120
20
-79
40
0.3
0
CIRCLE
8
Black
10
120.2
20
-85.4
40
0.3
0
CIRCLE
8
Black
10
120.6
20
-107.4
40
0.3
0
CIRCLE
8
Black
10
121.6
20
-65.2
40
0.3
0
CIRCLE
8
Black
10
121.95
20
-91.3
40
0.3
0
CIRCLE
8
Black
10
122
20
-67.8
40
0.3
0
CIRCLE
8
Black
10
122
20
-71
40
0.3
0
CIRCLE
8
Black
10
122
20
-77
40
0.3
0
CIRCLE
8
Black
10
122.05
20
-66.7
40
0.3
0
CIRCLE
8
Black
10
122.15
20
-97.95
40
0.3
0
CIRCLE
8
Black
10
122.3
20
-99.4
40
0.3
0
CIRCLE
8
Black
10
122.75
20
-97.1
40
0.3
0
CIRCLE
8
Black
10
122.85
20
-91.85
40
0.3
0
CIRCLE
8
Black
10
123
20
-76
40
0.3
0
CIRCLE
8
Black
10
123.1
20
-69.1
40
0.3
0
CIRCLE
8
Black
10
123.1
20
-70.2
40
0.3
0
CIRCLE
8
Black
10
123.1
20
-71.1
40
0.3
0
CIRCLE
8
Black
10
123.2
20
-96.15
40
0.3
0
CIRCLE
8
Black
10
123.6
20
-89.4
40
0.3
0
CIRCLE
8
Black
10
123.8
20
-71.8
40
0.3
0
CIRCLE
8
Black
10
123.9
20
-82.7
40
0.3
0
CIRCLE
8
Black
10
123.9
20
-84
40
0.3
0
CIRCLE
8
Black
10
123.9
20
-91.85
40
0.3
0
CIRCLE
8
Black
10
124.4
20
-88.3
40
0.3
0
CIRCLE
8
Black
10
124.5
20
-72.5
40
0.3
0
CIRCLE
8
Black
10
125.35
20
-69.75
40
0.3
0
CIRCLE
8
Black
10
125.35
20
-72.95
40
0.3
0
CIRCLE
8
Black
10
125.45
20
-93.95
40
0.3
0
CIRCLE
8
Black
10
126
20
-101.3
40
0.3
0
CIRCLE
8
Black
10
126.2
20
-111.8
40
0.3
0
CIRCLE
8
Black
10
126.3
20
-65
40
0.3
0
CIRCLE
8
Black
10
126.4
20
-82.7
40
0.3
0
CIRCLE
8
Black
10
127.25
20
-69.55
40
0.3
0
CIRCLE
8
Black
10
127.6
20
-104.2
40
0.3
0
CIRCLE
8
Black
10
127.75
20
-65.75
40
0.3
0
CIRCLE
8
Black
10
128.4
20
-64.9
40
0.3
0
CIRCLE
8
Black
10
128.45
20
-89.2
40
0.3
0
CIRCLE
8
Black
10
128.5
20
-100.7
40
0.3
0
CIRCLE
8
Black
10
128.75
20
-94.75
40
0.3
0
CIRCLE
8
Black
10
129
20
-67
40
0.3
0
CIRCLE
8
Black
10
129
20
-69
40
0.3
0
CIRCLE
8
Black
10
129
20
-71
40
0.3
0
CIRCLE
8
Black
10
129
20
-73
40
0.3
0
CIRCLE
8
Black
10
129
20
-75
40
0.3
0
CIRCLE
8
Black
10
129
20
-77
40
0.3
0
CIRCLE
8
Black
10
129
20
-79
40
0.3
0
CIRCLE
8
Black
10
130
20
-66
40
0.3
0
CIRCLE
8
Black
10
131
20
-69
40
0.3
0
CIRCLE
8
Black
10
131
20
-71
40
0.3
0
CIRCLE
8
Black
10
131
20
-73
40
0.3
0
CIRCLE
8
Black
10
131
20
-75
40
0.3
0
CIRCLE
8
Black
10
131
20
-77
40
0.3
0
CIRCLE
8
Black
10
131.3
20
-106.6
40
0.3
0
CIRCLE
8
Black
10
131.45
20
-82.55
40
0.3
0
CIRCLE
8
Black
10
131.9
20
-113.5
40
0.3
0
CIRCLE
8
Black
10
132
20
-61
40
0.3
0
CIRCLE
8
Black
10
132
20
-63
40
0.3
0
CIRCLE
8
Black
10
132
20
-65
40
0.3
0
CIRCLE
8
Black
10
132
20
-78
40
0.3
0
CIRCLE
8
Black
10
132.45
20
-82.15
40
0.3
0
CIRCLE
8
Black
10
132.6
20
-70
40
0.3
0
CIRCLE
8
Black
10
132.6
20
-72
40
0.3
0
CIRCLE
8
Black
10
132.6
20
-74
40
0.3
0
CIRCLE
8
Black
10
132.6
20
-76
40
0.3
0
CIRCLE
8
Black
10
133
20
-67
40
0.3
0
CIRCLE
8
Black
10
133.65
20
-86.55
40
0.3
0
CIRCLE
8
Black
10
134
20
-61
40
0.3
0
CIRCLE
8
Black
10
134
20
-63
40
0.3
0
CIRCLE
8
Black
10
134.45
20
-83.2
40
0.3
0
CIRCLE
8
Black
10
134.55
20
-82.15
40
0.3
0
CIRCLE
8
Black
10
135
20
-65
40
0.3
0
CIRCLE
8
Black
10
135
20
-69
40
0.3
0
CIRCLE
8
Black
10
136
20
-61
40
0.3
0
CIRCLE
8
Black
10
136
20
-67
40
0.3
0
CIRCLE
8
Black
10
136.2
20
-81.1
40
0.3
0
CIRCLE
8
Black
10
137
20
-62
40
0.3
0
CIRCLE
8
Black
10
137
20
-64
40
0.3
0
CIRCLE
8
Black
10
137
20
-66
40
0.3
0
CIRCLE
8
Black
10
137.5
20
-95.75
40
0.3
0
CIRCLE
8
Black
10
138
20
-112.3
40
0.3
0
CIRCLE
8
Black
10
138.7
20
-83.45
40
0.3
0
CIRCLE
8
Black
10
138.7
20
-84.5
40
0.3
0
CIRCLE
8
Black
10
138.7
20
-85.6
40
0.3
0
CIRCLE
8
Black
10
138.8
20
-120.9
40
0.3
0
CIRCLE
8
Black
10
139.5
20
-71.1
40
0.3
0
CIRCLE
8
Black
10
139.9
20
-94
40
0.3
0
CIRCLE
8
Black
10
140.1
20
-95.1
40
0.3
0
CIRCLE
8
Black
10
140.5
20
-83.45
40
0.3
0
CIRCLE
8
Black
10
140.55
20
-84.5
40
0.3
0
CIRCLE
8
Black
10
140.6
20
-85.55
40
0.3
0
CIRCLE
8
Black
10
140.9
20
-78.2
40
0.3
0
CIRCLE
8
Black
10
141
20
-99.6
40
0.3
0
CIRCLE
8
Black
10
141.1
20
-82.5
40
0.3
0
CIRCLE
8
Black
10
141.2
20
-95.1
40
0.3
0
CIRCLE
8
Black
10
143.1
20
-112.8
40
0.3
0
CIRCLE
8
Black
10
143.9
20
-95.1
40
0.3
0
CIRCLE
8
Black
10
144.1
20
-111.2
40
0.3
0
CIRCLE
8
Black
10
144.1
20
-112.3
40
0.3
0
CIRCLE
8
Black
10
145.4
20
-96.4
40
0.3
0
CIRCLE
8
Black
10
146.5
20
-121.5
40
0.3
0
CIRCLE
8
Black
10
147.5
20
-74.1
40
0.3
0
CIRCLE
8
Black
10
148.2
20
-111.2
40
0.3
0
CIRCLE
8
Black
10
148.2
20
-112.3
40
0.3
0
CIRCLE
8
Black
10
148.2
20
-113.5
40
0.3
0
CIRCLE
8
Black
10
148.5
20
-86.5
40
0.3
0
CIRCLE
8
Black
10
148.5
20
-88.5
40
0.3
0
CIRCLE
8
Black
10
148.5
20
-90.5
40
0.3
0
CIRCLE
8
Black
10
148.5
20
-92.5
40
0.3
0
CIRCLE
8
Black
10
148.5
20
-94.5
40
0.3
0
CIRCLE
8
Black
10
148.5
20
-96.5
40
0.3
0
CIRCLE
8
Black
10
148.5
20
-99
40
0.3
0
CIRCLE
8
Black
10
148.5
20
-101
40
0.3
0
CIRCLE
8
Black
10
148.5
20
-103
40
0.3
0
CIRCLE
8
Black
10
148.5
20
-105
40
0.3
0
CIRCLE
8
Black
10
148.5
20
-107
40
0.3
0
CIRCLE
8
Black
10
148.5
20
-109
40
0.3
0
CIRCLE
8
Black
10
149
20
-83.5
40
0.3
0
CIRCLE
8
Black
10
149.5
20
-98
40
0.3
0
CIRCLE
8
Black
10
150.3
20
-83.3
40
0.3
0
CIRCLE
8
Black
10
150.5
20
-110.5
40
0.3
0
CIRCLE
8
Black
10
151
20
-62
40
0.3
0
CIRCLE
8
Black
10
151
20
-64
40
0.3
0
CIRCLE
8
Black
10
151
20
-66
40
0.3
0
CIRCLE
8
Black
10
151
20
-68
40
0.3
0
CIRCLE
8
Black
10
151
20
-70
40
0.3
0
CIRCLE
8
Black
10
151
20
-72
40
0.3
0
CIRCLE
8
Black
10
151
20
-74.25
40
0.3
0
CIRCLE
8
Black
10
151
20
-79.5
40
0.3
0
CIRCLE
8
Black
10
151.5
20
-98
40
0.3
0
CIRCLE
8
Black
10
152.5
20
-110.5
40
0.3
0
CIRCLE
8
Black
10
153.4
20
-65.2
40
0.3
0
CIRCLE
8
Black
10
153.5
20
-98
40
0.3
0
CIRCLE
8
Black
10
154.2
20
-90
40
0.3
0
CIRCLE
8
Black
10
154.2
20
-90.8
40
0.3
0
CIRCLE
8
Black
10
154.2
20
-91.6
40
0.3
0
CIRCLE
8
Black
10
154.2
20
-92.4
40
0.3
0
CIRCLE
8
Black
10
154.2
20
-93.2
40
0.3
0
CIRCLE
8
Black
10
154.2
20
-94
40
0.3
0
CIRCLE
8
Black
10
154.5
20
-68.5
40
0.3
0
CIRCLE
8
Black
10
154.5
20
-69.3
40
0.3
0
CIRCLE
8
Black
10
154.5
20
-70.1
40
0.3
0
CIRCLE
8
Black
10
154.5
20
-70.9
40
0.3
0
CIRCLE
8
Black
10
154.5
20
-110.5
40
0.3
0
CIRCLE
8
Black
10
156.5
20
-110.5
40
0.3
0
CIRCLE
8
Black
10
158.5
20
-110.5
40
0.3
0
CIRCLE
8
Black
10
160.3
20
-121.9
40
0.3
0
CIRCLE
8
Black
10
160.5
20
-110.5
40
0.3
0
CIRCLE
8
Black
10
162.1
20
-65.2
40
0.3
0
CIRCLE
8
Black
10
162.5
20
-110.5
40
0.3
0
CIRCLE
8
Black
10
164.5
20
-62
40
0.3
0
CIRCLE
8
Black
10
164.5
20
-64
40
0.3
0
CIRCLE
8
Black
10
164.5
20
-66
40
0.3
0
CIRCLE
8
Black
10
164.5
20
-68
40
0.3
0
CIRCLE
8
Black
10
164.5
20
-70
40
0.3
0
CIRCLE
8
Black
10
164.5
20
-72
40
0.3
0
CIRCLE
8
Black
10
164.5
20
-74
40
0.3
0
CIRCLE
8
Black
10
164.5
20
-76
40
0.3
0
CIRCLE
8
Black
10
164.5
20
-78
40
0.3
0
CIRCLE
8
Black
10
164.5
20
-80
40
0.3
0
CIRCLE
8
Black
10
164.5
20
-82
40
0.3
0
CIRCLE
8
Black
10
164.5
20
-84
40
0.3
0
CIRCLE
8
Black
10
164.5
20
-86
40
0.3
0
CIRCLE
8
Black
10
164.5
20
-88
40
0.3
0
CIRCLE
8
Black
10
164.5
20
-90
40
0.3
0
CIRCLE
8
Black
10
164.5
20
-92
40
0.3
0
CIRCLE
8
Black
10
164.5
20
-94
40
0.3
0
CIRCLE
8
Black
10
164.5
20
-96
40
0.3
0
CIRCLE
8
Black
10
164.5
20
-98
40
0.3
0
CIRCLE
8
Black
10
164.5
20
-100
40
0.3
0
CIRCLE
8
Black
10
164.5
20
-102
40
0.3
0
CIRCLE
8
Black
10
164.5
20
-104
40
0.3
0
CIRCLE
8
Black
10
164.5
20
-106
40
0.3
0
CIRCLE
8
Black
10
164.5
20
-108
40
0.3
0
CIRCLE
8
Black
10
164.5
20
-110.5
40
0.3
0
LINE
8
Black
10
119.73
20
-93.1825
11
119.73
21
-93.8175
0
LINE
8
Black
10
119.412
20
-93.5
11
120.047
21
-93.5
0
LINE
8
Black
10
119.73
20
-94.4525
11
119.73
21
-95.0875
0
LINE
8
Black
10
119.412
20
-94.77
11
120.047
21
-94.77
0
LINE
8
Black
10
119.73
20
-95.7225
11
119.73
21
-96.3575
0
LINE
8
Black
10
119.412
20
-96.04
11
120.047
21
-96.04
0
LINE
8
Black
10
119.73
20
-96.9925
11
119.73
21
-97.6275
0
LINE
8
Black
10
119.412
20
-97.31
11
120.047
21
-97.31
0
LINE
8
Black
10
119.73
20
-98.2625
11
119.73
21
-98.8975
0
LINE
8
Black
10
119.412
20
-98.58
11
120.047
21
-98.58
0
LINE
8
Black
10
121
20
-93.1825
11
121
21
-93.8175
0
LINE
8
Black
10
120.682
20
-93.5
11
121.317
21
-93.5
0
LINE
8
Black
10
121
20
-94.4525
11
121
21
-95.0875
0
LINE
8
Black
10
120.682
20
-94.77
11
121.317
21
-94.77
0
LINE
8
Black
10
121
20
-95.7225
11
121
21
-96.3575
0
LINE
8
Black
10
120.682
20
-96.04
11
121.317
21
-96.04
0
LINE
8
Black
10
121
20
-96.9925
11
121
21
-97.6275
0
LINE
8
Black
10
120.682
20
-97.31
11
121.317
21
-97.31
0
LINE
8
Black
10
121
20
-98.2625
11
121
21
-98.8975
0
LINE
8
Black
10
120.682
20
-98.58
11
121.317
21
-98.58
0
LINE
8
Black
10
120.247
20
-125.997
11
120.247
21
-125.503
0
LINE
8
Black
10
120.247
20
-125.503
11
119.753
21
-125.503
0
LINE
8
Black
10
119.753
20
-125.503
11
119.753
21
-125.997
0
LINE
8
Black
10
119.753
20
-125.997
11
120.247
21
-125.997
0
LINE
8
Black
10
122.247
20
-125.997
11
122.247
21
-125.503
0
LINE
8
Black
10
122.247
20
-125.503
11
121.753
21
-125.503
0
LINE
8
Black
10
121.753
20
-125.503
11
121.753
21
-125.997
0
LINE
8
Black
10
121.753
20
-125.997
11
122.247
21
-125.997
0
LINE
8
Black
10
123.447
20
-105.247
11
123.447
21
-104.753
0
LINE
8
Black
10
123.447
20
-104.753
11
122.953
21
-104.753
0
LINE
8
Black
10
122.953
20
-104.753
11
122.953
21
-105.247
0
LINE
8
Black
10
122.953
20
-105.247
11
123.447
21
-105.247
0
LINE
8
Black
10
123.447
20
-110.127
11
123.447
21
-109.633
0
LINE
8
Black
10
123.447
20
-109.633
11
122.953
21
-109.633
0
LINE
8
Black
10
122.953
20
-109.633
11
122.953
21
-110.127
0
LINE
8
Black
10
122.953
20
-110.127
11
123.447
21
-110.127
0
LINE
8
Black
10
124.247
20
-125.997
11
124.247
21
-125.503
0
LINE
8
Black
10
124.247
20
-125.503
11
123.753
21
-125.503
0
LINE
8
Black
10
123.753
20
-125.503
11
123.753
21
-125.997
0
LINE
8
Black
10
123.753
20
-125.997
11
124.247
21
-125.997
0
LINE
8
Black
10
126.247
20
-125.997
11
126.247
21
-125.503
0
LINE
8
Black
10
126.247
20
-125.503
11
125.753
21
-125.503
0
LINE
8
Black
10
125.753
20
-125.503
11
125.753
21
-125.997
0
LINE
8
Black
10
125.753
20
-125.997
11
126.247
21
-125.997
0
LINE
8
Black
10
132.247
20
-125.997
11
132.247
21
-125.503
0
LINE
8
Black
10
132.247
20
-125.503
11
131.753
21
-125.503
0
LINE
8
Black
10
131.753
20
-125.503
11
131.753
21
-125.997
0
LINE
8
Black
10
131.753
20
-125.997
11
132.247
21
-125.997
0
LINE
8
Black
10
134.247
20
-125.997
11
134.247
21
-125.503
0
LINE
8
Black
10
134.247
20
-125.503
11
133.753
21
-125.503
0
LINE
8
Black
10
133.753
20
-125.503
11
133.753
21
-125.997
0
LINE
8
Black
10
133.753
20
-125.997
11
134.247
21
-125.997
0
LINE
8
Black
10
136.247
20
-125.997
11
136.247
21
-125.503
0
LINE
8
Black
10
136.247
20
-125.503
11
135.753
21
-125.503
0
LINE
8
Black
10
135.753
20
-125.503
11
135.753
21
-125.997
0
LINE
8
Black
10
135.753
20
-125.997
11
136.247
21
-125.997
0
LINE
8
Black
10
138.247
20
-125.997
11
138.247
21
-125.503
0
LINE
8
Black
10
138.247
20
-125.503
11
137.753
21
-125.503
0
LINE
8
Black
10
137.753
20
-125.503
11
137.753
21
-125.997
0
LINE
8
Black
10
137.753
20
-125.997
11
138.247
21
-125.997
0
LINE
8
Black
10
142.247
20
-67.4975
11
142.247
21
-67.0025
0
LINE
8
Black
10
142.247
20
-67.0025
11
141.753
21
-67.0025
0
LINE
8
Black
10
141.753
20
-67.0025
11
141.753
21
-67.4975
0
LINE
8
Black
10
141.753
20
-67.4975
11
142.247
21
-67.4975
0
LINE
8
Black
10
144.247
20
-67.4975
11
144.247
21
-67.0025
0
LINE
8
Black
10
144.247
20
-67.0025
11
143.753
21
-67.0025
0
LINE
8
Black
10
143.753
20
-67.0025
11
143.753
21
-67.4975
0
LINE
8
Black
10
143.753
20
-67.4975
11
144.247
21
-67.4975
0
LINE
8
Black
10
144.247
20
-125.997
11
144.247
21
-125.503
0
LINE
8
Black
10
144.247
20
-125.503
11
143.753
21
-125.503
0
LINE
8
Black
10
143.753
20
-125.503
11
143.753
21
-125.997
0
LINE
8
Black
10
143.753
20
-125.997
11
144.247
21
-125.997
0
LINE
8
Black
10
146.247
20
-67.4975
11
146.247
21
-67.0025
0
LINE
8
Black
10
146.247
20
-67.0025
11
145.753
21
-67.0025
0
LINE
8
Black
10
145.753
20
-67.0025
11
145.753
21
-67.4975
0
LINE
8
Black
10
145.753
20
-67.4975
11
146.247
21
-67.4975
0
LINE
8
Black
10
146.247
20
-125.997
11
146.247
21
-125.503
0
LINE
8
Black
10
146.247
20
-125.503
11
145.753
21
-125.503
0
LINE
8
Black
10
145.753
20
-125.503
11
145.753
21
-125.997
0
LINE
8
Black
10
145.753
20
-125.997
11
146.247
21
-125.997
0
LINE
8
Black
10
148.247
20
-67.4975
11
148.247
21
-67.0025
0
LINE
8
Black
10
148.247
20
-67.0025
11
147.753
21
-67.0025
0
LINE
8
Black
10
147.753
20
-67.0025
11
147.753
21
-67.4975
0
LINE
8
Black
10
147.753
20
-67.4975
11
148.247
21
-67.4975
0
LINE
8
Black
10
152.247
20
-125.997
11
152.247
21
-125.503
0
LINE
8
Black
10
152.247
20
-125.503
11
151.753
21
-125.503
0
LINE
8
Black
10
151.753
20
-125.503
11
151.753
21
-125.997
0
LINE
8
Black
10
151.753
20
-125.997
11
152.247
21
-125.997
0
LINE
8
Black
10
154.247
20
-125.997
11
154.247
21
-125.503
0
LINE
8
Black
10
154.247
20
-125.503
11
153.753
21
-125.503
0
LINE
8
Black
10
153.753
20
-125.503
11
153.753
21
-125.997
0
LINE
8
Black
10
153.753
20
-125.997
11
154.247
21
-125.997
0
LINE
8
Black
10
160.247
20
-125.997
11
160.247
21
-125.503
0
LINE
8
Black
10
160.247
20
-125.503
11
159.753
21
-125.503
0
LINE
8
Black
10
159.753
20
-125.503
11
159.753
21
-125.997
0
LINE
8
Black
10
159.753
20
-125.997
11
160.247
21
-125.997
0
LINE
8
Black
10
162.247
20
-125.997
11
162.247
21
-125.503
0
LINE
8
Black
10
162.247
20
-125.503
11
161.753
21
-125.503
0
LINE
8
Black
10
161.753
20
-125.503
11
161.753
21
-125.997
0
LINE
8
Black
10
161.753
20
-125.997
11
162.247
21
-125.997
0
LINE
8
Black
10
143.1
20
-99.6
11
143.6
21
-99.1
0
LINE
8
Black
10
143.6
20
-99.1
11
143.1
21
-98.6
0
LINE
8
Black
10
143.1
20
-98.6
11
142.6
21
-99.1
0
LINE
8
Black
10
142.6
20
-99.1
11
143.1
21
-99.6
0
LINE
8
Black
10
143.1
20
-101.6
11
143.6
21
-101.1
0
LINE
8
Black
10
143.6
20
-101.1
11
143.1
21
-100.6
0
LINE
8
Black
10
143.1
20
-100.6
11
142.6
21
-101.1
0
LINE
8
Black
10
142.6
20
-101.1
11
143.1
21
-101.6
0
LINE
8
Black
10
143.1
20
-103.6
11
143.6
21
-103.1
0
LINE
8
Black
10
143.6
20
-103.1
11
143.1
21
-102.6
0
LINE
8
Black
10
143.1
20
-102.6
11
142.6
21
-103.1
0
LINE
8
Black
10
142.6
20
-103.1
11
143.1
21
-103.6
0
LINE
8
Black
10
143.1
20
-105.6
11
143.6
21
-105.1
0
LINE
8
Black
10
143.6
20
-105.1
11
143.1
21
-104.6
0
LINE
8
Black
10
143.1
20
-104.6
11
142.6
21
-105.1
0
LINE
8
Black
10
142.6
20
-105.1
11
143.1
21
-105.6
0
LINE
8
Black
10
143.1
20
-107.6
11
143.6
21
-107.1
0
LINE
8
Black
10
143.6
20
-107.1
11
143.1
21
-106.6
0
LINE
8
Black
10
143.1
20
-106.6
11
142.6
21
-107.1
0
LINE
8
Black
10
142.6
20
-107.1
11
143.1
21
-107.6
0
LINE
8
Black
10
143.1
20
-109.6
11
143.6
21
-109.1
0
LINE
8
Black
10
143.6
20
-109.1
11
143.1
21
-108.6
0
LINE
8
Black
10
143.1
20
-108.6
11
142.6
21
-109.1
0
LINE
8
Black
10
142.6
20
-109.1
11
143.1
21
-109.6
0
LINE
8
Black
10
159.6
20
-100.1
11
160.1
21
-99.6
0
LINE
8
Black
10
160.1
20
-99.6
11
159.6
21
-99.1
0
LINE
8
Black
10
159.6
20
-99.1
11
159.1
21
-99.6
0
LINE
8
Black
10
159.1
20
-99.6
11
159.6
21
-100.1
0
LINE
8
Black
10
161.6
20
-100.1
11
162.1
21
-99.6
0
LINE
8
Black
10
162.1
20
-99.6
11
161.6
21
-99.1
0
LINE
8
Black
10
161.6
20
-99.1
11
161.1
21
-99.6
0
LINE
8
Black
10
161.1
20
-99.6
11
161.6
21
-100.1
  0
TEXT
  7
KICAD
  8
Black
  10
117.95
  11
117.95
  20
-137.35
  21
-137.35
  40
3
  41
1
  50
0
  51
0
  71
0
  72
0
  73
2
  1
Drill Map:
0
LINE
8
Black
10
115.75
20
-143.55
11
115.95
21
-143.75
0
LINE
8
Black
10
115.95
20
-143.55
11
115.75
21
-143.75
  0
TEXT
  7
KICAD
  8
Black
  10
117.95
  11
117.95
  20
-143.65
  21
-143.65
  40
3
  41
1
  50
0
  51
0
  71
0
  72
0
  73
2
  1
0.20mm / 0.008" (21 holes)
0
CIRCLE
8
Black
10
115.65
20
-147.61
40
0.3
  0
TEXT
  7
KICAD
  8
Black
  10
117.95
  11
117.95
  20
-147.61
  21
-147.61
  40
3
  41
1
  50
0
  51
0
  71
0
  72
0
  73
2
  1
0.60mm / 0.024" (189 holes)
0
LINE
8
Black
10
115.632
20
-151.253
11
115.632
21
-151.888
0
LINE
8
Black
10
115.315
20
-151.57
11
115.95
21
-151.57
  0
TEXT
  7
KICAD
  8
Black
  10
117.95
  11
117.95
  20
-151.57
  21
-151.57
  40
3
  41
1
  50
0
  51
0
  71
0
  72
0
  73
2
  1
0.64mm / 0.025" (10 holes)
0
LINE
8
Black
10
115.847
20
-155.777
11
115.847
21
-155.283
0
LINE
8
Black
10
115.847
20
-155.283
11
115.353
21
-155.283
0
LINE
8
Black
10
115.353
20
-155.283
11
115.353
21
-155.777
0
LINE
8
Black
10
115.353
20
-155.777
11
115.847
21
-155.777
  0
TEXT
  7
KICAD
  8
Black
  10
117.95
  11
117.95
  20
-155.53
  21
-155.53
  40
3
  41
1
  50
0
  51
0
  71
0
  72
0
  73
2
  1
0.70mm / 0.028" (20 holes)
0
LINE
8
Black
10
115.45
20
-159.99
11
115.95
21
-159.49
0
LINE
8
Black
10
115.95
20
-159.49
11
115.45
21
-158.99
0
LINE
8
Black
10
115.45
20
-158.99
11
114.95
21
-159.49
0
LINE
8
Black
10
114.95
20
-159.49
11
115.45
21
-159.99
  0
TEXT
  7
KICAD
  8
Black
  10
117.95
  11
117.95
  20
-159.49
  21
-159.49
  40
3
  41
1
  50
0
  51
0
  71
0
  72
0
  73
2
  1
1.00mm / 0.039" (8 holes)
  0
ENDSEC
  0
EOF
