  0
SECTION
  2
HEADER
  9
$ANGBASE
  50
0.0
  9
$ANGDIR
  70
  1
  9
$MEASUREMENT
  70
0
  0
ENDSEC
  0
SECTION
  2
TABLES
  0
TABLE
  2
LTYPE
  70
1
  0
LTYPE
  2
CONTINUOUS
  70
0
  3
Solid line
  72
65
  73
0
  40
0.0
  0
ENDTAB
  0
TABLE
  2
STYLE
  70
4
  0
STYLE
  2
KICAD
  70
0
  40
0
  41
1
  42
1
  50
0
  71
0
  3
isocp.shx
  0
STYLE
  2
KICADB
  70
0
  40
0
  41
1
  42
1
  50
0
  71
0
  3
isocp.shx
  0
STYLE
  2
KICADI
  70
0
  40
0
  41
1
  42
1
  50
15
  71
0
  3
isocp.shx
  0
STYLE
  2
KICADBI
  70
0
  40
0
  41
1
  42
1
  50
15
  71
0
  3
isocp.shx
  0
ENDTAB
  0
TABLE
  2
LAYER
  70
30
  0
LAYER
  2
BLACK
  70
0
  62
7
  6
CONTINUOUS
  0
LAYER
  2
GRAY1
  70
0
  62
251
  6
CONTINUOUS
  0
LAYER
  2
GRAY2
  70
0
  62
8
  6
CONTINUOUS
  0
LAYER
  2
GRAY3
  70
0
  62
9
  6
CONTINUOUS
  0
LAYER
  2
WHITE
  70
0
  62
7
  6
CONTINUOUS
  0
LAYER
  2
LYELLOW
  70
0
  62
51
  6
CONTINUOUS
  0
LAYER
  2
BLUE1
  70
0
  62
178
  6
CONTINUOUS
  0
LAYER
  2
GREEN1
  70
0
  62
98
  6
CONTINUOUS
  0
LAYER
  2
CYAN1
  70
0
  62
138
  6
CONTINUOUS
  0
LAYER
  2
RED1
  70
0
  62
18
  6
CONTINUOUS
  0
LAYER
  2
MAGENTA1
  70
0
  62
228
  6
CONTINUOUS
  0
LAYER
  2
BROWN1
  70
0
  62
58
  6
CONTINUOUS
  0
LAYER
  2
BLUE2
  70
0
  62
5
  6
CONTINUOUS
  0
LAYER
  2
GREEN2
  70
0
  62
3
  6
CONTINUOUS
  0
LAYER
  2
CYAN2
  70
0
  62
4
  6
CONTINUOUS
  0
LAYER
  2
RED2
  70
0
  62
1
  6
CONTINUOUS
  0
LAYER
  2
MAGENTA2
  70
0
  62
6
  6
CONTINUOUS
  0
LAYER
  2
BROWN2
  70
0
  62
54
  6
CONTINUOUS
  0
LAYER
  2
BLUE3
  70
0
  62
171
  6
CONTINUOUS
  0
LAYER
  2
GREEN3
  70
0
  62
91
  6
CONTINUOUS
  0
LAYER
  2
CYAN3
  70
0
  62
131
  6
CONTINUOUS
  0
LAYER
  2
RED3
  70
0
  62
11
  6
CONTINUOUS
  0
LAYER
  2
MAGENTA3
  70
0
  62
221
  6
CONTINUOUS
  0
LAYER
  2
YELLOW3
  70
0
  62
2
  6
CONTINUOUS
  0
LAYER
  2
BLUE4
  70
0
  62
5
  6
CONTINUOUS
  0
LAYER
  2
GREEN4
  70
0
  62
3
  6
CONTINUOUS
  0
LAYER
  2
CYAN4
  70
0
  62
4
  6
CONTINUOUS
  0
LAYER
  2
RED4
  70
0
  62
1
  6
CONTINUOUS
  0
LAYER
  2
MAGENTA4
  70
0
  62
6
  6
CONTINUOUS
  0
LAYER
  2
YELLOW4
  70
0
  62
2
  6
CONTINUOUS
  0
ENDTAB
  0
ENDSEC
  0
SECTION
  2
ENTITIES
0
LINE
8
Black
10
116.05
20
-134
11
116.05
21
-59
0
LINE
8
Black
10
115.95
20
-134
11
115.95
21
-59
0
ARC
8
Black
10
116
20
-59
40
0.05
50
360
51
540
0
ARC
8
Black
10
116
20
-134
40
0.05
50
180
51
360
0
LINE
8
Black
10
116
20
-59.05
11
166
21
-59.05
0
LINE
8
Black
10
116
20
-58.95
11
166
21
-58.95
0
ARC
8
Black
10
166
20
-59
40
0.05
50
270
51
450
0
ARC
8
Black
10
116
20
-59
40
0.05
50
90
51
270
0
LINE
8
Black
10
166.05
20
-134
11
166.05
21
-59
0
LINE
8
Black
10
165.95
20
-134
11
165.95
21
-59
0
ARC
8
Black
10
166
20
-59
40
0.05
50
360
51
540
0
ARC
8
Black
10
166
20
-134
40
0.05
50
180
51
360
0
LINE
8
Black
10
116
20
-134.05
11
166
21
-134.05
0
LINE
8
Black
10
116
20
-133.95
11
166
21
-133.95
0
ARC
8
Black
10
166
20
-134
40
0.05
50
270
51
450
0
ARC
8
Black
10
116
20
-134
40
0.05
50
90
51
270
0
LINE
8
Black
10
117.95
20
-127.3
11
119.05
21
-128.4
0
LINE
8
Black
10
119.05
20
-127.3
11
117.95
21
-128.4
0
LINE
8
Black
10
126.95
20
-127.3
11
128.05
21
-128.4
0
LINE
8
Black
10
128.05
20
-127.3
11
126.95
21
-128.4
0
LINE
8
Black
10
129.95
20
-127.3
11
131.05
21
-128.4
0
LINE
8
Black
10
131.05
20
-127.3
11
129.95
21
-128.4
0
LINE
8
Black
10
138.95
20
-127.3
11
140.05
21
-128.4
0
LINE
8
Black
10
140.05
20
-127.3
11
138.95
21
-128.4
0
LINE
8
Black
10
139.95
20
-64.6
11
141.05
21
-65.7
0
LINE
8
Black
10
141.05
20
-64.6
11
139.95
21
-65.7
0
LINE
8
Black
10
141.95
20
-127.3
11
143.05
21
-128.4
0
LINE
8
Black
10
143.05
20
-127.3
11
141.95
21
-128.4
0
LINE
8
Black
10
146.95
20
-127.3
11
148.05
21
-128.4
0
LINE
8
Black
10
148.05
20
-127.3
11
146.95
21
-128.4
0
LINE
8
Black
10
148.95
20
-64.6
11
150.05
21
-65.7
0
LINE
8
Black
10
150.05
20
-64.6
11
148.95
21
-65.7
0
LINE
8
Black
10
149.95
20
-127.3
11
151.05
21
-128.4
0
LINE
8
Black
10
151.05
20
-127.3
11
149.95
21
-128.4
0
LINE
8
Black
10
154.95
20
-127.3
11
156.05
21
-128.4
0
LINE
8
Black
10
156.05
20
-127.3
11
154.95
21
-128.4
0
LINE
8
Black
10
157.95
20
-127.3
11
159.05
21
-128.4
0
LINE
8
Black
10
159.05
20
-127.3
11
157.95
21
-128.4
0
LINE
8
Black
10
162.95
20
-127.3
11
164.05
21
-128.4
0
LINE
8
Black
10
164.05
20
-127.3
11
162.95
21
-128.4
0
CIRCLE
8
Black
10
121
20
-74
40
1.65
0
CIRCLE
8
Black
10
121
20
-117
40
1.65
0
CIRCLE
8
Black
10
161
20
-74
40
1.65
0
CIRCLE
8
Black
10
161
20
-117
40
1.65
  0
TEXT
  7
KICAD
  8
Black
  10
117.95
  11
117.95
  20
-137.35
  21
-137.35
  40
3
  41
1
  50
0
  51
0
  71
0
  72
0
  73
2
  1
Drill Map:
0
LINE
8
Black
10
114.85
20
-143.1
11
115.95
21
-144.2
0
LINE
8
Black
10
115.95
20
-143.1
11
114.85
21
-144.2
  0
TEXT
  7
KICAD
  8
Black
  10
117.95
  11
117.95
  20
-143.65
  21
-143.65
  40
3
  41
1
  50
0
  51
0
  71
0
  72
0
  73
2
  1
1.10mm / 0.043" (12 holes)
0
CIRCLE
8
Black
10
114.3
20
-147.61
40
1.65
  0
TEXT
  7
KICAD
  8
Black
  10
117.95
  11
117.95
  20
-147.61
  21
-147.61
  40
3
  41
1
  50
0
  51
0
  71
0
  72
0
  73
2
  1
3.30mm / 0.130" (4 holes)
  0
ENDSEC
  0
EOF
