999
dxflib 3.3.4.0
  0
SECTION
  2
HEADER
  9
$ACADVER
  1
AC1015
  9
$HANDSEED
  5
FFFF
  9
$DIMADEC
 70
0
  9
$DIMASZ
 40
2.5
  9
$DIMAUNIT
 70
0
  9
$DIMAZIN
 70
2
  9
$DIMDEC
 70
4
  9
$DIMEXE
 40
1.25
  9
$DIMEXO
 40
0.625
  9
$DIMGAP
 40
0.625
  9
$DIMLUNIT
 70
2
  9
$DIMSCALE
 40
1.0
  9
$DIMTSZ
 40
0.0
  9
$DIMTXT
 40
2.5
  9
$DIMZIN
 70
8
  9
$DWGCODEPAGE
  3
ANSI_1252
  9
$INSUNITS
 70
4
  9
$LTSCALE
 40
1.0
  0
ENDSEC
  0
SECTION
  2
TABLES
  0
TABLE
  2
VPORT
  5
8
100
AcDbSymbolTable
 70
1
  0
VPORT
  5
30
100
AcDbSymbolTableRecord
100
AcDbViewportTableRecord
  2
*Active
 70
0
 10
0.0
 20
0.0
 11
1.0
 21
1.0
 12
286.3055555555554861
 22
148.5
 13
0.0
 23
0.0
 14
10.0
 24
10.0
 15
10.0
 25
10.0
 16
0.0
 26
0.0
 36
1.0
 17
0.0
 27
0.0
 37
0.0
 40
297.0
 41
1.92798353909465
 42
50.0
 43
0.0
 44
0.0
 50
0.0
 51
0.0
 71
0
 72
100
 73
1
 74
3
 75
1
 76
1
 77
0
 78
0
281
0
 65
1
110
0.0
120
0.0
130
0.0
111
1.0
121
0.0
131
0.0
112
0.0
122
1.0
132
0.0
 79
0
146
0.0
  0
ENDTAB
  0
TABLE
  2
LTYPE
  5
5
100
AcDbSymbolTable
 70
21
  0
LTYPE
  5
16
100
AcDbSymbolTableRecord
100
AcDbLinetypeTableRecord
  2
CONTINUOUS
 70
0
  3
Solid line
 72
65
 73
0
 40
0.0
  0
LTYPE
  5
31
100
AcDbSymbolTableRecord
100
AcDbLinetypeTableRecord
  2
CENTER2
 70
0
  3
Center (.5x) ___ _ ___ _ ___ _ ___ _ ___ _ ___
 72
65
 73
4
 40
28.5749999999999993
 49
19.0500000000000007
 74
0
 49
-3.1749999999999998
 74
0
 49
3.1749999999999998
 74
0
 49
-3.1749999999999998
 74
0
  0
LTYPE
  5
32
100
AcDbSymbolTableRecord
100
AcDbLinetypeTableRecord
  2
DIVIDEX2
 70
0
  3
Divide (2x) ________  .  .  ________  .  .  _
 72
65
 73
6
 40
63.5
 49
25.3999999999999986
 74
0
 49
-12.6999999999999993
 74
0
 49
0.0
 74
0
 49
-12.6999999999999993
 74
0
 49
0.0
 74
0
 49
-12.6999999999999993
 74
0
  0
LTYPE
  5
33
100
AcDbSymbolTableRecord
100
AcDbLinetypeTableRecord
  2
DOT2
 70
0
  3
Dot (.5x) .....................................
 72
65
 73
2
 40
3.1749999999999998
 49
0.0
 74
0
 49
-3.1749999999999998
 74
0
  0
LTYPE
  5
34
100
AcDbSymbolTableRecord
100
AcDbLinetypeTableRecord
  2
DASHDOT2
 70
0
  3
Dash dot (.5x) _._._._._._._._._._._._._._._.
 72
65
 73
4
 40
12.6999999999999993
 49
6.3499999999999996
 74
0
 49
-3.1749999999999998
 74
0
 49
0.0
 74
0
 49
-3.1749999999999998
 74
0
  0
LTYPE
  5
35
100
AcDbSymbolTableRecord
100
AcDbLinetypeTableRecord
  2
DIVIDE
 70
0
  3
Divide ____ . . ____ . . ____ . . ____ . . ____
 72
65
 73
6
 40
31.75
 49
12.6999999999999993
 74
0
 49
-6.3499999999999996
 74
0
 49
0.0
 74
0
 49
-6.3499999999999996
 74
0
 49
0.0
 74
0
 49
-6.3499999999999996
 74
0
  0
LTYPE
  5
36
100
AcDbSymbolTableRecord
100
AcDbLinetypeTableRecord
  2
DASHDOT
 70
0
  3
Dash dot __ . __ . __ . __ . __ . __ . __ . __
 72
65
 73
4
 40
25.3999999999999986
 49
12.6999999999999993
 74
0
 49
-6.3499999999999996
 74
0
 49
0.0
 74
0
 49
-6.3499999999999996
 74
0
  0
LTYPE
  5
37
100
AcDbSymbolTableRecord
100
AcDbLinetypeTableRecord
  2
BORDER
 70
0
  3
Border __ __ . __ __ . __ __ . __ __ . __ __ .
 72
65
 73
6
 40
44.4500000000000028
 49
12.6999999999999993
 74
0
 49
-6.3499999999999996
 74
0
 49
12.6999999999999993
 74
0
 49
-6.3499999999999996
 74
0
 49
0.0
 74
0
 49
-6.3499999999999996
 74
0
  0
LTYPE
  5
38
100
AcDbSymbolTableRecord
100
AcDbLinetypeTableRecord
  2
DASHDOTX2
 70
0
  3
Dash dot (2x) ____  .  ____  .  ____  .  ___
 72
65
 73
4
 40
50.7999999999999972
 49
25.3999999999999986
 74
0
 49
-12.6999999999999993
 74
0
 49
0.0
 74
0
 49
-12.6999999999999993
 74
0
  0
LTYPE
  5
39
100
AcDbSymbolTableRecord
100
AcDbLinetypeTableRecord
  2
CENTERX2
 70
0
  3
Center (2x) ________  __  ________  __  _____
 72
65
 73
4
 40
101.5999999999999943
 49
63.5
 74
0
 49
-12.6999999999999993
 74
0
 49
12.6999999999999993
 74
0
 49
-12.6999999999999993
 74
0
  0
LTYPE
  5
3A
100
AcDbSymbolTableRecord
100
AcDbLinetypeTableRecord
  2
BORDER2
 70
0
  3
Border (.5x) __.__.__.__.__.__.__.__.__.__.__.
 72
65
 73
6
 40
22.2250000000000014
 49
6.3499999999999996
 74
0
 49
-3.1749999999999998
 74
0
 49
6.3499999999999996
 74
0
 49
-3.1749999999999998
 74
0
 49
0.0
 74
0
 49
-3.1749999999999998
 74
0
  0
LTYPE
  5
3B
100
AcDbSymbolTableRecord
100
AcDbLinetypeTableRecord
  2
BORDERX2
 70
0
  3
Border (2x) ____  ____  .  ____  ____  .  ___
 72
65
 73
6
 40
88.9000000000000057
 49
25.3999999999999986
 74
0
 49
-12.6999999999999993
 74
0
 49
25.3999999999999986
 74
0
 49
-12.6999999999999993
 74
0
 49
0.0
 74
0
 49
-12.6999999999999993
 74
0
  0
LTYPE
  5
14
100
AcDbSymbolTableRecord
100
AcDbLinetypeTableRecord
  2
BYBLOCK
 70
0
  3

 72
65
 73
0
 40
0.0
  0
LTYPE
  5
15
100
AcDbSymbolTableRecord
100
AcDbLinetypeTableRecord
  2
BYLAYER
 70
0
  3

 72
65
 73
0
 40
0.0
  0
LTYPE
  5
3C
100
AcDbSymbolTableRecord
100
AcDbLinetypeTableRecord
  2
DASHED2
 70
0
  3
Dashed (.5x) _ _ _ _ _ _ _ _ _ _ _ _ _ _ _ _ _
 72
65
 73
2
 40
9.5250000000000004
 49
6.3499999999999996
 74
0
 49
-3.1749999999999998
 74
0
  0
LTYPE
  5
3D
100
AcDbSymbolTableRecord
100
AcDbLinetypeTableRecord
  2
CENTER
 70
0
  3
Center ____ _ ____ _ ____ _ ____ _ ____ _ ____
 72
65
 73
4
 40
50.7999999999999972
 49
31.75
 74
0
 49
-6.3499999999999996
 74
0
 49
6.3499999999999996
 74
0
 49
-6.3499999999999996
 74
0
  0
LTYPE
  5
3E
100
AcDbSymbolTableRecord
100
AcDbLinetypeTableRecord
  2
DIVIDE2
 70
0
  3
Divide (.5x) __..__..__..__..__..__..__..__.._
 72
65
 73
6
 40
15.875
 49
6.3499999999999996
 74
0
 49
-3.1749999999999998
 74
0
 49
0.0
 74
0
 49
-3.1749999999999998
 74
0
 49
0.0
 74
0
 49
-3.1749999999999998
 74
0
  0
LTYPE
  5
3F
100
AcDbSymbolTableRecord
100
AcDbLinetypeTableRecord
  2
DASHED
 70
0
  3
Dashed __ __ __ __ __ __ __ __ __ __ __ __ __ _
 72
65
 73
2
 40
19.0500000000000007
 49
12.6999999999999993
 74
0
 49
-6.3499999999999996
 74
0
  0
LTYPE
  5
40
100
AcDbSymbolTableRecord
100
AcDbLinetypeTableRecord
  2
DOTX2
 70
0
  3
Dot (2x) .  .  .  .  .  .  .  .  .  .  .  .  .
 72
65
 73
2
 40
12.6999999999999993
 49
0.0
 74
0
 49
-12.6999999999999993
 74
0
  0
LTYPE
  5
41
100
AcDbSymbolTableRecord
100
AcDbLinetypeTableRecord
  2
DASHEDX2
 70
0
  3
Dashed (2x) ____  ____  ____  ____  ____  ___
 72
65
 73
2
 40
38.1000000000000014
 49
25.3999999999999986
 74
0
 49
-12.6999999999999993
 74
0
  0
LTYPE
  5
42
100
AcDbSymbolTableRecord
100
AcDbLinetypeTableRecord
  2
DOT
 70
0
  3
Dot . . . . . . . . . . . . . . . . . . . . . .
 72
65
 73
2
 40
6.3499999999999996
 49
0.0
 74
0
 49
-6.3499999999999996
 74
0
  0
ENDTAB
  0
TABLE
  2
LAYER
  5
2
100
AcDbSymbolTable
 70
1
  0
LAYER
  5
10
100
AcDbSymbolTableRecord
100
AcDbLayerTableRecord
  2
0
 70
0
 62
7
420
0
  6
CONTINUOUS
370
25
390
F
  0
ENDTAB
  0
TABLE
  2
STYLE
  5
3
100
AcDbSymbolTable
 70
1
  0
STYLE
  5
43
100
AcDbSymbolTableRecord
100
AcDbTextStyleTableRecord
  2
Standard
 70
0
 40
0.0
 41
1.0
 50
0.0
 71
0
 42
2.5
  3

  4

1001
ACAD
1000
txt
1071
0
  0
ENDTAB
  0
TABLE
  2
VIEW
  5
6
100
AcDbSymbolTable
 70
0
  0
ENDTAB
  0
TABLE
  2
UCS
  5
7
100
AcDbSymbolTable
 70
0
  0
ENDTAB
  0
TABLE
  2
APPID
  5
9
100
AcDbSymbolTable
 70
1
  0
APPID
  5
12
100
AcDbSymbolTableRecord
100
AcDbRegAppTableRecord
  2
ACAD
 70
0
  0
APPID
  5
44
100
AcDbSymbolTableRecord
100
AcDbRegAppTableRecord
  2
QCAD
 70
0
  0
ENDTAB
  0
TABLE
  2
DIMSTYLE
  5
A
100
AcDbSymbolTable
 70
1
100
AcDbDimStyleTable
 71
0
  0
DIMSTYLE
105
27
100
AcDbSymbolTableRecord
100
AcDbDimStyleTableRecord
  2
Standard
 41
2.5
 42
0.625
 43
3.75
 44
1.25
 70
0
 73
0
 74
0
 77
1
 78
8
140
2.5
141
2.5
143
0.03937007874016
147
0.625
171
3
172
1
271
2
272
2
274
3
278
44
283
0
284
8
340
43
  0
ENDTAB
  0
TABLE
  2
BLOCK_RECORD
  5
1
100
AcDbSymbolTable
 70
1
  0
BLOCK_RECORD
  5
1F
100
AcDbSymbolTableRecord
100
AcDbBlockTableRecord
  2
*Model_Space
340
22
  0
BLOCK_RECORD
  5
1B
100
AcDbSymbolTableRecord
100
AcDbBlockTableRecord
  2
*Paper_Space
340
1E
  0
BLOCK_RECORD
  5
23
100
AcDbSymbolTableRecord
100
AcDbBlockTableRecord
  2
*Paper_Space0
340
26
  0
ENDTAB
  0
ENDSEC
  0
SECTION
  2
BLOCKS
  0
BLOCK
  5
20
100
AcDbEntity
  8
0
100
AcDbBlockBegin
  2
*Model_Space
 70
0
 10
0.0
 20
0.0
 30
0.0
  3
*Model_Space
  1

  0
ENDBLK
  5
21
100
AcDbEntity
  8
0
100
AcDbBlockEnd
  0
BLOCK
  5
1C
100
AcDbEntity
 67
1
  8
0
100
AcDbBlockBegin
  2
*Paper_Space
 70
0
 10
0.0
 20
0.0
 30
0.0
  3
*Paper_Space
  1

  0
ENDBLK
  5
1D
100
AcDbEntity
 67
1
  8
0
100
AcDbBlockEnd
  0
BLOCK
  5
24
100
AcDbEntity
  8
0
100
AcDbBlockBegin
  2
*Paper_Space0
 70
0
 10
0.0
 20
0.0
 30
0.0
  3
*Paper_Space0
  1

  0
ENDBLK
  5
25
100
AcDbEntity
  8
0
100
AcDbBlockEnd
  0
ENDSEC
  0
SECTION
  2
ENTITIES
  0
LINE
  5
45
100
AcDbEntity
100
AcDbLine
  8
0
 62
1
420
16711680
370
5
  6
BYLAYER
 10
1.0
 20
0.0
 30
0.0
 11
55.0
 21
0.0
 31
0.0
  0
LINE
  5
46
100
AcDbEntity
100
AcDbLine
  8
0
 62
1
420
16711680
370
5
  6
BYLAYER
 10
56.0
 20
1.0
 30
0.0
 11
56.0
 21
55.0
 31
0.0
  0
LINE
  5
47
100
AcDbEntity
100
AcDbLine
  8
0
 62
1
420
16711680
370
5
  6
BYLAYER
 10
0.0
 20
55.0
 30
0.0
 11
0.0
 21
1.0
 31
0.0
  0
CIRCLE
  5
48
100
AcDbEntity
100
AcDbCircle
  8
0
 62
1
420
16711680
370
5
  6
BYLAYER
 10
7.0
 20
29.5
 30
0.0
 40
2.0
  0
LINE
  5
49
100
AcDbEntity
100
AcDbLine
  8
0
 62
1
420
16711680
370
5
  6
BYLAYER
 10
20.5
 20
41.5
 30
0.0
 11
35.5
 21
41.5
 31
0.0
  0
LINE
  5
4A
100
AcDbEntity
100
AcDbLine
  8
0
 62
1
420
16711680
370
5
  6
BYLAYER
 10
36.5
 20
42.5
 30
0.0
 11
36.5
 21
55.0
 31
0.0
  0
LINE
  5
4B
100
AcDbEntity
100
AcDbLine
  8
0
 62
1
420
16711680
370
5
  6
BYLAYER
 10
19.5
 20
55.0
 30
0.0
 11
19.5
 21
42.5
 31
0.0
  0
LINE
  5
4C
100
AcDbEntity
100
AcDbLine
  8
0
 62
1
420
16711680
370
5
  6
BYLAYER
 10
55.0
 20
56.0
 30
0.0
 11
37.5
 21
56.0
 31
0.0
  0
LINE
  5
4D
100
AcDbEntity
100
AcDbLine
  8
0
 62
1
420
16711680
370
5
  6
BYLAYER
 10
18.5
 20
56.0
 30
0.0
 11
1.0
 21
56.0
 31
0.0
  0
CIRCLE
  5
4E
100
AcDbEntity
100
AcDbCircle
  8
0
 62
1
420
16711680
370
5
  6
BYLAYER
 10
4.0
 20
16.0
 30
0.0
 40
1.6000000000000001
  0
CIRCLE
  5
4F
100
AcDbEntity
100
AcDbCircle
  8
0
 62
1
420
16711680
370
5
  6
BYLAYER
 10
4.0
 20
48.0
 30
0.0
 40
1.6000000000000001
  0
CIRCLE
  5
50
100
AcDbEntity
100
AcDbCircle
  8
0
 62
1
420
16711680
370
5
  6
BYLAYER
 10
52.0
 20
16.0
 30
0.0
 40
1.6000000000000001
  0
CIRCLE
  5
51
100
AcDbEntity
100
AcDbCircle
  8
0
 62
1
420
16711680
370
5
  6
BYLAYER
 10
52.0
 20
48.0
 30
0.0
 40
1.6000000000000001
  0
LINE
  5
52
100
AcDbEntity
100
AcDbLine
  8
0
 62
7
420
16777215
370
5
  6
BYLAYER
 10
40.5036608313793707
 20
26.5279956738292348
 30
0.0
 11
40.5036608313793707
 21
26.5279956738292348
 31
0.0
  0
ARC
  5
53
100
AcDbEntity
  8
0
 62
3
420
65280
370
5
  6
BYLAYER
100
AcDbCircle
 10
23.8797651009813734
 20
16.8986449248696253
 30
0.0
 40
0.8808707050794693
100
AcDbArc
 50
242.3172765759247795
 51
263.2045738770330559
  0
ARC
  5
54
100
AcDbEntity
  8
0
 62
3
420
65280
370
5
  6
BYLAYER
100
AcDbCircle
 10
23.8522918775446442
 20
16.8171294041369705
 30
0.0
 40
0.7968722293351099
100
AcDbArc
 50
264.4726431256091814
 51
283.8966039191786308
  0
ARC
  5
55
100
AcDbEntity
  8
0
 62
3
420
65280
370
5
  6
BYLAYER
100
AcDbCircle
 10
23.8646736903319834
 20
16.7883345554407803
 30
0.0
 40
0.7659634425984947
100
AcDbArc
 50
283.5148304693381647
 51
302.3109490889424933
  0
ARC
  5
56
100
AcDbEntity
  8
0
 62
3
420
65280
370
5
  6
BYLAYER
100
AcDbCircle
 10
23.6118959982544965
 20
17.2253002554628516
 30
0.0
 40
1.2705386976852366
100
AcDbArc
 50
301.4123042824844561
 51
312.233822067059009
  0
LINE
  5
57
100
AcDbEntity
100
AcDbLine
  8
0
 62
3
420
65280
370
5
  6
BYLAYER
 10
24.4658984610455263
 20
16.2845833076714861
 30
0.0
 11
24.8785412166010858
 21
15.8412347743381545
 31
0.0
  0
ARC
  5
58
100
AcDbEntity
  8
0
 62
3
420
65280
370
5
  6
BYLAYER
100
AcDbCircle
 10
23.7229192451313367
 20
17.160669088461816
 30
0.0
 40
1.7539581095997507
100
AcDbArc
 50
298.9751031923974551
 51
311.2133842855504895
  0
ARC
  5
59
100
AcDbEntity
  8
0
 62
3
420
65280
370
5
  6
BYLAYER
100
AcDbCircle
 10
23.9895701903820822
 20
16.6777935738771852
 30
0.0
 40
1.2023505655823841
100
AcDbArc
 50
280.0462908419683572
 51
299.005831486016632
  0
ARC
  5
5A
100
AcDbEntity
  8
0
 62
3
420
65280
370
5
  6
BYLAYER
100
AcDbCircle
 10
23.9641439539201997
 20
16.8757152746899024
 30
0.0
 40
1.4017051330233752
100
AcDbArc
 50
261.4847910722460256
 51
279.6583837893330156
  0
ARC
  5
5B
100
AcDbEntity
  8
0
 62
3
420
65280
370
5
  6
BYLAYER
100
AcDbCircle
 10
24.0345570266042401
 20
17.1809815720505412
 30
0.0
 40
1.7142067250999111
100
AcDbArc
 50
242.5097106194215826
 51
260.6680290460788569
  0
ARC
  5
5C
100
AcDbEntity
  8
0
 62
3
420
65280
370
5
  6
BYLAYER
100
AcDbCircle
 10
24.0339492575853484
 20
17.3493352121139068
 30
0.0
 40
1.8649132642610264
100
AcDbArc
 50
222.9982195635953701
 51
244.9145209376913215
  0
ARC
  5
5D
100
AcDbEntity
  8
0
 62
3
420
65280
370
5
  6
BYLAYER
100
AcDbCircle
 10
23.6582091604710314
 20
16.9702367492552035
 30
0.0
 40
1.3317363360993066
100
AcDbArc
 50
196.3558534808150569
 51
222.0939381133439383
  0
ARC
  5
5E
100
AcDbEntity
  8
0
 62
3
420
65280
370
5
  6
BYLAYER
100
AcDbCircle
 10
23.7406036121169564
 20
16.9573840116721613
 30
0.0
 40
1.4076256337694462
100
AcDbArc
 50
170.8661618237650544
 51
194.9092859844350301
  0
ARC
  5
5F
100
AcDbEntity
  8
0
 62
3
420
65280
370
5
  6
BYLAYER
100
AcDbCircle
 10
24.4722012936781965
 20
16.8261258977208819
 30
0.0
 40
2.150825005084783
100
AcDbArc
 50
153.0549038245893883
 51
170.5076227764529051
  0
ARC
  5
60
100
AcDbEntity
  8
0
 62
3
420
65280
370
5
  6
BYLAYER
100
AcDbCircle
 10
24.5173688225184847
 20
16.8591463081303345
 30
0.0
 40
2.1766985554101774
100
AcDbArc
 50
136.834256118412469
 51
154.3685771368213011
  0
ARC
  5
61
100
AcDbEntity
  8
0
 62
3
420
65280
370
5
  6
BYLAYER
100
AcDbCircle
 10
23.8869480175132409
 20
17.4383730479442534
 30
0.0
 40
1.3206574996753275
100
AcDbArc
 50
111.3601151695066989
 51
136.4523506144818157
  0
ARC
  5
62
100
AcDbEntity
  8
0
 62
3
420
65280
370
5
  6
BYLAYER
100
AcDbCircle
 10
23.8406654422791036
 20
17.5164094873870582
 30
0.0
 40
1.231211502399471
100
AcDbArc
 50
83.7068045291065204
 51
110.6769348396636872
  0
ARC
  5
63
100
AcDbEntity
  8
0
 62
3
420
65280
370
5
  6
BYLAYER
100
AcDbCircle
 10
23.7617813496101178
 20
16.8598857941687648
 30
0.0
 40
1.8924369190006154
100
AcDbArc
 50
62.4206945075247717
 51
83.5117328517066255
  0
ARC
  5
64
100
AcDbEntity
  8
0
 62
3
420
65280
370
5
  6
BYLAYER
100
AcDbCircle
 10
23.7912621594067559
 20
16.7570708650988678
 30
0.0
 40
1.9712995340907791
100
AcDbArc
 50
48.9603276950503457
 51
64.5642067431450499
  0
ARC
  5
65
100
AcDbEntity
  8
0
 62
3
420
65280
370
5
  6
BYLAYER
100
AcDbCircle
 10
24.2513545745340195
 20
17.2887764775732649
 30
0.0
 40
1.2681714110776101
100
AcDbArc
 50
29.1561551941318164
 51
48.8663097382802434
  0
ARC
  5
66
100
AcDbEntity
  8
0
 62
3
420
65280
370
5
  6
BYLAYER
100
AcDbCircle
 10
24.4564987714421704
 20
17.3933763714774123
 30
0.0
 40
1.0380954035897936
100
AcDbArc
 50
8.0771863688884853
 51
29.6307078867107379
  0
ARC
  5
67
100
AcDbEntity
  8
0
 62
3
420
65280
370
5
  6
BYLAYER
100
AcDbCircle
 10
24.207203605410804
 20
17.3450384281343624
 30
0.0
 40
1.2917730255495192
100
AcDbArc
 50
351.4373750790359168
 51
8.6462931138730852
  0
LINE
  5
68
100
AcDbEntity
100
AcDbLine
  8
0
 62
3
420
65280
370
5
  6
BYLAYER
 10
25.4845781610455333
 20
17.1527059187826048
 30
0.0
 11
24.9014449610455344
 21
17.2671371521159358
 31
0.0
  0
ARC
  5
69
100
AcDbEntity
  8
0
 62
3
420
65280
370
5
  6
BYLAYER
100
AcDbCircle
 10
24.235189601049214
 20
17.3709200877831407
 30
0.0
 40
0.674290072935919
100
AcDbArc
 50
351.1461609556883445
 51
9.2352120130243733
  0
ARC
  5
6A
100
AcDbEntity
  8
0
 62
3
420
65280
370
5
  6
BYLAYER
100
AcDbCircle
 10
24.2464268340825058
 20
17.3803793108254645
 30
0.0
 40
0.6617232897180052
100
AcDbArc
 50
8.5829329013346332
 51
28.6645857873409078
  0
ARC
  5
6B
100
AcDbEntity
  8
0
 62
3
420
65280
370
5
  6
BYLAYER
100
AcDbCircle
 10
24.1271768408801464
 20
17.3217025114098355
 30
0.0
 40
0.7945250649020622
100
AcDbArc
 50
28.2523505484143591
 51
46.7498367192089859
  0
ARC
  5
6C
100
AcDbEntity
  8
0
 62
3
420
65280
370
5
  6
BYLAYER
100
AcDbCircle
 10
24.0147857421306554
 20
17.2192890804977488
 30
0.0
 40
0.9462007536641724
100
AcDbArc
 50
46.0419456784628807
 51
64.4742466159113832
  0
ARC
  5
6D
100
AcDbEntity
  8
0
 62
3
420
65280
370
5
  6
BYLAYER
100
AcDbCircle
 10
23.9673893257198074
 20
17.2112610619040609
 30
0.0
 40
0.9746621563998747
100
AcDbArc
 50
62.1627280144778922
 51
86.624600756327041
  0
ARC
  5
6E
100
AcDbEntity
  8
0
 62
3
420
65280
370
5
  6
BYLAYER
100
AcDbCircle
 10
23.9870544756417559
 20
17.4692191914785049
 30
0.0
 40
0.7160074779480035
100
AcDbArc
 50
86.9801402870122331
 51
115.579024523627254
  0
ARC
  5
6F
100
AcDbEntity
  8
0
 62
3
420
65280
370
5
  6
BYLAYER
100
AcDbCircle
 10
24.1117231931704055
 20
17.2615974271804262
 30
0.0
 40
0.9573785050454539
100
AcDbArc
 50
116.944143151787884
 51
139.5793516124014104
  0
ARC
  5
70
100
AcDbEntity
  8
0
 62
3
420
65280
370
5
  6
BYLAYER
100
AcDbCircle
 10
24.7314224794393454
 20
16.7442789919234549
 30
0.0
 40
1.7646028132213138
100
AcDbArc
 50
139.8382168499047964
 51
154.2889579333319716
  0
ARC
  5
71
100
AcDbEntity
  8
0
 62
3
420
65280
370
5
  6
BYLAYER
100
AcDbCircle
 10
24.7780600782665772
 20
16.6797059873067113
 30
0.0
 40
1.8350292644564998
100
AcDbArc
 50
153.1040426264165433
 51
167.1352481009899122
  0
ARC
  5
72
100
AcDbEntity
  8
0
 62
3
420
65280
370
5
  6
BYLAYER
100
AcDbCircle
 10
23.9463914590154801
 20
16.8778284096362015
 30
0.0
 40
0.9801573283534448
100
AcDbArc
 50
167.6016050828028199
 51
190.1165265804836508
  0
ARC
  5
73
100
AcDbEntity
  8
0
 62
3
420
65280
370
5
  6
BYLAYER
100
AcDbCircle
 10
23.7201625674070584
 20
16.8474696177416909
 30
0.0
 40
0.7521776783734196
100
AcDbArc
 50
190.8668899200681892
 51
218.7344274340681238
  0
ARC
  5
74
100
AcDbEntity
  8
0
 62
3
420
65280
370
5
  6
BYLAYER
100
AcDbCircle
 10
23.8810108867095607
 20
17.0036255171686861
 30
0.0
 40
0.9755863062323707
100
AcDbArc
 50
219.9775650464247576
 51
245.1169689008931982
  0
ARC
  5
75
100
AcDbEntity
  8
0
 62
3
420
65280
370
5
  6
BYLAYER
100
AcDbCircle
 10
27.1379642005888257
 20
16.5148278326829683
 30
0.0
 40
1.9629388282647267
100
AcDbArc
 50
247.5358101949894944
 51
263.2871015150348626
  0
ARC
  5
76
100
AcDbEntity
  8
0
 62
3
420
65280
370
5
  6
BYLAYER
100
AcDbCircle
 10
26.8367839849197765
 20
15.7675051836465805
 30
0.0
 40
1.1572639597989047
100
AcDbArc
 50
223.6762588328280401
 51
247.1778431347357525
  0
ARC
  5
77
100
AcDbEntity
  8
0
 62
3
420
65280
370
5
  6
BYLAYER
100
AcDbCircle
 10
26.7521572764767939
 20
15.6448989145377695
 30
0.0
 40
1.0118394201194283
100
AcDbArc
 50
195.3535029174031479
 51
221.9640125281990493
  0
ARC
  5
78
100
AcDbEntity
  8
0
 62
3
420
65280
370
5
  6
BYLAYER
100
AcDbCircle
 10
27.1321191173536675
 20
15.7206256064815797
 30
0.0
 40
1.3985630452129323
100
AcDbArc
 50
171.3202166649532501
 51
194.2235501241841291
  0
LINE
  5
79
100
AcDbEntity
100
AcDbLine
  8
0
 62
3
420
65280
370
5
  6
BYLAYER
 10
25.7495735388233058
 20
15.9316855854492729
 30
0.0
 11
25.9960156277121968
 21
17.8584717298937221
 31
0.0
  0
LINE
  5
7A
100
AcDbEntity
100
AcDbLine
  8
0
 62
3
420
65280
370
5
  6
BYLAYER
 10
25.9960156277121968
 20
17.8584717298937221
 30
0.0
 11
26.6411939721566426
 21
17.7759513632270547
 31
0.0
  0
LINE
  5
7B
100
AcDbEntity
100
AcDbLine
  8
0
 62
3
420
65280
370
5
  6
BYLAYER
 10
26.6411939721566426
 20
17.7759513632270547
 30
0.0
 11
26.4011851388233083
 21
15.8994670965603824
 31
0.0
  0
ARC
  5
7C
100
AcDbEntity
  8
0
 62
3
420
65280
370
5
  6
BYLAYER
100
AcDbCircle
 10
27.4516900352659121
 20
15.7433811410494329
 30
0.0
 40
1.0620373642003773
100
AcDbArc
 50
171.548717189026064
 51
190.1343764633187732
  0
ARC
  5
7D
100
AcDbEntity
  8
0
 62
3
420
65280
370
5
  6
BYLAYER
100
AcDbCircle
 10
27.0102871245571166
 20
15.6701982934526853
 30
0.0
 40
0.6146700115302938
100
AcDbArc
 50
190.6589044874532988
 51
216.2129428084411416
  0
ARC
  5
7E
100
AcDbEntity
  8
0
 62
3
420
65280
370
5
  6
BYLAYER
100
AcDbCircle
 10
26.9589057814874877
 20
15.6534142970180525
 30
0.0
 40
0.563549257549123
100
AcDbArc
 50
217.9226370788247777
 51
244.2199546544024145
  0
ARC
  5
7F
100
AcDbEntity
  8
0
 62
3
420
65280
370
5
  6
BYLAYER
100
AcDbCircle
 10
27.0949314393928518
 20
15.9725123840929264
 30
0.0
 40
0.9101934096006655
100
AcDbArc
 50
245.2457185016071435
 51
263.4194400024834408
  0
ARC
  5
80
100
AcDbEntity
  8
0
 62
3
420
65280
370
5
  6
BYLAYER
100
AcDbCircle
 10
27.1168252366521472
 20
15.9758695368031844
 30
0.0
 40
0.9162865887534521
100
AcDbArc
 50
262.0833676077689347
 51
280.5701140928608766
  0
ARC
  5
81
100
AcDbEntity
  8
0
 62
3
420
65280
370
5
  6
BYLAYER
100
AcDbCircle
 10
27.1705139191736791
 20
15.6551717285109042
 30
0.0
 40
0.5912130341531426
100
AcDbArc
 50
281.1565126706655633
 51
307.4806416306951746
  0
ARC
  5
82
100
AcDbEntity
  8
0
 62
3
420
65280
370
5
  6
BYLAYER
100
AcDbCircle
 10
27.1431076012948083
 20
15.6851791539744809
 30
0.0
 40
0.6317118942981617
100
AcDbArc
 50
307.7971119578256776
 51
333.7090236715548031
  0
ARC
  5
83
100
AcDbEntity
  8
0
 62
3
420
65280
370
5
  6
BYLAYER
100
AcDbCircle
 10
26.7970347000380116
 20
15.8487998648390267
 30
0.0
 40
1.0144796304069799
100
AcDbArc
 50
334.0812674584387878
 51
353.9585509404495838
  0
LINE
  5
84
100
AcDbEntity
100
AcDbLine
  8
0
 62
3
420
65280
370
5
  6
BYLAYER
 10
27.805879927712212
 20
15.7420280187826087
 30
0.0
 11
28.0430905277122093
 21
17.5966414743381669
 31
0.0
  0
LINE
  5
85
100
AcDbEntity
100
AcDbLine
  8
0
 62
3
420
65280
370
5
  6
BYLAYER
 10
28.0430905277122093
 20
17.5966414743381669
 30
0.0
 11
28.6882688721566552
 21
17.5141211076715031
 31
0.0
  0
LINE
  5
86
100
AcDbEntity
100
AcDbLine
  8
0
 62
3
420
65280
370
5
  6
BYLAYER
 10
28.6882688721566552
 20
17.5141211076715031
 30
0.0
 11
28.4460220166011055
 21
15.6201404743381644
 31
0.0
  0
ARC
  5
87
100
AcDbEntity
  8
0
 62
3
420
65280
370
5
  6
BYLAYER
100
AcDbCircle
 10
27.0960331797151781
 20
15.7602054657676085
 30
0.0
 40
1.3572354480855022
100
AcDbArc
 50
330.1340789549856254
 51
354.0766016939587075
  0
ARC
  5
88
100
AcDbEntity
  8
0
 62
3
420
65280
370
5
  6
BYLAYER
100
AcDbCircle
 10
27.3688820561229846
 20
15.6199628691097345
 30
0.0
 40
1.0508825668063635
100
AcDbArc
 50
302.7435109267653957
 51
329.3569209674737408
  0
ARC
  5
89
100
AcDbEntity
  8
0
 62
3
420
65280
370
5
  6
BYLAYER
100
AcDbCircle
 10
27.2926534611555383
 20
15.7845237111831693
 30
0.0
 40
1.2307769334000795
100
AcDbArc
 50
278.3347029660492353
 51
301.5846627919589196
  0
ARC
  5
8A
100
AcDbEntity
  8
0
 62
3
420
65280
370
5
  6
BYLAYER
100
AcDbCircle
 10
27.1847727680145042
 20
16.5643270075061579
 30
0.0
 40
2.0179918039028228
100
AcDbArc
 50
262.1314843631258782
 51
278.1559575827059803
  0
ARC
  5
8B
100
AcDbEntity
  8
0
 62
3
420
65280
370
5
  6
BYLAYER
100
AcDbCircle
 10
31.0030575113055704
 20
15.6734473977543054
 30
0.0
 40
0.9423040257728615
100
AcDbArc
 50
347.7203464837998013
 51
11.8235087835418344
  0
ARC
  5
8C
100
AcDbEntity
  8
0
 62
3
420
65280
370
5
  6
BYLAYER
100
AcDbCircle
 10
31.1875346402122986
 20
15.6494843876823282
 30
0.0
 40
0.757116292058699
100
AcDbArc
 50
317.3884696283782887
 51
346.5230249902730293
  0
ARC
  5
8D
100
AcDbEntity
  8
0
 62
3
420
65280
370
5
  6
BYLAYER
100
AcDbCircle
 10
30.8812245182263041
 20
15.9398235045000796
 30
0.0
 40
1.1791319523768342
100
AcDbArc
 50
294.7472546874132604
 51
317.0823955630129944
  0
ARC
  5
8E
100
AcDbEntity
  8
0
 62
3
420
65280
370
5
  6
BYLAYER
100
AcDbCircle
 10
30.3819899781846487
 20
17.0316548957455751
 30
0.0
 40
2.3796835890023749
100
AcDbArc
 50
280.0925292108210556
 51
294.6588465842293658
  0
ARC
  5
8F
100
AcDbEntity
  8
0
 62
3
420
65280
370
5
  6
BYLAYER
100
AcDbCircle
 10
30.3053339572434624
 20
17.0463542384400064
 30
0.0
 40
2.4086917930375584
100
AcDbArc
 50
268.7779072895156105
 51
281.8267295079803034
  0
ARC
  5
90
100
AcDbEntity
  8
0
 62
3
420
65280
370
5
  6
BYLAYER
100
AcDbCircle
 10
30.2803359979974971
 20
15.9400522888525664
 30
0.0
 40
1.3021090845629208
100
AcDbArc
 50
249.5066872281990982
 51
268.8393850474322448
  0
ARC
  5
91
100
AcDbEntity
  8
0
 62
3
420
65280
370
5
  6
BYLAYER
100
AcDbCircle
 10
30.1624995760249703
 20
15.5852472272726068
 30
0.0
 40
0.9286073550359637
100
AcDbArc
 50
224.9136287561353811
 51
248.6528622751577018
  0
ARC
  5
92
100
AcDbEntity
  8
0
 62
3
420
65280
370
5
  6
BYLAYER
100
AcDbCircle
 10
30.3247319410071228
 20
15.7045262000727668
 30
0.0
 40
1.1281123890937217
100
AcDbArc
 50
203.088087775726251
 51
223.3860921074908958
  0
LINE
  5
93
100
AcDbEntity
100
AcDbLine
  8
0
 62
3
420
65280
370
5
  6
BYLAYER
 10
29.2869779166010815
 20
15.2621415854492639
 30
0.0
 11
29.8837283388233033
 21
15.4846187743381556
 31
0.0
  0
ARC
  5
94
100
AcDbEntity
  8
0
 62
3
420
65280
370
5
  6
BYLAYER
100
AcDbCircle
 10
30.5385931081727904
 20
15.7912243141410507
 30
0.0
 40
0.7230870094072536
100
AcDbArc
 50
205.0888396271157603
 51
221.3650594235151061
  0
ARC
  5
95
100
AcDbEntity
  8
0
 62
3
420
65280
370
5
  6
BYLAYER
100
AcDbCircle
 10
30.3648919291834432
 20
15.6458717101848954
 30
0.0
 40
0.4966976410313074
100
AcDbArc
 50
222.0228163908659553
 51
245.769109016571349
  0
ARC
  5
96
100
AcDbEntity
  8
0
 62
3
420
65280
370
5
  6
BYLAYER
100
AcDbCircle
 10
30.4332791558741604
 20
15.8621830966810826
 30
0.0
 40
0.7225019373141269
100
AcDbArc
 50
247.8643469000043922
 51
267.2190544022159315
  0
ARC
  5
97
100
AcDbEntity
  8
0
 62
3
420
65280
370
5
  6
BYLAYER
100
AcDbCircle
 10
30.4353847063164835
 20
16.5150456521396052
 30
0.0
 40
1.3750158306362197
100
AcDbArc
 50
268.4514009722299193
 51
282.0590961124285059
  0
ARC
  5
98
100
AcDbEntity
  8
0
 62
3
420
65280
370
5
  6
BYLAYER
100
AcDbCircle
 10
30.5813899167288952
 20
16.1975015984783361
 30
0.0
 40
1.0367974816949552
100
AcDbArc
 50
277.8309117958780234
 51
306.567453520126719
  0
ARC
  5
99
100
AcDbEntity
  8
0
 62
3
420
65280
370
5
  6
BYLAYER
100
AcDbCircle
 10
30.9832480065456437
 20
15.625605002152021
 30
0.0
 40
0.3385377130631834
100
AcDbArc
 50
309.6090906037360355
 51
14.105702981888264
  0
ARC
  5
9A
100
AcDbEntity
  8
0
 62
3
420
65280
370
5
  6
BYLAYER
100
AcDbCircle
 10
31.0063986758885477
 20
15.661281471096526
 30
0.0
 40
0.3087513776051751
100
AcDbArc
 50
8.7238605238469074
 51
50.6708942975283065
  0
ARC
  5
9B
100
AcDbEntity
  8
0
 62
3
420
65280
370
5
  6
BYLAYER
100
AcDbCircle
 10
30.8801099133915002
 20
15.4735705373069479
 30
0.0
 40
0.5344115838959301
100
AcDbArc
 50
52.9529452181610694
 51
77.880854194467787
  0
ARC
  5
9C
100
AcDbEntity
  8
0
 62
3
420
65280
370
5
  6
BYLAYER
100
AcDbCircle
 10
30.6749396070325986
 20
14.5873583466357957
 30
0.0
 40
1.4440206436065341
100
AcDbArc
 50
77.3038622432722207
 51
88.5540111532451419
  0
ARC
  5
9D
100
AcDbEntity
  8
0
 62
3
420
65280
370
5
  6
BYLAYER
100
AcDbCircle
 10
30.3497940516182751
 20
5.347496365541236
 30
0.0
 40
10.6895400284178361
100
AcDbArc
 50
88.0615408218588982
 51
89.8023930915429247
  0
ARC
  5
9E
100
AcDbEntity
  8
0
 62
3
420
65280
370
5
  6
BYLAYER
100
AcDbCircle
 10
31.0077400454553072
 20
33.3493420939140464
 30
0.0
 40
17.3235062574235954
100
AcDbArc
 50
267.0451202893262348
 51
267.9454024513814829
  0
ARC
  5
9F
100
AcDbEntity
  8
0
 62
3
420
65280
370
5
  6
BYLAYER
100
AcDbCircle
 10
30.2257132836392017
 20
18.2645655558316165
 30
0.0
 40
2.2184753019252126
100
AcDbArc
 50
260.2661932904461537
 51
267.1322592783540699
  0
ARC
  5
A0
100
AcDbEntity
  8
0
 62
3
420
65280
370
5
  6
BYLAYER
100
AcDbCircle
 10
30.088457314281257
 20
17.4221822755578977
 30
0.0
 40
1.365031759703647
100
AcDbArc
 50
249.5220010179297958
 51
259.9663917933689277
  0
ARC
  5
A1
100
AcDbEntity
  8
0
 62
3
420
65280
370
5
  6
BYLAYER
100
AcDbCircle
 10
29.869281617704317
 20
16.8350196755713704
 30
0.0
 40
0.7382958591334745
100
AcDbArc
 50
230.8731193046388057
 51
249.514842960256999
  0
ARC
  5
A2
100
AcDbEntity
  8
0
 62
3
420
65280
370
5
  6
BYLAYER
100
AcDbCircle
 10
29.8989124585313917
 20
16.832305348662473
 30
0.0
 40
0.7552924110262657
100
AcDbArc
 50
209.9021751183121296
 51
228.9991431066880523
  0
ARC
  5
A3
100
AcDbEntity
  8
0
 62
3
420
65280
370
5
  6
BYLAYER
100
AcDbCircle
 10
30.0683389497084335
 20
16.8999556472362968
 30
0.0
 40
0.9362455990621966
100
AcDbArc
 50
189.982054575737294
 51
208.3219770739794967
  0
ARC
  5
A4
100
AcDbEntity
  8
0
 62
3
420
65280
370
5
  6
BYLAYER
100
AcDbCircle
 10
29.9269809847089121
 20
16.9135901757763705
 30
0.0
 40
0.8002903117232539
100
AcDbArc
 50
163.196929898788909
 51
192.6987004121353095
  0
ARC
  5
A5
100
AcDbEntity
  8
0
 62
3
420
65280
370
5
  6
BYLAYER
100
AcDbCircle
 10
29.8710504836474939
 20
16.9129369859507435
 30
0.0
 40
0.7471254148115178
100
AcDbArc
 50
133.1427394731980485
 51
161.908928545338739
  0
ARC
  5
A6
100
AcDbEntity
  8
0
 62
3
420
65280
370
5
  6
BYLAYER
100
AcDbCircle
 10
30.1616720730315464
 20
16.5942534569814235
 30
0.0
 40
1.1784005727471834
100
AcDbArc
 50
112.2415090156772663
 51
132.8573839519608271
  0
ARC
  5
A7
100
AcDbEntity
  8
0
 62
3
420
65280
370
5
  6
BYLAYER
100
AcDbCircle
 10
30.6322573958752642
 20
15.4921592255560974
 30
0.0
 40
2.376688545918364
100
AcDbArc
 50
100.6468080460085872
 51
112.6854967934288823
  0
ARC
  5
A8
100
AcDbEntity
  8
0
 62
3
420
65280
370
5
  6
BYLAYER
100
AcDbCircle
 10
30.6934118229649258
 20
15.470540632182928
 30
0.0
 40
2.4098867553239054
100
AcDbArc
 50
89.5313555052315451
 51
101.9809014411261927
  0
ARC
  5
A9
100
AcDbEntity
  8
0
 62
3
420
65280
370
5
  6
BYLAYER
100
AcDbCircle
 10
30.7205626843841486
 20
16.8398117229614712
 30
0.0
 40
1.0405616473644974
100
AcDbArc
 50
68.7508468643654425
 51
90.4096497639852146
  0
ARC
  5
AA
100
AcDbEntity
  8
0
 62
3
420
65280
370
5
  6
BYLAYER
100
AcDbCircle
 10
30.8352672543983886
 20
17.1518511764122046
 30
0.0
 40
0.70819203488993
100
AcDbArc
 50
40.7309014114896826
 51
68.2504884821746174
  0
ARC
  5
AB
100
AcDbEntity
  8
0
 62
3
420
65280
370
5
  6
BYLAYER
100
AcDbCircle
 10
30.5450076369967718
 20
16.8987148648111472
 30
0.0
 40
1.0933216573996913
100
AcDbArc
 50
21.6864518491936273
 51
40.8580253871690999
  0
LINE
  5
AC
100
AcDbEntity
100
AcDbLine
  8
0
 62
3
420
65280
370
5
  6
BYLAYER
 10
31.5609439610455311
 20
17.3027267854492663
 30
0.0
 11
30.9586408166010898
 21
17.0971349521159333
 31
0.0
  0
ARC
  5
AD
100
AcDbEntity
  8
0
 62
3
420
65280
370
5
  6
BYLAYER
100
AcDbCircle
 10
30.5099278564291154
 20
16.9108215771325803
 30
0.0
 40
0.4858559398886378
100
AcDbArc
 50
22.549069409718534
 51
66.2192869983504124
  0
ARC
  5
AE
100
AcDbEntity
  8
0
 62
3
420
65280
370
5
  6
BYLAYER
100
AcDbCircle
 10
30.4582400808949245
 20
16.6484587582538488
 30
0.0
 40
0.7490728449617117
100
AcDbArc
 50
70.6980836405373765
 51
104.6535497345541756
  0
ARC
  5
AF
100
AcDbEntity
  8
0
 62
3
420
65280
370
5
  6
BYLAYER
100
AcDbCircle
 10
30.4610649207873649
 20
16.2662948575202613
 30
0.0
 40
1.1234555256780665
100
AcDbArc
 50
99.8568190990565085
 51
114.6001092582329761
  0
ARC
  5
B0
100
AcDbEntity
  8
0
 62
3
420
65280
370
5
  6
BYLAYER
100
AcDbCircle
 10
30.2010834603995875
 20
16.8157183125283325
 30
0.0
 40
0.5157316001237883
100
AcDbArc
 50
113.7480882323734477
 51
135.8208031486129244
  0
ARC
  5
B1
100
AcDbEntity
  8
0
 62
3
420
65280
370
5
  6
BYLAYER
100
AcDbCircle
 10
30.0464272470728133
 20
16.9775965136525748
 30
0.0
 40
0.2921223836817394
100
AcDbArc
 50
137.4514088936128928
 51
167.6513831051026386
  0
ARC
  5
B2
100
AcDbEntity
  8
0
 62
3
420
65280
370
5
  6
BYLAYER
100
AcDbCircle
 10
30.1039118825655265
 20
16.965719381503213
 30
0.0
 40
0.3508177980718969
100
AcDbArc
 50
167.7642832727734969
 51
191.4496246737668912
  0
ARC
  5
B3
100
AcDbEntity
  8
0
 62
3
420
65280
370
5
  6
BYLAYER
100
AcDbCircle
 10
30.0680076822850282
 20
16.9438542784223891
 30
0.0
 40
0.3116161568655132
100
AcDbArc
 50
188.8188999488644413
 51
225.7632733341824007
  0
ARC
  5
B4
100
AcDbEntity
  8
0
 62
3
420
65280
370
5
  6
BYLAYER
100
AcDbCircle
 10
30.1370450289897178
 20
17.0555213114914999
 30
0.0
 40
0.4407022149883157
100
AcDbArc
 50
229.4631928983394573
 51
255.3804112641686288
  0
ARC
  5
B5
100
AcDbEntity
  8
0
 62
3
420
65280
370
5
  6
BYLAYER
100
AcDbCircle
 10
30.3329826110088518
 20
17.8418948108144768
 30
0.0
 40
1.2511014961938813
100
AcDbArc
 50
255.7874117915602596
 51
267.2719708028869832
  0
ARC
  5
B6
100
AcDbEntity
  8
0
 62
3
420
65280
370
5
  6
BYLAYER
100
AcDbCircle
 10
30.7960404791015847
 20
29.8912911470940585
 30
0.0
 40
13.309344207887678
100
AcDbArc
 50
267.7496477051259944
 51
269.0921878644392677
  0
ARC
  5
B7
100
AcDbEntity
  8
0
 62
3
420
65280
370
5
  6
BYLAYER
100
AcDbCircle
 10
30.4420168851710216
 20
7.401016382061858
 30
0.0
 40
9.1837169378781969
100
AcDbArc
 50
87.2581105775004744
 51
89.1068418839442558
  0
ARC
  5
B8
100
AcDbEntity
  8
0
 62
3
420
65280
370
5
  6
BYLAYER
100
AcDbCircle
 10
30.8031633942027554
 20
14.1006942467324947
 30
0.0
 40
2.4747602226805254
100
AcDbArc
 50
81.5950052573022333
 51
88.1898445155842694
  0
ARC
  5
B9
100
AcDbEntity
  8
0
 62
3
420
65280
370
5
  6
BYLAYER
100
AcDbCircle
 10
30.9602085902109465
 20
15.1543606716689503
 30
0.0
 40
1.4094560627543593
100
AcDbArc
 50
70.765917314022829
 51
81.6496734180479109
  0
ARC
  5
BA
100
AcDbEntity
  8
0
 62
3
420
65280
370
5
  6
BYLAYER
100
AcDbCircle
 10
31.1800252854512081
 20
15.7820425213240938
 30
0.0
 40
0.7443975991889726
100
AcDbArc
 50
51.217048474709145
 51
70.8252186603852323
  0
ARC
  5
BB
100
AcDbEntity
  8
0
 62
3
420
65280
370
5
  6
BYLAYER
100
AcDbCircle
 10
31.2308928233462879
 20
15.8295664622235321
 30
0.0
 40
0.6755618541639965
100
AcDbArc
 50
29.7171839117299044
 51
52.0554305846223215
  0
ARC
  5
BC
100
AcDbEntity
  8
0
 62
3
420
65280
370
5
  6
BYLAYER
100
AcDbCircle
 10
31.0288540945749318
 20
15.7106470162632519
 30
0.0
 40
0.9099850451951228
100
AcDbArc
 50
9.8633270376931801
 51
29.9139471217902084
  0
LINE
  5
BD
100
AcDbEntity
100
AcDbLine
  8
0
 62
3
420
65280
370
5
  6
BYLAYER
 10
32.5733950166010828
 20
18.0339081187825983
 30
0.0
 11
33.0284289610455275
 21
17.1871031632270501
 31
0.0
  0
LINE
  5
BE
100
AcDbEntity
100
AcDbLine
  8
0
 62
3
420
65280
370
5
  6
BYLAYER
 10
33.0284289610455275
 20
17.1871031632270501
 30
0.0
 11
34.4287648277121932
 21
17.9395795743381612
 31
0.0
  0
LINE
  5
BF
100
AcDbEntity
100
AcDbLine
  8
0
 62
3
420
65280
370
5
  6
BYLAYER
 10
34.4287648277121932
 20
17.9395795743381612
 30
0.0
 11
34.6667176721566364
 21
17.4967545632270536
 31
0.0
  0
LINE
  5
C0
100
AcDbEntity
100
AcDbLine
  8
0
 62
3
420
65280
370
5
  6
BYLAYER
 10
34.6667176721566364
 20
17.4967545632270536
 30
0.0
 11
33.2663818054899707
 21
16.744278152115939
 31
0.0
  0
LINE
  5
C1
100
AcDbEntity
100
AcDbLine
  8
0
 62
3
420
65280
370
5
  6
BYLAYER
 10
33.2663818054899707
 20
16.744278152115939
 30
0.0
 11
33.8059525943788657
 21
15.7401540632270525
 31
0.0
  0
LINE
  5
C2
100
AcDbEntity
100
AcDbLine
  8
0
 62
3
420
65280
370
5
  6
BYLAYER
 10
33.8059525943788657
 20
15.7401540632270525
 30
0.0
 11
33.2329991499344217
 21
15.4322750187826045
 31
0.0
  0
LINE
  5
C3
100
AcDbEntity
100
AcDbLine
  8
0
 62
3
420
65280
370
5
  6
BYLAYER
 10
33.2329991499344217
 20
15.4322750187826045
 30
0.0
 11
31.7624873166010886
 21
18.1688540854492722
 31
0.0
  0
LINE
  5
C4
100
AcDbEntity
100
AcDbLine
  8
0
 62
3
420
65280
370
5
  6
BYLAYER
 10
31.7624873166010886
 20
18.1688540854492722
 30
0.0
 11
33.780448172156639
 21
19.2532139521159351
 31
0.0
  0
LINE
  5
C5
100
AcDbEntity
100
AcDbLine
  8
0
 62
3
420
65280
370
5
  6
BYLAYER
 10
33.780448172156639
 20
19.2532139521159351
 30
0.0
 11
34.0184010166010893
 21
18.8103889410048275
 31
0.0
  0
LINE
  5
C6
100
AcDbEntity
100
AcDbLine
  8
0
 62
3
420
65280
370
5
  6
BYLAYER
 10
34.0184010166010893
 20
18.8103889410048275
 30
0.0
 11
32.5733950166010828
 21
18.0339081187826089
 31
0.0
  0
LINE
  5
C7
100
AcDbEntity
100
AcDbLine
  8
0
 62
256
370
5
  6
BYLAYER
 10
21.7459789721566423
 20
16.5753469854492756
 30
0.0
 11
21.7459789721566423
 21
16.5753469854492685
 31
0.0
  0
LINE
  5
C8
100
AcDbEntity
100
AcDbLine
  8
0
 62
3
420
65280
370
5
  6
BYLAYER
 10
21.7578294832677557
 20
31.791967696560377
 30
0.0
 11
20.5729985054899771
 21
32.5604235298937112
 31
0.0
  0
ARC
  5
C9
100
AcDbEntity
  8
0
 62
3
420
65280
370
5
  6
BYLAYER
100
AcDbCircle
 10
25.6600990500338426
 20
40.3998776351980666
 30
0.0
 40
9.3453535310052196
100
AcDbArc
 50
235.9554620087703825
 51
237.0200556220652004
  0
ARC
  5
CA
100
AcDbEntity
  8
0
 62
3
420
65280
370
5
  6
BYLAYER
100
AcDbCircle
 10
33.1196302648353793
 20
50.7360850697697998
 30
0.0
 40
22.0896062889320923
100
AcDbArc
 50
234.5074548468196269
 51
234.9324325080135907
  0
ARC
  5
CB
100
AcDbEntity
  8
0
 62
3
420
65280
370
5
  6
BYLAYER
100
AcDbCircle
 10
14.1808383204098369
 20
24.4032418376549103
 30
0.0
 40
10.3469953369832179
100
AcDbArc
 50
53.7818946034654459
 51
54.7261833397274273
  0
LINE
  5
CC
100
AcDbEntity
100
AcDbLine
  8
0
 62
3
420
65280
370
5
  6
BYLAYER
 10
20.1560687943788679
 20
32.8505451521159344
 30
0.0
 11
20.3281834277122044
 21
32.6600747854492681
 31
0.0
  0
ARC
  5
CD
100
AcDbEntity
  8
0
 62
3
420
65280
370
5
  6
BYLAYER
100
AcDbCircle
 10
14.4621871609860158
 20
27.3623566158612448
 30
0.0
 40
7.9041590321569846
100
AcDbArc
 50
41.3152954138233781
 51
42.0859289658417097
  0
ARC
  5
CE
100
AcDbEntity
  8
0
 62
3
420
65280
370
5
  6
BYLAYER
100
AcDbCircle
 10
15.733889555799383
 20
28.4771446012596776
 30
0.0
 40
6.213013669459448
100
AcDbArc
 50
40.3517637701701162
 51
41.3362930520998901
  0
ARC
  5
CF
100
AcDbEntity
  8
0
 62
3
420
65280
370
5
  6
BYLAYER
100
AcDbCircle
 10
18.5740903080216206
 20
30.7839442433093566
 30
0.0
 40
2.5562232484630738
100
AcDbArc
 50
40.0086561987349967
 51
42.1675016588524727
  0
ARC
  5
D0
100
AcDbEntity
  8
0
 62
3
420
65280
370
5
  6
BYLAYER
100
AcDbCircle
 10
12.1170801207476551
 20
25.3775581733904119
 30
0.0
 40
10.9777413149104603
100
AcDbArc
 50
39.5485323274707596
 51
39.9552815863035207
  0
LINE
  5
D1
100
AcDbEntity
100
AcDbLine
  8
0
 62
3
420
65280
370
5
  6
BYLAYER
 10
20.5818574610455371
 20
32.3674329187826046
 30
0.0
 11
21.4437881166010911
 21
31.3077689076714947
 31
0.0
  0
LINE
  5
D2
100
AcDbEntity
100
AcDbLine
  8
0
 62
3
420
65280
370
5
  6
BYLAYER
 10
21.4437881166010911
 20
31.3077689076714947
 30
0.0
 11
21.2548234054899794
 21
31.0164167965603781
 31
0.0
  0
LINE
  5
D3
100
AcDbEntity
100
AcDbLine
  8
0
 62
3
420
65280
370
5
  6
BYLAYER
 10
21.2548234054899794
 20
31.0164167965603781
 30
0.0
 11
19.9357788277122054
 21
31.3712872521159341
 31
0.0
  0
ARC
  5
D4
100
AcDbEntity
  8
0
 62
3
420
65280
370
5
  6
BYLAYER
100
AcDbCircle
 10
22.6911368904361908
 20
41.3275628866308011
 30
0.0
 40
10.3305093080763655
100
AcDbArc
 50
254.098558310218948
 51
254.5307928494294458
  0
ARC
  5
D5
100
AcDbEntity
  8
0
 62
3
420
65280
370
5
  6
BYLAYER
100
AcDbCircle
 10
18.8108708259094186
 20
28.1274540897056866
 30
0.0
 40
3.4295526692414962
100
AcDbArc
 50
72.1740352680573665
 51
73.7830787197640632
  0
ARC
  5
D6
100
AcDbEntity
  8
0
 62
3
420
65280
370
5
  6
BYLAYER
100
AcDbCircle
 10
17.3424874899084678
 20
23.9629600294563403
 30
0.0
 40
7.8423172128212491
100
AcDbArc
 50
71.9787862833402414
 51
72.755488286945706
  0
ARC
  5
D7
100
AcDbEntity
  8
0
 62
3
420
65280
370
5
  6
BYLAYER
100
AcDbCircle
 10
17.8077656355317728
 20
25.4697942390515415
 30
0.0
 40
6.2652863806116024
100
AcDbArc
 50
72.7341071993491255
 51
73.7104330709184978
  0
ARC
  5
D8
100
AcDbEntity
  8
0
 62
3
420
65280
370
5
  6
BYLAYER
100
AcDbCircle
 10
45.0905722986185964
 20
113.747117554634471
 30
0.0
 40
86.1326864316879295
100
AcDbArc
 50
252.5901292966040614
 51
252.7614772032963231
  0
ARC
  5
D9
100
AcDbEntity
  8
0
 62
256
370
-1
  6
BYLAYER
100
AcDbCircle
 10
128.9519452390818515
 20
37.0279964798937087
 30
0.0
 40
202.5520108937345469
100
AcDbArc
 50
193.8289570510998203
 51
193.9728108542421694
  0
ARC
  5
DA
100
AcDbEntity
  8
0
 62
3
420
65280
370
5
  6
BYLAYER
100
AcDbCircle
 10
-2.4501490863475617
 20
-5.6389735065504532
 30
0.0
 40
43.102598808415415
100
AcDbArc
 50
59.1902753331872162
 51
59.4124631369596941
  0
ARC
  5
DB
100
AcDbEntity
  8
0
 62
3
420
65280
370
5
  6
BYLAYER
100
AcDbCircle
 10
17.5313500878133546
 20
27.8464308710451505
 30
0.0
 40
4.108606851956246
100
AcDbArc
 50
57.2176450907435594
 51
59.3398490769743816
  0
LINE
  5
DC
100
AcDbEntity
100
AcDbLine
  8
0
 62
3
420
65280
370
5
  6
BYLAYER
 10
19.7559524721566575
 20
31.30067384100483
 30
0.0
 11
20.940783449934429
 21
30.5322180076714957
 31
0.0
  0
LINE
  5
DD
100
AcDbEntity
100
AcDbLine
  8
0
 62
3
420
65280
370
5
  6
BYLAYER
 10
20.940783449934429
 20
30.5322180076714957
 30
0.0
 11
20.7050277054899894
 21
30.168721429893715
 31
0.0
  0
LINE
  5
DE
100
AcDbEntity
100
AcDbLine
  8
0
 62
3
420
65280
370
5
  6
BYLAYER
 10
20.7050277054899894
 20
30.168721429893715
 30
0.0
 11
18.7501957277122138
 21
31.4365835965603821
 31
0.0
  0
LINE
  5
DF
100
AcDbEntity
100
AcDbLine
  8
0
 62
3
420
65280
370
5
  6
BYLAYER
 10
18.7501957277122138
 20
31.4365835965603821
 30
0.0
 11
19.1056292166011019
 21
31.9846027076714989
 31
0.0
  0
LINE
  5
E0
100
AcDbEntity
100
AcDbLine
  8
0
 62
3
420
65280
370
5
  6
BYLAYER
 10
19.1056292166011019
 20
31.9846027076714989
 30
0.0
 11
20.4256488721566569
 21
31.6251574298937186
 31
0.0
  0
ARC
  5
E1
100
AcDbEntity
  8
0
 62
3
420
65280
370
5
  6
BYLAYER
100
AcDbCircle
 10
19.93330482824679
 20
29.8489746522922701
 30
0.0
 40
1.8431570516430595
100
AcDbArc
 50
70.4530263307843683
 51
74.5070404991388102
  0
ARC
  5
E2
100
AcDbEntity
  8
0
 62
3
420
65280
370
5
  6
BYLAYER
100
AcDbCircle
 10
9.9799096879870213
 20
-0.8815502291526549
 30
0.0
 40
34.1447251695932366
100
AcDbArc
 50
71.7171595108597444
 51
71.9668662272303123
  0
ARC
  5
E3
100
AcDbEntity
  8
0
 62
3
420
65280
370
5
  6
BYLAYER
100
AcDbCircle
 10
23.8450081956462512
 20
40.6026567699774574
 30
0.0
 40
9.5961229042164877
100
AcDbArc
 50
250.8140544658992894
 51
251.8533657766503495
  0
ARC
  5
E4
100
AcDbEntity
  8
0
 62
3
420
65280
370
5
  6
BYLAYER
100
AcDbCircle
 10
103.1891941291726909
 20
105.5347139958886373
 30
0.0
 40
110.7350032137123605
100
AcDbArc
 50
221.8798516870951971
 51
221.9684772262479555
  0
ARC
  5
E5
100
AcDbEntity
  8
0
 62
3
420
65280
370
5
  6
BYLAYER
100
AcDbCircle
 10
16.0725635765984585
 20
27.5381600567221518
 30
0.0
 40
6.1961614063524681
100
AcDbArc
 50
41.098761064551077
 51
41.7814183388090896
  0
ARC
  5
E6
100
AcDbEntity
  8
0
 62
3
420
65280
370
5
  6
BYLAYER
100
AcDbCircle
 10
25.2263314684040267
 20
35.7182628061682905
 30
0.0
 40
6.0800574011523603
100
AcDbArc
 50
221.0929728385652027
 51
221.7886562395183034
  0
ARC
  5
E7
100
AcDbEntity
  8
0
 62
3
420
65280
370
5
  6
BYLAYER
100
AcDbCircle
 10
22.5270139763775887
 20
33.3660141132153001
 30
0.0
 40
2.499640711207098
100
AcDbArc
 50
219.5433854885241658
 51
221.1263665814428805
  0
ARC
  5
E8
100
AcDbEntity
  8
0
 62
3
420
65280
370
5
  6
BYLAYER
100
AcDbCircle
 10
23.5214599667866082
 20
34.1877982761969577
 30
0.0
 40
3.7896995515039276
100
AcDbArc
 50
218.6588252172879265
 51
219.5522537200158695
  0
LINE
  5
E9
100
AcDbEntity
100
AcDbLine
  8
0
 62
3
420
65280
370
5
  6
BYLAYER
 10
20.5621611721566708
 20
31.8204425076714941
 30
0.0
 11
19.6851203388233316
 21
32.8780815743381609
 31
0.0
  0
LINE
  5
EA
100
AcDbEntity
100
AcDbLine
  8
0
 62
3
420
65280
370
5
  6
BYLAYER
 10
19.6851203388233316
 20
32.8780815743381609
 30
0.0
 11
20.0387532499344445
 21
33.4233250298937179
 31
0.0
  0
LINE
  5
EB
100
AcDbEntity
100
AcDbLine
  8
0
 62
3
420
65280
370
5
  6
BYLAYER
 10
20.0387532499344445
 20
33.4233250298937179
 30
0.0
 11
21.9935852277122166
 21
32.1554628632270507
 31
0.0
  0
LINE
  5
EC
100
AcDbEntity
100
AcDbLine
  8
0
 62
3
420
65280
370
5
  6
BYLAYER
 10
21.9935852277122166
 20
32.1554628632270507
 30
0.0
 11
21.757829483267777
 21
31.7919676965603841
 31
0.0
  0
LINE
  5
ED
100
AcDbEntity
100
AcDbLine
  8
0
 62
3
420
65280
370
5
  6
BYLAYER
 10
23.6063666943788633
 20
33.528840863227046
 30
0.0
 11
23.0699426832677545
 21
33.8595573298937111
 31
0.0
  0
LINE
  5
EE
100
AcDbEntity
100
AcDbLine
  8
0
 62
3
420
65280
370
5
  6
BYLAYER
 10
23.0699426832677545
 20
33.8595573298937111
 30
0.0
 11
22.3817593166010909
 21
33.2983429187826019
 31
0.0
  0
LINE
  5
EF
100
AcDbEntity
100
AcDbLine
  8
0
 62
3
420
65280
370
5
  6
BYLAYER
 10
22.3817593166010909
 20
33.2983429187826019
 30
0.0
 11
22.5978004277122011
 21
32.7063549965603784
 31
0.0
  0
LINE
  5
F0
100
AcDbEntity
100
AcDbLine
  8
0
 62
3
420
65280
370
5
  6
BYLAYER
 10
22.5978004277122011
 20
32.7063549965603784
 30
0.0
 11
22.2197468277121999
 21
32.3980526187826001
 31
0.0
  0
LINE
  5
F1
100
AcDbEntity
100
AcDbLine
  8
0
 62
3
420
65280
370
5
  6
BYLAYER
 10
22.2197468277121999
 20
32.3980526187826001
 30
0.0
 11
21.4059223610455263
 21
34.7409109421159314
 31
0.0
  0
LINE
  5
F2
100
AcDbEntity
100
AcDbLine
  8
0
 62
3
420
65280
370
5
  6
BYLAYER
 10
21.4059223610455263
 20
34.7409109421159314
 30
0.0
 11
21.8518969721566449
 21
35.1046026765603756
 31
0.0
  0
LINE
  5
F3
100
AcDbEntity
100
AcDbLine
  8
0
 62
3
420
65280
370
5
  6
BYLAYER
 10
21.8518969721566449
 20
35.1046026765603756
 30
0.0
 11
23.9805750166010938
 21
33.8340080343381544
 31
0.0
  0
LINE
  5
F4
100
AcDbEntity
100
AcDbLine
  8
0
 62
3
420
65280
370
5
  6
BYLAYER
 10
23.9805750166010938
 20
33.8340080343381544
 30
0.0
 11
23.6063666943788775
 21
33.528840863227046
 31
0.0
  0
LINE
  5
F5
100
AcDbEntity
100
AcDbLine
  8
0
 62
3
420
65280
370
5
  6
BYLAYER
 10
22.151955638823317
 20
34.4488353543381578
 30
0.0
 11
22.0480428277122087
 21
34.5134605743381542
 31
0.0
  0
ARC
  5
F6
100
AcDbEntity
  8
0
 62
3
420
65280
370
5
  6
BYLAYER
100
AcDbCircle
 10
7.2872737697123675
 20
12.4817801557364199
 30
0.0
 40
26.519337194790598
100
AcDbArc
 50
56.1787347340955989
 51
56.421709254296772
  0
ARC
  5
F7
100
AcDbEntity
  8
0
 62
3
420
65280
370
5
  6
BYLAYER
100
AcDbCircle
 10
20.814046727162598
 20
33.012231977380587
 30
0.0
 40
1.9353337382181033
100
AcDbArc
 50
53.8947895321068984
 51
56.3898209282137088
  0
ARC
  5
F8
100
AcDbEntity
  8
0
 62
3
420
65280
370
5
  6
BYLAYER
100
AcDbCircle
 10
21.6397820492564961
 20
34.3030744780035377
 30
0.0
 40
0.4041057833654285
100
AcDbArc
 50
52.5813845914147606
 51
57.7037995376163977
  0
ARC
  5
F9
100
AcDbEntity
  8
0
 62
3
420
65280
370
5
  6
BYLAYER
100
AcDbCircle
 10
22.9154358899710928
 20
35.0945586059638117
 30
0.0
 40
1.1512851341424071
100
AcDbArc
 50
203.0027937765624131
 51
204.8795150782552525
  0
ARC
  5
FA
100
AcDbEntity
  8
0
 62
3
420
65280
370
5
  6
BYLAYER
100
AcDbCircle
 10
20.0869250350111344
 20
33.8102994728843669
 30
0.0
 40
1.9551856437545323
100
AcDbArc
 50
21.7262348277899413
 51
24.1493962329288081
  0
ARC
  5
FB
100
AcDbEntity
  8
0
 62
3
420
65280
370
5
  6
BYLAYER
100
AcDbCircle
 10
19.9154664198556475
 20
33.6664615103522635
 30
0.0
 40
2.1688439998915681
100
AcDbArc
 50
20.6085253286049728
 51
23.5797823410415397
  0
ARC
  5
FC
100
AcDbEntity
  8
0
 62
3
420
65280
370
5
  6
BYLAYER
100
AcDbCircle
 10
17.5537125383558532
 20
32.6780208033035535
 30
0.0
 40
4.7283072325042541
100
AcDbArc
 50
20.2698943266555851
 51
21.7463863741395791
  0
LINE
  5
FD
100
AcDbEntity
100
AcDbLine
  8
0
 62
3
420
65280
370
5
  6
BYLAYER
 10
21.9892009054899802
 20
34.3161087832270439
 30
0.0
 11
22.2343292499344187
 21
33.6518191965603819
 31
0.0
  0
LINE
  5
FE
100
AcDbEntity
100
AcDbLine
  8
0
 62
3
420
65280
370
5
  6
BYLAYER
 10
22.2343292499344187
 20
33.6518191965603819
 30
0.0
 11
22.7533514388233158
 21
34.0750818332270455
 31
0.0
  0
LINE
  5
FF
100
AcDbEntity
100
AcDbLine
  8
0
 62
3
420
65280
370
5
  6
BYLAYER
 10
22.7533514388233158
 20
34.0750818332270455
 30
0.0
 11
22.1519556388233099
 21
34.4488353543381578
 31
0.0
  0
LINE
  5
100
100
AcDbEntity
100
AcDbLine
  8
0
 62
3
420
65280
370
5
  6
BYLAYER
 10
25.7510185166010785
 20
34.6059934798937121
 30
0.0
 11
24.9102587610455259
 21
35.2128055476714934
 31
0.0
  0
LINE
  5
101
100
AcDbEntity
100
AcDbLine
  8
0
 62
3
420
65280
370
5
  6
BYLAYER
 10
24.9102587610455259
 20
35.2128055476714934
 30
0.0
 11
24.3825977499344191
 21
34.9915767687826005
 31
0.0
  0
LINE
  5
102
100
AcDbEntity
100
AcDbLine
  8
0
 62
3
420
65280
370
5
  6
BYLAYER
 10
24.3825977499344191
 20
34.9915767687826005
 30
0.0
 11
24.7246722499344145
 21
34.1756841776714921
 31
0.0
  0
LINE
  5
103
100
AcDbEntity
100
AcDbLine
  8
0
 62
3
420
65280
370
5
  6
BYLAYER
 10
24.7246722499344145
 20
34.1756841776714921
 30
0.0
 11
24.274787449934415
 21
33.9870642010048272
 31
0.0
  0
LINE
  5
104
100
AcDbEntity
100
AcDbLine
  8
0
 62
3
420
65280
370
5
  6
BYLAYER
 10
24.274787449934415
 20
33.9870642010048272
 30
0.0
 11
23.3738861388233019
 21
36.1358354798937143
 31
0.0
  0
LINE
  5
105
100
AcDbEntity
100
AcDbLine
  8
0
 62
3
420
65280
370
5
  6
BYLAYER
 10
23.3738861388233019
 20
36.1358354798937143
 30
0.0
 11
24.4475102721566344
 21
36.5859659543381639
 31
0.0
  0
ARC
  5
106
100
AcDbEntity
  8
0
 62
3
420
65280
370
5
  6
BYLAYER
100
AcDbCircle
 10
24.973330545416907
 20
35.391968981930475
 30
0.0
 40
1.3046515741339648
100
AcDbArc
 50
96.8621903165298619
 51
113.7680498609490769
  0
ARC
  5
107
100
AcDbEntity
  8
0
 62
3
420
65280
370
5
  6
BYLAYER
100
AcDbCircle
 10
24.9159549463897179
 20
35.9443094539719397
 30
0.0
 40
0.7494669134671013
100
AcDbArc
 50
73.9799900059524731
 51
97.5525380322398377
  0
ARC
  5
108
100
AcDbEntity
  8
0
 62
3
420
65280
370
5
  6
BYLAYER
100
AcDbCircle
 10
24.9701465551901123
 20
36.1406642789825128
 30
0.0
 40
0.5457860771311555
100
AcDbArc
 50
44.9159694760533981
 51
73.7593728188145263
  0
ARC
  5
109
100
AcDbEntity
  8
0
 62
3
420
65280
370
5
  6
BYLAYER
100
AcDbCircle
 10
24.8461265401096156
 20
36.0127414272946424
 30
0.0
 40
0.7239386510031787
100
AcDbArc
 50
21.8155215529254853
 51
45.1550654876128306
  0
ARC
  5
10A
100
AcDbEntity
  8
0
 62
3
420
65280
370
5
  6
BYLAYER
100
AcDbCircle
 10
24.8784683620184026
 20
36.0050743084640601
 30
0.0
 40
0.6970249843288929
100
AcDbArc
 50
3.3080836776852469
 51
23.3887802529320084
  0
ARC
  5
10B
100
AcDbEntity
  8
0
 62
3
420
65280
370
5
  6
BYLAYER
100
AcDbCircle
 10
24.9464941412359025
 20
36.0063651947693302
 30
0.0
 40
0.6290435929941954
100
AcDbArc
 50
343.4168243767225022
 51
3.5482440011270331
  0
ARC
  5
10C
100
AcDbEntity
  8
0
 62
3
420
65280
370
5
  6
BYLAYER
100
AcDbCircle
 10
24.9467509738248197
 20
36.0006250610949152
 30
0.0
 40
0.6271826585769977
100
AcDbArc
 50
324.1176235045629141
 51
343.9127084801513092
  0
ARC
  5
10D
100
AcDbEntity
  8
0
 62
3
420
65280
370
5
  6
BYLAYER
100
AcDbCircle
 10
24.8705120389720236
 20
36.0662779318464999
 30
0.0
 40
0.7274835393665664
100
AcDbArc
 50
305.9666862449555538
 51
323.4475284409197684
  0
LINE
  5
10E
100
AcDbEntity
100
AcDbLine
  8
0
 62
3
420
65280
370
5
  6
BYLAYER
 10
25.2977738610455347
 20
35.4774828610048232
 30
0.0
 11
26.2573294166010953
 21
34.8182708754492722
 31
0.0
  0
LINE
  5
10F
100
AcDbEntity
100
AcDbLine
  8
0
 62
3
420
65280
370
5
  6
BYLAYER
 10
26.2573294166010953
 20
34.8182708754492722
 30
0.0
 11
25.7510185166010928
 21
34.6059934798937121
 31
0.0
  0
ARC
  5
110
100
AcDbEntity
  8
0
 62
3
420
65280
370
5
  6
BYLAYER
100
AcDbCircle
 10
24.7948114720955033
 20
35.980204650156125
 30
0.0
 40
0.2933993693847192
100
AcDbArc
 50
18.5556618990644964
 51
74.862398208718588
  0
ARC
  5
111
100
AcDbEntity
  8
0
 62
3
420
65280
370
5
  6
BYLAYER
100
AcDbCircle
 10
24.7795536162950967
 20
35.7477992136610538
 30
0.0
 40
0.5237456636309767
100
AcDbArc
 50
79.8968844570547958
 51
116.4029729554398926
  0
LINE
  5
112
100
AcDbEntity
100
AcDbLine
  8
0
 62
3
420
65280
370
5
  6
BYLAYER
 10
24.546653527712202
 20
36.2169122798937124
 30
0.0
 11
23.9701920610455375
 21
35.9752229543381574
 31
0.0
  0
LINE
  5
113
100
AcDbEntity
100
AcDbLine
  8
0
 62
3
420
65280
370
5
  6
BYLAYER
 10
23.9701920610455375
 20
35.9752229543381574
 30
0.0
 11
24.2361780388233115
 21
35.3408092710048223
 31
0.0
  0
LINE
  5
114
100
AcDbEntity
100
AcDbLine
  8
0
 62
3
420
65280
370
5
  6
BYLAYER
 10
24.2361780388233115
 20
35.3408092710048223
 30
0.0
 11
24.8248399721566457
 21
35.5876137332270446
 31
0.0
  0
ARC
  5
115
100
AcDbEntity
  8
0
 62
3
420
65280
370
5
  6
BYLAYER
100
AcDbCircle
 10
24.5976308516114557
 20
36.1630771461593952
 30
0.0
 40
0.6186938856033711
100
AcDbArc
 50
291.5454991178039563
 51
309.0703705322897008
  0
ARC
  5
116
100
AcDbEntity
  8
0
 62
3
420
65280
370
5
  6
BYLAYER
100
AcDbCircle
 10
24.765500147087387
 20
35.9489093294597524
 30
0.0
 40
0.3466474355287825
100
AcDbArc
 50
309.8398631989024352
 51
334.5074005031950719
  0
ARC
  5
117
100
AcDbEntity
  8
0
 62
3
420
65280
370
5
  6
BYLAYER
100
AcDbCircle
 10
24.8057526480573927
 20
35.9235750589808021
 30
0.0
 40
0.2994614615069054
100
AcDbArc
 50
335.568055915153991
 51
1.7706869012989295
  0
ARC
  5
118
100
AcDbEntity
  8
0
 62
3
420
65280
370
5
  6
BYLAYER
100
AcDbCircle
 10
24.7114438388705935
 20
35.9170519156950263
 30
0.0
 40
0.3939433031650849
100
AcDbArc
 50
2.2951486832730472
 51
23.4104959160695962
  0
LINE
  5
119
100
AcDbEntity
100
AcDbLine
  8
0
 62
3
420
65280
370
5
  6
BYLAYER
 10
27.351212872156637
 20
36.9302694454492695
 30
0.0
 11
27.6090863721566393
 21
34.9944136665603835
 31
0.0
  0
LINE
  5
11A
100
AcDbEntity
100
AcDbLine
  8
0
 62
3
420
65280
370
5
  6
BYLAYER
 10
27.6090863721566393
 20
34.9944136665603835
 30
0.0
 11
27.1255324610455304
 21
34.9299999721159367
 31
0.0
  0
LINE
  5
11B
100
AcDbEntity
100
AcDbLine
  8
0
 62
3
420
65280
370
5
  6
BYLAYER
 10
27.1255324610455304
 20
34.9299999721159367
 30
0.0
 11
26.8676589610455281
 21
36.8658557510048297
 31
0.0
  0
LINE
  5
11C
100
AcDbEntity
100
AcDbLine
  8
0
 62
3
420
65280
370
5
  6
BYLAYER
 10
26.8676589610455281
 20
36.8658557510048297
 30
0.0
 11
26.1218373499344167
 21
36.766505626560388
 31
0.0
  0
LINE
  5
11D
100
AcDbEntity
100
AcDbLine
  8
0
 62
3
420
65280
370
5
  6
BYLAYER
 10
26.1218373499344167
 20
36.766505626560388
 30
0.0
 11
26.0720533499344214
 21
37.1402357232270504
 31
0.0
  0
LINE
  5
11E
100
AcDbEntity
100
AcDbLine
  8
0
 62
3
420
65280
370
5
  6
BYLAYER
 10
26.0720533499344214
 20
37.1402357232270504
 30
0.0
 11
28.0488887832677563
 21
37.4035678243381611
 31
0.0
  0
LINE
  5
11F
100
AcDbEntity
100
AcDbLine
  8
0
 62
3
420
65280
370
5
  6
BYLAYER
 10
28.0488887832677563
 20
37.4035678243381611
 30
0.0
 11
28.0986727832677587
 21
37.0298378687826073
 31
0.0
  0
LINE
  5
120
100
AcDbEntity
100
AcDbLine
  8
0
 62
3
420
65280
370
5
  6
BYLAYER
 10
28.0986727832677587
 20
37.0298378687826073
 30
0.0
 11
27.351212872156637
 21
36.9302694454492695
 31
0.0
  0
LINE
  5
121
100
AcDbEntity
100
AcDbLine
  8
0
 62
3
420
65280
370
5
  6
BYLAYER
 10
28.6296654277121974
 20
35.0742238532270463
 30
0.0
 11
28.8902313277121863
 21
37.3895952843381565
 31
0.0
  0
LINE
  5
122
100
AcDbEntity
100
AcDbLine
  8
0
 62
3
420
65280
370
5
  6
BYLAYER
 10
28.8902313277121863
 20
37.3895952843381565
 30
0.0
 11
29.3749973832677469
 21
37.3350408821159334
 31
0.0
  0
LINE
  5
123
100
AcDbEntity
100
AcDbLine
  8
0
 62
3
420
65280
370
5
  6
BYLAYER
 10
29.3749973832677469
 20
37.3350408821159334
 30
0.0
 11
29.1565954832677505
 21
35.3943358198937119
 31
0.0
  0
LINE
  5
124
100
AcDbEntity
100
AcDbLine
  8
0
 62
3
420
65280
370
5
  6
BYLAYER
 10
29.1565954832677505
 20
35.3943358198937119
 30
0.0
 11
30.3989094832677509
 21
35.2545288576714881
 31
0.0
  0
LINE
  5
125
100
AcDbEntity
100
AcDbLine
  8
0
 62
3
420
65280
370
5
  6
BYLAYER
 10
30.3989094832677509
 20
35.2545288576714881
 30
0.0
 11
30.3567454832677441
 21
34.8798626298937151
 31
0.0
  0
LINE
  5
126
100
AcDbEntity
100
AcDbLine
  8
0
 62
3
420
65280
370
5
  6
BYLAYER
 10
30.3567454832677441
 20
34.8798626298937151
 30
0.0
 11
28.6296654277121974
 21
35.0742238532270463
 31
0.0
  0
LINE
  5
127
100
AcDbEntity
100
AcDbLine
  8
0
 62
3
420
65280
370
5
  6
BYLAYER
 10
30.6873053166010834
 20
34.7945952532270439
 30
0.0
 11
31.5228383166010815
 21
36.9696179965603733
 31
0.0
  0
LINE
  5
128
100
AcDbEntity
100
AcDbLine
  8
0
 62
3
420
65280
370
5
  6
BYLAYER
 10
31.5228383166010815
 20
36.9696179965603733
 30
0.0
 11
33.2332178721566365
 21
36.3125770054492705
 31
0.0
  0
LINE
  5
129
100
AcDbEntity
100
AcDbLine
  8
0
 62
3
420
65280
370
5
  6
BYLAYER
 10
33.2332178721566365
 20
36.3125770054492705
 30
0.0
 11
33.0980150832677538
 21
35.9606216232270413
 31
0.0
  0
LINE
  5
12A
100
AcDbEntity
100
AcDbLine
  8
0
 62
3
420
65280
370
5
  6
BYLAYER
 10
33.0980150832677538
 20
35.9606216232270413
 30
0.0
 11
31.8430166054899786
 21
36.4427282987825976
 31
0.0
  0
LINE
  5
12B
100
AcDbEntity
100
AcDbLine
  8
0
 62
3
420
65280
370
5
  6
BYLAYER
 10
31.8430166054899786
 20
36.4427282987825976
 30
0.0
 11
31.633095483267752
 21
35.8962712876714889
 31
0.0
  0
LINE
  5
12C
100
AcDbEntity
100
AcDbLine
  8
0
 62
3
420
65280
370
5
  6
BYLAYER
 10
31.633095483267752
 20
35.8962712876714889
 30
0.0
 11
32.7939305166010797
 21
35.450337316560379
 31
0.0
  0
LINE
  5
12D
100
AcDbEntity
100
AcDbLine
  8
0
 62
3
420
65280
370
5
  6
BYLAYER
 10
32.7939305166010797
 20
35.450337316560379
 30
0.0
 11
32.6587277277121899
 21
35.0983819343381569
 31
0.0
  0
LINE
  5
12E
100
AcDbEntity
100
AcDbLine
  8
0
 62
3
420
65280
370
5
  6
BYLAYER
 10
32.6587277277121899
 20
35.0983819343381569
 30
0.0
 11
31.497891283267748
 21
35.5443157643381582
 31
0.0
  0
LINE
  5
12F
100
AcDbEntity
100
AcDbLine
  8
0
 62
3
420
65280
370
5
  6
BYLAYER
 10
31.497891283267748
 20
35.5443157643381582
 30
0.0
 11
31.2778891832677459
 21
34.971616461004821
 31
0.0
  0
LINE
  5
130
100
AcDbEntity
100
AcDbLine
  8
0
 62
3
420
65280
370
5
  6
BYLAYER
 10
31.2778891832677459
 20
34.971616461004821
 30
0.0
 11
32.596178816601082
 21
34.4651969054492682
 31
0.0
  0
LINE
  5
131
100
AcDbEntity
100
AcDbLine
  8
0
 62
3
420
65280
370
5
  6
BYLAYER
 10
32.596178816601082
 20
34.4651969054492682
 30
0.0
 11
32.4609760277121921
 21
34.1132413821159304
 31
0.0
  0
LINE
  5
132
100
AcDbEntity
100
AcDbLine
  8
0
 62
3
420
65280
370
5
  6
BYLAYER
 10
32.4609760277121921
 20
34.1132413821159304
 30
0.0
 11
30.6873053166010834
 21
34.7945952532270439
 31
0.0
  0
LINE
  5
133
100
AcDbEntity
100
AcDbLine
  8
0
 62
3
420
65280
370
5
  6
BYLAYER
 10
34.7678167277121943
 20
34.8958368310048215
 30
0.0
 11
33.6328642943788623
 21
33.306521718782605
 31
0.0
  0
LINE
  5
134
100
AcDbEntity
100
AcDbLine
  8
0
 62
3
420
65280
370
5
  6
BYLAYER
 10
33.6328642943788623
 20
33.306521718782605
 30
0.0
 11
33.2358721721566326
 21
33.5900195854492694
 31
0.0
  0
LINE
  5
135
100
AcDbEntity
100
AcDbLine
  8
0
 62
3
420
65280
370
5
  6
BYLAYER
 10
33.2358721721566326
 20
33.5900195854492694
 30
0.0
 11
34.3708246054899718
 21
35.1793344154492686
 31
0.0
  0
LINE
  5
136
100
AcDbEntity
100
AcDbLine
  8
0
 62
3
420
65280
370
5
  6
BYLAYER
 10
34.3708246054899718
 20
35.1793344154492686
 30
0.0
 11
33.7585138610455289
 21
35.6165935810048211
 31
0.0
  0
LINE
  5
137
100
AcDbEntity
100
AcDbLine
  8
0
 62
3
420
65280
370
5
  6
BYLAYER
 10
33.7585138610455289
 20
35.6165935810048211
 30
0.0
 11
33.9776241388233089
 21
35.9234213476714928
 31
0.0
  0
LINE
  5
138
100
AcDbEntity
100
AcDbLine
  8
0
 62
3
420
65280
370
5
  6
BYLAYER
 10
33.9776241388233089
 20
35.9234213476714928
 30
0.0
 11
35.6005825388233035
 21
34.7644444654492659
 31
0.0
  0
LINE
  5
139
100
AcDbEntity
100
AcDbLine
  8
0
 62
3
420
65280
370
5
  6
BYLAYER
 10
35.6005825388233035
 20
34.7644444654492659
 30
0.0
 11
35.3814722610455306
 21
34.4576166987826014
 31
0.0
  0
LINE
  5
13A
100
AcDbEntity
100
AcDbLine
  8
0
 62
3
420
65280
370
5
  6
BYLAYER
 10
35.3814722610455306
 20
34.4576166987826014
 30
0.0
 11
34.7678167277121943
 21
34.8958368310048215
 31
0.0
  0
LINE
  5
13B
100
AcDbEntity
100
AcDbLine
  8
0
 62
3
420
65280
370
5
  6
BYLAYER
 10
35.043192238823309
 20
31.9534072743381614
 30
0.0
 11
36.8814622054899672
 21
33.3850500521159361
 31
0.0
  0
LINE
  5
13C
100
AcDbEntity
100
AcDbLine
  8
0
 62
3
420
65280
370
5
  6
BYLAYER
 10
36.8814622054899672
 20
33.3850500521159361
 30
0.0
 11
37.1812019610455309
 21
33.0001751410048243
 31
0.0
  0
LINE
  5
13D
100
AcDbEntity
100
AcDbLine
  8
0
 62
3
420
65280
370
5
  6
BYLAYER
 10
37.1812019610455309
 20
33.0001751410048243
 30
0.0
 11
35.3429319943788585
 21
31.5685309521159354
 31
0.0
  0
LINE
  5
13E
100
AcDbEntity
100
AcDbLine
  8
0
 62
3
420
65280
370
5
  6
BYLAYER
 10
35.3429319943788585
 20
31.5685309521159354
 30
0.0
 11
35.043192238823309
 21
31.9534072743381614
 31
0.0
  0
LINE
  5
13F
100
AcDbEntity
100
AcDbLine
  8
0
 62
3
420
65280
370
5
  6
BYLAYER
 10
35.6002791499344156
 20
31.1972873743381598
 30
0.0
 11
37.5850817166010813
 21
32.4176966965603839
 31
0.0
  0
LINE
  5
140
100
AcDbEntity
100
AcDbLine
  8
0
 62
3
420
65280
370
5
  6
BYLAYER
 10
37.5850817166010813
 20
32.4176966965603839
 30
0.0
 11
37.8405958388233046
 21
32.0021414076714947
 31
0.0
  0
LINE
  5
141
100
AcDbEntity
100
AcDbLine
  8
0
 62
3
420
65280
370
5
  6
BYLAYER
 10
37.8405958388233046
 20
32.0021414076714947
 30
0.0
 11
35.8557946832677459
 21
30.7817320854492706
 31
0.0
  0
LINE
  5
142
100
AcDbEntity
100
AcDbLine
  8
0
 62
3
420
65280
370
5
  6
BYLAYER
 10
35.8557946832677459
 20
30.7817320854492706
 30
0.0
 11
35.6002791499344156
 21
31.1972873743381598
 31
0.0
  0
LINE
  5
143
100
AcDbEntity
100
AcDbLine
  8
0
 62
3
420
65280
370
5
  6
BYLAYER
 10
20.6835153166010812
 20
29.9203390632270469
 30
0.0
 11
20.6835153166010883
 21
29.9203390632270469
 31
0.0
  0
LINE
  5
144
100
AcDbEntity
100
AcDbLine
  8
0
 62
3
420
65280
370
5
  6
BYLAYER
 10
19.8163833054899712
 20
20.532652874338158
 30
0.0
 11
22.5425328499344175
 21
22.2966320743381559
 31
0.0
  0
LINE
  5
145
100
AcDbEntity
100
AcDbLine
  8
0
 62
3
420
65280
370
5
  6
BYLAYER
 10
22.5425328499344175
 20
22.2966320743381559
 30
0.0
 11
25.3577714832677472
 21
21.4235508187826014
 31
0.0
  0
LINE
  5
146
100
AcDbEntity
100
AcDbLine
  8
0
 62
3
420
65280
370
5
  6
BYLAYER
 10
29.6875387388233065
 20
22.9202599298937137
 30
0.0
 11
31.8791481054899677
 21
22.1719053743381629
 31
0.0
  0
LINE
  5
147
100
AcDbEntity
100
AcDbLine
  8
0
 62
3
420
65280
370
5
  6
BYLAYER
 10
31.8791481054899677
 20
22.1719053743381629
 30
0.0
 11
33.8747611943788556
 21
23.1162576187826048
 31
0.0
  0
LINE
  5
148
100
AcDbEntity
100
AcDbLine
  8
0
 62
3
420
65280
370
5
  6
BYLAYER
 10
33.8747611943788556
 20
23.1162576187826048
 30
0.0
 11
37.6343520721566307
 21
21.441368918782608
 31
0.0
  0
LINE
  5
149
100
AcDbEntity
100
AcDbLine
  8
0
 62
3
420
65280
370
5
  6
BYLAYER
 10
37.6343520721566307
 20
21.441368918782608
 30
0.0
 11
39.2379697832677437
 21
22.0471800854492699
 31
0.0
  0
LINE
  5
14A
100
AcDbEntity
100
AcDbLine
  8
0
 62
3
420
65280
370
5
  6
BYLAYER
 10
39.2379697832677437
 20
22.0471800854492699
 30
0.0
 11
39.5909914244025387
 21
21.4844023312476615
 31
0.0
  0
LINE
  5
14B
100
AcDbEntity
100
AcDbLine
  8
0
 62
3
420
65280
370
5
  6
BYLAYER
 10
18.1945128413838866
 20
19.854047414763393
 30
0.0
 11
19.8163833054899712
 21
20.532652874338158
 31
0.0
  0
LINE
  5
14C
100
AcDbEntity
100
AcDbLine
  8
0
 62
3
420
65280
370
5
  6
BYLAYER
 10
27.6221222166010847
 20
18.7033053632270452
 30
0.0
 11
25.7991486943788644
 21
18.7224936521159364
 31
0.0
  0
LINE
  5
14D
100
AcDbEntity
100
AcDbLine
  8
0
 62
3
420
65280
370
5
  6
BYLAYER
 10
25.7991486943788644
 20
18.7224936521159364
 30
0.0
 11
25.7991486943788644
 21
19.0103320965603828
 31
0.0
  0
LINE
  5
14E
100
AcDbEntity
100
AcDbLine
  8
0
 62
3
420
65280
370
5
  6
BYLAYER
 10
25.7991486943788644
 20
19.0103320965603828
 30
0.0
 11
27.6221222166010847
 21
20.9484395854492718
 31
0.0
  0
LINE
  5
14F
100
AcDbEntity
100
AcDbLine
  8
0
 62
3
420
65280
370
5
  6
BYLAYER
 10
27.6221222166010847
 20
20.9484395854492718
 30
0.0
 11
27.6221222166010847
 21
22.2062890523406757
 31
0.0
  0
ARC
  5
150
100
AcDbEntity
  8
0
 62
3
420
65280
370
5
  6
BYLAYER
100
AcDbCircle
 10
91.6083614193566831
 20
27.0369911528900744
 30
0.0
 40
64.1175191889425662
100
AcDbArc
 50
171.8312020629156507
 51
176.33290074268578
  0
ARC
  5
151
100
AcDbEntity
  8
0
 62
3
420
65280
370
5
  6
BYLAYER
100
AcDbCircle
 10
-31.1196812500383579
 20
26.7448704053689958
 30
0.0
 40
60.0023619051968495
100
AcDbArc
 50
4.2324409003918859
 51
9.0155999086498397
  0
LINE
  5
152
100
AcDbEntity
100
AcDbLine
  8
0
 62
3
420
65280
370
5
  6
BYLAYER
 10
28.7190452054899765
 20
31.1732166410048279
 30
0.0
 11
28.7578431907105454
 21
22.5988838107421834
 31
0.0
  0
LINE
  5
153
100
AcDbEntity
100
AcDbLine
  8
0
 62
3
420
65280
370
5
  6
BYLAYER
 10
30.0623566610455271
 20
18.5270886298937185
 30
0.0
 11
30.0623566610455271
 21
18.167514941004832
 31
0.0
  0
LINE
  5
154
100
AcDbEntity
100
AcDbLine
  8
0
 62
3
420
65280
370
5
  6
BYLAYER
 10
30.0623566610455271
 20
18.167514941004832
 30
0.0
 11
28.5765723721566403
 21
18.6288551410048306
 31
0.0
  0
SPLINE
  5
155
  8
0
 62
3
420
65280
370
5
  6
BYLAYER
100
AcDbEntity
100
AcDbSpline
 70
8
 71
3
 72
8
 73
4
 74
0
 40
0.0
 40
0.0
 40
0.0
 40
0.0
 40
1.0
 40
1.0
 40
1.0
 40
1.0
 10
28.5765723721566403
 20
18.6288551410048306
 30
0.0
 10
28.6113463832677439
 20
18.6335682521159391
 30
0.0
 10
27.8107722499344163
 20
18.5140739521159361
 30
0.0
 10
27.6221222166010847
 20
18.7033053632270523
 30
0.0
  0
LINE
  5
156
100
AcDbEntity
100
AcDbLine
  8
0
 62
3
420
65280
370
5
  6
BYLAYER
 10
27.6221222166010847
 20
18.7033053632270523
 30
0.0
 11
27.6221222166010847
 21
18.7033053632270452
 31
0.0
  0
ARC
  5
157
100
AcDbEntity
  8
0
 62
5
420
255
370
5
  6
BYLAYER
100
AcDbCircle
 10
28.2642761016179946
 20
22.8588102085284248
 30
0.0
 40
1.831744181654771
100
AcDbArc
 50
249.8587416667303671
 51
285.253251362882736
  0
ARC
  5
158
100
AcDbEntity
  8
0
 62
5
420
255
370
5
  6
BYLAYER
100
AcDbCircle
 10
28.1197607398498874
 20
19.9736739532394978
 30
0.0
 40
5.7789413837897543
100
AcDbArc
 50
83.7770658182288628
 51
94.8263711992264717
  0
ARC
  5
159
100
AcDbEntity
  8
0
 62
5
420
255
370
5
  6
BYLAYER
100
AcDbCircle
 10
28.1941522078021833
 20
29.8914411606862274
 30
0.0
 40
1.403940817985438
100
AcDbArc
 50
68.0454385105521311
 51
114.7488704057281552
  0
LINE
  5
15A
100
AcDbEntity
100
AcDbLine
  8
0
 62
5
420
255
370
5
  6
BYLAYER
 10
28.5883650277122001
 20
20.9894873965603814
 30
0.0
 11
28.5623921166010888
 21
18.6457376743381573
 31
0.0
  0
LINE
  5
15B
100
AcDbEntity
100
AcDbLine
  8
0
 62
5
420
255
370
5
  6
BYLAYER
 10
27.6233639943788631
 20
20.9559057743381629
 30
0.0
 11
27.6165765499344218
 21
18.7102677854492718
 31
0.0
  0
LINE
  5
15C
100
AcDbEntity
100
AcDbLine
  8
0
 62
3
420
65280
370
5
  6
BYLAYER
 10
30.0589643499344135
 20
18.530480941004825
 30
0.0
 11
28.7665187663066746
 21
20.6815865018116511
 31
0.0
  0
ARC
  5
15D
100
AcDbEntity
  8
0
 62
3
420
65280
370
5
  6
BYLAYER
100
AcDbCircle
 10
47.7220157812814421
 20
0.296363107053498
 30
0.0
 40
28.5493790111760219
100
AcDbArc
 50
135.0849786018554823
 51
139.1370214009598953
  0
LINE
  5
15E
100
AcDbEntity
100
AcDbLine
  8
0
 62
3
420
65280
370
5
  6
BYLAYER
 10
26.1307950832677562
 20
18.9748595854492663
 30
0.0
 11
27.5148128610455345
 21
18.9986043521159331
 31
0.0
  0
LINE
  5
15F
100
AcDbEntity
100
AcDbLine
  8
0
 62
3
420
65280
370
5
  6
BYLAYER
 10
27.5148128610455345
 20
18.9986043521159331
 30
0.0
 11
27.5046373388233079
 21
20.4538592521159366
 31
0.0
  0
LINE
  5
160
100
AcDbEntity
100
AcDbLine
  8
0
 62
3
420
65280
370
5
  6
BYLAYER
 10
28.6952990277121955
 20
20.3554850521159381
 30
0.0
 11
28.6783388832677559
 21
18.8730930743381542
 31
0.0
  0
LINE
  5
161
100
AcDbEntity
100
AcDbLine
  8
0
 62
3
420
65280
370
5
  6
BYLAYER
 10
28.6783388832677559
 20
18.8730930743381542
 30
0.0
 11
29.7774124054899687
 21
18.5406578743381552
 31
0.0
  0
LINE
  5
162
100
AcDbEntity
100
AcDbLine
  8
0
 62
3
420
65280
370
5
  6
BYLAYER
 10
29.7774124054899687
 20
18.5406578743381552
 30
0.0
 11
28.6952990277121955
 21
20.3554850521159381
 31
0.0
  0
LINE
  5
163
100
AcDbEntity
100
AcDbLine
  8
0
 62
3
420
65280
370
5
  6
BYLAYER
 10
25.3577714832677472
 20
21.4235508187826014
 30
0.0
 11
27.3594612922886569
 21
22.1204406670891416
 31
0.0
  0
LINE
  5
164
100
AcDbEntity
100
AcDbLine
  8
0
 62
3
420
65280
370
5
  6
BYLAYER
 10
28.9570918294511017
 20
22.6786489270615625
 30
0.0
 11
29.6875387388233065
 21
22.9202599298937137
 31
0.0
  0
CIRCLE
  5
165
100
AcDbEntity
100
AcDbCircle
  8
0
 62
3
420
65280
370
5
  6
BYLAYER
 10
28.484427949934414
 20
26.0279964798937122
 30
0.0
 40
12.8160056179762964
  0
ARC
  5
166
100
AcDbEntity
  8
0
 62
3
420
65280
370
5
  6
BYLAYER
100
AcDbCircle
 10
28.484427949934414
 20
26.0279964798937122
 30
0.0
 40
12.0
100
AcDbArc
 50
337.7509763427876237
 51
210.9637565320735177
  0
LINE
  5
167
100
AcDbEntity
100
AcDbLine
  8
0
 62
3
420
65280
370
5
  6
BYLAYER
 10
27.6221222166010847
 20
22.2062890523406757
 30
0.0
 11
27.6221222166010847
 21
31.1379007632270515
 31
0.0
  0
LINE
  5
168
100
AcDbEntity
100
AcDbLine
  8
0
 62
5
420
255
370
5
  6
BYLAYER
 10
28.7665187663066746
 20
20.6815865018116511
 30
0.0
 11
28.5833569943788603
 21
20.9864351632270463
 31
0.0
  0
LINE
  5
169
100
AcDbEntity
100
AcDbLine
  8
0
 62
3
420
65280
370
5
  6
BYLAYER
 10
28.7578431907105454
 20
22.5988838107421834
 30
0.0
 11
28.7665361499344243
 21
20.677744729893714
 31
0.0
  0
LINE
  5
16A
100
AcDbEntity
100
AcDbLine
  8
0
 62
3
420
65280
370
5
  6
BYLAYER
 10
27.5125045262219246
 20
18.464083753654748
 30
0.0
 11
25.3249362995552616
 21
18.4871097003214189
 31
0.0
  0
LINE
  5
16B
100
AcDbEntity
100
AcDbLine
  8
0
 62
3
420
65280
370
5
  6
BYLAYER
 10
25.3249362995552616
 20
18.4871097003214189
 30
0.0
 11
25.3249362995552616
 21
18.8325158336547531
 31
0.0
  0
LINE
  5
16C
100
AcDbEntity
100
AcDbLine
  8
0
 62
3
420
65280
370
5
  6
BYLAYER
 10
25.3249362995552616
 20
18.8325158336547531
 30
0.0
 11
27.3594612922886569
 21
21.0232727078330051
 31
0.0
  0
LINE
  5
16D
100
AcDbEntity
100
AcDbLine
  8
0
 62
3
420
65280
370
5
  6
BYLAYER
 10
30.4367150862219233
 20
18.2566944469880852
 30
0.0
 11
28.9570918294511017
 21
20.7088795499175049
 31
0.0
  0
LINE
  5
16E
100
AcDbEntity
100
AcDbLine
  8
0
 62
3
420
65280
370
5
  6
BYLAYER
 10
30.4407858595552625
 20
18.2526236736547567
 30
0.0
 11
30.4417581158177697
 21
17.9313702015642491
 31
0.0
  0
LINE
  5
16F
100
AcDbEntity
100
AcDbLine
  8
0
 62
3
420
65280
370
5
  6
BYLAYER
 10
30.1756676575572342
 20
17.9050008768717639
 30
0.0
 11
28.6578447128885898
 21
18.3747434869880912
 31
0.0
  0
SPLINE
  5
170
  8
0
 62
3
420
65280
370
5
  6
BYLAYER
100
AcDbEntity
100
AcDbSpline
 70
8
 71
3
 72
8
 73
4
 74
0
 40
0.0
 40
0.0
 40
0.0
 40
0.0
 40
1.0
 40
1.0
 40
1.0
 40
1.0
 10
28.6578447128885898
 20
18.3747434869880912
 30
0.0
 10
28.6995735262219256
 20
18.3803992203214221
 30
0.0
 10
27.7388845662219268
 20
18.2370060603214164
 30
0.0
 10
27.5125045262219246
 20
18.4640837536547551
 30
0.0
  0
LINE
  5
171
100
AcDbEntity
100
AcDbLine
  8
0
 62
3
420
65280
370
5
  6
BYLAYER
 10
27.3594612922886569
 20
22.1204406670891416
 30
0.0
 11
27.3594612922886569
 21
21.0232727078330051
 31
0.0
  0
LINE
  5
172
100
AcDbEntity
100
AcDbLine
  8
0
 62
3
420
65280
370
5
  6
BYLAYER
 10
27.3594612922886569
 20
21.0232727078330051
 30
0.0
 11
27.3594612922886569
 21
21.0232727078330086
 31
0.0
  0
LINE
  5
173
100
AcDbEntity
100
AcDbLine
  8
0
 62
3
420
65280
370
5
  6
BYLAYER
 10
28.9570918294511017
 20
22.6786489270615625
 30
0.0
 11
28.9570918294511017
 21
20.7088795499175049
 31
0.0
  0
LINE
  5
174
100
AcDbEntity
100
AcDbLine
  8
0
 62
3
420
65280
370
5
  6
BYLAYER
 10
30.1756676575572342
 20
17.9050008768717639
 30
0.0
 11
30.4417581158177697
 21
17.9313702015642491
 31
0.0
  0
ARC
  5
175
100
AcDbEntity
  8
0
 62
1
420
16711680
370
5
  6
BYLAYER
100
AcDbCircle
 10
1.0
 20
1.0
 30
0.0
 40
1.0
100
AcDbArc
 50
180.0
 51
270.0
  0
ARC
  5
176
100
AcDbEntity
  8
0
 62
1
420
16711680
370
5
  6
BYLAYER
100
AcDbCircle
 10
1.0
 20
55.0
 30
0.0
 40
1.0
100
AcDbArc
 50
90.0
 51
180.0
  0
ARC
  5
177
100
AcDbEntity
  8
0
 62
1
420
16711680
370
5
  6
BYLAYER
100
AcDbCircle
 10
18.5
 20
55.0
 30
0.0
 40
1.0
100
AcDbArc
 50
0.0
 51
90.0
  0
ARC
  5
178
100
AcDbEntity
  8
0
 62
1
420
16711680
370
5
  6
BYLAYER
100
AcDbCircle
 10
20.5
 20
42.5
 30
0.0
 40
1.0
100
AcDbArc
 50
180.0
 51
270.0
  0
ARC
  5
179
100
AcDbEntity
  8
0
 62
1
420
16711680
370
5
  6
BYLAYER
100
AcDbCircle
 10
35.5
 20
42.5
 30
0.0
 40
1.0
100
AcDbArc
 50
270.0
 51
0.0
  0
ARC
  5
17A
100
AcDbEntity
  8
0
 62
1
420
16711680
370
5
  6
BYLAYER
100
AcDbCircle
 10
37.5
 20
55.0
 30
0.0
 40
1.0
100
AcDbArc
 50
90.0
 51
180.0
  0
ARC
  5
17B
100
AcDbEntity
  8
0
 62
1
420
16711680
370
5
  6
BYLAYER
100
AcDbCircle
 10
55.0
 20
55.0
 30
0.0
 40
1.0
100
AcDbArc
 50
0.0
 51
90.0
  0
ARC
  5
17C
100
AcDbEntity
  8
0
 62
1
420
16711680
370
5
  6
BYLAYER
100
AcDbCircle
 10
55.0
 20
1.0
 30
0.0
 40
1.0
100
AcDbArc
 50
270.0
 51
0.0
  0
ENDSEC
  0
SECTION
  2
OBJECTS
  0
DICTIONARY
  5
C
100
AcDbDictionary
280
0
281
1
  3
ACAD_GROUP
350
D
  3
ACAD_LAYOUT
350
1A
  3
ACAD_MLINESTYLE
350
17
  3
ACAD_PLOTSETTINGS
350
19
  3
ACAD_PLOTSTYLENAME
350
E
  3
AcDbVariableDictionary
350
17D
  3
QCAD_OBJECTS
350
17E
  0
DICTIONARY
  5
D
100
AcDbDictionary
280
0
281
1
  0
ACDBDICTIONARYWDFLT
  5
E
100
AcDbDictionary
281
1
  3
Normal
350
F
100
AcDbDictionaryWithDefault
340
F
  0
ACDBPLACEHOLDER
  5
F
  0
DICTIONARY
  5
17
100
AcDbDictionary
280
0
281
1
  3
Standard
350
18
  0
MLINESTYLE
  5
18
100
AcDbMlineStyle
  2
STANDARD
 70
0
  3

 62
256
 51
90.0
 52
90.0
 71
2
 49
0.5
 62
256
  6
BYLAYER
 49
-0.5
 62
256
  6
BYLAYER
  0
DICTIONARY
  5
19
100
AcDbDictionary
280
0
281
1
  0
DICTIONARY
  5
1A
100
AcDbDictionary
281
1
  3
Layout1
350
1E
  3
Layout2
350
26
  3
Model
350
22
  0
LAYOUT
  5
1E
100
AcDbPlotSettings
  1

  2
none_device
  4

  6

 40
0.0
 41
0.0
 42
0.0
 43
0.0
 44
0.0
 45
0.0
 46
0.0
 47
0.0
 48
0.0
 49
0.0
140
0.0
141
0.0
142
1.0
143
1.0
 70
688
 72
0
 73
0
 74
5
  7

 75
16
147
1.0
148
0.0
149
0.0
100
AcDbLayout
  1
Layout1
 70
1
 71
1
 10
0.0
 20
0.0
 11
420.0
 21
297.0
 12
0.0
 22
0.0
 32
0.0
 14
100000000000000000000.0
 24
100000000000000000000.0
 34
100000000000000000000.0
 15
-100000000000000000000.0
 25
-100000000000000000000.0
 35
-100000000000000000000.0
146
0.0
 13
0.0
 23
0.0
 33
0.0
 16
1.0
 26
0.0
 36
0.0
 17
0.0
 27
1.0
 37
0.0
 76
0
330
1B
  0
LAYOUT
  5
22
100
AcDbPlotSettings
  1

  2
none_device
  4

  6

 40
0.0
 41
0.0
 42
0.0
 43
0.0
 44
0.0
 45
0.0
 46
0.0
 47
0.0
 48
0.0
 49
0.0
140
0.0
141
0.0
142
1.0
143
1.0
 70
1712
 72
0
 73
0
 74
0
  7

 75
0
147
1.0
148
0.0
149
0.0
100
AcDbLayout
  1
Model
 70
1
 71
0
 10
0.0
 20
0.0
 11
12.0
 21
9.0
 12
0.0
 22
0.0
 32
0.0
 14
0.0
 24
0.0
 34
0.0
 15
0.0
 25
0.0
 35
0.0
146
0.0
 13
0.0
 23
0.0
 33
0.0
 16
1.0
 26
0.0
 36
0.0
 17
0.0
 27
1.0
 37
0.0
 76
0
330
1F
  0
LAYOUT
  5
26
100
AcDbPlotSettings
  1

  2
none_device
  4

  6

 40
0.0
 41
0.0
 42
0.0
 43
0.0
 44
0.0
 45
0.0
 46
0.0
 47
0.0
 48
0.0
 49
0.0
140
0.0
141
0.0
142
1.0
143
1.0
 70
688
 72
0
 73
0
 74
5
  7

 75
16
147
1.0
148
0.0
149
0.0
100
AcDbLayout
  1
Layout2
 70
1
 71
2
 10
0.0
 20
0.0
 11
12.0
 21
9.0
 12
0.0
 22
0.0
 32
0.0
 14
0.0
 24
0.0
 34
0.0
 15
0.0
 25
0.0
 35
0.0
146
0.0
 13
0.0
 23
0.0
 33
0.0
 16
1.0
 26
0.0
 36
0.0
 17
0.0
 27
1.0
 37
0.0
 76
0
330
23
  0
DICTIONARY
  5
17D
100
AcDbDictionary
281
1
  3
DIMASSOC
350
180
  3
HIDETEXT
350
17F
  0
DICTIONARYVAR
  5
17F
100
DictionaryVariables
280
0
  1
2
  0
DICTIONARYVAR
  5
180
100
DictionaryVariables
280
0
  1
1
  0
DICTIONARY
  5
17E
100
AcDbDictionary
281
1
  3
Grid/DisplayGrid00
350
181
  3
Grid/DisplayGrid01
350
182
  3
Grid/DisplayGrid02
350
183
  3
Grid/DisplayGrid03
350
184
  3
Grid/GridSpacingX00
350
185
  3
Grid/GridSpacingX01
350
186
  3
Grid/GridSpacingX02
350
187
  3
Grid/GridSpacingX03
350
188
  3
Grid/GridSpacingY00
350
189
  3
Grid/GridSpacingY01
350
18A
  3
Grid/GridSpacingY02
350
18B
  3
Grid/GridSpacingY03
350
18C
  3
Grid/IsometricGrid00
350
18D
  3
Grid/IsometricGrid01
350
18E
  3
Grid/IsometricGrid02
350
18F
  3
Grid/IsometricGrid03
350
190
  3
Grid/IsometricProjection00
350
191
  3
Grid/IsometricProjection01
350
192
  3
Grid/IsometricProjection02
350
193
  3
Grid/IsometricProjection03
350
194
  3
Grid/MetaGridSpacingX00
350
195
  3
Grid/MetaGridSpacingX01
350
196
  3
Grid/MetaGridSpacingX02
350
197
  3
Grid/MetaGridSpacingX03
350
198
  3
Grid/MetaGridSpacingY00
350
199
  3
Grid/MetaGridSpacingY01
350
19A
  3
Grid/MetaGridSpacingY02
350
19B
  3
Grid/MetaGridSpacingY03
350
19C
  3
MultiPageSettings/Columns
350
19D
  3
MultiPageSettings/GlueMarginsBottom
350
19E
  3
MultiPageSettings/GlueMarginsLeft
350
19F
  3
MultiPageSettings/GlueMarginsRight
350
1A0
  3
MultiPageSettings/GlueMarginsTop
350
1A1
  3
MultiPageSettings/PrintCropMarks
350
1A2
  3
MultiPageSettings/Rows
350
1A3
  3
PageSettings/OffsetX
350
1A4
  3
PageSettings/OffsetY
350
1A5
  3
PageSettings/PageOrientation
350
1A6
  3
PageSettings/PaperHeight
350
1A7
  3
PageSettings/PaperWidth
350
1A8
  3
PageSettings/Scale
350
1A9
  3
PageSettings/ShowPaperBorders
350
1AA
  3
UnitSettings/PaperUnit
350
1AB
  0
XRECORD
  5
181
330
17E
100
AcDbXrecord
280
1
290
1
  0
XRECORD
  5
182
330
17E
100
AcDbXrecord
280
1
290
1
  0
XRECORD
  5
183
330
17E
100
AcDbXrecord
280
1
290
1
  0
XRECORD
  5
184
330
17E
100
AcDbXrecord
280
1
290
1
  0
XRECORD
  5
185
330
17E
100
AcDbXrecord
280
1
1000
auto
  0
XRECORD
  5
186
330
17E
100
AcDbXrecord
280
1
1000
auto
  0
XRECORD
  5
187
330
17E
100
AcDbXrecord
280
1
1000
auto
  0
XRECORD
  5
188
330
17E
100
AcDbXrecord
280
1
1000
auto
  0
XRECORD
  5
189
330
17E
100
AcDbXrecord
280
1
1000
auto
  0
XRECORD
  5
18A
330
17E
100
AcDbXrecord
280
1
1000
auto
  0
XRECORD
  5
18B
330
17E
100
AcDbXrecord
280
1
1000
auto
  0
XRECORD
  5
18C
330
17E
100
AcDbXrecord
280
1
1000
auto
  0
XRECORD
  5
18D
330
17E
100
AcDbXrecord
280
1
290
0
  0
XRECORD
  5
18E
330
17E
100
AcDbXrecord
280
1
290
0
  0
XRECORD
  5
18F
330
17E
100
AcDbXrecord
280
1
290
0
  0
XRECORD
  5
190
330
17E
100
AcDbXrecord
280
1
290
0
  0
XRECORD
  5
191
330
17E
100
AcDbXrecord
280
1
 90
0
  0
XRECORD
  5
192
330
17E
100
AcDbXrecord
280
1
 90
0
  0
XRECORD
  5
193
330
17E
100
AcDbXrecord
280
1
 90
0
  0
XRECORD
  5
194
330
17E
100
AcDbXrecord
280
1
 90
0
  0
XRECORD
  5
195
330
17E
100
AcDbXrecord
280
1
1000
auto
  0
XRECORD
  5
196
330
17E
100
AcDbXrecord
280
1
1000
auto
  0
XRECORD
  5
197
330
17E
100
AcDbXrecord
280
1
1000
auto
  0
XRECORD
  5
198
330
17E
100
AcDbXrecord
280
1
1000
auto
  0
XRECORD
  5
199
330
17E
100
AcDbXrecord
280
1
1000
auto
  0
XRECORD
  5
19A
330
17E
100
AcDbXrecord
280
1
1000
auto
  0
XRECORD
  5
19B
330
17E
100
AcDbXrecord
280
1
1000
auto
  0
XRECORD
  5
19C
330
17E
100
AcDbXrecord
280
1
1000
auto
  0
XRECORD
  5
19D
330
17E
100
AcDbXrecord
280
1
 90
1
  0
XRECORD
  5
19E
330
17E
100
AcDbXrecord
280
1
 40
10.0
  0
XRECORD
  5
19F
330
17E
100
AcDbXrecord
280
1
 40
10.0
  0
XRECORD
  5
1A0
330
17E
100
AcDbXrecord
280
1
 40
10.0
  0
XRECORD
  5
1A1
330
17E
100
AcDbXrecord
280
1
 40
10.0
  0
XRECORD
  5
1A2
330
17E
100
AcDbXrecord
280
1
290
0
  0
XRECORD
  5
1A3
330
17E
100
AcDbXrecord
280
1
 90
1
  0
XRECORD
  5
1A4
330
17E
100
AcDbXrecord
280
1
 40
0.0
  0
XRECORD
  5
1A5
330
17E
100
AcDbXrecord
280
1
 40
0.0
  0
XRECORD
  5
1A6
330
17E
100
AcDbXrecord
280
1
1000
Portrait
  0
XRECORD
  5
1A7
330
17E
100
AcDbXrecord
280
1
 40
297.0
  0
XRECORD
  5
1A8
330
17E
100
AcDbXrecord
280
1
 40
210.0
  0
XRECORD
  5
1A9
330
17E
100
AcDbXrecord
280
1
1000
1:1
  0
XRECORD
  5
1AA
330
17E
100
AcDbXrecord
280
1
290
1
  0
XRECORD
  5
1AB
330
17E
100
AcDbXrecord
280
1
 90
4
  0
ENDSEC
  0
EOF
