  0
SECTION
  2
HEADER
  9
$ANGBASE
  50
0.0
  9
$ANGDIR
  70
  1
  9
$MEASUREMENT
  70
0
  0
ENDSEC
  0
SECTION
  2
TABLES
  0
TABLE
  2
LTYPE
  70
1
  0
LTYPE
  2
CONTINUOUS
  70
0
  3
Solid line
  72
65
  73
0
  40
0.0
  0
ENDTAB
  0
TABLE
  2
STYLE
  70
4
  0
STYLE
  2
KICAD
  70
0
  40
0
  41
1
  42
1
  50
0
  71
0
  3
isocp.shx
  0
STYLE
  2
KICADB
  70
0
  40
0
  41
1
  42
1
  50
0
  71
0
  3
isocp.shx
  0
STYLE
  2
KICADI
  70
0
  40
0
  41
1
  42
1
  50
15
  71
0
  3
isocp.shx
  0
STYLE
  2
KICADBI
  70
0
  40
0
  41
1
  42
1
  50
15
  71
0
  3
isocp.shx
  0
ENDTAB
  0
TABLE
  2
LAYER
  70
30
  0
LAYER
  2
BLACK
  70
0
  62
7
  6
CONTINUOUS
  0
LAYER
  2
GRAY1
  70
0
  62
251
  6
CONTINUOUS
  0
LAYER
  2
GRAY2
  70
0
  62
8
  6
CONTINUOUS
  0
LAYER
  2
GRAY3
  70
0
  62
9
  6
CONTINUOUS
  0
LAYER
  2
WHITE
  70
0
  62
7
  6
CONTINUOUS
  0
LAYER
  2
LYELLOW
  70
0
  62
51
  6
CONTINUOUS
  0
LAYER
  2
BLUE1
  70
0
  62
178
  6
CONTINUOUS
  0
LAYER
  2
GREEN1
  70
0
  62
98
  6
CONTINUOUS
  0
LAYER
  2
CYAN1
  70
0
  62
138
  6
CONTINUOUS
  0
LAYER
  2
RED1
  70
0
  62
18
  6
CONTINUOUS
  0
LAYER
  2
MAGENTA1
  70
0
  62
228
  6
CONTINUOUS
  0
LAYER
  2
BROWN1
  70
0
  62
58
  6
CONTINUOUS
  0
LAYER
  2
BLUE2
  70
0
  62
5
  6
CONTINUOUS
  0
LAYER
  2
GREEN2
  70
0
  62
3
  6
CONTINUOUS
  0
LAYER
  2
CYAN2
  70
0
  62
4
  6
CONTINUOUS
  0
LAYER
  2
RED2
  70
0
  62
1
  6
CONTINUOUS
  0
LAYER
  2
MAGENTA2
  70
0
  62
6
  6
CONTINUOUS
  0
LAYER
  2
BROWN2
  70
0
  62
54
  6
CONTINUOUS
  0
LAYER
  2
BLUE3
  70
0
  62
171
  6
CONTINUOUS
  0
LAYER
  2
GREEN3
  70
0
  62
91
  6
CONTINUOUS
  0
LAYER
  2
CYAN3
  70
0
  62
131
  6
CONTINUOUS
  0
LAYER
  2
RED3
  70
0
  62
11
  6
CONTINUOUS
  0
LAYER
  2
MAGENTA3
  70
0
  62
221
  6
CONTINUOUS
  0
LAYER
  2
YELLOW3
  70
0
  62
2
  6
CONTINUOUS
  0
LAYER
  2
BLUE4
  70
0
  62
5
  6
CONTINUOUS
  0
LAYER
  2
GREEN4
  70
0
  62
3
  6
CONTINUOUS
  0
LAYER
  2
CYAN4
  70
0
  62
4
  6
CONTINUOUS
  0
LAYER
  2
RED4
  70
0
  62
1
  6
CONTINUOUS
  0
LAYER
  2
MAGENTA4
  70
0
  62
6
  6
CONTINUOUS
  0
LAYER
  2
YELLOW4
  70
0
  62
2
  6
CONTINUOUS
  0
ENDTAB
  0
ENDSEC
  0
SECTION
  2
ENTITIES
0
LINE
8
Black
10
50.1
20
-100
11
50.1
21
-44
0
LINE
8
Black
10
49.9
20
-100
11
49.9
21
-44
0
ARC
8
Black
10
50
20
-44
40
0.1
50
360
51
540
0
ARC
8
Black
10
50
20
-100
40
0.1
50
180
51
360
0
LINE
8
Black
10
73
20
-30.1
11
127
21
-30.1
0
LINE
8
Black
10
73
20
-29.9
11
127
21
-29.9
0
ARC
8
Black
10
127
20
-30
40
0.1
50
270
51
450
0
ARC
8
Black
10
73
20
-30
40
0.1
50
90
51
270
0
LINE
8
Black
10
150.1
20
-100
11
150.1
21
-44
0
LINE
8
Black
10
149.9
20
-100
11
149.9
21
-44
0
ARC
8
Black
10
150
20
-44
40
0.1
50
360
51
540
0
ARC
8
Black
10
150
20
-100
40
0.1
50
180
51
360
0
ARC
8
Black
10
100
20
-100
40
75.0733
50
111.092
51
131.76
0
ARC
8
Black
10
100
20
-100
40
75.0267
50
48.2397
51
68.9077
0
LINE
8
Black
10
50
20
-100.1
11
84
21
-100.1
0
LINE
8
Black
10
50
20
-99.9
11
84
21
-99.9
0
ARC
8
Black
10
84
20
-100
40
0.1
50
270
51
450
0
ARC
8
Black
10
50
20
-100
40
0.1
50
90
51
270
0
LINE
8
Black
10
116
20
-100.1
11
150
21
-100.1
0
LINE
8
Black
10
116
20
-99.9
11
150
21
-99.9
0
ARC
8
Black
10
150
20
-100
40
0.1
50
270
51
450
0
ARC
8
Black
10
116
20
-100
40
0.1
50
90
51
270
0
ARC
8
Black
10
100
20
-100
40
16
50
-0
51
180
0
LINE
8
Black
10
58
20
-87.2
11
58.4
21
-87.6
0
LINE
8
Black
10
58.4
20
-87.2
11
58
21
-87.6
0
LINE
8
Black
10
59.6
20
-82.7
11
60
21
-83.1
0
LINE
8
Black
10
60
20
-82.7
11
59.6
21
-83.1
0
LINE
8
Black
10
60.4
20
-87.9
11
60.8
21
-88.3
0
LINE
8
Black
10
60.8
20
-87.9
11
60.4
21
-88.3
0
LINE
8
Black
10
60.7
20
-73.1
11
61.1
21
-73.5
0
LINE
8
Black
10
61.1
20
-73.1
11
60.7
21
-73.5
0
LINE
8
Black
10
61.2
20
-78.2
11
61.6
21
-78.6
0
LINE
8
Black
10
61.6
20
-78.2
11
61.2
21
-78.6
0
LINE
8
Black
10
61.5
20
-69.4
11
61.9
21
-69.8
0
LINE
8
Black
10
61.9
20
-69.4
11
61.5
21
-69.8
0
LINE
8
Black
10
62
20
-76.9
11
62.4
21
-77.3
0
LINE
8
Black
10
62.4
20
-76.9
11
62
21
-77.3
0
LINE
8
Black
10
62.4
20
-39.4
11
62.8
21
-39.8
0
LINE
8
Black
10
62.8
20
-39.4
11
62.4
21
-39.8
0
LINE
8
Black
10
62.4
20
-49
11
62.8
21
-49.4
0
LINE
8
Black
10
62.8
20
-49
11
62.4
21
-49.4
0
LINE
8
Black
10
62.4
20
-50.4
11
62.8
21
-50.8
0
LINE
8
Black
10
62.8
20
-50.4
11
62.4
21
-50.8
0
LINE
8
Black
10
62.4
20
-60
11
62.8
21
-60.4
0
LINE
8
Black
10
62.8
20
-60
11
62.4
21
-60.4
0
LINE
8
Black
10
62.4
20
-61.3
11
62.8
21
-61.7
0
LINE
8
Black
10
62.8
20
-61.3
11
62.4
21
-61.7
0
LINE
8
Black
10
62.4
20
-82.6
11
62.8
21
-83
0
LINE
8
Black
10
62.8
20
-82.6
11
62.4
21
-83
0
LINE
8
Black
10
62.6
20
-86.2
11
63
21
-86.6
0
LINE
8
Black
10
63
20
-86.2
11
62.6
21
-86.6
0
LINE
8
Black
10
63.4
20
-44.2
11
63.8
21
-44.6
0
LINE
8
Black
10
63.8
20
-44.2
11
63.4
21
-44.6
0
LINE
8
Black
10
63.4
20
-55.2
11
63.8
21
-55.6
0
LINE
8
Black
10
63.8
20
-55.2
11
63.4
21
-55.6
0
LINE
8
Black
10
63.4
20
-65.8
11
63.8
21
-66.2
0
LINE
8
Black
10
63.8
20
-65.8
11
63.4
21
-66.2
0
LINE
8
Black
10
63.8
20
-78.9
11
64.2
21
-79.3
0
LINE
8
Black
10
64.2
20
-78.9
11
63.8
21
-79.3
0
LINE
8
Black
10
64.7
20
-73.4
11
65.1
21
-73.8
0
LINE
8
Black
10
65.1
20
-73.4
11
64.7
21
-73.8
0
LINE
8
Black
10
65
20
-71.8
11
65.4
21
-72.2
0
LINE
8
Black
10
65.4
20
-71.8
11
65
21
-72.2
0
LINE
8
Black
10
65.6
20
-79.1
11
66
21
-79.5
0
LINE
8
Black
10
66
20
-79.1
11
65.6
21
-79.5
0
LINE
8
Black
10
66
20
-38.8
11
66.4
21
-39.2
0
LINE
8
Black
10
66.4
20
-38.8
11
66
21
-39.2
0
LINE
8
Black
10
66
20
-42.6
11
66.4
21
-43
0
LINE
8
Black
10
66.4
20
-42.6
11
66
21
-43
0
LINE
8
Black
10
66
20
-53.6
11
66.4
21
-54
0
LINE
8
Black
10
66.4
20
-53.6
11
66
21
-54
0
LINE
8
Black
10
66
20
-64.6
11
66.4
21
-65
0
LINE
8
Black
10
66.4
20
-64.6
11
66
21
-65
0
LINE
8
Black
10
66.1
20
-49.8
11
66.5
21
-50.2
0
LINE
8
Black
10
66.5
20
-49.8
11
66.1
21
-50.2
0
LINE
8
Black
10
66.1
20
-60.8
11
66.5
21
-61.2
0
LINE
8
Black
10
66.5
20
-60.8
11
66.1
21
-61.2
0
LINE
8
Black
10
67
20
-36.4
11
67.4
21
-36.8
0
LINE
8
Black
10
67.4
20
-36.4
11
67
21
-36.8
0
LINE
8
Black
10
67
20
-86
11
67.4
21
-86.4
0
LINE
8
Black
10
67.4
20
-86
11
67
21
-86.4
0
LINE
8
Black
10
67.7
20
-65.1
11
68.1
21
-65.5
0
LINE
8
Black
10
68.1
20
-65.1
11
67.7
21
-65.5
0
LINE
8
Black
10
67.8
20
-43.2
11
68.2
21
-43.6
0
LINE
8
Black
10
68.2
20
-43.2
11
67.8
21
-43.6
0
LINE
8
Black
10
67.8
20
-54.3
11
68.2
21
-54.7
0
LINE
8
Black
10
68.2
20
-54.3
11
67.8
21
-54.7
0
LINE
8
Black
10
67.8
20
-78.2
11
68.2
21
-78.6
0
LINE
8
Black
10
68.2
20
-78.2
11
67.8
21
-78.6
0
LINE
8
Black
10
67.8
20
-82
11
68.2
21
-82.4
0
LINE
8
Black
10
68.2
20
-82
11
67.8
21
-82.4
0
LINE
8
Black
10
68.2
20
-36.4
11
68.6
21
-36.8
0
LINE
8
Black
10
68.6
20
-36.4
11
68.2
21
-36.8
0
LINE
8
Black
10
68.2
20
-56.6
11
68.6
21
-57
0
LINE
8
Black
10
68.6
20
-56.6
11
68.2
21
-57
0
LINE
8
Black
10
68.2
20
-69.2
11
68.6
21
-69.6
0
LINE
8
Black
10
68.6
20
-69.2
11
68.2
21
-69.6
0
LINE
8
Black
10
69
20
-87.2
11
69.4
21
-87.6
0
LINE
8
Black
10
69.4
20
-87.2
11
69
21
-87.6
0
LINE
8
Black
10
69.2
20
-47.8
11
69.6
21
-48.2
0
LINE
8
Black
10
69.6
20
-47.8
11
69.2
21
-48.2
0
LINE
8
Black
10
70.6
20
-43.2
11
71
21
-43.6
0
LINE
8
Black
10
71
20
-43.2
11
70.6
21
-43.6
0
LINE
8
Black
10
70.6
20
-54.3
11
71
21
-54.7
0
LINE
8
Black
10
71
20
-54.3
11
70.6
21
-54.7
0
LINE
8
Black
10
70.6
20
-65.1
11
71
21
-65.5
0
LINE
8
Black
10
71
20
-65.1
11
70.6
21
-65.5
0
LINE
8
Black
10
70.6
20
-82.7
11
71
21
-83.1
0
LINE
8
Black
10
71
20
-82.7
11
70.6
21
-83.1
0
LINE
8
Black
10
71.4
20
-87.9
11
71.8
21
-88.3
0
LINE
8
Black
10
71.8
20
-87.9
11
71.4
21
-88.3
0
LINE
8
Black
10
71.7
20
-73
11
72.1
21
-73.4
0
LINE
8
Black
10
72.1
20
-73
11
71.7
21
-73.4
0
LINE
8
Black
10
72.2
20
-78.2
11
72.6
21
-78.6
0
LINE
8
Black
10
72.6
20
-78.2
11
72.2
21
-78.6
0
LINE
8
Black
10
72.5
20
-45.1
11
72.9
21
-45.5
0
LINE
8
Black
10
72.9
20
-45.1
11
72.5
21
-45.5
0
LINE
8
Black
10
72.6
20
-56.1
11
73
21
-56.5
0
LINE
8
Black
10
73
20
-56.1
11
72.6
21
-56.5
0
LINE
8
Black
10
72.6
20
-66.9
11
73
21
-67.3
0
LINE
8
Black
10
73
20
-66.9
11
72.6
21
-67.3
0
LINE
8
Black
10
73.1
20
-77
11
73.5
21
-77.4
0
LINE
8
Black
10
73.5
20
-77
11
73.1
21
-77.4
0
LINE
8
Black
10
73.5
20
-82.6
11
73.9
21
-83
0
LINE
8
Black
10
73.9
20
-82.6
11
73.5
21
-83
0
LINE
8
Black
10
73.6
20
-86.2
11
74
21
-86.6
0
LINE
8
Black
10
74
20
-86.2
11
73.6
21
-86.6
0
LINE
8
Black
10
74.8
20
-78.9
11
75.2
21
-79.3
0
LINE
8
Black
10
75.2
20
-78.9
11
74.8
21
-79.3
0
LINE
8
Black
10
75.4
20
-46.8
11
75.8
21
-47.2
0
LINE
8
Black
10
75.8
20
-46.8
11
75.4
21
-47.2
0
LINE
8
Black
10
75.4
20
-57.8
11
75.8
21
-58.2
0
LINE
8
Black
10
75.8
20
-57.8
11
75.4
21
-58.2
0
LINE
8
Black
10
75.4
20
-68.5
11
75.8
21
-68.9
0
LINE
8
Black
10
75.8
20
-68.5
11
75.4
21
-68.9
0
LINE
8
Black
10
75.6
20
-71.8
11
76
21
-72.2
0
LINE
8
Black
10
76
20
-71.8
11
75.6
21
-72.2
0
LINE
8
Black
10
75.7
20
-73.4
11
76.1
21
-73.8
0
LINE
8
Black
10
76.1
20
-73.4
11
75.7
21
-73.8
0
LINE
8
Black
10
76.3
20
-39.9
11
76.7
21
-40.3
0
LINE
8
Black
10
76.7
20
-39.9
11
76.3
21
-40.3
0
LINE
8
Black
10
76.3
20
-41.5
11
76.7
21
-41.9
0
LINE
8
Black
10
76.7
20
-41.5
11
76.3
21
-41.9
0
LINE
8
Black
10
76.3
20
-50.9
11
76.7
21
-51.3
0
LINE
8
Black
10
76.7
20
-50.9
11
76.3
21
-51.3
0
LINE
8
Black
10
76.3
20
-52.5
11
76.7
21
-52.9
0
LINE
8
Black
10
76.7
20
-52.5
11
76.3
21
-52.9
0
LINE
8
Black
10
76.3
20
-61.7
11
76.7
21
-62.1
0
LINE
8
Black
10
76.7
20
-61.7
11
76.3
21
-62.1
0
LINE
8
Black
10
76.3
20
-63.3
11
76.7
21
-63.7
0
LINE
8
Black
10
76.7
20
-63.3
11
76.3
21
-63.7
0
LINE
8
Black
10
76.6
20
-79
11
77
21
-79.4
0
LINE
8
Black
10
77
20
-79
11
76.6
21
-79.4
0
LINE
8
Black
10
78
20
-86
11
78.4
21
-86.4
0
LINE
8
Black
10
78.4
20
-86
11
78
21
-86.4
0
LINE
8
Black
10
78.8
20
-78.2
11
79.2
21
-78.6
0
LINE
8
Black
10
79.2
20
-78.2
11
78.8
21
-78.6
0
LINE
8
Black
10
78.8
20
-82
11
79.2
21
-82.4
0
LINE
8
Black
10
79.2
20
-82
11
78.8
21
-82.4
0
LINE
8
Black
10
80
20
-87.2
11
80.4
21
-87.6
0
LINE
8
Black
10
80.4
20
-87.2
11
80
21
-87.6
0
LINE
8
Black
10
81.2
20
-61.4
11
81.6
21
-61.8
0
LINE
8
Black
10
81.6
20
-61.4
11
81.2
21
-61.8
0
LINE
8
Black
10
81.4
20
-54.8
11
81.8
21
-55.2
0
LINE
8
Black
10
81.8
20
-54.8
11
81.4
21
-55.2
0
LINE
8
Black
10
81.6
20
-82.7
11
82
21
-83.1
0
LINE
8
Black
10
82
20
-82.7
11
81.6
21
-83.1
0
LINE
8
Black
10
82.2
20
-63.8
11
82.6
21
-64.2
0
LINE
8
Black
10
82.6
20
-63.8
11
82.2
21
-64.2
0
LINE
8
Black
10
82.4
20
-87.9
11
82.8
21
-88.3
0
LINE
8
Black
10
82.8
20
-87.9
11
82.4
21
-88.3
0
LINE
8
Black
10
82.7
20
-73.1
11
83.1
21
-73.5
0
LINE
8
Black
10
83.1
20
-73.1
11
82.7
21
-73.5
0
LINE
8
Black
10
82.8
20
-56.6
11
83.2
21
-57
0
LINE
8
Black
10
83.2
20
-56.6
11
82.8
21
-57
0
LINE
8
Black
10
83
20
-54.8
11
83.4
21
-55.2
0
LINE
8
Black
10
83.4
20
-54.8
11
83
21
-55.2
0
LINE
8
Black
10
83.2
20
-78.2
11
83.6
21
-78.6
0
LINE
8
Black
10
83.6
20
-78.2
11
83.2
21
-78.6
0
LINE
8
Black
10
83.3
20
-59.8
11
83.7
21
-60.2
0
LINE
8
Black
10
83.7
20
-59.8
11
83.3
21
-60.2
0
LINE
8
Black
10
83.3
20
-61.3
11
83.7
21
-61.7
0
LINE
8
Black
10
83.7
20
-61.3
11
83.3
21
-61.7
0
LINE
8
Black
10
83.3
20
-63.3
11
83.7
21
-63.7
0
LINE
8
Black
10
83.7
20
-63.3
11
83.3
21
-63.7
0
LINE
8
Black
10
83.3
20
-65.3
11
83.7
21
-65.7
0
LINE
8
Black
10
83.7
20
-65.3
11
83.3
21
-65.7
0
LINE
8
Black
10
84.1
20
-77.1
11
84.5
21
-77.5
0
LINE
8
Black
10
84.5
20
-77.1
11
84.1
21
-77.5
0
LINE
8
Black
10
84.4
20
-82.6
11
84.8
21
-83
0
LINE
8
Black
10
84.8
20
-82.6
11
84.4
21
-83
0
LINE
8
Black
10
84.6
20
-86.2
11
85
21
-86.6
0
LINE
8
Black
10
85
20
-86.2
11
84.6
21
-86.6
0
LINE
8
Black
10
85.8
20
-59.8
11
86.2
21
-60.2
0
LINE
8
Black
10
86.2
20
-59.8
11
85.8
21
-60.2
0
LINE
8
Black
10
85.8
20
-78.9
11
86.2
21
-79.3
0
LINE
8
Black
10
86.2
20
-78.9
11
85.8
21
-79.3
0
LINE
8
Black
10
86.6
20
-71.8
11
87
21
-72.2
0
LINE
8
Black
10
87
20
-71.8
11
86.6
21
-72.2
0
LINE
8
Black
10
86.7
20
-73.4
11
87.1
21
-73.8
0
LINE
8
Black
10
87.1
20
-73.4
11
86.7
21
-73.8
0
LINE
8
Black
10
86.9
20
-52.2
11
87.3
21
-52.6
0
LINE
8
Black
10
87.3
20
-52.2
11
86.9
21
-52.6
0
LINE
8
Black
10
87.3
20
-54.3
11
87.7
21
-54.7
0
LINE
8
Black
10
87.7
20
-54.3
11
87.3
21
-54.7
0
LINE
8
Black
10
87.3
20
-55.9
11
87.7
21
-56.3
0
LINE
8
Black
10
87.7
20
-55.9
11
87.3
21
-56.3
0
LINE
8
Black
10
87.45
20
-64.5
11
87.85
21
-64.9
0
LINE
8
Black
10
87.85
20
-64.5
11
87.45
21
-64.9
0
LINE
8
Black
10
87.6
20
-79
11
88
21
-79.4
0
LINE
8
Black
10
88
20
-79
11
87.6
21
-79.4
0
LINE
8
Black
10
87.8
20
-59.8
11
88.2
21
-60.2
0
LINE
8
Black
10
88.2
20
-59.8
11
87.8
21
-60.2
0
LINE
8
Black
10
88.8
20
-50.8
11
89.2
21
-51.2
0
LINE
8
Black
10
89.2
20
-50.8
11
88.8
21
-51.2
0
LINE
8
Black
10
89
20
-86
11
89.4
21
-86.4
0
LINE
8
Black
10
89.4
20
-86
11
89
21
-86.4
0
LINE
8
Black
10
89.2
20
-71.9
11
89.6
21
-72.3
0
LINE
8
Black
10
89.6
20
-71.9
11
89.2
21
-72.3
0
LINE
8
Black
10
89.3
20
-57.2
11
89.7
21
-57.6
0
LINE
8
Black
10
89.7
20
-57.2
11
89.3
21
-57.6
0
LINE
8
Black
10
89.8
20
-60
11
90.2
21
-60.4
0
LINE
8
Black
10
90.2
20
-60
11
89.8
21
-60.4
0
LINE
8
Black
10
89.8
20
-78.2
11
90.2
21
-78.6
0
LINE
8
Black
10
90.2
20
-78.2
11
89.8
21
-78.6
0
LINE
8
Black
10
89.8
20
-81.4
11
90.2
21
-81.8
0
LINE
8
Black
10
90.2
20
-81.4
11
89.8
21
-81.8
0
LINE
8
Black
10
90
20
-85.1
11
90.4
21
-85.5
0
LINE
8
Black
10
90.4
20
-85.1
11
90
21
-85.5
0
LINE
8
Black
10
90.5
20
-75.6
11
90.9
21
-76
0
LINE
8
Black
10
90.9
20
-75.6
11
90.5
21
-76
0
LINE
8
Black
10
90.8
20
-71.9
11
91.2
21
-72.3
0
LINE
8
Black
10
91.2
20
-71.9
11
90.8
21
-72.3
0
LINE
8
Black
10
90.8
20
-77
11
91.2
21
-77.4
0
LINE
8
Black
10
91.2
20
-77
11
90.8
21
-77.4
0
LINE
8
Black
10
91.3
20
-50.8
11
91.7
21
-51.2
0
LINE
8
Black
10
91.7
20
-50.8
11
91.3
21
-51.2
0
LINE
8
Black
10
91.6
20
-84.4
11
92
21
-84.8
0
LINE
8
Black
10
92
20
-84.4
11
91.6
21
-84.8
0
LINE
8
Black
10
91.8
20
-60
11
92.2
21
-60.4
0
LINE
8
Black
10
92.2
20
-60
11
91.8
21
-60.4
0
LINE
8
Black
10
91.9
20
-70.7
11
92.3
21
-71.1
0
LINE
8
Black
10
92.3
20
-70.7
11
91.9
21
-71.1
0
LINE
8
Black
10
92.2
20
-62.6
11
92.6
21
-63
0
LINE
8
Black
10
92.6
20
-62.6
11
92.2
21
-63
0
LINE
8
Black
10
92.4
20
-59
11
92.8
21
-59.4
0
LINE
8
Black
10
92.8
20
-59
11
92.4
21
-59.4
0
LINE
8
Black
10
92.4
20
-76.7
11
92.8
21
-77.1
0
LINE
8
Black
10
92.8
20
-76.7
11
92.4
21
-77.1
0
LINE
8
Black
10
92.4
20
-78.2
11
92.8
21
-78.6
0
LINE
8
Black
10
92.8
20
-78.2
11
92.4
21
-78.6
0
LINE
8
Black
10
92.7
20
-69.85
11
93.1
21
-70.25
0
LINE
8
Black
10
93.1
20
-69.85
11
92.7
21
-70.25
0
LINE
8
Black
10
93
20
-60
11
93.4
21
-60.4
0
LINE
8
Black
10
93.4
20
-60
11
93
21
-60.4
0
LINE
8
Black
10
93.1
20
-76.7
11
93.5
21
-77.1
0
LINE
8
Black
10
93.5
20
-76.7
11
93.1
21
-77.1
0
LINE
8
Black
10
93.1
20
-78.2
11
93.5
21
-78.6
0
LINE
8
Black
10
93.5
20
-78.2
11
93.1
21
-78.6
0
LINE
8
Black
10
93.2
20
-74.9
11
93.6
21
-75.3
0
LINE
8
Black
10
93.6
20
-74.9
11
93.2
21
-75.3
0
LINE
8
Black
10
93.5
20
-70.7
11
93.9
21
-71.1
0
LINE
8
Black
10
93.9
20
-70.7
11
93.5
21
-71.1
0
LINE
8
Black
10
93.8
20
-62.6
11
94.2
21
-63
0
LINE
8
Black
10
94.2
20
-62.6
11
93.8
21
-63
0
LINE
8
Black
10
94
20
-61.3
11
94.4
21
-61.7
0
LINE
8
Black
10
94.4
20
-61.3
11
94
21
-61.7
0
LINE
8
Black
10
94.2
20
-50
11
94.6
21
-50.4
0
LINE
8
Black
10
94.6
20
-50
11
94.2
21
-50.4
0
LINE
8
Black
10
95.5
20
-83.1
11
95.9
21
-83.5
0
LINE
8
Black
10
95.9
20
-83.1
11
95.5
21
-83.5
0
LINE
8
Black
10
95.6
20
-80
11
96
21
-80.4
0
LINE
8
Black
10
96
20
-80
11
95.6
21
-80.4
0
LINE
8
Black
10
95.9
20
-58.7
11
96.3
21
-59.1
0
LINE
8
Black
10
96.3
20
-58.7
11
95.9
21
-59.1
0
LINE
8
Black
10
96.2
20
-77
11
96.6
21
-77.4
0
LINE
8
Black
10
96.6
20
-77
11
96.2
21
-77.4
0
LINE
8
Black
10
96.6
20
-43.4
11
97
21
-43.8
0
LINE
8
Black
10
97
20
-43.4
11
96.6
21
-43.8
0
LINE
8
Black
10
96.6
20
-50
11
97
21
-50.4
0
LINE
8
Black
10
97
20
-50
11
96.6
21
-50.4
0
LINE
8
Black
10
97
20
-62.4
11
97.4
21
-62.8
0
LINE
8
Black
10
97.4
20
-62.4
11
97
21
-62.8
0
LINE
8
Black
10
97
20
-65.3
11
97.4
21
-65.7
0
LINE
8
Black
10
97.4
20
-65.3
11
97
21
-65.7
0
LINE
8
Black
10
97
20
-67.7
11
97.4
21
-68.1
0
LINE
8
Black
10
97.4
20
-67.7
11
97
21
-68.1
0
LINE
8
Black
10
97
20
-70.3
11
97.4
21
-70.7
0
LINE
8
Black
10
97.4
20
-70.3
11
97
21
-70.7
0
LINE
8
Black
10
97.1
20
-73.3
11
97.5
21
-73.7
0
LINE
8
Black
10
97.5
20
-73.3
11
97.1
21
-73.7
0
LINE
8
Black
10
97.2
20
-55.3
11
97.6
21
-55.7
0
LINE
8
Black
10
97.6
20
-55.3
11
97.2
21
-55.7
0
LINE
8
Black
10
97.75
20
-72.45
11
98.15
21
-72.85
0
LINE
8
Black
10
98.15
20
-72.45
11
97.75
21
-72.85
0
LINE
8
Black
10
97.8
20
-60.4
11
98.2
21
-60.8
0
LINE
8
Black
10
98.2
20
-60.4
11
97.8
21
-60.8
0
LINE
8
Black
10
98.3
20
-49
11
98.7
21
-49.4
0
LINE
8
Black
10
98.7
20
-49
11
98.3
21
-49.4
0
LINE
8
Black
10
98.4
20
-46.2
11
98.8
21
-46.6
0
LINE
8
Black
10
98.8
20
-46.2
11
98.4
21
-46.6
0
LINE
8
Black
10
99
20
-72.4
11
99.4
21
-72.8
0
LINE
8
Black
10
99.4
20
-72.4
11
99
21
-72.8
0
LINE
8
Black
10
99.9
20
-73
11
100.3
21
-73.4
0
LINE
8
Black
10
100.3
20
-73
11
99.9
21
-73.4
0
LINE
8
Black
10
100.4
20
-60.4
11
100.8
21
-60.8
0
LINE
8
Black
10
100.8
20
-60.4
11
100.4
21
-60.8
0
LINE
8
Black
10
101.4
20
-73
11
101.8
21
-73.4
0
LINE
8
Black
10
101.8
20
-73
11
101.4
21
-73.4
0
LINE
8
Black
10
101.7
20
-78.8
11
102.1
21
-79.2
0
LINE
8
Black
10
102.1
20
-78.8
11
101.7
21
-79.2
0
LINE
8
Black
10
102.1
20
-46.8
11
102.5
21
-47.2
0
LINE
8
Black
10
102.5
20
-46.8
11
102.1
21
-47.2
0
LINE
8
Black
10
102.2
20
-48.4
11
102.6
21
-48.8
0
LINE
8
Black
10
102.6
20
-48.4
11
102.2
21
-48.8
0
LINE
8
Black
10
102.8
20
-60.4
11
103.2
21
-60.8
0
LINE
8
Black
10
103.2
20
-60.4
11
102.8
21
-60.8
0
LINE
8
Black
10
102.9
20
-72.1
11
103.3
21
-72.5
0
LINE
8
Black
10
103.3
20
-72.1
11
102.9
21
-72.5
0
LINE
8
Black
10
103
20
-83.2
11
103.4
21
-83.6
0
LINE
8
Black
10
103.4
20
-83.2
11
103
21
-83.6
0
LINE
8
Black
10
103.1
20
-73.1
11
103.5
21
-73.5
0
LINE
8
Black
10
103.5
20
-73.1
11
103.1
21
-73.5
0
LINE
8
Black
10
103.2
20
-80.4
11
103.6
21
-80.8
0
LINE
8
Black
10
103.6
20
-80.4
11
103.2
21
-80.8
0
LINE
8
Black
10
104.1
20
-83.1
11
104.5
21
-83.5
0
LINE
8
Black
10
104.5
20
-83.1
11
104.1
21
-83.5
0
LINE
8
Black
10
104.4
20
-70.4
11
104.8
21
-70.8
0
LINE
8
Black
10
104.8
20
-70.4
11
104.4
21
-70.8
0
LINE
8
Black
10
104.4
20
-71.7
11
104.8
21
-72.1
0
LINE
8
Black
10
104.8
20
-71.7
11
104.4
21
-72.1
0
LINE
8
Black
10
105.1
20
-55.8
11
105.5
21
-56.2
0
LINE
8
Black
10
105.5
20
-55.8
11
105.1
21
-56.2
0
LINE
8
Black
10
105.2
20
-72.4
11
105.6
21
-72.8
0
LINE
8
Black
10
105.6
20
-72.4
11
105.2
21
-72.8
0
LINE
8
Black
10
105.3
20
-60.4
11
105.7
21
-60.8
0
LINE
8
Black
10
105.7
20
-60.4
11
105.3
21
-60.8
0
LINE
8
Black
10
105.4
20
-52.1
11
105.8
21
-52.5
0
LINE
8
Black
10
105.8
20
-52.1
11
105.4
21
-52.5
0
LINE
8
Black
10
106.5
20
-72
11
106.9
21
-72.4
0
LINE
8
Black
10
106.9
20
-72
11
106.5
21
-72.4
0
LINE
8
Black
10
106.5
20
-83.1
11
106.9
21
-83.5
0
LINE
8
Black
10
106.9
20
-83.1
11
106.5
21
-83.5
0
LINE
8
Black
10
106.8
20
-61.7
11
107.2
21
-62.1
0
LINE
8
Black
10
107.2
20
-61.7
11
106.8
21
-62.1
0
LINE
8
Black
10
107
20
-49.8
11
107.4
21
-50.2
0
LINE
8
Black
10
107.4
20
-49.8
11
107
21
-50.2
0
LINE
8
Black
10
107.1
20
-56
11
107.5
21
-56.4
0
LINE
8
Black
10
107.5
20
-56
11
107.1
21
-56.4
0
LINE
8
Black
10
107.3
20
-64.1
11
107.7
21
-64.5
0
LINE
8
Black
10
107.7
20
-64.1
11
107.3
21
-64.5
0
LINE
8
Black
10
107.55
20
-76
11
107.95
21
-76.4
0
LINE
8
Black
10
107.95
20
-76
11
107.55
21
-76.4
0
LINE
8
Black
10
107.7
20
-62.7
11
108.1
21
-63.1
0
LINE
8
Black
10
108.1
20
-62.7
11
107.7
21
-63.1
0
LINE
8
Black
10
109
20
-55.6
11
109.4
21
-56
0
LINE
8
Black
10
109.4
20
-55.6
11
109
21
-56
0
LINE
8
Black
10
109.05
20
-78.4
11
109.45
21
-78.8
0
LINE
8
Black
10
109.45
20
-78.4
11
109.05
21
-78.8
0
LINE
8
Black
10
109.2
20
-40.9
11
109.6
21
-41.3
0
LINE
8
Black
10
109.6
20
-40.9
11
109.2
21
-41.3
0
LINE
8
Black
10
109.2
20
-57.4
11
109.6
21
-57.8
0
LINE
8
Black
10
109.6
20
-57.4
11
109.2
21
-57.8
0
LINE
8
Black
10
109.2
20
-69.5
11
109.6
21
-69.9
0
LINE
8
Black
10
109.6
20
-69.5
11
109.2
21
-69.9
0
LINE
8
Black
10
109.2
20
-72
11
109.6
21
-72.4
0
LINE
8
Black
10
109.6
20
-72
11
109.2
21
-72.4
0
LINE
8
Black
10
109.3
20
-37.5
11
109.7
21
-37.9
0
LINE
8
Black
10
109.7
20
-37.5
11
109.3
21
-37.9
0
LINE
8
Black
10
109.3
20
-52.6
11
109.7
21
-53
0
LINE
8
Black
10
109.7
20
-52.6
11
109.3
21
-53
0
LINE
8
Black
10
109.4
20
-50.5
11
109.8
21
-50.9
0
LINE
8
Black
10
109.8
20
-50.5
11
109.4
21
-50.9
0
LINE
8
Black
10
109.5
20
-66.8
11
109.9
21
-67.2
0
LINE
8
Black
10
109.9
20
-66.8
11
109.5
21
-67.2
0
LINE
8
Black
10
109.9
20
-62.3
11
110.3
21
-62.7
0
LINE
8
Black
10
110.3
20
-62.3
11
109.9
21
-62.7
0
LINE
8
Black
10
110.5
20
-84.2
11
110.9
21
-84.6
0
LINE
8
Black
10
110.9
20
-84.2
11
110.5
21
-84.6
0
LINE
8
Black
10
110.8
20
-74.8
11
111.2
21
-75.2
0
LINE
8
Black
10
111.2
20
-74.8
11
110.8
21
-75.2
0
LINE
8
Black
10
112.4
20
-76.1
11
112.8
21
-76.5
0
LINE
8
Black
10
112.8
20
-76.1
11
112.4
21
-76.5
0
LINE
8
Black
10
112.4
20
-85.2
11
112.8
21
-85.6
0
LINE
8
Black
10
112.8
20
-85.2
11
112.4
21
-85.6
0
LINE
8
Black
10
112.6
20
-61
11
113
21
-61.4
0
LINE
8
Black
10
113
20
-61
11
112.6
21
-61.4
0
LINE
8
Black
10
112.6
20
-73.1
11
113
21
-73.5
0
LINE
8
Black
10
113
20
-73.1
11
112.6
21
-73.5
0
LINE
8
Black
10
113
20
-87.3
11
113.4
21
-87.7
0
LINE
8
Black
10
113.4
20
-87.3
11
113
21
-87.7
0
LINE
8
Black
10
113.4
20
-57
11
113.8
21
-57.4
0
LINE
8
Black
10
113.8
20
-57
11
113.4
21
-57.4
0
LINE
8
Black
10
113.4
20
-59.8
11
113.8
21
-60.2
0
LINE
8
Black
10
113.8
20
-59.8
11
113.4
21
-60.2
0
LINE
8
Black
10
115
20
-77.6
11
115.4
21
-78
0
LINE
8
Black
10
115.4
20
-77.6
11
115
21
-78
0
LINE
8
Black
10
115.3
20
-87.4
11
115.7
21
-87.8
0
LINE
8
Black
10
115.7
20
-87.4
11
115.3
21
-87.8
0
LINE
8
Black
10
115.4
20
-69
11
115.8
21
-69.4
0
LINE
8
Black
10
115.8
20
-69
11
115.4
21
-69.4
0
LINE
8
Black
10
116
20
-71
11
116.4
21
-71.4
0
LINE
8
Black
10
116.4
20
-71
11
116
21
-71.4
0
LINE
8
Black
10
117.7
20
-34.2
11
118.1
21
-34.6
0
LINE
8
Black
10
118.1
20
-34.2
11
117.7
21
-34.6
0
LINE
8
Black
10
117.8
20
-32.6
11
118.2
21
-33
0
LINE
8
Black
10
118.2
20
-32.6
11
117.8
21
-33
0
LINE
8
Black
10
118
20
-59.1
11
118.4
21
-59.5
0
LINE
8
Black
10
118.4
20
-59.1
11
118
21
-59.5
0
LINE
8
Black
10
118.8
20
-77.8
11
119.2
21
-78.2
0
LINE
8
Black
10
119.2
20
-77.8
11
118.8
21
-78.2
0
LINE
8
Black
10
119.5
20
-36.1
11
119.9
21
-36.5
0
LINE
8
Black
10
119.9
20
-36.1
11
119.5
21
-36.5
0
LINE
8
Black
10
120.2
20
-72.1
11
120.6
21
-72.5
0
LINE
8
Black
10
120.6
20
-72.1
11
120.2
21
-72.5
0
LINE
8
Black
10
120.9
20
-87.4
11
121.3
21
-87.8
0
LINE
8
Black
10
121.3
20
-87.4
11
120.9
21
-87.8
0
LINE
8
Black
10
121
20
-47.2
11
121.4
21
-47.6
0
LINE
8
Black
10
121.4
20
-47.2
11
121
21
-47.6
0
LINE
8
Black
10
121.05
20
-61.55
11
121.45
21
-61.95
0
LINE
8
Black
10
121.45
20
-61.55
11
121.05
21
-61.95
0
LINE
8
Black
10
122.6
20
-71.9
11
123
21
-72.3
0
LINE
8
Black
10
123
20
-71.9
11
122.6
21
-72.3
0
LINE
8
Black
10
122.8
20
-67
11
123.2
21
-67.4
0
LINE
8
Black
10
123.2
20
-67
11
122.8
21
-67.4
0
LINE
8
Black
10
123.1
20
-44.9
11
123.5
21
-45.3
0
LINE
8
Black
10
123.5
20
-44.9
11
123.1
21
-45.3
0
LINE
8
Black
10
123.1
20
-47
11
123.5
21
-47.4
0
LINE
8
Black
10
123.5
20
-47
11
123.1
21
-47.4
0
LINE
8
Black
10
123.4
20
-37.7
11
123.8
21
-38.1
0
LINE
8
Black
10
123.8
20
-37.7
11
123.4
21
-38.1
0
LINE
8
Black
10
123.4
20
-50.4
11
123.8
21
-50.8
0
LINE
8
Black
10
123.8
20
-50.4
11
123.4
21
-50.8
0
LINE
8
Black
10
123.5
20
-87.2
11
123.9
21
-87.6
0
LINE
8
Black
10
123.9
20
-87.2
11
123.5
21
-87.6
0
LINE
8
Black
10
123.6
20
-43.8
11
124
21
-44.2
0
LINE
8
Black
10
124
20
-43.8
11
123.6
21
-44.2
0
LINE
8
Black
10
123.6
20
-45.9
11
124
21
-46.3
0
LINE
8
Black
10
124
20
-45.9
11
123.6
21
-46.3
0
LINE
8
Black
10
123.7
20
-55.9
11
124.1
21
-56.3
0
LINE
8
Black
10
124.1
20
-55.9
11
123.7
21
-56.3
0
LINE
8
Black
10
123.8
20
-65.6
11
124.2
21
-66
0
LINE
8
Black
10
124.2
20
-65.6
11
123.8
21
-66
0
LINE
8
Black
10
124.6
20
-42.7
11
125
21
-43.1
0
LINE
8
Black
10
125
20
-42.7
11
124.6
21
-43.1
0
LINE
8
Black
10
125.4
20
-60.2
11
125.8
21
-60.6
0
LINE
8
Black
10
125.8
20
-60.2
11
125.4
21
-60.6
0
LINE
8
Black
10
125.7
20
-48.3
11
126.1
21
-48.7
0
LINE
8
Black
10
126.1
20
-48.3
11
125.7
21
-48.7
0
LINE
8
Black
10
125.7
20
-50.5
11
126.1
21
-50.9
0
LINE
8
Black
10
126.1
20
-50.5
11
125.7
21
-50.9
0
LINE
8
Black
10
126
20
-59.8
11
126.4
21
-60.2
0
LINE
8
Black
10
126.4
20
-59.8
11
126
21
-60.2
0
LINE
8
Black
10
126
20
-81.6
11
126.4
21
-82
0
LINE
8
Black
10
126.4
20
-81.6
11
126
21
-82
0
LINE
8
Black
10
126.1
20
-72.2
11
126.5
21
-72.6
0
LINE
8
Black
10
126.5
20
-72.2
11
126.1
21
-72.6
0
LINE
8
Black
10
126.6
20
-60.2
11
127
21
-60.6
0
LINE
8
Black
10
127
20
-60.2
11
126.6
21
-60.6
0
LINE
8
Black
10
126.6
20
-62.2
11
127
21
-62.6
0
LINE
8
Black
10
127
20
-62.2
11
126.6
21
-62.6
0
LINE
8
Black
10
127.2
20
-59.8
11
127.6
21
-60.2
0
LINE
8
Black
10
127.6
20
-59.8
11
127.2
21
-60.2
0
LINE
8
Black
10
127.8
20
-60.2
11
128.2
21
-60.6
0
LINE
8
Black
10
128.2
20
-60.2
11
127.8
21
-60.6
0
LINE
8
Black
10
128.3
20
-87.9
11
128.7
21
-88.3
0
LINE
8
Black
10
128.7
20
-87.9
11
128.3
21
-88.3
0
LINE
8
Black
10
129.4
20
-86.5
11
129.8
21
-86.9
0
LINE
8
Black
10
129.8
20
-86.5
11
129.4
21
-86.9
0
LINE
8
Black
10
129.5
20
-81.8
11
129.9
21
-82.2
0
LINE
8
Black
10
129.9
20
-81.8
11
129.5
21
-82.2
0
LINE
8
Black
10
130.1
20
-71.9
11
130.5
21
-72.3
0
LINE
8
Black
10
130.5
20
-71.9
11
130.1
21
-72.3
0
LINE
8
Black
10
134.3
20
-72.3
11
134.7
21
-72.7
0
LINE
8
Black
10
134.7
20
-72.3
11
134.3
21
-72.7
0
LINE
8
Black
10
134.7
20
-50.6
11
135.1
21
-51
0
LINE
8
Black
10
135.1
20
-50.6
11
134.7
21
-51
0
LINE
8
Black
10
134.7
20
-55
11
135.1
21
-55.4
0
LINE
8
Black
10
135.1
20
-55
11
134.7
21
-55.4
0
LINE
8
Black
10
134.7
20
-87.4
11
135.1
21
-87.8
0
LINE
8
Black
10
135.1
20
-87.4
11
134.7
21
-87.8
0
LINE
8
Black
10
134.8
20
-63.1
11
135.2
21
-63.5
0
LINE
8
Black
10
135.2
20
-63.1
11
134.8
21
-63.5
0
LINE
8
Black
10
137.4
20
-62.4
11
137.8
21
-62.8
0
LINE
8
Black
10
137.8
20
-62.4
11
137.4
21
-62.8
0
LINE
8
Black
10
140
20
-87.4
11
140.4
21
-87.8
0
LINE
8
Black
10
140.4
20
-87.4
11
140
21
-87.8
0
LINE
8
Black
10
142
20
-88.8
11
142.4
21
-89.2
0
LINE
8
Black
10
142.4
20
-88.8
11
142
21
-89.2
0
LINE
8
Black
10
143.7
20
-86.2
11
144.1
21
-86.6
0
LINE
8
Black
10
144.1
20
-86.2
11
143.7
21
-86.6
0
CIRCLE
8
Black
10
52
20
-45
40
0.3
0
CIRCLE
8
Black
10
52
20
-48
40
0.3
0
CIRCLE
8
Black
10
52
20
-51
40
0.3
0
CIRCLE
8
Black
10
52
20
-54
40
0.3
0
CIRCLE
8
Black
10
52
20
-57
40
0.3
0
CIRCLE
8
Black
10
52
20
-60
40
0.3
0
CIRCLE
8
Black
10
52
20
-63
40
0.3
0
CIRCLE
8
Black
10
52
20
-66
40
0.3
0
CIRCLE
8
Black
10
52
20
-69
40
0.3
0
CIRCLE
8
Black
10
52
20
-72
40
0.3
0
CIRCLE
8
Black
10
52
20
-74.7
40
0.3
0
CIRCLE
8
Black
10
52
20
-81.6
40
0.3
0
CIRCLE
8
Black
10
52
20
-84
40
0.3
0
CIRCLE
8
Black
10
52
20
-87
40
0.3
0
CIRCLE
8
Black
10
52
20
-90
40
0.3
0
CIRCLE
8
Black
10
52
20
-96
40
0.3
0
CIRCLE
8
Black
10
54
20
-98
40
0.3
0
CIRCLE
8
Black
10
57
20
-98
40
0.3
0
CIRCLE
8
Black
10
60
20
-98
40
0.3
0
CIRCLE
8
Black
10
62.35
20
-37.75
40
0.3
0
CIRCLE
8
Black
10
63
20
-98
40
0.3
0
CIRCLE
8
Black
10
66
20
-98
40
0.3
0
CIRCLE
8
Black
10
66.8
20
-35
40
0.3
0
CIRCLE
8
Black
10
69
20
-98
40
0.3
0
CIRCLE
8
Black
10
70
20
-33
40
0.3
0
CIRCLE
8
Black
10
72
20
-98
40
0.3
0
CIRCLE
8
Black
10
73
20
-32
40
0.3
0
CIRCLE
8
Black
10
75
20
-98
40
0.3
0
CIRCLE
8
Black
10
78
20
-98
40
0.3
0
CIRCLE
8
Black
10
81
20
-98
40
0.3
0
CIRCLE
8
Black
10
82
20
-31.5
40
0.3
0
CIRCLE
8
Black
10
85
20
-31.5
40
0.3
0
CIRCLE
8
Black
10
88
20
-31.5
40
0.3
0
CIRCLE
8
Black
10
91
20
-31.5
40
0.3
0
CIRCLE
8
Black
10
94
20
-31.5
40
0.3
0
CIRCLE
8
Black
10
97
20
-31.5
40
0.3
0
CIRCLE
8
Black
10
100
20
-31.5
40
0.3
0
CIRCLE
8
Black
10
103
20
-31.5
40
0.3
0
CIRCLE
8
Black
10
106
20
-31.5
40
0.3
0
CIRCLE
8
Black
10
109
20
-31.5
40
0.3
0
CIRCLE
8
Black
10
117
20
-98
40
0.3
0
CIRCLE
8
Black
10
120
20
-32
40
0.3
0
CIRCLE
8
Black
10
120
20
-98
40
0.3
0
CIRCLE
8
Black
10
122.3
20
-98
40
0.3
0
CIRCLE
8
Black
10
122.7
20
-32
40
0.3
0
CIRCLE
8
Black
10
126
20
-98
40
0.3
0
CIRCLE
8
Black
10
129.6
20
-98.1
40
0.3
0
CIRCLE
8
Black
10
131
20
-34.5
40
0.3
0
CIRCLE
8
Black
10
134
20
-36.5
40
0.3
0
CIRCLE
8
Black
10
134.2
20
-98
40
0.3
0
CIRCLE
8
Black
10
136.2
20
-98
40
0.3
0
CIRCLE
8
Black
10
137
20
-38.5
40
0.3
0
CIRCLE
8
Black
10
138
20
-98
40
0.3
0
CIRCLE
8
Black
10
140
20
-40.5
40
0.3
0
CIRCLE
8
Black
10
141.3
20
-98
40
0.3
0
CIRCLE
8
Black
10
148
20
-47
40
0.3
0
CIRCLE
8
Black
10
148
20
-50
40
0.3
0
CIRCLE
8
Black
10
148
20
-53
40
0.3
0
CIRCLE
8
Black
10
148
20
-56
40
0.3
0
CIRCLE
8
Black
10
148
20
-59
40
0.3
0
CIRCLE
8
Black
10
148
20
-62
40
0.3
0
CIRCLE
8
Black
10
148
20
-65
40
0.3
0
CIRCLE
8
Black
10
148
20
-68
40
0.3
0
CIRCLE
8
Black
10
148
20
-71
40
0.3
0
CIRCLE
8
Black
10
148
20
-74
40
0.3
0
CIRCLE
8
Black
10
148
20
-77
40
0.3
0
CIRCLE
8
Black
10
148
20
-80
40
0.3
0
CIRCLE
8
Black
10
148
20
-83
40
0.3
0
CIRCLE
8
Black
10
148
20
-86
40
0.3
0
CIRCLE
8
Black
10
148
20
-89
40
0.3
0
CIRCLE
8
Black
10
148
20
-92
40
0.3
0
LINE
8
Black
10
110.72
20
-32.6125
11
110.72
21
-33.2475
0
LINE
8
Black
10
110.402
20
-32.93
11
111.037
21
-32.93
0
LINE
8
Black
10
110.72
20
-33.8825
11
110.72
21
-34.5175
0
LINE
8
Black
10
110.402
20
-34.2
11
111.037
21
-34.2
0
LINE
8
Black
10
111.99
20
-32.6125
11
111.99
21
-33.2475
0
LINE
8
Black
10
111.672
20
-32.93
11
112.307
21
-32.93
0
LINE
8
Black
10
111.99
20
-33.8825
11
111.99
21
-34.5175
0
LINE
8
Black
10
111.672
20
-34.2
11
112.307
21
-34.2
0
LINE
8
Black
10
113.26
20
-32.6125
11
113.26
21
-33.2475
0
LINE
8
Black
10
112.942
20
-32.93
11
113.578
21
-32.93
0
LINE
8
Black
10
113.26
20
-33.8825
11
113.26
21
-34.5175
0
LINE
8
Black
10
112.942
20
-34.2
11
113.578
21
-34.2
0
LINE
8
Black
10
114.53
20
-32.6125
11
114.53
21
-33.2475
0
LINE
8
Black
10
114.212
20
-32.93
11
114.847
21
-32.93
0
LINE
8
Black
10
114.53
20
-33.8825
11
114.53
21
-34.5175
0
LINE
8
Black
10
114.212
20
-34.2
11
114.847
21
-34.2
0
LINE
8
Black
10
115.8
20
-32.6125
11
115.8
21
-33.2475
0
LINE
8
Black
10
115.483
20
-32.93
11
116.117
21
-32.93
0
LINE
8
Black
10
115.8
20
-33.8825
11
115.8
21
-34.5175
0
LINE
8
Black
10
115.483
20
-34.2
11
116.117
21
-34.2
0
LINE
8
Black
10
53.2475
20
-91.9975
11
53.2475
21
-91.5025
0
LINE
8
Black
10
53.2475
20
-91.5025
11
52.7525
21
-91.5025
0
LINE
8
Black
10
52.7525
20
-91.5025
11
52.7525
21
-91.9975
0
LINE
8
Black
10
52.7525
20
-91.9975
11
53.2475
21
-91.9975
0
LINE
8
Black
10
55.2475
20
-91.9975
11
55.2475
21
-91.5025
0
LINE
8
Black
10
55.2475
20
-91.5025
11
54.7525
21
-91.5025
0
LINE
8
Black
10
54.7525
20
-91.5025
11
54.7525
21
-91.9975
0
LINE
8
Black
10
54.7525
20
-91.9975
11
55.2475
21
-91.9975
0
LINE
8
Black
10
57.2475
20
-91.9975
11
57.2475
21
-91.5025
0
LINE
8
Black
10
57.2475
20
-91.5025
11
56.7525
21
-91.5025
0
LINE
8
Black
10
56.7525
20
-91.5025
11
56.7525
21
-91.9975
0
LINE
8
Black
10
56.7525
20
-91.9975
11
57.2475
21
-91.9975
0
LINE
8
Black
10
58.4475
20
-49.2475
11
58.4475
21
-48.7525
0
LINE
8
Black
10
58.4475
20
-48.7525
11
57.9525
21
-48.7525
0
LINE
8
Black
10
57.9525
20
-48.7525
11
57.9525
21
-49.2475
0
LINE
8
Black
10
57.9525
20
-49.2475
11
58.4475
21
-49.2475
0
LINE
8
Black
10
58.4475
20
-51.2475
11
58.4475
21
-50.7525
0
LINE
8
Black
10
58.4475
20
-50.7525
11
57.9525
21
-50.7525
0
LINE
8
Black
10
57.9525
20
-50.7525
11
57.9525
21
-51.2475
0
LINE
8
Black
10
57.9525
20
-51.2475
11
58.4475
21
-51.2475
0
LINE
8
Black
10
58.4475
20
-57.2475
11
58.4475
21
-56.7525
0
LINE
8
Black
10
58.4475
20
-56.7525
11
57.9525
21
-56.7525
0
LINE
8
Black
10
57.9525
20
-56.7525
11
57.9525
21
-57.2475
0
LINE
8
Black
10
57.9525
20
-57.2475
11
58.4475
21
-57.2475
0
LINE
8
Black
10
58.4475
20
-59.2475
11
58.4475
21
-58.7525
0
LINE
8
Black
10
58.4475
20
-58.7525
11
57.9525
21
-58.7525
0
LINE
8
Black
10
57.9525
20
-58.7525
11
57.9525
21
-59.2475
0
LINE
8
Black
10
57.9525
20
-59.2475
11
58.4475
21
-59.2475
0
LINE
8
Black
10
58.4475
20
-65.2475
11
58.4475
21
-64.7525
0
LINE
8
Black
10
58.4475
20
-64.7525
11
57.9525
21
-64.7525
0
LINE
8
Black
10
57.9525
20
-64.7525
11
57.9525
21
-65.2475
0
LINE
8
Black
10
57.9525
20
-65.2475
11
58.4475
21
-65.2475
0
LINE
8
Black
10
58.4475
20
-67.2475
11
58.4475
21
-66.7525
0
LINE
8
Black
10
58.4475
20
-66.7525
11
57.9525
21
-66.7525
0
LINE
8
Black
10
57.9525
20
-66.7525
11
57.9525
21
-67.2475
0
LINE
8
Black
10
57.9525
20
-67.2475
11
58.4475
21
-67.2475
0
LINE
8
Black
10
59.2475
20
-91.9975
11
59.2475
21
-91.5025
0
LINE
8
Black
10
59.2475
20
-91.5025
11
58.7525
21
-91.5025
0
LINE
8
Black
10
58.7525
20
-91.5025
11
58.7525
21
-91.9975
0
LINE
8
Black
10
58.7525
20
-91.9975
11
59.2475
21
-91.9975
0
LINE
8
Black
10
64.2475
20
-91.9975
11
64.2475
21
-91.5025
0
LINE
8
Black
10
64.2475
20
-91.5025
11
63.7525
21
-91.5025
0
LINE
8
Black
10
63.7525
20
-91.5025
11
63.7525
21
-91.9975
0
LINE
8
Black
10
63.7525
20
-91.9975
11
64.2475
21
-91.9975
0
LINE
8
Black
10
66.2475
20
-91.9975
11
66.2475
21
-91.5025
0
LINE
8
Black
10
66.2475
20
-91.5025
11
65.7525
21
-91.5025
0
LINE
8
Black
10
65.7525
20
-91.5025
11
65.7525
21
-91.9975
0
LINE
8
Black
10
65.7525
20
-91.9975
11
66.2475
21
-91.9975
0
LINE
8
Black
10
68.2475
20
-91.9975
11
68.2475
21
-91.5025
0
LINE
8
Black
10
68.2475
20
-91.5025
11
67.7525
21
-91.5025
0
LINE
8
Black
10
67.7525
20
-91.5025
11
67.7525
21
-91.9975
0
LINE
8
Black
10
67.7525
20
-91.9975
11
68.2475
21
-91.9975
0
LINE
8
Black
10
70.2475
20
-91.9975
11
70.2475
21
-91.5025
0
LINE
8
Black
10
70.2475
20
-91.5025
11
69.7525
21
-91.5025
0
LINE
8
Black
10
69.7525
20
-91.5025
11
69.7525
21
-91.9975
0
LINE
8
Black
10
69.7525
20
-91.9975
11
70.2475
21
-91.9975
0
LINE
8
Black
10
75.2475
20
-91.9975
11
75.2475
21
-91.5025
0
LINE
8
Black
10
75.2475
20
-91.5025
11
74.7525
21
-91.5025
0
LINE
8
Black
10
74.7525
20
-91.5025
11
74.7525
21
-91.9975
0
LINE
8
Black
10
74.7525
20
-91.9975
11
75.2475
21
-91.9975
0
LINE
8
Black
10
77.2475
20
-91.9975
11
77.2475
21
-91.5025
0
LINE
8
Black
10
77.2475
20
-91.5025
11
76.7525
21
-91.5025
0
LINE
8
Black
10
76.7525
20
-91.5025
11
76.7525
21
-91.9975
0
LINE
8
Black
10
76.7525
20
-91.9975
11
77.2475
21
-91.9975
0
LINE
8
Black
10
79.2475
20
-91.9975
11
79.2475
21
-91.5025
0
LINE
8
Black
10
79.2475
20
-91.5025
11
78.7525
21
-91.5025
0
LINE
8
Black
10
78.7525
20
-91.5025
11
78.7525
21
-91.9975
0
LINE
8
Black
10
78.7525
20
-91.9975
11
79.2475
21
-91.9975
0
LINE
8
Black
10
81.2475
20
-91.9975
11
81.2475
21
-91.5025
0
LINE
8
Black
10
81.2475
20
-91.5025
11
80.7525
21
-91.5025
0
LINE
8
Black
10
80.7525
20
-91.5025
11
80.7525
21
-91.9975
0
LINE
8
Black
10
80.7525
20
-91.9975
11
81.2475
21
-91.9975
0
LINE
8
Black
10
83.2475
20
-38.4975
11
83.2475
21
-38.0025
0
LINE
8
Black
10
83.2475
20
-38.0025
11
82.7525
21
-38.0025
0
LINE
8
Black
10
82.7525
20
-38.0025
11
82.7525
21
-38.4975
0
LINE
8
Black
10
82.7525
20
-38.4975
11
83.2475
21
-38.4975
0
LINE
8
Black
10
85.2475
20
-38.4975
11
85.2475
21
-38.0025
0
LINE
8
Black
10
85.2475
20
-38.0025
11
84.7525
21
-38.0025
0
LINE
8
Black
10
84.7525
20
-38.0025
11
84.7525
21
-38.4975
0
LINE
8
Black
10
84.7525
20
-38.4975
11
85.2475
21
-38.4975
0
LINE
8
Black
10
87.2475
20
-38.4975
11
87.2475
21
-38.0025
0
LINE
8
Black
10
87.2475
20
-38.0025
11
86.7525
21
-38.0025
0
LINE
8
Black
10
86.7525
20
-38.0025
11
86.7525
21
-38.4975
0
LINE
8
Black
10
86.7525
20
-38.4975
11
87.2475
21
-38.4975
0
LINE
8
Black
10
89.2475
20
-38.4975
11
89.2475
21
-38.0025
0
LINE
8
Black
10
89.2475
20
-38.0025
11
88.7525
21
-38.0025
0
LINE
8
Black
10
88.7525
20
-38.0025
11
88.7525
21
-38.4975
0
LINE
8
Black
10
88.7525
20
-38.4975
11
89.2475
21
-38.4975
0
LINE
8
Black
10
95.2475
20
-38.4975
11
95.2475
21
-38.0025
0
LINE
8
Black
10
95.2475
20
-38.0025
11
94.7525
21
-38.0025
0
LINE
8
Black
10
94.7525
20
-38.0025
11
94.7525
21
-38.4975
0
LINE
8
Black
10
94.7525
20
-38.4975
11
95.2475
21
-38.4975
0
LINE
8
Black
10
97.2475
20
-38.4975
11
97.2475
21
-38.0025
0
LINE
8
Black
10
97.2475
20
-38.0025
11
96.7525
21
-38.0025
0
LINE
8
Black
10
96.7525
20
-38.0025
11
96.7525
21
-38.4975
0
LINE
8
Black
10
96.7525
20
-38.4975
11
97.2475
21
-38.4975
0
LINE
8
Black
10
99.2475
20
-38.4975
11
99.2475
21
-38.0025
0
LINE
8
Black
10
99.2475
20
-38.0025
11
98.7525
21
-38.0025
0
LINE
8
Black
10
98.7525
20
-38.0025
11
98.7525
21
-38.4975
0
LINE
8
Black
10
98.7525
20
-38.4975
11
99.2475
21
-38.4975
0
LINE
8
Black
10
101.247
20
-38.4975
11
101.247
21
-38.0025
0
LINE
8
Black
10
101.247
20
-38.0025
11
100.753
21
-38.0025
0
LINE
8
Black
10
100.753
20
-38.0025
11
100.753
21
-38.4975
0
LINE
8
Black
10
100.753
20
-38.4975
11
101.247
21
-38.4975
0
LINE
8
Black
10
119.247
20
-92.0475
11
119.247
21
-91.5525
0
LINE
8
Black
10
119.247
20
-91.5525
11
118.753
21
-91.5525
0
LINE
8
Black
10
118.753
20
-91.5525
11
118.753
21
-92.0475
0
LINE
8
Black
10
118.753
20
-92.0475
11
119.247
21
-92.0475
0
LINE
8
Black
10
121.247
20
-92.0475
11
121.247
21
-91.5525
0
LINE
8
Black
10
121.247
20
-91.5525
11
120.753
21
-91.5525
0
LINE
8
Black
10
120.753
20
-91.5525
11
120.753
21
-92.0475
0
LINE
8
Black
10
120.753
20
-92.0475
11
121.247
21
-92.0475
0
LINE
8
Black
10
127.247
20
-92.0475
11
127.247
21
-91.5525
0
LINE
8
Black
10
127.247
20
-91.5525
11
126.753
21
-91.5525
0
LINE
8
Black
10
126.753
20
-91.5525
11
126.753
21
-92.0475
0
LINE
8
Black
10
126.753
20
-92.0475
11
127.247
21
-92.0475
0
LINE
8
Black
10
129.247
20
-92.0475
11
129.247
21
-91.5525
0
LINE
8
Black
10
129.247
20
-91.5525
11
128.753
21
-91.5525
0
LINE
8
Black
10
128.753
20
-91.5525
11
128.753
21
-92.0475
0
LINE
8
Black
10
128.753
20
-92.0475
11
129.247
21
-92.0475
0
LINE
8
Black
10
135.247
20
-92.0475
11
135.247
21
-91.5525
0
LINE
8
Black
10
135.247
20
-91.5525
11
134.753
21
-91.5525
0
LINE
8
Black
10
134.753
20
-91.5525
11
134.753
21
-92.0475
0
LINE
8
Black
10
134.753
20
-92.0475
11
135.247
21
-92.0475
0
LINE
8
Black
10
137.247
20
-92.0475
11
137.247
21
-91.5525
0
LINE
8
Black
10
137.247
20
-91.5525
11
136.753
21
-91.5525
0
LINE
8
Black
10
136.753
20
-91.5525
11
136.753
21
-92.0475
0
LINE
8
Black
10
136.753
20
-92.0475
11
137.247
21
-92.0475
0
LINE
8
Black
10
141.997
20
-52.2475
11
141.997
21
-51.7525
0
LINE
8
Black
10
141.997
20
-51.7525
11
141.503
21
-51.7525
0
LINE
8
Black
10
141.503
20
-51.7525
11
141.503
21
-52.2475
0
LINE
8
Black
10
141.503
20
-52.2475
11
141.997
21
-52.2475
0
LINE
8
Black
10
141.997
20
-54.2475
11
141.997
21
-53.7525
0
LINE
8
Black
10
141.997
20
-53.7525
11
141.503
21
-53.7525
0
LINE
8
Black
10
141.503
20
-53.7525
11
141.503
21
-54.2475
0
LINE
8
Black
10
141.503
20
-54.2475
11
141.997
21
-54.2475
0
LINE
8
Black
10
142.047
20
-60.2475
11
142.047
21
-59.7525
0
LINE
8
Black
10
142.047
20
-59.7525
11
141.553
21
-59.7525
0
LINE
8
Black
10
141.553
20
-59.7525
11
141.553
21
-60.2475
0
LINE
8
Black
10
141.553
20
-60.2475
11
142.047
21
-60.2475
0
LINE
8
Black
10
142.047
20
-62.2475
11
142.047
21
-61.7525
0
LINE
8
Black
10
142.047
20
-61.7525
11
141.553
21
-61.7525
0
LINE
8
Black
10
141.553
20
-61.7525
11
141.553
21
-62.2475
0
LINE
8
Black
10
141.553
20
-62.2475
11
142.047
21
-62.2475
0
LINE
8
Black
10
142.047
20
-68.2475
11
142.047
21
-67.7525
0
LINE
8
Black
10
142.047
20
-67.7525
11
141.553
21
-67.7525
0
LINE
8
Black
10
141.553
20
-67.7525
11
141.553
21
-68.2475
0
LINE
8
Black
10
141.553
20
-68.2475
11
142.047
21
-68.2475
0
LINE
8
Black
10
142.047
20
-70.2475
11
142.047
21
-69.7525
0
LINE
8
Black
10
142.047
20
-69.7525
11
141.553
21
-69.7525
0
LINE
8
Black
10
141.553
20
-69.7525
11
141.553
21
-70.2475
0
LINE
8
Black
10
141.553
20
-70.2475
11
142.047
21
-70.2475
0
LINE
8
Black
10
142.047
20
-76.2475
11
142.047
21
-75.7525
0
LINE
8
Black
10
142.047
20
-75.7525
11
141.553
21
-75.7525
0
LINE
8
Black
10
141.553
20
-75.7525
11
141.553
21
-76.2475
0
LINE
8
Black
10
141.553
20
-76.2475
11
142.047
21
-76.2475
0
LINE
8
Black
10
142.047
20
-78.2475
11
142.047
21
-77.7525
0
LINE
8
Black
10
142.047
20
-77.7525
11
141.553
21
-77.7525
0
LINE
8
Black
10
141.553
20
-77.7525
11
141.553
21
-78.2475
0
LINE
8
Black
10
141.553
20
-78.2475
11
142.047
21
-78.2475
0
LINE
8
Black
10
92.7
20
-80.6
11
93.1
21
-80.2
0
LINE
8
Black
10
93.1
20
-80.2
11
92.7
21
-79.8
0
LINE
8
Black
10
92.7
20
-79.8
11
92.3
21
-80.2
0
LINE
8
Black
10
92.3
20
-80.2
11
92.7
21
-80.6
0
LINE
8
Black
10
112.5
20
-82.5
11
112.9
21
-82.1
0
LINE
8
Black
10
112.9
20
-82.1
11
112.5
21
-81.7
0
LINE
8
Black
10
112.5
20
-81.7
11
112.1
21
-82.1
0
LINE
8
Black
10
112.1
20
-82.1
11
112.5
21
-82.5
  0
TEXT
  7
KICAD
  8
Black
  10
51.9
  11
51.9
  20
-103.4
  21
-103.4
  40
3
  41
1
  50
0
  51
0
  71
0
  72
0
  73
2
  1
Drill Map:
0
LINE
8
Black
10
49.5
20
-109.5
11
49.9
21
-109.9
0
LINE
8
Black
10
49.9
20
-109.5
11
49.5
21
-109.9
  0
TEXT
  7
KICAD
  8
Black
  10
51.9
  11
51.9
  20
-109.7
  21
-109.7
  40
3
  41
1
  50
0
  51
0
  71
0
  72
0
  73
2
  1
0.40mm / 0.016" (234 holes)
0
CIRCLE
8
Black
10
49.6
20
-113.66
40
0.3
  0
TEXT
  7
KICAD
  8
Black
  10
51.9
  11
51.9
  20
-113.66
  21
-113.66
  40
3
  41
1
  50
0
  51
0
  71
0
  72
0
  73
2
  1
0.60mm / 0.024" (71 holes)
0
LINE
8
Black
10
49.5825
20
-117.303
11
49.5825
21
-117.938
0
LINE
8
Black
10
49.265
20
-117.62
11
49.9
21
-117.62
  0
TEXT
  7
KICAD
  8
Black
  10
51.9
  11
51.9
  20
-117.62
  21
-117.62
  40
3
  41
1
  50
0
  51
0
  71
0
  72
0
  73
2
  1
0.64mm / 0.025" (10 holes)
0
LINE
8
Black
10
49.7975
20
-121.827
11
49.7975
21
-121.333
0
LINE
8
Black
10
49.7975
20
-121.333
11
49.3025
21
-121.333
0
LINE
8
Black
10
49.3025
20
-121.333
11
49.3025
21
-121.827
0
LINE
8
Black
10
49.3025
20
-121.827
11
49.7975
21
-121.827
  0
TEXT
  7
KICAD
  8
Black
  10
51.9
  11
51.9
  20
-121.58
  21
-121.58
  40
3
  41
1
  50
0
  51
0
  71
0
  72
0
  73
2
  1
0.70mm / 0.028" (40 holes)
0
LINE
8
Black
10
49.5
20
-125.94
11
49.9
21
-125.54
0
LINE
8
Black
10
49.9
20
-125.54
11
49.5
21
-125.14
0
LINE
8
Black
10
49.5
20
-125.14
11
49.1
21
-125.54
0
LINE
8
Black
10
49.1
20
-125.54
11
49.5
21
-125.94
  0
TEXT
  7
KICAD
  8
Black
  10
51.9
  11
51.9
  20
-125.54
  21
-125.54
  40
3
  41
1
  50
0
  51
0
  71
0
  72
0
  73
2
  1
0.80mm / 0.031" (2 holes)
  0
ENDSEC
  0
EOF
