M48
;DRILL file {kicad (2014-jul-16 BZR unknown)-product} date Tue 09 Sep 2014 11:04:50 BST
;FORMAT={-:-/ absolute / metric / decimal}
FMAT,2
METRIC,TZ
T1C0.600
T2C1.100
T3C3.300
%
G90
G05
M71
T1
X1.7Y-48.2
X2.4Y-46.4
X2.4Y-50.
X4.2Y-45.7
X4.2Y-50.7
X5.3Y-12.8
X6.Y-11.
X6.Y-14.6
X6.Y-46.4
X6.Y-50.
X6.7Y-48.2
X7.8Y-10.3
X7.8Y-15.3
X9.6Y-11.
X9.6Y-14.6
X10.3Y-12.8
X24.1Y-4.4
X24.8Y-2.6
X24.8Y-6.2
X26.6Y-1.9
X26.6Y-6.9
X28.4Y-2.6
X28.4Y-6.2
X29.1Y-4.4
X73.7Y-4.2
X74.4Y-2.4
X74.4Y-6.
X76.2Y-1.7
X76.2Y-6.7
X78.Y-2.4
X78.Y-6.
X78.7Y-4.2
X91.9Y-15.2
X92.6Y-13.4
X92.6Y-17.
X92.9Y-65.4
X93.6Y-63.6
X93.6Y-67.2
X94.4Y-12.7
X94.4Y-17.7
X95.4Y-62.9
X95.4Y-67.9
X96.2Y-13.4
X96.2Y-17.
X96.9Y-15.2
X97.2Y-63.6
X97.2Y-67.2
X97.9Y-65.4
T2
X1.5Y-63.85
X6.1Y-17.5
X6.1Y-22.5
X6.1Y-25.5
X6.1Y-30.5
X6.1Y-33.5
X6.1Y-38.5
X10.5Y-63.85
X12.5Y-63.85
X21.5Y-63.85
X23.5Y-63.85
X31.5Y-6.15
X32.5Y-63.85
X40.5Y-6.15
X43.5Y-6.15
X52.5Y-6.15
X67.5Y-63.9
X72.5Y-63.9
X75.5Y-63.9
X80.5Y-63.9
X83.5Y-63.9
X88.5Y-63.9
X93.85Y-20.5
X93.85Y-25.5
X93.9Y-28.5
X93.9Y-33.5
X93.9Y-36.5
X93.9Y-41.5
X93.9Y-44.5
X93.9Y-49.5
T3
X4.2Y-48.2
X7.8Y-12.8
X26.6Y-4.4
X76.2Y-4.2
X94.4Y-15.2
X95.4Y-65.4
T0
M30
