  0
SECTION
  2
HEADER
  9
$ANGBASE
  50
0.0
  9
$ANGDIR
  70
  1
  9
$MEASUREMENT
  70
0
  0
ENDSEC
  0
SECTION
  2
TABLES
  0
TABLE
  2
LTYPE
  70
1
  0
LTYPE
  2
CONTINUOUS
  70
0
  3
Solid line
  72
65
  73
0
  40
0.0
  0
ENDTAB
  0
TABLE
  2
STYLE
  70
4
  0
STYLE
  2
KICAD
  70
0
  40
0
  41
1
  42
1
  50
0
  71
0
  3
isocp.shx
  0
STYLE
  2
KICADB
  70
0
  40
0
  41
1
  42
1
  50
0
  71
0
  3
isocp.shx
  0
STYLE
  2
KICADI
  70
0
  40
0
  41
1
  42
1
  50
15
  71
0
  3
isocp.shx
  0
STYLE
  2
KICADBI
  70
0
  40
0
  41
1
  42
1
  50
15
  71
0
  3
isocp.shx
  0
ENDTAB
  0
TABLE
  2
LAYER
  70
30
  0
LAYER
  2
BLACK
  70
0
  62
7
  6
CONTINUOUS
  0
LAYER
  2
GRAY1
  70
0
  62
251
  6
CONTINUOUS
  0
LAYER
  2
GRAY2
  70
0
  62
8
  6
CONTINUOUS
  0
LAYER
  2
GRAY3
  70
0
  62
9
  6
CONTINUOUS
  0
LAYER
  2
WHITE
  70
0
  62
7
  6
CONTINUOUS
  0
LAYER
  2
LYELLOW
  70
0
  62
51
  6
CONTINUOUS
  0
LAYER
  2
BLUE1
  70
0
  62
178
  6
CONTINUOUS
  0
LAYER
  2
GREEN1
  70
0
  62
98
  6
CONTINUOUS
  0
LAYER
  2
CYAN1
  70
0
  62
138
  6
CONTINUOUS
  0
LAYER
  2
RED1
  70
0
  62
18
  6
CONTINUOUS
  0
LAYER
  2
MAGENTA1
  70
0
  62
228
  6
CONTINUOUS
  0
LAYER
  2
BROWN1
  70
0
  62
58
  6
CONTINUOUS
  0
LAYER
  2
BLUE2
  70
0
  62
5
  6
CONTINUOUS
  0
LAYER
  2
GREEN2
  70
0
  62
3
  6
CONTINUOUS
  0
LAYER
  2
CYAN2
  70
0
  62
4
  6
CONTINUOUS
  0
LAYER
  2
RED2
  70
0
  62
1
  6
CONTINUOUS
  0
LAYER
  2
MAGENTA2
  70
0
  62
6
  6
CONTINUOUS
  0
LAYER
  2
BROWN2
  70
0
  62
54
  6
CONTINUOUS
  0
LAYER
  2
BLUE3
  70
0
  62
171
  6
CONTINUOUS
  0
LAYER
  2
GREEN3
  70
0
  62
91
  6
CONTINUOUS
  0
LAYER
  2
CYAN3
  70
0
  62
131
  6
CONTINUOUS
  0
LAYER
  2
RED3
  70
0
  62
11
  6
CONTINUOUS
  0
LAYER
  2
MAGENTA3
  70
0
  62
221
  6
CONTINUOUS
  0
LAYER
  2
YELLOW3
  70
0
  62
2
  6
CONTINUOUS
  0
LAYER
  2
BLUE4
  70
0
  62
5
  6
CONTINUOUS
  0
LAYER
  2
GREEN4
  70
0
  62
3
  6
CONTINUOUS
  0
LAYER
  2
CYAN4
  70
0
  62
4
  6
CONTINUOUS
  0
LAYER
  2
RED4
  70
0
  62
1
  6
CONTINUOUS
  0
LAYER
  2
MAGENTA4
  70
0
  62
6
  6
CONTINUOUS
  0
LAYER
  2
YELLOW4
  70
0
  62
2
  6
CONTINUOUS
  0
ENDTAB
  0
ENDSEC
  0
SECTION
  2
ENTITIES
0
LINE
8
Black
10
50.1
20
-100
11
50.1
21
-44
0
LINE
8
Black
10
49.9
20
-100
11
49.9
21
-44
0
ARC
8
Black
10
50
20
-44
40
0.1
50
360
51
540
0
ARC
8
Black
10
50
20
-100
40
0.1
50
180
51
360
0
LINE
8
Black
10
73
20
-30.1
11
127
21
-30.1
0
LINE
8
Black
10
73
20
-29.9
11
127
21
-29.9
0
ARC
8
Black
10
127
20
-30
40
0.1
50
270
51
450
0
ARC
8
Black
10
73
20
-30
40
0.1
50
90
51
270
0
LINE
8
Black
10
150.1
20
-100
11
150.1
21
-44
0
LINE
8
Black
10
149.9
20
-100
11
149.9
21
-44
0
ARC
8
Black
10
150
20
-44
40
0.1
50
360
51
540
0
ARC
8
Black
10
150
20
-100
40
0.1
50
180
51
360
0
ARC
8
Black
10
100
20
-100
40
75.0733
50
111.092
51
131.76
0
ARC
8
Black
10
100
20
-100
40
75.0267
50
48.2397
51
68.9077
0
LINE
8
Black
10
50
20
-100.1
11
84
21
-100.1
0
LINE
8
Black
10
50
20
-99.9
11
84
21
-99.9
0
ARC
8
Black
10
84
20
-100
40
0.1
50
270
51
450
0
ARC
8
Black
10
50
20
-100
40
0.1
50
90
51
270
0
LINE
8
Black
10
116
20
-100.1
11
150
21
-100.1
0
LINE
8
Black
10
116
20
-99.9
11
150
21
-99.9
0
ARC
8
Black
10
150
20
-100
40
0.1
50
270
51
450
0
ARC
8
Black
10
116
20
-100
40
0.1
50
90
51
270
0
ARC
8
Black
10
100
20
-100
40
16
50
-0
51
180
0
LINE
8
Black
10
51.4
20
-77.9
11
52
21
-78.5
0
LINE
8
Black
10
52
20
-77.9
11
51.4
21
-78.5
0
LINE
8
Black
10
52.1
20
-76.1
11
52.7
21
-76.7
0
LINE
8
Black
10
52.7
20
-76.1
11
52.1
21
-76.7
0
LINE
8
Black
10
52.1
20
-79.7
11
52.7
21
-80.3
0
LINE
8
Black
10
52.7
20
-79.7
11
52.1
21
-80.3
0
LINE
8
Black
10
53.9
20
-75.4
11
54.5
21
-76
0
LINE
8
Black
10
54.5
20
-75.4
11
53.9
21
-76
0
LINE
8
Black
10
53.9
20
-80.4
11
54.5
21
-81
0
LINE
8
Black
10
54.5
20
-80.4
11
53.9
21
-81
0
LINE
8
Black
10
55
20
-42.5
11
55.6
21
-43.1
0
LINE
8
Black
10
55.6
20
-42.5
11
55
21
-43.1
0
LINE
8
Black
10
55.7
20
-40.7
11
56.3
21
-41.3
0
LINE
8
Black
10
56.3
20
-40.7
11
55.7
21
-41.3
0
LINE
8
Black
10
55.7
20
-44.3
11
56.3
21
-44.9
0
LINE
8
Black
10
56.3
20
-44.3
11
55.7
21
-44.9
0
LINE
8
Black
10
55.7
20
-76.1
11
56.3
21
-76.7
0
LINE
8
Black
10
56.3
20
-76.1
11
55.7
21
-76.7
0
LINE
8
Black
10
55.7
20
-79.7
11
56.3
21
-80.3
0
LINE
8
Black
10
56.3
20
-79.7
11
55.7
21
-80.3
0
LINE
8
Black
10
56.4
20
-77.9
11
57
21
-78.5
0
LINE
8
Black
10
57
20
-77.9
11
56.4
21
-78.5
0
LINE
8
Black
10
57.5
20
-40
11
58.1
21
-40.6
0
LINE
8
Black
10
58.1
20
-40
11
57.5
21
-40.6
0
LINE
8
Black
10
57.5
20
-45
11
58.1
21
-45.6
0
LINE
8
Black
10
58.1
20
-45
11
57.5
21
-45.6
0
LINE
8
Black
10
59.3
20
-40.7
11
59.9
21
-41.3
0
LINE
8
Black
10
59.9
20
-40.7
11
59.3
21
-41.3
0
LINE
8
Black
10
59.3
20
-44.3
11
59.9
21
-44.9
0
LINE
8
Black
10
59.9
20
-44.3
11
59.3
21
-44.9
0
LINE
8
Black
10
60
20
-42.5
11
60.6
21
-43.1
0
LINE
8
Black
10
60.6
20
-42.5
11
60
21
-43.1
0
LINE
8
Black
10
73.8
20
-34.1
11
74.4
21
-34.7
0
LINE
8
Black
10
74.4
20
-34.1
11
73.8
21
-34.7
0
LINE
8
Black
10
74.5
20
-32.3
11
75.1
21
-32.9
0
LINE
8
Black
10
75.1
20
-32.3
11
74.5
21
-32.9
0
LINE
8
Black
10
74.5
20
-35.9
11
75.1
21
-36.5
0
LINE
8
Black
10
75.1
20
-35.9
11
74.5
21
-36.5
0
LINE
8
Black
10
76.3
20
-31.6
11
76.9
21
-32.2
0
LINE
8
Black
10
76.9
20
-31.6
11
76.3
21
-32.2
0
LINE
8
Black
10
76.3
20
-36.6
11
76.9
21
-37.2
0
LINE
8
Black
10
76.9
20
-36.6
11
76.3
21
-37.2
0
LINE
8
Black
10
78.1
20
-32.3
11
78.7
21
-32.9
0
LINE
8
Black
10
78.7
20
-32.3
11
78.1
21
-32.9
0
LINE
8
Black
10
78.1
20
-35.9
11
78.7
21
-36.5
0
LINE
8
Black
10
78.7
20
-35.9
11
78.1
21
-36.5
0
LINE
8
Black
10
78.8
20
-34.1
11
79.4
21
-34.7
0
LINE
8
Black
10
79.4
20
-34.1
11
78.8
21
-34.7
0
LINE
8
Black
10
123.4
20
-33.9
11
124
21
-34.5
0
LINE
8
Black
10
124
20
-33.9
11
123.4
21
-34.5
0
LINE
8
Black
10
124.1
20
-32.1
11
124.7
21
-32.7
0
LINE
8
Black
10
124.7
20
-32.1
11
124.1
21
-32.7
0
LINE
8
Black
10
124.1
20
-35.7
11
124.7
21
-36.3
0
LINE
8
Black
10
124.7
20
-35.7
11
124.1
21
-36.3
0
LINE
8
Black
10
125.9
20
-31.4
11
126.5
21
-32
0
LINE
8
Black
10
126.5
20
-31.4
11
125.9
21
-32
0
LINE
8
Black
10
125.9
20
-36.4
11
126.5
21
-37
0
LINE
8
Black
10
126.5
20
-36.4
11
125.9
21
-37
0
LINE
8
Black
10
127.7
20
-32.1
11
128.3
21
-32.7
0
LINE
8
Black
10
128.3
20
-32.1
11
127.7
21
-32.7
0
LINE
8
Black
10
127.7
20
-35.7
11
128.3
21
-36.3
0
LINE
8
Black
10
128.3
20
-35.7
11
127.7
21
-36.3
0
LINE
8
Black
10
128.4
20
-33.9
11
129
21
-34.5
0
LINE
8
Black
10
129
20
-33.9
11
128.4
21
-34.5
0
LINE
8
Black
10
141.6
20
-44.9
11
142.2
21
-45.5
0
LINE
8
Black
10
142.2
20
-44.9
11
141.6
21
-45.5
0
LINE
8
Black
10
142.3
20
-43.1
11
142.9
21
-43.7
0
LINE
8
Black
10
142.9
20
-43.1
11
142.3
21
-43.7
0
LINE
8
Black
10
142.3
20
-46.7
11
142.9
21
-47.3
0
LINE
8
Black
10
142.9
20
-46.7
11
142.3
21
-47.3
0
LINE
8
Black
10
142.6
20
-95.1
11
143.2
21
-95.7
0
LINE
8
Black
10
143.2
20
-95.1
11
142.6
21
-95.7
0
LINE
8
Black
10
143.3
20
-93.3
11
143.9
21
-93.9
0
LINE
8
Black
10
143.9
20
-93.3
11
143.3
21
-93.9
0
LINE
8
Black
10
143.3
20
-96.9
11
143.9
21
-97.5
0
LINE
8
Black
10
143.9
20
-96.9
11
143.3
21
-97.5
0
LINE
8
Black
10
144.1
20
-42.4
11
144.7
21
-43
0
LINE
8
Black
10
144.7
20
-42.4
11
144.1
21
-43
0
LINE
8
Black
10
144.1
20
-47.4
11
144.7
21
-48
0
LINE
8
Black
10
144.7
20
-47.4
11
144.1
21
-48
0
LINE
8
Black
10
145.1
20
-92.6
11
145.7
21
-93.2
0
LINE
8
Black
10
145.7
20
-92.6
11
145.1
21
-93.2
0
LINE
8
Black
10
145.1
20
-97.6
11
145.7
21
-98.2
0
LINE
8
Black
10
145.7
20
-97.6
11
145.1
21
-98.2
0
LINE
8
Black
10
145.9
20
-43.1
11
146.5
21
-43.7
0
LINE
8
Black
10
146.5
20
-43.1
11
145.9
21
-43.7
0
LINE
8
Black
10
145.9
20
-46.7
11
146.5
21
-47.3
0
LINE
8
Black
10
146.5
20
-46.7
11
145.9
21
-47.3
0
LINE
8
Black
10
146.6
20
-44.9
11
147.2
21
-45.5
0
LINE
8
Black
10
147.2
20
-44.9
11
146.6
21
-45.5
0
LINE
8
Black
10
146.9
20
-93.3
11
147.5
21
-93.9
0
LINE
8
Black
10
147.5
20
-93.3
11
146.9
21
-93.9
0
LINE
8
Black
10
146.9
20
-96.9
11
147.5
21
-97.5
0
LINE
8
Black
10
147.5
20
-96.9
11
146.9
21
-97.5
0
LINE
8
Black
10
147.6
20
-95.1
11
148.2
21
-95.7
0
LINE
8
Black
10
148.2
20
-95.1
11
147.6
21
-95.7
0
CIRCLE
8
Black
10
51.5
20
-93.85
40
0.55
0
CIRCLE
8
Black
10
56.1
20
-47.5
40
0.55
0
CIRCLE
8
Black
10
56.1
20
-52.5
40
0.55
0
CIRCLE
8
Black
10
56.1
20
-55.5
40
0.55
0
CIRCLE
8
Black
10
56.1
20
-60.5
40
0.55
0
CIRCLE
8
Black
10
56.1
20
-63.5
40
0.55
0
CIRCLE
8
Black
10
56.1
20
-68.5
40
0.55
0
CIRCLE
8
Black
10
60.5
20
-93.85
40
0.55
0
CIRCLE
8
Black
10
62.5
20
-93.85
40
0.55
0
CIRCLE
8
Black
10
71.5
20
-93.85
40
0.55
0
CIRCLE
8
Black
10
73.5
20
-93.85
40
0.55
0
CIRCLE
8
Black
10
81.5
20
-36.15
40
0.55
0
CIRCLE
8
Black
10
82.5
20
-93.85
40
0.55
0
CIRCLE
8
Black
10
90.5
20
-36.15
40
0.55
0
CIRCLE
8
Black
10
93.5
20
-36.15
40
0.55
0
CIRCLE
8
Black
10
102.5
20
-36.15
40
0.55
0
CIRCLE
8
Black
10
117.5
20
-93.9
40
0.55
0
CIRCLE
8
Black
10
122.5
20
-93.9
40
0.55
0
CIRCLE
8
Black
10
125.5
20
-93.9
40
0.55
0
CIRCLE
8
Black
10
130.5
20
-93.9
40
0.55
0
CIRCLE
8
Black
10
133.5
20
-93.9
40
0.55
0
CIRCLE
8
Black
10
138.5
20
-93.9
40
0.55
0
CIRCLE
8
Black
10
143.85
20
-50.5
40
0.55
0
CIRCLE
8
Black
10
143.85
20
-55.5
40
0.55
0
CIRCLE
8
Black
10
143.9
20
-58.5
40
0.55
0
CIRCLE
8
Black
10
143.9
20
-63.5
40
0.55
0
CIRCLE
8
Black
10
143.9
20
-66.5
40
0.55
0
CIRCLE
8
Black
10
143.9
20
-71.5
40
0.55
0
CIRCLE
8
Black
10
143.9
20
-74.5
40
0.55
0
CIRCLE
8
Black
10
143.9
20
-79.5
40
0.55
0
LINE
8
Black
10
54.2
20
-76.55
11
54.2
21
-79.85
0
LINE
8
Black
10
52.55
20
-78.2
11
55.85
21
-78.2
0
LINE
8
Black
10
57.8
20
-41.15
11
57.8
21
-44.45
0
LINE
8
Black
10
56.15
20
-42.8
11
59.45
21
-42.8
0
LINE
8
Black
10
76.6
20
-32.75
11
76.6
21
-36.05
0
LINE
8
Black
10
74.95
20
-34.4
11
78.25
21
-34.4
0
LINE
8
Black
10
126.2
20
-32.55
11
126.2
21
-35.85
0
LINE
8
Black
10
124.55
20
-34.2
11
127.85
21
-34.2
0
LINE
8
Black
10
144.4
20
-43.55
11
144.4
21
-46.85
0
LINE
8
Black
10
142.75
20
-45.2
11
146.05
21
-45.2
0
LINE
8
Black
10
145.4
20
-93.75
11
145.4
21
-97.05
0
LINE
8
Black
10
143.75
20
-95.4
11
147.05
21
-95.4
  0
TEXT
  7
KICAD
  8
Black
  10
51.9
  11
51.9
  20
-103.4
  21
-103.4
  40
3
  41
1
  50
0
  51
0
  71
0
  72
0
  73
2
  1
Drill Map:
0
LINE
8
Black
10
49.3
20
-109.4
11
49.9
21
-110
0
LINE
8
Black
10
49.9
20
-109.4
11
49.3
21
-110
  0
TEXT
  7
KICAD
  8
Black
  10
51.9
  11
51.9
  20
-109.7
  21
-109.7
  40
3
  41
1
  50
0
  51
0
  71
0
  72
0
  73
2
  1
0.60mm / 0.024" (48 holes)
0
CIRCLE
8
Black
10
49.35
20
-113.66
40
0.55
  0
TEXT
  7
KICAD
  8
Black
  10
51.9
  11
51.9
  20
-113.66
  21
-113.66
  40
3
  41
1
  50
0
  51
0
  71
0
  72
0
  73
2
  1
1.10mm / 0.043" (30 holes)
0
LINE
8
Black
10
48.25
20
-115.97
11
48.25
21
-119.27
0
LINE
8
Black
10
46.6
20
-117.62
11
49.9
21
-117.62
  0
TEXT
  7
KICAD
  8
Black
  10
51.9
  11
51.9
  20
-117.62
  21
-117.62
  40
3
  41
1
  50
0
  51
0
  71
0
  72
0
  73
2
  1
3.30mm / 0.130" (6 holes)
  0
ENDSEC
  0
EOF
