M48
;DRILL file {kicad (2014-jul-16 BZR unknown)-product} date Tue 09 Sep 2014 11:04:50 BST
;FORMAT={-:-/ absolute / metric / decimal}
FMAT,2
METRIC,TZ
T1C0.400
T2C0.600
T3C0.635
T4C0.700
T5C0.800
%
G90
G05
M71
T1
X8.2Y-57.4
X9.8Y-52.9
X10.6Y-58.1
X10.9Y-43.3
X11.4Y-48.4
X11.7Y-39.6
X12.2Y-47.1
X12.6Y-9.6
X12.6Y-19.2
X12.6Y-20.6
X12.6Y-30.2
X12.6Y-31.5
X12.6Y-52.8
X12.8Y-56.4
X13.6Y-14.4
X13.6Y-25.4
X13.6Y-36.
X14.Y-49.1
X14.9Y-43.6
X15.2Y-42.
X15.8Y-49.3
X16.2Y-9.
X16.2Y-12.8
X16.2Y-23.8
X16.2Y-34.8
X16.3Y-20.
X16.3Y-31.
X17.2Y-6.6
X17.2Y-56.2
X17.9Y-35.3
X18.Y-13.4
X18.Y-24.5
X18.Y-48.4
X18.Y-52.2
X18.4Y-6.6
X18.4Y-26.8
X18.4Y-39.4
X19.2Y-57.4
X19.4Y-18.
X20.8Y-13.4
X20.8Y-24.5
X20.8Y-35.3
X20.8Y-52.9
X21.6Y-58.1
X21.9Y-43.2
X22.4Y-48.4
X22.7Y-15.3
X22.8Y-26.3
X22.8Y-37.1
X23.3Y-47.2
X23.7Y-52.8
X23.8Y-56.4
X25.Y-49.1
X25.6Y-17.
X25.6Y-28.
X25.6Y-38.7
X25.8Y-42.
X25.9Y-43.6
X26.5Y-10.1
X26.5Y-11.7
X26.5Y-21.1
X26.5Y-22.7
X26.5Y-31.9
X26.5Y-33.5
X26.8Y-49.2
X28.2Y-56.2
X29.Y-48.4
X29.Y-52.2
X30.2Y-57.4
X31.4Y-31.6
X31.6Y-25.
X31.8Y-52.9
X32.4Y-34.
X32.6Y-58.1
X32.9Y-43.3
X33.Y-26.8
X33.2Y-25.
X33.4Y-48.4
X33.5Y-30.
X33.5Y-31.5
X33.5Y-33.5
X33.5Y-35.5
X34.3Y-47.3
X34.6Y-52.8
X34.8Y-56.4
X36.Y-30.
X36.Y-49.1
X36.8Y-42.
X36.9Y-43.6
X37.1Y-22.4
X37.5Y-24.5
X37.5Y-26.1
X37.65Y-34.7
X37.8Y-49.2
X38.Y-30.
X39.Y-21.
X39.2Y-56.2
X39.4Y-42.1
X39.5Y-27.4
X40.Y-30.2
X40.Y-48.4
X40.Y-51.6
X40.2Y-55.3
X40.7Y-45.8
X41.Y-42.1
X41.Y-47.2
X41.5Y-21.
X41.8Y-54.6
X42.Y-30.2
X42.1Y-40.9
X42.4Y-32.8
X42.6Y-29.2
X42.6Y-46.9
X42.6Y-48.4
X42.9Y-40.05
X43.2Y-30.2
X43.3Y-46.9
X43.3Y-48.4
X43.4Y-45.1
X43.7Y-40.9
X44.Y-32.8
X44.2Y-31.5
X44.4Y-20.2
X45.7Y-53.3
X45.8Y-50.2
X46.1Y-28.9
X46.4Y-47.2
X46.8Y-13.6
X46.8Y-20.2
X47.2Y-32.6
X47.2Y-35.5
X47.2Y-37.9
X47.2Y-40.5
X47.3Y-43.5
X47.4Y-25.5
X47.95Y-42.65
X48.Y-30.6
X48.5Y-19.2
X48.6Y-16.4
X49.2Y-42.6
X50.1Y-43.2
X50.6Y-30.6
X51.6Y-43.2
X51.9Y-49.
X52.3Y-17.
X52.4Y-18.6
X53.Y-30.6
X53.1Y-42.3
X53.2Y-53.4
X53.3Y-43.3
X53.4Y-50.6
X54.3Y-53.3
X54.6Y-40.6
X54.6Y-41.9
X55.3Y-26.
X55.4Y-42.6
X55.5Y-30.6
X55.6Y-22.3
X56.7Y-42.2
X56.7Y-53.3
X57.Y-31.9
X57.2Y-20.
X57.3Y-26.2
X57.5Y-34.3
X57.75Y-46.2
X57.9Y-32.9
X59.2Y-25.8
X59.25Y-48.6
X59.4Y-11.1
X59.4Y-27.6
X59.4Y-39.7
X59.4Y-42.2
X59.5Y-7.7
X59.5Y-22.8
X59.6Y-20.7
X59.7Y-37.
X60.1Y-32.5
X60.7Y-54.4
X61.Y-45.
X62.6Y-46.3
X62.6Y-55.4
X62.8Y-31.2
X62.8Y-43.3
X63.2Y-57.5
X63.6Y-27.2
X63.6Y-30.
X65.2Y-47.8
X65.5Y-57.6
X65.6Y-39.2
X66.2Y-41.2
X67.9Y-4.4
X68.Y-2.8
X68.2Y-29.3
X69.Y-48.
X69.7Y-6.3
X70.4Y-42.3
X71.1Y-57.6
X71.2Y-17.4
X71.25Y-31.75
X72.8Y-42.1
X73.Y-37.2
X73.3Y-15.1
X73.3Y-17.2
X73.6Y-7.9
X73.6Y-20.6
X73.7Y-57.4
X73.8Y-14.
X73.8Y-16.1
X73.9Y-26.1
X74.Y-35.8
X74.8Y-12.9
X75.6Y-30.4
X75.9Y-18.5
X75.9Y-20.7
X76.2Y-30.
X76.2Y-51.8
X76.3Y-42.4
X76.8Y-30.4
X76.8Y-32.4
X77.4Y-30.
X78.Y-30.4
X78.5Y-58.1
X79.6Y-56.7
X79.7Y-52.
X80.3Y-42.1
X84.5Y-42.5
X84.9Y-20.8
X84.9Y-25.2
X84.9Y-57.6
X85.Y-33.3
X87.6Y-32.6
X90.2Y-57.6
X92.2Y-59.
X93.9Y-56.4
T2
X2.Y-15.
X2.Y-18.
X2.Y-21.
X2.Y-24.
X2.Y-27.
X2.Y-30.
X2.Y-33.
X2.Y-36.
X2.Y-39.
X2.Y-42.
X2.Y-44.7
X2.Y-51.6
X2.Y-54.
X2.Y-57.
X2.Y-60.
X2.Y-66.
X4.Y-68.
X7.Y-68.
X10.Y-68.
X12.35Y-7.75
X13.Y-68.
X16.Y-68.
X16.8Y-5.
X19.Y-68.
X20.Y-3.
X22.Y-68.
X23.Y-2.
X25.Y-68.
X28.Y-68.
X31.Y-68.
X32.Y-1.5
X35.Y-1.5
X38.Y-1.5
X41.Y-1.5
X44.Y-1.5
X47.Y-1.5
X50.Y-1.5
X53.Y-1.5
X56.Y-1.5
X59.Y-1.5
X67.Y-68.
X70.Y-2.
X70.Y-68.
X72.3Y-68.
X72.7Y-2.
X76.Y-68.
X79.6Y-68.1
X81.Y-4.5
X84.Y-6.5
X84.2Y-68.
X86.2Y-68.
X87.Y-8.5
X88.Y-68.
X90.Y-10.5
X91.3Y-68.
X98.Y-17.
X98.Y-20.
X98.Y-23.
X98.Y-26.
X98.Y-29.
X98.Y-32.
X98.Y-35.
X98.Y-38.
X98.Y-41.
X98.Y-44.
X98.Y-47.
X98.Y-50.
X98.Y-53.
X98.Y-56.
X98.Y-59.
X98.Y-62.
T3
X60.72Y-2.93
X60.72Y-4.2
X61.99Y-2.93
X61.99Y-4.2
X63.26Y-2.93
X63.26Y-4.2
X64.53Y-2.93
X64.53Y-4.2
X65.8Y-2.93
X65.8Y-4.2
T4
X3.Y-61.75
X5.Y-61.75
X7.Y-61.75
X8.2Y-19.
X8.2Y-21.
X8.2Y-27.
X8.2Y-29.
X8.2Y-35.
X8.2Y-37.
X9.Y-61.75
X14.Y-61.75
X16.Y-61.75
X18.Y-61.75
X20.Y-61.75
X25.Y-61.75
X27.Y-61.75
X29.Y-61.75
X31.Y-61.75
X33.Y-8.25
X35.Y-8.25
X37.Y-8.25
X39.Y-8.25
X45.Y-8.25
X47.Y-8.25
X49.Y-8.25
X51.Y-8.25
X69.Y-61.8
X71.Y-61.8
X77.Y-61.8
X79.Y-61.8
X85.Y-61.8
X87.Y-61.8
X91.75Y-22.
X91.75Y-24.
X91.8Y-30.
X91.8Y-32.
X91.8Y-38.
X91.8Y-40.
X91.8Y-46.
X91.8Y-48.
T5
X42.7Y-50.2
X62.5Y-52.1
T0
M30
