  0
SECTION
  2
HEADER
  9
$ANGBASE
  50
0.0
  9
$ANGDIR
  70
  1
  9
$MEASUREMENT
  70
0
  0
ENDSEC
  0
SECTION
  2
TABLES
  0
TABLE
  2
LTYPE
  70
1
  0
LTYPE
  2
CONTINUOUS
  70
0
  3
Solid line
  72
65
  73
0
  40
0.0
  0
ENDTAB
  0
TABLE
  2
STYLE
  70
4
  0
STYLE
  2
KICAD
  70
0
  40
0
  41
1
  42
1
  50
0
  71
0
  3
isocp.shx
  0
STYLE
  2
KICADB
  70
0
  40
0
  41
1
  42
1
  50
0
  71
0
  3
isocp.shx
  0
STYLE
  2
KICADI
  70
0
  40
0
  41
1
  42
1
  50
15
  71
0
  3
isocp.shx
  0
STYLE
  2
KICADBI
  70
0
  40
0
  41
1
  42
1
  50
15
  71
0
  3
isocp.shx
  0
ENDTAB
  0
TABLE
  2
LAYER
  70
30
  0
LAYER
  2
BLACK
  70
0
  62
7
  6
CONTINUOUS
  0
LAYER
  2
GRAY1
  70
0
  62
251
  6
CONTINUOUS
  0
LAYER
  2
GRAY2
  70
0
  62
8
  6
CONTINUOUS
  0
LAYER
  2
GRAY3
  70
0
  62
9
  6
CONTINUOUS
  0
LAYER
  2
WHITE
  70
0
  62
7
  6
CONTINUOUS
  0
LAYER
  2
LYELLOW
  70
0
  62
51
  6
CONTINUOUS
  0
LAYER
  2
BLUE1
  70
0
  62
178
  6
CONTINUOUS
  0
LAYER
  2
GREEN1
  70
0
  62
98
  6
CONTINUOUS
  0
LAYER
  2
CYAN1
  70
0
  62
138
  6
CONTINUOUS
  0
LAYER
  2
RED1
  70
0
  62
18
  6
CONTINUOUS
  0
LAYER
  2
MAGENTA1
  70
0
  62
228
  6
CONTINUOUS
  0
LAYER
  2
BROWN1
  70
0
  62
58
  6
CONTINUOUS
  0
LAYER
  2
BLUE2
  70
0
  62
5
  6
CONTINUOUS
  0
LAYER
  2
GREEN2
  70
0
  62
3
  6
CONTINUOUS
  0
LAYER
  2
CYAN2
  70
0
  62
4
  6
CONTINUOUS
  0
LAYER
  2
RED2
  70
0
  62
1
  6
CONTINUOUS
  0
LAYER
  2
MAGENTA2
  70
0
  62
6
  6
CONTINUOUS
  0
LAYER
  2
BROWN2
  70
0
  62
54
  6
CONTINUOUS
  0
LAYER
  2
BLUE3
  70
0
  62
171
  6
CONTINUOUS
  0
LAYER
  2
GREEN3
  70
0
  62
91
  6
CONTINUOUS
  0
LAYER
  2
CYAN3
  70
0
  62
131
  6
CONTINUOUS
  0
LAYER
  2
RED3
  70
0
  62
11
  6
CONTINUOUS
  0
LAYER
  2
MAGENTA3
  70
0
  62
221
  6
CONTINUOUS
  0
LAYER
  2
YELLOW3
  70
0
  62
2
  6
CONTINUOUS
  0
LAYER
  2
BLUE4
  70
0
  62
5
  6
CONTINUOUS
  0
LAYER
  2
GREEN4
  70
0
  62
3
  6
CONTINUOUS
  0
LAYER
  2
CYAN4
  70
0
  62
4
  6
CONTINUOUS
  0
LAYER
  2
RED4
  70
0
  62
1
  6
CONTINUOUS
  0
LAYER
  2
MAGENTA4
  70
0
  62
6
  6
CONTINUOUS
  0
LAYER
  2
YELLOW4
  70
0
  62
2
  6
CONTINUOUS
  0
ENDTAB
  0
ENDSEC
  0
SECTION
  2
ENTITIES
0
LINE
8
Black
10
82.5665
20
-126.444
11
83.0647
21
-126.731
0
LINE
8
Black
10
83.0647
20
-126.731
11
83.4344
21
-127.172
0
LINE
8
Black
10
83.4344
20
-127.172
11
83.6311
21
-127.712
0
LINE
8
Black
10
83.6311
20
-127.712
11
83.6311
21
-128.288
0
LINE
8
Black
10
83.6311
20
-128.288
11
83.4344
21
-128.828
0
LINE
8
Black
10
83.4344
20
-128.828
11
83.0647
21
-129.269
0
LINE
8
Black
10
83.0647
20
-129.269
11
82.5665
21
-129.556
0
LINE
8
Black
10
82.5665
20
-129.556
11
82
21
-129.656
0
LINE
8
Black
10
82
20
-129.656
11
81.4335
21
-129.556
0
LINE
8
Black
10
81.4335
20
-129.556
11
80.9353
21
-129.269
0
LINE
8
Black
10
80.9353
20
-129.269
11
80.5656
21
-128.828
0
LINE
8
Black
10
80.5656
20
-128.828
11
80.3689
21
-128.288
0
LINE
8
Black
10
80.3689
20
-128.288
11
80.3689
21
-127.712
0
LINE
8
Black
10
80.3689
20
-127.712
11
80.5656
21
-127.172
0
LINE
8
Black
10
80.5656
20
-127.172
11
80.9353
21
-126.731
0
LINE
8
Black
10
80.9353
20
-126.731
11
81.4335
21
-126.444
0
LINE
8
Black
10
81.4335
20
-126.444
11
82
21
-126.344
0
LINE
8
Black
10
82
20
-126.344
11
82.5665
21
-126.444
0
LINE
8
Black
10
82.5665
20
-158.444
11
83.0647
21
-158.731
0
LINE
8
Black
10
83.0647
20
-158.731
11
83.4344
21
-159.172
0
LINE
8
Black
10
83.4344
20
-159.172
11
83.6311
21
-159.712
0
LINE
8
Black
10
83.6311
20
-159.712
11
83.6311
21
-160.288
0
LINE
8
Black
10
83.6311
20
-160.288
11
83.4344
21
-160.828
0
LINE
8
Black
10
83.4344
20
-160.828
11
83.0647
21
-161.269
0
LINE
8
Black
10
83.0647
20
-161.269
11
82.5665
21
-161.556
0
LINE
8
Black
10
82.5665
20
-161.556
11
82
21
-161.656
0
LINE
8
Black
10
82
20
-161.656
11
81.4335
21
-161.556
0
LINE
8
Black
10
81.4335
20
-161.556
11
80.9353
21
-161.269
0
LINE
8
Black
10
80.9353
20
-161.269
11
80.5656
21
-160.828
0
LINE
8
Black
10
80.5656
20
-160.828
11
80.3689
21
-160.288
0
LINE
8
Black
10
80.3689
20
-160.288
11
80.3689
21
-159.712
0
LINE
8
Black
10
80.3689
20
-159.712
11
80.5656
21
-159.172
0
LINE
8
Black
10
80.5656
20
-159.172
11
80.9353
21
-158.731
0
LINE
8
Black
10
80.9353
20
-158.731
11
81.4335
21
-158.444
0
LINE
8
Black
10
81.4335
20
-158.444
11
82
21
-158.344
0
LINE
8
Black
10
82
20
-158.344
11
82.5665
21
-158.444
0
LINE
8
Black
10
86.99
20
-157.1
11
86.39
21
-157.1
0
LINE
8
Black
10
86.39
20
-157.1
11
86.39
21
-154.9
0
LINE
8
Black
10
86.39
20
-154.9
11
86.99
21
-154.9
0
LINE
8
Black
10
86.99
20
-154.9
11
86.99
21
-157.1
0
LINE
8
Black
10
86.99
20
-162.307
11
86.39
21
-162.307
0
LINE
8
Black
10
86.39
20
-162.307
11
86.39
21
-160.107
0
LINE
8
Black
10
86.39
20
-160.107
11
86.99
21
-160.107
0
LINE
8
Black
10
86.99
20
-160.107
11
86.99
21
-162.307
0
LINE
8
Black
10
87.05
20
-129.9
11
86.35
21
-129.9
0
LINE
8
Black
10
86.35
20
-129.9
11
86.35
21
-128.1
0
LINE
8
Black
10
86.35
20
-128.1
11
87.05
21
-128.1
0
LINE
8
Black
10
87.05
20
-128.1
11
87.05
21
-129.9
0
LINE
8
Black
10
87.05
20
-139.4
11
86.35
21
-139.4
0
LINE
8
Black
10
86.35
20
-139.4
11
86.35
21
-137.6
0
LINE
8
Black
10
86.35
20
-137.6
11
87.05
21
-137.6
0
LINE
8
Black
10
87.05
20
-137.6
11
87.05
21
-139.4
0
LINE
8
Black
10
88.2
20
-129.9
11
87.4
21
-129.9
0
LINE
8
Black
10
87.4
20
-129.9
11
87.4
21
-128.1
0
LINE
8
Black
10
87.4
20
-128.1
11
88.2
21
-128.1
0
LINE
8
Black
10
88.2
20
-128.1
11
88.2
21
-129.9
0
LINE
8
Black
10
88.2
20
-139.4
11
87.4
21
-139.4
0
LINE
8
Black
10
87.4
20
-139.4
11
87.4
21
-137.6
0
LINE
8
Black
10
87.4
20
-137.6
11
88.2
21
-137.6
0
LINE
8
Black
10
88.2
20
-137.6
11
88.2
21
-139.4
0
LINE
8
Black
10
88.26
20
-157.1
11
87.66
21
-157.1
0
LINE
8
Black
10
87.66
20
-157.1
11
87.66
21
-154.9
0
LINE
8
Black
10
87.66
20
-154.9
11
88.26
21
-154.9
0
LINE
8
Black
10
88.26
20
-154.9
11
88.26
21
-157.1
0
LINE
8
Black
10
88.26
20
-162.307
11
87.66
21
-162.307
0
LINE
8
Black
10
87.66
20
-162.307
11
87.66
21
-160.107
0
LINE
8
Black
10
87.66
20
-160.107
11
88.26
21
-160.107
0
LINE
8
Black
10
88.26
20
-160.107
11
88.26
21
-162.307
0
LINE
8
Black
10
89.3
20
-129.9
11
88.5
21
-129.9
0
LINE
8
Black
10
88.5
20
-129.9
11
88.5
21
-128.1
0
LINE
8
Black
10
88.5
20
-128.1
11
89.3
21
-128.1
0
LINE
8
Black
10
89.3
20
-128.1
11
89.3
21
-129.9
0
LINE
8
Black
10
89.3
20
-139.4
11
88.5
21
-139.4
0
LINE
8
Black
10
88.5
20
-139.4
11
88.5
21
-137.6
0
LINE
8
Black
10
88.5
20
-137.6
11
89.3
21
-137.6
0
LINE
8
Black
10
89.3
20
-137.6
11
89.3
21
-139.4
0
LINE
8
Black
10
89.53
20
-157.1
11
88.93
21
-157.1
0
LINE
8
Black
10
88.93
20
-157.1
11
88.93
21
-154.9
0
LINE
8
Black
10
88.93
20
-154.9
11
89.53
21
-154.9
0
LINE
8
Black
10
89.53
20
-154.9
11
89.53
21
-157.1
0
LINE
8
Black
10
89.53
20
-162.307
11
88.93
21
-162.307
0
LINE
8
Black
10
88.93
20
-162.307
11
88.93
21
-160.107
0
LINE
8
Black
10
88.93
20
-160.107
11
89.53
21
-160.107
0
LINE
8
Black
10
89.53
20
-160.107
11
89.53
21
-162.307
0
LINE
8
Black
10
90.4
20
-129.9
11
89.6
21
-129.9
0
LINE
8
Black
10
89.6
20
-129.9
11
89.6
21
-128.1
0
LINE
8
Black
10
89.6
20
-128.1
11
90.4
21
-128.1
0
LINE
8
Black
10
90.4
20
-128.1
11
90.4
21
-129.9
0
LINE
8
Black
10
90.4
20
-139.4
11
89.6
21
-139.4
0
LINE
8
Black
10
89.6
20
-139.4
11
89.6
21
-137.6
0
LINE
8
Black
10
89.6
20
-137.6
11
90.4
21
-137.6
0
LINE
8
Black
10
90.4
20
-137.6
11
90.4
21
-139.4
0
LINE
8
Black
10
90.8
20
-157.1
11
90.2
21
-157.1
0
LINE
8
Black
10
90.2
20
-157.1
11
90.2
21
-154.9
0
LINE
8
Black
10
90.2
20
-154.9
11
90.8
21
-154.9
0
LINE
8
Black
10
90.8
20
-154.9
11
90.8
21
-157.1
0
LINE
8
Black
10
90.8
20
-162.307
11
90.2
21
-162.307
0
LINE
8
Black
10
90.2
20
-162.307
11
90.2
21
-160.107
0
LINE
8
Black
10
90.2
20
-160.107
11
90.8
21
-160.107
0
LINE
8
Black
10
90.8
20
-160.107
11
90.8
21
-162.307
0
LINE
8
Black
10
91.5
20
-129.9
11
90.7
21
-129.9
0
LINE
8
Black
10
90.7
20
-129.9
11
90.7
21
-128.1
0
LINE
8
Black
10
90.7
20
-128.1
11
91.5
21
-128.1
0
LINE
8
Black
10
91.5
20
-128.1
11
91.5
21
-129.9
0
LINE
8
Black
10
91.5
20
-139.4
11
90.7
21
-139.4
0
LINE
8
Black
10
90.7
20
-139.4
11
90.7
21
-137.6
0
LINE
8
Black
10
90.7
20
-137.6
11
91.5
21
-137.6
0
LINE
8
Black
10
91.5
20
-137.6
11
91.5
21
-139.4
0
LINE
8
Black
10
92.4
20
-156.95
11
91.6
21
-156.95
0
LINE
8
Black
10
91.6
20
-156.95
11
91.6
21
-156.25
0
LINE
8
Black
10
91.6
20
-156.25
11
92.4
21
-156.25
0
LINE
8
Black
10
92.4
20
-156.25
11
92.4
21
-156.95
0
LINE
8
Black
10
92.4
20
-158.35
11
91.6
21
-158.35
0
LINE
8
Black
10
91.6
20
-158.35
11
91.6
21
-157.65
0
LINE
8
Black
10
91.6
20
-157.65
11
92.4
21
-157.65
0
LINE
8
Black
10
92.4
20
-157.65
11
92.4
21
-158.35
0
LINE
8
Black
10
92.4
20
-159.85
11
91.6
21
-159.85
0
LINE
8
Black
10
91.6
20
-159.85
11
91.6
21
-159.15
0
LINE
8
Black
10
91.6
20
-159.15
11
92.4
21
-159.15
0
LINE
8
Black
10
92.4
20
-159.15
11
92.4
21
-159.85
0
LINE
8
Black
10
92.4
20
-161.25
11
91.6
21
-161.25
0
LINE
8
Black
10
91.6
20
-161.25
11
91.6
21
-160.55
0
LINE
8
Black
10
91.6
20
-160.55
11
92.4
21
-160.55
0
LINE
8
Black
10
92.4
20
-160.55
11
92.4
21
-161.25
0
LINE
8
Black
10
92.45
20
-140.9
11
91.75
21
-140.9
0
LINE
8
Black
10
91.75
20
-140.9
11
91.75
21
-140.1
0
LINE
8
Black
10
91.75
20
-140.1
11
92.45
21
-140.1
0
LINE
8
Black
10
92.45
20
-140.1
11
92.45
21
-140.9
0
LINE
8
Black
10
92.55
20
-146.05
11
91.75
21
-146.05
0
LINE
8
Black
10
91.75
20
-146.05
11
91.75
21
-145.25
0
LINE
8
Black
10
91.75
20
-145.25
11
92.55
21
-145.25
0
LINE
8
Black
10
92.55
20
-145.25
11
92.55
21
-146.05
0
LINE
8
Black
10
92.55
20
-147.65
11
91.75
21
-147.65
0
LINE
8
Black
10
91.75
20
-147.65
11
91.75
21
-146.85
0
LINE
8
Black
10
91.75
20
-146.85
11
92.55
21
-146.85
0
LINE
8
Black
10
92.55
20
-146.85
11
92.55
21
-147.65
0
LINE
8
Black
10
92.55
20
-149.05
11
91.75
21
-149.05
0
LINE
8
Black
10
91.75
20
-149.05
11
91.75
21
-148.25
0
LINE
8
Black
10
91.75
20
-148.25
11
92.55
21
-148.25
0
LINE
8
Black
10
92.55
20
-148.25
11
92.55
21
-149.05
0
LINE
8
Black
10
92.55
20
-150.65
11
91.75
21
-150.65
0
LINE
8
Black
10
91.75
20
-150.65
11
91.75
21
-149.85
0
LINE
8
Black
10
91.75
20
-149.85
11
92.55
21
-149.85
0
LINE
8
Black
10
92.55
20
-149.85
11
92.55
21
-150.65
0
LINE
8
Black
10
92.6
20
-129.9
11
91.8
21
-129.9
0
LINE
8
Black
10
91.8
20
-129.9
11
91.8
21
-128.1
0
LINE
8
Black
10
91.8
20
-128.1
11
92.6
21
-128.1
0
LINE
8
Black
10
92.6
20
-128.1
11
92.6
21
-129.9
0
LINE
8
Black
10
92.6
20
-139.4
11
91.8
21
-139.4
0
LINE
8
Black
10
91.8
20
-139.4
11
91.8
21
-137.6
0
LINE
8
Black
10
91.8
20
-137.6
11
92.6
21
-137.6
0
LINE
8
Black
10
92.6
20
-137.6
11
92.6
21
-139.4
0
LINE
8
Black
10
93.7
20
-129.9
11
92.9
21
-129.9
0
LINE
8
Black
10
92.9
20
-129.9
11
92.9
21
-128.1
0
LINE
8
Black
10
92.9
20
-128.1
11
93.7
21
-128.1
0
LINE
8
Black
10
93.7
20
-128.1
11
93.7
21
-129.9
0
LINE
8
Black
10
93.7
20
-139.4
11
92.9
21
-139.4
0
LINE
8
Black
10
92.9
20
-139.4
11
92.9
21
-137.6
0
LINE
8
Black
10
92.9
20
-137.6
11
93.7
21
-137.6
0
LINE
8
Black
10
93.7
20
-137.6
11
93.7
21
-139.4
0
LINE
8
Black
10
93.85
20
-140.9
11
93.15
21
-140.9
0
LINE
8
Black
10
93.15
20
-140.9
11
93.15
21
-140.1
0
LINE
8
Black
10
93.15
20
-140.1
11
93.85
21
-140.1
0
LINE
8
Black
10
93.85
20
-140.1
11
93.85
21
-140.9
0
LINE
8
Black
10
93.99
20
-157.1
11
93.39
21
-157.1
0
LINE
8
Black
10
93.39
20
-157.1
11
93.39
21
-154.9
0
LINE
8
Black
10
93.39
20
-154.9
11
93.99
21
-154.9
0
LINE
8
Black
10
93.99
20
-154.9
11
93.99
21
-157.1
0
LINE
8
Black
10
93.99
20
-162.307
11
93.39
21
-162.307
0
LINE
8
Black
10
93.39
20
-162.307
11
93.39
21
-160.107
0
LINE
8
Black
10
93.39
20
-160.107
11
93.99
21
-160.107
0
LINE
8
Black
10
93.99
20
-160.107
11
93.99
21
-162.307
0
LINE
8
Black
10
94.15
20
-147.65
11
93.15
21
-147.65
0
LINE
8
Black
10
93.15
20
-147.65
11
93.15
21
-146.85
0
LINE
8
Black
10
93.15
20
-146.85
11
94.15
21
-146.85
0
LINE
8
Black
10
94.15
20
-146.85
11
94.15
21
-147.65
0
LINE
8
Black
10
94.15
20
-149.55
11
93.15
21
-149.55
0
LINE
8
Black
10
93.15
20
-149.55
11
93.15
21
-148.75
0
LINE
8
Black
10
93.15
20
-148.75
11
94.15
21
-148.75
0
LINE
8
Black
10
94.15
20
-148.75
11
94.15
21
-149.55
0
LINE
8
Black
10
94.3
20
-126.75
11
93.7
21
-126.75
0
LINE
8
Black
10
93.7
20
-126.75
11
93.7
21
-126.25
0
LINE
8
Black
10
93.7
20
-126.25
11
94.3
21
-126.25
0
LINE
8
Black
10
94.3
20
-126.25
11
94.3
21
-126.75
0
LINE
8
Black
10
94.8
20
-129.9
11
94
21
-129.9
0
LINE
8
Black
10
94
20
-129.9
11
94
21
-128.1
0
LINE
8
Black
10
94
20
-128.1
11
94.8
21
-128.1
0
LINE
8
Black
10
94.8
20
-128.1
11
94.8
21
-129.9
0
LINE
8
Black
10
94.8
20
-139.4
11
94
21
-139.4
0
LINE
8
Black
10
94
20
-139.4
11
94
21
-137.6
0
LINE
8
Black
10
94
20
-137.6
11
94.8
21
-137.6
0
LINE
8
Black
10
94.8
20
-137.6
11
94.8
21
-139.4
0
LINE
8
Black
10
95.26
20
-157.1
11
94.66
21
-157.1
0
LINE
8
Black
10
94.66
20
-157.1
11
94.66
21
-154.9
0
LINE
8
Black
10
94.66
20
-154.9
11
95.26
21
-154.9
0
LINE
8
Black
10
95.26
20
-154.9
11
95.26
21
-157.1
0
LINE
8
Black
10
95.26
20
-162.307
11
94.66
21
-162.307
0
LINE
8
Black
10
94.66
20
-162.307
11
94.66
21
-160.107
0
LINE
8
Black
10
94.66
20
-160.107
11
95.26
21
-160.107
0
LINE
8
Black
10
95.26
20
-160.107
11
95.26
21
-162.307
0
LINE
8
Black
10
95.4
20
-126.75
11
94.8
21
-126.75
0
LINE
8
Black
10
94.8
20
-126.75
11
94.8
21
-126.25
0
LINE
8
Black
10
94.8
20
-126.25
11
95.4
21
-126.25
0
LINE
8
Black
10
95.4
20
-126.25
11
95.4
21
-126.75
0
LINE
8
Black
10
95.85
20
-129.9
11
95.15
21
-129.9
0
LINE
8
Black
10
95.15
20
-129.9
11
95.15
21
-128.1
0
LINE
8
Black
10
95.15
20
-128.1
11
95.85
21
-128.1
0
LINE
8
Black
10
95.85
20
-128.1
11
95.85
21
-129.9
0
LINE
8
Black
10
95.85
20
-139.4
11
95.15
21
-139.4
0
LINE
8
Black
10
95.15
20
-139.4
11
95.15
21
-137.6
0
LINE
8
Black
10
95.15
20
-137.6
11
95.85
21
-137.6
0
LINE
8
Black
10
95.85
20
-137.6
11
95.85
21
-139.4
0
LINE
8
Black
10
96.15
20
-142.7
11
95.35
21
-142.7
0
LINE
8
Black
10
95.35
20
-142.7
11
95.35
21
-142
0
LINE
8
Black
10
95.35
20
-142
11
96.15
21
-142
0
LINE
8
Black
10
96.15
20
-142
11
96.15
21
-142.7
0
LINE
8
Black
10
96.15
20
-144.1
11
95.35
21
-144.1
0
LINE
8
Black
10
95.35
20
-144.1
11
95.35
21
-143.4
0
LINE
8
Black
10
95.35
20
-143.4
11
96.15
21
-143.4
0
LINE
8
Black
10
96.15
20
-143.4
11
96.15
21
-144.1
0
LINE
8
Black
10
96.15
20
-148.6
11
95.15
21
-148.6
0
LINE
8
Black
10
95.15
20
-148.6
11
95.15
21
-147.8
0
LINE
8
Black
10
95.15
20
-147.8
11
96.15
21
-147.8
0
LINE
8
Black
10
96.15
20
-147.8
11
96.15
21
-148.6
0
LINE
8
Black
10
96.53
20
-157.1
11
95.93
21
-157.1
0
LINE
8
Black
10
95.93
20
-157.1
11
95.93
21
-154.9
0
LINE
8
Black
10
95.93
20
-154.9
11
96.53
21
-154.9
0
LINE
8
Black
10
96.53
20
-154.9
11
96.53
21
-157.1
0
LINE
8
Black
10
96.53
20
-162.307
11
95.93
21
-162.307
0
LINE
8
Black
10
95.93
20
-162.307
11
95.93
21
-160.107
0
LINE
8
Black
10
95.93
20
-160.107
11
96.53
21
-160.107
0
LINE
8
Black
10
96.53
20
-160.107
11
96.53
21
-162.307
0
LINE
8
Black
10
97.4
20
-142.7
11
96.6
21
-142.7
0
LINE
8
Black
10
96.6
20
-142.7
11
96.6
21
-142
0
LINE
8
Black
10
96.6
20
-142
11
97.4
21
-142
0
LINE
8
Black
10
97.4
20
-142
11
97.4
21
-142.7
0
LINE
8
Black
10
97.4
20
-144.1
11
96.6
21
-144.1
0
LINE
8
Black
10
96.6
20
-144.1
11
96.6
21
-143.4
0
LINE
8
Black
10
96.6
20
-143.4
11
97.4
21
-143.4
0
LINE
8
Black
10
97.4
20
-143.4
11
97.4
21
-144.1
0
LINE
8
Black
10
97.8
20
-157.1
11
97.2
21
-157.1
0
LINE
8
Black
10
97.2
20
-157.1
11
97.2
21
-154.9
0
LINE
8
Black
10
97.2
20
-154.9
11
97.8
21
-154.9
0
LINE
8
Black
10
97.8
20
-154.9
11
97.8
21
-157.1
0
LINE
8
Black
10
97.8
20
-162.307
11
97.2
21
-162.307
0
LINE
8
Black
10
97.2
20
-162.307
11
97.2
21
-160.107
0
LINE
8
Black
10
97.2
20
-160.107
11
97.8
21
-160.107
0
LINE
8
Black
10
97.8
20
-160.107
11
97.8
21
-162.307
0
LINE
8
Black
10
98.75
20
-165.2
11
98.25
21
-165.2
0
LINE
8
Black
10
98.25
20
-165.2
11
98.25
21
-164.6
0
LINE
8
Black
10
98.25
20
-164.6
11
98.75
21
-164.6
0
LINE
8
Black
10
98.75
20
-164.6
11
98.75
21
-165.2
0
LINE
8
Black
10
98.75
20
-166.3
11
98.25
21
-166.3
0
LINE
8
Black
10
98.25
20
-166.3
11
98.25
21
-165.7
0
LINE
8
Black
10
98.25
20
-165.7
11
98.75
21
-165.7
0
LINE
8
Black
10
98.75
20
-165.7
11
98.75
21
-166.3
0
LINE
8
Black
10
98.9
20
-130.45
11
98.1
21
-130.45
0
LINE
8
Black
10
98.1
20
-130.45
11
98.1
21
-129.75
0
LINE
8
Black
10
98.1
20
-129.75
11
98.9
21
-129.75
0
LINE
8
Black
10
98.9
20
-129.75
11
98.9
21
-130.45
0
LINE
8
Black
10
98.9
20
-131.85
11
98.1
21
-131.85
0
LINE
8
Black
10
98.1
20
-131.85
11
98.1
21
-131.15
0
LINE
8
Black
10
98.1
20
-131.15
11
98.9
21
-131.15
0
LINE
8
Black
10
98.9
20
-131.15
11
98.9
21
-131.85
0
LINE
8
Black
10
98.95
20
-163.9
11
98.25
21
-163.9
0
LINE
8
Black
10
98.25
20
-163.9
11
98.25
21
-163.1
0
LINE
8
Black
10
98.25
20
-163.1
11
98.95
21
-163.1
0
LINE
8
Black
10
98.95
20
-163.1
11
98.95
21
-163.9
0
LINE
8
Black
10
99.1
20
-137.15
11
97.9
21
-137.15
0
LINE
8
Black
10
97.9
20
-137.15
11
97.9
21
-136.85
0
LINE
8
Black
10
97.9
20
-136.85
11
99.1
21
-136.85
0
LINE
8
Black
10
99.1
20
-136.85
11
99.1
21
-137.15
0
LINE
8
Black
10
99.1
20
-137.65
11
97.9
21
-137.65
0
LINE
8
Black
10
97.9
20
-137.65
11
97.9
21
-137.35
0
LINE
8
Black
10
97.9
20
-137.35
11
99.1
21
-137.35
0
LINE
8
Black
10
99.1
20
-137.35
11
99.1
21
-137.65
0
LINE
8
Black
10
99.1
20
-138.15
11
97.9
21
-138.15
0
LINE
8
Black
10
97.9
20
-138.15
11
97.9
21
-137.85
0
LINE
8
Black
10
97.9
20
-137.85
11
99.1
21
-137.85
0
LINE
8
Black
10
99.1
20
-137.85
11
99.1
21
-138.15
0
LINE
8
Black
10
99.1
20
-138.65
11
97.9
21
-138.65
0
LINE
8
Black
10
97.9
20
-138.65
11
97.9
21
-138.35
0
LINE
8
Black
10
97.9
20
-138.35
11
99.1
21
-138.35
0
LINE
8
Black
10
99.1
20
-138.35
11
99.1
21
-138.65
0
LINE
8
Black
10
99.1
20
-139.15
11
97.9
21
-139.15
0
LINE
8
Black
10
97.9
20
-139.15
11
97.9
21
-138.85
0
LINE
8
Black
10
97.9
20
-138.85
11
99.1
21
-138.85
0
LINE
8
Black
10
99.1
20
-138.85
11
99.1
21
-139.15
0
LINE
8
Black
10
99.1
20
-139.65
11
97.9
21
-139.65
0
LINE
8
Black
10
97.9
20
-139.65
11
97.9
21
-139.35
0
LINE
8
Black
10
97.9
20
-139.35
11
99.1
21
-139.35
0
LINE
8
Black
10
99.1
20
-139.35
11
99.1
21
-139.65
0
LINE
8
Black
10
99.1
20
-140.15
11
97.9
21
-140.15
0
LINE
8
Black
10
97.9
20
-140.15
11
97.9
21
-139.85
0
LINE
8
Black
10
97.9
20
-139.85
11
99.1
21
-139.85
0
LINE
8
Black
10
99.1
20
-139.85
11
99.1
21
-140.15
0
LINE
8
Black
10
99.1
20
-140.65
11
97.9
21
-140.65
0
LINE
8
Black
10
97.9
20
-140.65
11
97.9
21
-140.35
0
LINE
8
Black
10
97.9
20
-140.35
11
99.1
21
-140.35
0
LINE
8
Black
10
99.1
20
-140.35
11
99.1
21
-140.65
0
LINE
8
Black
10
99.1
20
-141.15
11
97.9
21
-141.15
0
LINE
8
Black
10
97.9
20
-141.15
11
97.9
21
-140.85
0
LINE
8
Black
10
97.9
20
-140.85
11
99.1
21
-140.85
0
LINE
8
Black
10
99.1
20
-140.85
11
99.1
21
-141.15
0
LINE
8
Black
10
99.1
20
-141.65
11
97.9
21
-141.65
0
LINE
8
Black
10
97.9
20
-141.65
11
97.9
21
-141.35
0
LINE
8
Black
10
97.9
20
-141.35
11
99.1
21
-141.35
0
LINE
8
Black
10
99.1
20
-141.35
11
99.1
21
-141.65
0
LINE
8
Black
10
99.1
20
-142.15
11
97.9
21
-142.15
0
LINE
8
Black
10
97.9
20
-142.15
11
97.9
21
-141.85
0
LINE
8
Black
10
97.9
20
-141.85
11
99.1
21
-141.85
0
LINE
8
Black
10
99.1
20
-141.85
11
99.1
21
-142.15
0
LINE
8
Black
10
99.1
20
-142.65
11
97.9
21
-142.65
0
LINE
8
Black
10
97.9
20
-142.65
11
97.9
21
-142.35
0
LINE
8
Black
10
97.9
20
-142.35
11
99.1
21
-142.35
0
LINE
8
Black
10
99.1
20
-142.35
11
99.1
21
-142.65
0
LINE
8
Black
10
99.35
20
-134.4
11
98.65
21
-134.4
0
LINE
8
Black
10
98.65
20
-134.4
11
98.65
21
-133.6
0
LINE
8
Black
10
98.65
20
-133.6
11
99.35
21
-133.6
0
LINE
8
Black
10
99.35
20
-133.6
11
99.35
21
-134.4
0
LINE
8
Black
10
99.4
20
-156.85
11
98.6
21
-156.85
0
LINE
8
Black
10
98.6
20
-156.85
11
98.6
21
-156.15
0
LINE
8
Black
10
98.6
20
-156.15
11
99.4
21
-156.15
0
LINE
8
Black
10
99.4
20
-156.15
11
99.4
21
-156.85
0
LINE
8
Black
10
99.4
20
-158.25
11
98.6
21
-158.25
0
LINE
8
Black
10
98.6
20
-158.25
11
98.6
21
-157.55
0
LINE
8
Black
10
98.6
20
-157.55
11
99.4
21
-157.55
0
LINE
8
Black
10
99.4
20
-157.55
11
99.4
21
-158.25
0
LINE
8
Black
10
99.4
20
-159.85
11
98.6
21
-159.85
0
LINE
8
Black
10
98.6
20
-159.85
11
98.6
21
-159.15
0
LINE
8
Black
10
98.6
20
-159.15
11
99.4
21
-159.15
0
LINE
8
Black
10
99.4
20
-159.15
11
99.4
21
-159.85
0
LINE
8
Black
10
99.4
20
-161.25
11
98.6
21
-161.25
0
LINE
8
Black
10
98.6
20
-161.25
11
98.6
21
-160.55
0
LINE
8
Black
10
98.6
20
-160.55
11
99.4
21
-160.55
0
LINE
8
Black
10
99.4
20
-160.55
11
99.4
21
-161.25
0
LINE
8
Black
10
100.15
20
-136.1
11
99.85
21
-136.1
0
LINE
8
Black
10
99.85
20
-136.1
11
99.85
21
-134.9
0
LINE
8
Black
10
99.85
20
-134.9
11
100.15
21
-134.9
0
LINE
8
Black
10
100.15
20
-134.9
11
100.15
21
-136.1
0
LINE
8
Black
10
100.15
20
-144.6
11
99.85
21
-144.6
0
LINE
8
Black
10
99.85
20
-144.6
11
99.85
21
-143.4
0
LINE
8
Black
10
99.85
20
-143.4
11
100.15
21
-143.4
0
LINE
8
Black
10
100.15
20
-143.4
11
100.15
21
-144.6
0
LINE
8
Black
10
100.35
20
-163.9
11
99.65
21
-163.9
0
LINE
8
Black
10
99.65
20
-163.9
11
99.65
21
-163.1
0
LINE
8
Black
10
99.65
20
-163.1
11
100.35
21
-163.1
0
LINE
8
Black
10
100.35
20
-163.1
11
100.35
21
-163.9
0
LINE
8
Black
10
100.4
20
-145.85
11
99.6
21
-145.85
0
LINE
8
Black
10
99.6
20
-145.85
11
99.6
21
-145.15
0
LINE
8
Black
10
99.6
20
-145.15
11
100.4
21
-145.15
0
LINE
8
Black
10
100.4
20
-145.15
11
100.4
21
-145.85
0
LINE
8
Black
10
100.4
20
-147.25
11
99.6
21
-147.25
0
LINE
8
Black
10
99.6
20
-147.25
11
99.6
21
-146.55
0
LINE
8
Black
10
99.6
20
-146.55
11
100.4
21
-146.55
0
LINE
8
Black
10
100.4
20
-146.55
11
100.4
21
-147.25
0
LINE
8
Black
10
100.65
20
-136.1
11
100.35
21
-136.1
0
LINE
8
Black
10
100.35
20
-136.1
11
100.35
21
-134.9
0
LINE
8
Black
10
100.35
20
-134.9
11
100.65
21
-134.9
0
LINE
8
Black
10
100.65
20
-134.9
11
100.65
21
-136.1
0
LINE
8
Black
10
100.65
20
-144.6
11
100.35
21
-144.6
0
LINE
8
Black
10
100.35
20
-144.6
11
100.35
21
-143.4
0
LINE
8
Black
10
100.35
20
-143.4
11
100.65
21
-143.4
0
LINE
8
Black
10
100.65
20
-143.4
11
100.65
21
-144.6
0
LINE
8
Black
10
100.75
20
-134.4
11
100.05
21
-134.4
0
LINE
8
Black
10
100.05
20
-134.4
11
100.05
21
-133.6
0
LINE
8
Black
10
100.05
20
-133.6
11
100.75
21
-133.6
0
LINE
8
Black
10
100.75
20
-133.6
11
100.75
21
-134.4
0
LINE
8
Black
10
100.9
20
-122.25
11
100.1
21
-122.25
0
LINE
8
Black
10
100.1
20
-122.25
11
100.1
21
-121.45
0
LINE
8
Black
10
100.1
20
-121.45
11
100.9
21
-121.45
0
LINE
8
Black
10
100.9
20
-121.45
11
100.9
21
-122.25
0
LINE
8
Black
10
100.9
20
-123.9
11
100.1
21
-123.9
0
LINE
8
Black
10
100.1
20
-123.9
11
100.1
21
-123.1
0
LINE
8
Black
10
100.1
20
-123.1
11
100.9
21
-123.1
0
LINE
8
Black
10
100.9
20
-123.1
11
100.9
21
-123.9
0
LINE
8
Black
10
100.9
20
-125.15
11
100.1
21
-125.15
0
LINE
8
Black
10
100.1
20
-125.15
11
100.1
21
-124.35
0
LINE
8
Black
10
100.1
20
-124.35
11
100.9
21
-124.35
0
LINE
8
Black
10
100.9
20
-124.35
11
100.9
21
-125.15
0
LINE
8
Black
10
100.9
20
-126.75
11
100.1
21
-126.75
0
LINE
8
Black
10
100.1
20
-126.75
11
100.1
21
-125.95
0
LINE
8
Black
10
100.1
20
-125.95
11
100.9
21
-125.95
0
LINE
8
Black
10
100.9
20
-125.95
11
100.9
21
-126.75
0
LINE
8
Black
10
100.99
20
-157.1
11
100.39
21
-157.1
0
LINE
8
Black
10
100.39
20
-157.1
11
100.39
21
-154.9
0
LINE
8
Black
10
100.39
20
-154.9
11
100.99
21
-154.9
0
LINE
8
Black
10
100.99
20
-154.9
11
100.99
21
-157.1
0
LINE
8
Black
10
100.99
20
-162.307
11
100.39
21
-162.307
0
LINE
8
Black
10
100.39
20
-162.307
11
100.39
21
-160.107
0
LINE
8
Black
10
100.39
20
-160.107
11
100.99
21
-160.107
0
LINE
8
Black
10
100.99
20
-160.107
11
100.99
21
-162.307
0
LINE
8
Black
10
101.15
20
-136.1
11
100.85
21
-136.1
0
LINE
8
Black
10
100.85
20
-136.1
11
100.85
21
-134.9
0
LINE
8
Black
10
100.85
20
-134.9
11
101.15
21
-134.9
0
LINE
8
Black
10
101.15
20
-134.9
11
101.15
21
-136.1
0
LINE
8
Black
10
101.15
20
-144.6
11
100.85
21
-144.6
0
LINE
8
Black
10
100.85
20
-144.6
11
100.85
21
-143.4
0
LINE
8
Black
10
100.85
20
-143.4
11
101.15
21
-143.4
0
LINE
8
Black
10
101.15
20
-143.4
11
101.15
21
-144.6
0
LINE
8
Black
10
101.35
20
-152.15
11
100.65
21
-152.15
0
LINE
8
Black
10
100.65
20
-152.15
11
100.65
21
-151.35
0
LINE
8
Black
10
100.65
20
-151.35
11
101.35
21
-151.35
0
LINE
8
Black
10
101.35
20
-151.35
11
101.35
21
-152.15
0
LINE
8
Black
10
101.65
20
-136.1
11
101.35
21
-136.1
0
LINE
8
Black
10
101.35
20
-136.1
11
101.35
21
-134.9
0
LINE
8
Black
10
101.35
20
-134.9
11
101.65
21
-134.9
0
LINE
8
Black
10
101.65
20
-134.9
11
101.65
21
-136.1
0
LINE
8
Black
10
101.65
20
-144.6
11
101.35
21
-144.6
0
LINE
8
Black
10
101.35
20
-144.6
11
101.35
21
-143.4
0
LINE
8
Black
10
101.35
20
-143.4
11
101.65
21
-143.4
0
LINE
8
Black
10
101.65
20
-143.4
11
101.65
21
-144.6
0
LINE
8
Black
10
101.95
20
-150.5
11
99.65
21
-150.5
0
LINE
8
Black
10
99.65
20
-150.5
11
99.65
21
-148
0
LINE
8
Black
10
99.65
20
-148
11
101.95
21
-148
0
LINE
8
Black
10
101.95
20
-148
11
101.95
21
-150.5
0
LINE
8
Black
10
102.15
20
-136.1
11
101.85
21
-136.1
0
LINE
8
Black
10
101.85
20
-136.1
11
101.85
21
-134.9
0
LINE
8
Black
10
101.85
20
-134.9
11
102.15
21
-134.9
0
LINE
8
Black
10
102.15
20
-134.9
11
102.15
21
-136.1
0
LINE
8
Black
10
102.15
20
-144.6
11
101.85
21
-144.6
0
LINE
8
Black
10
101.85
20
-144.6
11
101.85
21
-143.4
0
LINE
8
Black
10
101.85
20
-143.4
11
102.15
21
-143.4
0
LINE
8
Black
10
102.15
20
-143.4
11
102.15
21
-144.6
0
LINE
8
Black
10
102.26
20
-157.1
11
101.66
21
-157.1
0
LINE
8
Black
10
101.66
20
-157.1
11
101.66
21
-154.9
0
LINE
8
Black
10
101.66
20
-154.9
11
102.26
21
-154.9
0
LINE
8
Black
10
102.26
20
-154.9
11
102.26
21
-157.1
0
LINE
8
Black
10
102.26
20
-162.307
11
101.66
21
-162.307
0
LINE
8
Black
10
101.66
20
-162.307
11
101.66
21
-160.107
0
LINE
8
Black
10
101.66
20
-160.107
11
102.26
21
-160.107
0
LINE
8
Black
10
102.26
20
-160.107
11
102.26
21
-162.307
0
LINE
8
Black
10
102.65
20
-136.1
11
102.35
21
-136.1
0
LINE
8
Black
10
102.35
20
-136.1
11
102.35
21
-134.9
0
LINE
8
Black
10
102.35
20
-134.9
11
102.65
21
-134.9
0
LINE
8
Black
10
102.65
20
-134.9
11
102.65
21
-136.1
0
LINE
8
Black
10
102.65
20
-144.6
11
102.35
21
-144.6
0
LINE
8
Black
10
102.35
20
-144.6
11
102.35
21
-143.4
0
LINE
8
Black
10
102.35
20
-143.4
11
102.65
21
-143.4
0
LINE
8
Black
10
102.65
20
-143.4
11
102.65
21
-144.6
0
LINE
8
Black
10
102.75
20
-152.15
11
102.05
21
-152.15
0
LINE
8
Black
10
102.05
20
-152.15
11
102.05
21
-151.35
0
LINE
8
Black
10
102.05
20
-151.35
11
102.75
21
-151.35
0
LINE
8
Black
10
102.75
20
-151.35
11
102.75
21
-152.15
0
LINE
8
Black
10
103.1
20
-145.8
11
102.3
21
-145.8
0
LINE
8
Black
10
102.3
20
-145.8
11
102.3
21
-145
0
LINE
8
Black
10
102.3
20
-145
11
103.1
21
-145
0
LINE
8
Black
10
103.1
20
-145
11
103.1
21
-145.8
0
LINE
8
Black
10
103.1
20
-147.4
11
102.3
21
-147.4
0
LINE
8
Black
10
102.3
20
-147.4
11
102.3
21
-146.6
0
LINE
8
Black
10
102.3
20
-146.6
11
103.1
21
-146.6
0
LINE
8
Black
10
103.1
20
-146.6
11
103.1
21
-147.4
0
LINE
8
Black
10
103.15
20
-136.1
11
102.85
21
-136.1
0
LINE
8
Black
10
102.85
20
-136.1
11
102.85
21
-134.9
0
LINE
8
Black
10
102.85
20
-134.9
11
103.15
21
-134.9
0
LINE
8
Black
10
103.15
20
-134.9
11
103.15
21
-136.1
0
LINE
8
Black
10
103.15
20
-144.6
11
102.85
21
-144.6
0
LINE
8
Black
10
102.85
20
-144.6
11
102.85
21
-143.4
0
LINE
8
Black
10
102.85
20
-143.4
11
103.15
21
-143.4
0
LINE
8
Black
10
103.15
20
-143.4
11
103.15
21
-144.6
0
LINE
8
Black
10
103.53
20
-157.1
11
102.93
21
-157.1
0
LINE
8
Black
10
102.93
20
-157.1
11
102.93
21
-154.9
0
LINE
8
Black
10
102.93
20
-154.9
11
103.53
21
-154.9
0
LINE
8
Black
10
103.53
20
-154.9
11
103.53
21
-157.1
0
LINE
8
Black
10
103.53
20
-162.307
11
102.93
21
-162.307
0
LINE
8
Black
10
102.93
20
-162.307
11
102.93
21
-160.107
0
LINE
8
Black
10
102.93
20
-160.107
11
103.53
21
-160.107
0
LINE
8
Black
10
103.53
20
-160.107
11
103.53
21
-162.307
0
LINE
8
Black
10
103.65
20
-136.1
11
103.35
21
-136.1
0
LINE
8
Black
10
103.35
20
-136.1
11
103.35
21
-134.9
0
LINE
8
Black
10
103.35
20
-134.9
11
103.65
21
-134.9
0
LINE
8
Black
10
103.65
20
-134.9
11
103.65
21
-136.1
0
LINE
8
Black
10
103.65
20
-144.6
11
103.35
21
-144.6
0
LINE
8
Black
10
103.35
20
-144.6
11
103.35
21
-143.4
0
LINE
8
Black
10
103.35
20
-143.4
11
103.65
21
-143.4
0
LINE
8
Black
10
103.65
20
-143.4
11
103.65
21
-144.6
0
LINE
8
Black
10
104.15
20
-136.1
11
103.85
21
-136.1
0
LINE
8
Black
10
103.85
20
-136.1
11
103.85
21
-134.9
0
LINE
8
Black
10
103.85
20
-134.9
11
104.15
21
-134.9
0
LINE
8
Black
10
104.15
20
-134.9
11
104.15
21
-136.1
0
LINE
8
Black
10
104.15
20
-144.6
11
103.85
21
-144.6
0
LINE
8
Black
10
103.85
20
-144.6
11
103.85
21
-143.4
0
LINE
8
Black
10
103.85
20
-143.4
11
104.15
21
-143.4
0
LINE
8
Black
10
104.15
20
-143.4
11
104.15
21
-144.6
0
LINE
8
Black
10
104.2
20
-152.15
11
103.5
21
-152.15
0
LINE
8
Black
10
103.5
20
-152.15
11
103.5
21
-151.35
0
LINE
8
Black
10
103.5
20
-151.35
11
104.2
21
-151.35
0
LINE
8
Black
10
104.2
20
-151.35
11
104.2
21
-152.15
0
LINE
8
Black
10
104.4
20
-122.25
11
103.6
21
-122.25
0
LINE
8
Black
10
103.6
20
-122.25
11
103.6
21
-121.45
0
LINE
8
Black
10
103.6
20
-121.45
11
104.4
21
-121.45
0
LINE
8
Black
10
104.4
20
-121.45
11
104.4
21
-122.25
0
LINE
8
Black
10
104.4
20
-123.9
11
103.6
21
-123.9
0
LINE
8
Black
10
103.6
20
-123.9
11
103.6
21
-123.1
0
LINE
8
Black
10
103.6
20
-123.1
11
104.4
21
-123.1
0
LINE
8
Black
10
104.4
20
-123.1
11
104.4
21
-123.9
0
LINE
8
Black
10
104.4
20
-125.4
11
103.6
21
-125.4
0
LINE
8
Black
10
103.6
20
-125.4
11
103.6
21
-124.6
0
LINE
8
Black
10
103.6
20
-124.6
11
104.4
21
-124.6
0
LINE
8
Black
10
104.4
20
-124.6
11
104.4
21
-125.4
0
LINE
8
Black
10
104.4
20
-127
11
103.6
21
-127
0
LINE
8
Black
10
103.6
20
-127
11
103.6
21
-126.2
0
LINE
8
Black
10
103.6
20
-126.2
11
104.4
21
-126.2
0
LINE
8
Black
10
104.4
20
-126.2
11
104.4
21
-127
0
LINE
8
Black
10
104.4
20
-145.85
11
103.6
21
-145.85
0
LINE
8
Black
10
103.6
20
-145.85
11
103.6
21
-145.15
0
LINE
8
Black
10
103.6
20
-145.15
11
104.4
21
-145.15
0
LINE
8
Black
10
104.4
20
-145.15
11
104.4
21
-145.85
0
LINE
8
Black
10
104.4
20
-147.25
11
103.6
21
-147.25
0
LINE
8
Black
10
103.6
20
-147.25
11
103.6
21
-146.55
0
LINE
8
Black
10
103.6
20
-146.55
11
104.4
21
-146.55
0
LINE
8
Black
10
104.4
20
-146.55
11
104.4
21
-147.25
0
LINE
8
Black
10
104.65
20
-136.1
11
104.35
21
-136.1
0
LINE
8
Black
10
104.35
20
-136.1
11
104.35
21
-134.9
0
LINE
8
Black
10
104.35
20
-134.9
11
104.65
21
-134.9
0
LINE
8
Black
10
104.65
20
-134.9
11
104.65
21
-136.1
0
LINE
8
Black
10
104.65
20
-144.6
11
104.35
21
-144.6
0
LINE
8
Black
10
104.35
20
-144.6
11
104.35
21
-143.4
0
LINE
8
Black
10
104.35
20
-143.4
11
104.65
21
-143.4
0
LINE
8
Black
10
104.65
20
-143.4
11
104.65
21
-144.6
0
LINE
8
Black
10
104.8
20
-157.1
11
104.2
21
-157.1
0
LINE
8
Black
10
104.2
20
-157.1
11
104.2
21
-154.9
0
LINE
8
Black
10
104.2
20
-154.9
11
104.8
21
-154.9
0
LINE
8
Black
10
104.8
20
-154.9
11
104.8
21
-157.1
0
LINE
8
Black
10
104.8
20
-162.307
11
104.2
21
-162.307
0
LINE
8
Black
10
104.2
20
-162.307
11
104.2
21
-160.107
0
LINE
8
Black
10
104.2
20
-160.107
11
104.8
21
-160.107
0
LINE
8
Black
10
104.8
20
-160.107
11
104.8
21
-162.307
0
LINE
8
Black
10
105.15
20
-136.1
11
104.85
21
-136.1
0
LINE
8
Black
10
104.85
20
-136.1
11
104.85
21
-134.9
0
LINE
8
Black
10
104.85
20
-134.9
11
105.15
21
-134.9
0
LINE
8
Black
10
105.15
20
-134.9
11
105.15
21
-136.1
0
LINE
8
Black
10
105.15
20
-144.6
11
104.85
21
-144.6
0
LINE
8
Black
10
104.85
20
-144.6
11
104.85
21
-143.4
0
LINE
8
Black
10
104.85
20
-143.4
11
105.15
21
-143.4
0
LINE
8
Black
10
105.15
20
-143.4
11
105.15
21
-144.6
0
LINE
8
Black
10
105.6
20
-152.15
11
104.9
21
-152.15
0
LINE
8
Black
10
104.9
20
-152.15
11
104.9
21
-151.35
0
LINE
8
Black
10
104.9
20
-151.35
11
105.6
21
-151.35
0
LINE
8
Black
10
105.6
20
-151.35
11
105.6
21
-152.15
0
LINE
8
Black
10
105.65
20
-136.1
11
105.35
21
-136.1
0
LINE
8
Black
10
105.35
20
-136.1
11
105.35
21
-134.9
0
LINE
8
Black
10
105.35
20
-134.9
11
105.65
21
-134.9
0
LINE
8
Black
10
105.65
20
-134.9
11
105.65
21
-136.1
0
LINE
8
Black
10
105.65
20
-144.6
11
105.35
21
-144.6
0
LINE
8
Black
10
105.35
20
-144.6
11
105.35
21
-143.4
0
LINE
8
Black
10
105.35
20
-143.4
11
105.65
21
-143.4
0
LINE
8
Black
10
105.65
20
-143.4
11
105.65
21
-144.6
0
LINE
8
Black
10
105.7
20
-145.85
11
104.9
21
-145.85
0
LINE
8
Black
10
104.9
20
-145.85
11
104.9
21
-145.15
0
LINE
8
Black
10
104.9
20
-145.15
11
105.7
21
-145.15
0
LINE
8
Black
10
105.7
20
-145.15
11
105.7
21
-145.85
0
LINE
8
Black
10
105.7
20
-147.25
11
104.9
21
-147.25
0
LINE
8
Black
10
104.9
20
-147.25
11
104.9
21
-146.55
0
LINE
8
Black
10
104.9
20
-146.55
11
105.7
21
-146.55
0
LINE
8
Black
10
105.7
20
-146.55
11
105.7
21
-147.25
0
LINE
8
Black
10
106.4
20
-156.85
11
105.6
21
-156.85
0
LINE
8
Black
10
105.6
20
-156.85
11
105.6
21
-156.15
0
LINE
8
Black
10
105.6
20
-156.15
11
106.4
21
-156.15
0
LINE
8
Black
10
106.4
20
-156.15
11
106.4
21
-156.85
0
LINE
8
Black
10
106.4
20
-158.25
11
105.6
21
-158.25
0
LINE
8
Black
10
105.6
20
-158.25
11
105.6
21
-157.55
0
LINE
8
Black
10
105.6
20
-157.55
11
106.4
21
-157.55
0
LINE
8
Black
10
106.4
20
-157.55
11
106.4
21
-158.25
0
LINE
8
Black
10
106.4
20
-159.85
11
105.6
21
-159.85
0
LINE
8
Black
10
105.6
20
-159.85
11
105.6
21
-159.15
0
LINE
8
Black
10
105.6
20
-159.15
11
106.4
21
-159.15
0
LINE
8
Black
10
106.4
20
-159.15
11
106.4
21
-159.85
0
LINE
8
Black
10
106.4
20
-161.25
11
105.6
21
-161.25
0
LINE
8
Black
10
105.6
20
-161.25
11
105.6
21
-160.55
0
LINE
8
Black
10
105.6
20
-160.55
11
106.4
21
-160.55
0
LINE
8
Black
10
106.4
20
-160.55
11
106.4
21
-161.25
0
LINE
8
Black
10
106.45
20
-150.5
11
104.15
21
-150.5
0
LINE
8
Black
10
104.15
20
-150.5
11
104.15
21
-148
0
LINE
8
Black
10
104.15
20
-148
11
106.45
21
-148
0
LINE
8
Black
10
106.45
20
-148
11
106.45
21
-150.5
0
LINE
8
Black
10
107
20
-130.45
11
106.2
21
-130.45
0
LINE
8
Black
10
106.2
20
-130.45
11
106.2
21
-129.75
0
LINE
8
Black
10
106.2
20
-129.75
11
107
21
-129.75
0
LINE
8
Black
10
107
20
-129.75
11
107
21
-130.45
0
LINE
8
Black
10
107
20
-131.85
11
106.2
21
-131.85
0
LINE
8
Black
10
106.2
20
-131.85
11
106.2
21
-131.15
0
LINE
8
Black
10
106.2
20
-131.15
11
107
21
-131.15
0
LINE
8
Black
10
107
20
-131.15
11
107
21
-131.85
0
LINE
8
Black
10
107.6
20
-137.15
11
106.4
21
-137.15
0
LINE
8
Black
10
106.4
20
-137.15
11
106.4
21
-136.85
0
LINE
8
Black
10
106.4
20
-136.85
11
107.6
21
-136.85
0
LINE
8
Black
10
107.6
20
-136.85
11
107.6
21
-137.15
0
LINE
8
Black
10
107.6
20
-137.65
11
106.4
21
-137.65
0
LINE
8
Black
10
106.4
20
-137.65
11
106.4
21
-137.35
0
LINE
8
Black
10
106.4
20
-137.35
11
107.6
21
-137.35
0
LINE
8
Black
10
107.6
20
-137.35
11
107.6
21
-137.65
0
LINE
8
Black
10
107.6
20
-138.15
11
106.4
21
-138.15
0
LINE
8
Black
10
106.4
20
-138.15
11
106.4
21
-137.85
0
LINE
8
Black
10
106.4
20
-137.85
11
107.6
21
-137.85
0
LINE
8
Black
10
107.6
20
-137.85
11
107.6
21
-138.15
0
LINE
8
Black
10
107.6
20
-138.65
11
106.4
21
-138.65
0
LINE
8
Black
10
106.4
20
-138.65
11
106.4
21
-138.35
0
LINE
8
Black
10
106.4
20
-138.35
11
107.6
21
-138.35
0
LINE
8
Black
10
107.6
20
-138.35
11
107.6
21
-138.65
0
LINE
8
Black
10
107.6
20
-139.15
11
106.4
21
-139.15
0
LINE
8
Black
10
106.4
20
-139.15
11
106.4
21
-138.85
0
LINE
8
Black
10
106.4
20
-138.85
11
107.6
21
-138.85
0
LINE
8
Black
10
107.6
20
-138.85
11
107.6
21
-139.15
0
LINE
8
Black
10
107.6
20
-139.65
11
106.4
21
-139.65
0
LINE
8
Black
10
106.4
20
-139.65
11
106.4
21
-139.35
0
LINE
8
Black
10
106.4
20
-139.35
11
107.6
21
-139.35
0
LINE
8
Black
10
107.6
20
-139.35
11
107.6
21
-139.65
0
LINE
8
Black
10
107.6
20
-140.15
11
106.4
21
-140.15
0
LINE
8
Black
10
106.4
20
-140.15
11
106.4
21
-139.85
0
LINE
8
Black
10
106.4
20
-139.85
11
107.6
21
-139.85
0
LINE
8
Black
10
107.6
20
-139.85
11
107.6
21
-140.15
0
LINE
8
Black
10
107.6
20
-140.65
11
106.4
21
-140.65
0
LINE
8
Black
10
106.4
20
-140.65
11
106.4
21
-140.35
0
LINE
8
Black
10
106.4
20
-140.35
11
107.6
21
-140.35
0
LINE
8
Black
10
107.6
20
-140.35
11
107.6
21
-140.65
0
LINE
8
Black
10
107.6
20
-141.15
11
106.4
21
-141.15
0
LINE
8
Black
10
106.4
20
-141.15
11
106.4
21
-140.85
0
LINE
8
Black
10
106.4
20
-140.85
11
107.6
21
-140.85
0
LINE
8
Black
10
107.6
20
-140.85
11
107.6
21
-141.15
0
LINE
8
Black
10
107.6
20
-141.65
11
106.4
21
-141.65
0
LINE
8
Black
10
106.4
20
-141.65
11
106.4
21
-141.35
0
LINE
8
Black
10
106.4
20
-141.35
11
107.6
21
-141.35
0
LINE
8
Black
10
107.6
20
-141.35
11
107.6
21
-141.65
0
LINE
8
Black
10
107.6
20
-142.15
11
106.4
21
-142.15
0
LINE
8
Black
10
106.4
20
-142.15
11
106.4
21
-141.85
0
LINE
8
Black
10
106.4
20
-141.85
11
107.6
21
-141.85
0
LINE
8
Black
10
107.6
20
-141.85
11
107.6
21
-142.15
0
LINE
8
Black
10
107.6
20
-142.65
11
106.4
21
-142.65
0
LINE
8
Black
10
106.4
20
-142.65
11
106.4
21
-142.35
0
LINE
8
Black
10
106.4
20
-142.35
11
107.6
21
-142.35
0
LINE
8
Black
10
107.6
20
-142.35
11
107.6
21
-142.65
0
LINE
8
Black
10
107.9
20
-122.25
11
107.1
21
-122.25
0
LINE
8
Black
10
107.1
20
-122.25
11
107.1
21
-121.45
0
LINE
8
Black
10
107.1
20
-121.45
11
107.9
21
-121.45
0
LINE
8
Black
10
107.9
20
-121.45
11
107.9
21
-122.25
0
LINE
8
Black
10
107.9
20
-123.9
11
107.1
21
-123.9
0
LINE
8
Black
10
107.1
20
-123.9
11
107.1
21
-123.1
0
LINE
8
Black
10
107.1
20
-123.1
11
107.9
21
-123.1
0
LINE
8
Black
10
107.9
20
-123.1
11
107.9
21
-123.9
0
LINE
8
Black
10
107.9
20
-125.4
11
107.1
21
-125.4
0
LINE
8
Black
10
107.1
20
-125.4
11
107.1
21
-124.6
0
LINE
8
Black
10
107.1
20
-124.6
11
107.9
21
-124.6
0
LINE
8
Black
10
107.9
20
-124.6
11
107.9
21
-125.4
0
LINE
8
Black
10
107.9
20
-127
11
107.1
21
-127
0
LINE
8
Black
10
107.1
20
-127
11
107.1
21
-126.2
0
LINE
8
Black
10
107.1
20
-126.2
11
107.9
21
-126.2
0
LINE
8
Black
10
107.9
20
-126.2
11
107.9
21
-127
0
LINE
8
Black
10
108.15
20
-157.05
11
107.35
21
-157.05
0
LINE
8
Black
10
107.35
20
-157.05
11
107.35
21
-156.25
0
LINE
8
Black
10
107.35
20
-156.25
11
108.15
21
-156.25
0
LINE
8
Black
10
108.15
20
-156.25
11
108.15
21
-157.05
0
LINE
8
Black
10
108.15
20
-158.65
11
107.35
21
-158.65
0
LINE
8
Black
10
107.35
20
-158.65
11
107.35
21
-157.85
0
LINE
8
Black
10
107.35
20
-157.85
11
108.15
21
-157.85
0
LINE
8
Black
10
108.15
20
-157.85
11
108.15
21
-158.65
0
LINE
8
Black
10
108.3
20
-161.35
11
107.3
21
-161.35
0
LINE
8
Black
10
107.3
20
-161.35
11
107.3
21
-160.55
0
LINE
8
Black
10
107.3
20
-160.55
11
108.3
21
-160.55
0
LINE
8
Black
10
108.3
20
-160.55
11
108.3
21
-161.35
0
LINE
8
Black
10
108.9
20
-136.6
11
108.1
21
-136.6
0
LINE
8
Black
10
108.1
20
-136.6
11
108.1
21
-135.9
0
LINE
8
Black
10
108.1
20
-135.9
11
108.9
21
-135.9
0
LINE
8
Black
10
108.9
20
-135.9
11
108.9
21
-136.6
0
LINE
8
Black
10
108.9
20
-138
11
108.1
21
-138
0
LINE
8
Black
10
108.1
20
-138
11
108.1
21
-137.3
0
LINE
8
Black
10
108.1
20
-137.3
11
108.9
21
-137.3
0
LINE
8
Black
10
108.9
20
-137.3
11
108.9
21
-138
0
LINE
8
Black
10
109.9
20
-153.9
11
109.1
21
-153.9
0
LINE
8
Black
10
109.1
20
-153.9
11
109.1
21
-153.1
0
LINE
8
Black
10
109.1
20
-153.1
11
109.9
21
-153.1
0
LINE
8
Black
10
109.9
20
-153.1
11
109.9
21
-153.9
0
LINE
8
Black
10
109.9
20
-155.5
11
109.1
21
-155.5
0
LINE
8
Black
10
109.1
20
-155.5
11
109.1
21
-154.7
0
LINE
8
Black
10
109.1
20
-154.7
11
109.9
21
-154.7
0
LINE
8
Black
10
109.9
20
-154.7
11
109.9
21
-155.5
0
LINE
8
Black
10
110.15
20
-157.05
11
109.35
21
-157.05
0
LINE
8
Black
10
109.35
20
-157.05
11
109.35
21
-156.25
0
LINE
8
Black
10
109.35
20
-156.25
11
110.15
21
-156.25
0
LINE
8
Black
10
110.15
20
-156.25
11
110.15
21
-157.05
0
LINE
8
Black
10
110.15
20
-158.65
11
109.35
21
-158.65
0
LINE
8
Black
10
109.35
20
-158.65
11
109.35
21
-157.85
0
LINE
8
Black
10
109.35
20
-157.85
11
110.15
21
-157.85
0
LINE
8
Black
10
110.15
20
-157.85
11
110.15
21
-158.65
0
LINE
8
Black
10
110.3
20
-160.4
11
109.3
21
-160.4
0
LINE
8
Black
10
109.3
20
-160.4
11
109.3
21
-159.6
0
LINE
8
Black
10
109.3
20
-159.6
11
110.3
21
-159.6
0
LINE
8
Black
10
110.3
20
-159.6
11
110.3
21
-160.4
0
LINE
8
Black
10
110.3
20
-162.3
11
109.3
21
-162.3
0
LINE
8
Black
10
109.3
20
-162.3
11
109.3
21
-161.5
0
LINE
8
Black
10
109.3
20
-161.5
11
110.3
21
-161.5
0
LINE
8
Black
10
110.3
20
-161.5
11
110.3
21
-162.3
0
LINE
8
Black
10
111.4
20
-122.25
11
110.6
21
-122.25
0
LINE
8
Black
10
110.6
20
-122.25
11
110.6
21
-121.45
0
LINE
8
Black
10
110.6
20
-121.45
11
111.4
21
-121.45
0
LINE
8
Black
10
111.4
20
-121.45
11
111.4
21
-122.25
0
LINE
8
Black
10
111.4
20
-123.9
11
110.6
21
-123.9
0
LINE
8
Black
10
110.6
20
-123.9
11
110.6
21
-123.1
0
LINE
8
Black
10
110.6
20
-123.1
11
111.4
21
-123.1
0
LINE
8
Black
10
111.4
20
-123.1
11
111.4
21
-123.9
0
LINE
8
Black
10
111.4
20
-125.4
11
110.6
21
-125.4
0
LINE
8
Black
10
110.6
20
-125.4
11
110.6
21
-124.6
0
LINE
8
Black
10
110.6
20
-124.6
11
111.4
21
-124.6
0
LINE
8
Black
10
111.4
20
-124.6
11
111.4
21
-125.4
0
LINE
8
Black
10
111.4
20
-127
11
110.6
21
-127
0
LINE
8
Black
10
110.6
20
-127
11
110.6
21
-126.2
0
LINE
8
Black
10
110.6
20
-126.2
11
111.4
21
-126.2
0
LINE
8
Black
10
111.4
20
-126.2
11
111.4
21
-127
0
LINE
8
Black
10
111.4
20
-150.65
11
110.6
21
-150.65
0
LINE
8
Black
10
110.6
20
-150.65
11
110.6
21
-149.85
0
LINE
8
Black
10
110.6
20
-149.85
11
111.4
21
-149.85
0
LINE
8
Black
10
111.4
20
-149.85
11
111.4
21
-150.65
0
LINE
8
Black
10
111.4
20
-152.25
11
110.6
21
-152.25
0
LINE
8
Black
10
110.6
20
-152.25
11
110.6
21
-151.45
0
LINE
8
Black
10
110.6
20
-151.45
11
111.4
21
-151.45
0
LINE
8
Black
10
111.4
20
-151.45
11
111.4
21
-152.25
0
LINE
8
Black
10
111.4
20
-153.9
11
110.6
21
-153.9
0
LINE
8
Black
10
110.6
20
-153.9
11
110.6
21
-153.1
0
LINE
8
Black
10
110.6
20
-153.1
11
111.4
21
-153.1
0
LINE
8
Black
10
111.4
20
-153.1
11
111.4
21
-153.9
0
LINE
8
Black
10
111.4
20
-155.5
11
110.6
21
-155.5
0
LINE
8
Black
10
110.6
20
-155.5
11
110.6
21
-154.7
0
LINE
8
Black
10
110.6
20
-154.7
11
111.4
21
-154.7
0
LINE
8
Black
10
111.4
20
-154.7
11
111.4
21
-155.5
0
LINE
8
Black
10
112.35
20
-133.9
11
111.65
21
-133.9
0
LINE
8
Black
10
111.65
20
-133.9
11
111.65
21
-133.1
0
LINE
8
Black
10
111.65
20
-133.1
11
112.35
21
-133.1
0
LINE
8
Black
10
112.35
20
-133.1
11
112.35
21
-133.9
0
LINE
8
Black
10
112.8
20
-150.7
11
112
21
-150.7
0
LINE
8
Black
10
112
20
-150.7
11
112
21
-149.9
0
LINE
8
Black
10
112
20
-149.9
11
112.8
21
-149.9
0
LINE
8
Black
10
112.8
20
-149.9
11
112.8
21
-150.7
0
LINE
8
Black
10
112.8
20
-152.2
11
112
21
-152.2
0
LINE
8
Black
10
112
20
-152.2
11
112
21
-151.4
0
LINE
8
Black
10
112
20
-151.4
11
112.8
21
-151.4
0
LINE
8
Black
10
112.8
20
-151.4
11
112.8
21
-152.2
0
LINE
8
Black
10
112.9
20
-153.85
11
112.1
21
-153.85
0
LINE
8
Black
10
112.1
20
-153.85
11
112.1
21
-153.15
0
LINE
8
Black
10
112.1
20
-153.15
11
112.9
21
-153.15
0
LINE
8
Black
10
112.9
20
-153.15
11
112.9
21
-153.85
0
LINE
8
Black
10
112.9
20
-155.25
11
112.1
21
-155.25
0
LINE
8
Black
10
112.1
20
-155.25
11
112.1
21
-154.55
0
LINE
8
Black
10
112.1
20
-154.55
11
112.9
21
-154.55
0
LINE
8
Black
10
112.9
20
-154.55
11
112.9
21
-155.25
0
LINE
8
Black
10
113.75
20
-133.9
11
113.05
21
-133.9
0
LINE
8
Black
10
113.05
20
-133.9
11
113.05
21
-133.1
0
LINE
8
Black
10
113.05
20
-133.1
11
113.75
21
-133.1
0
LINE
8
Black
10
113.75
20
-133.1
11
113.75
21
-133.9
0
LINE
8
Black
10
113.85
20
-162.2
11
112.55
21
-162.2
0
LINE
8
Black
10
112.55
20
-162.2
11
112.55
21
-159.8
0
LINE
8
Black
10
112.55
20
-159.8
11
113.85
21
-159.8
0
LINE
8
Black
10
113.85
20
-159.8
11
113.85
21
-162.2
0
LINE
8
Black
10
114.45
20
-150.7
11
113.65
21
-150.7
0
LINE
8
Black
10
113.65
20
-150.7
11
113.65
21
-149.9
0
LINE
8
Black
10
113.65
20
-149.9
11
114.45
21
-149.9
0
LINE
8
Black
10
114.45
20
-149.9
11
114.45
21
-150.7
0
LINE
8
Black
10
114.45
20
-152.2
11
113.65
21
-152.2
0
LINE
8
Black
10
113.65
20
-152.2
11
113.65
21
-151.4
0
LINE
8
Black
10
113.65
20
-151.4
11
114.45
21
-151.4
0
LINE
8
Black
10
114.45
20
-151.4
11
114.45
21
-152.2
0
LINE
8
Black
10
115.2
20
-166.65
11
114.6
21
-166.65
0
LINE
8
Black
10
114.6
20
-166.65
11
114.6
21
-166.15
0
LINE
8
Black
10
114.6
20
-166.15
11
115.2
21
-166.15
0
LINE
8
Black
10
115.2
20
-166.15
11
115.2
21
-166.65
0
LINE
8
Black
10
116.15
20
-162.2
11
114.85
21
-162.2
0
LINE
8
Black
10
114.85
20
-162.2
11
114.85
21
-159.8
0
LINE
8
Black
10
114.85
20
-159.8
11
116.15
21
-159.8
0
LINE
8
Black
10
116.15
20
-159.8
11
116.15
21
-162.2
0
LINE
8
Black
10
116.3
20
-166.65
11
115.7
21
-166.65
0
LINE
8
Black
10
115.7
20
-166.65
11
115.7
21
-166.15
0
LINE
8
Black
10
115.7
20
-166.15
11
116.3
21
-166.15
0
LINE
8
Black
10
116.3
20
-166.15
11
116.3
21
-166.65
0
LINE
8
Black
10
116.95
20
-163.9
11
116.25
21
-163.9
0
LINE
8
Black
10
116.25
20
-163.9
11
116.25
21
-163.1
0
LINE
8
Black
10
116.25
20
-163.1
11
116.95
21
-163.1
0
LINE
8
Black
10
116.95
20
-163.1
11
116.95
21
-163.9
0
LINE
8
Black
10
117.4
20
-156.1
11
113.6
21
-156.1
0
LINE
8
Black
10
113.6
20
-156.1
11
113.6
21
-153.7
0
LINE
8
Black
10
113.6
20
-153.7
11
117.4
21
-153.7
0
LINE
8
Black
10
117.4
20
-153.7
11
117.4
21
-156.1
0
LINE
8
Black
10
117.5
20
-126.75
11
116.9
21
-126.75
0
LINE
8
Black
10
116.9
20
-126.75
11
116.9
21
-126.25
0
LINE
8
Black
10
116.9
20
-126.25
11
117.5
21
-126.25
0
LINE
8
Black
10
117.5
20
-126.25
11
117.5
21
-126.75
0
LINE
8
Black
10
118.35
20
-163.9
11
117.65
21
-163.9
0
LINE
8
Black
10
117.65
20
-163.9
11
117.65
21
-163.1
0
LINE
8
Black
10
117.65
20
-163.1
11
118.35
21
-163.1
0
LINE
8
Black
10
118.35
20
-163.1
11
118.35
21
-163.9
0
LINE
8
Black
10
118.45
20
-162.2
11
117.15
21
-162.2
0
LINE
8
Black
10
117.15
20
-162.2
11
117.15
21
-159.8
0
LINE
8
Black
10
117.15
20
-159.8
11
118.45
21
-159.8
0
LINE
8
Black
10
118.45
20
-159.8
11
118.45
21
-162.2
0
LINE
8
Black
10
118.6
20
-126.75
11
118
21
-126.75
0
LINE
8
Black
10
118
20
-126.75
11
118
21
-126.25
0
LINE
8
Black
10
118
20
-126.25
11
118.6
21
-126.25
0
LINE
8
Black
10
118.6
20
-126.25
11
118.6
21
-126.75
0
LINE
8
Black
10
119.35
20
-151.9
11
118.65
21
-151.9
0
LINE
8
Black
10
118.65
20
-151.9
11
118.65
21
-151.1
0
LINE
8
Black
10
118.65
20
-151.1
11
119.35
21
-151.1
0
LINE
8
Black
10
119.35
20
-151.1
11
119.35
21
-151.9
0
LINE
8
Black
10
119.4
20
-153.4
11
118.6
21
-153.4
0
LINE
8
Black
10
118.6
20
-153.4
11
118.6
21
-152.6
0
LINE
8
Black
10
118.6
20
-152.6
11
119.4
21
-152.6
0
LINE
8
Black
10
119.4
20
-152.6
11
119.4
21
-153.4
0
LINE
8
Black
10
119.4
20
-155
11
118.6
21
-155
0
LINE
8
Black
10
118.6
20
-155
11
118.6
21
-154.2
0
LINE
8
Black
10
118.6
20
-154.2
11
119.4
21
-154.2
0
LINE
8
Black
10
119.4
20
-154.2
11
119.4
21
-155
0
LINE
8
Black
10
120.4
20
-153.4
11
119.6
21
-153.4
0
LINE
8
Black
10
119.6
20
-153.4
11
119.6
21
-152.6
0
LINE
8
Black
10
119.6
20
-152.6
11
120.4
21
-152.6
0
LINE
8
Black
10
120.4
20
-152.6
11
120.4
21
-153.4
0
LINE
8
Black
10
120.4
20
-155
11
119.6
21
-155
0
LINE
8
Black
10
119.6
20
-155
11
119.6
21
-154.2
0
LINE
8
Black
10
119.6
20
-154.2
11
120.4
21
-154.2
0
LINE
8
Black
10
120.4
20
-154.2
11
120.4
21
-155
0
LINE
8
Black
10
120.4
20
-157.85
11
119.6
21
-157.85
0
LINE
8
Black
10
119.6
20
-157.85
11
119.6
21
-157.15
0
LINE
8
Black
10
119.6
20
-157.15
11
120.4
21
-157.15
0
LINE
8
Black
10
120.4
20
-157.15
11
120.4
21
-157.85
0
LINE
8
Black
10
120.4
20
-159.25
11
119.6
21
-159.25
0
LINE
8
Black
10
119.6
20
-159.25
11
119.6
21
-158.55
0
LINE
8
Black
10
119.6
20
-158.55
11
120.4
21
-158.55
0
LINE
8
Black
10
120.4
20
-158.55
11
120.4
21
-159.25
0
LINE
8
Black
10
120.75
20
-151.9
11
120.05
21
-151.9
0
LINE
8
Black
10
120.05
20
-151.9
11
120.05
21
-151.1
0
LINE
8
Black
10
120.05
20
-151.1
11
120.75
21
-151.1
0
LINE
8
Black
10
120.75
20
-151.1
11
120.75
21
-151.9
0
LINE
8
Black
10
121.75
20
-156.7
11
121.35
21
-156.7
0
LINE
8
Black
10
121.35
20
-156.7
11
121.35
21
-155.3
0
LINE
8
Black
10
121.35
20
-155.3
11
121.75
21
-155.3
0
LINE
8
Black
10
121.75
20
-155.3
11
121.75
21
-156.7
0
LINE
8
Black
10
121.75
20
-161.1
11
121.35
21
-161.1
0
LINE
8
Black
10
121.35
20
-161.1
11
121.35
21
-159.7
0
LINE
8
Black
10
121.35
20
-159.7
11
121.75
21
-159.7
0
LINE
8
Black
10
121.75
20
-159.7
11
121.75
21
-161.1
0
LINE
8
Black
10
121.95
20
-154.4
11
121.25
21
-154.4
0
LINE
8
Black
10
121.25
20
-154.4
11
121.25
21
-153.6
0
LINE
8
Black
10
121.25
20
-153.6
11
121.95
21
-153.6
0
LINE
8
Black
10
121.95
20
-153.6
11
121.95
21
-154.4
0
LINE
8
Black
10
121.95
20
-162.9
11
121.25
21
-162.9
0
LINE
8
Black
10
121.25
20
-162.9
11
121.25
21
-162.1
0
LINE
8
Black
10
121.25
20
-162.1
11
121.95
21
-162.1
0
LINE
8
Black
10
121.95
20
-162.1
11
121.95
21
-162.9
0
LINE
8
Black
10
122.3
20
-166.75
11
121.7
21
-166.75
0
LINE
8
Black
10
121.7
20
-166.75
11
121.7
21
-166.25
0
LINE
8
Black
10
121.7
20
-166.25
11
122.3
21
-166.25
0
LINE
8
Black
10
122.3
20
-166.25
11
122.3
21
-166.75
0
LINE
8
Black
10
122.4
20
-156.7
11
122
21
-156.7
0
LINE
8
Black
10
122
20
-156.7
11
122
21
-155.3
0
LINE
8
Black
10
122
20
-155.3
11
122.4
21
-155.3
0
LINE
8
Black
10
122.4
20
-155.3
11
122.4
21
-156.7
0
LINE
8
Black
10
122.4
20
-161.1
11
122
21
-161.1
0
LINE
8
Black
10
122
20
-161.1
11
122
21
-159.7
0
LINE
8
Black
10
122
20
-159.7
11
122.4
21
-159.7
0
LINE
8
Black
10
122.4
20
-159.7
11
122.4
21
-161.1
0
LINE
8
Black
10
123.05
20
-156.7
11
122.65
21
-156.7
0
LINE
8
Black
10
122.65
20
-156.7
11
122.65
21
-155.3
0
LINE
8
Black
10
122.65
20
-155.3
11
123.05
21
-155.3
0
LINE
8
Black
10
123.05
20
-155.3
11
123.05
21
-156.7
0
LINE
8
Black
10
123.05
20
-161.1
11
122.65
21
-161.1
0
LINE
8
Black
10
122.65
20
-161.1
11
122.65
21
-159.7
0
LINE
8
Black
10
122.65
20
-159.7
11
123.05
21
-159.7
0
LINE
8
Black
10
123.05
20
-159.7
11
123.05
21
-161.1
0
LINE
8
Black
10
123.35
20
-154.4
11
122.65
21
-154.4
0
LINE
8
Black
10
122.65
20
-154.4
11
122.65
21
-153.6
0
LINE
8
Black
10
122.65
20
-153.6
11
123.35
21
-153.6
0
LINE
8
Black
10
123.35
20
-153.6
11
123.35
21
-154.4
0
LINE
8
Black
10
123.35
20
-162.9
11
122.65
21
-162.9
0
LINE
8
Black
10
122.65
20
-162.9
11
122.65
21
-162.1
0
LINE
8
Black
10
122.65
20
-162.1
11
123.35
21
-162.1
0
LINE
8
Black
10
123.35
20
-162.1
11
123.35
21
-162.9
0
LINE
8
Black
10
123.4
20
-166.75
11
122.8
21
-166.75
0
LINE
8
Black
10
122.8
20
-166.75
11
122.8
21
-166.25
0
LINE
8
Black
10
122.8
20
-166.25
11
123.4
21
-166.25
0
LINE
8
Black
10
123.4
20
-166.25
11
123.4
21
-166.75
0
LINE
8
Black
10
123.7
20
-156.7
11
123.3
21
-156.7
0
LINE
8
Black
10
123.3
20
-156.7
11
123.3
21
-155.3
0
LINE
8
Black
10
123.3
20
-155.3
11
123.7
21
-155.3
0
LINE
8
Black
10
123.7
20
-155.3
11
123.7
21
-156.7
0
LINE
8
Black
10
123.7
20
-161.1
11
123.3
21
-161.1
0
LINE
8
Black
10
123.3
20
-161.1
11
123.3
21
-159.7
0
LINE
8
Black
10
123.3
20
-159.7
11
123.7
21
-159.7
0
LINE
8
Black
10
123.7
20
-159.7
11
123.7
21
-161.1
0
LINE
8
Black
10
127.3
20
-154.4
11
126.5
21
-154.4
0
LINE
8
Black
10
126.5
20
-154.4
11
126.5
21
-153.6
0
LINE
8
Black
10
126.5
20
-153.6
11
127.3
21
-153.6
0
LINE
8
Black
10
127.3
20
-153.6
11
127.3
21
-154.4
0
LINE
8
Black
10
127.3
20
-155.9
11
126.5
21
-155.9
0
LINE
8
Black
10
126.5
20
-155.9
11
126.5
21
-155.1
0
LINE
8
Black
10
126.5
20
-155.1
11
127.3
21
-155.1
0
LINE
8
Black
10
127.3
20
-155.1
11
127.3
21
-155.9
0
LINE
8
Black
10
128.9
20
-154.4
11
128.1
21
-154.4
0
LINE
8
Black
10
128.1
20
-154.4
11
128.1
21
-153.6
0
LINE
8
Black
10
128.1
20
-153.6
11
128.9
21
-153.6
0
LINE
8
Black
10
128.9
20
-153.6
11
128.9
21
-154.4
0
LINE
8
Black
10
128.9
20
-155.9
11
128.1
21
-155.9
0
LINE
8
Black
10
128.1
20
-155.9
11
128.1
21
-155.1
0
LINE
8
Black
10
128.1
20
-155.1
11
128.9
21
-155.1
0
LINE
8
Black
10
128.9
20
-155.1
11
128.9
21
-155.9
0
LINE
8
Black
10
129.25
20
-165.55
11
128.75
21
-165.55
0
LINE
8
Black
10
128.75
20
-165.55
11
128.75
21
-164.95
0
LINE
8
Black
10
128.75
20
-164.95
11
129.25
21
-164.95
0
LINE
8
Black
10
129.25
20
-164.95
11
129.25
21
-165.55
0
LINE
8
Black
10
129.25
20
-166.65
11
128.75
21
-166.65
0
LINE
8
Black
10
128.75
20
-166.65
11
128.75
21
-166.05
0
LINE
8
Black
10
128.75
20
-166.05
11
129.25
21
-166.05
0
LINE
8
Black
10
129.25
20
-166.05
11
129.25
21
-166.65
0
LINE
8
Black
10
130.25
20
-165.55
11
129.75
21
-165.55
0
LINE
8
Black
10
129.75
20
-165.55
11
129.75
21
-164.95
0
LINE
8
Black
10
129.75
20
-164.95
11
130.25
21
-164.95
0
LINE
8
Black
10
130.25
20
-164.95
11
130.25
21
-165.55
0
LINE
8
Black
10
130.25
20
-166.65
11
129.75
21
-166.65
0
LINE
8
Black
10
129.75
20
-166.65
11
129.75
21
-166.05
0
LINE
8
Black
10
129.75
20
-166.05
11
130.25
21
-166.05
0
LINE
8
Black
10
130.25
20
-166.05
11
130.25
21
-166.65
0
LINE
8
Black
10
130.566
20
-126.444
11
131.065
21
-126.731
0
LINE
8
Black
10
131.065
20
-126.731
11
131.434
21
-127.172
0
LINE
8
Black
10
131.434
20
-127.172
11
131.631
21
-127.712
0
LINE
8
Black
10
131.631
20
-127.712
11
131.631
21
-128.288
0
LINE
8
Black
10
131.631
20
-128.288
11
131.434
21
-128.828
0
LINE
8
Black
10
131.434
20
-128.828
11
131.065
21
-129.269
0
LINE
8
Black
10
131.065
20
-129.269
11
130.566
21
-129.556
0
LINE
8
Black
10
130.566
20
-129.556
11
130
21
-129.656
0
LINE
8
Black
10
130
20
-129.656
11
129.434
21
-129.556
0
LINE
8
Black
10
129.434
20
-129.556
11
128.935
21
-129.269
0
LINE
8
Black
10
128.935
20
-129.269
11
128.566
21
-128.828
0
LINE
8
Black
10
128.566
20
-128.828
11
128.369
21
-128.288
0
LINE
8
Black
10
128.369
20
-128.288
11
128.369
21
-127.712
0
LINE
8
Black
10
128.369
20
-127.712
11
128.566
21
-127.172
0
LINE
8
Black
10
128.566
20
-127.172
11
128.935
21
-126.731
0
LINE
8
Black
10
128.935
20
-126.731
11
129.434
21
-126.444
0
LINE
8
Black
10
129.434
20
-126.444
11
130
21
-126.344
0
LINE
8
Black
10
130
20
-126.344
11
130.566
21
-126.444
0
LINE
8
Black
10
130.566
20
-158.444
11
131.065
21
-158.731
0
LINE
8
Black
10
131.065
20
-158.731
11
131.434
21
-159.172
0
LINE
8
Black
10
131.434
20
-159.172
11
131.631
21
-159.712
0
LINE
8
Black
10
131.631
20
-159.712
11
131.631
21
-160.288
0
LINE
8
Black
10
131.631
20
-160.288
11
131.434
21
-160.828
0
LINE
8
Black
10
131.434
20
-160.828
11
131.065
21
-161.269
0
LINE
8
Black
10
131.065
20
-161.269
11
130.566
21
-161.556
0
LINE
8
Black
10
130.566
20
-161.556
11
130
21
-161.656
0
LINE
8
Black
10
130
20
-161.656
11
129.434
21
-161.556
0
LINE
8
Black
10
129.434
20
-161.556
11
128.935
21
-161.269
0
LINE
8
Black
10
128.935
20
-161.269
11
128.566
21
-160.828
0
LINE
8
Black
10
128.566
20
-160.828
11
128.369
21
-160.288
0
LINE
8
Black
10
128.369
20
-160.288
11
128.369
21
-159.712
0
LINE
8
Black
10
128.369
20
-159.712
11
128.566
21
-159.172
0
LINE
8
Black
10
128.566
20
-159.172
11
128.935
21
-158.731
0
LINE
8
Black
10
128.935
20
-158.731
11
129.434
21
-158.444
0
LINE
8
Black
10
129.434
20
-158.444
11
130
21
-158.344
0
LINE
8
Black
10
130
20
-158.344
11
130.566
21
-158.444
  0
ENDSEC
  0
EOF
