%FSLAX46Y46*%
G04 Gerber Fmt 4.6, Leading zero omitted, Abs format (unit mm)*
G04 Created by KiCad (PCBNEW (2014-jul-16 BZR unknown)-product) date Wed 23 Jul 2014 05:49:59 BST*
%MOMM*%
G01*
G04 APERTURE LIST*
%ADD10C,0.100000*%
%ADD11R,4.650000X5.000000*%
%ADD12C,1.700000*%
%ADD13C,0.300000*%
%ADD14R,3.500000X1.800000*%
%ADD15R,1.900000X0.900000*%
%ADD16C,1.016000*%
%ADD17R,2.413000X5.080000*%
%ADD18C,1.400000*%
%ADD19C,1.500000*%
%ADD20C,3.400000*%
%ADD21C,0.800000*%
%ADD22C,0.300000*%
%ADD23C,1.500000*%
%ADD24C,1.000000*%
%ADD25C,0.500000*%
%ADD26C,0.280000*%
G04 APERTURE END LIST*
D10*
D11*
X121575000Y-61750000D03*
X128425000Y-61750000D03*
D12*
X161600000Y-99600000D03*
X159600000Y-99600000D03*
X143100000Y-99100000D03*
X143100000Y-101100000D03*
X143100000Y-103100000D03*
X143100000Y-105100000D03*
X143100000Y-107100000D03*
X143100000Y-109100000D03*
D13*
X152450000Y-81500000D03*
X153050000Y-81500000D03*
X151850000Y-81500000D03*
X151250000Y-81500000D03*
X150650000Y-81500000D03*
X150050000Y-81500000D03*
X149450000Y-81500000D03*
X148850000Y-81500000D03*
X148250000Y-81500000D03*
X151250000Y-81000000D03*
X150650000Y-81000000D03*
X150050000Y-81000000D03*
X149450000Y-81000000D03*
X148850000Y-81000000D03*
X148850000Y-82000000D03*
X149450000Y-82000000D03*
X150050000Y-82000000D03*
X150650000Y-82000000D03*
X151250000Y-82000000D03*
X148250000Y-82000000D03*
X148250000Y-81000000D03*
D14*
X149750000Y-81500000D03*
D15*
X152450000Y-81500000D03*
D16*
X119730000Y-93500000D03*
X121000000Y-93500000D03*
X119730000Y-94770000D03*
X121000000Y-94770000D03*
X119730000Y-96040000D03*
X121000000Y-96040000D03*
X119730000Y-97310000D03*
X121000000Y-97310000D03*
X119730000Y-98580000D03*
X121000000Y-98580000D03*
D17*
X153368500Y-61750000D03*
X162131500Y-61750000D03*
D18*
X123200000Y-105000000D03*
X123200000Y-109880000D03*
D19*
X142000000Y-67250000D03*
X144000000Y-67250000D03*
X146000000Y-67250000D03*
X148000000Y-67250000D03*
X126000000Y-125750000D03*
X124000000Y-125750000D03*
X122000000Y-125750000D03*
X120000000Y-125750000D03*
X138000000Y-125750000D03*
X136000000Y-125750000D03*
X134000000Y-125750000D03*
X132000000Y-125750000D03*
X162000000Y-125750000D03*
X160000000Y-125750000D03*
X146000000Y-125750000D03*
X144000000Y-125750000D03*
X154000000Y-125750000D03*
X152000000Y-125750000D03*
D20*
X121000000Y-117000000D03*
X161000000Y-74000000D03*
X121000000Y-74000000D03*
X161000000Y-117000000D03*
D21*
X150300000Y-83300000D03*
X131000000Y-77000000D03*
X131000000Y-75000000D03*
X131000000Y-73000000D03*
X131000000Y-71000000D03*
X131000000Y-69000000D03*
X133000000Y-67000000D03*
X135000000Y-65000000D03*
X134000000Y-63000000D03*
X132000000Y-63000000D03*
X132000000Y-65000000D03*
X130000000Y-66000000D03*
X129000000Y-67000000D03*
X129000000Y-69000000D03*
X129000000Y-71000000D03*
X129000000Y-73000000D03*
X129000000Y-75000000D03*
X129000000Y-77000000D03*
X129000000Y-79000000D03*
X130000000Y-80000000D03*
X131000000Y-79000000D03*
X132000000Y-78000000D03*
X133000000Y-76000000D03*
X133000000Y-74000000D03*
X133000000Y-72000000D03*
X133000000Y-70000000D03*
X135000000Y-69000000D03*
X136000000Y-67000000D03*
X137000000Y-66000000D03*
X137000000Y-64000000D03*
X137000000Y-62000000D03*
X136000000Y-61000000D03*
X134000000Y-61000000D03*
X132000000Y-61000000D03*
X120000000Y-67000000D03*
X122000000Y-71000000D03*
X123000000Y-76000000D03*
X122000000Y-77000000D03*
X120000000Y-79000000D03*
X118000000Y-80000000D03*
X118000000Y-78000000D03*
X118000000Y-76000000D03*
X118000000Y-74000000D03*
X118000000Y-72000000D03*
X118000000Y-70000000D03*
X118000000Y-68000000D03*
X118000000Y-66000000D03*
X118000000Y-64000000D03*
X118000000Y-62000000D03*
X119500000Y-90400000D03*
X141100000Y-82500000D03*
X128450000Y-89200000D03*
X133650000Y-86550000D03*
X123200000Y-79700000D03*
X120600000Y-107400000D03*
X126200000Y-111800000D03*
X138800000Y-120900000D03*
X138000000Y-112300000D03*
X131900000Y-113500000D03*
X145800000Y-121500000D03*
X145400000Y-97000000D03*
X143900000Y-95100000D03*
X141200000Y-95100000D03*
X128000000Y-66800000D03*
X128000000Y-65700000D03*
X128000000Y-67900000D03*
X120900000Y-68500000D03*
X123100000Y-85100000D03*
X119600000Y-102000000D03*
X127600000Y-104200000D03*
X147500000Y-74100000D03*
X140900000Y-78200000D03*
X139500000Y-71100000D03*
X154500000Y-93200000D03*
X154900000Y-69300000D03*
X151000000Y-74250000D03*
X137500000Y-95750000D03*
X161000000Y-122300000D03*
X121600000Y-65200000D03*
X128400000Y-64900000D03*
X162100000Y-65200000D03*
X153400000Y-65200000D03*
X131300000Y-106600000D03*
X122300000Y-99400000D03*
X136200000Y-81100000D03*
X140600000Y-85550000D03*
X138700000Y-85600000D03*
X144250000Y-110400000D03*
X148000000Y-110400000D03*
X128500000Y-100700000D03*
X126000000Y-101300000D03*
X119800000Y-88300000D03*
X124400000Y-88300000D03*
X134450000Y-83200000D03*
X131450000Y-82550000D03*
X123600000Y-89400000D03*
X119800000Y-89400000D03*
X132450000Y-82150000D03*
X134550000Y-82150000D03*
X140500000Y-83450000D03*
X138700000Y-83450000D03*
X138700000Y-84500000D03*
X140550000Y-84500000D03*
X148000000Y-112600000D03*
X144250000Y-112550000D03*
X148000000Y-111500000D03*
X144250000Y-111500000D03*
X123200000Y-96150000D03*
X123900000Y-91850000D03*
X122850000Y-91850000D03*
X122750000Y-97100000D03*
X121950000Y-91300000D03*
X122150000Y-97950000D03*
X141750000Y-100000000D03*
X125450000Y-93950000D03*
X128750000Y-94750000D03*
D22*
X128425000Y-61750000D02*
X131250000Y-61750000D01*
X131000000Y-75000000D02*
X131000000Y-77000000D01*
X131000000Y-71000000D02*
X131000000Y-73000000D01*
X133000000Y-67000000D02*
X131000000Y-69000000D01*
X135000000Y-64000000D02*
X135000000Y-65000000D01*
X134000000Y-63000000D02*
X135000000Y-64000000D01*
X132000000Y-65000000D02*
X132000000Y-63000000D01*
X129000000Y-67000000D02*
X130000000Y-66000000D01*
X129000000Y-71000000D02*
X129000000Y-69000000D01*
X129000000Y-75000000D02*
X129000000Y-73000000D01*
X129000000Y-79000000D02*
X129000000Y-77000000D01*
X131000000Y-79000000D02*
X130000000Y-80000000D01*
X133000000Y-77000000D02*
X132000000Y-78000000D01*
X133000000Y-76000000D02*
X133000000Y-77000000D01*
X133000000Y-72000000D02*
X133000000Y-74000000D01*
X134000000Y-69000000D02*
X133000000Y-70000000D01*
X135000000Y-69000000D02*
X134000000Y-69000000D01*
X137000000Y-66000000D02*
X136000000Y-67000000D01*
X137000000Y-62000000D02*
X137000000Y-64000000D01*
X134000000Y-61000000D02*
X136000000Y-61000000D01*
X131250000Y-61750000D02*
X132000000Y-61000000D01*
X124000000Y-73000000D02*
X122000000Y-71000000D01*
X124000000Y-75000000D02*
X124000000Y-73000000D01*
X123000000Y-76000000D02*
X124000000Y-75000000D01*
X120000000Y-79000000D02*
X122000000Y-77000000D01*
X118000000Y-78000000D02*
X118000000Y-80000000D01*
X118000000Y-74000000D02*
X118000000Y-76000000D01*
X118000000Y-70000000D02*
X118000000Y-72000000D01*
X118000000Y-66000000D02*
X118000000Y-68000000D01*
X118000000Y-62000000D02*
X118000000Y-64000000D01*
X119600000Y-90400000D02*
X119900000Y-90700000D01*
X119500000Y-90400000D02*
X119600000Y-90400000D01*
X141100000Y-82000000D02*
X141100000Y-82500000D01*
D23*
X154000000Y-125750000D02*
X154000000Y-123250000D01*
D24*
X117920000Y-98580000D02*
X117900000Y-98600000D01*
X119730000Y-98580000D02*
X117920000Y-98580000D01*
X117940000Y-96040000D02*
X117900000Y-96000000D01*
X119730000Y-96040000D02*
X117940000Y-96040000D01*
X117870000Y-94770000D02*
X117800000Y-94700000D01*
X119730000Y-94770000D02*
X117870000Y-94770000D01*
D25*
X144000000Y-109100000D02*
X145000000Y-108100000D01*
X143100000Y-109100000D02*
X144000000Y-109100000D01*
X142000000Y-109100000D02*
X141700000Y-108800000D01*
X143100000Y-109100000D02*
X142000000Y-109100000D01*
X159600000Y-99600000D02*
X158100000Y-99600000D01*
X122300000Y-100100000D02*
X122300000Y-99400000D01*
D26*
X138750000Y-85550000D02*
X140600000Y-85550000D01*
X138700000Y-85600000D02*
X138750000Y-85550000D01*
X144250000Y-110400000D02*
X148000000Y-110400000D01*
X127900000Y-101300000D02*
X126000000Y-101300000D01*
X128500000Y-100700000D02*
X127900000Y-101300000D01*
D22*
X119800000Y-88300000D02*
X124400000Y-88300000D01*
X134450000Y-83200000D02*
X132400000Y-83200000D01*
X132400000Y-83200000D02*
X131750000Y-82550000D01*
X131750000Y-82550000D02*
X131450000Y-82550000D01*
X119800000Y-89400000D02*
X120100000Y-89100000D01*
X123650000Y-89400000D02*
X123600000Y-89400000D01*
X123350000Y-89100000D02*
X123650000Y-89400000D01*
X120100000Y-89100000D02*
X123350000Y-89100000D01*
X134550000Y-82150000D02*
X132450000Y-82150000D01*
D26*
X140500000Y-83450000D02*
X138700000Y-83450000D01*
X138700000Y-84500000D02*
X140550000Y-84500000D01*
D22*
X144300000Y-112600000D02*
X148000000Y-112600000D01*
X144250000Y-112550000D02*
X144300000Y-112600000D01*
X147900000Y-111500000D02*
X148000000Y-111500000D01*
X144250000Y-111500000D02*
X147900000Y-111500000D01*
D26*
X123200000Y-96150000D02*
X122930002Y-95880002D01*
X122930002Y-95880002D02*
X122930002Y-92819998D01*
X122930002Y-92819998D02*
X123900000Y-91850000D01*
X122450000Y-92250000D02*
X122850000Y-91850000D01*
X122450000Y-96800000D02*
X122450000Y-92250000D01*
X122750000Y-97100000D02*
X122450000Y-96800000D01*
X122150000Y-97950000D02*
X121900000Y-97700000D01*
X121900000Y-97700000D02*
X121900000Y-91350000D01*
X121900000Y-91350000D02*
X121950000Y-91300000D01*
X143250000Y-103000000D02*
X143100000Y-103100000D01*
X141750000Y-100000000D02*
X141750000Y-103000000D01*
X141750000Y-103000000D02*
X143250000Y-103000000D01*
X127950000Y-93950000D02*
X125450000Y-93950000D01*
X128750000Y-94750000D02*
X127950000Y-93950000D01*
D25*
G36*
X164750000Y-123750000D02*
X164088000Y-123750000D01*
X164088000Y-64439185D01*
X164088000Y-64140816D01*
X164088000Y-62187500D01*
X163900500Y-62000000D01*
X162381500Y-62000000D01*
X162381500Y-64852500D01*
X162569000Y-65040000D01*
X163487184Y-65040000D01*
X163762841Y-64925819D01*
X163973819Y-64714841D01*
X164088000Y-64439185D01*
X164088000Y-123750000D01*
X163450424Y-123750000D01*
X163450424Y-116514803D01*
X163450424Y-73514803D01*
X163078220Y-72614000D01*
X162389625Y-71924202D01*
X161881500Y-71713210D01*
X161881500Y-64852500D01*
X161881500Y-62000000D01*
X160362500Y-62000000D01*
X160175000Y-62187500D01*
X160175000Y-64140816D01*
X160175000Y-64439185D01*
X160289181Y-64714841D01*
X160500159Y-64925819D01*
X160775816Y-65040000D01*
X161694000Y-65040000D01*
X161881500Y-64852500D01*
X161881500Y-71713210D01*
X161489473Y-71550427D01*
X160514803Y-71549576D01*
X159614000Y-71921780D01*
X158924202Y-72610375D01*
X158550427Y-73510527D01*
X158549576Y-74485197D01*
X158921780Y-75386000D01*
X159610375Y-76075798D01*
X160510527Y-76449573D01*
X161485197Y-76450424D01*
X162386000Y-76078220D01*
X163075798Y-75389625D01*
X163449573Y-74489473D01*
X163450424Y-73514803D01*
X163450424Y-116514803D01*
X163200277Y-115909400D01*
X163200277Y-99283137D01*
X162957205Y-98694857D01*
X162507511Y-98244377D01*
X161919656Y-98000278D01*
X161283137Y-97999723D01*
X160694857Y-98242795D01*
X160244377Y-98692489D01*
X160000278Y-99280344D01*
X159999723Y-99916863D01*
X160242795Y-100505143D01*
X160692489Y-100955623D01*
X161280344Y-101199722D01*
X161916863Y-101200277D01*
X162505143Y-100957205D01*
X162955623Y-100507511D01*
X163199722Y-99919656D01*
X163200277Y-99283137D01*
X163200277Y-115909400D01*
X163078220Y-115614000D01*
X162389625Y-114924202D01*
X161489473Y-114550427D01*
X160514803Y-114549576D01*
X159614000Y-114921780D01*
X158924202Y-115610375D01*
X158550427Y-116510527D01*
X158549576Y-117485197D01*
X158921780Y-118386000D01*
X159610375Y-119075798D01*
X160510527Y-119449573D01*
X161485197Y-119450424D01*
X162386000Y-119078220D01*
X163075798Y-118389625D01*
X163449573Y-117489473D01*
X163450424Y-116514803D01*
X163450424Y-123750000D01*
X155325000Y-123750000D01*
X155325000Y-64439185D01*
X155325000Y-64140816D01*
X155325000Y-62187500D01*
X155137500Y-62000000D01*
X153618500Y-62000000D01*
X153618500Y-64852500D01*
X153806000Y-65040000D01*
X154724184Y-65040000D01*
X154999841Y-64925819D01*
X155210819Y-64714841D01*
X155325000Y-64439185D01*
X155325000Y-123750000D01*
X153118500Y-123750000D01*
X153118500Y-64852500D01*
X153118500Y-62000000D01*
X151599500Y-62000000D01*
X151412000Y-62187500D01*
X151412000Y-64140816D01*
X151412000Y-64439185D01*
X151526181Y-64714841D01*
X151737159Y-64925819D01*
X152012816Y-65040000D01*
X152931000Y-65040000D01*
X153118500Y-64852500D01*
X153118500Y-123750000D01*
X149150199Y-123750000D01*
X149150199Y-112372254D01*
X149016934Y-112049728D01*
X149149800Y-111729753D01*
X149150199Y-111272254D01*
X149016934Y-110949728D01*
X149149800Y-110629753D01*
X149150199Y-110172254D01*
X148975491Y-109749428D01*
X148652273Y-109425646D01*
X148229753Y-109250200D01*
X147772254Y-109249801D01*
X147349428Y-109424509D01*
X147263787Y-109510000D01*
X144986480Y-109510000D01*
X144902273Y-109425646D01*
X144700277Y-109341769D01*
X144700277Y-106783137D01*
X144457205Y-106194857D01*
X144362742Y-106100229D01*
X144455623Y-106007511D01*
X144699722Y-105419656D01*
X144700277Y-104783137D01*
X144457205Y-104194857D01*
X144362742Y-104100229D01*
X144455623Y-104007511D01*
X144699722Y-103419656D01*
X144700277Y-102783137D01*
X144457205Y-102194857D01*
X144362742Y-102100229D01*
X144455623Y-102007511D01*
X144699722Y-101419656D01*
X144700277Y-100783137D01*
X144457205Y-100194857D01*
X144362742Y-100100229D01*
X144455623Y-100007511D01*
X144699722Y-99419656D01*
X144700277Y-98783137D01*
X144457205Y-98194857D01*
X144007511Y-97744377D01*
X143419656Y-97500278D01*
X142783137Y-97499723D01*
X142194857Y-97742795D01*
X141744377Y-98192489D01*
X141500278Y-98780344D01*
X141500209Y-98858909D01*
X141099428Y-99024509D01*
X140775646Y-99347727D01*
X140600200Y-99770247D01*
X140599801Y-100227746D01*
X140774509Y-100650572D01*
X140860000Y-100736212D01*
X140860000Y-103000000D01*
X140927747Y-103340588D01*
X141120675Y-103629325D01*
X141409412Y-103822253D01*
X141690313Y-103878127D01*
X141742795Y-104005143D01*
X141837257Y-104099770D01*
X141744377Y-104192489D01*
X141500278Y-104780344D01*
X141499723Y-105416863D01*
X141742795Y-106005143D01*
X141837257Y-106099770D01*
X141744377Y-106192489D01*
X141500278Y-106780344D01*
X141499723Y-107416863D01*
X141742795Y-108005143D01*
X142192489Y-108455623D01*
X142780344Y-108699722D01*
X143416863Y-108700277D01*
X144005143Y-108457205D01*
X144455623Y-108007511D01*
X144699722Y-107419656D01*
X144700277Y-106783137D01*
X144700277Y-109341769D01*
X144479753Y-109250200D01*
X144022254Y-109249801D01*
X143599428Y-109424509D01*
X143275646Y-109747727D01*
X143100200Y-110170247D01*
X143099801Y-110627746D01*
X143233065Y-110950271D01*
X143100200Y-111270247D01*
X143099801Y-111727746D01*
X143222710Y-112025209D01*
X143100200Y-112320247D01*
X143099801Y-112777746D01*
X143274509Y-113200572D01*
X143597727Y-113524354D01*
X144020247Y-113699800D01*
X144477746Y-113700199D01*
X144900572Y-113525491D01*
X144926107Y-113500000D01*
X147273502Y-113500000D01*
X147347727Y-113574354D01*
X147770247Y-113749800D01*
X148227746Y-113750199D01*
X148650572Y-113575491D01*
X148974354Y-113252273D01*
X149149800Y-112829753D01*
X149150199Y-112372254D01*
X149150199Y-123750000D01*
X135700199Y-123750000D01*
X135700199Y-81922254D01*
X135525491Y-81499428D01*
X135202273Y-81175646D01*
X134779753Y-81000200D01*
X134322254Y-80999801D01*
X133899428Y-81174509D01*
X133823805Y-81250000D01*
X133176497Y-81250000D01*
X133102273Y-81175646D01*
X132679753Y-81000200D01*
X132222254Y-80999801D01*
X131799428Y-81174509D01*
X131573436Y-81400107D01*
X131500000Y-81400043D01*
X131500000Y-64399185D01*
X131500000Y-64100816D01*
X131500000Y-62187500D01*
X131312500Y-62000000D01*
X128675000Y-62000000D01*
X128675000Y-64812500D01*
X128862500Y-65000000D01*
X130899184Y-65000000D01*
X131174841Y-64885819D01*
X131385819Y-64674841D01*
X131500000Y-64399185D01*
X131500000Y-81400043D01*
X131222254Y-81399801D01*
X130799428Y-81574509D01*
X130475646Y-81897727D01*
X130300200Y-82320247D01*
X130299801Y-82777746D01*
X130474509Y-83200572D01*
X130797727Y-83524354D01*
X131220247Y-83699800D01*
X131627363Y-83700155D01*
X131763604Y-83836396D01*
X132055585Y-84031492D01*
X132400000Y-84100000D01*
X133723502Y-84100000D01*
X133797727Y-84174354D01*
X134220247Y-84349800D01*
X134677746Y-84350199D01*
X135100572Y-84175491D01*
X135424354Y-83852273D01*
X135599800Y-83429753D01*
X135600199Y-82972254D01*
X135527166Y-82795500D01*
X135699800Y-82379753D01*
X135700199Y-81922254D01*
X135700199Y-123750000D01*
X129900199Y-123750000D01*
X129900199Y-94522254D01*
X129725491Y-94099428D01*
X129402273Y-93775646D01*
X128979753Y-93600200D01*
X128858744Y-93600094D01*
X128579325Y-93320675D01*
X128290589Y-93127747D01*
X128175000Y-93104755D01*
X128175000Y-64812500D01*
X128175000Y-62000000D01*
X125537500Y-62000000D01*
X125350000Y-62187500D01*
X125350000Y-64100816D01*
X125350000Y-64399185D01*
X125464181Y-64674841D01*
X125675159Y-64885819D01*
X125950816Y-65000000D01*
X127987500Y-65000000D01*
X128175000Y-64812500D01*
X128175000Y-93104755D01*
X127950000Y-93060000D01*
X126186480Y-93060000D01*
X126102273Y-92975646D01*
X125679753Y-92800200D01*
X125550199Y-92800087D01*
X125550199Y-88072254D01*
X125375491Y-87649428D01*
X125052273Y-87325646D01*
X124650000Y-87158607D01*
X124650000Y-64399185D01*
X124650000Y-64100816D01*
X124650000Y-62187500D01*
X124462500Y-62000000D01*
X121825000Y-62000000D01*
X121825000Y-64812500D01*
X122012500Y-65000000D01*
X124049184Y-65000000D01*
X124324841Y-64885819D01*
X124535819Y-64674841D01*
X124650000Y-64399185D01*
X124650000Y-87158607D01*
X124629753Y-87150200D01*
X124172254Y-87149801D01*
X123749428Y-87324509D01*
X123673805Y-87400000D01*
X123450424Y-87400000D01*
X123450424Y-73514803D01*
X123078220Y-72614000D01*
X122389625Y-71924202D01*
X121489473Y-71550427D01*
X121325000Y-71550283D01*
X121325000Y-64812500D01*
X121325000Y-62000000D01*
X118687500Y-62000000D01*
X118500000Y-62187500D01*
X118500000Y-64100816D01*
X118500000Y-64399185D01*
X118614181Y-64674841D01*
X118825159Y-64885819D01*
X119100816Y-65000000D01*
X121137500Y-65000000D01*
X121325000Y-64812500D01*
X121325000Y-71550283D01*
X120514803Y-71549576D01*
X119614000Y-71921780D01*
X118924202Y-72610375D01*
X118550427Y-73510527D01*
X118549576Y-74485197D01*
X118921780Y-75386000D01*
X119610375Y-76075798D01*
X120510527Y-76449573D01*
X121485197Y-76450424D01*
X122386000Y-76078220D01*
X123075798Y-75389625D01*
X123449573Y-74489473D01*
X123450424Y-73514803D01*
X123450424Y-87400000D01*
X120526497Y-87400000D01*
X120452273Y-87325646D01*
X120029753Y-87150200D01*
X119572254Y-87149801D01*
X119149428Y-87324509D01*
X118825646Y-87647727D01*
X118650200Y-88070247D01*
X118649801Y-88527746D01*
X118783065Y-88850271D01*
X118650200Y-89170247D01*
X118649801Y-89627746D01*
X118824509Y-90050572D01*
X119147727Y-90374354D01*
X119570247Y-90549800D01*
X120027746Y-90550199D01*
X120450572Y-90375491D01*
X120774354Y-90052273D01*
X120796059Y-90000000D01*
X122603613Y-90000000D01*
X122624509Y-90050572D01*
X122947727Y-90374354D01*
X123370247Y-90549800D01*
X123827746Y-90550199D01*
X124250572Y-90375491D01*
X124574354Y-90052273D01*
X124749800Y-89629753D01*
X124750000Y-89399684D01*
X125050572Y-89275491D01*
X125374354Y-88952273D01*
X125549800Y-88529753D01*
X125550199Y-88072254D01*
X125550199Y-92800087D01*
X125222254Y-92799801D01*
X125050199Y-92870892D01*
X125050199Y-91622254D01*
X124875491Y-91199428D01*
X124552273Y-90875646D01*
X124129753Y-90700200D01*
X123672254Y-90699801D01*
X123374790Y-90822710D01*
X123079753Y-90700200D01*
X122946421Y-90700083D01*
X122925491Y-90649428D01*
X122602273Y-90325646D01*
X122179753Y-90150200D01*
X121722254Y-90149801D01*
X121299428Y-90324509D01*
X120975646Y-90647727D01*
X120800200Y-91070247D01*
X120799801Y-91527746D01*
X120974509Y-91950572D01*
X121010000Y-91986124D01*
X121010000Y-92242008D01*
X120750866Y-92241782D01*
X120364620Y-92401374D01*
X119981330Y-92242219D01*
X119480866Y-92241782D01*
X119018331Y-92432897D01*
X118664141Y-92786470D01*
X118472219Y-93248670D01*
X118471782Y-93749134D01*
X118662897Y-94211669D01*
X118666697Y-94215476D01*
X118565273Y-94232793D01*
X118448352Y-94719408D01*
X118526551Y-95213725D01*
X118565273Y-95307207D01*
X118659787Y-95323343D01*
X118741444Y-95404999D01*
X118659787Y-95486656D01*
X118565273Y-95502793D01*
X118448352Y-95989408D01*
X118526551Y-96483725D01*
X118565273Y-96577207D01*
X118666179Y-96594435D01*
X118664141Y-96596470D01*
X118472219Y-97058670D01*
X118471782Y-97559134D01*
X118662897Y-98021669D01*
X118666697Y-98025476D01*
X118565273Y-98042793D01*
X118448352Y-98529408D01*
X118526551Y-99023725D01*
X118565273Y-99117207D01*
X118799286Y-99157161D01*
X119376447Y-98580000D01*
X119362304Y-98565857D01*
X119395087Y-98533074D01*
X119478670Y-98567781D01*
X119742010Y-98568010D01*
X119741782Y-98829134D01*
X119777137Y-98914700D01*
X119744142Y-98947695D01*
X119730000Y-98933553D01*
X119152839Y-99510714D01*
X119192793Y-99744727D01*
X119679408Y-99861648D01*
X120173725Y-99783449D01*
X120267207Y-99744727D01*
X120284435Y-99643820D01*
X120286470Y-99645859D01*
X120748670Y-99837781D01*
X121249134Y-99838218D01*
X121711669Y-99647103D01*
X122065859Y-99293530D01*
X122146220Y-99099997D01*
X122377746Y-99100199D01*
X122800572Y-98925491D01*
X123124354Y-98602273D01*
X123299800Y-98179753D01*
X123299854Y-98117106D01*
X123400572Y-98075491D01*
X123724354Y-97752273D01*
X123899800Y-97329753D01*
X123900021Y-97076127D01*
X124174354Y-96802273D01*
X124349800Y-96379753D01*
X124350199Y-95922254D01*
X124175491Y-95499428D01*
X123852273Y-95175646D01*
X123820002Y-95162245D01*
X123820002Y-93188648D01*
X124008554Y-93000095D01*
X124127746Y-93000199D01*
X124550572Y-92825491D01*
X124874354Y-92502273D01*
X125049800Y-92079753D01*
X125050199Y-91622254D01*
X125050199Y-92870892D01*
X124799428Y-92974509D01*
X124475646Y-93297727D01*
X124300200Y-93720247D01*
X124299801Y-94177746D01*
X124474509Y-94600572D01*
X124797727Y-94924354D01*
X125220247Y-95099800D01*
X125677746Y-95100199D01*
X126100572Y-94925491D01*
X126186212Y-94840000D01*
X127581350Y-94840000D01*
X127599904Y-94858554D01*
X127599801Y-94977746D01*
X127774509Y-95400572D01*
X128097727Y-95724354D01*
X128520247Y-95899800D01*
X128977746Y-95900199D01*
X129400572Y-95725491D01*
X129724354Y-95402273D01*
X129899800Y-94979753D01*
X129900199Y-94522254D01*
X129900199Y-123750000D01*
X129650199Y-123750000D01*
X129650199Y-100472254D01*
X129475491Y-100049428D01*
X129152273Y-99725646D01*
X128729753Y-99550200D01*
X128272254Y-99549801D01*
X127849428Y-99724509D01*
X127525646Y-100047727D01*
X127375216Y-100410000D01*
X126736480Y-100410000D01*
X126652273Y-100325646D01*
X126229753Y-100150200D01*
X125772254Y-100149801D01*
X125349428Y-100324509D01*
X125025646Y-100647727D01*
X124850200Y-101070247D01*
X124849801Y-101527746D01*
X125024509Y-101950572D01*
X125347727Y-102274354D01*
X125770247Y-102449800D01*
X126227746Y-102450199D01*
X126650572Y-102275491D01*
X126736212Y-102190000D01*
X127900000Y-102190000D01*
X128240588Y-102122253D01*
X128240589Y-102122253D01*
X128529325Y-101929325D01*
X128608554Y-101850095D01*
X128727746Y-101850199D01*
X129150572Y-101675491D01*
X129474354Y-101352273D01*
X129649800Y-100929753D01*
X129650199Y-100472254D01*
X129650199Y-123750000D01*
X124650251Y-123750000D01*
X124650251Y-109592843D01*
X124650251Y-104712843D01*
X124429967Y-104179714D01*
X124022431Y-103771467D01*
X123489688Y-103550252D01*
X122912843Y-103549749D01*
X122379714Y-103770033D01*
X121971467Y-104177569D01*
X121750252Y-104710312D01*
X121749749Y-105287157D01*
X121970033Y-105820286D01*
X122377569Y-106228533D01*
X122910312Y-106449748D01*
X123487157Y-106450251D01*
X124020286Y-106229967D01*
X124428533Y-105822431D01*
X124649748Y-105289688D01*
X124650251Y-104712843D01*
X124650251Y-109592843D01*
X124429967Y-109059714D01*
X124022431Y-108651467D01*
X123489688Y-108430252D01*
X122912843Y-108429749D01*
X122379714Y-108650033D01*
X121971467Y-109057569D01*
X121750252Y-109590312D01*
X121749749Y-110167157D01*
X121970033Y-110700286D01*
X122377569Y-111108533D01*
X122910312Y-111329748D01*
X123487157Y-111330251D01*
X124020286Y-111109967D01*
X124428533Y-110702431D01*
X124649748Y-110169688D01*
X124650251Y-109592843D01*
X124650251Y-123750000D01*
X123450424Y-123750000D01*
X123450424Y-116514803D01*
X123078220Y-115614000D01*
X122389625Y-114924202D01*
X121489473Y-114550427D01*
X120514803Y-114549576D01*
X119614000Y-114921780D01*
X118924202Y-115610375D01*
X118550427Y-116510527D01*
X118549576Y-117485197D01*
X118921780Y-118386000D01*
X119610375Y-119075798D01*
X120510527Y-119449573D01*
X121485197Y-119450424D01*
X122386000Y-119078220D01*
X123075798Y-118389625D01*
X123449573Y-117489473D01*
X123450424Y-116514803D01*
X123450424Y-123750000D01*
X118103553Y-123750000D01*
X117250000Y-122896447D01*
X117250000Y-87000000D01*
X117250000Y-85000000D01*
X117250000Y-82000000D01*
X117250000Y-80000000D01*
X117250000Y-76000000D01*
X117250000Y-61103553D01*
X118103553Y-60250000D01*
X118500000Y-60250000D01*
X118500000Y-61312500D01*
X118687500Y-61500000D01*
X121325000Y-61500000D01*
X121325000Y-61480000D01*
X121825000Y-61480000D01*
X121825000Y-61500000D01*
X124462500Y-61500000D01*
X124650000Y-61312500D01*
X124650000Y-60250000D01*
X125350000Y-60250000D01*
X125350000Y-61312500D01*
X125537500Y-61500000D01*
X128175000Y-61500000D01*
X128175000Y-61480000D01*
X128675000Y-61480000D01*
X128675000Y-61500000D01*
X131312500Y-61500000D01*
X131500000Y-61312500D01*
X131500000Y-60250000D01*
X136896447Y-60250000D01*
X137750000Y-61103553D01*
X137750000Y-80000000D01*
X137750000Y-82000000D01*
X137750000Y-82773415D01*
X137725646Y-82797727D01*
X137550200Y-83220247D01*
X137549801Y-83677746D01*
X137672710Y-83975209D01*
X137550200Y-84270247D01*
X137549801Y-84727746D01*
X137683065Y-85050271D01*
X137550200Y-85370247D01*
X137549801Y-85827746D01*
X137724509Y-86250572D01*
X138047727Y-86574354D01*
X138470247Y-86749800D01*
X138927746Y-86750199D01*
X139350572Y-86575491D01*
X139486299Y-86440000D01*
X139863519Y-86440000D01*
X139947727Y-86524354D01*
X140370247Y-86699800D01*
X140827746Y-86700199D01*
X141250572Y-86525491D01*
X141574354Y-86202273D01*
X141749800Y-85779753D01*
X141750199Y-85322254D01*
X141602351Y-84964434D01*
X141699800Y-84729753D01*
X141700199Y-84272254D01*
X141552351Y-83914434D01*
X141649800Y-83679753D01*
X141650199Y-83222254D01*
X141475491Y-82799428D01*
X141152273Y-82475646D01*
X140729753Y-82300200D01*
X140272254Y-82299801D01*
X139849428Y-82474509D01*
X139763787Y-82560000D01*
X139436480Y-82560000D01*
X139352273Y-82475646D01*
X139250000Y-82433178D01*
X139250000Y-70103553D01*
X140103553Y-69250000D01*
X150103553Y-69250000D01*
X151250000Y-68103553D01*
X151250000Y-61103553D01*
X151412000Y-60941553D01*
X151412000Y-61312500D01*
X151599500Y-61500000D01*
X153118500Y-61500000D01*
X153118500Y-61480000D01*
X153618500Y-61480000D01*
X153618500Y-61500000D01*
X155137500Y-61500000D01*
X155325000Y-61312500D01*
X155325000Y-60250000D01*
X160175000Y-60250000D01*
X160175000Y-61312500D01*
X160362500Y-61500000D01*
X161881500Y-61500000D01*
X161881500Y-61480000D01*
X162381500Y-61480000D01*
X162381500Y-61500000D01*
X163900500Y-61500000D01*
X164088000Y-61312500D01*
X164088000Y-60441553D01*
X164750000Y-61103553D01*
X164750000Y-123750000D01*
X164750000Y-123750000D01*
G37*
X164750000Y-123750000D02*
X164088000Y-123750000D01*
X164088000Y-64439185D01*
X164088000Y-64140816D01*
X164088000Y-62187500D01*
X163900500Y-62000000D01*
X162381500Y-62000000D01*
X162381500Y-64852500D01*
X162569000Y-65040000D01*
X163487184Y-65040000D01*
X163762841Y-64925819D01*
X163973819Y-64714841D01*
X164088000Y-64439185D01*
X164088000Y-123750000D01*
X163450424Y-123750000D01*
X163450424Y-116514803D01*
X163450424Y-73514803D01*
X163078220Y-72614000D01*
X162389625Y-71924202D01*
X161881500Y-71713210D01*
X161881500Y-64852500D01*
X161881500Y-62000000D01*
X160362500Y-62000000D01*
X160175000Y-62187500D01*
X160175000Y-64140816D01*
X160175000Y-64439185D01*
X160289181Y-64714841D01*
X160500159Y-64925819D01*
X160775816Y-65040000D01*
X161694000Y-65040000D01*
X161881500Y-64852500D01*
X161881500Y-71713210D01*
X161489473Y-71550427D01*
X160514803Y-71549576D01*
X159614000Y-71921780D01*
X158924202Y-72610375D01*
X158550427Y-73510527D01*
X158549576Y-74485197D01*
X158921780Y-75386000D01*
X159610375Y-76075798D01*
X160510527Y-76449573D01*
X161485197Y-76450424D01*
X162386000Y-76078220D01*
X163075798Y-75389625D01*
X163449573Y-74489473D01*
X163450424Y-73514803D01*
X163450424Y-116514803D01*
X163200277Y-115909400D01*
X163200277Y-99283137D01*
X162957205Y-98694857D01*
X162507511Y-98244377D01*
X161919656Y-98000278D01*
X161283137Y-97999723D01*
X160694857Y-98242795D01*
X160244377Y-98692489D01*
X160000278Y-99280344D01*
X159999723Y-99916863D01*
X160242795Y-100505143D01*
X160692489Y-100955623D01*
X161280344Y-101199722D01*
X161916863Y-101200277D01*
X162505143Y-100957205D01*
X162955623Y-100507511D01*
X163199722Y-99919656D01*
X163200277Y-99283137D01*
X163200277Y-115909400D01*
X163078220Y-115614000D01*
X162389625Y-114924202D01*
X161489473Y-114550427D01*
X160514803Y-114549576D01*
X159614000Y-114921780D01*
X158924202Y-115610375D01*
X158550427Y-116510527D01*
X158549576Y-117485197D01*
X158921780Y-118386000D01*
X159610375Y-119075798D01*
X160510527Y-119449573D01*
X161485197Y-119450424D01*
X162386000Y-119078220D01*
X163075798Y-118389625D01*
X163449573Y-117489473D01*
X163450424Y-116514803D01*
X163450424Y-123750000D01*
X155325000Y-123750000D01*
X155325000Y-64439185D01*
X155325000Y-64140816D01*
X155325000Y-62187500D01*
X155137500Y-62000000D01*
X153618500Y-62000000D01*
X153618500Y-64852500D01*
X153806000Y-65040000D01*
X154724184Y-65040000D01*
X154999841Y-64925819D01*
X155210819Y-64714841D01*
X155325000Y-64439185D01*
X155325000Y-123750000D01*
X153118500Y-123750000D01*
X153118500Y-64852500D01*
X153118500Y-62000000D01*
X151599500Y-62000000D01*
X151412000Y-62187500D01*
X151412000Y-64140816D01*
X151412000Y-64439185D01*
X151526181Y-64714841D01*
X151737159Y-64925819D01*
X152012816Y-65040000D01*
X152931000Y-65040000D01*
X153118500Y-64852500D01*
X153118500Y-123750000D01*
X149150199Y-123750000D01*
X149150199Y-112372254D01*
X149016934Y-112049728D01*
X149149800Y-111729753D01*
X149150199Y-111272254D01*
X149016934Y-110949728D01*
X149149800Y-110629753D01*
X149150199Y-110172254D01*
X148975491Y-109749428D01*
X148652273Y-109425646D01*
X148229753Y-109250200D01*
X147772254Y-109249801D01*
X147349428Y-109424509D01*
X147263787Y-109510000D01*
X144986480Y-109510000D01*
X144902273Y-109425646D01*
X144700277Y-109341769D01*
X144700277Y-106783137D01*
X144457205Y-106194857D01*
X144362742Y-106100229D01*
X144455623Y-106007511D01*
X144699722Y-105419656D01*
X144700277Y-104783137D01*
X144457205Y-104194857D01*
X144362742Y-104100229D01*
X144455623Y-104007511D01*
X144699722Y-103419656D01*
X144700277Y-102783137D01*
X144457205Y-102194857D01*
X144362742Y-102100229D01*
X144455623Y-102007511D01*
X144699722Y-101419656D01*
X144700277Y-100783137D01*
X144457205Y-100194857D01*
X144362742Y-100100229D01*
X144455623Y-100007511D01*
X144699722Y-99419656D01*
X144700277Y-98783137D01*
X144457205Y-98194857D01*
X144007511Y-97744377D01*
X143419656Y-97500278D01*
X142783137Y-97499723D01*
X142194857Y-97742795D01*
X141744377Y-98192489D01*
X141500278Y-98780344D01*
X141500209Y-98858909D01*
X141099428Y-99024509D01*
X140775646Y-99347727D01*
X140600200Y-99770247D01*
X140599801Y-100227746D01*
X140774509Y-100650572D01*
X140860000Y-100736212D01*
X140860000Y-103000000D01*
X140927747Y-103340588D01*
X141120675Y-103629325D01*
X141409412Y-103822253D01*
X141690313Y-103878127D01*
X141742795Y-104005143D01*
X141837257Y-104099770D01*
X141744377Y-104192489D01*
X141500278Y-104780344D01*
X141499723Y-105416863D01*
X141742795Y-106005143D01*
X141837257Y-106099770D01*
X141744377Y-106192489D01*
X141500278Y-106780344D01*
X141499723Y-107416863D01*
X141742795Y-108005143D01*
X142192489Y-108455623D01*
X142780344Y-108699722D01*
X143416863Y-108700277D01*
X144005143Y-108457205D01*
X144455623Y-108007511D01*
X144699722Y-107419656D01*
X144700277Y-106783137D01*
X144700277Y-109341769D01*
X144479753Y-109250200D01*
X144022254Y-109249801D01*
X143599428Y-109424509D01*
X143275646Y-109747727D01*
X143100200Y-110170247D01*
X143099801Y-110627746D01*
X143233065Y-110950271D01*
X143100200Y-111270247D01*
X143099801Y-111727746D01*
X143222710Y-112025209D01*
X143100200Y-112320247D01*
X143099801Y-112777746D01*
X143274509Y-113200572D01*
X143597727Y-113524354D01*
X144020247Y-113699800D01*
X144477746Y-113700199D01*
X144900572Y-113525491D01*
X144926107Y-113500000D01*
X147273502Y-113500000D01*
X147347727Y-113574354D01*
X147770247Y-113749800D01*
X148227746Y-113750199D01*
X148650572Y-113575491D01*
X148974354Y-113252273D01*
X149149800Y-112829753D01*
X149150199Y-112372254D01*
X149150199Y-123750000D01*
X135700199Y-123750000D01*
X135700199Y-81922254D01*
X135525491Y-81499428D01*
X135202273Y-81175646D01*
X134779753Y-81000200D01*
X134322254Y-80999801D01*
X133899428Y-81174509D01*
X133823805Y-81250000D01*
X133176497Y-81250000D01*
X133102273Y-81175646D01*
X132679753Y-81000200D01*
X132222254Y-80999801D01*
X131799428Y-81174509D01*
X131573436Y-81400107D01*
X131500000Y-81400043D01*
X131500000Y-64399185D01*
X131500000Y-64100816D01*
X131500000Y-62187500D01*
X131312500Y-62000000D01*
X128675000Y-62000000D01*
X128675000Y-64812500D01*
X128862500Y-65000000D01*
X130899184Y-65000000D01*
X131174841Y-64885819D01*
X131385819Y-64674841D01*
X131500000Y-64399185D01*
X131500000Y-81400043D01*
X131222254Y-81399801D01*
X130799428Y-81574509D01*
X130475646Y-81897727D01*
X130300200Y-82320247D01*
X130299801Y-82777746D01*
X130474509Y-83200572D01*
X130797727Y-83524354D01*
X131220247Y-83699800D01*
X131627363Y-83700155D01*
X131763604Y-83836396D01*
X132055585Y-84031492D01*
X132400000Y-84100000D01*
X133723502Y-84100000D01*
X133797727Y-84174354D01*
X134220247Y-84349800D01*
X134677746Y-84350199D01*
X135100572Y-84175491D01*
X135424354Y-83852273D01*
X135599800Y-83429753D01*
X135600199Y-82972254D01*
X135527166Y-82795500D01*
X135699800Y-82379753D01*
X135700199Y-81922254D01*
X135700199Y-123750000D01*
X129900199Y-123750000D01*
X129900199Y-94522254D01*
X129725491Y-94099428D01*
X129402273Y-93775646D01*
X128979753Y-93600200D01*
X128858744Y-93600094D01*
X128579325Y-93320675D01*
X128290589Y-93127747D01*
X128175000Y-93104755D01*
X128175000Y-64812500D01*
X128175000Y-62000000D01*
X125537500Y-62000000D01*
X125350000Y-62187500D01*
X125350000Y-64100816D01*
X125350000Y-64399185D01*
X125464181Y-64674841D01*
X125675159Y-64885819D01*
X125950816Y-65000000D01*
X127987500Y-65000000D01*
X128175000Y-64812500D01*
X128175000Y-93104755D01*
X127950000Y-93060000D01*
X126186480Y-93060000D01*
X126102273Y-92975646D01*
X125679753Y-92800200D01*
X125550199Y-92800087D01*
X125550199Y-88072254D01*
X125375491Y-87649428D01*
X125052273Y-87325646D01*
X124650000Y-87158607D01*
X124650000Y-64399185D01*
X124650000Y-64100816D01*
X124650000Y-62187500D01*
X124462500Y-62000000D01*
X121825000Y-62000000D01*
X121825000Y-64812500D01*
X122012500Y-65000000D01*
X124049184Y-65000000D01*
X124324841Y-64885819D01*
X124535819Y-64674841D01*
X124650000Y-64399185D01*
X124650000Y-87158607D01*
X124629753Y-87150200D01*
X124172254Y-87149801D01*
X123749428Y-87324509D01*
X123673805Y-87400000D01*
X123450424Y-87400000D01*
X123450424Y-73514803D01*
X123078220Y-72614000D01*
X122389625Y-71924202D01*
X121489473Y-71550427D01*
X121325000Y-71550283D01*
X121325000Y-64812500D01*
X121325000Y-62000000D01*
X118687500Y-62000000D01*
X118500000Y-62187500D01*
X118500000Y-64100816D01*
X118500000Y-64399185D01*
X118614181Y-64674841D01*
X118825159Y-64885819D01*
X119100816Y-65000000D01*
X121137500Y-65000000D01*
X121325000Y-64812500D01*
X121325000Y-71550283D01*
X120514803Y-71549576D01*
X119614000Y-71921780D01*
X118924202Y-72610375D01*
X118550427Y-73510527D01*
X118549576Y-74485197D01*
X118921780Y-75386000D01*
X119610375Y-76075798D01*
X120510527Y-76449573D01*
X121485197Y-76450424D01*
X122386000Y-76078220D01*
X123075798Y-75389625D01*
X123449573Y-74489473D01*
X123450424Y-73514803D01*
X123450424Y-87400000D01*
X120526497Y-87400000D01*
X120452273Y-87325646D01*
X120029753Y-87150200D01*
X119572254Y-87149801D01*
X119149428Y-87324509D01*
X118825646Y-87647727D01*
X118650200Y-88070247D01*
X118649801Y-88527746D01*
X118783065Y-88850271D01*
X118650200Y-89170247D01*
X118649801Y-89627746D01*
X118824509Y-90050572D01*
X119147727Y-90374354D01*
X119570247Y-90549800D01*
X120027746Y-90550199D01*
X120450572Y-90375491D01*
X120774354Y-90052273D01*
X120796059Y-90000000D01*
X122603613Y-90000000D01*
X122624509Y-90050572D01*
X122947727Y-90374354D01*
X123370247Y-90549800D01*
X123827746Y-90550199D01*
X124250572Y-90375491D01*
X124574354Y-90052273D01*
X124749800Y-89629753D01*
X124750000Y-89399684D01*
X125050572Y-89275491D01*
X125374354Y-88952273D01*
X125549800Y-88529753D01*
X125550199Y-88072254D01*
X125550199Y-92800087D01*
X125222254Y-92799801D01*
X125050199Y-92870892D01*
X125050199Y-91622254D01*
X124875491Y-91199428D01*
X124552273Y-90875646D01*
X124129753Y-90700200D01*
X123672254Y-90699801D01*
X123374790Y-90822710D01*
X123079753Y-90700200D01*
X122946421Y-90700083D01*
X122925491Y-90649428D01*
X122602273Y-90325646D01*
X122179753Y-90150200D01*
X121722254Y-90149801D01*
X121299428Y-90324509D01*
X120975646Y-90647727D01*
X120800200Y-91070247D01*
X120799801Y-91527746D01*
X120974509Y-91950572D01*
X121010000Y-91986124D01*
X121010000Y-92242008D01*
X120750866Y-92241782D01*
X120364620Y-92401374D01*
X119981330Y-92242219D01*
X119480866Y-92241782D01*
X119018331Y-92432897D01*
X118664141Y-92786470D01*
X118472219Y-93248670D01*
X118471782Y-93749134D01*
X118662897Y-94211669D01*
X118666697Y-94215476D01*
X118565273Y-94232793D01*
X118448352Y-94719408D01*
X118526551Y-95213725D01*
X118565273Y-95307207D01*
X118659787Y-95323343D01*
X118741444Y-95404999D01*
X118659787Y-95486656D01*
X118565273Y-95502793D01*
X118448352Y-95989408D01*
X118526551Y-96483725D01*
X118565273Y-96577207D01*
X118666179Y-96594435D01*
X118664141Y-96596470D01*
X118472219Y-97058670D01*
X118471782Y-97559134D01*
X118662897Y-98021669D01*
X118666697Y-98025476D01*
X118565273Y-98042793D01*
X118448352Y-98529408D01*
X118526551Y-99023725D01*
X118565273Y-99117207D01*
X118799286Y-99157161D01*
X119376447Y-98580000D01*
X119362304Y-98565857D01*
X119395087Y-98533074D01*
X119478670Y-98567781D01*
X119742010Y-98568010D01*
X119741782Y-98829134D01*
X119777137Y-98914700D01*
X119744142Y-98947695D01*
X119730000Y-98933553D01*
X119152839Y-99510714D01*
X119192793Y-99744727D01*
X119679408Y-99861648D01*
X120173725Y-99783449D01*
X120267207Y-99744727D01*
X120284435Y-99643820D01*
X120286470Y-99645859D01*
X120748670Y-99837781D01*
X121249134Y-99838218D01*
X121711669Y-99647103D01*
X122065859Y-99293530D01*
X122146220Y-99099997D01*
X122377746Y-99100199D01*
X122800572Y-98925491D01*
X123124354Y-98602273D01*
X123299800Y-98179753D01*
X123299854Y-98117106D01*
X123400572Y-98075491D01*
X123724354Y-97752273D01*
X123899800Y-97329753D01*
X123900021Y-97076127D01*
X124174354Y-96802273D01*
X124349800Y-96379753D01*
X124350199Y-95922254D01*
X124175491Y-95499428D01*
X123852273Y-95175646D01*
X123820002Y-95162245D01*
X123820002Y-93188648D01*
X124008554Y-93000095D01*
X124127746Y-93000199D01*
X124550572Y-92825491D01*
X124874354Y-92502273D01*
X125049800Y-92079753D01*
X125050199Y-91622254D01*
X125050199Y-92870892D01*
X124799428Y-92974509D01*
X124475646Y-93297727D01*
X124300200Y-93720247D01*
X124299801Y-94177746D01*
X124474509Y-94600572D01*
X124797727Y-94924354D01*
X125220247Y-95099800D01*
X125677746Y-95100199D01*
X126100572Y-94925491D01*
X126186212Y-94840000D01*
X127581350Y-94840000D01*
X127599904Y-94858554D01*
X127599801Y-94977746D01*
X127774509Y-95400572D01*
X128097727Y-95724354D01*
X128520247Y-95899800D01*
X128977746Y-95900199D01*
X129400572Y-95725491D01*
X129724354Y-95402273D01*
X129899800Y-94979753D01*
X129900199Y-94522254D01*
X129900199Y-123750000D01*
X129650199Y-123750000D01*
X129650199Y-100472254D01*
X129475491Y-100049428D01*
X129152273Y-99725646D01*
X128729753Y-99550200D01*
X128272254Y-99549801D01*
X127849428Y-99724509D01*
X127525646Y-100047727D01*
X127375216Y-100410000D01*
X126736480Y-100410000D01*
X126652273Y-100325646D01*
X126229753Y-100150200D01*
X125772254Y-100149801D01*
X125349428Y-100324509D01*
X125025646Y-100647727D01*
X124850200Y-101070247D01*
X124849801Y-101527746D01*
X125024509Y-101950572D01*
X125347727Y-102274354D01*
X125770247Y-102449800D01*
X126227746Y-102450199D01*
X126650572Y-102275491D01*
X126736212Y-102190000D01*
X127900000Y-102190000D01*
X128240588Y-102122253D01*
X128240589Y-102122253D01*
X128529325Y-101929325D01*
X128608554Y-101850095D01*
X128727746Y-101850199D01*
X129150572Y-101675491D01*
X129474354Y-101352273D01*
X129649800Y-100929753D01*
X129650199Y-100472254D01*
X129650199Y-123750000D01*
X124650251Y-123750000D01*
X124650251Y-109592843D01*
X124650251Y-104712843D01*
X124429967Y-104179714D01*
X124022431Y-103771467D01*
X123489688Y-103550252D01*
X122912843Y-103549749D01*
X122379714Y-103770033D01*
X121971467Y-104177569D01*
X121750252Y-104710312D01*
X121749749Y-105287157D01*
X121970033Y-105820286D01*
X122377569Y-106228533D01*
X122910312Y-106449748D01*
X123487157Y-106450251D01*
X124020286Y-106229967D01*
X124428533Y-105822431D01*
X124649748Y-105289688D01*
X124650251Y-104712843D01*
X124650251Y-109592843D01*
X124429967Y-109059714D01*
X124022431Y-108651467D01*
X123489688Y-108430252D01*
X122912843Y-108429749D01*
X122379714Y-108650033D01*
X121971467Y-109057569D01*
X121750252Y-109590312D01*
X121749749Y-110167157D01*
X121970033Y-110700286D01*
X122377569Y-111108533D01*
X122910312Y-111329748D01*
X123487157Y-111330251D01*
X124020286Y-111109967D01*
X124428533Y-110702431D01*
X124649748Y-110169688D01*
X124650251Y-109592843D01*
X124650251Y-123750000D01*
X123450424Y-123750000D01*
X123450424Y-116514803D01*
X123078220Y-115614000D01*
X122389625Y-114924202D01*
X121489473Y-114550427D01*
X120514803Y-114549576D01*
X119614000Y-114921780D01*
X118924202Y-115610375D01*
X118550427Y-116510527D01*
X118549576Y-117485197D01*
X118921780Y-118386000D01*
X119610375Y-119075798D01*
X120510527Y-119449573D01*
X121485197Y-119450424D01*
X122386000Y-119078220D01*
X123075798Y-118389625D01*
X123449573Y-117489473D01*
X123450424Y-116514803D01*
X123450424Y-123750000D01*
X118103553Y-123750000D01*
X117250000Y-122896447D01*
X117250000Y-87000000D01*
X117250000Y-85000000D01*
X117250000Y-82000000D01*
X117250000Y-80000000D01*
X117250000Y-76000000D01*
X117250000Y-61103553D01*
X118103553Y-60250000D01*
X118500000Y-60250000D01*
X118500000Y-61312500D01*
X118687500Y-61500000D01*
X121325000Y-61500000D01*
X121325000Y-61480000D01*
X121825000Y-61480000D01*
X121825000Y-61500000D01*
X124462500Y-61500000D01*
X124650000Y-61312500D01*
X124650000Y-60250000D01*
X125350000Y-60250000D01*
X125350000Y-61312500D01*
X125537500Y-61500000D01*
X128175000Y-61500000D01*
X128175000Y-61480000D01*
X128675000Y-61480000D01*
X128675000Y-61500000D01*
X131312500Y-61500000D01*
X131500000Y-61312500D01*
X131500000Y-60250000D01*
X136896447Y-60250000D01*
X137750000Y-61103553D01*
X137750000Y-80000000D01*
X137750000Y-82000000D01*
X137750000Y-82773415D01*
X137725646Y-82797727D01*
X137550200Y-83220247D01*
X137549801Y-83677746D01*
X137672710Y-83975209D01*
X137550200Y-84270247D01*
X137549801Y-84727746D01*
X137683065Y-85050271D01*
X137550200Y-85370247D01*
X137549801Y-85827746D01*
X137724509Y-86250572D01*
X138047727Y-86574354D01*
X138470247Y-86749800D01*
X138927746Y-86750199D01*
X139350572Y-86575491D01*
X139486299Y-86440000D01*
X139863519Y-86440000D01*
X139947727Y-86524354D01*
X140370247Y-86699800D01*
X140827746Y-86700199D01*
X141250572Y-86525491D01*
X141574354Y-86202273D01*
X141749800Y-85779753D01*
X141750199Y-85322254D01*
X141602351Y-84964434D01*
X141699800Y-84729753D01*
X141700199Y-84272254D01*
X141552351Y-83914434D01*
X141649800Y-83679753D01*
X141650199Y-83222254D01*
X141475491Y-82799428D01*
X141152273Y-82475646D01*
X140729753Y-82300200D01*
X140272254Y-82299801D01*
X139849428Y-82474509D01*
X139763787Y-82560000D01*
X139436480Y-82560000D01*
X139352273Y-82475646D01*
X139250000Y-82433178D01*
X139250000Y-70103553D01*
X140103553Y-69250000D01*
X150103553Y-69250000D01*
X151250000Y-68103553D01*
X151250000Y-61103553D01*
X151412000Y-60941553D01*
X151412000Y-61312500D01*
X151599500Y-61500000D01*
X153118500Y-61500000D01*
X153118500Y-61480000D01*
X153618500Y-61480000D01*
X153618500Y-61500000D01*
X155137500Y-61500000D01*
X155325000Y-61312500D01*
X155325000Y-60250000D01*
X160175000Y-60250000D01*
X160175000Y-61312500D01*
X160362500Y-61500000D01*
X161881500Y-61500000D01*
X161881500Y-61480000D01*
X162381500Y-61480000D01*
X162381500Y-61500000D01*
X163900500Y-61500000D01*
X164088000Y-61312500D01*
X164088000Y-60441553D01*
X164750000Y-61103553D01*
X164750000Y-123750000D01*
M02*
