%FSLAX46Y46*%
G04 Gerber Fmt 4.6, Leading zero omitted, Abs format (unit mm)*
G04 Created by KiCad (PCBNEW (2014-jul-16 BZR unknown)-product) date Wed 23 Jul 2014 05:49:59 BST*
%MOMM*%
G01*
G04 APERTURE LIST*
%ADD10C,0.100000*%
%ADD11C,0.300000*%
%ADD12C,1.700000*%
%ADD13C,0.300000*%
%ADD14C,1.016000*%
%ADD15C,1.400000*%
%ADD16C,1.500000*%
%ADD17C,1.100000*%
%ADD18C,3.400000*%
G04 APERTURE END LIST*
D10*
D11*
X136978572Y-116407143D02*
X137121429Y-116478571D01*
X137407143Y-116478571D01*
X137550001Y-116407143D01*
X137621429Y-116335714D01*
X137692858Y-116192857D01*
X137692858Y-115764286D01*
X137621429Y-115621429D01*
X137550001Y-115550000D01*
X137407143Y-115478571D01*
X137121429Y-115478571D01*
X136978572Y-115550000D01*
X135692858Y-115478571D02*
X135692858Y-116478571D01*
X136335715Y-115478571D02*
X136335715Y-116264286D01*
X136264287Y-116407143D01*
X136121429Y-116478571D01*
X135907144Y-116478571D01*
X135764287Y-116407143D01*
X135692858Y-116335714D01*
X135050001Y-116407143D02*
X134907144Y-116478571D01*
X134621429Y-116478571D01*
X134478572Y-116407143D01*
X134407144Y-116264286D01*
X134407144Y-116192857D01*
X134478572Y-116050000D01*
X134621429Y-115978571D01*
X134835715Y-115978571D01*
X134978572Y-115907143D01*
X135050001Y-115764286D01*
X135050001Y-115692857D01*
X134978572Y-115550000D01*
X134835715Y-115478571D01*
X134621429Y-115478571D01*
X134478572Y-115550000D01*
X133978572Y-115478571D02*
X133407143Y-115478571D01*
X133764286Y-116478571D02*
X133764286Y-115192857D01*
X133692858Y-115050000D01*
X133550000Y-114978571D01*
X133407143Y-114978571D01*
X132907143Y-116335714D02*
X132835715Y-116407143D01*
X132907143Y-116478571D01*
X132978572Y-116407143D01*
X132907143Y-116335714D01*
X132907143Y-116478571D01*
X131550000Y-116407143D02*
X131692857Y-116478571D01*
X131978571Y-116478571D01*
X132121429Y-116407143D01*
X132192857Y-116335714D01*
X132264286Y-116192857D01*
X132264286Y-115764286D01*
X132192857Y-115621429D01*
X132121429Y-115550000D01*
X131978571Y-115478571D01*
X131692857Y-115478571D01*
X131550000Y-115550000D01*
X130692857Y-116478571D02*
X130835715Y-116407143D01*
X130907143Y-116335714D01*
X130978572Y-116192857D01*
X130978572Y-115764286D01*
X130907143Y-115621429D01*
X130835715Y-115550000D01*
X130692857Y-115478571D01*
X130478572Y-115478571D01*
X130335715Y-115550000D01*
X130264286Y-115621429D01*
X130192857Y-115764286D01*
X130192857Y-116192857D01*
X130264286Y-116335714D01*
X130335715Y-116407143D01*
X130478572Y-116478571D01*
X130692857Y-116478571D01*
X129550000Y-116335714D02*
X129478572Y-116407143D01*
X129550000Y-116478571D01*
X129621429Y-116407143D01*
X129550000Y-116335714D01*
X129550000Y-116478571D01*
X128192857Y-115478571D02*
X128192857Y-116478571D01*
X128835714Y-115478571D02*
X128835714Y-116264286D01*
X128764286Y-116407143D01*
X128621428Y-116478571D01*
X128407143Y-116478571D01*
X128264286Y-116407143D01*
X128192857Y-116335714D01*
X127478571Y-116478571D02*
X127478571Y-114978571D01*
X127335714Y-115907143D02*
X126907143Y-116478571D01*
X126907143Y-115478571D02*
X127478571Y-116050000D01*
D10*
G36*
X161291600Y-109546618D02*
X161285797Y-109639916D01*
X161261919Y-109725134D01*
X161210259Y-109811684D01*
X161121113Y-109908977D01*
X160984773Y-110026426D01*
X160791533Y-110173443D01*
X160531690Y-110359439D01*
X160252283Y-110554466D01*
X160066525Y-110683452D01*
X159808897Y-110862429D01*
X159490938Y-111083375D01*
X159124189Y-111338269D01*
X158720189Y-111619091D01*
X158290479Y-111917820D01*
X157846597Y-112226434D01*
X157400084Y-112536912D01*
X157372395Y-112556167D01*
X156816928Y-112940872D01*
X156341504Y-113266741D01*
X155944233Y-113535017D01*
X155623220Y-113746939D01*
X155376574Y-113903748D01*
X155202403Y-114006683D01*
X155098813Y-114056985D01*
X155073695Y-114062800D01*
X154984882Y-114050547D01*
X154948234Y-113993754D01*
X154941600Y-113883032D01*
X154962666Y-113744156D01*
X155038115Y-113612124D01*
X155132100Y-113505333D01*
X155214590Y-113433994D01*
X155369585Y-113314146D01*
X155588850Y-113151471D01*
X155864154Y-112951650D01*
X156187264Y-112720366D01*
X156549946Y-112463299D01*
X156943968Y-112186131D01*
X157361098Y-111894544D01*
X157793101Y-111594219D01*
X158231747Y-111290838D01*
X158668801Y-110990081D01*
X159096031Y-110697631D01*
X159505204Y-110419169D01*
X159888088Y-110160377D01*
X160236450Y-109926936D01*
X160542056Y-109724528D01*
X160796675Y-109558834D01*
X160992072Y-109435535D01*
X161120017Y-109360314D01*
X161170191Y-109338400D01*
X161247867Y-109350076D01*
X161282863Y-109403820D01*
X161291548Y-109527706D01*
X161291600Y-109546618D01*
X161291600Y-109546618D01*
X161291600Y-109546618D01*
G37*
X161291600Y-109546618D02*
X161285797Y-109639916D01*
X161261919Y-109725134D01*
X161210259Y-109811684D01*
X161121113Y-109908977D01*
X160984773Y-110026426D01*
X160791533Y-110173443D01*
X160531690Y-110359439D01*
X160252283Y-110554466D01*
X160066525Y-110683452D01*
X159808897Y-110862429D01*
X159490938Y-111083375D01*
X159124189Y-111338269D01*
X158720189Y-111619091D01*
X158290479Y-111917820D01*
X157846597Y-112226434D01*
X157400084Y-112536912D01*
X157372395Y-112556167D01*
X156816928Y-112940872D01*
X156341504Y-113266741D01*
X155944233Y-113535017D01*
X155623220Y-113746939D01*
X155376574Y-113903748D01*
X155202403Y-114006683D01*
X155098813Y-114056985D01*
X155073695Y-114062800D01*
X154984882Y-114050547D01*
X154948234Y-113993754D01*
X154941600Y-113883032D01*
X154962666Y-113744156D01*
X155038115Y-113612124D01*
X155132100Y-113505333D01*
X155214590Y-113433994D01*
X155369585Y-113314146D01*
X155588850Y-113151471D01*
X155864154Y-112951650D01*
X156187264Y-112720366D01*
X156549946Y-112463299D01*
X156943968Y-112186131D01*
X157361098Y-111894544D01*
X157793101Y-111594219D01*
X158231747Y-111290838D01*
X158668801Y-110990081D01*
X159096031Y-110697631D01*
X159505204Y-110419169D01*
X159888088Y-110160377D01*
X160236450Y-109926936D01*
X160542056Y-109724528D01*
X160796675Y-109558834D01*
X160992072Y-109435535D01*
X161120017Y-109360314D01*
X161170191Y-109338400D01*
X161247867Y-109350076D01*
X161282863Y-109403820D01*
X161291548Y-109527706D01*
X161291600Y-109546618D01*
X161291600Y-109546618D01*
G36*
X161291600Y-107641618D02*
X161284316Y-107817303D01*
X161253374Y-107931507D01*
X161185142Y-108023853D01*
X161147389Y-108060718D01*
X161073520Y-108119871D01*
X160926306Y-108229356D01*
X160716034Y-108381820D01*
X160452994Y-108569907D01*
X160147473Y-108786262D01*
X159809760Y-109023531D01*
X159450144Y-109274358D01*
X159432889Y-109286348D01*
X158735519Y-109770875D01*
X158116828Y-110200675D01*
X157571992Y-110578901D01*
X157096189Y-110908707D01*
X156684595Y-111193244D01*
X156332386Y-111435666D01*
X156034741Y-111639125D01*
X155786835Y-111806775D01*
X155583846Y-111941769D01*
X155420950Y-112047258D01*
X155293325Y-112126396D01*
X155196147Y-112182337D01*
X155124592Y-112218232D01*
X155073839Y-112237234D01*
X155039064Y-112242497D01*
X155015443Y-112237173D01*
X154998153Y-112224416D01*
X154982372Y-112207377D01*
X154975466Y-112200133D01*
X154940961Y-112104999D01*
X154945163Y-111956039D01*
X154982693Y-111790966D01*
X155048176Y-111647492D01*
X155055900Y-111636006D01*
X155115988Y-111580176D01*
X155250733Y-111473768D01*
X155452011Y-111322443D01*
X155711702Y-111131858D01*
X156021682Y-110907673D01*
X156373831Y-110655548D01*
X156760025Y-110381142D01*
X157172144Y-110090113D01*
X157602065Y-109788122D01*
X158041666Y-109480828D01*
X158482825Y-109173889D01*
X158917420Y-108872965D01*
X159337330Y-108583715D01*
X159734431Y-108311799D01*
X160100603Y-108062875D01*
X160427723Y-107842604D01*
X160707670Y-107656644D01*
X160932320Y-107510654D01*
X161093553Y-107410294D01*
X161183247Y-107361223D01*
X161196705Y-107357200D01*
X161251461Y-107371213D01*
X161280199Y-107428850D01*
X161290724Y-107553504D01*
X161291600Y-107641618D01*
X161291600Y-107641618D01*
X161291600Y-107641618D01*
G37*
X161291600Y-107641618D02*
X161284316Y-107817303D01*
X161253374Y-107931507D01*
X161185142Y-108023853D01*
X161147389Y-108060718D01*
X161073520Y-108119871D01*
X160926306Y-108229356D01*
X160716034Y-108381820D01*
X160452994Y-108569907D01*
X160147473Y-108786262D01*
X159809760Y-109023531D01*
X159450144Y-109274358D01*
X159432889Y-109286348D01*
X158735519Y-109770875D01*
X158116828Y-110200675D01*
X157571992Y-110578901D01*
X157096189Y-110908707D01*
X156684595Y-111193244D01*
X156332386Y-111435666D01*
X156034741Y-111639125D01*
X155786835Y-111806775D01*
X155583846Y-111941769D01*
X155420950Y-112047258D01*
X155293325Y-112126396D01*
X155196147Y-112182337D01*
X155124592Y-112218232D01*
X155073839Y-112237234D01*
X155039064Y-112242497D01*
X155015443Y-112237173D01*
X154998153Y-112224416D01*
X154982372Y-112207377D01*
X154975466Y-112200133D01*
X154940961Y-112104999D01*
X154945163Y-111956039D01*
X154982693Y-111790966D01*
X155048176Y-111647492D01*
X155055900Y-111636006D01*
X155115988Y-111580176D01*
X155250733Y-111473768D01*
X155452011Y-111322443D01*
X155711702Y-111131858D01*
X156021682Y-110907673D01*
X156373831Y-110655548D01*
X156760025Y-110381142D01*
X157172144Y-110090113D01*
X157602065Y-109788122D01*
X158041666Y-109480828D01*
X158482825Y-109173889D01*
X158917420Y-108872965D01*
X159337330Y-108583715D01*
X159734431Y-108311799D01*
X160100603Y-108062875D01*
X160427723Y-107842604D01*
X160707670Y-107656644D01*
X160932320Y-107510654D01*
X161093553Y-107410294D01*
X161183247Y-107361223D01*
X161196705Y-107357200D01*
X161251461Y-107371213D01*
X161280199Y-107428850D01*
X161290724Y-107553504D01*
X161291600Y-107641618D01*
X161291600Y-107641618D01*
G36*
X161291600Y-105621002D02*
X161287925Y-105809349D01*
X161269410Y-105930216D01*
X161224815Y-106017663D01*
X161142901Y-106105745D01*
X161126500Y-106121306D01*
X161044159Y-106188466D01*
X160889283Y-106304482D01*
X160670157Y-106463647D01*
X160395065Y-106660254D01*
X160072291Y-106888597D01*
X159710120Y-107142968D01*
X159316836Y-107417662D01*
X158900723Y-107706970D01*
X158470067Y-108005186D01*
X158033151Y-108306603D01*
X157598260Y-108605515D01*
X157173678Y-108896214D01*
X156767690Y-109172993D01*
X156388580Y-109430147D01*
X156044632Y-109661967D01*
X155744132Y-109862746D01*
X155495363Y-110026779D01*
X155306609Y-110148358D01*
X155186156Y-110221777D01*
X155144695Y-110241979D01*
X155033889Y-110242800D01*
X154979410Y-110222877D01*
X154946418Y-110131945D01*
X154941800Y-109977885D01*
X154962471Y-109794175D01*
X155005343Y-109614293D01*
X155044887Y-109512713D01*
X155071541Y-109466064D01*
X155111454Y-109414167D01*
X155170662Y-109352541D01*
X155255196Y-109276704D01*
X155371093Y-109182175D01*
X155524384Y-109064472D01*
X155721105Y-108919115D01*
X155967289Y-108741622D01*
X156268971Y-108527512D01*
X156632184Y-108272304D01*
X157062961Y-107971516D01*
X157567338Y-107620666D01*
X157953187Y-107352766D01*
X158433191Y-107019604D01*
X158891259Y-106701564D01*
X159320128Y-106403693D01*
X159712533Y-106131043D01*
X160061213Y-105888662D01*
X160358902Y-105681600D01*
X160598340Y-105514907D01*
X160772261Y-105393632D01*
X160873402Y-105322826D01*
X160893814Y-105308358D01*
X161054572Y-105237321D01*
X161160514Y-105243435D01*
X161230021Y-105267352D01*
X161269290Y-105311687D01*
X161286915Y-105401188D01*
X161291488Y-105560603D01*
X161291600Y-105621002D01*
X161291600Y-105621002D01*
X161291600Y-105621002D01*
G37*
X161291600Y-105621002D02*
X161287925Y-105809349D01*
X161269410Y-105930216D01*
X161224815Y-106017663D01*
X161142901Y-106105745D01*
X161126500Y-106121306D01*
X161044159Y-106188466D01*
X160889283Y-106304482D01*
X160670157Y-106463647D01*
X160395065Y-106660254D01*
X160072291Y-106888597D01*
X159710120Y-107142968D01*
X159316836Y-107417662D01*
X158900723Y-107706970D01*
X158470067Y-108005186D01*
X158033151Y-108306603D01*
X157598260Y-108605515D01*
X157173678Y-108896214D01*
X156767690Y-109172993D01*
X156388580Y-109430147D01*
X156044632Y-109661967D01*
X155744132Y-109862746D01*
X155495363Y-110026779D01*
X155306609Y-110148358D01*
X155186156Y-110221777D01*
X155144695Y-110241979D01*
X155033889Y-110242800D01*
X154979410Y-110222877D01*
X154946418Y-110131945D01*
X154941800Y-109977885D01*
X154962471Y-109794175D01*
X155005343Y-109614293D01*
X155044887Y-109512713D01*
X155071541Y-109466064D01*
X155111454Y-109414167D01*
X155170662Y-109352541D01*
X155255196Y-109276704D01*
X155371093Y-109182175D01*
X155524384Y-109064472D01*
X155721105Y-108919115D01*
X155967289Y-108741622D01*
X156268971Y-108527512D01*
X156632184Y-108272304D01*
X157062961Y-107971516D01*
X157567338Y-107620666D01*
X157953187Y-107352766D01*
X158433191Y-107019604D01*
X158891259Y-106701564D01*
X159320128Y-106403693D01*
X159712533Y-106131043D01*
X160061213Y-105888662D01*
X160358902Y-105681600D01*
X160598340Y-105514907D01*
X160772261Y-105393632D01*
X160873402Y-105322826D01*
X160893814Y-105308358D01*
X161054572Y-105237321D01*
X161160514Y-105243435D01*
X161230021Y-105267352D01*
X161269290Y-105311687D01*
X161286915Y-105401188D01*
X161291488Y-105560603D01*
X161291600Y-105621002D01*
X161291600Y-105621002D01*
G36*
X161291600Y-103292351D02*
X161289235Y-103498770D01*
X161276428Y-103633760D01*
X161244612Y-103727473D01*
X161185218Y-103810063D01*
X161126500Y-103873386D01*
X161055777Y-103932789D01*
X160911360Y-104042230D01*
X160701548Y-104195950D01*
X160434639Y-104388192D01*
X160118933Y-104613196D01*
X159762727Y-104865206D01*
X159374321Y-105138463D01*
X158962014Y-105427210D01*
X158534103Y-105725687D01*
X158098889Y-106028138D01*
X157664669Y-106328804D01*
X157239743Y-106621927D01*
X156832409Y-106901749D01*
X156450966Y-107162512D01*
X156103712Y-107398458D01*
X155798946Y-107603829D01*
X155544968Y-107772867D01*
X155350076Y-107899813D01*
X155222568Y-107978911D01*
X155172762Y-108004350D01*
X155058318Y-107992214D01*
X155005100Y-107959808D01*
X154965758Y-107865951D01*
X154945557Y-107705633D01*
X154944043Y-107512087D01*
X154960761Y-107318544D01*
X154995256Y-107158238D01*
X155016791Y-107105150D01*
X155069200Y-107048031D01*
X155192001Y-106944715D01*
X155387018Y-106793874D01*
X155656076Y-106594185D01*
X156000999Y-106344323D01*
X156423610Y-106042963D01*
X156925734Y-105688780D01*
X157509194Y-105280449D01*
X157984799Y-104949311D01*
X158471596Y-104611432D01*
X158936306Y-104289719D01*
X159371835Y-103989030D01*
X159771089Y-103714226D01*
X160126972Y-103470164D01*
X160432390Y-103261703D01*
X160680248Y-103093703D01*
X160863452Y-102971023D01*
X160974908Y-102898520D01*
X161005168Y-102880760D01*
X161131339Y-102837834D01*
X161215181Y-102853226D01*
X161264547Y-102938220D01*
X161287289Y-103104103D01*
X161291600Y-103292351D01*
X161291600Y-103292351D01*
X161291600Y-103292351D01*
G37*
X161291600Y-103292351D02*
X161289235Y-103498770D01*
X161276428Y-103633760D01*
X161244612Y-103727473D01*
X161185218Y-103810063D01*
X161126500Y-103873386D01*
X161055777Y-103932789D01*
X160911360Y-104042230D01*
X160701548Y-104195950D01*
X160434639Y-104388192D01*
X160118933Y-104613196D01*
X159762727Y-104865206D01*
X159374321Y-105138463D01*
X158962014Y-105427210D01*
X158534103Y-105725687D01*
X158098889Y-106028138D01*
X157664669Y-106328804D01*
X157239743Y-106621927D01*
X156832409Y-106901749D01*
X156450966Y-107162512D01*
X156103712Y-107398458D01*
X155798946Y-107603829D01*
X155544968Y-107772867D01*
X155350076Y-107899813D01*
X155222568Y-107978911D01*
X155172762Y-108004350D01*
X155058318Y-107992214D01*
X155005100Y-107959808D01*
X154965758Y-107865951D01*
X154945557Y-107705633D01*
X154944043Y-107512087D01*
X154960761Y-107318544D01*
X154995256Y-107158238D01*
X155016791Y-107105150D01*
X155069200Y-107048031D01*
X155192001Y-106944715D01*
X155387018Y-106793874D01*
X155656076Y-106594185D01*
X156000999Y-106344323D01*
X156423610Y-106042963D01*
X156925734Y-105688780D01*
X157509194Y-105280449D01*
X157984799Y-104949311D01*
X158471596Y-104611432D01*
X158936306Y-104289719D01*
X159371835Y-103989030D01*
X159771089Y-103714226D01*
X160126972Y-103470164D01*
X160432390Y-103261703D01*
X160680248Y-103093703D01*
X160863452Y-102971023D01*
X160974908Y-102898520D01*
X161005168Y-102880760D01*
X161131339Y-102837834D01*
X161215181Y-102853226D01*
X161264547Y-102938220D01*
X161287289Y-103104103D01*
X161291600Y-103292351D01*
X161291600Y-103292351D01*
G36*
X161291600Y-100873523D02*
X161290032Y-101096868D01*
X161280786Y-101245665D01*
X161257050Y-101346962D01*
X161212009Y-101427808D01*
X161138852Y-101515250D01*
X161126500Y-101528980D01*
X161061640Y-101589580D01*
X160945037Y-101684080D01*
X160773620Y-101814656D01*
X160544318Y-101983484D01*
X160254060Y-102192741D01*
X159899777Y-102444602D01*
X159478398Y-102741244D01*
X158986852Y-103084842D01*
X158422068Y-103477572D01*
X157780977Y-103921611D01*
X157060508Y-104419135D01*
X156618000Y-104724146D01*
X156228503Y-104992386D01*
X155913957Y-105208312D01*
X155665589Y-105377168D01*
X155474626Y-105504199D01*
X155332296Y-105594649D01*
X155229825Y-105653764D01*
X155158442Y-105686786D01*
X155109373Y-105698962D01*
X155073845Y-105695534D01*
X155043087Y-105681749D01*
X155029188Y-105673968D01*
X154987043Y-105634596D01*
X154960680Y-105560269D01*
X154946727Y-105430778D01*
X154941814Y-105225918D01*
X154941600Y-105148773D01*
X154943928Y-104920245D01*
X154954520Y-104767018D01*
X154978780Y-104662833D01*
X155022118Y-104581431D01*
X155071416Y-104518317D01*
X155129953Y-104468858D01*
X155263633Y-104367614D01*
X155464138Y-104220413D01*
X155723151Y-104033087D01*
X156032356Y-103811465D01*
X156383436Y-103561376D01*
X156768073Y-103288652D01*
X157177951Y-102999122D01*
X157604753Y-102698616D01*
X158040162Y-102392965D01*
X158475860Y-102087997D01*
X158903532Y-101789544D01*
X159314860Y-101503435D01*
X159701527Y-101235500D01*
X160055216Y-100991569D01*
X160367610Y-100777472D01*
X160630393Y-100599040D01*
X160835248Y-100462102D01*
X160973856Y-100372488D01*
X161037600Y-100336132D01*
X161144841Y-100335456D01*
X161202700Y-100355451D01*
X161245448Y-100392310D01*
X161272147Y-100463000D01*
X161286280Y-100587823D01*
X161291332Y-100787082D01*
X161291600Y-100873523D01*
X161291600Y-100873523D01*
X161291600Y-100873523D01*
G37*
X161291600Y-100873523D02*
X161290032Y-101096868D01*
X161280786Y-101245665D01*
X161257050Y-101346962D01*
X161212009Y-101427808D01*
X161138852Y-101515250D01*
X161126500Y-101528980D01*
X161061640Y-101589580D01*
X160945037Y-101684080D01*
X160773620Y-101814656D01*
X160544318Y-101983484D01*
X160254060Y-102192741D01*
X159899777Y-102444602D01*
X159478398Y-102741244D01*
X158986852Y-103084842D01*
X158422068Y-103477572D01*
X157780977Y-103921611D01*
X157060508Y-104419135D01*
X156618000Y-104724146D01*
X156228503Y-104992386D01*
X155913957Y-105208312D01*
X155665589Y-105377168D01*
X155474626Y-105504199D01*
X155332296Y-105594649D01*
X155229825Y-105653764D01*
X155158442Y-105686786D01*
X155109373Y-105698962D01*
X155073845Y-105695534D01*
X155043087Y-105681749D01*
X155029188Y-105673968D01*
X154987043Y-105634596D01*
X154960680Y-105560269D01*
X154946727Y-105430778D01*
X154941814Y-105225918D01*
X154941600Y-105148773D01*
X154943928Y-104920245D01*
X154954520Y-104767018D01*
X154978780Y-104662833D01*
X155022118Y-104581431D01*
X155071416Y-104518317D01*
X155129953Y-104468858D01*
X155263633Y-104367614D01*
X155464138Y-104220413D01*
X155723151Y-104033087D01*
X156032356Y-103811465D01*
X156383436Y-103561376D01*
X156768073Y-103288652D01*
X157177951Y-102999122D01*
X157604753Y-102698616D01*
X158040162Y-102392965D01*
X158475860Y-102087997D01*
X158903532Y-101789544D01*
X159314860Y-101503435D01*
X159701527Y-101235500D01*
X160055216Y-100991569D01*
X160367610Y-100777472D01*
X160630393Y-100599040D01*
X160835248Y-100462102D01*
X160973856Y-100372488D01*
X161037600Y-100336132D01*
X161144841Y-100335456D01*
X161202700Y-100355451D01*
X161245448Y-100392310D01*
X161272147Y-100463000D01*
X161286280Y-100587823D01*
X161291332Y-100787082D01*
X161291600Y-100873523D01*
X161291600Y-100873523D01*
G36*
X161291600Y-89279022D02*
X161291429Y-90511065D01*
X161290906Y-91644499D01*
X161290012Y-92682313D01*
X161288729Y-93627499D01*
X161287037Y-94483046D01*
X161284920Y-95251945D01*
X161282359Y-95937186D01*
X161279335Y-96541760D01*
X161275830Y-97068655D01*
X161271825Y-97520864D01*
X161267304Y-97901375D01*
X161262246Y-98213179D01*
X161256635Y-98459267D01*
X161250451Y-98642628D01*
X161243676Y-98766253D01*
X161236292Y-98833132D01*
X161233046Y-98844929D01*
X161182350Y-98894864D01*
X161056103Y-98996094D01*
X160862470Y-99142913D01*
X160609614Y-99329618D01*
X160305700Y-99550503D01*
X159958892Y-99799863D01*
X159782335Y-99925791D01*
X159782335Y-92269600D01*
X159767600Y-92269600D01*
X159767600Y-86138979D01*
X159767600Y-84598800D01*
X159767456Y-84598800D01*
X159767456Y-81370973D01*
X159753821Y-80918996D01*
X159710134Y-80554602D01*
X159632575Y-80267216D01*
X159517323Y-80046265D01*
X159360556Y-79881175D01*
X159191324Y-79776636D01*
X158978047Y-79703816D01*
X158696396Y-79650865D01*
X158371634Y-79618181D01*
X158029024Y-79606166D01*
X157693827Y-79615221D01*
X157391307Y-79645745D01*
X157146725Y-79698141D01*
X157034023Y-79742423D01*
X156890595Y-79840883D01*
X156778652Y-79951646D01*
X156696223Y-80105240D01*
X156627072Y-80322759D01*
X156580970Y-80566588D01*
X156567200Y-80765900D01*
X156567200Y-80941200D01*
X156948200Y-80941200D01*
X157329200Y-80941200D01*
X157329200Y-80740832D01*
X157370906Y-80523179D01*
X157443500Y-80409291D01*
X157514998Y-80341120D01*
X157602625Y-80297548D01*
X157733848Y-80270072D01*
X157936135Y-80250186D01*
X157964200Y-80248076D01*
X158329855Y-80242157D01*
X158609057Y-80285440D01*
X158804617Y-80378601D01*
X158891435Y-80471060D01*
X158923009Y-80531276D01*
X158946233Y-80611687D01*
X158962329Y-80727481D01*
X158972520Y-80893846D01*
X158978027Y-81125971D01*
X158980074Y-81439044D01*
X158980200Y-81573965D01*
X158977957Y-81990762D01*
X158966389Y-82316779D01*
X158938235Y-82562818D01*
X158886236Y-82739678D01*
X158803131Y-82858159D01*
X158681660Y-82929061D01*
X158514563Y-82963185D01*
X158294579Y-82971331D01*
X158044858Y-82965358D01*
X157763005Y-82948698D01*
X157565680Y-82914090D01*
X157436046Y-82850523D01*
X157357269Y-82746986D01*
X157312513Y-82592469D01*
X157295525Y-82475290D01*
X157264248Y-82211200D01*
X156890324Y-82211200D01*
X156711578Y-82211933D01*
X156596253Y-82225755D01*
X156534351Y-82270099D01*
X156515874Y-82362395D01*
X156530826Y-82520077D01*
X156569209Y-82760577D01*
X156570544Y-82768793D01*
X156625794Y-83022342D01*
X156707321Y-83222564D01*
X156826072Y-83375011D01*
X156992996Y-83485234D01*
X157219041Y-83558785D01*
X157515155Y-83601215D01*
X157892288Y-83618077D01*
X158243600Y-83617148D01*
X158530067Y-83610916D01*
X158737935Y-83600495D01*
X158890203Y-83582536D01*
X159009867Y-83553689D01*
X159119925Y-83510605D01*
X159183400Y-83480270D01*
X159363540Y-83371544D01*
X159483263Y-83241596D01*
X159548401Y-83125600D01*
X159627989Y-82897492D01*
X159691092Y-82580850D01*
X159736219Y-82187627D01*
X159761877Y-81729778D01*
X159767456Y-81370973D01*
X159767456Y-84598800D01*
X159386600Y-84598800D01*
X159005600Y-84598800D01*
X159005600Y-86095009D01*
X159003615Y-86611822D01*
X158997625Y-87028730D01*
X158987570Y-87347352D01*
X158973393Y-87569309D01*
X158955037Y-87696217D01*
X158947797Y-87718081D01*
X158867339Y-87823157D01*
X158729516Y-87894410D01*
X158521114Y-87935793D01*
X158228919Y-87951262D01*
X158167400Y-87951600D01*
X157858977Y-87940311D01*
X157636690Y-87903808D01*
X157487324Y-87838136D01*
X157397663Y-87739342D01*
X157387002Y-87718081D01*
X157367204Y-87623272D01*
X157351606Y-87433969D01*
X157340149Y-87148553D01*
X157332777Y-86765404D01*
X157329430Y-86282904D01*
X157329200Y-86095009D01*
X157329200Y-84598800D01*
X156945014Y-84598800D01*
X156560828Y-84598800D01*
X156578102Y-86237100D01*
X156583584Y-86700069D01*
X156589664Y-87072743D01*
X156596985Y-87366424D01*
X156606189Y-87592417D01*
X156617918Y-87762025D01*
X156632815Y-87886552D01*
X156651523Y-87977302D01*
X156674683Y-88045579D01*
X156681801Y-88061666D01*
X156808452Y-88252064D01*
X156997350Y-88398290D01*
X157261043Y-88507591D01*
X157583200Y-88582242D01*
X157719320Y-88593552D01*
X157926637Y-88596132D01*
X158178033Y-88591217D01*
X158446388Y-88580038D01*
X158704584Y-88563829D01*
X158925502Y-88543822D01*
X159082023Y-88521251D01*
X159118322Y-88512456D01*
X159382944Y-88386027D01*
X159575895Y-88187600D01*
X159690564Y-87938567D01*
X159713751Y-87840519D01*
X159732047Y-87712371D01*
X159745949Y-87542490D01*
X159755955Y-87319245D01*
X159762564Y-87031006D01*
X159766273Y-86666139D01*
X159767580Y-86213015D01*
X159767600Y-86138979D01*
X159767600Y-92269600D01*
X159421117Y-92269600D01*
X159059899Y-92269600D01*
X159025752Y-92527013D01*
X158983374Y-92717911D01*
X158913208Y-92829643D01*
X158884302Y-92851504D01*
X158746264Y-92903294D01*
X158536850Y-92941191D01*
X158285673Y-92962415D01*
X158022347Y-92964184D01*
X157829801Y-92950523D01*
X157597368Y-92910548D01*
X157448656Y-92841372D01*
X157366303Y-92724060D01*
X157332949Y-92539674D01*
X157329200Y-92404473D01*
X157333710Y-92231599D01*
X157356400Y-92103534D01*
X157411008Y-92011684D01*
X157511272Y-91947451D01*
X157670931Y-91902241D01*
X157903724Y-91867456D01*
X158223388Y-91834501D01*
X158243141Y-91832630D01*
X158674782Y-91786332D01*
X159015386Y-91732995D01*
X159275514Y-91664591D01*
X159465723Y-91573090D01*
X159596573Y-91450465D01*
X159678623Y-91288688D01*
X159722432Y-91079729D01*
X159738558Y-90815560D01*
X159739624Y-90694800D01*
X159722953Y-90342493D01*
X159666719Y-90073889D01*
X159561178Y-89875562D01*
X159396584Y-89734089D01*
X159163192Y-89636044D01*
X158931745Y-89581932D01*
X158610632Y-89540977D01*
X158257303Y-89526553D01*
X157897431Y-89536920D01*
X157556692Y-89570337D01*
X157260758Y-89625064D01*
X157035305Y-89699359D01*
X157008732Y-89712301D01*
X156870334Y-89834080D01*
X156759123Y-90027406D01*
X156688402Y-90263179D01*
X156669915Y-90453500D01*
X156668800Y-90694800D01*
X157023432Y-90694800D01*
X157209462Y-90692810D01*
X157318023Y-90681000D01*
X157373242Y-90650603D01*
X157399242Y-90592854D01*
X157407947Y-90555100D01*
X157453977Y-90385099D01*
X157518306Y-90265310D01*
X157617050Y-90188517D01*
X157766323Y-90147502D01*
X157982238Y-90135048D01*
X158280910Y-90143936D01*
X158321338Y-90146003D01*
X158568753Y-90166219D01*
X158733568Y-90198540D01*
X158834456Y-90246916D01*
X158846722Y-90257138D01*
X158933913Y-90387288D01*
X158978794Y-90561327D01*
X158983298Y-90750538D01*
X158949356Y-90926203D01*
X158878902Y-91059607D01*
X158788719Y-91119119D01*
X158693494Y-91135155D01*
X158522539Y-91156735D01*
X158301363Y-91180856D01*
X158090729Y-91201314D01*
X157675388Y-91244425D01*
X157349481Y-91292336D01*
X157100844Y-91350569D01*
X156917313Y-91424645D01*
X156786724Y-91520086D01*
X156696912Y-91642413D01*
X156635716Y-91797147D01*
X156616219Y-91870623D01*
X156581272Y-92115152D01*
X156576381Y-92400413D01*
X156599011Y-92689433D01*
X156646628Y-92945239D01*
X156700506Y-93100078D01*
X156832129Y-93280883D01*
X157035396Y-93413563D01*
X157318786Y-93502365D01*
X157582239Y-93542040D01*
X157850491Y-93559182D01*
X158159319Y-93562639D01*
X158477821Y-93553632D01*
X158775095Y-93533381D01*
X159020243Y-93503106D01*
X159128007Y-93481013D01*
X159370930Y-93393274D01*
X159544355Y-93264948D01*
X159659744Y-93080267D01*
X159728561Y-92823458D01*
X159752843Y-92621389D01*
X159782335Y-92269600D01*
X159782335Y-99925791D01*
X159767600Y-99936301D01*
X159767600Y-98518000D01*
X159767600Y-96511400D01*
X159767600Y-94504800D01*
X158167400Y-94504800D01*
X156567200Y-94504800D01*
X156567200Y-94835000D01*
X156567200Y-95165200D01*
X157786400Y-95165200D01*
X159005600Y-95165200D01*
X159005600Y-95698600D01*
X159005600Y-96232000D01*
X157938800Y-96232000D01*
X156872000Y-96232000D01*
X156872000Y-96536800D01*
X156872000Y-96841600D01*
X157938800Y-96841600D01*
X159005600Y-96841600D01*
X159005600Y-97645933D01*
X159007637Y-97922089D01*
X159013263Y-98161709D01*
X159021747Y-98346730D01*
X159032359Y-98459089D01*
X159039466Y-98484133D01*
X159103936Y-98501169D01*
X159240481Y-98513332D01*
X159419602Y-98517999D01*
X159420466Y-98518000D01*
X159767600Y-98518000D01*
X159767600Y-99936301D01*
X159577354Y-100071994D01*
X159169250Y-100361190D01*
X158742745Y-100661746D01*
X158306002Y-100967957D01*
X157867186Y-101274119D01*
X157434461Y-101574527D01*
X157015990Y-101863476D01*
X156619939Y-102135260D01*
X156254471Y-102384175D01*
X155927750Y-102604516D01*
X155647940Y-102790577D01*
X155423206Y-102936655D01*
X155261712Y-103037044D01*
X155171622Y-103086039D01*
X155158065Y-103090000D01*
X155044636Y-103058909D01*
X155002560Y-103029039D01*
X154995476Y-103000087D01*
X154988916Y-102925866D01*
X154982863Y-102803282D01*
X154977299Y-102629242D01*
X154972210Y-102400651D01*
X154967579Y-102114416D01*
X154963389Y-101767442D01*
X154959624Y-101356635D01*
X154956267Y-100878901D01*
X154953304Y-100331146D01*
X154950716Y-99710276D01*
X154948489Y-99013197D01*
X154946605Y-98236815D01*
X154945048Y-97378035D01*
X154943802Y-96433764D01*
X154942852Y-95400907D01*
X154942179Y-94276371D01*
X154941769Y-93057061D01*
X154941604Y-91739883D01*
X154941600Y-91455860D01*
X154941658Y-90166502D01*
X154941849Y-88974879D01*
X154942199Y-87877128D01*
X154942732Y-86869385D01*
X154943475Y-85947785D01*
X154944451Y-85108464D01*
X154945686Y-84347557D01*
X154947206Y-83661202D01*
X154949036Y-83045533D01*
X154951200Y-82496687D01*
X154953725Y-82010799D01*
X154956635Y-81584004D01*
X154959955Y-81212440D01*
X154963711Y-80892242D01*
X154967928Y-80619545D01*
X154972631Y-80390485D01*
X154977845Y-80201199D01*
X154983595Y-80047822D01*
X154989908Y-79926489D01*
X154996807Y-79833337D01*
X155004319Y-79764502D01*
X155012467Y-79716119D01*
X155018327Y-79693120D01*
X155057412Y-79603058D01*
X155140868Y-79437723D01*
X155263233Y-79206692D01*
X155419045Y-78919539D01*
X155602843Y-78585838D01*
X155809165Y-78215165D01*
X156032548Y-77817096D01*
X156267531Y-77401203D01*
X156508652Y-76977064D01*
X156750450Y-76554253D01*
X156987462Y-76142344D01*
X157214227Y-75750913D01*
X157425282Y-75389535D01*
X157615167Y-75067784D01*
X157778419Y-74795236D01*
X157909577Y-74581466D01*
X158003178Y-74436048D01*
X158053761Y-74368558D01*
X158057139Y-74365848D01*
X158171658Y-74341341D01*
X158223681Y-74363842D01*
X158262820Y-74416454D01*
X158345601Y-74548275D01*
X158466525Y-74749592D01*
X158620094Y-75010689D01*
X158800807Y-75321850D01*
X159003168Y-75673360D01*
X159221676Y-76055505D01*
X159450833Y-76458569D01*
X159685141Y-76872836D01*
X159919099Y-77288592D01*
X160147210Y-77696121D01*
X160363975Y-78085708D01*
X160563894Y-78447638D01*
X160741469Y-78772196D01*
X160891202Y-79049666D01*
X161007592Y-79270333D01*
X161067427Y-79388112D01*
X161291600Y-79841625D01*
X161291600Y-89279022D01*
X161291600Y-89279022D01*
X161291600Y-89279022D01*
G37*
X161291600Y-89279022D02*
X161291429Y-90511065D01*
X161290906Y-91644499D01*
X161290012Y-92682313D01*
X161288729Y-93627499D01*
X161287037Y-94483046D01*
X161284920Y-95251945D01*
X161282359Y-95937186D01*
X161279335Y-96541760D01*
X161275830Y-97068655D01*
X161271825Y-97520864D01*
X161267304Y-97901375D01*
X161262246Y-98213179D01*
X161256635Y-98459267D01*
X161250451Y-98642628D01*
X161243676Y-98766253D01*
X161236292Y-98833132D01*
X161233046Y-98844929D01*
X161182350Y-98894864D01*
X161056103Y-98996094D01*
X160862470Y-99142913D01*
X160609614Y-99329618D01*
X160305700Y-99550503D01*
X159958892Y-99799863D01*
X159782335Y-99925791D01*
X159782335Y-92269600D01*
X159767600Y-92269600D01*
X159767600Y-86138979D01*
X159767600Y-84598800D01*
X159767456Y-84598800D01*
X159767456Y-81370973D01*
X159753821Y-80918996D01*
X159710134Y-80554602D01*
X159632575Y-80267216D01*
X159517323Y-80046265D01*
X159360556Y-79881175D01*
X159191324Y-79776636D01*
X158978047Y-79703816D01*
X158696396Y-79650865D01*
X158371634Y-79618181D01*
X158029024Y-79606166D01*
X157693827Y-79615221D01*
X157391307Y-79645745D01*
X157146725Y-79698141D01*
X157034023Y-79742423D01*
X156890595Y-79840883D01*
X156778652Y-79951646D01*
X156696223Y-80105240D01*
X156627072Y-80322759D01*
X156580970Y-80566588D01*
X156567200Y-80765900D01*
X156567200Y-80941200D01*
X156948200Y-80941200D01*
X157329200Y-80941200D01*
X157329200Y-80740832D01*
X157370906Y-80523179D01*
X157443500Y-80409291D01*
X157514998Y-80341120D01*
X157602625Y-80297548D01*
X157733848Y-80270072D01*
X157936135Y-80250186D01*
X157964200Y-80248076D01*
X158329855Y-80242157D01*
X158609057Y-80285440D01*
X158804617Y-80378601D01*
X158891435Y-80471060D01*
X158923009Y-80531276D01*
X158946233Y-80611687D01*
X158962329Y-80727481D01*
X158972520Y-80893846D01*
X158978027Y-81125971D01*
X158980074Y-81439044D01*
X158980200Y-81573965D01*
X158977957Y-81990762D01*
X158966389Y-82316779D01*
X158938235Y-82562818D01*
X158886236Y-82739678D01*
X158803131Y-82858159D01*
X158681660Y-82929061D01*
X158514563Y-82963185D01*
X158294579Y-82971331D01*
X158044858Y-82965358D01*
X157763005Y-82948698D01*
X157565680Y-82914090D01*
X157436046Y-82850523D01*
X157357269Y-82746986D01*
X157312513Y-82592469D01*
X157295525Y-82475290D01*
X157264248Y-82211200D01*
X156890324Y-82211200D01*
X156711578Y-82211933D01*
X156596253Y-82225755D01*
X156534351Y-82270099D01*
X156515874Y-82362395D01*
X156530826Y-82520077D01*
X156569209Y-82760577D01*
X156570544Y-82768793D01*
X156625794Y-83022342D01*
X156707321Y-83222564D01*
X156826072Y-83375011D01*
X156992996Y-83485234D01*
X157219041Y-83558785D01*
X157515155Y-83601215D01*
X157892288Y-83618077D01*
X158243600Y-83617148D01*
X158530067Y-83610916D01*
X158737935Y-83600495D01*
X158890203Y-83582536D01*
X159009867Y-83553689D01*
X159119925Y-83510605D01*
X159183400Y-83480270D01*
X159363540Y-83371544D01*
X159483263Y-83241596D01*
X159548401Y-83125600D01*
X159627989Y-82897492D01*
X159691092Y-82580850D01*
X159736219Y-82187627D01*
X159761877Y-81729778D01*
X159767456Y-81370973D01*
X159767456Y-84598800D01*
X159386600Y-84598800D01*
X159005600Y-84598800D01*
X159005600Y-86095009D01*
X159003615Y-86611822D01*
X158997625Y-87028730D01*
X158987570Y-87347352D01*
X158973393Y-87569309D01*
X158955037Y-87696217D01*
X158947797Y-87718081D01*
X158867339Y-87823157D01*
X158729516Y-87894410D01*
X158521114Y-87935793D01*
X158228919Y-87951262D01*
X158167400Y-87951600D01*
X157858977Y-87940311D01*
X157636690Y-87903808D01*
X157487324Y-87838136D01*
X157397663Y-87739342D01*
X157387002Y-87718081D01*
X157367204Y-87623272D01*
X157351606Y-87433969D01*
X157340149Y-87148553D01*
X157332777Y-86765404D01*
X157329430Y-86282904D01*
X157329200Y-86095009D01*
X157329200Y-84598800D01*
X156945014Y-84598800D01*
X156560828Y-84598800D01*
X156578102Y-86237100D01*
X156583584Y-86700069D01*
X156589664Y-87072743D01*
X156596985Y-87366424D01*
X156606189Y-87592417D01*
X156617918Y-87762025D01*
X156632815Y-87886552D01*
X156651523Y-87977302D01*
X156674683Y-88045579D01*
X156681801Y-88061666D01*
X156808452Y-88252064D01*
X156997350Y-88398290D01*
X157261043Y-88507591D01*
X157583200Y-88582242D01*
X157719320Y-88593552D01*
X157926637Y-88596132D01*
X158178033Y-88591217D01*
X158446388Y-88580038D01*
X158704584Y-88563829D01*
X158925502Y-88543822D01*
X159082023Y-88521251D01*
X159118322Y-88512456D01*
X159382944Y-88386027D01*
X159575895Y-88187600D01*
X159690564Y-87938567D01*
X159713751Y-87840519D01*
X159732047Y-87712371D01*
X159745949Y-87542490D01*
X159755955Y-87319245D01*
X159762564Y-87031006D01*
X159766273Y-86666139D01*
X159767580Y-86213015D01*
X159767600Y-86138979D01*
X159767600Y-92269600D01*
X159421117Y-92269600D01*
X159059899Y-92269600D01*
X159025752Y-92527013D01*
X158983374Y-92717911D01*
X158913208Y-92829643D01*
X158884302Y-92851504D01*
X158746264Y-92903294D01*
X158536850Y-92941191D01*
X158285673Y-92962415D01*
X158022347Y-92964184D01*
X157829801Y-92950523D01*
X157597368Y-92910548D01*
X157448656Y-92841372D01*
X157366303Y-92724060D01*
X157332949Y-92539674D01*
X157329200Y-92404473D01*
X157333710Y-92231599D01*
X157356400Y-92103534D01*
X157411008Y-92011684D01*
X157511272Y-91947451D01*
X157670931Y-91902241D01*
X157903724Y-91867456D01*
X158223388Y-91834501D01*
X158243141Y-91832630D01*
X158674782Y-91786332D01*
X159015386Y-91732995D01*
X159275514Y-91664591D01*
X159465723Y-91573090D01*
X159596573Y-91450465D01*
X159678623Y-91288688D01*
X159722432Y-91079729D01*
X159738558Y-90815560D01*
X159739624Y-90694800D01*
X159722953Y-90342493D01*
X159666719Y-90073889D01*
X159561178Y-89875562D01*
X159396584Y-89734089D01*
X159163192Y-89636044D01*
X158931745Y-89581932D01*
X158610632Y-89540977D01*
X158257303Y-89526553D01*
X157897431Y-89536920D01*
X157556692Y-89570337D01*
X157260758Y-89625064D01*
X157035305Y-89699359D01*
X157008732Y-89712301D01*
X156870334Y-89834080D01*
X156759123Y-90027406D01*
X156688402Y-90263179D01*
X156669915Y-90453500D01*
X156668800Y-90694800D01*
X157023432Y-90694800D01*
X157209462Y-90692810D01*
X157318023Y-90681000D01*
X157373242Y-90650603D01*
X157399242Y-90592854D01*
X157407947Y-90555100D01*
X157453977Y-90385099D01*
X157518306Y-90265310D01*
X157617050Y-90188517D01*
X157766323Y-90147502D01*
X157982238Y-90135048D01*
X158280910Y-90143936D01*
X158321338Y-90146003D01*
X158568753Y-90166219D01*
X158733568Y-90198540D01*
X158834456Y-90246916D01*
X158846722Y-90257138D01*
X158933913Y-90387288D01*
X158978794Y-90561327D01*
X158983298Y-90750538D01*
X158949356Y-90926203D01*
X158878902Y-91059607D01*
X158788719Y-91119119D01*
X158693494Y-91135155D01*
X158522539Y-91156735D01*
X158301363Y-91180856D01*
X158090729Y-91201314D01*
X157675388Y-91244425D01*
X157349481Y-91292336D01*
X157100844Y-91350569D01*
X156917313Y-91424645D01*
X156786724Y-91520086D01*
X156696912Y-91642413D01*
X156635716Y-91797147D01*
X156616219Y-91870623D01*
X156581272Y-92115152D01*
X156576381Y-92400413D01*
X156599011Y-92689433D01*
X156646628Y-92945239D01*
X156700506Y-93100078D01*
X156832129Y-93280883D01*
X157035396Y-93413563D01*
X157318786Y-93502365D01*
X157582239Y-93542040D01*
X157850491Y-93559182D01*
X158159319Y-93562639D01*
X158477821Y-93553632D01*
X158775095Y-93533381D01*
X159020243Y-93503106D01*
X159128007Y-93481013D01*
X159370930Y-93393274D01*
X159544355Y-93264948D01*
X159659744Y-93080267D01*
X159728561Y-92823458D01*
X159752843Y-92621389D01*
X159782335Y-92269600D01*
X159782335Y-99925791D01*
X159767600Y-99936301D01*
X159767600Y-98518000D01*
X159767600Y-96511400D01*
X159767600Y-94504800D01*
X158167400Y-94504800D01*
X156567200Y-94504800D01*
X156567200Y-94835000D01*
X156567200Y-95165200D01*
X157786400Y-95165200D01*
X159005600Y-95165200D01*
X159005600Y-95698600D01*
X159005600Y-96232000D01*
X157938800Y-96232000D01*
X156872000Y-96232000D01*
X156872000Y-96536800D01*
X156872000Y-96841600D01*
X157938800Y-96841600D01*
X159005600Y-96841600D01*
X159005600Y-97645933D01*
X159007637Y-97922089D01*
X159013263Y-98161709D01*
X159021747Y-98346730D01*
X159032359Y-98459089D01*
X159039466Y-98484133D01*
X159103936Y-98501169D01*
X159240481Y-98513332D01*
X159419602Y-98517999D01*
X159420466Y-98518000D01*
X159767600Y-98518000D01*
X159767600Y-99936301D01*
X159577354Y-100071994D01*
X159169250Y-100361190D01*
X158742745Y-100661746D01*
X158306002Y-100967957D01*
X157867186Y-101274119D01*
X157434461Y-101574527D01*
X157015990Y-101863476D01*
X156619939Y-102135260D01*
X156254471Y-102384175D01*
X155927750Y-102604516D01*
X155647940Y-102790577D01*
X155423206Y-102936655D01*
X155261712Y-103037044D01*
X155171622Y-103086039D01*
X155158065Y-103090000D01*
X155044636Y-103058909D01*
X155002560Y-103029039D01*
X154995476Y-103000087D01*
X154988916Y-102925866D01*
X154982863Y-102803282D01*
X154977299Y-102629242D01*
X154972210Y-102400651D01*
X154967579Y-102114416D01*
X154963389Y-101767442D01*
X154959624Y-101356635D01*
X154956267Y-100878901D01*
X154953304Y-100331146D01*
X154950716Y-99710276D01*
X154948489Y-99013197D01*
X154946605Y-98236815D01*
X154945048Y-97378035D01*
X154943802Y-96433764D01*
X154942852Y-95400907D01*
X154942179Y-94276371D01*
X154941769Y-93057061D01*
X154941604Y-91739883D01*
X154941600Y-91455860D01*
X154941658Y-90166502D01*
X154941849Y-88974879D01*
X154942199Y-87877128D01*
X154942732Y-86869385D01*
X154943475Y-85947785D01*
X154944451Y-85108464D01*
X154945686Y-84347557D01*
X154947206Y-83661202D01*
X154949036Y-83045533D01*
X154951200Y-82496687D01*
X154953725Y-82010799D01*
X154956635Y-81584004D01*
X154959955Y-81212440D01*
X154963711Y-80892242D01*
X154967928Y-80619545D01*
X154972631Y-80390485D01*
X154977845Y-80201199D01*
X154983595Y-80047822D01*
X154989908Y-79926489D01*
X154996807Y-79833337D01*
X155004319Y-79764502D01*
X155012467Y-79716119D01*
X155018327Y-79693120D01*
X155057412Y-79603058D01*
X155140868Y-79437723D01*
X155263233Y-79206692D01*
X155419045Y-78919539D01*
X155602843Y-78585838D01*
X155809165Y-78215165D01*
X156032548Y-77817096D01*
X156267531Y-77401203D01*
X156508652Y-76977064D01*
X156750450Y-76554253D01*
X156987462Y-76142344D01*
X157214227Y-75750913D01*
X157425282Y-75389535D01*
X157615167Y-75067784D01*
X157778419Y-74795236D01*
X157909577Y-74581466D01*
X158003178Y-74436048D01*
X158053761Y-74368558D01*
X158057139Y-74365848D01*
X158171658Y-74341341D01*
X158223681Y-74363842D01*
X158262820Y-74416454D01*
X158345601Y-74548275D01*
X158466525Y-74749592D01*
X158620094Y-75010689D01*
X158800807Y-75321850D01*
X159003168Y-75673360D01*
X159221676Y-76055505D01*
X159450833Y-76458569D01*
X159685141Y-76872836D01*
X159919099Y-77288592D01*
X160147210Y-77696121D01*
X160363975Y-78085708D01*
X160563894Y-78447638D01*
X160741469Y-78772196D01*
X160891202Y-79049666D01*
X161007592Y-79270333D01*
X161067427Y-79388112D01*
X161291600Y-79841625D01*
X161291600Y-89279022D01*
X161291600Y-89279022D01*
G36*
X147347000Y-96486000D02*
X147343304Y-96960491D01*
X147329759Y-97344907D01*
X147302683Y-97650588D01*
X147258391Y-97888871D01*
X147193198Y-98071096D01*
X147103421Y-98208600D01*
X146985376Y-98312723D01*
X146835378Y-98394801D01*
X146710553Y-98444792D01*
X146550121Y-98482888D01*
X146313915Y-98513565D01*
X146027557Y-98535816D01*
X145716673Y-98548632D01*
X145406884Y-98551003D01*
X145123815Y-98541921D01*
X144893089Y-98520378D01*
X144871831Y-98517177D01*
X144569085Y-98446469D01*
X144354040Y-98341664D01*
X144217051Y-98197750D01*
X144200460Y-98168319D01*
X144132223Y-97978866D01*
X144077344Y-97711216D01*
X144039162Y-97388278D01*
X144021018Y-97032960D01*
X144019983Y-96930500D01*
X144019600Y-96486000D01*
X144908600Y-96486000D01*
X145797600Y-96486000D01*
X145797600Y-96714600D01*
X145797600Y-96943200D01*
X145168524Y-96943200D01*
X144905430Y-96944304D01*
X144726631Y-96949398D01*
X144614834Y-96961150D01*
X144552743Y-96982229D01*
X144523063Y-97015304D01*
X144512995Y-97044361D01*
X144503848Y-97166334D01*
X144514444Y-97348883D01*
X144539844Y-97554026D01*
X144575106Y-97743784D01*
X144615291Y-97880175D01*
X144624157Y-97898978D01*
X144699828Y-97984962D01*
X144828466Y-98046577D01*
X145021205Y-98085838D01*
X145289178Y-98104761D01*
X145643518Y-98105361D01*
X145750057Y-98102796D01*
X146065134Y-98091564D01*
X146315819Y-98070490D01*
X146509409Y-98028953D01*
X146653198Y-97956334D01*
X146754484Y-97842014D01*
X146820563Y-97675371D01*
X146858731Y-97445787D01*
X146876283Y-97142640D01*
X146880517Y-96755312D01*
X146879608Y-96458687D01*
X146875123Y-96048113D01*
X146864162Y-95726674D01*
X146843929Y-95481972D01*
X146811626Y-95301610D01*
X146764457Y-95173190D01*
X146699624Y-95084313D01*
X146614330Y-95022583D01*
X146548728Y-94992008D01*
X146294111Y-94923140D01*
X145959165Y-94887468D01*
X145559956Y-94886097D01*
X145272810Y-94904193D01*
X144991324Y-94936027D01*
X144794905Y-94981906D01*
X144667051Y-95053324D01*
X144591261Y-95161773D01*
X144551034Y-95318749D01*
X144539487Y-95414960D01*
X144514673Y-95673200D01*
X144259899Y-95673200D01*
X144005126Y-95673200D01*
X144037937Y-95359277D01*
X144096882Y-95043558D01*
X144197616Y-94803183D01*
X144335853Y-94647214D01*
X144389734Y-94615448D01*
X144610285Y-94543439D01*
X144914557Y-94493014D01*
X145286657Y-94465782D01*
X145710688Y-94463353D01*
X145848400Y-94467814D01*
X146259118Y-94496529D01*
X146582510Y-94548855D01*
X146831261Y-94630507D01*
X147018057Y-94747197D01*
X147155582Y-94904642D01*
X147253564Y-95100826D01*
X147284657Y-95193334D01*
X147308128Y-95298278D01*
X147325001Y-95430832D01*
X147336300Y-95606169D01*
X147343048Y-95839465D01*
X147346270Y-96145894D01*
X147347000Y-96486000D01*
X147347000Y-96486000D01*
X147347000Y-96486000D01*
G37*
X147347000Y-96486000D02*
X147343304Y-96960491D01*
X147329759Y-97344907D01*
X147302683Y-97650588D01*
X147258391Y-97888871D01*
X147193198Y-98071096D01*
X147103421Y-98208600D01*
X146985376Y-98312723D01*
X146835378Y-98394801D01*
X146710553Y-98444792D01*
X146550121Y-98482888D01*
X146313915Y-98513565D01*
X146027557Y-98535816D01*
X145716673Y-98548632D01*
X145406884Y-98551003D01*
X145123815Y-98541921D01*
X144893089Y-98520378D01*
X144871831Y-98517177D01*
X144569085Y-98446469D01*
X144354040Y-98341664D01*
X144217051Y-98197750D01*
X144200460Y-98168319D01*
X144132223Y-97978866D01*
X144077344Y-97711216D01*
X144039162Y-97388278D01*
X144021018Y-97032960D01*
X144019983Y-96930500D01*
X144019600Y-96486000D01*
X144908600Y-96486000D01*
X145797600Y-96486000D01*
X145797600Y-96714600D01*
X145797600Y-96943200D01*
X145168524Y-96943200D01*
X144905430Y-96944304D01*
X144726631Y-96949398D01*
X144614834Y-96961150D01*
X144552743Y-96982229D01*
X144523063Y-97015304D01*
X144512995Y-97044361D01*
X144503848Y-97166334D01*
X144514444Y-97348883D01*
X144539844Y-97554026D01*
X144575106Y-97743784D01*
X144615291Y-97880175D01*
X144624157Y-97898978D01*
X144699828Y-97984962D01*
X144828466Y-98046577D01*
X145021205Y-98085838D01*
X145289178Y-98104761D01*
X145643518Y-98105361D01*
X145750057Y-98102796D01*
X146065134Y-98091564D01*
X146315819Y-98070490D01*
X146509409Y-98028953D01*
X146653198Y-97956334D01*
X146754484Y-97842014D01*
X146820563Y-97675371D01*
X146858731Y-97445787D01*
X146876283Y-97142640D01*
X146880517Y-96755312D01*
X146879608Y-96458687D01*
X146875123Y-96048113D01*
X146864162Y-95726674D01*
X146843929Y-95481972D01*
X146811626Y-95301610D01*
X146764457Y-95173190D01*
X146699624Y-95084313D01*
X146614330Y-95022583D01*
X146548728Y-94992008D01*
X146294111Y-94923140D01*
X145959165Y-94887468D01*
X145559956Y-94886097D01*
X145272810Y-94904193D01*
X144991324Y-94936027D01*
X144794905Y-94981906D01*
X144667051Y-95053324D01*
X144591261Y-95161773D01*
X144551034Y-95318749D01*
X144539487Y-95414960D01*
X144514673Y-95673200D01*
X144259899Y-95673200D01*
X144005126Y-95673200D01*
X144037937Y-95359277D01*
X144096882Y-95043558D01*
X144197616Y-94803183D01*
X144335853Y-94647214D01*
X144389734Y-94615448D01*
X144610285Y-94543439D01*
X144914557Y-94493014D01*
X145286657Y-94465782D01*
X145710688Y-94463353D01*
X145848400Y-94467814D01*
X146259118Y-94496529D01*
X146582510Y-94548855D01*
X146831261Y-94630507D01*
X147018057Y-94747197D01*
X147155582Y-94904642D01*
X147253564Y-95100826D01*
X147284657Y-95193334D01*
X147308128Y-95298278D01*
X147325001Y-95430832D01*
X147336300Y-95606169D01*
X147343048Y-95839465D01*
X147346270Y-96145894D01*
X147347000Y-96486000D01*
X147347000Y-96486000D01*
G36*
X137466400Y-94962000D02*
X136831400Y-94962000D01*
X136196400Y-94962000D01*
X136196400Y-96740000D01*
X136196400Y-98518000D01*
X135942400Y-98518000D01*
X135688400Y-98518000D01*
X135688400Y-96740000D01*
X135688400Y-94962000D01*
X135053400Y-94962000D01*
X134418400Y-94962000D01*
X134418400Y-94733400D01*
X134418400Y-94504800D01*
X135942400Y-94504800D01*
X137466400Y-94504800D01*
X137466400Y-94733400D01*
X137466400Y-94962000D01*
X137466400Y-94962000D01*
X137466400Y-94962000D01*
G37*
X137466400Y-94962000D02*
X136831400Y-94962000D01*
X136196400Y-94962000D01*
X136196400Y-96740000D01*
X136196400Y-98518000D01*
X135942400Y-98518000D01*
X135688400Y-98518000D01*
X135688400Y-96740000D01*
X135688400Y-94962000D01*
X135053400Y-94962000D01*
X134418400Y-94962000D01*
X134418400Y-94733400D01*
X134418400Y-94504800D01*
X135942400Y-94504800D01*
X137466400Y-94504800D01*
X137466400Y-94733400D01*
X137466400Y-94962000D01*
X137466400Y-94962000D01*
G36*
X142292400Y-98518000D02*
X142063800Y-98518000D01*
X141835200Y-98518000D01*
X141835200Y-97603600D01*
X141835200Y-96689200D01*
X140692200Y-96689200D01*
X139549200Y-96689200D01*
X139549200Y-97603600D01*
X139549200Y-98518000D01*
X139295200Y-98518000D01*
X139041200Y-98518000D01*
X139041200Y-96511400D01*
X139041200Y-94504800D01*
X139295200Y-94504800D01*
X139549200Y-94504800D01*
X139549200Y-95368400D01*
X139549200Y-96232000D01*
X140692200Y-96232000D01*
X141835200Y-96232000D01*
X141835200Y-95368400D01*
X141835200Y-94504800D01*
X142063800Y-94504800D01*
X142292400Y-94504800D01*
X142292400Y-96511400D01*
X142292400Y-98518000D01*
X142292400Y-98518000D01*
X142292400Y-98518000D01*
G37*
X142292400Y-98518000D02*
X142063800Y-98518000D01*
X141835200Y-98518000D01*
X141835200Y-97603600D01*
X141835200Y-96689200D01*
X140692200Y-96689200D01*
X139549200Y-96689200D01*
X139549200Y-97603600D01*
X139549200Y-98518000D01*
X139295200Y-98518000D01*
X139041200Y-98518000D01*
X139041200Y-96511400D01*
X139041200Y-94504800D01*
X139295200Y-94504800D01*
X139549200Y-94504800D01*
X139549200Y-95368400D01*
X139549200Y-96232000D01*
X140692200Y-96232000D01*
X141835200Y-96232000D01*
X141835200Y-95368400D01*
X141835200Y-94504800D01*
X142063800Y-94504800D01*
X142292400Y-94504800D01*
X142292400Y-96511400D01*
X142292400Y-98518000D01*
X142292400Y-98518000D01*
G36*
X149607600Y-98518000D02*
X149379000Y-98518000D01*
X149150400Y-98518000D01*
X149150400Y-96511400D01*
X149150400Y-94504800D01*
X149379000Y-94504800D01*
X149607600Y-94504800D01*
X149607600Y-96511400D01*
X149607600Y-98518000D01*
X149607600Y-98518000D01*
X149607600Y-98518000D01*
G37*
X149607600Y-98518000D02*
X149379000Y-98518000D01*
X149150400Y-98518000D01*
X149150400Y-96511400D01*
X149150400Y-94504800D01*
X149379000Y-94504800D01*
X149607600Y-94504800D01*
X149607600Y-96511400D01*
X149607600Y-98518000D01*
X149607600Y-98518000D01*
G36*
X153722400Y-98518000D02*
X152452400Y-98518000D01*
X151182400Y-98518000D01*
X151182400Y-98289400D01*
X151182400Y-98060800D01*
X152198400Y-98060800D01*
X153214400Y-98060800D01*
X153214400Y-96282800D01*
X153214400Y-94504800D01*
X153468400Y-94504800D01*
X153722400Y-94504800D01*
X153722400Y-96511400D01*
X153722400Y-98518000D01*
X153722400Y-98518000D01*
X153722400Y-98518000D01*
G37*
X153722400Y-98518000D02*
X152452400Y-98518000D01*
X151182400Y-98518000D01*
X151182400Y-98289400D01*
X151182400Y-98060800D01*
X152198400Y-98060800D01*
X153214400Y-98060800D01*
X153214400Y-96282800D01*
X153214400Y-94504800D01*
X153468400Y-94504800D01*
X153722400Y-94504800D01*
X153722400Y-96511400D01*
X153722400Y-98518000D01*
X153722400Y-98518000D01*
G36*
X142571800Y-91380600D02*
X142569086Y-91841168D01*
X142559736Y-92212923D01*
X142541938Y-92508537D01*
X142513880Y-92740682D01*
X142473749Y-92922029D01*
X142419734Y-93065252D01*
X142350021Y-93183021D01*
X142305940Y-93239629D01*
X142198557Y-93350425D01*
X142077879Y-93432893D01*
X141926902Y-93491507D01*
X141728626Y-93530742D01*
X141466048Y-93555074D01*
X141122167Y-93568977D01*
X141047800Y-93570774D01*
X140634240Y-93573230D01*
X140299511Y-93560752D01*
X140053107Y-93533771D01*
X139998410Y-93523044D01*
X139764002Y-93451680D01*
X139594480Y-93348885D01*
X139478861Y-93198664D01*
X139406165Y-92985021D01*
X139365409Y-92691961D01*
X139358025Y-92590306D01*
X139331678Y-92168000D01*
X139592839Y-92168000D01*
X139854000Y-92168000D01*
X139854000Y-92495367D01*
X139861236Y-92693683D01*
X139888826Y-92826063D01*
X139945589Y-92927516D01*
X139970633Y-92958329D01*
X140034946Y-93022432D01*
X140112070Y-93066579D01*
X140225496Y-93097803D01*
X140398717Y-93123135D01*
X140587759Y-93143064D01*
X140974405Y-93163625D01*
X141317962Y-93147597D01*
X141600849Y-93096920D01*
X141805486Y-93013535D01*
X141814701Y-93007659D01*
X141888083Y-92941750D01*
X141945598Y-92843700D01*
X141989058Y-92701999D01*
X142020271Y-92505137D01*
X142041049Y-92241605D01*
X142053201Y-91899893D01*
X142058537Y-91468491D01*
X142058597Y-91456800D01*
X142058634Y-91053765D01*
X142052518Y-90739655D01*
X142037683Y-90501855D01*
X142011561Y-90327753D01*
X141971585Y-90204735D01*
X141915185Y-90120188D01*
X141839796Y-90061499D01*
X141767342Y-90026057D01*
X141628633Y-89992299D01*
X141398003Y-89970180D01*
X141071773Y-89959416D01*
X140884111Y-89958200D01*
X140597503Y-89959171D01*
X140394349Y-89963711D01*
X140256508Y-89974262D01*
X140165840Y-89993264D01*
X140104205Y-90023158D01*
X140053462Y-90066384D01*
X140049295Y-90070526D01*
X139975129Y-90177601D01*
X139931951Y-90333282D01*
X139914778Y-90489626D01*
X139892588Y-90796400D01*
X139637326Y-90796400D01*
X139382064Y-90796400D01*
X139412164Y-90437360D01*
X139459605Y-90138326D01*
X139551840Y-89901881D01*
X139697222Y-89723201D01*
X139904104Y-89597466D01*
X140180837Y-89519853D01*
X140535776Y-89485540D01*
X140977272Y-89489707D01*
X141047800Y-89493157D01*
X141479466Y-89530080D01*
X141823291Y-89593021D01*
X142090715Y-89686429D01*
X142293180Y-89814753D01*
X142442128Y-89982441D01*
X142483914Y-90051585D01*
X142512685Y-90115722D01*
X142534529Y-90198407D01*
X142550360Y-90313439D01*
X142561089Y-90474618D01*
X142567631Y-90695745D01*
X142570897Y-90990620D01*
X142571799Y-91373044D01*
X142571800Y-91380600D01*
X142571800Y-91380600D01*
X142571800Y-91380600D01*
G37*
X142571800Y-91380600D02*
X142569086Y-91841168D01*
X142559736Y-92212923D01*
X142541938Y-92508537D01*
X142513880Y-92740682D01*
X142473749Y-92922029D01*
X142419734Y-93065252D01*
X142350021Y-93183021D01*
X142305940Y-93239629D01*
X142198557Y-93350425D01*
X142077879Y-93432893D01*
X141926902Y-93491507D01*
X141728626Y-93530742D01*
X141466048Y-93555074D01*
X141122167Y-93568977D01*
X141047800Y-93570774D01*
X140634240Y-93573230D01*
X140299511Y-93560752D01*
X140053107Y-93533771D01*
X139998410Y-93523044D01*
X139764002Y-93451680D01*
X139594480Y-93348885D01*
X139478861Y-93198664D01*
X139406165Y-92985021D01*
X139365409Y-92691961D01*
X139358025Y-92590306D01*
X139331678Y-92168000D01*
X139592839Y-92168000D01*
X139854000Y-92168000D01*
X139854000Y-92495367D01*
X139861236Y-92693683D01*
X139888826Y-92826063D01*
X139945589Y-92927516D01*
X139970633Y-92958329D01*
X140034946Y-93022432D01*
X140112070Y-93066579D01*
X140225496Y-93097803D01*
X140398717Y-93123135D01*
X140587759Y-93143064D01*
X140974405Y-93163625D01*
X141317962Y-93147597D01*
X141600849Y-93096920D01*
X141805486Y-93013535D01*
X141814701Y-93007659D01*
X141888083Y-92941750D01*
X141945598Y-92843700D01*
X141989058Y-92701999D01*
X142020271Y-92505137D01*
X142041049Y-92241605D01*
X142053201Y-91899893D01*
X142058537Y-91468491D01*
X142058597Y-91456800D01*
X142058634Y-91053765D01*
X142052518Y-90739655D01*
X142037683Y-90501855D01*
X142011561Y-90327753D01*
X141971585Y-90204735D01*
X141915185Y-90120188D01*
X141839796Y-90061499D01*
X141767342Y-90026057D01*
X141628633Y-89992299D01*
X141398003Y-89970180D01*
X141071773Y-89959416D01*
X140884111Y-89958200D01*
X140597503Y-89959171D01*
X140394349Y-89963711D01*
X140256508Y-89974262D01*
X140165840Y-89993264D01*
X140104205Y-90023158D01*
X140053462Y-90066384D01*
X140049295Y-90070526D01*
X139975129Y-90177601D01*
X139931951Y-90333282D01*
X139914778Y-90489626D01*
X139892588Y-90796400D01*
X139637326Y-90796400D01*
X139382064Y-90796400D01*
X139412164Y-90437360D01*
X139459605Y-90138326D01*
X139551840Y-89901881D01*
X139697222Y-89723201D01*
X139904104Y-89597466D01*
X140180837Y-89519853D01*
X140535776Y-89485540D01*
X140977272Y-89489707D01*
X141047800Y-89493157D01*
X141479466Y-89530080D01*
X141823291Y-89593021D01*
X142090715Y-89686429D01*
X142293180Y-89814753D01*
X142442128Y-89982441D01*
X142483914Y-90051585D01*
X142512685Y-90115722D01*
X142534529Y-90198407D01*
X142550360Y-90313439D01*
X142561089Y-90474618D01*
X142567631Y-90695745D01*
X142570897Y-90990620D01*
X142571799Y-91373044D01*
X142571800Y-91380600D01*
X142571800Y-91380600D01*
G36*
X137009200Y-93539600D02*
X135688400Y-93539600D01*
X134367600Y-93539600D01*
X134367600Y-93336400D01*
X134367600Y-93133200D01*
X135434400Y-93133200D01*
X136501200Y-93133200D01*
X136501200Y-92422000D01*
X136501200Y-91710800D01*
X135485200Y-91710800D01*
X134469200Y-91710800D01*
X134469200Y-91482200D01*
X134469200Y-91253600D01*
X135485200Y-91253600D01*
X136501200Y-91253600D01*
X136501200Y-90593200D01*
X136501200Y-89932800D01*
X135434400Y-89932800D01*
X134367600Y-89932800D01*
X134367600Y-89729600D01*
X134367600Y-89526400D01*
X135688400Y-89526400D01*
X137009200Y-89526400D01*
X137009200Y-91533000D01*
X137009200Y-93539600D01*
X137009200Y-93539600D01*
X137009200Y-93539600D01*
G37*
X137009200Y-93539600D02*
X135688400Y-93539600D01*
X134367600Y-93539600D01*
X134367600Y-93336400D01*
X134367600Y-93133200D01*
X135434400Y-93133200D01*
X136501200Y-93133200D01*
X136501200Y-92422000D01*
X136501200Y-91710800D01*
X135485200Y-91710800D01*
X134469200Y-91710800D01*
X134469200Y-91482200D01*
X134469200Y-91253600D01*
X135485200Y-91253600D01*
X136501200Y-91253600D01*
X136501200Y-90593200D01*
X136501200Y-89932800D01*
X135434400Y-89932800D01*
X134367600Y-89932800D01*
X134367600Y-89729600D01*
X134367600Y-89526400D01*
X135688400Y-89526400D01*
X137009200Y-89526400D01*
X137009200Y-91533000D01*
X137009200Y-93539600D01*
X137009200Y-93539600D01*
G36*
X148471853Y-93502472D02*
X148426380Y-93529238D01*
X148310274Y-93538751D01*
X148226723Y-93539468D01*
X147956600Y-93539336D01*
X147812739Y-93132007D01*
X147668878Y-92724679D01*
X147520246Y-92726737D01*
X147520246Y-92320400D01*
X147402206Y-92002900D01*
X147344466Y-91845574D01*
X147261536Y-91616939D01*
X147162230Y-91341423D01*
X147055364Y-91043458D01*
X146989749Y-90859767D01*
X146893053Y-90591881D01*
X146807875Y-90362103D01*
X146739985Y-90185506D01*
X146695157Y-90077161D01*
X146679587Y-90049879D01*
X146658363Y-90100117D01*
X146607786Y-90231894D01*
X146533083Y-90431217D01*
X146439483Y-90684091D01*
X146332216Y-90976522D01*
X146285679Y-91104112D01*
X146172656Y-91414168D01*
X146069842Y-91695613D01*
X145982847Y-91933135D01*
X145917285Y-92111420D01*
X145878767Y-92215155D01*
X145872523Y-92231500D01*
X145866243Y-92264284D01*
X145886296Y-92287871D01*
X145946285Y-92303760D01*
X146059812Y-92313450D01*
X146240480Y-92318441D01*
X146501892Y-92320234D01*
X146678888Y-92320400D01*
X147520246Y-92320400D01*
X147520246Y-92726737D01*
X146675585Y-92738439D01*
X145682291Y-92752200D01*
X145532454Y-93145900D01*
X145382616Y-93539600D01*
X145132908Y-93539600D01*
X144989410Y-93531776D01*
X144899117Y-93511806D01*
X144883200Y-93496810D01*
X144900490Y-93441471D01*
X144949859Y-93301286D01*
X145027553Y-93086481D01*
X145129819Y-92807283D01*
X145252905Y-92473919D01*
X145393057Y-92096613D01*
X145546523Y-91685593D01*
X145614968Y-91502910D01*
X146346737Y-89551800D01*
X146693080Y-89551800D01*
X147039424Y-89551800D01*
X147739029Y-91456800D01*
X147893177Y-91876775D01*
X148037010Y-92269099D01*
X148166603Y-92623032D01*
X148278033Y-92927840D01*
X148367376Y-93172784D01*
X148430708Y-93347129D01*
X148464104Y-93440138D01*
X148467740Y-93450700D01*
X148471853Y-93502472D01*
X148471853Y-93502472D01*
X148471853Y-93502472D01*
G37*
X148471853Y-93502472D02*
X148426380Y-93529238D01*
X148310274Y-93538751D01*
X148226723Y-93539468D01*
X147956600Y-93539336D01*
X147812739Y-93132007D01*
X147668878Y-92724679D01*
X147520246Y-92726737D01*
X147520246Y-92320400D01*
X147402206Y-92002900D01*
X147344466Y-91845574D01*
X147261536Y-91616939D01*
X147162230Y-91341423D01*
X147055364Y-91043458D01*
X146989749Y-90859767D01*
X146893053Y-90591881D01*
X146807875Y-90362103D01*
X146739985Y-90185506D01*
X146695157Y-90077161D01*
X146679587Y-90049879D01*
X146658363Y-90100117D01*
X146607786Y-90231894D01*
X146533083Y-90431217D01*
X146439483Y-90684091D01*
X146332216Y-90976522D01*
X146285679Y-91104112D01*
X146172656Y-91414168D01*
X146069842Y-91695613D01*
X145982847Y-91933135D01*
X145917285Y-92111420D01*
X145878767Y-92215155D01*
X145872523Y-92231500D01*
X145866243Y-92264284D01*
X145886296Y-92287871D01*
X145946285Y-92303760D01*
X146059812Y-92313450D01*
X146240480Y-92318441D01*
X146501892Y-92320234D01*
X146678888Y-92320400D01*
X147520246Y-92320400D01*
X147520246Y-92726737D01*
X146675585Y-92738439D01*
X145682291Y-92752200D01*
X145532454Y-93145900D01*
X145382616Y-93539600D01*
X145132908Y-93539600D01*
X144989410Y-93531776D01*
X144899117Y-93511806D01*
X144883200Y-93496810D01*
X144900490Y-93441471D01*
X144949859Y-93301286D01*
X145027553Y-93086481D01*
X145129819Y-92807283D01*
X145252905Y-92473919D01*
X145393057Y-92096613D01*
X145546523Y-91685593D01*
X145614968Y-91502910D01*
X146346737Y-89551800D01*
X146693080Y-89551800D01*
X147039424Y-89551800D01*
X147739029Y-91456800D01*
X147893177Y-91876775D01*
X148037010Y-92269099D01*
X148166603Y-92623032D01*
X148278033Y-92927840D01*
X148367376Y-93172784D01*
X148430708Y-93347129D01*
X148464104Y-93440138D01*
X148467740Y-93450700D01*
X148471853Y-93502472D01*
X148471853Y-93502472D01*
G36*
X153722400Y-93539600D02*
X153468400Y-93539600D01*
X153214400Y-93539600D01*
X153214400Y-92755279D01*
X153214400Y-91970958D01*
X153214400Y-91558400D01*
X153214400Y-90745600D01*
X153214400Y-89932800D01*
X152566700Y-89936508D01*
X152142982Y-89944595D01*
X151812183Y-89964155D01*
X151566154Y-89996258D01*
X151396747Y-90041972D01*
X151295814Y-90102369D01*
X151294659Y-90103512D01*
X151248213Y-90177686D01*
X151217064Y-90302702D01*
X151197425Y-90498267D01*
X151189953Y-90648213D01*
X151184551Y-90914319D01*
X151198872Y-91121638D01*
X151243870Y-91277633D01*
X151330499Y-91389765D01*
X151469711Y-91465494D01*
X151672460Y-91512284D01*
X151949698Y-91537595D01*
X152312380Y-91548889D01*
X152515900Y-91551481D01*
X153214400Y-91558400D01*
X153214400Y-91970958D01*
X152261900Y-91955179D01*
X151867808Y-91945820D01*
X151561250Y-91929719D01*
X151328197Y-91902847D01*
X151154619Y-91861174D01*
X151026486Y-91800669D01*
X150929768Y-91717305D01*
X150850436Y-91607050D01*
X150811907Y-91538709D01*
X150760885Y-91428827D01*
X150728047Y-91312044D01*
X150709664Y-91162552D01*
X150702009Y-90954542D01*
X150701024Y-90771000D01*
X150713142Y-90423063D01*
X150752340Y-90157237D01*
X150824036Y-89956369D01*
X150933645Y-89803307D01*
X151033931Y-89716806D01*
X151128930Y-89658176D01*
X151242701Y-89612715D01*
X151388651Y-89578846D01*
X151580190Y-89554992D01*
X151830725Y-89539577D01*
X152153664Y-89531024D01*
X152562415Y-89527756D01*
X152642900Y-89527611D01*
X153722400Y-89526400D01*
X153722400Y-91533000D01*
X153722400Y-93539600D01*
X153722400Y-93539600D01*
X153722400Y-93539600D01*
G37*
X153722400Y-93539600D02*
X153468400Y-93539600D01*
X153214400Y-93539600D01*
X153214400Y-92755279D01*
X153214400Y-91970958D01*
X153214400Y-91558400D01*
X153214400Y-90745600D01*
X153214400Y-89932800D01*
X152566700Y-89936508D01*
X152142982Y-89944595D01*
X151812183Y-89964155D01*
X151566154Y-89996258D01*
X151396747Y-90041972D01*
X151295814Y-90102369D01*
X151294659Y-90103512D01*
X151248213Y-90177686D01*
X151217064Y-90302702D01*
X151197425Y-90498267D01*
X151189953Y-90648213D01*
X151184551Y-90914319D01*
X151198872Y-91121638D01*
X151243870Y-91277633D01*
X151330499Y-91389765D01*
X151469711Y-91465494D01*
X151672460Y-91512284D01*
X151949698Y-91537595D01*
X152312380Y-91548889D01*
X152515900Y-91551481D01*
X153214400Y-91558400D01*
X153214400Y-91970958D01*
X152261900Y-91955179D01*
X151867808Y-91945820D01*
X151561250Y-91929719D01*
X151328197Y-91902847D01*
X151154619Y-91861174D01*
X151026486Y-91800669D01*
X150929768Y-91717305D01*
X150850436Y-91607050D01*
X150811907Y-91538709D01*
X150760885Y-91428827D01*
X150728047Y-91312044D01*
X150709664Y-91162552D01*
X150702009Y-90954542D01*
X150701024Y-90771000D01*
X150713142Y-90423063D01*
X150752340Y-90157237D01*
X150824036Y-89956369D01*
X150933645Y-89803307D01*
X151033931Y-89716806D01*
X151128930Y-89658176D01*
X151242701Y-89612715D01*
X151388651Y-89578846D01*
X151580190Y-89554992D01*
X151830725Y-89539577D01*
X152153664Y-89531024D01*
X152562415Y-89527756D01*
X152642900Y-89527611D01*
X153722400Y-89526400D01*
X153722400Y-91533000D01*
X153722400Y-93539600D01*
X153722400Y-93539600D01*
G36*
X121413600Y-84571245D02*
X121387530Y-84619963D01*
X121313997Y-84743073D01*
X121200013Y-84929205D01*
X121052590Y-85166992D01*
X120878741Y-85445064D01*
X120685478Y-85752052D01*
X120677000Y-85765473D01*
X119940400Y-86931386D01*
X119940400Y-87771693D01*
X119940400Y-88612000D01*
X119686400Y-88612000D01*
X119432400Y-88612000D01*
X119432400Y-87760363D01*
X119432399Y-86908726D01*
X118695799Y-85774175D01*
X118499839Y-85470689D01*
X118323496Y-85194409D01*
X118174017Y-84956943D01*
X118058647Y-84769902D01*
X117984631Y-84644898D01*
X117959199Y-84593812D01*
X118005109Y-84568599D01*
X118123414Y-84551959D01*
X118235445Y-84548000D01*
X118511690Y-84548000D01*
X119086345Y-85459000D01*
X119267904Y-85741627D01*
X119427448Y-85979856D01*
X119557747Y-86163573D01*
X119651571Y-86282662D01*
X119701687Y-86327007D01*
X119706010Y-86325849D01*
X119745956Y-86270983D01*
X119830927Y-86143911D01*
X119951913Y-85958463D01*
X120099901Y-85728471D01*
X120265879Y-85467766D01*
X120291338Y-85427549D01*
X120831656Y-84573400D01*
X121122628Y-84558164D01*
X121279070Y-84554444D01*
X121384695Y-84560491D01*
X121413600Y-84571245D01*
X121413600Y-84571245D01*
X121413600Y-84571245D01*
G37*
X121413600Y-84571245D02*
X121387530Y-84619963D01*
X121313997Y-84743073D01*
X121200013Y-84929205D01*
X121052590Y-85166992D01*
X120878741Y-85445064D01*
X120685478Y-85752052D01*
X120677000Y-85765473D01*
X119940400Y-86931386D01*
X119940400Y-87771693D01*
X119940400Y-88612000D01*
X119686400Y-88612000D01*
X119432400Y-88612000D01*
X119432400Y-87760363D01*
X119432399Y-86908726D01*
X118695799Y-85774175D01*
X118499839Y-85470689D01*
X118323496Y-85194409D01*
X118174017Y-84956943D01*
X118058647Y-84769902D01*
X117984631Y-84644898D01*
X117959199Y-84593812D01*
X118005109Y-84568599D01*
X118123414Y-84551959D01*
X118235445Y-84548000D01*
X118511690Y-84548000D01*
X119086345Y-85459000D01*
X119267904Y-85741627D01*
X119427448Y-85979856D01*
X119557747Y-86163573D01*
X119651571Y-86282662D01*
X119701687Y-86327007D01*
X119706010Y-86325849D01*
X119745956Y-86270983D01*
X119830927Y-86143911D01*
X119951913Y-85958463D01*
X120099901Y-85728471D01*
X120265879Y-85467766D01*
X120291338Y-85427549D01*
X120831656Y-84573400D01*
X121122628Y-84558164D01*
X121279070Y-84554444D01*
X121384695Y-84560491D01*
X121413600Y-84571245D01*
X121413600Y-84571245D01*
G36*
X125630000Y-85005200D02*
X124995000Y-85005200D01*
X124360000Y-85005200D01*
X124360000Y-86808600D01*
X124360000Y-88612000D01*
X124106000Y-88612000D01*
X123852000Y-88612000D01*
X123852000Y-86808600D01*
X123852000Y-85005200D01*
X123191600Y-85005200D01*
X122531200Y-85005200D01*
X122531200Y-84776600D01*
X122531200Y-84548000D01*
X124080600Y-84548000D01*
X125630000Y-84548000D01*
X125630000Y-84776600D01*
X125630000Y-85005200D01*
X125630000Y-85005200D01*
X125630000Y-85005200D01*
G37*
X125630000Y-85005200D02*
X124995000Y-85005200D01*
X124360000Y-85005200D01*
X124360000Y-86808600D01*
X124360000Y-88612000D01*
X124106000Y-88612000D01*
X123852000Y-88612000D01*
X123852000Y-86808600D01*
X123852000Y-85005200D01*
X123191600Y-85005200D01*
X122531200Y-85005200D01*
X122531200Y-84776600D01*
X122531200Y-84548000D01*
X124080600Y-84548000D01*
X125630000Y-84548000D01*
X125630000Y-84776600D01*
X125630000Y-85005200D01*
X125630000Y-85005200D01*
G36*
X127712800Y-88612000D02*
X127458800Y-88612000D01*
X127204800Y-88612000D01*
X127204800Y-86580000D01*
X127204800Y-84548000D01*
X127458800Y-84548000D01*
X127712800Y-84548000D01*
X127712800Y-86580000D01*
X127712800Y-88612000D01*
X127712800Y-88612000D01*
X127712800Y-88612000D01*
G37*
X127712800Y-88612000D02*
X127458800Y-88612000D01*
X127204800Y-88612000D01*
X127204800Y-86580000D01*
X127204800Y-84548000D01*
X127458800Y-84548000D01*
X127712800Y-84548000D01*
X127712800Y-86580000D01*
X127712800Y-88612000D01*
X127712800Y-88612000D01*
G36*
X132451864Y-87291200D02*
X132422936Y-87673692D01*
X132380541Y-87980085D01*
X132300524Y-88206683D01*
X132173725Y-88371219D01*
X132003985Y-88485000D01*
X131912644Y-88524568D01*
X131807888Y-88553157D01*
X131671013Y-88572846D01*
X131483316Y-88585719D01*
X131226092Y-88593856D01*
X130989400Y-88597923D01*
X130625531Y-88599549D01*
X130347485Y-88592332D01*
X130139789Y-88575349D01*
X129986976Y-88547674D01*
X129944105Y-88535453D01*
X129728190Y-88436730D01*
X129571188Y-88289621D01*
X129466870Y-88082101D01*
X129409004Y-87802144D01*
X129391429Y-87468664D01*
X129402049Y-87144002D01*
X129440974Y-86899364D01*
X129512699Y-86716004D01*
X129600578Y-86596694D01*
X129680495Y-86527514D01*
X129785319Y-86471600D01*
X129929480Y-86425593D01*
X130127410Y-86386136D01*
X130393539Y-86349871D01*
X130742299Y-86313439D01*
X130868351Y-86301686D01*
X131208506Y-86268259D01*
X131461240Y-86234398D01*
X131640532Y-86193219D01*
X131760355Y-86137835D01*
X131834685Y-86061361D01*
X131877499Y-85956910D01*
X131902771Y-85817598D01*
X131906285Y-85790301D01*
X131921461Y-85503770D01*
X131879822Y-85288756D01*
X131772571Y-85136027D01*
X131590909Y-85036351D01*
X131326041Y-84980495D01*
X131118888Y-84963950D01*
X130720015Y-84958094D01*
X130415605Y-84983476D01*
X130203338Y-85040420D01*
X130100400Y-85106800D01*
X130034882Y-85214502D01*
X129983014Y-85372222D01*
X129971293Y-85433338D01*
X129936463Y-85665600D01*
X129682378Y-85665600D01*
X129428293Y-85665600D01*
X129463710Y-85373500D01*
X129528293Y-85073381D01*
X129643315Y-84852111D01*
X129815773Y-84696692D01*
X129834029Y-84685679D01*
X130009489Y-84619167D01*
X130260408Y-84571144D01*
X130562293Y-84541862D01*
X130890652Y-84531573D01*
X131220993Y-84540529D01*
X131528824Y-84568981D01*
X131789654Y-84617183D01*
X131934135Y-84664062D01*
X132124948Y-84777547D01*
X132259083Y-84939741D01*
X132342626Y-85163908D01*
X132381665Y-85463309D01*
X132386400Y-85649412D01*
X132368309Y-85959764D01*
X132307897Y-86208363D01*
X132195957Y-86402315D01*
X132023279Y-86548721D01*
X131780657Y-86654687D01*
X131458880Y-86727317D01*
X131048742Y-86773714D01*
X130917087Y-86782954D01*
X130649527Y-86803728D01*
X130407957Y-86829645D01*
X130215964Y-86857676D01*
X130097132Y-86884794D01*
X130084144Y-86889876D01*
X129981484Y-86962078D01*
X129916576Y-87078320D01*
X129883476Y-87256890D01*
X129876242Y-87516076D01*
X129876416Y-87529080D01*
X129905952Y-87806256D01*
X129987101Y-88000018D01*
X130122822Y-88116144D01*
X130189942Y-88141293D01*
X130310879Y-88159328D01*
X130505503Y-88171566D01*
X130746067Y-88178025D01*
X131004825Y-88178725D01*
X131254030Y-88173684D01*
X131465936Y-88162922D01*
X131612796Y-88146458D01*
X131640447Y-88140291D01*
X131775421Y-88052229D01*
X131872106Y-87883225D01*
X131923111Y-87649124D01*
X131929200Y-87521431D01*
X131929200Y-87291200D01*
X132190532Y-87291200D01*
X132451864Y-87291200D01*
X132451864Y-87291200D01*
X132451864Y-87291200D01*
G37*
X132451864Y-87291200D02*
X132422936Y-87673692D01*
X132380541Y-87980085D01*
X132300524Y-88206683D01*
X132173725Y-88371219D01*
X132003985Y-88485000D01*
X131912644Y-88524568D01*
X131807888Y-88553157D01*
X131671013Y-88572846D01*
X131483316Y-88585719D01*
X131226092Y-88593856D01*
X130989400Y-88597923D01*
X130625531Y-88599549D01*
X130347485Y-88592332D01*
X130139789Y-88575349D01*
X129986976Y-88547674D01*
X129944105Y-88535453D01*
X129728190Y-88436730D01*
X129571188Y-88289621D01*
X129466870Y-88082101D01*
X129409004Y-87802144D01*
X129391429Y-87468664D01*
X129402049Y-87144002D01*
X129440974Y-86899364D01*
X129512699Y-86716004D01*
X129600578Y-86596694D01*
X129680495Y-86527514D01*
X129785319Y-86471600D01*
X129929480Y-86425593D01*
X130127410Y-86386136D01*
X130393539Y-86349871D01*
X130742299Y-86313439D01*
X130868351Y-86301686D01*
X131208506Y-86268259D01*
X131461240Y-86234398D01*
X131640532Y-86193219D01*
X131760355Y-86137835D01*
X131834685Y-86061361D01*
X131877499Y-85956910D01*
X131902771Y-85817598D01*
X131906285Y-85790301D01*
X131921461Y-85503770D01*
X131879822Y-85288756D01*
X131772571Y-85136027D01*
X131590909Y-85036351D01*
X131326041Y-84980495D01*
X131118888Y-84963950D01*
X130720015Y-84958094D01*
X130415605Y-84983476D01*
X130203338Y-85040420D01*
X130100400Y-85106800D01*
X130034882Y-85214502D01*
X129983014Y-85372222D01*
X129971293Y-85433338D01*
X129936463Y-85665600D01*
X129682378Y-85665600D01*
X129428293Y-85665600D01*
X129463710Y-85373500D01*
X129528293Y-85073381D01*
X129643315Y-84852111D01*
X129815773Y-84696692D01*
X129834029Y-84685679D01*
X130009489Y-84619167D01*
X130260408Y-84571144D01*
X130562293Y-84541862D01*
X130890652Y-84531573D01*
X131220993Y-84540529D01*
X131528824Y-84568981D01*
X131789654Y-84617183D01*
X131934135Y-84664062D01*
X132124948Y-84777547D01*
X132259083Y-84939741D01*
X132342626Y-85163908D01*
X132381665Y-85463309D01*
X132386400Y-85649412D01*
X132368309Y-85959764D01*
X132307897Y-86208363D01*
X132195957Y-86402315D01*
X132023279Y-86548721D01*
X131780657Y-86654687D01*
X131458880Y-86727317D01*
X131048742Y-86773714D01*
X130917087Y-86782954D01*
X130649527Y-86803728D01*
X130407957Y-86829645D01*
X130215964Y-86857676D01*
X130097132Y-86884794D01*
X130084144Y-86889876D01*
X129981484Y-86962078D01*
X129916576Y-87078320D01*
X129883476Y-87256890D01*
X129876242Y-87516076D01*
X129876416Y-87529080D01*
X129905952Y-87806256D01*
X129987101Y-88000018D01*
X130122822Y-88116144D01*
X130189942Y-88141293D01*
X130310879Y-88159328D01*
X130505503Y-88171566D01*
X130746067Y-88178025D01*
X131004825Y-88178725D01*
X131254030Y-88173684D01*
X131465936Y-88162922D01*
X131612796Y-88146458D01*
X131640447Y-88140291D01*
X131775421Y-88052229D01*
X131872106Y-87883225D01*
X131923111Y-87649124D01*
X131929200Y-87521431D01*
X131929200Y-87291200D01*
X132190532Y-87291200D01*
X132451864Y-87291200D01*
X132451864Y-87291200D01*
G36*
X137161600Y-88612000D02*
X136907600Y-88612000D01*
X136653600Y-88612000D01*
X136653600Y-87799200D01*
X136653600Y-86986400D01*
X136653600Y-86529200D01*
X136653600Y-85767200D01*
X136653600Y-85005200D01*
X135793307Y-85005200D01*
X135498672Y-85007990D01*
X135231791Y-85015709D01*
X135012606Y-85027380D01*
X134861060Y-85042027D01*
X134805795Y-85053568D01*
X134693469Y-85120784D01*
X134616655Y-85233651D01*
X134567627Y-85410306D01*
X134538659Y-85668887D01*
X134537690Y-85682935D01*
X134530073Y-85905581D01*
X134546220Y-86064013D01*
X134590585Y-86193768D01*
X134605458Y-86223693D01*
X134666845Y-86327043D01*
X134738208Y-86404060D01*
X134834619Y-86458580D01*
X134971148Y-86494439D01*
X135162865Y-86515473D01*
X135424842Y-86525520D01*
X135772149Y-86528414D01*
X135802700Y-86528451D01*
X136653600Y-86529200D01*
X136653600Y-86986400D01*
X135838277Y-86986400D01*
X135457047Y-86989520D01*
X135164922Y-87005685D01*
X134949445Y-87045101D01*
X134798160Y-87117974D01*
X134698611Y-87234512D01*
X134638343Y-87404920D01*
X134604899Y-87639404D01*
X134585824Y-87948171D01*
X134582838Y-88015100D01*
X134556853Y-88612000D01*
X134335226Y-88612000D01*
X134113600Y-88612000D01*
X134113789Y-87913500D01*
X134120269Y-87562583D01*
X134142480Y-87298321D01*
X134184902Y-87106392D01*
X134252018Y-86972473D01*
X134348309Y-86882245D01*
X134452631Y-86830642D01*
X134588416Y-86779016D01*
X134414508Y-86692208D01*
X134262003Y-86586338D01*
X134157070Y-86436306D01*
X134093624Y-86226451D01*
X134065575Y-85941108D01*
X134062878Y-85787480D01*
X134074359Y-85456329D01*
X134112126Y-85204512D01*
X134180972Y-85012060D01*
X134285688Y-84859007D01*
X134285736Y-84858952D01*
X134366674Y-84776127D01*
X134454099Y-84711024D01*
X134561180Y-84661266D01*
X134701085Y-84624480D01*
X134886982Y-84598290D01*
X135132038Y-84580321D01*
X135449421Y-84568198D01*
X135852300Y-84559546D01*
X135955100Y-84557850D01*
X137161600Y-84538633D01*
X137161600Y-86575316D01*
X137161600Y-88612000D01*
X137161600Y-88612000D01*
X137161600Y-88612000D01*
G37*
X137161600Y-88612000D02*
X136907600Y-88612000D01*
X136653600Y-88612000D01*
X136653600Y-87799200D01*
X136653600Y-86986400D01*
X136653600Y-86529200D01*
X136653600Y-85767200D01*
X136653600Y-85005200D01*
X135793307Y-85005200D01*
X135498672Y-85007990D01*
X135231791Y-85015709D01*
X135012606Y-85027380D01*
X134861060Y-85042027D01*
X134805795Y-85053568D01*
X134693469Y-85120784D01*
X134616655Y-85233651D01*
X134567627Y-85410306D01*
X134538659Y-85668887D01*
X134537690Y-85682935D01*
X134530073Y-85905581D01*
X134546220Y-86064013D01*
X134590585Y-86193768D01*
X134605458Y-86223693D01*
X134666845Y-86327043D01*
X134738208Y-86404060D01*
X134834619Y-86458580D01*
X134971148Y-86494439D01*
X135162865Y-86515473D01*
X135424842Y-86525520D01*
X135772149Y-86528414D01*
X135802700Y-86528451D01*
X136653600Y-86529200D01*
X136653600Y-86986400D01*
X135838277Y-86986400D01*
X135457047Y-86989520D01*
X135164922Y-87005685D01*
X134949445Y-87045101D01*
X134798160Y-87117974D01*
X134698611Y-87234512D01*
X134638343Y-87404920D01*
X134604899Y-87639404D01*
X134585824Y-87948171D01*
X134582838Y-88015100D01*
X134556853Y-88612000D01*
X134335226Y-88612000D01*
X134113600Y-88612000D01*
X134113789Y-87913500D01*
X134120269Y-87562583D01*
X134142480Y-87298321D01*
X134184902Y-87106392D01*
X134252018Y-86972473D01*
X134348309Y-86882245D01*
X134452631Y-86830642D01*
X134588416Y-86779016D01*
X134414508Y-86692208D01*
X134262003Y-86586338D01*
X134157070Y-86436306D01*
X134093624Y-86226451D01*
X134065575Y-85941108D01*
X134062878Y-85787480D01*
X134074359Y-85456329D01*
X134112126Y-85204512D01*
X134180972Y-85012060D01*
X134285688Y-84859007D01*
X134285736Y-84858952D01*
X134366674Y-84776127D01*
X134454099Y-84711024D01*
X134561180Y-84661266D01*
X134701085Y-84624480D01*
X134886982Y-84598290D01*
X135132038Y-84580321D01*
X135449421Y-84568198D01*
X135852300Y-84559546D01*
X135955100Y-84557850D01*
X137161600Y-84538633D01*
X137161600Y-86575316D01*
X137161600Y-88612000D01*
X137161600Y-88612000D01*
G36*
X141479600Y-88612000D02*
X140184200Y-88612000D01*
X138888800Y-88612000D01*
X138888800Y-88383400D01*
X138888800Y-88154800D01*
X139930200Y-88154800D01*
X140971600Y-88154800D01*
X140971600Y-87443600D01*
X140971600Y-86732400D01*
X139981000Y-86732400D01*
X138990400Y-86732400D01*
X138990400Y-86503800D01*
X138990400Y-86275200D01*
X139981000Y-86275200D01*
X140971600Y-86275200D01*
X140971600Y-85640200D01*
X140971600Y-85005200D01*
X139930200Y-85005200D01*
X138888800Y-85005200D01*
X138888800Y-84776600D01*
X138888800Y-84548000D01*
X140184200Y-84548000D01*
X141479600Y-84548000D01*
X141479600Y-86580000D01*
X141479600Y-88612000D01*
X141479600Y-88612000D01*
X141479600Y-88612000D01*
G37*
X141479600Y-88612000D02*
X140184200Y-88612000D01*
X138888800Y-88612000D01*
X138888800Y-88383400D01*
X138888800Y-88154800D01*
X139930200Y-88154800D01*
X140971600Y-88154800D01*
X140971600Y-87443600D01*
X140971600Y-86732400D01*
X139981000Y-86732400D01*
X138990400Y-86732400D01*
X138990400Y-86503800D01*
X138990400Y-86275200D01*
X139981000Y-86275200D01*
X140971600Y-86275200D01*
X140971600Y-85640200D01*
X140971600Y-85005200D01*
X139930200Y-85005200D01*
X138888800Y-85005200D01*
X138888800Y-84776600D01*
X138888800Y-84548000D01*
X140184200Y-84548000D01*
X141479600Y-84548000D01*
X141479600Y-86580000D01*
X141479600Y-88612000D01*
X141479600Y-88612000D01*
G36*
X146356400Y-84568807D02*
X146339881Y-84620917D01*
X146292828Y-84758006D01*
X146218995Y-84969412D01*
X146122138Y-85244477D01*
X146006012Y-85572539D01*
X145874371Y-85942937D01*
X145730971Y-86345012D01*
X145715768Y-86387562D01*
X145567692Y-86802047D01*
X145427642Y-87194319D01*
X145299971Y-87552171D01*
X145189030Y-87863394D01*
X145099170Y-88115782D01*
X145034742Y-88297126D01*
X145000100Y-88395219D01*
X144999792Y-88396100D01*
X144924449Y-88612000D01*
X144585715Y-88612000D01*
X144246981Y-88612000D01*
X143549090Y-86641120D01*
X143398519Y-86214456D01*
X143259101Y-85816616D01*
X143134409Y-85457999D01*
X143028014Y-85149004D01*
X142943487Y-84900027D01*
X142884400Y-84721469D01*
X142854324Y-84623728D01*
X142851200Y-84609120D01*
X142899611Y-84568275D01*
X143039125Y-84549175D01*
X143099764Y-84548000D01*
X143263679Y-84557870D01*
X143352140Y-84592651D01*
X143382750Y-84636900D01*
X143417296Y-84731750D01*
X143479071Y-84907029D01*
X143562922Y-85147710D01*
X143663699Y-85438767D01*
X143776249Y-85765174D01*
X143895422Y-86111906D01*
X144016067Y-86463937D01*
X144133031Y-86806242D01*
X144241164Y-87123794D01*
X144335315Y-87401569D01*
X144410331Y-87624539D01*
X144461061Y-87777680D01*
X144479963Y-87837300D01*
X144524452Y-87967205D01*
X144562562Y-88043741D01*
X144573741Y-88052466D01*
X144596819Y-88006076D01*
X144649251Y-87874373D01*
X144727112Y-87668038D01*
X144826474Y-87397752D01*
X144943411Y-87074196D01*
X145073995Y-86708051D01*
X145213400Y-86312566D01*
X145823000Y-84573400D01*
X146089700Y-84558045D01*
X146238558Y-84553951D01*
X146335367Y-84559880D01*
X146356400Y-84568807D01*
X146356400Y-84568807D01*
X146356400Y-84568807D01*
G37*
X146356400Y-84568807D02*
X146339881Y-84620917D01*
X146292828Y-84758006D01*
X146218995Y-84969412D01*
X146122138Y-85244477D01*
X146006012Y-85572539D01*
X145874371Y-85942937D01*
X145730971Y-86345012D01*
X145715768Y-86387562D01*
X145567692Y-86802047D01*
X145427642Y-87194319D01*
X145299971Y-87552171D01*
X145189030Y-87863394D01*
X145099170Y-88115782D01*
X145034742Y-88297126D01*
X145000100Y-88395219D01*
X144999792Y-88396100D01*
X144924449Y-88612000D01*
X144585715Y-88612000D01*
X144246981Y-88612000D01*
X143549090Y-86641120D01*
X143398519Y-86214456D01*
X143259101Y-85816616D01*
X143134409Y-85457999D01*
X143028014Y-85149004D01*
X142943487Y-84900027D01*
X142884400Y-84721469D01*
X142854324Y-84623728D01*
X142851200Y-84609120D01*
X142899611Y-84568275D01*
X143039125Y-84549175D01*
X143099764Y-84548000D01*
X143263679Y-84557870D01*
X143352140Y-84592651D01*
X143382750Y-84636900D01*
X143417296Y-84731750D01*
X143479071Y-84907029D01*
X143562922Y-85147710D01*
X143663699Y-85438767D01*
X143776249Y-85765174D01*
X143895422Y-86111906D01*
X144016067Y-86463937D01*
X144133031Y-86806242D01*
X144241164Y-87123794D01*
X144335315Y-87401569D01*
X144410331Y-87624539D01*
X144461061Y-87777680D01*
X144479963Y-87837300D01*
X144524452Y-87967205D01*
X144562562Y-88043741D01*
X144573741Y-88052466D01*
X144596819Y-88006076D01*
X144649251Y-87874373D01*
X144727112Y-87668038D01*
X144826474Y-87397752D01*
X144943411Y-87074196D01*
X145073995Y-86708051D01*
X145213400Y-86312566D01*
X145823000Y-84573400D01*
X146089700Y-84558045D01*
X146238558Y-84553951D01*
X146335367Y-84559880D01*
X146356400Y-84568807D01*
X146356400Y-84568807D01*
G36*
X148337600Y-88612000D02*
X148109000Y-88612000D01*
X147880400Y-88612000D01*
X147880400Y-86580000D01*
X147880400Y-84548000D01*
X148109000Y-84548000D01*
X148337600Y-84548000D01*
X148337600Y-86580000D01*
X148337600Y-88612000D01*
X148337600Y-88612000D01*
X148337600Y-88612000D01*
G37*
X148337600Y-88612000D02*
X148109000Y-88612000D01*
X147880400Y-88612000D01*
X147880400Y-86580000D01*
X147880400Y-84548000D01*
X148109000Y-84548000D01*
X148337600Y-84548000D01*
X148337600Y-86580000D01*
X148337600Y-88612000D01*
X148337600Y-88612000D01*
G36*
X153722400Y-88612000D02*
X153469058Y-88612000D01*
X153215716Y-88612000D01*
X153202358Y-86864168D01*
X153189000Y-85116336D01*
X152122200Y-86862229D01*
X151055400Y-88608122D01*
X150661700Y-88610061D01*
X150268000Y-88612000D01*
X150268000Y-86580000D01*
X150268000Y-84548000D01*
X150521341Y-84548000D01*
X150774683Y-84548000D01*
X150788041Y-86299946D01*
X150801400Y-88051892D01*
X151868200Y-86301256D01*
X152935000Y-84550621D01*
X153328700Y-84549310D01*
X153722400Y-84548000D01*
X153722400Y-86580000D01*
X153722400Y-88612000D01*
X153722400Y-88612000D01*
X153722400Y-88612000D01*
G37*
X153722400Y-88612000D02*
X153469058Y-88612000D01*
X153215716Y-88612000D01*
X153202358Y-86864168D01*
X153189000Y-85116336D01*
X152122200Y-86862229D01*
X151055400Y-88608122D01*
X150661700Y-88610061D01*
X150268000Y-88612000D01*
X150268000Y-86580000D01*
X150268000Y-84548000D01*
X150521341Y-84548000D01*
X150774683Y-84548000D01*
X150788041Y-86299946D01*
X150801400Y-88051892D01*
X151868200Y-86301256D01*
X152935000Y-84550621D01*
X153328700Y-84549310D01*
X153722400Y-84548000D01*
X153722400Y-86580000D01*
X153722400Y-88612000D01*
X153722400Y-88612000D01*
G36*
X125350600Y-81550800D02*
X125347388Y-82035354D01*
X125335413Y-82429235D01*
X125311169Y-82743230D01*
X125271146Y-82988131D01*
X125211838Y-83174726D01*
X125129736Y-83313806D01*
X125021332Y-83416160D01*
X124883118Y-83492577D01*
X124711587Y-83553847D01*
X124698063Y-83557901D01*
X124502690Y-83598406D01*
X124235365Y-83630144D01*
X123925467Y-83651730D01*
X123602374Y-83661779D01*
X123295467Y-83658906D01*
X123034123Y-83641726D01*
X123001140Y-83637888D01*
X122684428Y-83579953D01*
X122453444Y-83492254D01*
X122294867Y-83367656D01*
X122198958Y-83208121D01*
X122152647Y-83046906D01*
X122109718Y-82817365D01*
X122073490Y-82550444D01*
X122047284Y-82277091D01*
X122034420Y-82028251D01*
X122038217Y-81834871D01*
X122045525Y-81777923D01*
X122078603Y-81601600D01*
X122939901Y-81601600D01*
X123801200Y-81601600D01*
X123801200Y-81804800D01*
X123801200Y-82008000D01*
X123159829Y-82008000D01*
X122518459Y-82008000D01*
X122541184Y-82440969D01*
X122563230Y-82699745D01*
X122606832Y-82896655D01*
X122684204Y-83039376D01*
X122807557Y-83135583D01*
X122989107Y-83192954D01*
X123241066Y-83219164D01*
X123575648Y-83221889D01*
X123775800Y-83216903D01*
X124088196Y-83204993D01*
X124336173Y-83183724D01*
X124527170Y-83142346D01*
X124668624Y-83070111D01*
X124767971Y-82956269D01*
X124832651Y-82790068D01*
X124870100Y-82560761D01*
X124887755Y-82257597D01*
X124893056Y-81869826D01*
X124893400Y-81601600D01*
X124891440Y-81164759D01*
X124881366Y-80818437D01*
X124856885Y-80551569D01*
X124811702Y-80353090D01*
X124739524Y-80211935D01*
X124634058Y-80117039D01*
X124489010Y-80057338D01*
X124298087Y-80021766D01*
X124054995Y-79999259D01*
X123979000Y-79993945D01*
X123710785Y-79987233D01*
X123411199Y-79996925D01*
X123166907Y-80018532D01*
X122915952Y-80061476D01*
X122747380Y-80124272D01*
X122642041Y-80223110D01*
X122580786Y-80374177D01*
X122551255Y-80538946D01*
X122518110Y-80788800D01*
X122296055Y-80788800D01*
X122074000Y-80788800D01*
X122074000Y-80494763D01*
X122105347Y-80199955D01*
X122188300Y-79977312D01*
X122258668Y-79857432D01*
X122340745Y-79765523D01*
X122448319Y-79697926D01*
X122595181Y-79650982D01*
X122795117Y-79621032D01*
X123061918Y-79604416D01*
X123409372Y-79597476D01*
X123623400Y-79596481D01*
X123951405Y-79596574D01*
X124196224Y-79599421D01*
X124376268Y-79607049D01*
X124509948Y-79621483D01*
X124615675Y-79644750D01*
X124711860Y-79678875D01*
X124816913Y-79725886D01*
X124822330Y-79728423D01*
X124998485Y-79822279D01*
X125113359Y-79921193D01*
X125203097Y-80059050D01*
X125228730Y-80109423D01*
X125267429Y-80191739D01*
X125296932Y-80270906D01*
X125318484Y-80361661D01*
X125333332Y-80478740D01*
X125342721Y-80636878D01*
X125347898Y-80850812D01*
X125350108Y-81135277D01*
X125350597Y-81505009D01*
X125350600Y-81550800D01*
X125350600Y-81550800D01*
X125350600Y-81550800D01*
G37*
X125350600Y-81550800D02*
X125347388Y-82035354D01*
X125335413Y-82429235D01*
X125311169Y-82743230D01*
X125271146Y-82988131D01*
X125211838Y-83174726D01*
X125129736Y-83313806D01*
X125021332Y-83416160D01*
X124883118Y-83492577D01*
X124711587Y-83553847D01*
X124698063Y-83557901D01*
X124502690Y-83598406D01*
X124235365Y-83630144D01*
X123925467Y-83651730D01*
X123602374Y-83661779D01*
X123295467Y-83658906D01*
X123034123Y-83641726D01*
X123001140Y-83637888D01*
X122684428Y-83579953D01*
X122453444Y-83492254D01*
X122294867Y-83367656D01*
X122198958Y-83208121D01*
X122152647Y-83046906D01*
X122109718Y-82817365D01*
X122073490Y-82550444D01*
X122047284Y-82277091D01*
X122034420Y-82028251D01*
X122038217Y-81834871D01*
X122045525Y-81777923D01*
X122078603Y-81601600D01*
X122939901Y-81601600D01*
X123801200Y-81601600D01*
X123801200Y-81804800D01*
X123801200Y-82008000D01*
X123159829Y-82008000D01*
X122518459Y-82008000D01*
X122541184Y-82440969D01*
X122563230Y-82699745D01*
X122606832Y-82896655D01*
X122684204Y-83039376D01*
X122807557Y-83135583D01*
X122989107Y-83192954D01*
X123241066Y-83219164D01*
X123575648Y-83221889D01*
X123775800Y-83216903D01*
X124088196Y-83204993D01*
X124336173Y-83183724D01*
X124527170Y-83142346D01*
X124668624Y-83070111D01*
X124767971Y-82956269D01*
X124832651Y-82790068D01*
X124870100Y-82560761D01*
X124887755Y-82257597D01*
X124893056Y-81869826D01*
X124893400Y-81601600D01*
X124891440Y-81164759D01*
X124881366Y-80818437D01*
X124856885Y-80551569D01*
X124811702Y-80353090D01*
X124739524Y-80211935D01*
X124634058Y-80117039D01*
X124489010Y-80057338D01*
X124298087Y-80021766D01*
X124054995Y-79999259D01*
X123979000Y-79993945D01*
X123710785Y-79987233D01*
X123411199Y-79996925D01*
X123166907Y-80018532D01*
X122915952Y-80061476D01*
X122747380Y-80124272D01*
X122642041Y-80223110D01*
X122580786Y-80374177D01*
X122551255Y-80538946D01*
X122518110Y-80788800D01*
X122296055Y-80788800D01*
X122074000Y-80788800D01*
X122074000Y-80494763D01*
X122105347Y-80199955D01*
X122188300Y-79977312D01*
X122258668Y-79857432D01*
X122340745Y-79765523D01*
X122448319Y-79697926D01*
X122595181Y-79650982D01*
X122795117Y-79621032D01*
X123061918Y-79604416D01*
X123409372Y-79597476D01*
X123623400Y-79596481D01*
X123951405Y-79596574D01*
X124196224Y-79599421D01*
X124376268Y-79607049D01*
X124509948Y-79621483D01*
X124615675Y-79644750D01*
X124711860Y-79678875D01*
X124816913Y-79725886D01*
X124822330Y-79728423D01*
X124998485Y-79822279D01*
X125113359Y-79921193D01*
X125203097Y-80059050D01*
X125228730Y-80109423D01*
X125267429Y-80191739D01*
X125296932Y-80270906D01*
X125318484Y-80361661D01*
X125333332Y-80478740D01*
X125342721Y-80636878D01*
X125347898Y-80850812D01*
X125350108Y-81135277D01*
X125350597Y-81505009D01*
X125350600Y-81550800D01*
X125350600Y-81550800D01*
G36*
X120499200Y-83633600D02*
X119203800Y-83633600D01*
X117908400Y-83633600D01*
X117908400Y-83405000D01*
X117908400Y-83176400D01*
X118949800Y-83176400D01*
X119991200Y-83176400D01*
X119991200Y-82465200D01*
X119991200Y-81754000D01*
X118975200Y-81754000D01*
X117959200Y-81754000D01*
X117959200Y-81550800D01*
X117959200Y-81347600D01*
X118975200Y-81347600D01*
X119991200Y-81347600D01*
X119991200Y-80687200D01*
X119991200Y-80026800D01*
X118949800Y-80026800D01*
X117908400Y-80026800D01*
X117908400Y-79798200D01*
X117908400Y-79569600D01*
X119203800Y-79569600D01*
X120499200Y-79569600D01*
X120499200Y-81601600D01*
X120499200Y-83633600D01*
X120499200Y-83633600D01*
X120499200Y-83633600D01*
G37*
X120499200Y-83633600D02*
X119203800Y-83633600D01*
X117908400Y-83633600D01*
X117908400Y-83405000D01*
X117908400Y-83176400D01*
X118949800Y-83176400D01*
X119991200Y-83176400D01*
X119991200Y-82465200D01*
X119991200Y-81754000D01*
X118975200Y-81754000D01*
X117959200Y-81754000D01*
X117959200Y-81550800D01*
X117959200Y-81347600D01*
X118975200Y-81347600D01*
X119991200Y-81347600D01*
X119991200Y-80687200D01*
X119991200Y-80026800D01*
X118949800Y-80026800D01*
X117908400Y-80026800D01*
X117908400Y-79798200D01*
X117908400Y-79569600D01*
X119203800Y-79569600D01*
X120499200Y-79569600D01*
X120499200Y-81601600D01*
X120499200Y-83633600D01*
X120499200Y-83633600D01*
G36*
X130354400Y-83633600D02*
X129846400Y-83631291D01*
X129846400Y-83176400D01*
X129846400Y-81601600D01*
X129846400Y-80026800D01*
X129020900Y-80027083D01*
X128611840Y-80031767D01*
X128291446Y-80048551D01*
X128047063Y-80082000D01*
X127866035Y-80136682D01*
X127735709Y-80217163D01*
X127643428Y-80328010D01*
X127576540Y-80473788D01*
X127549589Y-80558016D01*
X127526753Y-80691336D01*
X127508846Y-80902743D01*
X127496155Y-81168834D01*
X127488969Y-81466202D01*
X127487574Y-81771442D01*
X127492258Y-82061148D01*
X127503309Y-82311916D01*
X127521015Y-82500339D01*
X127525376Y-82528458D01*
X127606379Y-82775883D01*
X127747510Y-82974559D01*
X127931401Y-83102045D01*
X127983712Y-83120657D01*
X128088034Y-83136633D01*
X128272881Y-83150824D01*
X128517178Y-83162164D01*
X128799853Y-83169589D01*
X128995500Y-83171818D01*
X129846400Y-83176400D01*
X129846400Y-83631291D01*
X129198700Y-83628349D01*
X128853106Y-83624561D01*
X128530217Y-83616885D01*
X128247831Y-83606068D01*
X128023747Y-83592859D01*
X127875763Y-83578005D01*
X127839800Y-83571258D01*
X127606581Y-83486724D01*
X127417047Y-83358165D01*
X127267753Y-83177048D01*
X127155258Y-82934838D01*
X127076118Y-82623002D01*
X127026891Y-82233008D01*
X127004133Y-81756323D01*
X127001600Y-81493811D01*
X127009145Y-81053253D01*
X127037230Y-80684873D01*
X127094025Y-80382323D01*
X127187704Y-80139255D01*
X127326436Y-79949321D01*
X127518395Y-79806172D01*
X127771752Y-79703462D01*
X128094679Y-79634840D01*
X128495347Y-79593961D01*
X128981928Y-79574474D01*
X129478100Y-79569985D01*
X130354400Y-79569600D01*
X130354400Y-81601600D01*
X130354400Y-83633600D01*
X130354400Y-83633600D01*
X130354400Y-83633600D01*
G37*
X130354400Y-83633600D02*
X129846400Y-83631291D01*
X129846400Y-83176400D01*
X129846400Y-81601600D01*
X129846400Y-80026800D01*
X129020900Y-80027083D01*
X128611840Y-80031767D01*
X128291446Y-80048551D01*
X128047063Y-80082000D01*
X127866035Y-80136682D01*
X127735709Y-80217163D01*
X127643428Y-80328010D01*
X127576540Y-80473788D01*
X127549589Y-80558016D01*
X127526753Y-80691336D01*
X127508846Y-80902743D01*
X127496155Y-81168834D01*
X127488969Y-81466202D01*
X127487574Y-81771442D01*
X127492258Y-82061148D01*
X127503309Y-82311916D01*
X127521015Y-82500339D01*
X127525376Y-82528458D01*
X127606379Y-82775883D01*
X127747510Y-82974559D01*
X127931401Y-83102045D01*
X127983712Y-83120657D01*
X128088034Y-83136633D01*
X128272881Y-83150824D01*
X128517178Y-83162164D01*
X128799853Y-83169589D01*
X128995500Y-83171818D01*
X129846400Y-83176400D01*
X129846400Y-83631291D01*
X129198700Y-83628349D01*
X128853106Y-83624561D01*
X128530217Y-83616885D01*
X128247831Y-83606068D01*
X128023747Y-83592859D01*
X127875763Y-83578005D01*
X127839800Y-83571258D01*
X127606581Y-83486724D01*
X127417047Y-83358165D01*
X127267753Y-83177048D01*
X127155258Y-82934838D01*
X127076118Y-82623002D01*
X127026891Y-82233008D01*
X127004133Y-81756323D01*
X127001600Y-81493811D01*
X127009145Y-81053253D01*
X127037230Y-80684873D01*
X127094025Y-80382323D01*
X127187704Y-80139255D01*
X127326436Y-79949321D01*
X127518395Y-79806172D01*
X127771752Y-79703462D01*
X128094679Y-79634840D01*
X128495347Y-79593961D01*
X128981928Y-79574474D01*
X129478100Y-79569985D01*
X130354400Y-79569600D01*
X130354400Y-81601600D01*
X130354400Y-83633600D01*
X130354400Y-83633600D01*
G36*
X132742000Y-83633600D02*
X132488000Y-83633600D01*
X132234000Y-83633600D01*
X132234000Y-81601600D01*
X132234000Y-79569600D01*
X132488000Y-79569600D01*
X132742000Y-79569600D01*
X132742000Y-81601600D01*
X132742000Y-83633600D01*
X132742000Y-83633600D01*
X132742000Y-83633600D01*
G37*
X132742000Y-83633600D02*
X132488000Y-83633600D01*
X132234000Y-83633600D01*
X132234000Y-81601600D01*
X132234000Y-79569600D01*
X132488000Y-79569600D01*
X132742000Y-79569600D01*
X132742000Y-81601600D01*
X132742000Y-83633600D01*
X132742000Y-83633600D01*
G36*
X137669600Y-83633600D02*
X137415600Y-83633600D01*
X137161600Y-83633600D01*
X137161600Y-82816518D01*
X137161600Y-81999436D01*
X137161600Y-81601600D01*
X137161600Y-80810086D01*
X137161600Y-80018572D01*
X136242713Y-80035386D01*
X135323827Y-80052200D01*
X135205585Y-80189766D01*
X135122280Y-80343332D01*
X135064789Y-80559367D01*
X135038080Y-80800902D01*
X135047125Y-81030966D01*
X135075279Y-81159131D01*
X135131912Y-81293350D01*
X135210738Y-81397027D01*
X135324447Y-81474081D01*
X135485731Y-81528432D01*
X135707281Y-81563999D01*
X136001789Y-81584703D01*
X136381945Y-81594464D01*
X136488500Y-81595624D01*
X137161600Y-81601600D01*
X137161600Y-81999436D01*
X136293745Y-82016418D01*
X135425891Y-82033400D01*
X135277745Y-82199301D01*
X135216283Y-82271344D01*
X135174718Y-82338640D01*
X135149157Y-82422202D01*
X135135711Y-82543044D01*
X135130489Y-82722178D01*
X135129600Y-82980619D01*
X135129600Y-82999401D01*
X135129600Y-83633600D01*
X134875600Y-83633600D01*
X134621600Y-83633600D01*
X134621600Y-82968177D01*
X134627701Y-82621511D01*
X134648895Y-82360792D01*
X134689515Y-82170937D01*
X134753895Y-82036864D01*
X134846370Y-81943491D01*
X134930204Y-81894238D01*
X135079196Y-81822078D01*
X134888585Y-81698730D01*
X134750069Y-81582981D01*
X134655526Y-81434262D01*
X134599731Y-81235390D01*
X134577460Y-80969180D01*
X134580647Y-80685951D01*
X134603725Y-80372802D01*
X134652337Y-80140117D01*
X134736228Y-79967997D01*
X134865142Y-79836540D01*
X135048825Y-79725847D01*
X135051426Y-79724551D01*
X135135883Y-79684724D01*
X135218459Y-79654077D01*
X135314050Y-79631095D01*
X135437551Y-79614259D01*
X135603856Y-79602053D01*
X135827860Y-79592959D01*
X136124457Y-79585460D01*
X136485674Y-79578456D01*
X137669600Y-79556810D01*
X137669600Y-81595205D01*
X137669600Y-83633600D01*
X137669600Y-83633600D01*
X137669600Y-83633600D01*
G37*
X137669600Y-83633600D02*
X137415600Y-83633600D01*
X137161600Y-83633600D01*
X137161600Y-82816518D01*
X137161600Y-81999436D01*
X137161600Y-81601600D01*
X137161600Y-80810086D01*
X137161600Y-80018572D01*
X136242713Y-80035386D01*
X135323827Y-80052200D01*
X135205585Y-80189766D01*
X135122280Y-80343332D01*
X135064789Y-80559367D01*
X135038080Y-80800902D01*
X135047125Y-81030966D01*
X135075279Y-81159131D01*
X135131912Y-81293350D01*
X135210738Y-81397027D01*
X135324447Y-81474081D01*
X135485731Y-81528432D01*
X135707281Y-81563999D01*
X136001789Y-81584703D01*
X136381945Y-81594464D01*
X136488500Y-81595624D01*
X137161600Y-81601600D01*
X137161600Y-81999436D01*
X136293745Y-82016418D01*
X135425891Y-82033400D01*
X135277745Y-82199301D01*
X135216283Y-82271344D01*
X135174718Y-82338640D01*
X135149157Y-82422202D01*
X135135711Y-82543044D01*
X135130489Y-82722178D01*
X135129600Y-82980619D01*
X135129600Y-82999401D01*
X135129600Y-83633600D01*
X134875600Y-83633600D01*
X134621600Y-83633600D01*
X134621600Y-82968177D01*
X134627701Y-82621511D01*
X134648895Y-82360792D01*
X134689515Y-82170937D01*
X134753895Y-82036864D01*
X134846370Y-81943491D01*
X134930204Y-81894238D01*
X135079196Y-81822078D01*
X134888585Y-81698730D01*
X134750069Y-81582981D01*
X134655526Y-81434262D01*
X134599731Y-81235390D01*
X134577460Y-80969180D01*
X134580647Y-80685951D01*
X134603725Y-80372802D01*
X134652337Y-80140117D01*
X134736228Y-79967997D01*
X134865142Y-79836540D01*
X135048825Y-79725847D01*
X135051426Y-79724551D01*
X135135883Y-79684724D01*
X135218459Y-79654077D01*
X135314050Y-79631095D01*
X135437551Y-79614259D01*
X135603856Y-79602053D01*
X135827860Y-79592959D01*
X136124457Y-79585460D01*
X136485674Y-79578456D01*
X137669600Y-79556810D01*
X137669600Y-81595205D01*
X137669600Y-83633600D01*
X137669600Y-83633600D01*
G36*
X142546400Y-83633600D02*
X142038400Y-83631262D01*
X142038400Y-83176400D01*
X142038400Y-82457204D01*
X142038400Y-81738008D01*
X142038400Y-81347600D01*
X142038400Y-80687200D01*
X142038400Y-80026800D01*
X141249368Y-80026800D01*
X140865073Y-80030266D01*
X140570968Y-80045370D01*
X140355747Y-80079173D01*
X140208104Y-80138732D01*
X140116732Y-80231109D01*
X140070325Y-80363361D01*
X140057577Y-80542549D01*
X140066513Y-80765339D01*
X140084252Y-80944824D01*
X140119884Y-81082300D01*
X140185687Y-81183446D01*
X140293939Y-81253938D01*
X140456919Y-81299455D01*
X140686905Y-81325674D01*
X140996177Y-81338272D01*
X141314500Y-81342400D01*
X142038400Y-81347600D01*
X142038400Y-81738008D01*
X141180779Y-81770387D01*
X140886361Y-81784078D01*
X140619434Y-81801279D01*
X140400053Y-81820330D01*
X140248271Y-81839569D01*
X140193268Y-81852152D01*
X140071575Y-81927162D01*
X139993881Y-82052641D01*
X139953017Y-82245879D01*
X139942057Y-82458074D01*
X139943607Y-82681180D01*
X139962090Y-82852257D01*
X140009309Y-82978233D01*
X140097067Y-83066039D01*
X140237167Y-83122605D01*
X140441413Y-83154859D01*
X140721607Y-83169732D01*
X141089554Y-83174154D01*
X141162100Y-83174366D01*
X142038400Y-83176400D01*
X142038400Y-83631262D01*
X141416100Y-83628400D01*
X141078028Y-83625253D01*
X140766237Y-83619366D01*
X140497850Y-83611299D01*
X140289996Y-83601612D01*
X140159801Y-83590867D01*
X140133400Y-83586421D01*
X139871133Y-83487867D01*
X139676203Y-83330624D01*
X139543869Y-83106921D01*
X139469388Y-82808988D01*
X139447883Y-82463263D01*
X139480833Y-82144036D01*
X139575838Y-81878040D01*
X139726260Y-81679846D01*
X139841756Y-81598800D01*
X140007312Y-81512282D01*
X139880913Y-81429462D01*
X139738079Y-81301490D01*
X139644366Y-81128102D01*
X139593597Y-80892004D01*
X139579544Y-80585600D01*
X139597457Y-80267484D01*
X139651903Y-80030195D01*
X139748503Y-79857774D01*
X139875534Y-79745261D01*
X140013536Y-79691382D01*
X140244903Y-79646463D01*
X140561735Y-79611250D01*
X140956131Y-79586492D01*
X141420187Y-79572938D01*
X141720900Y-79570502D01*
X142546400Y-79569600D01*
X142546400Y-81601600D01*
X142546400Y-83633600D01*
X142546400Y-83633600D01*
X142546400Y-83633600D01*
G37*
X142546400Y-83633600D02*
X142038400Y-83631262D01*
X142038400Y-83176400D01*
X142038400Y-82457204D01*
X142038400Y-81738008D01*
X142038400Y-81347600D01*
X142038400Y-80687200D01*
X142038400Y-80026800D01*
X141249368Y-80026800D01*
X140865073Y-80030266D01*
X140570968Y-80045370D01*
X140355747Y-80079173D01*
X140208104Y-80138732D01*
X140116732Y-80231109D01*
X140070325Y-80363361D01*
X140057577Y-80542549D01*
X140066513Y-80765339D01*
X140084252Y-80944824D01*
X140119884Y-81082300D01*
X140185687Y-81183446D01*
X140293939Y-81253938D01*
X140456919Y-81299455D01*
X140686905Y-81325674D01*
X140996177Y-81338272D01*
X141314500Y-81342400D01*
X142038400Y-81347600D01*
X142038400Y-81738008D01*
X141180779Y-81770387D01*
X140886361Y-81784078D01*
X140619434Y-81801279D01*
X140400053Y-81820330D01*
X140248271Y-81839569D01*
X140193268Y-81852152D01*
X140071575Y-81927162D01*
X139993881Y-82052641D01*
X139953017Y-82245879D01*
X139942057Y-82458074D01*
X139943607Y-82681180D01*
X139962090Y-82852257D01*
X140009309Y-82978233D01*
X140097067Y-83066039D01*
X140237167Y-83122605D01*
X140441413Y-83154859D01*
X140721607Y-83169732D01*
X141089554Y-83174154D01*
X141162100Y-83174366D01*
X142038400Y-83176400D01*
X142038400Y-83631262D01*
X141416100Y-83628400D01*
X141078028Y-83625253D01*
X140766237Y-83619366D01*
X140497850Y-83611299D01*
X140289996Y-83601612D01*
X140159801Y-83590867D01*
X140133400Y-83586421D01*
X139871133Y-83487867D01*
X139676203Y-83330624D01*
X139543869Y-83106921D01*
X139469388Y-82808988D01*
X139447883Y-82463263D01*
X139480833Y-82144036D01*
X139575838Y-81878040D01*
X139726260Y-81679846D01*
X139841756Y-81598800D01*
X140007312Y-81512282D01*
X139880913Y-81429462D01*
X139738079Y-81301490D01*
X139644366Y-81128102D01*
X139593597Y-80892004D01*
X139579544Y-80585600D01*
X139597457Y-80267484D01*
X139651903Y-80030195D01*
X139748503Y-79857774D01*
X139875534Y-79745261D01*
X140013536Y-79691382D01*
X140244903Y-79646463D01*
X140561735Y-79611250D01*
X140956131Y-79586492D01*
X141420187Y-79572938D01*
X141720900Y-79570502D01*
X142546400Y-79569600D01*
X142546400Y-81601600D01*
X142546400Y-83633600D01*
X142546400Y-83633600D01*
G36*
X148896400Y-83633600D02*
X148643066Y-83633600D01*
X148389733Y-83633600D01*
X148376366Y-81900076D01*
X148363000Y-80166552D01*
X147647194Y-81887376D01*
X146931388Y-83608200D01*
X146679786Y-83623190D01*
X146428185Y-83638181D01*
X145707860Y-81895990D01*
X144987534Y-80153800D01*
X144986167Y-81893700D01*
X144984800Y-83633600D01*
X144730800Y-83633600D01*
X144476800Y-83633600D01*
X144476800Y-81599545D01*
X144476800Y-79565491D01*
X144889665Y-79580245D01*
X145302530Y-79595000D01*
X145972200Y-81232101D01*
X146129322Y-81615251D01*
X146274693Y-81967912D01*
X146403767Y-82279195D01*
X146511998Y-82538214D01*
X146594840Y-82734081D01*
X146647747Y-82855909D01*
X146665745Y-82893078D01*
X146689871Y-82853467D01*
X146747856Y-82730171D01*
X146835201Y-82533588D01*
X146947405Y-82274113D01*
X147079970Y-81962142D01*
X147228396Y-81608072D01*
X147374307Y-81255976D01*
X148058995Y-79595000D01*
X148477697Y-79580245D01*
X148896400Y-79565491D01*
X148896400Y-81599545D01*
X148896400Y-83633600D01*
X148896400Y-83633600D01*
X148896400Y-83633600D01*
G37*
X148896400Y-83633600D02*
X148643066Y-83633600D01*
X148389733Y-83633600D01*
X148376366Y-81900076D01*
X148363000Y-80166552D01*
X147647194Y-81887376D01*
X146931388Y-83608200D01*
X146679786Y-83623190D01*
X146428185Y-83638181D01*
X145707860Y-81895990D01*
X144987534Y-80153800D01*
X144986167Y-81893700D01*
X144984800Y-83633600D01*
X144730800Y-83633600D01*
X144476800Y-83633600D01*
X144476800Y-81599545D01*
X144476800Y-79565491D01*
X144889665Y-79580245D01*
X145302530Y-79595000D01*
X145972200Y-81232101D01*
X146129322Y-81615251D01*
X146274693Y-81967912D01*
X146403767Y-82279195D01*
X146511998Y-82538214D01*
X146594840Y-82734081D01*
X146647747Y-82855909D01*
X146665745Y-82893078D01*
X146689871Y-82853467D01*
X146747856Y-82730171D01*
X146835201Y-82533588D01*
X146947405Y-82274113D01*
X147079970Y-81962142D01*
X147228396Y-81608072D01*
X147374307Y-81255976D01*
X148058995Y-79595000D01*
X148477697Y-79580245D01*
X148896400Y-79565491D01*
X148896400Y-81599545D01*
X148896400Y-83633600D01*
X148896400Y-83633600D01*
G36*
X154078000Y-83616871D02*
X154032131Y-83626189D01*
X153914235Y-83632262D01*
X153809195Y-83633600D01*
X153540391Y-83633600D01*
X153390354Y-83200767D01*
X153240318Y-82767935D01*
X153111317Y-82769731D01*
X153111317Y-82414400D01*
X153017315Y-82173100D01*
X152969988Y-82047234D01*
X152896350Y-81846051D01*
X152803822Y-81590071D01*
X152699825Y-81299812D01*
X152603290Y-81028306D01*
X152501826Y-80748825D01*
X152409887Y-80508682D01*
X152333226Y-80321857D01*
X152277596Y-80202330D01*
X152248747Y-80164082D01*
X152247968Y-80164706D01*
X152222365Y-80220625D01*
X152168823Y-80355553D01*
X152093461Y-80552776D01*
X152002399Y-80795582D01*
X151901753Y-81067256D01*
X151797644Y-81351086D01*
X151696190Y-81630358D01*
X151603509Y-81888359D01*
X151525720Y-82108376D01*
X151468942Y-82273695D01*
X151439293Y-82367604D01*
X151436400Y-82381541D01*
X151484406Y-82392481D01*
X151617259Y-82401878D01*
X151818208Y-82409074D01*
X152070505Y-82413414D01*
X152273858Y-82414400D01*
X153111317Y-82414400D01*
X153111317Y-82769731D01*
X152254165Y-82781667D01*
X151268012Y-82795400D01*
X151112040Y-83214500D01*
X150956068Y-83633600D01*
X150688947Y-83633600D01*
X150421825Y-83633600D01*
X150530788Y-83341500D01*
X150573977Y-83225942D01*
X150647925Y-83028335D01*
X150747730Y-82761766D01*
X150868492Y-82439321D01*
X151005310Y-82074086D01*
X151153282Y-81679150D01*
X151287043Y-81322200D01*
X151934336Y-79595000D01*
X152262510Y-79580139D01*
X152440578Y-79574560D01*
X152544447Y-79584112D01*
X152601329Y-79617767D01*
X152638439Y-79684498D01*
X152647711Y-79707139D01*
X152679565Y-79790509D01*
X152739892Y-79952231D01*
X152824212Y-80180063D01*
X152928047Y-80461762D01*
X153046920Y-80785086D01*
X153176350Y-81137794D01*
X153311860Y-81507642D01*
X153448971Y-81882389D01*
X153583204Y-82249792D01*
X153710081Y-82597610D01*
X153825124Y-82913599D01*
X153923854Y-83185518D01*
X154001791Y-83401124D01*
X154054459Y-83548176D01*
X154077378Y-83614431D01*
X154078000Y-83616871D01*
X154078000Y-83616871D01*
X154078000Y-83616871D01*
G37*
X154078000Y-83616871D02*
X154032131Y-83626189D01*
X153914235Y-83632262D01*
X153809195Y-83633600D01*
X153540391Y-83633600D01*
X153390354Y-83200767D01*
X153240318Y-82767935D01*
X153111317Y-82769731D01*
X153111317Y-82414400D01*
X153017315Y-82173100D01*
X152969988Y-82047234D01*
X152896350Y-81846051D01*
X152803822Y-81590071D01*
X152699825Y-81299812D01*
X152603290Y-81028306D01*
X152501826Y-80748825D01*
X152409887Y-80508682D01*
X152333226Y-80321857D01*
X152277596Y-80202330D01*
X152248747Y-80164082D01*
X152247968Y-80164706D01*
X152222365Y-80220625D01*
X152168823Y-80355553D01*
X152093461Y-80552776D01*
X152002399Y-80795582D01*
X151901753Y-81067256D01*
X151797644Y-81351086D01*
X151696190Y-81630358D01*
X151603509Y-81888359D01*
X151525720Y-82108376D01*
X151468942Y-82273695D01*
X151439293Y-82367604D01*
X151436400Y-82381541D01*
X151484406Y-82392481D01*
X151617259Y-82401878D01*
X151818208Y-82409074D01*
X152070505Y-82413414D01*
X152273858Y-82414400D01*
X153111317Y-82414400D01*
X153111317Y-82769731D01*
X152254165Y-82781667D01*
X151268012Y-82795400D01*
X151112040Y-83214500D01*
X150956068Y-83633600D01*
X150688947Y-83633600D01*
X150421825Y-83633600D01*
X150530788Y-83341500D01*
X150573977Y-83225942D01*
X150647925Y-83028335D01*
X150747730Y-82761766D01*
X150868492Y-82439321D01*
X151005310Y-82074086D01*
X151153282Y-81679150D01*
X151287043Y-81322200D01*
X151934336Y-79595000D01*
X152262510Y-79580139D01*
X152440578Y-79574560D01*
X152544447Y-79584112D01*
X152601329Y-79617767D01*
X152638439Y-79684498D01*
X152647711Y-79707139D01*
X152679565Y-79790509D01*
X152739892Y-79952231D01*
X152824212Y-80180063D01*
X152928047Y-80461762D01*
X153046920Y-80785086D01*
X153176350Y-81137794D01*
X153311860Y-81507642D01*
X153448971Y-81882389D01*
X153583204Y-82249792D01*
X153710081Y-82597610D01*
X153825124Y-82913599D01*
X153923854Y-83185518D01*
X154001791Y-83401124D01*
X154054459Y-83548176D01*
X154077378Y-83614431D01*
X154078000Y-83616871D01*
X154078000Y-83616871D01*
%LPC*%
D12*
X161600000Y-99600000D03*
X159600000Y-99600000D03*
X143100000Y-99100000D03*
X143100000Y-101100000D03*
X143100000Y-103100000D03*
X143100000Y-105100000D03*
X143100000Y-107100000D03*
X143100000Y-109100000D03*
D13*
X152450000Y-81500000D03*
X153050000Y-81500000D03*
X151850000Y-81500000D03*
X151250000Y-81500000D03*
X150650000Y-81500000D03*
X150050000Y-81500000D03*
X149450000Y-81500000D03*
X148850000Y-81500000D03*
X148250000Y-81500000D03*
X151250000Y-81000000D03*
X150650000Y-81000000D03*
X150050000Y-81000000D03*
X149450000Y-81000000D03*
X148850000Y-81000000D03*
X148850000Y-82000000D03*
X149450000Y-82000000D03*
X150050000Y-82000000D03*
X150650000Y-82000000D03*
X151250000Y-82000000D03*
X148250000Y-82000000D03*
X148250000Y-81000000D03*
D14*
X119730000Y-93500000D03*
X121000000Y-93500000D03*
X119730000Y-94770000D03*
X121000000Y-94770000D03*
X119730000Y-96040000D03*
X121000000Y-96040000D03*
X119730000Y-97310000D03*
X121000000Y-97310000D03*
X119730000Y-98580000D03*
X121000000Y-98580000D03*
D15*
X123200000Y-105000000D03*
X123200000Y-109880000D03*
D16*
X142000000Y-67250000D03*
X144000000Y-67250000D03*
X146000000Y-67250000D03*
X148000000Y-67250000D03*
D17*
X140500000Y-65150000D03*
X149500000Y-65150000D03*
D16*
X126000000Y-125750000D03*
X124000000Y-125750000D03*
X122000000Y-125750000D03*
X120000000Y-125750000D03*
D17*
X127500000Y-127850000D03*
X118500000Y-127850000D03*
D16*
X138000000Y-125750000D03*
X136000000Y-125750000D03*
X134000000Y-125750000D03*
X132000000Y-125750000D03*
D17*
X139500000Y-127850000D03*
X130500000Y-127850000D03*
D16*
X162000000Y-125750000D03*
X160000000Y-125750000D03*
D17*
X163500000Y-127850000D03*
X158500000Y-127850000D03*
D16*
X146000000Y-125750000D03*
X144000000Y-125750000D03*
D17*
X147500000Y-127850000D03*
X142500000Y-127850000D03*
D16*
X154000000Y-125750000D03*
X152000000Y-125750000D03*
D17*
X155500000Y-127850000D03*
X150500000Y-127850000D03*
D18*
X121000000Y-117000000D03*
X161000000Y-74000000D03*
X121000000Y-74000000D03*
X161000000Y-117000000D03*
M02*
