%FSLAX46Y46*%
G04 Gerber Fmt 4.6, Leading zero omitted, Abs format (unit mm)*
G04 Created by KiCad (PCBNEW (2014-jul-16 BZR unknown)-product) date Wed 23 Jul 2014 18:14:34 BST*
%MOMM*%
G01*
G04 APERTURE LIST*
%ADD10C,0.100000*%
%ADD11R,0.800000X0.700000*%
%ADD12R,0.700000X0.800000*%
%ADD13R,0.600000X0.600000*%
%ADD14R,1.200000X1.700000*%
%ADD15R,0.800000X0.800000*%
%ADD16R,0.400000X1.400000*%
%ADD17R,0.600000X2.200000*%
%ADD18C,1.700000*%
%ADD19R,1.800000X0.700000*%
%ADD20R,1.800000X0.800000*%
%ADD21R,0.300000X0.300000*%
%ADD22R,0.600000X0.350000*%
%ADD23R,1.700000X1.600000*%
%ADD24R,0.350000X0.600000*%
%ADD25R,0.300000X1.200000*%
%ADD26R,1.200000X0.300000*%
%ADD27R,1.400000X0.400000*%
%ADD28R,0.640000X1.020000*%
%ADD29R,1.020000X0.640000*%
%ADD30R,0.660000X0.360000*%
%ADD31C,1.016000*%
%ADD32R,0.500000X0.600000*%
%ADD33C,1.400000*%
%ADD34C,1.500000*%
%ADD35R,1.300000X2.400000*%
%ADD36R,3.800000X2.400000*%
%ADD37R,0.800000X5.000000*%
%ADD38R,4.650000X5.000000*%
%ADD39R,2.286000X5.080000*%
%ADD40R,2.413000X5.080000*%
%ADD41R,1.000000X1.000000*%
%ADD42C,1.000000*%
%ADD43R,1.900000X0.900000*%
%ADD44R,1.300000X0.900000*%
%ADD45R,3.500000X1.800000*%
%ADD46C,0.300000*%
%ADD47R,0.600000X0.500000*%
%ADD48C,0.800000*%
%ADD49C,0.400000*%
%ADD50C,0.500000*%
%ADD51C,0.300000*%
%ADD52C,0.800000*%
%ADD53C,1.000000*%
%ADD54C,0.280000*%
%ADD55C,0.250000*%
%ADD56C,1.500000*%
%ADD57C,2.000000*%
%ADD58C,3.000000*%
G04 APERTURE END LIST*
D10*
D11*
X15500000Y16750000D03*
X15500000Y15350000D03*
X22250000Y16750000D03*
X22250000Y15350000D03*
X24900000Y56800000D03*
X24900000Y58200000D03*
D12*
X23500000Y61250000D03*
X24900000Y61250000D03*
X15750000Y22250000D03*
X14350000Y22250000D03*
D11*
X22250000Y20000000D03*
X22250000Y18600000D03*
D12*
X24250000Y14000000D03*
X22850000Y14000000D03*
X24250000Y21750000D03*
X22850000Y21750000D03*
X29250000Y40000000D03*
X27850000Y40000000D03*
X26500000Y40000000D03*
X25100000Y40000000D03*
D11*
X26200000Y52900000D03*
X26200000Y51500000D03*
X27250000Y18250000D03*
X27250000Y16850000D03*
X24250000Y26000000D03*
X24250000Y24600000D03*
D12*
X4900000Y42300000D03*
X3500000Y42300000D03*
X27000000Y37600000D03*
X28400000Y37600000D03*
D13*
X34000000Y57250000D03*
X35000000Y57250000D03*
D12*
X33750000Y58500000D03*
X35150000Y58500000D03*
D14*
X31250000Y49000000D03*
X34350000Y49000000D03*
D13*
X36570000Y39550000D03*
X36570000Y38550000D03*
X36900000Y66250000D03*
X36900000Y67250000D03*
X37600000Y40800000D03*
X36600000Y40800000D03*
X37900000Y64670000D03*
X36900000Y64670000D03*
D11*
X7500000Y33200000D03*
X7500000Y34600000D03*
X10500000Y31100000D03*
X10500000Y29700000D03*
X8800000Y33200000D03*
X8800000Y34600000D03*
D12*
X20100000Y39300000D03*
X21500000Y39300000D03*
D11*
X11800000Y42600000D03*
X11800000Y44000000D03*
D12*
X16500000Y28500000D03*
X15100000Y28500000D03*
X16500000Y29700000D03*
X15100000Y29700000D03*
X17500000Y52900000D03*
X18900000Y52900000D03*
X7250000Y65500000D03*
X5850000Y65500000D03*
X4800000Y53500000D03*
X6200000Y53500000D03*
X4700000Y48900000D03*
X6100000Y48900000D03*
X5000000Y33200000D03*
X3600000Y33200000D03*
D11*
X3900000Y29000000D03*
X3900000Y27600000D03*
X3900000Y24200000D03*
X3900000Y25600000D03*
D15*
X19500000Y46450000D03*
X19500000Y48100000D03*
X20750000Y46450000D03*
X20750000Y48100000D03*
X18250000Y46450000D03*
X18250000Y48100000D03*
X15800000Y46450000D03*
X15800000Y48100000D03*
X17000000Y46450000D03*
X17000000Y48100000D03*
X14500000Y46450000D03*
X14500000Y48100000D03*
D16*
X25750000Y20000000D03*
X25100000Y20000000D03*
X24450000Y20000000D03*
X23800000Y20000000D03*
X23800000Y15600000D03*
X24450000Y15600000D03*
X25100000Y15600000D03*
X25750000Y15600000D03*
D17*
X20750000Y20250000D03*
X19480000Y20250000D03*
X18210000Y20250000D03*
X16940000Y20250000D03*
X16940000Y15043000D03*
X18210000Y15043000D03*
X19480000Y15043000D03*
X20750000Y15043000D03*
X14000000Y20250000D03*
X12730000Y20250000D03*
X11460000Y20250000D03*
X10190000Y20250000D03*
X10190000Y15043000D03*
X11460000Y15043000D03*
X12730000Y15043000D03*
X14000000Y15043000D03*
X26250000Y54750000D03*
X27520000Y54750000D03*
X28790000Y54750000D03*
X30060000Y54750000D03*
X30060000Y59957000D03*
X28790000Y59957000D03*
X27520000Y59957000D03*
X26250000Y59957000D03*
D18*
X45600000Y34400000D03*
X43600000Y34400000D03*
X27100000Y34900000D03*
X27100000Y32900000D03*
X27100000Y30900000D03*
X27100000Y28900000D03*
X27100000Y26900000D03*
X27100000Y24900000D03*
D19*
X11250000Y63250000D03*
D20*
X11250000Y62150000D03*
X11250000Y61050000D03*
X11250000Y59950000D03*
X11250000Y58850000D03*
X11250000Y57750000D03*
X11250000Y56650000D03*
X11250000Y55550000D03*
D19*
X11250000Y54450000D03*
X20750000Y63250000D03*
X20750000Y54450000D03*
D20*
X20750000Y62150000D03*
X20750000Y61050000D03*
X20750000Y59950000D03*
X20750000Y58850000D03*
X20750000Y57750000D03*
X20750000Y56650000D03*
X20750000Y55550000D03*
D21*
X8900000Y66000000D03*
X8900000Y68500000D03*
X8900000Y67250000D03*
X9900000Y66000000D03*
X9900000Y68500000D03*
D22*
X9050000Y66625000D03*
X9050000Y67875000D03*
D23*
X10200000Y67250000D03*
D24*
X10875000Y66150000D03*
X10875000Y68350000D03*
X10525000Y68350000D03*
X10525000Y66150000D03*
D25*
X11750000Y32000000D03*
X12250000Y32000000D03*
X12750000Y32000000D03*
X13250000Y32000000D03*
X13750000Y32000000D03*
X14250000Y32000000D03*
X14750000Y32000000D03*
X15250000Y32000000D03*
X15750000Y32000000D03*
X16250000Y32000000D03*
X16750000Y32000000D03*
X17250000Y32000000D03*
D26*
X18750000Y33500000D03*
X18750000Y34000000D03*
X18750000Y34500000D03*
X18750000Y35000000D03*
X18750000Y35500000D03*
X18750000Y36000000D03*
X18750000Y36500000D03*
X18750000Y37000000D03*
X18750000Y37500000D03*
X18750000Y38000000D03*
X18750000Y38500000D03*
X18750000Y39000000D03*
D25*
X17250000Y40500000D03*
X16750000Y40500000D03*
X16250000Y40500000D03*
X15750000Y40500000D03*
X15250000Y40500000D03*
X14750000Y40500000D03*
X14250000Y40500000D03*
X13750000Y40500000D03*
X13250000Y40500000D03*
X12750000Y40500000D03*
X12250000Y40500000D03*
X11750000Y40500000D03*
D26*
X10250000Y39000000D03*
X10250000Y38500000D03*
X10250000Y38000000D03*
X10250000Y37500000D03*
X10250000Y37000000D03*
X10250000Y36500000D03*
X10250000Y36000000D03*
X10250000Y35500000D03*
X10250000Y35000000D03*
X10250000Y34500000D03*
X10250000Y34000000D03*
X10250000Y33500000D03*
D27*
X3200000Y52200000D03*
X3200000Y51550000D03*
X3200000Y50900000D03*
X3200000Y50250000D03*
X7600000Y50250000D03*
X7600000Y50900000D03*
X7600000Y51550000D03*
X7600000Y52200000D03*
D28*
X35250000Y56000000D03*
X33970000Y56000000D03*
D29*
X36580000Y45790000D03*
X36580000Y44510000D03*
D30*
X36760000Y61860000D03*
X36760000Y61040000D03*
D31*
X3730000Y40500000D03*
X5000000Y40500000D03*
X3730000Y39230000D03*
X5000000Y39230000D03*
X3730000Y37960000D03*
X5000000Y37960000D03*
X3730000Y36690000D03*
X5000000Y36690000D03*
X3730000Y35420000D03*
X5000000Y35420000D03*
D15*
X21750000Y26250000D03*
X21750000Y24650000D03*
X23000000Y26250000D03*
X23000000Y24650000D03*
D32*
X36580000Y48890000D03*
X36580000Y47790000D03*
D15*
X41250000Y12500000D03*
X41250000Y14100000D03*
X40000000Y12500000D03*
X40000000Y14100000D03*
X7250000Y67000000D03*
X7250000Y68600000D03*
X20750000Y45200000D03*
X20750000Y43600000D03*
X19500000Y45200000D03*
X19500000Y43600000D03*
X22000000Y45200000D03*
X22000000Y43600000D03*
X18250000Y45200000D03*
X18250000Y43600000D03*
X15800000Y45200000D03*
X15800000Y43600000D03*
X17000000Y45200000D03*
X17000000Y43600000D03*
X14500000Y45200000D03*
X14500000Y43600000D03*
X10500000Y24200000D03*
X10500000Y25800000D03*
D33*
X7200000Y29000000D03*
X7200000Y24120000D03*
D34*
X26000000Y66750000D03*
X28000000Y66750000D03*
X30000000Y66750000D03*
X32000000Y66750000D03*
X10000000Y8250000D03*
X8000000Y8250000D03*
X6000000Y8250000D03*
X4000000Y8250000D03*
X22000000Y8250000D03*
X20000000Y8250000D03*
X18000000Y8250000D03*
X16000000Y8250000D03*
X46000000Y8250000D03*
X44000000Y8250000D03*
X30000000Y8250000D03*
X28000000Y8250000D03*
X38000000Y8250000D03*
X36000000Y8250000D03*
D35*
X27250000Y42250000D03*
X24950000Y42250000D03*
X29550000Y42250000D03*
D36*
X27250000Y48350000D03*
D37*
X9000000Y72250000D03*
D38*
X5575000Y72250000D03*
X12425000Y72250000D03*
D39*
X41750000Y72250000D03*
D40*
X37368500Y72250000D03*
X46131500Y72250000D03*
D41*
X40500000Y67250000D03*
X39000000Y67250000D03*
X42000000Y67250000D03*
X40000000Y38500000D03*
X41500000Y38500000D03*
X38500000Y38500000D03*
D42*
X25000000Y27000000D03*
X25000000Y29000000D03*
X25000000Y31000000D03*
X25000000Y33000000D03*
X9500000Y56500000D03*
X9500000Y55250000D03*
X20750000Y65000000D03*
X5750000Y67000000D03*
X18750000Y22250000D03*
X17500000Y22250000D03*
X27500000Y52250000D03*
X29000000Y52250000D03*
X21750000Y27500000D03*
X37300000Y12500000D03*
X27500000Y13750000D03*
X29000000Y62250000D03*
X27500000Y62250000D03*
X10500000Y12750000D03*
X11500000Y22250000D03*
X18250000Y12750000D03*
X12500000Y12750000D03*
X12750000Y22250000D03*
X19500000Y12750000D03*
X29800000Y50400000D03*
X27250000Y20000000D03*
D43*
X36450000Y52500000D03*
D44*
X36750000Y51000000D03*
X36750000Y54000000D03*
D45*
X33750000Y52500000D03*
D46*
X36450000Y52500000D03*
X37050000Y52500000D03*
X35850000Y52500000D03*
X35250000Y52500000D03*
X34650000Y52500000D03*
X34050000Y52500000D03*
X33450000Y52500000D03*
X32850000Y52500000D03*
X32250000Y52500000D03*
X35250000Y53000000D03*
X34650000Y53000000D03*
X34050000Y53000000D03*
X33450000Y53000000D03*
X32850000Y53000000D03*
X32850000Y52000000D03*
X33450000Y52000000D03*
X34050000Y52000000D03*
X34650000Y52000000D03*
X35250000Y52000000D03*
X32250000Y52000000D03*
X32250000Y53000000D03*
D47*
X25000000Y62500000D03*
X23900000Y62500000D03*
X28500000Y12500000D03*
X29600000Y12500000D03*
X40500000Y68700000D03*
X39400000Y68700000D03*
X43700000Y12800000D03*
X42600000Y12800000D03*
X44900000Y12800000D03*
X46000000Y12800000D03*
D48*
X24100000Y38900000D03*
X23900000Y40000000D03*
X30500000Y12500000D03*
X44300000Y12100000D03*
X48500000Y34000000D03*
X48500000Y36000000D03*
X48500000Y38000000D03*
X48500000Y40000000D03*
X48500000Y42000000D03*
X48500000Y44000000D03*
X48500000Y46000000D03*
X48500000Y48000000D03*
X48500000Y50000000D03*
X48500000Y52000000D03*
X48500000Y54000000D03*
X48500000Y56000000D03*
X48500000Y58000000D03*
X48500000Y60000000D03*
X48500000Y62000000D03*
X48500000Y64000000D03*
X48500000Y66000000D03*
X48500000Y68000000D03*
X48500000Y70000000D03*
X48500000Y72000000D03*
X34500000Y23500000D03*
X36500000Y23500000D03*
X38500000Y23500000D03*
X40500000Y23500000D03*
X42500000Y23500000D03*
X44500000Y23500000D03*
X46500000Y23500000D03*
X48500000Y23500000D03*
X48500000Y26000000D03*
X48500000Y28000000D03*
X48500000Y30000000D03*
X48500000Y32000000D03*
X32500000Y35000000D03*
X32500000Y33000000D03*
X32500000Y31000000D03*
X32500000Y29000000D03*
X32500000Y27000000D03*
X32500000Y25000000D03*
X32500000Y47500000D03*
X32500000Y45500000D03*
X32500000Y43500000D03*
X32500000Y41500000D03*
X32500000Y39500000D03*
X32500000Y37500000D03*
X33500000Y36000000D03*
X35500000Y36000000D03*
X37500000Y36000000D03*
X34300000Y50700000D03*
X33000000Y50500000D03*
X29400000Y37600000D03*
X37400000Y68800000D03*
X21500000Y38250000D03*
X35000000Y54500000D03*
X35000000Y62000000D03*
X35000000Y64000000D03*
X35000000Y66000000D03*
X35000000Y68000000D03*
X35000000Y70000000D03*
X35000000Y72000000D03*
X35000000Y59750000D03*
X38500000Y65500000D03*
X38500000Y63100000D03*
X38500000Y63900000D03*
X38500000Y64700000D03*
X38200000Y44000000D03*
X38200000Y43200000D03*
X38200000Y42400000D03*
X38200000Y41600000D03*
X38200000Y40000000D03*
X38200000Y40800000D03*
X20200000Y52900000D03*
X6300000Y34600000D03*
X15300000Y27400000D03*
X46100000Y68800000D03*
X12400000Y69100000D03*
X5600000Y68800000D03*
X23500000Y62900000D03*
X24900000Y55800000D03*
X31500000Y59900000D03*
X11600000Y29800000D03*
X3600000Y32000000D03*
X7100000Y48900000D03*
X4900000Y65500000D03*
X12000000Y66100000D03*
X12000000Y68300000D03*
X12000000Y67200000D03*
X25200000Y38900000D03*
X27900000Y38900000D03*
X15900000Y20500000D03*
X22000000Y21700000D03*
X22800000Y13100000D03*
X10200000Y22200000D03*
X4600000Y26600000D03*
X7200000Y54300000D03*
X17650000Y47450000D03*
X12450000Y44800000D03*
X25100000Y51500000D03*
X3500000Y43600000D03*
X2000000Y72000000D03*
X2000000Y70000000D03*
X2000000Y68000000D03*
X2000000Y66000000D03*
X2000000Y64000000D03*
X2000000Y62000000D03*
X2000000Y60000000D03*
X2000000Y58000000D03*
X2000000Y56000000D03*
X2000000Y54000000D03*
X4000000Y55000000D03*
X6000000Y57000000D03*
X7000000Y58000000D03*
X6000000Y63000000D03*
X4000000Y67000000D03*
X16000000Y73000000D03*
X18000000Y73000000D03*
X20000000Y73000000D03*
X21000000Y72000000D03*
X21000000Y70000000D03*
X21000000Y68000000D03*
X20000000Y67000000D03*
X19000000Y65000000D03*
X17000000Y64000000D03*
X17000000Y62000000D03*
X17000000Y60000000D03*
X17000000Y58000000D03*
X16000000Y56000000D03*
X15000000Y55000000D03*
X14000000Y54000000D03*
X13000000Y55000000D03*
X13000000Y57000000D03*
X13000000Y59000000D03*
X13000000Y61000000D03*
X13000000Y63000000D03*
X13000000Y65000000D03*
X13000000Y67000000D03*
X14000000Y68000000D03*
X16000000Y69000000D03*
X16000000Y71000000D03*
X18000000Y71000000D03*
X19000000Y69000000D03*
X17000000Y67000000D03*
X15000000Y65000000D03*
X15000000Y63000000D03*
X15000000Y61000000D03*
X15000000Y59000000D03*
X15000000Y57000000D03*
X22700000Y48400000D03*
X24600000Y48450000D03*
X32200000Y22800000D03*
X28100000Y22800000D03*
X10000000Y32700000D03*
X12500000Y33300000D03*
X15450000Y51450000D03*
X18450000Y50800000D03*
X8400000Y45700000D03*
X3800000Y45700000D03*
X18550000Y51850000D03*
X16450000Y51850000D03*
X3800000Y44600000D03*
X7600000Y44600000D03*
X22700000Y50550000D03*
X24500000Y50550000D03*
X24550000Y49500000D03*
X22700000Y49500000D03*
X27100000Y21200000D03*
X32200000Y20500000D03*
X28100000Y21700000D03*
X32200000Y21700000D03*
X7900000Y42150000D03*
X7200000Y37850000D03*
X6750000Y36900000D03*
X6850000Y42150000D03*
X6150000Y36050000D03*
X5950000Y42700000D03*
X25000000Y34400000D03*
X12750000Y39250000D03*
X9450000Y40050000D03*
D49*
X10190000Y15043000D02*
X10190000Y16190000D01*
X10750000Y16750000D02*
X15500000Y16750000D01*
X10190000Y16190000D02*
X10750000Y16750000D01*
X10190000Y15043000D02*
X10190000Y14590000D01*
X10190000Y14590000D02*
X4000000Y8400000D01*
X4000000Y8400000D02*
X4000000Y8250000D01*
X4000000Y8500000D02*
X4000000Y8250000D01*
X15500000Y15350000D02*
X14100000Y15350000D01*
X14100000Y15350000D02*
X14000000Y15250000D01*
X14000000Y15250000D02*
X14000000Y15043000D01*
X14000000Y14000000D02*
X14000000Y15043000D01*
X14000000Y15043000D02*
X14000000Y12400000D01*
X14000000Y12400000D02*
X9900000Y8300000D01*
X9900000Y8300000D02*
X10000000Y8250000D01*
X14000000Y14750000D02*
X14000000Y15043000D01*
X16940000Y15043000D02*
X16940000Y15940000D01*
X16940000Y15940000D02*
X17750000Y16750000D01*
X17750000Y16750000D02*
X22250000Y16750000D01*
X16940000Y15043000D02*
X16940000Y9190000D01*
X16940000Y9190000D02*
X16000000Y8250000D01*
X22250000Y15350000D02*
X20850000Y15350000D01*
X20850000Y15350000D02*
X20750000Y15250000D01*
X20750000Y15250000D02*
X20750000Y15043000D01*
X20750000Y15043000D02*
X20750000Y9750000D01*
X20750000Y9750000D02*
X22000000Y8500000D01*
X22000000Y8500000D02*
X22000000Y8250000D01*
D50*
X25100000Y40000000D02*
X25100000Y39900000D01*
X25100000Y39900000D02*
X24100000Y38900000D01*
X25100000Y40000000D02*
X23900000Y40000000D01*
D51*
X29600000Y12500000D02*
X30500000Y12500000D01*
X44300000Y12800000D02*
X44300000Y12100000D01*
X43700000Y12800000D02*
X44300000Y12800000D01*
X44300000Y12800000D02*
X44900000Y12800000D01*
X23500000Y61250000D02*
X23500000Y62400000D01*
X23500000Y62400000D02*
X23600000Y62500000D01*
X23600000Y62500000D02*
X23900000Y62500000D01*
D50*
X34500000Y23500000D02*
X34000000Y23500000D01*
X48500000Y38000000D02*
X48500000Y36000000D01*
X48500000Y42000000D02*
X48500000Y40000000D01*
X48500000Y46000000D02*
X48500000Y44000000D01*
X48500000Y50000000D02*
X48500000Y48000000D01*
X48500000Y54000000D02*
X48500000Y52000000D01*
X48500000Y58000000D02*
X48500000Y56000000D01*
X48500000Y62000000D02*
X48500000Y60000000D01*
X48500000Y66000000D02*
X48500000Y64000000D01*
X48500000Y70000000D02*
X48500000Y68000000D01*
X48250000Y72250000D02*
X48500000Y72000000D01*
X46131500Y72250000D02*
X48250000Y72250000D01*
X36500000Y23500000D02*
X34500000Y23500000D01*
X40500000Y23500000D02*
X38500000Y23500000D01*
X44500000Y23500000D02*
X42500000Y23500000D01*
X48500000Y23500000D02*
X46500000Y23500000D01*
X48500000Y28000000D02*
X48500000Y26000000D01*
X48500000Y32000000D02*
X48500000Y30000000D01*
X32500000Y35000000D02*
X32500000Y36000000D01*
X32500000Y31000000D02*
X32500000Y33000000D01*
X32500000Y27000000D02*
X32500000Y29000000D01*
X34000000Y23500000D02*
X32500000Y25000000D01*
X34350000Y49000000D02*
X34000000Y49000000D01*
X34000000Y49000000D02*
X32500000Y47500000D01*
X32500000Y47500000D02*
X33000000Y47500000D01*
X32500000Y36000000D02*
X32500000Y37500000D01*
X32500000Y43500000D02*
X32500000Y45500000D01*
X32500000Y39500000D02*
X32500000Y41500000D01*
X33000000Y47500000D02*
X34500000Y49000000D01*
X34500000Y49000000D02*
X34350000Y49000000D01*
X32500000Y36000000D02*
X33000000Y36000000D01*
X33000000Y36000000D02*
X33500000Y36000000D01*
X35500000Y36000000D02*
X37500000Y36000000D01*
X34300000Y50700000D02*
X33200000Y50700000D01*
X34350000Y50650000D02*
X34300000Y50700000D01*
X34350000Y49000000D02*
X34350000Y50650000D01*
X33200000Y50700000D02*
X33000000Y50500000D01*
X28400000Y37600000D02*
X29400000Y37600000D01*
D49*
X39600000Y68600000D02*
X39600000Y68700000D01*
X39300000Y68700000D02*
X39200000Y68800000D01*
D52*
X39250000Y68800000D02*
X39400000Y68800000D01*
X39400000Y68800000D02*
X39200000Y68800000D01*
X39200000Y68800000D02*
X37400000Y68800000D01*
D53*
X37368500Y68831500D02*
X37368500Y68700000D01*
X37368500Y68831500D02*
X37400000Y68800000D01*
D51*
X37400000Y68700000D02*
X37368500Y68700000D01*
D50*
X8800000Y62700000D02*
X9900000Y61600000D01*
X8800000Y65100000D02*
X8800000Y62700000D01*
D54*
X9400000Y65700000D02*
X8800000Y65100000D01*
X9400000Y66600000D02*
X9400000Y65700000D01*
D50*
X10200000Y61000000D02*
X11200000Y61000000D01*
X9900000Y61300000D02*
X10200000Y61000000D01*
X9900000Y61600000D02*
X9900000Y61300000D01*
D54*
X11200000Y61000000D02*
X11250000Y61050000D01*
X11250000Y61050000D02*
X12850000Y61050000D01*
X12900000Y61000000D02*
X13000000Y61000000D01*
X12850000Y61050000D02*
X12900000Y61000000D01*
X10200000Y67250000D02*
X10050000Y67250000D01*
X10050000Y67250000D02*
X9400000Y66600000D01*
D51*
X21300000Y38900000D02*
X21300000Y38700000D01*
X21400000Y38500000D02*
X21300000Y38600000D01*
X21400000Y38600000D02*
X21400000Y38500000D01*
X21400000Y38200000D02*
X21400000Y38600000D01*
X21300000Y38700000D02*
X21400000Y38600000D01*
X21500000Y38200000D02*
X21400000Y38200000D01*
X21400000Y38200000D02*
X21300000Y38200000D01*
X21300000Y38200000D02*
X21000000Y38500000D01*
D50*
X33750000Y52500000D02*
X34000000Y52500000D01*
X34000000Y52500000D02*
X35000000Y53500000D01*
X35000000Y53500000D02*
X35000000Y54500000D01*
X37368500Y72250000D02*
X35250000Y72250000D01*
X35000000Y66000000D02*
X35000000Y64000000D01*
X35000000Y70000000D02*
X35000000Y68000000D01*
X35250000Y72250000D02*
X35000000Y72000000D01*
D52*
X35150000Y59600000D02*
X35000000Y59750000D01*
X35150000Y59600000D02*
X35150000Y58500000D01*
D50*
X37900000Y65500000D02*
X38500000Y65500000D01*
X37900000Y63100000D02*
X38500000Y63100000D01*
X37900000Y63900000D02*
X38500000Y63900000D01*
X37900000Y64670000D02*
X38470000Y64670000D01*
X38470000Y64670000D02*
X38500000Y64700000D01*
X37600000Y44000000D02*
X38200000Y44000000D01*
X37600000Y43200000D02*
X38200000Y43200000D01*
X37600000Y42400000D02*
X38200000Y42400000D01*
X37600000Y41600000D02*
X38200000Y41600000D01*
X37600000Y40000000D02*
X38200000Y40000000D01*
X37600000Y40800000D02*
X38200000Y40800000D01*
X37600000Y40800000D02*
X37600000Y41600000D01*
X37600000Y41600000D02*
X37600000Y41700000D01*
X37600000Y41700000D02*
X37600000Y42400000D01*
X37600000Y42400000D02*
X37600000Y43200000D01*
X37600000Y43200000D02*
X37600000Y44000000D01*
X37600000Y44000000D02*
X37600000Y43900000D01*
X37600000Y39800000D02*
X37600000Y40000000D01*
X37600000Y40000000D02*
X37600000Y39700000D01*
X37900000Y62900000D02*
X37900000Y63100000D01*
X37900000Y63100000D02*
X37900000Y62000000D01*
X37900000Y63700000D02*
X37900000Y63900000D01*
X37900000Y63900000D02*
X37900000Y63300000D01*
X37900000Y65300000D02*
X37900000Y65500000D01*
X37900000Y65500000D02*
X37900000Y65400000D01*
D52*
X18900000Y52900000D02*
X20200000Y52900000D01*
X20750000Y54450000D02*
X19350000Y54450000D01*
X18900000Y54000000D02*
X18900000Y53000000D01*
X19350000Y54450000D02*
X18900000Y54000000D01*
X18900000Y53000000D02*
X18900000Y52900000D01*
D50*
X6300000Y34600000D02*
X7500000Y34600000D01*
X8800000Y34600000D02*
X7600000Y34600000D01*
X7600000Y34600000D02*
X7500000Y34600000D01*
D54*
X15250000Y32000000D02*
X15250000Y29850000D01*
X15250000Y29850000D02*
X15100000Y29700000D01*
D50*
X15100000Y28500000D02*
X15100000Y27600000D01*
X15100000Y27600000D02*
X15300000Y27400000D01*
X15100000Y29700000D02*
X15100000Y28500000D01*
X37900000Y64670000D02*
X37900000Y65300000D01*
X37900000Y65400000D02*
X37900000Y66100000D01*
X37900000Y66100000D02*
X37900000Y66200000D01*
X37900000Y64670000D02*
X37900000Y64000000D01*
X37900000Y64000000D02*
X37900000Y63700000D01*
X37900000Y63300000D02*
X37900000Y62900000D01*
X37600000Y40800000D02*
X37600000Y39800000D01*
X37600000Y39700000D02*
X37600000Y39500000D01*
D53*
X37368500Y72250000D02*
X37368500Y68700000D01*
X46131500Y72250000D02*
X46131500Y68831500D01*
X46131500Y68831500D02*
X46100000Y68800000D01*
X12425000Y72250000D02*
X12425000Y69125000D01*
X12425000Y69125000D02*
X12400000Y69100000D01*
X5575000Y72250000D02*
X5575000Y68825000D01*
X5575000Y68825000D02*
X5600000Y68800000D01*
D51*
X9050000Y67875000D02*
X8725000Y67875000D01*
X8200000Y69500000D02*
X7800000Y69900000D01*
X8200000Y68400000D02*
X8200000Y69500000D01*
X8725000Y67875000D02*
X8200000Y68400000D01*
X7800000Y69900000D02*
X5575000Y72250000D01*
D54*
X24250000Y24600000D02*
X26600000Y24600000D01*
X26600000Y24600000D02*
X27000000Y25000000D01*
X27000000Y25000000D02*
X27100000Y24900000D01*
X23000000Y24650000D02*
X24100000Y24650000D01*
X24100000Y24650000D02*
X24250000Y24500000D01*
X24250000Y24500000D02*
X24250000Y24600000D01*
D51*
X21500000Y39300000D02*
X21500000Y38200000D01*
X21500000Y38200000D02*
X21500000Y38250000D01*
D52*
X35150000Y58500000D02*
X35150000Y57350000D01*
X35150000Y57350000D02*
X35250000Y57250000D01*
X35250000Y57250000D02*
X35000000Y57250000D01*
D51*
X37500000Y70800000D02*
X37500000Y71200000D01*
X37500000Y71200000D02*
X37368500Y72250000D01*
D50*
X30060000Y59957000D02*
X30060000Y64960000D01*
X30060000Y64960000D02*
X31900000Y66800000D01*
X31900000Y66800000D02*
X32000000Y66750000D01*
D49*
X23500000Y61250000D02*
X23500000Y62900000D01*
X24900000Y56800000D02*
X24900000Y55800000D01*
X30060000Y59957000D02*
X31443000Y59957000D01*
X31443000Y59957000D02*
X31500000Y59900000D01*
X30060000Y54750000D02*
X30060000Y59960000D01*
X30060000Y59960000D02*
X30100000Y60000000D01*
X30100000Y60000000D02*
X30060000Y59957000D01*
D55*
X10500000Y29700000D02*
X11500000Y29700000D01*
X11500000Y29700000D02*
X11600000Y29800000D01*
X3600000Y33200000D02*
X3600000Y32000000D01*
X6100000Y48900000D02*
X7100000Y48900000D01*
X5850000Y65500000D02*
X4900000Y65500000D01*
X10875000Y66150000D02*
X11950000Y66150000D01*
X11950000Y66150000D02*
X12000000Y66100000D01*
X10875000Y68350000D02*
X11950000Y68350000D01*
X11950000Y68350000D02*
X12000000Y68300000D01*
X10200000Y67250000D02*
X11950000Y67250000D01*
X11950000Y67250000D02*
X12000000Y67200000D01*
X10875000Y66150000D02*
X10550000Y66150000D01*
X10550000Y66150000D02*
X10500000Y66100000D01*
X10500000Y66100000D02*
X10525000Y66150000D01*
X9050000Y67875000D02*
X9425000Y67875000D01*
X9425000Y67875000D02*
X9600000Y67700000D01*
X9600000Y67700000D02*
X9600000Y66700000D01*
X9600000Y66700000D02*
X9500000Y66600000D01*
X9500000Y66600000D02*
X9000000Y66600000D01*
X9000000Y66600000D02*
X9050000Y66625000D01*
X9050000Y67875000D02*
X9875000Y67875000D01*
X9875000Y67875000D02*
X9900000Y67900000D01*
X9900000Y67900000D02*
X9900000Y68500000D01*
X10525000Y68350000D02*
X10050000Y68350000D01*
X10050000Y68350000D02*
X9900000Y68500000D01*
X10875000Y68350000D02*
X10550000Y68350000D01*
X10550000Y68350000D02*
X10500000Y68300000D01*
X10500000Y68300000D02*
X10525000Y68350000D01*
X9900000Y68500000D02*
X9900000Y69500000D01*
X9900000Y69500000D02*
X10400000Y70000000D01*
X10400000Y70000000D02*
X12425000Y72250000D01*
X9400000Y66600000D02*
X10200000Y67250000D01*
X10525000Y66150000D02*
X10525000Y63275000D01*
X10525000Y63275000D02*
X10600000Y63200000D01*
X10600000Y63200000D02*
X11250000Y63250000D01*
D51*
X6200000Y53500000D02*
X7200000Y53500000D01*
X7700000Y53000000D02*
X7700000Y52300000D01*
X7200000Y53500000D02*
X7700000Y53000000D01*
X7200000Y53500000D02*
X7200000Y53500000D01*
X7700000Y52300000D02*
X7600000Y52200000D01*
X7700000Y50900000D02*
X7600000Y50900000D01*
X6100000Y48900000D02*
X6100000Y50800000D01*
X6100000Y50800000D02*
X6000000Y50900000D01*
X7600000Y50900000D02*
X7600000Y50300000D01*
X7600000Y50300000D02*
X7600000Y50250000D01*
X3200000Y50900000D02*
X6000000Y50900000D01*
X6000000Y50900000D02*
X7700000Y50900000D01*
X7700000Y50900000D02*
X7600000Y50900000D01*
X3200000Y50900000D02*
X3200000Y50200000D01*
X3200000Y50200000D02*
X3200000Y50250000D01*
D54*
X3730000Y35420000D02*
X3730000Y33230000D01*
X3730000Y33230000D02*
X3700000Y33200000D01*
X3700000Y33200000D02*
X3600000Y33200000D01*
X11900000Y43900000D02*
X11800000Y44000000D01*
D52*
X25100000Y40000000D02*
X25100000Y41900000D01*
D49*
X25100000Y41900000D02*
X25000000Y42000000D01*
X25000000Y42000000D02*
X24950000Y42250000D01*
D54*
X18750000Y38500000D02*
X21000000Y38500000D01*
X21000000Y38500000D02*
X20900000Y38500000D01*
X20900000Y38500000D02*
X21300000Y38900000D01*
X21300000Y38900000D02*
X21500000Y39100000D01*
X21500000Y39100000D02*
X21500000Y39300000D01*
X3900000Y25600000D02*
X3900000Y26600000D01*
X3900000Y26600000D02*
X3900000Y27500000D01*
X3900000Y27500000D02*
X3900000Y27600000D01*
X10250000Y35500000D02*
X9100000Y35500000D01*
X8800000Y35200000D02*
X8800000Y34600000D01*
X9100000Y35500000D02*
X8800000Y35200000D01*
X10250000Y34000000D02*
X9300000Y34000000D01*
X9300000Y34000000D02*
X8700000Y34600000D01*
X8700000Y34600000D02*
X8800000Y34600000D01*
X7400000Y34600000D02*
X7500000Y34600000D01*
D50*
X25100000Y40000000D02*
X25100000Y39000000D01*
D49*
X25100000Y39000000D02*
X25200000Y38900000D01*
X27850000Y40000000D02*
X27850000Y38950000D01*
X27850000Y38950000D02*
X27900000Y38900000D01*
X38000000Y8250000D02*
X38000000Y11800000D01*
X38000000Y11800000D02*
X37300000Y12500000D01*
X16940000Y20250000D02*
X16250000Y20250000D01*
X15750000Y20650000D02*
X15900000Y20500000D01*
X15750000Y20650000D02*
X15750000Y22250000D01*
X16000000Y20500000D02*
X15900000Y20500000D01*
X16250000Y20250000D02*
X16000000Y20500000D01*
X22850000Y21750000D02*
X22050000Y21750000D01*
X22050000Y21750000D02*
X22000000Y21700000D01*
X22250000Y18600000D02*
X23300000Y18600000D01*
X23800000Y19100000D02*
X23800000Y20000000D01*
X23300000Y18600000D02*
X23800000Y19100000D01*
X22850000Y14000000D02*
X22850000Y13150000D01*
X22850000Y13150000D02*
X22800000Y13100000D01*
D51*
X23800000Y20000000D02*
X23800000Y20700000D01*
X23800000Y20700000D02*
X22750000Y21750000D01*
X22750000Y21750000D02*
X22850000Y21750000D01*
X10190000Y22190000D02*
X10200000Y22200000D01*
X10190000Y20250000D02*
X10190000Y22190000D01*
X3900000Y26600000D02*
X4600000Y26600000D01*
X7200000Y53500000D02*
X7200000Y54300000D01*
D54*
X11750000Y44000000D02*
X11800000Y44000000D01*
X12250000Y41750000D02*
X12750000Y42250000D01*
X12750000Y42250000D02*
X12750000Y43750000D01*
X12750000Y43750000D02*
X12500000Y44000000D01*
X12500000Y44000000D02*
X11750000Y44000000D01*
X12250000Y40500000D02*
X12250000Y41750000D01*
D51*
X15850000Y48100000D02*
X15800000Y48100000D01*
X14500000Y48100000D02*
X15850000Y48100000D01*
X17100000Y48100000D02*
X17000000Y48100000D01*
X15800000Y48100000D02*
X17100000Y48100000D01*
X18200000Y48050000D02*
X18250000Y48100000D01*
X18150000Y48100000D02*
X18200000Y48050000D01*
X17650000Y48100000D02*
X18150000Y48100000D01*
X17000000Y48100000D02*
X17650000Y48100000D01*
X19550000Y48100000D02*
X19500000Y48100000D01*
X18250000Y48100000D02*
X19550000Y48100000D01*
X20650000Y48100000D02*
X20750000Y48100000D01*
X19500000Y48100000D02*
X20650000Y48100000D01*
X17650000Y48100000D02*
X17650000Y47450000D01*
X11800000Y44150000D02*
X12450000Y44800000D01*
X11800000Y44000000D02*
X11800000Y44150000D01*
D50*
X25100000Y51500000D02*
X26200000Y51500000D01*
D49*
X3500000Y42300000D02*
X3500000Y43600000D01*
D51*
X2250000Y72250000D02*
X2000000Y72000000D01*
X2000000Y70000000D02*
X2000000Y68000000D01*
X2000000Y66000000D02*
X2000000Y64000000D01*
X2000000Y62000000D02*
X2000000Y60000000D01*
X2000000Y58000000D02*
X2000000Y56000000D01*
X2000000Y54000000D02*
X3000000Y55000000D01*
X3000000Y55000000D02*
X4000000Y55000000D01*
X6000000Y57000000D02*
X7000000Y58000000D01*
X6000000Y63000000D02*
X4000000Y65000000D01*
X4000000Y65000000D02*
X4000000Y67000000D01*
X5575000Y72250000D02*
X2250000Y72250000D01*
X16000000Y73000000D02*
X18000000Y73000000D01*
X20000000Y73000000D02*
X21000000Y72000000D01*
X21000000Y70000000D02*
X21000000Y68000000D01*
X20000000Y67000000D02*
X19000000Y66000000D01*
X19000000Y66000000D02*
X19000000Y65000000D01*
X17000000Y64000000D02*
X17000000Y62000000D01*
X17000000Y60000000D02*
X17000000Y58000000D01*
X16000000Y56000000D02*
X15000000Y55000000D01*
X14000000Y54000000D02*
X13000000Y55000000D01*
X13000000Y57000000D02*
X13000000Y59000000D01*
X13000000Y61000000D02*
X13000000Y63000000D01*
X13000000Y65000000D02*
X13000000Y67000000D01*
X14000000Y68000000D02*
X15000000Y68000000D01*
X15000000Y68000000D02*
X16000000Y69000000D01*
X16000000Y71000000D02*
X18000000Y71000000D01*
X19000000Y69000000D02*
X17000000Y67000000D01*
X15000000Y65000000D02*
X15000000Y63000000D01*
X15000000Y61000000D02*
X15000000Y59000000D01*
D50*
X27000000Y37600000D02*
X27000000Y35000000D01*
X27000000Y35000000D02*
X27200000Y34800000D01*
X27200000Y34800000D02*
X27100000Y34900000D01*
D52*
X14350000Y22250000D02*
X14350000Y19375000D01*
X14350000Y19375000D02*
X14125000Y19150000D01*
X20750000Y17750000D02*
X16925000Y17750000D01*
X14025000Y19050000D02*
X14000000Y19050000D01*
X15625000Y19050000D02*
X14025000Y19050000D01*
X16925000Y17750000D02*
X15625000Y19050000D01*
D51*
X19700000Y39414286D02*
X19700000Y39300000D01*
X19600000Y39200000D02*
X19600000Y39100000D01*
X19700000Y39300000D02*
X19600000Y39200000D01*
X19400000Y39400000D02*
X19400000Y39300000D01*
X19400000Y39300000D02*
X19600000Y39100000D01*
X19600000Y39100000D02*
X19500000Y39200000D01*
X19500000Y39200000D02*
X19500000Y39400000D01*
D52*
X20750000Y59950000D02*
X18950000Y59950000D01*
X18900000Y60000000D02*
X18900000Y59700000D01*
X18950000Y59950000D02*
X18900000Y60000000D01*
X18900000Y59700000D02*
X18900000Y59700000D01*
X18900000Y61100000D02*
X18900000Y61050000D01*
X18900000Y59800000D02*
X18900000Y61100000D01*
X18900000Y59700000D02*
X18900000Y59800000D01*
D50*
X26000000Y53000000D02*
X26200000Y52900000D01*
X22300000Y40100000D02*
X22300000Y40200000D01*
X23600000Y46600000D02*
X23600000Y46500000D01*
X23600000Y41500000D02*
X23600000Y46600000D01*
X22300000Y40200000D02*
X23600000Y41500000D01*
D52*
X26100000Y52900000D02*
X26200000Y52900000D01*
D54*
X15750000Y32000000D02*
X15750000Y31250000D01*
D52*
X16500000Y30500000D02*
X16500000Y29600000D01*
D54*
X15750000Y31250000D02*
X16500000Y30500000D01*
X16500000Y29600000D02*
X16500000Y29700000D01*
D52*
X16500000Y28500000D02*
X16509998Y28500000D01*
X16509998Y28500000D02*
X16509998Y29700000D01*
X16509998Y29700000D02*
X16500000Y29700000D01*
X14350000Y24700000D02*
X14350000Y24750000D01*
X14350000Y24750000D02*
X16509998Y26909998D01*
X16509998Y26909998D02*
X16509998Y28500000D01*
X14350000Y22250000D02*
X14350000Y24700000D01*
X14350000Y24700000D02*
X14350000Y24650000D01*
X25750000Y20000000D02*
X24700000Y20000000D01*
X27250000Y20000000D02*
X26000000Y20000000D01*
X27000000Y20000000D02*
X27250000Y20000000D01*
X27100000Y34900000D02*
X26350000Y34900000D01*
X25750000Y35500000D02*
X22750000Y38500000D01*
X26350000Y34900000D02*
X25750000Y35500000D01*
X22750000Y39750000D02*
X22750000Y39650000D01*
X22750000Y38500000D02*
X22750000Y39750000D01*
D54*
X11750000Y40500000D02*
X11750000Y42450000D01*
D52*
X20750000Y62150000D02*
X18950000Y62150000D01*
X18900000Y61000000D02*
X18900000Y62100000D01*
D49*
X18950000Y61050000D02*
X18900000Y61000000D01*
D52*
X18900000Y61050000D02*
X18950000Y61050000D01*
D49*
X18950000Y62150000D02*
X18900000Y62100000D01*
D52*
X20750000Y61050000D02*
X18900000Y61050000D01*
D54*
X19000000Y39000000D02*
X18750000Y39000000D01*
D52*
X26200000Y52900000D02*
X26200000Y54500000D01*
X26200000Y54500000D02*
X26300000Y54600000D01*
X26300000Y54600000D02*
X26250000Y54750000D01*
X24900000Y58200000D02*
X26100000Y58200000D01*
D49*
X26100000Y58200000D02*
X26250000Y58200000D01*
D52*
X26250000Y54750000D02*
X26250000Y58200000D01*
X26250000Y58200000D02*
X26250000Y59850000D01*
D49*
X26250000Y59850000D02*
X26300000Y59900000D01*
X26300000Y59900000D02*
X26250000Y59957000D01*
D51*
X3200000Y51500000D02*
X3200000Y51550000D01*
X3200000Y51550000D02*
X7650000Y51550000D01*
D54*
X11750000Y42450000D02*
X11700000Y42500000D01*
X11700000Y42500000D02*
X11800000Y42600000D01*
D52*
X20100000Y39300000D02*
X20100000Y40200000D01*
X20100000Y40200000D02*
X20100000Y40200000D01*
X20100000Y40200000D02*
X20100000Y39900000D01*
X22000000Y40400000D02*
X22300000Y40100000D01*
X22300000Y40100000D02*
X22750000Y39650000D01*
X22750000Y39650000D02*
X22600000Y39800000D01*
X20600000Y40400000D02*
X22000000Y40400000D01*
X20150000Y39950000D02*
X20600000Y40400000D01*
X20100000Y39900000D02*
X20150000Y39950000D01*
D49*
X27200000Y34900000D02*
X27100000Y34900000D01*
D54*
X18750000Y39000000D02*
X19700000Y39000000D01*
X19700000Y39000000D02*
X20000000Y39300000D01*
X20000000Y39300000D02*
X20100000Y39300000D01*
D52*
X8800000Y33200000D02*
X7500000Y33200000D01*
D54*
X10250000Y33500000D02*
X9100000Y33500000D01*
X9100000Y33500000D02*
X8800000Y33200000D01*
X11750000Y32000000D02*
X10800000Y32000000D01*
D52*
X10500000Y31700000D02*
X10500000Y31200000D01*
X10800000Y32000000D02*
X10500000Y31700000D01*
D54*
X10500000Y31200000D02*
X10500000Y31100000D01*
D49*
X27000000Y35000000D02*
X27100000Y34900000D01*
X25800000Y21700000D02*
X25750000Y21700000D01*
D51*
X25750000Y20000000D02*
X26000000Y20000000D01*
X26000000Y20000000D02*
X27300000Y20000000D01*
X27300000Y20000000D02*
X27250000Y20000000D01*
D49*
X14000000Y20250000D02*
X14000000Y22000000D01*
X14000000Y22000000D02*
X14250000Y22250000D01*
X14250000Y22250000D02*
X14350000Y22250000D01*
X20750000Y20250000D02*
X20750000Y17750000D01*
X20750000Y17750000D02*
X20750000Y17750000D01*
X14000000Y20250000D02*
X14000000Y19050000D01*
X14000000Y19050000D02*
X14000000Y19000000D01*
X24500000Y18250000D02*
X24500000Y19750000D01*
D50*
X20750000Y17750000D02*
X24000000Y17750000D01*
X24000000Y17750000D02*
X24500000Y18250000D01*
D49*
X24500000Y19750000D02*
X24450000Y20000000D01*
D50*
X25750000Y20000000D02*
X25750000Y21700000D01*
D51*
X25750000Y21700000D02*
X25750000Y21750000D01*
D52*
X25750000Y21750000D02*
X25000000Y21750000D01*
D51*
X24450000Y20000000D02*
X24450000Y21700000D01*
X24450000Y21700000D02*
X24500000Y21750000D01*
D52*
X24500000Y21750000D02*
X24250000Y21750000D01*
D50*
X25100000Y20000000D02*
X25100000Y21650000D01*
D52*
X25000000Y21750000D02*
X24250000Y21750000D01*
D51*
X25100000Y21650000D02*
X25000000Y21750000D01*
D52*
X27250000Y20000000D02*
X27250000Y18250000D01*
D49*
X22250000Y20000000D02*
X20750000Y20000000D01*
X20750000Y20000000D02*
X20750000Y20250000D01*
D50*
X23600000Y51700000D02*
X24200000Y52300000D01*
X24200000Y52300000D02*
X24900000Y53000000D01*
X24900000Y53000000D02*
X26000000Y53000000D01*
X23600000Y46600000D02*
X23600000Y51700000D01*
D54*
X10300000Y33500000D02*
X10250000Y33500000D01*
X11300000Y33500000D02*
X10300000Y33500000D01*
X11900000Y34100000D02*
X11300000Y33500000D01*
X14900000Y34100000D02*
X11900000Y34100000D01*
X15750000Y33250000D02*
X14900000Y34100000D01*
X15750000Y32000000D02*
X15750000Y33250000D01*
X11750000Y33050000D02*
X11300000Y33500000D01*
X11750000Y32000000D02*
X11750000Y33050000D01*
D52*
X18900000Y55700000D02*
X17500000Y54300000D01*
X17500000Y54300000D02*
X17500000Y52900000D01*
X18900000Y59800000D02*
X18900000Y55700000D01*
D50*
X3730000Y41030000D02*
X4900000Y42200000D01*
X3730000Y40500000D02*
X3730000Y41030000D01*
X4900000Y42200000D02*
X4900000Y42300000D01*
X11750000Y42600000D02*
X11800000Y42600000D01*
D52*
X10250000Y41100000D02*
X11750000Y42600000D01*
D50*
X10300000Y41100000D02*
X10250000Y41100000D01*
D52*
X10400000Y41100000D02*
X10300000Y41100000D01*
X6050000Y41100000D02*
X10400000Y41100000D01*
X4900000Y42250000D02*
X6050000Y41100000D01*
D50*
X4900000Y42300000D02*
X4900000Y42250000D01*
D51*
X4650000Y48850000D02*
X4700000Y48900000D01*
X2150000Y51550000D02*
X1900000Y51300000D01*
X1900000Y51300000D02*
X1900000Y49550000D01*
X1900000Y49550000D02*
X2600000Y48850000D01*
X2600000Y48850000D02*
X4650000Y48850000D01*
X3200000Y51550000D02*
X2150000Y51550000D01*
X4600000Y48800000D02*
X4700000Y48900000D01*
X4900000Y48500000D02*
X4600000Y48800000D01*
D52*
X4900000Y42300000D02*
X4900000Y48500000D01*
D51*
X19500000Y40750000D02*
X20150000Y40100000D01*
X20150000Y40100000D02*
X20150000Y39950000D01*
X19500000Y43600000D02*
X19500000Y40750000D01*
D53*
X27350000Y20050000D02*
X27250000Y20000000D01*
X28800000Y34900000D02*
X29400000Y34300000D01*
X29400000Y34300000D02*
X29400000Y20350000D01*
X29400000Y20350000D02*
X29100000Y20050000D01*
X29100000Y20050000D02*
X27350000Y20050000D01*
X27100000Y34900000D02*
X28850000Y34900000D01*
X27900000Y35800000D02*
X25750000Y35800000D01*
X25750000Y35800000D02*
X25750000Y35500000D01*
X28800000Y34900000D02*
X27900000Y35800000D01*
X28850000Y34900000D02*
X28800000Y34900000D01*
D52*
X12350000Y46550000D02*
X10400000Y44600000D01*
X10400000Y44600000D02*
X10400000Y41400000D01*
X10400000Y41400000D02*
X10400000Y41100000D01*
X17500000Y51200000D02*
X16700000Y50400000D01*
X16700000Y50400000D02*
X13600000Y50400000D01*
X13600000Y50400000D02*
X12350000Y49150000D01*
X12350000Y49150000D02*
X12350000Y47050000D01*
X17500000Y52900000D02*
X17500000Y51200000D01*
X12350000Y47050000D02*
X12350000Y46550000D01*
D50*
X19750000Y39400000D02*
X19700000Y39414286D01*
X19700000Y39414286D02*
X20100000Y39300000D01*
X11400000Y38950000D02*
X12050000Y38300000D01*
X12050000Y38300000D02*
X13250000Y38300000D01*
X13250000Y38300000D02*
X14350000Y39400000D01*
X14350000Y39400000D02*
X19500000Y39400000D01*
D49*
X10300000Y41100000D02*
X10300000Y41050000D01*
D50*
X10300000Y40400000D02*
X10300000Y41050000D01*
X11400000Y39300000D02*
X10300000Y40400000D01*
X11400000Y39300000D02*
X11400000Y38950000D01*
X19500000Y39400000D02*
X19400000Y39400000D01*
X19400000Y39400000D02*
X19750000Y39400000D01*
X32300000Y68500000D02*
X33400000Y67400000D01*
X32800000Y64500000D02*
X32750000Y64500000D01*
X33400000Y65100000D02*
X32800000Y64500000D01*
X33400000Y67400000D02*
X33400000Y65100000D01*
D51*
X24900000Y61100000D02*
X24900000Y61250000D01*
X29800000Y50400000D02*
X29800000Y49200000D01*
X29900000Y49100000D02*
X29900000Y49000000D01*
X29800000Y49200000D02*
X29900000Y49100000D01*
D52*
X33750000Y58500000D02*
X32750000Y58500000D01*
D53*
X31250000Y54750000D02*
X32750000Y56250000D01*
X32750000Y56250000D02*
X32750000Y57250000D01*
X32750000Y57250000D02*
X32750000Y58500000D01*
X32750000Y58500000D02*
X32750000Y64500000D01*
X32750000Y64500000D02*
X32750000Y64500000D01*
X31250000Y49000000D02*
X31250000Y54750000D01*
D50*
X27500000Y68500000D02*
X25750000Y66750000D01*
X32250000Y68500000D02*
X32300000Y68500000D01*
X32300000Y68500000D02*
X27500000Y68500000D01*
X25750000Y66750000D02*
X26000000Y66750000D01*
D53*
X27250000Y42250000D02*
X27250000Y44300000D01*
X27250000Y44300000D02*
X27250000Y44400000D01*
X27250000Y46100000D02*
X27250000Y48250000D01*
X27250000Y44400000D02*
X27250000Y46100000D01*
X27250000Y48250000D02*
X27200000Y48300000D01*
X27200000Y48300000D02*
X27250000Y48350000D01*
D50*
X24900000Y61250000D02*
X24900000Y60900000D01*
X26700000Y48300000D02*
X27300000Y48300000D01*
X27300000Y48300000D02*
X27250000Y48350000D01*
D51*
X25000000Y62500000D02*
X25600000Y62500000D01*
X25600000Y62500000D02*
X26000000Y62500000D01*
X25000000Y62500000D02*
X25200000Y62500000D01*
X25400000Y62300000D02*
X25400000Y61700000D01*
X25200000Y62500000D02*
X25400000Y62300000D01*
X25000000Y62500000D02*
X25000000Y62300000D01*
X25000000Y62300000D02*
X25300000Y62000000D01*
X25300000Y62000000D02*
X25300000Y61600000D01*
X25000000Y62500000D02*
X25000000Y61500000D01*
X25000000Y61500000D02*
X24800000Y61300000D01*
X24800000Y61300000D02*
X24900000Y61250000D01*
D53*
X26000000Y66750000D02*
X26000000Y62500000D01*
X26000000Y62500000D02*
X26000000Y62300000D01*
X26000000Y62300000D02*
X25400000Y61700000D01*
X25400000Y61700000D02*
X25300000Y61600000D01*
X25300000Y61600000D02*
X24900000Y61200000D01*
X24900000Y61200000D02*
X24900000Y61250000D01*
X31250000Y49000000D02*
X29900000Y49000000D01*
X29900000Y49000000D02*
X28100000Y49000000D01*
X28100000Y49000000D02*
X27800000Y48700000D01*
X27800000Y48700000D02*
X27250000Y48350000D01*
D49*
X27100000Y48400000D02*
X27250000Y48350000D01*
X26500000Y40000000D02*
X26500000Y40800000D01*
X26500000Y40800000D02*
X27300000Y41600000D01*
X27300000Y41600000D02*
X27300000Y42200000D01*
X27300000Y42200000D02*
X27250000Y42250000D01*
D54*
X27100000Y48450000D02*
X27250000Y48350000D01*
X22000000Y47700000D02*
X22700000Y48400000D01*
X24600000Y48450000D02*
X27100000Y48450000D01*
X22000000Y45200000D02*
X22000000Y47700000D01*
D50*
X34000000Y57300000D02*
X34000000Y57250000D01*
X33750000Y57550000D02*
X34000000Y57300000D01*
X33750000Y58500000D02*
X33750000Y57550000D01*
X34000000Y56000000D02*
X33970000Y56000000D01*
X34000000Y57250000D02*
X34000000Y56000000D01*
D56*
X25750000Y13600000D02*
X27100000Y13600000D01*
X27100000Y13600000D02*
X27500000Y13750000D01*
X26400000Y12400000D02*
X26600000Y12400000D01*
X27600000Y11400000D02*
X28000000Y11400000D01*
X26600000Y12400000D02*
X27600000Y11400000D01*
D51*
X27700000Y12600000D02*
X27500000Y12600000D01*
X27300000Y12800000D02*
X27300000Y13500000D01*
X27500000Y12600000D02*
X27300000Y12800000D01*
X27900000Y12500000D02*
X27900000Y12600000D01*
X27500000Y13000000D02*
X27500000Y13700000D01*
X27900000Y12600000D02*
X27500000Y13000000D01*
X28500000Y12500000D02*
X28300000Y12500000D01*
X28300000Y12500000D02*
X27600000Y13200000D01*
X27600000Y13200000D02*
X27600000Y13400000D01*
X28500000Y12500000D02*
X27600000Y13400000D01*
X27600000Y13400000D02*
X27600000Y13400000D01*
X27600000Y13400000D02*
X27500000Y13750000D01*
X27700000Y12500000D02*
X27700000Y12600000D01*
X27700000Y12600000D02*
X27700000Y12400000D01*
X28400000Y11700000D02*
X28500000Y11700000D01*
X27700000Y12400000D02*
X28400000Y11700000D01*
X27900000Y12500000D02*
X27900000Y12500000D01*
X27900000Y12500000D02*
X28400000Y12000000D01*
X28400000Y12000000D02*
X28500000Y12000000D01*
X28100000Y12500000D02*
X28400000Y12200000D01*
X28400000Y12200000D02*
X28500000Y12200000D01*
X28500000Y12500000D02*
X28500000Y12200000D01*
X28500000Y12200000D02*
X28500000Y12000000D01*
X28500000Y12000000D02*
X28500000Y11700000D01*
X28500000Y11700000D02*
X28500000Y11200000D01*
X28500000Y11200000D02*
X28500000Y10500000D01*
X21750000Y24000000D02*
X21750000Y23850000D01*
X32200000Y22800000D02*
X30800000Y22800000D01*
X27300000Y23600000D02*
X28100000Y22800000D01*
X22000000Y23600000D02*
X27300000Y23600000D01*
X21750000Y23850000D02*
X22000000Y23600000D01*
D54*
X21750000Y24650000D02*
X21750000Y24000000D01*
X21750000Y24000000D02*
X21750000Y24000000D01*
D51*
X27500000Y13750000D02*
X27450000Y13750000D01*
X27450000Y13750000D02*
X26600000Y12900000D01*
X26600000Y12900000D02*
X26400000Y12900000D01*
D53*
X29250000Y40000000D02*
X29600000Y40000000D01*
X29600000Y40000000D02*
X30800000Y38800000D01*
X30800000Y23600000D02*
X30800000Y22800000D01*
X30800000Y38800000D02*
X30800000Y23600000D01*
X26400000Y12600000D02*
X26400000Y12400000D01*
X26400000Y12400000D02*
X26400000Y12900000D01*
X27300000Y13500000D02*
X26400000Y12600000D01*
X27500000Y13700000D02*
X27300000Y13500000D01*
X30800000Y17000000D02*
X27500000Y13700000D01*
X30800000Y22800000D02*
X30800000Y17000000D01*
X26400000Y12900000D02*
X26400000Y12500000D01*
X29550000Y42250000D02*
X29550000Y40250000D01*
X29550000Y40250000D02*
X29300000Y40000000D01*
X29300000Y40000000D02*
X29250000Y40000000D01*
D51*
X28500000Y12500000D02*
X28100000Y12500000D01*
X28100000Y12500000D02*
X27900000Y12500000D01*
X27900000Y12500000D02*
X27700000Y12500000D01*
X27700000Y12500000D02*
X26400000Y12500000D01*
X26400000Y12500000D02*
X26500000Y12500000D01*
D49*
X24450000Y15600000D02*
X24450000Y14050000D01*
X24450000Y14050000D02*
X24500000Y14000000D01*
X24500000Y14000000D02*
X24250000Y14000000D01*
X25750000Y15600000D02*
X25750000Y13750000D01*
X25750000Y13750000D02*
X25750000Y13600000D01*
X25750000Y13600000D02*
X25750000Y13250000D01*
X25100000Y15600000D02*
X25100000Y14350000D01*
X25000000Y14250000D02*
X25000000Y14000000D01*
X25100000Y14350000D02*
X25000000Y14250000D01*
D51*
X24250000Y14000000D02*
X25000000Y14000000D01*
D56*
X28000000Y11000000D02*
X28000000Y11400000D01*
X28000000Y11400000D02*
X28000000Y8250000D01*
X26500000Y12500000D02*
X26500000Y12500000D01*
X26500000Y12500000D02*
X25750000Y13250000D01*
X25750000Y13250000D02*
X25000000Y14000000D01*
X25000000Y14000000D02*
X25000000Y14000000D01*
D51*
X23800000Y15600000D02*
X23800000Y16550000D01*
X24250000Y17000000D02*
X27250000Y17000000D01*
X23800000Y16550000D02*
X24250000Y17000000D01*
X27250000Y17000000D02*
X27250000Y16850000D01*
D54*
X21750000Y26250000D02*
X23000000Y26250000D01*
X21750000Y27500000D02*
X21750000Y26250000D01*
X18750000Y35000000D02*
X20000000Y35000000D01*
X20769998Y28480002D02*
X21750000Y27500000D01*
X20769998Y34230002D02*
X20769998Y28480002D01*
X20000000Y35000000D02*
X20769998Y34230002D01*
X23000000Y26250000D02*
X23750000Y26250000D01*
X23750000Y26250000D02*
X24000000Y26000000D01*
X24000000Y26000000D02*
X24250000Y26000000D01*
D50*
X36600000Y40800000D02*
X36600000Y39700000D01*
D51*
X36600000Y39700000D02*
X36700000Y39600000D01*
X36700000Y39600000D02*
X36570000Y39550000D01*
D50*
X36580000Y44510000D02*
X36580000Y40920000D01*
D51*
X36580000Y40920000D02*
X36600000Y40900000D01*
X36600000Y40900000D02*
X36600000Y40800000D01*
D52*
X36570000Y38550000D02*
X38350000Y38550000D01*
D51*
X38350000Y38550000D02*
X38400000Y38500000D01*
X38400000Y38500000D02*
X38500000Y38500000D01*
D50*
X36900000Y64670000D02*
X36900000Y62000000D01*
D51*
X36900000Y62000000D02*
X36800000Y61900000D01*
X36800000Y61900000D02*
X36760000Y61860000D01*
D50*
X36900000Y66250000D02*
X36900000Y64800000D01*
D51*
X36900000Y64800000D02*
X37000000Y64700000D01*
X37000000Y64700000D02*
X36900000Y64670000D01*
D52*
X39000000Y67250000D02*
X36950000Y67250000D01*
D51*
X36950000Y67250000D02*
X36900000Y67200000D01*
X36900000Y67200000D02*
X36900000Y67250000D01*
D55*
X8900000Y66000000D02*
X7200000Y66000000D01*
X7200000Y66000000D02*
X7250000Y66000000D01*
D50*
X7250000Y67000000D02*
X6000000Y67000000D01*
X6000000Y67000000D02*
X5900000Y66900000D01*
X5900000Y66900000D02*
X5750000Y67000000D01*
X7250000Y65500000D02*
X7250000Y66000000D01*
X7250000Y66000000D02*
X7250000Y66850000D01*
X7250000Y66850000D02*
X7200000Y66900000D01*
X7200000Y66900000D02*
X7250000Y67000000D01*
X4800000Y53500000D02*
X4800000Y53800000D01*
X4800000Y53800000D02*
X8900000Y57900000D01*
X7200000Y63300000D02*
X7200000Y65400000D01*
X8900000Y61600000D02*
X7200000Y63300000D01*
X8900000Y57900000D02*
X8900000Y61600000D01*
X7200000Y65400000D02*
X7250000Y65500000D01*
D51*
X4800000Y53500000D02*
X3700000Y53500000D01*
X3200000Y53000000D02*
X3200000Y52200000D01*
X3700000Y53500000D02*
X3200000Y53000000D01*
D54*
X5000000Y33100000D02*
X5000000Y33200000D01*
X5000000Y35420000D02*
X5000000Y33300000D01*
X5000000Y33300000D02*
X4900000Y33200000D01*
X4900000Y33200000D02*
X5000000Y33200000D01*
X5000000Y33100000D02*
X5000000Y33200000D01*
X10000000Y32700000D02*
X9700000Y32400000D01*
X9700000Y32400000D02*
X5700000Y32400000D01*
X5700000Y32400000D02*
X5000000Y33100000D01*
X14750000Y32000000D02*
X14750000Y32850000D01*
X14300000Y33300000D02*
X12500000Y33300000D01*
X14750000Y32850000D02*
X14300000Y33300000D01*
X13750000Y32000000D02*
X13750000Y31150000D01*
X13100000Y29000000D02*
X7100000Y29000000D01*
X13400000Y29300000D02*
X13100000Y29000000D01*
X13400000Y30800000D02*
X13400000Y29300000D01*
X13750000Y31150000D02*
X13400000Y30800000D01*
X7100000Y29000000D02*
X7200000Y29000000D01*
X3900000Y29000000D02*
X7200000Y29000000D01*
X7200000Y29000000D02*
X7300000Y29100000D01*
X7300000Y29100000D02*
X7200000Y29000000D01*
X7200000Y24120000D02*
X10220000Y24120000D01*
X10220000Y24120000D02*
X10400000Y24300000D01*
X10400000Y24300000D02*
X10500000Y24200000D01*
X3900000Y24200000D02*
X7100000Y24200000D01*
X7100000Y24200000D02*
X7200000Y24100000D01*
X7200000Y24100000D02*
X7200000Y24120000D01*
D51*
X19500000Y45200000D02*
X19500000Y46450000D01*
X20750000Y46400000D02*
X20750000Y46450000D01*
X20750000Y45200000D02*
X20750000Y46400000D01*
X18150000Y46350000D02*
X18250000Y46450000D01*
X18250000Y46250000D02*
X18150000Y46350000D01*
X18250000Y45200000D02*
X18250000Y46250000D01*
X15900000Y46300000D02*
X15800000Y46450000D01*
X15800000Y46200000D02*
X15900000Y46300000D01*
X15800000Y45200000D02*
X15800000Y46200000D01*
X16900000Y46350000D02*
X17000000Y46450000D01*
X17000000Y46250000D02*
X16900000Y46350000D01*
X17000000Y45200000D02*
X17000000Y46250000D01*
X14550000Y46350000D02*
X14500000Y46450000D01*
X14500000Y46300000D02*
X14550000Y46350000D01*
X14500000Y45200000D02*
X14500000Y46300000D01*
D53*
X40000000Y38500000D02*
X40000000Y37300000D01*
X45600000Y35400000D02*
X45600000Y34400000D01*
D56*
X44600000Y36400000D02*
X45600000Y35400000D01*
X40900000Y36400000D02*
X44600000Y36400000D01*
X40000000Y37300000D02*
X40900000Y36400000D01*
D51*
X19500000Y12750000D02*
X19500000Y15000000D01*
X19500000Y15000000D02*
X19480000Y15043000D01*
D49*
X19480000Y15043000D02*
X19480000Y8770000D01*
X19480000Y8770000D02*
X20000000Y8250000D01*
D51*
X18250000Y12750000D02*
X18250000Y15000000D01*
X18250000Y15000000D02*
X18210000Y15043000D01*
D49*
X18210000Y15043000D02*
X18210000Y8460000D01*
X18210000Y8460000D02*
X18000000Y8250000D01*
D54*
X19480000Y20250000D02*
X19480000Y21520000D01*
X19480000Y21520000D02*
X18750000Y22250000D01*
X18750000Y33500000D02*
X18750000Y22250000D01*
X18210000Y20250000D02*
X18210000Y21290000D01*
X18210000Y21290000D02*
X17500000Y22000000D01*
X17500000Y22000000D02*
X17500000Y22250000D01*
X17250000Y32000000D02*
X17250000Y22500000D01*
X17250000Y22500000D02*
X17500000Y22250000D01*
D49*
X12730000Y15043000D02*
X12730000Y13030000D01*
X12730000Y13030000D02*
X7900000Y8200000D01*
X7900000Y8200000D02*
X8000000Y8250000D01*
D51*
X10500000Y12750000D02*
X11500000Y13750000D01*
X11500000Y13750000D02*
X11500000Y15250000D01*
X11500000Y15250000D02*
X11460000Y15043000D01*
D49*
X11460000Y15043000D02*
X11460000Y13760000D01*
X11460000Y13760000D02*
X6000000Y8300000D01*
X6000000Y8300000D02*
X6000000Y8250000D01*
D54*
X12730000Y20250000D02*
X12730000Y22230000D01*
X12730000Y22230000D02*
X12750000Y22250000D01*
D51*
X7000000Y20500000D02*
X6800000Y20700000D01*
X3400000Y20700000D02*
X3400000Y20700000D01*
X6800000Y20700000D02*
X3400000Y20700000D01*
X9400000Y18100000D02*
X7400000Y20100000D01*
X11800000Y18100000D02*
X9400000Y18100000D01*
X12730000Y19030000D02*
X11800000Y18100000D01*
X12730000Y20250000D02*
X12730000Y19030000D01*
X7400000Y20100000D02*
X7000000Y20500000D01*
X21500000Y51800000D02*
X21600000Y51900000D01*
X22700000Y53000000D02*
X21500000Y51800000D01*
X22700000Y55400000D02*
X22700000Y53000000D01*
X21450000Y56650000D02*
X22700000Y55400000D01*
X20750000Y56650000D02*
X21450000Y56650000D01*
X21050000Y51350000D02*
X21100000Y51400000D01*
X21500000Y51800000D02*
X21050000Y51350000D01*
X11550000Y48850000D02*
X8400000Y45700000D01*
X13550000Y51450000D02*
X11550000Y49450000D01*
X11550000Y49450000D02*
X11550000Y48850000D01*
X19250000Y51350000D02*
X21050000Y51350000D01*
X18700000Y50800000D02*
X18450000Y50800000D01*
X19250000Y51350000D02*
X18700000Y50800000D01*
X15450000Y51450000D02*
X13550000Y51450000D01*
X8400000Y45700000D02*
X8400000Y45700000D01*
X2100000Y43400000D02*
X2100000Y44300000D01*
X3400000Y20700000D02*
X2100000Y22000000D01*
X2100000Y43400000D02*
X2100000Y31600000D01*
X2100000Y31600000D02*
X2100000Y22000000D01*
X3500000Y45700000D02*
X3800000Y45700000D01*
X2100000Y44300000D02*
X3500000Y45700000D01*
D54*
X11460000Y20250000D02*
X11460000Y21960000D01*
X11460000Y21960000D02*
X11500000Y22000000D01*
X11500000Y22000000D02*
X11500000Y22250000D01*
D51*
X21750000Y55550000D02*
X22100000Y55200000D01*
X22100000Y55200000D02*
X22100000Y53200000D01*
X20900000Y52000000D02*
X20900000Y52000000D01*
X20850000Y51950000D02*
X20900000Y52000000D01*
X22100000Y53200000D02*
X20850000Y51950000D01*
X20750000Y55550000D02*
X21750000Y55550000D01*
X2700000Y44050000D02*
X2700000Y44000000D01*
X2700000Y31750000D02*
X2700000Y44050000D01*
X2700000Y31800000D02*
X2700000Y31750000D01*
X2700000Y22300000D02*
X3700000Y21300000D01*
X8100000Y20400000D02*
X7400000Y21100000D01*
X11460000Y18960000D02*
X11200000Y18700000D01*
X11200000Y18700000D02*
X9800000Y18700000D01*
X9800000Y18700000D02*
X8100000Y20400000D01*
X11460000Y18960000D02*
X11460000Y20250000D01*
X7200000Y21300000D02*
X3700000Y21300000D01*
X7400000Y21100000D02*
X7200000Y21300000D01*
X2700000Y31750000D02*
X2700000Y22300000D01*
X10900000Y49700000D02*
X11000000Y49800000D01*
X18600000Y51950000D02*
X18550000Y51900000D01*
X18550000Y51900000D02*
X18550000Y51850000D01*
X20850000Y51950000D02*
X18600000Y51950000D01*
X13450000Y52250000D02*
X10900000Y49700000D01*
X13650000Y52250000D02*
X13450000Y52250000D01*
X16050000Y52250000D02*
X13650000Y52250000D01*
X16450000Y51850000D02*
X16050000Y52250000D01*
X10900000Y49300000D02*
X10900000Y49700000D01*
X2700000Y44100000D02*
X3200000Y44600000D01*
X3200000Y44600000D02*
X3800000Y44600000D01*
X2700000Y44050000D02*
X2700000Y44100000D01*
X7550000Y44600000D02*
X7600000Y44600000D01*
X7550000Y45950000D02*
X7550000Y44600000D01*
X10900000Y49300000D02*
X7550000Y45950000D01*
D50*
X27500000Y62250000D02*
X27500000Y66200000D01*
X27500000Y66200000D02*
X28000000Y66700000D01*
X28000000Y66700000D02*
X28000000Y66750000D01*
X27520000Y59957000D02*
X27520000Y62180000D01*
X27520000Y62180000D02*
X27500000Y62200000D01*
X27500000Y62200000D02*
X27500000Y62250000D01*
X29000000Y62250000D02*
X29000000Y65500000D01*
X29000000Y65500000D02*
X30200000Y66700000D01*
X30200000Y66700000D02*
X30000000Y66750000D01*
X28790000Y59957000D02*
X28790000Y62090000D01*
X28790000Y62090000D02*
X29000000Y62300000D01*
X29000000Y62300000D02*
X29000000Y62250000D01*
D51*
X27520000Y54750000D02*
X27520000Y52270000D01*
X27520000Y52270000D02*
X27500000Y52250000D01*
D54*
X14250000Y41450000D02*
X13250000Y42450000D01*
X13250000Y45450000D02*
X13250000Y45400000D01*
X13250000Y42450000D02*
X13250000Y45450000D01*
X14250000Y40500000D02*
X14250000Y41450000D01*
X13950000Y49650000D02*
X13900000Y49600000D01*
X13250000Y48950000D02*
X13950000Y49650000D01*
X13250000Y45450000D02*
X13250000Y48950000D01*
X21700000Y49650000D02*
X22650000Y50600000D01*
X22650000Y50600000D02*
X22700000Y50550000D01*
X27500000Y51350000D02*
X27500000Y52250000D01*
X26700000Y50550000D02*
X24500000Y50550000D01*
X27500000Y51350000D02*
X26700000Y50550000D01*
X13950000Y49650000D02*
X21700000Y49650000D01*
D51*
X28790000Y54750000D02*
X28790000Y52460000D01*
X28790000Y52460000D02*
X29000000Y52250000D01*
X29000000Y52250000D02*
X29000000Y52200000D01*
D54*
X14750000Y41750000D02*
X13730002Y42769998D01*
X13730002Y45450000D02*
X13730002Y45400000D01*
X13730002Y42769998D02*
X13730002Y45450000D01*
X14750000Y40500000D02*
X14750000Y41750000D01*
X14100000Y49050000D02*
X14100000Y49050000D01*
X13730002Y48680002D02*
X14100000Y49050000D01*
X13730002Y45450000D02*
X13730002Y48680002D01*
X22200000Y49050000D02*
X22650000Y49500000D01*
X22650000Y49500000D02*
X22700000Y49500000D01*
X29000000Y51600000D02*
X27450000Y50050000D01*
X27450000Y50050000D02*
X25100000Y50050000D01*
X25100000Y50050000D02*
X24550000Y49500000D01*
X29000000Y51600000D02*
X29000000Y52250000D01*
X14100000Y49050000D02*
X22200000Y49050000D01*
D52*
X36580000Y48890000D02*
X36580000Y50980000D01*
D51*
X36580000Y50980000D02*
X36700000Y51100000D01*
X36700000Y51100000D02*
X36750000Y51000000D01*
D52*
X35250000Y56000000D02*
X36700000Y56000000D01*
D51*
X36700000Y56000000D02*
X36760000Y56000000D01*
D52*
X36760000Y61040000D02*
X36760000Y56000000D01*
X36760000Y56000000D02*
X36760000Y54340000D01*
D51*
X36760000Y54340000D02*
X36900000Y54200000D01*
X36900000Y54200000D02*
X36750000Y54000000D01*
D54*
X14250000Y32000000D02*
X14250000Y30850000D01*
X12800000Y25900000D02*
X10500000Y25900000D01*
X13919998Y27019998D02*
X12800000Y25900000D01*
X13919998Y30519998D02*
X13919998Y27019998D01*
X14250000Y30850000D02*
X13919998Y30519998D01*
X10500000Y25900000D02*
X10500000Y25800000D01*
X10600000Y25900000D02*
X10500000Y25800000D01*
X18200000Y43400000D02*
X18250000Y43600000D01*
X17250000Y42450000D02*
X18200000Y43400000D01*
X17250000Y40500000D02*
X17250000Y42450000D01*
X17150000Y43400000D02*
X17000000Y43600000D01*
X16750000Y43000000D02*
X17150000Y43400000D01*
X16750000Y40500000D02*
X16750000Y43000000D01*
X15800000Y43400000D02*
X15800000Y43600000D01*
X16250000Y42950000D02*
X15800000Y43400000D01*
X16250000Y40500000D02*
X16250000Y42950000D01*
X14550000Y43500000D02*
X14500000Y43600000D01*
X15750000Y42300000D02*
X14550000Y43500000D01*
X15750000Y40500000D02*
X15750000Y42300000D01*
X18750000Y37000000D02*
X20000000Y37000000D01*
X23000000Y29000000D02*
X24750000Y29000000D01*
X21750000Y30250000D02*
X23000000Y29000000D01*
X21750000Y35250000D02*
X21750000Y30250000D01*
X20000000Y37000000D02*
X21750000Y35250000D01*
X24750000Y29000000D02*
X25000000Y29000000D01*
X27100000Y28900000D02*
X25350000Y28900000D01*
X25350000Y28900000D02*
X25250000Y29000000D01*
X25250000Y29000000D02*
X25000000Y29000000D01*
X18750000Y36500000D02*
X19750000Y36500000D01*
X24000000Y27000000D02*
X25000000Y27000000D01*
X21250000Y29750000D02*
X24000000Y27000000D01*
X21250000Y35000000D02*
X21250000Y29750000D01*
X19750000Y36500000D02*
X21250000Y35000000D01*
X27100000Y26900000D02*
X25100000Y26900000D01*
X25100000Y26900000D02*
X25000000Y27000000D01*
X38600000Y14100000D02*
X32200000Y20500000D01*
X39200000Y14100000D02*
X38600000Y14100000D01*
D51*
X39200000Y14100000D02*
X39900000Y14100000D01*
D54*
X19750000Y24150000D02*
X21400000Y22500000D01*
X21400000Y22500000D02*
X24690002Y22500000D01*
X24690002Y22500000D02*
X25200000Y22500000D01*
X25200000Y22500000D02*
X26500000Y22500000D01*
X26500000Y22500000D02*
X27100000Y21900000D01*
X27100000Y21900000D02*
X27100000Y21200000D01*
X19750000Y24150000D02*
X19750000Y24300000D01*
D51*
X39900000Y14100000D02*
X40000000Y14100000D01*
X40000000Y14200000D02*
X40000000Y14100000D01*
X40000000Y14100000D02*
X39800000Y14100000D01*
X41250000Y14100000D02*
X40150000Y14100000D01*
X40150000Y14100000D02*
X40000000Y14250000D01*
X40000000Y14250000D02*
X40000000Y14100000D01*
D54*
X18750000Y34000000D02*
X19500000Y34000000D01*
X19500000Y34000000D02*
X19750000Y33750000D01*
X19750000Y33750000D02*
X19750000Y24300000D01*
X19750000Y24300000D02*
X19750000Y24250000D01*
D51*
X39300000Y14100000D02*
X39200000Y14100000D01*
X41700000Y15100000D02*
X43100000Y13700000D01*
D54*
X20230002Y24500000D02*
X20230002Y24469998D01*
X20230002Y24469998D02*
X21700000Y23000000D01*
X28000000Y21700000D02*
X28100000Y21700000D01*
X26700000Y23000000D02*
X28000000Y21700000D01*
X21700000Y23000000D02*
X26700000Y23000000D01*
X32800000Y21700000D02*
X32200000Y21700000D01*
D51*
X39400000Y15100000D02*
X38400000Y16100000D01*
X41700000Y15100000D02*
X39400000Y15100000D01*
D54*
X38400000Y16100000D02*
X32800000Y21700000D01*
D51*
X46000000Y13100000D02*
X46000000Y12800000D01*
X45600000Y13500000D02*
X46000000Y13100000D01*
X43300000Y13500000D02*
X45600000Y13500000D01*
X43100000Y13700000D02*
X43300000Y13500000D01*
X46000000Y8250000D02*
X46000000Y12700000D01*
X46000000Y12700000D02*
X45900000Y12800000D01*
X45900000Y12800000D02*
X46000000Y12800000D01*
D54*
X20230002Y33948824D02*
X20230002Y24500000D01*
X20230002Y24500000D02*
X20230002Y24519998D01*
X19678826Y34500000D02*
X20230002Y33948824D01*
X18750000Y34500000D02*
X19678826Y34500000D01*
X5000000Y39250000D02*
X5000000Y39230000D01*
X5319998Y39569998D02*
X5000000Y39250000D01*
X9300000Y39000000D02*
X8730002Y39569998D01*
X8730002Y39569998D02*
X5319998Y39569998D01*
X10250000Y39000000D02*
X9300000Y39000000D01*
X5000000Y37950000D02*
X5000000Y37960000D01*
X9500000Y38000000D02*
X8500000Y39000000D01*
X8500000Y39000000D02*
X6050000Y39000000D01*
X6050000Y39000000D02*
X5000000Y37950000D01*
X10250000Y38000000D02*
X9500000Y38000000D01*
D49*
X20750000Y63350000D02*
X20800000Y63300000D01*
X20800000Y63300000D02*
X20750000Y63250000D01*
D51*
X20750000Y65000000D02*
X20750000Y65250000D01*
D49*
X20750000Y65000000D02*
X20750000Y63350000D01*
D51*
X10150000Y49350000D02*
X6800002Y46000002D01*
X6800002Y46000002D02*
X6800002Y43999998D01*
X6800002Y43999998D02*
X7850000Y42950000D01*
X7850000Y42950000D02*
X7850000Y42150000D01*
X7850000Y42150000D02*
X7900000Y42150000D01*
D54*
X8050000Y37000000D02*
X10250000Y37000000D01*
X8050000Y37000000D02*
X7200000Y37850000D01*
D51*
X10150000Y49850000D02*
X10150000Y49800000D01*
X13200000Y52900000D02*
X10150000Y49850000D01*
X14900000Y52900000D02*
X13200000Y52900000D01*
X16550000Y54550000D02*
X14900000Y52900000D01*
X20750000Y63250000D02*
X18550000Y63250000D01*
X18100000Y56100000D02*
X16550000Y54550000D01*
X18100000Y62800000D02*
X18100000Y56100000D01*
X18550000Y63250000D02*
X18100000Y62800000D01*
X10150000Y49800000D02*
X10150000Y49350000D01*
X11250000Y55550000D02*
X10050000Y55550000D01*
X10050000Y55550000D02*
X9750000Y55250000D01*
X9750000Y55250000D02*
X9500000Y55250000D01*
X9500000Y49492890D02*
X6300000Y46292890D01*
X6300000Y46292890D02*
X6300000Y43650000D01*
X6300000Y43650000D02*
X6850000Y43100000D01*
X6850000Y43100000D02*
X6850000Y42150000D01*
D54*
X7150000Y36500000D02*
X10250000Y36500000D01*
X7150000Y36500000D02*
X6750000Y36900000D01*
D51*
X9500000Y55250000D02*
X9500000Y50250000D01*
X9500000Y50250000D02*
X9500000Y49492890D01*
X11250000Y56650000D02*
X9900000Y56650000D01*
X9900000Y56650000D02*
X9750000Y56500000D01*
X9750000Y56500000D02*
X9500000Y56500000D01*
X9450000Y56500000D02*
X9500000Y56500000D01*
D54*
X5900000Y42750000D02*
X5900000Y42750000D01*
X6200000Y36000000D02*
X6150000Y36050000D01*
X6200000Y36000000D02*
X10250000Y36000000D01*
X5950000Y42700000D02*
X5900000Y42750000D01*
D51*
X8650000Y54850000D02*
X8750000Y54750000D01*
X8750000Y54750000D02*
X8750000Y49450000D01*
X8750000Y49450000D02*
X5750000Y46450000D01*
X5750000Y46450000D02*
X5750000Y42850000D01*
X5750000Y42850000D02*
X5900000Y42700000D01*
X5900000Y42700000D02*
X5900000Y42750000D01*
X9450000Y56500000D02*
X8600000Y55650000D01*
X8600000Y54850000D02*
X8600000Y55650000D01*
X8600000Y54850000D02*
X8650000Y54850000D01*
D54*
X18750000Y37500000D02*
X20250000Y37500000D01*
X20250000Y37500000D02*
X24750000Y33000000D01*
X24750000Y33000000D02*
X25000000Y33000000D01*
X27100000Y32900000D02*
X25100000Y32900000D01*
X25100000Y32900000D02*
X25000000Y33000000D01*
D51*
X20500000Y38000000D02*
X20600000Y38000000D01*
D54*
X18750000Y38000000D02*
X20500000Y38000000D01*
D51*
X24200000Y34400000D02*
X25000000Y34400000D01*
X20600000Y38000000D02*
X24200000Y34400000D01*
D54*
X27100000Y30900000D02*
X25100000Y30900000D01*
X25100000Y30900000D02*
X25000000Y31000000D01*
X9450000Y40050000D02*
X7150000Y40050000D01*
X6050000Y40050000D02*
X6100000Y40050000D01*
X7150000Y40050000D02*
X6050000Y40050000D01*
X12750000Y40500000D02*
X12750000Y39250000D01*
X5050000Y40500000D02*
X5000000Y40500000D01*
X5500000Y40050000D02*
X5050000Y40500000D01*
X6050000Y40050000D02*
X5500000Y40050000D01*
D52*
X36580000Y47790000D02*
X36580000Y45720000D01*
D51*
X36580000Y45720000D02*
X36600000Y45700000D01*
X36600000Y45700000D02*
X36580000Y45790000D01*
D55*
X8900000Y67250000D02*
X8550000Y67250000D01*
X8550000Y67250000D02*
X7300000Y68500000D01*
X7300000Y68500000D02*
X7300000Y68600000D01*
X7300000Y68600000D02*
X7250000Y68600000D01*
D51*
X21950000Y43600000D02*
X22000000Y43600000D01*
X20750000Y43600000D02*
X21950000Y43600000D01*
D50*
X9000000Y72250000D02*
X9000000Y68650000D01*
D51*
X9000000Y68650000D02*
X8950000Y68600000D01*
X8950000Y68600000D02*
X8900000Y68500000D01*
D55*
X8900000Y68500000D02*
X8900000Y71800000D01*
X8900000Y71800000D02*
X9000000Y71900000D01*
X9000000Y71900000D02*
X9000000Y72250000D01*
D54*
X9900000Y66000000D02*
X9900000Y65300000D01*
D50*
X9600000Y62900000D02*
X10400000Y62100000D01*
X9600000Y65000000D02*
X9600000Y62900000D01*
X9900000Y65300000D02*
X9600000Y65000000D01*
X10400000Y62100000D02*
X11300000Y62100000D01*
D54*
X11300000Y62100000D02*
X11250000Y62150000D01*
D55*
X11200000Y62100000D02*
X11250000Y62150000D01*
D50*
X42950000Y66350000D02*
X42650000Y66350000D01*
X42500000Y66500000D02*
X42000000Y66500000D01*
X42650000Y66350000D02*
X42500000Y66500000D01*
X42950000Y66500000D02*
X42950000Y66350000D01*
X42950000Y66350000D02*
X42950000Y64650000D01*
X42000000Y67250000D02*
X42200000Y67250000D01*
X42200000Y67250000D02*
X42950000Y66500000D01*
X42950000Y64650000D02*
X42200000Y64650000D01*
D57*
X40400000Y58000000D02*
X40400000Y57300000D01*
X42100000Y56300000D02*
X40400000Y58000000D01*
X42100000Y55600000D02*
X42100000Y56300000D01*
X40400000Y57300000D02*
X40400000Y57300000D01*
X41600000Y56100000D02*
X42100000Y55600000D01*
X42200000Y64400000D02*
X42200000Y64650000D01*
X42200000Y64650000D02*
X42200000Y65400000D01*
X40400000Y62600000D02*
X42200000Y64400000D01*
X40400000Y57300000D02*
X40400000Y62600000D01*
D53*
X42000000Y67250000D02*
X42000000Y66500000D01*
X42000000Y66500000D02*
X42000000Y65400000D01*
X42000000Y65400000D02*
X42200000Y65400000D01*
D57*
X42200000Y65400000D02*
X42200000Y65500000D01*
D53*
X41500000Y38500000D02*
X41500000Y40400000D01*
X41500000Y40400000D02*
X41600000Y40400000D01*
D57*
X41600000Y55800000D02*
X41600000Y56100000D01*
D58*
X41600000Y56100000D02*
X41600000Y40400000D01*
D57*
X41600000Y40400000D02*
X41600000Y40500000D01*
D53*
X42000000Y67300000D02*
X42000000Y67250000D01*
D51*
X40500000Y67250000D02*
X40500000Y67475000D01*
X40500000Y67475000D02*
X42750000Y69725000D01*
X42750000Y69725000D02*
X41750000Y72250000D01*
X40500000Y67250000D02*
X40500000Y67600000D01*
X40500000Y67600000D02*
X42600000Y69700000D01*
X41750000Y69500000D02*
X41775000Y69500000D01*
X41775000Y69500000D02*
X42150000Y69875000D01*
X42150000Y69875000D02*
X41750000Y72250000D01*
X41750000Y69350000D02*
X41800000Y69350000D01*
X41800000Y69350000D02*
X42225000Y69775000D01*
X42225000Y69775000D02*
X41750000Y72250000D01*
X40500000Y68025000D02*
X40725000Y68025000D01*
X40725000Y68025000D02*
X42375000Y69675000D01*
X41750000Y72250000D02*
X41750000Y69500000D01*
X41750000Y69500000D02*
X41750000Y69350000D01*
X41750000Y69350000D02*
X41750000Y69375000D01*
X40675000Y68300000D02*
X40500000Y68300000D01*
X41750000Y69375000D02*
X40675000Y68300000D01*
X41750000Y72250000D02*
X41750000Y69650000D01*
X40725000Y68625000D02*
X40500000Y68625000D01*
X41750000Y69650000D02*
X40725000Y68625000D01*
X41750000Y72250000D02*
X41750000Y70000000D01*
X41750000Y70000000D02*
X40700000Y68950000D01*
X40700000Y68950000D02*
X40500000Y68950000D01*
X41750000Y72250000D02*
X41750000Y70325000D01*
X41750000Y70325000D02*
X40675000Y69250000D01*
X40675000Y69250000D02*
X40500000Y69250000D01*
D50*
X40500000Y68700000D02*
X40500000Y68625000D01*
X40500000Y68625000D02*
X40500000Y68950000D01*
X40500000Y68950000D02*
X40500000Y69250000D01*
X40500000Y69250000D02*
X40500000Y69600000D01*
X40500000Y69600000D02*
X41700000Y70800000D01*
D51*
X41700000Y70800000D02*
X41750000Y72250000D01*
D50*
X40500000Y67250000D02*
X40500000Y68025000D01*
X40500000Y68025000D02*
X40500000Y68300000D01*
X40500000Y68300000D02*
X40500000Y68600000D01*
D51*
X40500000Y68600000D02*
X40500000Y68700000D01*
D56*
X30000000Y8250000D02*
X36000000Y8250000D01*
D51*
X44000000Y8250000D02*
X44000000Y10600000D01*
X42500000Y12100000D02*
X42500000Y12700000D01*
X44000000Y10600000D02*
X42500000Y12100000D01*
X42500000Y12700000D02*
X42600000Y12800000D01*
X41250000Y12500000D02*
X42300000Y12500000D01*
X42300000Y12500000D02*
X42600000Y12800000D01*
X41300000Y12600000D02*
X41200000Y12500000D01*
X41200000Y12500000D02*
X41250000Y12500000D01*
X44000000Y8300000D02*
X44000000Y8250000D01*
X41250000Y12500000D02*
X40200000Y12500000D01*
X40200000Y12500000D02*
X40100000Y12400000D01*
X40100000Y12400000D02*
X40000000Y12500000D01*
X41400000Y12500000D02*
X41250000Y12500000D01*
D50*
G36*
X3450000Y50050000D02*
X2950000Y50050000D01*
X2950000Y50137500D01*
X2950000Y50150000D01*
X2950000Y50350000D01*
X2950000Y50450000D01*
X3450000Y50450000D01*
X3450000Y50350000D01*
X3450000Y50150000D01*
X3450000Y50137500D01*
X3450000Y50050000D01*
X3450000Y50050000D01*
G37*
X3450000Y50050000D02*
X2950000Y50050000D01*
X2950000Y50137500D01*
X2950000Y50150000D01*
X2950000Y50350000D01*
X2950000Y50450000D01*
X3450000Y50450000D01*
X3450000Y50350000D01*
X3450000Y50150000D01*
X3450000Y50137500D01*
X3450000Y50050000D01*
G36*
X6389340Y50150000D02*
X6337500Y50150000D01*
X6150000Y49962500D01*
X6150000Y49900815D01*
X6264181Y49625159D01*
X6275000Y49614340D01*
X6275000Y49100000D01*
X6370000Y49100000D01*
X6370000Y48700000D01*
X6275000Y48700000D01*
X6275000Y48630000D01*
X6024141Y48630000D01*
X5962461Y48940086D01*
X5855610Y49100000D01*
X5925000Y49100000D01*
X5925000Y49862500D01*
X5737500Y50050000D01*
X5600816Y50050000D01*
X5400000Y49966820D01*
X5199185Y50050000D01*
X4900816Y50050000D01*
X4650000Y50050000D01*
X4562500Y50050000D01*
X4462500Y50150000D01*
X4410660Y50150000D01*
X4535819Y50275159D01*
X4640584Y50528085D01*
X4650000Y50537500D01*
X4650000Y50550815D01*
X4650000Y50599185D01*
X4650000Y50612500D01*
X4640584Y50621916D01*
X4628951Y50649998D01*
X4650000Y50649998D01*
X4650000Y50650000D01*
X6150000Y50650000D01*
X6150000Y50649998D01*
X6171047Y50649998D01*
X6159415Y50621916D01*
X6150000Y50612500D01*
X6150000Y50599185D01*
X6150000Y50550815D01*
X6150000Y50537500D01*
X6159415Y50528085D01*
X6264181Y50275159D01*
X6389340Y50150000D01*
X6389340Y50150000D01*
G37*
X6389340Y50150000D02*
X6337500Y50150000D01*
X6150000Y49962500D01*
X6150000Y49900815D01*
X6264181Y49625159D01*
X6275000Y49614340D01*
X6275000Y49100000D01*
X6370000Y49100000D01*
X6370000Y48700000D01*
X6275000Y48700000D01*
X6275000Y48630000D01*
X6024141Y48630000D01*
X5962461Y48940086D01*
X5855610Y49100000D01*
X5925000Y49100000D01*
X5925000Y49862500D01*
X5737500Y50050000D01*
X5600816Y50050000D01*
X5400000Y49966820D01*
X5199185Y50050000D01*
X4900816Y50050000D01*
X4650000Y50050000D01*
X4562500Y50050000D01*
X4462500Y50150000D01*
X4410660Y50150000D01*
X4535819Y50275159D01*
X4640584Y50528085D01*
X4650000Y50537500D01*
X4650000Y50550815D01*
X4650000Y50599185D01*
X4650000Y50612500D01*
X4640584Y50621916D01*
X4628951Y50649998D01*
X4650000Y50649998D01*
X4650000Y50650000D01*
X6150000Y50650000D01*
X6150000Y50649998D01*
X6171047Y50649998D01*
X6159415Y50621916D01*
X6150000Y50612500D01*
X6150000Y50599185D01*
X6150000Y50550815D01*
X6150000Y50537500D01*
X6159415Y50528085D01*
X6264181Y50275159D01*
X6389340Y50150000D01*
G36*
X7850000Y52500000D02*
X7350000Y52500000D01*
X7350000Y52962500D01*
X7300000Y53012500D01*
X7300000Y53112500D01*
X7112500Y53300000D01*
X6375000Y53300000D01*
X6375000Y53230000D01*
X6025000Y53230000D01*
X6025000Y53300000D01*
X5930000Y53300000D01*
X5930000Y53515786D01*
X6184214Y53770000D01*
X6375000Y53770000D01*
X6375000Y53700000D01*
X7112500Y53700000D01*
X7300000Y53887500D01*
X7300000Y54049185D01*
X7185819Y54324841D01*
X6974841Y54535819D01*
X6957299Y54543086D01*
X7700000Y55285786D01*
X7700000Y54850000D01*
X7768508Y54505585D01*
X7850000Y54383624D01*
X7850000Y52962500D01*
X7850000Y52500000D01*
X7850000Y52500000D01*
G37*
X7850000Y52500000D02*
X7350000Y52500000D01*
X7350000Y52962500D01*
X7300000Y53012500D01*
X7300000Y53112500D01*
X7112500Y53300000D01*
X6375000Y53300000D01*
X6375000Y53230000D01*
X6025000Y53230000D01*
X6025000Y53300000D01*
X5930000Y53300000D01*
X5930000Y53515786D01*
X6184214Y53770000D01*
X6375000Y53770000D01*
X6375000Y53700000D01*
X7112500Y53700000D01*
X7300000Y53887500D01*
X7300000Y54049185D01*
X7185819Y54324841D01*
X6974841Y54535819D01*
X6957299Y54543086D01*
X7700000Y55285786D01*
X7700000Y54850000D01*
X7768508Y54505585D01*
X7850000Y54383624D01*
X7850000Y52962500D01*
X7850000Y52500000D01*
G36*
X7850000Y50050000D02*
X7350000Y50050000D01*
X7350000Y50137500D01*
X7350000Y50150000D01*
X7350000Y50350000D01*
X7350000Y50450000D01*
X7850000Y50450000D01*
X7850000Y50350000D01*
X7850000Y50150000D01*
X7850000Y50137500D01*
X7850000Y50050000D01*
X7850000Y50050000D01*
G37*
X7850000Y50050000D02*
X7350000Y50050000D01*
X7350000Y50137500D01*
X7350000Y50150000D01*
X7350000Y50350000D01*
X7350000Y50450000D01*
X7850000Y50450000D01*
X7850000Y50350000D01*
X7850000Y50150000D01*
X7850000Y50137500D01*
X7850000Y50050000D01*
G36*
X7900000Y58314214D02*
X7400416Y57814631D01*
X7400416Y60475295D01*
X7035808Y61357715D01*
X6361266Y62033435D01*
X5675000Y62318398D01*
X5675000Y64537500D01*
X5675000Y65300000D01*
X4937500Y65300000D01*
X4750000Y65112500D01*
X4750000Y64950815D01*
X4864181Y64675159D01*
X5075159Y64464181D01*
X5350816Y64350000D01*
X5487500Y64350000D01*
X5675000Y64537500D01*
X5675000Y62318398D01*
X5479484Y62399583D01*
X4524705Y62400416D01*
X3642285Y62035808D01*
X2966565Y61361266D01*
X2600417Y60479484D01*
X2599584Y59524705D01*
X2964192Y58642285D01*
X3638734Y57966565D01*
X4520516Y57600417D01*
X5475295Y57599584D01*
X6357715Y57964192D01*
X7033435Y58638734D01*
X7399583Y59520516D01*
X7400416Y60475295D01*
X7400416Y57814631D01*
X4189802Y54604017D01*
X4025159Y54535819D01*
X3889340Y54400000D01*
X3700000Y54400000D01*
X3355585Y54331492D01*
X3063604Y54136396D01*
X2563604Y53636396D01*
X2368508Y53344415D01*
X2327952Y53140530D01*
X2075159Y53035819D01*
X1864181Y52824841D01*
X1750000Y52549185D01*
X1750000Y52344352D01*
X1513604Y52186396D01*
X1263604Y51936396D01*
X1250000Y51916037D01*
X1250000Y72896447D01*
X2103553Y73750000D01*
X2500000Y73750000D01*
X2500000Y72687500D01*
X2687500Y72500000D01*
X5325000Y72500000D01*
X5325000Y72520000D01*
X5825000Y72520000D01*
X5825000Y72500000D01*
X5845000Y72500000D01*
X5845000Y72000000D01*
X5825000Y72000000D01*
X5825000Y69187500D01*
X6012500Y69000000D01*
X6100000Y69000000D01*
X6100000Y68850816D01*
X6100000Y68208148D01*
X5999731Y68249783D01*
X5502450Y68250217D01*
X5325000Y68176896D01*
X5325000Y69187500D01*
X5325000Y72000000D01*
X2687500Y72000000D01*
X2500000Y71812500D01*
X2500000Y69899184D01*
X2500000Y69600815D01*
X2614181Y69325159D01*
X2825159Y69114181D01*
X3100816Y69000000D01*
X5137500Y69000000D01*
X5325000Y69187500D01*
X5325000Y68176896D01*
X5042857Y68060316D01*
X4690919Y67708993D01*
X4500217Y67249731D01*
X4499783Y66752450D01*
X4689684Y66292857D01*
X4803645Y66178697D01*
X4750000Y66049185D01*
X4750000Y65887500D01*
X4937500Y65700000D01*
X5675000Y65700000D01*
X5675000Y65750065D01*
X5997550Y65749783D01*
X6025000Y65761126D01*
X6025000Y65700000D01*
X6120000Y65700000D01*
X6120000Y65300000D01*
X6025000Y65300000D01*
X6025000Y64537500D01*
X6200000Y64362500D01*
X6200000Y63300000D01*
X6276120Y62917316D01*
X6492893Y62592893D01*
X7900000Y61185786D01*
X7900000Y58314214D01*
X7900000Y58314214D01*
G37*
X7900000Y58314214D02*
X7400416Y57814631D01*
X7400416Y60475295D01*
X7035808Y61357715D01*
X6361266Y62033435D01*
X5675000Y62318398D01*
X5675000Y64537500D01*
X5675000Y65300000D01*
X4937500Y65300000D01*
X4750000Y65112500D01*
X4750000Y64950815D01*
X4864181Y64675159D01*
X5075159Y64464181D01*
X5350816Y64350000D01*
X5487500Y64350000D01*
X5675000Y64537500D01*
X5675000Y62318398D01*
X5479484Y62399583D01*
X4524705Y62400416D01*
X3642285Y62035808D01*
X2966565Y61361266D01*
X2600417Y60479484D01*
X2599584Y59524705D01*
X2964192Y58642285D01*
X3638734Y57966565D01*
X4520516Y57600417D01*
X5475295Y57599584D01*
X6357715Y57964192D01*
X7033435Y58638734D01*
X7399583Y59520516D01*
X7400416Y60475295D01*
X7400416Y57814631D01*
X4189802Y54604017D01*
X4025159Y54535819D01*
X3889340Y54400000D01*
X3700000Y54400000D01*
X3355585Y54331492D01*
X3063604Y54136396D01*
X2563604Y53636396D01*
X2368508Y53344415D01*
X2327952Y53140530D01*
X2075159Y53035819D01*
X1864181Y52824841D01*
X1750000Y52549185D01*
X1750000Y52344352D01*
X1513604Y52186396D01*
X1263604Y51936396D01*
X1250000Y51916037D01*
X1250000Y72896447D01*
X2103553Y73750000D01*
X2500000Y73750000D01*
X2500000Y72687500D01*
X2687500Y72500000D01*
X5325000Y72500000D01*
X5325000Y72520000D01*
X5825000Y72520000D01*
X5825000Y72500000D01*
X5845000Y72500000D01*
X5845000Y72000000D01*
X5825000Y72000000D01*
X5825000Y69187500D01*
X6012500Y69000000D01*
X6100000Y69000000D01*
X6100000Y68850816D01*
X6100000Y68208148D01*
X5999731Y68249783D01*
X5502450Y68250217D01*
X5325000Y68176896D01*
X5325000Y69187500D01*
X5325000Y72000000D01*
X2687500Y72000000D01*
X2500000Y71812500D01*
X2500000Y69899184D01*
X2500000Y69600815D01*
X2614181Y69325159D01*
X2825159Y69114181D01*
X3100816Y69000000D01*
X5137500Y69000000D01*
X5325000Y69187500D01*
X5325000Y68176896D01*
X5042857Y68060316D01*
X4690919Y67708993D01*
X4500217Y67249731D01*
X4499783Y66752450D01*
X4689684Y66292857D01*
X4803645Y66178697D01*
X4750000Y66049185D01*
X4750000Y65887500D01*
X4937500Y65700000D01*
X5675000Y65700000D01*
X5675000Y65750065D01*
X5997550Y65749783D01*
X6025000Y65761126D01*
X6025000Y65700000D01*
X6120000Y65700000D01*
X6120000Y65300000D01*
X6025000Y65300000D01*
X6025000Y64537500D01*
X6200000Y64362500D01*
X6200000Y63300000D01*
X6276120Y62917316D01*
X6492893Y62592893D01*
X7900000Y61185786D01*
X7900000Y58314214D01*
G36*
X21082354Y53455146D02*
X20500000Y52872792D01*
X20477208Y52850000D01*
X19140510Y52850000D01*
X18779753Y52999800D01*
X18650000Y52999914D01*
X18650000Y53100000D01*
X18725000Y53100000D01*
X18725000Y53862500D01*
X18706923Y53880577D01*
X19100000Y54273654D01*
X19100000Y54199998D01*
X19212498Y54199998D01*
X19100000Y54087500D01*
X19100000Y53950815D01*
X19118544Y53906045D01*
X19075000Y53862500D01*
X19075000Y53100000D01*
X19812500Y53100000D01*
X20000000Y53287500D01*
X20000000Y53350000D01*
X20312500Y53350000D01*
X20500000Y53537500D01*
X20500000Y54275000D01*
X20480000Y54275000D01*
X20480000Y54400000D01*
X21020000Y54400000D01*
X21020000Y54275000D01*
X21000000Y54275000D01*
X21000000Y53537500D01*
X21082354Y53455146D01*
X21082354Y53455146D01*
G37*
X21082354Y53455146D02*
X20500000Y52872792D01*
X20477208Y52850000D01*
X19140510Y52850000D01*
X18779753Y52999800D01*
X18650000Y52999914D01*
X18650000Y53100000D01*
X18725000Y53100000D01*
X18725000Y53862500D01*
X18706923Y53880577D01*
X19100000Y54273654D01*
X19100000Y54199998D01*
X19212498Y54199998D01*
X19100000Y54087500D01*
X19100000Y53950815D01*
X19118544Y53906045D01*
X19075000Y53862500D01*
X19075000Y53100000D01*
X19812500Y53100000D01*
X20000000Y53287500D01*
X20000000Y53350000D01*
X20312500Y53350000D01*
X20500000Y53537500D01*
X20500000Y54275000D01*
X20480000Y54275000D01*
X20480000Y54400000D01*
X21020000Y54400000D01*
X21020000Y54275000D01*
X21000000Y54275000D01*
X21000000Y53537500D01*
X21082354Y53455146D01*
G36*
X21750000Y65767565D02*
X21458993Y66059081D01*
X20999731Y66249783D01*
X20502450Y66250217D01*
X20042857Y66060316D01*
X19690919Y65708993D01*
X19500217Y65249731D01*
X19499783Y64752450D01*
X19671150Y64337713D01*
X19425159Y64235819D01*
X19339340Y64150000D01*
X18550000Y64150000D01*
X18205584Y64081492D01*
X17913604Y63886396D01*
X17463604Y63436396D01*
X17268508Y63144415D01*
X17200000Y62800000D01*
X17200000Y56472792D01*
X15913604Y55186396D01*
X15500000Y54772792D01*
X15500000Y69600815D01*
X15500000Y69899184D01*
X15500000Y71812500D01*
X15312500Y72000000D01*
X12675000Y72000000D01*
X12675000Y69187500D01*
X12862500Y69000000D01*
X14899184Y69000000D01*
X15174841Y69114181D01*
X15385819Y69325159D01*
X15500000Y69600815D01*
X15500000Y54772792D01*
X14527208Y53800000D01*
X13200000Y53800000D01*
X12855584Y53731492D01*
X12791384Y53688595D01*
X12900000Y53950815D01*
X12900000Y54249184D01*
X12900000Y54949184D01*
X12889306Y54975000D01*
X12900000Y55000815D01*
X12900000Y55299184D01*
X12900000Y56099184D01*
X12899662Y56100000D01*
X12900000Y56100815D01*
X12900000Y56399184D01*
X12900000Y57199184D01*
X12899662Y57200000D01*
X12900000Y57200815D01*
X12900000Y57499184D01*
X12900000Y58299184D01*
X12899662Y58300000D01*
X12900000Y58300815D01*
X12900000Y58599184D01*
X12900000Y59399184D01*
X12899662Y59400000D01*
X12900000Y59400815D01*
X12900000Y59699184D01*
X12900000Y60499184D01*
X12899662Y60500000D01*
X12900000Y60500815D01*
X12900000Y60662500D01*
X12712500Y60850000D01*
X12710660Y60850000D01*
X12574841Y60985819D01*
X12419894Y61050001D01*
X12574841Y61114181D01*
X12710660Y61250000D01*
X12712500Y61250000D01*
X12900000Y61437500D01*
X12900000Y61599185D01*
X12899662Y61600000D01*
X12900000Y61600815D01*
X12900000Y61899184D01*
X12900000Y62699184D01*
X12889306Y62725000D01*
X12900000Y62750815D01*
X12900000Y62887500D01*
X12900000Y63612500D01*
X12900000Y63749185D01*
X12785819Y64024841D01*
X12574841Y64235819D01*
X12299184Y64350000D01*
X11687500Y64350000D01*
X11500000Y64162500D01*
X11500000Y63425000D01*
X12712500Y63425000D01*
X12900000Y63612500D01*
X12900000Y62887500D01*
X12712500Y63075000D01*
X12685660Y63075000D01*
X12574841Y63185819D01*
X12299185Y63300000D01*
X12000816Y63300000D01*
X10980000Y63300000D01*
X10980000Y63425000D01*
X11000000Y63425000D01*
X11000000Y64162500D01*
X10812500Y64350000D01*
X10600000Y64350000D01*
X10600000Y64585786D01*
X10607107Y64592893D01*
X10823880Y64917316D01*
X10861208Y65104981D01*
X11061893Y65188107D01*
X11150000Y65100000D01*
X11199185Y65100000D01*
X11474841Y65214181D01*
X11685819Y65425159D01*
X11800000Y65700816D01*
X11800000Y65812500D01*
X11636580Y65975920D01*
X11685819Y66025159D01*
X11800000Y66300816D01*
X11800000Y66487500D01*
X11800000Y66599184D01*
X11800000Y66812500D01*
X11612500Y67000000D01*
X11560660Y67000000D01*
X11474841Y67085819D01*
X11199185Y67200000D01*
X11150000Y67200000D01*
X11061893Y67111894D01*
X10849185Y67200000D01*
X10849184Y67200000D01*
X10800000Y67200000D01*
X10700000Y67100000D01*
X10600000Y67200000D01*
X10550816Y67200000D01*
X10550815Y67200000D01*
X10338106Y67111894D01*
X10250000Y67200000D01*
X10200815Y67200000D01*
X10026087Y67127626D01*
X9985819Y67224841D01*
X9960660Y67250000D01*
X9985819Y67275159D01*
X10026087Y67372375D01*
X10200815Y67300000D01*
X10250000Y67300000D01*
X10338106Y67388107D01*
X10550815Y67300000D01*
X10550816Y67300000D01*
X10600000Y67300000D01*
X10700000Y67400000D01*
X10800000Y67300000D01*
X10849184Y67300000D01*
X10849185Y67300000D01*
X11061893Y67388107D01*
X11150000Y67300000D01*
X11199185Y67300000D01*
X11474841Y67414181D01*
X11560660Y67500000D01*
X11612500Y67500000D01*
X11800000Y67687500D01*
X11800000Y67900816D01*
X11800000Y68012500D01*
X11800000Y68199184D01*
X11685819Y68474841D01*
X11636580Y68524080D01*
X11800000Y68687500D01*
X11800000Y68799184D01*
X11716819Y69000000D01*
X11987500Y69000000D01*
X12175000Y69187500D01*
X12175000Y72000000D01*
X12155000Y72000000D01*
X12155000Y72500000D01*
X12175000Y72500000D01*
X12175000Y72520000D01*
X12675000Y72520000D01*
X12675000Y72500000D01*
X15312500Y72500000D01*
X15500000Y72687500D01*
X15500000Y73750000D01*
X20896447Y73750000D01*
X21750000Y72896447D01*
X21750000Y65767565D01*
X21750000Y65767565D01*
G37*
X21750000Y65767565D02*
X21458993Y66059081D01*
X20999731Y66249783D01*
X20502450Y66250217D01*
X20042857Y66060316D01*
X19690919Y65708993D01*
X19500217Y65249731D01*
X19499783Y64752450D01*
X19671150Y64337713D01*
X19425159Y64235819D01*
X19339340Y64150000D01*
X18550000Y64150000D01*
X18205584Y64081492D01*
X17913604Y63886396D01*
X17463604Y63436396D01*
X17268508Y63144415D01*
X17200000Y62800000D01*
X17200000Y56472792D01*
X15913604Y55186396D01*
X15500000Y54772792D01*
X15500000Y69600815D01*
X15500000Y69899184D01*
X15500000Y71812500D01*
X15312500Y72000000D01*
X12675000Y72000000D01*
X12675000Y69187500D01*
X12862500Y69000000D01*
X14899184Y69000000D01*
X15174841Y69114181D01*
X15385819Y69325159D01*
X15500000Y69600815D01*
X15500000Y54772792D01*
X14527208Y53800000D01*
X13200000Y53800000D01*
X12855584Y53731492D01*
X12791384Y53688595D01*
X12900000Y53950815D01*
X12900000Y54249184D01*
X12900000Y54949184D01*
X12889306Y54975000D01*
X12900000Y55000815D01*
X12900000Y55299184D01*
X12900000Y56099184D01*
X12899662Y56100000D01*
X12900000Y56100815D01*
X12900000Y56399184D01*
X12900000Y57199184D01*
X12899662Y57200000D01*
X12900000Y57200815D01*
X12900000Y57499184D01*
X12900000Y58299184D01*
X12899662Y58300000D01*
X12900000Y58300815D01*
X12900000Y58599184D01*
X12900000Y59399184D01*
X12899662Y59400000D01*
X12900000Y59400815D01*
X12900000Y59699184D01*
X12900000Y60499184D01*
X12899662Y60500000D01*
X12900000Y60500815D01*
X12900000Y60662500D01*
X12712500Y60850000D01*
X12710660Y60850000D01*
X12574841Y60985819D01*
X12419894Y61050001D01*
X12574841Y61114181D01*
X12710660Y61250000D01*
X12712500Y61250000D01*
X12900000Y61437500D01*
X12900000Y61599185D01*
X12899662Y61600000D01*
X12900000Y61600815D01*
X12900000Y61899184D01*
X12900000Y62699184D01*
X12889306Y62725000D01*
X12900000Y62750815D01*
X12900000Y62887500D01*
X12900000Y63612500D01*
X12900000Y63749185D01*
X12785819Y64024841D01*
X12574841Y64235819D01*
X12299184Y64350000D01*
X11687500Y64350000D01*
X11500000Y64162500D01*
X11500000Y63425000D01*
X12712500Y63425000D01*
X12900000Y63612500D01*
X12900000Y62887500D01*
X12712500Y63075000D01*
X12685660Y63075000D01*
X12574841Y63185819D01*
X12299185Y63300000D01*
X12000816Y63300000D01*
X10980000Y63300000D01*
X10980000Y63425000D01*
X11000000Y63425000D01*
X11000000Y64162500D01*
X10812500Y64350000D01*
X10600000Y64350000D01*
X10600000Y64585786D01*
X10607107Y64592893D01*
X10823880Y64917316D01*
X10861208Y65104981D01*
X11061893Y65188107D01*
X11150000Y65100000D01*
X11199185Y65100000D01*
X11474841Y65214181D01*
X11685819Y65425159D01*
X11800000Y65700816D01*
X11800000Y65812500D01*
X11636580Y65975920D01*
X11685819Y66025159D01*
X11800000Y66300816D01*
X11800000Y66487500D01*
X11800000Y66599184D01*
X11800000Y66812500D01*
X11612500Y67000000D01*
X11560660Y67000000D01*
X11474841Y67085819D01*
X11199185Y67200000D01*
X11150000Y67200000D01*
X11061893Y67111894D01*
X10849185Y67200000D01*
X10849184Y67200000D01*
X10800000Y67200000D01*
X10700000Y67100000D01*
X10600000Y67200000D01*
X10550816Y67200000D01*
X10550815Y67200000D01*
X10338106Y67111894D01*
X10250000Y67200000D01*
X10200815Y67200000D01*
X10026087Y67127626D01*
X9985819Y67224841D01*
X9960660Y67250000D01*
X9985819Y67275159D01*
X10026087Y67372375D01*
X10200815Y67300000D01*
X10250000Y67300000D01*
X10338106Y67388107D01*
X10550815Y67300000D01*
X10550816Y67300000D01*
X10600000Y67300000D01*
X10700000Y67400000D01*
X10800000Y67300000D01*
X10849184Y67300000D01*
X10849185Y67300000D01*
X11061893Y67388107D01*
X11150000Y67300000D01*
X11199185Y67300000D01*
X11474841Y67414181D01*
X11560660Y67500000D01*
X11612500Y67500000D01*
X11800000Y67687500D01*
X11800000Y67900816D01*
X11800000Y68012500D01*
X11800000Y68199184D01*
X11685819Y68474841D01*
X11636580Y68524080D01*
X11800000Y68687500D01*
X11800000Y68799184D01*
X11716819Y69000000D01*
X11987500Y69000000D01*
X12175000Y69187500D01*
X12175000Y72000000D01*
X12155000Y72000000D01*
X12155000Y72500000D01*
X12175000Y72500000D01*
X12175000Y72520000D01*
X12675000Y72520000D01*
X12675000Y72500000D01*
X15312500Y72500000D01*
X15500000Y72687500D01*
X15500000Y73750000D01*
X20896447Y73750000D01*
X21750000Y72896447D01*
X21750000Y65767565D01*
G36*
X36350000Y69403553D02*
X36123223Y69176777D01*
X35750000Y68803553D01*
X35750000Y65853553D01*
X35573223Y65676777D01*
X35250000Y65353553D01*
X35250000Y57260000D01*
X35050000Y57260000D01*
X35050000Y57699184D01*
X34935819Y57974841D01*
X34850000Y58060660D01*
X34850000Y58248635D01*
X34900000Y58500000D01*
X34850000Y58751366D01*
X34850000Y59049184D01*
X34750000Y59290606D01*
X34750000Y68470410D01*
X34799774Y68590279D01*
X34800226Y69107452D01*
X34750000Y69229008D01*
X34750000Y73396447D01*
X35550000Y74196447D01*
X36350000Y73396447D01*
X36350000Y69403553D01*
X36350000Y69403553D01*
G37*
X36350000Y69403553D02*
X36123223Y69176777D01*
X35750000Y68803553D01*
X35750000Y65853553D01*
X35573223Y65676777D01*
X35250000Y65353553D01*
X35250000Y57260000D01*
X35050000Y57260000D01*
X35050000Y57699184D01*
X34935819Y57974841D01*
X34850000Y58060660D01*
X34850000Y58248635D01*
X34900000Y58500000D01*
X34850000Y58751366D01*
X34850000Y59049184D01*
X34750000Y59290606D01*
X34750000Y68470410D01*
X34799774Y68590279D01*
X34800226Y69107452D01*
X34750000Y69229008D01*
X34750000Y73396447D01*
X35550000Y74196447D01*
X36350000Y73396447D01*
X36350000Y69403553D01*
G36*
X48750000Y24103553D02*
X47896447Y23250000D01*
X33258365Y23250000D01*
X33175491Y23450572D01*
X32852273Y23774354D01*
X32429753Y23949800D01*
X32403730Y23949823D01*
X32250000Y24103553D01*
X32250000Y47503892D01*
X32274841Y47514181D01*
X32485819Y47725159D01*
X32600000Y48000815D01*
X32600000Y48299184D01*
X32600000Y49999184D01*
X32500000Y50240606D01*
X32500000Y53146447D01*
X33103553Y53750000D01*
X33603553Y53750000D01*
X34648400Y54794848D01*
X34780815Y54740000D01*
X35079184Y54740000D01*
X35250000Y54740000D01*
X35250000Y50103553D01*
X34396447Y49250000D01*
X33896447Y49250000D01*
X32750000Y48103553D01*
X32750000Y37396447D01*
X33896447Y36250000D01*
X38932217Y36250000D01*
X38939340Y36239340D01*
X39839340Y35339340D01*
X40325975Y35014181D01*
X40900000Y34900000D01*
X43978680Y34900000D01*
X44046854Y34831826D01*
X44000278Y34719656D01*
X43999723Y34083137D01*
X44242795Y33494857D01*
X44692489Y33044377D01*
X45280344Y32800278D01*
X45916863Y32799723D01*
X46505143Y33042795D01*
X46955623Y33492489D01*
X47199722Y34080344D01*
X47200277Y34716863D01*
X47040859Y35102683D01*
X47100000Y35400000D01*
X46985819Y35974025D01*
X46801418Y36250000D01*
X47103553Y36250000D01*
X48250000Y37396447D01*
X48250000Y69103553D01*
X47176777Y70176777D01*
X46250000Y71103553D01*
X46250000Y73396447D01*
X47053553Y74200000D01*
X47946447Y74200000D01*
X48750000Y73396447D01*
X48750000Y24103553D01*
X48750000Y24103553D01*
G37*
X48750000Y24103553D02*
X47896447Y23250000D01*
X33258365Y23250000D01*
X33175491Y23450572D01*
X32852273Y23774354D01*
X32429753Y23949800D01*
X32403730Y23949823D01*
X32250000Y24103553D01*
X32250000Y47503892D01*
X32274841Y47514181D01*
X32485819Y47725159D01*
X32600000Y48000815D01*
X32600000Y48299184D01*
X32600000Y49999184D01*
X32500000Y50240606D01*
X32500000Y53146447D01*
X33103553Y53750000D01*
X33603553Y53750000D01*
X34648400Y54794848D01*
X34780815Y54740000D01*
X35079184Y54740000D01*
X35250000Y54740000D01*
X35250000Y50103553D01*
X34396447Y49250000D01*
X33896447Y49250000D01*
X32750000Y48103553D01*
X32750000Y37396447D01*
X33896447Y36250000D01*
X38932217Y36250000D01*
X38939340Y36239340D01*
X39839340Y35339340D01*
X40325975Y35014181D01*
X40900000Y34900000D01*
X43978680Y34900000D01*
X44046854Y34831826D01*
X44000278Y34719656D01*
X43999723Y34083137D01*
X44242795Y33494857D01*
X44692489Y33044377D01*
X45280344Y32800278D01*
X45916863Y32799723D01*
X46505143Y33042795D01*
X46955623Y33492489D01*
X47199722Y34080344D01*
X47200277Y34716863D01*
X47040859Y35102683D01*
X47100000Y35400000D01*
X46985819Y35974025D01*
X46801418Y36250000D01*
X47103553Y36250000D01*
X48250000Y37396447D01*
X48250000Y69103553D01*
X47176777Y70176777D01*
X46250000Y71103553D01*
X46250000Y73396447D01*
X47053553Y74200000D01*
X47946447Y74200000D01*
X48750000Y73396447D01*
X48750000Y24103553D01*
G36*
X31250000Y45003553D02*
X30417959Y44171513D01*
X30349185Y44200000D01*
X30050816Y44200000D01*
X28750816Y44200000D01*
X28630105Y44150000D01*
X25869895Y44150000D01*
X25749185Y44200000D01*
X25450816Y44200000D01*
X25253553Y44200000D01*
X24600000Y44853553D01*
X24600000Y46500000D01*
X24600000Y46600000D01*
X24600000Y47646447D01*
X25303553Y48350000D01*
X26042876Y48350000D01*
X27901670Y49006911D01*
X29023215Y49912774D01*
X29436512Y50777863D01*
X29629325Y50970675D01*
X29822253Y51259411D01*
X29822253Y51259412D01*
X29833466Y51315787D01*
X29833466Y51315788D01*
X30059081Y51541007D01*
X30249783Y52000269D01*
X30250217Y52497550D01*
X30177380Y52673828D01*
X30403553Y52900000D01*
X30509184Y52900000D01*
X30641598Y52954849D01*
X31250000Y52346447D01*
X31250000Y51450816D01*
X31250000Y45003553D01*
X31250000Y45003553D01*
G37*
X31250000Y45003553D02*
X30417959Y44171513D01*
X30349185Y44200000D01*
X30050816Y44200000D01*
X28750816Y44200000D01*
X28630105Y44150000D01*
X25869895Y44150000D01*
X25749185Y44200000D01*
X25450816Y44200000D01*
X25253553Y44200000D01*
X24600000Y44853553D01*
X24600000Y46500000D01*
X24600000Y46600000D01*
X24600000Y47646447D01*
X25303553Y48350000D01*
X26042876Y48350000D01*
X27901670Y49006911D01*
X29023215Y49912774D01*
X29436512Y50777863D01*
X29629325Y50970675D01*
X29822253Y51259411D01*
X29822253Y51259412D01*
X29833466Y51315787D01*
X29833466Y51315788D01*
X30059081Y51541007D01*
X30249783Y52000269D01*
X30250217Y52497550D01*
X30177380Y52673828D01*
X30403553Y52900000D01*
X30509184Y52900000D01*
X30641598Y52954849D01*
X31250000Y52346447D01*
X31250000Y51450816D01*
X31250000Y45003553D01*
M02*
