%FSLAX46Y46*%
G04 Gerber Fmt 4.6, Leading zero omitted, Abs format (unit mm)*
G04 Created by KiCad (PCBNEW (2014-jul-16 BZR unknown)-product) date Wed 23 Jul 2014 21:28:23 BST*
%MOMM*%
G01*
G04 APERTURE LIST*
%ADD10C,0.100000*%
%ADD11C,0.300000*%
%ADD12C,1.700000*%
%ADD13C,1.016000*%
%ADD14C,1.400000*%
%ADD15C,1.500000*%
%ADD16C,1.100000*%
%ADD17C,3.300000*%
G04 APERTURE END LIST*
D10*
D11*
X20978572Y-57407143D02*
X21121429Y-57478571D01*
X21407143Y-57478571D01*
X21550001Y-57407143D01*
X21621429Y-57335714D01*
X21692858Y-57192857D01*
X21692858Y-56764286D01*
X21621429Y-56621429D01*
X21550001Y-56550000D01*
X21407143Y-56478571D01*
X21121429Y-56478571D01*
X20978572Y-56550000D01*
X19692858Y-56478571D02*
X19692858Y-57478571D01*
X20335715Y-56478571D02*
X20335715Y-57264286D01*
X20264287Y-57407143D01*
X20121429Y-57478571D01*
X19907144Y-57478571D01*
X19764287Y-57407143D01*
X19692858Y-57335714D01*
X19050001Y-57407143D02*
X18907144Y-57478571D01*
X18621429Y-57478571D01*
X18478572Y-57407143D01*
X18407144Y-57264286D01*
X18407144Y-57192857D01*
X18478572Y-57050000D01*
X18621429Y-56978571D01*
X18835715Y-56978571D01*
X18978572Y-56907143D01*
X19050001Y-56764286D01*
X19050001Y-56692857D01*
X18978572Y-56550000D01*
X18835715Y-56478571D01*
X18621429Y-56478571D01*
X18478572Y-56550000D01*
X17978572Y-56478571D02*
X17407143Y-56478571D01*
X17764286Y-57478571D02*
X17764286Y-56192857D01*
X17692858Y-56050000D01*
X17550000Y-55978571D01*
X17407143Y-55978571D01*
X16907143Y-57335714D02*
X16835715Y-57407143D01*
X16907143Y-57478571D01*
X16978572Y-57407143D01*
X16907143Y-57335714D01*
X16907143Y-57478571D01*
X15550000Y-57407143D02*
X15692857Y-57478571D01*
X15978571Y-57478571D01*
X16121429Y-57407143D01*
X16192857Y-57335714D01*
X16264286Y-57192857D01*
X16264286Y-56764286D01*
X16192857Y-56621429D01*
X16121429Y-56550000D01*
X15978571Y-56478571D01*
X15692857Y-56478571D01*
X15550000Y-56550000D01*
X14692857Y-57478571D02*
X14835715Y-57407143D01*
X14907143Y-57335714D01*
X14978572Y-57192857D01*
X14978572Y-56764286D01*
X14907143Y-56621429D01*
X14835715Y-56550000D01*
X14692857Y-56478571D01*
X14478572Y-56478571D01*
X14335715Y-56550000D01*
X14264286Y-56621429D01*
X14192857Y-56764286D01*
X14192857Y-57192857D01*
X14264286Y-57335714D01*
X14335715Y-57407143D01*
X14478572Y-57478571D01*
X14692857Y-57478571D01*
X13550000Y-57335714D02*
X13478572Y-57407143D01*
X13550000Y-57478571D01*
X13621429Y-57407143D01*
X13550000Y-57335714D01*
X13550000Y-57478571D01*
X12192857Y-56478571D02*
X12192857Y-57478571D01*
X12835714Y-56478571D02*
X12835714Y-57264286D01*
X12764286Y-57407143D01*
X12621428Y-57478571D01*
X12407143Y-57478571D01*
X12264286Y-57407143D01*
X12192857Y-57335714D01*
X11478571Y-57478571D02*
X11478571Y-55978571D01*
X11335714Y-56907143D02*
X10907143Y-57478571D01*
X10907143Y-56478571D02*
X11478571Y-57050000D01*
D10*
G36*
X45291600Y-50546618D02*
X45285797Y-50639916D01*
X45261919Y-50725134D01*
X45210259Y-50811684D01*
X45121113Y-50908977D01*
X44984773Y-51026426D01*
X44791533Y-51173443D01*
X44531690Y-51359439D01*
X44252283Y-51554466D01*
X44066525Y-51683452D01*
X43808897Y-51862429D01*
X43490938Y-52083375D01*
X43124189Y-52338269D01*
X42720189Y-52619091D01*
X42290479Y-52917820D01*
X41846597Y-53226434D01*
X41400084Y-53536912D01*
X41372395Y-53556167D01*
X40816928Y-53940872D01*
X40341504Y-54266741D01*
X39944233Y-54535017D01*
X39623220Y-54746939D01*
X39376574Y-54903748D01*
X39202403Y-55006683D01*
X39098813Y-55056985D01*
X39073695Y-55062800D01*
X38984882Y-55050547D01*
X38948234Y-54993754D01*
X38941600Y-54883032D01*
X38962666Y-54744156D01*
X39038115Y-54612124D01*
X39132100Y-54505333D01*
X39214590Y-54433994D01*
X39369585Y-54314146D01*
X39588850Y-54151471D01*
X39864154Y-53951650D01*
X40187264Y-53720366D01*
X40549946Y-53463299D01*
X40943968Y-53186131D01*
X41361098Y-52894544D01*
X41793101Y-52594219D01*
X42231747Y-52290838D01*
X42668801Y-51990081D01*
X43096031Y-51697631D01*
X43505204Y-51419169D01*
X43888088Y-51160377D01*
X44236450Y-50926936D01*
X44542056Y-50724528D01*
X44796675Y-50558834D01*
X44992072Y-50435535D01*
X45120017Y-50360314D01*
X45170191Y-50338400D01*
X45247867Y-50350076D01*
X45282863Y-50403820D01*
X45291548Y-50527706D01*
X45291600Y-50546618D01*
X45291600Y-50546618D01*
X45291600Y-50546618D01*
G37*
X45291600Y-50546618D02*
X45285797Y-50639916D01*
X45261919Y-50725134D01*
X45210259Y-50811684D01*
X45121113Y-50908977D01*
X44984773Y-51026426D01*
X44791533Y-51173443D01*
X44531690Y-51359439D01*
X44252283Y-51554466D01*
X44066525Y-51683452D01*
X43808897Y-51862429D01*
X43490938Y-52083375D01*
X43124189Y-52338269D01*
X42720189Y-52619091D01*
X42290479Y-52917820D01*
X41846597Y-53226434D01*
X41400084Y-53536912D01*
X41372395Y-53556167D01*
X40816928Y-53940872D01*
X40341504Y-54266741D01*
X39944233Y-54535017D01*
X39623220Y-54746939D01*
X39376574Y-54903748D01*
X39202403Y-55006683D01*
X39098813Y-55056985D01*
X39073695Y-55062800D01*
X38984882Y-55050547D01*
X38948234Y-54993754D01*
X38941600Y-54883032D01*
X38962666Y-54744156D01*
X39038115Y-54612124D01*
X39132100Y-54505333D01*
X39214590Y-54433994D01*
X39369585Y-54314146D01*
X39588850Y-54151471D01*
X39864154Y-53951650D01*
X40187264Y-53720366D01*
X40549946Y-53463299D01*
X40943968Y-53186131D01*
X41361098Y-52894544D01*
X41793101Y-52594219D01*
X42231747Y-52290838D01*
X42668801Y-51990081D01*
X43096031Y-51697631D01*
X43505204Y-51419169D01*
X43888088Y-51160377D01*
X44236450Y-50926936D01*
X44542056Y-50724528D01*
X44796675Y-50558834D01*
X44992072Y-50435535D01*
X45120017Y-50360314D01*
X45170191Y-50338400D01*
X45247867Y-50350076D01*
X45282863Y-50403820D01*
X45291548Y-50527706D01*
X45291600Y-50546618D01*
X45291600Y-50546618D01*
G36*
X45291600Y-48641618D02*
X45284316Y-48817303D01*
X45253374Y-48931507D01*
X45185142Y-49023853D01*
X45147389Y-49060718D01*
X45073520Y-49119871D01*
X44926306Y-49229356D01*
X44716034Y-49381820D01*
X44452994Y-49569907D01*
X44147473Y-49786262D01*
X43809760Y-50023531D01*
X43450144Y-50274358D01*
X43432889Y-50286348D01*
X42735519Y-50770875D01*
X42116828Y-51200675D01*
X41571992Y-51578901D01*
X41096189Y-51908707D01*
X40684595Y-52193244D01*
X40332386Y-52435666D01*
X40034741Y-52639125D01*
X39786835Y-52806775D01*
X39583846Y-52941769D01*
X39420950Y-53047258D01*
X39293325Y-53126396D01*
X39196147Y-53182337D01*
X39124592Y-53218232D01*
X39073839Y-53237234D01*
X39039064Y-53242497D01*
X39015443Y-53237173D01*
X38998153Y-53224416D01*
X38982372Y-53207377D01*
X38975466Y-53200133D01*
X38940961Y-53104999D01*
X38945163Y-52956039D01*
X38982693Y-52790966D01*
X39048176Y-52647492D01*
X39055900Y-52636006D01*
X39115988Y-52580176D01*
X39250733Y-52473768D01*
X39452011Y-52322443D01*
X39711702Y-52131858D01*
X40021682Y-51907673D01*
X40373831Y-51655548D01*
X40760025Y-51381142D01*
X41172144Y-51090113D01*
X41602065Y-50788122D01*
X42041666Y-50480828D01*
X42482825Y-50173889D01*
X42917420Y-49872965D01*
X43337330Y-49583715D01*
X43734431Y-49311799D01*
X44100603Y-49062875D01*
X44427723Y-48842604D01*
X44707670Y-48656644D01*
X44932320Y-48510654D01*
X45093553Y-48410294D01*
X45183247Y-48361223D01*
X45196705Y-48357200D01*
X45251461Y-48371213D01*
X45280199Y-48428850D01*
X45290724Y-48553504D01*
X45291600Y-48641618D01*
X45291600Y-48641618D01*
X45291600Y-48641618D01*
G37*
X45291600Y-48641618D02*
X45284316Y-48817303D01*
X45253374Y-48931507D01*
X45185142Y-49023853D01*
X45147389Y-49060718D01*
X45073520Y-49119871D01*
X44926306Y-49229356D01*
X44716034Y-49381820D01*
X44452994Y-49569907D01*
X44147473Y-49786262D01*
X43809760Y-50023531D01*
X43450144Y-50274358D01*
X43432889Y-50286348D01*
X42735519Y-50770875D01*
X42116828Y-51200675D01*
X41571992Y-51578901D01*
X41096189Y-51908707D01*
X40684595Y-52193244D01*
X40332386Y-52435666D01*
X40034741Y-52639125D01*
X39786835Y-52806775D01*
X39583846Y-52941769D01*
X39420950Y-53047258D01*
X39293325Y-53126396D01*
X39196147Y-53182337D01*
X39124592Y-53218232D01*
X39073839Y-53237234D01*
X39039064Y-53242497D01*
X39015443Y-53237173D01*
X38998153Y-53224416D01*
X38982372Y-53207377D01*
X38975466Y-53200133D01*
X38940961Y-53104999D01*
X38945163Y-52956039D01*
X38982693Y-52790966D01*
X39048176Y-52647492D01*
X39055900Y-52636006D01*
X39115988Y-52580176D01*
X39250733Y-52473768D01*
X39452011Y-52322443D01*
X39711702Y-52131858D01*
X40021682Y-51907673D01*
X40373831Y-51655548D01*
X40760025Y-51381142D01*
X41172144Y-51090113D01*
X41602065Y-50788122D01*
X42041666Y-50480828D01*
X42482825Y-50173889D01*
X42917420Y-49872965D01*
X43337330Y-49583715D01*
X43734431Y-49311799D01*
X44100603Y-49062875D01*
X44427723Y-48842604D01*
X44707670Y-48656644D01*
X44932320Y-48510654D01*
X45093553Y-48410294D01*
X45183247Y-48361223D01*
X45196705Y-48357200D01*
X45251461Y-48371213D01*
X45280199Y-48428850D01*
X45290724Y-48553504D01*
X45291600Y-48641618D01*
X45291600Y-48641618D01*
G36*
X45291600Y-46621002D02*
X45287925Y-46809349D01*
X45269410Y-46930216D01*
X45224815Y-47017663D01*
X45142901Y-47105745D01*
X45126500Y-47121306D01*
X45044159Y-47188466D01*
X44889283Y-47304482D01*
X44670157Y-47463647D01*
X44395065Y-47660254D01*
X44072291Y-47888597D01*
X43710120Y-48142968D01*
X43316836Y-48417662D01*
X42900723Y-48706970D01*
X42470067Y-49005186D01*
X42033151Y-49306603D01*
X41598260Y-49605515D01*
X41173678Y-49896214D01*
X40767690Y-50172993D01*
X40388580Y-50430147D01*
X40044632Y-50661967D01*
X39744132Y-50862746D01*
X39495363Y-51026779D01*
X39306609Y-51148358D01*
X39186156Y-51221777D01*
X39144695Y-51241979D01*
X39033889Y-51242800D01*
X38979410Y-51222877D01*
X38946418Y-51131945D01*
X38941800Y-50977885D01*
X38962471Y-50794175D01*
X39005343Y-50614293D01*
X39044887Y-50512713D01*
X39071541Y-50466064D01*
X39111454Y-50414167D01*
X39170662Y-50352541D01*
X39255196Y-50276704D01*
X39371093Y-50182175D01*
X39524384Y-50064472D01*
X39721105Y-49919115D01*
X39967289Y-49741622D01*
X40268971Y-49527512D01*
X40632184Y-49272304D01*
X41062961Y-48971516D01*
X41567338Y-48620666D01*
X41953187Y-48352766D01*
X42433191Y-48019604D01*
X42891259Y-47701564D01*
X43320128Y-47403693D01*
X43712533Y-47131043D01*
X44061213Y-46888662D01*
X44358902Y-46681600D01*
X44598340Y-46514907D01*
X44772261Y-46393632D01*
X44873402Y-46322826D01*
X44893814Y-46308358D01*
X45054572Y-46237321D01*
X45160514Y-46243435D01*
X45230021Y-46267352D01*
X45269290Y-46311687D01*
X45286915Y-46401188D01*
X45291488Y-46560603D01*
X45291600Y-46621002D01*
X45291600Y-46621002D01*
X45291600Y-46621002D01*
G37*
X45291600Y-46621002D02*
X45287925Y-46809349D01*
X45269410Y-46930216D01*
X45224815Y-47017663D01*
X45142901Y-47105745D01*
X45126500Y-47121306D01*
X45044159Y-47188466D01*
X44889283Y-47304482D01*
X44670157Y-47463647D01*
X44395065Y-47660254D01*
X44072291Y-47888597D01*
X43710120Y-48142968D01*
X43316836Y-48417662D01*
X42900723Y-48706970D01*
X42470067Y-49005186D01*
X42033151Y-49306603D01*
X41598260Y-49605515D01*
X41173678Y-49896214D01*
X40767690Y-50172993D01*
X40388580Y-50430147D01*
X40044632Y-50661967D01*
X39744132Y-50862746D01*
X39495363Y-51026779D01*
X39306609Y-51148358D01*
X39186156Y-51221777D01*
X39144695Y-51241979D01*
X39033889Y-51242800D01*
X38979410Y-51222877D01*
X38946418Y-51131945D01*
X38941800Y-50977885D01*
X38962471Y-50794175D01*
X39005343Y-50614293D01*
X39044887Y-50512713D01*
X39071541Y-50466064D01*
X39111454Y-50414167D01*
X39170662Y-50352541D01*
X39255196Y-50276704D01*
X39371093Y-50182175D01*
X39524384Y-50064472D01*
X39721105Y-49919115D01*
X39967289Y-49741622D01*
X40268971Y-49527512D01*
X40632184Y-49272304D01*
X41062961Y-48971516D01*
X41567338Y-48620666D01*
X41953187Y-48352766D01*
X42433191Y-48019604D01*
X42891259Y-47701564D01*
X43320128Y-47403693D01*
X43712533Y-47131043D01*
X44061213Y-46888662D01*
X44358902Y-46681600D01*
X44598340Y-46514907D01*
X44772261Y-46393632D01*
X44873402Y-46322826D01*
X44893814Y-46308358D01*
X45054572Y-46237321D01*
X45160514Y-46243435D01*
X45230021Y-46267352D01*
X45269290Y-46311687D01*
X45286915Y-46401188D01*
X45291488Y-46560603D01*
X45291600Y-46621002D01*
X45291600Y-46621002D01*
G36*
X45291600Y-44292351D02*
X45289235Y-44498770D01*
X45276428Y-44633760D01*
X45244612Y-44727473D01*
X45185218Y-44810063D01*
X45126500Y-44873386D01*
X45055777Y-44932789D01*
X44911360Y-45042230D01*
X44701548Y-45195950D01*
X44434639Y-45388192D01*
X44118933Y-45613196D01*
X43762727Y-45865206D01*
X43374321Y-46138463D01*
X42962014Y-46427210D01*
X42534103Y-46725687D01*
X42098889Y-47028138D01*
X41664669Y-47328804D01*
X41239743Y-47621927D01*
X40832409Y-47901749D01*
X40450966Y-48162512D01*
X40103712Y-48398458D01*
X39798946Y-48603829D01*
X39544968Y-48772867D01*
X39350076Y-48899813D01*
X39222568Y-48978911D01*
X39172762Y-49004350D01*
X39058318Y-48992214D01*
X39005100Y-48959808D01*
X38965758Y-48865951D01*
X38945557Y-48705633D01*
X38944043Y-48512087D01*
X38960761Y-48318544D01*
X38995256Y-48158238D01*
X39016791Y-48105150D01*
X39069200Y-48048031D01*
X39192001Y-47944715D01*
X39387018Y-47793874D01*
X39656076Y-47594185D01*
X40000999Y-47344323D01*
X40423610Y-47042963D01*
X40925734Y-46688780D01*
X41509194Y-46280449D01*
X41984799Y-45949311D01*
X42471596Y-45611432D01*
X42936306Y-45289719D01*
X43371835Y-44989030D01*
X43771089Y-44714226D01*
X44126972Y-44470164D01*
X44432390Y-44261703D01*
X44680248Y-44093703D01*
X44863452Y-43971023D01*
X44974908Y-43898520D01*
X45005168Y-43880760D01*
X45131339Y-43837834D01*
X45215181Y-43853226D01*
X45264547Y-43938220D01*
X45287289Y-44104103D01*
X45291600Y-44292351D01*
X45291600Y-44292351D01*
X45291600Y-44292351D01*
G37*
X45291600Y-44292351D02*
X45289235Y-44498770D01*
X45276428Y-44633760D01*
X45244612Y-44727473D01*
X45185218Y-44810063D01*
X45126500Y-44873386D01*
X45055777Y-44932789D01*
X44911360Y-45042230D01*
X44701548Y-45195950D01*
X44434639Y-45388192D01*
X44118933Y-45613196D01*
X43762727Y-45865206D01*
X43374321Y-46138463D01*
X42962014Y-46427210D01*
X42534103Y-46725687D01*
X42098889Y-47028138D01*
X41664669Y-47328804D01*
X41239743Y-47621927D01*
X40832409Y-47901749D01*
X40450966Y-48162512D01*
X40103712Y-48398458D01*
X39798946Y-48603829D01*
X39544968Y-48772867D01*
X39350076Y-48899813D01*
X39222568Y-48978911D01*
X39172762Y-49004350D01*
X39058318Y-48992214D01*
X39005100Y-48959808D01*
X38965758Y-48865951D01*
X38945557Y-48705633D01*
X38944043Y-48512087D01*
X38960761Y-48318544D01*
X38995256Y-48158238D01*
X39016791Y-48105150D01*
X39069200Y-48048031D01*
X39192001Y-47944715D01*
X39387018Y-47793874D01*
X39656076Y-47594185D01*
X40000999Y-47344323D01*
X40423610Y-47042963D01*
X40925734Y-46688780D01*
X41509194Y-46280449D01*
X41984799Y-45949311D01*
X42471596Y-45611432D01*
X42936306Y-45289719D01*
X43371835Y-44989030D01*
X43771089Y-44714226D01*
X44126972Y-44470164D01*
X44432390Y-44261703D01*
X44680248Y-44093703D01*
X44863452Y-43971023D01*
X44974908Y-43898520D01*
X45005168Y-43880760D01*
X45131339Y-43837834D01*
X45215181Y-43853226D01*
X45264547Y-43938220D01*
X45287289Y-44104103D01*
X45291600Y-44292351D01*
X45291600Y-44292351D01*
G36*
X45291600Y-41873523D02*
X45290032Y-42096868D01*
X45280786Y-42245665D01*
X45257050Y-42346962D01*
X45212009Y-42427808D01*
X45138852Y-42515250D01*
X45126500Y-42528980D01*
X45061640Y-42589580D01*
X44945037Y-42684080D01*
X44773620Y-42814656D01*
X44544318Y-42983484D01*
X44254060Y-43192741D01*
X43899777Y-43444602D01*
X43478398Y-43741244D01*
X42986852Y-44084842D01*
X42422068Y-44477572D01*
X41780977Y-44921611D01*
X41060508Y-45419135D01*
X40618000Y-45724146D01*
X40228503Y-45992386D01*
X39913957Y-46208312D01*
X39665589Y-46377168D01*
X39474626Y-46504199D01*
X39332296Y-46594649D01*
X39229825Y-46653764D01*
X39158442Y-46686786D01*
X39109373Y-46698962D01*
X39073845Y-46695534D01*
X39043087Y-46681749D01*
X39029188Y-46673968D01*
X38987043Y-46634596D01*
X38960680Y-46560269D01*
X38946727Y-46430778D01*
X38941814Y-46225918D01*
X38941600Y-46148773D01*
X38943928Y-45920245D01*
X38954520Y-45767018D01*
X38978780Y-45662833D01*
X39022118Y-45581431D01*
X39071416Y-45518317D01*
X39129953Y-45468858D01*
X39263633Y-45367614D01*
X39464138Y-45220413D01*
X39723151Y-45033087D01*
X40032356Y-44811465D01*
X40383436Y-44561376D01*
X40768073Y-44288652D01*
X41177951Y-43999122D01*
X41604753Y-43698616D01*
X42040162Y-43392965D01*
X42475860Y-43087997D01*
X42903532Y-42789544D01*
X43314860Y-42503435D01*
X43701527Y-42235500D01*
X44055216Y-41991569D01*
X44367610Y-41777472D01*
X44630393Y-41599040D01*
X44835248Y-41462102D01*
X44973856Y-41372488D01*
X45037600Y-41336132D01*
X45144841Y-41335456D01*
X45202700Y-41355451D01*
X45245448Y-41392310D01*
X45272147Y-41463000D01*
X45286280Y-41587823D01*
X45291332Y-41787082D01*
X45291600Y-41873523D01*
X45291600Y-41873523D01*
X45291600Y-41873523D01*
G37*
X45291600Y-41873523D02*
X45290032Y-42096868D01*
X45280786Y-42245665D01*
X45257050Y-42346962D01*
X45212009Y-42427808D01*
X45138852Y-42515250D01*
X45126500Y-42528980D01*
X45061640Y-42589580D01*
X44945037Y-42684080D01*
X44773620Y-42814656D01*
X44544318Y-42983484D01*
X44254060Y-43192741D01*
X43899777Y-43444602D01*
X43478398Y-43741244D01*
X42986852Y-44084842D01*
X42422068Y-44477572D01*
X41780977Y-44921611D01*
X41060508Y-45419135D01*
X40618000Y-45724146D01*
X40228503Y-45992386D01*
X39913957Y-46208312D01*
X39665589Y-46377168D01*
X39474626Y-46504199D01*
X39332296Y-46594649D01*
X39229825Y-46653764D01*
X39158442Y-46686786D01*
X39109373Y-46698962D01*
X39073845Y-46695534D01*
X39043087Y-46681749D01*
X39029188Y-46673968D01*
X38987043Y-46634596D01*
X38960680Y-46560269D01*
X38946727Y-46430778D01*
X38941814Y-46225918D01*
X38941600Y-46148773D01*
X38943928Y-45920245D01*
X38954520Y-45767018D01*
X38978780Y-45662833D01*
X39022118Y-45581431D01*
X39071416Y-45518317D01*
X39129953Y-45468858D01*
X39263633Y-45367614D01*
X39464138Y-45220413D01*
X39723151Y-45033087D01*
X40032356Y-44811465D01*
X40383436Y-44561376D01*
X40768073Y-44288652D01*
X41177951Y-43999122D01*
X41604753Y-43698616D01*
X42040162Y-43392965D01*
X42475860Y-43087997D01*
X42903532Y-42789544D01*
X43314860Y-42503435D01*
X43701527Y-42235500D01*
X44055216Y-41991569D01*
X44367610Y-41777472D01*
X44630393Y-41599040D01*
X44835248Y-41462102D01*
X44973856Y-41372488D01*
X45037600Y-41336132D01*
X45144841Y-41335456D01*
X45202700Y-41355451D01*
X45245448Y-41392310D01*
X45272147Y-41463000D01*
X45286280Y-41587823D01*
X45291332Y-41787082D01*
X45291600Y-41873523D01*
X45291600Y-41873523D01*
G36*
X45291600Y-30279022D02*
X45291429Y-31511065D01*
X45290906Y-32644499D01*
X45290012Y-33682313D01*
X45288729Y-34627499D01*
X45287037Y-35483046D01*
X45284920Y-36251945D01*
X45282359Y-36937186D01*
X45279335Y-37541760D01*
X45275830Y-38068655D01*
X45271825Y-38520864D01*
X45267304Y-38901375D01*
X45262246Y-39213179D01*
X45256635Y-39459267D01*
X45250451Y-39642628D01*
X45243676Y-39766253D01*
X45236292Y-39833132D01*
X45233046Y-39844929D01*
X45182350Y-39894864D01*
X45056103Y-39996094D01*
X44862470Y-40142913D01*
X44609614Y-40329618D01*
X44305700Y-40550503D01*
X43958892Y-40799863D01*
X43782335Y-40925791D01*
X43782335Y-33269600D01*
X43767600Y-33269600D01*
X43767600Y-27138979D01*
X43767600Y-25598800D01*
X43767456Y-25598800D01*
X43767456Y-22370973D01*
X43753821Y-21918996D01*
X43710134Y-21554602D01*
X43632575Y-21267216D01*
X43517323Y-21046265D01*
X43360556Y-20881175D01*
X43191324Y-20776636D01*
X42978047Y-20703816D01*
X42696396Y-20650865D01*
X42371634Y-20618181D01*
X42029024Y-20606166D01*
X41693827Y-20615221D01*
X41391307Y-20645745D01*
X41146725Y-20698141D01*
X41034023Y-20742423D01*
X40890595Y-20840883D01*
X40778652Y-20951646D01*
X40696223Y-21105240D01*
X40627072Y-21322759D01*
X40580970Y-21566588D01*
X40567200Y-21765900D01*
X40567200Y-21941200D01*
X40948200Y-21941200D01*
X41329200Y-21941200D01*
X41329200Y-21740832D01*
X41370906Y-21523179D01*
X41443500Y-21409291D01*
X41514998Y-21341120D01*
X41602625Y-21297548D01*
X41733848Y-21270072D01*
X41936135Y-21250186D01*
X41964200Y-21248076D01*
X42329855Y-21242157D01*
X42609057Y-21285440D01*
X42804617Y-21378601D01*
X42891435Y-21471060D01*
X42923009Y-21531276D01*
X42946233Y-21611687D01*
X42962329Y-21727481D01*
X42972520Y-21893846D01*
X42978027Y-22125971D01*
X42980074Y-22439044D01*
X42980200Y-22573965D01*
X42977957Y-22990762D01*
X42966389Y-23316779D01*
X42938235Y-23562818D01*
X42886236Y-23739678D01*
X42803131Y-23858159D01*
X42681660Y-23929061D01*
X42514563Y-23963185D01*
X42294579Y-23971331D01*
X42044858Y-23965358D01*
X41763005Y-23948698D01*
X41565680Y-23914090D01*
X41436046Y-23850523D01*
X41357269Y-23746986D01*
X41312513Y-23592469D01*
X41295525Y-23475290D01*
X41264248Y-23211200D01*
X40890324Y-23211200D01*
X40711578Y-23211933D01*
X40596253Y-23225755D01*
X40534351Y-23270099D01*
X40515874Y-23362395D01*
X40530826Y-23520077D01*
X40569209Y-23760577D01*
X40570544Y-23768793D01*
X40625794Y-24022342D01*
X40707321Y-24222564D01*
X40826072Y-24375011D01*
X40992996Y-24485234D01*
X41219041Y-24558785D01*
X41515155Y-24601215D01*
X41892288Y-24618077D01*
X42243600Y-24617148D01*
X42530067Y-24610916D01*
X42737935Y-24600495D01*
X42890203Y-24582536D01*
X43009867Y-24553689D01*
X43119925Y-24510605D01*
X43183400Y-24480270D01*
X43363540Y-24371544D01*
X43483263Y-24241596D01*
X43548401Y-24125600D01*
X43627989Y-23897492D01*
X43691092Y-23580850D01*
X43736219Y-23187627D01*
X43761877Y-22729778D01*
X43767456Y-22370973D01*
X43767456Y-25598800D01*
X43386600Y-25598800D01*
X43005600Y-25598800D01*
X43005600Y-27095009D01*
X43003615Y-27611822D01*
X42997625Y-28028730D01*
X42987570Y-28347352D01*
X42973393Y-28569309D01*
X42955037Y-28696217D01*
X42947797Y-28718081D01*
X42867339Y-28823157D01*
X42729516Y-28894410D01*
X42521114Y-28935793D01*
X42228919Y-28951262D01*
X42167400Y-28951600D01*
X41858977Y-28940311D01*
X41636690Y-28903808D01*
X41487324Y-28838136D01*
X41397663Y-28739342D01*
X41387002Y-28718081D01*
X41367204Y-28623272D01*
X41351606Y-28433969D01*
X41340149Y-28148553D01*
X41332777Y-27765404D01*
X41329430Y-27282904D01*
X41329200Y-27095009D01*
X41329200Y-25598800D01*
X40945014Y-25598800D01*
X40560828Y-25598800D01*
X40578102Y-27237100D01*
X40583584Y-27700069D01*
X40589664Y-28072743D01*
X40596985Y-28366424D01*
X40606189Y-28592417D01*
X40617918Y-28762025D01*
X40632815Y-28886552D01*
X40651523Y-28977302D01*
X40674683Y-29045579D01*
X40681801Y-29061666D01*
X40808452Y-29252064D01*
X40997350Y-29398290D01*
X41261043Y-29507591D01*
X41583200Y-29582242D01*
X41719320Y-29593552D01*
X41926637Y-29596132D01*
X42178033Y-29591217D01*
X42446388Y-29580038D01*
X42704584Y-29563829D01*
X42925502Y-29543822D01*
X43082023Y-29521251D01*
X43118322Y-29512456D01*
X43382944Y-29386027D01*
X43575895Y-29187600D01*
X43690564Y-28938567D01*
X43713751Y-28840519D01*
X43732047Y-28712371D01*
X43745949Y-28542490D01*
X43755955Y-28319245D01*
X43762564Y-28031006D01*
X43766273Y-27666139D01*
X43767580Y-27213015D01*
X43767600Y-27138979D01*
X43767600Y-33269600D01*
X43421117Y-33269600D01*
X43059899Y-33269600D01*
X43025752Y-33527013D01*
X42983374Y-33717911D01*
X42913208Y-33829643D01*
X42884302Y-33851504D01*
X42746264Y-33903294D01*
X42536850Y-33941191D01*
X42285673Y-33962415D01*
X42022347Y-33964184D01*
X41829801Y-33950523D01*
X41597368Y-33910548D01*
X41448656Y-33841372D01*
X41366303Y-33724060D01*
X41332949Y-33539674D01*
X41329200Y-33404473D01*
X41333710Y-33231599D01*
X41356400Y-33103534D01*
X41411008Y-33011684D01*
X41511272Y-32947451D01*
X41670931Y-32902241D01*
X41903724Y-32867456D01*
X42223388Y-32834501D01*
X42243141Y-32832630D01*
X42674782Y-32786332D01*
X43015386Y-32732995D01*
X43275514Y-32664591D01*
X43465723Y-32573090D01*
X43596573Y-32450465D01*
X43678623Y-32288688D01*
X43722432Y-32079729D01*
X43738558Y-31815560D01*
X43739624Y-31694800D01*
X43722953Y-31342493D01*
X43666719Y-31073889D01*
X43561178Y-30875562D01*
X43396584Y-30734089D01*
X43163192Y-30636044D01*
X42931745Y-30581932D01*
X42610632Y-30540977D01*
X42257303Y-30526553D01*
X41897431Y-30536920D01*
X41556692Y-30570337D01*
X41260758Y-30625064D01*
X41035305Y-30699359D01*
X41008732Y-30712301D01*
X40870334Y-30834080D01*
X40759123Y-31027406D01*
X40688402Y-31263179D01*
X40669915Y-31453500D01*
X40668800Y-31694800D01*
X41023432Y-31694800D01*
X41209462Y-31692810D01*
X41318023Y-31681000D01*
X41373242Y-31650603D01*
X41399242Y-31592854D01*
X41407947Y-31555100D01*
X41453977Y-31385099D01*
X41518306Y-31265310D01*
X41617050Y-31188517D01*
X41766323Y-31147502D01*
X41982238Y-31135048D01*
X42280910Y-31143936D01*
X42321338Y-31146003D01*
X42568753Y-31166219D01*
X42733568Y-31198540D01*
X42834456Y-31246916D01*
X42846722Y-31257138D01*
X42933913Y-31387288D01*
X42978794Y-31561327D01*
X42983298Y-31750538D01*
X42949356Y-31926203D01*
X42878902Y-32059607D01*
X42788719Y-32119119D01*
X42693494Y-32135155D01*
X42522539Y-32156735D01*
X42301363Y-32180856D01*
X42090729Y-32201314D01*
X41675388Y-32244425D01*
X41349481Y-32292336D01*
X41100844Y-32350569D01*
X40917313Y-32424645D01*
X40786724Y-32520086D01*
X40696912Y-32642413D01*
X40635716Y-32797147D01*
X40616219Y-32870623D01*
X40581272Y-33115152D01*
X40576381Y-33400413D01*
X40599011Y-33689433D01*
X40646628Y-33945239D01*
X40700506Y-34100078D01*
X40832129Y-34280883D01*
X41035396Y-34413563D01*
X41318786Y-34502365D01*
X41582239Y-34542040D01*
X41850491Y-34559182D01*
X42159319Y-34562639D01*
X42477821Y-34553632D01*
X42775095Y-34533381D01*
X43020243Y-34503106D01*
X43128007Y-34481013D01*
X43370930Y-34393274D01*
X43544355Y-34264948D01*
X43659744Y-34080267D01*
X43728561Y-33823458D01*
X43752843Y-33621389D01*
X43782335Y-33269600D01*
X43782335Y-40925791D01*
X43767600Y-40936301D01*
X43767600Y-39518000D01*
X43767600Y-37511400D01*
X43767600Y-35504800D01*
X42167400Y-35504800D01*
X40567200Y-35504800D01*
X40567200Y-35835000D01*
X40567200Y-36165200D01*
X41786400Y-36165200D01*
X43005600Y-36165200D01*
X43005600Y-36698600D01*
X43005600Y-37232000D01*
X41938800Y-37232000D01*
X40872000Y-37232000D01*
X40872000Y-37536800D01*
X40872000Y-37841600D01*
X41938800Y-37841600D01*
X43005600Y-37841600D01*
X43005600Y-38645933D01*
X43007637Y-38922089D01*
X43013263Y-39161709D01*
X43021747Y-39346730D01*
X43032359Y-39459089D01*
X43039466Y-39484133D01*
X43103936Y-39501169D01*
X43240481Y-39513332D01*
X43419602Y-39517999D01*
X43420466Y-39518000D01*
X43767600Y-39518000D01*
X43767600Y-40936301D01*
X43577354Y-41071994D01*
X43169250Y-41361190D01*
X42742745Y-41661746D01*
X42306002Y-41967957D01*
X41867186Y-42274119D01*
X41434461Y-42574527D01*
X41015990Y-42863476D01*
X40619939Y-43135260D01*
X40254471Y-43384175D01*
X39927750Y-43604516D01*
X39647940Y-43790577D01*
X39423206Y-43936655D01*
X39261712Y-44037044D01*
X39171622Y-44086039D01*
X39158065Y-44090000D01*
X39044636Y-44058909D01*
X39002560Y-44029039D01*
X38995476Y-44000087D01*
X38988916Y-43925866D01*
X38982863Y-43803282D01*
X38977299Y-43629242D01*
X38972210Y-43400651D01*
X38967579Y-43114416D01*
X38963389Y-42767442D01*
X38959624Y-42356635D01*
X38956267Y-41878901D01*
X38953304Y-41331146D01*
X38950716Y-40710276D01*
X38948489Y-40013197D01*
X38946605Y-39236815D01*
X38945048Y-38378035D01*
X38943802Y-37433764D01*
X38942852Y-36400907D01*
X38942179Y-35276371D01*
X38941769Y-34057061D01*
X38941604Y-32739883D01*
X38941600Y-32455860D01*
X38941658Y-31166502D01*
X38941849Y-29974879D01*
X38942199Y-28877128D01*
X38942732Y-27869385D01*
X38943475Y-26947785D01*
X38944451Y-26108464D01*
X38945686Y-25347557D01*
X38947206Y-24661202D01*
X38949036Y-24045533D01*
X38951200Y-23496687D01*
X38953725Y-23010799D01*
X38956635Y-22584004D01*
X38959955Y-22212440D01*
X38963711Y-21892242D01*
X38967928Y-21619545D01*
X38972631Y-21390485D01*
X38977845Y-21201199D01*
X38983595Y-21047822D01*
X38989908Y-20926489D01*
X38996807Y-20833337D01*
X39004319Y-20764502D01*
X39012467Y-20716119D01*
X39018327Y-20693120D01*
X39057412Y-20603058D01*
X39140868Y-20437723D01*
X39263233Y-20206692D01*
X39419045Y-19919539D01*
X39602843Y-19585838D01*
X39809165Y-19215165D01*
X40032548Y-18817096D01*
X40267531Y-18401203D01*
X40508652Y-17977064D01*
X40750450Y-17554253D01*
X40987462Y-17142344D01*
X41214227Y-16750913D01*
X41425282Y-16389535D01*
X41615167Y-16067784D01*
X41778419Y-15795236D01*
X41909577Y-15581466D01*
X42003178Y-15436048D01*
X42053761Y-15368558D01*
X42057139Y-15365848D01*
X42171658Y-15341341D01*
X42223681Y-15363842D01*
X42262820Y-15416454D01*
X42345601Y-15548275D01*
X42466525Y-15749592D01*
X42620094Y-16010689D01*
X42800807Y-16321850D01*
X43003168Y-16673360D01*
X43221676Y-17055505D01*
X43450833Y-17458569D01*
X43685141Y-17872836D01*
X43919099Y-18288592D01*
X44147210Y-18696121D01*
X44363975Y-19085708D01*
X44563894Y-19447638D01*
X44741469Y-19772196D01*
X44891202Y-20049666D01*
X45007592Y-20270333D01*
X45067427Y-20388112D01*
X45291600Y-20841625D01*
X45291600Y-30279022D01*
X45291600Y-30279022D01*
X45291600Y-30279022D01*
G37*
X45291600Y-30279022D02*
X45291429Y-31511065D01*
X45290906Y-32644499D01*
X45290012Y-33682313D01*
X45288729Y-34627499D01*
X45287037Y-35483046D01*
X45284920Y-36251945D01*
X45282359Y-36937186D01*
X45279335Y-37541760D01*
X45275830Y-38068655D01*
X45271825Y-38520864D01*
X45267304Y-38901375D01*
X45262246Y-39213179D01*
X45256635Y-39459267D01*
X45250451Y-39642628D01*
X45243676Y-39766253D01*
X45236292Y-39833132D01*
X45233046Y-39844929D01*
X45182350Y-39894864D01*
X45056103Y-39996094D01*
X44862470Y-40142913D01*
X44609614Y-40329618D01*
X44305700Y-40550503D01*
X43958892Y-40799863D01*
X43782335Y-40925791D01*
X43782335Y-33269600D01*
X43767600Y-33269600D01*
X43767600Y-27138979D01*
X43767600Y-25598800D01*
X43767456Y-25598800D01*
X43767456Y-22370973D01*
X43753821Y-21918996D01*
X43710134Y-21554602D01*
X43632575Y-21267216D01*
X43517323Y-21046265D01*
X43360556Y-20881175D01*
X43191324Y-20776636D01*
X42978047Y-20703816D01*
X42696396Y-20650865D01*
X42371634Y-20618181D01*
X42029024Y-20606166D01*
X41693827Y-20615221D01*
X41391307Y-20645745D01*
X41146725Y-20698141D01*
X41034023Y-20742423D01*
X40890595Y-20840883D01*
X40778652Y-20951646D01*
X40696223Y-21105240D01*
X40627072Y-21322759D01*
X40580970Y-21566588D01*
X40567200Y-21765900D01*
X40567200Y-21941200D01*
X40948200Y-21941200D01*
X41329200Y-21941200D01*
X41329200Y-21740832D01*
X41370906Y-21523179D01*
X41443500Y-21409291D01*
X41514998Y-21341120D01*
X41602625Y-21297548D01*
X41733848Y-21270072D01*
X41936135Y-21250186D01*
X41964200Y-21248076D01*
X42329855Y-21242157D01*
X42609057Y-21285440D01*
X42804617Y-21378601D01*
X42891435Y-21471060D01*
X42923009Y-21531276D01*
X42946233Y-21611687D01*
X42962329Y-21727481D01*
X42972520Y-21893846D01*
X42978027Y-22125971D01*
X42980074Y-22439044D01*
X42980200Y-22573965D01*
X42977957Y-22990762D01*
X42966389Y-23316779D01*
X42938235Y-23562818D01*
X42886236Y-23739678D01*
X42803131Y-23858159D01*
X42681660Y-23929061D01*
X42514563Y-23963185D01*
X42294579Y-23971331D01*
X42044858Y-23965358D01*
X41763005Y-23948698D01*
X41565680Y-23914090D01*
X41436046Y-23850523D01*
X41357269Y-23746986D01*
X41312513Y-23592469D01*
X41295525Y-23475290D01*
X41264248Y-23211200D01*
X40890324Y-23211200D01*
X40711578Y-23211933D01*
X40596253Y-23225755D01*
X40534351Y-23270099D01*
X40515874Y-23362395D01*
X40530826Y-23520077D01*
X40569209Y-23760577D01*
X40570544Y-23768793D01*
X40625794Y-24022342D01*
X40707321Y-24222564D01*
X40826072Y-24375011D01*
X40992996Y-24485234D01*
X41219041Y-24558785D01*
X41515155Y-24601215D01*
X41892288Y-24618077D01*
X42243600Y-24617148D01*
X42530067Y-24610916D01*
X42737935Y-24600495D01*
X42890203Y-24582536D01*
X43009867Y-24553689D01*
X43119925Y-24510605D01*
X43183400Y-24480270D01*
X43363540Y-24371544D01*
X43483263Y-24241596D01*
X43548401Y-24125600D01*
X43627989Y-23897492D01*
X43691092Y-23580850D01*
X43736219Y-23187627D01*
X43761877Y-22729778D01*
X43767456Y-22370973D01*
X43767456Y-25598800D01*
X43386600Y-25598800D01*
X43005600Y-25598800D01*
X43005600Y-27095009D01*
X43003615Y-27611822D01*
X42997625Y-28028730D01*
X42987570Y-28347352D01*
X42973393Y-28569309D01*
X42955037Y-28696217D01*
X42947797Y-28718081D01*
X42867339Y-28823157D01*
X42729516Y-28894410D01*
X42521114Y-28935793D01*
X42228919Y-28951262D01*
X42167400Y-28951600D01*
X41858977Y-28940311D01*
X41636690Y-28903808D01*
X41487324Y-28838136D01*
X41397663Y-28739342D01*
X41387002Y-28718081D01*
X41367204Y-28623272D01*
X41351606Y-28433969D01*
X41340149Y-28148553D01*
X41332777Y-27765404D01*
X41329430Y-27282904D01*
X41329200Y-27095009D01*
X41329200Y-25598800D01*
X40945014Y-25598800D01*
X40560828Y-25598800D01*
X40578102Y-27237100D01*
X40583584Y-27700069D01*
X40589664Y-28072743D01*
X40596985Y-28366424D01*
X40606189Y-28592417D01*
X40617918Y-28762025D01*
X40632815Y-28886552D01*
X40651523Y-28977302D01*
X40674683Y-29045579D01*
X40681801Y-29061666D01*
X40808452Y-29252064D01*
X40997350Y-29398290D01*
X41261043Y-29507591D01*
X41583200Y-29582242D01*
X41719320Y-29593552D01*
X41926637Y-29596132D01*
X42178033Y-29591217D01*
X42446388Y-29580038D01*
X42704584Y-29563829D01*
X42925502Y-29543822D01*
X43082023Y-29521251D01*
X43118322Y-29512456D01*
X43382944Y-29386027D01*
X43575895Y-29187600D01*
X43690564Y-28938567D01*
X43713751Y-28840519D01*
X43732047Y-28712371D01*
X43745949Y-28542490D01*
X43755955Y-28319245D01*
X43762564Y-28031006D01*
X43766273Y-27666139D01*
X43767580Y-27213015D01*
X43767600Y-27138979D01*
X43767600Y-33269600D01*
X43421117Y-33269600D01*
X43059899Y-33269600D01*
X43025752Y-33527013D01*
X42983374Y-33717911D01*
X42913208Y-33829643D01*
X42884302Y-33851504D01*
X42746264Y-33903294D01*
X42536850Y-33941191D01*
X42285673Y-33962415D01*
X42022347Y-33964184D01*
X41829801Y-33950523D01*
X41597368Y-33910548D01*
X41448656Y-33841372D01*
X41366303Y-33724060D01*
X41332949Y-33539674D01*
X41329200Y-33404473D01*
X41333710Y-33231599D01*
X41356400Y-33103534D01*
X41411008Y-33011684D01*
X41511272Y-32947451D01*
X41670931Y-32902241D01*
X41903724Y-32867456D01*
X42223388Y-32834501D01*
X42243141Y-32832630D01*
X42674782Y-32786332D01*
X43015386Y-32732995D01*
X43275514Y-32664591D01*
X43465723Y-32573090D01*
X43596573Y-32450465D01*
X43678623Y-32288688D01*
X43722432Y-32079729D01*
X43738558Y-31815560D01*
X43739624Y-31694800D01*
X43722953Y-31342493D01*
X43666719Y-31073889D01*
X43561178Y-30875562D01*
X43396584Y-30734089D01*
X43163192Y-30636044D01*
X42931745Y-30581932D01*
X42610632Y-30540977D01*
X42257303Y-30526553D01*
X41897431Y-30536920D01*
X41556692Y-30570337D01*
X41260758Y-30625064D01*
X41035305Y-30699359D01*
X41008732Y-30712301D01*
X40870334Y-30834080D01*
X40759123Y-31027406D01*
X40688402Y-31263179D01*
X40669915Y-31453500D01*
X40668800Y-31694800D01*
X41023432Y-31694800D01*
X41209462Y-31692810D01*
X41318023Y-31681000D01*
X41373242Y-31650603D01*
X41399242Y-31592854D01*
X41407947Y-31555100D01*
X41453977Y-31385099D01*
X41518306Y-31265310D01*
X41617050Y-31188517D01*
X41766323Y-31147502D01*
X41982238Y-31135048D01*
X42280910Y-31143936D01*
X42321338Y-31146003D01*
X42568753Y-31166219D01*
X42733568Y-31198540D01*
X42834456Y-31246916D01*
X42846722Y-31257138D01*
X42933913Y-31387288D01*
X42978794Y-31561327D01*
X42983298Y-31750538D01*
X42949356Y-31926203D01*
X42878902Y-32059607D01*
X42788719Y-32119119D01*
X42693494Y-32135155D01*
X42522539Y-32156735D01*
X42301363Y-32180856D01*
X42090729Y-32201314D01*
X41675388Y-32244425D01*
X41349481Y-32292336D01*
X41100844Y-32350569D01*
X40917313Y-32424645D01*
X40786724Y-32520086D01*
X40696912Y-32642413D01*
X40635716Y-32797147D01*
X40616219Y-32870623D01*
X40581272Y-33115152D01*
X40576381Y-33400413D01*
X40599011Y-33689433D01*
X40646628Y-33945239D01*
X40700506Y-34100078D01*
X40832129Y-34280883D01*
X41035396Y-34413563D01*
X41318786Y-34502365D01*
X41582239Y-34542040D01*
X41850491Y-34559182D01*
X42159319Y-34562639D01*
X42477821Y-34553632D01*
X42775095Y-34533381D01*
X43020243Y-34503106D01*
X43128007Y-34481013D01*
X43370930Y-34393274D01*
X43544355Y-34264948D01*
X43659744Y-34080267D01*
X43728561Y-33823458D01*
X43752843Y-33621389D01*
X43782335Y-33269600D01*
X43782335Y-40925791D01*
X43767600Y-40936301D01*
X43767600Y-39518000D01*
X43767600Y-37511400D01*
X43767600Y-35504800D01*
X42167400Y-35504800D01*
X40567200Y-35504800D01*
X40567200Y-35835000D01*
X40567200Y-36165200D01*
X41786400Y-36165200D01*
X43005600Y-36165200D01*
X43005600Y-36698600D01*
X43005600Y-37232000D01*
X41938800Y-37232000D01*
X40872000Y-37232000D01*
X40872000Y-37536800D01*
X40872000Y-37841600D01*
X41938800Y-37841600D01*
X43005600Y-37841600D01*
X43005600Y-38645933D01*
X43007637Y-38922089D01*
X43013263Y-39161709D01*
X43021747Y-39346730D01*
X43032359Y-39459089D01*
X43039466Y-39484133D01*
X43103936Y-39501169D01*
X43240481Y-39513332D01*
X43419602Y-39517999D01*
X43420466Y-39518000D01*
X43767600Y-39518000D01*
X43767600Y-40936301D01*
X43577354Y-41071994D01*
X43169250Y-41361190D01*
X42742745Y-41661746D01*
X42306002Y-41967957D01*
X41867186Y-42274119D01*
X41434461Y-42574527D01*
X41015990Y-42863476D01*
X40619939Y-43135260D01*
X40254471Y-43384175D01*
X39927750Y-43604516D01*
X39647940Y-43790577D01*
X39423206Y-43936655D01*
X39261712Y-44037044D01*
X39171622Y-44086039D01*
X39158065Y-44090000D01*
X39044636Y-44058909D01*
X39002560Y-44029039D01*
X38995476Y-44000087D01*
X38988916Y-43925866D01*
X38982863Y-43803282D01*
X38977299Y-43629242D01*
X38972210Y-43400651D01*
X38967579Y-43114416D01*
X38963389Y-42767442D01*
X38959624Y-42356635D01*
X38956267Y-41878901D01*
X38953304Y-41331146D01*
X38950716Y-40710276D01*
X38948489Y-40013197D01*
X38946605Y-39236815D01*
X38945048Y-38378035D01*
X38943802Y-37433764D01*
X38942852Y-36400907D01*
X38942179Y-35276371D01*
X38941769Y-34057061D01*
X38941604Y-32739883D01*
X38941600Y-32455860D01*
X38941658Y-31166502D01*
X38941849Y-29974879D01*
X38942199Y-28877128D01*
X38942732Y-27869385D01*
X38943475Y-26947785D01*
X38944451Y-26108464D01*
X38945686Y-25347557D01*
X38947206Y-24661202D01*
X38949036Y-24045533D01*
X38951200Y-23496687D01*
X38953725Y-23010799D01*
X38956635Y-22584004D01*
X38959955Y-22212440D01*
X38963711Y-21892242D01*
X38967928Y-21619545D01*
X38972631Y-21390485D01*
X38977845Y-21201199D01*
X38983595Y-21047822D01*
X38989908Y-20926489D01*
X38996807Y-20833337D01*
X39004319Y-20764502D01*
X39012467Y-20716119D01*
X39018327Y-20693120D01*
X39057412Y-20603058D01*
X39140868Y-20437723D01*
X39263233Y-20206692D01*
X39419045Y-19919539D01*
X39602843Y-19585838D01*
X39809165Y-19215165D01*
X40032548Y-18817096D01*
X40267531Y-18401203D01*
X40508652Y-17977064D01*
X40750450Y-17554253D01*
X40987462Y-17142344D01*
X41214227Y-16750913D01*
X41425282Y-16389535D01*
X41615167Y-16067784D01*
X41778419Y-15795236D01*
X41909577Y-15581466D01*
X42003178Y-15436048D01*
X42053761Y-15368558D01*
X42057139Y-15365848D01*
X42171658Y-15341341D01*
X42223681Y-15363842D01*
X42262820Y-15416454D01*
X42345601Y-15548275D01*
X42466525Y-15749592D01*
X42620094Y-16010689D01*
X42800807Y-16321850D01*
X43003168Y-16673360D01*
X43221676Y-17055505D01*
X43450833Y-17458569D01*
X43685141Y-17872836D01*
X43919099Y-18288592D01*
X44147210Y-18696121D01*
X44363975Y-19085708D01*
X44563894Y-19447638D01*
X44741469Y-19772196D01*
X44891202Y-20049666D01*
X45007592Y-20270333D01*
X45067427Y-20388112D01*
X45291600Y-20841625D01*
X45291600Y-30279022D01*
X45291600Y-30279022D01*
G36*
X31347000Y-37486000D02*
X31343304Y-37960491D01*
X31329759Y-38344907D01*
X31302683Y-38650588D01*
X31258391Y-38888871D01*
X31193198Y-39071096D01*
X31103421Y-39208600D01*
X30985376Y-39312723D01*
X30835378Y-39394801D01*
X30710553Y-39444792D01*
X30550121Y-39482888D01*
X30313915Y-39513565D01*
X30027557Y-39535816D01*
X29716673Y-39548632D01*
X29406884Y-39551003D01*
X29123815Y-39541921D01*
X28893089Y-39520378D01*
X28871831Y-39517177D01*
X28569085Y-39446469D01*
X28354040Y-39341664D01*
X28217051Y-39197750D01*
X28200460Y-39168319D01*
X28132223Y-38978866D01*
X28077344Y-38711216D01*
X28039162Y-38388278D01*
X28021018Y-38032960D01*
X28019983Y-37930500D01*
X28019600Y-37486000D01*
X28908600Y-37486000D01*
X29797600Y-37486000D01*
X29797600Y-37714600D01*
X29797600Y-37943200D01*
X29168524Y-37943200D01*
X28905430Y-37944304D01*
X28726631Y-37949398D01*
X28614834Y-37961150D01*
X28552743Y-37982229D01*
X28523063Y-38015304D01*
X28512995Y-38044361D01*
X28503848Y-38166334D01*
X28514444Y-38348883D01*
X28539844Y-38554026D01*
X28575106Y-38743784D01*
X28615291Y-38880175D01*
X28624157Y-38898978D01*
X28699828Y-38984962D01*
X28828466Y-39046577D01*
X29021205Y-39085838D01*
X29289178Y-39104761D01*
X29643518Y-39105361D01*
X29750057Y-39102796D01*
X30065134Y-39091564D01*
X30315819Y-39070490D01*
X30509409Y-39028953D01*
X30653198Y-38956334D01*
X30754484Y-38842014D01*
X30820563Y-38675371D01*
X30858731Y-38445787D01*
X30876283Y-38142640D01*
X30880517Y-37755312D01*
X30879608Y-37458687D01*
X30875123Y-37048113D01*
X30864162Y-36726674D01*
X30843929Y-36481972D01*
X30811626Y-36301610D01*
X30764457Y-36173190D01*
X30699624Y-36084313D01*
X30614330Y-36022583D01*
X30548728Y-35992008D01*
X30294111Y-35923140D01*
X29959165Y-35887468D01*
X29559956Y-35886097D01*
X29272810Y-35904193D01*
X28991324Y-35936027D01*
X28794905Y-35981906D01*
X28667051Y-36053324D01*
X28591261Y-36161773D01*
X28551034Y-36318749D01*
X28539487Y-36414960D01*
X28514673Y-36673200D01*
X28259899Y-36673200D01*
X28005126Y-36673200D01*
X28037937Y-36359277D01*
X28096882Y-36043558D01*
X28197616Y-35803183D01*
X28335853Y-35647214D01*
X28389734Y-35615448D01*
X28610285Y-35543439D01*
X28914557Y-35493014D01*
X29286657Y-35465782D01*
X29710688Y-35463353D01*
X29848400Y-35467814D01*
X30259118Y-35496529D01*
X30582510Y-35548855D01*
X30831261Y-35630507D01*
X31018057Y-35747197D01*
X31155582Y-35904642D01*
X31253564Y-36100826D01*
X31284657Y-36193334D01*
X31308128Y-36298278D01*
X31325001Y-36430832D01*
X31336300Y-36606169D01*
X31343048Y-36839465D01*
X31346270Y-37145894D01*
X31347000Y-37486000D01*
X31347000Y-37486000D01*
X31347000Y-37486000D01*
G37*
X31347000Y-37486000D02*
X31343304Y-37960491D01*
X31329759Y-38344907D01*
X31302683Y-38650588D01*
X31258391Y-38888871D01*
X31193198Y-39071096D01*
X31103421Y-39208600D01*
X30985376Y-39312723D01*
X30835378Y-39394801D01*
X30710553Y-39444792D01*
X30550121Y-39482888D01*
X30313915Y-39513565D01*
X30027557Y-39535816D01*
X29716673Y-39548632D01*
X29406884Y-39551003D01*
X29123815Y-39541921D01*
X28893089Y-39520378D01*
X28871831Y-39517177D01*
X28569085Y-39446469D01*
X28354040Y-39341664D01*
X28217051Y-39197750D01*
X28200460Y-39168319D01*
X28132223Y-38978866D01*
X28077344Y-38711216D01*
X28039162Y-38388278D01*
X28021018Y-38032960D01*
X28019983Y-37930500D01*
X28019600Y-37486000D01*
X28908600Y-37486000D01*
X29797600Y-37486000D01*
X29797600Y-37714600D01*
X29797600Y-37943200D01*
X29168524Y-37943200D01*
X28905430Y-37944304D01*
X28726631Y-37949398D01*
X28614834Y-37961150D01*
X28552743Y-37982229D01*
X28523063Y-38015304D01*
X28512995Y-38044361D01*
X28503848Y-38166334D01*
X28514444Y-38348883D01*
X28539844Y-38554026D01*
X28575106Y-38743784D01*
X28615291Y-38880175D01*
X28624157Y-38898978D01*
X28699828Y-38984962D01*
X28828466Y-39046577D01*
X29021205Y-39085838D01*
X29289178Y-39104761D01*
X29643518Y-39105361D01*
X29750057Y-39102796D01*
X30065134Y-39091564D01*
X30315819Y-39070490D01*
X30509409Y-39028953D01*
X30653198Y-38956334D01*
X30754484Y-38842014D01*
X30820563Y-38675371D01*
X30858731Y-38445787D01*
X30876283Y-38142640D01*
X30880517Y-37755312D01*
X30879608Y-37458687D01*
X30875123Y-37048113D01*
X30864162Y-36726674D01*
X30843929Y-36481972D01*
X30811626Y-36301610D01*
X30764457Y-36173190D01*
X30699624Y-36084313D01*
X30614330Y-36022583D01*
X30548728Y-35992008D01*
X30294111Y-35923140D01*
X29959165Y-35887468D01*
X29559956Y-35886097D01*
X29272810Y-35904193D01*
X28991324Y-35936027D01*
X28794905Y-35981906D01*
X28667051Y-36053324D01*
X28591261Y-36161773D01*
X28551034Y-36318749D01*
X28539487Y-36414960D01*
X28514673Y-36673200D01*
X28259899Y-36673200D01*
X28005126Y-36673200D01*
X28037937Y-36359277D01*
X28096882Y-36043558D01*
X28197616Y-35803183D01*
X28335853Y-35647214D01*
X28389734Y-35615448D01*
X28610285Y-35543439D01*
X28914557Y-35493014D01*
X29286657Y-35465782D01*
X29710688Y-35463353D01*
X29848400Y-35467814D01*
X30259118Y-35496529D01*
X30582510Y-35548855D01*
X30831261Y-35630507D01*
X31018057Y-35747197D01*
X31155582Y-35904642D01*
X31253564Y-36100826D01*
X31284657Y-36193334D01*
X31308128Y-36298278D01*
X31325001Y-36430832D01*
X31336300Y-36606169D01*
X31343048Y-36839465D01*
X31346270Y-37145894D01*
X31347000Y-37486000D01*
X31347000Y-37486000D01*
G36*
X21466400Y-35962000D02*
X20831400Y-35962000D01*
X20196400Y-35962000D01*
X20196400Y-37740000D01*
X20196400Y-39518000D01*
X19942400Y-39518000D01*
X19688400Y-39518000D01*
X19688400Y-37740000D01*
X19688400Y-35962000D01*
X19053400Y-35962000D01*
X18418400Y-35962000D01*
X18418400Y-35733400D01*
X18418400Y-35504800D01*
X19942400Y-35504800D01*
X21466400Y-35504800D01*
X21466400Y-35733400D01*
X21466400Y-35962000D01*
X21466400Y-35962000D01*
X21466400Y-35962000D01*
G37*
X21466400Y-35962000D02*
X20831400Y-35962000D01*
X20196400Y-35962000D01*
X20196400Y-37740000D01*
X20196400Y-39518000D01*
X19942400Y-39518000D01*
X19688400Y-39518000D01*
X19688400Y-37740000D01*
X19688400Y-35962000D01*
X19053400Y-35962000D01*
X18418400Y-35962000D01*
X18418400Y-35733400D01*
X18418400Y-35504800D01*
X19942400Y-35504800D01*
X21466400Y-35504800D01*
X21466400Y-35733400D01*
X21466400Y-35962000D01*
X21466400Y-35962000D01*
G36*
X26292400Y-39518000D02*
X26063800Y-39518000D01*
X25835200Y-39518000D01*
X25835200Y-38603600D01*
X25835200Y-37689200D01*
X24692200Y-37689200D01*
X23549200Y-37689200D01*
X23549200Y-38603600D01*
X23549200Y-39518000D01*
X23295200Y-39518000D01*
X23041200Y-39518000D01*
X23041200Y-37511400D01*
X23041200Y-35504800D01*
X23295200Y-35504800D01*
X23549200Y-35504800D01*
X23549200Y-36368400D01*
X23549200Y-37232000D01*
X24692200Y-37232000D01*
X25835200Y-37232000D01*
X25835200Y-36368400D01*
X25835200Y-35504800D01*
X26063800Y-35504800D01*
X26292400Y-35504800D01*
X26292400Y-37511400D01*
X26292400Y-39518000D01*
X26292400Y-39518000D01*
X26292400Y-39518000D01*
G37*
X26292400Y-39518000D02*
X26063800Y-39518000D01*
X25835200Y-39518000D01*
X25835200Y-38603600D01*
X25835200Y-37689200D01*
X24692200Y-37689200D01*
X23549200Y-37689200D01*
X23549200Y-38603600D01*
X23549200Y-39518000D01*
X23295200Y-39518000D01*
X23041200Y-39518000D01*
X23041200Y-37511400D01*
X23041200Y-35504800D01*
X23295200Y-35504800D01*
X23549200Y-35504800D01*
X23549200Y-36368400D01*
X23549200Y-37232000D01*
X24692200Y-37232000D01*
X25835200Y-37232000D01*
X25835200Y-36368400D01*
X25835200Y-35504800D01*
X26063800Y-35504800D01*
X26292400Y-35504800D01*
X26292400Y-37511400D01*
X26292400Y-39518000D01*
X26292400Y-39518000D01*
G36*
X33607600Y-39518000D02*
X33379000Y-39518000D01*
X33150400Y-39518000D01*
X33150400Y-37511400D01*
X33150400Y-35504800D01*
X33379000Y-35504800D01*
X33607600Y-35504800D01*
X33607600Y-37511400D01*
X33607600Y-39518000D01*
X33607600Y-39518000D01*
X33607600Y-39518000D01*
G37*
X33607600Y-39518000D02*
X33379000Y-39518000D01*
X33150400Y-39518000D01*
X33150400Y-37511400D01*
X33150400Y-35504800D01*
X33379000Y-35504800D01*
X33607600Y-35504800D01*
X33607600Y-37511400D01*
X33607600Y-39518000D01*
X33607600Y-39518000D01*
G36*
X37722400Y-39518000D02*
X36452400Y-39518000D01*
X35182400Y-39518000D01*
X35182400Y-39289400D01*
X35182400Y-39060800D01*
X36198400Y-39060800D01*
X37214400Y-39060800D01*
X37214400Y-37282800D01*
X37214400Y-35504800D01*
X37468400Y-35504800D01*
X37722400Y-35504800D01*
X37722400Y-37511400D01*
X37722400Y-39518000D01*
X37722400Y-39518000D01*
X37722400Y-39518000D01*
G37*
X37722400Y-39518000D02*
X36452400Y-39518000D01*
X35182400Y-39518000D01*
X35182400Y-39289400D01*
X35182400Y-39060800D01*
X36198400Y-39060800D01*
X37214400Y-39060800D01*
X37214400Y-37282800D01*
X37214400Y-35504800D01*
X37468400Y-35504800D01*
X37722400Y-35504800D01*
X37722400Y-37511400D01*
X37722400Y-39518000D01*
X37722400Y-39518000D01*
G36*
X26571800Y-32380600D02*
X26569086Y-32841168D01*
X26559736Y-33212923D01*
X26541938Y-33508537D01*
X26513880Y-33740682D01*
X26473749Y-33922029D01*
X26419734Y-34065252D01*
X26350021Y-34183021D01*
X26305940Y-34239629D01*
X26198557Y-34350425D01*
X26077879Y-34432893D01*
X25926902Y-34491507D01*
X25728626Y-34530742D01*
X25466048Y-34555074D01*
X25122167Y-34568977D01*
X25047800Y-34570774D01*
X24634240Y-34573230D01*
X24299511Y-34560752D01*
X24053107Y-34533771D01*
X23998410Y-34523044D01*
X23764002Y-34451680D01*
X23594480Y-34348885D01*
X23478861Y-34198664D01*
X23406165Y-33985021D01*
X23365409Y-33691961D01*
X23358025Y-33590306D01*
X23331678Y-33168000D01*
X23592839Y-33168000D01*
X23854000Y-33168000D01*
X23854000Y-33495367D01*
X23861236Y-33693683D01*
X23888826Y-33826063D01*
X23945589Y-33927516D01*
X23970633Y-33958329D01*
X24034946Y-34022432D01*
X24112070Y-34066579D01*
X24225496Y-34097803D01*
X24398717Y-34123135D01*
X24587759Y-34143064D01*
X24974405Y-34163625D01*
X25317962Y-34147597D01*
X25600849Y-34096920D01*
X25805486Y-34013535D01*
X25814701Y-34007659D01*
X25888083Y-33941750D01*
X25945598Y-33843700D01*
X25989058Y-33701999D01*
X26020271Y-33505137D01*
X26041049Y-33241605D01*
X26053201Y-32899893D01*
X26058537Y-32468491D01*
X26058597Y-32456800D01*
X26058634Y-32053765D01*
X26052518Y-31739655D01*
X26037683Y-31501855D01*
X26011561Y-31327753D01*
X25971585Y-31204735D01*
X25915185Y-31120188D01*
X25839796Y-31061499D01*
X25767342Y-31026057D01*
X25628633Y-30992299D01*
X25398003Y-30970180D01*
X25071773Y-30959416D01*
X24884111Y-30958200D01*
X24597503Y-30959171D01*
X24394349Y-30963711D01*
X24256508Y-30974262D01*
X24165840Y-30993264D01*
X24104205Y-31023158D01*
X24053462Y-31066384D01*
X24049295Y-31070526D01*
X23975129Y-31177601D01*
X23931951Y-31333282D01*
X23914778Y-31489626D01*
X23892588Y-31796400D01*
X23637326Y-31796400D01*
X23382064Y-31796400D01*
X23412164Y-31437360D01*
X23459605Y-31138326D01*
X23551840Y-30901881D01*
X23697222Y-30723201D01*
X23904104Y-30597466D01*
X24180837Y-30519853D01*
X24535776Y-30485540D01*
X24977272Y-30489707D01*
X25047800Y-30493157D01*
X25479466Y-30530080D01*
X25823291Y-30593021D01*
X26090715Y-30686429D01*
X26293180Y-30814753D01*
X26442128Y-30982441D01*
X26483914Y-31051585D01*
X26512685Y-31115722D01*
X26534529Y-31198407D01*
X26550360Y-31313439D01*
X26561089Y-31474618D01*
X26567631Y-31695745D01*
X26570897Y-31990620D01*
X26571799Y-32373044D01*
X26571800Y-32380600D01*
X26571800Y-32380600D01*
X26571800Y-32380600D01*
G37*
X26571800Y-32380600D02*
X26569086Y-32841168D01*
X26559736Y-33212923D01*
X26541938Y-33508537D01*
X26513880Y-33740682D01*
X26473749Y-33922029D01*
X26419734Y-34065252D01*
X26350021Y-34183021D01*
X26305940Y-34239629D01*
X26198557Y-34350425D01*
X26077879Y-34432893D01*
X25926902Y-34491507D01*
X25728626Y-34530742D01*
X25466048Y-34555074D01*
X25122167Y-34568977D01*
X25047800Y-34570774D01*
X24634240Y-34573230D01*
X24299511Y-34560752D01*
X24053107Y-34533771D01*
X23998410Y-34523044D01*
X23764002Y-34451680D01*
X23594480Y-34348885D01*
X23478861Y-34198664D01*
X23406165Y-33985021D01*
X23365409Y-33691961D01*
X23358025Y-33590306D01*
X23331678Y-33168000D01*
X23592839Y-33168000D01*
X23854000Y-33168000D01*
X23854000Y-33495367D01*
X23861236Y-33693683D01*
X23888826Y-33826063D01*
X23945589Y-33927516D01*
X23970633Y-33958329D01*
X24034946Y-34022432D01*
X24112070Y-34066579D01*
X24225496Y-34097803D01*
X24398717Y-34123135D01*
X24587759Y-34143064D01*
X24974405Y-34163625D01*
X25317962Y-34147597D01*
X25600849Y-34096920D01*
X25805486Y-34013535D01*
X25814701Y-34007659D01*
X25888083Y-33941750D01*
X25945598Y-33843700D01*
X25989058Y-33701999D01*
X26020271Y-33505137D01*
X26041049Y-33241605D01*
X26053201Y-32899893D01*
X26058537Y-32468491D01*
X26058597Y-32456800D01*
X26058634Y-32053765D01*
X26052518Y-31739655D01*
X26037683Y-31501855D01*
X26011561Y-31327753D01*
X25971585Y-31204735D01*
X25915185Y-31120188D01*
X25839796Y-31061499D01*
X25767342Y-31026057D01*
X25628633Y-30992299D01*
X25398003Y-30970180D01*
X25071773Y-30959416D01*
X24884111Y-30958200D01*
X24597503Y-30959171D01*
X24394349Y-30963711D01*
X24256508Y-30974262D01*
X24165840Y-30993264D01*
X24104205Y-31023158D01*
X24053462Y-31066384D01*
X24049295Y-31070526D01*
X23975129Y-31177601D01*
X23931951Y-31333282D01*
X23914778Y-31489626D01*
X23892588Y-31796400D01*
X23637326Y-31796400D01*
X23382064Y-31796400D01*
X23412164Y-31437360D01*
X23459605Y-31138326D01*
X23551840Y-30901881D01*
X23697222Y-30723201D01*
X23904104Y-30597466D01*
X24180837Y-30519853D01*
X24535776Y-30485540D01*
X24977272Y-30489707D01*
X25047800Y-30493157D01*
X25479466Y-30530080D01*
X25823291Y-30593021D01*
X26090715Y-30686429D01*
X26293180Y-30814753D01*
X26442128Y-30982441D01*
X26483914Y-31051585D01*
X26512685Y-31115722D01*
X26534529Y-31198407D01*
X26550360Y-31313439D01*
X26561089Y-31474618D01*
X26567631Y-31695745D01*
X26570897Y-31990620D01*
X26571799Y-32373044D01*
X26571800Y-32380600D01*
X26571800Y-32380600D01*
G36*
X21009200Y-34539600D02*
X19688400Y-34539600D01*
X18367600Y-34539600D01*
X18367600Y-34336400D01*
X18367600Y-34133200D01*
X19434400Y-34133200D01*
X20501200Y-34133200D01*
X20501200Y-33422000D01*
X20501200Y-32710800D01*
X19485200Y-32710800D01*
X18469200Y-32710800D01*
X18469200Y-32482200D01*
X18469200Y-32253600D01*
X19485200Y-32253600D01*
X20501200Y-32253600D01*
X20501200Y-31593200D01*
X20501200Y-30932800D01*
X19434400Y-30932800D01*
X18367600Y-30932800D01*
X18367600Y-30729600D01*
X18367600Y-30526400D01*
X19688400Y-30526400D01*
X21009200Y-30526400D01*
X21009200Y-32533000D01*
X21009200Y-34539600D01*
X21009200Y-34539600D01*
X21009200Y-34539600D01*
G37*
X21009200Y-34539600D02*
X19688400Y-34539600D01*
X18367600Y-34539600D01*
X18367600Y-34336400D01*
X18367600Y-34133200D01*
X19434400Y-34133200D01*
X20501200Y-34133200D01*
X20501200Y-33422000D01*
X20501200Y-32710800D01*
X19485200Y-32710800D01*
X18469200Y-32710800D01*
X18469200Y-32482200D01*
X18469200Y-32253600D01*
X19485200Y-32253600D01*
X20501200Y-32253600D01*
X20501200Y-31593200D01*
X20501200Y-30932800D01*
X19434400Y-30932800D01*
X18367600Y-30932800D01*
X18367600Y-30729600D01*
X18367600Y-30526400D01*
X19688400Y-30526400D01*
X21009200Y-30526400D01*
X21009200Y-32533000D01*
X21009200Y-34539600D01*
X21009200Y-34539600D01*
G36*
X32471853Y-34502472D02*
X32426380Y-34529238D01*
X32310274Y-34538751D01*
X32226723Y-34539468D01*
X31956600Y-34539336D01*
X31812739Y-34132007D01*
X31668878Y-33724679D01*
X31520246Y-33726737D01*
X31520246Y-33320400D01*
X31402206Y-33002900D01*
X31344466Y-32845574D01*
X31261536Y-32616939D01*
X31162230Y-32341423D01*
X31055364Y-32043458D01*
X30989749Y-31859767D01*
X30893053Y-31591881D01*
X30807875Y-31362103D01*
X30739985Y-31185506D01*
X30695157Y-31077161D01*
X30679587Y-31049879D01*
X30658363Y-31100117D01*
X30607786Y-31231894D01*
X30533083Y-31431217D01*
X30439483Y-31684091D01*
X30332216Y-31976522D01*
X30285679Y-32104112D01*
X30172656Y-32414168D01*
X30069842Y-32695613D01*
X29982847Y-32933135D01*
X29917285Y-33111420D01*
X29878767Y-33215155D01*
X29872523Y-33231500D01*
X29866243Y-33264284D01*
X29886296Y-33287871D01*
X29946285Y-33303760D01*
X30059812Y-33313450D01*
X30240480Y-33318441D01*
X30501892Y-33320234D01*
X30678888Y-33320400D01*
X31520246Y-33320400D01*
X31520246Y-33726737D01*
X30675585Y-33738439D01*
X29682291Y-33752200D01*
X29532454Y-34145900D01*
X29382616Y-34539600D01*
X29132908Y-34539600D01*
X28989410Y-34531776D01*
X28899117Y-34511806D01*
X28883200Y-34496810D01*
X28900490Y-34441471D01*
X28949859Y-34301286D01*
X29027553Y-34086481D01*
X29129819Y-33807283D01*
X29252905Y-33473919D01*
X29393057Y-33096613D01*
X29546523Y-32685593D01*
X29614968Y-32502910D01*
X30346737Y-30551800D01*
X30693080Y-30551800D01*
X31039424Y-30551800D01*
X31739029Y-32456800D01*
X31893177Y-32876775D01*
X32037010Y-33269099D01*
X32166603Y-33623032D01*
X32278033Y-33927840D01*
X32367376Y-34172784D01*
X32430708Y-34347129D01*
X32464104Y-34440138D01*
X32467740Y-34450700D01*
X32471853Y-34502472D01*
X32471853Y-34502472D01*
X32471853Y-34502472D01*
G37*
X32471853Y-34502472D02*
X32426380Y-34529238D01*
X32310274Y-34538751D01*
X32226723Y-34539468D01*
X31956600Y-34539336D01*
X31812739Y-34132007D01*
X31668878Y-33724679D01*
X31520246Y-33726737D01*
X31520246Y-33320400D01*
X31402206Y-33002900D01*
X31344466Y-32845574D01*
X31261536Y-32616939D01*
X31162230Y-32341423D01*
X31055364Y-32043458D01*
X30989749Y-31859767D01*
X30893053Y-31591881D01*
X30807875Y-31362103D01*
X30739985Y-31185506D01*
X30695157Y-31077161D01*
X30679587Y-31049879D01*
X30658363Y-31100117D01*
X30607786Y-31231894D01*
X30533083Y-31431217D01*
X30439483Y-31684091D01*
X30332216Y-31976522D01*
X30285679Y-32104112D01*
X30172656Y-32414168D01*
X30069842Y-32695613D01*
X29982847Y-32933135D01*
X29917285Y-33111420D01*
X29878767Y-33215155D01*
X29872523Y-33231500D01*
X29866243Y-33264284D01*
X29886296Y-33287871D01*
X29946285Y-33303760D01*
X30059812Y-33313450D01*
X30240480Y-33318441D01*
X30501892Y-33320234D01*
X30678888Y-33320400D01*
X31520246Y-33320400D01*
X31520246Y-33726737D01*
X30675585Y-33738439D01*
X29682291Y-33752200D01*
X29532454Y-34145900D01*
X29382616Y-34539600D01*
X29132908Y-34539600D01*
X28989410Y-34531776D01*
X28899117Y-34511806D01*
X28883200Y-34496810D01*
X28900490Y-34441471D01*
X28949859Y-34301286D01*
X29027553Y-34086481D01*
X29129819Y-33807283D01*
X29252905Y-33473919D01*
X29393057Y-33096613D01*
X29546523Y-32685593D01*
X29614968Y-32502910D01*
X30346737Y-30551800D01*
X30693080Y-30551800D01*
X31039424Y-30551800D01*
X31739029Y-32456800D01*
X31893177Y-32876775D01*
X32037010Y-33269099D01*
X32166603Y-33623032D01*
X32278033Y-33927840D01*
X32367376Y-34172784D01*
X32430708Y-34347129D01*
X32464104Y-34440138D01*
X32467740Y-34450700D01*
X32471853Y-34502472D01*
X32471853Y-34502472D01*
G36*
X37722400Y-34539600D02*
X37468400Y-34539600D01*
X37214400Y-34539600D01*
X37214400Y-33755279D01*
X37214400Y-32970958D01*
X37214400Y-32558400D01*
X37214400Y-31745600D01*
X37214400Y-30932800D01*
X36566700Y-30936508D01*
X36142982Y-30944595D01*
X35812183Y-30964155D01*
X35566154Y-30996258D01*
X35396747Y-31041972D01*
X35295814Y-31102369D01*
X35294659Y-31103512D01*
X35248213Y-31177686D01*
X35217064Y-31302702D01*
X35197425Y-31498267D01*
X35189953Y-31648213D01*
X35184551Y-31914319D01*
X35198872Y-32121638D01*
X35243870Y-32277633D01*
X35330499Y-32389765D01*
X35469711Y-32465494D01*
X35672460Y-32512284D01*
X35949698Y-32537595D01*
X36312380Y-32548889D01*
X36515900Y-32551481D01*
X37214400Y-32558400D01*
X37214400Y-32970958D01*
X36261900Y-32955179D01*
X35867808Y-32945820D01*
X35561250Y-32929719D01*
X35328197Y-32902847D01*
X35154619Y-32861174D01*
X35026486Y-32800669D01*
X34929768Y-32717305D01*
X34850436Y-32607050D01*
X34811907Y-32538709D01*
X34760885Y-32428827D01*
X34728047Y-32312044D01*
X34709664Y-32162552D01*
X34702009Y-31954542D01*
X34701024Y-31771000D01*
X34713142Y-31423063D01*
X34752340Y-31157237D01*
X34824036Y-30956369D01*
X34933645Y-30803307D01*
X35033931Y-30716806D01*
X35128930Y-30658176D01*
X35242701Y-30612715D01*
X35388651Y-30578846D01*
X35580190Y-30554992D01*
X35830725Y-30539577D01*
X36153664Y-30531024D01*
X36562415Y-30527756D01*
X36642900Y-30527611D01*
X37722400Y-30526400D01*
X37722400Y-32533000D01*
X37722400Y-34539600D01*
X37722400Y-34539600D01*
X37722400Y-34539600D01*
G37*
X37722400Y-34539600D02*
X37468400Y-34539600D01*
X37214400Y-34539600D01*
X37214400Y-33755279D01*
X37214400Y-32970958D01*
X37214400Y-32558400D01*
X37214400Y-31745600D01*
X37214400Y-30932800D01*
X36566700Y-30936508D01*
X36142982Y-30944595D01*
X35812183Y-30964155D01*
X35566154Y-30996258D01*
X35396747Y-31041972D01*
X35295814Y-31102369D01*
X35294659Y-31103512D01*
X35248213Y-31177686D01*
X35217064Y-31302702D01*
X35197425Y-31498267D01*
X35189953Y-31648213D01*
X35184551Y-31914319D01*
X35198872Y-32121638D01*
X35243870Y-32277633D01*
X35330499Y-32389765D01*
X35469711Y-32465494D01*
X35672460Y-32512284D01*
X35949698Y-32537595D01*
X36312380Y-32548889D01*
X36515900Y-32551481D01*
X37214400Y-32558400D01*
X37214400Y-32970958D01*
X36261900Y-32955179D01*
X35867808Y-32945820D01*
X35561250Y-32929719D01*
X35328197Y-32902847D01*
X35154619Y-32861174D01*
X35026486Y-32800669D01*
X34929768Y-32717305D01*
X34850436Y-32607050D01*
X34811907Y-32538709D01*
X34760885Y-32428827D01*
X34728047Y-32312044D01*
X34709664Y-32162552D01*
X34702009Y-31954542D01*
X34701024Y-31771000D01*
X34713142Y-31423063D01*
X34752340Y-31157237D01*
X34824036Y-30956369D01*
X34933645Y-30803307D01*
X35033931Y-30716806D01*
X35128930Y-30658176D01*
X35242701Y-30612715D01*
X35388651Y-30578846D01*
X35580190Y-30554992D01*
X35830725Y-30539577D01*
X36153664Y-30531024D01*
X36562415Y-30527756D01*
X36642900Y-30527611D01*
X37722400Y-30526400D01*
X37722400Y-32533000D01*
X37722400Y-34539600D01*
X37722400Y-34539600D01*
G36*
X5413600Y-25571245D02*
X5387530Y-25619963D01*
X5313997Y-25743073D01*
X5200013Y-25929205D01*
X5052590Y-26166992D01*
X4878741Y-26445064D01*
X4685478Y-26752052D01*
X4677000Y-26765473D01*
X3940400Y-27931386D01*
X3940400Y-28771693D01*
X3940400Y-29612000D01*
X3686400Y-29612000D01*
X3432400Y-29612000D01*
X3432400Y-28760363D01*
X3432399Y-27908726D01*
X2695799Y-26774175D01*
X2499839Y-26470689D01*
X2323496Y-26194409D01*
X2174017Y-25956943D01*
X2058647Y-25769902D01*
X1984631Y-25644898D01*
X1959199Y-25593812D01*
X2005109Y-25568599D01*
X2123414Y-25551959D01*
X2235445Y-25548000D01*
X2511690Y-25548000D01*
X3086345Y-26459000D01*
X3267904Y-26741627D01*
X3427448Y-26979856D01*
X3557747Y-27163573D01*
X3651571Y-27282662D01*
X3701687Y-27327007D01*
X3706010Y-27325849D01*
X3745956Y-27270983D01*
X3830927Y-27143911D01*
X3951913Y-26958463D01*
X4099901Y-26728471D01*
X4265879Y-26467766D01*
X4291338Y-26427549D01*
X4831656Y-25573400D01*
X5122628Y-25558164D01*
X5279070Y-25554444D01*
X5384695Y-25560491D01*
X5413600Y-25571245D01*
X5413600Y-25571245D01*
X5413600Y-25571245D01*
G37*
X5413600Y-25571245D02*
X5387530Y-25619963D01*
X5313997Y-25743073D01*
X5200013Y-25929205D01*
X5052590Y-26166992D01*
X4878741Y-26445064D01*
X4685478Y-26752052D01*
X4677000Y-26765473D01*
X3940400Y-27931386D01*
X3940400Y-28771693D01*
X3940400Y-29612000D01*
X3686400Y-29612000D01*
X3432400Y-29612000D01*
X3432400Y-28760363D01*
X3432399Y-27908726D01*
X2695799Y-26774175D01*
X2499839Y-26470689D01*
X2323496Y-26194409D01*
X2174017Y-25956943D01*
X2058647Y-25769902D01*
X1984631Y-25644898D01*
X1959199Y-25593812D01*
X2005109Y-25568599D01*
X2123414Y-25551959D01*
X2235445Y-25548000D01*
X2511690Y-25548000D01*
X3086345Y-26459000D01*
X3267904Y-26741627D01*
X3427448Y-26979856D01*
X3557747Y-27163573D01*
X3651571Y-27282662D01*
X3701687Y-27327007D01*
X3706010Y-27325849D01*
X3745956Y-27270983D01*
X3830927Y-27143911D01*
X3951913Y-26958463D01*
X4099901Y-26728471D01*
X4265879Y-26467766D01*
X4291338Y-26427549D01*
X4831656Y-25573400D01*
X5122628Y-25558164D01*
X5279070Y-25554444D01*
X5384695Y-25560491D01*
X5413600Y-25571245D01*
X5413600Y-25571245D01*
G36*
X9630000Y-26005200D02*
X8995000Y-26005200D01*
X8360000Y-26005200D01*
X8360000Y-27808600D01*
X8360000Y-29612000D01*
X8106000Y-29612000D01*
X7852000Y-29612000D01*
X7852000Y-27808600D01*
X7852000Y-26005200D01*
X7191600Y-26005200D01*
X6531200Y-26005200D01*
X6531200Y-25776600D01*
X6531200Y-25548000D01*
X8080600Y-25548000D01*
X9630000Y-25548000D01*
X9630000Y-25776600D01*
X9630000Y-26005200D01*
X9630000Y-26005200D01*
X9630000Y-26005200D01*
G37*
X9630000Y-26005200D02*
X8995000Y-26005200D01*
X8360000Y-26005200D01*
X8360000Y-27808600D01*
X8360000Y-29612000D01*
X8106000Y-29612000D01*
X7852000Y-29612000D01*
X7852000Y-27808600D01*
X7852000Y-26005200D01*
X7191600Y-26005200D01*
X6531200Y-26005200D01*
X6531200Y-25776600D01*
X6531200Y-25548000D01*
X8080600Y-25548000D01*
X9630000Y-25548000D01*
X9630000Y-25776600D01*
X9630000Y-26005200D01*
X9630000Y-26005200D01*
G36*
X11712800Y-29612000D02*
X11458800Y-29612000D01*
X11204800Y-29612000D01*
X11204800Y-27580000D01*
X11204800Y-25548000D01*
X11458800Y-25548000D01*
X11712800Y-25548000D01*
X11712800Y-27580000D01*
X11712800Y-29612000D01*
X11712800Y-29612000D01*
X11712800Y-29612000D01*
G37*
X11712800Y-29612000D02*
X11458800Y-29612000D01*
X11204800Y-29612000D01*
X11204800Y-27580000D01*
X11204800Y-25548000D01*
X11458800Y-25548000D01*
X11712800Y-25548000D01*
X11712800Y-27580000D01*
X11712800Y-29612000D01*
X11712800Y-29612000D01*
G36*
X16451864Y-28291200D02*
X16422936Y-28673692D01*
X16380541Y-28980085D01*
X16300524Y-29206683D01*
X16173725Y-29371219D01*
X16003985Y-29485000D01*
X15912644Y-29524568D01*
X15807888Y-29553157D01*
X15671013Y-29572846D01*
X15483316Y-29585719D01*
X15226092Y-29593856D01*
X14989400Y-29597923D01*
X14625531Y-29599549D01*
X14347485Y-29592332D01*
X14139789Y-29575349D01*
X13986976Y-29547674D01*
X13944105Y-29535453D01*
X13728190Y-29436730D01*
X13571188Y-29289621D01*
X13466870Y-29082101D01*
X13409004Y-28802144D01*
X13391429Y-28468664D01*
X13402049Y-28144002D01*
X13440974Y-27899364D01*
X13512699Y-27716004D01*
X13600578Y-27596694D01*
X13680495Y-27527514D01*
X13785319Y-27471600D01*
X13929480Y-27425593D01*
X14127410Y-27386136D01*
X14393539Y-27349871D01*
X14742299Y-27313439D01*
X14868351Y-27301686D01*
X15208506Y-27268259D01*
X15461240Y-27234398D01*
X15640532Y-27193219D01*
X15760355Y-27137835D01*
X15834685Y-27061361D01*
X15877499Y-26956910D01*
X15902771Y-26817598D01*
X15906285Y-26790301D01*
X15921461Y-26503770D01*
X15879822Y-26288756D01*
X15772571Y-26136027D01*
X15590909Y-26036351D01*
X15326041Y-25980495D01*
X15118888Y-25963950D01*
X14720015Y-25958094D01*
X14415605Y-25983476D01*
X14203338Y-26040420D01*
X14100400Y-26106800D01*
X14034882Y-26214502D01*
X13983014Y-26372222D01*
X13971293Y-26433338D01*
X13936463Y-26665600D01*
X13682378Y-26665600D01*
X13428293Y-26665600D01*
X13463710Y-26373500D01*
X13528293Y-26073381D01*
X13643315Y-25852111D01*
X13815773Y-25696692D01*
X13834029Y-25685679D01*
X14009489Y-25619167D01*
X14260408Y-25571144D01*
X14562293Y-25541862D01*
X14890652Y-25531573D01*
X15220993Y-25540529D01*
X15528824Y-25568981D01*
X15789654Y-25617183D01*
X15934135Y-25664062D01*
X16124948Y-25777547D01*
X16259083Y-25939741D01*
X16342626Y-26163908D01*
X16381665Y-26463309D01*
X16386400Y-26649412D01*
X16368309Y-26959764D01*
X16307897Y-27208363D01*
X16195957Y-27402315D01*
X16023279Y-27548721D01*
X15780657Y-27654687D01*
X15458880Y-27727317D01*
X15048742Y-27773714D01*
X14917087Y-27782954D01*
X14649527Y-27803728D01*
X14407957Y-27829645D01*
X14215964Y-27857676D01*
X14097132Y-27884794D01*
X14084144Y-27889876D01*
X13981484Y-27962078D01*
X13916576Y-28078320D01*
X13883476Y-28256890D01*
X13876242Y-28516076D01*
X13876416Y-28529080D01*
X13905952Y-28806256D01*
X13987101Y-29000018D01*
X14122822Y-29116144D01*
X14189942Y-29141293D01*
X14310879Y-29159328D01*
X14505503Y-29171566D01*
X14746067Y-29178025D01*
X15004825Y-29178725D01*
X15254030Y-29173684D01*
X15465936Y-29162922D01*
X15612796Y-29146458D01*
X15640447Y-29140291D01*
X15775421Y-29052229D01*
X15872106Y-28883225D01*
X15923111Y-28649124D01*
X15929200Y-28521431D01*
X15929200Y-28291200D01*
X16190532Y-28291200D01*
X16451864Y-28291200D01*
X16451864Y-28291200D01*
X16451864Y-28291200D01*
G37*
X16451864Y-28291200D02*
X16422936Y-28673692D01*
X16380541Y-28980085D01*
X16300524Y-29206683D01*
X16173725Y-29371219D01*
X16003985Y-29485000D01*
X15912644Y-29524568D01*
X15807888Y-29553157D01*
X15671013Y-29572846D01*
X15483316Y-29585719D01*
X15226092Y-29593856D01*
X14989400Y-29597923D01*
X14625531Y-29599549D01*
X14347485Y-29592332D01*
X14139789Y-29575349D01*
X13986976Y-29547674D01*
X13944105Y-29535453D01*
X13728190Y-29436730D01*
X13571188Y-29289621D01*
X13466870Y-29082101D01*
X13409004Y-28802144D01*
X13391429Y-28468664D01*
X13402049Y-28144002D01*
X13440974Y-27899364D01*
X13512699Y-27716004D01*
X13600578Y-27596694D01*
X13680495Y-27527514D01*
X13785319Y-27471600D01*
X13929480Y-27425593D01*
X14127410Y-27386136D01*
X14393539Y-27349871D01*
X14742299Y-27313439D01*
X14868351Y-27301686D01*
X15208506Y-27268259D01*
X15461240Y-27234398D01*
X15640532Y-27193219D01*
X15760355Y-27137835D01*
X15834685Y-27061361D01*
X15877499Y-26956910D01*
X15902771Y-26817598D01*
X15906285Y-26790301D01*
X15921461Y-26503770D01*
X15879822Y-26288756D01*
X15772571Y-26136027D01*
X15590909Y-26036351D01*
X15326041Y-25980495D01*
X15118888Y-25963950D01*
X14720015Y-25958094D01*
X14415605Y-25983476D01*
X14203338Y-26040420D01*
X14100400Y-26106800D01*
X14034882Y-26214502D01*
X13983014Y-26372222D01*
X13971293Y-26433338D01*
X13936463Y-26665600D01*
X13682378Y-26665600D01*
X13428293Y-26665600D01*
X13463710Y-26373500D01*
X13528293Y-26073381D01*
X13643315Y-25852111D01*
X13815773Y-25696692D01*
X13834029Y-25685679D01*
X14009489Y-25619167D01*
X14260408Y-25571144D01*
X14562293Y-25541862D01*
X14890652Y-25531573D01*
X15220993Y-25540529D01*
X15528824Y-25568981D01*
X15789654Y-25617183D01*
X15934135Y-25664062D01*
X16124948Y-25777547D01*
X16259083Y-25939741D01*
X16342626Y-26163908D01*
X16381665Y-26463309D01*
X16386400Y-26649412D01*
X16368309Y-26959764D01*
X16307897Y-27208363D01*
X16195957Y-27402315D01*
X16023279Y-27548721D01*
X15780657Y-27654687D01*
X15458880Y-27727317D01*
X15048742Y-27773714D01*
X14917087Y-27782954D01*
X14649527Y-27803728D01*
X14407957Y-27829645D01*
X14215964Y-27857676D01*
X14097132Y-27884794D01*
X14084144Y-27889876D01*
X13981484Y-27962078D01*
X13916576Y-28078320D01*
X13883476Y-28256890D01*
X13876242Y-28516076D01*
X13876416Y-28529080D01*
X13905952Y-28806256D01*
X13987101Y-29000018D01*
X14122822Y-29116144D01*
X14189942Y-29141293D01*
X14310879Y-29159328D01*
X14505503Y-29171566D01*
X14746067Y-29178025D01*
X15004825Y-29178725D01*
X15254030Y-29173684D01*
X15465936Y-29162922D01*
X15612796Y-29146458D01*
X15640447Y-29140291D01*
X15775421Y-29052229D01*
X15872106Y-28883225D01*
X15923111Y-28649124D01*
X15929200Y-28521431D01*
X15929200Y-28291200D01*
X16190532Y-28291200D01*
X16451864Y-28291200D01*
X16451864Y-28291200D01*
G36*
X21161600Y-29612000D02*
X20907600Y-29612000D01*
X20653600Y-29612000D01*
X20653600Y-28799200D01*
X20653600Y-27986400D01*
X20653600Y-27529200D01*
X20653600Y-26767200D01*
X20653600Y-26005200D01*
X19793307Y-26005200D01*
X19498672Y-26007990D01*
X19231791Y-26015709D01*
X19012606Y-26027380D01*
X18861060Y-26042027D01*
X18805795Y-26053568D01*
X18693469Y-26120784D01*
X18616655Y-26233651D01*
X18567627Y-26410306D01*
X18538659Y-26668887D01*
X18537690Y-26682935D01*
X18530073Y-26905581D01*
X18546220Y-27064013D01*
X18590585Y-27193768D01*
X18605458Y-27223693D01*
X18666845Y-27327043D01*
X18738208Y-27404060D01*
X18834619Y-27458580D01*
X18971148Y-27494439D01*
X19162865Y-27515473D01*
X19424842Y-27525520D01*
X19772149Y-27528414D01*
X19802700Y-27528451D01*
X20653600Y-27529200D01*
X20653600Y-27986400D01*
X19838277Y-27986400D01*
X19457047Y-27989520D01*
X19164922Y-28005685D01*
X18949445Y-28045101D01*
X18798160Y-28117974D01*
X18698611Y-28234512D01*
X18638343Y-28404920D01*
X18604899Y-28639404D01*
X18585824Y-28948171D01*
X18582838Y-29015100D01*
X18556853Y-29612000D01*
X18335226Y-29612000D01*
X18113600Y-29612000D01*
X18113789Y-28913500D01*
X18120269Y-28562583D01*
X18142480Y-28298321D01*
X18184902Y-28106392D01*
X18252018Y-27972473D01*
X18348309Y-27882245D01*
X18452631Y-27830642D01*
X18588416Y-27779016D01*
X18414508Y-27692208D01*
X18262003Y-27586338D01*
X18157070Y-27436306D01*
X18093624Y-27226451D01*
X18065575Y-26941108D01*
X18062878Y-26787480D01*
X18074359Y-26456329D01*
X18112126Y-26204512D01*
X18180972Y-26012060D01*
X18285688Y-25859007D01*
X18285736Y-25858952D01*
X18366674Y-25776127D01*
X18454099Y-25711024D01*
X18561180Y-25661266D01*
X18701085Y-25624480D01*
X18886982Y-25598290D01*
X19132038Y-25580321D01*
X19449421Y-25568198D01*
X19852300Y-25559546D01*
X19955100Y-25557850D01*
X21161600Y-25538633D01*
X21161600Y-27575316D01*
X21161600Y-29612000D01*
X21161600Y-29612000D01*
X21161600Y-29612000D01*
G37*
X21161600Y-29612000D02*
X20907600Y-29612000D01*
X20653600Y-29612000D01*
X20653600Y-28799200D01*
X20653600Y-27986400D01*
X20653600Y-27529200D01*
X20653600Y-26767200D01*
X20653600Y-26005200D01*
X19793307Y-26005200D01*
X19498672Y-26007990D01*
X19231791Y-26015709D01*
X19012606Y-26027380D01*
X18861060Y-26042027D01*
X18805795Y-26053568D01*
X18693469Y-26120784D01*
X18616655Y-26233651D01*
X18567627Y-26410306D01*
X18538659Y-26668887D01*
X18537690Y-26682935D01*
X18530073Y-26905581D01*
X18546220Y-27064013D01*
X18590585Y-27193768D01*
X18605458Y-27223693D01*
X18666845Y-27327043D01*
X18738208Y-27404060D01*
X18834619Y-27458580D01*
X18971148Y-27494439D01*
X19162865Y-27515473D01*
X19424842Y-27525520D01*
X19772149Y-27528414D01*
X19802700Y-27528451D01*
X20653600Y-27529200D01*
X20653600Y-27986400D01*
X19838277Y-27986400D01*
X19457047Y-27989520D01*
X19164922Y-28005685D01*
X18949445Y-28045101D01*
X18798160Y-28117974D01*
X18698611Y-28234512D01*
X18638343Y-28404920D01*
X18604899Y-28639404D01*
X18585824Y-28948171D01*
X18582838Y-29015100D01*
X18556853Y-29612000D01*
X18335226Y-29612000D01*
X18113600Y-29612000D01*
X18113789Y-28913500D01*
X18120269Y-28562583D01*
X18142480Y-28298321D01*
X18184902Y-28106392D01*
X18252018Y-27972473D01*
X18348309Y-27882245D01*
X18452631Y-27830642D01*
X18588416Y-27779016D01*
X18414508Y-27692208D01*
X18262003Y-27586338D01*
X18157070Y-27436306D01*
X18093624Y-27226451D01*
X18065575Y-26941108D01*
X18062878Y-26787480D01*
X18074359Y-26456329D01*
X18112126Y-26204512D01*
X18180972Y-26012060D01*
X18285688Y-25859007D01*
X18285736Y-25858952D01*
X18366674Y-25776127D01*
X18454099Y-25711024D01*
X18561180Y-25661266D01*
X18701085Y-25624480D01*
X18886982Y-25598290D01*
X19132038Y-25580321D01*
X19449421Y-25568198D01*
X19852300Y-25559546D01*
X19955100Y-25557850D01*
X21161600Y-25538633D01*
X21161600Y-27575316D01*
X21161600Y-29612000D01*
X21161600Y-29612000D01*
G36*
X25479600Y-29612000D02*
X24184200Y-29612000D01*
X22888800Y-29612000D01*
X22888800Y-29383400D01*
X22888800Y-29154800D01*
X23930200Y-29154800D01*
X24971600Y-29154800D01*
X24971600Y-28443600D01*
X24971600Y-27732400D01*
X23981000Y-27732400D01*
X22990400Y-27732400D01*
X22990400Y-27503800D01*
X22990400Y-27275200D01*
X23981000Y-27275200D01*
X24971600Y-27275200D01*
X24971600Y-26640200D01*
X24971600Y-26005200D01*
X23930200Y-26005200D01*
X22888800Y-26005200D01*
X22888800Y-25776600D01*
X22888800Y-25548000D01*
X24184200Y-25548000D01*
X25479600Y-25548000D01*
X25479600Y-27580000D01*
X25479600Y-29612000D01*
X25479600Y-29612000D01*
X25479600Y-29612000D01*
G37*
X25479600Y-29612000D02*
X24184200Y-29612000D01*
X22888800Y-29612000D01*
X22888800Y-29383400D01*
X22888800Y-29154800D01*
X23930200Y-29154800D01*
X24971600Y-29154800D01*
X24971600Y-28443600D01*
X24971600Y-27732400D01*
X23981000Y-27732400D01*
X22990400Y-27732400D01*
X22990400Y-27503800D01*
X22990400Y-27275200D01*
X23981000Y-27275200D01*
X24971600Y-27275200D01*
X24971600Y-26640200D01*
X24971600Y-26005200D01*
X23930200Y-26005200D01*
X22888800Y-26005200D01*
X22888800Y-25776600D01*
X22888800Y-25548000D01*
X24184200Y-25548000D01*
X25479600Y-25548000D01*
X25479600Y-27580000D01*
X25479600Y-29612000D01*
X25479600Y-29612000D01*
G36*
X30356400Y-25568807D02*
X30339881Y-25620917D01*
X30292828Y-25758006D01*
X30218995Y-25969412D01*
X30122138Y-26244477D01*
X30006012Y-26572539D01*
X29874371Y-26942937D01*
X29730971Y-27345012D01*
X29715768Y-27387562D01*
X29567692Y-27802047D01*
X29427642Y-28194319D01*
X29299971Y-28552171D01*
X29189030Y-28863394D01*
X29099170Y-29115782D01*
X29034742Y-29297126D01*
X29000100Y-29395219D01*
X28999792Y-29396100D01*
X28924449Y-29612000D01*
X28585715Y-29612000D01*
X28246981Y-29612000D01*
X27549090Y-27641120D01*
X27398519Y-27214456D01*
X27259101Y-26816616D01*
X27134409Y-26457999D01*
X27028014Y-26149004D01*
X26943487Y-25900027D01*
X26884400Y-25721469D01*
X26854324Y-25623728D01*
X26851200Y-25609120D01*
X26899611Y-25568275D01*
X27039125Y-25549175D01*
X27099764Y-25548000D01*
X27263679Y-25557870D01*
X27352140Y-25592651D01*
X27382750Y-25636900D01*
X27417296Y-25731750D01*
X27479071Y-25907029D01*
X27562922Y-26147710D01*
X27663699Y-26438767D01*
X27776249Y-26765174D01*
X27895422Y-27111906D01*
X28016067Y-27463937D01*
X28133031Y-27806242D01*
X28241164Y-28123794D01*
X28335315Y-28401569D01*
X28410331Y-28624539D01*
X28461061Y-28777680D01*
X28479963Y-28837300D01*
X28524452Y-28967205D01*
X28562562Y-29043741D01*
X28573741Y-29052466D01*
X28596819Y-29006076D01*
X28649251Y-28874373D01*
X28727112Y-28668038D01*
X28826474Y-28397752D01*
X28943411Y-28074196D01*
X29073995Y-27708051D01*
X29213400Y-27312566D01*
X29823000Y-25573400D01*
X30089700Y-25558045D01*
X30238558Y-25553951D01*
X30335367Y-25559880D01*
X30356400Y-25568807D01*
X30356400Y-25568807D01*
X30356400Y-25568807D01*
G37*
X30356400Y-25568807D02*
X30339881Y-25620917D01*
X30292828Y-25758006D01*
X30218995Y-25969412D01*
X30122138Y-26244477D01*
X30006012Y-26572539D01*
X29874371Y-26942937D01*
X29730971Y-27345012D01*
X29715768Y-27387562D01*
X29567692Y-27802047D01*
X29427642Y-28194319D01*
X29299971Y-28552171D01*
X29189030Y-28863394D01*
X29099170Y-29115782D01*
X29034742Y-29297126D01*
X29000100Y-29395219D01*
X28999792Y-29396100D01*
X28924449Y-29612000D01*
X28585715Y-29612000D01*
X28246981Y-29612000D01*
X27549090Y-27641120D01*
X27398519Y-27214456D01*
X27259101Y-26816616D01*
X27134409Y-26457999D01*
X27028014Y-26149004D01*
X26943487Y-25900027D01*
X26884400Y-25721469D01*
X26854324Y-25623728D01*
X26851200Y-25609120D01*
X26899611Y-25568275D01*
X27039125Y-25549175D01*
X27099764Y-25548000D01*
X27263679Y-25557870D01*
X27352140Y-25592651D01*
X27382750Y-25636900D01*
X27417296Y-25731750D01*
X27479071Y-25907029D01*
X27562922Y-26147710D01*
X27663699Y-26438767D01*
X27776249Y-26765174D01*
X27895422Y-27111906D01*
X28016067Y-27463937D01*
X28133031Y-27806242D01*
X28241164Y-28123794D01*
X28335315Y-28401569D01*
X28410331Y-28624539D01*
X28461061Y-28777680D01*
X28479963Y-28837300D01*
X28524452Y-28967205D01*
X28562562Y-29043741D01*
X28573741Y-29052466D01*
X28596819Y-29006076D01*
X28649251Y-28874373D01*
X28727112Y-28668038D01*
X28826474Y-28397752D01*
X28943411Y-28074196D01*
X29073995Y-27708051D01*
X29213400Y-27312566D01*
X29823000Y-25573400D01*
X30089700Y-25558045D01*
X30238558Y-25553951D01*
X30335367Y-25559880D01*
X30356400Y-25568807D01*
X30356400Y-25568807D01*
G36*
X32337600Y-29612000D02*
X32109000Y-29612000D01*
X31880400Y-29612000D01*
X31880400Y-27580000D01*
X31880400Y-25548000D01*
X32109000Y-25548000D01*
X32337600Y-25548000D01*
X32337600Y-27580000D01*
X32337600Y-29612000D01*
X32337600Y-29612000D01*
X32337600Y-29612000D01*
G37*
X32337600Y-29612000D02*
X32109000Y-29612000D01*
X31880400Y-29612000D01*
X31880400Y-27580000D01*
X31880400Y-25548000D01*
X32109000Y-25548000D01*
X32337600Y-25548000D01*
X32337600Y-27580000D01*
X32337600Y-29612000D01*
X32337600Y-29612000D01*
G36*
X37722400Y-29612000D02*
X37469058Y-29612000D01*
X37215716Y-29612000D01*
X37202358Y-27864168D01*
X37189000Y-26116336D01*
X36122200Y-27862229D01*
X35055400Y-29608122D01*
X34661700Y-29610061D01*
X34268000Y-29612000D01*
X34268000Y-27580000D01*
X34268000Y-25548000D01*
X34521341Y-25548000D01*
X34774683Y-25548000D01*
X34788041Y-27299946D01*
X34801400Y-29051892D01*
X35868200Y-27301256D01*
X36935000Y-25550621D01*
X37328700Y-25549310D01*
X37722400Y-25548000D01*
X37722400Y-27580000D01*
X37722400Y-29612000D01*
X37722400Y-29612000D01*
X37722400Y-29612000D01*
G37*
X37722400Y-29612000D02*
X37469058Y-29612000D01*
X37215716Y-29612000D01*
X37202358Y-27864168D01*
X37189000Y-26116336D01*
X36122200Y-27862229D01*
X35055400Y-29608122D01*
X34661700Y-29610061D01*
X34268000Y-29612000D01*
X34268000Y-27580000D01*
X34268000Y-25548000D01*
X34521341Y-25548000D01*
X34774683Y-25548000D01*
X34788041Y-27299946D01*
X34801400Y-29051892D01*
X35868200Y-27301256D01*
X36935000Y-25550621D01*
X37328700Y-25549310D01*
X37722400Y-25548000D01*
X37722400Y-27580000D01*
X37722400Y-29612000D01*
X37722400Y-29612000D01*
G36*
X9350600Y-22550800D02*
X9347388Y-23035354D01*
X9335413Y-23429235D01*
X9311169Y-23743230D01*
X9271146Y-23988131D01*
X9211838Y-24174726D01*
X9129736Y-24313806D01*
X9021332Y-24416160D01*
X8883118Y-24492577D01*
X8711587Y-24553847D01*
X8698063Y-24557901D01*
X8502690Y-24598406D01*
X8235365Y-24630144D01*
X7925467Y-24651730D01*
X7602374Y-24661779D01*
X7295467Y-24658906D01*
X7034123Y-24641726D01*
X7001140Y-24637888D01*
X6684428Y-24579953D01*
X6453444Y-24492254D01*
X6294867Y-24367656D01*
X6198958Y-24208121D01*
X6152647Y-24046906D01*
X6109718Y-23817365D01*
X6073490Y-23550444D01*
X6047284Y-23277091D01*
X6034420Y-23028251D01*
X6038217Y-22834871D01*
X6045525Y-22777923D01*
X6078603Y-22601600D01*
X6939901Y-22601600D01*
X7801200Y-22601600D01*
X7801200Y-22804800D01*
X7801200Y-23008000D01*
X7159829Y-23008000D01*
X6518459Y-23008000D01*
X6541184Y-23440969D01*
X6563230Y-23699745D01*
X6606832Y-23896655D01*
X6684204Y-24039376D01*
X6807557Y-24135583D01*
X6989107Y-24192954D01*
X7241066Y-24219164D01*
X7575648Y-24221889D01*
X7775800Y-24216903D01*
X8088196Y-24204993D01*
X8336173Y-24183724D01*
X8527170Y-24142346D01*
X8668624Y-24070111D01*
X8767971Y-23956269D01*
X8832651Y-23790068D01*
X8870100Y-23560761D01*
X8887755Y-23257597D01*
X8893056Y-22869826D01*
X8893400Y-22601600D01*
X8891440Y-22164759D01*
X8881366Y-21818437D01*
X8856885Y-21551569D01*
X8811702Y-21353090D01*
X8739524Y-21211935D01*
X8634058Y-21117039D01*
X8489010Y-21057338D01*
X8298087Y-21021766D01*
X8054995Y-20999259D01*
X7979000Y-20993945D01*
X7710785Y-20987233D01*
X7411199Y-20996925D01*
X7166907Y-21018532D01*
X6915952Y-21061476D01*
X6747380Y-21124272D01*
X6642041Y-21223110D01*
X6580786Y-21374177D01*
X6551255Y-21538946D01*
X6518110Y-21788800D01*
X6296055Y-21788800D01*
X6074000Y-21788800D01*
X6074000Y-21494763D01*
X6105347Y-21199955D01*
X6188300Y-20977312D01*
X6258668Y-20857432D01*
X6340745Y-20765523D01*
X6448319Y-20697926D01*
X6595181Y-20650982D01*
X6795117Y-20621032D01*
X7061918Y-20604416D01*
X7409372Y-20597476D01*
X7623400Y-20596481D01*
X7951405Y-20596574D01*
X8196224Y-20599421D01*
X8376268Y-20607049D01*
X8509948Y-20621483D01*
X8615675Y-20644750D01*
X8711860Y-20678875D01*
X8816913Y-20725886D01*
X8822330Y-20728423D01*
X8998485Y-20822279D01*
X9113359Y-20921193D01*
X9203097Y-21059050D01*
X9228730Y-21109423D01*
X9267429Y-21191739D01*
X9296932Y-21270906D01*
X9318484Y-21361661D01*
X9333332Y-21478740D01*
X9342721Y-21636878D01*
X9347898Y-21850812D01*
X9350108Y-22135277D01*
X9350597Y-22505009D01*
X9350600Y-22550800D01*
X9350600Y-22550800D01*
X9350600Y-22550800D01*
G37*
X9350600Y-22550800D02*
X9347388Y-23035354D01*
X9335413Y-23429235D01*
X9311169Y-23743230D01*
X9271146Y-23988131D01*
X9211838Y-24174726D01*
X9129736Y-24313806D01*
X9021332Y-24416160D01*
X8883118Y-24492577D01*
X8711587Y-24553847D01*
X8698063Y-24557901D01*
X8502690Y-24598406D01*
X8235365Y-24630144D01*
X7925467Y-24651730D01*
X7602374Y-24661779D01*
X7295467Y-24658906D01*
X7034123Y-24641726D01*
X7001140Y-24637888D01*
X6684428Y-24579953D01*
X6453444Y-24492254D01*
X6294867Y-24367656D01*
X6198958Y-24208121D01*
X6152647Y-24046906D01*
X6109718Y-23817365D01*
X6073490Y-23550444D01*
X6047284Y-23277091D01*
X6034420Y-23028251D01*
X6038217Y-22834871D01*
X6045525Y-22777923D01*
X6078603Y-22601600D01*
X6939901Y-22601600D01*
X7801200Y-22601600D01*
X7801200Y-22804800D01*
X7801200Y-23008000D01*
X7159829Y-23008000D01*
X6518459Y-23008000D01*
X6541184Y-23440969D01*
X6563230Y-23699745D01*
X6606832Y-23896655D01*
X6684204Y-24039376D01*
X6807557Y-24135583D01*
X6989107Y-24192954D01*
X7241066Y-24219164D01*
X7575648Y-24221889D01*
X7775800Y-24216903D01*
X8088196Y-24204993D01*
X8336173Y-24183724D01*
X8527170Y-24142346D01*
X8668624Y-24070111D01*
X8767971Y-23956269D01*
X8832651Y-23790068D01*
X8870100Y-23560761D01*
X8887755Y-23257597D01*
X8893056Y-22869826D01*
X8893400Y-22601600D01*
X8891440Y-22164759D01*
X8881366Y-21818437D01*
X8856885Y-21551569D01*
X8811702Y-21353090D01*
X8739524Y-21211935D01*
X8634058Y-21117039D01*
X8489010Y-21057338D01*
X8298087Y-21021766D01*
X8054995Y-20999259D01*
X7979000Y-20993945D01*
X7710785Y-20987233D01*
X7411199Y-20996925D01*
X7166907Y-21018532D01*
X6915952Y-21061476D01*
X6747380Y-21124272D01*
X6642041Y-21223110D01*
X6580786Y-21374177D01*
X6551255Y-21538946D01*
X6518110Y-21788800D01*
X6296055Y-21788800D01*
X6074000Y-21788800D01*
X6074000Y-21494763D01*
X6105347Y-21199955D01*
X6188300Y-20977312D01*
X6258668Y-20857432D01*
X6340745Y-20765523D01*
X6448319Y-20697926D01*
X6595181Y-20650982D01*
X6795117Y-20621032D01*
X7061918Y-20604416D01*
X7409372Y-20597476D01*
X7623400Y-20596481D01*
X7951405Y-20596574D01*
X8196224Y-20599421D01*
X8376268Y-20607049D01*
X8509948Y-20621483D01*
X8615675Y-20644750D01*
X8711860Y-20678875D01*
X8816913Y-20725886D01*
X8822330Y-20728423D01*
X8998485Y-20822279D01*
X9113359Y-20921193D01*
X9203097Y-21059050D01*
X9228730Y-21109423D01*
X9267429Y-21191739D01*
X9296932Y-21270906D01*
X9318484Y-21361661D01*
X9333332Y-21478740D01*
X9342721Y-21636878D01*
X9347898Y-21850812D01*
X9350108Y-22135277D01*
X9350597Y-22505009D01*
X9350600Y-22550800D01*
X9350600Y-22550800D01*
G36*
X4499200Y-24633600D02*
X3203800Y-24633600D01*
X1908400Y-24633600D01*
X1908400Y-24405000D01*
X1908400Y-24176400D01*
X2949800Y-24176400D01*
X3991200Y-24176400D01*
X3991200Y-23465200D01*
X3991200Y-22754000D01*
X2975200Y-22754000D01*
X1959200Y-22754000D01*
X1959200Y-22550800D01*
X1959200Y-22347600D01*
X2975200Y-22347600D01*
X3991200Y-22347600D01*
X3991200Y-21687200D01*
X3991200Y-21026800D01*
X2949800Y-21026800D01*
X1908400Y-21026800D01*
X1908400Y-20798200D01*
X1908400Y-20569600D01*
X3203800Y-20569600D01*
X4499200Y-20569600D01*
X4499200Y-22601600D01*
X4499200Y-24633600D01*
X4499200Y-24633600D01*
X4499200Y-24633600D01*
G37*
X4499200Y-24633600D02*
X3203800Y-24633600D01*
X1908400Y-24633600D01*
X1908400Y-24405000D01*
X1908400Y-24176400D01*
X2949800Y-24176400D01*
X3991200Y-24176400D01*
X3991200Y-23465200D01*
X3991200Y-22754000D01*
X2975200Y-22754000D01*
X1959200Y-22754000D01*
X1959200Y-22550800D01*
X1959200Y-22347600D01*
X2975200Y-22347600D01*
X3991200Y-22347600D01*
X3991200Y-21687200D01*
X3991200Y-21026800D01*
X2949800Y-21026800D01*
X1908400Y-21026800D01*
X1908400Y-20798200D01*
X1908400Y-20569600D01*
X3203800Y-20569600D01*
X4499200Y-20569600D01*
X4499200Y-22601600D01*
X4499200Y-24633600D01*
X4499200Y-24633600D01*
G36*
X14354400Y-24633600D02*
X13846400Y-24631291D01*
X13846400Y-24176400D01*
X13846400Y-22601600D01*
X13846400Y-21026800D01*
X13020900Y-21027083D01*
X12611840Y-21031767D01*
X12291446Y-21048551D01*
X12047063Y-21082000D01*
X11866035Y-21136682D01*
X11735709Y-21217163D01*
X11643428Y-21328010D01*
X11576540Y-21473788D01*
X11549589Y-21558016D01*
X11526753Y-21691336D01*
X11508846Y-21902743D01*
X11496155Y-22168834D01*
X11488969Y-22466202D01*
X11487574Y-22771442D01*
X11492258Y-23061148D01*
X11503309Y-23311916D01*
X11521015Y-23500339D01*
X11525376Y-23528458D01*
X11606379Y-23775883D01*
X11747510Y-23974559D01*
X11931401Y-24102045D01*
X11983712Y-24120657D01*
X12088034Y-24136633D01*
X12272881Y-24150824D01*
X12517178Y-24162164D01*
X12799853Y-24169589D01*
X12995500Y-24171818D01*
X13846400Y-24176400D01*
X13846400Y-24631291D01*
X13198700Y-24628349D01*
X12853106Y-24624561D01*
X12530217Y-24616885D01*
X12247831Y-24606068D01*
X12023747Y-24592859D01*
X11875763Y-24578005D01*
X11839800Y-24571258D01*
X11606581Y-24486724D01*
X11417047Y-24358165D01*
X11267753Y-24177048D01*
X11155258Y-23934838D01*
X11076118Y-23623002D01*
X11026891Y-23233008D01*
X11004133Y-22756323D01*
X11001600Y-22493811D01*
X11009145Y-22053253D01*
X11037230Y-21684873D01*
X11094025Y-21382323D01*
X11187704Y-21139255D01*
X11326436Y-20949321D01*
X11518395Y-20806172D01*
X11771752Y-20703462D01*
X12094679Y-20634840D01*
X12495347Y-20593961D01*
X12981928Y-20574474D01*
X13478100Y-20569985D01*
X14354400Y-20569600D01*
X14354400Y-22601600D01*
X14354400Y-24633600D01*
X14354400Y-24633600D01*
X14354400Y-24633600D01*
G37*
X14354400Y-24633600D02*
X13846400Y-24631291D01*
X13846400Y-24176400D01*
X13846400Y-22601600D01*
X13846400Y-21026800D01*
X13020900Y-21027083D01*
X12611840Y-21031767D01*
X12291446Y-21048551D01*
X12047063Y-21082000D01*
X11866035Y-21136682D01*
X11735709Y-21217163D01*
X11643428Y-21328010D01*
X11576540Y-21473788D01*
X11549589Y-21558016D01*
X11526753Y-21691336D01*
X11508846Y-21902743D01*
X11496155Y-22168834D01*
X11488969Y-22466202D01*
X11487574Y-22771442D01*
X11492258Y-23061148D01*
X11503309Y-23311916D01*
X11521015Y-23500339D01*
X11525376Y-23528458D01*
X11606379Y-23775883D01*
X11747510Y-23974559D01*
X11931401Y-24102045D01*
X11983712Y-24120657D01*
X12088034Y-24136633D01*
X12272881Y-24150824D01*
X12517178Y-24162164D01*
X12799853Y-24169589D01*
X12995500Y-24171818D01*
X13846400Y-24176400D01*
X13846400Y-24631291D01*
X13198700Y-24628349D01*
X12853106Y-24624561D01*
X12530217Y-24616885D01*
X12247831Y-24606068D01*
X12023747Y-24592859D01*
X11875763Y-24578005D01*
X11839800Y-24571258D01*
X11606581Y-24486724D01*
X11417047Y-24358165D01*
X11267753Y-24177048D01*
X11155258Y-23934838D01*
X11076118Y-23623002D01*
X11026891Y-23233008D01*
X11004133Y-22756323D01*
X11001600Y-22493811D01*
X11009145Y-22053253D01*
X11037230Y-21684873D01*
X11094025Y-21382323D01*
X11187704Y-21139255D01*
X11326436Y-20949321D01*
X11518395Y-20806172D01*
X11771752Y-20703462D01*
X12094679Y-20634840D01*
X12495347Y-20593961D01*
X12981928Y-20574474D01*
X13478100Y-20569985D01*
X14354400Y-20569600D01*
X14354400Y-22601600D01*
X14354400Y-24633600D01*
X14354400Y-24633600D01*
G36*
X16742000Y-24633600D02*
X16488000Y-24633600D01*
X16234000Y-24633600D01*
X16234000Y-22601600D01*
X16234000Y-20569600D01*
X16488000Y-20569600D01*
X16742000Y-20569600D01*
X16742000Y-22601600D01*
X16742000Y-24633600D01*
X16742000Y-24633600D01*
X16742000Y-24633600D01*
G37*
X16742000Y-24633600D02*
X16488000Y-24633600D01*
X16234000Y-24633600D01*
X16234000Y-22601600D01*
X16234000Y-20569600D01*
X16488000Y-20569600D01*
X16742000Y-20569600D01*
X16742000Y-22601600D01*
X16742000Y-24633600D01*
X16742000Y-24633600D01*
G36*
X21669600Y-24633600D02*
X21415600Y-24633600D01*
X21161600Y-24633600D01*
X21161600Y-23816518D01*
X21161600Y-22999436D01*
X21161600Y-22601600D01*
X21161600Y-21810086D01*
X21161600Y-21018572D01*
X20242713Y-21035386D01*
X19323827Y-21052200D01*
X19205585Y-21189766D01*
X19122280Y-21343332D01*
X19064789Y-21559367D01*
X19038080Y-21800902D01*
X19047125Y-22030966D01*
X19075279Y-22159131D01*
X19131912Y-22293350D01*
X19210738Y-22397027D01*
X19324447Y-22474081D01*
X19485731Y-22528432D01*
X19707281Y-22563999D01*
X20001789Y-22584703D01*
X20381945Y-22594464D01*
X20488500Y-22595624D01*
X21161600Y-22601600D01*
X21161600Y-22999436D01*
X20293745Y-23016418D01*
X19425891Y-23033400D01*
X19277745Y-23199301D01*
X19216283Y-23271344D01*
X19174718Y-23338640D01*
X19149157Y-23422202D01*
X19135711Y-23543044D01*
X19130489Y-23722178D01*
X19129600Y-23980619D01*
X19129600Y-23999401D01*
X19129600Y-24633600D01*
X18875600Y-24633600D01*
X18621600Y-24633600D01*
X18621600Y-23968177D01*
X18627701Y-23621511D01*
X18648895Y-23360792D01*
X18689515Y-23170937D01*
X18753895Y-23036864D01*
X18846370Y-22943491D01*
X18930204Y-22894238D01*
X19079196Y-22822078D01*
X18888585Y-22698730D01*
X18750069Y-22582981D01*
X18655526Y-22434262D01*
X18599731Y-22235390D01*
X18577460Y-21969180D01*
X18580647Y-21685951D01*
X18603725Y-21372802D01*
X18652337Y-21140117D01*
X18736228Y-20967997D01*
X18865142Y-20836540D01*
X19048825Y-20725847D01*
X19051426Y-20724551D01*
X19135883Y-20684724D01*
X19218459Y-20654077D01*
X19314050Y-20631095D01*
X19437551Y-20614259D01*
X19603856Y-20602053D01*
X19827860Y-20592959D01*
X20124457Y-20585460D01*
X20485674Y-20578456D01*
X21669600Y-20556810D01*
X21669600Y-22595205D01*
X21669600Y-24633600D01*
X21669600Y-24633600D01*
X21669600Y-24633600D01*
G37*
X21669600Y-24633600D02*
X21415600Y-24633600D01*
X21161600Y-24633600D01*
X21161600Y-23816518D01*
X21161600Y-22999436D01*
X21161600Y-22601600D01*
X21161600Y-21810086D01*
X21161600Y-21018572D01*
X20242713Y-21035386D01*
X19323827Y-21052200D01*
X19205585Y-21189766D01*
X19122280Y-21343332D01*
X19064789Y-21559367D01*
X19038080Y-21800902D01*
X19047125Y-22030966D01*
X19075279Y-22159131D01*
X19131912Y-22293350D01*
X19210738Y-22397027D01*
X19324447Y-22474081D01*
X19485731Y-22528432D01*
X19707281Y-22563999D01*
X20001789Y-22584703D01*
X20381945Y-22594464D01*
X20488500Y-22595624D01*
X21161600Y-22601600D01*
X21161600Y-22999436D01*
X20293745Y-23016418D01*
X19425891Y-23033400D01*
X19277745Y-23199301D01*
X19216283Y-23271344D01*
X19174718Y-23338640D01*
X19149157Y-23422202D01*
X19135711Y-23543044D01*
X19130489Y-23722178D01*
X19129600Y-23980619D01*
X19129600Y-23999401D01*
X19129600Y-24633600D01*
X18875600Y-24633600D01*
X18621600Y-24633600D01*
X18621600Y-23968177D01*
X18627701Y-23621511D01*
X18648895Y-23360792D01*
X18689515Y-23170937D01*
X18753895Y-23036864D01*
X18846370Y-22943491D01*
X18930204Y-22894238D01*
X19079196Y-22822078D01*
X18888585Y-22698730D01*
X18750069Y-22582981D01*
X18655526Y-22434262D01*
X18599731Y-22235390D01*
X18577460Y-21969180D01*
X18580647Y-21685951D01*
X18603725Y-21372802D01*
X18652337Y-21140117D01*
X18736228Y-20967997D01*
X18865142Y-20836540D01*
X19048825Y-20725847D01*
X19051426Y-20724551D01*
X19135883Y-20684724D01*
X19218459Y-20654077D01*
X19314050Y-20631095D01*
X19437551Y-20614259D01*
X19603856Y-20602053D01*
X19827860Y-20592959D01*
X20124457Y-20585460D01*
X20485674Y-20578456D01*
X21669600Y-20556810D01*
X21669600Y-22595205D01*
X21669600Y-24633600D01*
X21669600Y-24633600D01*
G36*
X26546400Y-24633600D02*
X26038400Y-24631262D01*
X26038400Y-24176400D01*
X26038400Y-23457204D01*
X26038400Y-22738008D01*
X26038400Y-22347600D01*
X26038400Y-21687200D01*
X26038400Y-21026800D01*
X25249368Y-21026800D01*
X24865073Y-21030266D01*
X24570968Y-21045370D01*
X24355747Y-21079173D01*
X24208104Y-21138732D01*
X24116732Y-21231109D01*
X24070325Y-21363361D01*
X24057577Y-21542549D01*
X24066513Y-21765339D01*
X24084252Y-21944824D01*
X24119884Y-22082300D01*
X24185687Y-22183446D01*
X24293939Y-22253938D01*
X24456919Y-22299455D01*
X24686905Y-22325674D01*
X24996177Y-22338272D01*
X25314500Y-22342400D01*
X26038400Y-22347600D01*
X26038400Y-22738008D01*
X25180779Y-22770387D01*
X24886361Y-22784078D01*
X24619434Y-22801279D01*
X24400053Y-22820330D01*
X24248271Y-22839569D01*
X24193268Y-22852152D01*
X24071575Y-22927162D01*
X23993881Y-23052641D01*
X23953017Y-23245879D01*
X23942057Y-23458074D01*
X23943607Y-23681180D01*
X23962090Y-23852257D01*
X24009309Y-23978233D01*
X24097067Y-24066039D01*
X24237167Y-24122605D01*
X24441413Y-24154859D01*
X24721607Y-24169732D01*
X25089554Y-24174154D01*
X25162100Y-24174366D01*
X26038400Y-24176400D01*
X26038400Y-24631262D01*
X25416100Y-24628400D01*
X25078028Y-24625253D01*
X24766237Y-24619366D01*
X24497850Y-24611299D01*
X24289996Y-24601612D01*
X24159801Y-24590867D01*
X24133400Y-24586421D01*
X23871133Y-24487867D01*
X23676203Y-24330624D01*
X23543869Y-24106921D01*
X23469388Y-23808988D01*
X23447883Y-23463263D01*
X23480833Y-23144036D01*
X23575838Y-22878040D01*
X23726260Y-22679846D01*
X23841756Y-22598800D01*
X24007312Y-22512282D01*
X23880913Y-22429462D01*
X23738079Y-22301490D01*
X23644366Y-22128102D01*
X23593597Y-21892004D01*
X23579544Y-21585600D01*
X23597457Y-21267484D01*
X23651903Y-21030195D01*
X23748503Y-20857774D01*
X23875534Y-20745261D01*
X24013536Y-20691382D01*
X24244903Y-20646463D01*
X24561735Y-20611250D01*
X24956131Y-20586492D01*
X25420187Y-20572938D01*
X25720900Y-20570502D01*
X26546400Y-20569600D01*
X26546400Y-22601600D01*
X26546400Y-24633600D01*
X26546400Y-24633600D01*
X26546400Y-24633600D01*
G37*
X26546400Y-24633600D02*
X26038400Y-24631262D01*
X26038400Y-24176400D01*
X26038400Y-23457204D01*
X26038400Y-22738008D01*
X26038400Y-22347600D01*
X26038400Y-21687200D01*
X26038400Y-21026800D01*
X25249368Y-21026800D01*
X24865073Y-21030266D01*
X24570968Y-21045370D01*
X24355747Y-21079173D01*
X24208104Y-21138732D01*
X24116732Y-21231109D01*
X24070325Y-21363361D01*
X24057577Y-21542549D01*
X24066513Y-21765339D01*
X24084252Y-21944824D01*
X24119884Y-22082300D01*
X24185687Y-22183446D01*
X24293939Y-22253938D01*
X24456919Y-22299455D01*
X24686905Y-22325674D01*
X24996177Y-22338272D01*
X25314500Y-22342400D01*
X26038400Y-22347600D01*
X26038400Y-22738008D01*
X25180779Y-22770387D01*
X24886361Y-22784078D01*
X24619434Y-22801279D01*
X24400053Y-22820330D01*
X24248271Y-22839569D01*
X24193268Y-22852152D01*
X24071575Y-22927162D01*
X23993881Y-23052641D01*
X23953017Y-23245879D01*
X23942057Y-23458074D01*
X23943607Y-23681180D01*
X23962090Y-23852257D01*
X24009309Y-23978233D01*
X24097067Y-24066039D01*
X24237167Y-24122605D01*
X24441413Y-24154859D01*
X24721607Y-24169732D01*
X25089554Y-24174154D01*
X25162100Y-24174366D01*
X26038400Y-24176400D01*
X26038400Y-24631262D01*
X25416100Y-24628400D01*
X25078028Y-24625253D01*
X24766237Y-24619366D01*
X24497850Y-24611299D01*
X24289996Y-24601612D01*
X24159801Y-24590867D01*
X24133400Y-24586421D01*
X23871133Y-24487867D01*
X23676203Y-24330624D01*
X23543869Y-24106921D01*
X23469388Y-23808988D01*
X23447883Y-23463263D01*
X23480833Y-23144036D01*
X23575838Y-22878040D01*
X23726260Y-22679846D01*
X23841756Y-22598800D01*
X24007312Y-22512282D01*
X23880913Y-22429462D01*
X23738079Y-22301490D01*
X23644366Y-22128102D01*
X23593597Y-21892004D01*
X23579544Y-21585600D01*
X23597457Y-21267484D01*
X23651903Y-21030195D01*
X23748503Y-20857774D01*
X23875534Y-20745261D01*
X24013536Y-20691382D01*
X24244903Y-20646463D01*
X24561735Y-20611250D01*
X24956131Y-20586492D01*
X25420187Y-20572938D01*
X25720900Y-20570502D01*
X26546400Y-20569600D01*
X26546400Y-22601600D01*
X26546400Y-24633600D01*
X26546400Y-24633600D01*
G36*
X32896400Y-24633600D02*
X32643066Y-24633600D01*
X32389733Y-24633600D01*
X32376366Y-22900076D01*
X32363000Y-21166552D01*
X31647194Y-22887376D01*
X30931388Y-24608200D01*
X30679786Y-24623190D01*
X30428185Y-24638181D01*
X29707860Y-22895990D01*
X28987534Y-21153800D01*
X28986167Y-22893700D01*
X28984800Y-24633600D01*
X28730800Y-24633600D01*
X28476800Y-24633600D01*
X28476800Y-22599545D01*
X28476800Y-20565491D01*
X28889665Y-20580245D01*
X29302530Y-20595000D01*
X29972200Y-22232101D01*
X30129322Y-22615251D01*
X30274693Y-22967912D01*
X30403767Y-23279195D01*
X30511998Y-23538214D01*
X30594840Y-23734081D01*
X30647747Y-23855909D01*
X30665745Y-23893078D01*
X30689871Y-23853467D01*
X30747856Y-23730171D01*
X30835201Y-23533588D01*
X30947405Y-23274113D01*
X31079970Y-22962142D01*
X31228396Y-22608072D01*
X31374307Y-22255976D01*
X32058995Y-20595000D01*
X32477697Y-20580245D01*
X32896400Y-20565491D01*
X32896400Y-22599545D01*
X32896400Y-24633600D01*
X32896400Y-24633600D01*
X32896400Y-24633600D01*
G37*
X32896400Y-24633600D02*
X32643066Y-24633600D01*
X32389733Y-24633600D01*
X32376366Y-22900076D01*
X32363000Y-21166552D01*
X31647194Y-22887376D01*
X30931388Y-24608200D01*
X30679786Y-24623190D01*
X30428185Y-24638181D01*
X29707860Y-22895990D01*
X28987534Y-21153800D01*
X28986167Y-22893700D01*
X28984800Y-24633600D01*
X28730800Y-24633600D01*
X28476800Y-24633600D01*
X28476800Y-22599545D01*
X28476800Y-20565491D01*
X28889665Y-20580245D01*
X29302530Y-20595000D01*
X29972200Y-22232101D01*
X30129322Y-22615251D01*
X30274693Y-22967912D01*
X30403767Y-23279195D01*
X30511998Y-23538214D01*
X30594840Y-23734081D01*
X30647747Y-23855909D01*
X30665745Y-23893078D01*
X30689871Y-23853467D01*
X30747856Y-23730171D01*
X30835201Y-23533588D01*
X30947405Y-23274113D01*
X31079970Y-22962142D01*
X31228396Y-22608072D01*
X31374307Y-22255976D01*
X32058995Y-20595000D01*
X32477697Y-20580245D01*
X32896400Y-20565491D01*
X32896400Y-22599545D01*
X32896400Y-24633600D01*
X32896400Y-24633600D01*
G36*
X38078000Y-24616871D02*
X38032131Y-24626189D01*
X37914235Y-24632262D01*
X37809195Y-24633600D01*
X37540391Y-24633600D01*
X37390354Y-24200767D01*
X37240318Y-23767935D01*
X37111317Y-23769731D01*
X37111317Y-23414400D01*
X37017315Y-23173100D01*
X36969988Y-23047234D01*
X36896350Y-22846051D01*
X36803822Y-22590071D01*
X36699825Y-22299812D01*
X36603290Y-22028306D01*
X36501826Y-21748825D01*
X36409887Y-21508682D01*
X36333226Y-21321857D01*
X36277596Y-21202330D01*
X36248747Y-21164082D01*
X36247968Y-21164706D01*
X36222365Y-21220625D01*
X36168823Y-21355553D01*
X36093461Y-21552776D01*
X36002399Y-21795582D01*
X35901753Y-22067256D01*
X35797644Y-22351086D01*
X35696190Y-22630358D01*
X35603509Y-22888359D01*
X35525720Y-23108376D01*
X35468942Y-23273695D01*
X35439293Y-23367604D01*
X35436400Y-23381541D01*
X35484406Y-23392481D01*
X35617259Y-23401878D01*
X35818208Y-23409074D01*
X36070505Y-23413414D01*
X36273858Y-23414400D01*
X37111317Y-23414400D01*
X37111317Y-23769731D01*
X36254165Y-23781667D01*
X35268012Y-23795400D01*
X35112040Y-24214500D01*
X34956068Y-24633600D01*
X34688947Y-24633600D01*
X34421825Y-24633600D01*
X34530788Y-24341500D01*
X34573977Y-24225942D01*
X34647925Y-24028335D01*
X34747730Y-23761766D01*
X34868492Y-23439321D01*
X35005310Y-23074086D01*
X35153282Y-22679150D01*
X35287043Y-22322200D01*
X35934336Y-20595000D01*
X36262510Y-20580139D01*
X36440578Y-20574560D01*
X36544447Y-20584112D01*
X36601329Y-20617767D01*
X36638439Y-20684498D01*
X36647711Y-20707139D01*
X36679565Y-20790509D01*
X36739892Y-20952231D01*
X36824212Y-21180063D01*
X36928047Y-21461762D01*
X37046920Y-21785086D01*
X37176350Y-22137794D01*
X37311860Y-22507642D01*
X37448971Y-22882389D01*
X37583204Y-23249792D01*
X37710081Y-23597610D01*
X37825124Y-23913599D01*
X37923854Y-24185518D01*
X38001791Y-24401124D01*
X38054459Y-24548176D01*
X38077378Y-24614431D01*
X38078000Y-24616871D01*
X38078000Y-24616871D01*
X38078000Y-24616871D01*
G37*
X38078000Y-24616871D02*
X38032131Y-24626189D01*
X37914235Y-24632262D01*
X37809195Y-24633600D01*
X37540391Y-24633600D01*
X37390354Y-24200767D01*
X37240318Y-23767935D01*
X37111317Y-23769731D01*
X37111317Y-23414400D01*
X37017315Y-23173100D01*
X36969988Y-23047234D01*
X36896350Y-22846051D01*
X36803822Y-22590071D01*
X36699825Y-22299812D01*
X36603290Y-22028306D01*
X36501826Y-21748825D01*
X36409887Y-21508682D01*
X36333226Y-21321857D01*
X36277596Y-21202330D01*
X36248747Y-21164082D01*
X36247968Y-21164706D01*
X36222365Y-21220625D01*
X36168823Y-21355553D01*
X36093461Y-21552776D01*
X36002399Y-21795582D01*
X35901753Y-22067256D01*
X35797644Y-22351086D01*
X35696190Y-22630358D01*
X35603509Y-22888359D01*
X35525720Y-23108376D01*
X35468942Y-23273695D01*
X35439293Y-23367604D01*
X35436400Y-23381541D01*
X35484406Y-23392481D01*
X35617259Y-23401878D01*
X35818208Y-23409074D01*
X36070505Y-23413414D01*
X36273858Y-23414400D01*
X37111317Y-23414400D01*
X37111317Y-23769731D01*
X36254165Y-23781667D01*
X35268012Y-23795400D01*
X35112040Y-24214500D01*
X34956068Y-24633600D01*
X34688947Y-24633600D01*
X34421825Y-24633600D01*
X34530788Y-24341500D01*
X34573977Y-24225942D01*
X34647925Y-24028335D01*
X34747730Y-23761766D01*
X34868492Y-23439321D01*
X35005310Y-23074086D01*
X35153282Y-22679150D01*
X35287043Y-22322200D01*
X35934336Y-20595000D01*
X36262510Y-20580139D01*
X36440578Y-20574560D01*
X36544447Y-20584112D01*
X36601329Y-20617767D01*
X36638439Y-20684498D01*
X36647711Y-20707139D01*
X36679565Y-20790509D01*
X36739892Y-20952231D01*
X36824212Y-21180063D01*
X36928047Y-21461762D01*
X37046920Y-21785086D01*
X37176350Y-22137794D01*
X37311860Y-22507642D01*
X37448971Y-22882389D01*
X37583204Y-23249792D01*
X37710081Y-23597610D01*
X37825124Y-23913599D01*
X37923854Y-24185518D01*
X38001791Y-24401124D01*
X38054459Y-24548176D01*
X38077378Y-24614431D01*
X38078000Y-24616871D01*
X38078000Y-24616871D01*
%LPC*%
D12*
X45600000Y-40600000D03*
X43600000Y-40600000D03*
X27100000Y-40100000D03*
X27100000Y-42100000D03*
X27100000Y-44100000D03*
X27100000Y-46100000D03*
X27100000Y-48100000D03*
X27100000Y-50100000D03*
D13*
X3730000Y-34500000D03*
X5000000Y-34500000D03*
X3730000Y-35770000D03*
X5000000Y-35770000D03*
X3730000Y-37040000D03*
X5000000Y-37040000D03*
X3730000Y-38310000D03*
X5000000Y-38310000D03*
X3730000Y-39580000D03*
X5000000Y-39580000D03*
D14*
X7200000Y-46000000D03*
X7200000Y-50880000D03*
D15*
X26000000Y-8250000D03*
X28000000Y-8250000D03*
X30000000Y-8250000D03*
X32000000Y-8250000D03*
D16*
X24500000Y-6150000D03*
X33500000Y-6150000D03*
D15*
X10000000Y-66750000D03*
X8000000Y-66750000D03*
X6000000Y-66750000D03*
X4000000Y-66750000D03*
D16*
X11500000Y-68850000D03*
X2500000Y-68850000D03*
D15*
X22000000Y-66750000D03*
X20000000Y-66750000D03*
X18000000Y-66750000D03*
X16000000Y-66750000D03*
D16*
X23500000Y-68850000D03*
X14500000Y-68850000D03*
D15*
X46000000Y-66750000D03*
X44000000Y-66750000D03*
D16*
X47500000Y-68850000D03*
X42500000Y-68850000D03*
D15*
X30000000Y-66750000D03*
X28000000Y-66750000D03*
D16*
X31500000Y-68850000D03*
X26500000Y-68850000D03*
D15*
X38000000Y-66750000D03*
X36000000Y-66750000D03*
D16*
X39500000Y-68850000D03*
X34500000Y-68850000D03*
D17*
X45000000Y-58000000D03*
X5000000Y-15000000D03*
X45000000Y-15000000D03*
X5000000Y-58000000D03*
M02*
