%FSLAX46Y46*%
G04 Gerber Fmt 4.6, Leading zero omitted, Abs format (unit mm)*
G04 Created by KiCad (PCBNEW (2014-jul-16 BZR unknown)-product) date Thu 24 Jul 2014 13:20:02 BST*
%MOMM*%
G01*
G04 APERTURE LIST*
%ADD10C,0.100000*%
%ADD11C,0.300000*%
%ADD12C,0.200000*%
%ADD13C,0.150000*%
%ADD14C,1.000000*%
%ADD15C,0.600000*%
%ADD16C,0.500000*%
%ADD17R,0.800000X0.700000*%
%ADD18R,0.700000X0.800000*%
%ADD19R,0.600000X0.600000*%
%ADD20R,1.200000X1.700000*%
%ADD21R,0.800000X0.800000*%
%ADD22R,0.400000X1.400000*%
%ADD23R,0.600000X2.200000*%
%ADD24R,1.800000X0.700000*%
%ADD25R,1.800000X0.800000*%
%ADD26R,0.300000X1.200000*%
%ADD27R,1.200000X0.300000*%
%ADD28R,0.640000X1.020000*%
%ADD29R,1.020000X0.640000*%
%ADD30R,0.660000X0.360000*%
%ADD31C,1.016000*%
%ADD32R,0.500000X0.600000*%
%ADD33C,1.400000*%
%ADD34C,1.500000*%
%ADD35C,1.100000*%
%ADD36R,1.300000X2.400000*%
%ADD37R,3.800000X2.400000*%
%ADD38R,1.000000X1.000000*%
%ADD39C,1.000000*%
%ADD40R,1.900000X0.900000*%
%ADD41R,1.300000X0.900000*%
%ADD42R,3.500000X1.800000*%
%ADD43C,0.300000*%
%ADD44R,0.600000X0.500000*%
%ADD45C,3.300000*%
%ADD46R,2.286000X5.080000*%
%ADD47R,2.413000X5.080000*%
%ADD48R,0.800000X5.000000*%
%ADD49R,4.650000X5.000000*%
%ADD50R,0.300000X0.300000*%
%ADD51R,0.600000X0.350000*%
%ADD52R,1.700000X1.600000*%
%ADD53R,0.350000X0.600000*%
G04 APERTURE END LIST*
D10*
D11*
X29878572Y-56078571D02*
X29878572Y-55078571D01*
X29878572Y-55364286D02*
X29950000Y-55221429D01*
X30021429Y-55150000D01*
X30164286Y-55078571D01*
X30307143Y-55078571D01*
X31592857Y-56078571D02*
X30735714Y-56078571D01*
X31164286Y-56078571D02*
X31164286Y-54578571D01*
X31021429Y-54792857D01*
X30878571Y-54935714D01*
X30735714Y-55007143D01*
D12*
X3016228Y-33900000D02*
G75*
G03X3016228Y-33900000I-316228J0D01*
G74*
G01*
X2841421Y-33900000D02*
G75*
G03X2841421Y-33900000I-141421J0D01*
G74*
G01*
D11*
X32414286Y-13478571D02*
X31914286Y-12764286D01*
X31557143Y-13478571D02*
X31557143Y-11978571D01*
X32128571Y-11978571D01*
X32271429Y-12050000D01*
X32342857Y-12121429D01*
X32414286Y-12264286D01*
X32414286Y-12478571D01*
X32342857Y-12621429D01*
X32271429Y-12692857D01*
X32128571Y-12764286D01*
X31557143Y-12764286D01*
X33557143Y-12692857D02*
X33771429Y-12764286D01*
X33842857Y-12835714D01*
X33914286Y-12978571D01*
X33914286Y-13192857D01*
X33842857Y-13335714D01*
X33771429Y-13407143D01*
X33628571Y-13478571D01*
X33057143Y-13478571D01*
X33057143Y-11978571D01*
X33557143Y-11978571D01*
X33700000Y-12050000D01*
X33771429Y-12121429D01*
X33842857Y-12264286D01*
X33842857Y-12407143D01*
X33771429Y-12550000D01*
X33700000Y-12621429D01*
X33557143Y-12692857D01*
X33057143Y-12692857D01*
D12*
X15004762Y-26276191D02*
X15052381Y-26133334D01*
X15052381Y-25895238D01*
X15004762Y-25800000D01*
X14957143Y-25752381D01*
X14861905Y-25704762D01*
X14766667Y-25704762D01*
X14671429Y-25752381D01*
X14623810Y-25800000D01*
X14576190Y-25895238D01*
X14528571Y-26085715D01*
X14480952Y-26180953D01*
X14433333Y-26228572D01*
X14338095Y-26276191D01*
X14242857Y-26276191D01*
X14147619Y-26228572D01*
X14100000Y-26180953D01*
X14052381Y-26085715D01*
X14052381Y-25847619D01*
X14100000Y-25704762D01*
X14052381Y-25419048D02*
X14052381Y-24847619D01*
X15052381Y-25133334D02*
X14052381Y-25133334D01*
X14766667Y-24561905D02*
X14766667Y-24085714D01*
X15052381Y-24657143D02*
X14052381Y-24323810D01*
X15052381Y-23990476D01*
X14052381Y-23800000D02*
X14052381Y-23228571D01*
X15052381Y-23514286D02*
X14052381Y-23514286D01*
X14052381Y-22895238D02*
X14861905Y-22895238D01*
X14957143Y-22847619D01*
X15004762Y-22800000D01*
X15052381Y-22704762D01*
X15052381Y-22514285D01*
X15004762Y-22419047D01*
X14957143Y-22371428D01*
X14861905Y-22323809D01*
X14052381Y-22323809D01*
X15004762Y-21895238D02*
X15052381Y-21752381D01*
X15052381Y-21514285D01*
X15004762Y-21419047D01*
X14957143Y-21371428D01*
X14861905Y-21323809D01*
X14766667Y-21323809D01*
X14671429Y-21371428D01*
X14623810Y-21419047D01*
X14576190Y-21514285D01*
X14528571Y-21704762D01*
X14480952Y-21800000D01*
X14433333Y-21847619D01*
X14338095Y-21895238D01*
X14242857Y-21895238D01*
X14147619Y-21847619D01*
X14100000Y-21800000D01*
X14052381Y-21704762D01*
X14052381Y-21466666D01*
X14100000Y-21323809D01*
X17552381Y-25680952D02*
X17076190Y-26014286D01*
X17552381Y-26252381D02*
X16552381Y-26252381D01*
X16552381Y-25871428D01*
X16600000Y-25776190D01*
X16647619Y-25728571D01*
X16742857Y-25680952D01*
X16885714Y-25680952D01*
X16980952Y-25728571D01*
X17028571Y-25776190D01*
X17076190Y-25871428D01*
X17076190Y-26252381D01*
X17266667Y-25300000D02*
X17266667Y-24823809D01*
X17552381Y-25395238D02*
X16552381Y-25061905D01*
X17552381Y-24728571D01*
X17552381Y-24395238D02*
X16552381Y-24395238D01*
X16552381Y-24157143D01*
X16600000Y-24014285D01*
X16695238Y-23919047D01*
X16790476Y-23871428D01*
X16980952Y-23823809D01*
X17123810Y-23823809D01*
X17314286Y-23871428D01*
X17409524Y-23919047D01*
X17504762Y-24014285D01*
X17552381Y-24157143D01*
X17552381Y-24395238D01*
X17552381Y-23395238D02*
X16552381Y-23395238D01*
X16552381Y-22728572D02*
X16552381Y-22538095D01*
X16600000Y-22442857D01*
X16695238Y-22347619D01*
X16885714Y-22300000D01*
X17219048Y-22300000D01*
X17409524Y-22347619D01*
X17504762Y-22442857D01*
X17552381Y-22538095D01*
X17552381Y-22728572D01*
X17504762Y-22823810D01*
X17409524Y-22919048D01*
X17219048Y-22966667D01*
X16885714Y-22966667D01*
X16695238Y-22919048D01*
X16600000Y-22823810D01*
X16552381Y-22728572D01*
X18852381Y-25690476D02*
X18376190Y-26023810D01*
X18852381Y-26261905D02*
X17852381Y-26261905D01*
X17852381Y-25880952D01*
X17900000Y-25785714D01*
X17947619Y-25738095D01*
X18042857Y-25690476D01*
X18185714Y-25690476D01*
X18280952Y-25738095D01*
X18328571Y-25785714D01*
X18376190Y-25880952D01*
X18376190Y-26261905D01*
X18328571Y-24928571D02*
X18376190Y-24785714D01*
X18423810Y-24738095D01*
X18519048Y-24690476D01*
X18661905Y-24690476D01*
X18757143Y-24738095D01*
X18804762Y-24785714D01*
X18852381Y-24880952D01*
X18852381Y-25261905D01*
X17852381Y-25261905D01*
X17852381Y-24928571D01*
X17900000Y-24833333D01*
X17947619Y-24785714D01*
X18042857Y-24738095D01*
X18138095Y-24738095D01*
X18233333Y-24785714D01*
X18280952Y-24833333D01*
X18328571Y-24928571D01*
X18328571Y-25261905D01*
X15300000Y-25714285D02*
X15252381Y-25809523D01*
X15252381Y-25952380D01*
X15300000Y-26095238D01*
X15395238Y-26190476D01*
X15490476Y-26238095D01*
X15680952Y-26285714D01*
X15823810Y-26285714D01*
X16014286Y-26238095D01*
X16109524Y-26190476D01*
X16204762Y-26095238D01*
X16252381Y-25952380D01*
X16252381Y-25857142D01*
X16204762Y-25714285D01*
X16157143Y-25666666D01*
X15823810Y-25666666D01*
X15823810Y-25857142D01*
X16252381Y-25238095D02*
X15252381Y-25238095D01*
X15252381Y-24857142D01*
X15300000Y-24761904D01*
X15347619Y-24714285D01*
X15442857Y-24666666D01*
X15585714Y-24666666D01*
X15680952Y-24714285D01*
X15728571Y-24761904D01*
X15776190Y-24857142D01*
X15776190Y-25238095D01*
X16204762Y-24285714D02*
X16252381Y-24142857D01*
X16252381Y-23904761D01*
X16204762Y-23809523D01*
X16157143Y-23761904D01*
X16061905Y-23714285D01*
X15966667Y-23714285D01*
X15871429Y-23761904D01*
X15823810Y-23809523D01*
X15776190Y-23904761D01*
X15728571Y-24095238D01*
X15680952Y-24190476D01*
X15633333Y-24238095D01*
X15538095Y-24285714D01*
X15442857Y-24285714D01*
X15347619Y-24238095D01*
X15300000Y-24190476D01*
X15252381Y-24095238D01*
X15252381Y-23857142D01*
X15300000Y-23714285D01*
X19052381Y-26161905D02*
X19052381Y-25542857D01*
X19433333Y-25876191D01*
X19433333Y-25733333D01*
X19480952Y-25638095D01*
X19528571Y-25590476D01*
X19623810Y-25542857D01*
X19861905Y-25542857D01*
X19957143Y-25590476D01*
X20004762Y-25638095D01*
X20052381Y-25733333D01*
X20052381Y-26019048D01*
X20004762Y-26114286D01*
X19957143Y-26161905D01*
X19052381Y-25257143D02*
X20052381Y-24923810D01*
X19052381Y-24590476D01*
X20352381Y-25590476D02*
X20352381Y-26066667D01*
X20828571Y-26114286D01*
X20780952Y-26066667D01*
X20733333Y-25971429D01*
X20733333Y-25733333D01*
X20780952Y-25638095D01*
X20828571Y-25590476D01*
X20923810Y-25542857D01*
X21161905Y-25542857D01*
X21257143Y-25590476D01*
X21304762Y-25638095D01*
X21352381Y-25733333D01*
X21352381Y-25971429D01*
X21304762Y-26066667D01*
X21257143Y-26114286D01*
X20352381Y-25257143D02*
X21352381Y-24923810D01*
X20352381Y-24590476D01*
D11*
X47135715Y-63078571D02*
X46421429Y-63078571D01*
X46421429Y-61578571D01*
X47635715Y-62292857D02*
X48135715Y-62292857D01*
X48350001Y-63078571D02*
X47635715Y-63078571D01*
X47635715Y-61578571D01*
X48350001Y-61578571D01*
X48992858Y-63078571D02*
X48992858Y-61578571D01*
X49350001Y-61578571D01*
X49564286Y-61650000D01*
X49707144Y-61792857D01*
X49778572Y-61935714D01*
X49850001Y-62221429D01*
X49850001Y-62435714D01*
X49778572Y-62721429D01*
X49707144Y-62864286D01*
X49564286Y-63007143D01*
X49350001Y-63078571D01*
X48992858Y-63078571D01*
X33792858Y-62292857D02*
X34007144Y-62364286D01*
X34078572Y-62435714D01*
X34150001Y-62578571D01*
X34150001Y-62792857D01*
X34078572Y-62935714D01*
X34007144Y-63007143D01*
X33864286Y-63078571D01*
X33292858Y-63078571D01*
X33292858Y-61578571D01*
X33792858Y-61578571D01*
X33935715Y-61650000D01*
X34007144Y-61721429D01*
X34078572Y-61864286D01*
X34078572Y-62007143D01*
X34007144Y-62150000D01*
X33935715Y-62221429D01*
X33792858Y-62292857D01*
X33292858Y-62292857D01*
X34721429Y-62650000D02*
X35435715Y-62650000D01*
X34578572Y-63078571D02*
X35078572Y-61578571D01*
X35578572Y-63078571D01*
X35864286Y-61578571D02*
X36721429Y-61578571D01*
X36292858Y-63078571D02*
X36292858Y-61578571D01*
X24035714Y-62650000D02*
X24750000Y-62650000D01*
X23892857Y-63078571D02*
X24392857Y-61578571D01*
X24892857Y-63078571D01*
X26250000Y-63078571D02*
X25750000Y-62364286D01*
X25392857Y-63078571D02*
X25392857Y-61578571D01*
X25964285Y-61578571D01*
X26107143Y-61650000D01*
X26178571Y-61721429D01*
X26250000Y-61864286D01*
X26250000Y-62078571D01*
X26178571Y-62221429D01*
X26107143Y-62292857D01*
X25964285Y-62364286D01*
X25392857Y-62364286D01*
X26892857Y-63078571D02*
X26892857Y-61578571D01*
X27392857Y-62650000D01*
X27892857Y-61578571D01*
X27892857Y-63078571D01*
X14864286Y-62292857D02*
X14364286Y-62292857D01*
X14364286Y-63078571D02*
X14364286Y-61578571D01*
X15078572Y-61578571D01*
X16507143Y-62935714D02*
X16435714Y-63007143D01*
X16221428Y-63078571D01*
X16078571Y-63078571D01*
X15864286Y-63007143D01*
X15721428Y-62864286D01*
X15650000Y-62721429D01*
X15578571Y-62435714D01*
X15578571Y-62221429D01*
X15650000Y-61935714D01*
X15721428Y-61792857D01*
X15864286Y-61650000D01*
X16078571Y-61578571D01*
X16221428Y-61578571D01*
X16435714Y-61650000D01*
X16507143Y-61721429D01*
X6428572Y-61650000D02*
X6285715Y-61578571D01*
X6071429Y-61578571D01*
X5857144Y-61650000D01*
X5714286Y-61792857D01*
X5642858Y-61935714D01*
X5571429Y-62221429D01*
X5571429Y-62435714D01*
X5642858Y-62721429D01*
X5714286Y-62864286D01*
X5857144Y-63007143D01*
X6071429Y-63078571D01*
X6214286Y-63078571D01*
X6428572Y-63007143D01*
X6500001Y-62935714D01*
X6500001Y-62435714D01*
X6214286Y-62435714D01*
X7142858Y-63078571D02*
X7142858Y-61578571D01*
X7714286Y-61578571D01*
X7857144Y-61650000D01*
X7928572Y-61721429D01*
X8000001Y-61864286D01*
X8000001Y-62078571D01*
X7928572Y-62221429D01*
X7857144Y-62292857D01*
X7714286Y-62364286D01*
X7142858Y-62364286D01*
X8571429Y-63007143D02*
X8785715Y-63078571D01*
X9142858Y-63078571D01*
X9285715Y-63007143D01*
X9357144Y-62935714D01*
X9428572Y-62792857D01*
X9428572Y-62650000D01*
X9357144Y-62507143D01*
X9285715Y-62435714D01*
X9142858Y-62364286D01*
X8857144Y-62292857D01*
X8714286Y-62221429D01*
X8642858Y-62150000D01*
X8571429Y-62007143D01*
X8571429Y-61864286D01*
X8642858Y-61721429D01*
X8714286Y-61650000D01*
X8857144Y-61578571D01*
X9214286Y-61578571D01*
X9428572Y-61650000D01*
D12*
X29528571Y-57860000D02*
X30100000Y-57860000D01*
X29414286Y-58202857D02*
X29814286Y-57002857D01*
X30214286Y-58202857D01*
X30614285Y-58202857D02*
X30614285Y-57002857D01*
X30900000Y-57002857D01*
X31071428Y-57060000D01*
X31185714Y-57174286D01*
X31242857Y-57288571D01*
X31300000Y-57517143D01*
X31300000Y-57688571D01*
X31242857Y-57917143D01*
X31185714Y-58031429D01*
X31071428Y-58145714D01*
X30900000Y-58202857D01*
X30614285Y-58202857D01*
X31757142Y-57860000D02*
X32328571Y-57860000D01*
X31642857Y-58202857D02*
X32042857Y-57002857D01*
X32442857Y-58202857D01*
X32842856Y-58202857D02*
X32842856Y-57002857D01*
X33242856Y-57860000D01*
X33642856Y-57002857D01*
X33642856Y-58202857D01*
X35757143Y-57060000D02*
X35642857Y-57002857D01*
X35471428Y-57002857D01*
X35300000Y-57060000D01*
X35185714Y-57174286D01*
X35128571Y-57288571D01*
X35071428Y-57517143D01*
X35071428Y-57688571D01*
X35128571Y-57917143D01*
X35185714Y-58031429D01*
X35300000Y-58145714D01*
X35471428Y-58202857D01*
X35585714Y-58202857D01*
X35757143Y-58145714D01*
X35814286Y-58088571D01*
X35814286Y-57688571D01*
X35585714Y-57688571D01*
X37014286Y-58202857D02*
X36614286Y-57631429D01*
X36328571Y-58202857D02*
X36328571Y-57002857D01*
X36785714Y-57002857D01*
X36900000Y-57060000D01*
X36957143Y-57117143D01*
X37014286Y-57231429D01*
X37014286Y-57402857D01*
X36957143Y-57517143D01*
X36900000Y-57574286D01*
X36785714Y-57631429D01*
X36328571Y-57631429D01*
X37528571Y-57574286D02*
X37928571Y-57574286D01*
X38100000Y-58202857D02*
X37528571Y-58202857D01*
X37528571Y-57002857D01*
X38100000Y-57002857D01*
X38614285Y-58202857D02*
X38614285Y-57002857D01*
X39814286Y-57060000D02*
X39700000Y-57002857D01*
X39528571Y-57002857D01*
X39357143Y-57060000D01*
X39242857Y-57174286D01*
X39185714Y-57288571D01*
X39128571Y-57517143D01*
X39128571Y-57688571D01*
X39185714Y-57917143D01*
X39242857Y-58031429D01*
X39357143Y-58145714D01*
X39528571Y-58202857D01*
X39642857Y-58202857D01*
X39814286Y-58145714D01*
X39871429Y-58088571D01*
X39871429Y-57688571D01*
X39642857Y-57688571D01*
X28871429Y-58997143D02*
X28928572Y-58940000D01*
X29042858Y-58882857D01*
X29328572Y-58882857D01*
X29442858Y-58940000D01*
X29500001Y-58997143D01*
X29557144Y-59111429D01*
X29557144Y-59225714D01*
X29500001Y-59397143D01*
X28814287Y-60082857D01*
X29557144Y-60082857D01*
X30300001Y-58882857D02*
X30414286Y-58882857D01*
X30528572Y-58940000D01*
X30585715Y-58997143D01*
X30642858Y-59111429D01*
X30700001Y-59340000D01*
X30700001Y-59625714D01*
X30642858Y-59854286D01*
X30585715Y-59968571D01*
X30528572Y-60025714D01*
X30414286Y-60082857D01*
X30300001Y-60082857D01*
X30185715Y-60025714D01*
X30128572Y-59968571D01*
X30071429Y-59854286D01*
X30014286Y-59625714D01*
X30014286Y-59340000D01*
X30071429Y-59111429D01*
X30128572Y-58997143D01*
X30185715Y-58940000D01*
X30300001Y-58882857D01*
X31842858Y-60082857D02*
X31157143Y-60082857D01*
X31500001Y-60082857D02*
X31500001Y-58882857D01*
X31385715Y-59054286D01*
X31271429Y-59168571D01*
X31157143Y-59225714D01*
X32871429Y-59282857D02*
X32871429Y-60082857D01*
X32585715Y-58825714D02*
X32300000Y-59682857D01*
X33042858Y-59682857D01*
X33500000Y-59625714D02*
X34414286Y-59625714D01*
X35214286Y-58882857D02*
X35328571Y-58882857D01*
X35442857Y-58940000D01*
X35500000Y-58997143D01*
X35557143Y-59111429D01*
X35614286Y-59340000D01*
X35614286Y-59625714D01*
X35557143Y-59854286D01*
X35500000Y-59968571D01*
X35442857Y-60025714D01*
X35328571Y-60082857D01*
X35214286Y-60082857D01*
X35100000Y-60025714D01*
X35042857Y-59968571D01*
X34985714Y-59854286D01*
X34928571Y-59625714D01*
X34928571Y-59340000D01*
X34985714Y-59111429D01*
X35042857Y-58997143D01*
X35100000Y-58940000D01*
X35214286Y-58882857D01*
X36014286Y-58882857D02*
X36814286Y-58882857D01*
X36300000Y-60082857D01*
X37271428Y-59625714D02*
X38185714Y-59625714D01*
X38699999Y-58997143D02*
X38757142Y-58940000D01*
X38871428Y-58882857D01*
X39157142Y-58882857D01*
X39271428Y-58940000D01*
X39328571Y-58997143D01*
X39385714Y-59111429D01*
X39385714Y-59225714D01*
X39328571Y-59397143D01*
X38642857Y-60082857D01*
X39385714Y-60082857D01*
X39785714Y-58882857D02*
X40528571Y-58882857D01*
X40128571Y-59340000D01*
X40299999Y-59340000D01*
X40414285Y-59397143D01*
X40471428Y-59454286D01*
X40528571Y-59568571D01*
X40528571Y-59854286D01*
X40471428Y-59968571D01*
X40414285Y-60025714D01*
X40299999Y-60082857D01*
X39957142Y-60082857D01*
X39842856Y-60025714D01*
X39785714Y-59968571D01*
D11*
X32992858Y-53878571D02*
X32992858Y-52378571D01*
X33492858Y-53450000D01*
X33992858Y-52378571D01*
X33992858Y-53878571D01*
X34635715Y-53450000D02*
X35350001Y-53450000D01*
X34492858Y-53878571D02*
X34992858Y-52378571D01*
X35492858Y-53878571D01*
X36850001Y-53878571D02*
X36350001Y-53164286D01*
X35992858Y-53878571D02*
X35992858Y-52378571D01*
X36564286Y-52378571D01*
X36707144Y-52450000D01*
X36778572Y-52521429D01*
X36850001Y-52664286D01*
X36850001Y-52878571D01*
X36778572Y-53021429D01*
X36707144Y-53092857D01*
X36564286Y-53164286D01*
X35992858Y-53164286D01*
X37278572Y-52378571D02*
X38135715Y-52378571D01*
X37707144Y-53878571D02*
X37707144Y-52378571D01*
X39350001Y-53878571D02*
X38635715Y-53878571D01*
X38635715Y-52378571D01*
X39850001Y-53092857D02*
X40350001Y-53092857D01*
X40564287Y-53878571D02*
X39850001Y-53878571D01*
X39850001Y-52378571D01*
X40564287Y-52378571D01*
X40992858Y-52378571D02*
X41850001Y-52378571D01*
X41421430Y-53878571D02*
X41421430Y-52378571D01*
X43421429Y-52521429D02*
X43492858Y-52450000D01*
X43635715Y-52378571D01*
X43992858Y-52378571D01*
X44135715Y-52450000D01*
X44207144Y-52521429D01*
X44278572Y-52664286D01*
X44278572Y-52807143D01*
X44207144Y-53021429D01*
X43350001Y-53878571D01*
X44278572Y-53878571D01*
X36528572Y-56278571D02*
X36028572Y-55564286D01*
X35671429Y-56278571D02*
X35671429Y-54778571D01*
X36242857Y-54778571D01*
X36385715Y-54850000D01*
X36457143Y-54921429D01*
X36528572Y-55064286D01*
X36528572Y-55278571D01*
X36457143Y-55421429D01*
X36385715Y-55492857D01*
X36242857Y-55564286D01*
X35671429Y-55564286D01*
X37100000Y-55850000D02*
X37814286Y-55850000D01*
X36957143Y-56278571D02*
X37457143Y-54778571D01*
X37957143Y-56278571D01*
X38457143Y-56278571D02*
X38457143Y-54778571D01*
X38814286Y-54778571D01*
X39028571Y-54850000D01*
X39171429Y-54992857D01*
X39242857Y-55135714D01*
X39314286Y-55421429D01*
X39314286Y-55635714D01*
X39242857Y-55921429D01*
X39171429Y-56064286D01*
X39028571Y-56207143D01*
X38814286Y-56278571D01*
X38457143Y-56278571D01*
X39957143Y-56278571D02*
X39957143Y-54778571D01*
X40957143Y-54778571D02*
X41242857Y-54778571D01*
X41385715Y-54850000D01*
X41528572Y-54992857D01*
X41600000Y-55278571D01*
X41600000Y-55778571D01*
X41528572Y-56064286D01*
X41385715Y-56207143D01*
X41242857Y-56278571D01*
X40957143Y-56278571D01*
X40814286Y-56207143D01*
X40671429Y-56064286D01*
X40600000Y-55778571D01*
X40600000Y-55278571D01*
X40671429Y-54992857D01*
X40814286Y-54850000D01*
X40957143Y-54778571D01*
D13*
X15000000Y-60000000D02*
X15000000Y-57900000D01*
X16000000Y-57900000D02*
X16000000Y-60000000D01*
X21750000Y-60000000D02*
X21750000Y-57900000D01*
X22750000Y-57900000D02*
X22750000Y-60000000D01*
X25400000Y-16450000D02*
X25400000Y-18550000D01*
X24400000Y-18550000D02*
X24400000Y-16450000D01*
X25250000Y-14250000D02*
X23150000Y-14250000D01*
X23150000Y-13250000D02*
X25250000Y-13250000D01*
X14000000Y-52250000D02*
X16100000Y-52250000D01*
X16100000Y-53250000D02*
X14000000Y-53250000D01*
X21750000Y-56750000D02*
X21750000Y-54650000D01*
X22750000Y-54650000D02*
X22750000Y-56750000D01*
X22500000Y-60500000D02*
X24600000Y-60500000D01*
X24600000Y-61500000D02*
X22500000Y-61500000D01*
X22500000Y-52750000D02*
X24600000Y-52750000D01*
X24600000Y-53750000D02*
X22500000Y-53750000D01*
X27500000Y-34500000D02*
X29600000Y-34500000D01*
X29600000Y-35500000D02*
X27500000Y-35500000D01*
X24750000Y-34500000D02*
X26850000Y-34500000D01*
X26850000Y-35500000D02*
X24750000Y-35500000D01*
X25700000Y-23850000D02*
X25700000Y-21750000D01*
X26700000Y-21750000D02*
X26700000Y-23850000D01*
X26750000Y-58500000D02*
X26750000Y-56400000D01*
X27750000Y-56400000D02*
X27750000Y-58500000D01*
X23750000Y-50750000D02*
X23750000Y-48650000D01*
X24750000Y-48650000D02*
X24750000Y-50750000D01*
X3150000Y-32200000D02*
X5250000Y-32200000D01*
X5250000Y-33200000D02*
X3150000Y-33200000D01*
X28750000Y-37900000D02*
X26650000Y-37900000D01*
X26650000Y-36900000D02*
X28750000Y-36900000D01*
X33650000Y-18150000D02*
X35350000Y-18150000D01*
X33650000Y-17350000D02*
X35350000Y-17350000D01*
X35500000Y-17000000D02*
X33400000Y-17000000D01*
X33400000Y-16000000D02*
X35500000Y-16000000D01*
X30650000Y-27000000D02*
X34950000Y-27000000D01*
X30650000Y-25000000D02*
X34950000Y-25000000D01*
X36170000Y-35100000D02*
X36170000Y-36800000D01*
X36970000Y-35100000D02*
X36970000Y-36800000D01*
X37300000Y-9100000D02*
X37300000Y-7400000D01*
X36500000Y-9100000D02*
X36500000Y-7400000D01*
X37950000Y-33800000D02*
X36250000Y-33800000D01*
X37950000Y-34600000D02*
X36250000Y-34600000D01*
X38250000Y-9930000D02*
X36550000Y-9930000D01*
X38250000Y-10730000D02*
X36550000Y-10730000D01*
X8000000Y-40050000D02*
X8000000Y-42150000D01*
X7000000Y-42150000D02*
X7000000Y-40050000D01*
X10000000Y-45650000D02*
X10000000Y-43550000D01*
X11000000Y-43550000D02*
X11000000Y-45650000D01*
X9300000Y-40050000D02*
X9300000Y-42150000D01*
X8300000Y-42150000D02*
X8300000Y-40050000D01*
X21850000Y-36200000D02*
X19750000Y-36200000D01*
X19750000Y-35200000D02*
X21850000Y-35200000D01*
X12300000Y-30650000D02*
X12300000Y-32750000D01*
X11300000Y-32750000D02*
X11300000Y-30650000D01*
X14750000Y-46000000D02*
X16850000Y-46000000D01*
X16850000Y-47000000D02*
X14750000Y-47000000D01*
X14750000Y-44800000D02*
X16850000Y-44800000D01*
X16850000Y-45800000D02*
X14750000Y-45800000D01*
X19250000Y-22600000D02*
X17150000Y-22600000D01*
X17150000Y-21600000D02*
X19250000Y-21600000D01*
X12200000Y-7200000D02*
X12200000Y-9300000D01*
X11200000Y-9300000D02*
X11200000Y-7200000D01*
X6150000Y-18600000D02*
X8250000Y-18600000D01*
X8250000Y-19600000D02*
X6150000Y-19600000D01*
X4750000Y-25900000D02*
X6850000Y-25900000D01*
X6850000Y-26900000D02*
X4750000Y-26900000D01*
X3250000Y-41300000D02*
X5350000Y-41300000D01*
X5350000Y-42300000D02*
X3250000Y-42300000D01*
X3400000Y-47750000D02*
X3400000Y-45650000D01*
X4400000Y-45650000D02*
X4400000Y-47750000D01*
X4400000Y-49050000D02*
X4400000Y-51150000D01*
X3400000Y-51150000D02*
X3400000Y-49050000D01*
X20000000Y-28950000D02*
X20000000Y-26450000D01*
X19000000Y-28950000D02*
X19000000Y-26450000D01*
X19700000Y-27750000D02*
X19700000Y-27850000D01*
X19600000Y-27650000D02*
X19600000Y-27850000D01*
X19300000Y-27750000D02*
X19300000Y-27850000D01*
X19400000Y-27650000D02*
X19400000Y-27850000D01*
X19500000Y-27550000D02*
X19500000Y-27850000D01*
X19100000Y-27950000D02*
X19500000Y-27450000D01*
X19500000Y-27450000D02*
X19900000Y-27950000D01*
X19900000Y-27950000D02*
X19100000Y-27950000D01*
X21250000Y-28950000D02*
X21250000Y-26450000D01*
X20250000Y-28950000D02*
X20250000Y-26450000D01*
X20950000Y-27750000D02*
X20950000Y-27850000D01*
X20850000Y-27650000D02*
X20850000Y-27850000D01*
X20550000Y-27750000D02*
X20550000Y-27850000D01*
X20650000Y-27650000D02*
X20650000Y-27850000D01*
X20750000Y-27550000D02*
X20750000Y-27850000D01*
X20350000Y-27950000D02*
X20750000Y-27450000D01*
X20750000Y-27450000D02*
X21150000Y-27950000D01*
X21150000Y-27950000D02*
X20350000Y-27950000D01*
X18750000Y-28950000D02*
X18750000Y-26450000D01*
X17750000Y-28950000D02*
X17750000Y-26450000D01*
X18450000Y-27750000D02*
X18450000Y-27850000D01*
X18350000Y-27650000D02*
X18350000Y-27850000D01*
X18050000Y-27750000D02*
X18050000Y-27850000D01*
X18150000Y-27650000D02*
X18150000Y-27850000D01*
X18250000Y-27550000D02*
X18250000Y-27850000D01*
X17850000Y-27950000D02*
X18250000Y-27450000D01*
X18250000Y-27450000D02*
X18650000Y-27950000D01*
X18650000Y-27950000D02*
X17850000Y-27950000D01*
X16300000Y-28950000D02*
X16300000Y-26450000D01*
X15300000Y-28950000D02*
X15300000Y-26450000D01*
X16000000Y-27750000D02*
X16000000Y-27850000D01*
X15900000Y-27650000D02*
X15900000Y-27850000D01*
X15600000Y-27750000D02*
X15600000Y-27850000D01*
X15700000Y-27650000D02*
X15700000Y-27850000D01*
X15800000Y-27550000D02*
X15800000Y-27850000D01*
X15400000Y-27950000D02*
X15800000Y-27450000D01*
X15800000Y-27450000D02*
X16200000Y-27950000D01*
X16200000Y-27950000D02*
X15400000Y-27950000D01*
X17500000Y-28950000D02*
X17500000Y-26450000D01*
X16500000Y-28950000D02*
X16500000Y-26450000D01*
X17200000Y-27750000D02*
X17200000Y-27850000D01*
X17100000Y-27650000D02*
X17100000Y-27850000D01*
X16800000Y-27750000D02*
X16800000Y-27850000D01*
X16900000Y-27650000D02*
X16900000Y-27850000D01*
X17000000Y-27550000D02*
X17000000Y-27850000D01*
X16600000Y-27950000D02*
X17000000Y-27450000D01*
X17000000Y-27450000D02*
X17400000Y-27950000D01*
X17400000Y-27950000D02*
X16600000Y-27950000D01*
X15000000Y-28950000D02*
X15000000Y-26450000D01*
X14000000Y-28950000D02*
X14000000Y-26450000D01*
X14700000Y-27750000D02*
X14700000Y-27850000D01*
X14600000Y-27650000D02*
X14600000Y-27850000D01*
X14300000Y-27750000D02*
X14300000Y-27850000D01*
X14400000Y-27650000D02*
X14400000Y-27850000D01*
X14500000Y-27550000D02*
X14500000Y-27850000D01*
X14100000Y-27950000D02*
X14500000Y-27450000D01*
X14500000Y-27450000D02*
X14900000Y-27950000D01*
X14900000Y-27950000D02*
X14100000Y-27950000D01*
X26450000Y-55000000D02*
G75*
G03X26450000Y-55000000I-200000J0D01*
G74*
G01*
X26350000Y-55000000D02*
G75*
G03X26350000Y-55000000I-100000J0D01*
G74*
G01*
X23250000Y-55000000D02*
X23250000Y-59500000D01*
X26250000Y-55000000D02*
X26250000Y-59500000D01*
X21550000Y-54750000D02*
G75*
G03X21550000Y-54750000I-200000J0D01*
G74*
G01*
X21450000Y-54750000D02*
G75*
G03X21450000Y-54750000I-100000J0D01*
G74*
G01*
X16350000Y-54750000D02*
X16350000Y-59950000D01*
X21350000Y-54750000D02*
X21350000Y-59950000D01*
X14800000Y-54750000D02*
G75*
G03X14800000Y-54750000I-200000J0D01*
G74*
G01*
X14700000Y-54750000D02*
G75*
G03X14700000Y-54750000I-100000J0D01*
G74*
G01*
X9600000Y-54750000D02*
X9600000Y-59950000D01*
X14600000Y-54750000D02*
X14600000Y-59950000D01*
X25850000Y-20250000D02*
G75*
G03X25850000Y-20250000I-200000J0D01*
G74*
G01*
X25750000Y-20250000D02*
G75*
G03X25750000Y-20250000I-100000J0D01*
G74*
G01*
X30650000Y-20250000D02*
X30650000Y-15050000D01*
X25650000Y-20250000D02*
X25650000Y-15050000D01*
X48500000Y-39000000D02*
X48500000Y-51300000D01*
X48500000Y-51300000D02*
X25900000Y-51300000D01*
X25900000Y-51300000D02*
X25900000Y-39000000D01*
X25900000Y-39000000D02*
X48500000Y-39000000D01*
X19250000Y-20550000D02*
G75*
G03X19250000Y-20550000I-200000J0D01*
G74*
G01*
X19150000Y-20550000D02*
G75*
G03X19150000Y-20550000I-100000J0D01*
G74*
G01*
X11150000Y-11050000D02*
X20850000Y-11050000D01*
X11150000Y-21250000D02*
X20850000Y-21250000D01*
X10950000Y-43000000D02*
G75*
G03X10950000Y-43000000I-200000J0D01*
G74*
G01*
X10850000Y-43000000D02*
G75*
G03X10850000Y-43000000I-100000J0D01*
G74*
G01*
X11250000Y-34500000D02*
X10250000Y-34500000D01*
X10250000Y-34500000D02*
X10250000Y-35500000D01*
X17750000Y-34500000D02*
X18750000Y-34500000D01*
X18750000Y-34500000D02*
X18750000Y-35500000D01*
X17750000Y-43000000D02*
X18750000Y-43000000D01*
X18750000Y-43000000D02*
X18750000Y-42000000D01*
X10250000Y-42000000D02*
X10250000Y-43000000D01*
X10250000Y-43000000D02*
X11250000Y-43000000D01*
X7900000Y-20600000D02*
G75*
G03X7900000Y-20600000I-200000J0D01*
G74*
G01*
X7800000Y-20600000D02*
G75*
G03X7800000Y-20600000I-100000J0D01*
G74*
G01*
X4700000Y-20600000D02*
X4700000Y-25100000D01*
X7700000Y-20600000D02*
X7700000Y-25100000D01*
X35550000Y-18400000D02*
X33650000Y-18400000D01*
X35550000Y-19600000D02*
X33650000Y-19600000D01*
X35980000Y-28910000D02*
X35980000Y-30810000D01*
X37180000Y-28910000D02*
X37180000Y-30810000D01*
X36360000Y-12940000D02*
X36360000Y-14140000D01*
X37160000Y-12940000D02*
X37160000Y-14140000D01*
X2650500Y-39580000D02*
X1825000Y-39580000D01*
X1825000Y-39580000D02*
X1825000Y-38119500D01*
X1825000Y-38119500D02*
X2650500Y-38119500D01*
X2650500Y-34500000D02*
X1825000Y-34500000D01*
X1825000Y-34500000D02*
X1825000Y-35960500D01*
X1825000Y-35960500D02*
X2650500Y-35960500D01*
X6079500Y-34500000D02*
X6905000Y-34500000D01*
X6905000Y-34500000D02*
X6905000Y-39580000D01*
X6905000Y-39580000D02*
X6079500Y-39580000D01*
X6079500Y-37040000D02*
X6079500Y-40215000D01*
X6079500Y-40215000D02*
X2650500Y-40215000D01*
X2650500Y-40215000D02*
X2650500Y-33865000D01*
X2650500Y-33865000D02*
X6079500Y-33865000D01*
X6079500Y-33865000D02*
X6079500Y-37040000D01*
X21250000Y-48350000D02*
X21250000Y-50750000D01*
X22250000Y-48350000D02*
X22250000Y-50750000D01*
X22500000Y-48350000D02*
X22500000Y-50750000D01*
X23500000Y-48350000D02*
X23500000Y-50750000D01*
X36230000Y-25810000D02*
X36230000Y-27510000D01*
X36930000Y-25810000D02*
X36930000Y-27510000D01*
X41750000Y-62900000D02*
X41750000Y-60500000D01*
X40750000Y-62900000D02*
X40750000Y-60500000D01*
X40500000Y-62900000D02*
X40500000Y-60500000D01*
X39500000Y-62900000D02*
X39500000Y-60500000D01*
X10900000Y-9450000D02*
X10900000Y-7050000D01*
X9900000Y-9450000D02*
X9900000Y-7050000D01*
X20250000Y-29400000D02*
X20250000Y-31800000D01*
X21250000Y-29400000D02*
X21250000Y-31800000D01*
X19000000Y-29400000D02*
X19000000Y-31800000D01*
X20000000Y-29400000D02*
X20000000Y-31800000D01*
X21500000Y-29400000D02*
X21500000Y-31800000D01*
X22500000Y-29400000D02*
X22500000Y-31800000D01*
X17750000Y-29400000D02*
X17750000Y-31800000D01*
X18750000Y-29400000D02*
X18750000Y-31800000D01*
X15300000Y-29400000D02*
X15300000Y-31800000D01*
X16300000Y-29400000D02*
X16300000Y-31800000D01*
X16500000Y-29400000D02*
X16500000Y-31800000D01*
X17500000Y-29400000D02*
X17500000Y-31800000D01*
X14000000Y-29400000D02*
X14000000Y-31800000D01*
X15000000Y-29400000D02*
X15000000Y-31800000D01*
X11000000Y-51200000D02*
X11000000Y-48800000D01*
X10000000Y-51200000D02*
X10000000Y-48800000D01*
X4900000Y-43800000D02*
X4900000Y-53100000D01*
X8500000Y-42800000D02*
X5900000Y-42800000D01*
X8500000Y-54100000D02*
X5900000Y-54100000D01*
X9500000Y-43800000D02*
X9500000Y-53100000D01*
X4900000Y-53100000D02*
G75*
G03X5900000Y-54100000I1000000J0D01*
G74*
G01*
X8500000Y-54100000D02*
G75*
G03X9500000Y-53100000I0J1000000D01*
G74*
G01*
X5900000Y-42800000D02*
G75*
G03X4900000Y-43800000I0J-1000000D01*
G74*
G01*
X9500000Y-43800000D02*
G75*
G03X8500000Y-42800000I-1000000J0D01*
G74*
G01*
D12*
X26000000Y-9550000D02*
X26000000Y-12750000D01*
X34000000Y-50000D02*
X24000000Y-50000D01*
X34000000Y-5250000D02*
X34000000Y-50000D01*
X34000000Y-11750000D02*
X34000000Y-7050000D01*
X24000000Y-11750000D02*
X34000000Y-11750000D01*
X24000000Y-7050000D02*
X24000000Y-11750000D01*
X24000000Y-50000D02*
X24000000Y-5250000D01*
X10000000Y-65450000D02*
X10000000Y-62250000D01*
X2000000Y-74950000D02*
X12000000Y-74950000D01*
X2000000Y-69750000D02*
X2000000Y-74950000D01*
X2000000Y-63250000D02*
X2000000Y-67950000D01*
X12000000Y-63250000D02*
X2000000Y-63250000D01*
X12000000Y-67950000D02*
X12000000Y-63250000D01*
X12000000Y-74950000D02*
X12000000Y-69750000D01*
X22000000Y-65450000D02*
X22000000Y-62250000D01*
X14000000Y-74950000D02*
X24000000Y-74950000D01*
X14000000Y-69750000D02*
X14000000Y-74950000D01*
X14000000Y-63250000D02*
X14000000Y-67950000D01*
X24000000Y-63250000D02*
X14000000Y-63250000D01*
X24000000Y-67950000D02*
X24000000Y-63250000D01*
X24000000Y-74950000D02*
X24000000Y-69750000D01*
X46000000Y-65450000D02*
X46000000Y-62250000D01*
X42000000Y-74950000D02*
X48000000Y-74950000D01*
X42000000Y-69750000D02*
X42000000Y-74950000D01*
X42000000Y-63250000D02*
X42000000Y-67950000D01*
X48000000Y-63250000D02*
X42000000Y-63250000D01*
X48000000Y-67950000D02*
X48000000Y-63250000D01*
X48000000Y-74950000D02*
X48000000Y-69750000D01*
X30000000Y-65450000D02*
X30000000Y-62250000D01*
X26000000Y-74950000D02*
X32000000Y-74950000D01*
X26000000Y-69750000D02*
X26000000Y-74950000D01*
X26000000Y-63250000D02*
X26000000Y-67950000D01*
X32000000Y-63250000D02*
X26000000Y-63250000D01*
X32000000Y-67950000D02*
X32000000Y-63250000D01*
X32000000Y-74950000D02*
X32000000Y-69750000D01*
X38000000Y-65450000D02*
X38000000Y-62250000D01*
X34000000Y-74950000D02*
X40000000Y-74950000D01*
X34000000Y-69750000D02*
X34000000Y-74950000D01*
X34000000Y-63250000D02*
X34000000Y-67950000D01*
X40000000Y-63250000D02*
X34000000Y-63250000D01*
X40000000Y-67950000D02*
X40000000Y-63250000D01*
X40000000Y-74950000D02*
X40000000Y-69750000D01*
D13*
X23750000Y-31750000D02*
X23750000Y-27750000D01*
X23750000Y-27750000D02*
X30750000Y-27750000D01*
X30750000Y-27750000D02*
X30750000Y-31750000D01*
X30750000Y-31750000D02*
X23750000Y-31750000D01*
D10*
G36*
X46992250Y-37677520D02*
X46983287Y-37744669D01*
X46947068Y-37767469D01*
X46920812Y-37768108D01*
X46881477Y-37749778D01*
X46795504Y-37698255D01*
X46668106Y-37617006D01*
X46504494Y-37509499D01*
X46309879Y-37379202D01*
X46089473Y-37229583D01*
X45848487Y-37064107D01*
X45592133Y-36886244D01*
X45525068Y-36839421D01*
X45264574Y-36656916D01*
X45017905Y-36483332D01*
X44790364Y-36322454D01*
X44587252Y-36178063D01*
X44413868Y-36053945D01*
X44275515Y-35953882D01*
X44177492Y-35881657D01*
X44125101Y-35841055D01*
X44120131Y-35836653D01*
X44052215Y-35734568D01*
X44039500Y-35654090D01*
X44049215Y-35576354D01*
X44084870Y-35551669D01*
X44156227Y-35575112D01*
X44175923Y-35585293D01*
X44228400Y-35617623D01*
X44325069Y-35681425D01*
X44459821Y-35772424D01*
X44626542Y-35886343D01*
X44819121Y-36018907D01*
X45031445Y-36165840D01*
X45257401Y-36322865D01*
X45490879Y-36485707D01*
X45725765Y-36650089D01*
X45955948Y-36811736D01*
X46175315Y-36966372D01*
X46377754Y-37109720D01*
X46557153Y-37237506D01*
X46707400Y-37345451D01*
X46822383Y-37429282D01*
X46895988Y-37484721D01*
X46920812Y-37505577D01*
X46973309Y-37592618D01*
X46992250Y-37677520D01*
X46992250Y-37677520D01*
X46992250Y-37677520D01*
G37*
X46992250Y-37677520D02*
X46983287Y-37744669D01*
X46947068Y-37767469D01*
X46920812Y-37768108D01*
X46881477Y-37749778D01*
X46795504Y-37698255D01*
X46668106Y-37617006D01*
X46504494Y-37509499D01*
X46309879Y-37379202D01*
X46089473Y-37229583D01*
X45848487Y-37064107D01*
X45592133Y-36886244D01*
X45525068Y-36839421D01*
X45264574Y-36656916D01*
X45017905Y-36483332D01*
X44790364Y-36322454D01*
X44587252Y-36178063D01*
X44413868Y-36053945D01*
X44275515Y-35953882D01*
X44177492Y-35881657D01*
X44125101Y-35841055D01*
X44120131Y-35836653D01*
X44052215Y-35734568D01*
X44039500Y-35654090D01*
X44049215Y-35576354D01*
X44084870Y-35551669D01*
X44156227Y-35575112D01*
X44175923Y-35585293D01*
X44228400Y-35617623D01*
X44325069Y-35681425D01*
X44459821Y-35772424D01*
X44626542Y-35886343D01*
X44819121Y-36018907D01*
X45031445Y-36165840D01*
X45257401Y-36322865D01*
X45490879Y-36485707D01*
X45725765Y-36650089D01*
X45955948Y-36811736D01*
X46175315Y-36966372D01*
X46377754Y-37109720D01*
X46557153Y-37237506D01*
X46707400Y-37345451D01*
X46822383Y-37429282D01*
X46895988Y-37484721D01*
X46920812Y-37505577D01*
X46973309Y-37592618D01*
X46992250Y-37677520D01*
X46992250Y-37677520D01*
G36*
X46992250Y-36789441D02*
X46986218Y-36872215D01*
X46963097Y-36908071D01*
X46933153Y-36913750D01*
X46896297Y-36896084D01*
X46812578Y-36845359D01*
X46687120Y-36764984D01*
X46525043Y-36658367D01*
X46331471Y-36528916D01*
X46111526Y-36380041D01*
X45870329Y-36215150D01*
X45613004Y-36037651D01*
X45527755Y-35978513D01*
X45265277Y-35795857D01*
X45016972Y-35622449D01*
X44788056Y-35461973D01*
X44583744Y-35318115D01*
X44409254Y-35194560D01*
X44269800Y-35094994D01*
X44170600Y-35023102D01*
X44116868Y-34982569D01*
X44110476Y-34977151D01*
X44059824Y-34906821D01*
X44040459Y-34808226D01*
X44039500Y-34769388D01*
X44048161Y-34669364D01*
X44073815Y-34628648D01*
X44079879Y-34627750D01*
X44112924Y-34645357D01*
X44191988Y-34695462D01*
X44311179Y-34773987D01*
X44464607Y-34876854D01*
X44646381Y-34999987D01*
X44850610Y-35139307D01*
X45071404Y-35290737D01*
X45302872Y-35450200D01*
X45539124Y-35613618D01*
X45774267Y-35776914D01*
X46002413Y-35936011D01*
X46217669Y-36086831D01*
X46414146Y-36225297D01*
X46585953Y-36347331D01*
X46727198Y-36448856D01*
X46831991Y-36525794D01*
X46894442Y-36574069D01*
X46904937Y-36583185D01*
X46970173Y-36666792D01*
X46991854Y-36768028D01*
X46992250Y-36789441D01*
X46992250Y-36789441D01*
X46992250Y-36789441D01*
G37*
X46992250Y-36789441D02*
X46986218Y-36872215D01*
X46963097Y-36908071D01*
X46933153Y-36913750D01*
X46896297Y-36896084D01*
X46812578Y-36845359D01*
X46687120Y-36764984D01*
X46525043Y-36658367D01*
X46331471Y-36528916D01*
X46111526Y-36380041D01*
X45870329Y-36215150D01*
X45613004Y-36037651D01*
X45527755Y-35978513D01*
X45265277Y-35795857D01*
X45016972Y-35622449D01*
X44788056Y-35461973D01*
X44583744Y-35318115D01*
X44409254Y-35194560D01*
X44269800Y-35094994D01*
X44170600Y-35023102D01*
X44116868Y-34982569D01*
X44110476Y-34977151D01*
X44059824Y-34906821D01*
X44040459Y-34808226D01*
X44039500Y-34769388D01*
X44048161Y-34669364D01*
X44073815Y-34628648D01*
X44079879Y-34627750D01*
X44112924Y-34645357D01*
X44191988Y-34695462D01*
X44311179Y-34773987D01*
X44464607Y-34876854D01*
X44646381Y-34999987D01*
X44850610Y-35139307D01*
X45071404Y-35290737D01*
X45302872Y-35450200D01*
X45539124Y-35613618D01*
X45774267Y-35776914D01*
X46002413Y-35936011D01*
X46217669Y-36086831D01*
X46414146Y-36225297D01*
X46585953Y-36347331D01*
X46727198Y-36448856D01*
X46831991Y-36525794D01*
X46894442Y-36574069D01*
X46904937Y-36583185D01*
X46970173Y-36666792D01*
X46991854Y-36768028D01*
X46992250Y-36789441D01*
X46992250Y-36789441D01*
G36*
X46992250Y-35851618D02*
X46988607Y-35939393D01*
X46972018Y-35980421D01*
X46933994Y-35991297D01*
X46920812Y-35991266D01*
X46880543Y-35973133D01*
X46793579Y-35921737D01*
X46665073Y-35840479D01*
X46500178Y-35732759D01*
X46304046Y-35601977D01*
X46081831Y-35451533D01*
X45838685Y-35284826D01*
X45609636Y-35126079D01*
X45353827Y-34947829D01*
X45108737Y-34776889D01*
X44880374Y-34617461D01*
X44674746Y-34473745D01*
X44497858Y-34349942D01*
X44355718Y-34250252D01*
X44254334Y-34178877D01*
X44203146Y-34142499D01*
X44036395Y-34022374D01*
X44045884Y-33840874D01*
X44053736Y-33737885D01*
X44067914Y-33683364D01*
X44095098Y-33662284D01*
X44126544Y-33659375D01*
X44168854Y-33677297D01*
X44256606Y-33728280D01*
X44383806Y-33808149D01*
X44544459Y-33912729D01*
X44732571Y-34037846D01*
X44942146Y-34179324D01*
X45167192Y-34332989D01*
X45401712Y-34494666D01*
X45639713Y-34660179D01*
X45875199Y-34825354D01*
X46102178Y-34986016D01*
X46314653Y-35137991D01*
X46506630Y-35277103D01*
X46672115Y-35399177D01*
X46805114Y-35500039D01*
X46899631Y-35575513D01*
X46949673Y-35621425D01*
X46955509Y-35629601D01*
X46978778Y-35712849D01*
X46991463Y-35820822D01*
X46992250Y-35851618D01*
X46992250Y-35851618D01*
X46992250Y-35851618D01*
G37*
X46992250Y-35851618D02*
X46988607Y-35939393D01*
X46972018Y-35980421D01*
X46933994Y-35991297D01*
X46920812Y-35991266D01*
X46880543Y-35973133D01*
X46793579Y-35921737D01*
X46665073Y-35840479D01*
X46500178Y-35732759D01*
X46304046Y-35601977D01*
X46081831Y-35451533D01*
X45838685Y-35284826D01*
X45609636Y-35126079D01*
X45353827Y-34947829D01*
X45108737Y-34776889D01*
X44880374Y-34617461D01*
X44674746Y-34473745D01*
X44497858Y-34349942D01*
X44355718Y-34250252D01*
X44254334Y-34178877D01*
X44203146Y-34142499D01*
X44036395Y-34022374D01*
X44045884Y-33840874D01*
X44053736Y-33737885D01*
X44067914Y-33683364D01*
X44095098Y-33662284D01*
X44126544Y-33659375D01*
X44168854Y-33677297D01*
X44256606Y-33728280D01*
X44383806Y-33808149D01*
X44544459Y-33912729D01*
X44732571Y-34037846D01*
X44942146Y-34179324D01*
X45167192Y-34332989D01*
X45401712Y-34494666D01*
X45639713Y-34660179D01*
X45875199Y-34825354D01*
X46102178Y-34986016D01*
X46314653Y-35137991D01*
X46506630Y-35277103D01*
X46672115Y-35399177D01*
X46805114Y-35500039D01*
X46899631Y-35575513D01*
X46949673Y-35621425D01*
X46955509Y-35629601D01*
X46978778Y-35712849D01*
X46991463Y-35820822D01*
X46992250Y-35851618D01*
X46992250Y-35851618D01*
G36*
X46992250Y-34737431D02*
X46990642Y-34849021D01*
X46982565Y-34911275D01*
X46963134Y-34938336D01*
X46927465Y-34944348D01*
X46920812Y-34944314D01*
X46880464Y-34926293D01*
X46792782Y-34874618D01*
X46662296Y-34792277D01*
X46493532Y-34682257D01*
X46291020Y-34547546D01*
X46059287Y-34391133D01*
X45802863Y-34216003D01*
X45526275Y-34025146D01*
X45500000Y-34006919D01*
X45237632Y-33824298D01*
X44989915Y-33650837D01*
X44761998Y-33490213D01*
X44559030Y-33346104D01*
X44386160Y-33222187D01*
X44248538Y-33122140D01*
X44151312Y-33049641D01*
X44099633Y-33008367D01*
X44093682Y-33002508D01*
X44060430Y-32932205D01*
X44043434Y-32833439D01*
X44041986Y-32725448D01*
X44055381Y-32627466D01*
X44082913Y-32558731D01*
X44110723Y-32538219D01*
X44144998Y-32554014D01*
X44225311Y-32602228D01*
X44345723Y-32678799D01*
X44500295Y-32779667D01*
X44683087Y-32900774D01*
X44888160Y-33038058D01*
X45109577Y-33187459D01*
X45341396Y-33344918D01*
X45577680Y-33506374D01*
X45812489Y-33667767D01*
X46039885Y-33825037D01*
X46253927Y-33974124D01*
X46448678Y-34110968D01*
X46618198Y-34231508D01*
X46756547Y-34331685D01*
X46857788Y-34407438D01*
X46915980Y-34454708D01*
X46920812Y-34459271D01*
X46961236Y-34510068D01*
X46983081Y-34574515D01*
X46991483Y-34672611D01*
X46992250Y-34737431D01*
X46992250Y-34737431D01*
X46992250Y-34737431D01*
G37*
X46992250Y-34737431D02*
X46990642Y-34849021D01*
X46982565Y-34911275D01*
X46963134Y-34938336D01*
X46927465Y-34944348D01*
X46920812Y-34944314D01*
X46880464Y-34926293D01*
X46792782Y-34874618D01*
X46662296Y-34792277D01*
X46493532Y-34682257D01*
X46291020Y-34547546D01*
X46059287Y-34391133D01*
X45802863Y-34216003D01*
X45526275Y-34025146D01*
X45500000Y-34006919D01*
X45237632Y-33824298D01*
X44989915Y-33650837D01*
X44761998Y-33490213D01*
X44559030Y-33346104D01*
X44386160Y-33222187D01*
X44248538Y-33122140D01*
X44151312Y-33049641D01*
X44099633Y-33008367D01*
X44093682Y-33002508D01*
X44060430Y-32932205D01*
X44043434Y-32833439D01*
X44041986Y-32725448D01*
X44055381Y-32627466D01*
X44082913Y-32558731D01*
X44110723Y-32538219D01*
X44144998Y-32554014D01*
X44225311Y-32602228D01*
X44345723Y-32678799D01*
X44500295Y-32779667D01*
X44683087Y-32900774D01*
X44888160Y-33038058D01*
X45109577Y-33187459D01*
X45341396Y-33344918D01*
X45577680Y-33506374D01*
X45812489Y-33667767D01*
X46039885Y-33825037D01*
X46253927Y-33974124D01*
X46448678Y-34110968D01*
X46618198Y-34231508D01*
X46756547Y-34331685D01*
X46857788Y-34407438D01*
X46915980Y-34454708D01*
X46920812Y-34459271D01*
X46961236Y-34510068D01*
X46983081Y-34574515D01*
X46991483Y-34672611D01*
X46992250Y-34737431D01*
X46992250Y-34737431D01*
G36*
X46992250Y-33615267D02*
X46991183Y-33740265D01*
X46985512Y-33814664D01*
X46971530Y-33851355D01*
X46945531Y-33863233D01*
X46920812Y-33863765D01*
X46871110Y-33845441D01*
X46780722Y-33796179D01*
X46660317Y-33722391D01*
X46520560Y-33630490D01*
X46436625Y-33572668D01*
X46306238Y-33481501D01*
X46133995Y-33361315D01*
X45930210Y-33219292D01*
X45705197Y-33062617D01*
X45469269Y-32898471D01*
X45232739Y-32734038D01*
X45134875Y-32666046D01*
X44919482Y-32515675D01*
X44716762Y-32372715D01*
X44533689Y-32242193D01*
X44377233Y-32129135D01*
X44254368Y-32038567D01*
X44172067Y-31975517D01*
X44142687Y-31950790D01*
X44090644Y-31897922D01*
X44059893Y-31849144D01*
X44044848Y-31785749D01*
X44039922Y-31689031D01*
X44039500Y-31605271D01*
X44040603Y-31481064D01*
X44046426Y-31407341D01*
X44060734Y-31371093D01*
X44087295Y-31359312D01*
X44110937Y-31358579D01*
X44148791Y-31376401D01*
X44232541Y-31426741D01*
X44356207Y-31505491D01*
X44513810Y-31608548D01*
X44699370Y-31731806D01*
X44906909Y-31871158D01*
X45130446Y-32022500D01*
X45364003Y-32181725D01*
X45601599Y-32344729D01*
X45837256Y-32507405D01*
X46064994Y-32665648D01*
X46278834Y-32815354D01*
X46472796Y-32952415D01*
X46640901Y-33072726D01*
X46777169Y-33172183D01*
X46875621Y-33246679D01*
X46930278Y-33292108D01*
X46936687Y-33298783D01*
X46967318Y-33352660D01*
X46984797Y-33433900D01*
X46991788Y-33557668D01*
X46992250Y-33615267D01*
X46992250Y-33615267D01*
X46992250Y-33615267D01*
G37*
X46992250Y-33615267D02*
X46991183Y-33740265D01*
X46985512Y-33814664D01*
X46971530Y-33851355D01*
X46945531Y-33863233D01*
X46920812Y-33863765D01*
X46871110Y-33845441D01*
X46780722Y-33796179D01*
X46660317Y-33722391D01*
X46520560Y-33630490D01*
X46436625Y-33572668D01*
X46306238Y-33481501D01*
X46133995Y-33361315D01*
X45930210Y-33219292D01*
X45705197Y-33062617D01*
X45469269Y-32898471D01*
X45232739Y-32734038D01*
X45134875Y-32666046D01*
X44919482Y-32515675D01*
X44716762Y-32372715D01*
X44533689Y-32242193D01*
X44377233Y-32129135D01*
X44254368Y-32038567D01*
X44172067Y-31975517D01*
X44142687Y-31950790D01*
X44090644Y-31897922D01*
X44059893Y-31849144D01*
X44044848Y-31785749D01*
X44039922Y-31689031D01*
X44039500Y-31605271D01*
X44040603Y-31481064D01*
X44046426Y-31407341D01*
X44060734Y-31371093D01*
X44087295Y-31359312D01*
X44110937Y-31358579D01*
X44148791Y-31376401D01*
X44232541Y-31426741D01*
X44356207Y-31505491D01*
X44513810Y-31608548D01*
X44699370Y-31731806D01*
X44906909Y-31871158D01*
X45130446Y-32022500D01*
X45364003Y-32181725D01*
X45601599Y-32344729D01*
X45837256Y-32507405D01*
X46064994Y-32665648D01*
X46278834Y-32815354D01*
X46472796Y-32952415D01*
X46640901Y-33072726D01*
X46777169Y-33172183D01*
X46875621Y-33246679D01*
X46930278Y-33292108D01*
X46936687Y-33298783D01*
X46967318Y-33352660D01*
X46984797Y-33433900D01*
X46991788Y-33557668D01*
X46992250Y-33615267D01*
X46992250Y-33615267D01*
G36*
X46976375Y-27164241D02*
X46976337Y-27859253D01*
X46976207Y-28493510D01*
X46975961Y-29069757D01*
X46975572Y-29590740D01*
X46975017Y-30059203D01*
X46974269Y-30477892D01*
X46973304Y-30849551D01*
X46972096Y-31176927D01*
X46970621Y-31462763D01*
X46968854Y-31709806D01*
X46966769Y-31920800D01*
X46964341Y-32098490D01*
X46961546Y-32245621D01*
X46958357Y-32364940D01*
X46954751Y-32459190D01*
X46950702Y-32531116D01*
X46946184Y-32583465D01*
X46941174Y-32618981D01*
X46935645Y-32640409D01*
X46929573Y-32650495D01*
X46926240Y-32652159D01*
X46875552Y-32640192D01*
X46792640Y-32599442D01*
X46703990Y-32544333D01*
X46453216Y-32372680D01*
X46270819Y-32247222D01*
X46270819Y-22880250D01*
X46095913Y-22880250D01*
X45921008Y-22880250D01*
X45904593Y-23025886D01*
X45887049Y-23121745D01*
X45862077Y-23192640D01*
X45851287Y-23208448D01*
X45804056Y-23226529D01*
X45710077Y-23242489D01*
X45586102Y-23253776D01*
X45537724Y-23256190D01*
X45399152Y-23259850D01*
X45296777Y-23252980D01*
X45224863Y-23227401D01*
X45177674Y-23174938D01*
X45149475Y-23087412D01*
X45134529Y-22956647D01*
X45127100Y-22774464D01*
X45124537Y-22667137D01*
X45121107Y-22444011D01*
X45125391Y-22276382D01*
X45142183Y-22156315D01*
X45176279Y-22075873D01*
X45232472Y-22027122D01*
X45315557Y-22002125D01*
X45430328Y-21992947D01*
X45532622Y-21991683D01*
X45692919Y-22001515D01*
X45799687Y-22034603D01*
X45859970Y-22095149D01*
X45880812Y-22187352D01*
X45881000Y-22199425D01*
X45881000Y-22308750D01*
X46055625Y-22308750D01*
X46230250Y-22308750D01*
X46230250Y-22162735D01*
X46215941Y-22001846D01*
X46169237Y-21879152D01*
X46084469Y-21790746D01*
X45955966Y-21732720D01*
X45778061Y-21701166D01*
X45547625Y-21692167D01*
X45306101Y-21702090D01*
X45118833Y-21734067D01*
X44978683Y-21793922D01*
X44878516Y-21887476D01*
X44811196Y-22020553D01*
X44769588Y-22198975D01*
X44753083Y-22340500D01*
X44746883Y-22493161D01*
X44750805Y-22669736D01*
X44763276Y-22854149D01*
X44782721Y-23030325D01*
X44807566Y-23182190D01*
X44836237Y-23293668D01*
X44849556Y-23325585D01*
X44918860Y-23424213D01*
X45014858Y-23494898D01*
X45145677Y-23540186D01*
X45319444Y-23562620D01*
X45544285Y-23564746D01*
X45606274Y-23562537D01*
X45811864Y-23546964D01*
X45960640Y-23519625D01*
X46034899Y-23492577D01*
X46131868Y-23425563D01*
X46197457Y-23328731D01*
X46237813Y-23190146D01*
X46253843Y-23067460D01*
X46270819Y-22880250D01*
X46270819Y-32247222D01*
X46269285Y-32246166D01*
X46269285Y-24023250D01*
X46094462Y-24023250D01*
X45919640Y-24023250D01*
X45908153Y-24740514D01*
X45904279Y-24971682D01*
X45900412Y-25147732D01*
X45895624Y-25277038D01*
X45888984Y-25367976D01*
X45879563Y-25428921D01*
X45866432Y-25468247D01*
X45848661Y-25494329D01*
X45825320Y-25515542D01*
X45821816Y-25518389D01*
X45736966Y-25556875D01*
X45612751Y-25578610D01*
X45471056Y-25583597D01*
X45333766Y-25571837D01*
X45222765Y-25543331D01*
X45178079Y-25518345D01*
X45153913Y-25497174D01*
X45135458Y-25472306D01*
X45121792Y-25435366D01*
X45111995Y-25377979D01*
X45105146Y-25291771D01*
X45100324Y-25168367D01*
X45096609Y-24999391D01*
X45093078Y-24776468D01*
X45092546Y-24740470D01*
X45081968Y-24023250D01*
X44909984Y-24023250D01*
X44738000Y-24023250D01*
X44738000Y-24669791D01*
X44739932Y-24964346D01*
X44747155Y-25202315D01*
X44761805Y-25390532D01*
X44786020Y-25535833D01*
X44821936Y-25645052D01*
X44871692Y-25725025D01*
X44937423Y-25782586D01*
X45021268Y-25824571D01*
X45107969Y-25853003D01*
X45241744Y-25877014D01*
X45408519Y-25887071D01*
X45588522Y-25884080D01*
X45761982Y-25868946D01*
X45909129Y-25842575D01*
X45998275Y-25812233D01*
X46069525Y-25773568D01*
X46125663Y-25730595D01*
X46168637Y-25675532D01*
X46200394Y-25600598D01*
X46222882Y-25498012D01*
X46238048Y-25359992D01*
X46247839Y-25178756D01*
X46254202Y-24946523D01*
X46257216Y-24777500D01*
X46269285Y-24023250D01*
X46269285Y-32246166D01*
X46262000Y-32241156D01*
X46262000Y-28944500D01*
X46262000Y-28801625D01*
X46262000Y-28658750D01*
X46236942Y-28658750D01*
X46236942Y-27639276D01*
X46231711Y-27483491D01*
X46209350Y-27364420D01*
X46162163Y-27275951D01*
X46082456Y-27211968D01*
X45962533Y-27166357D01*
X45794700Y-27133004D01*
X45571260Y-27105795D01*
X45564689Y-27105119D01*
X45416337Y-27087442D01*
X45289547Y-27067731D01*
X45198748Y-27048526D01*
X45159876Y-27033899D01*
X45131224Y-26976480D01*
X45120391Y-26883808D01*
X45127082Y-26781490D01*
X45151002Y-26695134D01*
X45164050Y-26672505D01*
X45195003Y-26642000D01*
X45242794Y-26623423D01*
X45321824Y-26614002D01*
X45446493Y-26610962D01*
X45484047Y-26610875D01*
X45644514Y-26616619D01*
X45751715Y-26637254D01*
X45815127Y-26677879D01*
X45844224Y-26743595D01*
X45849250Y-26807443D01*
X45854693Y-26849512D01*
X45881312Y-26871423D01*
X45944542Y-26879655D01*
X46023875Y-26880750D01*
X46198500Y-26880750D01*
X46198500Y-26768605D01*
X46185358Y-26659209D01*
X46153581Y-26549017D01*
X46152017Y-26545212D01*
X46105877Y-26465516D01*
X46037811Y-26407258D01*
X45938801Y-26367536D01*
X45799829Y-26343448D01*
X45611879Y-26332090D01*
X45484125Y-26330217D01*
X45251206Y-26335497D01*
X45073757Y-26357158D01*
X44944670Y-26400801D01*
X44856837Y-26472028D01*
X44803150Y-26576440D01*
X44776500Y-26719639D01*
X44769750Y-26893169D01*
X44774688Y-27028955D01*
X44794278Y-27135219D01*
X44835684Y-27216554D01*
X44906069Y-27277554D01*
X45012597Y-27322813D01*
X45162433Y-27356924D01*
X45362738Y-27384481D01*
X45568376Y-27405289D01*
X45685781Y-27421359D01*
X45783244Y-27443899D01*
X45835413Y-27465689D01*
X45872620Y-27526281D01*
X45889423Y-27622196D01*
X45885783Y-27728611D01*
X45861655Y-27820701D01*
X45836081Y-27860025D01*
X45773934Y-27890238D01*
X45668058Y-27912244D01*
X45537871Y-27924525D01*
X45402791Y-27925561D01*
X45282237Y-27913836D01*
X45246000Y-27906165D01*
X45172460Y-27879324D01*
X45132010Y-27833557D01*
X45105545Y-27746944D01*
X45104964Y-27744363D01*
X45075054Y-27611000D01*
X44902922Y-27611000D01*
X44730789Y-27611000D01*
X44752970Y-27758911D01*
X44787329Y-27923091D01*
X44839633Y-28036697D01*
X44920837Y-28112266D01*
X45041901Y-28162340D01*
X45122818Y-28182162D01*
X45238931Y-28196734D01*
X45391229Y-28202066D01*
X45561142Y-28199048D01*
X45730100Y-28188566D01*
X45879533Y-28171509D01*
X45990870Y-28148764D01*
X46018017Y-28139368D01*
X46116787Y-28078471D01*
X46183397Y-27986646D01*
X46221951Y-27854513D01*
X46236557Y-27672695D01*
X46236942Y-27639276D01*
X46236942Y-28658750D01*
X45500000Y-28658750D01*
X44738000Y-28658750D01*
X44738000Y-29579500D01*
X44738000Y-30500250D01*
X44912625Y-30500250D01*
X45087250Y-30500250D01*
X45087250Y-30119250D01*
X45087250Y-29738250D01*
X45595250Y-29738250D01*
X46103250Y-29738250D01*
X46103250Y-29595375D01*
X46103250Y-29452500D01*
X45595250Y-29452500D01*
X45087250Y-29452500D01*
X45087250Y-29198500D01*
X45087250Y-28944500D01*
X45674625Y-28944500D01*
X46262000Y-28944500D01*
X46262000Y-32241156D01*
X46191382Y-32192583D01*
X45923780Y-32007752D01*
X45655702Y-31821897D01*
X45392442Y-31638728D01*
X45139290Y-31461954D01*
X44901539Y-31295285D01*
X44684482Y-31142431D01*
X44493411Y-31007103D01*
X44333618Y-30893009D01*
X44210396Y-30803860D01*
X44129037Y-30743365D01*
X44095062Y-30715504D01*
X44087282Y-30704012D01*
X44080262Y-30686137D01*
X44073962Y-30658744D01*
X44068345Y-30618697D01*
X44063370Y-30562861D01*
X44059000Y-30488099D01*
X44055195Y-30391276D01*
X44051916Y-30269257D01*
X44049125Y-30118907D01*
X44046783Y-29937088D01*
X44044852Y-29720667D01*
X44043291Y-29466506D01*
X44042063Y-29171471D01*
X44041128Y-28832427D01*
X44040449Y-28446236D01*
X44039985Y-28009765D01*
X44039698Y-27519877D01*
X44039550Y-26973436D01*
X44039501Y-26367308D01*
X44039500Y-26228424D01*
X44039709Y-25522948D01*
X44040340Y-24880167D01*
X44041401Y-24299276D01*
X44042895Y-23779470D01*
X44044830Y-23319946D01*
X44047211Y-22919898D01*
X44050045Y-22578523D01*
X44053337Y-22295017D01*
X44057093Y-22068574D01*
X44061320Y-21898391D01*
X44066023Y-21783663D01*
X44071208Y-21723586D01*
X44073068Y-21715504D01*
X44095370Y-21669428D01*
X44145416Y-21574207D01*
X44219819Y-21436038D01*
X44315188Y-21261120D01*
X44428137Y-21055651D01*
X44555275Y-20825830D01*
X44693215Y-20577855D01*
X44777934Y-20426188D01*
X44943016Y-20131811D01*
X45080446Y-19888594D01*
X45193041Y-19691982D01*
X45283617Y-19537422D01*
X45354990Y-19420360D01*
X45409977Y-19336243D01*
X45451394Y-19280517D01*
X45482057Y-19248628D01*
X45504782Y-19236022D01*
X45514302Y-19235563D01*
X45538914Y-19251980D01*
X45578164Y-19298453D01*
X45634271Y-19378554D01*
X45709452Y-19495855D01*
X45805926Y-19653929D01*
X45925911Y-19856348D01*
X46071624Y-20106684D01*
X46245283Y-20408511D01*
X46277875Y-20465427D01*
X46976375Y-21685979D01*
X46976375Y-27164241D01*
X46976375Y-27164241D01*
X46976375Y-27164241D01*
G37*
X46976375Y-27164241D02*
X46976337Y-27859253D01*
X46976207Y-28493510D01*
X46975961Y-29069757D01*
X46975572Y-29590740D01*
X46975017Y-30059203D01*
X46974269Y-30477892D01*
X46973304Y-30849551D01*
X46972096Y-31176927D01*
X46970621Y-31462763D01*
X46968854Y-31709806D01*
X46966769Y-31920800D01*
X46964341Y-32098490D01*
X46961546Y-32245621D01*
X46958357Y-32364940D01*
X46954751Y-32459190D01*
X46950702Y-32531116D01*
X46946184Y-32583465D01*
X46941174Y-32618981D01*
X46935645Y-32640409D01*
X46929573Y-32650495D01*
X46926240Y-32652159D01*
X46875552Y-32640192D01*
X46792640Y-32599442D01*
X46703990Y-32544333D01*
X46453216Y-32372680D01*
X46270819Y-32247222D01*
X46270819Y-22880250D01*
X46095913Y-22880250D01*
X45921008Y-22880250D01*
X45904593Y-23025886D01*
X45887049Y-23121745D01*
X45862077Y-23192640D01*
X45851287Y-23208448D01*
X45804056Y-23226529D01*
X45710077Y-23242489D01*
X45586102Y-23253776D01*
X45537724Y-23256190D01*
X45399152Y-23259850D01*
X45296777Y-23252980D01*
X45224863Y-23227401D01*
X45177674Y-23174938D01*
X45149475Y-23087412D01*
X45134529Y-22956647D01*
X45127100Y-22774464D01*
X45124537Y-22667137D01*
X45121107Y-22444011D01*
X45125391Y-22276382D01*
X45142183Y-22156315D01*
X45176279Y-22075873D01*
X45232472Y-22027122D01*
X45315557Y-22002125D01*
X45430328Y-21992947D01*
X45532622Y-21991683D01*
X45692919Y-22001515D01*
X45799687Y-22034603D01*
X45859970Y-22095149D01*
X45880812Y-22187352D01*
X45881000Y-22199425D01*
X45881000Y-22308750D01*
X46055625Y-22308750D01*
X46230250Y-22308750D01*
X46230250Y-22162735D01*
X46215941Y-22001846D01*
X46169237Y-21879152D01*
X46084469Y-21790746D01*
X45955966Y-21732720D01*
X45778061Y-21701166D01*
X45547625Y-21692167D01*
X45306101Y-21702090D01*
X45118833Y-21734067D01*
X44978683Y-21793922D01*
X44878516Y-21887476D01*
X44811196Y-22020553D01*
X44769588Y-22198975D01*
X44753083Y-22340500D01*
X44746883Y-22493161D01*
X44750805Y-22669736D01*
X44763276Y-22854149D01*
X44782721Y-23030325D01*
X44807566Y-23182190D01*
X44836237Y-23293668D01*
X44849556Y-23325585D01*
X44918860Y-23424213D01*
X45014858Y-23494898D01*
X45145677Y-23540186D01*
X45319444Y-23562620D01*
X45544285Y-23564746D01*
X45606274Y-23562537D01*
X45811864Y-23546964D01*
X45960640Y-23519625D01*
X46034899Y-23492577D01*
X46131868Y-23425563D01*
X46197457Y-23328731D01*
X46237813Y-23190146D01*
X46253843Y-23067460D01*
X46270819Y-22880250D01*
X46270819Y-32247222D01*
X46269285Y-32246166D01*
X46269285Y-24023250D01*
X46094462Y-24023250D01*
X45919640Y-24023250D01*
X45908153Y-24740514D01*
X45904279Y-24971682D01*
X45900412Y-25147732D01*
X45895624Y-25277038D01*
X45888984Y-25367976D01*
X45879563Y-25428921D01*
X45866432Y-25468247D01*
X45848661Y-25494329D01*
X45825320Y-25515542D01*
X45821816Y-25518389D01*
X45736966Y-25556875D01*
X45612751Y-25578610D01*
X45471056Y-25583597D01*
X45333766Y-25571837D01*
X45222765Y-25543331D01*
X45178079Y-25518345D01*
X45153913Y-25497174D01*
X45135458Y-25472306D01*
X45121792Y-25435366D01*
X45111995Y-25377979D01*
X45105146Y-25291771D01*
X45100324Y-25168367D01*
X45096609Y-24999391D01*
X45093078Y-24776468D01*
X45092546Y-24740470D01*
X45081968Y-24023250D01*
X44909984Y-24023250D01*
X44738000Y-24023250D01*
X44738000Y-24669791D01*
X44739932Y-24964346D01*
X44747155Y-25202315D01*
X44761805Y-25390532D01*
X44786020Y-25535833D01*
X44821936Y-25645052D01*
X44871692Y-25725025D01*
X44937423Y-25782586D01*
X45021268Y-25824571D01*
X45107969Y-25853003D01*
X45241744Y-25877014D01*
X45408519Y-25887071D01*
X45588522Y-25884080D01*
X45761982Y-25868946D01*
X45909129Y-25842575D01*
X45998275Y-25812233D01*
X46069525Y-25773568D01*
X46125663Y-25730595D01*
X46168637Y-25675532D01*
X46200394Y-25600598D01*
X46222882Y-25498012D01*
X46238048Y-25359992D01*
X46247839Y-25178756D01*
X46254202Y-24946523D01*
X46257216Y-24777500D01*
X46269285Y-24023250D01*
X46269285Y-32246166D01*
X46262000Y-32241156D01*
X46262000Y-28944500D01*
X46262000Y-28801625D01*
X46262000Y-28658750D01*
X46236942Y-28658750D01*
X46236942Y-27639276D01*
X46231711Y-27483491D01*
X46209350Y-27364420D01*
X46162163Y-27275951D01*
X46082456Y-27211968D01*
X45962533Y-27166357D01*
X45794700Y-27133004D01*
X45571260Y-27105795D01*
X45564689Y-27105119D01*
X45416337Y-27087442D01*
X45289547Y-27067731D01*
X45198748Y-27048526D01*
X45159876Y-27033899D01*
X45131224Y-26976480D01*
X45120391Y-26883808D01*
X45127082Y-26781490D01*
X45151002Y-26695134D01*
X45164050Y-26672505D01*
X45195003Y-26642000D01*
X45242794Y-26623423D01*
X45321824Y-26614002D01*
X45446493Y-26610962D01*
X45484047Y-26610875D01*
X45644514Y-26616619D01*
X45751715Y-26637254D01*
X45815127Y-26677879D01*
X45844224Y-26743595D01*
X45849250Y-26807443D01*
X45854693Y-26849512D01*
X45881312Y-26871423D01*
X45944542Y-26879655D01*
X46023875Y-26880750D01*
X46198500Y-26880750D01*
X46198500Y-26768605D01*
X46185358Y-26659209D01*
X46153581Y-26549017D01*
X46152017Y-26545212D01*
X46105877Y-26465516D01*
X46037811Y-26407258D01*
X45938801Y-26367536D01*
X45799829Y-26343448D01*
X45611879Y-26332090D01*
X45484125Y-26330217D01*
X45251206Y-26335497D01*
X45073757Y-26357158D01*
X44944670Y-26400801D01*
X44856837Y-26472028D01*
X44803150Y-26576440D01*
X44776500Y-26719639D01*
X44769750Y-26893169D01*
X44774688Y-27028955D01*
X44794278Y-27135219D01*
X44835684Y-27216554D01*
X44906069Y-27277554D01*
X45012597Y-27322813D01*
X45162433Y-27356924D01*
X45362738Y-27384481D01*
X45568376Y-27405289D01*
X45685781Y-27421359D01*
X45783244Y-27443899D01*
X45835413Y-27465689D01*
X45872620Y-27526281D01*
X45889423Y-27622196D01*
X45885783Y-27728611D01*
X45861655Y-27820701D01*
X45836081Y-27860025D01*
X45773934Y-27890238D01*
X45668058Y-27912244D01*
X45537871Y-27924525D01*
X45402791Y-27925561D01*
X45282237Y-27913836D01*
X45246000Y-27906165D01*
X45172460Y-27879324D01*
X45132010Y-27833557D01*
X45105545Y-27746944D01*
X45104964Y-27744363D01*
X45075054Y-27611000D01*
X44902922Y-27611000D01*
X44730789Y-27611000D01*
X44752970Y-27758911D01*
X44787329Y-27923091D01*
X44839633Y-28036697D01*
X44920837Y-28112266D01*
X45041901Y-28162340D01*
X45122818Y-28182162D01*
X45238931Y-28196734D01*
X45391229Y-28202066D01*
X45561142Y-28199048D01*
X45730100Y-28188566D01*
X45879533Y-28171509D01*
X45990870Y-28148764D01*
X46018017Y-28139368D01*
X46116787Y-28078471D01*
X46183397Y-27986646D01*
X46221951Y-27854513D01*
X46236557Y-27672695D01*
X46236942Y-27639276D01*
X46236942Y-28658750D01*
X45500000Y-28658750D01*
X44738000Y-28658750D01*
X44738000Y-29579500D01*
X44738000Y-30500250D01*
X44912625Y-30500250D01*
X45087250Y-30500250D01*
X45087250Y-30119250D01*
X45087250Y-29738250D01*
X45595250Y-29738250D01*
X46103250Y-29738250D01*
X46103250Y-29595375D01*
X46103250Y-29452500D01*
X45595250Y-29452500D01*
X45087250Y-29452500D01*
X45087250Y-29198500D01*
X45087250Y-28944500D01*
X45674625Y-28944500D01*
X46262000Y-28944500D01*
X46262000Y-32241156D01*
X46191382Y-32192583D01*
X45923780Y-32007752D01*
X45655702Y-31821897D01*
X45392442Y-31638728D01*
X45139290Y-31461954D01*
X44901539Y-31295285D01*
X44684482Y-31142431D01*
X44493411Y-31007103D01*
X44333618Y-30893009D01*
X44210396Y-30803860D01*
X44129037Y-30743365D01*
X44095062Y-30715504D01*
X44087282Y-30704012D01*
X44080262Y-30686137D01*
X44073962Y-30658744D01*
X44068345Y-30618697D01*
X44063370Y-30562861D01*
X44059000Y-30488099D01*
X44055195Y-30391276D01*
X44051916Y-30269257D01*
X44049125Y-30118907D01*
X44046783Y-29937088D01*
X44044852Y-29720667D01*
X44043291Y-29466506D01*
X44042063Y-29171471D01*
X44041128Y-28832427D01*
X44040449Y-28446236D01*
X44039985Y-28009765D01*
X44039698Y-27519877D01*
X44039550Y-26973436D01*
X44039501Y-26367308D01*
X44039500Y-26228424D01*
X44039709Y-25522948D01*
X44040340Y-24880167D01*
X44041401Y-24299276D01*
X44042895Y-23779470D01*
X44044830Y-23319946D01*
X44047211Y-22919898D01*
X44050045Y-22578523D01*
X44053337Y-22295017D01*
X44057093Y-22068574D01*
X44061320Y-21898391D01*
X44066023Y-21783663D01*
X44071208Y-21723586D01*
X44073068Y-21715504D01*
X44095370Y-21669428D01*
X44145416Y-21574207D01*
X44219819Y-21436038D01*
X44315188Y-21261120D01*
X44428137Y-21055651D01*
X44555275Y-20825830D01*
X44693215Y-20577855D01*
X44777934Y-20426188D01*
X44943016Y-20131811D01*
X45080446Y-19888594D01*
X45193041Y-19691982D01*
X45283617Y-19537422D01*
X45354990Y-19420360D01*
X45409977Y-19336243D01*
X45451394Y-19280517D01*
X45482057Y-19248628D01*
X45504782Y-19236022D01*
X45514302Y-19235563D01*
X45538914Y-19251980D01*
X45578164Y-19298453D01*
X45634271Y-19378554D01*
X45709452Y-19495855D01*
X45805926Y-19653929D01*
X45925911Y-19856348D01*
X46071624Y-20106684D01*
X46245283Y-20408511D01*
X46277875Y-20465427D01*
X46976375Y-21685979D01*
X46976375Y-27164241D01*
X46976375Y-27164241D01*
D13*
X38300000Y-8450000D02*
X38300000Y-7050000D01*
X38300000Y-7050000D02*
X42700000Y-7050000D01*
X42700000Y-7050000D02*
X42700000Y-8450000D01*
X42700000Y-8450000D02*
X38300000Y-8450000D01*
X42200000Y-35800000D02*
X42200000Y-37200000D01*
X42200000Y-37200000D02*
X37800000Y-37200000D01*
X37800000Y-37200000D02*
X37800000Y-35800000D01*
X37800000Y-35800000D02*
X42200000Y-35800000D01*
X35850000Y-21000000D02*
X35850000Y-20500000D01*
X35850000Y-20500000D02*
X33350000Y-20500000D01*
X33350000Y-20500000D02*
X33350000Y-21000000D01*
X33350000Y-24000000D02*
X33350000Y-24500000D01*
X33350000Y-24500000D02*
X35850000Y-24500000D01*
X35850000Y-24500000D02*
X35850000Y-24000000D01*
X35850000Y-21000000D02*
X35850000Y-21800000D01*
X35850000Y-24000000D02*
X35850000Y-23200000D01*
X33350000Y-21300000D02*
X33350000Y-21000000D01*
X33350000Y-24000000D02*
X33350000Y-23700000D01*
X25300000Y-12150000D02*
X23600000Y-12150000D01*
X25300000Y-12850000D02*
X23600000Y-12850000D01*
X28200000Y-62850000D02*
X29900000Y-62850000D01*
X28200000Y-62150000D02*
X29900000Y-62150000D01*
X40800000Y-5950000D02*
X39100000Y-5950000D01*
X40800000Y-6650000D02*
X39100000Y-6650000D01*
X44000000Y-61850000D02*
X42300000Y-61850000D01*
X44000000Y-62550000D02*
X42300000Y-62550000D01*
X44600000Y-62550000D02*
X46300000Y-62550000D01*
X44600000Y-61850000D02*
X46300000Y-61850000D01*
X48300000Y-58000000D02*
G75*
G03X48300000Y-58000000I-3300000J0D01*
G74*
G01*
X8300000Y-15000000D02*
G75*
G03X8300000Y-15000000I-3300000J0D01*
G74*
G01*
X48300000Y-15000000D02*
G75*
G03X48300000Y-15000000I-3300000J0D01*
G74*
G01*
X8300000Y-58000000D02*
G75*
G03X8300000Y-58000000I-3300000J0D01*
G74*
G01*
X36162000Y-83000D02*
X47338000Y-83000D01*
X3300000Y-50000D02*
X14700000Y-50000D01*
X9545774Y-6050000D02*
G75*
G03X9545774Y-6050000I-145774J0D01*
G74*
G01*
X9400000Y-6050000D02*
X9400000Y-9350000D01*
X9400000Y-9350000D02*
X6600000Y-9350000D01*
X6600000Y-9350000D02*
X6600000Y-6050000D01*
X6600000Y-6050000D02*
X9400000Y-6050000D01*
%LPC*%
D14*
X47250000Y-2750000D02*
X48500000Y-2750000D01*
D12*
X37200000Y-2750000D02*
X37200000Y-2700000D01*
D14*
X35050000Y-2750000D02*
X37200000Y-2750000D01*
X15250000Y-2750000D02*
X14250000Y-2750000D01*
X16000000Y-2000000D02*
X15250000Y-2750000D01*
X2000000Y-2750000D02*
X4200000Y-2750000D01*
D15*
X45900000Y-40600000D02*
G75*
G03X45900000Y-40600000I-300000J0D01*
G74*
G01*
X43900000Y-40600000D02*
G75*
G03X43900000Y-40600000I-300000J0D01*
G74*
G01*
X27400000Y-50100000D02*
G75*
G03X27400000Y-50100000I-300000J0D01*
G74*
G01*
X27400000Y-48100000D02*
G75*
G03X27400000Y-48100000I-300000J0D01*
G74*
G01*
X27400000Y-46100000D02*
G75*
G03X27400000Y-46100000I-300000J0D01*
G74*
G01*
X27400000Y-44100000D02*
G75*
G03X27400000Y-44100000I-300000J0D01*
G74*
G01*
X27416228Y-42100000D02*
G75*
G03X27416228Y-42100000I-316228J0D01*
G74*
G01*
X27400000Y-40100000D02*
G75*
G03X27400000Y-40100000I-300000J0D01*
G74*
G01*
D14*
X32500000Y-27500000D02*
X32500000Y-39000000D01*
X48500000Y-39000000D02*
X48500000Y-51500000D01*
X32500000Y-39000000D02*
X38500000Y-39000000D01*
X48500000Y-51500000D02*
X34500000Y-51500000D01*
X48500000Y-3000000D02*
X48500000Y-39000000D01*
X19000000Y-9000000D02*
X19000000Y-10000000D01*
X21000000Y-7000000D02*
X19000000Y-9000000D01*
X21000000Y-3000000D02*
X21000000Y-7000000D01*
X20000000Y-2000000D02*
X21000000Y-3000000D01*
X16000000Y-2000000D02*
X20000000Y-2000000D01*
X2000000Y-3000000D02*
X2000000Y-21000000D01*
X35000000Y-3000000D02*
X35000000Y-15500000D01*
D16*
X36600000Y-31000000D02*
X36600000Y-35400000D01*
X37600000Y-31100000D02*
X37600000Y-35500000D01*
X36900000Y-8800000D02*
X36900000Y-13000000D01*
X37900000Y-8800000D02*
X37900000Y-13000000D01*
D17*
X15500000Y-58250000D03*
X15500000Y-59650000D03*
X22250000Y-58250000D03*
X22250000Y-59650000D03*
X24900000Y-18200000D03*
X24900000Y-16800000D03*
D18*
X23500000Y-13750000D03*
X24900000Y-13750000D03*
X15750000Y-52750000D03*
X14350000Y-52750000D03*
D17*
X22250000Y-55000000D03*
X22250000Y-56400000D03*
D18*
X24250000Y-61000000D03*
X22850000Y-61000000D03*
X24250000Y-53250000D03*
X22850000Y-53250000D03*
X29250000Y-35000000D03*
X27850000Y-35000000D03*
X26500000Y-35000000D03*
X25100000Y-35000000D03*
D17*
X26200000Y-22100000D03*
X26200000Y-23500000D03*
X27250000Y-56750000D03*
X27250000Y-58150000D03*
X24250000Y-49000000D03*
X24250000Y-50400000D03*
D18*
X4900000Y-32700000D03*
X3500000Y-32700000D03*
X27000000Y-37400000D03*
X28400000Y-37400000D03*
D19*
X34000000Y-17750000D03*
X35000000Y-17750000D03*
D18*
X33750000Y-16500000D03*
X35150000Y-16500000D03*
D20*
X31250000Y-26000000D03*
X34350000Y-26000000D03*
D19*
X36570000Y-35450000D03*
X36570000Y-36450000D03*
X36900000Y-8750000D03*
X36900000Y-7750000D03*
X37600000Y-34200000D03*
X36600000Y-34200000D03*
X37900000Y-10330000D03*
X36900000Y-10330000D03*
D17*
X7500000Y-41800000D03*
X7500000Y-40400000D03*
X10500000Y-43900000D03*
X10500000Y-45300000D03*
X8800000Y-41800000D03*
X8800000Y-40400000D03*
D18*
X20100000Y-35700000D03*
X21500000Y-35700000D03*
D17*
X11800000Y-32400000D03*
X11800000Y-31000000D03*
D18*
X16500000Y-46500000D03*
X15100000Y-46500000D03*
X16500000Y-45300000D03*
X15100000Y-45300000D03*
X17500000Y-22100000D03*
X18900000Y-22100000D03*
D17*
X11700000Y-8950000D03*
X11700000Y-7550000D03*
D18*
X7900000Y-19100000D03*
X6500000Y-19100000D03*
X6500000Y-26400000D03*
X5100000Y-26400000D03*
X5000000Y-41800000D03*
X3600000Y-41800000D03*
D17*
X3900000Y-46000000D03*
X3900000Y-47400000D03*
X3900000Y-50800000D03*
X3900000Y-49400000D03*
D21*
X19500000Y-28550000D03*
X19500000Y-26900000D03*
X20750000Y-28550000D03*
X20750000Y-26900000D03*
X18250000Y-28550000D03*
X18250000Y-26900000D03*
X15800000Y-28550000D03*
X15800000Y-26900000D03*
X17000000Y-28550000D03*
X17000000Y-26900000D03*
X14500000Y-28550000D03*
X14500000Y-26900000D03*
D22*
X25750000Y-55000000D03*
X25100000Y-55000000D03*
X24450000Y-55000000D03*
X23800000Y-55000000D03*
X23800000Y-59400000D03*
X24450000Y-59400000D03*
X25100000Y-59400000D03*
X25750000Y-59400000D03*
D23*
X20750000Y-54750000D03*
X19480000Y-54750000D03*
X18210000Y-54750000D03*
X16940000Y-54750000D03*
X16940000Y-59957000D03*
X18210000Y-59957000D03*
X19480000Y-59957000D03*
X20750000Y-59957000D03*
X14000000Y-54750000D03*
X12730000Y-54750000D03*
X11460000Y-54750000D03*
X10190000Y-54750000D03*
X10190000Y-59957000D03*
X11460000Y-59957000D03*
X12730000Y-59957000D03*
X14000000Y-59957000D03*
X26250000Y-20250000D03*
X27520000Y-20250000D03*
X28790000Y-20250000D03*
X30060000Y-20250000D03*
X30060000Y-15043000D03*
X28790000Y-15043000D03*
X27520000Y-15043000D03*
X26250000Y-15043000D03*
D24*
X11250000Y-11750000D03*
D25*
X11250000Y-12850000D03*
X11250000Y-13950000D03*
X11250000Y-15050000D03*
X11250000Y-16150000D03*
X11250000Y-17250000D03*
X11250000Y-18350000D03*
X11250000Y-19450000D03*
D24*
X11250000Y-20550000D03*
X20750000Y-11750000D03*
X20750000Y-20550000D03*
D25*
X20750000Y-12850000D03*
X20750000Y-13950000D03*
X20750000Y-15050000D03*
X20750000Y-16150000D03*
X20750000Y-17250000D03*
X20750000Y-18350000D03*
X20750000Y-19450000D03*
D26*
X11750000Y-43000000D03*
X12250000Y-43000000D03*
X12750000Y-43000000D03*
X13250000Y-43000000D03*
X13750000Y-43000000D03*
X14250000Y-43000000D03*
X14750000Y-43000000D03*
X15250000Y-43000000D03*
X15750000Y-43000000D03*
X16250000Y-43000000D03*
X16750000Y-43000000D03*
X17250000Y-43000000D03*
D27*
X18750000Y-41500000D03*
X18750000Y-41000000D03*
X18750000Y-40500000D03*
X18750000Y-40000000D03*
X18750000Y-39500000D03*
X18750000Y-39000000D03*
X18750000Y-38500000D03*
X18750000Y-38000000D03*
X18750000Y-37500000D03*
X18750000Y-37000000D03*
X18750000Y-36500000D03*
X18750000Y-36000000D03*
D26*
X17250000Y-34500000D03*
X16750000Y-34500000D03*
X16250000Y-34500000D03*
X15750000Y-34500000D03*
X15250000Y-34500000D03*
X14750000Y-34500000D03*
X14250000Y-34500000D03*
X13750000Y-34500000D03*
X13250000Y-34500000D03*
X12750000Y-34500000D03*
X12250000Y-34500000D03*
X11750000Y-34500000D03*
D27*
X10250000Y-36000000D03*
X10250000Y-36500000D03*
X10250000Y-37000000D03*
X10250000Y-37500000D03*
X10250000Y-38000000D03*
X10250000Y-38500000D03*
X10250000Y-39000000D03*
X10250000Y-39500000D03*
X10250000Y-40000000D03*
X10250000Y-40500000D03*
X10250000Y-41000000D03*
X10250000Y-41500000D03*
D22*
X7200000Y-20600000D03*
X6550000Y-20600000D03*
X5900000Y-20600000D03*
X5250000Y-20600000D03*
X5250000Y-25000000D03*
X5900000Y-25000000D03*
X6550000Y-25000000D03*
X7200000Y-25000000D03*
D28*
X35250000Y-19000000D03*
X33970000Y-19000000D03*
D29*
X36580000Y-29210000D03*
X36580000Y-30490000D03*
D30*
X36760000Y-13140000D03*
X36760000Y-13960000D03*
D31*
X3730000Y-34500000D03*
X5000000Y-34500000D03*
X3730000Y-35770000D03*
X5000000Y-35770000D03*
X3730000Y-37040000D03*
X5000000Y-37040000D03*
X3730000Y-38310000D03*
X5000000Y-38310000D03*
X3730000Y-39580000D03*
X5000000Y-39580000D03*
D21*
X21750000Y-48750000D03*
X21750000Y-50350000D03*
X23000000Y-48750000D03*
X23000000Y-50350000D03*
D32*
X36580000Y-26110000D03*
X36580000Y-27210000D03*
D21*
X41250000Y-62500000D03*
X41250000Y-60900000D03*
X40000000Y-62500000D03*
X40000000Y-60900000D03*
X10400000Y-9050000D03*
X10400000Y-7450000D03*
X20750000Y-29800000D03*
X20750000Y-31400000D03*
X19500000Y-29800000D03*
X19500000Y-31400000D03*
X22000000Y-29800000D03*
X22000000Y-31400000D03*
X18250000Y-29800000D03*
X18250000Y-31400000D03*
X15800000Y-29800000D03*
X15800000Y-31400000D03*
X17000000Y-29800000D03*
X17000000Y-31400000D03*
X14500000Y-29800000D03*
X14500000Y-31400000D03*
X10500000Y-50800000D03*
X10500000Y-49200000D03*
D33*
X7200000Y-46000000D03*
X7200000Y-50880000D03*
D34*
X26000000Y-8250000D03*
X28000000Y-8250000D03*
X30000000Y-8250000D03*
X32000000Y-8250000D03*
D35*
X24500000Y-6150000D03*
X33500000Y-6150000D03*
D34*
X10000000Y-66750000D03*
X8000000Y-66750000D03*
X6000000Y-66750000D03*
X4000000Y-66750000D03*
D35*
X11500000Y-68850000D03*
X2500000Y-68850000D03*
D34*
X22000000Y-66750000D03*
X20000000Y-66750000D03*
X18000000Y-66750000D03*
X16000000Y-66750000D03*
D35*
X23500000Y-68850000D03*
X14500000Y-68850000D03*
D34*
X46000000Y-66750000D03*
X44000000Y-66750000D03*
D35*
X47500000Y-68850000D03*
X42500000Y-68850000D03*
D34*
X30000000Y-66750000D03*
X28000000Y-66750000D03*
D35*
X31500000Y-68850000D03*
X26500000Y-68850000D03*
D34*
X38000000Y-66750000D03*
X36000000Y-66750000D03*
D35*
X39500000Y-68850000D03*
X34500000Y-68850000D03*
D36*
X27250000Y-32750000D03*
X24950000Y-32750000D03*
X29550000Y-32750000D03*
D37*
X27250000Y-26650000D03*
D38*
X40500000Y-7750000D03*
X39000000Y-7750000D03*
X42000000Y-7750000D03*
X40000000Y-36500000D03*
X41500000Y-36500000D03*
X38500000Y-36500000D03*
D39*
X25000000Y-48000000D03*
X25000000Y-46000000D03*
X25000000Y-44000000D03*
X25000000Y-42000000D03*
X9200000Y-17700000D03*
X10400000Y-21700000D03*
X20750000Y-10000000D03*
X7900000Y-18000000D03*
X18750000Y-52750000D03*
X17500000Y-52750000D03*
X27500000Y-22750000D03*
X29000000Y-22750000D03*
X21750000Y-47500000D03*
X37300000Y-62500000D03*
X27500000Y-61250000D03*
X29000000Y-12750000D03*
X27500000Y-12750000D03*
X10500000Y-62250000D03*
X11500000Y-52750000D03*
X18250000Y-62250000D03*
X12500000Y-62250000D03*
X12750000Y-52750000D03*
X19500000Y-62250000D03*
X29800000Y-24600000D03*
X27250000Y-55000000D03*
D40*
X36450000Y-22500000D03*
D41*
X36750000Y-24000000D03*
X36750000Y-21000000D03*
D42*
X33750000Y-22500000D03*
D43*
X36450000Y-22500000D03*
X37050000Y-22500000D03*
X35850000Y-22500000D03*
X35250000Y-22500000D03*
X34650000Y-22500000D03*
X34050000Y-22500000D03*
X33450000Y-22500000D03*
X32850000Y-22500000D03*
X32250000Y-22500000D03*
X35250000Y-22000000D03*
X34650000Y-22000000D03*
X34050000Y-22000000D03*
X33450000Y-22000000D03*
X32850000Y-22000000D03*
X32850000Y-23000000D03*
X33450000Y-23000000D03*
X34050000Y-23000000D03*
X34650000Y-23000000D03*
X35250000Y-23000000D03*
X32250000Y-23000000D03*
X32250000Y-22000000D03*
D44*
X25000000Y-12500000D03*
X23900000Y-12500000D03*
X28500000Y-62500000D03*
X29600000Y-62500000D03*
X40500000Y-6300000D03*
X39400000Y-6300000D03*
X43700000Y-62200000D03*
X42600000Y-62200000D03*
X44900000Y-62200000D03*
X46000000Y-62200000D03*
D45*
X45000000Y-58000000D03*
X5000000Y-15000000D03*
X45000000Y-15000000D03*
X5000000Y-58000000D03*
D46*
X41750000Y-2750000D03*
D47*
X37368500Y-2750000D03*
X46131500Y-2750000D03*
D48*
X9000000Y-2750000D03*
D49*
X5575000Y-2750000D03*
X12425000Y-2750000D03*
D50*
X9000000Y-6450000D03*
X9000000Y-8950000D03*
X9000000Y-7700000D03*
X8000000Y-6450000D03*
X8000000Y-8950000D03*
D51*
X8850000Y-7075000D03*
X8850000Y-8325000D03*
D52*
X7700000Y-7700000D03*
D53*
X7025000Y-6600000D03*
X7025000Y-8800000D03*
X7375000Y-8800000D03*
X7375000Y-6600000D03*
M02*
