%FSLAX46Y46*%
G04 Gerber Fmt 4.6, Leading zero omitted, Abs format (unit mm)*
G04 Created by KiCad (PCBNEW (2014-jul-16 BZR unknown)-product) date Thu 24 Jul 2014 13:20:02 BST*
%MOMM*%
G01*
G04 APERTURE LIST*
%ADD10C,0.100000*%
%ADD11C,1.700000*%
%ADD12C,1.016000*%
%ADD13C,1.400000*%
%ADD14C,1.500000*%
%ADD15C,0.300000*%
%ADD16R,3.500000X1.800000*%
%ADD17R,1.900000X0.900000*%
%ADD18R,2.413000X5.080000*%
%ADD19R,4.650000X5.000000*%
%ADD20C,0.800000*%
%ADD21C,1.000000*%
%ADD22C,0.300000*%
%ADD23C,1.500000*%
%ADD24C,0.500000*%
%ADD25C,0.280000*%
G04 APERTURE END LIST*
D10*
D11*
X45600000Y-40600000D03*
X43600000Y-40600000D03*
X27100000Y-40100000D03*
X27100000Y-42100000D03*
X27100000Y-44100000D03*
X27100000Y-46100000D03*
X27100000Y-48100000D03*
X27100000Y-50100000D03*
D12*
X3730000Y-34500000D03*
X5000000Y-34500000D03*
X3730000Y-35770000D03*
X5000000Y-35770000D03*
X3730000Y-37040000D03*
X5000000Y-37040000D03*
X3730000Y-38310000D03*
X5000000Y-38310000D03*
X3730000Y-39580000D03*
X5000000Y-39580000D03*
D13*
X7200000Y-46000000D03*
X7200000Y-50880000D03*
D14*
X26000000Y-8250000D03*
X28000000Y-8250000D03*
X30000000Y-8250000D03*
X32000000Y-8250000D03*
X10000000Y-66750000D03*
X8000000Y-66750000D03*
X6000000Y-66750000D03*
X4000000Y-66750000D03*
X22000000Y-66750000D03*
X20000000Y-66750000D03*
X18000000Y-66750000D03*
X16000000Y-66750000D03*
X46000000Y-66750000D03*
X44000000Y-66750000D03*
X30000000Y-66750000D03*
X28000000Y-66750000D03*
X38000000Y-66750000D03*
X36000000Y-66750000D03*
D15*
X36450000Y-22500000D03*
X37050000Y-22500000D03*
X35850000Y-22500000D03*
X35250000Y-22500000D03*
X34650000Y-22500000D03*
X34050000Y-22500000D03*
X33450000Y-22500000D03*
X32850000Y-22500000D03*
X32250000Y-22500000D03*
X35250000Y-22000000D03*
X34650000Y-22000000D03*
X34050000Y-22000000D03*
X33450000Y-22000000D03*
X32850000Y-22000000D03*
X32850000Y-23000000D03*
X33450000Y-23000000D03*
X34050000Y-23000000D03*
X34650000Y-23000000D03*
X35250000Y-23000000D03*
X32250000Y-23000000D03*
X32250000Y-22000000D03*
D16*
X33750000Y-22500000D03*
D17*
X36450000Y-22500000D03*
D18*
X37368500Y-2750000D03*
X46131500Y-2750000D03*
D19*
X5575000Y-2750000D03*
X12425000Y-2750000D03*
D20*
X4000000Y-8000000D03*
X6000000Y-12000000D03*
X7000000Y-17000000D03*
X6000000Y-18000000D03*
X4000000Y-20000000D03*
X2000000Y-21000000D03*
X2000000Y-19000000D03*
X2000000Y-17000000D03*
X2000000Y-15000000D03*
X2000000Y-13000000D03*
X2000000Y-11000000D03*
X2000000Y-9000000D03*
X2000000Y-7000000D03*
X2000000Y-5000000D03*
X2000000Y-3000000D03*
X3500000Y-31400000D03*
X25100000Y-23500000D03*
X12450000Y-30200000D03*
X17650000Y-27550000D03*
X4600000Y-48400000D03*
X10200000Y-52800000D03*
X22800000Y-61900000D03*
X22000000Y-53300000D03*
X15900000Y-54500000D03*
X27900000Y-36100000D03*
X25200000Y-36100000D03*
X3600000Y-43000000D03*
X11600000Y-45200000D03*
X31500000Y-15100000D03*
X24900000Y-19200000D03*
X23500000Y-12100000D03*
X12400000Y-5900000D03*
X46100000Y-6200000D03*
X15300000Y-47600000D03*
X6300000Y-40400000D03*
X38200000Y-34200000D03*
X38200000Y-35000000D03*
X38200000Y-33400000D03*
X38200000Y-32600000D03*
X38200000Y-31800000D03*
X38200000Y-31000000D03*
X38500000Y-10300000D03*
X38500000Y-11100000D03*
X38500000Y-11900000D03*
X38500000Y-9500000D03*
X35000000Y-15250000D03*
X35000000Y-3000000D03*
X35000000Y-5000000D03*
X35000000Y-7000000D03*
X35000000Y-9000000D03*
X35000000Y-11000000D03*
X35000000Y-13000000D03*
X35000000Y-20500000D03*
X21500000Y-36750000D03*
X37400000Y-6200000D03*
X29400000Y-37400000D03*
X33000000Y-24500000D03*
X34300000Y-24300000D03*
X37500000Y-39000000D03*
X35500000Y-39000000D03*
X33500000Y-39000000D03*
X32500000Y-37500000D03*
X32500000Y-35500000D03*
X32500000Y-33500000D03*
X32500000Y-31500000D03*
X32500000Y-29500000D03*
X32500000Y-27500000D03*
X32500000Y-50000000D03*
X32500000Y-48000000D03*
X32500000Y-46000000D03*
X32500000Y-44000000D03*
X32500000Y-42000000D03*
X32500000Y-40000000D03*
X48500000Y-43000000D03*
X48500000Y-45000000D03*
X48500000Y-47000000D03*
X48500000Y-49000000D03*
X48500000Y-51500000D03*
X46500000Y-51500000D03*
X44500000Y-51500000D03*
X42500000Y-51500000D03*
X40500000Y-51500000D03*
X38500000Y-51500000D03*
X36500000Y-51500000D03*
X34500000Y-51500000D03*
X48500000Y-3000000D03*
X48500000Y-5000000D03*
X48500000Y-7000000D03*
X48500000Y-9000000D03*
X48500000Y-11000000D03*
X48500000Y-13000000D03*
X48500000Y-15000000D03*
X48500000Y-17000000D03*
X48500000Y-19000000D03*
X48500000Y-21000000D03*
X48500000Y-23000000D03*
X48500000Y-25000000D03*
X48500000Y-27000000D03*
X48500000Y-29000000D03*
X48500000Y-31000000D03*
X48500000Y-33000000D03*
X48500000Y-35000000D03*
X48500000Y-37000000D03*
X48500000Y-39000000D03*
X48500000Y-41000000D03*
X44300000Y-62900000D03*
X30500000Y-62500000D03*
X23900000Y-35000000D03*
X24100000Y-36100000D03*
X6050000Y-7700000D03*
X9350000Y-10750000D03*
X9350000Y-13950000D03*
X11250000Y-10550000D03*
X11750000Y-6750000D03*
X16000000Y-2000000D03*
X18000000Y-2000000D03*
X20000000Y-2000000D03*
X21000000Y-3000000D03*
X21000000Y-5000000D03*
X21000000Y-7000000D03*
X20000000Y-8000000D03*
X19000000Y-10000000D03*
X16600000Y-11000000D03*
X16600000Y-13000000D03*
X16600000Y-15000000D03*
X16600000Y-17000000D03*
X16000000Y-19000000D03*
X13000000Y-20000000D03*
X13000000Y-18000000D03*
X13000000Y-16000000D03*
X13000000Y-14000000D03*
X15000000Y-18000000D03*
X15000000Y-16000000D03*
X15000000Y-14000000D03*
X15000000Y-12000000D03*
X15000000Y-10000000D03*
X17000000Y-8000000D03*
X19000000Y-6000000D03*
X18000000Y-4000000D03*
X16000000Y-4000000D03*
X16000000Y-6000000D03*
X14000000Y-7000000D03*
X13000000Y-12000000D03*
X13000000Y-10000000D03*
X13000000Y-8000000D03*
X20200000Y-22100000D03*
X5600000Y-6200000D03*
X7100000Y-10100000D03*
X7100000Y-11200000D03*
X7100000Y-12100000D03*
X7800000Y-12800000D03*
X8500000Y-13500000D03*
X6000000Y-8800000D03*
X10300000Y-6000000D03*
X7900000Y-25000000D03*
X4200000Y-26400000D03*
X24600000Y-26550000D03*
X22700000Y-26600000D03*
X28100000Y-52200000D03*
X32200000Y-52200000D03*
X10400000Y-23700000D03*
X7900000Y-23700000D03*
X12500000Y-41700000D03*
X10000000Y-42300000D03*
X3800000Y-29300000D03*
X8400000Y-29300000D03*
X18450000Y-24200000D03*
X15450000Y-23550000D03*
X7600000Y-30400000D03*
X3800000Y-30400000D03*
X16450000Y-23150000D03*
X18550000Y-23150000D03*
X24500000Y-24450000D03*
X22700000Y-24450000D03*
X22700000Y-25500000D03*
X24550000Y-25500000D03*
X32200000Y-54500000D03*
X27100000Y-53800000D03*
X32200000Y-53300000D03*
X28100000Y-53300000D03*
X7900000Y-32850000D03*
X7200000Y-37150000D03*
X6850000Y-32850000D03*
X6750000Y-38100000D03*
X5950000Y-32300000D03*
X6150000Y-38950000D03*
X25000000Y-40600000D03*
X9450000Y-34950000D03*
X12750000Y-35750000D03*
D21*
X32000000Y-8250000D02*
X32000000Y-10700000D01*
D22*
X8000000Y-14000000D02*
X6000000Y-12000000D01*
X8000000Y-16000000D02*
X8000000Y-14000000D01*
X7000000Y-17000000D02*
X8000000Y-16000000D01*
X4000000Y-20000000D02*
X6000000Y-18000000D01*
X2000000Y-19000000D02*
X2000000Y-21000000D01*
X2000000Y-15000000D02*
X2000000Y-17000000D01*
X2000000Y-11000000D02*
X2000000Y-13000000D01*
X2000000Y-7000000D02*
X2000000Y-9000000D01*
X2000000Y-3000000D02*
X2000000Y-5000000D01*
X3600000Y-31400000D02*
X3900000Y-31700000D01*
X3500000Y-31400000D02*
X3600000Y-31400000D01*
X25100000Y-23000000D02*
X25100000Y-23500000D01*
D23*
X38000000Y-66750000D02*
X38000000Y-64250000D01*
D21*
X1920000Y-39580000D02*
X1900000Y-39600000D01*
X3730000Y-39580000D02*
X1920000Y-39580000D01*
X1940000Y-37040000D02*
X1900000Y-37000000D01*
X3730000Y-37040000D02*
X1940000Y-37040000D01*
X1870000Y-35770000D02*
X1800000Y-35700000D01*
X3730000Y-35770000D02*
X1870000Y-35770000D01*
D24*
X28000000Y-50100000D02*
X29000000Y-49100000D01*
X27100000Y-50100000D02*
X28000000Y-50100000D01*
X26000000Y-50100000D02*
X25700000Y-49800000D01*
X27100000Y-50100000D02*
X26000000Y-50100000D01*
X43600000Y-40600000D02*
X42100000Y-40600000D01*
X6300000Y-41100000D02*
X6300000Y-40400000D01*
X35000000Y-3000000D02*
X35000000Y-5000000D01*
X35000000Y-7000000D02*
X35000000Y-9000000D01*
X35000000Y-11000000D02*
X35000000Y-13000000D01*
X33500000Y-39000000D02*
X35500000Y-39000000D01*
X32500000Y-37500000D02*
X32500000Y-35500000D01*
X32500000Y-33500000D02*
X32500000Y-31500000D01*
X32500000Y-29500000D02*
X32500000Y-27500000D01*
X32500000Y-50000000D02*
X32500000Y-48000000D01*
X32500000Y-46000000D02*
X32500000Y-44000000D01*
X32500000Y-42000000D02*
X32500000Y-40000000D01*
X48500000Y-41000000D02*
X48500000Y-43000000D01*
X48500000Y-45000000D02*
X48500000Y-47000000D01*
X48500000Y-49000000D02*
X48500000Y-51500000D01*
X46500000Y-51500000D02*
X44500000Y-51500000D01*
X42500000Y-51500000D02*
X40500000Y-51500000D01*
X38500000Y-51500000D02*
X36500000Y-51500000D01*
X48500000Y-3000000D02*
X48500000Y-5000000D01*
X48500000Y-7000000D02*
X48500000Y-9000000D01*
X48500000Y-11000000D02*
X48500000Y-13000000D01*
X48500000Y-15000000D02*
X48500000Y-17000000D01*
X48500000Y-19000000D02*
X48500000Y-21000000D01*
X48500000Y-23000000D02*
X48500000Y-25000000D01*
X48500000Y-27000000D02*
X48500000Y-29000000D01*
X48500000Y-31000000D02*
X48500000Y-33000000D01*
X48500000Y-35000000D02*
X48500000Y-37000000D01*
X48500000Y-39000000D02*
X48500000Y-41000000D01*
D22*
X18000000Y-2000000D02*
X20000000Y-2000000D01*
X21000000Y-3000000D02*
X21000000Y-5000000D01*
X21000000Y-7000000D02*
X20000000Y-8000000D01*
X19000000Y-10000000D02*
X18000000Y-10000000D01*
X18000000Y-10000000D02*
X16600000Y-11000000D01*
X16600000Y-13000000D02*
X16600000Y-15000000D01*
X16600000Y-17000000D02*
X17000000Y-18000000D01*
X17000000Y-18000000D02*
X16000000Y-19000000D01*
X13000000Y-20000000D02*
X13000000Y-18000000D01*
X13000000Y-16000000D02*
X13000000Y-14000000D01*
X12425000Y-2750000D02*
X15250000Y-2750000D01*
X15250000Y-2750000D02*
X16000000Y-2000000D01*
X15000000Y-16000000D02*
X15000000Y-18000000D01*
X15000000Y-12000000D02*
X15000000Y-14000000D01*
X17000000Y-8000000D02*
X15000000Y-10000000D01*
X19000000Y-5000000D02*
X19000000Y-6000000D01*
X18000000Y-4000000D02*
X19000000Y-5000000D01*
X16000000Y-6000000D02*
X16000000Y-4000000D01*
X13100000Y-7900000D02*
X14000000Y-7000000D01*
X13000000Y-8000000D02*
X13100000Y-7900000D01*
X13000000Y-8000000D02*
X13100000Y-7900000D01*
X13000000Y-12000000D02*
X13000000Y-10000000D01*
X13000000Y-10000000D02*
X13000000Y-8000000D01*
X7100000Y-10100000D02*
X7100000Y-11200000D01*
X7100000Y-12100000D02*
X7800000Y-12800000D01*
D25*
X22750000Y-26550000D02*
X24600000Y-26550000D01*
X22700000Y-26600000D02*
X22750000Y-26550000D01*
D22*
X28100000Y-52200000D02*
X32200000Y-52200000D01*
D24*
X10400000Y-23700000D02*
X7900000Y-23700000D01*
D25*
X11900000Y-42300000D02*
X10000000Y-42300000D01*
X12500000Y-41700000D02*
X11900000Y-42300000D01*
D22*
X3800000Y-29300000D02*
X8400000Y-29300000D01*
X18450000Y-24200000D02*
X16400000Y-24200000D01*
X16400000Y-24200000D02*
X15750000Y-23550000D01*
X15750000Y-23550000D02*
X15450000Y-23550000D01*
X3800000Y-30400000D02*
X4100000Y-30100000D01*
X7650000Y-30400000D02*
X7600000Y-30400000D01*
X7350000Y-30100000D02*
X7650000Y-30400000D01*
X4100000Y-30100000D02*
X7350000Y-30100000D01*
X18550000Y-23150000D02*
X16450000Y-23150000D01*
D25*
X24500000Y-24450000D02*
X22700000Y-24450000D01*
X22700000Y-25500000D02*
X24550000Y-25500000D01*
X31800000Y-54100000D02*
X32200000Y-54500000D01*
X27400000Y-54100000D02*
X31800000Y-54100000D01*
X27100000Y-53800000D02*
X27400000Y-54100000D01*
X28100000Y-53300000D02*
X32200000Y-53300000D01*
X6930002Y-33819998D02*
X7900000Y-32850000D01*
X6930002Y-36880002D02*
X6930002Y-33819998D01*
X7200000Y-37150000D02*
X6930002Y-36880002D01*
X6450000Y-33250000D02*
X6850000Y-32850000D01*
X6450000Y-37800000D02*
X6450000Y-33250000D01*
X6750000Y-38100000D02*
X6450000Y-37800000D01*
X6150000Y-38950000D02*
X5900000Y-38700000D01*
X5900000Y-38700000D02*
X5900000Y-32350000D01*
X5900000Y-32350000D02*
X5950000Y-32300000D01*
X27250000Y-44000000D02*
X27100000Y-44100000D01*
D22*
X25000000Y-40600000D02*
X25000000Y-43000000D01*
X25000000Y-43000000D02*
X26100000Y-44100000D01*
X26100000Y-44100000D02*
X27100000Y-44100000D01*
D25*
X11950000Y-34950000D02*
X9450000Y-34950000D01*
X12750000Y-35750000D02*
X11950000Y-34950000D01*
D24*
G36*
X48750000Y-64750000D02*
X48088000Y-64750000D01*
X48088000Y-5439185D01*
X48088000Y-5140816D01*
X48088000Y-3187500D01*
X47900500Y-3000000D01*
X46381500Y-3000000D01*
X46381500Y-5852500D01*
X46569000Y-6040000D01*
X47487184Y-6040000D01*
X47762841Y-5925819D01*
X47973819Y-5714841D01*
X48088000Y-5439185D01*
X48088000Y-64750000D01*
X47400416Y-64750000D01*
X47400416Y-57524705D01*
X47400416Y-14524705D01*
X47035808Y-13642285D01*
X46361266Y-12966565D01*
X45881500Y-12767348D01*
X45881500Y-5852500D01*
X45881500Y-3000000D01*
X44362500Y-3000000D01*
X44175000Y-3187500D01*
X44175000Y-5140816D01*
X44175000Y-5439185D01*
X44289181Y-5714841D01*
X44500159Y-5925819D01*
X44775816Y-6040000D01*
X45694000Y-6040000D01*
X45881500Y-5852500D01*
X45881500Y-12767348D01*
X45479484Y-12600417D01*
X44524705Y-12599584D01*
X43642285Y-12964192D01*
X42966565Y-13638734D01*
X42600417Y-14520516D01*
X42599584Y-15475295D01*
X42964192Y-16357715D01*
X43638734Y-17033435D01*
X44520516Y-17399583D01*
X45475295Y-17400416D01*
X46357715Y-17035808D01*
X47033435Y-16361266D01*
X47399583Y-15479484D01*
X47400416Y-14524705D01*
X47400416Y-57524705D01*
X47200277Y-57040330D01*
X47200277Y-40283137D01*
X46957205Y-39694857D01*
X46507511Y-39244377D01*
X45919656Y-39000278D01*
X45283137Y-38999723D01*
X44694857Y-39242795D01*
X44244377Y-39692489D01*
X44000278Y-40280344D01*
X43999723Y-40916863D01*
X44242795Y-41505143D01*
X44692489Y-41955623D01*
X45280344Y-42199722D01*
X45916863Y-42200277D01*
X46505143Y-41957205D01*
X46955623Y-41507511D01*
X47199722Y-40919656D01*
X47200277Y-40283137D01*
X47200277Y-57040330D01*
X47035808Y-56642285D01*
X46361266Y-55966565D01*
X45479484Y-55600417D01*
X44524705Y-55599584D01*
X43642285Y-55964192D01*
X42966565Y-56638734D01*
X42600417Y-57520516D01*
X42599584Y-58475295D01*
X42964192Y-59357715D01*
X43638734Y-60033435D01*
X44520516Y-60399583D01*
X45475295Y-60400416D01*
X46357715Y-60035808D01*
X47033435Y-59361266D01*
X47399583Y-58479484D01*
X47400416Y-57524705D01*
X47400416Y-64750000D01*
X39325000Y-64750000D01*
X39325000Y-5439185D01*
X39325000Y-5140816D01*
X39325000Y-3187500D01*
X39137500Y-3000000D01*
X37618500Y-3000000D01*
X37618500Y-5852500D01*
X37806000Y-6040000D01*
X38724184Y-6040000D01*
X38999841Y-5925819D01*
X39210819Y-5714841D01*
X39325000Y-5439185D01*
X39325000Y-64750000D01*
X37118500Y-64750000D01*
X37118500Y-5852500D01*
X37118500Y-3000000D01*
X35599500Y-3000000D01*
X35412000Y-3187500D01*
X35412000Y-5140816D01*
X35412000Y-5439185D01*
X35526181Y-5714841D01*
X35737159Y-5925819D01*
X36012816Y-6040000D01*
X36931000Y-6040000D01*
X37118500Y-5852500D01*
X37118500Y-64750000D01*
X33350199Y-64750000D01*
X33350199Y-54272254D01*
X33196223Y-53899605D01*
X33349800Y-53529753D01*
X33350199Y-53072254D01*
X33216934Y-52749728D01*
X33349800Y-52429753D01*
X33350199Y-51972254D01*
X33175491Y-51549428D01*
X32852273Y-51225646D01*
X32429753Y-51050200D01*
X31972254Y-51049801D01*
X31549428Y-51224509D01*
X31473805Y-51300000D01*
X28826497Y-51300000D01*
X28752273Y-51225646D01*
X28700277Y-51204055D01*
X28700277Y-47783137D01*
X28457205Y-47194857D01*
X28362742Y-47100229D01*
X28455623Y-47007511D01*
X28699722Y-46419656D01*
X28700277Y-45783137D01*
X28457205Y-45194857D01*
X28362742Y-45100229D01*
X28455623Y-45007511D01*
X28699722Y-44419656D01*
X28700277Y-43783137D01*
X28457205Y-43194857D01*
X28362742Y-43100229D01*
X28455623Y-43007511D01*
X28699722Y-42419656D01*
X28700277Y-41783137D01*
X28457205Y-41194857D01*
X28362742Y-41100229D01*
X28455623Y-41007511D01*
X28699722Y-40419656D01*
X28700277Y-39783137D01*
X28457205Y-39194857D01*
X28007511Y-38744377D01*
X27419656Y-38500278D01*
X26783137Y-38499723D01*
X26194857Y-38742795D01*
X25744377Y-39192489D01*
X25577420Y-39594564D01*
X25229753Y-39450200D01*
X24772254Y-39449801D01*
X24349428Y-39624509D01*
X24025646Y-39947727D01*
X23850200Y-40370247D01*
X23849801Y-40827746D01*
X24024509Y-41250572D01*
X24100000Y-41326194D01*
X24100000Y-43000000D01*
X24168508Y-43344415D01*
X24363604Y-43636396D01*
X25463604Y-44736396D01*
X25695879Y-44891597D01*
X25742795Y-45005143D01*
X25837257Y-45099770D01*
X25744377Y-45192489D01*
X25500278Y-45780344D01*
X25499723Y-46416863D01*
X25742795Y-47005143D01*
X25837257Y-47099770D01*
X25744377Y-47192489D01*
X25500278Y-47780344D01*
X25499723Y-48416863D01*
X25742795Y-49005143D01*
X26192489Y-49455623D01*
X26780344Y-49699722D01*
X27416863Y-49700277D01*
X28005143Y-49457205D01*
X28455623Y-49007511D01*
X28699722Y-48419656D01*
X28700277Y-47783137D01*
X28700277Y-51204055D01*
X28329753Y-51050200D01*
X27872254Y-51049801D01*
X27449428Y-51224509D01*
X27125646Y-51547727D01*
X26950200Y-51970247D01*
X26949801Y-52427746D01*
X27041613Y-52649948D01*
X26872254Y-52649801D01*
X26449428Y-52824509D01*
X26125646Y-53147727D01*
X25950200Y-53570247D01*
X25949801Y-54027746D01*
X26124509Y-54450572D01*
X26447727Y-54774354D01*
X26870247Y-54949800D01*
X27199342Y-54950087D01*
X27199343Y-54950087D01*
X27400000Y-54990000D01*
X31158162Y-54990000D01*
X31224509Y-55150572D01*
X31547727Y-55474354D01*
X31970247Y-55649800D01*
X32427746Y-55650199D01*
X32850572Y-55475491D01*
X33174354Y-55152273D01*
X33349800Y-54729753D01*
X33350199Y-54272254D01*
X33350199Y-64750000D01*
X19700199Y-64750000D01*
X19700199Y-22922254D01*
X19525491Y-22499428D01*
X19202273Y-22175646D01*
X18779753Y-22000200D01*
X18322254Y-21999801D01*
X17899428Y-22174509D01*
X17823805Y-22250000D01*
X17176497Y-22250000D01*
X17102273Y-22175646D01*
X16679753Y-22000200D01*
X16222254Y-21999801D01*
X15799428Y-22174509D01*
X15573436Y-22400107D01*
X15500000Y-22400043D01*
X15500000Y-5399185D01*
X15500000Y-5100816D01*
X15500000Y-3187500D01*
X15312500Y-3000000D01*
X12675000Y-3000000D01*
X12675000Y-5812500D01*
X12862500Y-6000000D01*
X14899184Y-6000000D01*
X15174841Y-5885819D01*
X15385819Y-5674841D01*
X15500000Y-5399185D01*
X15500000Y-22400043D01*
X15222254Y-22399801D01*
X14799428Y-22574509D01*
X14475646Y-22897727D01*
X14300200Y-23320247D01*
X14299801Y-23777746D01*
X14474509Y-24200572D01*
X14797727Y-24524354D01*
X15220247Y-24699800D01*
X15627363Y-24700155D01*
X15763604Y-24836396D01*
X16055585Y-25031492D01*
X16400000Y-25100000D01*
X17723502Y-25100000D01*
X17797727Y-25174354D01*
X18220247Y-25349800D01*
X18677746Y-25350199D01*
X19100572Y-25175491D01*
X19424354Y-24852273D01*
X19599800Y-24429753D01*
X19600199Y-23972254D01*
X19527166Y-23795500D01*
X19699800Y-23379753D01*
X19700199Y-22922254D01*
X19700199Y-64750000D01*
X13900199Y-64750000D01*
X13900199Y-35522254D01*
X13725491Y-35099428D01*
X13402273Y-34775646D01*
X12979753Y-34600200D01*
X12858744Y-34600094D01*
X12579325Y-34320675D01*
X12290589Y-34127747D01*
X12175000Y-34104755D01*
X12175000Y-5812500D01*
X12175000Y-3000000D01*
X9537500Y-3000000D01*
X9350000Y-3187500D01*
X9350000Y-5100816D01*
X9350000Y-5399185D01*
X9464181Y-5674841D01*
X9675159Y-5885819D01*
X9950816Y-6000000D01*
X11987500Y-6000000D01*
X12175000Y-5812500D01*
X12175000Y-34104755D01*
X11950000Y-34060000D01*
X11550199Y-34060000D01*
X11550199Y-23472254D01*
X11375491Y-23049428D01*
X11052273Y-22725646D01*
X10629753Y-22550200D01*
X10172254Y-22549801D01*
X9808744Y-22700000D01*
X8650000Y-22700000D01*
X8650000Y-5399185D01*
X8650000Y-5100816D01*
X8650000Y-3187500D01*
X8462500Y-3000000D01*
X5825000Y-3000000D01*
X5825000Y-5812500D01*
X6012500Y-6000000D01*
X8049184Y-6000000D01*
X8324841Y-5885819D01*
X8535819Y-5674841D01*
X8650000Y-5399185D01*
X8650000Y-22700000D01*
X8490510Y-22700000D01*
X8129753Y-22550200D01*
X7672254Y-22549801D01*
X7400416Y-22662122D01*
X7400416Y-14524705D01*
X7035808Y-13642285D01*
X6361266Y-12966565D01*
X5479484Y-12600417D01*
X5325000Y-12600282D01*
X5325000Y-5812500D01*
X5325000Y-3000000D01*
X2687500Y-3000000D01*
X2500000Y-3187500D01*
X2500000Y-5100816D01*
X2500000Y-5399185D01*
X2614181Y-5674841D01*
X2825159Y-5885819D01*
X3100816Y-6000000D01*
X5137500Y-6000000D01*
X5325000Y-5812500D01*
X5325000Y-12600282D01*
X4524705Y-12599584D01*
X3642285Y-12964192D01*
X2966565Y-13638734D01*
X2600417Y-14520516D01*
X2599584Y-15475295D01*
X2964192Y-16357715D01*
X3638734Y-17033435D01*
X4520516Y-17399583D01*
X5475295Y-17400416D01*
X6357715Y-17035808D01*
X7033435Y-16361266D01*
X7399583Y-15479484D01*
X7400416Y-14524705D01*
X7400416Y-22662122D01*
X7249428Y-22724509D01*
X6925646Y-23047727D01*
X6750200Y-23470247D01*
X6749801Y-23927746D01*
X6924509Y-24350572D01*
X7247727Y-24674354D01*
X7670247Y-24849800D01*
X8127746Y-24850199D01*
X8491255Y-24700000D01*
X9809489Y-24700000D01*
X10170247Y-24849800D01*
X10627746Y-24850199D01*
X11050572Y-24675491D01*
X11374354Y-24352273D01*
X11549800Y-23929753D01*
X11550199Y-23472254D01*
X11550199Y-34060000D01*
X10186480Y-34060000D01*
X10102273Y-33975646D01*
X9679753Y-33800200D01*
X9550199Y-33800087D01*
X9550199Y-29072254D01*
X9375491Y-28649428D01*
X9052273Y-28325646D01*
X8629753Y-28150200D01*
X8172254Y-28149801D01*
X7749428Y-28324509D01*
X7673805Y-28400000D01*
X4526497Y-28400000D01*
X4452273Y-28325646D01*
X4029753Y-28150200D01*
X3572254Y-28149801D01*
X3149428Y-28324509D01*
X2825646Y-28647727D01*
X2650200Y-29070247D01*
X2649801Y-29527746D01*
X2783065Y-29850271D01*
X2650200Y-30170247D01*
X2649801Y-30627746D01*
X2824509Y-31050572D01*
X3147727Y-31374354D01*
X3570247Y-31549800D01*
X4027746Y-31550199D01*
X4450572Y-31375491D01*
X4774354Y-31052273D01*
X4796059Y-31000000D01*
X6603613Y-31000000D01*
X6624509Y-31050572D01*
X6947727Y-31374354D01*
X7370247Y-31549800D01*
X7827746Y-31550199D01*
X8250572Y-31375491D01*
X8574354Y-31052273D01*
X8749800Y-30629753D01*
X8750000Y-30399684D01*
X9050572Y-30275491D01*
X9374354Y-29952273D01*
X9549800Y-29529753D01*
X9550199Y-29072254D01*
X9550199Y-33800087D01*
X9222254Y-33799801D01*
X9050199Y-33870892D01*
X9050199Y-32622254D01*
X8875491Y-32199428D01*
X8552273Y-31875646D01*
X8129753Y-31700200D01*
X7672254Y-31699801D01*
X7374790Y-31822710D01*
X7079753Y-31700200D01*
X6946421Y-31700083D01*
X6925491Y-31649428D01*
X6602273Y-31325646D01*
X6179753Y-31150200D01*
X5722254Y-31149801D01*
X5299428Y-31324509D01*
X4975646Y-31647727D01*
X4800200Y-32070247D01*
X4799801Y-32527746D01*
X4974509Y-32950572D01*
X5010000Y-32986124D01*
X5010000Y-33242008D01*
X4750866Y-33241782D01*
X4364620Y-33401374D01*
X3981330Y-33242219D01*
X3480866Y-33241782D01*
X3018331Y-33432897D01*
X2664141Y-33786470D01*
X2472219Y-34248670D01*
X2471782Y-34749134D01*
X2662897Y-35211669D01*
X2666697Y-35215476D01*
X2565273Y-35232793D01*
X2448352Y-35719408D01*
X2526551Y-36213725D01*
X2565273Y-36307207D01*
X2659787Y-36323343D01*
X2741444Y-36404999D01*
X2659787Y-36486656D01*
X2565273Y-36502793D01*
X2448352Y-36989408D01*
X2526551Y-37483725D01*
X2565273Y-37577207D01*
X2666179Y-37594435D01*
X2664141Y-37596470D01*
X2472219Y-38058670D01*
X2471782Y-38559134D01*
X2662897Y-39021669D01*
X2666697Y-39025476D01*
X2565273Y-39042793D01*
X2448352Y-39529408D01*
X2526551Y-40023725D01*
X2565273Y-40117207D01*
X2799286Y-40157161D01*
X3376447Y-39580000D01*
X3362304Y-39565857D01*
X3395087Y-39533074D01*
X3478670Y-39567781D01*
X3742010Y-39568010D01*
X3741782Y-39829134D01*
X3777137Y-39914700D01*
X3744142Y-39947695D01*
X3730000Y-39933553D01*
X3152839Y-40510714D01*
X3192793Y-40744727D01*
X3679408Y-40861648D01*
X4173725Y-40783449D01*
X4267207Y-40744727D01*
X4284435Y-40643820D01*
X4286470Y-40645859D01*
X4748670Y-40837781D01*
X5249134Y-40838218D01*
X5711669Y-40647103D01*
X6065859Y-40293530D01*
X6146220Y-40099997D01*
X6377746Y-40100199D01*
X6800572Y-39925491D01*
X7124354Y-39602273D01*
X7299800Y-39179753D01*
X7299854Y-39117106D01*
X7400572Y-39075491D01*
X7724354Y-38752273D01*
X7899800Y-38329753D01*
X7900021Y-38076127D01*
X8174354Y-37802273D01*
X8349800Y-37379753D01*
X8350199Y-36922254D01*
X8175491Y-36499428D01*
X7852273Y-36175646D01*
X7820002Y-36162245D01*
X7820002Y-34188648D01*
X8008554Y-34000095D01*
X8127746Y-34000199D01*
X8550572Y-33825491D01*
X8874354Y-33502273D01*
X9049800Y-33079753D01*
X9050199Y-32622254D01*
X9050199Y-33870892D01*
X8799428Y-33974509D01*
X8475646Y-34297727D01*
X8300200Y-34720247D01*
X8299801Y-35177746D01*
X8474509Y-35600572D01*
X8797727Y-35924354D01*
X9220247Y-36099800D01*
X9677746Y-36100199D01*
X10100572Y-35925491D01*
X10186212Y-35840000D01*
X11581350Y-35840000D01*
X11599904Y-35858554D01*
X11599801Y-35977746D01*
X11774509Y-36400572D01*
X12097727Y-36724354D01*
X12520247Y-36899800D01*
X12977746Y-36900199D01*
X13400572Y-36725491D01*
X13724354Y-36402273D01*
X13899800Y-35979753D01*
X13900199Y-35522254D01*
X13900199Y-64750000D01*
X13650199Y-64750000D01*
X13650199Y-41472254D01*
X13475491Y-41049428D01*
X13152273Y-40725646D01*
X12729753Y-40550200D01*
X12272254Y-40549801D01*
X11849428Y-40724509D01*
X11525646Y-41047727D01*
X11375216Y-41410000D01*
X10736480Y-41410000D01*
X10652273Y-41325646D01*
X10229753Y-41150200D01*
X9772254Y-41149801D01*
X9349428Y-41324509D01*
X9025646Y-41647727D01*
X8850200Y-42070247D01*
X8849801Y-42527746D01*
X9024509Y-42950572D01*
X9347727Y-43274354D01*
X9770247Y-43449800D01*
X10227746Y-43450199D01*
X10650572Y-43275491D01*
X10736212Y-43190000D01*
X11900000Y-43190000D01*
X12240588Y-43122253D01*
X12240589Y-43122253D01*
X12529325Y-42929325D01*
X12608554Y-42850095D01*
X12727746Y-42850199D01*
X13150572Y-42675491D01*
X13474354Y-42352273D01*
X13649800Y-41929753D01*
X13650199Y-41472254D01*
X13650199Y-64750000D01*
X8650251Y-64750000D01*
X8650251Y-50592843D01*
X8650251Y-45712843D01*
X8429967Y-45179714D01*
X8022431Y-44771467D01*
X7489688Y-44550252D01*
X6912843Y-44549749D01*
X6379714Y-44770033D01*
X5971467Y-45177569D01*
X5750252Y-45710312D01*
X5749749Y-46287157D01*
X5970033Y-46820286D01*
X6377569Y-47228533D01*
X6910312Y-47449748D01*
X7487157Y-47450251D01*
X8020286Y-47229967D01*
X8428533Y-46822431D01*
X8649748Y-46289688D01*
X8650251Y-45712843D01*
X8650251Y-50592843D01*
X8429967Y-50059714D01*
X8022431Y-49651467D01*
X7489688Y-49430252D01*
X6912843Y-49429749D01*
X6379714Y-49650033D01*
X5971467Y-50057569D01*
X5750252Y-50590312D01*
X5749749Y-51167157D01*
X5970033Y-51700286D01*
X6377569Y-52108533D01*
X6910312Y-52329748D01*
X7487157Y-52330251D01*
X8020286Y-52109967D01*
X8428533Y-51702431D01*
X8649748Y-51169688D01*
X8650251Y-50592843D01*
X8650251Y-64750000D01*
X7400416Y-64750000D01*
X7400416Y-57524705D01*
X7035808Y-56642285D01*
X6361266Y-55966565D01*
X5479484Y-55600417D01*
X4524705Y-55599584D01*
X3642285Y-55964192D01*
X2966565Y-56638734D01*
X2600417Y-57520516D01*
X2599584Y-58475295D01*
X2964192Y-59357715D01*
X3638734Y-60033435D01*
X4520516Y-60399583D01*
X5475295Y-60400416D01*
X6357715Y-60035808D01*
X7033435Y-59361266D01*
X7399583Y-58479484D01*
X7400416Y-57524705D01*
X7400416Y-64750000D01*
X2103553Y-64750000D01*
X1250000Y-63896447D01*
X1250000Y-28000000D01*
X1250000Y-26000000D01*
X1250000Y-23000000D01*
X1250000Y-21000000D01*
X1250000Y-17000000D01*
X1250000Y-2103553D01*
X2103553Y-1250000D01*
X2500000Y-1250000D01*
X2500000Y-2312500D01*
X2687500Y-2500000D01*
X5325000Y-2500000D01*
X5325000Y-2480000D01*
X5825000Y-2480000D01*
X5825000Y-2500000D01*
X8462500Y-2500000D01*
X8650000Y-2312500D01*
X8650000Y-1250000D01*
X9350000Y-1250000D01*
X9350000Y-2312500D01*
X9537500Y-2500000D01*
X12175000Y-2500000D01*
X12175000Y-2480000D01*
X12675000Y-2480000D01*
X12675000Y-2500000D01*
X15312500Y-2500000D01*
X15500000Y-2312500D01*
X15500000Y-1250000D01*
X20896447Y-1250000D01*
X21750000Y-2103553D01*
X21750000Y-21000000D01*
X21750000Y-23000000D01*
X21750000Y-23773415D01*
X21725646Y-23797727D01*
X21550200Y-24220247D01*
X21549801Y-24677746D01*
X21672710Y-24975209D01*
X21550200Y-25270247D01*
X21549801Y-25727746D01*
X21683065Y-26050271D01*
X21550200Y-26370247D01*
X21549801Y-26827746D01*
X21724509Y-27250572D01*
X22047727Y-27574354D01*
X22470247Y-27749800D01*
X22927746Y-27750199D01*
X23350572Y-27575491D01*
X23486299Y-27440000D01*
X23863519Y-27440000D01*
X23947727Y-27524354D01*
X24370247Y-27699800D01*
X24827746Y-27700199D01*
X25250572Y-27525491D01*
X25574354Y-27202273D01*
X25749800Y-26779753D01*
X25750199Y-26322254D01*
X25602351Y-25964434D01*
X25699800Y-25729753D01*
X25700199Y-25272254D01*
X25552351Y-24914434D01*
X25649800Y-24679753D01*
X25650199Y-24222254D01*
X25475491Y-23799428D01*
X25152273Y-23475646D01*
X24729753Y-23300200D01*
X24272254Y-23299801D01*
X23849428Y-23474509D01*
X23763787Y-23560000D01*
X23436480Y-23560000D01*
X23352273Y-23475646D01*
X23250000Y-23433178D01*
X23250000Y-11103553D01*
X24103553Y-10250000D01*
X34103553Y-10250000D01*
X35250000Y-9103553D01*
X35250000Y-2103553D01*
X35412000Y-1941553D01*
X35412000Y-2312500D01*
X35599500Y-2500000D01*
X37118500Y-2500000D01*
X37118500Y-2480000D01*
X37618500Y-2480000D01*
X37618500Y-2500000D01*
X39137500Y-2500000D01*
X39325000Y-2312500D01*
X39325000Y-1250000D01*
X44175000Y-1250000D01*
X44175000Y-2312500D01*
X44362500Y-2500000D01*
X45881500Y-2500000D01*
X45881500Y-2480000D01*
X46381500Y-2480000D01*
X46381500Y-2500000D01*
X47900500Y-2500000D01*
X48088000Y-2312500D01*
X48088000Y-1441553D01*
X48750000Y-2103553D01*
X48750000Y-64750000D01*
X48750000Y-64750000D01*
G37*
X48750000Y-64750000D02*
X48088000Y-64750000D01*
X48088000Y-5439185D01*
X48088000Y-5140816D01*
X48088000Y-3187500D01*
X47900500Y-3000000D01*
X46381500Y-3000000D01*
X46381500Y-5852500D01*
X46569000Y-6040000D01*
X47487184Y-6040000D01*
X47762841Y-5925819D01*
X47973819Y-5714841D01*
X48088000Y-5439185D01*
X48088000Y-64750000D01*
X47400416Y-64750000D01*
X47400416Y-57524705D01*
X47400416Y-14524705D01*
X47035808Y-13642285D01*
X46361266Y-12966565D01*
X45881500Y-12767348D01*
X45881500Y-5852500D01*
X45881500Y-3000000D01*
X44362500Y-3000000D01*
X44175000Y-3187500D01*
X44175000Y-5140816D01*
X44175000Y-5439185D01*
X44289181Y-5714841D01*
X44500159Y-5925819D01*
X44775816Y-6040000D01*
X45694000Y-6040000D01*
X45881500Y-5852500D01*
X45881500Y-12767348D01*
X45479484Y-12600417D01*
X44524705Y-12599584D01*
X43642285Y-12964192D01*
X42966565Y-13638734D01*
X42600417Y-14520516D01*
X42599584Y-15475295D01*
X42964192Y-16357715D01*
X43638734Y-17033435D01*
X44520516Y-17399583D01*
X45475295Y-17400416D01*
X46357715Y-17035808D01*
X47033435Y-16361266D01*
X47399583Y-15479484D01*
X47400416Y-14524705D01*
X47400416Y-57524705D01*
X47200277Y-57040330D01*
X47200277Y-40283137D01*
X46957205Y-39694857D01*
X46507511Y-39244377D01*
X45919656Y-39000278D01*
X45283137Y-38999723D01*
X44694857Y-39242795D01*
X44244377Y-39692489D01*
X44000278Y-40280344D01*
X43999723Y-40916863D01*
X44242795Y-41505143D01*
X44692489Y-41955623D01*
X45280344Y-42199722D01*
X45916863Y-42200277D01*
X46505143Y-41957205D01*
X46955623Y-41507511D01*
X47199722Y-40919656D01*
X47200277Y-40283137D01*
X47200277Y-57040330D01*
X47035808Y-56642285D01*
X46361266Y-55966565D01*
X45479484Y-55600417D01*
X44524705Y-55599584D01*
X43642285Y-55964192D01*
X42966565Y-56638734D01*
X42600417Y-57520516D01*
X42599584Y-58475295D01*
X42964192Y-59357715D01*
X43638734Y-60033435D01*
X44520516Y-60399583D01*
X45475295Y-60400416D01*
X46357715Y-60035808D01*
X47033435Y-59361266D01*
X47399583Y-58479484D01*
X47400416Y-57524705D01*
X47400416Y-64750000D01*
X39325000Y-64750000D01*
X39325000Y-5439185D01*
X39325000Y-5140816D01*
X39325000Y-3187500D01*
X39137500Y-3000000D01*
X37618500Y-3000000D01*
X37618500Y-5852500D01*
X37806000Y-6040000D01*
X38724184Y-6040000D01*
X38999841Y-5925819D01*
X39210819Y-5714841D01*
X39325000Y-5439185D01*
X39325000Y-64750000D01*
X37118500Y-64750000D01*
X37118500Y-5852500D01*
X37118500Y-3000000D01*
X35599500Y-3000000D01*
X35412000Y-3187500D01*
X35412000Y-5140816D01*
X35412000Y-5439185D01*
X35526181Y-5714841D01*
X35737159Y-5925819D01*
X36012816Y-6040000D01*
X36931000Y-6040000D01*
X37118500Y-5852500D01*
X37118500Y-64750000D01*
X33350199Y-64750000D01*
X33350199Y-54272254D01*
X33196223Y-53899605D01*
X33349800Y-53529753D01*
X33350199Y-53072254D01*
X33216934Y-52749728D01*
X33349800Y-52429753D01*
X33350199Y-51972254D01*
X33175491Y-51549428D01*
X32852273Y-51225646D01*
X32429753Y-51050200D01*
X31972254Y-51049801D01*
X31549428Y-51224509D01*
X31473805Y-51300000D01*
X28826497Y-51300000D01*
X28752273Y-51225646D01*
X28700277Y-51204055D01*
X28700277Y-47783137D01*
X28457205Y-47194857D01*
X28362742Y-47100229D01*
X28455623Y-47007511D01*
X28699722Y-46419656D01*
X28700277Y-45783137D01*
X28457205Y-45194857D01*
X28362742Y-45100229D01*
X28455623Y-45007511D01*
X28699722Y-44419656D01*
X28700277Y-43783137D01*
X28457205Y-43194857D01*
X28362742Y-43100229D01*
X28455623Y-43007511D01*
X28699722Y-42419656D01*
X28700277Y-41783137D01*
X28457205Y-41194857D01*
X28362742Y-41100229D01*
X28455623Y-41007511D01*
X28699722Y-40419656D01*
X28700277Y-39783137D01*
X28457205Y-39194857D01*
X28007511Y-38744377D01*
X27419656Y-38500278D01*
X26783137Y-38499723D01*
X26194857Y-38742795D01*
X25744377Y-39192489D01*
X25577420Y-39594564D01*
X25229753Y-39450200D01*
X24772254Y-39449801D01*
X24349428Y-39624509D01*
X24025646Y-39947727D01*
X23850200Y-40370247D01*
X23849801Y-40827746D01*
X24024509Y-41250572D01*
X24100000Y-41326194D01*
X24100000Y-43000000D01*
X24168508Y-43344415D01*
X24363604Y-43636396D01*
X25463604Y-44736396D01*
X25695879Y-44891597D01*
X25742795Y-45005143D01*
X25837257Y-45099770D01*
X25744377Y-45192489D01*
X25500278Y-45780344D01*
X25499723Y-46416863D01*
X25742795Y-47005143D01*
X25837257Y-47099770D01*
X25744377Y-47192489D01*
X25500278Y-47780344D01*
X25499723Y-48416863D01*
X25742795Y-49005143D01*
X26192489Y-49455623D01*
X26780344Y-49699722D01*
X27416863Y-49700277D01*
X28005143Y-49457205D01*
X28455623Y-49007511D01*
X28699722Y-48419656D01*
X28700277Y-47783137D01*
X28700277Y-51204055D01*
X28329753Y-51050200D01*
X27872254Y-51049801D01*
X27449428Y-51224509D01*
X27125646Y-51547727D01*
X26950200Y-51970247D01*
X26949801Y-52427746D01*
X27041613Y-52649948D01*
X26872254Y-52649801D01*
X26449428Y-52824509D01*
X26125646Y-53147727D01*
X25950200Y-53570247D01*
X25949801Y-54027746D01*
X26124509Y-54450572D01*
X26447727Y-54774354D01*
X26870247Y-54949800D01*
X27199342Y-54950087D01*
X27199343Y-54950087D01*
X27400000Y-54990000D01*
X31158162Y-54990000D01*
X31224509Y-55150572D01*
X31547727Y-55474354D01*
X31970247Y-55649800D01*
X32427746Y-55650199D01*
X32850572Y-55475491D01*
X33174354Y-55152273D01*
X33349800Y-54729753D01*
X33350199Y-54272254D01*
X33350199Y-64750000D01*
X19700199Y-64750000D01*
X19700199Y-22922254D01*
X19525491Y-22499428D01*
X19202273Y-22175646D01*
X18779753Y-22000200D01*
X18322254Y-21999801D01*
X17899428Y-22174509D01*
X17823805Y-22250000D01*
X17176497Y-22250000D01*
X17102273Y-22175646D01*
X16679753Y-22000200D01*
X16222254Y-21999801D01*
X15799428Y-22174509D01*
X15573436Y-22400107D01*
X15500000Y-22400043D01*
X15500000Y-5399185D01*
X15500000Y-5100816D01*
X15500000Y-3187500D01*
X15312500Y-3000000D01*
X12675000Y-3000000D01*
X12675000Y-5812500D01*
X12862500Y-6000000D01*
X14899184Y-6000000D01*
X15174841Y-5885819D01*
X15385819Y-5674841D01*
X15500000Y-5399185D01*
X15500000Y-22400043D01*
X15222254Y-22399801D01*
X14799428Y-22574509D01*
X14475646Y-22897727D01*
X14300200Y-23320247D01*
X14299801Y-23777746D01*
X14474509Y-24200572D01*
X14797727Y-24524354D01*
X15220247Y-24699800D01*
X15627363Y-24700155D01*
X15763604Y-24836396D01*
X16055585Y-25031492D01*
X16400000Y-25100000D01*
X17723502Y-25100000D01*
X17797727Y-25174354D01*
X18220247Y-25349800D01*
X18677746Y-25350199D01*
X19100572Y-25175491D01*
X19424354Y-24852273D01*
X19599800Y-24429753D01*
X19600199Y-23972254D01*
X19527166Y-23795500D01*
X19699800Y-23379753D01*
X19700199Y-22922254D01*
X19700199Y-64750000D01*
X13900199Y-64750000D01*
X13900199Y-35522254D01*
X13725491Y-35099428D01*
X13402273Y-34775646D01*
X12979753Y-34600200D01*
X12858744Y-34600094D01*
X12579325Y-34320675D01*
X12290589Y-34127747D01*
X12175000Y-34104755D01*
X12175000Y-5812500D01*
X12175000Y-3000000D01*
X9537500Y-3000000D01*
X9350000Y-3187500D01*
X9350000Y-5100816D01*
X9350000Y-5399185D01*
X9464181Y-5674841D01*
X9675159Y-5885819D01*
X9950816Y-6000000D01*
X11987500Y-6000000D01*
X12175000Y-5812500D01*
X12175000Y-34104755D01*
X11950000Y-34060000D01*
X11550199Y-34060000D01*
X11550199Y-23472254D01*
X11375491Y-23049428D01*
X11052273Y-22725646D01*
X10629753Y-22550200D01*
X10172254Y-22549801D01*
X9808744Y-22700000D01*
X8650000Y-22700000D01*
X8650000Y-5399185D01*
X8650000Y-5100816D01*
X8650000Y-3187500D01*
X8462500Y-3000000D01*
X5825000Y-3000000D01*
X5825000Y-5812500D01*
X6012500Y-6000000D01*
X8049184Y-6000000D01*
X8324841Y-5885819D01*
X8535819Y-5674841D01*
X8650000Y-5399185D01*
X8650000Y-22700000D01*
X8490510Y-22700000D01*
X8129753Y-22550200D01*
X7672254Y-22549801D01*
X7400416Y-22662122D01*
X7400416Y-14524705D01*
X7035808Y-13642285D01*
X6361266Y-12966565D01*
X5479484Y-12600417D01*
X5325000Y-12600282D01*
X5325000Y-5812500D01*
X5325000Y-3000000D01*
X2687500Y-3000000D01*
X2500000Y-3187500D01*
X2500000Y-5100816D01*
X2500000Y-5399185D01*
X2614181Y-5674841D01*
X2825159Y-5885819D01*
X3100816Y-6000000D01*
X5137500Y-6000000D01*
X5325000Y-5812500D01*
X5325000Y-12600282D01*
X4524705Y-12599584D01*
X3642285Y-12964192D01*
X2966565Y-13638734D01*
X2600417Y-14520516D01*
X2599584Y-15475295D01*
X2964192Y-16357715D01*
X3638734Y-17033435D01*
X4520516Y-17399583D01*
X5475295Y-17400416D01*
X6357715Y-17035808D01*
X7033435Y-16361266D01*
X7399583Y-15479484D01*
X7400416Y-14524705D01*
X7400416Y-22662122D01*
X7249428Y-22724509D01*
X6925646Y-23047727D01*
X6750200Y-23470247D01*
X6749801Y-23927746D01*
X6924509Y-24350572D01*
X7247727Y-24674354D01*
X7670247Y-24849800D01*
X8127746Y-24850199D01*
X8491255Y-24700000D01*
X9809489Y-24700000D01*
X10170247Y-24849800D01*
X10627746Y-24850199D01*
X11050572Y-24675491D01*
X11374354Y-24352273D01*
X11549800Y-23929753D01*
X11550199Y-23472254D01*
X11550199Y-34060000D01*
X10186480Y-34060000D01*
X10102273Y-33975646D01*
X9679753Y-33800200D01*
X9550199Y-33800087D01*
X9550199Y-29072254D01*
X9375491Y-28649428D01*
X9052273Y-28325646D01*
X8629753Y-28150200D01*
X8172254Y-28149801D01*
X7749428Y-28324509D01*
X7673805Y-28400000D01*
X4526497Y-28400000D01*
X4452273Y-28325646D01*
X4029753Y-28150200D01*
X3572254Y-28149801D01*
X3149428Y-28324509D01*
X2825646Y-28647727D01*
X2650200Y-29070247D01*
X2649801Y-29527746D01*
X2783065Y-29850271D01*
X2650200Y-30170247D01*
X2649801Y-30627746D01*
X2824509Y-31050572D01*
X3147727Y-31374354D01*
X3570247Y-31549800D01*
X4027746Y-31550199D01*
X4450572Y-31375491D01*
X4774354Y-31052273D01*
X4796059Y-31000000D01*
X6603613Y-31000000D01*
X6624509Y-31050572D01*
X6947727Y-31374354D01*
X7370247Y-31549800D01*
X7827746Y-31550199D01*
X8250572Y-31375491D01*
X8574354Y-31052273D01*
X8749800Y-30629753D01*
X8750000Y-30399684D01*
X9050572Y-30275491D01*
X9374354Y-29952273D01*
X9549800Y-29529753D01*
X9550199Y-29072254D01*
X9550199Y-33800087D01*
X9222254Y-33799801D01*
X9050199Y-33870892D01*
X9050199Y-32622254D01*
X8875491Y-32199428D01*
X8552273Y-31875646D01*
X8129753Y-31700200D01*
X7672254Y-31699801D01*
X7374790Y-31822710D01*
X7079753Y-31700200D01*
X6946421Y-31700083D01*
X6925491Y-31649428D01*
X6602273Y-31325646D01*
X6179753Y-31150200D01*
X5722254Y-31149801D01*
X5299428Y-31324509D01*
X4975646Y-31647727D01*
X4800200Y-32070247D01*
X4799801Y-32527746D01*
X4974509Y-32950572D01*
X5010000Y-32986124D01*
X5010000Y-33242008D01*
X4750866Y-33241782D01*
X4364620Y-33401374D01*
X3981330Y-33242219D01*
X3480866Y-33241782D01*
X3018331Y-33432897D01*
X2664141Y-33786470D01*
X2472219Y-34248670D01*
X2471782Y-34749134D01*
X2662897Y-35211669D01*
X2666697Y-35215476D01*
X2565273Y-35232793D01*
X2448352Y-35719408D01*
X2526551Y-36213725D01*
X2565273Y-36307207D01*
X2659787Y-36323343D01*
X2741444Y-36404999D01*
X2659787Y-36486656D01*
X2565273Y-36502793D01*
X2448352Y-36989408D01*
X2526551Y-37483725D01*
X2565273Y-37577207D01*
X2666179Y-37594435D01*
X2664141Y-37596470D01*
X2472219Y-38058670D01*
X2471782Y-38559134D01*
X2662897Y-39021669D01*
X2666697Y-39025476D01*
X2565273Y-39042793D01*
X2448352Y-39529408D01*
X2526551Y-40023725D01*
X2565273Y-40117207D01*
X2799286Y-40157161D01*
X3376447Y-39580000D01*
X3362304Y-39565857D01*
X3395087Y-39533074D01*
X3478670Y-39567781D01*
X3742010Y-39568010D01*
X3741782Y-39829134D01*
X3777137Y-39914700D01*
X3744142Y-39947695D01*
X3730000Y-39933553D01*
X3152839Y-40510714D01*
X3192793Y-40744727D01*
X3679408Y-40861648D01*
X4173725Y-40783449D01*
X4267207Y-40744727D01*
X4284435Y-40643820D01*
X4286470Y-40645859D01*
X4748670Y-40837781D01*
X5249134Y-40838218D01*
X5711669Y-40647103D01*
X6065859Y-40293530D01*
X6146220Y-40099997D01*
X6377746Y-40100199D01*
X6800572Y-39925491D01*
X7124354Y-39602273D01*
X7299800Y-39179753D01*
X7299854Y-39117106D01*
X7400572Y-39075491D01*
X7724354Y-38752273D01*
X7899800Y-38329753D01*
X7900021Y-38076127D01*
X8174354Y-37802273D01*
X8349800Y-37379753D01*
X8350199Y-36922254D01*
X8175491Y-36499428D01*
X7852273Y-36175646D01*
X7820002Y-36162245D01*
X7820002Y-34188648D01*
X8008554Y-34000095D01*
X8127746Y-34000199D01*
X8550572Y-33825491D01*
X8874354Y-33502273D01*
X9049800Y-33079753D01*
X9050199Y-32622254D01*
X9050199Y-33870892D01*
X8799428Y-33974509D01*
X8475646Y-34297727D01*
X8300200Y-34720247D01*
X8299801Y-35177746D01*
X8474509Y-35600572D01*
X8797727Y-35924354D01*
X9220247Y-36099800D01*
X9677746Y-36100199D01*
X10100572Y-35925491D01*
X10186212Y-35840000D01*
X11581350Y-35840000D01*
X11599904Y-35858554D01*
X11599801Y-35977746D01*
X11774509Y-36400572D01*
X12097727Y-36724354D01*
X12520247Y-36899800D01*
X12977746Y-36900199D01*
X13400572Y-36725491D01*
X13724354Y-36402273D01*
X13899800Y-35979753D01*
X13900199Y-35522254D01*
X13900199Y-64750000D01*
X13650199Y-64750000D01*
X13650199Y-41472254D01*
X13475491Y-41049428D01*
X13152273Y-40725646D01*
X12729753Y-40550200D01*
X12272254Y-40549801D01*
X11849428Y-40724509D01*
X11525646Y-41047727D01*
X11375216Y-41410000D01*
X10736480Y-41410000D01*
X10652273Y-41325646D01*
X10229753Y-41150200D01*
X9772254Y-41149801D01*
X9349428Y-41324509D01*
X9025646Y-41647727D01*
X8850200Y-42070247D01*
X8849801Y-42527746D01*
X9024509Y-42950572D01*
X9347727Y-43274354D01*
X9770247Y-43449800D01*
X10227746Y-43450199D01*
X10650572Y-43275491D01*
X10736212Y-43190000D01*
X11900000Y-43190000D01*
X12240588Y-43122253D01*
X12240589Y-43122253D01*
X12529325Y-42929325D01*
X12608554Y-42850095D01*
X12727746Y-42850199D01*
X13150572Y-42675491D01*
X13474354Y-42352273D01*
X13649800Y-41929753D01*
X13650199Y-41472254D01*
X13650199Y-64750000D01*
X8650251Y-64750000D01*
X8650251Y-50592843D01*
X8650251Y-45712843D01*
X8429967Y-45179714D01*
X8022431Y-44771467D01*
X7489688Y-44550252D01*
X6912843Y-44549749D01*
X6379714Y-44770033D01*
X5971467Y-45177569D01*
X5750252Y-45710312D01*
X5749749Y-46287157D01*
X5970033Y-46820286D01*
X6377569Y-47228533D01*
X6910312Y-47449748D01*
X7487157Y-47450251D01*
X8020286Y-47229967D01*
X8428533Y-46822431D01*
X8649748Y-46289688D01*
X8650251Y-45712843D01*
X8650251Y-50592843D01*
X8429967Y-50059714D01*
X8022431Y-49651467D01*
X7489688Y-49430252D01*
X6912843Y-49429749D01*
X6379714Y-49650033D01*
X5971467Y-50057569D01*
X5750252Y-50590312D01*
X5749749Y-51167157D01*
X5970033Y-51700286D01*
X6377569Y-52108533D01*
X6910312Y-52329748D01*
X7487157Y-52330251D01*
X8020286Y-52109967D01*
X8428533Y-51702431D01*
X8649748Y-51169688D01*
X8650251Y-50592843D01*
X8650251Y-64750000D01*
X7400416Y-64750000D01*
X7400416Y-57524705D01*
X7035808Y-56642285D01*
X6361266Y-55966565D01*
X5479484Y-55600417D01*
X4524705Y-55599584D01*
X3642285Y-55964192D01*
X2966565Y-56638734D01*
X2600417Y-57520516D01*
X2599584Y-58475295D01*
X2964192Y-59357715D01*
X3638734Y-60033435D01*
X4520516Y-60399583D01*
X5475295Y-60400416D01*
X6357715Y-60035808D01*
X7033435Y-59361266D01*
X7399583Y-58479484D01*
X7400416Y-57524705D01*
X7400416Y-64750000D01*
X2103553Y-64750000D01*
X1250000Y-63896447D01*
X1250000Y-28000000D01*
X1250000Y-26000000D01*
X1250000Y-23000000D01*
X1250000Y-21000000D01*
X1250000Y-17000000D01*
X1250000Y-2103553D01*
X2103553Y-1250000D01*
X2500000Y-1250000D01*
X2500000Y-2312500D01*
X2687500Y-2500000D01*
X5325000Y-2500000D01*
X5325000Y-2480000D01*
X5825000Y-2480000D01*
X5825000Y-2500000D01*
X8462500Y-2500000D01*
X8650000Y-2312500D01*
X8650000Y-1250000D01*
X9350000Y-1250000D01*
X9350000Y-2312500D01*
X9537500Y-2500000D01*
X12175000Y-2500000D01*
X12175000Y-2480000D01*
X12675000Y-2480000D01*
X12675000Y-2500000D01*
X15312500Y-2500000D01*
X15500000Y-2312500D01*
X15500000Y-1250000D01*
X20896447Y-1250000D01*
X21750000Y-2103553D01*
X21750000Y-21000000D01*
X21750000Y-23000000D01*
X21750000Y-23773415D01*
X21725646Y-23797727D01*
X21550200Y-24220247D01*
X21549801Y-24677746D01*
X21672710Y-24975209D01*
X21550200Y-25270247D01*
X21549801Y-25727746D01*
X21683065Y-26050271D01*
X21550200Y-26370247D01*
X21549801Y-26827746D01*
X21724509Y-27250572D01*
X22047727Y-27574354D01*
X22470247Y-27749800D01*
X22927746Y-27750199D01*
X23350572Y-27575491D01*
X23486299Y-27440000D01*
X23863519Y-27440000D01*
X23947727Y-27524354D01*
X24370247Y-27699800D01*
X24827746Y-27700199D01*
X25250572Y-27525491D01*
X25574354Y-27202273D01*
X25749800Y-26779753D01*
X25750199Y-26322254D01*
X25602351Y-25964434D01*
X25699800Y-25729753D01*
X25700199Y-25272254D01*
X25552351Y-24914434D01*
X25649800Y-24679753D01*
X25650199Y-24222254D01*
X25475491Y-23799428D01*
X25152273Y-23475646D01*
X24729753Y-23300200D01*
X24272254Y-23299801D01*
X23849428Y-23474509D01*
X23763787Y-23560000D01*
X23436480Y-23560000D01*
X23352273Y-23475646D01*
X23250000Y-23433178D01*
X23250000Y-11103553D01*
X24103553Y-10250000D01*
X34103553Y-10250000D01*
X35250000Y-9103553D01*
X35250000Y-2103553D01*
X35412000Y-1941553D01*
X35412000Y-2312500D01*
X35599500Y-2500000D01*
X37118500Y-2500000D01*
X37118500Y-2480000D01*
X37618500Y-2480000D01*
X37618500Y-2500000D01*
X39137500Y-2500000D01*
X39325000Y-2312500D01*
X39325000Y-1250000D01*
X44175000Y-1250000D01*
X44175000Y-2312500D01*
X44362500Y-2500000D01*
X45881500Y-2500000D01*
X45881500Y-2480000D01*
X46381500Y-2480000D01*
X46381500Y-2500000D01*
X47900500Y-2500000D01*
X48088000Y-2312500D01*
X48088000Y-1441553D01*
X48750000Y-2103553D01*
X48750000Y-64750000D01*
M02*
