%FSLAX46Y46*%
G04 Gerber Fmt 4.6, Leading zero omitted, Abs format (unit mm)*
G04 Created by KiCad (PCBNEW (2014-jul-16 BZR unknown)-product) date Wed 23 Jul 2014 05:49:59 BST*
%MOMM*%
G01*
G04 APERTURE LIST*
%ADD10C,0.100000*%
%ADD11R,0.800000X5.000000*%
%ADD12R,4.650000X5.000000*%
%ADD13R,0.800000X0.700000*%
%ADD14R,0.700000X0.800000*%
%ADD15R,0.600000X0.600000*%
%ADD16R,1.200000X1.700000*%
%ADD17R,0.800000X0.800000*%
%ADD18R,1.000000X1.000000*%
%ADD19R,0.400000X1.400000*%
%ADD20R,0.600000X2.200000*%
%ADD21C,1.700000*%
%ADD22R,1.900000X0.900000*%
%ADD23R,1.300000X0.900000*%
%ADD24R,3.500000X1.800000*%
%ADD25C,0.300000*%
%ADD26R,1.800000X0.700000*%
%ADD27R,1.800000X0.800000*%
%ADD28R,0.300000X0.300000*%
%ADD29R,0.600000X0.350000*%
%ADD30R,1.700000X1.600000*%
%ADD31R,0.350000X0.600000*%
%ADD32R,0.300000X1.200000*%
%ADD33R,1.200000X0.300000*%
%ADD34R,1.400000X0.400000*%
%ADD35R,0.640000X1.020000*%
%ADD36R,1.020000X0.640000*%
%ADD37R,0.660000X0.360000*%
%ADD38C,1.016000*%
%ADD39R,2.286000X5.080000*%
%ADD40R,2.413000X5.080000*%
%ADD41R,0.500000X0.600000*%
%ADD42C,1.000000*%
%ADD43C,1.400000*%
%ADD44C,1.500000*%
%ADD45R,1.300000X2.400000*%
%ADD46R,3.800000X2.400000*%
%ADD47C,3.400000*%
%ADD48C,0.800000*%
%ADD49C,0.400000*%
%ADD50C,0.500000*%
%ADD51C,0.300000*%
%ADD52C,0.280000*%
%ADD53C,0.250000*%
%ADD54C,0.800000*%
%ADD55C,1.000000*%
%ADD56C,1.500000*%
%ADD57C,2.000000*%
%ADD58C,3.000000*%
G04 APERTURE END LIST*
D10*
D11*
X125000000Y-61750000D03*
D12*
X121575000Y-61750000D03*
X128425000Y-61750000D03*
D13*
X131500000Y-117250000D03*
X131500000Y-118650000D03*
X138250000Y-117250000D03*
X138250000Y-118650000D03*
X140900000Y-77200000D03*
X140900000Y-75800000D03*
D14*
X139500000Y-72750000D03*
X140900000Y-72750000D03*
X131750000Y-111750000D03*
X130350000Y-111750000D03*
D13*
X138250000Y-114000000D03*
X138250000Y-115400000D03*
D14*
X140250000Y-120000000D03*
X138850000Y-120000000D03*
X140250000Y-112250000D03*
X138850000Y-112250000D03*
X145250000Y-94000000D03*
X143850000Y-94000000D03*
X142500000Y-94000000D03*
X141100000Y-94000000D03*
D13*
X142200000Y-81100000D03*
X142200000Y-82500000D03*
X143250000Y-115750000D03*
X143250000Y-117150000D03*
X140250000Y-108000000D03*
X140250000Y-109400000D03*
D14*
X120900000Y-91700000D03*
X119500000Y-91700000D03*
X143000000Y-97000000D03*
X144400000Y-97000000D03*
D15*
X150000000Y-76750000D03*
X151000000Y-76750000D03*
D14*
X149750000Y-75500000D03*
X151150000Y-75500000D03*
D16*
X147250000Y-85000000D03*
X150350000Y-85000000D03*
D15*
X152570000Y-94450000D03*
X152570000Y-95450000D03*
X152900000Y-67750000D03*
X152900000Y-66750000D03*
X153600000Y-93200000D03*
X152600000Y-93200000D03*
X153900000Y-69330000D03*
X152900000Y-69330000D03*
D13*
X123500000Y-100800000D03*
X123500000Y-99400000D03*
X126500000Y-102900000D03*
X126500000Y-104300000D03*
X124800000Y-100800000D03*
X124800000Y-99400000D03*
D14*
X136100000Y-94700000D03*
X137500000Y-94700000D03*
D13*
X127800000Y-91400000D03*
X127800000Y-90000000D03*
D14*
X132500000Y-105500000D03*
X131100000Y-105500000D03*
X132500000Y-104300000D03*
X131100000Y-104300000D03*
X133500000Y-81100000D03*
X134900000Y-81100000D03*
X123250000Y-68500000D03*
X121850000Y-68500000D03*
X120800000Y-80500000D03*
X122200000Y-80500000D03*
X120700000Y-85100000D03*
X122100000Y-85100000D03*
X121000000Y-100800000D03*
X119600000Y-100800000D03*
D13*
X119900000Y-105000000D03*
X119900000Y-106400000D03*
X119900000Y-109800000D03*
X119900000Y-108400000D03*
D17*
X135500000Y-87550000D03*
X135500000Y-85900000D03*
X136750000Y-87550000D03*
X136750000Y-85900000D03*
X134250000Y-87550000D03*
X134250000Y-85900000D03*
X131800000Y-87550000D03*
X131800000Y-85900000D03*
X133000000Y-87550000D03*
X133000000Y-85900000D03*
X130500000Y-87550000D03*
X130500000Y-85900000D03*
D18*
X156000000Y-95500000D03*
X157500000Y-95500000D03*
X154500000Y-95500000D03*
X156500000Y-66750000D03*
X155000000Y-66750000D03*
X158000000Y-66750000D03*
D19*
X141750000Y-114000000D03*
X141100000Y-114000000D03*
X140450000Y-114000000D03*
X139800000Y-114000000D03*
X139800000Y-118400000D03*
X140450000Y-118400000D03*
X141100000Y-118400000D03*
X141750000Y-118400000D03*
D20*
X136750000Y-113750000D03*
X135480000Y-113750000D03*
X134210000Y-113750000D03*
X132940000Y-113750000D03*
X132940000Y-118957000D03*
X134210000Y-118957000D03*
X135480000Y-118957000D03*
X136750000Y-118957000D03*
X130000000Y-113750000D03*
X128730000Y-113750000D03*
X127460000Y-113750000D03*
X126190000Y-113750000D03*
X126190000Y-118957000D03*
X127460000Y-118957000D03*
X128730000Y-118957000D03*
X130000000Y-118957000D03*
X142250000Y-79250000D03*
X143520000Y-79250000D03*
X144790000Y-79250000D03*
X146060000Y-79250000D03*
X146060000Y-74043000D03*
X144790000Y-74043000D03*
X143520000Y-74043000D03*
X142250000Y-74043000D03*
D21*
X161600000Y-99600000D03*
X159600000Y-99600000D03*
X143100000Y-99100000D03*
X143100000Y-101100000D03*
X143100000Y-103100000D03*
X143100000Y-105100000D03*
X143100000Y-107100000D03*
X143100000Y-109100000D03*
D22*
X152450000Y-81500000D03*
D23*
X152750000Y-83000000D03*
X152750000Y-80000000D03*
D24*
X149750000Y-81500000D03*
D25*
X152450000Y-81500000D03*
X153050000Y-81500000D03*
X151850000Y-81500000D03*
X151250000Y-81500000D03*
X150650000Y-81500000D03*
X150050000Y-81500000D03*
X149450000Y-81500000D03*
X148850000Y-81500000D03*
X148250000Y-81500000D03*
X151250000Y-81000000D03*
X150650000Y-81000000D03*
X150050000Y-81000000D03*
X149450000Y-81000000D03*
X148850000Y-81000000D03*
X148850000Y-82000000D03*
X149450000Y-82000000D03*
X150050000Y-82000000D03*
X150650000Y-82000000D03*
X151250000Y-82000000D03*
X148250000Y-82000000D03*
X148250000Y-81000000D03*
D26*
X127250000Y-70750000D03*
D27*
X127250000Y-71850000D03*
X127250000Y-72950000D03*
X127250000Y-74050000D03*
X127250000Y-75150000D03*
X127250000Y-76250000D03*
X127250000Y-77350000D03*
X127250000Y-78450000D03*
D26*
X127250000Y-79550000D03*
X136750000Y-70750000D03*
X136750000Y-79550000D03*
D27*
X136750000Y-71850000D03*
X136750000Y-72950000D03*
X136750000Y-74050000D03*
X136750000Y-75150000D03*
X136750000Y-76250000D03*
X136750000Y-77350000D03*
X136750000Y-78450000D03*
D28*
X124900000Y-68000000D03*
X124900000Y-65500000D03*
X124900000Y-66750000D03*
X125900000Y-68000000D03*
X125900000Y-65500000D03*
D29*
X125050000Y-67375000D03*
X125050000Y-66125000D03*
D30*
X126200000Y-66750000D03*
D31*
X126875000Y-67850000D03*
X126875000Y-65650000D03*
X126525000Y-65650000D03*
X126525000Y-67850000D03*
D32*
X127750000Y-102000000D03*
X128250000Y-102000000D03*
X128750000Y-102000000D03*
X129250000Y-102000000D03*
X129750000Y-102000000D03*
X130250000Y-102000000D03*
X130750000Y-102000000D03*
X131250000Y-102000000D03*
X131750000Y-102000000D03*
X132250000Y-102000000D03*
X132750000Y-102000000D03*
X133250000Y-102000000D03*
D33*
X134750000Y-100500000D03*
X134750000Y-100000000D03*
X134750000Y-99500000D03*
X134750000Y-99000000D03*
X134750000Y-98500000D03*
X134750000Y-98000000D03*
X134750000Y-97500000D03*
X134750000Y-97000000D03*
X134750000Y-96500000D03*
X134750000Y-96000000D03*
X134750000Y-95500000D03*
X134750000Y-95000000D03*
D32*
X133250000Y-93500000D03*
X132750000Y-93500000D03*
X132250000Y-93500000D03*
X131750000Y-93500000D03*
X131250000Y-93500000D03*
X130750000Y-93500000D03*
X130250000Y-93500000D03*
X129750000Y-93500000D03*
X129250000Y-93500000D03*
X128750000Y-93500000D03*
X128250000Y-93500000D03*
X127750000Y-93500000D03*
D33*
X126250000Y-95000000D03*
X126250000Y-95500000D03*
X126250000Y-96000000D03*
X126250000Y-96500000D03*
X126250000Y-97000000D03*
X126250000Y-97500000D03*
X126250000Y-98000000D03*
X126250000Y-98500000D03*
X126250000Y-99000000D03*
X126250000Y-99500000D03*
X126250000Y-100000000D03*
X126250000Y-100500000D03*
D34*
X119200000Y-81800000D03*
X119200000Y-82450000D03*
X119200000Y-83100000D03*
X119200000Y-83750000D03*
X123600000Y-83750000D03*
X123600000Y-83100000D03*
X123600000Y-82450000D03*
X123600000Y-81800000D03*
D35*
X151250000Y-78000000D03*
X149970000Y-78000000D03*
D36*
X152580000Y-88210000D03*
X152580000Y-89490000D03*
D37*
X152760000Y-72140000D03*
X152760000Y-72960000D03*
D38*
X119730000Y-93500000D03*
X121000000Y-93500000D03*
X119730000Y-94770000D03*
X121000000Y-94770000D03*
X119730000Y-96040000D03*
X121000000Y-96040000D03*
X119730000Y-97310000D03*
X121000000Y-97310000D03*
X119730000Y-98580000D03*
X121000000Y-98580000D03*
D39*
X157750000Y-61750000D03*
D40*
X153368500Y-61750000D03*
X162131500Y-61750000D03*
D17*
X137750000Y-107750000D03*
X137750000Y-109350000D03*
X139000000Y-107750000D03*
X139000000Y-109350000D03*
D41*
X152580000Y-85110000D03*
X152580000Y-86210000D03*
D17*
X157250000Y-121500000D03*
X157250000Y-119900000D03*
X156000000Y-121500000D03*
X156000000Y-119900000D03*
X123250000Y-67000000D03*
X123250000Y-65400000D03*
X136750000Y-88800000D03*
X136750000Y-90400000D03*
X135500000Y-88800000D03*
X135500000Y-90400000D03*
X138000000Y-88800000D03*
X138000000Y-90400000D03*
X134250000Y-88800000D03*
X134250000Y-90400000D03*
X131800000Y-88800000D03*
X131800000Y-90400000D03*
X133000000Y-88800000D03*
X133000000Y-90400000D03*
X130500000Y-88800000D03*
X130500000Y-90400000D03*
X126500000Y-109800000D03*
X126500000Y-108200000D03*
D42*
X143250000Y-114000000D03*
X145800000Y-83600000D03*
X135500000Y-121250000D03*
X128750000Y-111750000D03*
X128500000Y-121250000D03*
X134250000Y-121250000D03*
X127500000Y-111750000D03*
X126500000Y-121250000D03*
X143500000Y-71750000D03*
X145000000Y-71750000D03*
X143500000Y-120250000D03*
X153300000Y-121500000D03*
X137750000Y-106500000D03*
X145000000Y-81750000D03*
X143500000Y-81750000D03*
X133500000Y-111750000D03*
X134750000Y-111750000D03*
X121750000Y-67000000D03*
X136750000Y-69000000D03*
X125500000Y-78750000D03*
X125500000Y-77500000D03*
X141000000Y-101000000D03*
X141000000Y-103000000D03*
X141000000Y-105000000D03*
X141000000Y-107000000D03*
D43*
X123200000Y-105000000D03*
X123200000Y-109880000D03*
D44*
X142000000Y-67250000D03*
X144000000Y-67250000D03*
X146000000Y-67250000D03*
X148000000Y-67250000D03*
X126000000Y-125750000D03*
X124000000Y-125750000D03*
X122000000Y-125750000D03*
X120000000Y-125750000D03*
X138000000Y-125750000D03*
X136000000Y-125750000D03*
X134000000Y-125750000D03*
X132000000Y-125750000D03*
X162000000Y-125750000D03*
X160000000Y-125750000D03*
X146000000Y-125750000D03*
X144000000Y-125750000D03*
X154000000Y-125750000D03*
X152000000Y-125750000D03*
D45*
X143250000Y-91750000D03*
X140950000Y-91750000D03*
X145550000Y-91750000D03*
D46*
X143250000Y-85650000D03*
D31*
X141000000Y-71500000D03*
X140350000Y-71500000D03*
X144500000Y-121500000D03*
X145150000Y-121500000D03*
X156500000Y-65300000D03*
X155850000Y-65300000D03*
X162000000Y-121400000D03*
X161350000Y-121400000D03*
X160000000Y-121400000D03*
X160650000Y-121400000D03*
D47*
X121000000Y-117000000D03*
X161000000Y-74000000D03*
X121000000Y-74000000D03*
X161000000Y-117000000D03*
D48*
X150300000Y-83300000D03*
X131000000Y-77000000D03*
X131000000Y-75000000D03*
X131000000Y-73000000D03*
X131000000Y-71000000D03*
X131000000Y-69000000D03*
X133000000Y-67000000D03*
X135000000Y-65000000D03*
X134000000Y-63000000D03*
X132000000Y-63000000D03*
X132000000Y-65000000D03*
X130000000Y-66000000D03*
X129000000Y-67000000D03*
X129000000Y-69000000D03*
X129000000Y-71000000D03*
X129000000Y-73000000D03*
X129000000Y-75000000D03*
X129000000Y-77000000D03*
X129000000Y-79000000D03*
X130000000Y-80000000D03*
X131000000Y-79000000D03*
X132000000Y-78000000D03*
X133000000Y-76000000D03*
X133000000Y-74000000D03*
X133000000Y-72000000D03*
X133000000Y-70000000D03*
X135000000Y-69000000D03*
X136000000Y-67000000D03*
X137000000Y-66000000D03*
X137000000Y-64000000D03*
X137000000Y-62000000D03*
X136000000Y-61000000D03*
X134000000Y-61000000D03*
X132000000Y-61000000D03*
X120000000Y-67000000D03*
X122000000Y-71000000D03*
X123000000Y-76000000D03*
X122000000Y-77000000D03*
X120000000Y-79000000D03*
X118000000Y-80000000D03*
X118000000Y-78000000D03*
X118000000Y-76000000D03*
X118000000Y-74000000D03*
X118000000Y-72000000D03*
X118000000Y-70000000D03*
X118000000Y-68000000D03*
X118000000Y-66000000D03*
X118000000Y-64000000D03*
X118000000Y-62000000D03*
X119500000Y-90400000D03*
X141100000Y-82500000D03*
X128450000Y-89200000D03*
X133650000Y-86550000D03*
X123200000Y-79700000D03*
X120600000Y-107400000D03*
X126200000Y-111800000D03*
X138800000Y-120900000D03*
X138000000Y-112300000D03*
X131900000Y-113500000D03*
X145800000Y-121500000D03*
X145400000Y-97000000D03*
X143900000Y-95100000D03*
X141200000Y-95100000D03*
X128000000Y-66800000D03*
X128000000Y-65700000D03*
X128000000Y-67900000D03*
X120900000Y-68500000D03*
X123100000Y-85100000D03*
X119600000Y-102000000D03*
X127600000Y-104200000D03*
X147500000Y-74100000D03*
X140900000Y-78200000D03*
X139500000Y-71100000D03*
X154500000Y-93200000D03*
X154900000Y-69300000D03*
X151000000Y-74250000D03*
X137500000Y-95750000D03*
X161000000Y-122300000D03*
X121600000Y-65200000D03*
X128400000Y-64900000D03*
X162100000Y-65200000D03*
X153400000Y-65200000D03*
X131300000Y-106600000D03*
X122300000Y-99400000D03*
X136200000Y-81100000D03*
X140600000Y-85550000D03*
X138700000Y-85600000D03*
X144250000Y-110400000D03*
X148000000Y-110400000D03*
X128500000Y-100700000D03*
X126000000Y-101300000D03*
X119800000Y-88300000D03*
X124400000Y-88300000D03*
X134450000Y-83200000D03*
X131450000Y-82550000D03*
X123600000Y-89400000D03*
X119800000Y-89400000D03*
X132450000Y-82150000D03*
X134550000Y-82150000D03*
X140500000Y-83450000D03*
X138700000Y-83450000D03*
X138700000Y-84500000D03*
X140550000Y-84500000D03*
X148000000Y-112600000D03*
X144250000Y-112550000D03*
X148000000Y-111500000D03*
X144250000Y-111500000D03*
X123200000Y-96150000D03*
X123900000Y-91850000D03*
X122850000Y-91850000D03*
X122750000Y-97100000D03*
X121950000Y-91300000D03*
X122150000Y-97950000D03*
X141750000Y-100000000D03*
X125450000Y-93950000D03*
X128750000Y-94750000D03*
D49*
X120000000Y-125500000D02*
X120000000Y-125750000D01*
X120000000Y-125600000D02*
X120000000Y-125750000D01*
X126190000Y-119410000D02*
X120000000Y-125600000D01*
X126190000Y-118957000D02*
X126190000Y-119410000D01*
X126190000Y-117810000D02*
X126750000Y-117250000D01*
X126750000Y-117250000D02*
X131500000Y-117250000D01*
X126190000Y-118957000D02*
X126190000Y-117810000D01*
X130000000Y-119250000D02*
X130000000Y-118957000D01*
X125900000Y-125700000D02*
X126000000Y-125750000D01*
X130000000Y-121600000D02*
X125900000Y-125700000D01*
X130000000Y-118957000D02*
X130000000Y-121600000D01*
X130000000Y-120000000D02*
X130000000Y-118957000D01*
X130000000Y-118750000D02*
X130000000Y-118957000D01*
X130100000Y-118650000D02*
X130000000Y-118750000D01*
X131500000Y-118650000D02*
X130100000Y-118650000D01*
X132940000Y-124810000D02*
X132000000Y-125750000D01*
X132940000Y-118957000D02*
X132940000Y-124810000D01*
X133750000Y-117250000D02*
X138250000Y-117250000D01*
X132940000Y-118060000D02*
X133750000Y-117250000D01*
X132940000Y-118957000D02*
X132940000Y-118060000D01*
X138000000Y-125500000D02*
X138000000Y-125750000D01*
X136750000Y-124250000D02*
X138000000Y-125500000D01*
X136750000Y-118957000D02*
X136750000Y-124250000D01*
X136750000Y-118750000D02*
X136750000Y-118957000D01*
X136850000Y-118650000D02*
X136750000Y-118750000D01*
X138250000Y-118650000D02*
X136850000Y-118650000D01*
D50*
X150350000Y-83350000D02*
X150300000Y-83300000D01*
X150350000Y-85000000D02*
X150350000Y-83350000D01*
D51*
X131000000Y-73000000D02*
X131000000Y-75000000D01*
X131000000Y-69000000D02*
X131000000Y-71000000D01*
X135000000Y-65000000D02*
X133000000Y-67000000D01*
X132000000Y-63000000D02*
X134000000Y-63000000D01*
X131000000Y-66000000D02*
X132000000Y-65000000D01*
X130000000Y-66000000D02*
X131000000Y-66000000D01*
X129000000Y-69000000D02*
X129000000Y-67000000D01*
X129000000Y-73000000D02*
X129000000Y-71000000D01*
X129000000Y-77000000D02*
X129000000Y-75000000D01*
X130000000Y-80000000D02*
X129000000Y-79000000D01*
X132000000Y-78000000D02*
X131000000Y-79000000D01*
X133000000Y-74000000D02*
X133000000Y-76000000D01*
X133000000Y-70000000D02*
X133000000Y-72000000D01*
X135000000Y-68000000D02*
X135000000Y-69000000D01*
X136000000Y-67000000D02*
X135000000Y-68000000D01*
X137000000Y-64000000D02*
X137000000Y-66000000D01*
X136000000Y-61000000D02*
X137000000Y-62000000D01*
X132000000Y-61000000D02*
X134000000Y-61000000D01*
X121575000Y-61750000D02*
X118250000Y-61750000D01*
X120000000Y-69000000D02*
X120000000Y-67000000D01*
X122000000Y-71000000D02*
X120000000Y-69000000D01*
X122000000Y-77000000D02*
X123000000Y-76000000D01*
X119000000Y-79000000D02*
X120000000Y-79000000D01*
X118000000Y-80000000D02*
X119000000Y-79000000D01*
X118000000Y-76000000D02*
X118000000Y-78000000D01*
X118000000Y-72000000D02*
X118000000Y-74000000D01*
X118000000Y-68000000D02*
X118000000Y-70000000D01*
X118000000Y-64000000D02*
X118000000Y-66000000D01*
X118250000Y-61750000D02*
X118000000Y-62000000D01*
D49*
X119500000Y-91700000D02*
X119500000Y-90400000D01*
D50*
X141100000Y-82500000D02*
X142200000Y-82500000D01*
D51*
X127800000Y-90000000D02*
X127800000Y-89850000D01*
X127800000Y-89850000D02*
X128450000Y-89200000D01*
X133650000Y-85900000D02*
X133650000Y-86550000D01*
X135500000Y-85900000D02*
X136650000Y-85900000D01*
X136650000Y-85900000D02*
X136750000Y-85900000D01*
X134250000Y-85900000D02*
X135550000Y-85900000D01*
X135550000Y-85900000D02*
X135500000Y-85900000D01*
X133000000Y-85900000D02*
X133650000Y-85900000D01*
X133650000Y-85900000D02*
X134150000Y-85900000D01*
X134150000Y-85900000D02*
X134200000Y-85950000D01*
X134200000Y-85950000D02*
X134250000Y-85900000D01*
X131800000Y-85900000D02*
X133100000Y-85900000D01*
X133100000Y-85900000D02*
X133000000Y-85900000D01*
X130500000Y-85900000D02*
X131850000Y-85900000D01*
X131850000Y-85900000D02*
X131800000Y-85900000D01*
D52*
X128250000Y-93500000D02*
X128250000Y-92250000D01*
X128500000Y-90000000D02*
X127750000Y-90000000D01*
X128750000Y-90250000D02*
X128500000Y-90000000D01*
X128750000Y-91750000D02*
X128750000Y-90250000D01*
X128250000Y-92250000D02*
X128750000Y-91750000D01*
X127750000Y-90000000D02*
X127800000Y-90000000D01*
D51*
X123200000Y-80500000D02*
X123200000Y-79700000D01*
X119900000Y-107400000D02*
X120600000Y-107400000D01*
X126190000Y-113750000D02*
X126190000Y-111810000D01*
X126190000Y-111810000D02*
X126200000Y-111800000D01*
X138750000Y-112250000D02*
X138850000Y-112250000D01*
X139800000Y-113300000D02*
X138750000Y-112250000D01*
X139800000Y-114000000D02*
X139800000Y-113300000D01*
D49*
X138850000Y-120850000D02*
X138800000Y-120900000D01*
X138850000Y-120000000D02*
X138850000Y-120850000D01*
X139300000Y-115400000D02*
X139800000Y-114900000D01*
X139800000Y-114900000D02*
X139800000Y-114000000D01*
X138250000Y-115400000D02*
X139300000Y-115400000D01*
X138050000Y-112250000D02*
X138000000Y-112300000D01*
X138850000Y-112250000D02*
X138050000Y-112250000D01*
X132250000Y-113750000D02*
X132000000Y-113500000D01*
X132000000Y-113500000D02*
X131900000Y-113500000D01*
X131750000Y-113350000D02*
X131750000Y-111750000D01*
X131750000Y-113350000D02*
X131900000Y-113500000D01*
X132940000Y-113750000D02*
X132250000Y-113750000D01*
D51*
X145150000Y-121500000D02*
X145800000Y-121500000D01*
D49*
X154000000Y-122200000D02*
X153300000Y-121500000D01*
X154000000Y-125750000D02*
X154000000Y-122200000D01*
X144400000Y-97000000D02*
X145400000Y-97000000D01*
X143850000Y-95050000D02*
X143900000Y-95100000D01*
X143850000Y-94000000D02*
X143850000Y-95050000D01*
X141100000Y-95000000D02*
X141200000Y-95100000D01*
X141100000Y-94000000D02*
X141100000Y-95000000D01*
D52*
X123400000Y-99400000D02*
X123500000Y-99400000D01*
X124700000Y-99400000D02*
X124800000Y-99400000D01*
X125300000Y-100000000D02*
X124700000Y-99400000D01*
X126250000Y-100000000D02*
X125300000Y-100000000D01*
X125100000Y-98500000D02*
X124800000Y-98800000D01*
X124800000Y-98800000D02*
X124800000Y-99400000D01*
X126250000Y-98500000D02*
X125100000Y-98500000D01*
X119900000Y-106500000D02*
X119900000Y-106400000D01*
X119900000Y-107400000D02*
X119900000Y-106500000D01*
X119900000Y-108400000D02*
X119900000Y-107400000D01*
X137500000Y-94900000D02*
X137500000Y-94700000D01*
X136900000Y-95500000D02*
X137500000Y-94900000D01*
X134750000Y-95500000D02*
X136900000Y-95500000D01*
D49*
X141000000Y-92000000D02*
X140950000Y-91750000D01*
X141100000Y-92100000D02*
X141000000Y-92000000D01*
X141100000Y-94000000D02*
X141100000Y-92100000D01*
D52*
X127900000Y-90100000D02*
X127800000Y-90000000D01*
X119700000Y-100800000D02*
X119600000Y-100800000D01*
X119730000Y-100770000D02*
X119700000Y-100800000D01*
X119730000Y-98580000D02*
X119730000Y-100770000D01*
D51*
X119200000Y-83800000D02*
X119200000Y-83750000D01*
X119200000Y-83100000D02*
X119200000Y-83800000D01*
X123700000Y-83100000D02*
X123600000Y-83100000D01*
X122000000Y-83100000D02*
X123700000Y-83100000D01*
X119200000Y-83100000D02*
X122000000Y-83100000D01*
X123600000Y-83700000D02*
X123600000Y-83750000D01*
X123600000Y-83100000D02*
X123600000Y-83700000D01*
X122100000Y-83200000D02*
X122000000Y-83100000D01*
X122100000Y-85100000D02*
X122100000Y-83200000D01*
X123700000Y-83100000D02*
X123600000Y-83100000D01*
X123700000Y-81700000D02*
X123600000Y-81800000D01*
X123200000Y-80500000D02*
X123200000Y-80500000D01*
X123200000Y-80500000D02*
X123700000Y-81000000D01*
X123700000Y-81000000D02*
X123700000Y-81700000D01*
X122200000Y-80500000D02*
X123200000Y-80500000D01*
D53*
X126600000Y-70800000D02*
X127250000Y-70750000D01*
X126525000Y-70725000D02*
X126600000Y-70800000D01*
X126525000Y-67850000D02*
X126525000Y-70725000D01*
X125400000Y-67400000D02*
X126200000Y-66750000D01*
X125400000Y-71900000D02*
X125400000Y-67400000D01*
X126450000Y-72950000D02*
X125400000Y-71900000D01*
X127250000Y-72950000D02*
X126450000Y-72950000D01*
X126400000Y-64000000D02*
X128425000Y-61750000D01*
X125900000Y-64500000D02*
X126400000Y-64000000D01*
X125900000Y-65500000D02*
X125900000Y-64500000D01*
X126500000Y-65700000D02*
X126525000Y-65650000D01*
X126550000Y-65650000D02*
X126500000Y-65700000D01*
X126875000Y-65650000D02*
X126550000Y-65650000D01*
X126050000Y-65650000D02*
X125900000Y-65500000D01*
X126525000Y-65650000D02*
X126050000Y-65650000D01*
X125900000Y-66100000D02*
X125900000Y-65500000D01*
X125875000Y-66125000D02*
X125900000Y-66100000D01*
X125050000Y-66125000D02*
X125875000Y-66125000D01*
X125000000Y-67400000D02*
X125050000Y-67375000D01*
X125500000Y-67400000D02*
X125000000Y-67400000D01*
X125600000Y-67300000D02*
X125500000Y-67400000D01*
X125600000Y-66300000D02*
X125600000Y-67300000D01*
X125425000Y-66125000D02*
X125600000Y-66300000D01*
X125050000Y-66125000D02*
X125425000Y-66125000D01*
X126500000Y-67900000D02*
X126525000Y-67850000D01*
X126550000Y-67850000D02*
X126500000Y-67900000D01*
X126875000Y-67850000D02*
X126550000Y-67850000D01*
X127950000Y-66750000D02*
X128000000Y-66800000D01*
X126200000Y-66750000D02*
X127950000Y-66750000D01*
X127950000Y-65650000D02*
X128000000Y-65700000D01*
X126875000Y-65650000D02*
X127950000Y-65650000D01*
X127950000Y-67850000D02*
X128000000Y-67900000D01*
X126875000Y-67850000D02*
X127950000Y-67850000D01*
X121850000Y-68500000D02*
X120900000Y-68500000D01*
X122100000Y-85100000D02*
X123100000Y-85100000D01*
X119600000Y-100800000D02*
X119600000Y-102000000D01*
X127500000Y-104300000D02*
X127600000Y-104200000D01*
X126500000Y-104300000D02*
X127500000Y-104300000D01*
D49*
X146100000Y-74000000D02*
X146060000Y-74043000D01*
X146060000Y-74040000D02*
X146100000Y-74000000D01*
X146060000Y-79250000D02*
X146060000Y-74040000D01*
X147443000Y-74043000D02*
X147500000Y-74100000D01*
X146060000Y-74043000D02*
X147443000Y-74043000D01*
X140300000Y-71500000D02*
X140350000Y-71500000D01*
X139500000Y-72300000D02*
X140300000Y-71500000D01*
X139500000Y-72750000D02*
X139500000Y-72300000D01*
X140900000Y-77200000D02*
X140900000Y-78200000D01*
X139500000Y-72750000D02*
X139500000Y-71100000D01*
D50*
X147900000Y-67200000D02*
X148000000Y-67250000D01*
X146060000Y-69040000D02*
X147900000Y-67200000D01*
X146060000Y-74043000D02*
X146060000Y-69040000D01*
X153600000Y-93200000D02*
X154500000Y-93200000D01*
X154870000Y-69330000D02*
X154900000Y-69300000D01*
X153900000Y-69330000D02*
X154870000Y-69330000D01*
D51*
X153500000Y-62800000D02*
X153368500Y-61750000D01*
X153500000Y-63200000D02*
X153500000Y-62800000D01*
D54*
X151250000Y-76750000D02*
X151000000Y-76750000D01*
X151150000Y-76650000D02*
X151250000Y-76750000D01*
X151150000Y-75500000D02*
X151150000Y-76650000D01*
X151150000Y-74400000D02*
X151000000Y-74250000D01*
X151150000Y-75500000D02*
X151150000Y-74400000D01*
D51*
X137500000Y-94700000D02*
X137500000Y-95750000D01*
D52*
X140250000Y-109500000D02*
X140250000Y-109400000D01*
X140100000Y-109350000D02*
X140250000Y-109500000D01*
X139000000Y-109350000D02*
X140100000Y-109350000D01*
X143000000Y-109000000D02*
X143100000Y-109100000D01*
X142600000Y-109400000D02*
X143000000Y-109000000D01*
X140250000Y-109400000D02*
X142600000Y-109400000D01*
D51*
X161200000Y-121400000D02*
X161350000Y-121400000D01*
X161000000Y-121400000D02*
X161200000Y-121400000D01*
X160650000Y-121400000D02*
X161000000Y-121400000D01*
X161000000Y-121400000D02*
X161000000Y-122300000D01*
X123800000Y-64100000D02*
X121575000Y-61750000D01*
X124725000Y-66125000D02*
X124200000Y-65600000D01*
X124200000Y-65600000D02*
X124200000Y-64500000D01*
X124200000Y-64500000D02*
X123800000Y-64100000D01*
X125050000Y-66125000D02*
X124725000Y-66125000D01*
D55*
X121575000Y-65175000D02*
X121600000Y-65200000D01*
X121575000Y-61750000D02*
X121575000Y-65175000D01*
X128425000Y-64875000D02*
X128400000Y-64900000D01*
X128425000Y-61750000D02*
X128425000Y-64875000D01*
X162131500Y-65168500D02*
X162100000Y-65200000D01*
X162131500Y-61750000D02*
X162131500Y-65168500D01*
X153368500Y-65168500D02*
X153400000Y-65200000D01*
X153368500Y-65300000D02*
X153368500Y-65168500D01*
X153368500Y-61750000D02*
X153368500Y-65300000D01*
D51*
X153400000Y-65300000D02*
X153368500Y-65300000D01*
X155850000Y-65300000D02*
X153400000Y-65300000D01*
D50*
X153600000Y-93200000D02*
X153600000Y-94500000D01*
X153600000Y-93200000D02*
X153600000Y-90100000D01*
X153900000Y-69330000D02*
X153900000Y-72000000D01*
X153900000Y-69330000D02*
X153900000Y-67800000D01*
X131100000Y-104300000D02*
X131100000Y-105500000D01*
X131100000Y-106400000D02*
X131300000Y-106600000D01*
X131100000Y-105500000D02*
X131100000Y-106400000D01*
D52*
X131250000Y-104150000D02*
X131100000Y-104300000D01*
X131250000Y-102000000D02*
X131250000Y-104150000D01*
D50*
X123600000Y-99400000D02*
X123500000Y-99400000D01*
X124800000Y-99400000D02*
X123600000Y-99400000D01*
X122300000Y-99400000D02*
X123500000Y-99400000D01*
D54*
X134900000Y-81000000D02*
X134900000Y-81100000D01*
X135350000Y-79550000D02*
X134900000Y-80000000D01*
X134900000Y-80000000D02*
X134900000Y-81000000D01*
X136750000Y-79550000D02*
X135350000Y-79550000D01*
X134900000Y-81100000D02*
X136200000Y-81100000D01*
D50*
X127400000Y-94700000D02*
X127400000Y-95050000D01*
X127400000Y-94700000D02*
X126300000Y-93600000D01*
X126300000Y-93600000D02*
X126300000Y-92950000D01*
D49*
X126300000Y-92900000D02*
X126300000Y-92950000D01*
D50*
X130350000Y-94600000D02*
X135750000Y-94600000D01*
X129250000Y-95700000D02*
X130350000Y-94600000D01*
X128050000Y-95700000D02*
X129250000Y-95700000D01*
X127400000Y-95050000D02*
X128050000Y-95700000D01*
X135750000Y-94600000D02*
X136100000Y-94700000D01*
D54*
X128350000Y-86950000D02*
X128350000Y-87450000D01*
X133500000Y-81100000D02*
X133500000Y-82800000D01*
X128350000Y-84850000D02*
X128350000Y-86950000D01*
X129600000Y-83600000D02*
X128350000Y-84850000D01*
X132700000Y-83600000D02*
X129600000Y-83600000D01*
X133500000Y-82800000D02*
X132700000Y-83600000D01*
X126400000Y-92600000D02*
X126400000Y-92900000D01*
X126400000Y-89400000D02*
X126400000Y-92600000D01*
X128350000Y-87450000D02*
X126400000Y-89400000D01*
D55*
X144850000Y-99100000D02*
X144800000Y-99100000D01*
X144800000Y-99100000D02*
X143900000Y-98200000D01*
X141750000Y-98200000D02*
X141750000Y-98500000D01*
X143900000Y-98200000D02*
X141750000Y-98200000D01*
X143100000Y-99100000D02*
X144850000Y-99100000D01*
X144700000Y-113950000D02*
X143350000Y-113950000D01*
X145400000Y-113250000D02*
X144700000Y-113950000D01*
X145400000Y-99700000D02*
X145400000Y-113250000D01*
X144800000Y-99100000D02*
X145400000Y-99700000D01*
X143350000Y-113950000D02*
X143250000Y-114000000D01*
D51*
X135500000Y-90400000D02*
X135500000Y-93250000D01*
X136150000Y-93900000D02*
X136150000Y-94050000D01*
X135500000Y-93250000D02*
X136150000Y-93900000D01*
D54*
X120900000Y-91700000D02*
X120900000Y-85500000D01*
D51*
X120900000Y-85500000D02*
X120600000Y-85200000D01*
X120600000Y-85200000D02*
X120700000Y-85100000D01*
X119200000Y-82450000D02*
X118150000Y-82450000D01*
X118600000Y-85150000D02*
X120650000Y-85150000D01*
X117900000Y-84450000D02*
X118600000Y-85150000D01*
X117900000Y-82700000D02*
X117900000Y-84450000D01*
X118150000Y-82450000D02*
X117900000Y-82700000D01*
X120650000Y-85150000D02*
X120700000Y-85100000D01*
D50*
X120900000Y-91700000D02*
X120900000Y-91750000D01*
D54*
X120900000Y-91750000D02*
X122050000Y-92900000D01*
X122050000Y-92900000D02*
X126400000Y-92900000D01*
X126400000Y-92900000D02*
X126300000Y-92900000D01*
D50*
X126300000Y-92900000D02*
X126250000Y-92900000D01*
D54*
X126250000Y-92900000D02*
X127750000Y-91400000D01*
D50*
X127750000Y-91400000D02*
X127800000Y-91400000D01*
X120900000Y-91800000D02*
X120900000Y-91700000D01*
X119730000Y-93500000D02*
X119730000Y-92970000D01*
X119730000Y-92970000D02*
X120900000Y-91800000D01*
D54*
X134900000Y-74200000D02*
X134900000Y-78300000D01*
X133500000Y-79700000D02*
X133500000Y-81100000D01*
X134900000Y-78300000D02*
X133500000Y-79700000D01*
D52*
X127750000Y-102000000D02*
X127750000Y-100950000D01*
X127750000Y-100950000D02*
X127300000Y-100500000D01*
X131750000Y-102000000D02*
X131750000Y-100750000D01*
X131750000Y-100750000D02*
X130900000Y-99900000D01*
X130900000Y-99900000D02*
X127900000Y-99900000D01*
X127900000Y-99900000D02*
X127300000Y-100500000D01*
X127300000Y-100500000D02*
X126300000Y-100500000D01*
X126300000Y-100500000D02*
X126250000Y-100500000D01*
D50*
X139600000Y-87400000D02*
X139600000Y-82300000D01*
X140900000Y-81000000D02*
X142000000Y-81000000D01*
X140200000Y-81700000D02*
X140900000Y-81000000D01*
X139600000Y-82300000D02*
X140200000Y-81700000D01*
D49*
X136750000Y-114000000D02*
X136750000Y-113750000D01*
X138250000Y-114000000D02*
X136750000Y-114000000D01*
D54*
X143250000Y-114000000D02*
X143250000Y-115750000D01*
D51*
X141100000Y-112350000D02*
X141000000Y-112250000D01*
D54*
X141000000Y-112250000D02*
X140250000Y-112250000D01*
D50*
X141100000Y-114000000D02*
X141100000Y-112350000D01*
D54*
X140500000Y-112250000D02*
X140250000Y-112250000D01*
D51*
X140450000Y-112300000D02*
X140500000Y-112250000D01*
X140450000Y-114000000D02*
X140450000Y-112300000D01*
D54*
X141750000Y-112250000D02*
X141000000Y-112250000D01*
D51*
X141750000Y-112300000D02*
X141750000Y-112250000D01*
D50*
X141750000Y-114000000D02*
X141750000Y-112300000D01*
D49*
X140500000Y-114250000D02*
X140450000Y-114000000D01*
D50*
X140000000Y-116250000D02*
X140500000Y-115750000D01*
X136750000Y-116250000D02*
X140000000Y-116250000D01*
D49*
X140500000Y-115750000D02*
X140500000Y-114250000D01*
D54*
X131250000Y-116250000D02*
X136750000Y-116250000D01*
D50*
X130000000Y-115000000D02*
X131250000Y-116250000D01*
D49*
X130000000Y-113750000D02*
X130000000Y-115000000D01*
X136750000Y-113750000D02*
X136750000Y-116250000D01*
X130250000Y-111750000D02*
X130350000Y-111750000D01*
X130000000Y-112000000D02*
X130250000Y-111750000D01*
X130000000Y-113750000D02*
X130000000Y-112000000D01*
D51*
X143300000Y-114000000D02*
X143250000Y-114000000D01*
X142000000Y-114000000D02*
X143300000Y-114000000D01*
X141750000Y-114000000D02*
X142000000Y-114000000D01*
D49*
X141800000Y-112300000D02*
X141750000Y-112300000D01*
X143000000Y-99000000D02*
X143100000Y-99100000D01*
D54*
X143000000Y-97000000D02*
X143000000Y-99000000D01*
D52*
X126500000Y-102800000D02*
X126500000Y-102900000D01*
D54*
X126800000Y-102000000D02*
X126500000Y-102300000D01*
X126500000Y-102300000D02*
X126500000Y-102800000D01*
D52*
X127750000Y-102000000D02*
X126800000Y-102000000D01*
X125100000Y-100500000D02*
X124800000Y-100800000D01*
X126250000Y-100500000D02*
X125100000Y-100500000D01*
D54*
X124800000Y-100800000D02*
X123500000Y-100800000D01*
D52*
X136000000Y-94700000D02*
X136100000Y-94700000D01*
X135700000Y-95000000D02*
X136000000Y-94700000D01*
X134750000Y-95000000D02*
X135700000Y-95000000D01*
D49*
X143200000Y-99100000D02*
X143100000Y-99100000D01*
D54*
X136100000Y-94100000D02*
X136150000Y-94050000D01*
X136150000Y-94050000D02*
X136600000Y-93600000D01*
X136600000Y-93600000D02*
X138000000Y-93600000D01*
X138750000Y-94350000D02*
X138600000Y-94200000D01*
X138300000Y-93900000D02*
X138750000Y-94350000D01*
X138000000Y-93600000D02*
X138300000Y-93900000D01*
X136100000Y-93800000D02*
X136100000Y-94100000D01*
X136100000Y-93800000D02*
X136100000Y-93800000D01*
X136100000Y-94700000D02*
X136100000Y-93800000D01*
D52*
X127700000Y-91500000D02*
X127800000Y-91400000D01*
X127750000Y-91550000D02*
X127700000Y-91500000D01*
D51*
X119200000Y-82450000D02*
X123650000Y-82450000D01*
X119200000Y-82500000D02*
X119200000Y-82450000D01*
D49*
X142300000Y-74100000D02*
X142250000Y-74043000D01*
X142250000Y-74150000D02*
X142300000Y-74100000D01*
D54*
X142250000Y-75800000D02*
X142250000Y-74150000D01*
X142250000Y-79250000D02*
X142250000Y-75800000D01*
D49*
X142100000Y-75800000D02*
X142250000Y-75800000D01*
D54*
X140900000Y-75800000D02*
X142100000Y-75800000D01*
X142300000Y-79400000D02*
X142250000Y-79250000D01*
X142200000Y-79500000D02*
X142300000Y-79400000D01*
X142200000Y-81100000D02*
X142200000Y-79500000D01*
D52*
X135000000Y-95000000D02*
X134750000Y-95000000D01*
D54*
X136750000Y-72950000D02*
X134900000Y-72950000D01*
D49*
X134950000Y-71850000D02*
X134900000Y-71900000D01*
D54*
X134900000Y-72950000D02*
X134950000Y-72950000D01*
D49*
X134950000Y-72950000D02*
X134900000Y-73000000D01*
D54*
X134900000Y-73000000D02*
X134900000Y-71900000D01*
X136750000Y-71850000D02*
X134950000Y-71850000D01*
D52*
X127750000Y-93500000D02*
X127750000Y-91550000D01*
D54*
X138750000Y-95500000D02*
X138750000Y-94250000D01*
X138750000Y-94250000D02*
X138750000Y-94350000D01*
X142350000Y-99100000D02*
X141750000Y-98500000D01*
X141750000Y-98500000D02*
X138750000Y-95500000D01*
X143100000Y-99100000D02*
X142350000Y-99100000D01*
X143000000Y-114000000D02*
X143250000Y-114000000D01*
X143250000Y-114000000D02*
X142000000Y-114000000D01*
X141750000Y-114000000D02*
X140700000Y-114000000D01*
X130350000Y-109300000D02*
X130350000Y-109350000D01*
X130350000Y-111750000D02*
X130350000Y-109300000D01*
X132509998Y-107090002D02*
X132509998Y-105500000D01*
X130350000Y-109250000D02*
X132509998Y-107090002D01*
X130350000Y-109300000D02*
X130350000Y-109250000D01*
X132509998Y-104300000D02*
X132500000Y-104300000D01*
X132509998Y-105500000D02*
X132509998Y-104300000D01*
X132500000Y-105500000D02*
X132509998Y-105500000D01*
D52*
X132500000Y-104400000D02*
X132500000Y-104300000D01*
X131750000Y-102750000D02*
X132500000Y-103500000D01*
D54*
X132500000Y-103500000D02*
X132500000Y-104400000D01*
D52*
X131750000Y-102000000D02*
X131750000Y-102750000D01*
D54*
X142100000Y-81100000D02*
X142200000Y-81100000D01*
D50*
X138300000Y-93800000D02*
X139600000Y-92500000D01*
X139600000Y-92500000D02*
X139600000Y-87400000D01*
X139600000Y-87400000D02*
X139600000Y-87500000D01*
X138300000Y-93900000D02*
X138300000Y-93800000D01*
X142000000Y-81000000D02*
X142200000Y-81100000D01*
D54*
X134900000Y-74300000D02*
X134900000Y-74200000D01*
X134900000Y-74200000D02*
X134900000Y-72900000D01*
X134900000Y-72900000D02*
X134900000Y-72950000D01*
X134900000Y-74300000D02*
X134900000Y-74300000D01*
X134950000Y-74050000D02*
X134900000Y-74000000D01*
X134900000Y-74000000D02*
X134900000Y-74300000D01*
X136750000Y-74050000D02*
X134950000Y-74050000D01*
D50*
X150000000Y-76750000D02*
X150000000Y-78000000D01*
X150000000Y-78000000D02*
X149970000Y-78000000D01*
X149750000Y-75500000D02*
X149750000Y-76450000D01*
X149750000Y-76450000D02*
X150000000Y-76700000D01*
X150000000Y-76700000D02*
X150000000Y-76750000D01*
D52*
X138000000Y-88800000D02*
X138000000Y-86300000D01*
X140600000Y-85550000D02*
X143100000Y-85550000D01*
X138000000Y-86300000D02*
X138700000Y-85600000D01*
X143100000Y-85550000D02*
X143250000Y-85650000D01*
D49*
X143300000Y-91800000D02*
X143250000Y-91750000D01*
X143300000Y-92400000D02*
X143300000Y-91800000D01*
X142500000Y-93200000D02*
X143300000Y-92400000D01*
X142500000Y-94000000D02*
X142500000Y-93200000D01*
X143100000Y-85600000D02*
X143250000Y-85650000D01*
D55*
X143800000Y-85300000D02*
X143250000Y-85650000D01*
X144100000Y-85000000D02*
X143800000Y-85300000D01*
X145900000Y-85000000D02*
X144100000Y-85000000D01*
X147250000Y-85000000D02*
X145900000Y-85000000D01*
X140900000Y-72800000D02*
X140900000Y-72750000D01*
X141300000Y-72400000D02*
X140900000Y-72800000D01*
X141400000Y-72300000D02*
X141300000Y-72400000D01*
X142000000Y-71700000D02*
X141400000Y-72300000D01*
X142000000Y-71500000D02*
X142000000Y-71700000D01*
X142000000Y-67250000D02*
X142000000Y-71500000D01*
D51*
X140800000Y-72700000D02*
X140900000Y-72750000D01*
X141000000Y-72500000D02*
X140800000Y-72700000D01*
X141000000Y-71500000D02*
X141000000Y-72500000D01*
X141300000Y-72000000D02*
X141300000Y-72400000D01*
X141000000Y-71700000D02*
X141300000Y-72000000D01*
X141000000Y-71500000D02*
X141000000Y-71700000D01*
X141200000Y-71500000D02*
X141400000Y-71700000D01*
X141400000Y-71700000D02*
X141400000Y-72300000D01*
X141000000Y-71500000D02*
X141200000Y-71500000D01*
X141600000Y-71500000D02*
X142000000Y-71500000D01*
X141000000Y-71500000D02*
X141600000Y-71500000D01*
D50*
X143300000Y-85700000D02*
X143250000Y-85650000D01*
X142700000Y-85700000D02*
X143300000Y-85700000D01*
X140900000Y-72750000D02*
X140900000Y-73100000D01*
D55*
X143200000Y-85700000D02*
X143250000Y-85650000D01*
X143250000Y-85750000D02*
X143200000Y-85700000D01*
X143250000Y-89600000D02*
X143250000Y-87900000D01*
X143250000Y-87900000D02*
X143250000Y-85750000D01*
X143250000Y-89700000D02*
X143250000Y-89600000D01*
X143250000Y-91750000D02*
X143250000Y-89700000D01*
D50*
X141750000Y-67250000D02*
X142000000Y-67250000D01*
X150000000Y-67250000D02*
X148250000Y-65500000D01*
X148250000Y-65500000D02*
X143500000Y-65500000D01*
X143500000Y-65500000D02*
X141750000Y-67250000D01*
D55*
X147250000Y-85000000D02*
X147250000Y-79250000D01*
X150250000Y-68000000D02*
X150250000Y-67250000D01*
X148750000Y-69500000D02*
X150250000Y-68000000D01*
X148750000Y-75500000D02*
X148750000Y-69500000D01*
X148750000Y-76750000D02*
X148750000Y-75500000D01*
X148750000Y-77750000D02*
X148750000Y-76750000D01*
X147250000Y-79250000D02*
X148750000Y-77750000D01*
D50*
X150250000Y-67250000D02*
X150000000Y-67250000D01*
D54*
X149750000Y-75500000D02*
X148750000Y-75500000D01*
D51*
X145800000Y-84800000D02*
X145900000Y-84900000D01*
X145900000Y-84900000D02*
X145900000Y-85000000D01*
X145800000Y-83600000D02*
X145800000Y-84800000D01*
X140900000Y-72900000D02*
X140900000Y-72750000D01*
D56*
X144000000Y-123000000D02*
X144000000Y-125750000D01*
X141000000Y-120000000D02*
X141000000Y-120000000D01*
X141750000Y-120750000D02*
X141000000Y-120000000D01*
X142500000Y-121500000D02*
X141750000Y-120750000D01*
X142500000Y-121500000D02*
X142500000Y-121500000D01*
X144000000Y-123000000D02*
X142500000Y-121500000D01*
D51*
X140250000Y-120000000D02*
X141000000Y-120000000D01*
D49*
X141100000Y-119650000D02*
X141000000Y-119750000D01*
X141000000Y-119750000D02*
X141000000Y-120000000D01*
X141100000Y-118400000D02*
X141100000Y-119650000D01*
X141750000Y-120250000D02*
X141750000Y-120750000D01*
X141750000Y-118400000D02*
X141750000Y-120250000D01*
X140500000Y-120000000D02*
X140250000Y-120000000D01*
X140450000Y-119950000D02*
X140500000Y-120000000D01*
X140450000Y-118400000D02*
X140450000Y-119950000D01*
D51*
X142400000Y-121500000D02*
X142500000Y-121500000D01*
X144500000Y-121500000D02*
X142400000Y-121500000D01*
D55*
X145300000Y-94000000D02*
X145250000Y-94000000D01*
X145550000Y-93750000D02*
X145300000Y-94000000D01*
X145550000Y-91750000D02*
X145550000Y-93750000D01*
X142400000Y-121100000D02*
X142400000Y-121500000D01*
X146800000Y-117000000D02*
X142400000Y-121400000D01*
X146800000Y-110400000D02*
X146800000Y-117000000D01*
X142400000Y-121400000D02*
X142400000Y-121100000D01*
X146800000Y-95200000D02*
X146800000Y-110400000D01*
X145600000Y-94000000D02*
X146800000Y-95200000D01*
X145250000Y-94000000D02*
X145600000Y-94000000D01*
D51*
X142600000Y-121100000D02*
X142400000Y-121100000D01*
X143450000Y-120250000D02*
X142600000Y-121100000D01*
X143500000Y-120250000D02*
X143450000Y-120250000D01*
D52*
X137750000Y-110000000D02*
X138000000Y-110250000D01*
X140500000Y-110250000D02*
X140500000Y-110250000D01*
X138000000Y-110250000D02*
X140500000Y-110250000D01*
X137750000Y-109350000D02*
X137750000Y-110000000D01*
X142650000Y-110250000D02*
X142800000Y-110400000D01*
X142800000Y-110400000D02*
X144250000Y-110400000D01*
X148000000Y-110400000D02*
X146800000Y-110400000D01*
X140500000Y-110250000D02*
X142650000Y-110250000D01*
D51*
X143250000Y-117000000D02*
X143250000Y-117150000D01*
X139800000Y-117450000D02*
X140250000Y-117000000D01*
X140250000Y-117000000D02*
X143250000Y-117000000D01*
X139800000Y-118400000D02*
X139800000Y-117450000D01*
D52*
X140000000Y-108000000D02*
X140250000Y-108000000D01*
X139750000Y-107750000D02*
X140000000Y-108000000D01*
X139000000Y-107750000D02*
X139750000Y-107750000D01*
X136000000Y-99000000D02*
X136769998Y-99769998D01*
X136769998Y-99769998D02*
X136769998Y-105519998D01*
X136769998Y-105519998D02*
X137750000Y-106500000D01*
X134750000Y-99000000D02*
X136000000Y-99000000D01*
X137750000Y-106500000D02*
X137750000Y-107750000D01*
X137750000Y-107750000D02*
X139000000Y-107750000D01*
D51*
X152600000Y-93100000D02*
X152600000Y-93200000D01*
X152580000Y-93080000D02*
X152600000Y-93100000D01*
D50*
X152580000Y-89490000D02*
X152580000Y-93080000D01*
D51*
X152700000Y-94400000D02*
X152570000Y-94450000D01*
X152600000Y-94300000D02*
X152700000Y-94400000D01*
D50*
X152600000Y-93200000D02*
X152600000Y-94300000D01*
D51*
X154400000Y-95500000D02*
X154500000Y-95500000D01*
X154350000Y-95450000D02*
X154400000Y-95500000D01*
D50*
X152570000Y-95450000D02*
X154350000Y-95450000D01*
D51*
X153000000Y-69300000D02*
X152900000Y-69330000D01*
X152900000Y-69200000D02*
X153000000Y-69300000D01*
D50*
X152900000Y-67750000D02*
X152900000Y-69200000D01*
D51*
X152800000Y-72100000D02*
X152760000Y-72140000D01*
X152900000Y-72000000D02*
X152800000Y-72100000D01*
D50*
X152900000Y-69330000D02*
X152900000Y-72000000D01*
D51*
X152900000Y-66800000D02*
X152900000Y-66750000D01*
X152950000Y-66750000D02*
X152900000Y-66800000D01*
X155000000Y-66750000D02*
X152950000Y-66750000D01*
X119700000Y-80500000D02*
X119200000Y-81000000D01*
X119200000Y-81000000D02*
X119200000Y-81800000D01*
X120800000Y-80500000D02*
X119700000Y-80500000D01*
D50*
X123200000Y-68600000D02*
X123250000Y-68500000D01*
X124900000Y-76100000D02*
X124900000Y-72400000D01*
X124900000Y-72400000D02*
X123200000Y-70700000D01*
X123200000Y-70700000D02*
X123200000Y-68600000D01*
X120800000Y-80200000D02*
X124900000Y-76100000D01*
X120800000Y-80500000D02*
X120800000Y-80200000D01*
X123200000Y-67100000D02*
X123250000Y-67000000D01*
X123250000Y-67150000D02*
X123200000Y-67100000D01*
X123250000Y-68000000D02*
X123250000Y-67150000D01*
X123250000Y-68500000D02*
X123250000Y-68000000D01*
X121900000Y-67100000D02*
X121750000Y-67000000D01*
X122000000Y-67000000D02*
X121900000Y-67100000D01*
X123250000Y-67000000D02*
X122000000Y-67000000D01*
D53*
X123200000Y-68000000D02*
X123250000Y-68000000D01*
X124900000Y-68000000D02*
X123200000Y-68000000D01*
D52*
X130750000Y-101150000D02*
X130300000Y-100700000D01*
X130300000Y-100700000D02*
X128500000Y-100700000D01*
X130750000Y-102000000D02*
X130750000Y-101150000D01*
X121700000Y-101600000D02*
X121000000Y-100900000D01*
X125700000Y-101600000D02*
X121700000Y-101600000D01*
X126000000Y-101300000D02*
X125700000Y-101600000D01*
X121000000Y-100900000D02*
X121000000Y-100800000D01*
X120900000Y-100800000D02*
X121000000Y-100800000D01*
X121000000Y-100700000D02*
X120900000Y-100800000D01*
X121000000Y-98580000D02*
X121000000Y-100700000D01*
X121000000Y-100900000D02*
X121000000Y-100800000D01*
X123300000Y-104900000D02*
X123200000Y-105000000D01*
X123200000Y-105000000D02*
X123300000Y-104900000D01*
X119900000Y-105000000D02*
X123200000Y-105000000D01*
X123100000Y-105000000D02*
X123200000Y-105000000D01*
X129750000Y-102850000D02*
X129400000Y-103200000D01*
X129400000Y-103200000D02*
X129400000Y-104700000D01*
X129400000Y-104700000D02*
X129100000Y-105000000D01*
X129100000Y-105000000D02*
X123100000Y-105000000D01*
X129750000Y-102000000D02*
X129750000Y-102850000D01*
X123200000Y-109900000D02*
X123200000Y-109880000D01*
X123100000Y-109800000D02*
X123200000Y-109900000D01*
X119900000Y-109800000D02*
X123100000Y-109800000D01*
X126400000Y-109700000D02*
X126500000Y-109800000D01*
X126220000Y-109880000D02*
X126400000Y-109700000D01*
X123200000Y-109880000D02*
X126220000Y-109880000D01*
D51*
X135500000Y-88800000D02*
X135500000Y-87550000D01*
X136750000Y-88800000D02*
X136750000Y-87600000D01*
X136750000Y-87600000D02*
X136750000Y-87550000D01*
X134250000Y-88800000D02*
X134250000Y-87750000D01*
X134250000Y-87750000D02*
X134150000Y-87650000D01*
X134150000Y-87650000D02*
X134250000Y-87550000D01*
X131800000Y-88800000D02*
X131800000Y-87800000D01*
X131800000Y-87800000D02*
X131900000Y-87700000D01*
X131900000Y-87700000D02*
X131800000Y-87550000D01*
X133000000Y-88800000D02*
X133000000Y-87750000D01*
X133000000Y-87750000D02*
X132900000Y-87650000D01*
X132900000Y-87650000D02*
X133000000Y-87550000D01*
X130500000Y-88800000D02*
X130500000Y-87700000D01*
X130500000Y-87700000D02*
X130550000Y-87650000D01*
X130550000Y-87650000D02*
X130500000Y-87550000D01*
D56*
X156000000Y-96700000D02*
X156900000Y-97600000D01*
X156900000Y-97600000D02*
X160600000Y-97600000D01*
X160600000Y-97600000D02*
X161600000Y-98600000D01*
D55*
X161600000Y-98600000D02*
X161600000Y-99600000D01*
X156000000Y-95500000D02*
X156000000Y-96700000D01*
D49*
X135480000Y-125230000D02*
X136000000Y-125750000D01*
X135480000Y-118957000D02*
X135480000Y-125230000D01*
D51*
X135500000Y-119000000D02*
X135480000Y-118957000D01*
X135500000Y-121250000D02*
X135500000Y-119000000D01*
D49*
X134210000Y-125540000D02*
X134000000Y-125750000D01*
X134210000Y-118957000D02*
X134210000Y-125540000D01*
D51*
X134250000Y-119000000D02*
X134210000Y-118957000D01*
X134250000Y-121250000D02*
X134250000Y-119000000D01*
D52*
X134750000Y-100500000D02*
X134750000Y-111750000D01*
X135480000Y-112480000D02*
X134750000Y-111750000D01*
X135480000Y-113750000D02*
X135480000Y-112480000D01*
X133250000Y-111500000D02*
X133500000Y-111750000D01*
X133250000Y-102000000D02*
X133250000Y-111500000D01*
X133500000Y-112000000D02*
X133500000Y-111750000D01*
X134210000Y-112710000D02*
X133500000Y-112000000D01*
X134210000Y-113750000D02*
X134210000Y-112710000D01*
D49*
X123900000Y-125800000D02*
X124000000Y-125750000D01*
X128730000Y-120970000D02*
X123900000Y-125800000D01*
X128730000Y-118957000D02*
X128730000Y-120970000D01*
X122000000Y-125700000D02*
X122000000Y-125750000D01*
X127460000Y-120240000D02*
X122000000Y-125700000D01*
X127460000Y-118957000D02*
X127460000Y-120240000D01*
D51*
X127500000Y-118750000D02*
X127460000Y-118957000D01*
X127500000Y-120250000D02*
X127500000Y-118750000D01*
X126500000Y-121250000D02*
X127500000Y-120250000D01*
X118100000Y-89700000D02*
X119500000Y-88300000D01*
X119500000Y-88300000D02*
X119800000Y-88300000D01*
X118100000Y-102400000D02*
X118100000Y-112000000D01*
X118100000Y-90600000D02*
X118100000Y-102400000D01*
X119400000Y-113300000D02*
X118100000Y-112000000D01*
X118100000Y-90600000D02*
X118100000Y-89700000D01*
X124400000Y-88300000D02*
X124400000Y-88300000D01*
X131450000Y-82550000D02*
X129550000Y-82550000D01*
X135250000Y-82650000D02*
X134700000Y-83200000D01*
X134700000Y-83200000D02*
X134450000Y-83200000D01*
X135250000Y-82650000D02*
X137050000Y-82650000D01*
X127550000Y-84550000D02*
X127550000Y-85150000D01*
X129550000Y-82550000D02*
X127550000Y-84550000D01*
X127550000Y-85150000D02*
X124400000Y-88300000D01*
X137500000Y-82200000D02*
X137050000Y-82650000D01*
X137050000Y-82650000D02*
X137100000Y-82600000D01*
X136750000Y-77350000D02*
X137450000Y-77350000D01*
X137450000Y-77350000D02*
X138700000Y-78600000D01*
X138700000Y-78600000D02*
X138700000Y-81000000D01*
X138700000Y-81000000D02*
X137500000Y-82200000D01*
X137500000Y-82200000D02*
X137600000Y-82100000D01*
X123400000Y-113900000D02*
X123000000Y-113500000D01*
X128730000Y-113750000D02*
X128730000Y-114970000D01*
X128730000Y-114970000D02*
X127800000Y-115900000D01*
X127800000Y-115900000D02*
X125400000Y-115900000D01*
X125400000Y-115900000D02*
X123400000Y-113900000D01*
X122800000Y-113300000D02*
X119400000Y-113300000D01*
X119400000Y-113300000D02*
X119400000Y-113300000D01*
X123000000Y-113500000D02*
X122800000Y-113300000D01*
D52*
X128730000Y-111770000D02*
X128750000Y-111750000D01*
X128730000Y-113750000D02*
X128730000Y-111770000D01*
D51*
X126900000Y-84700000D02*
X123550000Y-88050000D01*
X123550000Y-88050000D02*
X123550000Y-89400000D01*
X123550000Y-89400000D02*
X123600000Y-89400000D01*
X118700000Y-89950000D02*
X118700000Y-89900000D01*
X119200000Y-89400000D02*
X119800000Y-89400000D01*
X118700000Y-89900000D02*
X119200000Y-89400000D01*
X126900000Y-84700000D02*
X126900000Y-84300000D01*
X132450000Y-82150000D02*
X132050000Y-81750000D01*
X132050000Y-81750000D02*
X129650000Y-81750000D01*
X129650000Y-81750000D02*
X129450000Y-81750000D01*
X129450000Y-81750000D02*
X126900000Y-84300000D01*
X136850000Y-82050000D02*
X134600000Y-82050000D01*
X134550000Y-82100000D02*
X134550000Y-82150000D01*
X134600000Y-82050000D02*
X134550000Y-82100000D01*
X126900000Y-84300000D02*
X127000000Y-84200000D01*
X118700000Y-102250000D02*
X118700000Y-111700000D01*
X123400000Y-112900000D02*
X123200000Y-112700000D01*
X123200000Y-112700000D02*
X119700000Y-112700000D01*
X127460000Y-115040000D02*
X127460000Y-113750000D01*
X125800000Y-115300000D02*
X124100000Y-113600000D01*
X127200000Y-115300000D02*
X125800000Y-115300000D01*
X127460000Y-115040000D02*
X127200000Y-115300000D01*
X124100000Y-113600000D02*
X123400000Y-112900000D01*
X118700000Y-111700000D02*
X119700000Y-112700000D01*
X118700000Y-102200000D02*
X118700000Y-102250000D01*
X118700000Y-102250000D02*
X118700000Y-89950000D01*
X118700000Y-89950000D02*
X118700000Y-90000000D01*
X136750000Y-78450000D02*
X137750000Y-78450000D01*
X138100000Y-80800000D02*
X136850000Y-82050000D01*
X136850000Y-82050000D02*
X136900000Y-82000000D01*
X136900000Y-82000000D02*
X136900000Y-82000000D01*
X138100000Y-78800000D02*
X138100000Y-80800000D01*
X137750000Y-78450000D02*
X138100000Y-78800000D01*
D52*
X127500000Y-112000000D02*
X127500000Y-111750000D01*
X127460000Y-112040000D02*
X127500000Y-112000000D01*
X127460000Y-113750000D02*
X127460000Y-112040000D01*
D50*
X143500000Y-71800000D02*
X143500000Y-71750000D01*
X143520000Y-71820000D02*
X143500000Y-71800000D01*
X143520000Y-74043000D02*
X143520000Y-71820000D01*
X144000000Y-67300000D02*
X144000000Y-67250000D01*
X143500000Y-67800000D02*
X144000000Y-67300000D01*
X143500000Y-71750000D02*
X143500000Y-67800000D01*
X145000000Y-71700000D02*
X145000000Y-71750000D01*
X144790000Y-71910000D02*
X145000000Y-71700000D01*
X144790000Y-74043000D02*
X144790000Y-71910000D01*
X146200000Y-67300000D02*
X146000000Y-67250000D01*
X145000000Y-68500000D02*
X146200000Y-67300000D01*
X145000000Y-71750000D02*
X145000000Y-68500000D01*
D52*
X129950000Y-84350000D02*
X137700000Y-84350000D01*
X143500000Y-82650000D02*
X142700000Y-83450000D01*
X142700000Y-83450000D02*
X140500000Y-83450000D01*
X143500000Y-82650000D02*
X143500000Y-81750000D01*
X138650000Y-83400000D02*
X138700000Y-83450000D01*
X137700000Y-84350000D02*
X138650000Y-83400000D01*
X129250000Y-88550000D02*
X129250000Y-85050000D01*
X129250000Y-85050000D02*
X129950000Y-84350000D01*
X129950000Y-84350000D02*
X129900000Y-84400000D01*
X130250000Y-93500000D02*
X130250000Y-92550000D01*
X129250000Y-91550000D02*
X129250000Y-88550000D01*
X129250000Y-88550000D02*
X129250000Y-88600000D01*
X130250000Y-92550000D02*
X129250000Y-91550000D01*
D51*
X143520000Y-81730000D02*
X143500000Y-81750000D01*
X143520000Y-79250000D02*
X143520000Y-81730000D01*
D52*
X130100000Y-84950000D02*
X138200000Y-84950000D01*
X145000000Y-82400000D02*
X145000000Y-81750000D01*
X141100000Y-83950000D02*
X140550000Y-84500000D01*
X143450000Y-83950000D02*
X141100000Y-83950000D01*
X145000000Y-82400000D02*
X143450000Y-83950000D01*
X138650000Y-84500000D02*
X138700000Y-84500000D01*
X138200000Y-84950000D02*
X138650000Y-84500000D01*
X129730002Y-88550000D02*
X129730002Y-85319998D01*
X129730002Y-85319998D02*
X130100000Y-84950000D01*
X130100000Y-84950000D02*
X130100000Y-84950000D01*
X130750000Y-93500000D02*
X130750000Y-92250000D01*
X129730002Y-91230002D02*
X129730002Y-88550000D01*
X129730002Y-88550000D02*
X129730002Y-88600000D01*
X130750000Y-92250000D02*
X129730002Y-91230002D01*
D51*
X145000000Y-81750000D02*
X145000000Y-81800000D01*
X144790000Y-81540000D02*
X145000000Y-81750000D01*
X144790000Y-79250000D02*
X144790000Y-81540000D01*
X152700000Y-82900000D02*
X152750000Y-83000000D01*
X152580000Y-83020000D02*
X152700000Y-82900000D01*
D50*
X152580000Y-85110000D02*
X152580000Y-83020000D01*
D51*
X152900000Y-79800000D02*
X152750000Y-80000000D01*
X152760000Y-79660000D02*
X152900000Y-79800000D01*
D50*
X152760000Y-78000000D02*
X152760000Y-79660000D01*
X152760000Y-72960000D02*
X152760000Y-78000000D01*
D51*
X152700000Y-78000000D02*
X152760000Y-78000000D01*
D50*
X151250000Y-78000000D02*
X152700000Y-78000000D01*
D52*
X126600000Y-108100000D02*
X126500000Y-108200000D01*
X126500000Y-108100000D02*
X126500000Y-108200000D01*
X130250000Y-103150000D02*
X129919998Y-103480002D01*
X129919998Y-103480002D02*
X129919998Y-106980002D01*
X129919998Y-106980002D02*
X128800000Y-108100000D01*
X128800000Y-108100000D02*
X126500000Y-108100000D01*
X130250000Y-102000000D02*
X130250000Y-103150000D01*
X133250000Y-93500000D02*
X133250000Y-91550000D01*
X133250000Y-91550000D02*
X134200000Y-90600000D01*
X134200000Y-90600000D02*
X134250000Y-90400000D01*
X132750000Y-93500000D02*
X132750000Y-91000000D01*
X132750000Y-91000000D02*
X133150000Y-90600000D01*
X133150000Y-90600000D02*
X133000000Y-90400000D01*
X132250000Y-93500000D02*
X132250000Y-91050000D01*
X132250000Y-91050000D02*
X131800000Y-90600000D01*
X131800000Y-90600000D02*
X131800000Y-90400000D01*
X131750000Y-93500000D02*
X131750000Y-91700000D01*
X131750000Y-91700000D02*
X130550000Y-90500000D01*
X130550000Y-90500000D02*
X130500000Y-90400000D01*
X141250000Y-105000000D02*
X141000000Y-105000000D01*
X141350000Y-105100000D02*
X141250000Y-105000000D01*
X143100000Y-105100000D02*
X141350000Y-105100000D01*
X140750000Y-105000000D02*
X141000000Y-105000000D01*
X136000000Y-97000000D02*
X137750000Y-98750000D01*
X137750000Y-98750000D02*
X137750000Y-103750000D01*
X137750000Y-103750000D02*
X139000000Y-105000000D01*
X139000000Y-105000000D02*
X140750000Y-105000000D01*
X134750000Y-97000000D02*
X136000000Y-97000000D01*
X141100000Y-107100000D02*
X141000000Y-107000000D01*
X143100000Y-107100000D02*
X141100000Y-107100000D01*
X135750000Y-97500000D02*
X137250000Y-99000000D01*
X137250000Y-99000000D02*
X137250000Y-104250000D01*
X137250000Y-104250000D02*
X140000000Y-107000000D01*
X140000000Y-107000000D02*
X141000000Y-107000000D01*
X134750000Y-97500000D02*
X135750000Y-97500000D01*
D51*
X143200000Y-112300000D02*
X144000000Y-112300000D01*
X142000000Y-111250000D02*
X142000000Y-111300000D01*
X155300000Y-119900000D02*
X155900000Y-119900000D01*
X148000000Y-112600000D02*
X155300000Y-119900000D01*
X143000000Y-112300000D02*
X143200000Y-112300000D01*
X142000000Y-111300000D02*
X143000000Y-112300000D01*
X144000000Y-112300000D02*
X144250000Y-112550000D01*
D52*
X135500000Y-100000000D02*
X135750000Y-100250000D01*
X135750000Y-100250000D02*
X135750000Y-109750000D01*
X135750000Y-109750000D02*
X137250000Y-111250000D01*
X142000000Y-111250000D02*
X142000000Y-111250000D01*
X137250000Y-111250000D02*
X142000000Y-111250000D01*
X134750000Y-100000000D02*
X135500000Y-100000000D01*
D51*
X156000000Y-119750000D02*
X156000000Y-119900000D01*
X156150000Y-119900000D02*
X156000000Y-119750000D01*
X157250000Y-119900000D02*
X156150000Y-119900000D01*
X156000000Y-119900000D02*
X155800000Y-119900000D01*
X156000000Y-119800000D02*
X156000000Y-119900000D01*
X155900000Y-119900000D02*
X156000000Y-119900000D01*
X162000000Y-125700000D02*
X162000000Y-125750000D01*
X162000000Y-121400000D02*
X162000000Y-125700000D01*
D52*
X139200000Y-110750000D02*
X139250000Y-110750000D01*
X139200000Y-110750000D02*
X139200000Y-110750000D01*
X134750000Y-99500000D02*
X135678826Y-99500000D01*
X136230002Y-109480002D02*
X137500000Y-110750000D01*
X136230002Y-100051176D02*
X136230002Y-109480002D01*
X135678826Y-99500000D02*
X136230002Y-100051176D01*
X137500000Y-110750000D02*
X139200000Y-110750000D01*
D51*
X162000000Y-121000000D02*
X161600000Y-120600000D01*
X161600000Y-120600000D02*
X159400000Y-120600000D01*
X159400000Y-120600000D02*
X157700000Y-118900000D01*
X157700000Y-118900000D02*
X155400000Y-118900000D01*
X155400000Y-118900000D02*
X154400000Y-117900000D01*
X142350000Y-110750000D02*
X139200000Y-110750000D01*
X148000000Y-111500000D02*
X154400000Y-117900000D01*
X143100000Y-111500000D02*
X144250000Y-111500000D01*
X142350000Y-110750000D02*
X143100000Y-111500000D01*
X162000000Y-121400000D02*
X162000000Y-121000000D01*
D52*
X126250000Y-95000000D02*
X125300000Y-95000000D01*
X124730002Y-94430002D02*
X121319998Y-94430002D01*
X125300000Y-95000000D02*
X124730002Y-94430002D01*
X121319998Y-94430002D02*
X121000000Y-94750000D01*
X121000000Y-94750000D02*
X121000000Y-94770000D01*
X126250000Y-96000000D02*
X125500000Y-96000000D01*
X122050000Y-95000000D02*
X121000000Y-96050000D01*
X124500000Y-95000000D02*
X122050000Y-95000000D01*
X125500000Y-96000000D02*
X124500000Y-95000000D01*
X121000000Y-96050000D02*
X121000000Y-96040000D01*
D51*
X126150000Y-84200000D02*
X126150000Y-84650000D01*
X134550000Y-70750000D02*
X134100000Y-71200000D01*
X134100000Y-71200000D02*
X134100000Y-77900000D01*
X134100000Y-77900000D02*
X132550000Y-79450000D01*
X136750000Y-70750000D02*
X134550000Y-70750000D01*
X132550000Y-79450000D02*
X130900000Y-81100000D01*
X130900000Y-81100000D02*
X129200000Y-81100000D01*
X129200000Y-81100000D02*
X126150000Y-84150000D01*
X126150000Y-84150000D02*
X126150000Y-84200000D01*
D52*
X124050000Y-97000000D02*
X123200000Y-96150000D01*
X124050000Y-97000000D02*
X126250000Y-97000000D01*
D51*
X123850000Y-91850000D02*
X123900000Y-91850000D01*
X123850000Y-91050000D02*
X123850000Y-91850000D01*
X122800002Y-90000002D02*
X123850000Y-91050000D01*
X122800002Y-87999998D02*
X122800002Y-90000002D01*
X126150000Y-84650000D02*
X122800002Y-87999998D01*
D49*
X136750000Y-69000000D02*
X136750000Y-70650000D01*
D51*
X136750000Y-69000000D02*
X136750000Y-68750000D01*
D49*
X136800000Y-70700000D02*
X136750000Y-70750000D01*
X136750000Y-70650000D02*
X136800000Y-70700000D01*
D51*
X125500000Y-83750000D02*
X125500000Y-84507110D01*
X125500000Y-78750000D02*
X125500000Y-83750000D01*
D52*
X123150000Y-97500000D02*
X122750000Y-97100000D01*
X123150000Y-97500000D02*
X126250000Y-97500000D01*
D51*
X122850000Y-90900000D02*
X122850000Y-91850000D01*
X122300000Y-90350000D02*
X122850000Y-90900000D01*
X122300000Y-87707110D02*
X122300000Y-90350000D01*
X125500000Y-84507110D02*
X122300000Y-87707110D01*
X125750000Y-78750000D02*
X125500000Y-78750000D01*
X126050000Y-78450000D02*
X125750000Y-78750000D01*
X127250000Y-78450000D02*
X126050000Y-78450000D01*
X124600000Y-79150000D02*
X124650000Y-79150000D01*
X124600000Y-79150000D02*
X124600000Y-78350000D01*
X125450000Y-77500000D02*
X124600000Y-78350000D01*
X121900000Y-91300000D02*
X121900000Y-91250000D01*
X121750000Y-91150000D02*
X121900000Y-91300000D01*
X121750000Y-87550000D02*
X121750000Y-91150000D01*
X124750000Y-84550000D02*
X121750000Y-87550000D01*
X124750000Y-79250000D02*
X124750000Y-84550000D01*
X124650000Y-79150000D02*
X124750000Y-79250000D01*
D52*
X121950000Y-91300000D02*
X121900000Y-91250000D01*
X122200000Y-98000000D02*
X126250000Y-98000000D01*
X122200000Y-98000000D02*
X122150000Y-97950000D01*
X121900000Y-91250000D02*
X121900000Y-91250000D01*
D51*
X125450000Y-77500000D02*
X125500000Y-77500000D01*
X125750000Y-77500000D02*
X125500000Y-77500000D01*
X125900000Y-77350000D02*
X125750000Y-77500000D01*
X127250000Y-77350000D02*
X125900000Y-77350000D01*
D52*
X141100000Y-101100000D02*
X141000000Y-101000000D01*
X143100000Y-101100000D02*
X141100000Y-101100000D01*
X140750000Y-101000000D02*
X141000000Y-101000000D01*
X136250000Y-96500000D02*
X140750000Y-101000000D01*
X134750000Y-96500000D02*
X136250000Y-96500000D01*
X141100000Y-103100000D02*
X141000000Y-103000000D01*
X143100000Y-103100000D02*
X141100000Y-103100000D01*
X136500000Y-96000000D02*
X140500000Y-100000000D01*
X140500000Y-100000000D02*
X141750000Y-100000000D01*
X134750000Y-96000000D02*
X136500000Y-96000000D01*
X122050000Y-93950000D02*
X121500000Y-93950000D01*
X121500000Y-93950000D02*
X121050000Y-93500000D01*
X121050000Y-93500000D02*
X121000000Y-93500000D01*
X128750000Y-93500000D02*
X128750000Y-94750000D01*
X123150000Y-93950000D02*
X122050000Y-93950000D01*
X122050000Y-93950000D02*
X122100000Y-93950000D01*
X125450000Y-93950000D02*
X123150000Y-93950000D01*
D51*
X152600000Y-88300000D02*
X152580000Y-88210000D01*
X152580000Y-88280000D02*
X152600000Y-88300000D01*
D50*
X152580000Y-86210000D02*
X152580000Y-88280000D01*
D53*
X123300000Y-65400000D02*
X123250000Y-65400000D01*
X123300000Y-65500000D02*
X123300000Y-65400000D01*
X124550000Y-66750000D02*
X123300000Y-65500000D01*
X124900000Y-66750000D02*
X124550000Y-66750000D01*
D51*
X136750000Y-90400000D02*
X137950000Y-90400000D01*
X137950000Y-90400000D02*
X138000000Y-90400000D01*
D53*
X125000000Y-62100000D02*
X125000000Y-61750000D01*
X124900000Y-62200000D02*
X125000000Y-62100000D01*
X124900000Y-65500000D02*
X124900000Y-62200000D01*
X127200000Y-71900000D02*
X127250000Y-71850000D01*
X126400000Y-71900000D02*
X127200000Y-71900000D01*
X125900000Y-71400000D02*
X126400000Y-71900000D01*
X125900000Y-68000000D02*
X125900000Y-71400000D01*
D55*
X158000000Y-66700000D02*
X158000000Y-66750000D01*
D57*
X157600000Y-93600000D02*
X157600000Y-93500000D01*
D58*
X157600000Y-77900000D02*
X157600000Y-93600000D01*
D57*
X157600000Y-78200000D02*
X157600000Y-77900000D01*
D55*
X157500000Y-93600000D02*
X157600000Y-93600000D01*
X157500000Y-95500000D02*
X157500000Y-93600000D01*
D57*
X158200000Y-68600000D02*
X158200000Y-68500000D01*
D55*
X158000000Y-68600000D02*
X158200000Y-68600000D01*
X158000000Y-66750000D02*
X158000000Y-68600000D01*
D57*
X155900000Y-76200000D02*
X155900000Y-71900000D01*
X155900000Y-71900000D02*
X158200000Y-69600000D01*
X158200000Y-69600000D02*
X158200000Y-68600000D01*
X157600000Y-77900000D02*
X155900000Y-76200000D01*
D51*
X156500000Y-65400000D02*
X156500000Y-65300000D01*
X156500000Y-66750000D02*
X156500000Y-65400000D01*
X157700000Y-63200000D02*
X157750000Y-61750000D01*
X156500000Y-64400000D02*
X157700000Y-63200000D01*
X156500000Y-65300000D02*
X156500000Y-64400000D01*
X157400000Y-121500000D02*
X157250000Y-121500000D01*
X156100000Y-121600000D02*
X156000000Y-121500000D01*
X156200000Y-121500000D02*
X156100000Y-121600000D01*
X157250000Y-121500000D02*
X156200000Y-121500000D01*
X160000000Y-125700000D02*
X160000000Y-125750000D01*
X160000000Y-121400000D02*
X160000000Y-125700000D01*
X157200000Y-121500000D02*
X157250000Y-121500000D01*
X157300000Y-121400000D02*
X157200000Y-121500000D01*
X160000000Y-121400000D02*
X157300000Y-121400000D01*
D56*
X146000000Y-125750000D02*
X152000000Y-125750000D01*
D50*
G36*
X119450000Y-83950000D02*
X118950000Y-83950000D01*
X118950000Y-83862500D01*
X118950000Y-83850000D01*
X118950000Y-83650000D01*
X118950000Y-83550000D01*
X119450000Y-83550000D01*
X119450000Y-83650000D01*
X119450000Y-83850000D01*
X119450000Y-83862500D01*
X119450000Y-83950000D01*
X119450000Y-83950000D01*
G37*
X119450000Y-83950000D02*
X118950000Y-83950000D01*
X118950000Y-83862500D01*
X118950000Y-83850000D01*
X118950000Y-83650000D01*
X118950000Y-83550000D01*
X119450000Y-83550000D01*
X119450000Y-83650000D01*
X119450000Y-83850000D01*
X119450000Y-83862500D01*
X119450000Y-83950000D01*
G36*
X122389340Y-83850000D02*
X122337500Y-83850000D01*
X122150000Y-84037500D01*
X122150000Y-84099185D01*
X122264181Y-84374841D01*
X122275000Y-84385660D01*
X122275000Y-84900000D01*
X122370000Y-84900000D01*
X122370000Y-85300000D01*
X122275000Y-85300000D01*
X122275000Y-85370000D01*
X122024141Y-85370000D01*
X121962461Y-85059914D01*
X121855610Y-84900000D01*
X121925000Y-84900000D01*
X121925000Y-84137500D01*
X121737500Y-83950000D01*
X121600816Y-83950000D01*
X121400000Y-84033180D01*
X121199185Y-83950000D01*
X120900816Y-83950000D01*
X120650000Y-83950000D01*
X120562500Y-83950000D01*
X120462500Y-83850000D01*
X120410660Y-83850000D01*
X120535819Y-83724841D01*
X120640584Y-83471915D01*
X120650000Y-83462500D01*
X120650000Y-83449185D01*
X120650000Y-83400815D01*
X120650000Y-83387500D01*
X120640584Y-83378084D01*
X120628951Y-83350002D01*
X120650000Y-83350002D01*
X120650000Y-83350000D01*
X122150000Y-83350000D01*
X122150000Y-83350002D01*
X122171047Y-83350002D01*
X122159415Y-83378084D01*
X122150000Y-83387500D01*
X122150000Y-83400815D01*
X122150000Y-83449185D01*
X122150000Y-83462500D01*
X122159415Y-83471915D01*
X122264181Y-83724841D01*
X122389340Y-83850000D01*
X122389340Y-83850000D01*
G37*
X122389340Y-83850000D02*
X122337500Y-83850000D01*
X122150000Y-84037500D01*
X122150000Y-84099185D01*
X122264181Y-84374841D01*
X122275000Y-84385660D01*
X122275000Y-84900000D01*
X122370000Y-84900000D01*
X122370000Y-85300000D01*
X122275000Y-85300000D01*
X122275000Y-85370000D01*
X122024141Y-85370000D01*
X121962461Y-85059914D01*
X121855610Y-84900000D01*
X121925000Y-84900000D01*
X121925000Y-84137500D01*
X121737500Y-83950000D01*
X121600816Y-83950000D01*
X121400000Y-84033180D01*
X121199185Y-83950000D01*
X120900816Y-83950000D01*
X120650000Y-83950000D01*
X120562500Y-83950000D01*
X120462500Y-83850000D01*
X120410660Y-83850000D01*
X120535819Y-83724841D01*
X120640584Y-83471915D01*
X120650000Y-83462500D01*
X120650000Y-83449185D01*
X120650000Y-83400815D01*
X120650000Y-83387500D01*
X120640584Y-83378084D01*
X120628951Y-83350002D01*
X120650000Y-83350002D01*
X120650000Y-83350000D01*
X122150000Y-83350000D01*
X122150000Y-83350002D01*
X122171047Y-83350002D01*
X122159415Y-83378084D01*
X122150000Y-83387500D01*
X122150000Y-83400815D01*
X122150000Y-83449185D01*
X122150000Y-83462500D01*
X122159415Y-83471915D01*
X122264181Y-83724841D01*
X122389340Y-83850000D01*
G36*
X123850000Y-81500000D02*
X123350000Y-81500000D01*
X123350000Y-81037500D01*
X123300000Y-80987500D01*
X123300000Y-80887500D01*
X123112500Y-80700000D01*
X122375000Y-80700000D01*
X122375000Y-80770000D01*
X122025000Y-80770000D01*
X122025000Y-80700000D01*
X121930000Y-80700000D01*
X121930000Y-80484214D01*
X122184214Y-80230000D01*
X122375000Y-80230000D01*
X122375000Y-80300000D01*
X123112500Y-80300000D01*
X123300000Y-80112500D01*
X123300000Y-79950815D01*
X123185819Y-79675159D01*
X122974841Y-79464181D01*
X122957299Y-79456914D01*
X123700000Y-78714214D01*
X123700000Y-79150000D01*
X123768508Y-79494415D01*
X123850000Y-79616376D01*
X123850000Y-81037500D01*
X123850000Y-81500000D01*
X123850000Y-81500000D01*
G37*
X123850000Y-81500000D02*
X123350000Y-81500000D01*
X123350000Y-81037500D01*
X123300000Y-80987500D01*
X123300000Y-80887500D01*
X123112500Y-80700000D01*
X122375000Y-80700000D01*
X122375000Y-80770000D01*
X122025000Y-80770000D01*
X122025000Y-80700000D01*
X121930000Y-80700000D01*
X121930000Y-80484214D01*
X122184214Y-80230000D01*
X122375000Y-80230000D01*
X122375000Y-80300000D01*
X123112500Y-80300000D01*
X123300000Y-80112500D01*
X123300000Y-79950815D01*
X123185819Y-79675159D01*
X122974841Y-79464181D01*
X122957299Y-79456914D01*
X123700000Y-78714214D01*
X123700000Y-79150000D01*
X123768508Y-79494415D01*
X123850000Y-79616376D01*
X123850000Y-81037500D01*
X123850000Y-81500000D01*
G36*
X123850000Y-83950000D02*
X123350000Y-83950000D01*
X123350000Y-83862500D01*
X123350000Y-83850000D01*
X123350000Y-83650000D01*
X123350000Y-83550000D01*
X123850000Y-83550000D01*
X123850000Y-83650000D01*
X123850000Y-83850000D01*
X123850000Y-83862500D01*
X123850000Y-83950000D01*
X123850000Y-83950000D01*
G37*
X123850000Y-83950000D02*
X123350000Y-83950000D01*
X123350000Y-83862500D01*
X123350000Y-83850000D01*
X123350000Y-83650000D01*
X123350000Y-83550000D01*
X123850000Y-83550000D01*
X123850000Y-83650000D01*
X123850000Y-83850000D01*
X123850000Y-83862500D01*
X123850000Y-83950000D01*
G36*
X123900000Y-75685786D02*
X123450424Y-76135361D01*
X123450424Y-73514803D01*
X123078220Y-72614000D01*
X122389625Y-71924202D01*
X121675000Y-71627464D01*
X121675000Y-69462500D01*
X121675000Y-68700000D01*
X120937500Y-68700000D01*
X120750000Y-68887500D01*
X120750000Y-69049185D01*
X120864181Y-69324841D01*
X121075159Y-69535819D01*
X121350816Y-69650000D01*
X121487500Y-69650000D01*
X121675000Y-69462500D01*
X121675000Y-71627464D01*
X121489473Y-71550427D01*
X120514803Y-71549576D01*
X119614000Y-71921780D01*
X118924202Y-72610375D01*
X118550427Y-73510527D01*
X118549576Y-74485197D01*
X118921780Y-75386000D01*
X119610375Y-76075798D01*
X120510527Y-76449573D01*
X121485197Y-76450424D01*
X122386000Y-76078220D01*
X123075798Y-75389625D01*
X123449573Y-74489473D01*
X123450424Y-73514803D01*
X123450424Y-76135361D01*
X120189802Y-79395983D01*
X120025159Y-79464181D01*
X119889340Y-79600000D01*
X119700000Y-79600000D01*
X119355585Y-79668508D01*
X119063604Y-79863604D01*
X118563604Y-80363604D01*
X118368508Y-80655585D01*
X118327952Y-80859470D01*
X118075159Y-80964181D01*
X117864181Y-81175159D01*
X117750000Y-81450815D01*
X117750000Y-81655648D01*
X117513604Y-81813604D01*
X117263604Y-82063604D01*
X117250000Y-82083963D01*
X117250000Y-61103553D01*
X118103553Y-60250000D01*
X118500000Y-60250000D01*
X118500000Y-61312500D01*
X118687500Y-61500000D01*
X121325000Y-61500000D01*
X121325000Y-61480000D01*
X121825000Y-61480000D01*
X121825000Y-61500000D01*
X121845000Y-61500000D01*
X121845000Y-62000000D01*
X121825000Y-62000000D01*
X121825000Y-64812500D01*
X122012500Y-65000000D01*
X122100000Y-65000000D01*
X122100000Y-65149184D01*
X122100000Y-65791852D01*
X121999731Y-65750217D01*
X121502450Y-65749783D01*
X121325000Y-65823104D01*
X121325000Y-64812500D01*
X121325000Y-62000000D01*
X118687500Y-62000000D01*
X118500000Y-62187500D01*
X118500000Y-64100816D01*
X118500000Y-64399185D01*
X118614181Y-64674841D01*
X118825159Y-64885819D01*
X119100816Y-65000000D01*
X121137500Y-65000000D01*
X121325000Y-64812500D01*
X121325000Y-65823104D01*
X121042857Y-65939684D01*
X120690919Y-66291007D01*
X120500217Y-66750269D01*
X120499783Y-67247550D01*
X120689684Y-67707143D01*
X120803645Y-67821303D01*
X120750000Y-67950815D01*
X120750000Y-68112500D01*
X120937500Y-68300000D01*
X121675000Y-68300000D01*
X121675000Y-68249935D01*
X121997550Y-68250217D01*
X122025000Y-68238874D01*
X122025000Y-68300000D01*
X122120000Y-68300000D01*
X122120000Y-68700000D01*
X122025000Y-68700000D01*
X122025000Y-69462500D01*
X122200000Y-69637500D01*
X122200000Y-70700000D01*
X122276120Y-71082684D01*
X122492893Y-71407107D01*
X123900000Y-72814214D01*
X123900000Y-75685786D01*
X123900000Y-75685786D01*
G37*
X123900000Y-75685786D02*
X123450424Y-76135361D01*
X123450424Y-73514803D01*
X123078220Y-72614000D01*
X122389625Y-71924202D01*
X121675000Y-71627464D01*
X121675000Y-69462500D01*
X121675000Y-68700000D01*
X120937500Y-68700000D01*
X120750000Y-68887500D01*
X120750000Y-69049185D01*
X120864181Y-69324841D01*
X121075159Y-69535819D01*
X121350816Y-69650000D01*
X121487500Y-69650000D01*
X121675000Y-69462500D01*
X121675000Y-71627464D01*
X121489473Y-71550427D01*
X120514803Y-71549576D01*
X119614000Y-71921780D01*
X118924202Y-72610375D01*
X118550427Y-73510527D01*
X118549576Y-74485197D01*
X118921780Y-75386000D01*
X119610375Y-76075798D01*
X120510527Y-76449573D01*
X121485197Y-76450424D01*
X122386000Y-76078220D01*
X123075798Y-75389625D01*
X123449573Y-74489473D01*
X123450424Y-73514803D01*
X123450424Y-76135361D01*
X120189802Y-79395983D01*
X120025159Y-79464181D01*
X119889340Y-79600000D01*
X119700000Y-79600000D01*
X119355585Y-79668508D01*
X119063604Y-79863604D01*
X118563604Y-80363604D01*
X118368508Y-80655585D01*
X118327952Y-80859470D01*
X118075159Y-80964181D01*
X117864181Y-81175159D01*
X117750000Y-81450815D01*
X117750000Y-81655648D01*
X117513604Y-81813604D01*
X117263604Y-82063604D01*
X117250000Y-82083963D01*
X117250000Y-61103553D01*
X118103553Y-60250000D01*
X118500000Y-60250000D01*
X118500000Y-61312500D01*
X118687500Y-61500000D01*
X121325000Y-61500000D01*
X121325000Y-61480000D01*
X121825000Y-61480000D01*
X121825000Y-61500000D01*
X121845000Y-61500000D01*
X121845000Y-62000000D01*
X121825000Y-62000000D01*
X121825000Y-64812500D01*
X122012500Y-65000000D01*
X122100000Y-65000000D01*
X122100000Y-65149184D01*
X122100000Y-65791852D01*
X121999731Y-65750217D01*
X121502450Y-65749783D01*
X121325000Y-65823104D01*
X121325000Y-64812500D01*
X121325000Y-62000000D01*
X118687500Y-62000000D01*
X118500000Y-62187500D01*
X118500000Y-64100816D01*
X118500000Y-64399185D01*
X118614181Y-64674841D01*
X118825159Y-64885819D01*
X119100816Y-65000000D01*
X121137500Y-65000000D01*
X121325000Y-64812500D01*
X121325000Y-65823104D01*
X121042857Y-65939684D01*
X120690919Y-66291007D01*
X120500217Y-66750269D01*
X120499783Y-67247550D01*
X120689684Y-67707143D01*
X120803645Y-67821303D01*
X120750000Y-67950815D01*
X120750000Y-68112500D01*
X120937500Y-68300000D01*
X121675000Y-68300000D01*
X121675000Y-68249935D01*
X121997550Y-68250217D01*
X122025000Y-68238874D01*
X122025000Y-68300000D01*
X122120000Y-68300000D01*
X122120000Y-68700000D01*
X122025000Y-68700000D01*
X122025000Y-69462500D01*
X122200000Y-69637500D01*
X122200000Y-70700000D01*
X122276120Y-71082684D01*
X122492893Y-71407107D01*
X123900000Y-72814214D01*
X123900000Y-75685786D01*
G36*
X137082354Y-80544854D02*
X136500000Y-81127208D01*
X136477208Y-81150000D01*
X135140510Y-81150000D01*
X134779753Y-81000200D01*
X134650000Y-81000086D01*
X134650000Y-80900000D01*
X134725000Y-80900000D01*
X134725000Y-80137500D01*
X134706923Y-80119423D01*
X135100000Y-79726346D01*
X135100000Y-79800002D01*
X135212498Y-79800002D01*
X135100000Y-79912500D01*
X135100000Y-80049185D01*
X135118544Y-80093955D01*
X135075000Y-80137500D01*
X135075000Y-80900000D01*
X135812500Y-80900000D01*
X136000000Y-80712500D01*
X136000000Y-80650000D01*
X136312500Y-80650000D01*
X136500000Y-80462500D01*
X136500000Y-79725000D01*
X136480000Y-79725000D01*
X136480000Y-79600000D01*
X137020000Y-79600000D01*
X137020000Y-79725000D01*
X137000000Y-79725000D01*
X137000000Y-80462500D01*
X137082354Y-80544854D01*
X137082354Y-80544854D01*
G37*
X137082354Y-80544854D02*
X136500000Y-81127208D01*
X136477208Y-81150000D01*
X135140510Y-81150000D01*
X134779753Y-81000200D01*
X134650000Y-81000086D01*
X134650000Y-80900000D01*
X134725000Y-80900000D01*
X134725000Y-80137500D01*
X134706923Y-80119423D01*
X135100000Y-79726346D01*
X135100000Y-79800002D01*
X135212498Y-79800002D01*
X135100000Y-79912500D01*
X135100000Y-80049185D01*
X135118544Y-80093955D01*
X135075000Y-80137500D01*
X135075000Y-80900000D01*
X135812500Y-80900000D01*
X136000000Y-80712500D01*
X136000000Y-80650000D01*
X136312500Y-80650000D01*
X136500000Y-80462500D01*
X136500000Y-79725000D01*
X136480000Y-79725000D01*
X136480000Y-79600000D01*
X137020000Y-79600000D01*
X137020000Y-79725000D01*
X137000000Y-79725000D01*
X137000000Y-80462500D01*
X137082354Y-80544854D01*
G36*
X137750000Y-68232435D02*
X137458993Y-67940919D01*
X136999731Y-67750217D01*
X136502450Y-67749783D01*
X136042857Y-67939684D01*
X135690919Y-68291007D01*
X135500217Y-68750269D01*
X135499783Y-69247550D01*
X135671150Y-69662287D01*
X135425159Y-69764181D01*
X135339340Y-69850000D01*
X134550000Y-69850000D01*
X134205584Y-69918508D01*
X133913604Y-70113604D01*
X133463604Y-70563604D01*
X133268508Y-70855585D01*
X133200000Y-71200000D01*
X133200000Y-77527208D01*
X131913604Y-78813604D01*
X131500000Y-79227208D01*
X131500000Y-64399185D01*
X131500000Y-64100816D01*
X131500000Y-62187500D01*
X131312500Y-62000000D01*
X128675000Y-62000000D01*
X128675000Y-64812500D01*
X128862500Y-65000000D01*
X130899184Y-65000000D01*
X131174841Y-64885819D01*
X131385819Y-64674841D01*
X131500000Y-64399185D01*
X131500000Y-79227208D01*
X130527208Y-80200000D01*
X128837530Y-80200000D01*
X128900000Y-80049185D01*
X128900000Y-79750816D01*
X128900000Y-79050816D01*
X128889306Y-79025000D01*
X128900000Y-78999185D01*
X128900000Y-78700816D01*
X128900000Y-77900816D01*
X128899662Y-77900000D01*
X128900000Y-77899185D01*
X128900000Y-77600816D01*
X128900000Y-76800816D01*
X128899662Y-76800000D01*
X128900000Y-76799185D01*
X128900000Y-76500816D01*
X128900000Y-75700816D01*
X128899662Y-75700000D01*
X128900000Y-75699185D01*
X128900000Y-75400816D01*
X128900000Y-74600816D01*
X128899662Y-74600000D01*
X128900000Y-74599185D01*
X128900000Y-74300816D01*
X128900000Y-73500816D01*
X128899662Y-73500000D01*
X128900000Y-73499185D01*
X128900000Y-73337500D01*
X128712500Y-73150000D01*
X128710660Y-73150000D01*
X128574841Y-73014181D01*
X128419894Y-72949999D01*
X128574841Y-72885819D01*
X128710660Y-72750000D01*
X128712500Y-72750000D01*
X128900000Y-72562500D01*
X128900000Y-72400815D01*
X128899662Y-72400000D01*
X128900000Y-72399185D01*
X128900000Y-72100816D01*
X128900000Y-71300816D01*
X128889306Y-71275000D01*
X128900000Y-71249185D01*
X128900000Y-71112500D01*
X128900000Y-70387500D01*
X128900000Y-70250815D01*
X128785819Y-69975159D01*
X128574841Y-69764181D01*
X128299184Y-69650000D01*
X127687500Y-69650000D01*
X127500000Y-69837500D01*
X127500000Y-70575000D01*
X128712500Y-70575000D01*
X128900000Y-70387500D01*
X128900000Y-71112500D01*
X128712500Y-70925000D01*
X128685660Y-70925000D01*
X128574841Y-70814181D01*
X128299185Y-70700000D01*
X128000816Y-70700000D01*
X126980000Y-70700000D01*
X126980000Y-70575000D01*
X127000000Y-70575000D01*
X127000000Y-69837500D01*
X126812500Y-69650000D01*
X126775000Y-69650000D01*
X126775000Y-68900000D01*
X126775002Y-68900000D01*
X126775002Y-68875002D01*
X126800000Y-68900000D01*
X126849184Y-68900000D01*
X126849185Y-68900000D01*
X127061893Y-68811893D01*
X127150000Y-68900000D01*
X127199185Y-68900000D01*
X127474841Y-68785819D01*
X127685819Y-68574841D01*
X127800000Y-68299184D01*
X127800000Y-68187500D01*
X127636580Y-68024080D01*
X127685819Y-67974841D01*
X127800000Y-67699184D01*
X127800000Y-67512500D01*
X127800000Y-67400816D01*
X127800000Y-67187500D01*
X127612500Y-67000000D01*
X127560660Y-67000000D01*
X127474841Y-66914181D01*
X127199185Y-66800000D01*
X127150000Y-66800000D01*
X127061893Y-66888106D01*
X126849185Y-66800000D01*
X126849184Y-66800000D01*
X126800000Y-66800000D01*
X126700000Y-66900000D01*
X126600000Y-66800000D01*
X126550816Y-66800000D01*
X126550815Y-66800000D01*
X126338106Y-66888106D01*
X126250000Y-66800000D01*
X126200815Y-66800000D01*
X126026087Y-66872374D01*
X125985819Y-66775159D01*
X125960660Y-66750000D01*
X125985819Y-66724841D01*
X126026087Y-66627625D01*
X126200815Y-66700000D01*
X126250000Y-66700000D01*
X126338106Y-66611893D01*
X126550815Y-66700000D01*
X126550816Y-66700000D01*
X126600000Y-66700000D01*
X126700000Y-66600000D01*
X126800000Y-66700000D01*
X126849184Y-66700000D01*
X126849185Y-66700000D01*
X127061893Y-66611893D01*
X127150000Y-66700000D01*
X127199185Y-66700000D01*
X127474841Y-66585819D01*
X127560660Y-66500000D01*
X127612500Y-66500000D01*
X127800000Y-66312500D01*
X127800000Y-66099184D01*
X127800000Y-65987500D01*
X127800000Y-65800816D01*
X127685819Y-65525159D01*
X127636580Y-65475920D01*
X127800000Y-65312500D01*
X127800000Y-65200816D01*
X127716819Y-65000000D01*
X127987500Y-65000000D01*
X128175000Y-64812500D01*
X128175000Y-62000000D01*
X128155000Y-62000000D01*
X128155000Y-61500000D01*
X128175000Y-61500000D01*
X128175000Y-61480000D01*
X128675000Y-61480000D01*
X128675000Y-61500000D01*
X131312500Y-61500000D01*
X131500000Y-61312500D01*
X131500000Y-60250000D01*
X136896447Y-60250000D01*
X137750000Y-61103553D01*
X137750000Y-68232435D01*
X137750000Y-68232435D01*
G37*
X137750000Y-68232435D02*
X137458993Y-67940919D01*
X136999731Y-67750217D01*
X136502450Y-67749783D01*
X136042857Y-67939684D01*
X135690919Y-68291007D01*
X135500217Y-68750269D01*
X135499783Y-69247550D01*
X135671150Y-69662287D01*
X135425159Y-69764181D01*
X135339340Y-69850000D01*
X134550000Y-69850000D01*
X134205584Y-69918508D01*
X133913604Y-70113604D01*
X133463604Y-70563604D01*
X133268508Y-70855585D01*
X133200000Y-71200000D01*
X133200000Y-77527208D01*
X131913604Y-78813604D01*
X131500000Y-79227208D01*
X131500000Y-64399185D01*
X131500000Y-64100816D01*
X131500000Y-62187500D01*
X131312500Y-62000000D01*
X128675000Y-62000000D01*
X128675000Y-64812500D01*
X128862500Y-65000000D01*
X130899184Y-65000000D01*
X131174841Y-64885819D01*
X131385819Y-64674841D01*
X131500000Y-64399185D01*
X131500000Y-79227208D01*
X130527208Y-80200000D01*
X128837530Y-80200000D01*
X128900000Y-80049185D01*
X128900000Y-79750816D01*
X128900000Y-79050816D01*
X128889306Y-79025000D01*
X128900000Y-78999185D01*
X128900000Y-78700816D01*
X128900000Y-77900816D01*
X128899662Y-77900000D01*
X128900000Y-77899185D01*
X128900000Y-77600816D01*
X128900000Y-76800816D01*
X128899662Y-76800000D01*
X128900000Y-76799185D01*
X128900000Y-76500816D01*
X128900000Y-75700816D01*
X128899662Y-75700000D01*
X128900000Y-75699185D01*
X128900000Y-75400816D01*
X128900000Y-74600816D01*
X128899662Y-74600000D01*
X128900000Y-74599185D01*
X128900000Y-74300816D01*
X128900000Y-73500816D01*
X128899662Y-73500000D01*
X128900000Y-73499185D01*
X128900000Y-73337500D01*
X128712500Y-73150000D01*
X128710660Y-73150000D01*
X128574841Y-73014181D01*
X128419894Y-72949999D01*
X128574841Y-72885819D01*
X128710660Y-72750000D01*
X128712500Y-72750000D01*
X128900000Y-72562500D01*
X128900000Y-72400815D01*
X128899662Y-72400000D01*
X128900000Y-72399185D01*
X128900000Y-72100816D01*
X128900000Y-71300816D01*
X128889306Y-71275000D01*
X128900000Y-71249185D01*
X128900000Y-71112500D01*
X128900000Y-70387500D01*
X128900000Y-70250815D01*
X128785819Y-69975159D01*
X128574841Y-69764181D01*
X128299184Y-69650000D01*
X127687500Y-69650000D01*
X127500000Y-69837500D01*
X127500000Y-70575000D01*
X128712500Y-70575000D01*
X128900000Y-70387500D01*
X128900000Y-71112500D01*
X128712500Y-70925000D01*
X128685660Y-70925000D01*
X128574841Y-70814181D01*
X128299185Y-70700000D01*
X128000816Y-70700000D01*
X126980000Y-70700000D01*
X126980000Y-70575000D01*
X127000000Y-70575000D01*
X127000000Y-69837500D01*
X126812500Y-69650000D01*
X126775000Y-69650000D01*
X126775000Y-68900000D01*
X126775002Y-68900000D01*
X126775002Y-68875002D01*
X126800000Y-68900000D01*
X126849184Y-68900000D01*
X126849185Y-68900000D01*
X127061893Y-68811893D01*
X127150000Y-68900000D01*
X127199185Y-68900000D01*
X127474841Y-68785819D01*
X127685819Y-68574841D01*
X127800000Y-68299184D01*
X127800000Y-68187500D01*
X127636580Y-68024080D01*
X127685819Y-67974841D01*
X127800000Y-67699184D01*
X127800000Y-67512500D01*
X127800000Y-67400816D01*
X127800000Y-67187500D01*
X127612500Y-67000000D01*
X127560660Y-67000000D01*
X127474841Y-66914181D01*
X127199185Y-66800000D01*
X127150000Y-66800000D01*
X127061893Y-66888106D01*
X126849185Y-66800000D01*
X126849184Y-66800000D01*
X126800000Y-66800000D01*
X126700000Y-66900000D01*
X126600000Y-66800000D01*
X126550816Y-66800000D01*
X126550815Y-66800000D01*
X126338106Y-66888106D01*
X126250000Y-66800000D01*
X126200815Y-66800000D01*
X126026087Y-66872374D01*
X125985819Y-66775159D01*
X125960660Y-66750000D01*
X125985819Y-66724841D01*
X126026087Y-66627625D01*
X126200815Y-66700000D01*
X126250000Y-66700000D01*
X126338106Y-66611893D01*
X126550815Y-66700000D01*
X126550816Y-66700000D01*
X126600000Y-66700000D01*
X126700000Y-66600000D01*
X126800000Y-66700000D01*
X126849184Y-66700000D01*
X126849185Y-66700000D01*
X127061893Y-66611893D01*
X127150000Y-66700000D01*
X127199185Y-66700000D01*
X127474841Y-66585819D01*
X127560660Y-66500000D01*
X127612500Y-66500000D01*
X127800000Y-66312500D01*
X127800000Y-66099184D01*
X127800000Y-65987500D01*
X127800000Y-65800816D01*
X127685819Y-65525159D01*
X127636580Y-65475920D01*
X127800000Y-65312500D01*
X127800000Y-65200816D01*
X127716819Y-65000000D01*
X127987500Y-65000000D01*
X128175000Y-64812500D01*
X128175000Y-62000000D01*
X128155000Y-62000000D01*
X128155000Y-61500000D01*
X128175000Y-61500000D01*
X128175000Y-61480000D01*
X128675000Y-61480000D01*
X128675000Y-61500000D01*
X131312500Y-61500000D01*
X131500000Y-61312500D01*
X131500000Y-60250000D01*
X136896447Y-60250000D01*
X137750000Y-61103553D01*
X137750000Y-68232435D01*
M02*
