%FSLAX46Y46*%
G04 Gerber Fmt 4.6, Leading zero omitted, Abs format (unit mm)*
G04 Created by KiCad (PCBNEW (2014-jul-16 BZR unknown)-product) date Wed 23 Jul 2014 05:37:14 BST*
%MOMM*%
G01*
G04 APERTURE LIST*
%ADD10C,0.100000*%
%ADD11C,0.300000*%
%ADD12C,1.700000*%
%ADD13C,0.300000*%
%ADD14C,1.016000*%
%ADD15C,1.400000*%
%ADD16C,1.500000*%
%ADD17C,1.100000*%
%ADD18C,3.400000*%
G04 APERTURE END LIST*
D10*
D11*
X136978572Y-116407143D02*
X137121429Y-116478571D01*
X137407143Y-116478571D01*
X137550001Y-116407143D01*
X137621429Y-116335714D01*
X137692858Y-116192857D01*
X137692858Y-115764286D01*
X137621429Y-115621429D01*
X137550001Y-115550000D01*
X137407143Y-115478571D01*
X137121429Y-115478571D01*
X136978572Y-115550000D01*
X135692858Y-115478571D02*
X135692858Y-116478571D01*
X136335715Y-115478571D02*
X136335715Y-116264286D01*
X136264287Y-116407143D01*
X136121429Y-116478571D01*
X135907144Y-116478571D01*
X135764287Y-116407143D01*
X135692858Y-116335714D01*
X135050001Y-116407143D02*
X134907144Y-116478571D01*
X134621429Y-116478571D01*
X134478572Y-116407143D01*
X134407144Y-116264286D01*
X134407144Y-116192857D01*
X134478572Y-116050000D01*
X134621429Y-115978571D01*
X134835715Y-115978571D01*
X134978572Y-115907143D01*
X135050001Y-115764286D01*
X135050001Y-115692857D01*
X134978572Y-115550000D01*
X134835715Y-115478571D01*
X134621429Y-115478571D01*
X134478572Y-115550000D01*
X133978572Y-115478571D02*
X133407143Y-115478571D01*
X133764286Y-116478571D02*
X133764286Y-115192857D01*
X133692858Y-115050000D01*
X133550000Y-114978571D01*
X133407143Y-114978571D01*
X132907143Y-116335714D02*
X132835715Y-116407143D01*
X132907143Y-116478571D01*
X132978572Y-116407143D01*
X132907143Y-116335714D01*
X132907143Y-116478571D01*
X131550000Y-116407143D02*
X131692857Y-116478571D01*
X131978571Y-116478571D01*
X132121429Y-116407143D01*
X132192857Y-116335714D01*
X132264286Y-116192857D01*
X132264286Y-115764286D01*
X132192857Y-115621429D01*
X132121429Y-115550000D01*
X131978571Y-115478571D01*
X131692857Y-115478571D01*
X131550000Y-115550000D01*
X130692857Y-116478571D02*
X130835715Y-116407143D01*
X130907143Y-116335714D01*
X130978572Y-116192857D01*
X130978572Y-115764286D01*
X130907143Y-115621429D01*
X130835715Y-115550000D01*
X130692857Y-115478571D01*
X130478572Y-115478571D01*
X130335715Y-115550000D01*
X130264286Y-115621429D01*
X130192857Y-115764286D01*
X130192857Y-116192857D01*
X130264286Y-116335714D01*
X130335715Y-116407143D01*
X130478572Y-116478571D01*
X130692857Y-116478571D01*
X129550000Y-116335714D02*
X129478572Y-116407143D01*
X129550000Y-116478571D01*
X129621429Y-116407143D01*
X129550000Y-116335714D01*
X129550000Y-116478571D01*
X128192857Y-115478571D02*
X128192857Y-116478571D01*
X128835714Y-115478571D02*
X128835714Y-116264286D01*
X128764286Y-116407143D01*
X128621428Y-116478571D01*
X128407143Y-116478571D01*
X128264286Y-116407143D01*
X128192857Y-116335714D01*
X127478571Y-116478571D02*
X127478571Y-114978571D01*
X127335714Y-115907143D02*
X126907143Y-116478571D01*
X126907143Y-115478571D02*
X127478571Y-116050000D01*
D10*
G36*
X161191600Y-111246618D02*
X161185797Y-111339916D01*
X161161919Y-111425134D01*
X161110259Y-111511684D01*
X161021113Y-111608977D01*
X160884773Y-111726426D01*
X160691533Y-111873443D01*
X160431690Y-112059439D01*
X160152283Y-112254466D01*
X159966525Y-112383452D01*
X159708897Y-112562429D01*
X159390938Y-112783375D01*
X159024189Y-113038269D01*
X158620189Y-113319091D01*
X158190479Y-113617820D01*
X157746597Y-113926434D01*
X157300084Y-114236912D01*
X157272395Y-114256167D01*
X156716928Y-114640872D01*
X156241504Y-114966741D01*
X155844233Y-115235017D01*
X155523220Y-115446939D01*
X155276574Y-115603748D01*
X155102403Y-115706683D01*
X154998813Y-115756985D01*
X154973695Y-115762800D01*
X154884882Y-115750547D01*
X154848234Y-115693754D01*
X154841600Y-115583032D01*
X154862666Y-115444156D01*
X154938115Y-115312124D01*
X155032100Y-115205333D01*
X155114590Y-115133994D01*
X155269585Y-115014146D01*
X155488850Y-114851471D01*
X155764154Y-114651650D01*
X156087264Y-114420366D01*
X156449946Y-114163299D01*
X156843968Y-113886131D01*
X157261098Y-113594544D01*
X157693101Y-113294219D01*
X158131747Y-112990838D01*
X158568801Y-112690081D01*
X158996031Y-112397631D01*
X159405204Y-112119169D01*
X159788088Y-111860377D01*
X160136450Y-111626936D01*
X160442056Y-111424528D01*
X160696675Y-111258834D01*
X160892072Y-111135535D01*
X161020017Y-111060314D01*
X161070191Y-111038400D01*
X161147867Y-111050076D01*
X161182863Y-111103820D01*
X161191548Y-111227706D01*
X161191600Y-111246618D01*
X161191600Y-111246618D01*
X161191600Y-111246618D01*
G37*
X161191600Y-111246618D02*
X161185797Y-111339916D01*
X161161919Y-111425134D01*
X161110259Y-111511684D01*
X161021113Y-111608977D01*
X160884773Y-111726426D01*
X160691533Y-111873443D01*
X160431690Y-112059439D01*
X160152283Y-112254466D01*
X159966525Y-112383452D01*
X159708897Y-112562429D01*
X159390938Y-112783375D01*
X159024189Y-113038269D01*
X158620189Y-113319091D01*
X158190479Y-113617820D01*
X157746597Y-113926434D01*
X157300084Y-114236912D01*
X157272395Y-114256167D01*
X156716928Y-114640872D01*
X156241504Y-114966741D01*
X155844233Y-115235017D01*
X155523220Y-115446939D01*
X155276574Y-115603748D01*
X155102403Y-115706683D01*
X154998813Y-115756985D01*
X154973695Y-115762800D01*
X154884882Y-115750547D01*
X154848234Y-115693754D01*
X154841600Y-115583032D01*
X154862666Y-115444156D01*
X154938115Y-115312124D01*
X155032100Y-115205333D01*
X155114590Y-115133994D01*
X155269585Y-115014146D01*
X155488850Y-114851471D01*
X155764154Y-114651650D01*
X156087264Y-114420366D01*
X156449946Y-114163299D01*
X156843968Y-113886131D01*
X157261098Y-113594544D01*
X157693101Y-113294219D01*
X158131747Y-112990838D01*
X158568801Y-112690081D01*
X158996031Y-112397631D01*
X159405204Y-112119169D01*
X159788088Y-111860377D01*
X160136450Y-111626936D01*
X160442056Y-111424528D01*
X160696675Y-111258834D01*
X160892072Y-111135535D01*
X161020017Y-111060314D01*
X161070191Y-111038400D01*
X161147867Y-111050076D01*
X161182863Y-111103820D01*
X161191548Y-111227706D01*
X161191600Y-111246618D01*
X161191600Y-111246618D01*
G36*
X161191600Y-109341618D02*
X161184316Y-109517303D01*
X161153374Y-109631507D01*
X161085142Y-109723853D01*
X161047389Y-109760718D01*
X160973520Y-109819871D01*
X160826306Y-109929356D01*
X160616034Y-110081820D01*
X160352994Y-110269907D01*
X160047473Y-110486262D01*
X159709760Y-110723531D01*
X159350144Y-110974358D01*
X159332889Y-110986348D01*
X158635519Y-111470875D01*
X158016828Y-111900675D01*
X157471992Y-112278901D01*
X156996189Y-112608707D01*
X156584595Y-112893244D01*
X156232386Y-113135666D01*
X155934741Y-113339125D01*
X155686835Y-113506775D01*
X155483846Y-113641769D01*
X155320950Y-113747258D01*
X155193325Y-113826396D01*
X155096147Y-113882337D01*
X155024592Y-113918232D01*
X154973839Y-113937234D01*
X154939064Y-113942497D01*
X154915443Y-113937173D01*
X154898153Y-113924416D01*
X154882372Y-113907377D01*
X154875466Y-113900133D01*
X154840961Y-113804999D01*
X154845163Y-113656039D01*
X154882693Y-113490966D01*
X154948176Y-113347492D01*
X154955900Y-113336006D01*
X155015988Y-113280176D01*
X155150733Y-113173768D01*
X155352011Y-113022443D01*
X155611702Y-112831858D01*
X155921682Y-112607673D01*
X156273831Y-112355548D01*
X156660025Y-112081142D01*
X157072144Y-111790113D01*
X157502065Y-111488122D01*
X157941666Y-111180828D01*
X158382825Y-110873889D01*
X158817420Y-110572965D01*
X159237330Y-110283715D01*
X159634431Y-110011799D01*
X160000603Y-109762875D01*
X160327723Y-109542604D01*
X160607670Y-109356644D01*
X160832320Y-109210654D01*
X160993553Y-109110294D01*
X161083247Y-109061223D01*
X161096705Y-109057200D01*
X161151461Y-109071213D01*
X161180199Y-109128850D01*
X161190724Y-109253504D01*
X161191600Y-109341618D01*
X161191600Y-109341618D01*
X161191600Y-109341618D01*
G37*
X161191600Y-109341618D02*
X161184316Y-109517303D01*
X161153374Y-109631507D01*
X161085142Y-109723853D01*
X161047389Y-109760718D01*
X160973520Y-109819871D01*
X160826306Y-109929356D01*
X160616034Y-110081820D01*
X160352994Y-110269907D01*
X160047473Y-110486262D01*
X159709760Y-110723531D01*
X159350144Y-110974358D01*
X159332889Y-110986348D01*
X158635519Y-111470875D01*
X158016828Y-111900675D01*
X157471992Y-112278901D01*
X156996189Y-112608707D01*
X156584595Y-112893244D01*
X156232386Y-113135666D01*
X155934741Y-113339125D01*
X155686835Y-113506775D01*
X155483846Y-113641769D01*
X155320950Y-113747258D01*
X155193325Y-113826396D01*
X155096147Y-113882337D01*
X155024592Y-113918232D01*
X154973839Y-113937234D01*
X154939064Y-113942497D01*
X154915443Y-113937173D01*
X154898153Y-113924416D01*
X154882372Y-113907377D01*
X154875466Y-113900133D01*
X154840961Y-113804999D01*
X154845163Y-113656039D01*
X154882693Y-113490966D01*
X154948176Y-113347492D01*
X154955900Y-113336006D01*
X155015988Y-113280176D01*
X155150733Y-113173768D01*
X155352011Y-113022443D01*
X155611702Y-112831858D01*
X155921682Y-112607673D01*
X156273831Y-112355548D01*
X156660025Y-112081142D01*
X157072144Y-111790113D01*
X157502065Y-111488122D01*
X157941666Y-111180828D01*
X158382825Y-110873889D01*
X158817420Y-110572965D01*
X159237330Y-110283715D01*
X159634431Y-110011799D01*
X160000603Y-109762875D01*
X160327723Y-109542604D01*
X160607670Y-109356644D01*
X160832320Y-109210654D01*
X160993553Y-109110294D01*
X161083247Y-109061223D01*
X161096705Y-109057200D01*
X161151461Y-109071213D01*
X161180199Y-109128850D01*
X161190724Y-109253504D01*
X161191600Y-109341618D01*
X161191600Y-109341618D01*
G36*
X161191600Y-107321002D02*
X161187925Y-107509349D01*
X161169410Y-107630216D01*
X161124815Y-107717663D01*
X161042901Y-107805745D01*
X161026500Y-107821306D01*
X160944159Y-107888466D01*
X160789283Y-108004482D01*
X160570157Y-108163647D01*
X160295065Y-108360254D01*
X159972291Y-108588597D01*
X159610120Y-108842968D01*
X159216836Y-109117662D01*
X158800723Y-109406970D01*
X158370067Y-109705186D01*
X157933151Y-110006603D01*
X157498260Y-110305515D01*
X157073678Y-110596214D01*
X156667690Y-110872993D01*
X156288580Y-111130147D01*
X155944632Y-111361967D01*
X155644132Y-111562746D01*
X155395363Y-111726779D01*
X155206609Y-111848358D01*
X155086156Y-111921777D01*
X155044695Y-111941979D01*
X154933889Y-111942800D01*
X154879410Y-111922877D01*
X154846418Y-111831945D01*
X154841800Y-111677885D01*
X154862471Y-111494175D01*
X154905343Y-111314293D01*
X154944887Y-111212713D01*
X154971541Y-111166064D01*
X155011454Y-111114167D01*
X155070662Y-111052541D01*
X155155196Y-110976704D01*
X155271093Y-110882175D01*
X155424384Y-110764472D01*
X155621105Y-110619115D01*
X155867289Y-110441622D01*
X156168971Y-110227512D01*
X156532184Y-109972304D01*
X156962961Y-109671516D01*
X157467338Y-109320666D01*
X157853187Y-109052766D01*
X158333191Y-108719604D01*
X158791259Y-108401564D01*
X159220128Y-108103693D01*
X159612533Y-107831043D01*
X159961213Y-107588662D01*
X160258902Y-107381600D01*
X160498340Y-107214907D01*
X160672261Y-107093632D01*
X160773402Y-107022826D01*
X160793814Y-107008358D01*
X160954572Y-106937321D01*
X161060514Y-106943435D01*
X161130021Y-106967352D01*
X161169290Y-107011687D01*
X161186915Y-107101188D01*
X161191488Y-107260603D01*
X161191600Y-107321002D01*
X161191600Y-107321002D01*
X161191600Y-107321002D01*
G37*
X161191600Y-107321002D02*
X161187925Y-107509349D01*
X161169410Y-107630216D01*
X161124815Y-107717663D01*
X161042901Y-107805745D01*
X161026500Y-107821306D01*
X160944159Y-107888466D01*
X160789283Y-108004482D01*
X160570157Y-108163647D01*
X160295065Y-108360254D01*
X159972291Y-108588597D01*
X159610120Y-108842968D01*
X159216836Y-109117662D01*
X158800723Y-109406970D01*
X158370067Y-109705186D01*
X157933151Y-110006603D01*
X157498260Y-110305515D01*
X157073678Y-110596214D01*
X156667690Y-110872993D01*
X156288580Y-111130147D01*
X155944632Y-111361967D01*
X155644132Y-111562746D01*
X155395363Y-111726779D01*
X155206609Y-111848358D01*
X155086156Y-111921777D01*
X155044695Y-111941979D01*
X154933889Y-111942800D01*
X154879410Y-111922877D01*
X154846418Y-111831945D01*
X154841800Y-111677885D01*
X154862471Y-111494175D01*
X154905343Y-111314293D01*
X154944887Y-111212713D01*
X154971541Y-111166064D01*
X155011454Y-111114167D01*
X155070662Y-111052541D01*
X155155196Y-110976704D01*
X155271093Y-110882175D01*
X155424384Y-110764472D01*
X155621105Y-110619115D01*
X155867289Y-110441622D01*
X156168971Y-110227512D01*
X156532184Y-109972304D01*
X156962961Y-109671516D01*
X157467338Y-109320666D01*
X157853187Y-109052766D01*
X158333191Y-108719604D01*
X158791259Y-108401564D01*
X159220128Y-108103693D01*
X159612533Y-107831043D01*
X159961213Y-107588662D01*
X160258902Y-107381600D01*
X160498340Y-107214907D01*
X160672261Y-107093632D01*
X160773402Y-107022826D01*
X160793814Y-107008358D01*
X160954572Y-106937321D01*
X161060514Y-106943435D01*
X161130021Y-106967352D01*
X161169290Y-107011687D01*
X161186915Y-107101188D01*
X161191488Y-107260603D01*
X161191600Y-107321002D01*
X161191600Y-107321002D01*
G36*
X161191600Y-104992351D02*
X161189235Y-105198770D01*
X161176428Y-105333760D01*
X161144612Y-105427473D01*
X161085218Y-105510063D01*
X161026500Y-105573386D01*
X160955777Y-105632789D01*
X160811360Y-105742230D01*
X160601548Y-105895950D01*
X160334639Y-106088192D01*
X160018933Y-106313196D01*
X159662727Y-106565206D01*
X159274321Y-106838463D01*
X158862014Y-107127210D01*
X158434103Y-107425687D01*
X157998889Y-107728138D01*
X157564669Y-108028804D01*
X157139743Y-108321927D01*
X156732409Y-108601749D01*
X156350966Y-108862512D01*
X156003712Y-109098458D01*
X155698946Y-109303829D01*
X155444968Y-109472867D01*
X155250076Y-109599813D01*
X155122568Y-109678911D01*
X155072762Y-109704350D01*
X154958318Y-109692214D01*
X154905100Y-109659808D01*
X154865758Y-109565951D01*
X154845557Y-109405633D01*
X154844043Y-109212087D01*
X154860761Y-109018544D01*
X154895256Y-108858238D01*
X154916791Y-108805150D01*
X154969200Y-108748031D01*
X155092001Y-108644715D01*
X155287018Y-108493874D01*
X155556076Y-108294185D01*
X155900999Y-108044323D01*
X156323610Y-107742963D01*
X156825734Y-107388780D01*
X157409194Y-106980449D01*
X157884799Y-106649311D01*
X158371596Y-106311432D01*
X158836306Y-105989719D01*
X159271835Y-105689030D01*
X159671089Y-105414226D01*
X160026972Y-105170164D01*
X160332390Y-104961703D01*
X160580248Y-104793703D01*
X160763452Y-104671023D01*
X160874908Y-104598520D01*
X160905168Y-104580760D01*
X161031339Y-104537834D01*
X161115181Y-104553226D01*
X161164547Y-104638220D01*
X161187289Y-104804103D01*
X161191600Y-104992351D01*
X161191600Y-104992351D01*
X161191600Y-104992351D01*
G37*
X161191600Y-104992351D02*
X161189235Y-105198770D01*
X161176428Y-105333760D01*
X161144612Y-105427473D01*
X161085218Y-105510063D01*
X161026500Y-105573386D01*
X160955777Y-105632789D01*
X160811360Y-105742230D01*
X160601548Y-105895950D01*
X160334639Y-106088192D01*
X160018933Y-106313196D01*
X159662727Y-106565206D01*
X159274321Y-106838463D01*
X158862014Y-107127210D01*
X158434103Y-107425687D01*
X157998889Y-107728138D01*
X157564669Y-108028804D01*
X157139743Y-108321927D01*
X156732409Y-108601749D01*
X156350966Y-108862512D01*
X156003712Y-109098458D01*
X155698946Y-109303829D01*
X155444968Y-109472867D01*
X155250076Y-109599813D01*
X155122568Y-109678911D01*
X155072762Y-109704350D01*
X154958318Y-109692214D01*
X154905100Y-109659808D01*
X154865758Y-109565951D01*
X154845557Y-109405633D01*
X154844043Y-109212087D01*
X154860761Y-109018544D01*
X154895256Y-108858238D01*
X154916791Y-108805150D01*
X154969200Y-108748031D01*
X155092001Y-108644715D01*
X155287018Y-108493874D01*
X155556076Y-108294185D01*
X155900999Y-108044323D01*
X156323610Y-107742963D01*
X156825734Y-107388780D01*
X157409194Y-106980449D01*
X157884799Y-106649311D01*
X158371596Y-106311432D01*
X158836306Y-105989719D01*
X159271835Y-105689030D01*
X159671089Y-105414226D01*
X160026972Y-105170164D01*
X160332390Y-104961703D01*
X160580248Y-104793703D01*
X160763452Y-104671023D01*
X160874908Y-104598520D01*
X160905168Y-104580760D01*
X161031339Y-104537834D01*
X161115181Y-104553226D01*
X161164547Y-104638220D01*
X161187289Y-104804103D01*
X161191600Y-104992351D01*
X161191600Y-104992351D01*
G36*
X161191600Y-102573523D02*
X161190032Y-102796868D01*
X161180786Y-102945665D01*
X161157050Y-103046962D01*
X161112009Y-103127808D01*
X161038852Y-103215250D01*
X161026500Y-103228980D01*
X160961640Y-103289580D01*
X160845037Y-103384080D01*
X160673620Y-103514656D01*
X160444318Y-103683484D01*
X160154060Y-103892741D01*
X159799777Y-104144602D01*
X159378398Y-104441244D01*
X158886852Y-104784842D01*
X158322068Y-105177572D01*
X157680977Y-105621611D01*
X156960508Y-106119135D01*
X156518000Y-106424146D01*
X156128503Y-106692386D01*
X155813957Y-106908312D01*
X155565589Y-107077168D01*
X155374626Y-107204199D01*
X155232296Y-107294649D01*
X155129825Y-107353764D01*
X155058442Y-107386786D01*
X155009373Y-107398962D01*
X154973845Y-107395534D01*
X154943087Y-107381749D01*
X154929188Y-107373968D01*
X154887043Y-107334596D01*
X154860680Y-107260269D01*
X154846727Y-107130778D01*
X154841814Y-106925918D01*
X154841600Y-106848773D01*
X154843928Y-106620245D01*
X154854520Y-106467018D01*
X154878780Y-106362833D01*
X154922118Y-106281431D01*
X154971416Y-106218317D01*
X155029953Y-106168858D01*
X155163633Y-106067614D01*
X155364138Y-105920413D01*
X155623151Y-105733087D01*
X155932356Y-105511465D01*
X156283436Y-105261376D01*
X156668073Y-104988652D01*
X157077951Y-104699122D01*
X157504753Y-104398616D01*
X157940162Y-104092965D01*
X158375860Y-103787997D01*
X158803532Y-103489544D01*
X159214860Y-103203435D01*
X159601527Y-102935500D01*
X159955216Y-102691569D01*
X160267610Y-102477472D01*
X160530393Y-102299040D01*
X160735248Y-102162102D01*
X160873856Y-102072488D01*
X160937600Y-102036132D01*
X161044841Y-102035456D01*
X161102700Y-102055451D01*
X161145448Y-102092310D01*
X161172147Y-102163000D01*
X161186280Y-102287823D01*
X161191332Y-102487082D01*
X161191600Y-102573523D01*
X161191600Y-102573523D01*
X161191600Y-102573523D01*
G37*
X161191600Y-102573523D02*
X161190032Y-102796868D01*
X161180786Y-102945665D01*
X161157050Y-103046962D01*
X161112009Y-103127808D01*
X161038852Y-103215250D01*
X161026500Y-103228980D01*
X160961640Y-103289580D01*
X160845037Y-103384080D01*
X160673620Y-103514656D01*
X160444318Y-103683484D01*
X160154060Y-103892741D01*
X159799777Y-104144602D01*
X159378398Y-104441244D01*
X158886852Y-104784842D01*
X158322068Y-105177572D01*
X157680977Y-105621611D01*
X156960508Y-106119135D01*
X156518000Y-106424146D01*
X156128503Y-106692386D01*
X155813957Y-106908312D01*
X155565589Y-107077168D01*
X155374626Y-107204199D01*
X155232296Y-107294649D01*
X155129825Y-107353764D01*
X155058442Y-107386786D01*
X155009373Y-107398962D01*
X154973845Y-107395534D01*
X154943087Y-107381749D01*
X154929188Y-107373968D01*
X154887043Y-107334596D01*
X154860680Y-107260269D01*
X154846727Y-107130778D01*
X154841814Y-106925918D01*
X154841600Y-106848773D01*
X154843928Y-106620245D01*
X154854520Y-106467018D01*
X154878780Y-106362833D01*
X154922118Y-106281431D01*
X154971416Y-106218317D01*
X155029953Y-106168858D01*
X155163633Y-106067614D01*
X155364138Y-105920413D01*
X155623151Y-105733087D01*
X155932356Y-105511465D01*
X156283436Y-105261376D01*
X156668073Y-104988652D01*
X157077951Y-104699122D01*
X157504753Y-104398616D01*
X157940162Y-104092965D01*
X158375860Y-103787997D01*
X158803532Y-103489544D01*
X159214860Y-103203435D01*
X159601527Y-102935500D01*
X159955216Y-102691569D01*
X160267610Y-102477472D01*
X160530393Y-102299040D01*
X160735248Y-102162102D01*
X160873856Y-102072488D01*
X160937600Y-102036132D01*
X161044841Y-102035456D01*
X161102700Y-102055451D01*
X161145448Y-102092310D01*
X161172147Y-102163000D01*
X161186280Y-102287823D01*
X161191332Y-102487082D01*
X161191600Y-102573523D01*
X161191600Y-102573523D01*
G36*
X161191600Y-90979022D02*
X161191429Y-92211065D01*
X161190906Y-93344499D01*
X161190012Y-94382313D01*
X161188729Y-95327499D01*
X161187037Y-96183046D01*
X161184920Y-96951945D01*
X161182359Y-97637186D01*
X161179335Y-98241760D01*
X161175830Y-98768655D01*
X161171825Y-99220864D01*
X161167304Y-99601375D01*
X161162246Y-99913179D01*
X161156635Y-100159267D01*
X161150451Y-100342628D01*
X161143676Y-100466253D01*
X161136292Y-100533132D01*
X161133046Y-100544929D01*
X161082350Y-100594864D01*
X160956103Y-100696094D01*
X160762470Y-100842913D01*
X160509614Y-101029618D01*
X160205700Y-101250503D01*
X159858892Y-101499863D01*
X159682335Y-101625791D01*
X159682335Y-93969600D01*
X159667600Y-93969600D01*
X159667600Y-87838979D01*
X159667600Y-86298800D01*
X159667456Y-86298800D01*
X159667456Y-83070973D01*
X159653821Y-82618996D01*
X159610134Y-82254602D01*
X159532575Y-81967216D01*
X159417323Y-81746265D01*
X159260556Y-81581175D01*
X159091324Y-81476636D01*
X158878047Y-81403816D01*
X158596396Y-81350865D01*
X158271634Y-81318181D01*
X157929024Y-81306166D01*
X157593827Y-81315221D01*
X157291307Y-81345745D01*
X157046725Y-81398141D01*
X156934023Y-81442423D01*
X156790595Y-81540883D01*
X156678652Y-81651646D01*
X156596223Y-81805240D01*
X156527072Y-82022759D01*
X156480970Y-82266588D01*
X156467200Y-82465900D01*
X156467200Y-82641200D01*
X156848200Y-82641200D01*
X157229200Y-82641200D01*
X157229200Y-82440832D01*
X157270906Y-82223179D01*
X157343500Y-82109291D01*
X157414998Y-82041120D01*
X157502625Y-81997548D01*
X157633848Y-81970072D01*
X157836135Y-81950186D01*
X157864200Y-81948076D01*
X158229855Y-81942157D01*
X158509057Y-81985440D01*
X158704617Y-82078601D01*
X158791435Y-82171060D01*
X158823009Y-82231276D01*
X158846233Y-82311687D01*
X158862329Y-82427481D01*
X158872520Y-82593846D01*
X158878027Y-82825971D01*
X158880074Y-83139044D01*
X158880200Y-83273965D01*
X158877957Y-83690762D01*
X158866389Y-84016779D01*
X158838235Y-84262818D01*
X158786236Y-84439678D01*
X158703131Y-84558159D01*
X158581660Y-84629061D01*
X158414563Y-84663185D01*
X158194579Y-84671331D01*
X157944858Y-84665358D01*
X157663005Y-84648698D01*
X157465680Y-84614090D01*
X157336046Y-84550523D01*
X157257269Y-84446986D01*
X157212513Y-84292469D01*
X157195525Y-84175290D01*
X157164248Y-83911200D01*
X156790324Y-83911200D01*
X156611578Y-83911933D01*
X156496253Y-83925755D01*
X156434351Y-83970099D01*
X156415874Y-84062395D01*
X156430826Y-84220077D01*
X156469209Y-84460577D01*
X156470544Y-84468793D01*
X156525794Y-84722342D01*
X156607321Y-84922564D01*
X156726072Y-85075011D01*
X156892996Y-85185234D01*
X157119041Y-85258785D01*
X157415155Y-85301215D01*
X157792288Y-85318077D01*
X158143600Y-85317148D01*
X158430067Y-85310916D01*
X158637935Y-85300495D01*
X158790203Y-85282536D01*
X158909867Y-85253689D01*
X159019925Y-85210605D01*
X159083400Y-85180270D01*
X159263540Y-85071544D01*
X159383263Y-84941596D01*
X159448401Y-84825600D01*
X159527989Y-84597492D01*
X159591092Y-84280850D01*
X159636219Y-83887627D01*
X159661877Y-83429778D01*
X159667456Y-83070973D01*
X159667456Y-86298800D01*
X159286600Y-86298800D01*
X158905600Y-86298800D01*
X158905600Y-87795009D01*
X158903615Y-88311822D01*
X158897625Y-88728730D01*
X158887570Y-89047352D01*
X158873393Y-89269309D01*
X158855037Y-89396217D01*
X158847797Y-89418081D01*
X158767339Y-89523157D01*
X158629516Y-89594410D01*
X158421114Y-89635793D01*
X158128919Y-89651262D01*
X158067400Y-89651600D01*
X157758977Y-89640311D01*
X157536690Y-89603808D01*
X157387324Y-89538136D01*
X157297663Y-89439342D01*
X157287002Y-89418081D01*
X157267204Y-89323272D01*
X157251606Y-89133969D01*
X157240149Y-88848553D01*
X157232777Y-88465404D01*
X157229430Y-87982904D01*
X157229200Y-87795009D01*
X157229200Y-86298800D01*
X156845014Y-86298800D01*
X156460828Y-86298800D01*
X156478102Y-87937100D01*
X156483584Y-88400069D01*
X156489664Y-88772743D01*
X156496985Y-89066424D01*
X156506189Y-89292417D01*
X156517918Y-89462025D01*
X156532815Y-89586552D01*
X156551523Y-89677302D01*
X156574683Y-89745579D01*
X156581801Y-89761666D01*
X156708452Y-89952064D01*
X156897350Y-90098290D01*
X157161043Y-90207591D01*
X157483200Y-90282242D01*
X157619320Y-90293552D01*
X157826637Y-90296132D01*
X158078033Y-90291217D01*
X158346388Y-90280038D01*
X158604584Y-90263829D01*
X158825502Y-90243822D01*
X158982023Y-90221251D01*
X159018322Y-90212456D01*
X159282944Y-90086027D01*
X159475895Y-89887600D01*
X159590564Y-89638567D01*
X159613751Y-89540519D01*
X159632047Y-89412371D01*
X159645949Y-89242490D01*
X159655955Y-89019245D01*
X159662564Y-88731006D01*
X159666273Y-88366139D01*
X159667580Y-87913015D01*
X159667600Y-87838979D01*
X159667600Y-93969600D01*
X159321117Y-93969600D01*
X158959899Y-93969600D01*
X158925752Y-94227013D01*
X158883374Y-94417911D01*
X158813208Y-94529643D01*
X158784302Y-94551504D01*
X158646264Y-94603294D01*
X158436850Y-94641191D01*
X158185673Y-94662415D01*
X157922347Y-94664184D01*
X157729801Y-94650523D01*
X157497368Y-94610548D01*
X157348656Y-94541372D01*
X157266303Y-94424060D01*
X157232949Y-94239674D01*
X157229200Y-94104473D01*
X157233710Y-93931599D01*
X157256400Y-93803534D01*
X157311008Y-93711684D01*
X157411272Y-93647451D01*
X157570931Y-93602241D01*
X157803724Y-93567456D01*
X158123388Y-93534501D01*
X158143141Y-93532630D01*
X158574782Y-93486332D01*
X158915386Y-93432995D01*
X159175514Y-93364591D01*
X159365723Y-93273090D01*
X159496573Y-93150465D01*
X159578623Y-92988688D01*
X159622432Y-92779729D01*
X159638558Y-92515560D01*
X159639624Y-92394800D01*
X159622953Y-92042493D01*
X159566719Y-91773889D01*
X159461178Y-91575562D01*
X159296584Y-91434089D01*
X159063192Y-91336044D01*
X158831745Y-91281932D01*
X158510632Y-91240977D01*
X158157303Y-91226553D01*
X157797431Y-91236920D01*
X157456692Y-91270337D01*
X157160758Y-91325064D01*
X156935305Y-91399359D01*
X156908732Y-91412301D01*
X156770334Y-91534080D01*
X156659123Y-91727406D01*
X156588402Y-91963179D01*
X156569915Y-92153500D01*
X156568800Y-92394800D01*
X156923432Y-92394800D01*
X157109462Y-92392810D01*
X157218023Y-92381000D01*
X157273242Y-92350603D01*
X157299242Y-92292854D01*
X157307947Y-92255100D01*
X157353977Y-92085099D01*
X157418306Y-91965310D01*
X157517050Y-91888517D01*
X157666323Y-91847502D01*
X157882238Y-91835048D01*
X158180910Y-91843936D01*
X158221338Y-91846003D01*
X158468753Y-91866219D01*
X158633568Y-91898540D01*
X158734456Y-91946916D01*
X158746722Y-91957138D01*
X158833913Y-92087288D01*
X158878794Y-92261327D01*
X158883298Y-92450538D01*
X158849356Y-92626203D01*
X158778902Y-92759607D01*
X158688719Y-92819119D01*
X158593494Y-92835155D01*
X158422539Y-92856735D01*
X158201363Y-92880856D01*
X157990729Y-92901314D01*
X157575388Y-92944425D01*
X157249481Y-92992336D01*
X157000844Y-93050569D01*
X156817313Y-93124645D01*
X156686724Y-93220086D01*
X156596912Y-93342413D01*
X156535716Y-93497147D01*
X156516219Y-93570623D01*
X156481272Y-93815152D01*
X156476381Y-94100413D01*
X156499011Y-94389433D01*
X156546628Y-94645239D01*
X156600506Y-94800078D01*
X156732129Y-94980883D01*
X156935396Y-95113563D01*
X157218786Y-95202365D01*
X157482239Y-95242040D01*
X157750491Y-95259182D01*
X158059319Y-95262639D01*
X158377821Y-95253632D01*
X158675095Y-95233381D01*
X158920243Y-95203106D01*
X159028007Y-95181013D01*
X159270930Y-95093274D01*
X159444355Y-94964948D01*
X159559744Y-94780267D01*
X159628561Y-94523458D01*
X159652843Y-94321389D01*
X159682335Y-93969600D01*
X159682335Y-101625791D01*
X159667600Y-101636301D01*
X159667600Y-100218000D01*
X159667600Y-98211400D01*
X159667600Y-96204800D01*
X158067400Y-96204800D01*
X156467200Y-96204800D01*
X156467200Y-96535000D01*
X156467200Y-96865200D01*
X157686400Y-96865200D01*
X158905600Y-96865200D01*
X158905600Y-97398600D01*
X158905600Y-97932000D01*
X157838800Y-97932000D01*
X156772000Y-97932000D01*
X156772000Y-98236800D01*
X156772000Y-98541600D01*
X157838800Y-98541600D01*
X158905600Y-98541600D01*
X158905600Y-99345933D01*
X158907637Y-99622089D01*
X158913263Y-99861709D01*
X158921747Y-100046730D01*
X158932359Y-100159089D01*
X158939466Y-100184133D01*
X159003936Y-100201169D01*
X159140481Y-100213332D01*
X159319602Y-100217999D01*
X159320466Y-100218000D01*
X159667600Y-100218000D01*
X159667600Y-101636301D01*
X159477354Y-101771994D01*
X159069250Y-102061190D01*
X158642745Y-102361746D01*
X158206002Y-102667957D01*
X157767186Y-102974119D01*
X157334461Y-103274527D01*
X156915990Y-103563476D01*
X156519939Y-103835260D01*
X156154471Y-104084175D01*
X155827750Y-104304516D01*
X155547940Y-104490577D01*
X155323206Y-104636655D01*
X155161712Y-104737044D01*
X155071622Y-104786039D01*
X155058065Y-104790000D01*
X154944636Y-104758909D01*
X154902560Y-104729039D01*
X154895476Y-104700087D01*
X154888916Y-104625866D01*
X154882863Y-104503282D01*
X154877299Y-104329242D01*
X154872210Y-104100651D01*
X154867579Y-103814416D01*
X154863389Y-103467442D01*
X154859624Y-103056635D01*
X154856267Y-102578901D01*
X154853304Y-102031146D01*
X154850716Y-101410276D01*
X154848489Y-100713197D01*
X154846605Y-99936815D01*
X154845048Y-99078035D01*
X154843802Y-98133764D01*
X154842852Y-97100907D01*
X154842179Y-95976371D01*
X154841769Y-94757061D01*
X154841604Y-93439883D01*
X154841600Y-93155860D01*
X154841658Y-91866502D01*
X154841849Y-90674879D01*
X154842199Y-89577128D01*
X154842732Y-88569385D01*
X154843475Y-87647785D01*
X154844451Y-86808464D01*
X154845686Y-86047557D01*
X154847206Y-85361202D01*
X154849036Y-84745533D01*
X154851200Y-84196687D01*
X154853725Y-83710799D01*
X154856635Y-83284004D01*
X154859955Y-82912440D01*
X154863711Y-82592242D01*
X154867928Y-82319545D01*
X154872631Y-82090485D01*
X154877845Y-81901199D01*
X154883595Y-81747822D01*
X154889908Y-81626489D01*
X154896807Y-81533337D01*
X154904319Y-81464502D01*
X154912467Y-81416119D01*
X154918327Y-81393120D01*
X154957412Y-81303058D01*
X155040868Y-81137723D01*
X155163233Y-80906692D01*
X155319045Y-80619539D01*
X155502843Y-80285838D01*
X155709165Y-79915165D01*
X155932548Y-79517096D01*
X156167531Y-79101203D01*
X156408652Y-78677064D01*
X156650450Y-78254253D01*
X156887462Y-77842344D01*
X157114227Y-77450913D01*
X157325282Y-77089535D01*
X157515167Y-76767784D01*
X157678419Y-76495236D01*
X157809577Y-76281466D01*
X157903178Y-76136048D01*
X157953761Y-76068558D01*
X157957139Y-76065848D01*
X158071658Y-76041341D01*
X158123681Y-76063842D01*
X158162820Y-76116454D01*
X158245601Y-76248275D01*
X158366525Y-76449592D01*
X158520094Y-76710689D01*
X158700807Y-77021850D01*
X158903168Y-77373360D01*
X159121676Y-77755505D01*
X159350833Y-78158569D01*
X159585141Y-78572836D01*
X159819099Y-78988592D01*
X160047210Y-79396121D01*
X160263975Y-79785708D01*
X160463894Y-80147638D01*
X160641469Y-80472196D01*
X160791202Y-80749666D01*
X160907592Y-80970333D01*
X160967427Y-81088112D01*
X161191600Y-81541625D01*
X161191600Y-90979022D01*
X161191600Y-90979022D01*
X161191600Y-90979022D01*
G37*
X161191600Y-90979022D02*
X161191429Y-92211065D01*
X161190906Y-93344499D01*
X161190012Y-94382313D01*
X161188729Y-95327499D01*
X161187037Y-96183046D01*
X161184920Y-96951945D01*
X161182359Y-97637186D01*
X161179335Y-98241760D01*
X161175830Y-98768655D01*
X161171825Y-99220864D01*
X161167304Y-99601375D01*
X161162246Y-99913179D01*
X161156635Y-100159267D01*
X161150451Y-100342628D01*
X161143676Y-100466253D01*
X161136292Y-100533132D01*
X161133046Y-100544929D01*
X161082350Y-100594864D01*
X160956103Y-100696094D01*
X160762470Y-100842913D01*
X160509614Y-101029618D01*
X160205700Y-101250503D01*
X159858892Y-101499863D01*
X159682335Y-101625791D01*
X159682335Y-93969600D01*
X159667600Y-93969600D01*
X159667600Y-87838979D01*
X159667600Y-86298800D01*
X159667456Y-86298800D01*
X159667456Y-83070973D01*
X159653821Y-82618996D01*
X159610134Y-82254602D01*
X159532575Y-81967216D01*
X159417323Y-81746265D01*
X159260556Y-81581175D01*
X159091324Y-81476636D01*
X158878047Y-81403816D01*
X158596396Y-81350865D01*
X158271634Y-81318181D01*
X157929024Y-81306166D01*
X157593827Y-81315221D01*
X157291307Y-81345745D01*
X157046725Y-81398141D01*
X156934023Y-81442423D01*
X156790595Y-81540883D01*
X156678652Y-81651646D01*
X156596223Y-81805240D01*
X156527072Y-82022759D01*
X156480970Y-82266588D01*
X156467200Y-82465900D01*
X156467200Y-82641200D01*
X156848200Y-82641200D01*
X157229200Y-82641200D01*
X157229200Y-82440832D01*
X157270906Y-82223179D01*
X157343500Y-82109291D01*
X157414998Y-82041120D01*
X157502625Y-81997548D01*
X157633848Y-81970072D01*
X157836135Y-81950186D01*
X157864200Y-81948076D01*
X158229855Y-81942157D01*
X158509057Y-81985440D01*
X158704617Y-82078601D01*
X158791435Y-82171060D01*
X158823009Y-82231276D01*
X158846233Y-82311687D01*
X158862329Y-82427481D01*
X158872520Y-82593846D01*
X158878027Y-82825971D01*
X158880074Y-83139044D01*
X158880200Y-83273965D01*
X158877957Y-83690762D01*
X158866389Y-84016779D01*
X158838235Y-84262818D01*
X158786236Y-84439678D01*
X158703131Y-84558159D01*
X158581660Y-84629061D01*
X158414563Y-84663185D01*
X158194579Y-84671331D01*
X157944858Y-84665358D01*
X157663005Y-84648698D01*
X157465680Y-84614090D01*
X157336046Y-84550523D01*
X157257269Y-84446986D01*
X157212513Y-84292469D01*
X157195525Y-84175290D01*
X157164248Y-83911200D01*
X156790324Y-83911200D01*
X156611578Y-83911933D01*
X156496253Y-83925755D01*
X156434351Y-83970099D01*
X156415874Y-84062395D01*
X156430826Y-84220077D01*
X156469209Y-84460577D01*
X156470544Y-84468793D01*
X156525794Y-84722342D01*
X156607321Y-84922564D01*
X156726072Y-85075011D01*
X156892996Y-85185234D01*
X157119041Y-85258785D01*
X157415155Y-85301215D01*
X157792288Y-85318077D01*
X158143600Y-85317148D01*
X158430067Y-85310916D01*
X158637935Y-85300495D01*
X158790203Y-85282536D01*
X158909867Y-85253689D01*
X159019925Y-85210605D01*
X159083400Y-85180270D01*
X159263540Y-85071544D01*
X159383263Y-84941596D01*
X159448401Y-84825600D01*
X159527989Y-84597492D01*
X159591092Y-84280850D01*
X159636219Y-83887627D01*
X159661877Y-83429778D01*
X159667456Y-83070973D01*
X159667456Y-86298800D01*
X159286600Y-86298800D01*
X158905600Y-86298800D01*
X158905600Y-87795009D01*
X158903615Y-88311822D01*
X158897625Y-88728730D01*
X158887570Y-89047352D01*
X158873393Y-89269309D01*
X158855037Y-89396217D01*
X158847797Y-89418081D01*
X158767339Y-89523157D01*
X158629516Y-89594410D01*
X158421114Y-89635793D01*
X158128919Y-89651262D01*
X158067400Y-89651600D01*
X157758977Y-89640311D01*
X157536690Y-89603808D01*
X157387324Y-89538136D01*
X157297663Y-89439342D01*
X157287002Y-89418081D01*
X157267204Y-89323272D01*
X157251606Y-89133969D01*
X157240149Y-88848553D01*
X157232777Y-88465404D01*
X157229430Y-87982904D01*
X157229200Y-87795009D01*
X157229200Y-86298800D01*
X156845014Y-86298800D01*
X156460828Y-86298800D01*
X156478102Y-87937100D01*
X156483584Y-88400069D01*
X156489664Y-88772743D01*
X156496985Y-89066424D01*
X156506189Y-89292417D01*
X156517918Y-89462025D01*
X156532815Y-89586552D01*
X156551523Y-89677302D01*
X156574683Y-89745579D01*
X156581801Y-89761666D01*
X156708452Y-89952064D01*
X156897350Y-90098290D01*
X157161043Y-90207591D01*
X157483200Y-90282242D01*
X157619320Y-90293552D01*
X157826637Y-90296132D01*
X158078033Y-90291217D01*
X158346388Y-90280038D01*
X158604584Y-90263829D01*
X158825502Y-90243822D01*
X158982023Y-90221251D01*
X159018322Y-90212456D01*
X159282944Y-90086027D01*
X159475895Y-89887600D01*
X159590564Y-89638567D01*
X159613751Y-89540519D01*
X159632047Y-89412371D01*
X159645949Y-89242490D01*
X159655955Y-89019245D01*
X159662564Y-88731006D01*
X159666273Y-88366139D01*
X159667580Y-87913015D01*
X159667600Y-87838979D01*
X159667600Y-93969600D01*
X159321117Y-93969600D01*
X158959899Y-93969600D01*
X158925752Y-94227013D01*
X158883374Y-94417911D01*
X158813208Y-94529643D01*
X158784302Y-94551504D01*
X158646264Y-94603294D01*
X158436850Y-94641191D01*
X158185673Y-94662415D01*
X157922347Y-94664184D01*
X157729801Y-94650523D01*
X157497368Y-94610548D01*
X157348656Y-94541372D01*
X157266303Y-94424060D01*
X157232949Y-94239674D01*
X157229200Y-94104473D01*
X157233710Y-93931599D01*
X157256400Y-93803534D01*
X157311008Y-93711684D01*
X157411272Y-93647451D01*
X157570931Y-93602241D01*
X157803724Y-93567456D01*
X158123388Y-93534501D01*
X158143141Y-93532630D01*
X158574782Y-93486332D01*
X158915386Y-93432995D01*
X159175514Y-93364591D01*
X159365723Y-93273090D01*
X159496573Y-93150465D01*
X159578623Y-92988688D01*
X159622432Y-92779729D01*
X159638558Y-92515560D01*
X159639624Y-92394800D01*
X159622953Y-92042493D01*
X159566719Y-91773889D01*
X159461178Y-91575562D01*
X159296584Y-91434089D01*
X159063192Y-91336044D01*
X158831745Y-91281932D01*
X158510632Y-91240977D01*
X158157303Y-91226553D01*
X157797431Y-91236920D01*
X157456692Y-91270337D01*
X157160758Y-91325064D01*
X156935305Y-91399359D01*
X156908732Y-91412301D01*
X156770334Y-91534080D01*
X156659123Y-91727406D01*
X156588402Y-91963179D01*
X156569915Y-92153500D01*
X156568800Y-92394800D01*
X156923432Y-92394800D01*
X157109462Y-92392810D01*
X157218023Y-92381000D01*
X157273242Y-92350603D01*
X157299242Y-92292854D01*
X157307947Y-92255100D01*
X157353977Y-92085099D01*
X157418306Y-91965310D01*
X157517050Y-91888517D01*
X157666323Y-91847502D01*
X157882238Y-91835048D01*
X158180910Y-91843936D01*
X158221338Y-91846003D01*
X158468753Y-91866219D01*
X158633568Y-91898540D01*
X158734456Y-91946916D01*
X158746722Y-91957138D01*
X158833913Y-92087288D01*
X158878794Y-92261327D01*
X158883298Y-92450538D01*
X158849356Y-92626203D01*
X158778902Y-92759607D01*
X158688719Y-92819119D01*
X158593494Y-92835155D01*
X158422539Y-92856735D01*
X158201363Y-92880856D01*
X157990729Y-92901314D01*
X157575388Y-92944425D01*
X157249481Y-92992336D01*
X157000844Y-93050569D01*
X156817313Y-93124645D01*
X156686724Y-93220086D01*
X156596912Y-93342413D01*
X156535716Y-93497147D01*
X156516219Y-93570623D01*
X156481272Y-93815152D01*
X156476381Y-94100413D01*
X156499011Y-94389433D01*
X156546628Y-94645239D01*
X156600506Y-94800078D01*
X156732129Y-94980883D01*
X156935396Y-95113563D01*
X157218786Y-95202365D01*
X157482239Y-95242040D01*
X157750491Y-95259182D01*
X158059319Y-95262639D01*
X158377821Y-95253632D01*
X158675095Y-95233381D01*
X158920243Y-95203106D01*
X159028007Y-95181013D01*
X159270930Y-95093274D01*
X159444355Y-94964948D01*
X159559744Y-94780267D01*
X159628561Y-94523458D01*
X159652843Y-94321389D01*
X159682335Y-93969600D01*
X159682335Y-101625791D01*
X159667600Y-101636301D01*
X159667600Y-100218000D01*
X159667600Y-98211400D01*
X159667600Y-96204800D01*
X158067400Y-96204800D01*
X156467200Y-96204800D01*
X156467200Y-96535000D01*
X156467200Y-96865200D01*
X157686400Y-96865200D01*
X158905600Y-96865200D01*
X158905600Y-97398600D01*
X158905600Y-97932000D01*
X157838800Y-97932000D01*
X156772000Y-97932000D01*
X156772000Y-98236800D01*
X156772000Y-98541600D01*
X157838800Y-98541600D01*
X158905600Y-98541600D01*
X158905600Y-99345933D01*
X158907637Y-99622089D01*
X158913263Y-99861709D01*
X158921747Y-100046730D01*
X158932359Y-100159089D01*
X158939466Y-100184133D01*
X159003936Y-100201169D01*
X159140481Y-100213332D01*
X159319602Y-100217999D01*
X159320466Y-100218000D01*
X159667600Y-100218000D01*
X159667600Y-101636301D01*
X159477354Y-101771994D01*
X159069250Y-102061190D01*
X158642745Y-102361746D01*
X158206002Y-102667957D01*
X157767186Y-102974119D01*
X157334461Y-103274527D01*
X156915990Y-103563476D01*
X156519939Y-103835260D01*
X156154471Y-104084175D01*
X155827750Y-104304516D01*
X155547940Y-104490577D01*
X155323206Y-104636655D01*
X155161712Y-104737044D01*
X155071622Y-104786039D01*
X155058065Y-104790000D01*
X154944636Y-104758909D01*
X154902560Y-104729039D01*
X154895476Y-104700087D01*
X154888916Y-104625866D01*
X154882863Y-104503282D01*
X154877299Y-104329242D01*
X154872210Y-104100651D01*
X154867579Y-103814416D01*
X154863389Y-103467442D01*
X154859624Y-103056635D01*
X154856267Y-102578901D01*
X154853304Y-102031146D01*
X154850716Y-101410276D01*
X154848489Y-100713197D01*
X154846605Y-99936815D01*
X154845048Y-99078035D01*
X154843802Y-98133764D01*
X154842852Y-97100907D01*
X154842179Y-95976371D01*
X154841769Y-94757061D01*
X154841604Y-93439883D01*
X154841600Y-93155860D01*
X154841658Y-91866502D01*
X154841849Y-90674879D01*
X154842199Y-89577128D01*
X154842732Y-88569385D01*
X154843475Y-87647785D01*
X154844451Y-86808464D01*
X154845686Y-86047557D01*
X154847206Y-85361202D01*
X154849036Y-84745533D01*
X154851200Y-84196687D01*
X154853725Y-83710799D01*
X154856635Y-83284004D01*
X154859955Y-82912440D01*
X154863711Y-82592242D01*
X154867928Y-82319545D01*
X154872631Y-82090485D01*
X154877845Y-81901199D01*
X154883595Y-81747822D01*
X154889908Y-81626489D01*
X154896807Y-81533337D01*
X154904319Y-81464502D01*
X154912467Y-81416119D01*
X154918327Y-81393120D01*
X154957412Y-81303058D01*
X155040868Y-81137723D01*
X155163233Y-80906692D01*
X155319045Y-80619539D01*
X155502843Y-80285838D01*
X155709165Y-79915165D01*
X155932548Y-79517096D01*
X156167531Y-79101203D01*
X156408652Y-78677064D01*
X156650450Y-78254253D01*
X156887462Y-77842344D01*
X157114227Y-77450913D01*
X157325282Y-77089535D01*
X157515167Y-76767784D01*
X157678419Y-76495236D01*
X157809577Y-76281466D01*
X157903178Y-76136048D01*
X157953761Y-76068558D01*
X157957139Y-76065848D01*
X158071658Y-76041341D01*
X158123681Y-76063842D01*
X158162820Y-76116454D01*
X158245601Y-76248275D01*
X158366525Y-76449592D01*
X158520094Y-76710689D01*
X158700807Y-77021850D01*
X158903168Y-77373360D01*
X159121676Y-77755505D01*
X159350833Y-78158569D01*
X159585141Y-78572836D01*
X159819099Y-78988592D01*
X160047210Y-79396121D01*
X160263975Y-79785708D01*
X160463894Y-80147638D01*
X160641469Y-80472196D01*
X160791202Y-80749666D01*
X160907592Y-80970333D01*
X160967427Y-81088112D01*
X161191600Y-81541625D01*
X161191600Y-90979022D01*
X161191600Y-90979022D01*
G36*
X147247000Y-98186000D02*
X147243304Y-98660491D01*
X147229759Y-99044907D01*
X147202683Y-99350588D01*
X147158391Y-99588871D01*
X147093198Y-99771096D01*
X147003421Y-99908600D01*
X146885376Y-100012723D01*
X146735378Y-100094801D01*
X146610553Y-100144792D01*
X146450121Y-100182888D01*
X146213915Y-100213565D01*
X145927557Y-100235816D01*
X145616673Y-100248632D01*
X145306884Y-100251003D01*
X145023815Y-100241921D01*
X144793089Y-100220378D01*
X144771831Y-100217177D01*
X144469085Y-100146469D01*
X144254040Y-100041664D01*
X144117051Y-99897750D01*
X144100460Y-99868319D01*
X144032223Y-99678866D01*
X143977344Y-99411216D01*
X143939162Y-99088278D01*
X143921018Y-98732960D01*
X143919983Y-98630500D01*
X143919600Y-98186000D01*
X144808600Y-98186000D01*
X145697600Y-98186000D01*
X145697600Y-98414600D01*
X145697600Y-98643200D01*
X145068524Y-98643200D01*
X144805430Y-98644304D01*
X144626631Y-98649398D01*
X144514834Y-98661150D01*
X144452743Y-98682229D01*
X144423063Y-98715304D01*
X144412995Y-98744361D01*
X144403848Y-98866334D01*
X144414444Y-99048883D01*
X144439844Y-99254026D01*
X144475106Y-99443784D01*
X144515291Y-99580175D01*
X144524157Y-99598978D01*
X144599828Y-99684962D01*
X144728466Y-99746577D01*
X144921205Y-99785838D01*
X145189178Y-99804761D01*
X145543518Y-99805361D01*
X145650057Y-99802796D01*
X145965134Y-99791564D01*
X146215819Y-99770490D01*
X146409409Y-99728953D01*
X146553198Y-99656334D01*
X146654484Y-99542014D01*
X146720563Y-99375371D01*
X146758731Y-99145787D01*
X146776283Y-98842640D01*
X146780517Y-98455312D01*
X146779608Y-98158687D01*
X146775123Y-97748113D01*
X146764162Y-97426674D01*
X146743929Y-97181972D01*
X146711626Y-97001610D01*
X146664457Y-96873190D01*
X146599624Y-96784313D01*
X146514330Y-96722583D01*
X146448728Y-96692008D01*
X146194111Y-96623140D01*
X145859165Y-96587468D01*
X145459956Y-96586097D01*
X145172810Y-96604193D01*
X144891324Y-96636027D01*
X144694905Y-96681906D01*
X144567051Y-96753324D01*
X144491261Y-96861773D01*
X144451034Y-97018749D01*
X144439487Y-97114960D01*
X144414673Y-97373200D01*
X144159899Y-97373200D01*
X143905126Y-97373200D01*
X143937937Y-97059277D01*
X143996882Y-96743558D01*
X144097616Y-96503183D01*
X144235853Y-96347214D01*
X144289734Y-96315448D01*
X144510285Y-96243439D01*
X144814557Y-96193014D01*
X145186657Y-96165782D01*
X145610688Y-96163353D01*
X145748400Y-96167814D01*
X146159118Y-96196529D01*
X146482510Y-96248855D01*
X146731261Y-96330507D01*
X146918057Y-96447197D01*
X147055582Y-96604642D01*
X147153564Y-96800826D01*
X147184657Y-96893334D01*
X147208128Y-96998278D01*
X147225001Y-97130832D01*
X147236300Y-97306169D01*
X147243048Y-97539465D01*
X147246270Y-97845894D01*
X147247000Y-98186000D01*
X147247000Y-98186000D01*
X147247000Y-98186000D01*
G37*
X147247000Y-98186000D02*
X147243304Y-98660491D01*
X147229759Y-99044907D01*
X147202683Y-99350588D01*
X147158391Y-99588871D01*
X147093198Y-99771096D01*
X147003421Y-99908600D01*
X146885376Y-100012723D01*
X146735378Y-100094801D01*
X146610553Y-100144792D01*
X146450121Y-100182888D01*
X146213915Y-100213565D01*
X145927557Y-100235816D01*
X145616673Y-100248632D01*
X145306884Y-100251003D01*
X145023815Y-100241921D01*
X144793089Y-100220378D01*
X144771831Y-100217177D01*
X144469085Y-100146469D01*
X144254040Y-100041664D01*
X144117051Y-99897750D01*
X144100460Y-99868319D01*
X144032223Y-99678866D01*
X143977344Y-99411216D01*
X143939162Y-99088278D01*
X143921018Y-98732960D01*
X143919983Y-98630500D01*
X143919600Y-98186000D01*
X144808600Y-98186000D01*
X145697600Y-98186000D01*
X145697600Y-98414600D01*
X145697600Y-98643200D01*
X145068524Y-98643200D01*
X144805430Y-98644304D01*
X144626631Y-98649398D01*
X144514834Y-98661150D01*
X144452743Y-98682229D01*
X144423063Y-98715304D01*
X144412995Y-98744361D01*
X144403848Y-98866334D01*
X144414444Y-99048883D01*
X144439844Y-99254026D01*
X144475106Y-99443784D01*
X144515291Y-99580175D01*
X144524157Y-99598978D01*
X144599828Y-99684962D01*
X144728466Y-99746577D01*
X144921205Y-99785838D01*
X145189178Y-99804761D01*
X145543518Y-99805361D01*
X145650057Y-99802796D01*
X145965134Y-99791564D01*
X146215819Y-99770490D01*
X146409409Y-99728953D01*
X146553198Y-99656334D01*
X146654484Y-99542014D01*
X146720563Y-99375371D01*
X146758731Y-99145787D01*
X146776283Y-98842640D01*
X146780517Y-98455312D01*
X146779608Y-98158687D01*
X146775123Y-97748113D01*
X146764162Y-97426674D01*
X146743929Y-97181972D01*
X146711626Y-97001610D01*
X146664457Y-96873190D01*
X146599624Y-96784313D01*
X146514330Y-96722583D01*
X146448728Y-96692008D01*
X146194111Y-96623140D01*
X145859165Y-96587468D01*
X145459956Y-96586097D01*
X145172810Y-96604193D01*
X144891324Y-96636027D01*
X144694905Y-96681906D01*
X144567051Y-96753324D01*
X144491261Y-96861773D01*
X144451034Y-97018749D01*
X144439487Y-97114960D01*
X144414673Y-97373200D01*
X144159899Y-97373200D01*
X143905126Y-97373200D01*
X143937937Y-97059277D01*
X143996882Y-96743558D01*
X144097616Y-96503183D01*
X144235853Y-96347214D01*
X144289734Y-96315448D01*
X144510285Y-96243439D01*
X144814557Y-96193014D01*
X145186657Y-96165782D01*
X145610688Y-96163353D01*
X145748400Y-96167814D01*
X146159118Y-96196529D01*
X146482510Y-96248855D01*
X146731261Y-96330507D01*
X146918057Y-96447197D01*
X147055582Y-96604642D01*
X147153564Y-96800826D01*
X147184657Y-96893334D01*
X147208128Y-96998278D01*
X147225001Y-97130832D01*
X147236300Y-97306169D01*
X147243048Y-97539465D01*
X147246270Y-97845894D01*
X147247000Y-98186000D01*
X147247000Y-98186000D01*
G36*
X137366400Y-96662000D02*
X136731400Y-96662000D01*
X136096400Y-96662000D01*
X136096400Y-98440000D01*
X136096400Y-100218000D01*
X135842400Y-100218000D01*
X135588400Y-100218000D01*
X135588400Y-98440000D01*
X135588400Y-96662000D01*
X134953400Y-96662000D01*
X134318400Y-96662000D01*
X134318400Y-96433400D01*
X134318400Y-96204800D01*
X135842400Y-96204800D01*
X137366400Y-96204800D01*
X137366400Y-96433400D01*
X137366400Y-96662000D01*
X137366400Y-96662000D01*
X137366400Y-96662000D01*
G37*
X137366400Y-96662000D02*
X136731400Y-96662000D01*
X136096400Y-96662000D01*
X136096400Y-98440000D01*
X136096400Y-100218000D01*
X135842400Y-100218000D01*
X135588400Y-100218000D01*
X135588400Y-98440000D01*
X135588400Y-96662000D01*
X134953400Y-96662000D01*
X134318400Y-96662000D01*
X134318400Y-96433400D01*
X134318400Y-96204800D01*
X135842400Y-96204800D01*
X137366400Y-96204800D01*
X137366400Y-96433400D01*
X137366400Y-96662000D01*
X137366400Y-96662000D01*
G36*
X142192400Y-100218000D02*
X141963800Y-100218000D01*
X141735200Y-100218000D01*
X141735200Y-99303600D01*
X141735200Y-98389200D01*
X140592200Y-98389200D01*
X139449200Y-98389200D01*
X139449200Y-99303600D01*
X139449200Y-100218000D01*
X139195200Y-100218000D01*
X138941200Y-100218000D01*
X138941200Y-98211400D01*
X138941200Y-96204800D01*
X139195200Y-96204800D01*
X139449200Y-96204800D01*
X139449200Y-97068400D01*
X139449200Y-97932000D01*
X140592200Y-97932000D01*
X141735200Y-97932000D01*
X141735200Y-97068400D01*
X141735200Y-96204800D01*
X141963800Y-96204800D01*
X142192400Y-96204800D01*
X142192400Y-98211400D01*
X142192400Y-100218000D01*
X142192400Y-100218000D01*
X142192400Y-100218000D01*
G37*
X142192400Y-100218000D02*
X141963800Y-100218000D01*
X141735200Y-100218000D01*
X141735200Y-99303600D01*
X141735200Y-98389200D01*
X140592200Y-98389200D01*
X139449200Y-98389200D01*
X139449200Y-99303600D01*
X139449200Y-100218000D01*
X139195200Y-100218000D01*
X138941200Y-100218000D01*
X138941200Y-98211400D01*
X138941200Y-96204800D01*
X139195200Y-96204800D01*
X139449200Y-96204800D01*
X139449200Y-97068400D01*
X139449200Y-97932000D01*
X140592200Y-97932000D01*
X141735200Y-97932000D01*
X141735200Y-97068400D01*
X141735200Y-96204800D01*
X141963800Y-96204800D01*
X142192400Y-96204800D01*
X142192400Y-98211400D01*
X142192400Y-100218000D01*
X142192400Y-100218000D01*
G36*
X149507600Y-100218000D02*
X149279000Y-100218000D01*
X149050400Y-100218000D01*
X149050400Y-98211400D01*
X149050400Y-96204800D01*
X149279000Y-96204800D01*
X149507600Y-96204800D01*
X149507600Y-98211400D01*
X149507600Y-100218000D01*
X149507600Y-100218000D01*
X149507600Y-100218000D01*
G37*
X149507600Y-100218000D02*
X149279000Y-100218000D01*
X149050400Y-100218000D01*
X149050400Y-98211400D01*
X149050400Y-96204800D01*
X149279000Y-96204800D01*
X149507600Y-96204800D01*
X149507600Y-98211400D01*
X149507600Y-100218000D01*
X149507600Y-100218000D01*
G36*
X153622400Y-100218000D02*
X152352400Y-100218000D01*
X151082400Y-100218000D01*
X151082400Y-99989400D01*
X151082400Y-99760800D01*
X152098400Y-99760800D01*
X153114400Y-99760800D01*
X153114400Y-97982800D01*
X153114400Y-96204800D01*
X153368400Y-96204800D01*
X153622400Y-96204800D01*
X153622400Y-98211400D01*
X153622400Y-100218000D01*
X153622400Y-100218000D01*
X153622400Y-100218000D01*
G37*
X153622400Y-100218000D02*
X152352400Y-100218000D01*
X151082400Y-100218000D01*
X151082400Y-99989400D01*
X151082400Y-99760800D01*
X152098400Y-99760800D01*
X153114400Y-99760800D01*
X153114400Y-97982800D01*
X153114400Y-96204800D01*
X153368400Y-96204800D01*
X153622400Y-96204800D01*
X153622400Y-98211400D01*
X153622400Y-100218000D01*
X153622400Y-100218000D01*
G36*
X142471800Y-93080600D02*
X142469086Y-93541168D01*
X142459736Y-93912923D01*
X142441938Y-94208537D01*
X142413880Y-94440682D01*
X142373749Y-94622029D01*
X142319734Y-94765252D01*
X142250021Y-94883021D01*
X142205940Y-94939629D01*
X142098557Y-95050425D01*
X141977879Y-95132893D01*
X141826902Y-95191507D01*
X141628626Y-95230742D01*
X141366048Y-95255074D01*
X141022167Y-95268977D01*
X140947800Y-95270774D01*
X140534240Y-95273230D01*
X140199511Y-95260752D01*
X139953107Y-95233771D01*
X139898410Y-95223044D01*
X139664002Y-95151680D01*
X139494480Y-95048885D01*
X139378861Y-94898664D01*
X139306165Y-94685021D01*
X139265409Y-94391961D01*
X139258025Y-94290306D01*
X139231678Y-93868000D01*
X139492839Y-93868000D01*
X139754000Y-93868000D01*
X139754000Y-94195367D01*
X139761236Y-94393683D01*
X139788826Y-94526063D01*
X139845589Y-94627516D01*
X139870633Y-94658329D01*
X139934946Y-94722432D01*
X140012070Y-94766579D01*
X140125496Y-94797803D01*
X140298717Y-94823135D01*
X140487759Y-94843064D01*
X140874405Y-94863625D01*
X141217962Y-94847597D01*
X141500849Y-94796920D01*
X141705486Y-94713535D01*
X141714701Y-94707659D01*
X141788083Y-94641750D01*
X141845598Y-94543700D01*
X141889058Y-94401999D01*
X141920271Y-94205137D01*
X141941049Y-93941605D01*
X141953201Y-93599893D01*
X141958537Y-93168491D01*
X141958597Y-93156800D01*
X141958634Y-92753765D01*
X141952518Y-92439655D01*
X141937683Y-92201855D01*
X141911561Y-92027753D01*
X141871585Y-91904735D01*
X141815185Y-91820188D01*
X141739796Y-91761499D01*
X141667342Y-91726057D01*
X141528633Y-91692299D01*
X141298003Y-91670180D01*
X140971773Y-91659416D01*
X140784111Y-91658200D01*
X140497503Y-91659171D01*
X140294349Y-91663711D01*
X140156508Y-91674262D01*
X140065840Y-91693264D01*
X140004205Y-91723158D01*
X139953462Y-91766384D01*
X139949295Y-91770526D01*
X139875129Y-91877601D01*
X139831951Y-92033282D01*
X139814778Y-92189626D01*
X139792588Y-92496400D01*
X139537326Y-92496400D01*
X139282064Y-92496400D01*
X139312164Y-92137360D01*
X139359605Y-91838326D01*
X139451840Y-91601881D01*
X139597222Y-91423201D01*
X139804104Y-91297466D01*
X140080837Y-91219853D01*
X140435776Y-91185540D01*
X140877272Y-91189707D01*
X140947800Y-91193157D01*
X141379466Y-91230080D01*
X141723291Y-91293021D01*
X141990715Y-91386429D01*
X142193180Y-91514753D01*
X142342128Y-91682441D01*
X142383914Y-91751585D01*
X142412685Y-91815722D01*
X142434529Y-91898407D01*
X142450360Y-92013439D01*
X142461089Y-92174618D01*
X142467631Y-92395745D01*
X142470897Y-92690620D01*
X142471799Y-93073044D01*
X142471800Y-93080600D01*
X142471800Y-93080600D01*
X142471800Y-93080600D01*
G37*
X142471800Y-93080600D02*
X142469086Y-93541168D01*
X142459736Y-93912923D01*
X142441938Y-94208537D01*
X142413880Y-94440682D01*
X142373749Y-94622029D01*
X142319734Y-94765252D01*
X142250021Y-94883021D01*
X142205940Y-94939629D01*
X142098557Y-95050425D01*
X141977879Y-95132893D01*
X141826902Y-95191507D01*
X141628626Y-95230742D01*
X141366048Y-95255074D01*
X141022167Y-95268977D01*
X140947800Y-95270774D01*
X140534240Y-95273230D01*
X140199511Y-95260752D01*
X139953107Y-95233771D01*
X139898410Y-95223044D01*
X139664002Y-95151680D01*
X139494480Y-95048885D01*
X139378861Y-94898664D01*
X139306165Y-94685021D01*
X139265409Y-94391961D01*
X139258025Y-94290306D01*
X139231678Y-93868000D01*
X139492839Y-93868000D01*
X139754000Y-93868000D01*
X139754000Y-94195367D01*
X139761236Y-94393683D01*
X139788826Y-94526063D01*
X139845589Y-94627516D01*
X139870633Y-94658329D01*
X139934946Y-94722432D01*
X140012070Y-94766579D01*
X140125496Y-94797803D01*
X140298717Y-94823135D01*
X140487759Y-94843064D01*
X140874405Y-94863625D01*
X141217962Y-94847597D01*
X141500849Y-94796920D01*
X141705486Y-94713535D01*
X141714701Y-94707659D01*
X141788083Y-94641750D01*
X141845598Y-94543700D01*
X141889058Y-94401999D01*
X141920271Y-94205137D01*
X141941049Y-93941605D01*
X141953201Y-93599893D01*
X141958537Y-93168491D01*
X141958597Y-93156800D01*
X141958634Y-92753765D01*
X141952518Y-92439655D01*
X141937683Y-92201855D01*
X141911561Y-92027753D01*
X141871585Y-91904735D01*
X141815185Y-91820188D01*
X141739796Y-91761499D01*
X141667342Y-91726057D01*
X141528633Y-91692299D01*
X141298003Y-91670180D01*
X140971773Y-91659416D01*
X140784111Y-91658200D01*
X140497503Y-91659171D01*
X140294349Y-91663711D01*
X140156508Y-91674262D01*
X140065840Y-91693264D01*
X140004205Y-91723158D01*
X139953462Y-91766384D01*
X139949295Y-91770526D01*
X139875129Y-91877601D01*
X139831951Y-92033282D01*
X139814778Y-92189626D01*
X139792588Y-92496400D01*
X139537326Y-92496400D01*
X139282064Y-92496400D01*
X139312164Y-92137360D01*
X139359605Y-91838326D01*
X139451840Y-91601881D01*
X139597222Y-91423201D01*
X139804104Y-91297466D01*
X140080837Y-91219853D01*
X140435776Y-91185540D01*
X140877272Y-91189707D01*
X140947800Y-91193157D01*
X141379466Y-91230080D01*
X141723291Y-91293021D01*
X141990715Y-91386429D01*
X142193180Y-91514753D01*
X142342128Y-91682441D01*
X142383914Y-91751585D01*
X142412685Y-91815722D01*
X142434529Y-91898407D01*
X142450360Y-92013439D01*
X142461089Y-92174618D01*
X142467631Y-92395745D01*
X142470897Y-92690620D01*
X142471799Y-93073044D01*
X142471800Y-93080600D01*
X142471800Y-93080600D01*
G36*
X136909200Y-95239600D02*
X135588400Y-95239600D01*
X134267600Y-95239600D01*
X134267600Y-95036400D01*
X134267600Y-94833200D01*
X135334400Y-94833200D01*
X136401200Y-94833200D01*
X136401200Y-94122000D01*
X136401200Y-93410800D01*
X135385200Y-93410800D01*
X134369200Y-93410800D01*
X134369200Y-93182200D01*
X134369200Y-92953600D01*
X135385200Y-92953600D01*
X136401200Y-92953600D01*
X136401200Y-92293200D01*
X136401200Y-91632800D01*
X135334400Y-91632800D01*
X134267600Y-91632800D01*
X134267600Y-91429600D01*
X134267600Y-91226400D01*
X135588400Y-91226400D01*
X136909200Y-91226400D01*
X136909200Y-93233000D01*
X136909200Y-95239600D01*
X136909200Y-95239600D01*
X136909200Y-95239600D01*
G37*
X136909200Y-95239600D02*
X135588400Y-95239600D01*
X134267600Y-95239600D01*
X134267600Y-95036400D01*
X134267600Y-94833200D01*
X135334400Y-94833200D01*
X136401200Y-94833200D01*
X136401200Y-94122000D01*
X136401200Y-93410800D01*
X135385200Y-93410800D01*
X134369200Y-93410800D01*
X134369200Y-93182200D01*
X134369200Y-92953600D01*
X135385200Y-92953600D01*
X136401200Y-92953600D01*
X136401200Y-92293200D01*
X136401200Y-91632800D01*
X135334400Y-91632800D01*
X134267600Y-91632800D01*
X134267600Y-91429600D01*
X134267600Y-91226400D01*
X135588400Y-91226400D01*
X136909200Y-91226400D01*
X136909200Y-93233000D01*
X136909200Y-95239600D01*
X136909200Y-95239600D01*
G36*
X148371853Y-95202472D02*
X148326380Y-95229238D01*
X148210274Y-95238751D01*
X148126723Y-95239468D01*
X147856600Y-95239336D01*
X147712739Y-94832007D01*
X147568878Y-94424679D01*
X147420246Y-94426737D01*
X147420246Y-94020400D01*
X147302206Y-93702900D01*
X147244466Y-93545574D01*
X147161536Y-93316939D01*
X147062230Y-93041423D01*
X146955364Y-92743458D01*
X146889749Y-92559767D01*
X146793053Y-92291881D01*
X146707875Y-92062103D01*
X146639985Y-91885506D01*
X146595157Y-91777161D01*
X146579587Y-91749879D01*
X146558363Y-91800117D01*
X146507786Y-91931894D01*
X146433083Y-92131217D01*
X146339483Y-92384091D01*
X146232216Y-92676522D01*
X146185679Y-92804112D01*
X146072656Y-93114168D01*
X145969842Y-93395613D01*
X145882847Y-93633135D01*
X145817285Y-93811420D01*
X145778767Y-93915155D01*
X145772523Y-93931500D01*
X145766243Y-93964284D01*
X145786296Y-93987871D01*
X145846285Y-94003760D01*
X145959812Y-94013450D01*
X146140480Y-94018441D01*
X146401892Y-94020234D01*
X146578888Y-94020400D01*
X147420246Y-94020400D01*
X147420246Y-94426737D01*
X146575585Y-94438439D01*
X145582291Y-94452200D01*
X145432454Y-94845900D01*
X145282616Y-95239600D01*
X145032908Y-95239600D01*
X144889410Y-95231776D01*
X144799117Y-95211806D01*
X144783200Y-95196810D01*
X144800490Y-95141471D01*
X144849859Y-95001286D01*
X144927553Y-94786481D01*
X145029819Y-94507283D01*
X145152905Y-94173919D01*
X145293057Y-93796613D01*
X145446523Y-93385593D01*
X145514968Y-93202910D01*
X146246737Y-91251800D01*
X146593080Y-91251800D01*
X146939424Y-91251800D01*
X147639029Y-93156800D01*
X147793177Y-93576775D01*
X147937010Y-93969099D01*
X148066603Y-94323032D01*
X148178033Y-94627840D01*
X148267376Y-94872784D01*
X148330708Y-95047129D01*
X148364104Y-95140138D01*
X148367740Y-95150700D01*
X148371853Y-95202472D01*
X148371853Y-95202472D01*
X148371853Y-95202472D01*
G37*
X148371853Y-95202472D02*
X148326380Y-95229238D01*
X148210274Y-95238751D01*
X148126723Y-95239468D01*
X147856600Y-95239336D01*
X147712739Y-94832007D01*
X147568878Y-94424679D01*
X147420246Y-94426737D01*
X147420246Y-94020400D01*
X147302206Y-93702900D01*
X147244466Y-93545574D01*
X147161536Y-93316939D01*
X147062230Y-93041423D01*
X146955364Y-92743458D01*
X146889749Y-92559767D01*
X146793053Y-92291881D01*
X146707875Y-92062103D01*
X146639985Y-91885506D01*
X146595157Y-91777161D01*
X146579587Y-91749879D01*
X146558363Y-91800117D01*
X146507786Y-91931894D01*
X146433083Y-92131217D01*
X146339483Y-92384091D01*
X146232216Y-92676522D01*
X146185679Y-92804112D01*
X146072656Y-93114168D01*
X145969842Y-93395613D01*
X145882847Y-93633135D01*
X145817285Y-93811420D01*
X145778767Y-93915155D01*
X145772523Y-93931500D01*
X145766243Y-93964284D01*
X145786296Y-93987871D01*
X145846285Y-94003760D01*
X145959812Y-94013450D01*
X146140480Y-94018441D01*
X146401892Y-94020234D01*
X146578888Y-94020400D01*
X147420246Y-94020400D01*
X147420246Y-94426737D01*
X146575585Y-94438439D01*
X145582291Y-94452200D01*
X145432454Y-94845900D01*
X145282616Y-95239600D01*
X145032908Y-95239600D01*
X144889410Y-95231776D01*
X144799117Y-95211806D01*
X144783200Y-95196810D01*
X144800490Y-95141471D01*
X144849859Y-95001286D01*
X144927553Y-94786481D01*
X145029819Y-94507283D01*
X145152905Y-94173919D01*
X145293057Y-93796613D01*
X145446523Y-93385593D01*
X145514968Y-93202910D01*
X146246737Y-91251800D01*
X146593080Y-91251800D01*
X146939424Y-91251800D01*
X147639029Y-93156800D01*
X147793177Y-93576775D01*
X147937010Y-93969099D01*
X148066603Y-94323032D01*
X148178033Y-94627840D01*
X148267376Y-94872784D01*
X148330708Y-95047129D01*
X148364104Y-95140138D01*
X148367740Y-95150700D01*
X148371853Y-95202472D01*
X148371853Y-95202472D01*
G36*
X153622400Y-95239600D02*
X153368400Y-95239600D01*
X153114400Y-95239600D01*
X153114400Y-94455279D01*
X153114400Y-93670958D01*
X153114400Y-93258400D01*
X153114400Y-92445600D01*
X153114400Y-91632800D01*
X152466700Y-91636508D01*
X152042982Y-91644595D01*
X151712183Y-91664155D01*
X151466154Y-91696258D01*
X151296747Y-91741972D01*
X151195814Y-91802369D01*
X151194659Y-91803512D01*
X151148213Y-91877686D01*
X151117064Y-92002702D01*
X151097425Y-92198267D01*
X151089953Y-92348213D01*
X151084551Y-92614319D01*
X151098872Y-92821638D01*
X151143870Y-92977633D01*
X151230499Y-93089765D01*
X151369711Y-93165494D01*
X151572460Y-93212284D01*
X151849698Y-93237595D01*
X152212380Y-93248889D01*
X152415900Y-93251481D01*
X153114400Y-93258400D01*
X153114400Y-93670958D01*
X152161900Y-93655179D01*
X151767808Y-93645820D01*
X151461250Y-93629719D01*
X151228197Y-93602847D01*
X151054619Y-93561174D01*
X150926486Y-93500669D01*
X150829768Y-93417305D01*
X150750436Y-93307050D01*
X150711907Y-93238709D01*
X150660885Y-93128827D01*
X150628047Y-93012044D01*
X150609664Y-92862552D01*
X150602009Y-92654542D01*
X150601024Y-92471000D01*
X150613142Y-92123063D01*
X150652340Y-91857237D01*
X150724036Y-91656369D01*
X150833645Y-91503307D01*
X150933931Y-91416806D01*
X151028930Y-91358176D01*
X151142701Y-91312715D01*
X151288651Y-91278846D01*
X151480190Y-91254992D01*
X151730725Y-91239577D01*
X152053664Y-91231024D01*
X152462415Y-91227756D01*
X152542900Y-91227611D01*
X153622400Y-91226400D01*
X153622400Y-93233000D01*
X153622400Y-95239600D01*
X153622400Y-95239600D01*
X153622400Y-95239600D01*
G37*
X153622400Y-95239600D02*
X153368400Y-95239600D01*
X153114400Y-95239600D01*
X153114400Y-94455279D01*
X153114400Y-93670958D01*
X153114400Y-93258400D01*
X153114400Y-92445600D01*
X153114400Y-91632800D01*
X152466700Y-91636508D01*
X152042982Y-91644595D01*
X151712183Y-91664155D01*
X151466154Y-91696258D01*
X151296747Y-91741972D01*
X151195814Y-91802369D01*
X151194659Y-91803512D01*
X151148213Y-91877686D01*
X151117064Y-92002702D01*
X151097425Y-92198267D01*
X151089953Y-92348213D01*
X151084551Y-92614319D01*
X151098872Y-92821638D01*
X151143870Y-92977633D01*
X151230499Y-93089765D01*
X151369711Y-93165494D01*
X151572460Y-93212284D01*
X151849698Y-93237595D01*
X152212380Y-93248889D01*
X152415900Y-93251481D01*
X153114400Y-93258400D01*
X153114400Y-93670958D01*
X152161900Y-93655179D01*
X151767808Y-93645820D01*
X151461250Y-93629719D01*
X151228197Y-93602847D01*
X151054619Y-93561174D01*
X150926486Y-93500669D01*
X150829768Y-93417305D01*
X150750436Y-93307050D01*
X150711907Y-93238709D01*
X150660885Y-93128827D01*
X150628047Y-93012044D01*
X150609664Y-92862552D01*
X150602009Y-92654542D01*
X150601024Y-92471000D01*
X150613142Y-92123063D01*
X150652340Y-91857237D01*
X150724036Y-91656369D01*
X150833645Y-91503307D01*
X150933931Y-91416806D01*
X151028930Y-91358176D01*
X151142701Y-91312715D01*
X151288651Y-91278846D01*
X151480190Y-91254992D01*
X151730725Y-91239577D01*
X152053664Y-91231024D01*
X152462415Y-91227756D01*
X152542900Y-91227611D01*
X153622400Y-91226400D01*
X153622400Y-93233000D01*
X153622400Y-95239600D01*
X153622400Y-95239600D01*
G36*
X121313600Y-86271245D02*
X121287530Y-86319963D01*
X121213997Y-86443073D01*
X121100013Y-86629205D01*
X120952590Y-86866992D01*
X120778741Y-87145064D01*
X120585478Y-87452052D01*
X120577000Y-87465473D01*
X119840400Y-88631386D01*
X119840400Y-89471693D01*
X119840400Y-90312000D01*
X119586400Y-90312000D01*
X119332400Y-90312000D01*
X119332400Y-89460363D01*
X119332399Y-88608726D01*
X118595799Y-87474175D01*
X118399839Y-87170689D01*
X118223496Y-86894409D01*
X118074017Y-86656943D01*
X117958647Y-86469902D01*
X117884631Y-86344898D01*
X117859199Y-86293812D01*
X117905109Y-86268599D01*
X118023414Y-86251959D01*
X118135445Y-86248000D01*
X118411690Y-86248000D01*
X118986345Y-87159000D01*
X119167904Y-87441627D01*
X119327448Y-87679856D01*
X119457747Y-87863573D01*
X119551571Y-87982662D01*
X119601687Y-88027007D01*
X119606010Y-88025849D01*
X119645956Y-87970983D01*
X119730927Y-87843911D01*
X119851913Y-87658463D01*
X119999901Y-87428471D01*
X120165879Y-87167766D01*
X120191338Y-87127549D01*
X120731656Y-86273400D01*
X121022628Y-86258164D01*
X121179070Y-86254444D01*
X121284695Y-86260491D01*
X121313600Y-86271245D01*
X121313600Y-86271245D01*
X121313600Y-86271245D01*
G37*
X121313600Y-86271245D02*
X121287530Y-86319963D01*
X121213997Y-86443073D01*
X121100013Y-86629205D01*
X120952590Y-86866992D01*
X120778741Y-87145064D01*
X120585478Y-87452052D01*
X120577000Y-87465473D01*
X119840400Y-88631386D01*
X119840400Y-89471693D01*
X119840400Y-90312000D01*
X119586400Y-90312000D01*
X119332400Y-90312000D01*
X119332400Y-89460363D01*
X119332399Y-88608726D01*
X118595799Y-87474175D01*
X118399839Y-87170689D01*
X118223496Y-86894409D01*
X118074017Y-86656943D01*
X117958647Y-86469902D01*
X117884631Y-86344898D01*
X117859199Y-86293812D01*
X117905109Y-86268599D01*
X118023414Y-86251959D01*
X118135445Y-86248000D01*
X118411690Y-86248000D01*
X118986345Y-87159000D01*
X119167904Y-87441627D01*
X119327448Y-87679856D01*
X119457747Y-87863573D01*
X119551571Y-87982662D01*
X119601687Y-88027007D01*
X119606010Y-88025849D01*
X119645956Y-87970983D01*
X119730927Y-87843911D01*
X119851913Y-87658463D01*
X119999901Y-87428471D01*
X120165879Y-87167766D01*
X120191338Y-87127549D01*
X120731656Y-86273400D01*
X121022628Y-86258164D01*
X121179070Y-86254444D01*
X121284695Y-86260491D01*
X121313600Y-86271245D01*
X121313600Y-86271245D01*
G36*
X125530000Y-86705200D02*
X124895000Y-86705200D01*
X124260000Y-86705200D01*
X124260000Y-88508600D01*
X124260000Y-90312000D01*
X124006000Y-90312000D01*
X123752000Y-90312000D01*
X123752000Y-88508600D01*
X123752000Y-86705200D01*
X123091600Y-86705200D01*
X122431200Y-86705200D01*
X122431200Y-86476600D01*
X122431200Y-86248000D01*
X123980600Y-86248000D01*
X125530000Y-86248000D01*
X125530000Y-86476600D01*
X125530000Y-86705200D01*
X125530000Y-86705200D01*
X125530000Y-86705200D01*
G37*
X125530000Y-86705200D02*
X124895000Y-86705200D01*
X124260000Y-86705200D01*
X124260000Y-88508600D01*
X124260000Y-90312000D01*
X124006000Y-90312000D01*
X123752000Y-90312000D01*
X123752000Y-88508600D01*
X123752000Y-86705200D01*
X123091600Y-86705200D01*
X122431200Y-86705200D01*
X122431200Y-86476600D01*
X122431200Y-86248000D01*
X123980600Y-86248000D01*
X125530000Y-86248000D01*
X125530000Y-86476600D01*
X125530000Y-86705200D01*
X125530000Y-86705200D01*
G36*
X127612800Y-90312000D02*
X127358800Y-90312000D01*
X127104800Y-90312000D01*
X127104800Y-88280000D01*
X127104800Y-86248000D01*
X127358800Y-86248000D01*
X127612800Y-86248000D01*
X127612800Y-88280000D01*
X127612800Y-90312000D01*
X127612800Y-90312000D01*
X127612800Y-90312000D01*
G37*
X127612800Y-90312000D02*
X127358800Y-90312000D01*
X127104800Y-90312000D01*
X127104800Y-88280000D01*
X127104800Y-86248000D01*
X127358800Y-86248000D01*
X127612800Y-86248000D01*
X127612800Y-88280000D01*
X127612800Y-90312000D01*
X127612800Y-90312000D01*
G36*
X132351864Y-88991200D02*
X132322936Y-89373692D01*
X132280541Y-89680085D01*
X132200524Y-89906683D01*
X132073725Y-90071219D01*
X131903985Y-90185000D01*
X131812644Y-90224568D01*
X131707888Y-90253157D01*
X131571013Y-90272846D01*
X131383316Y-90285719D01*
X131126092Y-90293856D01*
X130889400Y-90297923D01*
X130525531Y-90299549D01*
X130247485Y-90292332D01*
X130039789Y-90275349D01*
X129886976Y-90247674D01*
X129844105Y-90235453D01*
X129628190Y-90136730D01*
X129471188Y-89989621D01*
X129366870Y-89782101D01*
X129309004Y-89502144D01*
X129291429Y-89168664D01*
X129302049Y-88844002D01*
X129340974Y-88599364D01*
X129412699Y-88416004D01*
X129500578Y-88296694D01*
X129580495Y-88227514D01*
X129685319Y-88171600D01*
X129829480Y-88125593D01*
X130027410Y-88086136D01*
X130293539Y-88049871D01*
X130642299Y-88013439D01*
X130768351Y-88001686D01*
X131108506Y-87968259D01*
X131361240Y-87934398D01*
X131540532Y-87893219D01*
X131660355Y-87837835D01*
X131734685Y-87761361D01*
X131777499Y-87656910D01*
X131802771Y-87517598D01*
X131806285Y-87490301D01*
X131821461Y-87203770D01*
X131779822Y-86988756D01*
X131672571Y-86836027D01*
X131490909Y-86736351D01*
X131226041Y-86680495D01*
X131018888Y-86663950D01*
X130620015Y-86658094D01*
X130315605Y-86683476D01*
X130103338Y-86740420D01*
X130000400Y-86806800D01*
X129934882Y-86914502D01*
X129883014Y-87072222D01*
X129871293Y-87133338D01*
X129836463Y-87365600D01*
X129582378Y-87365600D01*
X129328293Y-87365600D01*
X129363710Y-87073500D01*
X129428293Y-86773381D01*
X129543315Y-86552111D01*
X129715773Y-86396692D01*
X129734029Y-86385679D01*
X129909489Y-86319167D01*
X130160408Y-86271144D01*
X130462293Y-86241862D01*
X130790652Y-86231573D01*
X131120993Y-86240529D01*
X131428824Y-86268981D01*
X131689654Y-86317183D01*
X131834135Y-86364062D01*
X132024948Y-86477547D01*
X132159083Y-86639741D01*
X132242626Y-86863908D01*
X132281665Y-87163309D01*
X132286400Y-87349412D01*
X132268309Y-87659764D01*
X132207897Y-87908363D01*
X132095957Y-88102315D01*
X131923279Y-88248721D01*
X131680657Y-88354687D01*
X131358880Y-88427317D01*
X130948742Y-88473714D01*
X130817087Y-88482954D01*
X130549527Y-88503728D01*
X130307957Y-88529645D01*
X130115964Y-88557676D01*
X129997132Y-88584794D01*
X129984144Y-88589876D01*
X129881484Y-88662078D01*
X129816576Y-88778320D01*
X129783476Y-88956890D01*
X129776242Y-89216076D01*
X129776416Y-89229080D01*
X129805952Y-89506256D01*
X129887101Y-89700018D01*
X130022822Y-89816144D01*
X130089942Y-89841293D01*
X130210879Y-89859328D01*
X130405503Y-89871566D01*
X130646067Y-89878025D01*
X130904825Y-89878725D01*
X131154030Y-89873684D01*
X131365936Y-89862922D01*
X131512796Y-89846458D01*
X131540447Y-89840291D01*
X131675421Y-89752229D01*
X131772106Y-89583225D01*
X131823111Y-89349124D01*
X131829200Y-89221431D01*
X131829200Y-88991200D01*
X132090532Y-88991200D01*
X132351864Y-88991200D01*
X132351864Y-88991200D01*
X132351864Y-88991200D01*
G37*
X132351864Y-88991200D02*
X132322936Y-89373692D01*
X132280541Y-89680085D01*
X132200524Y-89906683D01*
X132073725Y-90071219D01*
X131903985Y-90185000D01*
X131812644Y-90224568D01*
X131707888Y-90253157D01*
X131571013Y-90272846D01*
X131383316Y-90285719D01*
X131126092Y-90293856D01*
X130889400Y-90297923D01*
X130525531Y-90299549D01*
X130247485Y-90292332D01*
X130039789Y-90275349D01*
X129886976Y-90247674D01*
X129844105Y-90235453D01*
X129628190Y-90136730D01*
X129471188Y-89989621D01*
X129366870Y-89782101D01*
X129309004Y-89502144D01*
X129291429Y-89168664D01*
X129302049Y-88844002D01*
X129340974Y-88599364D01*
X129412699Y-88416004D01*
X129500578Y-88296694D01*
X129580495Y-88227514D01*
X129685319Y-88171600D01*
X129829480Y-88125593D01*
X130027410Y-88086136D01*
X130293539Y-88049871D01*
X130642299Y-88013439D01*
X130768351Y-88001686D01*
X131108506Y-87968259D01*
X131361240Y-87934398D01*
X131540532Y-87893219D01*
X131660355Y-87837835D01*
X131734685Y-87761361D01*
X131777499Y-87656910D01*
X131802771Y-87517598D01*
X131806285Y-87490301D01*
X131821461Y-87203770D01*
X131779822Y-86988756D01*
X131672571Y-86836027D01*
X131490909Y-86736351D01*
X131226041Y-86680495D01*
X131018888Y-86663950D01*
X130620015Y-86658094D01*
X130315605Y-86683476D01*
X130103338Y-86740420D01*
X130000400Y-86806800D01*
X129934882Y-86914502D01*
X129883014Y-87072222D01*
X129871293Y-87133338D01*
X129836463Y-87365600D01*
X129582378Y-87365600D01*
X129328293Y-87365600D01*
X129363710Y-87073500D01*
X129428293Y-86773381D01*
X129543315Y-86552111D01*
X129715773Y-86396692D01*
X129734029Y-86385679D01*
X129909489Y-86319167D01*
X130160408Y-86271144D01*
X130462293Y-86241862D01*
X130790652Y-86231573D01*
X131120993Y-86240529D01*
X131428824Y-86268981D01*
X131689654Y-86317183D01*
X131834135Y-86364062D01*
X132024948Y-86477547D01*
X132159083Y-86639741D01*
X132242626Y-86863908D01*
X132281665Y-87163309D01*
X132286400Y-87349412D01*
X132268309Y-87659764D01*
X132207897Y-87908363D01*
X132095957Y-88102315D01*
X131923279Y-88248721D01*
X131680657Y-88354687D01*
X131358880Y-88427317D01*
X130948742Y-88473714D01*
X130817087Y-88482954D01*
X130549527Y-88503728D01*
X130307957Y-88529645D01*
X130115964Y-88557676D01*
X129997132Y-88584794D01*
X129984144Y-88589876D01*
X129881484Y-88662078D01*
X129816576Y-88778320D01*
X129783476Y-88956890D01*
X129776242Y-89216076D01*
X129776416Y-89229080D01*
X129805952Y-89506256D01*
X129887101Y-89700018D01*
X130022822Y-89816144D01*
X130089942Y-89841293D01*
X130210879Y-89859328D01*
X130405503Y-89871566D01*
X130646067Y-89878025D01*
X130904825Y-89878725D01*
X131154030Y-89873684D01*
X131365936Y-89862922D01*
X131512796Y-89846458D01*
X131540447Y-89840291D01*
X131675421Y-89752229D01*
X131772106Y-89583225D01*
X131823111Y-89349124D01*
X131829200Y-89221431D01*
X131829200Y-88991200D01*
X132090532Y-88991200D01*
X132351864Y-88991200D01*
X132351864Y-88991200D01*
G36*
X137061600Y-90312000D02*
X136807600Y-90312000D01*
X136553600Y-90312000D01*
X136553600Y-89499200D01*
X136553600Y-88686400D01*
X136553600Y-88229200D01*
X136553600Y-87467200D01*
X136553600Y-86705200D01*
X135693307Y-86705200D01*
X135398672Y-86707990D01*
X135131791Y-86715709D01*
X134912606Y-86727380D01*
X134761060Y-86742027D01*
X134705795Y-86753568D01*
X134593469Y-86820784D01*
X134516655Y-86933651D01*
X134467627Y-87110306D01*
X134438659Y-87368887D01*
X134437690Y-87382935D01*
X134430073Y-87605581D01*
X134446220Y-87764013D01*
X134490585Y-87893768D01*
X134505458Y-87923693D01*
X134566845Y-88027043D01*
X134638208Y-88104060D01*
X134734619Y-88158580D01*
X134871148Y-88194439D01*
X135062865Y-88215473D01*
X135324842Y-88225520D01*
X135672149Y-88228414D01*
X135702700Y-88228451D01*
X136553600Y-88229200D01*
X136553600Y-88686400D01*
X135738277Y-88686400D01*
X135357047Y-88689520D01*
X135064922Y-88705685D01*
X134849445Y-88745101D01*
X134698160Y-88817974D01*
X134598611Y-88934512D01*
X134538343Y-89104920D01*
X134504899Y-89339404D01*
X134485824Y-89648171D01*
X134482838Y-89715100D01*
X134456853Y-90312000D01*
X134235226Y-90312000D01*
X134013600Y-90312000D01*
X134013789Y-89613500D01*
X134020269Y-89262583D01*
X134042480Y-88998321D01*
X134084902Y-88806392D01*
X134152018Y-88672473D01*
X134248309Y-88582245D01*
X134352631Y-88530642D01*
X134488416Y-88479016D01*
X134314508Y-88392208D01*
X134162003Y-88286338D01*
X134057070Y-88136306D01*
X133993624Y-87926451D01*
X133965575Y-87641108D01*
X133962878Y-87487480D01*
X133974359Y-87156329D01*
X134012126Y-86904512D01*
X134080972Y-86712060D01*
X134185688Y-86559007D01*
X134185736Y-86558952D01*
X134266674Y-86476127D01*
X134354099Y-86411024D01*
X134461180Y-86361266D01*
X134601085Y-86324480D01*
X134786982Y-86298290D01*
X135032038Y-86280321D01*
X135349421Y-86268198D01*
X135752300Y-86259546D01*
X135855100Y-86257850D01*
X137061600Y-86238633D01*
X137061600Y-88275316D01*
X137061600Y-90312000D01*
X137061600Y-90312000D01*
X137061600Y-90312000D01*
G37*
X137061600Y-90312000D02*
X136807600Y-90312000D01*
X136553600Y-90312000D01*
X136553600Y-89499200D01*
X136553600Y-88686400D01*
X136553600Y-88229200D01*
X136553600Y-87467200D01*
X136553600Y-86705200D01*
X135693307Y-86705200D01*
X135398672Y-86707990D01*
X135131791Y-86715709D01*
X134912606Y-86727380D01*
X134761060Y-86742027D01*
X134705795Y-86753568D01*
X134593469Y-86820784D01*
X134516655Y-86933651D01*
X134467627Y-87110306D01*
X134438659Y-87368887D01*
X134437690Y-87382935D01*
X134430073Y-87605581D01*
X134446220Y-87764013D01*
X134490585Y-87893768D01*
X134505458Y-87923693D01*
X134566845Y-88027043D01*
X134638208Y-88104060D01*
X134734619Y-88158580D01*
X134871148Y-88194439D01*
X135062865Y-88215473D01*
X135324842Y-88225520D01*
X135672149Y-88228414D01*
X135702700Y-88228451D01*
X136553600Y-88229200D01*
X136553600Y-88686400D01*
X135738277Y-88686400D01*
X135357047Y-88689520D01*
X135064922Y-88705685D01*
X134849445Y-88745101D01*
X134698160Y-88817974D01*
X134598611Y-88934512D01*
X134538343Y-89104920D01*
X134504899Y-89339404D01*
X134485824Y-89648171D01*
X134482838Y-89715100D01*
X134456853Y-90312000D01*
X134235226Y-90312000D01*
X134013600Y-90312000D01*
X134013789Y-89613500D01*
X134020269Y-89262583D01*
X134042480Y-88998321D01*
X134084902Y-88806392D01*
X134152018Y-88672473D01*
X134248309Y-88582245D01*
X134352631Y-88530642D01*
X134488416Y-88479016D01*
X134314508Y-88392208D01*
X134162003Y-88286338D01*
X134057070Y-88136306D01*
X133993624Y-87926451D01*
X133965575Y-87641108D01*
X133962878Y-87487480D01*
X133974359Y-87156329D01*
X134012126Y-86904512D01*
X134080972Y-86712060D01*
X134185688Y-86559007D01*
X134185736Y-86558952D01*
X134266674Y-86476127D01*
X134354099Y-86411024D01*
X134461180Y-86361266D01*
X134601085Y-86324480D01*
X134786982Y-86298290D01*
X135032038Y-86280321D01*
X135349421Y-86268198D01*
X135752300Y-86259546D01*
X135855100Y-86257850D01*
X137061600Y-86238633D01*
X137061600Y-88275316D01*
X137061600Y-90312000D01*
X137061600Y-90312000D01*
G36*
X141379600Y-90312000D02*
X140084200Y-90312000D01*
X138788800Y-90312000D01*
X138788800Y-90083400D01*
X138788800Y-89854800D01*
X139830200Y-89854800D01*
X140871600Y-89854800D01*
X140871600Y-89143600D01*
X140871600Y-88432400D01*
X139881000Y-88432400D01*
X138890400Y-88432400D01*
X138890400Y-88203800D01*
X138890400Y-87975200D01*
X139881000Y-87975200D01*
X140871600Y-87975200D01*
X140871600Y-87340200D01*
X140871600Y-86705200D01*
X139830200Y-86705200D01*
X138788800Y-86705200D01*
X138788800Y-86476600D01*
X138788800Y-86248000D01*
X140084200Y-86248000D01*
X141379600Y-86248000D01*
X141379600Y-88280000D01*
X141379600Y-90312000D01*
X141379600Y-90312000D01*
X141379600Y-90312000D01*
G37*
X141379600Y-90312000D02*
X140084200Y-90312000D01*
X138788800Y-90312000D01*
X138788800Y-90083400D01*
X138788800Y-89854800D01*
X139830200Y-89854800D01*
X140871600Y-89854800D01*
X140871600Y-89143600D01*
X140871600Y-88432400D01*
X139881000Y-88432400D01*
X138890400Y-88432400D01*
X138890400Y-88203800D01*
X138890400Y-87975200D01*
X139881000Y-87975200D01*
X140871600Y-87975200D01*
X140871600Y-87340200D01*
X140871600Y-86705200D01*
X139830200Y-86705200D01*
X138788800Y-86705200D01*
X138788800Y-86476600D01*
X138788800Y-86248000D01*
X140084200Y-86248000D01*
X141379600Y-86248000D01*
X141379600Y-88280000D01*
X141379600Y-90312000D01*
X141379600Y-90312000D01*
G36*
X146256400Y-86268807D02*
X146239881Y-86320917D01*
X146192828Y-86458006D01*
X146118995Y-86669412D01*
X146022138Y-86944477D01*
X145906012Y-87272539D01*
X145774371Y-87642937D01*
X145630971Y-88045012D01*
X145615768Y-88087562D01*
X145467692Y-88502047D01*
X145327642Y-88894319D01*
X145199971Y-89252171D01*
X145089030Y-89563394D01*
X144999170Y-89815782D01*
X144934742Y-89997126D01*
X144900100Y-90095219D01*
X144899792Y-90096100D01*
X144824449Y-90312000D01*
X144485715Y-90312000D01*
X144146981Y-90312000D01*
X143449090Y-88341120D01*
X143298519Y-87914456D01*
X143159101Y-87516616D01*
X143034409Y-87157999D01*
X142928014Y-86849004D01*
X142843487Y-86600027D01*
X142784400Y-86421469D01*
X142754324Y-86323728D01*
X142751200Y-86309120D01*
X142799611Y-86268275D01*
X142939125Y-86249175D01*
X142999764Y-86248000D01*
X143163679Y-86257870D01*
X143252140Y-86292651D01*
X143282750Y-86336900D01*
X143317296Y-86431750D01*
X143379071Y-86607029D01*
X143462922Y-86847710D01*
X143563699Y-87138767D01*
X143676249Y-87465174D01*
X143795422Y-87811906D01*
X143916067Y-88163937D01*
X144033031Y-88506242D01*
X144141164Y-88823794D01*
X144235315Y-89101569D01*
X144310331Y-89324539D01*
X144361061Y-89477680D01*
X144379963Y-89537300D01*
X144424452Y-89667205D01*
X144462562Y-89743741D01*
X144473741Y-89752466D01*
X144496819Y-89706076D01*
X144549251Y-89574373D01*
X144627112Y-89368038D01*
X144726474Y-89097752D01*
X144843411Y-88774196D01*
X144973995Y-88408051D01*
X145113400Y-88012566D01*
X145723000Y-86273400D01*
X145989700Y-86258045D01*
X146138558Y-86253951D01*
X146235367Y-86259880D01*
X146256400Y-86268807D01*
X146256400Y-86268807D01*
X146256400Y-86268807D01*
G37*
X146256400Y-86268807D02*
X146239881Y-86320917D01*
X146192828Y-86458006D01*
X146118995Y-86669412D01*
X146022138Y-86944477D01*
X145906012Y-87272539D01*
X145774371Y-87642937D01*
X145630971Y-88045012D01*
X145615768Y-88087562D01*
X145467692Y-88502047D01*
X145327642Y-88894319D01*
X145199971Y-89252171D01*
X145089030Y-89563394D01*
X144999170Y-89815782D01*
X144934742Y-89997126D01*
X144900100Y-90095219D01*
X144899792Y-90096100D01*
X144824449Y-90312000D01*
X144485715Y-90312000D01*
X144146981Y-90312000D01*
X143449090Y-88341120D01*
X143298519Y-87914456D01*
X143159101Y-87516616D01*
X143034409Y-87157999D01*
X142928014Y-86849004D01*
X142843487Y-86600027D01*
X142784400Y-86421469D01*
X142754324Y-86323728D01*
X142751200Y-86309120D01*
X142799611Y-86268275D01*
X142939125Y-86249175D01*
X142999764Y-86248000D01*
X143163679Y-86257870D01*
X143252140Y-86292651D01*
X143282750Y-86336900D01*
X143317296Y-86431750D01*
X143379071Y-86607029D01*
X143462922Y-86847710D01*
X143563699Y-87138767D01*
X143676249Y-87465174D01*
X143795422Y-87811906D01*
X143916067Y-88163937D01*
X144033031Y-88506242D01*
X144141164Y-88823794D01*
X144235315Y-89101569D01*
X144310331Y-89324539D01*
X144361061Y-89477680D01*
X144379963Y-89537300D01*
X144424452Y-89667205D01*
X144462562Y-89743741D01*
X144473741Y-89752466D01*
X144496819Y-89706076D01*
X144549251Y-89574373D01*
X144627112Y-89368038D01*
X144726474Y-89097752D01*
X144843411Y-88774196D01*
X144973995Y-88408051D01*
X145113400Y-88012566D01*
X145723000Y-86273400D01*
X145989700Y-86258045D01*
X146138558Y-86253951D01*
X146235367Y-86259880D01*
X146256400Y-86268807D01*
X146256400Y-86268807D01*
G36*
X148237600Y-90312000D02*
X148009000Y-90312000D01*
X147780400Y-90312000D01*
X147780400Y-88280000D01*
X147780400Y-86248000D01*
X148009000Y-86248000D01*
X148237600Y-86248000D01*
X148237600Y-88280000D01*
X148237600Y-90312000D01*
X148237600Y-90312000D01*
X148237600Y-90312000D01*
G37*
X148237600Y-90312000D02*
X148009000Y-90312000D01*
X147780400Y-90312000D01*
X147780400Y-88280000D01*
X147780400Y-86248000D01*
X148009000Y-86248000D01*
X148237600Y-86248000D01*
X148237600Y-88280000D01*
X148237600Y-90312000D01*
X148237600Y-90312000D01*
G36*
X153622400Y-90312000D02*
X153369058Y-90312000D01*
X153115716Y-90312000D01*
X153102358Y-88564168D01*
X153089000Y-86816336D01*
X152022200Y-88562229D01*
X150955400Y-90308122D01*
X150561700Y-90310061D01*
X150168000Y-90312000D01*
X150168000Y-88280000D01*
X150168000Y-86248000D01*
X150421341Y-86248000D01*
X150674683Y-86248000D01*
X150688041Y-87999946D01*
X150701400Y-89751892D01*
X151768200Y-88001256D01*
X152835000Y-86250621D01*
X153228700Y-86249310D01*
X153622400Y-86248000D01*
X153622400Y-88280000D01*
X153622400Y-90312000D01*
X153622400Y-90312000D01*
X153622400Y-90312000D01*
G37*
X153622400Y-90312000D02*
X153369058Y-90312000D01*
X153115716Y-90312000D01*
X153102358Y-88564168D01*
X153089000Y-86816336D01*
X152022200Y-88562229D01*
X150955400Y-90308122D01*
X150561700Y-90310061D01*
X150168000Y-90312000D01*
X150168000Y-88280000D01*
X150168000Y-86248000D01*
X150421341Y-86248000D01*
X150674683Y-86248000D01*
X150688041Y-87999946D01*
X150701400Y-89751892D01*
X151768200Y-88001256D01*
X152835000Y-86250621D01*
X153228700Y-86249310D01*
X153622400Y-86248000D01*
X153622400Y-88280000D01*
X153622400Y-90312000D01*
X153622400Y-90312000D01*
G36*
X125250600Y-83250800D02*
X125247388Y-83735354D01*
X125235413Y-84129235D01*
X125211169Y-84443230D01*
X125171146Y-84688131D01*
X125111838Y-84874726D01*
X125029736Y-85013806D01*
X124921332Y-85116160D01*
X124783118Y-85192577D01*
X124611587Y-85253847D01*
X124598063Y-85257901D01*
X124402690Y-85298406D01*
X124135365Y-85330144D01*
X123825467Y-85351730D01*
X123502374Y-85361779D01*
X123195467Y-85358906D01*
X122934123Y-85341726D01*
X122901140Y-85337888D01*
X122584428Y-85279953D01*
X122353444Y-85192254D01*
X122194867Y-85067656D01*
X122098958Y-84908121D01*
X122052647Y-84746906D01*
X122009718Y-84517365D01*
X121973490Y-84250444D01*
X121947284Y-83977091D01*
X121934420Y-83728251D01*
X121938217Y-83534871D01*
X121945525Y-83477923D01*
X121978603Y-83301600D01*
X122839901Y-83301600D01*
X123701200Y-83301600D01*
X123701200Y-83504800D01*
X123701200Y-83708000D01*
X123059829Y-83708000D01*
X122418459Y-83708000D01*
X122441184Y-84140969D01*
X122463230Y-84399745D01*
X122506832Y-84596655D01*
X122584204Y-84739376D01*
X122707557Y-84835583D01*
X122889107Y-84892954D01*
X123141066Y-84919164D01*
X123475648Y-84921889D01*
X123675800Y-84916903D01*
X123988196Y-84904993D01*
X124236173Y-84883724D01*
X124427170Y-84842346D01*
X124568624Y-84770111D01*
X124667971Y-84656269D01*
X124732651Y-84490068D01*
X124770100Y-84260761D01*
X124787755Y-83957597D01*
X124793056Y-83569826D01*
X124793400Y-83301600D01*
X124791440Y-82864759D01*
X124781366Y-82518437D01*
X124756885Y-82251569D01*
X124711702Y-82053090D01*
X124639524Y-81911935D01*
X124534058Y-81817039D01*
X124389010Y-81757338D01*
X124198087Y-81721766D01*
X123954995Y-81699259D01*
X123879000Y-81693945D01*
X123610785Y-81687233D01*
X123311199Y-81696925D01*
X123066907Y-81718532D01*
X122815952Y-81761476D01*
X122647380Y-81824272D01*
X122542041Y-81923110D01*
X122480786Y-82074177D01*
X122451255Y-82238946D01*
X122418110Y-82488800D01*
X122196055Y-82488800D01*
X121974000Y-82488800D01*
X121974000Y-82194763D01*
X122005347Y-81899955D01*
X122088300Y-81677312D01*
X122158668Y-81557432D01*
X122240745Y-81465523D01*
X122348319Y-81397926D01*
X122495181Y-81350982D01*
X122695117Y-81321032D01*
X122961918Y-81304416D01*
X123309372Y-81297476D01*
X123523400Y-81296481D01*
X123851405Y-81296574D01*
X124096224Y-81299421D01*
X124276268Y-81307049D01*
X124409948Y-81321483D01*
X124515675Y-81344750D01*
X124611860Y-81378875D01*
X124716913Y-81425886D01*
X124722330Y-81428423D01*
X124898485Y-81522279D01*
X125013359Y-81621193D01*
X125103097Y-81759050D01*
X125128730Y-81809423D01*
X125167429Y-81891739D01*
X125196932Y-81970906D01*
X125218484Y-82061661D01*
X125233332Y-82178740D01*
X125242721Y-82336878D01*
X125247898Y-82550812D01*
X125250108Y-82835277D01*
X125250597Y-83205009D01*
X125250600Y-83250800D01*
X125250600Y-83250800D01*
X125250600Y-83250800D01*
G37*
X125250600Y-83250800D02*
X125247388Y-83735354D01*
X125235413Y-84129235D01*
X125211169Y-84443230D01*
X125171146Y-84688131D01*
X125111838Y-84874726D01*
X125029736Y-85013806D01*
X124921332Y-85116160D01*
X124783118Y-85192577D01*
X124611587Y-85253847D01*
X124598063Y-85257901D01*
X124402690Y-85298406D01*
X124135365Y-85330144D01*
X123825467Y-85351730D01*
X123502374Y-85361779D01*
X123195467Y-85358906D01*
X122934123Y-85341726D01*
X122901140Y-85337888D01*
X122584428Y-85279953D01*
X122353444Y-85192254D01*
X122194867Y-85067656D01*
X122098958Y-84908121D01*
X122052647Y-84746906D01*
X122009718Y-84517365D01*
X121973490Y-84250444D01*
X121947284Y-83977091D01*
X121934420Y-83728251D01*
X121938217Y-83534871D01*
X121945525Y-83477923D01*
X121978603Y-83301600D01*
X122839901Y-83301600D01*
X123701200Y-83301600D01*
X123701200Y-83504800D01*
X123701200Y-83708000D01*
X123059829Y-83708000D01*
X122418459Y-83708000D01*
X122441184Y-84140969D01*
X122463230Y-84399745D01*
X122506832Y-84596655D01*
X122584204Y-84739376D01*
X122707557Y-84835583D01*
X122889107Y-84892954D01*
X123141066Y-84919164D01*
X123475648Y-84921889D01*
X123675800Y-84916903D01*
X123988196Y-84904993D01*
X124236173Y-84883724D01*
X124427170Y-84842346D01*
X124568624Y-84770111D01*
X124667971Y-84656269D01*
X124732651Y-84490068D01*
X124770100Y-84260761D01*
X124787755Y-83957597D01*
X124793056Y-83569826D01*
X124793400Y-83301600D01*
X124791440Y-82864759D01*
X124781366Y-82518437D01*
X124756885Y-82251569D01*
X124711702Y-82053090D01*
X124639524Y-81911935D01*
X124534058Y-81817039D01*
X124389010Y-81757338D01*
X124198087Y-81721766D01*
X123954995Y-81699259D01*
X123879000Y-81693945D01*
X123610785Y-81687233D01*
X123311199Y-81696925D01*
X123066907Y-81718532D01*
X122815952Y-81761476D01*
X122647380Y-81824272D01*
X122542041Y-81923110D01*
X122480786Y-82074177D01*
X122451255Y-82238946D01*
X122418110Y-82488800D01*
X122196055Y-82488800D01*
X121974000Y-82488800D01*
X121974000Y-82194763D01*
X122005347Y-81899955D01*
X122088300Y-81677312D01*
X122158668Y-81557432D01*
X122240745Y-81465523D01*
X122348319Y-81397926D01*
X122495181Y-81350982D01*
X122695117Y-81321032D01*
X122961918Y-81304416D01*
X123309372Y-81297476D01*
X123523400Y-81296481D01*
X123851405Y-81296574D01*
X124096224Y-81299421D01*
X124276268Y-81307049D01*
X124409948Y-81321483D01*
X124515675Y-81344750D01*
X124611860Y-81378875D01*
X124716913Y-81425886D01*
X124722330Y-81428423D01*
X124898485Y-81522279D01*
X125013359Y-81621193D01*
X125103097Y-81759050D01*
X125128730Y-81809423D01*
X125167429Y-81891739D01*
X125196932Y-81970906D01*
X125218484Y-82061661D01*
X125233332Y-82178740D01*
X125242721Y-82336878D01*
X125247898Y-82550812D01*
X125250108Y-82835277D01*
X125250597Y-83205009D01*
X125250600Y-83250800D01*
X125250600Y-83250800D01*
G36*
X120399200Y-85333600D02*
X119103800Y-85333600D01*
X117808400Y-85333600D01*
X117808400Y-85105000D01*
X117808400Y-84876400D01*
X118849800Y-84876400D01*
X119891200Y-84876400D01*
X119891200Y-84165200D01*
X119891200Y-83454000D01*
X118875200Y-83454000D01*
X117859200Y-83454000D01*
X117859200Y-83250800D01*
X117859200Y-83047600D01*
X118875200Y-83047600D01*
X119891200Y-83047600D01*
X119891200Y-82387200D01*
X119891200Y-81726800D01*
X118849800Y-81726800D01*
X117808400Y-81726800D01*
X117808400Y-81498200D01*
X117808400Y-81269600D01*
X119103800Y-81269600D01*
X120399200Y-81269600D01*
X120399200Y-83301600D01*
X120399200Y-85333600D01*
X120399200Y-85333600D01*
X120399200Y-85333600D01*
G37*
X120399200Y-85333600D02*
X119103800Y-85333600D01*
X117808400Y-85333600D01*
X117808400Y-85105000D01*
X117808400Y-84876400D01*
X118849800Y-84876400D01*
X119891200Y-84876400D01*
X119891200Y-84165200D01*
X119891200Y-83454000D01*
X118875200Y-83454000D01*
X117859200Y-83454000D01*
X117859200Y-83250800D01*
X117859200Y-83047600D01*
X118875200Y-83047600D01*
X119891200Y-83047600D01*
X119891200Y-82387200D01*
X119891200Y-81726800D01*
X118849800Y-81726800D01*
X117808400Y-81726800D01*
X117808400Y-81498200D01*
X117808400Y-81269600D01*
X119103800Y-81269600D01*
X120399200Y-81269600D01*
X120399200Y-83301600D01*
X120399200Y-85333600D01*
X120399200Y-85333600D01*
G36*
X130254400Y-85333600D02*
X129746400Y-85331291D01*
X129746400Y-84876400D01*
X129746400Y-83301600D01*
X129746400Y-81726800D01*
X128920900Y-81727083D01*
X128511840Y-81731767D01*
X128191446Y-81748551D01*
X127947063Y-81782000D01*
X127766035Y-81836682D01*
X127635709Y-81917163D01*
X127543428Y-82028010D01*
X127476540Y-82173788D01*
X127449589Y-82258016D01*
X127426753Y-82391336D01*
X127408846Y-82602743D01*
X127396155Y-82868834D01*
X127388969Y-83166202D01*
X127387574Y-83471442D01*
X127392258Y-83761148D01*
X127403309Y-84011916D01*
X127421015Y-84200339D01*
X127425376Y-84228458D01*
X127506379Y-84475883D01*
X127647510Y-84674559D01*
X127831401Y-84802045D01*
X127883712Y-84820657D01*
X127988034Y-84836633D01*
X128172881Y-84850824D01*
X128417178Y-84862164D01*
X128699853Y-84869589D01*
X128895500Y-84871818D01*
X129746400Y-84876400D01*
X129746400Y-85331291D01*
X129098700Y-85328349D01*
X128753106Y-85324561D01*
X128430217Y-85316885D01*
X128147831Y-85306068D01*
X127923747Y-85292859D01*
X127775763Y-85278005D01*
X127739800Y-85271258D01*
X127506581Y-85186724D01*
X127317047Y-85058165D01*
X127167753Y-84877048D01*
X127055258Y-84634838D01*
X126976118Y-84323002D01*
X126926891Y-83933008D01*
X126904133Y-83456323D01*
X126901600Y-83193811D01*
X126909145Y-82753253D01*
X126937230Y-82384873D01*
X126994025Y-82082323D01*
X127087704Y-81839255D01*
X127226436Y-81649321D01*
X127418395Y-81506172D01*
X127671752Y-81403462D01*
X127994679Y-81334840D01*
X128395347Y-81293961D01*
X128881928Y-81274474D01*
X129378100Y-81269985D01*
X130254400Y-81269600D01*
X130254400Y-83301600D01*
X130254400Y-85333600D01*
X130254400Y-85333600D01*
X130254400Y-85333600D01*
G37*
X130254400Y-85333600D02*
X129746400Y-85331291D01*
X129746400Y-84876400D01*
X129746400Y-83301600D01*
X129746400Y-81726800D01*
X128920900Y-81727083D01*
X128511840Y-81731767D01*
X128191446Y-81748551D01*
X127947063Y-81782000D01*
X127766035Y-81836682D01*
X127635709Y-81917163D01*
X127543428Y-82028010D01*
X127476540Y-82173788D01*
X127449589Y-82258016D01*
X127426753Y-82391336D01*
X127408846Y-82602743D01*
X127396155Y-82868834D01*
X127388969Y-83166202D01*
X127387574Y-83471442D01*
X127392258Y-83761148D01*
X127403309Y-84011916D01*
X127421015Y-84200339D01*
X127425376Y-84228458D01*
X127506379Y-84475883D01*
X127647510Y-84674559D01*
X127831401Y-84802045D01*
X127883712Y-84820657D01*
X127988034Y-84836633D01*
X128172881Y-84850824D01*
X128417178Y-84862164D01*
X128699853Y-84869589D01*
X128895500Y-84871818D01*
X129746400Y-84876400D01*
X129746400Y-85331291D01*
X129098700Y-85328349D01*
X128753106Y-85324561D01*
X128430217Y-85316885D01*
X128147831Y-85306068D01*
X127923747Y-85292859D01*
X127775763Y-85278005D01*
X127739800Y-85271258D01*
X127506581Y-85186724D01*
X127317047Y-85058165D01*
X127167753Y-84877048D01*
X127055258Y-84634838D01*
X126976118Y-84323002D01*
X126926891Y-83933008D01*
X126904133Y-83456323D01*
X126901600Y-83193811D01*
X126909145Y-82753253D01*
X126937230Y-82384873D01*
X126994025Y-82082323D01*
X127087704Y-81839255D01*
X127226436Y-81649321D01*
X127418395Y-81506172D01*
X127671752Y-81403462D01*
X127994679Y-81334840D01*
X128395347Y-81293961D01*
X128881928Y-81274474D01*
X129378100Y-81269985D01*
X130254400Y-81269600D01*
X130254400Y-83301600D01*
X130254400Y-85333600D01*
X130254400Y-85333600D01*
G36*
X132642000Y-85333600D02*
X132388000Y-85333600D01*
X132134000Y-85333600D01*
X132134000Y-83301600D01*
X132134000Y-81269600D01*
X132388000Y-81269600D01*
X132642000Y-81269600D01*
X132642000Y-83301600D01*
X132642000Y-85333600D01*
X132642000Y-85333600D01*
X132642000Y-85333600D01*
G37*
X132642000Y-85333600D02*
X132388000Y-85333600D01*
X132134000Y-85333600D01*
X132134000Y-83301600D01*
X132134000Y-81269600D01*
X132388000Y-81269600D01*
X132642000Y-81269600D01*
X132642000Y-83301600D01*
X132642000Y-85333600D01*
X132642000Y-85333600D01*
G36*
X137569600Y-85333600D02*
X137315600Y-85333600D01*
X137061600Y-85333600D01*
X137061600Y-84516518D01*
X137061600Y-83699436D01*
X137061600Y-83301600D01*
X137061600Y-82510086D01*
X137061600Y-81718572D01*
X136142713Y-81735386D01*
X135223827Y-81752200D01*
X135105585Y-81889766D01*
X135022280Y-82043332D01*
X134964789Y-82259367D01*
X134938080Y-82500902D01*
X134947125Y-82730966D01*
X134975279Y-82859131D01*
X135031912Y-82993350D01*
X135110738Y-83097027D01*
X135224447Y-83174081D01*
X135385731Y-83228432D01*
X135607281Y-83263999D01*
X135901789Y-83284703D01*
X136281945Y-83294464D01*
X136388500Y-83295624D01*
X137061600Y-83301600D01*
X137061600Y-83699436D01*
X136193745Y-83716418D01*
X135325891Y-83733400D01*
X135177745Y-83899301D01*
X135116283Y-83971344D01*
X135074718Y-84038640D01*
X135049157Y-84122202D01*
X135035711Y-84243044D01*
X135030489Y-84422178D01*
X135029600Y-84680619D01*
X135029600Y-84699401D01*
X135029600Y-85333600D01*
X134775600Y-85333600D01*
X134521600Y-85333600D01*
X134521600Y-84668177D01*
X134527701Y-84321511D01*
X134548895Y-84060792D01*
X134589515Y-83870937D01*
X134653895Y-83736864D01*
X134746370Y-83643491D01*
X134830204Y-83594238D01*
X134979196Y-83522078D01*
X134788585Y-83398730D01*
X134650069Y-83282981D01*
X134555526Y-83134262D01*
X134499731Y-82935390D01*
X134477460Y-82669180D01*
X134480647Y-82385951D01*
X134503725Y-82072802D01*
X134552337Y-81840117D01*
X134636228Y-81667997D01*
X134765142Y-81536540D01*
X134948825Y-81425847D01*
X134951426Y-81424551D01*
X135035883Y-81384724D01*
X135118459Y-81354077D01*
X135214050Y-81331095D01*
X135337551Y-81314259D01*
X135503856Y-81302053D01*
X135727860Y-81292959D01*
X136024457Y-81285460D01*
X136385674Y-81278456D01*
X137569600Y-81256810D01*
X137569600Y-83295205D01*
X137569600Y-85333600D01*
X137569600Y-85333600D01*
X137569600Y-85333600D01*
G37*
X137569600Y-85333600D02*
X137315600Y-85333600D01*
X137061600Y-85333600D01*
X137061600Y-84516518D01*
X137061600Y-83699436D01*
X137061600Y-83301600D01*
X137061600Y-82510086D01*
X137061600Y-81718572D01*
X136142713Y-81735386D01*
X135223827Y-81752200D01*
X135105585Y-81889766D01*
X135022280Y-82043332D01*
X134964789Y-82259367D01*
X134938080Y-82500902D01*
X134947125Y-82730966D01*
X134975279Y-82859131D01*
X135031912Y-82993350D01*
X135110738Y-83097027D01*
X135224447Y-83174081D01*
X135385731Y-83228432D01*
X135607281Y-83263999D01*
X135901789Y-83284703D01*
X136281945Y-83294464D01*
X136388500Y-83295624D01*
X137061600Y-83301600D01*
X137061600Y-83699436D01*
X136193745Y-83716418D01*
X135325891Y-83733400D01*
X135177745Y-83899301D01*
X135116283Y-83971344D01*
X135074718Y-84038640D01*
X135049157Y-84122202D01*
X135035711Y-84243044D01*
X135030489Y-84422178D01*
X135029600Y-84680619D01*
X135029600Y-84699401D01*
X135029600Y-85333600D01*
X134775600Y-85333600D01*
X134521600Y-85333600D01*
X134521600Y-84668177D01*
X134527701Y-84321511D01*
X134548895Y-84060792D01*
X134589515Y-83870937D01*
X134653895Y-83736864D01*
X134746370Y-83643491D01*
X134830204Y-83594238D01*
X134979196Y-83522078D01*
X134788585Y-83398730D01*
X134650069Y-83282981D01*
X134555526Y-83134262D01*
X134499731Y-82935390D01*
X134477460Y-82669180D01*
X134480647Y-82385951D01*
X134503725Y-82072802D01*
X134552337Y-81840117D01*
X134636228Y-81667997D01*
X134765142Y-81536540D01*
X134948825Y-81425847D01*
X134951426Y-81424551D01*
X135035883Y-81384724D01*
X135118459Y-81354077D01*
X135214050Y-81331095D01*
X135337551Y-81314259D01*
X135503856Y-81302053D01*
X135727860Y-81292959D01*
X136024457Y-81285460D01*
X136385674Y-81278456D01*
X137569600Y-81256810D01*
X137569600Y-83295205D01*
X137569600Y-85333600D01*
X137569600Y-85333600D01*
G36*
X142446400Y-85333600D02*
X141938400Y-85331262D01*
X141938400Y-84876400D01*
X141938400Y-84157204D01*
X141938400Y-83438008D01*
X141938400Y-83047600D01*
X141938400Y-82387200D01*
X141938400Y-81726800D01*
X141149368Y-81726800D01*
X140765073Y-81730266D01*
X140470968Y-81745370D01*
X140255747Y-81779173D01*
X140108104Y-81838732D01*
X140016732Y-81931109D01*
X139970325Y-82063361D01*
X139957577Y-82242549D01*
X139966513Y-82465339D01*
X139984252Y-82644824D01*
X140019884Y-82782300D01*
X140085687Y-82883446D01*
X140193939Y-82953938D01*
X140356919Y-82999455D01*
X140586905Y-83025674D01*
X140896177Y-83038272D01*
X141214500Y-83042400D01*
X141938400Y-83047600D01*
X141938400Y-83438008D01*
X141080779Y-83470387D01*
X140786361Y-83484078D01*
X140519434Y-83501279D01*
X140300053Y-83520330D01*
X140148271Y-83539569D01*
X140093268Y-83552152D01*
X139971575Y-83627162D01*
X139893881Y-83752641D01*
X139853017Y-83945879D01*
X139842057Y-84158074D01*
X139843607Y-84381180D01*
X139862090Y-84552257D01*
X139909309Y-84678233D01*
X139997067Y-84766039D01*
X140137167Y-84822605D01*
X140341413Y-84854859D01*
X140621607Y-84869732D01*
X140989554Y-84874154D01*
X141062100Y-84874366D01*
X141938400Y-84876400D01*
X141938400Y-85331262D01*
X141316100Y-85328400D01*
X140978028Y-85325253D01*
X140666237Y-85319366D01*
X140397850Y-85311299D01*
X140189996Y-85301612D01*
X140059801Y-85290867D01*
X140033400Y-85286421D01*
X139771133Y-85187867D01*
X139576203Y-85030624D01*
X139443869Y-84806921D01*
X139369388Y-84508988D01*
X139347883Y-84163263D01*
X139380833Y-83844036D01*
X139475838Y-83578040D01*
X139626260Y-83379846D01*
X139741756Y-83298800D01*
X139907312Y-83212282D01*
X139780913Y-83129462D01*
X139638079Y-83001490D01*
X139544366Y-82828102D01*
X139493597Y-82592004D01*
X139479544Y-82285600D01*
X139497457Y-81967484D01*
X139551903Y-81730195D01*
X139648503Y-81557774D01*
X139775534Y-81445261D01*
X139913536Y-81391382D01*
X140144903Y-81346463D01*
X140461735Y-81311250D01*
X140856131Y-81286492D01*
X141320187Y-81272938D01*
X141620900Y-81270502D01*
X142446400Y-81269600D01*
X142446400Y-83301600D01*
X142446400Y-85333600D01*
X142446400Y-85333600D01*
X142446400Y-85333600D01*
G37*
X142446400Y-85333600D02*
X141938400Y-85331262D01*
X141938400Y-84876400D01*
X141938400Y-84157204D01*
X141938400Y-83438008D01*
X141938400Y-83047600D01*
X141938400Y-82387200D01*
X141938400Y-81726800D01*
X141149368Y-81726800D01*
X140765073Y-81730266D01*
X140470968Y-81745370D01*
X140255747Y-81779173D01*
X140108104Y-81838732D01*
X140016732Y-81931109D01*
X139970325Y-82063361D01*
X139957577Y-82242549D01*
X139966513Y-82465339D01*
X139984252Y-82644824D01*
X140019884Y-82782300D01*
X140085687Y-82883446D01*
X140193939Y-82953938D01*
X140356919Y-82999455D01*
X140586905Y-83025674D01*
X140896177Y-83038272D01*
X141214500Y-83042400D01*
X141938400Y-83047600D01*
X141938400Y-83438008D01*
X141080779Y-83470387D01*
X140786361Y-83484078D01*
X140519434Y-83501279D01*
X140300053Y-83520330D01*
X140148271Y-83539569D01*
X140093268Y-83552152D01*
X139971575Y-83627162D01*
X139893881Y-83752641D01*
X139853017Y-83945879D01*
X139842057Y-84158074D01*
X139843607Y-84381180D01*
X139862090Y-84552257D01*
X139909309Y-84678233D01*
X139997067Y-84766039D01*
X140137167Y-84822605D01*
X140341413Y-84854859D01*
X140621607Y-84869732D01*
X140989554Y-84874154D01*
X141062100Y-84874366D01*
X141938400Y-84876400D01*
X141938400Y-85331262D01*
X141316100Y-85328400D01*
X140978028Y-85325253D01*
X140666237Y-85319366D01*
X140397850Y-85311299D01*
X140189996Y-85301612D01*
X140059801Y-85290867D01*
X140033400Y-85286421D01*
X139771133Y-85187867D01*
X139576203Y-85030624D01*
X139443869Y-84806921D01*
X139369388Y-84508988D01*
X139347883Y-84163263D01*
X139380833Y-83844036D01*
X139475838Y-83578040D01*
X139626260Y-83379846D01*
X139741756Y-83298800D01*
X139907312Y-83212282D01*
X139780913Y-83129462D01*
X139638079Y-83001490D01*
X139544366Y-82828102D01*
X139493597Y-82592004D01*
X139479544Y-82285600D01*
X139497457Y-81967484D01*
X139551903Y-81730195D01*
X139648503Y-81557774D01*
X139775534Y-81445261D01*
X139913536Y-81391382D01*
X140144903Y-81346463D01*
X140461735Y-81311250D01*
X140856131Y-81286492D01*
X141320187Y-81272938D01*
X141620900Y-81270502D01*
X142446400Y-81269600D01*
X142446400Y-83301600D01*
X142446400Y-85333600D01*
X142446400Y-85333600D01*
G36*
X148796400Y-85333600D02*
X148543066Y-85333600D01*
X148289733Y-85333600D01*
X148276366Y-83600076D01*
X148263000Y-81866552D01*
X147547194Y-83587376D01*
X146831388Y-85308200D01*
X146579786Y-85323190D01*
X146328185Y-85338181D01*
X145607860Y-83595990D01*
X144887534Y-81853800D01*
X144886167Y-83593700D01*
X144884800Y-85333600D01*
X144630800Y-85333600D01*
X144376800Y-85333600D01*
X144376800Y-83299545D01*
X144376800Y-81265491D01*
X144789665Y-81280245D01*
X145202530Y-81295000D01*
X145872200Y-82932101D01*
X146029322Y-83315251D01*
X146174693Y-83667912D01*
X146303767Y-83979195D01*
X146411998Y-84238214D01*
X146494840Y-84434081D01*
X146547747Y-84555909D01*
X146565745Y-84593078D01*
X146589871Y-84553467D01*
X146647856Y-84430171D01*
X146735201Y-84233588D01*
X146847405Y-83974113D01*
X146979970Y-83662142D01*
X147128396Y-83308072D01*
X147274307Y-82955976D01*
X147958995Y-81295000D01*
X148377697Y-81280245D01*
X148796400Y-81265491D01*
X148796400Y-83299545D01*
X148796400Y-85333600D01*
X148796400Y-85333600D01*
X148796400Y-85333600D01*
G37*
X148796400Y-85333600D02*
X148543066Y-85333600D01*
X148289733Y-85333600D01*
X148276366Y-83600076D01*
X148263000Y-81866552D01*
X147547194Y-83587376D01*
X146831388Y-85308200D01*
X146579786Y-85323190D01*
X146328185Y-85338181D01*
X145607860Y-83595990D01*
X144887534Y-81853800D01*
X144886167Y-83593700D01*
X144884800Y-85333600D01*
X144630800Y-85333600D01*
X144376800Y-85333600D01*
X144376800Y-83299545D01*
X144376800Y-81265491D01*
X144789665Y-81280245D01*
X145202530Y-81295000D01*
X145872200Y-82932101D01*
X146029322Y-83315251D01*
X146174693Y-83667912D01*
X146303767Y-83979195D01*
X146411998Y-84238214D01*
X146494840Y-84434081D01*
X146547747Y-84555909D01*
X146565745Y-84593078D01*
X146589871Y-84553467D01*
X146647856Y-84430171D01*
X146735201Y-84233588D01*
X146847405Y-83974113D01*
X146979970Y-83662142D01*
X147128396Y-83308072D01*
X147274307Y-82955976D01*
X147958995Y-81295000D01*
X148377697Y-81280245D01*
X148796400Y-81265491D01*
X148796400Y-83299545D01*
X148796400Y-85333600D01*
X148796400Y-85333600D01*
G36*
X153978000Y-85316871D02*
X153932131Y-85326189D01*
X153814235Y-85332262D01*
X153709195Y-85333600D01*
X153440391Y-85333600D01*
X153290354Y-84900767D01*
X153140318Y-84467935D01*
X153011317Y-84469731D01*
X153011317Y-84114400D01*
X152917315Y-83873100D01*
X152869988Y-83747234D01*
X152796350Y-83546051D01*
X152703822Y-83290071D01*
X152599825Y-82999812D01*
X152503290Y-82728306D01*
X152401826Y-82448825D01*
X152309887Y-82208682D01*
X152233226Y-82021857D01*
X152177596Y-81902330D01*
X152148747Y-81864082D01*
X152147968Y-81864706D01*
X152122365Y-81920625D01*
X152068823Y-82055553D01*
X151993461Y-82252776D01*
X151902399Y-82495582D01*
X151801753Y-82767256D01*
X151697644Y-83051086D01*
X151596190Y-83330358D01*
X151503509Y-83588359D01*
X151425720Y-83808376D01*
X151368942Y-83973695D01*
X151339293Y-84067604D01*
X151336400Y-84081541D01*
X151384406Y-84092481D01*
X151517259Y-84101878D01*
X151718208Y-84109074D01*
X151970505Y-84113414D01*
X152173858Y-84114400D01*
X153011317Y-84114400D01*
X153011317Y-84469731D01*
X152154165Y-84481667D01*
X151168012Y-84495400D01*
X151012040Y-84914500D01*
X150856068Y-85333600D01*
X150588947Y-85333600D01*
X150321825Y-85333600D01*
X150430788Y-85041500D01*
X150473977Y-84925942D01*
X150547925Y-84728335D01*
X150647730Y-84461766D01*
X150768492Y-84139321D01*
X150905310Y-83774086D01*
X151053282Y-83379150D01*
X151187043Y-83022200D01*
X151834336Y-81295000D01*
X152162510Y-81280139D01*
X152340578Y-81274560D01*
X152444447Y-81284112D01*
X152501329Y-81317767D01*
X152538439Y-81384498D01*
X152547711Y-81407139D01*
X152579565Y-81490509D01*
X152639892Y-81652231D01*
X152724212Y-81880063D01*
X152828047Y-82161762D01*
X152946920Y-82485086D01*
X153076350Y-82837794D01*
X153211860Y-83207642D01*
X153348971Y-83582389D01*
X153483204Y-83949792D01*
X153610081Y-84297610D01*
X153725124Y-84613599D01*
X153823854Y-84885518D01*
X153901791Y-85101124D01*
X153954459Y-85248176D01*
X153977378Y-85314431D01*
X153978000Y-85316871D01*
X153978000Y-85316871D01*
X153978000Y-85316871D01*
G37*
X153978000Y-85316871D02*
X153932131Y-85326189D01*
X153814235Y-85332262D01*
X153709195Y-85333600D01*
X153440391Y-85333600D01*
X153290354Y-84900767D01*
X153140318Y-84467935D01*
X153011317Y-84469731D01*
X153011317Y-84114400D01*
X152917315Y-83873100D01*
X152869988Y-83747234D01*
X152796350Y-83546051D01*
X152703822Y-83290071D01*
X152599825Y-82999812D01*
X152503290Y-82728306D01*
X152401826Y-82448825D01*
X152309887Y-82208682D01*
X152233226Y-82021857D01*
X152177596Y-81902330D01*
X152148747Y-81864082D01*
X152147968Y-81864706D01*
X152122365Y-81920625D01*
X152068823Y-82055553D01*
X151993461Y-82252776D01*
X151902399Y-82495582D01*
X151801753Y-82767256D01*
X151697644Y-83051086D01*
X151596190Y-83330358D01*
X151503509Y-83588359D01*
X151425720Y-83808376D01*
X151368942Y-83973695D01*
X151339293Y-84067604D01*
X151336400Y-84081541D01*
X151384406Y-84092481D01*
X151517259Y-84101878D01*
X151718208Y-84109074D01*
X151970505Y-84113414D01*
X152173858Y-84114400D01*
X153011317Y-84114400D01*
X153011317Y-84469731D01*
X152154165Y-84481667D01*
X151168012Y-84495400D01*
X151012040Y-84914500D01*
X150856068Y-85333600D01*
X150588947Y-85333600D01*
X150321825Y-85333600D01*
X150430788Y-85041500D01*
X150473977Y-84925942D01*
X150547925Y-84728335D01*
X150647730Y-84461766D01*
X150768492Y-84139321D01*
X150905310Y-83774086D01*
X151053282Y-83379150D01*
X151187043Y-83022200D01*
X151834336Y-81295000D01*
X152162510Y-81280139D01*
X152340578Y-81274560D01*
X152444447Y-81284112D01*
X152501329Y-81317767D01*
X152538439Y-81384498D01*
X152547711Y-81407139D01*
X152579565Y-81490509D01*
X152639892Y-81652231D01*
X152724212Y-81880063D01*
X152828047Y-82161762D01*
X152946920Y-82485086D01*
X153076350Y-82837794D01*
X153211860Y-83207642D01*
X153348971Y-83582389D01*
X153483204Y-83949792D01*
X153610081Y-84297610D01*
X153725124Y-84613599D01*
X153823854Y-84885518D01*
X153901791Y-85101124D01*
X153954459Y-85248176D01*
X153977378Y-85314431D01*
X153978000Y-85316871D01*
X153978000Y-85316871D01*
%LPC*%
D12*
X161600000Y-99600000D03*
X159600000Y-99600000D03*
X143100000Y-99100000D03*
X143100000Y-101100000D03*
X143100000Y-103100000D03*
X143100000Y-105100000D03*
X143100000Y-107100000D03*
X143100000Y-109100000D03*
D13*
X152450000Y-81500000D03*
X153050000Y-81500000D03*
X151850000Y-81500000D03*
X151250000Y-81500000D03*
X150650000Y-81500000D03*
X150050000Y-81500000D03*
X149450000Y-81500000D03*
X148850000Y-81500000D03*
X148250000Y-81500000D03*
X151250000Y-81000000D03*
X150650000Y-81000000D03*
X150050000Y-81000000D03*
X149450000Y-81000000D03*
X148850000Y-81000000D03*
X148850000Y-82000000D03*
X149450000Y-82000000D03*
X150050000Y-82000000D03*
X150650000Y-82000000D03*
X151250000Y-82000000D03*
X148250000Y-82000000D03*
X148250000Y-81000000D03*
D14*
X119730000Y-93500000D03*
X121000000Y-93500000D03*
X119730000Y-94770000D03*
X121000000Y-94770000D03*
X119730000Y-96040000D03*
X121000000Y-96040000D03*
X119730000Y-97310000D03*
X121000000Y-97310000D03*
X119730000Y-98580000D03*
X121000000Y-98580000D03*
D15*
X123200000Y-105000000D03*
X123200000Y-109880000D03*
D16*
X142000000Y-67250000D03*
X144000000Y-67250000D03*
X146000000Y-67250000D03*
X148000000Y-67250000D03*
D17*
X140500000Y-65150000D03*
X149500000Y-65150000D03*
D16*
X126000000Y-125750000D03*
X124000000Y-125750000D03*
X122000000Y-125750000D03*
X120000000Y-125750000D03*
D17*
X127500000Y-127850000D03*
X118500000Y-127850000D03*
D16*
X138000000Y-125750000D03*
X136000000Y-125750000D03*
X134000000Y-125750000D03*
X132000000Y-125750000D03*
D17*
X139500000Y-127850000D03*
X130500000Y-127850000D03*
D16*
X162000000Y-125750000D03*
X160000000Y-125750000D03*
D17*
X163500000Y-127850000D03*
X158500000Y-127850000D03*
D16*
X146000000Y-125750000D03*
X144000000Y-125750000D03*
D17*
X147500000Y-127850000D03*
X142500000Y-127850000D03*
D16*
X154000000Y-125750000D03*
X152000000Y-125750000D03*
D17*
X155500000Y-127850000D03*
X150500000Y-127850000D03*
D18*
X121000000Y-117000000D03*
X161000000Y-74000000D03*
X121000000Y-74000000D03*
X161000000Y-117000000D03*
M02*
