%FSLAX46Y46*%
G04 Gerber Fmt 4.6, Leading zero omitted, Abs format (unit mm)*
G04 Created by KiCad (PCBNEW (2014-jul-16 BZR unknown)-product) date Wed 23 Jul 2014 17:41:49 BST*
%MOMM*%
G01*
G04 APERTURE LIST*
%ADD10C,0.100000*%
%ADD11C,1.000000*%
%ADD12C,0.500000*%
%ADD13R,0.800000X0.700000*%
%ADD14R,0.700000X0.800000*%
%ADD15R,0.600000X0.600000*%
%ADD16R,1.200000X1.700000*%
%ADD17R,0.800000X0.800000*%
%ADD18R,0.400000X1.400000*%
%ADD19R,0.600000X2.200000*%
%ADD20C,1.700000*%
%ADD21R,1.800000X0.700000*%
%ADD22R,1.800000X0.800000*%
%ADD23R,0.300000X0.300000*%
%ADD24R,0.600000X0.350000*%
%ADD25R,1.700000X1.600000*%
%ADD26R,0.350000X0.600000*%
%ADD27R,0.300000X1.200000*%
%ADD28R,1.200000X0.300000*%
%ADD29R,1.400000X0.400000*%
%ADD30R,0.640000X1.020000*%
%ADD31R,1.020000X0.640000*%
%ADD32R,0.660000X0.360000*%
%ADD33C,1.016000*%
%ADD34R,0.500000X0.600000*%
%ADD35C,1.400000*%
%ADD36C,1.500000*%
%ADD37C,1.100000*%
%ADD38R,1.300000X2.400000*%
%ADD39R,3.800000X2.400000*%
%ADD40C,3.400000*%
%ADD41R,0.800000X5.000000*%
%ADD42R,4.650000X5.000000*%
%ADD43R,2.286000X5.080000*%
%ADD44R,2.413000X5.080000*%
%ADD45R,1.000000X1.000000*%
%ADD46C,1.000000*%
%ADD47R,1.900000X0.900000*%
%ADD48R,1.300000X0.900000*%
%ADD49R,3.500000X1.800000*%
%ADD50C,0.300000*%
%ADD51R,0.600000X0.500000*%
G04 APERTURE END LIST*
D10*
D11*
X32500000Y47500000D02*
X32500000Y36000000D01*
X48500000Y36000000D02*
X48500000Y23500000D01*
X32500000Y36000000D02*
X38500000Y36000000D01*
X48500000Y23500000D02*
X34500000Y23500000D01*
X48500000Y72000000D02*
X48500000Y36000000D01*
X19000000Y66000000D02*
X19000000Y65000000D01*
X21000000Y68000000D02*
X19000000Y66000000D01*
X21000000Y72000000D02*
X21000000Y68000000D01*
X20000000Y73000000D02*
X21000000Y72000000D01*
X16000000Y73000000D02*
X20000000Y73000000D01*
X2000000Y73000000D02*
X2000000Y54000000D01*
X35000000Y74000000D02*
X35000000Y59500000D01*
D12*
X36600000Y44000000D02*
X36600000Y39600000D01*
X37600000Y43900000D02*
X37600000Y39500000D01*
X36900000Y66200000D02*
X36900000Y62000000D01*
X37900000Y66200000D02*
X37900000Y62000000D01*
D13*
X15500000Y16750000D03*
X15500000Y15350000D03*
X22250000Y16750000D03*
X22250000Y15350000D03*
X24900000Y56800000D03*
X24900000Y58200000D03*
D14*
X23500000Y61250000D03*
X24900000Y61250000D03*
X15750000Y22250000D03*
X14350000Y22250000D03*
D13*
X22250000Y20000000D03*
X22250000Y18600000D03*
D14*
X24250000Y14000000D03*
X22850000Y14000000D03*
X24250000Y21750000D03*
X22850000Y21750000D03*
X29250000Y40000000D03*
X27850000Y40000000D03*
X26500000Y40000000D03*
X25100000Y40000000D03*
D13*
X26200000Y52900000D03*
X26200000Y51500000D03*
X27250000Y18250000D03*
X27250000Y16850000D03*
X24250000Y26000000D03*
X24250000Y24600000D03*
D14*
X4900000Y42300000D03*
X3500000Y42300000D03*
X27000000Y37600000D03*
X28400000Y37600000D03*
D15*
X34000000Y57250000D03*
X35000000Y57250000D03*
D14*
X33750000Y58500000D03*
X35150000Y58500000D03*
D16*
X31250000Y49000000D03*
X34350000Y49000000D03*
D15*
X36570000Y39550000D03*
X36570000Y38550000D03*
X36900000Y66250000D03*
X36900000Y67250000D03*
X37600000Y40800000D03*
X36600000Y40800000D03*
X37900000Y64670000D03*
X36900000Y64670000D03*
D13*
X7500000Y33200000D03*
X7500000Y34600000D03*
X10500000Y31100000D03*
X10500000Y29700000D03*
X8800000Y33200000D03*
X8800000Y34600000D03*
D14*
X20100000Y39300000D03*
X21500000Y39300000D03*
D13*
X11800000Y42600000D03*
X11800000Y44000000D03*
D14*
X16500000Y28500000D03*
X15100000Y28500000D03*
X16500000Y29700000D03*
X15100000Y29700000D03*
X17500000Y52900000D03*
X18900000Y52900000D03*
X7250000Y65500000D03*
X5850000Y65500000D03*
X4800000Y53500000D03*
X6200000Y53500000D03*
X4700000Y48900000D03*
X6100000Y48900000D03*
X5000000Y33200000D03*
X3600000Y33200000D03*
D13*
X3900000Y29000000D03*
X3900000Y27600000D03*
X3900000Y24200000D03*
X3900000Y25600000D03*
D17*
X19500000Y46450000D03*
X19500000Y48100000D03*
X20750000Y46450000D03*
X20750000Y48100000D03*
X18250000Y46450000D03*
X18250000Y48100000D03*
X15800000Y46450000D03*
X15800000Y48100000D03*
X17000000Y46450000D03*
X17000000Y48100000D03*
X14500000Y46450000D03*
X14500000Y48100000D03*
D18*
X25750000Y20000000D03*
X25100000Y20000000D03*
X24450000Y20000000D03*
X23800000Y20000000D03*
X23800000Y15600000D03*
X24450000Y15600000D03*
X25100000Y15600000D03*
X25750000Y15600000D03*
D19*
X20750000Y20250000D03*
X19480000Y20250000D03*
X18210000Y20250000D03*
X16940000Y20250000D03*
X16940000Y15043000D03*
X18210000Y15043000D03*
X19480000Y15043000D03*
X20750000Y15043000D03*
X14000000Y20250000D03*
X12730000Y20250000D03*
X11460000Y20250000D03*
X10190000Y20250000D03*
X10190000Y15043000D03*
X11460000Y15043000D03*
X12730000Y15043000D03*
X14000000Y15043000D03*
X26250000Y54750000D03*
X27520000Y54750000D03*
X28790000Y54750000D03*
X30060000Y54750000D03*
X30060000Y59957000D03*
X28790000Y59957000D03*
X27520000Y59957000D03*
X26250000Y59957000D03*
D20*
X45600000Y34400000D03*
X43600000Y34400000D03*
X27100000Y32900000D03*
X27100000Y30900000D03*
X27100000Y28900000D03*
X27100000Y26900000D03*
X27100000Y24900000D03*
D21*
X11250000Y63250000D03*
D22*
X11250000Y62150000D03*
X11250000Y61050000D03*
X11250000Y59950000D03*
X11250000Y58850000D03*
X11250000Y57750000D03*
X11250000Y56650000D03*
X11250000Y55550000D03*
D21*
X11250000Y54450000D03*
X20750000Y63250000D03*
X20750000Y54450000D03*
D22*
X20750000Y62150000D03*
X20750000Y61050000D03*
X20750000Y59950000D03*
X20750000Y58850000D03*
X20750000Y57750000D03*
X20750000Y56650000D03*
X20750000Y55550000D03*
D23*
X8900000Y66000000D03*
X8900000Y68500000D03*
X8900000Y67250000D03*
X9900000Y66000000D03*
X9900000Y68500000D03*
D24*
X9050000Y66625000D03*
X9050000Y67875000D03*
D25*
X10200000Y67250000D03*
D26*
X10875000Y66150000D03*
X10875000Y68350000D03*
X10525000Y68350000D03*
X10525000Y66150000D03*
D27*
X11750000Y32000000D03*
X12250000Y32000000D03*
X12750000Y32000000D03*
X13250000Y32000000D03*
X13750000Y32000000D03*
X14250000Y32000000D03*
X14750000Y32000000D03*
X15250000Y32000000D03*
X15750000Y32000000D03*
X16250000Y32000000D03*
X16750000Y32000000D03*
X17250000Y32000000D03*
D28*
X18750000Y33500000D03*
X18750000Y34000000D03*
X18750000Y34500000D03*
X18750000Y35000000D03*
X18750000Y35500000D03*
X18750000Y36000000D03*
X18750000Y36500000D03*
X18750000Y37000000D03*
X18750000Y37500000D03*
X18750000Y38000000D03*
X18750000Y38500000D03*
X18750000Y39000000D03*
D27*
X17250000Y40500000D03*
X16750000Y40500000D03*
X16250000Y40500000D03*
X15750000Y40500000D03*
X15250000Y40500000D03*
X14750000Y40500000D03*
X14250000Y40500000D03*
X13750000Y40500000D03*
X13250000Y40500000D03*
X12750000Y40500000D03*
X12250000Y40500000D03*
X11750000Y40500000D03*
D28*
X10250000Y39000000D03*
X10250000Y38500000D03*
X10250000Y38000000D03*
X10250000Y37500000D03*
X10250000Y37000000D03*
X10250000Y36500000D03*
X10250000Y36000000D03*
X10250000Y35500000D03*
X10250000Y35000000D03*
X10250000Y34500000D03*
X10250000Y34000000D03*
X10250000Y33500000D03*
D29*
X3200000Y52200000D03*
X3200000Y51550000D03*
X3200000Y50900000D03*
X3200000Y50250000D03*
X7600000Y50250000D03*
X7600000Y50900000D03*
X7600000Y51550000D03*
X7600000Y52200000D03*
D30*
X35250000Y56000000D03*
X33970000Y56000000D03*
D31*
X36580000Y45790000D03*
X36580000Y44510000D03*
D32*
X36760000Y61860000D03*
X36760000Y61040000D03*
D33*
X3730000Y40500000D03*
X5000000Y40500000D03*
X3730000Y39230000D03*
X5000000Y39230000D03*
X3730000Y37960000D03*
X5000000Y37960000D03*
X3730000Y36690000D03*
X5000000Y36690000D03*
X3730000Y35420000D03*
X5000000Y35420000D03*
D17*
X21750000Y26250000D03*
X21750000Y24650000D03*
X23000000Y26250000D03*
X23000000Y24650000D03*
D34*
X36580000Y48890000D03*
X36580000Y47790000D03*
D17*
X41250000Y12500000D03*
X41250000Y14100000D03*
X40000000Y12500000D03*
X40000000Y14100000D03*
X7250000Y67000000D03*
X7250000Y68600000D03*
X20750000Y45200000D03*
X20750000Y43600000D03*
X19500000Y45200000D03*
X19500000Y43600000D03*
X22000000Y45200000D03*
X22000000Y43600000D03*
X18250000Y45200000D03*
X18250000Y43600000D03*
X15800000Y45200000D03*
X15800000Y43600000D03*
X17000000Y45200000D03*
X17000000Y43600000D03*
X14500000Y45200000D03*
X14500000Y43600000D03*
X10500000Y24200000D03*
X10500000Y25800000D03*
D35*
X7200000Y29000000D03*
X7200000Y24120000D03*
D36*
X26000000Y66750000D03*
X28000000Y66750000D03*
X30000000Y66750000D03*
X32000000Y66750000D03*
D37*
X24500000Y68850000D03*
X33500000Y68850000D03*
D36*
X10000000Y8250000D03*
X8000000Y8250000D03*
X6000000Y8250000D03*
X4000000Y8250000D03*
D37*
X11500000Y6150000D03*
X2500000Y6150000D03*
D36*
X22000000Y8250000D03*
X20000000Y8250000D03*
X18000000Y8250000D03*
X16000000Y8250000D03*
D37*
X23500000Y6150000D03*
X14500000Y6150000D03*
D36*
X46000000Y8250000D03*
X44000000Y8250000D03*
D37*
X47500000Y6150000D03*
X42500000Y6150000D03*
D36*
X30000000Y8250000D03*
X28000000Y8250000D03*
D37*
X31500000Y6150000D03*
X26500000Y6150000D03*
D36*
X38000000Y8250000D03*
X36000000Y8250000D03*
D37*
X39500000Y6150000D03*
X34500000Y6150000D03*
D38*
X27250000Y42250000D03*
X24950000Y42250000D03*
X29550000Y42250000D03*
D39*
X27250000Y48350000D03*
D40*
X5000000Y17000000D03*
X45000000Y60000000D03*
X5000000Y60000000D03*
X45000000Y17000000D03*
D41*
X9000000Y72250000D03*
D42*
X5575000Y72250000D03*
X12425000Y72250000D03*
X5575000Y72250000D03*
X12425000Y72250000D03*
D43*
X41750000Y72250000D03*
D44*
X37368500Y72250000D03*
X46131500Y72250000D03*
X37368500Y72250000D03*
X46131500Y72250000D03*
D45*
X40500000Y67250000D03*
X39000000Y67250000D03*
X42000000Y67250000D03*
X40000000Y38500000D03*
X41500000Y38500000D03*
X38500000Y38500000D03*
D46*
X25000000Y27000000D03*
X25000000Y29000000D03*
X25000000Y31000000D03*
X25000000Y33000000D03*
X9500000Y56500000D03*
X9500000Y55250000D03*
X20750000Y65000000D03*
X5750000Y67000000D03*
X18750000Y22250000D03*
X17500000Y22250000D03*
X27500000Y52250000D03*
X29000000Y52250000D03*
X21750000Y27500000D03*
X37300000Y12500000D03*
X27500000Y13750000D03*
X29000000Y62250000D03*
X27500000Y62250000D03*
X10500000Y12750000D03*
X11500000Y22250000D03*
X18250000Y12750000D03*
X12500000Y12750000D03*
X12750000Y22250000D03*
X19500000Y12750000D03*
X29800000Y50400000D03*
X27250000Y20000000D03*
D47*
X36450000Y52500000D03*
D48*
X36750000Y51000000D03*
X36750000Y54000000D03*
D49*
X33750000Y52500000D03*
D50*
X36450000Y52500000D03*
X37050000Y52500000D03*
X35850000Y52500000D03*
X35250000Y52500000D03*
X34650000Y52500000D03*
X34050000Y52500000D03*
X33450000Y52500000D03*
X32850000Y52500000D03*
X32250000Y52500000D03*
X35250000Y53000000D03*
X34650000Y53000000D03*
X34050000Y53000000D03*
X33450000Y53000000D03*
X32850000Y53000000D03*
X32850000Y52000000D03*
X33450000Y52000000D03*
X34050000Y52000000D03*
X34650000Y52000000D03*
X35250000Y52000000D03*
X32250000Y52000000D03*
X32250000Y53000000D03*
D51*
X25000000Y62500000D03*
X23900000Y62500000D03*
X28500000Y12500000D03*
X29600000Y12500000D03*
X40500000Y68700000D03*
X39400000Y68700000D03*
X43700000Y12800000D03*
X42600000Y12800000D03*
X44900000Y12800000D03*
X46000000Y12800000D03*
M02*
