M48
;DRILL file {kicad (2014-jul-16 BZR unknown)-product} date Wed 23 Jul 2014 18:14:36 BST
;FORMAT={-:-/ absolute / inch / decimal}
FMAT,2
INCH,TZ
T1C0.008
T2C0.024
T3C0.025
T4C0.028
T5C0.039
%
G90
G05
M72
T1
X1.2697Y2.0866
X1.2697Y2.0669
X1.2697Y2.0472
X1.2933Y2.0866
X1.2933Y2.0669
X1.2933Y2.0472
X1.3169Y2.0866
X1.3169Y2.0669
X1.3169Y2.0472
X1.3406Y2.0866
X1.3406Y2.0669
X1.3406Y2.0472
X1.3642Y2.0866
X1.3642Y2.0669
X1.3642Y2.0472
X1.3878Y2.0866
X1.3878Y2.0669
X1.3878Y2.0472
X1.4114Y2.0669
X1.435Y2.0669
X1.4587Y2.0669
T2
X0.0787Y2.8346
X0.0787Y2.7559
X0.0787Y2.6772
X0.0787Y2.5984
X0.0787Y2.5197
X0.0787Y2.4409
X0.0787Y2.3622
X0.0787Y2.2835
X0.0787Y2.2047
X0.0787Y2.126
X0.1378Y1.7165
X0.1417Y1.2598
X0.1496Y1.7992
X0.1496Y1.7559
X0.1575Y2.6378
X0.1575Y2.1654
X0.1811Y1.0472
X0.1929Y2.5787
X0.2205Y2.7087
X0.2343Y1.6811
X0.2362Y2.4803
X0.2362Y2.2441
X0.2421Y1.4193
X0.248Y1.3622
X0.2657Y1.4528
X0.2697Y1.6594
X0.2756Y2.2835
X0.2795Y1.9252
X0.2835Y2.1378
X0.2835Y1.4902
X0.2992Y1.7559
X0.311Y1.6594
X0.3307Y1.7992
X0.372Y1.5768
X0.3937Y1.2874
X0.4016Y0.874
X0.4567Y1.1732
X0.4724Y2.689
X0.4724Y2.6457
X0.4724Y2.6024
X0.4882Y2.7205
X0.4902Y1.7638
X0.4921Y1.311
X0.502Y1.5453
X0.5118Y2.6378
X0.5118Y2.5591
X0.5118Y2.4803
X0.5118Y2.4016
X0.5118Y2.3228
X0.5118Y2.2441
X0.5118Y2.1654
X0.5512Y2.6772
X0.5512Y2.126
X0.5906Y2.5591
X0.5906Y2.4803
X0.5906Y2.4016
X0.5906Y2.3228
X0.5906Y2.2441
X0.5906Y2.1654
X0.6024Y1.0787
X0.6083Y2.0256
X0.626Y0.8071
X0.6299Y2.874
X0.6299Y2.7953
X0.6299Y2.7165
X0.6299Y2.2047
X0.6476Y2.0413
X0.6693Y2.6378
X0.6693Y2.5197
X0.6693Y2.4409
X0.6693Y2.3622
X0.6693Y2.2835
X0.6949Y1.8681
X0.7087Y2.874
X0.7087Y2.7953
X0.7264Y2.
X0.7303Y2.0413
X0.748Y2.7165
X0.748Y2.5591
X0.7874Y2.874
X0.7874Y2.6378
X0.7953Y2.0827
X0.8268Y2.8346
X0.8268Y2.7559
X0.8268Y2.6772
X0.8465Y1.5059
X0.8661Y0.8543
X0.8937Y1.9902
X0.8937Y1.9488
X0.8937Y1.9055
X0.8976Y0.5157
X0.9252Y2.4764
X0.9409Y1.5748
X0.9488Y1.5315
X0.9646Y1.9902
X0.9665Y1.9488
X0.9685Y1.9075
X0.9803Y2.1969
X0.9843Y1.3543
X0.9882Y2.0276
X0.9921Y1.5315
X1.0669Y0.8346
X1.0984Y1.5315
X1.1063Y0.8976
X1.1063Y0.8543
X1.1575Y1.4803
X1.2008Y0.4921
X1.2402Y2.3583
X1.2677Y0.8976
X1.2677Y0.8543
X1.2677Y0.8071
X1.2795Y1.8701
X1.2795Y1.7913
X1.2795Y1.7126
X1.2795Y1.6339
X1.2795Y1.5551
X1.2795Y1.4764
X1.2795Y1.378
X1.2795Y1.2992
X1.2795Y1.2205
X1.2795Y1.1417
X1.2795Y1.063
X1.2795Y0.9843
X1.2992Y1.9882
X1.3189Y1.4173
X1.3504Y1.9961
X1.3583Y0.9252
X1.378Y2.8346
X1.378Y2.7559
X1.378Y2.6772
X1.378Y2.5984
X1.378Y2.5197
X1.378Y2.4409
X1.378Y2.3524
X1.378Y2.1457
X1.3976Y1.4173
X1.437Y0.9252
X1.4724Y2.7087
X1.4764Y1.4173
X1.5039Y1.7323
X1.5039Y1.7008
X1.5039Y1.6693
X1.5039Y1.6378
X1.5039Y1.6063
X1.5039Y1.5748
X1.5157Y2.5787
X1.5157Y2.5472
X1.5157Y2.5157
X1.5157Y2.4843
X1.5157Y0.9252
X1.5945Y0.9252
X1.6732Y0.9252
X1.7441Y0.4764
X1.752Y0.9252
X1.815Y2.7087
X1.8307Y0.9252
X1.9094Y2.8346
X1.9094Y2.7559
X1.9094Y2.6772
X1.9094Y2.5984
X1.9094Y2.5197
X1.9094Y2.4409
X1.9094Y2.3622
X1.9094Y2.2835
X1.9094Y2.2047
X1.9094Y2.126
X1.9094Y2.0472
X1.9094Y1.9685
X1.9094Y1.8898
X1.9094Y1.811
X1.9094Y1.7323
X1.9094Y1.6535
X1.9094Y1.5748
X1.9094Y1.4961
X1.9094Y1.4173
X1.9094Y1.3386
X1.9094Y1.2598
X1.9094Y1.1811
X1.9094Y1.1024
X1.9094Y1.0236
X1.9094Y0.9252
T3
X0.1469Y1.5945
X0.1469Y1.5445
X0.1469Y1.4945
X0.1469Y1.4445
X0.1469Y1.3945
X0.1969Y1.5945
X0.1969Y1.5445
X0.1969Y1.4945
X0.1969Y1.4445
X0.1969Y1.3945
T4
X0.1575Y0.3248
X0.2362Y0.3248
X0.2835Y1.1417
X0.2835Y0.9496
X0.315Y0.3248
X0.3937Y0.3248
X0.6299Y0.3248
X0.7087Y0.3248
X0.7874Y0.3248
X0.8661Y0.3248
X1.0236Y2.628
X1.1024Y2.628
X1.1024Y0.3248
X1.1811Y2.628
X1.1811Y0.3248
X1.2598Y2.628
X1.4173Y0.3248
X1.4961Y0.3248
X1.7323Y0.3248
X1.811Y0.3248
T5
X1.0669Y1.374
X1.0669Y1.2953
X1.0669Y1.2165
X1.0669Y1.1378
X1.0669Y1.0591
X1.0669Y0.9803
X1.7165Y1.3543
X1.7953Y1.3543
T0
M30
