M48
;DRILL file {kicad (2014-jul-16 BZR unknown)-product} date Thu 24 Jul 2014 13:18:24 BST
;FORMAT={-:-/ absolute / inch / decimal}
FMAT,2
INCH,TZ
T1C0.008
T2C0.024
T3C0.025
T4C0.028
T5C0.039
%
G90
G05
M72
T1
X1.2697Y-0.8661
X1.2697Y-0.8858
X1.2697Y-0.9055
X1.2933Y-0.8661
X1.2933Y-0.8858
X1.2933Y-0.9055
X1.3169Y-0.8661
X1.3169Y-0.8858
X1.3169Y-0.9055
X1.3406Y-0.8661
X1.3406Y-0.8858
X1.3406Y-0.9055
X1.3642Y-0.8661
X1.3642Y-0.8858
X1.3642Y-0.9055
X1.3878Y-0.8661
X1.3878Y-0.8858
X1.3878Y-0.9055
X1.4114Y-0.8858
X1.435Y-0.8858
X1.4587Y-0.8858
T2
X0.0787Y-0.1181
X0.0787Y-0.1969
X0.0787Y-0.2756
X0.0787Y-0.3543
X0.0787Y-0.4331
X0.0787Y-0.5118
X0.0787Y-0.5906
X0.0787Y-0.6693
X0.0787Y-0.748
X0.0787Y-0.8268
X0.1378Y-1.2362
X0.1417Y-1.6929
X0.1496Y-1.1535
X0.1496Y-1.1969
X0.1575Y-0.315
X0.1575Y-0.7874
X0.1654Y-1.0394
X0.1811Y-1.9055
X0.2205Y-0.2441
X0.2343Y-1.2717
X0.2362Y-0.3465
X0.2362Y-0.4724
X0.2362Y-0.7087
X0.2382Y-0.3031
X0.2421Y-1.5335
X0.248Y-1.5906
X0.2657Y-1.5
X0.2697Y-1.2933
X0.2756Y-0.6693
X0.2795Y-0.3976
X0.2795Y-0.4409
X0.2795Y-0.4764
X0.2835Y-1.4626
X0.2992Y-1.1969
X0.3071Y-0.5039
X0.311Y-0.9331
X0.311Y-0.9843
X0.311Y-1.2933
X0.3307Y-1.1535
X0.3346Y-0.5315
X0.3681Y-0.4232
X0.3681Y-0.5492
X0.372Y-1.376
X0.3937Y-1.6654
X0.4016Y-2.0787
X0.4055Y-0.2362
X0.4094Y-0.9331
X0.4429Y-0.4154
X0.4567Y-1.7795
X0.4626Y-0.2657
X0.4882Y-0.2323
X0.4902Y-1.189
X0.4921Y-1.6417
X0.502Y-1.4075
X0.5118Y-0.315
X0.5118Y-0.3937
X0.5118Y-0.4724
X0.5118Y-0.5512
X0.5118Y-0.6299
X0.5118Y-0.7087
X0.5118Y-0.7874
X0.5512Y-0.2756
X0.5906Y-0.3937
X0.5906Y-0.4724
X0.5906Y-0.5512
X0.5906Y-0.6299
X0.5906Y-0.7087
X0.6024Y-1.874
X0.6083Y-0.9272
X0.626Y-2.1457
X0.6299Y-0.0787
X0.6299Y-0.1575
X0.6299Y-0.2362
X0.6299Y-0.748
X0.6476Y-0.9114
X0.6535Y-0.4331
X0.6535Y-0.5118
X0.6535Y-0.5906
X0.6535Y-0.6693
X0.6693Y-0.315
X0.6949Y-1.0846
X0.7087Y-0.0787
X0.7087Y-0.1575
X0.7264Y-0.9528
X0.7303Y-0.9114
X0.748Y-0.2362
X0.748Y-0.3937
X0.7874Y-0.0787
X0.7874Y-0.315
X0.7953Y-0.8701
X0.8268Y-0.1181
X0.8268Y-0.1969
X0.8268Y-0.2756
X0.8465Y-1.4469
X0.8661Y-2.0984
X0.8937Y-0.9626
X0.8937Y-1.0039
X0.8937Y-1.0472
X0.8976Y-2.437
X0.9252Y-0.4764
X0.9409Y-1.378
X0.9488Y-1.4213
X0.9646Y-0.9626
X0.9665Y-1.0039
X0.9685Y-1.0453
X0.9803Y-0.7559
X0.9843Y-1.5984
X0.9882Y-0.9252
X0.9921Y-1.4213
X1.0669Y-2.1181
X1.0984Y-1.4213
X1.1063Y-2.0551
X1.1063Y-2.0984
X1.1575Y-1.4724
X1.2008Y-2.4606
X1.2402Y-0.5945
X1.2677Y-2.0551
X1.2677Y-2.0984
X1.2677Y-2.1457
X1.2795Y-1.0827
X1.2795Y-1.1614
X1.2795Y-1.2402
X1.2795Y-1.3189
X1.2795Y-1.3976
X1.2795Y-1.4764
X1.2795Y-1.5748
X1.2795Y-1.6535
X1.2795Y-1.7323
X1.2795Y-1.811
X1.2795Y-1.8898
X1.2795Y-1.9685
X1.2992Y-0.9646
X1.3189Y-1.5354
X1.3504Y-0.9567
X1.3583Y-2.0276
X1.378Y-0.1181
X1.378Y-0.1969
X1.378Y-0.2756
X1.378Y-0.3543
X1.378Y-0.4331
X1.378Y-0.5118
X1.378Y-0.6004
X1.378Y-0.8071
X1.3976Y-1.5354
X1.437Y-2.0276
X1.4724Y-0.2441
X1.4764Y-1.5354
X1.5039Y-1.2205
X1.5039Y-1.252
X1.5039Y-1.2835
X1.5039Y-1.315
X1.5039Y-1.3465
X1.5039Y-1.378
X1.5157Y-0.374
X1.5157Y-0.4055
X1.5157Y-0.437
X1.5157Y-0.4685
X1.5157Y-2.0276
X1.5945Y-2.0276
X1.6732Y-2.0276
X1.7441Y-2.4764
X1.752Y-2.0276
X1.815Y-0.2441
X1.8307Y-2.0276
X1.9094Y-0.1181
X1.9094Y-0.1969
X1.9094Y-0.2756
X1.9094Y-0.3543
X1.9094Y-0.4331
X1.9094Y-0.5118
X1.9094Y-0.5906
X1.9094Y-0.6693
X1.9094Y-0.748
X1.9094Y-0.8268
X1.9094Y-0.9055
X1.9094Y-0.9843
X1.9094Y-1.063
X1.9094Y-1.1417
X1.9094Y-1.2205
X1.9094Y-1.2992
X1.9094Y-1.378
X1.9094Y-1.4567
X1.9094Y-1.5354
X1.9094Y-1.6142
X1.9094Y-1.6929
X1.9094Y-1.7717
X1.9094Y-1.8504
X1.9094Y-1.9291
X1.9094Y-2.0276
T3
X0.1469Y-1.3583
X0.1469Y-1.4083
X0.1469Y-1.4583
X0.1469Y-1.5083
X0.1469Y-1.5583
X0.1969Y-1.3583
X0.1969Y-1.4083
X0.1969Y-1.4583
X0.1969Y-1.5083
X0.1969Y-1.5583
T4
X0.1575Y-2.628
X0.2362Y-2.628
X0.2835Y-1.811
X0.2835Y-2.0031
X0.315Y-2.628
X0.3937Y-2.628
X0.6299Y-2.628
X0.7087Y-2.628
X0.7874Y-2.628
X0.8661Y-2.628
X1.0236Y-0.3248
X1.1024Y-0.3248
X1.1024Y-2.628
X1.1811Y-0.3248
X1.1811Y-2.628
X1.2598Y-0.3248
X1.4173Y-2.628
X1.4961Y-2.628
X1.7323Y-2.628
X1.811Y-2.628
T5
X1.0669Y-1.5787
X1.0669Y-1.6575
X1.0669Y-1.7362
X1.0669Y-1.815
X1.0669Y-1.8937
X1.0669Y-1.9724
X1.7165Y-1.5984
X1.7953Y-1.5984
T0
M30
