M48
;DRILL file {kicad (2014-jul-16 BZR unknown)-product} date Wed 23 Jul 2014 04:52:49 BST
;FORMAT={-:-/ absolute / inch / decimal}
FMAT,2
INCH,TZ
T1C0.008
T2C0.024
T3C0.025
T4C0.028
T5C0.039
%
G90
G05
M72
T1
X5.8366Y-3.189
X5.8366Y-3.2087
X5.8366Y-3.2283
X5.8602Y-3.189
X5.8602Y-3.2087
X5.8602Y-3.2283
X5.8839Y-3.189
X5.8839Y-3.2087
X5.8839Y-3.2283
X5.9075Y-3.189
X5.9075Y-3.2087
X5.9075Y-3.2283
X5.9311Y-3.189
X5.9311Y-3.2087
X5.9311Y-3.2283
X5.9547Y-3.189
X5.9547Y-3.2087
X5.9547Y-3.2283
X5.9783Y-3.2087
X6.002Y-3.2087
X6.0256Y-3.2087
T2
X4.6457Y-2.4409
X4.6457Y-2.5197
X4.6457Y-2.5984
X4.6457Y-2.6772
X4.6457Y-2.7559
X4.6457Y-2.8346
X4.6457Y-2.9134
X4.6457Y-2.9921
X4.6457Y-3.0709
X4.6457Y-3.1496
X4.7047Y-3.5591
X4.7087Y-4.0157
X4.7165Y-3.4764
X4.7165Y-3.5197
X4.7244Y-2.6378
X4.7244Y-3.1102
X4.748Y-4.2283
X4.7598Y-2.6969
X4.7874Y-2.5669
X4.8012Y-3.5945
X4.8031Y-2.7953
X4.8031Y-3.0315
X4.8091Y-3.8563
X4.815Y-3.9134
X4.8327Y-3.8228
X4.8366Y-3.6161
X4.8425Y-2.9921
X4.8465Y-3.3504
X4.8504Y-3.1378
X4.8504Y-3.7854
X4.8661Y-3.5197
X4.878Y-3.6161
X4.8976Y-3.4764
X4.939Y-3.6988
X4.9606Y-3.9882
X4.9685Y-4.4016
X5.0236Y-4.1024
X5.0394Y-2.5866
X5.0394Y-2.6299
X5.0394Y-2.6732
X5.0551Y-2.5551
X5.0571Y-3.5118
X5.0591Y-3.9646
X5.0689Y-3.7303
X5.0787Y-2.6378
X5.0787Y-2.7165
X5.0787Y-2.7953
X5.0787Y-2.874
X5.0787Y-2.9528
X5.0787Y-3.0315
X5.0787Y-3.1102
X5.1181Y-2.5984
X5.1181Y-3.1496
X5.1575Y-2.7165
X5.1575Y-2.7953
X5.1575Y-2.874
X5.1575Y-2.9528
X5.1575Y-3.0315
X5.1575Y-3.1102
X5.1693Y-4.1969
X5.1752Y-3.25
X5.1929Y-4.4685
X5.1969Y-2.4016
X5.1969Y-2.4803
X5.1969Y-2.5591
X5.1969Y-3.0709
X5.2146Y-3.2343
X5.2362Y-2.6378
X5.2362Y-2.7559
X5.2362Y-2.8346
X5.2362Y-2.9134
X5.2362Y-2.9921
X5.2618Y-3.4075
X5.2756Y-2.4016
X5.2756Y-2.4803
X5.2933Y-3.2756
X5.2972Y-3.2343
X5.315Y-2.5591
X5.315Y-2.7165
X5.3543Y-2.4016
X5.3543Y-2.6378
X5.3622Y-3.1929
X5.3937Y-2.4409
X5.3937Y-2.5197
X5.3937Y-2.5984
X5.4134Y-3.7697
X5.4331Y-4.4213
X5.4606Y-3.2854
X5.4606Y-3.3268
X5.4606Y-3.3701
X5.4646Y-4.7598
X5.4921Y-2.7992
X5.5315Y-3.2854
X5.5335Y-3.3268
X5.5354Y-3.3681
X5.5472Y-3.0787
X5.5551Y-3.248
X5.5591Y-3.7441
X5.5807Y-3.937
X5.6654Y-3.7441
X5.6791Y-4.3465
X5.6791Y-4.3898
X5.6791Y-4.4311
X5.7244Y-3.8189
X5.7402Y-4.7835
X5.8071Y-2.9173
X5.8268Y-4.3465
X5.8268Y-4.3898
X5.8268Y-4.4331
X5.9173Y-3.2795
X5.9449Y-2.9232
X6.0394Y-2.5669
X6.0827Y-3.6693
X6.0984Y-2.7283
X6.3386Y-4.815
X6.3819Y-2.5669
T3
X4.7138Y-3.6811
X4.7138Y-3.7311
X4.7138Y-3.7811
X4.7138Y-3.8311
X4.7138Y-3.8811
X4.7638Y-3.6811
X4.7638Y-3.7311
X4.7638Y-3.7811
X4.7638Y-3.8311
X4.7638Y-3.8811
T4
X4.7244Y-4.9508
X4.8031Y-4.9508
X4.8504Y-4.1339
X4.8504Y-4.326
X4.8819Y-4.9508
X4.9606Y-4.9508
X5.1969Y-4.9508
X5.2756Y-4.9508
X5.3543Y-4.9508
X5.4331Y-4.9508
X5.5906Y-2.6476
X5.6693Y-2.6476
X5.6693Y-4.9508
X5.748Y-2.6476
X5.748Y-4.9508
X5.8268Y-2.6476
X5.9843Y-4.9508
X6.063Y-4.9508
X6.2992Y-4.9508
X6.378Y-4.9508
T5
X5.6339Y-3.9016
X5.6339Y-3.9803
X5.6339Y-4.0591
X5.6339Y-4.1378
X5.6339Y-4.2165
X5.6339Y-4.2953
X6.2835Y-3.9213
X6.3622Y-3.9213
T0
M30
