G04 This is an RS-274x file exported by *
G04 gerbv version 2.5.0 *
G04 More information is available about gerbv at *
G04 http://gerbv.gpleda.org/ *
G04 --End of header info--*
%MOIN*%
%FSLAX23Y23*%
%IPPOS*%
G04 --Define apertures--*
%ADD10C,0.0039*%
%ADD11R,0.0472X0.0669*%
%ADD12R,0.0669X0.0472*%
%ADD13R,0.0197X0.0236*%
%ADD14R,0.0315X0.0315*%
%ADD15R,0.0236X0.0197*%
%ADD16R,0.0276X0.0394*%
%ADD17R,0.0394X0.0276*%
%ADD18R,0.0380X0.0500*%
%ADD19R,0.0551X0.0157*%
%ADD20R,0.0472X0.0118*%
%ADD21R,0.0118X0.0472*%
%ADD22R,0.0157X0.0315*%
%ADD23R,0.0608X0.0217*%
%ADD24R,0.0217X0.0608*%
%ADD25R,0.0591X0.0236*%
%ADD26R,0.0315X0.0118*%
%ADD27R,0.0118X0.0315*%
%ADD28R,0.0236X0.0866*%
%ADD29R,0.0157X0.0551*%
%ADD30R,0.1260X0.1457*%
%ADD31R,0.0394X0.0315*%
%ADD32R,0.0906X0.0984*%
%ADD33R,0.0433X0.0276*%
%ADD34R,0.0720X0.0449*%
%ADD35R,0.1102X0.0339*%
%ADD36R,0.1311X0.0276*%
%ADD37R,0.0366X0.0354*%
%ADD38R,0.0307X0.0413*%
%ADD39C,0.1299*%
%ADD40R,0.0315X0.0276*%
%ADD41R,0.0276X0.0315*%
%ADD42R,0.0236X0.0236*%
%ADD43R,0.0709X0.0276*%
%ADD44R,0.0709X0.0315*%
%ADD45R,0.0252X0.0402*%
%ADD46R,0.0402X0.0252*%
%ADD47R,0.0260X0.0142*%
%ADD48R,0.0512X0.0945*%
%ADD49R,0.1496X0.0945*%
%ADD50R,0.0748X0.0354*%
%ADD51R,0.0512X0.0354*%
%ADD52R,0.1378X0.0709*%
%ADD53R,0.0118X0.0118*%
%ADD54R,0.0236X0.0138*%
%ADD55R,0.0669X0.0630*%
%ADD56R,0.0138X0.0236*%
G04 --Start main section--*
G54D11*
G01X00496Y-0425D03*
G01X00618Y-0425D03*
G01X00906Y-0339D03*
G01X00783Y-0339D03*
G54D12*
G01X01079Y-0654D03*
G01X01079Y-0531D03*
G54D11*
G01X00496Y-0709D03*
G01X00618Y-0709D03*
G01X00496Y-0858D03*
G01X00618Y-0858D03*
G01X00906Y-0772D03*
G01X00783Y-0772D03*
G54D12*
G01X01079Y-1087D03*
G01X01079Y-0965D03*
G54D11*
G01X00496Y-1142D03*
G01X00618Y-1142D03*
G01X00496Y-1283D03*
G01X00618Y-1283D03*
G01X00906Y-1197D03*
G01X00783Y-1197D03*
G54D12*
G01X01079Y-1512D03*
G01X01079Y-1390D03*
G54D11*
G01X00496Y-1559D03*
G01X00618Y-1559D03*
G54D13*
G01X03449Y-1591D03*
G01X03449Y-1634D03*
G01X03449Y-1213D03*
G01X03449Y-1256D03*
G01X00465Y-2220D03*
G01X00465Y-2264D03*
G01X00535Y-2220D03*
G01X00535Y-2264D03*
G01X00898Y-2220D03*
G01X00898Y-2264D03*
G01X00969Y-2220D03*
G01X00969Y-2264D03*
G01X01331Y-2220D03*
G01X01331Y-2264D03*
G01X01402Y-2220D03*
G01X01402Y-2264D03*
G54D14*
G01X02825Y-1146D03*
G01X02890Y-1146D03*
G01X02825Y-1085D03*
G01X02890Y-1085D03*
G01X02825Y-1026D03*
G01X02890Y-1026D03*
G01X02825Y-0967D03*
G01X02890Y-0967D03*
G01X02825Y-0907D03*
G01X02890Y-0907D03*
G54D15*
G01X03402Y-0866D03*
G01X03445Y-0866D03*
G01X03402Y-0945D03*
G01X03445Y-0945D03*
G54D16*
G01X02535Y-2264D03*
G01X02535Y-2366D03*
G54D15*
G01X02732Y-2268D03*
G01X02776Y-2268D03*
G54D16*
G01X03110Y-2209D03*
G01X03110Y-2106D03*
G54D15*
G01X03047Y-2268D03*
G01X03091Y-2268D03*
G54D17*
G01X03587Y-2268D03*
G01X03689Y-2268D03*
G54D15*
G01X03409Y-2268D03*
G01X03366Y-2268D03*
G01X00496Y-0543D03*
G01X00539Y-0543D03*
G01X00496Y-0591D03*
G01X00539Y-0591D03*
G01X00496Y-0976D03*
G01X00539Y-0976D03*
G01X00496Y-1024D03*
G01X00539Y-1024D03*
G01X00496Y-1402D03*
G01X00539Y-1402D03*
G01X00496Y-1441D03*
G01X00539Y-1441D03*
G54D18*
G01X02781Y-1250D03*
G01X02731Y-1250D03*
G54D19*
G01X03110Y-1205D03*
G01X03110Y-1230D03*
G01X03110Y-1256D03*
G01X03110Y-1281D03*
G01X03283Y-1281D03*
G01X03283Y-1256D03*
G01X03283Y-1230D03*
G01X03283Y-1205D03*
G54D20*
G01X01803Y-1220D03*
G01X01803Y-1240D03*
G01X01803Y-1260D03*
G01X01803Y-1280D03*
G01X01803Y-1299D03*
G01X01803Y-1319D03*
G01X01803Y-1339D03*
G01X01803Y-1358D03*
G01X01803Y-1378D03*
G01X01803Y-1398D03*
G01X01803Y-1417D03*
G01X01803Y-1437D03*
G01X01803Y-1457D03*
G01X01803Y-1476D03*
G01X01803Y-1496D03*
G01X01803Y-1516D03*
G01X01803Y-1535D03*
G01X01803Y-1555D03*
G01X01803Y-1575D03*
G01X01803Y-1594D03*
G01X01803Y-1614D03*
G01X01803Y-1634D03*
G01X01803Y-1654D03*
G01X01803Y-1673D03*
G01X01803Y-1693D03*
G54D21*
G01X01872Y-1762D03*
G01X01892Y-1762D03*
G01X01911Y-1762D03*
G01X01931Y-1762D03*
G01X01951Y-1762D03*
G01X01970Y-1762D03*
G01X01990Y-1762D03*
G01X02010Y-1762D03*
G01X02030Y-1762D03*
G01X02049Y-1762D03*
G01X02069Y-1762D03*
G01X02089Y-1762D03*
G01X02108Y-1762D03*
G01X02128Y-1762D03*
G01X02148Y-1762D03*
G01X02167Y-1762D03*
G01X02187Y-1762D03*
G01X02207Y-1762D03*
G01X02226Y-1762D03*
G01X02246Y-1762D03*
G01X02266Y-1762D03*
G01X02285Y-1762D03*
G01X02305Y-1762D03*
G01X02325Y-1762D03*
G01X02344Y-1762D03*
G54D20*
G01X02413Y-1693D03*
G01X02413Y-1673D03*
G01X02413Y-1654D03*
G01X02413Y-1634D03*
G01X02413Y-1614D03*
G01X02413Y-1594D03*
G01X02413Y-1575D03*
G01X02413Y-1555D03*
G01X02413Y-1535D03*
G01X02413Y-1516D03*
G01X02413Y-1496D03*
G01X02413Y-1476D03*
G01X02413Y-1457D03*
G01X02413Y-1437D03*
G01X02413Y-1417D03*
G01X02413Y-1398D03*
G01X02413Y-1378D03*
G01X02413Y-1358D03*
G01X02413Y-1339D03*
G01X02413Y-1319D03*
G01X02413Y-1299D03*
G01X02413Y-1280D03*
G01X02413Y-1260D03*
G01X02413Y-1240D03*
G01X02413Y-1220D03*
G54D21*
G01X02344Y-1152D03*
G01X02325Y-1152D03*
G01X02305Y-1152D03*
G01X02285Y-1152D03*
G01X02266Y-1152D03*
G01X02246Y-1152D03*
G01X02226Y-1152D03*
G01X02207Y-1152D03*
G01X02187Y-1152D03*
G01X02167Y-1152D03*
G01X02148Y-1152D03*
G01X02128Y-1152D03*
G01X02108Y-1152D03*
G01X02089Y-1152D03*
G01X02069Y-1152D03*
G01X02049Y-1152D03*
G01X02030Y-1152D03*
G01X02010Y-1152D03*
G01X01990Y-1152D03*
G01X01970Y-1152D03*
G01X01951Y-1152D03*
G01X01931Y-1152D03*
G01X01911Y-1152D03*
G01X01892Y-1152D03*
G01X01872Y-1152D03*
G54D19*
G01X00591Y-2165D03*
G01X00591Y-2140D03*
G01X00591Y-2114D03*
G01X00591Y-2089D03*
G01X00417Y-2089D03*
G01X00417Y-2114D03*
G01X00417Y-2140D03*
G01X00417Y-2165D03*
G01X00417Y-1772D03*
G01X00417Y-1797D03*
G01X00417Y-1823D03*
G01X00417Y-1848D03*
G01X00591Y-1848D03*
G01X00591Y-1823D03*
G01X00591Y-1797D03*
G01X00591Y-1772D03*
G54D22*
G01X00449Y-2031D03*
G01X00474Y-2031D03*
G01X00500Y-2031D03*
G01X00449Y-1957D03*
G01X00500Y-1957D03*
G54D19*
G01X01024Y-2165D03*
G01X01024Y-2140D03*
G01X01024Y-2114D03*
G01X01024Y-2089D03*
G01X00850Y-2089D03*
G01X00850Y-2114D03*
G01X00850Y-2140D03*
G01X00850Y-2165D03*
G01X00850Y-1772D03*
G01X00850Y-1797D03*
G01X00850Y-1823D03*
G01X00850Y-1848D03*
G01X01024Y-1848D03*
G01X01024Y-1823D03*
G01X01024Y-1797D03*
G01X01024Y-1772D03*
G54D22*
G01X00882Y-2031D03*
G01X00907Y-2031D03*
G01X00933Y-2031D03*
G01X00882Y-1957D03*
G01X00933Y-1957D03*
G54D19*
G01X01457Y-2165D03*
G01X01457Y-2140D03*
G01X01457Y-2114D03*
G01X01457Y-2089D03*
G01X01283Y-2089D03*
G01X01283Y-2114D03*
G01X01283Y-2140D03*
G01X01283Y-2165D03*
G01X01283Y-1772D03*
G01X01283Y-1797D03*
G01X01283Y-1823D03*
G01X01283Y-1848D03*
G01X01457Y-1848D03*
G01X01457Y-1823D03*
G01X01457Y-1797D03*
G01X01457Y-1772D03*
G54D22*
G01X01315Y-2031D03*
G01X01341Y-2031D03*
G01X01366Y-2031D03*
G01X01315Y-1957D03*
G01X01366Y-1957D03*
G54D23*
G01X01898Y-1898D03*
G01X01898Y-1929D03*
G01X01898Y-1961D03*
G01X01898Y-1992D03*
G01X01898Y-2024D03*
G01X01898Y-2055D03*
G01X02000Y-2055D03*
G01X02000Y-2024D03*
G01X02000Y-1992D03*
G01X02000Y-1961D03*
G01X02000Y-1929D03*
G01X02000Y-1898D03*
G54D24*
G01X01949Y-1886D03*
G01X01949Y-2067D03*
G54D23*
G01X02740Y-1575D03*
G01X02740Y-1543D03*
G01X02740Y-1512D03*
G01X02740Y-1480D03*
G01X02740Y-1449D03*
G01X02740Y-1417D03*
G01X02638Y-1417D03*
G01X02638Y-1449D03*
G01X02638Y-1480D03*
G01X02638Y-1512D03*
G01X02638Y-1543D03*
G01X02638Y-1575D03*
G54D24*
G01X02689Y-1587D03*
G01X02689Y-1406D03*
G54D25*
G01X01843Y-0736D03*
G01X01843Y-0687D03*
G01X01843Y-0638D03*
G01X01740Y-0638D03*
G01X01740Y-0687D03*
G01X01740Y-0736D03*
G01X01843Y-0589D03*
G01X01740Y-0589D03*
G54D26*
G01X02281Y-1957D03*
G01X02281Y-1931D03*
G01X02281Y-1906D03*
G01X02281Y-1880D03*
G54D27*
G01X02243Y-1842D03*
G01X02218Y-1842D03*
G01X02192Y-1842D03*
G01X02166Y-1842D03*
G54D26*
G01X02128Y-1880D03*
G01X02128Y-1906D03*
G01X02128Y-1931D03*
G01X02128Y-1957D03*
G54D27*
G01X02166Y-1995D03*
G01X02192Y-1995D03*
G01X02218Y-1995D03*
G01X02243Y-1995D03*
G54D28*
G01X01260Y-0827D03*
G01X01310Y-0827D03*
G01X01360Y-0827D03*
G01X01410Y-0827D03*
G01X01410Y-0622D03*
G01X01360Y-0622D03*
G01X01310Y-0622D03*
G01X01260Y-0622D03*
G01X01460Y-0827D03*
G01X01510Y-0827D03*
G01X01560Y-0827D03*
G01X01610Y-0827D03*
G01X01460Y-0622D03*
G01X01510Y-0622D03*
G01X01560Y-0622D03*
G01X01610Y-0622D03*
G01X02100Y-0732D03*
G01X02150Y-0732D03*
G01X02200Y-0732D03*
G01X02250Y-0732D03*
G01X02250Y-0527D03*
G01X02200Y-0527D03*
G01X02150Y-0527D03*
G01X02100Y-0527D03*
G54D29*
G01X00685Y-0654D03*
G01X00711Y-0654D03*
G01X00736Y-0654D03*
G01X00762Y-0654D03*
G01X00762Y-0480D03*
G01X00736Y-0480D03*
G01X00711Y-0480D03*
G01X00685Y-0480D03*
G01X00898Y-0480D03*
G01X00872Y-0480D03*
G01X00846Y-0480D03*
G01X00821Y-0480D03*
G01X00821Y-0654D03*
G01X00846Y-0654D03*
G01X00872Y-0654D03*
G01X00898Y-0654D03*
G01X00685Y-1087D03*
G01X00711Y-1087D03*
G01X00736Y-1087D03*
G01X00762Y-1087D03*
G01X00762Y-0913D03*
G01X00736Y-0913D03*
G01X00711Y-0913D03*
G01X00685Y-0913D03*
G01X00898Y-0913D03*
G01X00872Y-0913D03*
G01X00846Y-0913D03*
G01X00821Y-0913D03*
G01X00821Y-1087D03*
G01X00846Y-1087D03*
G01X00872Y-1087D03*
G01X00898Y-1087D03*
G01X00685Y-1512D03*
G01X00711Y-1512D03*
G01X00736Y-1512D03*
G01X00762Y-1512D03*
G01X00762Y-1339D03*
G01X00736Y-1339D03*
G01X00711Y-1339D03*
G01X00685Y-1339D03*
G01X00898Y-1339D03*
G01X00872Y-1339D03*
G01X00846Y-1339D03*
G01X00821Y-1339D03*
G01X00821Y-1512D03*
G01X00846Y-1512D03*
G01X00872Y-1512D03*
G01X00898Y-1512D03*
G54D14*
G01X01772Y-1858D03*
G01X01772Y-1795D03*
G01X01827Y-1795D03*
G01X01827Y-1858D03*
G01X02370Y-0898D03*
G01X02370Y-0961D03*
G01X02425Y-0898D03*
G01X02425Y-0961D03*
G01X02315Y-0898D03*
G01X02315Y-0961D03*
G01X02260Y-0898D03*
G01X02260Y-0961D03*
G01X02189Y-0898D03*
G01X02189Y-0961D03*
G01X01394Y-1417D03*
G01X01457Y-1417D03*
G01X00646Y-2260D03*
G01X00583Y-2260D03*
G01X00606Y-1969D03*
G01X00606Y-2031D03*
G01X00661Y-2150D03*
G01X00661Y-2087D03*
G01X00331Y-2087D03*
G01X00331Y-2150D03*
G01X00386Y-1969D03*
G01X00386Y-2031D03*
G01X00331Y-1772D03*
G01X00331Y-1835D03*
G01X00386Y-1654D03*
G01X00386Y-1717D03*
G01X00551Y-2031D03*
G01X00551Y-1969D03*
G01X01079Y-2264D03*
G01X01016Y-2264D03*
G01X01039Y-1969D03*
G01X01039Y-2031D03*
G01X01094Y-2150D03*
G01X01094Y-2087D03*
G01X00764Y-2087D03*
G01X00764Y-2150D03*
G01X00819Y-1969D03*
G01X00819Y-2031D03*
G01X00764Y-1772D03*
G01X00764Y-1835D03*
G01X00819Y-1654D03*
G01X00819Y-1717D03*
G01X00984Y-2031D03*
G01X00984Y-1969D03*
G01X01512Y-2264D03*
G01X01449Y-2264D03*
G01X01472Y-1969D03*
G01X01472Y-2031D03*
G01X01528Y-2150D03*
G01X01528Y-2087D03*
G01X01197Y-2087D03*
G01X01197Y-2150D03*
G01X01252Y-1969D03*
G01X01252Y-2031D03*
G01X01197Y-1772D03*
G01X01197Y-1835D03*
G01X01252Y-1654D03*
G01X01252Y-1717D03*
G01X01417Y-2031D03*
G01X01417Y-1969D03*
G01X02094Y-2102D03*
G01X02031Y-2102D03*
G01X02874Y-1331D03*
G01X02811Y-1331D03*
G01X02386Y-1969D03*
G01X02386Y-1906D03*
G01X01866Y-1031D03*
G01X01803Y-1031D03*
G01X02333Y-1996D03*
G01X02333Y-1933D03*
G01X01866Y-0976D03*
G01X01803Y-0976D03*
G01X01817Y-0533D03*
G01X01754Y-0533D03*
G01X02390Y-2053D03*
G01X02390Y-2116D03*
G01X02766Y-1146D03*
G01X02703Y-1146D03*
G01X02766Y-1085D03*
G01X02703Y-1085D03*
G01X02766Y-1026D03*
G01X02703Y-1026D03*
G01X02766Y-0967D03*
G01X02703Y-0967D03*
G01X02766Y-0907D03*
G01X02703Y-0907D03*
G01X03354Y-0874D03*
G01X03354Y-0937D03*
G01X03299Y-0874D03*
G01X03299Y-0937D03*
G01X02701Y-2008D03*
G01X02701Y-1945D03*
G01X02567Y-1811D03*
G01X02567Y-1874D03*
G01X02756Y-2008D03*
G01X02756Y-1945D03*
G01X02622Y-1811D03*
G01X02622Y-1874D03*
G54D30*
G01X02937Y-2142D03*
G01X02571Y-2142D03*
G54D14*
G01X02677Y-2260D03*
G01X02614Y-2260D03*
G01X02598Y-2315D03*
G01X02598Y-2378D03*
G01X02992Y-1787D03*
G01X02992Y-1724D03*
G01X02866Y-1591D03*
G01X02866Y-1654D03*
G01X03047Y-1787D03*
G01X03047Y-1724D03*
G01X02921Y-1591D03*
G01X02921Y-1654D03*
G54D30*
G01X03252Y-1929D03*
G01X02886Y-1929D03*
G54D14*
G01X02992Y-2260D03*
G01X02929Y-2260D03*
G01X03047Y-2205D03*
G01X03047Y-2142D03*
G01X03315Y-1787D03*
G01X03315Y-1724D03*
G01X03189Y-1591D03*
G01X03189Y-1654D03*
G01X03370Y-1787D03*
G01X03370Y-1724D03*
G01X03244Y-1591D03*
G01X03244Y-1654D03*
G54D30*
G01X03591Y-2142D03*
G01X03224Y-2142D03*
G54D14*
G01X03457Y-2260D03*
G01X03520Y-2260D03*
G01X03543Y-2323D03*
G01X03543Y-2386D03*
G01X00559Y-0496D03*
G01X00496Y-0496D03*
G01X00756Y-0409D03*
G01X00693Y-0409D03*
G01X00890Y-0409D03*
G01X00827Y-0409D03*
G01X01008Y-0528D03*
G01X00945Y-0528D03*
G01X00945Y-0583D03*
G01X01008Y-0583D03*
G01X00559Y-0638D03*
G01X00496Y-0638D03*
G01X00638Y-0598D03*
G01X00638Y-0535D03*
G01X00559Y-0929D03*
G01X00496Y-0929D03*
G01X00756Y-0843D03*
G01X00693Y-0843D03*
G01X00890Y-0843D03*
G01X00827Y-0843D03*
G01X01008Y-0961D03*
G01X00945Y-0961D03*
G01X00945Y-1016D03*
G01X01008Y-1016D03*
G01X00559Y-1071D03*
G01X00496Y-1071D03*
G01X00638Y-1031D03*
G01X00638Y-0969D03*
G01X00559Y-1354D03*
G01X00496Y-1354D03*
G01X00756Y-1268D03*
G01X00693Y-1268D03*
G01X00890Y-1268D03*
G01X00827Y-1268D03*
G01X01008Y-1386D03*
G01X00945Y-1386D03*
G01X00945Y-1441D03*
G01X01008Y-1441D03*
G01X00559Y-1488D03*
G01X00496Y-1488D03*
G01X00638Y-1457D03*
G01X00638Y-1394D03*
G54D27*
G01X01646Y-0955D03*
G01X01626Y-0955D03*
G01X01606Y-0955D03*
G01X01587Y-0955D03*
G54D26*
G01X01557Y-0984D03*
G01X01557Y-1004D03*
G01X01557Y-1024D03*
G01X01557Y-1043D03*
G54D27*
G01X01587Y-1073D03*
G01X01606Y-1073D03*
G01X01626Y-1073D03*
G01X01646Y-1073D03*
G54D26*
G01X01675Y-1043D03*
G01X01675Y-1024D03*
G01X01675Y-1004D03*
G01X01675Y-0984D03*
G54D14*
G01X00945Y-1496D03*
G01X01008Y-1496D03*
G01X00961Y-1256D03*
G01X00961Y-1319D03*
G01X00583Y-1394D03*
G01X00583Y-1457D03*
G01X01071Y-1319D03*
G01X01071Y-1256D03*
G01X01016Y-1319D03*
G01X01016Y-1256D03*
G01X00677Y-1220D03*
G01X00677Y-1157D03*
G01X00724Y-1220D03*
G01X00724Y-1157D03*
G01X00945Y-1071D03*
G01X01008Y-1071D03*
G01X00961Y-0831D03*
G01X00961Y-0894D03*
G01X00583Y-0969D03*
G01X00583Y-1031D03*
G01X01071Y-0894D03*
G01X01071Y-0831D03*
G01X01016Y-0894D03*
G01X01016Y-0831D03*
G01X00677Y-0787D03*
G01X00677Y-0724D03*
G01X00724Y-0787D03*
G01X00724Y-0724D03*
G01X00945Y-0638D03*
G01X01008Y-0638D03*
G01X00961Y-0398D03*
G01X00961Y-0461D03*
G01X00583Y-0535D03*
G01X00583Y-0598D03*
G01X01071Y-0461D03*
G01X01071Y-0398D03*
G01X01016Y-0461D03*
G01X01016Y-0398D03*
G01X00677Y-0354D03*
G01X00677Y-0291D03*
G01X00724Y-0354D03*
G01X00724Y-0291D03*
G01X03598Y-2386D03*
G01X03598Y-2323D03*
G01X03047Y-2047D03*
G01X03110Y-2047D03*
G01X02465Y-2276D03*
G01X02465Y-2213D03*
G01X02035Y-0591D03*
G01X02035Y-0528D03*
G01X03441Y-0992D03*
G01X03378Y-0992D03*
G01X02035Y-0667D03*
G01X02035Y-0730D03*
G01X03378Y-0819D03*
G01X03441Y-0819D03*
G01X01252Y-0543D03*
G01X01315Y-0543D03*
G01X01307Y-0906D03*
G01X01244Y-0906D03*
G01X01252Y-0496D03*
G01X01315Y-0496D03*
G01X01307Y-0953D03*
G01X01244Y-0953D03*
G01X01677Y-1122D03*
G01X01614Y-1122D03*
G01X02337Y-2047D03*
G01X02274Y-2047D03*
G01X01500Y-1122D03*
G01X01563Y-1122D03*
G01X02337Y-2098D03*
G01X02274Y-2098D03*
G01X02222Y-2047D03*
G01X02159Y-2047D03*
G01X02222Y-2098D03*
G01X02159Y-2098D03*
G01X01496Y-0965D03*
G01X01496Y-1028D03*
G01X01911Y-0732D03*
G01X01911Y-0669D03*
G01X02874Y-1441D03*
G01X02937Y-1441D03*
G01X02811Y-1386D03*
G01X02874Y-1386D03*
G01X02811Y-1504D03*
G01X02811Y-1441D03*
G01X01772Y-2094D03*
G01X01772Y-2031D03*
G01X01827Y-2094D03*
G01X01827Y-2031D03*
G01X01827Y-1913D03*
G01X01827Y-1976D03*
G01X01370Y-1713D03*
G01X01307Y-1713D03*
G01X01425Y-1717D03*
G01X01425Y-1654D03*
G01X01433Y-1906D03*
G01X01370Y-1906D03*
G01X01220Y-2213D03*
G01X01283Y-2213D03*
G01X01528Y-2031D03*
G01X01528Y-1969D03*
G01X01307Y-1654D03*
G01X01370Y-1654D03*
G01X01252Y-1906D03*
G01X01315Y-1906D03*
G01X01488Y-1906D03*
G01X01551Y-1906D03*
G01X01283Y-2260D03*
G01X01220Y-2260D03*
G01X01575Y-1969D03*
G01X01575Y-2031D03*
G01X01197Y-1654D03*
G01X01197Y-1717D03*
G01X01197Y-1969D03*
G01X01197Y-2031D03*
G01X01512Y-2213D03*
G01X01449Y-2213D03*
G01X00937Y-1717D03*
G01X00874Y-1717D03*
G01X00992Y-1717D03*
G01X00992Y-1654D03*
G01X01000Y-1906D03*
G01X00937Y-1906D03*
G01X00787Y-2213D03*
G01X00850Y-2213D03*
G01X01094Y-2031D03*
G01X01094Y-1969D03*
G01X00874Y-1654D03*
G01X00937Y-1654D03*
G01X00819Y-1906D03*
G01X00882Y-1906D03*
G01X01055Y-1906D03*
G01X01118Y-1906D03*
G01X00850Y-2260D03*
G01X00787Y-2260D03*
G01X01142Y-1969D03*
G01X01142Y-2031D03*
G01X00764Y-1654D03*
G01X00764Y-1717D03*
G01X00764Y-1969D03*
G01X00764Y-2031D03*
G01X01079Y-2213D03*
G01X01016Y-2213D03*
G01X00504Y-1717D03*
G01X00441Y-1717D03*
G01X00559Y-1717D03*
G01X00559Y-1654D03*
G01X00567Y-1906D03*
G01X00504Y-1906D03*
G01X00354Y-2213D03*
G01X00417Y-2213D03*
G01X00661Y-2031D03*
G01X00661Y-1969D03*
G01X00441Y-1654D03*
G01X00504Y-1654D03*
G01X00386Y-1906D03*
G01X00449Y-1906D03*
G01X00622Y-1906D03*
G01X00685Y-1906D03*
G01X00417Y-2260D03*
G01X00354Y-2260D03*
G01X00709Y-1969D03*
G01X00709Y-2031D03*
G01X00331Y-1654D03*
G01X00331Y-1717D03*
G01X00331Y-1969D03*
G01X00331Y-2031D03*
G01X00646Y-2213D03*
G01X00583Y-2213D03*
G01X01394Y-1366D03*
G01X01457Y-1366D03*
G01X01276Y-1372D03*
G01X01276Y-1435D03*
G01X01571Y-1366D03*
G01X01508Y-1366D03*
G01X02559Y-1157D03*
G01X02559Y-1094D03*
G01X02402Y-1850D03*
G01X02465Y-1850D03*
G01X01720Y-1634D03*
G01X01657Y-1634D03*
G01X01614Y-1634D03*
G01X01551Y-1634D03*
G01X01740Y-1157D03*
G01X01740Y-1220D03*
G01X01937Y-1827D03*
G01X01874Y-1827D03*
G01X02402Y-1795D03*
G01X02465Y-1795D03*
G01X01614Y-1583D03*
G01X01551Y-1583D03*
G01X01732Y-1323D03*
G01X01669Y-1323D03*
G01X01732Y-1378D03*
G01X01669Y-1378D03*
G01X02447Y-1157D03*
G01X02447Y-1094D03*
G01X02504Y-1157D03*
G01X02504Y-1094D03*
G01X02768Y-0248D03*
G01X02831Y-0248D03*
G01X03000Y-1213D03*
G01X03000Y-1276D03*
G01X03047Y-1213D03*
G01X03047Y-1276D03*
G01X03165Y-1339D03*
G01X03228Y-1339D03*
G01X03346Y-1213D03*
G01X03346Y-1276D03*
G01X02654Y-0110D03*
G01X02654Y-0173D03*
G01X03402Y-1213D03*
G01X03402Y-1276D03*
G01X01709Y-1740D03*
G01X01772Y-1740D03*
G54D31*
G01X02638Y-2016D03*
G01X02638Y-1941D03*
G01X02559Y-1978D03*
G01X02685Y-1803D03*
G01X02685Y-1878D03*
G01X02764Y-1841D03*
G01X02929Y-1795D03*
G01X02929Y-1720D03*
G01X02850Y-1758D03*
G01X02976Y-1583D03*
G01X02976Y-1657D03*
G01X03055Y-1620D03*
G01X03252Y-1795D03*
G01X03252Y-1720D03*
G01X03173Y-1758D03*
G01X03299Y-1583D03*
G01X03299Y-1657D03*
G01X03378Y-1620D03*
G54D14*
G01X01709Y-2118D03*
G01X01646Y-2118D03*
G01X01583Y-2150D03*
G01X01583Y-2087D03*
G01X01646Y-1803D03*
G01X01709Y-1803D03*
G54D29*
G01X01717Y-1874D03*
G01X01691Y-1874D03*
G01X01665Y-1874D03*
G01X01640Y-1874D03*
G01X01640Y-2047D03*
G01X01665Y-2047D03*
G01X01691Y-2047D03*
G01X01717Y-2047D03*
G54D32*
G01X01571Y-1272D03*
G01X01394Y-1272D03*
G54D33*
G01X02858Y-0465D03*
G01X02858Y-0508D03*
G01X02858Y-0551D03*
G01X02858Y-0594D03*
G01X02858Y-0634D03*
G01X02858Y-0677D03*
G01X02858Y-0720D03*
G01X02858Y-0764D03*
G54D34*
G01X02858Y-0312D03*
G54D35*
G01X02839Y-0810D03*
G54D36*
G01X02415Y-0813D03*
G01X02415Y-0303D03*
G54D37*
G01X02368Y-0394D03*
G54D38*
G01X02365Y-0562D03*
G54D14*
G01X01236Y-1087D03*
G01X01301Y-1087D03*
G01X01236Y-1142D03*
G01X01236Y-1205D03*
G54D39*
G01X00307Y-0504D03*
G01X03717Y-0598D03*
G01X03756Y-2575D03*
G01X03000Y-0165D03*
G01X01047Y-0173D03*
G01X00165Y-1898D03*
G01X04724Y00000D02*
G54D40*
G01X05335Y-2293D03*
G01X05335Y-2348D03*
G01X05600Y-2293D03*
G01X05600Y-2348D03*
G01X05705Y-0717D03*
G01X05705Y-0661D03*
G54D41*
G01X05650Y-0541D03*
G01X05705Y-0541D03*
G01X05344Y-2077D03*
G01X05289Y-2077D03*
G54D40*
G01X05600Y-2165D03*
G01X05600Y-2220D03*
G54D41*
G01X05679Y-2402D03*
G01X05624Y-2402D03*
G01X05679Y-2096D03*
G01X05624Y-2096D03*
G01X05876Y-1378D03*
G01X05821Y-1378D03*
G01X05768Y-1378D03*
G01X05713Y-1378D03*
G54D40*
G01X05756Y-0870D03*
G01X05756Y-0925D03*
G01X05797Y-2234D03*
G01X05797Y-2289D03*
G01X05679Y-1929D03*
G01X05679Y-1984D03*
G54D41*
G01X04917Y-1287D03*
G01X04862Y-1287D03*
G01X05787Y-1472D03*
G01X05843Y-1472D03*
G54D42*
G01X06063Y-0699D03*
G01X06102Y-0699D03*
G54D41*
G01X06053Y-0650D03*
G01X06108Y-0650D03*
G54D11*
G01X05955Y-1024D03*
G01X06077Y-1024D03*
G54D42*
G01X06164Y-1396D03*
G01X06164Y-1435D03*
G01X06177Y-0344D03*
G01X06177Y-0305D03*
G01X06205Y-1346D03*
G01X06165Y-1346D03*
G01X06217Y-0407D03*
G01X06177Y-0407D03*
G54D40*
G01X05020Y-1646D03*
G01X05020Y-1591D03*
G01X05138Y-1728D03*
G01X05138Y-1783D03*
G01X05071Y-1646D03*
G01X05071Y-1591D03*
G54D41*
G01X05516Y-1406D03*
G01X05571Y-1406D03*
G54D40*
G01X05189Y-1276D03*
G01X05189Y-1220D03*
G54D41*
G01X05374Y-1831D03*
G01X05319Y-1831D03*
G01X05374Y-1783D03*
G01X05319Y-1783D03*
G01X05413Y-0870D03*
G01X05469Y-0870D03*
G54D40*
G01X05185Y-0352D03*
G01X05185Y-0297D03*
G54D41*
G01X05035Y-0752D03*
G01X04980Y-0752D03*
G01X04980Y-1039D03*
G01X04925Y-1039D03*
G01X04921Y-1646D03*
G01X04866Y-1646D03*
G54D40*
G01X04878Y-1811D03*
G01X04878Y-1866D03*
G01X04878Y-2000D03*
G01X04878Y-1945D03*
G54D14*
G01X05492Y-1124D03*
G01X05492Y-1059D03*
G01X05541Y-1124D03*
G01X05541Y-1059D03*
G01X05443Y-1124D03*
G01X05443Y-1059D03*
G01X05346Y-1124D03*
G01X05346Y-1059D03*
G01X05394Y-1124D03*
G01X05394Y-1059D03*
G01X05295Y-1124D03*
G01X05295Y-1059D03*
G54D29*
G01X05738Y-2165D03*
G01X05713Y-2165D03*
G01X05687Y-2165D03*
G01X05661Y-2165D03*
G01X05661Y-2339D03*
G01X05687Y-2339D03*
G01X05713Y-2339D03*
G01X05738Y-2339D03*
G54D28*
G01X05541Y-2156D03*
G01X05491Y-2156D03*
G01X05441Y-2156D03*
G01X05391Y-2156D03*
G01X05391Y-2361D03*
G01X05441Y-2361D03*
G01X05491Y-2361D03*
G01X05541Y-2361D03*
G01X05276Y-2156D03*
G01X05226Y-2156D03*
G01X05176Y-2156D03*
G01X05126Y-2156D03*
G01X05126Y-2361D03*
G01X05176Y-2361D03*
G01X05226Y-2361D03*
G01X05276Y-2361D03*
G01X05758Y-0797D03*
G01X05808Y-0797D03*
G01X05858Y-0797D03*
G01X05908Y-0797D03*
G01X05908Y-0592D03*
G01X05858Y-0592D03*
G01X05808Y-0592D03*
G01X05758Y-0592D03*
G54D43*
G01X05167Y-0463D03*
G54D44*
G01X05167Y-0506D03*
G01X05167Y-0549D03*
G01X05167Y-0593D03*
G01X05167Y-0636D03*
G01X05167Y-0679D03*
G01X05167Y-0722D03*
G01X05167Y-0766D03*
G54D43*
G01X05167Y-0809D03*
G01X05541Y-0463D03*
G01X05541Y-0809D03*
G54D44*
G01X05541Y-0506D03*
G01X05541Y-0549D03*
G01X05541Y-0593D03*
G01X05541Y-0636D03*
G01X05541Y-0679D03*
G01X05541Y-0722D03*
G01X05541Y-0766D03*
G54D21*
G01X05187Y-1693D03*
G01X05207Y-1693D03*
G01X05226Y-1693D03*
G01X05246Y-1693D03*
G01X05266Y-1693D03*
G01X05285Y-1693D03*
G01X05305Y-1693D03*
G01X05325Y-1693D03*
G01X05344Y-1693D03*
G01X05364Y-1693D03*
G01X05384Y-1693D03*
G01X05404Y-1693D03*
G54D20*
G01X05463Y-1634D03*
G01X05463Y-1614D03*
G01X05463Y-1594D03*
G01X05463Y-1575D03*
G01X05463Y-1555D03*
G01X05463Y-1535D03*
G01X05463Y-1516D03*
G01X05463Y-1496D03*
G01X05463Y-1476D03*
G01X05463Y-1457D03*
G01X05463Y-1437D03*
G01X05463Y-1417D03*
G54D21*
G01X05404Y-1358D03*
G01X05384Y-1358D03*
G01X05364Y-1358D03*
G01X05344Y-1358D03*
G01X05325Y-1358D03*
G01X05305Y-1358D03*
G01X05285Y-1358D03*
G01X05266Y-1358D03*
G01X05246Y-1358D03*
G01X05226Y-1358D03*
G01X05207Y-1358D03*
G01X05187Y-1358D03*
G54D20*
G01X05128Y-1417D03*
G01X05128Y-1437D03*
G01X05128Y-1457D03*
G01X05128Y-1476D03*
G01X05128Y-1496D03*
G01X05128Y-1516D03*
G01X05128Y-1535D03*
G01X05128Y-1555D03*
G01X05128Y-1575D03*
G01X05128Y-1594D03*
G01X05128Y-1614D03*
G01X05128Y-1634D03*
G54D29*
G01X05008Y-0811D03*
G01X04982Y-0811D03*
G01X04957Y-0811D03*
G01X04931Y-0811D03*
G01X04931Y-0984D03*
G01X04957Y-0984D03*
G01X04982Y-0984D03*
G01X05008Y-0984D03*
G54D45*
G01X06112Y-0748D03*
G01X06062Y-0748D03*
G54D46*
G01X06165Y-1150D03*
G01X06165Y-1200D03*
G54D47*
G01X06172Y-0517D03*
G01X06172Y-0550D03*
G54D14*
G01X05581Y-1919D03*
G01X05581Y-1982D03*
G01X05630Y-1919D03*
G01X05630Y-1982D03*
G54D13*
G01X06165Y-1028D03*
G01X06165Y-1071D03*
G54D14*
G01X06348Y-2461D03*
G01X06348Y-2398D03*
G01X06299Y-2461D03*
G01X06299Y-2398D03*
G01X05134Y-0356D03*
G01X05134Y-0293D03*
G01X05541Y-1173D03*
G01X05541Y-1236D03*
G01X05492Y-1173D03*
G01X05492Y-1236D03*
G01X05591Y-1173D03*
G01X05591Y-1236D03*
G01X05443Y-1173D03*
G01X05443Y-1236D03*
G01X05346Y-1173D03*
G01X05346Y-1236D03*
G01X05394Y-1173D03*
G01X05394Y-1236D03*
G01X05295Y-1173D03*
G01X05295Y-1236D03*
G01X05138Y-2000D03*
G01X05138Y-1937D03*
G54D48*
G01X05797Y-1289D03*
G01X05707Y-1289D03*
G01X05888Y-1289D03*
G54D49*
G01X05797Y-1049D03*
G54D50*
G01X06159Y-0886D03*
G54D51*
G01X06171Y-0945D03*
G01X06171Y-0827D03*
G54D52*
G01X06053Y-0886D03*
G54D15*
G01X05709Y-0492D03*
G01X05665Y-0492D03*
G01X05846Y-2461D03*
G01X05890Y-2461D03*
G01X06319Y-0248D03*
G01X06276Y-0248D03*
G01X06445Y-2449D03*
G01X06402Y-2449D03*
G01X06492Y-2449D03*
G01X06535Y-2449D03*
G54D53*
G01X05079Y-0254D03*
G01X05079Y-0352D03*
G01X05079Y-0303D03*
G01X05039Y-0254D03*
G01X05039Y-0352D03*
G54D54*
G01X05073Y-0279D03*
G01X05073Y-0328D03*
G54D55*
G01X05028Y-0303D03*
G54D56*
G01X05001Y-0260D03*
G01X05001Y-0346D03*
G01X05015Y-0346D03*
G01X05015Y-0260D03*
G54D39*
G01X04921Y-2283D03*
G01X06496Y-0591D03*
G01X04921Y-0591D03*
G01X06496Y-2283D03*
M02*
