%FSLAX46Y46*%
G04 Gerber Fmt 4.6, Leading zero omitted, Abs format (unit mm)*
G04 Created by KiCad (PCBNEW (2014-jan-25)-product) date Fri 01 Aug 2014 13:16:58 BST*
%MOMM*%
G01*
G04 APERTURE LIST*
%ADD10C,0.100000*%
%ADD11C,1.016000*%
%ADD12C,1.500000*%
%ADD13C,0.800000*%
%ADD14C,1.200000*%
%ADD15C,1.400000*%
%ADD16C,0.300000*%
%ADD17C,0.280000*%
G04 APERTURE END LIST*
D10*
D11*
X65800000Y-2930000D03*
X65800000Y-4200000D03*
X64530000Y-2930000D03*
X64530000Y-4200000D03*
X63260000Y-2930000D03*
X63260000Y-4200000D03*
X61990000Y-2930000D03*
X61990000Y-4200000D03*
X60720000Y-2930000D03*
X60720000Y-4200000D03*
D12*
X8200000Y-37000000D03*
X8200000Y-35000000D03*
X8200000Y-29000000D03*
X8200000Y-27000000D03*
X8200000Y-21000000D03*
X8200000Y-19000000D03*
X87000000Y-61800000D03*
X85000000Y-61800000D03*
X79000000Y-61800000D03*
X77000000Y-61800000D03*
X71000000Y-61800000D03*
X69000000Y-61800000D03*
X91750000Y-22000000D03*
X91750000Y-24000000D03*
X91800000Y-38000000D03*
X91800000Y-40000000D03*
X91800000Y-46000000D03*
X91800000Y-48000000D03*
X91800000Y-30000000D03*
X91800000Y-32000000D03*
X45000000Y-8250000D03*
X47000000Y-8250000D03*
X49000000Y-8250000D03*
X51000000Y-8250000D03*
X33000000Y-8250000D03*
X35000000Y-8250000D03*
X37000000Y-8250000D03*
X39000000Y-8250000D03*
X31000000Y-61750000D03*
X29000000Y-61750000D03*
X27000000Y-61750000D03*
X25000000Y-61750000D03*
X20000000Y-61750000D03*
X18000000Y-61750000D03*
X16000000Y-61750000D03*
X14000000Y-61750000D03*
X9000000Y-61750000D03*
X7000000Y-61750000D03*
X5000000Y-61750000D03*
X3000000Y-61750000D03*
D13*
X32900000Y-43300000D03*
X21900000Y-43200000D03*
X10900000Y-43300000D03*
X25600000Y-28000000D03*
X25600000Y-17000000D03*
X20800000Y-35300000D03*
X20800000Y-24500000D03*
X20800000Y-13400000D03*
X51600000Y-43200000D03*
X57500000Y-34300000D03*
X55500000Y-30600000D03*
X50600000Y-30600000D03*
X53000000Y-30600000D03*
X57000000Y-31900000D03*
X54600000Y-40600000D03*
X56700000Y-42200000D03*
X59400000Y-42200000D03*
X59400000Y-39700000D03*
X59700000Y-37000000D03*
X47200000Y-35500000D03*
X47200000Y-32600000D03*
X47200000Y-37900000D03*
X47200000Y-40500000D03*
X33000000Y-26800000D03*
X33200000Y-25000000D03*
X48000000Y-30600000D03*
D14*
X98000000Y-17000000D03*
X98000000Y-20000000D03*
X98000000Y-23000000D03*
X98000000Y-26000000D03*
X98000000Y-29000000D03*
X98000000Y-32000000D03*
X98000000Y-35000000D03*
X98000000Y-38000000D03*
X98000000Y-41000000D03*
X98000000Y-44000000D03*
X98000000Y-47000000D03*
X98000000Y-50000000D03*
X98000000Y-53000000D03*
X98000000Y-56000000D03*
X98000000Y-59000000D03*
X98000000Y-62000000D03*
D13*
X59400000Y-11100000D03*
D14*
X44000000Y-1500000D03*
X59000000Y-1500000D03*
X56000000Y-1500000D03*
X53000000Y-1500000D03*
X50000000Y-1500000D03*
X47000000Y-1500000D03*
X32000000Y-1500000D03*
X35000000Y-1500000D03*
X38000000Y-1500000D03*
X41000000Y-1500000D03*
D13*
X32400000Y-34000000D03*
D14*
X67000000Y-68000000D03*
X70000000Y-68000000D03*
X72300000Y-68000000D03*
X76000000Y-68000000D03*
X79600000Y-68100000D03*
X84200000Y-68000000D03*
X86200000Y-68000000D03*
X88000000Y-68000000D03*
X91300000Y-68000000D03*
X81000000Y-4500000D03*
X90000000Y-10500000D03*
X87000000Y-8500000D03*
X84000000Y-6500000D03*
X72700000Y-2000000D03*
X70000000Y-2000000D03*
X16800000Y-5000000D03*
X12350000Y-7750000D03*
X23000000Y-2000000D03*
X20000000Y-3000000D03*
X2000000Y-15000000D03*
X2000000Y-18000000D03*
X2000000Y-21000000D03*
X2000000Y-24000000D03*
X2000000Y-27000000D03*
X2000000Y-30000000D03*
X2000000Y-33000000D03*
X2000000Y-36000000D03*
X2000000Y-39000000D03*
X2000000Y-42000000D03*
X2000000Y-44700000D03*
X2000000Y-60000000D03*
X2000000Y-57000000D03*
X2000000Y-54000000D03*
X2000000Y-51600000D03*
X2000000Y-66000000D03*
X4000000Y-68000000D03*
X7000000Y-68000000D03*
X10000000Y-68000000D03*
X13000000Y-68000000D03*
X16000000Y-68000000D03*
X19000000Y-68000000D03*
X22000000Y-68000000D03*
X25000000Y-68000000D03*
X28000000Y-68000000D03*
X31000000Y-68000000D03*
D13*
X87600000Y-32600000D03*
X42600000Y-29200000D03*
X33500000Y-35500000D03*
X33500000Y-33500000D03*
X33500000Y-31500000D03*
X33500000Y-30000000D03*
X36000000Y-30000000D03*
X38000000Y-30000000D03*
X40000000Y-30200000D03*
X42000000Y-30200000D03*
X43200000Y-30200000D03*
X18400000Y-6600000D03*
X17200000Y-6600000D03*
X12600000Y-9600000D03*
X16200000Y-12800000D03*
X13600000Y-14400000D03*
X12600000Y-19200000D03*
X12600000Y-20600000D03*
X19400000Y-18000000D03*
X13600000Y-25400000D03*
X16200000Y-23800000D03*
X12600000Y-30200000D03*
X18400000Y-39400000D03*
X15200000Y-42000000D03*
X18400000Y-26800000D03*
X13600000Y-36000000D03*
X16200000Y-34800000D03*
X18000000Y-48400000D03*
X8200000Y-57400000D03*
X12800000Y-56400000D03*
X17200000Y-56200000D03*
X19200000Y-57400000D03*
X23800000Y-56400000D03*
X34800000Y-56400000D03*
X28200000Y-56200000D03*
X30200000Y-57400000D03*
X29000000Y-48400000D03*
X40000000Y-48400000D03*
X41000000Y-47200000D03*
X42400000Y-32800000D03*
X29000000Y-52200000D03*
X41800000Y-54600000D03*
X39200000Y-56200000D03*
X18000000Y-52200000D03*
X62600000Y-55400000D03*
X71100000Y-57600000D03*
X84900000Y-57600000D03*
X79700000Y-52000000D03*
X69000000Y-48000000D03*
X76300000Y-42400000D03*
X84500000Y-42500000D03*
X84900000Y-20800000D03*
X84900000Y-25200000D03*
X85000000Y-33300000D03*
X41500000Y-21000000D03*
X37100000Y-22400000D03*
X11400000Y-48400000D03*
X22400000Y-48400000D03*
X33400000Y-48400000D03*
X40000000Y-51600000D03*
X31800000Y-52900000D03*
X20800000Y-52900000D03*
X9800000Y-52900000D03*
X46400000Y-47200000D03*
X92200000Y-59000000D03*
X12600000Y-52800000D03*
X23700000Y-52800000D03*
X34600000Y-52800000D03*
X14000000Y-49100000D03*
X25000000Y-49100000D03*
X36000000Y-49100000D03*
X12600000Y-31500000D03*
X78500000Y-58100000D03*
X11700000Y-39600000D03*
X25800000Y-42000000D03*
X36800000Y-42000000D03*
X43400000Y-45100000D03*
X39400000Y-42100000D03*
X42100000Y-40900000D03*
X37650000Y-34700000D03*
X26500000Y-31900000D03*
X26500000Y-21100000D03*
X26500000Y-10100000D03*
X62600000Y-46300000D03*
X54300000Y-53300000D03*
X60700000Y-54400000D03*
X47300000Y-43500000D03*
X45800000Y-50200000D03*
X44200000Y-31500000D03*
X48600000Y-16400000D03*
X52300000Y-17000000D03*
X57200000Y-20000000D03*
X37500000Y-26100000D03*
X39500000Y-27400000D03*
X59500000Y-7700000D03*
X73600000Y-7900000D03*
X67900000Y-4400000D03*
X73300000Y-17200000D03*
X73600000Y-20600000D03*
X59600000Y-20700000D03*
X76800000Y-32400000D03*
X74000000Y-35800000D03*
X71250000Y-31750000D03*
X62800000Y-31200000D03*
X63600000Y-27200000D03*
X73900000Y-26100000D03*
X25600000Y-38700000D03*
D15*
X42700000Y-50200000D03*
X62500000Y-52100000D03*
D13*
X42900000Y-40050000D03*
X39000000Y-21000000D03*
X31600000Y-25000000D03*
X44000000Y-32800000D03*
X65500000Y-57600000D03*
X73700000Y-57400000D03*
X79600000Y-56700000D03*
X90200000Y-57600000D03*
X76200000Y-30000000D03*
X75600000Y-30400000D03*
X77400000Y-30000000D03*
X61000000Y-45000000D03*
X56700000Y-53300000D03*
X45700000Y-53300000D03*
X53200000Y-53400000D03*
X46100000Y-28900000D03*
X47400000Y-25500000D03*
X46800000Y-13600000D03*
X48500000Y-19200000D03*
X52400000Y-18600000D03*
X37500000Y-24500000D03*
X47950000Y-42650000D03*
X55600000Y-22300000D03*
X68000000Y-2800000D03*
X73300000Y-15100000D03*
X69700000Y-6300000D03*
X76800000Y-30400000D03*
X78000000Y-30400000D03*
X73000000Y-37200000D03*
X59500000Y-22800000D03*
X63600000Y-30000000D03*
X68200000Y-29300000D03*
X53300000Y-43300000D03*
X63200000Y-57500000D03*
X76200000Y-51800000D03*
X53100000Y-42300000D03*
X93900000Y-56400000D03*
X54600000Y-41900000D03*
X49200000Y-42600000D03*
X53400000Y-50600000D03*
X50100000Y-43200000D03*
X51900000Y-49000000D03*
X65200000Y-47800000D03*
X55400000Y-42600000D03*
X72800000Y-42100000D03*
X62800000Y-43300000D03*
X80300000Y-42100000D03*
X70400000Y-42300000D03*
X66200000Y-41200000D03*
X65600000Y-39200000D03*
X75900000Y-20700000D03*
X75900000Y-18500000D03*
X60100000Y-32500000D03*
X59400000Y-27600000D03*
X59200000Y-25800000D03*
X71200000Y-17400000D03*
X57900000Y-32900000D03*
X74800000Y-12900000D03*
X57300000Y-26200000D03*
X73800000Y-16100000D03*
X55300000Y-26000000D03*
X73800000Y-14000000D03*
X44400000Y-20200000D03*
X46800000Y-20200000D03*
X57750000Y-46200000D03*
X59250000Y-48600000D03*
X12200000Y-47100000D03*
X23300000Y-47200000D03*
X34300000Y-47300000D03*
X22800000Y-37100000D03*
X22800000Y-26300000D03*
X22700000Y-15300000D03*
X31400000Y-31600000D03*
X16200000Y-9000000D03*
X18000000Y-13400000D03*
X16300000Y-20000000D03*
X16300000Y-31000000D03*
X17900000Y-35300000D03*
X18000000Y-24500000D03*
X10600000Y-58100000D03*
X21600000Y-58100000D03*
X32600000Y-58100000D03*
X40200000Y-55300000D03*
X37800000Y-49200000D03*
X26800000Y-49200000D03*
X15800000Y-49300000D03*
X42600000Y-48400000D03*
X43300000Y-48400000D03*
X25900000Y-43600000D03*
X36900000Y-43600000D03*
X14900000Y-43600000D03*
X40700000Y-45800000D03*
X41000000Y-42100000D03*
X43700000Y-40900000D03*
X26500000Y-33500000D03*
X26500000Y-22700000D03*
X26500000Y-11700000D03*
X42600000Y-46900000D03*
X43300000Y-46900000D03*
D16*
X42100000Y-41500000D02*
X42100000Y-40900000D01*
D17*
X38800000Y-27400000D02*
X39500000Y-27400000D01*
D16*
G36*
X63373364Y-2986341D02*
X63274142Y-3085563D01*
X63260000Y-3071421D01*
X63245857Y-3085563D01*
X63104436Y-2944142D01*
X63118579Y-2930000D01*
X63104436Y-2915857D01*
X63245857Y-2774436D01*
X63260000Y-2788579D01*
X63274142Y-2774436D01*
X63367985Y-2868279D01*
X63373364Y-2986341D01*
X63373364Y-2986341D01*
G37*
X63373364Y-2986341D02*
X63274142Y-3085563D01*
X63260000Y-3071421D01*
X63245857Y-3085563D01*
X63104436Y-2944142D01*
X63118579Y-2930000D01*
X63104436Y-2915857D01*
X63245857Y-2774436D01*
X63260000Y-2788579D01*
X63274142Y-2774436D01*
X63367985Y-2868279D01*
X63373364Y-2986341D01*
G36*
X64685563Y-2944142D02*
X64544142Y-3085563D01*
X64530000Y-3071421D01*
X64515857Y-3085563D01*
X64422014Y-2991720D01*
X64416635Y-2873658D01*
X64515857Y-2774436D01*
X64530000Y-2788579D01*
X64544142Y-2774436D01*
X64685563Y-2915857D01*
X64671421Y-2930000D01*
X64685563Y-2944142D01*
X64685563Y-2944142D01*
G37*
X64685563Y-2944142D02*
X64544142Y-3085563D01*
X64530000Y-3071421D01*
X64515857Y-3085563D01*
X64422014Y-2991720D01*
X64416635Y-2873658D01*
X64515857Y-2774436D01*
X64530000Y-2788579D01*
X64544142Y-2774436D01*
X64685563Y-2915857D01*
X64671421Y-2930000D01*
X64685563Y-2944142D01*
G36*
X98850000Y-64715318D02*
X98326473Y-63448285D01*
X97356819Y-62476938D01*
X96089258Y-61950601D01*
X94900173Y-61949563D01*
X94900173Y-49301960D01*
X94900173Y-44301960D01*
X94900173Y-41301960D01*
X94900173Y-36301960D01*
X94900173Y-33301960D01*
X94900173Y-28301960D01*
X94850173Y-28180950D01*
X94850173Y-25301960D01*
X94850173Y-20301960D01*
X94698253Y-19934286D01*
X94417194Y-19652736D01*
X94049785Y-19500174D01*
X93651960Y-19499827D01*
X93284286Y-19651747D01*
X93002736Y-19932806D01*
X92850174Y-20300215D01*
X92849827Y-20698040D01*
X93001747Y-21065714D01*
X93282806Y-21347264D01*
X93650215Y-21499826D01*
X94048040Y-21500173D01*
X94415714Y-21348253D01*
X94697264Y-21067194D01*
X94849826Y-20699785D01*
X94850173Y-20301960D01*
X94850173Y-25301960D01*
X94698253Y-24934286D01*
X94417194Y-24652736D01*
X94049785Y-24500174D01*
X93651960Y-24499827D01*
X93284286Y-24651747D01*
X93002736Y-24932806D01*
X92950207Y-25059309D01*
X92950207Y-23762353D01*
X92767903Y-23321143D01*
X92447056Y-22999735D01*
X92766717Y-22680633D01*
X92949791Y-22239742D01*
X92950207Y-21762353D01*
X92767903Y-21321143D01*
X92430633Y-20983283D01*
X91989742Y-20800209D01*
X91512353Y-20799793D01*
X91071143Y-20982097D01*
X90733283Y-21319367D01*
X90550209Y-21760258D01*
X90549793Y-22237647D01*
X90732097Y-22678857D01*
X91052943Y-23000264D01*
X90733283Y-23319367D01*
X90550209Y-23760258D01*
X90549793Y-24237647D01*
X90732097Y-24678857D01*
X91069367Y-25016717D01*
X91510258Y-25199791D01*
X91987647Y-25200207D01*
X92428857Y-25017903D01*
X92766717Y-24680633D01*
X92949791Y-24239742D01*
X92950207Y-23762353D01*
X92950207Y-25059309D01*
X92850174Y-25300215D01*
X92849827Y-25698040D01*
X93001747Y-26065714D01*
X93282806Y-26347264D01*
X93650215Y-26499826D01*
X94048040Y-26500173D01*
X94415714Y-26348253D01*
X94697264Y-26067194D01*
X94849826Y-25699785D01*
X94850173Y-25301960D01*
X94850173Y-28180950D01*
X94748253Y-27934286D01*
X94467194Y-27652736D01*
X94099785Y-27500174D01*
X93701960Y-27499827D01*
X93334286Y-27651747D01*
X93052736Y-27932806D01*
X92900174Y-28300215D01*
X92899827Y-28698040D01*
X93051747Y-29065714D01*
X93332806Y-29347264D01*
X93700215Y-29499826D01*
X94098040Y-29500173D01*
X94465714Y-29348253D01*
X94747264Y-29067194D01*
X94899826Y-28699785D01*
X94900173Y-28301960D01*
X94900173Y-33301960D01*
X94748253Y-32934286D01*
X94467194Y-32652736D01*
X94099785Y-32500174D01*
X93701960Y-32499827D01*
X93334286Y-32651747D01*
X93207923Y-32777889D01*
X93207923Y-30235171D01*
X93190748Y-29678481D01*
X93010755Y-29243942D01*
X92762350Y-29179071D01*
X92620929Y-29320492D01*
X92620929Y-29037650D01*
X92556058Y-28789245D01*
X92035171Y-28592077D01*
X91478481Y-28609252D01*
X91043942Y-28789245D01*
X90979071Y-29037650D01*
X91800000Y-29858579D01*
X92620929Y-29037650D01*
X92620929Y-29320492D01*
X91941421Y-30000000D01*
X92762350Y-30820929D01*
X93010755Y-30756058D01*
X93207923Y-30235171D01*
X93207923Y-32777889D01*
X93052736Y-32932806D01*
X93000207Y-33059309D01*
X93000207Y-31762353D01*
X92817903Y-31321143D01*
X92587504Y-31090341D01*
X92620929Y-30962350D01*
X91800000Y-30141421D01*
X91658579Y-30282842D01*
X91658579Y-30000000D01*
X90837650Y-29179071D01*
X90589245Y-29243942D01*
X90392077Y-29764829D01*
X90409252Y-30321519D01*
X90589245Y-30756058D01*
X90837650Y-30820929D01*
X91658579Y-30000000D01*
X91658579Y-30282842D01*
X90979071Y-30962350D01*
X91012540Y-31090510D01*
X90783283Y-31319367D01*
X90600209Y-31760258D01*
X90599793Y-32237647D01*
X90782097Y-32678857D01*
X91119367Y-33016717D01*
X91560258Y-33199791D01*
X92037647Y-33200207D01*
X92478857Y-33017903D01*
X92816717Y-32680633D01*
X92999791Y-32239742D01*
X93000207Y-31762353D01*
X93000207Y-33059309D01*
X92900174Y-33300215D01*
X92899827Y-33698040D01*
X93051747Y-34065714D01*
X93332806Y-34347264D01*
X93700215Y-34499826D01*
X94098040Y-34500173D01*
X94465714Y-34348253D01*
X94747264Y-34067194D01*
X94899826Y-33699785D01*
X94900173Y-33301960D01*
X94900173Y-36301960D01*
X94748253Y-35934286D01*
X94467194Y-35652736D01*
X94099785Y-35500174D01*
X93701960Y-35499827D01*
X93334286Y-35651747D01*
X93052736Y-35932806D01*
X92900174Y-36300215D01*
X92899827Y-36698040D01*
X93051747Y-37065714D01*
X93332806Y-37347264D01*
X93700215Y-37499826D01*
X94098040Y-37500173D01*
X94465714Y-37348253D01*
X94747264Y-37067194D01*
X94899826Y-36699785D01*
X94900173Y-36301960D01*
X94900173Y-41301960D01*
X94748253Y-40934286D01*
X94467194Y-40652736D01*
X94099785Y-40500174D01*
X93701960Y-40499827D01*
X93334286Y-40651747D01*
X93052736Y-40932806D01*
X93000207Y-41059309D01*
X93000207Y-39762353D01*
X92817903Y-39321143D01*
X92497056Y-38999735D01*
X92816717Y-38680633D01*
X92999791Y-38239742D01*
X93000207Y-37762353D01*
X92817903Y-37321143D01*
X92480633Y-36983283D01*
X92039742Y-36800209D01*
X91562353Y-36799793D01*
X91121143Y-36982097D01*
X90783283Y-37319367D01*
X90600209Y-37760258D01*
X90599793Y-38237647D01*
X90782097Y-38678857D01*
X91102943Y-39000264D01*
X90783283Y-39319367D01*
X90600209Y-39760258D01*
X90599793Y-40237647D01*
X90782097Y-40678857D01*
X91119367Y-41016717D01*
X91560258Y-41199791D01*
X92037647Y-41200207D01*
X92478857Y-41017903D01*
X92816717Y-40680633D01*
X92999791Y-40239742D01*
X93000207Y-39762353D01*
X93000207Y-41059309D01*
X92900174Y-41300215D01*
X92899827Y-41698040D01*
X93051747Y-42065714D01*
X93332806Y-42347264D01*
X93700215Y-42499826D01*
X94098040Y-42500173D01*
X94465714Y-42348253D01*
X94747264Y-42067194D01*
X94899826Y-41699785D01*
X94900173Y-41301960D01*
X94900173Y-44301960D01*
X94748253Y-43934286D01*
X94467194Y-43652736D01*
X94099785Y-43500174D01*
X93701960Y-43499827D01*
X93334286Y-43651747D01*
X93052736Y-43932806D01*
X92900174Y-44300215D01*
X92899827Y-44698040D01*
X93051747Y-45065714D01*
X93332806Y-45347264D01*
X93700215Y-45499826D01*
X94098040Y-45500173D01*
X94465714Y-45348253D01*
X94747264Y-45067194D01*
X94899826Y-44699785D01*
X94900173Y-44301960D01*
X94900173Y-49301960D01*
X94748253Y-48934286D01*
X94467194Y-48652736D01*
X94099785Y-48500174D01*
X93701960Y-48499827D01*
X93334286Y-48651747D01*
X93207923Y-48777889D01*
X93207923Y-46235171D01*
X93190748Y-45678481D01*
X93010755Y-45243942D01*
X92762350Y-45179071D01*
X92620929Y-45320492D01*
X92620929Y-45037650D01*
X92556058Y-44789245D01*
X92035171Y-44592077D01*
X91478481Y-44609252D01*
X91043942Y-44789245D01*
X90979071Y-45037650D01*
X91800000Y-45858579D01*
X92620929Y-45037650D01*
X92620929Y-45320492D01*
X91941421Y-46000000D01*
X92762350Y-46820929D01*
X93010755Y-46756058D01*
X93207923Y-46235171D01*
X93207923Y-48777889D01*
X93052736Y-48932806D01*
X93000207Y-49059309D01*
X93000207Y-47762353D01*
X92817903Y-47321143D01*
X92587504Y-47090341D01*
X92620929Y-46962350D01*
X91800000Y-46141421D01*
X91658579Y-46282842D01*
X91658579Y-46000000D01*
X90837650Y-45179071D01*
X90589245Y-45243942D01*
X90392077Y-45764829D01*
X90409252Y-46321519D01*
X90589245Y-46756058D01*
X90837650Y-46820929D01*
X91658579Y-46000000D01*
X91658579Y-46282842D01*
X90979071Y-46962350D01*
X91012540Y-47090510D01*
X90783283Y-47319367D01*
X90600209Y-47760258D01*
X90599793Y-48237647D01*
X90782097Y-48678857D01*
X91119367Y-49016717D01*
X91560258Y-49199791D01*
X92037647Y-49200207D01*
X92478857Y-49017903D01*
X92816717Y-48680633D01*
X92999791Y-48239742D01*
X93000207Y-47762353D01*
X93000207Y-49059309D01*
X92900174Y-49300215D01*
X92899827Y-49698040D01*
X93051747Y-50065714D01*
X93332806Y-50347264D01*
X93700215Y-50499826D01*
X94098040Y-50500173D01*
X94465714Y-50348253D01*
X94747264Y-50067194D01*
X94899826Y-49699785D01*
X94900173Y-49301960D01*
X94900173Y-61949563D01*
X94750147Y-61949432D01*
X94750147Y-56231666D01*
X94621015Y-55919143D01*
X94382115Y-55679826D01*
X94069817Y-55550148D01*
X93731666Y-55549853D01*
X93419143Y-55678985D01*
X93179826Y-55917885D01*
X93050148Y-56230183D01*
X93049853Y-56568334D01*
X93178985Y-56880857D01*
X93417885Y-57120174D01*
X93730183Y-57249852D01*
X94068334Y-57250147D01*
X94380857Y-57121015D01*
X94620174Y-56882115D01*
X94749852Y-56569817D01*
X94750147Y-56231666D01*
X94750147Y-61949432D01*
X94716763Y-61949403D01*
X93448285Y-62473527D01*
X92476938Y-63443181D01*
X91950601Y-64710742D01*
X91949403Y-66083237D01*
X92473527Y-67351715D01*
X93443181Y-68323062D01*
X94710742Y-68849399D01*
X95399280Y-68850000D01*
X91050147Y-68850000D01*
X91050147Y-57431666D01*
X90921015Y-57119143D01*
X90682115Y-56879826D01*
X90369817Y-56750148D01*
X90031666Y-56749853D01*
X89719143Y-56878985D01*
X89479826Y-57117885D01*
X89350148Y-57430183D01*
X89349853Y-57768334D01*
X89478985Y-58080857D01*
X89717885Y-58320174D01*
X90030183Y-58449852D01*
X90368334Y-58450147D01*
X90680857Y-58321015D01*
X90920174Y-58082115D01*
X91049852Y-57769817D01*
X91050147Y-57431666D01*
X91050147Y-68850000D01*
X89500173Y-68850000D01*
X89500173Y-63701960D01*
X89348253Y-63334286D01*
X89067194Y-63052736D01*
X88699785Y-62900174D01*
X88301960Y-62899827D01*
X88200207Y-62941870D01*
X88200207Y-61562353D01*
X88017903Y-61121143D01*
X87680633Y-60783283D01*
X87239742Y-60600209D01*
X86762353Y-60599793D01*
X86321143Y-60782097D01*
X86090341Y-61012495D01*
X85962350Y-60979071D01*
X85820929Y-61120492D01*
X85820929Y-60837650D01*
X85756058Y-60589245D01*
X85235171Y-60392077D01*
X84678481Y-60409252D01*
X84243942Y-60589245D01*
X84179071Y-60837650D01*
X85000000Y-61658579D01*
X85820929Y-60837650D01*
X85820929Y-61120492D01*
X85141421Y-61800000D01*
X85962350Y-62620929D01*
X86090510Y-62587459D01*
X86319367Y-62816717D01*
X86760258Y-62999791D01*
X87237647Y-63000207D01*
X87678857Y-62817903D01*
X88016717Y-62480633D01*
X88199791Y-62039742D01*
X88200207Y-61562353D01*
X88200207Y-62941870D01*
X87934286Y-63051747D01*
X87652736Y-63332806D01*
X87500174Y-63700215D01*
X87499827Y-64098040D01*
X87651747Y-64465714D01*
X87932806Y-64747264D01*
X88300215Y-64899826D01*
X88698040Y-64900173D01*
X89065714Y-64748253D01*
X89347264Y-64467194D01*
X89499826Y-64099785D01*
X89500173Y-63701960D01*
X89500173Y-68850000D01*
X85820929Y-68850000D01*
X85820929Y-62762350D01*
X85000000Y-61941421D01*
X84858579Y-62082842D01*
X84858579Y-61800000D01*
X84037650Y-60979071D01*
X83789245Y-61043942D01*
X83592077Y-61564829D01*
X83609252Y-62121519D01*
X83789245Y-62556058D01*
X84037650Y-62620929D01*
X84858579Y-61800000D01*
X84858579Y-62082842D01*
X84179071Y-62762350D01*
X84243942Y-63010755D01*
X84764829Y-63207923D01*
X85321519Y-63190748D01*
X85756058Y-63010755D01*
X85820929Y-62762350D01*
X85820929Y-68850000D01*
X84500173Y-68850000D01*
X84500173Y-63701960D01*
X84348253Y-63334286D01*
X84067194Y-63052736D01*
X83699785Y-62900174D01*
X83301960Y-62899827D01*
X82934286Y-63051747D01*
X82652736Y-63332806D01*
X82500174Y-63700215D01*
X82499827Y-64098040D01*
X82651747Y-64465714D01*
X82932806Y-64747264D01*
X83300215Y-64899826D01*
X83698040Y-64900173D01*
X84065714Y-64748253D01*
X84347264Y-64467194D01*
X84499826Y-64099785D01*
X84500173Y-63701960D01*
X84500173Y-68850000D01*
X81500173Y-68850000D01*
X81500173Y-63701960D01*
X81348253Y-63334286D01*
X81150147Y-63135833D01*
X81150147Y-41931666D01*
X81021015Y-41619143D01*
X80782115Y-41379826D01*
X80469817Y-41250148D01*
X80131666Y-41249853D01*
X79819143Y-41378985D01*
X79579826Y-41617885D01*
X79450148Y-41930183D01*
X79449853Y-42268334D01*
X79578985Y-42580857D01*
X79817885Y-42820174D01*
X80130183Y-42949852D01*
X80468334Y-42950147D01*
X80780857Y-42821015D01*
X81020174Y-42582115D01*
X81149852Y-42269817D01*
X81150147Y-41931666D01*
X81150147Y-63135833D01*
X81067194Y-63052736D01*
X80699785Y-62900174D01*
X80450147Y-62899956D01*
X80450147Y-56531666D01*
X80321015Y-56219143D01*
X80082115Y-55979826D01*
X79769817Y-55850148D01*
X79431666Y-55849853D01*
X79119143Y-55978985D01*
X78879826Y-56217885D01*
X78850147Y-56289359D01*
X78850147Y-30231666D01*
X78721015Y-29919143D01*
X78482115Y-29679826D01*
X78169817Y-29550148D01*
X78133813Y-29550116D01*
X78121015Y-29519143D01*
X77882115Y-29279826D01*
X77569817Y-29150148D01*
X77231666Y-29149853D01*
X76919143Y-29278985D01*
X76800001Y-29397918D01*
X76750147Y-29347976D01*
X76750147Y-20531666D01*
X76750147Y-18331666D01*
X76621015Y-18019143D01*
X76382115Y-17779826D01*
X76069817Y-17650148D01*
X75731666Y-17649853D01*
X75650147Y-17683535D01*
X75650147Y-12731666D01*
X75521015Y-12419143D01*
X75282115Y-12179826D01*
X74969817Y-12050148D01*
X74631666Y-12049853D01*
X74319143Y-12178985D01*
X74079826Y-12417885D01*
X73950148Y-12730183D01*
X73949853Y-13068334D01*
X73986524Y-13157085D01*
X73969817Y-13150148D01*
X73631666Y-13149853D01*
X73319143Y-13278985D01*
X73079826Y-13517885D01*
X72950148Y-13830183D01*
X72949853Y-14168334D01*
X73005137Y-14302133D01*
X72819143Y-14378985D01*
X72579826Y-14617885D01*
X72450148Y-14930183D01*
X72449853Y-15268334D01*
X72578985Y-15580857D01*
X72817885Y-15820174D01*
X72969658Y-15883196D01*
X72950148Y-15930183D01*
X72949853Y-16268334D01*
X73078985Y-16580857D01*
X73317885Y-16820174D01*
X73630183Y-16949852D01*
X73968334Y-16950147D01*
X74280857Y-16821015D01*
X74520174Y-16582115D01*
X74649852Y-16269817D01*
X74650147Y-15931666D01*
X74521015Y-15619143D01*
X74282115Y-15379826D01*
X74130341Y-15316803D01*
X74149852Y-15269817D01*
X74150147Y-14931666D01*
X74094862Y-14797866D01*
X74280857Y-14721015D01*
X74520174Y-14482115D01*
X74649852Y-14169817D01*
X74650147Y-13831666D01*
X74613475Y-13742914D01*
X74630183Y-13749852D01*
X74968334Y-13750147D01*
X75280857Y-13621015D01*
X75520174Y-13382115D01*
X75649852Y-13069817D01*
X75650147Y-12731666D01*
X75650147Y-17683535D01*
X75419143Y-17778985D01*
X75179826Y-18017885D01*
X75050148Y-18330183D01*
X75049853Y-18668334D01*
X75178985Y-18980857D01*
X75417885Y-19220174D01*
X75730183Y-19349852D01*
X76068334Y-19350147D01*
X76380857Y-19221015D01*
X76620174Y-18982115D01*
X76749852Y-18669817D01*
X76750147Y-18331666D01*
X76750147Y-20531666D01*
X76621015Y-20219143D01*
X76382115Y-19979826D01*
X76069817Y-19850148D01*
X75731666Y-19849853D01*
X75419143Y-19978985D01*
X75179826Y-20217885D01*
X75050148Y-20530183D01*
X75049853Y-20868334D01*
X75178985Y-21180857D01*
X75417885Y-21420174D01*
X75730183Y-21549852D01*
X76068334Y-21550147D01*
X76380857Y-21421015D01*
X76620174Y-21182115D01*
X76749852Y-20869817D01*
X76750147Y-20531666D01*
X76750147Y-29347976D01*
X76682115Y-29279826D01*
X76369817Y-29150148D01*
X76031666Y-29149853D01*
X75719143Y-29278985D01*
X75479826Y-29517885D01*
X75466539Y-29549883D01*
X75431666Y-29549853D01*
X75119143Y-29678985D01*
X74879826Y-29917885D01*
X74750148Y-30230183D01*
X74749853Y-30568334D01*
X74878985Y-30880857D01*
X75117885Y-31120174D01*
X75430183Y-31249852D01*
X75768334Y-31250147D01*
X76080857Y-31121015D01*
X76199998Y-31002081D01*
X76317885Y-31120174D01*
X76630183Y-31249852D01*
X76968334Y-31250147D01*
X77280857Y-31121015D01*
X77399998Y-31002081D01*
X77517885Y-31120174D01*
X77830183Y-31249852D01*
X78168334Y-31250147D01*
X78480857Y-31121015D01*
X78720174Y-30882115D01*
X78849852Y-30569817D01*
X78850147Y-30231666D01*
X78850147Y-56289359D01*
X78750148Y-56530183D01*
X78749853Y-56868334D01*
X78878985Y-57180857D01*
X79117885Y-57420174D01*
X79430183Y-57549852D01*
X79768334Y-57550147D01*
X80080857Y-57421015D01*
X80320174Y-57182115D01*
X80449852Y-56869817D01*
X80450147Y-56531666D01*
X80450147Y-62899956D01*
X80301960Y-62899827D01*
X80200207Y-62941870D01*
X80200207Y-61562353D01*
X80017903Y-61121143D01*
X79680633Y-60783283D01*
X79239742Y-60600209D01*
X78762353Y-60599793D01*
X78321143Y-60782097D01*
X78090341Y-61012495D01*
X77962350Y-60979071D01*
X77820929Y-61120492D01*
X77820929Y-60837650D01*
X77756058Y-60589245D01*
X77235171Y-60392077D01*
X77050147Y-60397785D01*
X77050147Y-51631666D01*
X76921015Y-51319143D01*
X76682115Y-51079826D01*
X76369817Y-50950148D01*
X76031666Y-50949853D01*
X75719143Y-51078985D01*
X75479826Y-51317885D01*
X75350148Y-51630183D01*
X75349853Y-51968334D01*
X75478985Y-52280857D01*
X75717885Y-52520174D01*
X76030183Y-52649852D01*
X76368334Y-52650147D01*
X76680857Y-52521015D01*
X76920174Y-52282115D01*
X77049852Y-51969817D01*
X77050147Y-51631666D01*
X77050147Y-60397785D01*
X76678481Y-60409252D01*
X76243942Y-60589245D01*
X76179071Y-60837650D01*
X77000000Y-61658579D01*
X77820929Y-60837650D01*
X77820929Y-61120492D01*
X77141421Y-61800000D01*
X77962350Y-62620929D01*
X78090510Y-62587459D01*
X78319367Y-62816717D01*
X78760258Y-62999791D01*
X79237647Y-63000207D01*
X79678857Y-62817903D01*
X80016717Y-62480633D01*
X80199791Y-62039742D01*
X80200207Y-61562353D01*
X80200207Y-62941870D01*
X79934286Y-63051747D01*
X79652736Y-63332806D01*
X79500174Y-63700215D01*
X79499827Y-64098040D01*
X79651747Y-64465714D01*
X79932806Y-64747264D01*
X80300215Y-64899826D01*
X80698040Y-64900173D01*
X81065714Y-64748253D01*
X81347264Y-64467194D01*
X81499826Y-64099785D01*
X81500173Y-63701960D01*
X81500173Y-68850000D01*
X77820929Y-68850000D01*
X77820929Y-62762350D01*
X77000000Y-61941421D01*
X76858579Y-62082842D01*
X76858579Y-61800000D01*
X76037650Y-60979071D01*
X75789245Y-61043942D01*
X75592077Y-61564829D01*
X75609252Y-62121519D01*
X75789245Y-62556058D01*
X76037650Y-62620929D01*
X76858579Y-61800000D01*
X76858579Y-62082842D01*
X76179071Y-62762350D01*
X76243942Y-63010755D01*
X76764829Y-63207923D01*
X77321519Y-63190748D01*
X77756058Y-63010755D01*
X77820929Y-62762350D01*
X77820929Y-68850000D01*
X76500173Y-68850000D01*
X76500173Y-63701960D01*
X76348253Y-63334286D01*
X76067194Y-63052736D01*
X75699785Y-62900174D01*
X75301960Y-62899827D01*
X74934286Y-63051747D01*
X74652736Y-63332806D01*
X74550147Y-63579867D01*
X74550147Y-57231666D01*
X74421015Y-56919143D01*
X74182115Y-56679826D01*
X73869817Y-56550148D01*
X73850147Y-56550130D01*
X73850147Y-37031666D01*
X73721015Y-36719143D01*
X73482115Y-36479826D01*
X73169817Y-36350148D01*
X72831666Y-36349853D01*
X72519143Y-36478985D01*
X72279826Y-36717885D01*
X72150148Y-37030183D01*
X72149853Y-37368334D01*
X72278985Y-37680857D01*
X72517885Y-37920174D01*
X72830183Y-38049852D01*
X73168334Y-38050147D01*
X73480857Y-37921015D01*
X73720174Y-37682115D01*
X73849852Y-37369817D01*
X73850147Y-37031666D01*
X73850147Y-56550130D01*
X73650147Y-56549956D01*
X73650147Y-41931666D01*
X73521015Y-41619143D01*
X73282115Y-41379826D01*
X72969817Y-41250148D01*
X72631666Y-41249853D01*
X72319143Y-41378985D01*
X72079826Y-41617885D01*
X72050147Y-41689359D01*
X72050147Y-17231666D01*
X71921015Y-16919143D01*
X71682115Y-16679826D01*
X71369817Y-16550148D01*
X71031666Y-16549853D01*
X70719143Y-16678985D01*
X70550147Y-16847686D01*
X70550147Y-6131666D01*
X70421015Y-5819143D01*
X70182115Y-5579826D01*
X69869817Y-5450148D01*
X69531666Y-5449853D01*
X69219143Y-5578985D01*
X68979826Y-5817885D01*
X68850148Y-6130183D01*
X68850147Y-6131329D01*
X68850147Y-2631666D01*
X68721015Y-2319143D01*
X68482115Y-2079826D01*
X68169817Y-1950148D01*
X67831666Y-1949853D01*
X67519143Y-2078985D01*
X67279826Y-2317885D01*
X67150148Y-2630183D01*
X67149853Y-2968334D01*
X67278985Y-3280857D01*
X67517885Y-3520174D01*
X67830183Y-3649852D01*
X68168334Y-3650147D01*
X68480857Y-3521015D01*
X68720174Y-3282115D01*
X68849852Y-2969817D01*
X68850147Y-2631666D01*
X68850147Y-6131329D01*
X68849853Y-6468334D01*
X68978985Y-6780857D01*
X69217885Y-7020174D01*
X69530183Y-7149852D01*
X69868334Y-7150147D01*
X70180857Y-7021015D01*
X70420174Y-6782115D01*
X70549852Y-6469817D01*
X70550147Y-6131666D01*
X70550147Y-16847686D01*
X70479826Y-16917885D01*
X70350148Y-17230183D01*
X70349853Y-17568334D01*
X70478985Y-17880857D01*
X70717885Y-18120174D01*
X71030183Y-18249852D01*
X71368334Y-18250147D01*
X71680857Y-18121015D01*
X71920174Y-17882115D01*
X72049852Y-17569817D01*
X72050147Y-17231666D01*
X72050147Y-41689359D01*
X71950148Y-41930183D01*
X71949853Y-42268334D01*
X72078985Y-42580857D01*
X72317885Y-42820174D01*
X72630183Y-42949852D01*
X72968334Y-42950147D01*
X73280857Y-42821015D01*
X73520174Y-42582115D01*
X73649852Y-42269817D01*
X73650147Y-41931666D01*
X73650147Y-56549956D01*
X73531666Y-56549853D01*
X73219143Y-56678985D01*
X72979826Y-56917885D01*
X72850148Y-57230183D01*
X72849853Y-57568334D01*
X72978985Y-57880857D01*
X73217885Y-58120174D01*
X73530183Y-58249852D01*
X73868334Y-58250147D01*
X74180857Y-58121015D01*
X74420174Y-57882115D01*
X74549852Y-57569817D01*
X74550147Y-57231666D01*
X74550147Y-63579867D01*
X74500174Y-63700215D01*
X74499827Y-64098040D01*
X74651747Y-64465714D01*
X74932806Y-64747264D01*
X75300215Y-64899826D01*
X75698040Y-64900173D01*
X76065714Y-64748253D01*
X76347264Y-64467194D01*
X76499826Y-64099785D01*
X76500173Y-63701960D01*
X76500173Y-68850000D01*
X73500173Y-68850000D01*
X73500173Y-63701960D01*
X73348253Y-63334286D01*
X73067194Y-63052736D01*
X72699785Y-62900174D01*
X72301960Y-62899827D01*
X72200207Y-62941870D01*
X72200207Y-61562353D01*
X72017903Y-61121143D01*
X71680633Y-60783283D01*
X71250147Y-60604529D01*
X71250147Y-42131666D01*
X71121015Y-41819143D01*
X70882115Y-41579826D01*
X70569817Y-41450148D01*
X70231666Y-41449853D01*
X69919143Y-41578985D01*
X69679826Y-41817885D01*
X69550148Y-42130183D01*
X69549853Y-42468334D01*
X69678985Y-42780857D01*
X69917885Y-43020174D01*
X70230183Y-43149852D01*
X70568334Y-43150147D01*
X70880857Y-43021015D01*
X71120174Y-42782115D01*
X71249852Y-42469817D01*
X71250147Y-42131666D01*
X71250147Y-60604529D01*
X71239742Y-60600209D01*
X70762353Y-60599793D01*
X70321143Y-60782097D01*
X70090341Y-61012495D01*
X69962350Y-60979071D01*
X69820929Y-61120492D01*
X69820929Y-60837650D01*
X69756058Y-60589245D01*
X69235171Y-60392077D01*
X69050147Y-60397785D01*
X69050147Y-29131666D01*
X68921015Y-28819143D01*
X68682115Y-28579826D01*
X68369817Y-28450148D01*
X68031666Y-28449853D01*
X67719143Y-28578985D01*
X67479826Y-28817885D01*
X67350148Y-29130183D01*
X67349853Y-29468334D01*
X67478985Y-29780857D01*
X67717885Y-30020174D01*
X68030183Y-30149852D01*
X68368334Y-30150147D01*
X68680857Y-30021015D01*
X68920174Y-29782115D01*
X69049852Y-29469817D01*
X69050147Y-29131666D01*
X69050147Y-60397785D01*
X68678481Y-60409252D01*
X68243942Y-60589245D01*
X68179071Y-60837650D01*
X69000000Y-61658579D01*
X69820929Y-60837650D01*
X69820929Y-61120492D01*
X69141421Y-61800000D01*
X69962350Y-62620929D01*
X70090510Y-62587459D01*
X70319367Y-62816717D01*
X70760258Y-62999791D01*
X71237647Y-63000207D01*
X71678857Y-62817903D01*
X72016717Y-62480633D01*
X72199791Y-62039742D01*
X72200207Y-61562353D01*
X72200207Y-62941870D01*
X71934286Y-63051747D01*
X71652736Y-63332806D01*
X71500174Y-63700215D01*
X71499827Y-64098040D01*
X71651747Y-64465714D01*
X71932806Y-64747264D01*
X72300215Y-64899826D01*
X72698040Y-64900173D01*
X73065714Y-64748253D01*
X73347264Y-64467194D01*
X73499826Y-64099785D01*
X73500173Y-63701960D01*
X73500173Y-68850000D01*
X69820929Y-68850000D01*
X69820929Y-62762350D01*
X69000000Y-61941421D01*
X68858579Y-62082842D01*
X68858579Y-61800000D01*
X68037650Y-60979071D01*
X67789245Y-61043942D01*
X67592077Y-61564829D01*
X67609252Y-62121519D01*
X67789245Y-62556058D01*
X68037650Y-62620929D01*
X68858579Y-61800000D01*
X68858579Y-62082842D01*
X68179071Y-62762350D01*
X68243942Y-63010755D01*
X68764829Y-63207923D01*
X69321519Y-63190748D01*
X69756058Y-63010755D01*
X69820929Y-62762350D01*
X69820929Y-68850000D01*
X68500173Y-68850000D01*
X68500173Y-63701960D01*
X68348253Y-63334286D01*
X68067194Y-63052736D01*
X67699785Y-62900174D01*
X67301960Y-62899827D01*
X67050147Y-63003874D01*
X67050147Y-41031666D01*
X66921015Y-40719143D01*
X66758166Y-40556009D01*
X66758166Y-4010278D01*
X66612626Y-3658046D01*
X66519816Y-3565074D01*
X66611679Y-3473372D01*
X66757833Y-3121394D01*
X66758166Y-2740278D01*
X66612626Y-2388046D01*
X66343372Y-2118321D01*
X65991394Y-1972167D01*
X65610278Y-1971834D01*
X65346438Y-2080850D01*
X65292082Y-2026494D01*
X65175774Y-2142801D01*
X65140596Y-1919457D01*
X64707399Y-1762715D01*
X64247195Y-1783682D01*
X63919404Y-1919457D01*
X63895000Y-2074394D01*
X63870596Y-1919457D01*
X63437399Y-1762715D01*
X62977195Y-1783682D01*
X62649404Y-1919457D01*
X62614225Y-2142801D01*
X62497918Y-2026494D01*
X62443435Y-2080976D01*
X62181394Y-1972167D01*
X61800278Y-1971834D01*
X61536438Y-2080850D01*
X61482082Y-2026494D01*
X61365774Y-2142801D01*
X61330596Y-1919457D01*
X60897399Y-1762715D01*
X60437195Y-1783682D01*
X60109404Y-1919457D01*
X60074225Y-2142803D01*
X60720000Y-2788579D01*
X60734142Y-2774436D01*
X60875563Y-2915857D01*
X60861421Y-2930000D01*
X60875563Y-2944142D01*
X60734142Y-3085563D01*
X60720000Y-3071421D01*
X60705857Y-3085563D01*
X60578579Y-2958285D01*
X60564436Y-2944142D01*
X60578579Y-2930000D01*
X59932803Y-2284225D01*
X59709457Y-2319404D01*
X59552715Y-2752601D01*
X59573682Y-3212805D01*
X59709457Y-3540596D01*
X59932801Y-3575774D01*
X59816494Y-3692082D01*
X59870976Y-3746564D01*
X59762167Y-4008606D01*
X59761834Y-4389722D01*
X59907374Y-4741954D01*
X60176628Y-5011679D01*
X60528606Y-5157833D01*
X60909722Y-5158166D01*
X61261954Y-5012626D01*
X61354925Y-4919816D01*
X61446628Y-5011679D01*
X61798606Y-5157833D01*
X62179722Y-5158166D01*
X62531954Y-5012626D01*
X62624925Y-4919816D01*
X62716628Y-5011679D01*
X63068606Y-5157833D01*
X63449722Y-5158166D01*
X63801954Y-5012626D01*
X63894925Y-4919816D01*
X63986628Y-5011679D01*
X64338606Y-5157833D01*
X64719722Y-5158166D01*
X65071954Y-5012626D01*
X65164925Y-4919816D01*
X65256628Y-5011679D01*
X65608606Y-5157833D01*
X65989722Y-5158166D01*
X66341954Y-5012626D01*
X66611679Y-4743372D01*
X66757833Y-4391394D01*
X66758166Y-4010278D01*
X66758166Y-40556009D01*
X66682115Y-40479826D01*
X66450147Y-40383504D01*
X66450147Y-39031666D01*
X66321015Y-38719143D01*
X66082115Y-38479826D01*
X65769817Y-38350148D01*
X65431666Y-38349853D01*
X65119143Y-38478985D01*
X64879826Y-38717885D01*
X64750148Y-39030183D01*
X64749853Y-39368334D01*
X64878985Y-39680857D01*
X65117885Y-39920174D01*
X65430183Y-40049852D01*
X65768334Y-40050147D01*
X66080857Y-39921015D01*
X66320174Y-39682115D01*
X66449852Y-39369817D01*
X66450147Y-39031666D01*
X66450147Y-40383504D01*
X66369817Y-40350148D01*
X66031666Y-40349853D01*
X65719143Y-40478985D01*
X65479826Y-40717885D01*
X65350148Y-41030183D01*
X65349853Y-41368334D01*
X65478985Y-41680857D01*
X65717885Y-41920174D01*
X66030183Y-42049852D01*
X66368334Y-42050147D01*
X66680857Y-41921015D01*
X66920174Y-41682115D01*
X67049852Y-41369817D01*
X67050147Y-41031666D01*
X67050147Y-63003874D01*
X66934286Y-63051747D01*
X66652736Y-63332806D01*
X66500174Y-63700215D01*
X66499827Y-64098040D01*
X66651747Y-64465714D01*
X66932806Y-64747264D01*
X67300215Y-64899826D01*
X67698040Y-64900173D01*
X68065714Y-64748253D01*
X68347264Y-64467194D01*
X68499826Y-64099785D01*
X68500173Y-63701960D01*
X68500173Y-68850000D01*
X66350147Y-68850000D01*
X66350147Y-57431666D01*
X66221015Y-57119143D01*
X66050147Y-56947976D01*
X66050147Y-47631666D01*
X65921015Y-47319143D01*
X65682115Y-47079826D01*
X65369817Y-46950148D01*
X65031666Y-46949853D01*
X64719143Y-47078985D01*
X64479826Y-47317885D01*
X64450147Y-47389359D01*
X64450147Y-29831666D01*
X64321015Y-29519143D01*
X64082115Y-29279826D01*
X63769817Y-29150148D01*
X63431666Y-29149853D01*
X63119143Y-29278985D01*
X62879826Y-29517885D01*
X62750148Y-29830183D01*
X62749853Y-30168334D01*
X62878985Y-30480857D01*
X63117885Y-30720174D01*
X63430183Y-30849852D01*
X63768334Y-30850147D01*
X64080857Y-30721015D01*
X64320174Y-30482115D01*
X64449852Y-30169817D01*
X64450147Y-29831666D01*
X64450147Y-47389359D01*
X64350148Y-47630183D01*
X64349853Y-47968334D01*
X64478985Y-48280857D01*
X64717885Y-48520174D01*
X65030183Y-48649852D01*
X65368334Y-48650147D01*
X65680857Y-48521015D01*
X65920174Y-48282115D01*
X66049852Y-47969817D01*
X66050147Y-47631666D01*
X66050147Y-56947976D01*
X65982115Y-56879826D01*
X65669817Y-56750148D01*
X65331666Y-56749853D01*
X65019143Y-56878985D01*
X64779826Y-57117885D01*
X64650148Y-57430183D01*
X64649853Y-57768334D01*
X64778985Y-58080857D01*
X65017885Y-58320174D01*
X65330183Y-58449852D01*
X65668334Y-58450147D01*
X65980857Y-58321015D01*
X66220174Y-58082115D01*
X66349852Y-57769817D01*
X66350147Y-57431666D01*
X66350147Y-68850000D01*
X66332026Y-68850000D01*
X65321505Y-63769765D01*
X65239382Y-63571501D01*
X65239378Y-63571497D01*
X64050147Y-61791687D01*
X64050147Y-57331666D01*
X63921015Y-57019143D01*
X63682115Y-56779826D01*
X63650199Y-56766573D01*
X63650199Y-51872254D01*
X63650147Y-51872128D01*
X63650147Y-43131666D01*
X63521015Y-42819143D01*
X63282115Y-42579826D01*
X62969817Y-42450148D01*
X62631666Y-42449853D01*
X62319143Y-42578985D01*
X62079826Y-42817885D01*
X61950148Y-43130183D01*
X61949853Y-43468334D01*
X62078985Y-43780857D01*
X62317885Y-44020174D01*
X62630183Y-44149852D01*
X62968334Y-44150147D01*
X63280857Y-44021015D01*
X63520174Y-43782115D01*
X63649852Y-43469817D01*
X63650147Y-43131666D01*
X63650147Y-51872128D01*
X63475491Y-51449428D01*
X63152273Y-51125646D01*
X62729753Y-50950200D01*
X62272254Y-50949801D01*
X61850147Y-51124211D01*
X61850147Y-44831666D01*
X61721015Y-44519143D01*
X61482115Y-44279826D01*
X61169817Y-44150148D01*
X60950147Y-44149956D01*
X60950147Y-32331666D01*
X60821015Y-32019143D01*
X60582115Y-31779826D01*
X60350147Y-31683504D01*
X60350147Y-22631666D01*
X60221015Y-22319143D01*
X59982115Y-22079826D01*
X59669817Y-21950148D01*
X59331666Y-21949853D01*
X59019143Y-22078985D01*
X58779826Y-22317885D01*
X58650148Y-22630183D01*
X58649853Y-22968334D01*
X58778985Y-23280857D01*
X59017885Y-23520174D01*
X59330183Y-23649852D01*
X59668334Y-23650147D01*
X59980857Y-23521015D01*
X60220174Y-23282115D01*
X60349852Y-22969817D01*
X60350147Y-22631666D01*
X60350147Y-31683504D01*
X60269817Y-31650148D01*
X60250147Y-31650130D01*
X60250147Y-27431666D01*
X60121015Y-27119143D01*
X60050147Y-27048151D01*
X60050147Y-25631666D01*
X59921015Y-25319143D01*
X59682115Y-25079826D01*
X59369817Y-24950148D01*
X59031666Y-24949853D01*
X58719143Y-25078985D01*
X58479826Y-25317885D01*
X58350148Y-25630183D01*
X58349853Y-25968334D01*
X58478985Y-26280857D01*
X58717885Y-26520174D01*
X59030183Y-26649852D01*
X59368334Y-26650147D01*
X59680857Y-26521015D01*
X59920174Y-26282115D01*
X60049852Y-25969817D01*
X60050147Y-25631666D01*
X60050147Y-27048151D01*
X59882115Y-26879826D01*
X59569817Y-26750148D01*
X59231666Y-26749853D01*
X58919143Y-26878985D01*
X58679826Y-27117885D01*
X58550148Y-27430183D01*
X58549853Y-27768334D01*
X58678985Y-28080857D01*
X58917885Y-28320174D01*
X59230183Y-28449852D01*
X59568334Y-28450147D01*
X59880857Y-28321015D01*
X60120174Y-28082115D01*
X60249852Y-27769817D01*
X60250147Y-27431666D01*
X60250147Y-31650130D01*
X59931666Y-31649853D01*
X59619143Y-31778985D01*
X59379826Y-32017885D01*
X59250148Y-32330183D01*
X59249853Y-32668334D01*
X59378985Y-32980857D01*
X59617885Y-33220174D01*
X59930183Y-33349852D01*
X60268334Y-33350147D01*
X60580857Y-33221015D01*
X60820174Y-32982115D01*
X60949852Y-32669817D01*
X60950147Y-32331666D01*
X60950147Y-44149956D01*
X60831666Y-44149853D01*
X60519143Y-44278985D01*
X60279826Y-44517885D01*
X60150148Y-44830183D01*
X60149853Y-45168334D01*
X60278985Y-45480857D01*
X60517885Y-45720174D01*
X60830183Y-45849852D01*
X61168334Y-45850147D01*
X61480857Y-45721015D01*
X61720174Y-45482115D01*
X61849852Y-45169817D01*
X61850147Y-44831666D01*
X61850147Y-51124211D01*
X61849428Y-51124509D01*
X61525646Y-51447727D01*
X61350200Y-51870247D01*
X61349801Y-52327746D01*
X61524509Y-52750572D01*
X61847727Y-53074354D01*
X62270247Y-53249800D01*
X62727746Y-53250199D01*
X63150572Y-53075491D01*
X63474354Y-52752273D01*
X63649800Y-52329753D01*
X63650199Y-51872254D01*
X63650199Y-56766573D01*
X63369817Y-56650148D01*
X63031666Y-56649853D01*
X62719143Y-56778985D01*
X62479826Y-57017885D01*
X62350148Y-57330183D01*
X62349853Y-57668334D01*
X62478985Y-57980857D01*
X62717885Y-58220174D01*
X63030183Y-58349852D01*
X63368334Y-58350147D01*
X63680857Y-58221015D01*
X63920174Y-57982115D01*
X64049852Y-57669817D01*
X64050147Y-57331666D01*
X64050147Y-61791687D01*
X61771016Y-58380728D01*
X61619272Y-58228983D01*
X61619265Y-58228980D01*
X60100147Y-57213937D01*
X60100147Y-48431666D01*
X59971015Y-48119143D01*
X59732115Y-47879826D01*
X59419817Y-47750148D01*
X59081666Y-47749853D01*
X58769143Y-47878985D01*
X58750147Y-47897947D01*
X58750147Y-32731666D01*
X58621015Y-32419143D01*
X58382115Y-32179826D01*
X58150147Y-32083504D01*
X58150147Y-26031666D01*
X58021015Y-25719143D01*
X57782115Y-25479826D01*
X57469817Y-25350148D01*
X57131666Y-25349853D01*
X56819143Y-25478985D01*
X56579826Y-25717885D01*
X56450148Y-26030183D01*
X56450147Y-26031329D01*
X56450147Y-22131666D01*
X56321015Y-21819143D01*
X56082115Y-21579826D01*
X55769817Y-21450148D01*
X55431666Y-21449853D01*
X55119143Y-21578985D01*
X54879826Y-21817885D01*
X54750148Y-22130183D01*
X54749853Y-22468334D01*
X54878985Y-22780857D01*
X55117885Y-23020174D01*
X55430183Y-23149852D01*
X55768334Y-23150147D01*
X56080857Y-23021015D01*
X56320174Y-22782115D01*
X56449852Y-22469817D01*
X56450147Y-22131666D01*
X56450147Y-26031329D01*
X56449853Y-26368334D01*
X56578985Y-26680857D01*
X56817885Y-26920174D01*
X57130183Y-27049852D01*
X57468334Y-27050147D01*
X57780857Y-26921015D01*
X58020174Y-26682115D01*
X58149852Y-26369817D01*
X58150147Y-26031666D01*
X58150147Y-32083504D01*
X58069817Y-32050148D01*
X57731666Y-32049853D01*
X57419143Y-32178985D01*
X57179826Y-32417885D01*
X57050148Y-32730183D01*
X57049853Y-33068334D01*
X57178985Y-33380857D01*
X57417885Y-33620174D01*
X57730183Y-33749852D01*
X58068334Y-33750147D01*
X58380857Y-33621015D01*
X58620174Y-33382115D01*
X58749852Y-33069817D01*
X58750147Y-32731666D01*
X58750147Y-47897947D01*
X58600147Y-48047686D01*
X58600147Y-46031666D01*
X58471015Y-45719143D01*
X58232115Y-45479826D01*
X57919817Y-45350148D01*
X57581666Y-45349853D01*
X57269143Y-45478985D01*
X57029826Y-45717885D01*
X56900148Y-46030183D01*
X56899853Y-46368334D01*
X57028985Y-46680857D01*
X57267885Y-46920174D01*
X57580183Y-47049852D01*
X57918334Y-47050147D01*
X58230857Y-46921015D01*
X58470174Y-46682115D01*
X58599852Y-46369817D01*
X58600147Y-46031666D01*
X58600147Y-48047686D01*
X58529826Y-48117885D01*
X58400148Y-48430183D01*
X58399853Y-48768334D01*
X58528985Y-49080857D01*
X58767885Y-49320174D01*
X59080183Y-49449852D01*
X59418334Y-49450147D01*
X59730857Y-49321015D01*
X59970174Y-49082115D01*
X60099852Y-48769817D01*
X60100147Y-48431666D01*
X60100147Y-57213937D01*
X57550147Y-55510080D01*
X57550147Y-53131666D01*
X57421015Y-52819143D01*
X57182115Y-52579826D01*
X56869817Y-52450148D01*
X56531666Y-52449853D01*
X56250147Y-52566174D01*
X56250147Y-42431666D01*
X56150147Y-42189647D01*
X56150147Y-25831666D01*
X56021015Y-25519143D01*
X55782115Y-25279826D01*
X55469817Y-25150148D01*
X55131666Y-25149853D01*
X54819143Y-25278985D01*
X54579826Y-25517885D01*
X54450148Y-25830183D01*
X54449853Y-26168334D01*
X54578985Y-26480857D01*
X54817885Y-26720174D01*
X55130183Y-26849852D01*
X55468334Y-26850147D01*
X55780857Y-26721015D01*
X56020174Y-26482115D01*
X56149852Y-26169817D01*
X56150147Y-25831666D01*
X56150147Y-42189647D01*
X56121015Y-42119143D01*
X55882115Y-41879826D01*
X55569817Y-41750148D01*
X55450130Y-41750043D01*
X55450147Y-41731666D01*
X55321015Y-41419143D01*
X55082115Y-41179826D01*
X54769817Y-41050148D01*
X54431666Y-41049853D01*
X54119143Y-41178985D01*
X53879826Y-41417885D01*
X53750148Y-41730183D01*
X53750132Y-41748136D01*
X53582115Y-41579826D01*
X53500173Y-41545800D01*
X53500173Y-5951960D01*
X53348253Y-5584286D01*
X53067194Y-5302736D01*
X52699785Y-5150174D01*
X52301960Y-5149827D01*
X51934286Y-5301747D01*
X51652736Y-5582806D01*
X51500174Y-5950215D01*
X51499827Y-6348040D01*
X51651747Y-6715714D01*
X51932806Y-6997264D01*
X52300215Y-7149826D01*
X52698040Y-7150173D01*
X53065714Y-6998253D01*
X53347264Y-6717194D01*
X53499826Y-6349785D01*
X53500173Y-5951960D01*
X53500173Y-41545800D01*
X53269817Y-41450148D01*
X53250147Y-41450130D01*
X53250147Y-18431666D01*
X53121015Y-18119143D01*
X52882115Y-17879826D01*
X52569817Y-17750148D01*
X52231666Y-17749853D01*
X52200207Y-17762851D01*
X52200207Y-8012353D01*
X52017903Y-7571143D01*
X51680633Y-7233283D01*
X51239742Y-7050209D01*
X50762353Y-7049793D01*
X50321143Y-7232097D01*
X49999735Y-7552943D01*
X49680633Y-7233283D01*
X49239742Y-7050209D01*
X48762353Y-7049793D01*
X48321143Y-7232097D01*
X47999735Y-7552943D01*
X47680633Y-7233283D01*
X47239742Y-7050209D01*
X46762353Y-7049793D01*
X46321143Y-7232097D01*
X45999735Y-7552943D01*
X45680633Y-7233283D01*
X45239742Y-7050209D01*
X44762353Y-7049793D01*
X44500173Y-7158123D01*
X44500173Y-5951960D01*
X44348253Y-5584286D01*
X44067194Y-5302736D01*
X43699785Y-5150174D01*
X43301960Y-5149827D01*
X42934286Y-5301747D01*
X42652736Y-5582806D01*
X42500174Y-5950215D01*
X42499827Y-6348040D01*
X42651747Y-6715714D01*
X42932806Y-6997264D01*
X43300215Y-7149826D01*
X43698040Y-7150173D01*
X44065714Y-6998253D01*
X44347264Y-6717194D01*
X44499826Y-6349785D01*
X44500173Y-5951960D01*
X44500173Y-7158123D01*
X44321143Y-7232097D01*
X43983283Y-7569367D01*
X43800209Y-8010258D01*
X43799793Y-8487647D01*
X43982097Y-8928857D01*
X44319367Y-9266717D01*
X44760258Y-9449791D01*
X45237647Y-9450207D01*
X45678857Y-9267903D01*
X46000264Y-8947056D01*
X46319367Y-9266717D01*
X46760258Y-9449791D01*
X47237647Y-9450207D01*
X47678857Y-9267903D01*
X48000264Y-8947056D01*
X48319367Y-9266717D01*
X48760258Y-9449791D01*
X49237647Y-9450207D01*
X49678857Y-9267903D01*
X50000264Y-8947056D01*
X50319367Y-9266717D01*
X50760258Y-9449791D01*
X51237647Y-9450207D01*
X51678857Y-9267903D01*
X52016717Y-8930633D01*
X52199791Y-8489742D01*
X52200207Y-8012353D01*
X52200207Y-17762851D01*
X51919143Y-17878985D01*
X51679826Y-18117885D01*
X51550148Y-18430183D01*
X51549853Y-18768334D01*
X51678985Y-19080857D01*
X51917885Y-19320174D01*
X52230183Y-19449852D01*
X52568334Y-19450147D01*
X52880857Y-19321015D01*
X53120174Y-19082115D01*
X53249852Y-18769817D01*
X53250147Y-18431666D01*
X53250147Y-41450130D01*
X52931666Y-41449853D01*
X52619143Y-41578985D01*
X52379826Y-41817885D01*
X52250148Y-42130183D01*
X52249853Y-42468334D01*
X52378985Y-42780857D01*
X52531684Y-42933822D01*
X52450148Y-43130183D01*
X52449853Y-43468334D01*
X52578985Y-43780857D01*
X52817885Y-44020174D01*
X53130183Y-44149852D01*
X53468334Y-44150147D01*
X53780857Y-44021015D01*
X54020174Y-43782115D01*
X54149852Y-43469817D01*
X54150147Y-43131666D01*
X54021015Y-42819143D01*
X53868315Y-42666177D01*
X53949852Y-42469817D01*
X53949867Y-42451863D01*
X54117885Y-42620174D01*
X54430183Y-42749852D01*
X54549869Y-42749956D01*
X54549853Y-42768334D01*
X54678985Y-43080857D01*
X54917885Y-43320174D01*
X55230183Y-43449852D01*
X55568334Y-43450147D01*
X55880857Y-43321015D01*
X56120174Y-43082115D01*
X56249852Y-42769817D01*
X56250147Y-42431666D01*
X56250147Y-52566174D01*
X56219143Y-52578985D01*
X55979826Y-52817885D01*
X55850148Y-53130183D01*
X55849853Y-53468334D01*
X55978985Y-53780857D01*
X56217885Y-54020174D01*
X56530183Y-54149852D01*
X56868334Y-54150147D01*
X57180857Y-54021015D01*
X57420174Y-53782115D01*
X57549852Y-53469817D01*
X57550147Y-53131666D01*
X57550147Y-55510080D01*
X56428499Y-54760619D01*
X56428498Y-54760618D01*
X56312358Y-54712511D01*
X56230235Y-54678495D01*
X56230234Y-54678495D01*
X54250147Y-54284630D01*
X54250147Y-50431666D01*
X54121015Y-50119143D01*
X53882115Y-49879826D01*
X53569817Y-49750148D01*
X53231666Y-49749853D01*
X52919143Y-49878985D01*
X52750147Y-50047686D01*
X52750147Y-48831666D01*
X52621015Y-48519143D01*
X52382115Y-48279826D01*
X52069817Y-48150148D01*
X51731666Y-48149853D01*
X51419143Y-48278985D01*
X51179826Y-48517885D01*
X51050148Y-48830183D01*
X51049853Y-49168334D01*
X51178985Y-49480857D01*
X51417885Y-49720174D01*
X51730183Y-49849852D01*
X52068334Y-49850147D01*
X52380857Y-49721015D01*
X52620174Y-49482115D01*
X52749852Y-49169817D01*
X52750147Y-48831666D01*
X52750147Y-50047686D01*
X52679826Y-50117885D01*
X52550148Y-50430183D01*
X52549853Y-50768334D01*
X52678985Y-51080857D01*
X52917885Y-51320174D01*
X53230183Y-51449852D01*
X53568334Y-51450147D01*
X53880857Y-51321015D01*
X54120174Y-51082115D01*
X54249852Y-50769817D01*
X54250147Y-50431666D01*
X54250147Y-54284630D01*
X53598554Y-54155021D01*
X53680857Y-54121015D01*
X53920174Y-53882115D01*
X54049852Y-53569817D01*
X54050147Y-53231666D01*
X53921015Y-52919143D01*
X53682115Y-52679826D01*
X53369817Y-52550148D01*
X53031666Y-52549853D01*
X52719143Y-52678985D01*
X52479826Y-52917885D01*
X52350148Y-53230183D01*
X52349853Y-53568334D01*
X52478985Y-53880857D01*
X52543093Y-53945077D01*
X50950147Y-53628220D01*
X50950147Y-43031666D01*
X50821015Y-42719143D01*
X50582115Y-42479826D01*
X50269817Y-42350148D01*
X50016373Y-42349926D01*
X49921015Y-42119143D01*
X49682115Y-41879826D01*
X49369817Y-41750148D01*
X49350147Y-41750130D01*
X49350147Y-19031666D01*
X49221015Y-18719143D01*
X48982115Y-18479826D01*
X48669817Y-18350148D01*
X48331666Y-18349853D01*
X48019143Y-18478985D01*
X47779826Y-18717885D01*
X47650148Y-19030183D01*
X47650147Y-19031329D01*
X47650147Y-13431666D01*
X47521015Y-13119143D01*
X47282115Y-12879826D01*
X46969817Y-12750148D01*
X46631666Y-12749853D01*
X46319143Y-12878985D01*
X46079826Y-13117885D01*
X45950148Y-13430183D01*
X45949853Y-13768334D01*
X46078985Y-14080857D01*
X46317885Y-14320174D01*
X46630183Y-14449852D01*
X46968334Y-14450147D01*
X47280857Y-14321015D01*
X47520174Y-14082115D01*
X47649852Y-13769817D01*
X47650147Y-13431666D01*
X47650147Y-19031329D01*
X47649853Y-19368334D01*
X47778985Y-19680857D01*
X48017885Y-19920174D01*
X48330183Y-20049852D01*
X48668334Y-20050147D01*
X48980857Y-19921015D01*
X49220174Y-19682115D01*
X49349852Y-19369817D01*
X49350147Y-19031666D01*
X49350147Y-41750130D01*
X49031666Y-41749853D01*
X48719143Y-41878985D01*
X48549958Y-42047874D01*
X48432115Y-41929826D01*
X48250147Y-41854265D01*
X48250147Y-25331666D01*
X48121015Y-25019143D01*
X47882115Y-24779826D01*
X47650147Y-24683504D01*
X47650147Y-20031666D01*
X47521015Y-19719143D01*
X47282115Y-19479826D01*
X46969817Y-19350148D01*
X46631666Y-19349853D01*
X46319143Y-19478985D01*
X46079826Y-19717885D01*
X45950148Y-20030183D01*
X45949853Y-20368334D01*
X46078985Y-20680857D01*
X46317885Y-20920174D01*
X46630183Y-21049852D01*
X46968334Y-21050147D01*
X47280857Y-20921015D01*
X47520174Y-20682115D01*
X47649852Y-20369817D01*
X47650147Y-20031666D01*
X47650147Y-24683504D01*
X47569817Y-24650148D01*
X47231666Y-24649853D01*
X46919143Y-24778985D01*
X46679826Y-25017885D01*
X46550148Y-25330183D01*
X46549853Y-25668334D01*
X46678985Y-25980857D01*
X46917885Y-26220174D01*
X47230183Y-26349852D01*
X47568334Y-26350147D01*
X47880857Y-26221015D01*
X48120174Y-25982115D01*
X48249852Y-25669817D01*
X48250147Y-25331666D01*
X48250147Y-41854265D01*
X48119817Y-41800148D01*
X47781666Y-41799853D01*
X47469143Y-41928985D01*
X47229826Y-42167885D01*
X47100148Y-42480183D01*
X47099853Y-42818334D01*
X47228985Y-43130857D01*
X47467885Y-43370174D01*
X47780183Y-43499852D01*
X48118334Y-43500147D01*
X48430857Y-43371015D01*
X48600041Y-43202125D01*
X48717885Y-43320174D01*
X49030183Y-43449852D01*
X49283626Y-43450073D01*
X49378985Y-43680857D01*
X49617885Y-43920174D01*
X49930183Y-44049852D01*
X50268334Y-44050147D01*
X50580857Y-43921015D01*
X50820174Y-43682115D01*
X50949852Y-43369817D01*
X50950147Y-43031666D01*
X50950147Y-53628220D01*
X50107300Y-53460568D01*
X50107299Y-53460568D01*
X49892700Y-53460568D01*
X46950147Y-54045877D01*
X46950147Y-28731666D01*
X46821015Y-28419143D01*
X46582115Y-28179826D01*
X46269817Y-28050148D01*
X45931666Y-28049853D01*
X45619143Y-28178985D01*
X45379826Y-28417885D01*
X45250148Y-28730183D01*
X45250147Y-28731329D01*
X45250147Y-20031666D01*
X45121015Y-19719143D01*
X44882115Y-19479826D01*
X44569817Y-19350148D01*
X44231666Y-19349853D01*
X43919143Y-19478985D01*
X43679826Y-19717885D01*
X43550148Y-20030183D01*
X43549853Y-20368334D01*
X43678985Y-20680857D01*
X43917885Y-20920174D01*
X44230183Y-21049852D01*
X44568334Y-21050147D01*
X44880857Y-20921015D01*
X45120174Y-20682115D01*
X45249852Y-20369817D01*
X45250147Y-20031666D01*
X45250147Y-28731329D01*
X45249853Y-29068334D01*
X45378985Y-29380857D01*
X45617885Y-29620174D01*
X45930183Y-29749852D01*
X46268334Y-29750147D01*
X46580857Y-29621015D01*
X46820174Y-29382115D01*
X46949852Y-29069817D01*
X46950147Y-28731666D01*
X46950147Y-54045877D01*
X46550147Y-54125442D01*
X46550147Y-53131666D01*
X46421015Y-52819143D01*
X46182115Y-52579826D01*
X45869817Y-52450148D01*
X45531666Y-52449853D01*
X45219143Y-52578985D01*
X44979826Y-52817885D01*
X44850148Y-53130183D01*
X44850147Y-53131329D01*
X44850147Y-32631666D01*
X44721015Y-32319143D01*
X44482115Y-32079826D01*
X44169817Y-31950148D01*
X43831666Y-31949853D01*
X43519143Y-32078985D01*
X43350000Y-32247833D01*
X43350000Y-25914774D01*
X43350000Y-25585226D01*
X43189056Y-24776106D01*
X42722358Y-24077642D01*
X42023894Y-23610944D01*
X41500173Y-23506769D01*
X41500173Y-5951960D01*
X41348253Y-5584286D01*
X41067194Y-5302736D01*
X40699785Y-5150174D01*
X40301960Y-5149827D01*
X39934286Y-5301747D01*
X39652736Y-5582806D01*
X39500174Y-5950215D01*
X39499827Y-6348040D01*
X39651747Y-6715714D01*
X39932806Y-6997264D01*
X40300215Y-7149826D01*
X40698040Y-7150173D01*
X41065714Y-6998253D01*
X41347264Y-6717194D01*
X41499826Y-6349785D01*
X41500173Y-5951960D01*
X41500173Y-23506769D01*
X41214774Y-23450000D01*
X40885226Y-23450000D01*
X40200207Y-23586258D01*
X40200207Y-8012353D01*
X40017903Y-7571143D01*
X39680633Y-7233283D01*
X39239742Y-7050209D01*
X38762353Y-7049793D01*
X38321143Y-7232097D01*
X37999735Y-7552943D01*
X37680633Y-7233283D01*
X37239742Y-7050209D01*
X36762353Y-7049793D01*
X36321143Y-7232097D01*
X35999735Y-7552943D01*
X35680633Y-7233283D01*
X35239742Y-7050209D01*
X34762353Y-7049793D01*
X34321143Y-7232097D01*
X33999735Y-7552943D01*
X33680633Y-7233283D01*
X33239742Y-7050209D01*
X32762353Y-7049793D01*
X32500173Y-7158123D01*
X32500173Y-5951960D01*
X32348253Y-5584286D01*
X32067194Y-5302736D01*
X31699785Y-5150174D01*
X31301960Y-5149827D01*
X30934286Y-5301747D01*
X30652736Y-5582806D01*
X30500174Y-5950215D01*
X30499827Y-6348040D01*
X30651747Y-6715714D01*
X30932806Y-6997264D01*
X31300215Y-7149826D01*
X31698040Y-7150173D01*
X32065714Y-6998253D01*
X32347264Y-6717194D01*
X32499826Y-6349785D01*
X32500173Y-5951960D01*
X32500173Y-7158123D01*
X32321143Y-7232097D01*
X31983283Y-7569367D01*
X31800209Y-8010258D01*
X31799793Y-8487647D01*
X31982097Y-8928857D01*
X32319367Y-9266717D01*
X32760258Y-9449791D01*
X33237647Y-9450207D01*
X33678857Y-9267903D01*
X34000264Y-8947056D01*
X34319367Y-9266717D01*
X34760258Y-9449791D01*
X35237647Y-9450207D01*
X35678857Y-9267903D01*
X36000264Y-8947056D01*
X36319367Y-9266717D01*
X36760258Y-9449791D01*
X37237647Y-9450207D01*
X37678857Y-9267903D01*
X38000264Y-8947056D01*
X38319367Y-9266717D01*
X38760258Y-9449791D01*
X39237647Y-9450207D01*
X39678857Y-9267903D01*
X40016717Y-8930633D01*
X40199791Y-8489742D01*
X40200207Y-8012353D01*
X40200207Y-23586258D01*
X40076106Y-23610944D01*
X39850147Y-23761924D01*
X39850147Y-20831666D01*
X39721015Y-20519143D01*
X39482115Y-20279826D01*
X39169817Y-20150148D01*
X38831666Y-20149853D01*
X38519143Y-20278985D01*
X38279826Y-20517885D01*
X38150148Y-20830183D01*
X38149853Y-21168334D01*
X38278985Y-21480857D01*
X38517885Y-21720174D01*
X38830183Y-21849852D01*
X39168334Y-21850147D01*
X39480857Y-21721015D01*
X39720174Y-21482115D01*
X39849852Y-21169817D01*
X39850147Y-20831666D01*
X39850147Y-23761924D01*
X39377642Y-24077642D01*
X38910944Y-24776106D01*
X38750000Y-25585226D01*
X38750000Y-25914774D01*
X38910944Y-26723894D01*
X39377642Y-27422358D01*
X40076106Y-27889056D01*
X40885226Y-28050000D01*
X41214774Y-28050000D01*
X42023894Y-27889056D01*
X42722358Y-27422358D01*
X43189056Y-26723894D01*
X43350000Y-25914774D01*
X43350000Y-32247833D01*
X43279826Y-32317885D01*
X43150148Y-32630183D01*
X43149853Y-32968334D01*
X43278985Y-33280857D01*
X43350000Y-33351995D01*
X43517885Y-33520174D01*
X43830183Y-33649852D01*
X44168334Y-33650147D01*
X44480857Y-33521015D01*
X44720174Y-33282115D01*
X44849852Y-32969817D01*
X44850147Y-32631666D01*
X44850147Y-53131329D01*
X44849853Y-53468334D01*
X44978985Y-53780857D01*
X45217885Y-54020174D01*
X45530183Y-54149852D01*
X45868334Y-54150147D01*
X46180857Y-54021015D01*
X46420174Y-53782115D01*
X46549852Y-53469817D01*
X46550147Y-53131666D01*
X46550147Y-54125442D01*
X44550147Y-54523267D01*
X44550147Y-40731666D01*
X44421015Y-40419143D01*
X44182115Y-40179826D01*
X43869817Y-40050148D01*
X43750000Y-40050043D01*
X43750147Y-39881666D01*
X43621015Y-39569143D01*
X43382115Y-39329826D01*
X43350000Y-39316490D01*
X43069817Y-39200148D01*
X42731666Y-39199853D01*
X42419143Y-39328985D01*
X42179826Y-39567885D01*
X42050148Y-39880183D01*
X42049853Y-40218334D01*
X42178985Y-40530857D01*
X42417885Y-40770174D01*
X42730183Y-40899852D01*
X42849999Y-40899956D01*
X42849853Y-41068334D01*
X42978985Y-41380857D01*
X43217885Y-41620174D01*
X43350000Y-41675033D01*
X43530183Y-41749852D01*
X43868334Y-41750147D01*
X44180857Y-41621015D01*
X44420174Y-41382115D01*
X44549852Y-41069817D01*
X44550147Y-40731666D01*
X44550147Y-54523267D01*
X44150147Y-54602832D01*
X44150147Y-48231666D01*
X44021015Y-47919143D01*
X43782115Y-47679826D01*
X43710496Y-47650087D01*
X43780857Y-47621015D01*
X44020174Y-47382115D01*
X44149852Y-47069817D01*
X44150147Y-46731666D01*
X44021015Y-46419143D01*
X43782115Y-46179826D01*
X43469817Y-46050148D01*
X43350000Y-46050043D01*
X43131666Y-46049853D01*
X42949938Y-46124941D01*
X42769817Y-46050148D01*
X42431666Y-46049853D01*
X42119143Y-46178985D01*
X41879826Y-46417885D01*
X41850147Y-46489359D01*
X41850147Y-41931666D01*
X41721015Y-41619143D01*
X41482115Y-41379826D01*
X41169817Y-41250148D01*
X40831666Y-41249853D01*
X40519143Y-41378985D01*
X40279826Y-41617885D01*
X40150148Y-41930183D01*
X40149853Y-42268334D01*
X40278985Y-42580857D01*
X40517885Y-42820174D01*
X40830183Y-42949852D01*
X41168334Y-42950147D01*
X41480857Y-42821015D01*
X41720174Y-42582115D01*
X41849852Y-42269817D01*
X41850147Y-41931666D01*
X41850147Y-46489359D01*
X41750148Y-46730183D01*
X41749853Y-47068334D01*
X41878985Y-47380857D01*
X42117885Y-47620174D01*
X42189503Y-47649912D01*
X42119143Y-47678985D01*
X41879826Y-47917885D01*
X41750148Y-48230183D01*
X41749853Y-48568334D01*
X41878985Y-48880857D01*
X42117885Y-49120174D01*
X42209684Y-49158292D01*
X42049428Y-49224509D01*
X41725646Y-49547727D01*
X41550200Y-49970247D01*
X41550147Y-50031017D01*
X41550147Y-45631666D01*
X41421015Y-45319143D01*
X41182115Y-45079826D01*
X40869817Y-44950148D01*
X40531666Y-44949853D01*
X40219143Y-45078985D01*
X39979826Y-45317885D01*
X39850148Y-45630183D01*
X39849853Y-45968334D01*
X39978985Y-46280857D01*
X40217885Y-46520174D01*
X40530183Y-46649852D01*
X40868334Y-46650147D01*
X41180857Y-46521015D01*
X41420174Y-46282115D01*
X41549852Y-45969817D01*
X41550147Y-45631666D01*
X41550147Y-50031017D01*
X41549801Y-50427746D01*
X41724509Y-50850572D01*
X42047727Y-51174354D01*
X42470247Y-51349800D01*
X42927746Y-51350199D01*
X43350000Y-51175727D01*
X43350572Y-51175491D01*
X43674354Y-50852273D01*
X43849800Y-50429753D01*
X43850199Y-49972254D01*
X43675491Y-49549428D01*
X43376651Y-49250067D01*
X43468334Y-49250147D01*
X43780857Y-49121015D01*
X44020174Y-48882115D01*
X44149852Y-48569817D01*
X44150147Y-48231666D01*
X44150147Y-54602832D01*
X43769765Y-54678495D01*
X43571501Y-54760618D01*
X43571497Y-54760621D01*
X43350000Y-54908621D01*
X41050147Y-56445334D01*
X41050147Y-55131666D01*
X40921015Y-54819143D01*
X40682115Y-54579826D01*
X40369817Y-54450148D01*
X40031666Y-54449853D01*
X39719143Y-54578985D01*
X39479826Y-54817885D01*
X39350148Y-55130183D01*
X39349853Y-55468334D01*
X39478985Y-55780857D01*
X39717885Y-56020174D01*
X40030183Y-56149852D01*
X40368334Y-56150147D01*
X40680857Y-56021015D01*
X40920174Y-55782115D01*
X41049852Y-55469817D01*
X41050147Y-55131666D01*
X41050147Y-56445334D01*
X38650147Y-58048963D01*
X38650147Y-49031666D01*
X38521015Y-48719143D01*
X38350147Y-48547976D01*
X38350147Y-24331666D01*
X38221015Y-24019143D01*
X37982115Y-23779826D01*
X37669817Y-23650148D01*
X37331666Y-23649853D01*
X37019143Y-23778985D01*
X36779826Y-24017885D01*
X36650148Y-24330183D01*
X36649853Y-24668334D01*
X36778985Y-24980857D01*
X37017885Y-25220174D01*
X37330183Y-25349852D01*
X37668334Y-25350147D01*
X37980857Y-25221015D01*
X38220174Y-24982115D01*
X38349852Y-24669817D01*
X38350147Y-24331666D01*
X38350147Y-48547976D01*
X38282115Y-48479826D01*
X37969817Y-48350148D01*
X37750147Y-48349956D01*
X37750147Y-43431666D01*
X37621015Y-43119143D01*
X37382115Y-42879826D01*
X37069817Y-42750148D01*
X36731666Y-42749853D01*
X36419143Y-42878985D01*
X36179826Y-43117885D01*
X36050148Y-43430183D01*
X36049853Y-43768334D01*
X36178985Y-44080857D01*
X36417885Y-44320174D01*
X36730183Y-44449852D01*
X37068334Y-44450147D01*
X37380857Y-44321015D01*
X37620174Y-44082115D01*
X37749852Y-43769817D01*
X37750147Y-43431666D01*
X37750147Y-48349956D01*
X37631666Y-48349853D01*
X37319143Y-48478985D01*
X37079826Y-48717885D01*
X36950148Y-49030183D01*
X36949853Y-49368334D01*
X37078985Y-49680857D01*
X37317885Y-49920174D01*
X37630183Y-50049852D01*
X37968334Y-50050147D01*
X38280857Y-49921015D01*
X38520174Y-49682115D01*
X38649852Y-49369817D01*
X38650147Y-49031666D01*
X38650147Y-58048963D01*
X38380728Y-58228984D01*
X38228983Y-58380728D01*
X38228980Y-58380734D01*
X35150147Y-62988531D01*
X35150147Y-47131666D01*
X35021015Y-46819143D01*
X34782115Y-46579826D01*
X34469817Y-46450148D01*
X34131666Y-46449853D01*
X33819143Y-46578985D01*
X33579826Y-46817885D01*
X33450148Y-47130183D01*
X33449853Y-47468334D01*
X33578985Y-47780857D01*
X33817885Y-48020174D01*
X34130183Y-48149852D01*
X34468334Y-48150147D01*
X34780857Y-48021015D01*
X35020174Y-47782115D01*
X35149852Y-47469817D01*
X35150147Y-47131666D01*
X35150147Y-62988531D01*
X34760619Y-63571501D01*
X34760618Y-63571502D01*
X34712511Y-63687642D01*
X34678495Y-63769765D01*
X34678495Y-63769766D01*
X33667973Y-68850000D01*
X33500173Y-68850000D01*
X33500173Y-63651960D01*
X33450147Y-63530887D01*
X33450147Y-57931666D01*
X33321015Y-57619143D01*
X33082115Y-57379826D01*
X32769817Y-57250148D01*
X32450147Y-57249869D01*
X32450147Y-24831666D01*
X32321015Y-24519143D01*
X32082115Y-24279826D01*
X31769817Y-24150148D01*
X31431666Y-24149853D01*
X31119143Y-24278985D01*
X30879826Y-24517885D01*
X30750148Y-24830183D01*
X30749853Y-25168334D01*
X30878985Y-25480857D01*
X31117885Y-25720174D01*
X31430183Y-25849852D01*
X31768334Y-25850147D01*
X32080857Y-25721015D01*
X32320174Y-25482115D01*
X32449852Y-25169817D01*
X32450147Y-24831666D01*
X32450147Y-57249869D01*
X32431666Y-57249853D01*
X32250147Y-57324855D01*
X32250147Y-31431666D01*
X32121015Y-31119143D01*
X31882115Y-30879826D01*
X31569817Y-30750148D01*
X31231666Y-30749853D01*
X30919143Y-30878985D01*
X30679826Y-31117885D01*
X30550148Y-31430183D01*
X30549853Y-31768334D01*
X30678985Y-32080857D01*
X30917885Y-32320174D01*
X31230183Y-32449852D01*
X31568334Y-32450147D01*
X31880857Y-32321015D01*
X32120174Y-32082115D01*
X32249852Y-31769817D01*
X32250147Y-31431666D01*
X32250147Y-57324855D01*
X32119143Y-57378985D01*
X31879826Y-57617885D01*
X31750148Y-57930183D01*
X31749853Y-58268334D01*
X31878985Y-58580857D01*
X32117885Y-58820174D01*
X32430183Y-58949852D01*
X32768334Y-58950147D01*
X33080857Y-58821015D01*
X33320174Y-58582115D01*
X33449852Y-58269817D01*
X33450147Y-57931666D01*
X33450147Y-63530887D01*
X33348253Y-63284286D01*
X33067194Y-63002736D01*
X32699785Y-62850174D01*
X32407923Y-62849919D01*
X32407923Y-61985171D01*
X32390748Y-61428481D01*
X32210755Y-60993942D01*
X31962350Y-60929071D01*
X31820929Y-61070492D01*
X31820929Y-60787650D01*
X31756058Y-60539245D01*
X31235171Y-60342077D01*
X30678481Y-60359252D01*
X30243942Y-60539245D01*
X30179071Y-60787650D01*
X31000000Y-61608579D01*
X31820929Y-60787650D01*
X31820929Y-61070492D01*
X31141421Y-61750000D01*
X31962350Y-62570929D01*
X32210755Y-62506058D01*
X32407923Y-61985171D01*
X32407923Y-62849919D01*
X32301960Y-62849827D01*
X31934286Y-63001747D01*
X31820929Y-63114906D01*
X31820929Y-62712350D01*
X31000000Y-61891421D01*
X30858579Y-62032842D01*
X30858579Y-61750000D01*
X30287288Y-61178709D01*
X30210755Y-60993942D01*
X30064265Y-60955686D01*
X30037650Y-60929071D01*
X30000000Y-60938903D01*
X29962350Y-60929071D01*
X29935734Y-60955686D01*
X29820929Y-60985667D01*
X29820929Y-60787650D01*
X29756058Y-60539245D01*
X29235171Y-60342077D01*
X28678481Y-60359252D01*
X28243942Y-60539245D01*
X28179071Y-60787650D01*
X29000000Y-61608579D01*
X29820929Y-60787650D01*
X29820929Y-60985667D01*
X29789245Y-60993942D01*
X29723322Y-61168098D01*
X29141421Y-61750000D01*
X29712711Y-62321290D01*
X29789245Y-62506058D01*
X29935734Y-62544313D01*
X29962350Y-62570929D01*
X30000000Y-62561096D01*
X30037650Y-62570929D01*
X30064265Y-62544313D01*
X30210755Y-62506058D01*
X30276677Y-62331901D01*
X30858579Y-61750000D01*
X30858579Y-62032842D01*
X30179071Y-62712350D01*
X30243942Y-62960755D01*
X30764829Y-63157923D01*
X31321519Y-63140748D01*
X31756058Y-62960755D01*
X31820929Y-62712350D01*
X31820929Y-63114906D01*
X31652736Y-63282806D01*
X31500174Y-63650215D01*
X31499827Y-64048040D01*
X31651747Y-64415714D01*
X31932806Y-64697264D01*
X32300215Y-64849826D01*
X32698040Y-64850173D01*
X33065714Y-64698253D01*
X33347264Y-64417194D01*
X33499826Y-64049785D01*
X33500173Y-63651960D01*
X33500173Y-68850000D01*
X29820929Y-68850000D01*
X29820929Y-62712350D01*
X29000000Y-61891421D01*
X28858579Y-62032842D01*
X28858579Y-61750000D01*
X28037650Y-60929071D01*
X27909489Y-60962540D01*
X27680633Y-60733283D01*
X27650147Y-60720624D01*
X27650147Y-49031666D01*
X27521015Y-48719143D01*
X27350147Y-48547976D01*
X27350147Y-33331666D01*
X27350147Y-22531666D01*
X27350147Y-11531666D01*
X27221015Y-11219143D01*
X26982115Y-10979826D01*
X26669817Y-10850148D01*
X26331666Y-10849853D01*
X26019143Y-10978985D01*
X25779826Y-11217885D01*
X25650148Y-11530183D01*
X25649853Y-11868334D01*
X25778985Y-12180857D01*
X26017885Y-12420174D01*
X26330183Y-12549852D01*
X26668334Y-12550147D01*
X26980857Y-12421015D01*
X27220174Y-12182115D01*
X27349852Y-11869817D01*
X27350147Y-11531666D01*
X27350147Y-22531666D01*
X27221015Y-22219143D01*
X26982115Y-21979826D01*
X26669817Y-21850148D01*
X26331666Y-21849853D01*
X26019143Y-21978985D01*
X25779826Y-22217885D01*
X25650148Y-22530183D01*
X25649853Y-22868334D01*
X25778985Y-23180857D01*
X26017885Y-23420174D01*
X26330183Y-23549852D01*
X26668334Y-23550147D01*
X26980857Y-23421015D01*
X27220174Y-23182115D01*
X27349852Y-22869817D01*
X27350147Y-22531666D01*
X27350147Y-33331666D01*
X27221015Y-33019143D01*
X26982115Y-32779826D01*
X26669817Y-32650148D01*
X26331666Y-32649853D01*
X26019143Y-32778985D01*
X25779826Y-33017885D01*
X25650148Y-33330183D01*
X25649853Y-33668334D01*
X25778985Y-33980857D01*
X26017885Y-34220174D01*
X26330183Y-34349852D01*
X26668334Y-34350147D01*
X26980857Y-34221015D01*
X27220174Y-33982115D01*
X27349852Y-33669817D01*
X27350147Y-33331666D01*
X27350147Y-48547976D01*
X27282115Y-48479826D01*
X26969817Y-48350148D01*
X26750147Y-48349956D01*
X26750147Y-43431666D01*
X26621015Y-43119143D01*
X26382115Y-42879826D01*
X26069817Y-42750148D01*
X25731666Y-42749853D01*
X25419143Y-42878985D01*
X25179826Y-43117885D01*
X25050148Y-43430183D01*
X25049853Y-43768334D01*
X25178985Y-44080857D01*
X25417885Y-44320174D01*
X25730183Y-44449852D01*
X26068334Y-44450147D01*
X26380857Y-44321015D01*
X26620174Y-44082115D01*
X26749852Y-43769817D01*
X26750147Y-43431666D01*
X26750147Y-48349956D01*
X26631666Y-48349853D01*
X26319143Y-48478985D01*
X26079826Y-48717885D01*
X25950148Y-49030183D01*
X25949853Y-49368334D01*
X26078985Y-49680857D01*
X26317885Y-49920174D01*
X26630183Y-50049852D01*
X26968334Y-50050147D01*
X27280857Y-49921015D01*
X27520174Y-49682115D01*
X27649852Y-49369817D01*
X27650147Y-49031666D01*
X27650147Y-60720624D01*
X27239742Y-60550209D01*
X26762353Y-60549793D01*
X26321143Y-60732097D01*
X25999735Y-61052943D01*
X25680633Y-60733283D01*
X25239742Y-60550209D01*
X24762353Y-60549793D01*
X24321143Y-60732097D01*
X24150147Y-60902794D01*
X24150147Y-47031666D01*
X24021015Y-46719143D01*
X23782115Y-46479826D01*
X23650147Y-46425027D01*
X23650147Y-36931666D01*
X23650147Y-26131666D01*
X23550147Y-25889647D01*
X23550147Y-15131666D01*
X23421015Y-14819143D01*
X23182115Y-14579826D01*
X22869817Y-14450148D01*
X22531666Y-14449853D01*
X22219143Y-14578985D01*
X21979826Y-14817885D01*
X21850148Y-15130183D01*
X21849853Y-15468334D01*
X21978985Y-15780857D01*
X22217885Y-16020174D01*
X22530183Y-16149852D01*
X22868334Y-16150147D01*
X23180857Y-16021015D01*
X23420174Y-15782115D01*
X23549852Y-15469817D01*
X23550147Y-15131666D01*
X23550147Y-25889647D01*
X23521015Y-25819143D01*
X23282115Y-25579826D01*
X22969817Y-25450148D01*
X22631666Y-25449853D01*
X22319143Y-25578985D01*
X22079826Y-25817885D01*
X21950148Y-26130183D01*
X21949853Y-26468334D01*
X22078985Y-26780857D01*
X22317885Y-27020174D01*
X22630183Y-27149852D01*
X22968334Y-27150147D01*
X23280857Y-27021015D01*
X23520174Y-26782115D01*
X23649852Y-26469817D01*
X23650147Y-26131666D01*
X23650147Y-36931666D01*
X23521015Y-36619143D01*
X23282115Y-36379826D01*
X22969817Y-36250148D01*
X22631666Y-36249853D01*
X22319143Y-36378985D01*
X22079826Y-36617885D01*
X21950148Y-36930183D01*
X21949853Y-37268334D01*
X22078985Y-37580857D01*
X22317885Y-37820174D01*
X22630183Y-37949852D01*
X22968334Y-37950147D01*
X23280857Y-37821015D01*
X23520174Y-37582115D01*
X23649852Y-37269817D01*
X23650147Y-36931666D01*
X23650147Y-46425027D01*
X23469817Y-46350148D01*
X23131666Y-46349853D01*
X22819143Y-46478985D01*
X22579826Y-46717885D01*
X22450148Y-47030183D01*
X22449853Y-47368334D01*
X22578985Y-47680857D01*
X22817885Y-47920174D01*
X23130183Y-48049852D01*
X23468334Y-48050147D01*
X23780857Y-47921015D01*
X24020174Y-47682115D01*
X24149852Y-47369817D01*
X24150147Y-47031666D01*
X24150147Y-60902794D01*
X23983283Y-61069367D01*
X23800209Y-61510258D01*
X23799793Y-61987647D01*
X23982097Y-62428857D01*
X24319367Y-62766717D01*
X24760258Y-62949791D01*
X25237647Y-62950207D01*
X25678857Y-62767903D01*
X26000264Y-62447056D01*
X26319367Y-62766717D01*
X26760258Y-62949791D01*
X27237647Y-62950207D01*
X27678857Y-62767903D01*
X27909658Y-62537504D01*
X28037650Y-62570929D01*
X28858579Y-61750000D01*
X28858579Y-62032842D01*
X28179071Y-62712350D01*
X28243942Y-62960755D01*
X28764829Y-63157923D01*
X29321519Y-63140748D01*
X29756058Y-62960755D01*
X29820929Y-62712350D01*
X29820929Y-68850000D01*
X24500173Y-68850000D01*
X24500173Y-63651960D01*
X24348253Y-63284286D01*
X24067194Y-63002736D01*
X23699785Y-62850174D01*
X23301960Y-62849827D01*
X22934286Y-63001747D01*
X22652736Y-63282806D01*
X22500174Y-63650215D01*
X22500172Y-63651958D01*
X22450147Y-63530888D01*
X22450147Y-57931666D01*
X22321015Y-57619143D01*
X22082115Y-57379826D01*
X21769817Y-57250148D01*
X21431666Y-57249853D01*
X21119143Y-57378985D01*
X20879826Y-57617885D01*
X20750148Y-57930183D01*
X20749853Y-58268334D01*
X20878985Y-58580857D01*
X21117885Y-58820174D01*
X21430183Y-58949852D01*
X21768334Y-58950147D01*
X22080857Y-58821015D01*
X22320174Y-58582115D01*
X22449852Y-58269817D01*
X22450147Y-57931666D01*
X22450147Y-63530888D01*
X22348253Y-63284286D01*
X22067194Y-63002736D01*
X21699785Y-62850174D01*
X21407923Y-62849919D01*
X21407923Y-61985171D01*
X21390748Y-61428481D01*
X21210755Y-60993942D01*
X20962350Y-60929071D01*
X20820929Y-61070492D01*
X20820929Y-60787650D01*
X20756058Y-60539245D01*
X20235171Y-60342077D01*
X19678481Y-60359252D01*
X19243942Y-60539245D01*
X19179071Y-60787650D01*
X20000000Y-61608579D01*
X20820929Y-60787650D01*
X20820929Y-61070492D01*
X20141421Y-61750000D01*
X20962350Y-62570929D01*
X21210755Y-62506058D01*
X21407923Y-61985171D01*
X21407923Y-62849919D01*
X21301960Y-62849827D01*
X20934286Y-63001747D01*
X20820929Y-63114906D01*
X20820929Y-62712350D01*
X20000000Y-61891421D01*
X19858579Y-62032842D01*
X19858579Y-61750000D01*
X19287288Y-61178709D01*
X19210755Y-60993942D01*
X19064265Y-60955686D01*
X19037650Y-60929071D01*
X19000000Y-60938903D01*
X18962350Y-60929071D01*
X18935734Y-60955686D01*
X18850147Y-60978037D01*
X18850147Y-24331666D01*
X18850147Y-13231666D01*
X18721015Y-12919143D01*
X18482115Y-12679826D01*
X18169817Y-12550148D01*
X17831666Y-12549853D01*
X17519143Y-12678985D01*
X17279826Y-12917885D01*
X17150148Y-13230183D01*
X17149853Y-13568334D01*
X17278985Y-13880857D01*
X17517885Y-14120174D01*
X17830183Y-14249852D01*
X18168334Y-14250147D01*
X18480857Y-14121015D01*
X18720174Y-13882115D01*
X18849852Y-13569817D01*
X18850147Y-13231666D01*
X18850147Y-24331666D01*
X18721015Y-24019143D01*
X18482115Y-23779826D01*
X18169817Y-23650148D01*
X17831666Y-23649853D01*
X17519143Y-23778985D01*
X17279826Y-24017885D01*
X17150148Y-24330183D01*
X17150147Y-24331329D01*
X17150147Y-19831666D01*
X17050147Y-19589647D01*
X17050147Y-8831666D01*
X16921015Y-8519143D01*
X16682115Y-8279826D01*
X16369817Y-8150148D01*
X16031666Y-8149853D01*
X15719143Y-8278985D01*
X15479826Y-8517885D01*
X15350148Y-8830183D01*
X15349853Y-9168334D01*
X15478985Y-9480857D01*
X15717885Y-9720174D01*
X16030183Y-9849852D01*
X16368334Y-9850147D01*
X16680857Y-9721015D01*
X16920174Y-9482115D01*
X17049852Y-9169817D01*
X17050147Y-8831666D01*
X17050147Y-19589647D01*
X17021015Y-19519143D01*
X16782115Y-19279826D01*
X16469817Y-19150148D01*
X16131666Y-19149853D01*
X15819143Y-19278985D01*
X15579826Y-19517885D01*
X15450148Y-19830183D01*
X15449853Y-20168334D01*
X15578985Y-20480857D01*
X15817885Y-20720174D01*
X16130183Y-20849852D01*
X16468334Y-20850147D01*
X16780857Y-20721015D01*
X17020174Y-20482115D01*
X17149852Y-20169817D01*
X17150147Y-19831666D01*
X17150147Y-24331329D01*
X17149853Y-24668334D01*
X17278985Y-24980857D01*
X17517885Y-25220174D01*
X17830183Y-25349852D01*
X18168334Y-25350147D01*
X18480857Y-25221015D01*
X18720174Y-24982115D01*
X18849852Y-24669817D01*
X18850147Y-24331666D01*
X18850147Y-60978037D01*
X18820929Y-60985667D01*
X18820929Y-60787650D01*
X18756058Y-60539245D01*
X18750147Y-60537007D01*
X18750147Y-35131666D01*
X18621015Y-34819143D01*
X18382115Y-34579826D01*
X18069817Y-34450148D01*
X17731666Y-34449853D01*
X17419143Y-34578985D01*
X17179826Y-34817885D01*
X17150147Y-34889359D01*
X17150147Y-30831666D01*
X17021015Y-30519143D01*
X16782115Y-30279826D01*
X16469817Y-30150148D01*
X16131666Y-30149853D01*
X15819143Y-30278985D01*
X15579826Y-30517885D01*
X15450148Y-30830183D01*
X15449853Y-31168334D01*
X15578985Y-31480857D01*
X15817885Y-31720174D01*
X16130183Y-31849852D01*
X16468334Y-31850147D01*
X16780857Y-31721015D01*
X17020174Y-31482115D01*
X17149852Y-31169817D01*
X17150147Y-30831666D01*
X17150147Y-34889359D01*
X17050148Y-35130183D01*
X17049853Y-35468334D01*
X17178985Y-35780857D01*
X17417885Y-36020174D01*
X17730183Y-36149852D01*
X18068334Y-36150147D01*
X18380857Y-36021015D01*
X18620174Y-35782115D01*
X18749852Y-35469817D01*
X18750147Y-35131666D01*
X18750147Y-60537007D01*
X18235171Y-60342077D01*
X17678481Y-60359252D01*
X17243942Y-60539245D01*
X17179071Y-60787650D01*
X18000000Y-61608579D01*
X18820929Y-60787650D01*
X18820929Y-60985667D01*
X18789245Y-60993942D01*
X18723322Y-61168098D01*
X18141421Y-61750000D01*
X18712711Y-62321290D01*
X18789245Y-62506058D01*
X18935734Y-62544313D01*
X18962350Y-62570929D01*
X19000000Y-62561096D01*
X19037650Y-62570929D01*
X19064265Y-62544313D01*
X19210755Y-62506058D01*
X19276677Y-62331901D01*
X19858579Y-61750000D01*
X19858579Y-62032842D01*
X19179071Y-62712350D01*
X19243942Y-62960755D01*
X19764829Y-63157923D01*
X20321519Y-63140748D01*
X20756058Y-62960755D01*
X20820929Y-62712350D01*
X20820929Y-63114906D01*
X20652736Y-63282806D01*
X20500174Y-63650215D01*
X20499827Y-64048040D01*
X20651747Y-64415714D01*
X20932806Y-64697264D01*
X21300215Y-64849826D01*
X21698040Y-64850173D01*
X22065714Y-64698253D01*
X22347264Y-64417194D01*
X22499826Y-64049785D01*
X22499827Y-64048041D01*
X22651747Y-64415714D01*
X22932806Y-64697264D01*
X23300215Y-64849826D01*
X23698040Y-64850173D01*
X24065714Y-64698253D01*
X24347264Y-64417194D01*
X24499826Y-64049785D01*
X24500173Y-63651960D01*
X24500173Y-68850000D01*
X18820929Y-68850000D01*
X18820929Y-62712350D01*
X18000000Y-61891421D01*
X17858579Y-62032842D01*
X17858579Y-61750000D01*
X17037650Y-60929071D01*
X16909489Y-60962540D01*
X16680633Y-60733283D01*
X16650147Y-60720624D01*
X16650147Y-49131666D01*
X16521015Y-48819143D01*
X16282115Y-48579826D01*
X15969817Y-48450148D01*
X15750147Y-48449956D01*
X15750147Y-43431666D01*
X15621015Y-43119143D01*
X15382115Y-42879826D01*
X15069817Y-42750148D01*
X14731666Y-42749853D01*
X14419143Y-42878985D01*
X14179826Y-43117885D01*
X14050148Y-43430183D01*
X14049853Y-43768334D01*
X14178985Y-44080857D01*
X14417885Y-44320174D01*
X14730183Y-44449852D01*
X15068334Y-44450147D01*
X15380857Y-44321015D01*
X15620174Y-44082115D01*
X15749852Y-43769817D01*
X15750147Y-43431666D01*
X15750147Y-48449956D01*
X15631666Y-48449853D01*
X15319143Y-48578985D01*
X15079826Y-48817885D01*
X14950148Y-49130183D01*
X14949853Y-49468334D01*
X15078985Y-49780857D01*
X15317885Y-50020174D01*
X15630183Y-50149852D01*
X15968334Y-50150147D01*
X16280857Y-50021015D01*
X16520174Y-49782115D01*
X16649852Y-49469817D01*
X16650147Y-49131666D01*
X16650147Y-60720624D01*
X16239742Y-60550209D01*
X15762353Y-60549793D01*
X15321143Y-60732097D01*
X14999735Y-61052943D01*
X14680633Y-60733283D01*
X14239742Y-60550209D01*
X13762353Y-60549793D01*
X13321143Y-60732097D01*
X13050147Y-61002619D01*
X13050147Y-46931666D01*
X12921015Y-46619143D01*
X12682115Y-46379826D01*
X12369817Y-46250148D01*
X12031666Y-46249853D01*
X11719143Y-46378985D01*
X11479826Y-46617885D01*
X11350148Y-46930183D01*
X11349853Y-47268334D01*
X11478985Y-47580857D01*
X11717885Y-47820174D01*
X12030183Y-47949852D01*
X12368334Y-47950147D01*
X12680857Y-47821015D01*
X12920174Y-47582115D01*
X13049852Y-47269817D01*
X13050147Y-46931666D01*
X13050147Y-61002619D01*
X12983283Y-61069367D01*
X12800209Y-61510258D01*
X12799793Y-61987647D01*
X12982097Y-62428857D01*
X13319367Y-62766717D01*
X13760258Y-62949791D01*
X14237647Y-62950207D01*
X14678857Y-62767903D01*
X15000264Y-62447056D01*
X15319367Y-62766717D01*
X15760258Y-62949791D01*
X16237647Y-62950207D01*
X16678857Y-62767903D01*
X16909658Y-62537504D01*
X17037650Y-62570929D01*
X17858579Y-61750000D01*
X17858579Y-62032842D01*
X17179071Y-62712350D01*
X17243942Y-62960755D01*
X17764829Y-63157923D01*
X18321519Y-63140748D01*
X18756058Y-62960755D01*
X18820929Y-62712350D01*
X18820929Y-68850000D01*
X13500173Y-68850000D01*
X13500173Y-63651960D01*
X13348253Y-63284286D01*
X13067194Y-63002736D01*
X12699785Y-62850174D01*
X12301960Y-62849827D01*
X11934286Y-63001747D01*
X11652736Y-63282806D01*
X11500174Y-63650215D01*
X11500172Y-63651958D01*
X11450147Y-63530888D01*
X11450147Y-57931666D01*
X11321015Y-57619143D01*
X11082115Y-57379826D01*
X10769817Y-57250148D01*
X10431666Y-57249853D01*
X10119143Y-57378985D01*
X9879826Y-57617885D01*
X9750148Y-57930183D01*
X9749853Y-58268334D01*
X9878985Y-58580857D01*
X10117885Y-58820174D01*
X10430183Y-58949852D01*
X10768334Y-58950147D01*
X11080857Y-58821015D01*
X11320174Y-58582115D01*
X11449852Y-58269817D01*
X11450147Y-57931666D01*
X11450147Y-63530888D01*
X11348253Y-63284286D01*
X11067194Y-63002736D01*
X10699785Y-62850174D01*
X10407923Y-62849919D01*
X10407923Y-61985171D01*
X10390748Y-61428481D01*
X10210755Y-60993942D01*
X9962350Y-60929071D01*
X9820929Y-61070492D01*
X9820929Y-60787650D01*
X9756058Y-60539245D01*
X9400207Y-60404547D01*
X9400207Y-36762353D01*
X9217903Y-36321143D01*
X8897056Y-35999735D01*
X9216717Y-35680633D01*
X9399791Y-35239742D01*
X9400207Y-34762353D01*
X9400207Y-28762353D01*
X9217903Y-28321143D01*
X8897056Y-27999735D01*
X9216717Y-27680633D01*
X9399791Y-27239742D01*
X9400207Y-26762353D01*
X9400207Y-20762353D01*
X9217903Y-20321143D01*
X8897056Y-19999735D01*
X9216717Y-19680633D01*
X9399791Y-19239742D01*
X9400207Y-18762353D01*
X9217903Y-18321143D01*
X8880633Y-17983283D01*
X8439742Y-17800209D01*
X7962353Y-17799793D01*
X7521143Y-17982097D01*
X7183283Y-18319367D01*
X7100173Y-18519518D01*
X7100173Y-17301960D01*
X6948253Y-16934286D01*
X6667194Y-16652736D01*
X6299785Y-16500174D01*
X5901960Y-16499827D01*
X5534286Y-16651747D01*
X5252736Y-16932806D01*
X5100174Y-17300215D01*
X5099827Y-17698040D01*
X5251747Y-18065714D01*
X5532806Y-18347264D01*
X5900215Y-18499826D01*
X6298040Y-18500173D01*
X6665714Y-18348253D01*
X6947264Y-18067194D01*
X7099826Y-17699785D01*
X7100173Y-17301960D01*
X7100173Y-18519518D01*
X7000209Y-18760258D01*
X6999793Y-19237647D01*
X7182097Y-19678857D01*
X7502943Y-20000264D01*
X7183283Y-20319367D01*
X7000209Y-20760258D01*
X6999793Y-21237647D01*
X7182097Y-21678857D01*
X7519367Y-22016717D01*
X7960258Y-22199791D01*
X8437647Y-22200207D01*
X8878857Y-22017903D01*
X9216717Y-21680633D01*
X9399791Y-21239742D01*
X9400207Y-20762353D01*
X9400207Y-26762353D01*
X9217903Y-26321143D01*
X8880633Y-25983283D01*
X8439742Y-25800209D01*
X7962353Y-25799793D01*
X7521143Y-25982097D01*
X7183283Y-26319367D01*
X7100173Y-26519518D01*
X7100173Y-25301960D01*
X7100173Y-22301960D01*
X6948253Y-21934286D01*
X6667194Y-21652736D01*
X6299785Y-21500174D01*
X5901960Y-21499827D01*
X5534286Y-21651747D01*
X5252736Y-21932806D01*
X5100174Y-22300215D01*
X5099827Y-22698040D01*
X5251747Y-23065714D01*
X5532806Y-23347264D01*
X5900215Y-23499826D01*
X6298040Y-23500173D01*
X6665714Y-23348253D01*
X6947264Y-23067194D01*
X7099826Y-22699785D01*
X7100173Y-22301960D01*
X7100173Y-25301960D01*
X6948253Y-24934286D01*
X6667194Y-24652736D01*
X6299785Y-24500174D01*
X5901960Y-24499827D01*
X5534286Y-24651747D01*
X5252736Y-24932806D01*
X5100174Y-25300215D01*
X5099827Y-25698040D01*
X5251747Y-26065714D01*
X5532806Y-26347264D01*
X5900215Y-26499826D01*
X6298040Y-26500173D01*
X6665714Y-26348253D01*
X6947264Y-26067194D01*
X7099826Y-25699785D01*
X7100173Y-25301960D01*
X7100173Y-26519518D01*
X7000209Y-26760258D01*
X6999793Y-27237647D01*
X7182097Y-27678857D01*
X7502943Y-28000264D01*
X7183283Y-28319367D01*
X7000209Y-28760258D01*
X6999793Y-29237647D01*
X7182097Y-29678857D01*
X7519367Y-30016717D01*
X7960258Y-30199791D01*
X8437647Y-30200207D01*
X8878857Y-30017903D01*
X9216717Y-29680633D01*
X9399791Y-29239742D01*
X9400207Y-28762353D01*
X9400207Y-34762353D01*
X9217903Y-34321143D01*
X8880633Y-33983283D01*
X8439742Y-33800209D01*
X7962353Y-33799793D01*
X7521143Y-33982097D01*
X7183283Y-34319367D01*
X7100173Y-34519518D01*
X7100173Y-33301960D01*
X7100173Y-30301960D01*
X6948253Y-29934286D01*
X6667194Y-29652736D01*
X6299785Y-29500174D01*
X5901960Y-29499827D01*
X5534286Y-29651747D01*
X5252736Y-29932806D01*
X5100174Y-30300215D01*
X5099827Y-30698040D01*
X5251747Y-31065714D01*
X5532806Y-31347264D01*
X5900215Y-31499826D01*
X6298040Y-31500173D01*
X6665714Y-31348253D01*
X6947264Y-31067194D01*
X7099826Y-30699785D01*
X7100173Y-30301960D01*
X7100173Y-33301960D01*
X6948253Y-32934286D01*
X6667194Y-32652736D01*
X6299785Y-32500174D01*
X5901960Y-32499827D01*
X5534286Y-32651747D01*
X5252736Y-32932806D01*
X5100174Y-33300215D01*
X5099827Y-33698040D01*
X5251747Y-34065714D01*
X5532806Y-34347264D01*
X5900215Y-34499826D01*
X6298040Y-34500173D01*
X6665714Y-34348253D01*
X6947264Y-34067194D01*
X7099826Y-33699785D01*
X7100173Y-33301960D01*
X7100173Y-34519518D01*
X7000209Y-34760258D01*
X6999793Y-35237647D01*
X7182097Y-35678857D01*
X7502943Y-36000264D01*
X7183283Y-36319367D01*
X7000209Y-36760258D01*
X6999793Y-37237647D01*
X7182097Y-37678857D01*
X7519367Y-38016717D01*
X7960258Y-38199791D01*
X8437647Y-38200207D01*
X8878857Y-38017903D01*
X9216717Y-37680633D01*
X9399791Y-37239742D01*
X9400207Y-36762353D01*
X9400207Y-60404547D01*
X9235171Y-60342077D01*
X8678481Y-60359252D01*
X8243942Y-60539245D01*
X8179071Y-60787650D01*
X9000000Y-61608579D01*
X9820929Y-60787650D01*
X9820929Y-61070492D01*
X9141421Y-61750000D01*
X9962350Y-62570929D01*
X10210755Y-62506058D01*
X10407923Y-61985171D01*
X10407923Y-62849919D01*
X10301960Y-62849827D01*
X9934286Y-63001747D01*
X9820929Y-63114906D01*
X9820929Y-62712350D01*
X9000000Y-61891421D01*
X8858579Y-62032842D01*
X8858579Y-61750000D01*
X8287288Y-61178709D01*
X8210755Y-60993942D01*
X8064265Y-60955686D01*
X8037650Y-60929071D01*
X8000000Y-60938903D01*
X7962350Y-60929071D01*
X7935734Y-60955686D01*
X7820929Y-60985667D01*
X7820929Y-60787650D01*
X7756058Y-60539245D01*
X7235171Y-60342077D01*
X6678481Y-60359252D01*
X6243942Y-60539245D01*
X6179071Y-60787650D01*
X7000000Y-61608579D01*
X7820929Y-60787650D01*
X7820929Y-60985667D01*
X7789245Y-60993942D01*
X7723322Y-61168098D01*
X7141421Y-61750000D01*
X7712711Y-62321290D01*
X7789245Y-62506058D01*
X7935734Y-62544313D01*
X7962350Y-62570929D01*
X8000000Y-62561096D01*
X8037650Y-62570929D01*
X8064265Y-62544313D01*
X8210755Y-62506058D01*
X8276677Y-62331901D01*
X8858579Y-61750000D01*
X8858579Y-62032842D01*
X8179071Y-62712350D01*
X8243942Y-62960755D01*
X8764829Y-63157923D01*
X9321519Y-63140748D01*
X9756058Y-62960755D01*
X9820929Y-62712350D01*
X9820929Y-63114906D01*
X9652736Y-63282806D01*
X9500174Y-63650215D01*
X9499827Y-64048040D01*
X9651747Y-64415714D01*
X9932806Y-64697264D01*
X10300215Y-64849826D01*
X10698040Y-64850173D01*
X11065714Y-64698253D01*
X11347264Y-64417194D01*
X11499826Y-64049785D01*
X11499827Y-64048041D01*
X11651747Y-64415714D01*
X11932806Y-64697264D01*
X12300215Y-64849826D01*
X12698040Y-64850173D01*
X13065714Y-64698253D01*
X13347264Y-64417194D01*
X13499826Y-64049785D01*
X13500173Y-63651960D01*
X13500173Y-68850000D01*
X7820929Y-68850000D01*
X7820929Y-62712350D01*
X7000000Y-61891421D01*
X6858579Y-62032842D01*
X6858579Y-61750000D01*
X6037650Y-60929071D01*
X5909489Y-60962540D01*
X5680633Y-60733283D01*
X5239742Y-60550209D01*
X4762353Y-60549793D01*
X4321143Y-60732097D01*
X3999735Y-61052943D01*
X3680633Y-60733283D01*
X3239742Y-60550209D01*
X2762353Y-60549793D01*
X2321143Y-60732097D01*
X1983283Y-61069367D01*
X1800209Y-61510258D01*
X1799793Y-61987647D01*
X1982097Y-62428857D01*
X2319367Y-62766717D01*
X2760258Y-62949791D01*
X3237647Y-62950207D01*
X3678857Y-62767903D01*
X4000264Y-62447056D01*
X4319367Y-62766717D01*
X4760258Y-62949791D01*
X5237647Y-62950207D01*
X5678857Y-62767903D01*
X5909658Y-62537504D01*
X6037650Y-62570929D01*
X6858579Y-61750000D01*
X6858579Y-62032842D01*
X6179071Y-62712350D01*
X6243942Y-62960755D01*
X6764829Y-63157923D01*
X7321519Y-63140748D01*
X7756058Y-62960755D01*
X7820929Y-62712350D01*
X7820929Y-68850000D01*
X3014774Y-68850000D01*
X2293160Y-68706462D01*
X1693930Y-68306070D01*
X1293538Y-67706840D01*
X1150000Y-66985226D01*
X1150000Y-64787451D01*
X1300215Y-64849826D01*
X1698040Y-64850173D01*
X2065714Y-64698253D01*
X2347264Y-64417194D01*
X2499826Y-64049785D01*
X2500173Y-63651960D01*
X2348253Y-63284286D01*
X2067194Y-63002736D01*
X1699785Y-62850174D01*
X1301960Y-62849827D01*
X1150000Y-62912615D01*
X1150000Y-49852756D01*
X1273527Y-50151715D01*
X2243181Y-51123062D01*
X3510742Y-51649399D01*
X4883237Y-51650597D01*
X6151715Y-51126473D01*
X7123062Y-50156819D01*
X7649399Y-48889258D01*
X7650597Y-47516763D01*
X7126473Y-46248285D01*
X7100173Y-46221939D01*
X7100173Y-38301960D01*
X6948253Y-37934286D01*
X6667194Y-37652736D01*
X6299785Y-37500174D01*
X5901960Y-37499827D01*
X5534286Y-37651747D01*
X5252736Y-37932806D01*
X5100174Y-38300215D01*
X5099827Y-38698040D01*
X5251747Y-39065714D01*
X5532806Y-39347264D01*
X5900215Y-39499826D01*
X6298040Y-39500173D01*
X6665714Y-39348253D01*
X6947264Y-39067194D01*
X7099826Y-38699785D01*
X7100173Y-38301960D01*
X7100173Y-46221939D01*
X6156819Y-45276938D01*
X4889258Y-44750601D01*
X3516763Y-44749403D01*
X2248285Y-45273527D01*
X1276938Y-46243181D01*
X1150000Y-46548881D01*
X1150000Y-13941859D01*
X4419905Y-11943838D01*
X4350601Y-12110742D01*
X4349403Y-13483237D01*
X4873527Y-14751715D01*
X5843181Y-15723062D01*
X7110742Y-16249399D01*
X8483237Y-16250597D01*
X9751715Y-15726473D01*
X10723062Y-14756819D01*
X11249399Y-13489258D01*
X11250597Y-12116763D01*
X10726473Y-10848285D01*
X9756819Y-9876938D01*
X8593253Y-9393783D01*
X22084798Y-1150000D01*
X25431280Y-1150000D01*
X24648285Y-1473527D01*
X23676938Y-2443181D01*
X23150601Y-3710742D01*
X23149403Y-5083237D01*
X23673527Y-6351715D01*
X24643181Y-7323062D01*
X25910742Y-7849399D01*
X27283237Y-7850597D01*
X28551715Y-7326473D01*
X29523062Y-6356819D01*
X30049399Y-5089258D01*
X30050597Y-3716763D01*
X29526473Y-2448285D01*
X28556819Y-1476938D01*
X27769464Y-1150000D01*
X74547243Y-1150000D01*
X74248285Y-1273527D01*
X73276938Y-2243181D01*
X72750601Y-3510742D01*
X72749403Y-4883237D01*
X73273527Y-6151715D01*
X74243181Y-7123062D01*
X75510742Y-7649399D01*
X76883237Y-7650597D01*
X78151715Y-7126473D01*
X79123062Y-6156819D01*
X79649399Y-4889258D01*
X79650597Y-3516763D01*
X79126473Y-2248285D01*
X78347405Y-1467857D01*
X95359509Y-11862819D01*
X95089258Y-11750601D01*
X93716763Y-11749403D01*
X92448285Y-12273527D01*
X91476938Y-13243181D01*
X90950601Y-14510742D01*
X90949403Y-15883237D01*
X91473527Y-17151715D01*
X92443181Y-18123062D01*
X93710742Y-18649399D01*
X95083237Y-18650597D01*
X96351715Y-18126473D01*
X97323062Y-17156819D01*
X97849399Y-15889258D01*
X97850597Y-14516763D01*
X97326473Y-13248285D01*
X96856599Y-12777590D01*
X98850000Y-13995625D01*
X98850000Y-64715318D01*
X98850000Y-64715318D01*
G37*
X98850000Y-64715318D02*
X98326473Y-63448285D01*
X97356819Y-62476938D01*
X96089258Y-61950601D01*
X94900173Y-61949563D01*
X94900173Y-49301960D01*
X94900173Y-44301960D01*
X94900173Y-41301960D01*
X94900173Y-36301960D01*
X94900173Y-33301960D01*
X94900173Y-28301960D01*
X94850173Y-28180950D01*
X94850173Y-25301960D01*
X94850173Y-20301960D01*
X94698253Y-19934286D01*
X94417194Y-19652736D01*
X94049785Y-19500174D01*
X93651960Y-19499827D01*
X93284286Y-19651747D01*
X93002736Y-19932806D01*
X92850174Y-20300215D01*
X92849827Y-20698040D01*
X93001747Y-21065714D01*
X93282806Y-21347264D01*
X93650215Y-21499826D01*
X94048040Y-21500173D01*
X94415714Y-21348253D01*
X94697264Y-21067194D01*
X94849826Y-20699785D01*
X94850173Y-20301960D01*
X94850173Y-25301960D01*
X94698253Y-24934286D01*
X94417194Y-24652736D01*
X94049785Y-24500174D01*
X93651960Y-24499827D01*
X93284286Y-24651747D01*
X93002736Y-24932806D01*
X92950207Y-25059309D01*
X92950207Y-23762353D01*
X92767903Y-23321143D01*
X92447056Y-22999735D01*
X92766717Y-22680633D01*
X92949791Y-22239742D01*
X92950207Y-21762353D01*
X92767903Y-21321143D01*
X92430633Y-20983283D01*
X91989742Y-20800209D01*
X91512353Y-20799793D01*
X91071143Y-20982097D01*
X90733283Y-21319367D01*
X90550209Y-21760258D01*
X90549793Y-22237647D01*
X90732097Y-22678857D01*
X91052943Y-23000264D01*
X90733283Y-23319367D01*
X90550209Y-23760258D01*
X90549793Y-24237647D01*
X90732097Y-24678857D01*
X91069367Y-25016717D01*
X91510258Y-25199791D01*
X91987647Y-25200207D01*
X92428857Y-25017903D01*
X92766717Y-24680633D01*
X92949791Y-24239742D01*
X92950207Y-23762353D01*
X92950207Y-25059309D01*
X92850174Y-25300215D01*
X92849827Y-25698040D01*
X93001747Y-26065714D01*
X93282806Y-26347264D01*
X93650215Y-26499826D01*
X94048040Y-26500173D01*
X94415714Y-26348253D01*
X94697264Y-26067194D01*
X94849826Y-25699785D01*
X94850173Y-25301960D01*
X94850173Y-28180950D01*
X94748253Y-27934286D01*
X94467194Y-27652736D01*
X94099785Y-27500174D01*
X93701960Y-27499827D01*
X93334286Y-27651747D01*
X93052736Y-27932806D01*
X92900174Y-28300215D01*
X92899827Y-28698040D01*
X93051747Y-29065714D01*
X93332806Y-29347264D01*
X93700215Y-29499826D01*
X94098040Y-29500173D01*
X94465714Y-29348253D01*
X94747264Y-29067194D01*
X94899826Y-28699785D01*
X94900173Y-28301960D01*
X94900173Y-33301960D01*
X94748253Y-32934286D01*
X94467194Y-32652736D01*
X94099785Y-32500174D01*
X93701960Y-32499827D01*
X93334286Y-32651747D01*
X93207923Y-32777889D01*
X93207923Y-30235171D01*
X93190748Y-29678481D01*
X93010755Y-29243942D01*
X92762350Y-29179071D01*
X92620929Y-29320492D01*
X92620929Y-29037650D01*
X92556058Y-28789245D01*
X92035171Y-28592077D01*
X91478481Y-28609252D01*
X91043942Y-28789245D01*
X90979071Y-29037650D01*
X91800000Y-29858579D01*
X92620929Y-29037650D01*
X92620929Y-29320492D01*
X91941421Y-30000000D01*
X92762350Y-30820929D01*
X93010755Y-30756058D01*
X93207923Y-30235171D01*
X93207923Y-32777889D01*
X93052736Y-32932806D01*
X93000207Y-33059309D01*
X93000207Y-31762353D01*
X92817903Y-31321143D01*
X92587504Y-31090341D01*
X92620929Y-30962350D01*
X91800000Y-30141421D01*
X91658579Y-30282842D01*
X91658579Y-30000000D01*
X90837650Y-29179071D01*
X90589245Y-29243942D01*
X90392077Y-29764829D01*
X90409252Y-30321519D01*
X90589245Y-30756058D01*
X90837650Y-30820929D01*
X91658579Y-30000000D01*
X91658579Y-30282842D01*
X90979071Y-30962350D01*
X91012540Y-31090510D01*
X90783283Y-31319367D01*
X90600209Y-31760258D01*
X90599793Y-32237647D01*
X90782097Y-32678857D01*
X91119367Y-33016717D01*
X91560258Y-33199791D01*
X92037647Y-33200207D01*
X92478857Y-33017903D01*
X92816717Y-32680633D01*
X92999791Y-32239742D01*
X93000207Y-31762353D01*
X93000207Y-33059309D01*
X92900174Y-33300215D01*
X92899827Y-33698040D01*
X93051747Y-34065714D01*
X93332806Y-34347264D01*
X93700215Y-34499826D01*
X94098040Y-34500173D01*
X94465714Y-34348253D01*
X94747264Y-34067194D01*
X94899826Y-33699785D01*
X94900173Y-33301960D01*
X94900173Y-36301960D01*
X94748253Y-35934286D01*
X94467194Y-35652736D01*
X94099785Y-35500174D01*
X93701960Y-35499827D01*
X93334286Y-35651747D01*
X93052736Y-35932806D01*
X92900174Y-36300215D01*
X92899827Y-36698040D01*
X93051747Y-37065714D01*
X93332806Y-37347264D01*
X93700215Y-37499826D01*
X94098040Y-37500173D01*
X94465714Y-37348253D01*
X94747264Y-37067194D01*
X94899826Y-36699785D01*
X94900173Y-36301960D01*
X94900173Y-41301960D01*
X94748253Y-40934286D01*
X94467194Y-40652736D01*
X94099785Y-40500174D01*
X93701960Y-40499827D01*
X93334286Y-40651747D01*
X93052736Y-40932806D01*
X93000207Y-41059309D01*
X93000207Y-39762353D01*
X92817903Y-39321143D01*
X92497056Y-38999735D01*
X92816717Y-38680633D01*
X92999791Y-38239742D01*
X93000207Y-37762353D01*
X92817903Y-37321143D01*
X92480633Y-36983283D01*
X92039742Y-36800209D01*
X91562353Y-36799793D01*
X91121143Y-36982097D01*
X90783283Y-37319367D01*
X90600209Y-37760258D01*
X90599793Y-38237647D01*
X90782097Y-38678857D01*
X91102943Y-39000264D01*
X90783283Y-39319367D01*
X90600209Y-39760258D01*
X90599793Y-40237647D01*
X90782097Y-40678857D01*
X91119367Y-41016717D01*
X91560258Y-41199791D01*
X92037647Y-41200207D01*
X92478857Y-41017903D01*
X92816717Y-40680633D01*
X92999791Y-40239742D01*
X93000207Y-39762353D01*
X93000207Y-41059309D01*
X92900174Y-41300215D01*
X92899827Y-41698040D01*
X93051747Y-42065714D01*
X93332806Y-42347264D01*
X93700215Y-42499826D01*
X94098040Y-42500173D01*
X94465714Y-42348253D01*
X94747264Y-42067194D01*
X94899826Y-41699785D01*
X94900173Y-41301960D01*
X94900173Y-44301960D01*
X94748253Y-43934286D01*
X94467194Y-43652736D01*
X94099785Y-43500174D01*
X93701960Y-43499827D01*
X93334286Y-43651747D01*
X93052736Y-43932806D01*
X92900174Y-44300215D01*
X92899827Y-44698040D01*
X93051747Y-45065714D01*
X93332806Y-45347264D01*
X93700215Y-45499826D01*
X94098040Y-45500173D01*
X94465714Y-45348253D01*
X94747264Y-45067194D01*
X94899826Y-44699785D01*
X94900173Y-44301960D01*
X94900173Y-49301960D01*
X94748253Y-48934286D01*
X94467194Y-48652736D01*
X94099785Y-48500174D01*
X93701960Y-48499827D01*
X93334286Y-48651747D01*
X93207923Y-48777889D01*
X93207923Y-46235171D01*
X93190748Y-45678481D01*
X93010755Y-45243942D01*
X92762350Y-45179071D01*
X92620929Y-45320492D01*
X92620929Y-45037650D01*
X92556058Y-44789245D01*
X92035171Y-44592077D01*
X91478481Y-44609252D01*
X91043942Y-44789245D01*
X90979071Y-45037650D01*
X91800000Y-45858579D01*
X92620929Y-45037650D01*
X92620929Y-45320492D01*
X91941421Y-46000000D01*
X92762350Y-46820929D01*
X93010755Y-46756058D01*
X93207923Y-46235171D01*
X93207923Y-48777889D01*
X93052736Y-48932806D01*
X93000207Y-49059309D01*
X93000207Y-47762353D01*
X92817903Y-47321143D01*
X92587504Y-47090341D01*
X92620929Y-46962350D01*
X91800000Y-46141421D01*
X91658579Y-46282842D01*
X91658579Y-46000000D01*
X90837650Y-45179071D01*
X90589245Y-45243942D01*
X90392077Y-45764829D01*
X90409252Y-46321519D01*
X90589245Y-46756058D01*
X90837650Y-46820929D01*
X91658579Y-46000000D01*
X91658579Y-46282842D01*
X90979071Y-46962350D01*
X91012540Y-47090510D01*
X90783283Y-47319367D01*
X90600209Y-47760258D01*
X90599793Y-48237647D01*
X90782097Y-48678857D01*
X91119367Y-49016717D01*
X91560258Y-49199791D01*
X92037647Y-49200207D01*
X92478857Y-49017903D01*
X92816717Y-48680633D01*
X92999791Y-48239742D01*
X93000207Y-47762353D01*
X93000207Y-49059309D01*
X92900174Y-49300215D01*
X92899827Y-49698040D01*
X93051747Y-50065714D01*
X93332806Y-50347264D01*
X93700215Y-50499826D01*
X94098040Y-50500173D01*
X94465714Y-50348253D01*
X94747264Y-50067194D01*
X94899826Y-49699785D01*
X94900173Y-49301960D01*
X94900173Y-61949563D01*
X94750147Y-61949432D01*
X94750147Y-56231666D01*
X94621015Y-55919143D01*
X94382115Y-55679826D01*
X94069817Y-55550148D01*
X93731666Y-55549853D01*
X93419143Y-55678985D01*
X93179826Y-55917885D01*
X93050148Y-56230183D01*
X93049853Y-56568334D01*
X93178985Y-56880857D01*
X93417885Y-57120174D01*
X93730183Y-57249852D01*
X94068334Y-57250147D01*
X94380857Y-57121015D01*
X94620174Y-56882115D01*
X94749852Y-56569817D01*
X94750147Y-56231666D01*
X94750147Y-61949432D01*
X94716763Y-61949403D01*
X93448285Y-62473527D01*
X92476938Y-63443181D01*
X91950601Y-64710742D01*
X91949403Y-66083237D01*
X92473527Y-67351715D01*
X93443181Y-68323062D01*
X94710742Y-68849399D01*
X95399280Y-68850000D01*
X91050147Y-68850000D01*
X91050147Y-57431666D01*
X90921015Y-57119143D01*
X90682115Y-56879826D01*
X90369817Y-56750148D01*
X90031666Y-56749853D01*
X89719143Y-56878985D01*
X89479826Y-57117885D01*
X89350148Y-57430183D01*
X89349853Y-57768334D01*
X89478985Y-58080857D01*
X89717885Y-58320174D01*
X90030183Y-58449852D01*
X90368334Y-58450147D01*
X90680857Y-58321015D01*
X90920174Y-58082115D01*
X91049852Y-57769817D01*
X91050147Y-57431666D01*
X91050147Y-68850000D01*
X89500173Y-68850000D01*
X89500173Y-63701960D01*
X89348253Y-63334286D01*
X89067194Y-63052736D01*
X88699785Y-62900174D01*
X88301960Y-62899827D01*
X88200207Y-62941870D01*
X88200207Y-61562353D01*
X88017903Y-61121143D01*
X87680633Y-60783283D01*
X87239742Y-60600209D01*
X86762353Y-60599793D01*
X86321143Y-60782097D01*
X86090341Y-61012495D01*
X85962350Y-60979071D01*
X85820929Y-61120492D01*
X85820929Y-60837650D01*
X85756058Y-60589245D01*
X85235171Y-60392077D01*
X84678481Y-60409252D01*
X84243942Y-60589245D01*
X84179071Y-60837650D01*
X85000000Y-61658579D01*
X85820929Y-60837650D01*
X85820929Y-61120492D01*
X85141421Y-61800000D01*
X85962350Y-62620929D01*
X86090510Y-62587459D01*
X86319367Y-62816717D01*
X86760258Y-62999791D01*
X87237647Y-63000207D01*
X87678857Y-62817903D01*
X88016717Y-62480633D01*
X88199791Y-62039742D01*
X88200207Y-61562353D01*
X88200207Y-62941870D01*
X87934286Y-63051747D01*
X87652736Y-63332806D01*
X87500174Y-63700215D01*
X87499827Y-64098040D01*
X87651747Y-64465714D01*
X87932806Y-64747264D01*
X88300215Y-64899826D01*
X88698040Y-64900173D01*
X89065714Y-64748253D01*
X89347264Y-64467194D01*
X89499826Y-64099785D01*
X89500173Y-63701960D01*
X89500173Y-68850000D01*
X85820929Y-68850000D01*
X85820929Y-62762350D01*
X85000000Y-61941421D01*
X84858579Y-62082842D01*
X84858579Y-61800000D01*
X84037650Y-60979071D01*
X83789245Y-61043942D01*
X83592077Y-61564829D01*
X83609252Y-62121519D01*
X83789245Y-62556058D01*
X84037650Y-62620929D01*
X84858579Y-61800000D01*
X84858579Y-62082842D01*
X84179071Y-62762350D01*
X84243942Y-63010755D01*
X84764829Y-63207923D01*
X85321519Y-63190748D01*
X85756058Y-63010755D01*
X85820929Y-62762350D01*
X85820929Y-68850000D01*
X84500173Y-68850000D01*
X84500173Y-63701960D01*
X84348253Y-63334286D01*
X84067194Y-63052736D01*
X83699785Y-62900174D01*
X83301960Y-62899827D01*
X82934286Y-63051747D01*
X82652736Y-63332806D01*
X82500174Y-63700215D01*
X82499827Y-64098040D01*
X82651747Y-64465714D01*
X82932806Y-64747264D01*
X83300215Y-64899826D01*
X83698040Y-64900173D01*
X84065714Y-64748253D01*
X84347264Y-64467194D01*
X84499826Y-64099785D01*
X84500173Y-63701960D01*
X84500173Y-68850000D01*
X81500173Y-68850000D01*
X81500173Y-63701960D01*
X81348253Y-63334286D01*
X81150147Y-63135833D01*
X81150147Y-41931666D01*
X81021015Y-41619143D01*
X80782115Y-41379826D01*
X80469817Y-41250148D01*
X80131666Y-41249853D01*
X79819143Y-41378985D01*
X79579826Y-41617885D01*
X79450148Y-41930183D01*
X79449853Y-42268334D01*
X79578985Y-42580857D01*
X79817885Y-42820174D01*
X80130183Y-42949852D01*
X80468334Y-42950147D01*
X80780857Y-42821015D01*
X81020174Y-42582115D01*
X81149852Y-42269817D01*
X81150147Y-41931666D01*
X81150147Y-63135833D01*
X81067194Y-63052736D01*
X80699785Y-62900174D01*
X80450147Y-62899956D01*
X80450147Y-56531666D01*
X80321015Y-56219143D01*
X80082115Y-55979826D01*
X79769817Y-55850148D01*
X79431666Y-55849853D01*
X79119143Y-55978985D01*
X78879826Y-56217885D01*
X78850147Y-56289359D01*
X78850147Y-30231666D01*
X78721015Y-29919143D01*
X78482115Y-29679826D01*
X78169817Y-29550148D01*
X78133813Y-29550116D01*
X78121015Y-29519143D01*
X77882115Y-29279826D01*
X77569817Y-29150148D01*
X77231666Y-29149853D01*
X76919143Y-29278985D01*
X76800001Y-29397918D01*
X76750147Y-29347976D01*
X76750147Y-20531666D01*
X76750147Y-18331666D01*
X76621015Y-18019143D01*
X76382115Y-17779826D01*
X76069817Y-17650148D01*
X75731666Y-17649853D01*
X75650147Y-17683535D01*
X75650147Y-12731666D01*
X75521015Y-12419143D01*
X75282115Y-12179826D01*
X74969817Y-12050148D01*
X74631666Y-12049853D01*
X74319143Y-12178985D01*
X74079826Y-12417885D01*
X73950148Y-12730183D01*
X73949853Y-13068334D01*
X73986524Y-13157085D01*
X73969817Y-13150148D01*
X73631666Y-13149853D01*
X73319143Y-13278985D01*
X73079826Y-13517885D01*
X72950148Y-13830183D01*
X72949853Y-14168334D01*
X73005137Y-14302133D01*
X72819143Y-14378985D01*
X72579826Y-14617885D01*
X72450148Y-14930183D01*
X72449853Y-15268334D01*
X72578985Y-15580857D01*
X72817885Y-15820174D01*
X72969658Y-15883196D01*
X72950148Y-15930183D01*
X72949853Y-16268334D01*
X73078985Y-16580857D01*
X73317885Y-16820174D01*
X73630183Y-16949852D01*
X73968334Y-16950147D01*
X74280857Y-16821015D01*
X74520174Y-16582115D01*
X74649852Y-16269817D01*
X74650147Y-15931666D01*
X74521015Y-15619143D01*
X74282115Y-15379826D01*
X74130341Y-15316803D01*
X74149852Y-15269817D01*
X74150147Y-14931666D01*
X74094862Y-14797866D01*
X74280857Y-14721015D01*
X74520174Y-14482115D01*
X74649852Y-14169817D01*
X74650147Y-13831666D01*
X74613475Y-13742914D01*
X74630183Y-13749852D01*
X74968334Y-13750147D01*
X75280857Y-13621015D01*
X75520174Y-13382115D01*
X75649852Y-13069817D01*
X75650147Y-12731666D01*
X75650147Y-17683535D01*
X75419143Y-17778985D01*
X75179826Y-18017885D01*
X75050148Y-18330183D01*
X75049853Y-18668334D01*
X75178985Y-18980857D01*
X75417885Y-19220174D01*
X75730183Y-19349852D01*
X76068334Y-19350147D01*
X76380857Y-19221015D01*
X76620174Y-18982115D01*
X76749852Y-18669817D01*
X76750147Y-18331666D01*
X76750147Y-20531666D01*
X76621015Y-20219143D01*
X76382115Y-19979826D01*
X76069817Y-19850148D01*
X75731666Y-19849853D01*
X75419143Y-19978985D01*
X75179826Y-20217885D01*
X75050148Y-20530183D01*
X75049853Y-20868334D01*
X75178985Y-21180857D01*
X75417885Y-21420174D01*
X75730183Y-21549852D01*
X76068334Y-21550147D01*
X76380857Y-21421015D01*
X76620174Y-21182115D01*
X76749852Y-20869817D01*
X76750147Y-20531666D01*
X76750147Y-29347976D01*
X76682115Y-29279826D01*
X76369817Y-29150148D01*
X76031666Y-29149853D01*
X75719143Y-29278985D01*
X75479826Y-29517885D01*
X75466539Y-29549883D01*
X75431666Y-29549853D01*
X75119143Y-29678985D01*
X74879826Y-29917885D01*
X74750148Y-30230183D01*
X74749853Y-30568334D01*
X74878985Y-30880857D01*
X75117885Y-31120174D01*
X75430183Y-31249852D01*
X75768334Y-31250147D01*
X76080857Y-31121015D01*
X76199998Y-31002081D01*
X76317885Y-31120174D01*
X76630183Y-31249852D01*
X76968334Y-31250147D01*
X77280857Y-31121015D01*
X77399998Y-31002081D01*
X77517885Y-31120174D01*
X77830183Y-31249852D01*
X78168334Y-31250147D01*
X78480857Y-31121015D01*
X78720174Y-30882115D01*
X78849852Y-30569817D01*
X78850147Y-30231666D01*
X78850147Y-56289359D01*
X78750148Y-56530183D01*
X78749853Y-56868334D01*
X78878985Y-57180857D01*
X79117885Y-57420174D01*
X79430183Y-57549852D01*
X79768334Y-57550147D01*
X80080857Y-57421015D01*
X80320174Y-57182115D01*
X80449852Y-56869817D01*
X80450147Y-56531666D01*
X80450147Y-62899956D01*
X80301960Y-62899827D01*
X80200207Y-62941870D01*
X80200207Y-61562353D01*
X80017903Y-61121143D01*
X79680633Y-60783283D01*
X79239742Y-60600209D01*
X78762353Y-60599793D01*
X78321143Y-60782097D01*
X78090341Y-61012495D01*
X77962350Y-60979071D01*
X77820929Y-61120492D01*
X77820929Y-60837650D01*
X77756058Y-60589245D01*
X77235171Y-60392077D01*
X77050147Y-60397785D01*
X77050147Y-51631666D01*
X76921015Y-51319143D01*
X76682115Y-51079826D01*
X76369817Y-50950148D01*
X76031666Y-50949853D01*
X75719143Y-51078985D01*
X75479826Y-51317885D01*
X75350148Y-51630183D01*
X75349853Y-51968334D01*
X75478985Y-52280857D01*
X75717885Y-52520174D01*
X76030183Y-52649852D01*
X76368334Y-52650147D01*
X76680857Y-52521015D01*
X76920174Y-52282115D01*
X77049852Y-51969817D01*
X77050147Y-51631666D01*
X77050147Y-60397785D01*
X76678481Y-60409252D01*
X76243942Y-60589245D01*
X76179071Y-60837650D01*
X77000000Y-61658579D01*
X77820929Y-60837650D01*
X77820929Y-61120492D01*
X77141421Y-61800000D01*
X77962350Y-62620929D01*
X78090510Y-62587459D01*
X78319367Y-62816717D01*
X78760258Y-62999791D01*
X79237647Y-63000207D01*
X79678857Y-62817903D01*
X80016717Y-62480633D01*
X80199791Y-62039742D01*
X80200207Y-61562353D01*
X80200207Y-62941870D01*
X79934286Y-63051747D01*
X79652736Y-63332806D01*
X79500174Y-63700215D01*
X79499827Y-64098040D01*
X79651747Y-64465714D01*
X79932806Y-64747264D01*
X80300215Y-64899826D01*
X80698040Y-64900173D01*
X81065714Y-64748253D01*
X81347264Y-64467194D01*
X81499826Y-64099785D01*
X81500173Y-63701960D01*
X81500173Y-68850000D01*
X77820929Y-68850000D01*
X77820929Y-62762350D01*
X77000000Y-61941421D01*
X76858579Y-62082842D01*
X76858579Y-61800000D01*
X76037650Y-60979071D01*
X75789245Y-61043942D01*
X75592077Y-61564829D01*
X75609252Y-62121519D01*
X75789245Y-62556058D01*
X76037650Y-62620929D01*
X76858579Y-61800000D01*
X76858579Y-62082842D01*
X76179071Y-62762350D01*
X76243942Y-63010755D01*
X76764829Y-63207923D01*
X77321519Y-63190748D01*
X77756058Y-63010755D01*
X77820929Y-62762350D01*
X77820929Y-68850000D01*
X76500173Y-68850000D01*
X76500173Y-63701960D01*
X76348253Y-63334286D01*
X76067194Y-63052736D01*
X75699785Y-62900174D01*
X75301960Y-62899827D01*
X74934286Y-63051747D01*
X74652736Y-63332806D01*
X74550147Y-63579867D01*
X74550147Y-57231666D01*
X74421015Y-56919143D01*
X74182115Y-56679826D01*
X73869817Y-56550148D01*
X73850147Y-56550130D01*
X73850147Y-37031666D01*
X73721015Y-36719143D01*
X73482115Y-36479826D01*
X73169817Y-36350148D01*
X72831666Y-36349853D01*
X72519143Y-36478985D01*
X72279826Y-36717885D01*
X72150148Y-37030183D01*
X72149853Y-37368334D01*
X72278985Y-37680857D01*
X72517885Y-37920174D01*
X72830183Y-38049852D01*
X73168334Y-38050147D01*
X73480857Y-37921015D01*
X73720174Y-37682115D01*
X73849852Y-37369817D01*
X73850147Y-37031666D01*
X73850147Y-56550130D01*
X73650147Y-56549956D01*
X73650147Y-41931666D01*
X73521015Y-41619143D01*
X73282115Y-41379826D01*
X72969817Y-41250148D01*
X72631666Y-41249853D01*
X72319143Y-41378985D01*
X72079826Y-41617885D01*
X72050147Y-41689359D01*
X72050147Y-17231666D01*
X71921015Y-16919143D01*
X71682115Y-16679826D01*
X71369817Y-16550148D01*
X71031666Y-16549853D01*
X70719143Y-16678985D01*
X70550147Y-16847686D01*
X70550147Y-6131666D01*
X70421015Y-5819143D01*
X70182115Y-5579826D01*
X69869817Y-5450148D01*
X69531666Y-5449853D01*
X69219143Y-5578985D01*
X68979826Y-5817885D01*
X68850148Y-6130183D01*
X68850147Y-6131329D01*
X68850147Y-2631666D01*
X68721015Y-2319143D01*
X68482115Y-2079826D01*
X68169817Y-1950148D01*
X67831666Y-1949853D01*
X67519143Y-2078985D01*
X67279826Y-2317885D01*
X67150148Y-2630183D01*
X67149853Y-2968334D01*
X67278985Y-3280857D01*
X67517885Y-3520174D01*
X67830183Y-3649852D01*
X68168334Y-3650147D01*
X68480857Y-3521015D01*
X68720174Y-3282115D01*
X68849852Y-2969817D01*
X68850147Y-2631666D01*
X68850147Y-6131329D01*
X68849853Y-6468334D01*
X68978985Y-6780857D01*
X69217885Y-7020174D01*
X69530183Y-7149852D01*
X69868334Y-7150147D01*
X70180857Y-7021015D01*
X70420174Y-6782115D01*
X70549852Y-6469817D01*
X70550147Y-6131666D01*
X70550147Y-16847686D01*
X70479826Y-16917885D01*
X70350148Y-17230183D01*
X70349853Y-17568334D01*
X70478985Y-17880857D01*
X70717885Y-18120174D01*
X71030183Y-18249852D01*
X71368334Y-18250147D01*
X71680857Y-18121015D01*
X71920174Y-17882115D01*
X72049852Y-17569817D01*
X72050147Y-17231666D01*
X72050147Y-41689359D01*
X71950148Y-41930183D01*
X71949853Y-42268334D01*
X72078985Y-42580857D01*
X72317885Y-42820174D01*
X72630183Y-42949852D01*
X72968334Y-42950147D01*
X73280857Y-42821015D01*
X73520174Y-42582115D01*
X73649852Y-42269817D01*
X73650147Y-41931666D01*
X73650147Y-56549956D01*
X73531666Y-56549853D01*
X73219143Y-56678985D01*
X72979826Y-56917885D01*
X72850148Y-57230183D01*
X72849853Y-57568334D01*
X72978985Y-57880857D01*
X73217885Y-58120174D01*
X73530183Y-58249852D01*
X73868334Y-58250147D01*
X74180857Y-58121015D01*
X74420174Y-57882115D01*
X74549852Y-57569817D01*
X74550147Y-57231666D01*
X74550147Y-63579867D01*
X74500174Y-63700215D01*
X74499827Y-64098040D01*
X74651747Y-64465714D01*
X74932806Y-64747264D01*
X75300215Y-64899826D01*
X75698040Y-64900173D01*
X76065714Y-64748253D01*
X76347264Y-64467194D01*
X76499826Y-64099785D01*
X76500173Y-63701960D01*
X76500173Y-68850000D01*
X73500173Y-68850000D01*
X73500173Y-63701960D01*
X73348253Y-63334286D01*
X73067194Y-63052736D01*
X72699785Y-62900174D01*
X72301960Y-62899827D01*
X72200207Y-62941870D01*
X72200207Y-61562353D01*
X72017903Y-61121143D01*
X71680633Y-60783283D01*
X71250147Y-60604529D01*
X71250147Y-42131666D01*
X71121015Y-41819143D01*
X70882115Y-41579826D01*
X70569817Y-41450148D01*
X70231666Y-41449853D01*
X69919143Y-41578985D01*
X69679826Y-41817885D01*
X69550148Y-42130183D01*
X69549853Y-42468334D01*
X69678985Y-42780857D01*
X69917885Y-43020174D01*
X70230183Y-43149852D01*
X70568334Y-43150147D01*
X70880857Y-43021015D01*
X71120174Y-42782115D01*
X71249852Y-42469817D01*
X71250147Y-42131666D01*
X71250147Y-60604529D01*
X71239742Y-60600209D01*
X70762353Y-60599793D01*
X70321143Y-60782097D01*
X70090341Y-61012495D01*
X69962350Y-60979071D01*
X69820929Y-61120492D01*
X69820929Y-60837650D01*
X69756058Y-60589245D01*
X69235171Y-60392077D01*
X69050147Y-60397785D01*
X69050147Y-29131666D01*
X68921015Y-28819143D01*
X68682115Y-28579826D01*
X68369817Y-28450148D01*
X68031666Y-28449853D01*
X67719143Y-28578985D01*
X67479826Y-28817885D01*
X67350148Y-29130183D01*
X67349853Y-29468334D01*
X67478985Y-29780857D01*
X67717885Y-30020174D01*
X68030183Y-30149852D01*
X68368334Y-30150147D01*
X68680857Y-30021015D01*
X68920174Y-29782115D01*
X69049852Y-29469817D01*
X69050147Y-29131666D01*
X69050147Y-60397785D01*
X68678481Y-60409252D01*
X68243942Y-60589245D01*
X68179071Y-60837650D01*
X69000000Y-61658579D01*
X69820929Y-60837650D01*
X69820929Y-61120492D01*
X69141421Y-61800000D01*
X69962350Y-62620929D01*
X70090510Y-62587459D01*
X70319367Y-62816717D01*
X70760258Y-62999791D01*
X71237647Y-63000207D01*
X71678857Y-62817903D01*
X72016717Y-62480633D01*
X72199791Y-62039742D01*
X72200207Y-61562353D01*
X72200207Y-62941870D01*
X71934286Y-63051747D01*
X71652736Y-63332806D01*
X71500174Y-63700215D01*
X71499827Y-64098040D01*
X71651747Y-64465714D01*
X71932806Y-64747264D01*
X72300215Y-64899826D01*
X72698040Y-64900173D01*
X73065714Y-64748253D01*
X73347264Y-64467194D01*
X73499826Y-64099785D01*
X73500173Y-63701960D01*
X73500173Y-68850000D01*
X69820929Y-68850000D01*
X69820929Y-62762350D01*
X69000000Y-61941421D01*
X68858579Y-62082842D01*
X68858579Y-61800000D01*
X68037650Y-60979071D01*
X67789245Y-61043942D01*
X67592077Y-61564829D01*
X67609252Y-62121519D01*
X67789245Y-62556058D01*
X68037650Y-62620929D01*
X68858579Y-61800000D01*
X68858579Y-62082842D01*
X68179071Y-62762350D01*
X68243942Y-63010755D01*
X68764829Y-63207923D01*
X69321519Y-63190748D01*
X69756058Y-63010755D01*
X69820929Y-62762350D01*
X69820929Y-68850000D01*
X68500173Y-68850000D01*
X68500173Y-63701960D01*
X68348253Y-63334286D01*
X68067194Y-63052736D01*
X67699785Y-62900174D01*
X67301960Y-62899827D01*
X67050147Y-63003874D01*
X67050147Y-41031666D01*
X66921015Y-40719143D01*
X66758166Y-40556009D01*
X66758166Y-4010278D01*
X66612626Y-3658046D01*
X66519816Y-3565074D01*
X66611679Y-3473372D01*
X66757833Y-3121394D01*
X66758166Y-2740278D01*
X66612626Y-2388046D01*
X66343372Y-2118321D01*
X65991394Y-1972167D01*
X65610278Y-1971834D01*
X65346438Y-2080850D01*
X65292082Y-2026494D01*
X65175774Y-2142801D01*
X65140596Y-1919457D01*
X64707399Y-1762715D01*
X64247195Y-1783682D01*
X63919404Y-1919457D01*
X63895000Y-2074394D01*
X63870596Y-1919457D01*
X63437399Y-1762715D01*
X62977195Y-1783682D01*
X62649404Y-1919457D01*
X62614225Y-2142801D01*
X62497918Y-2026494D01*
X62443435Y-2080976D01*
X62181394Y-1972167D01*
X61800278Y-1971834D01*
X61536438Y-2080850D01*
X61482082Y-2026494D01*
X61365774Y-2142801D01*
X61330596Y-1919457D01*
X60897399Y-1762715D01*
X60437195Y-1783682D01*
X60109404Y-1919457D01*
X60074225Y-2142803D01*
X60720000Y-2788579D01*
X60734142Y-2774436D01*
X60875563Y-2915857D01*
X60861421Y-2930000D01*
X60875563Y-2944142D01*
X60734142Y-3085563D01*
X60720000Y-3071421D01*
X60705857Y-3085563D01*
X60578579Y-2958285D01*
X60564436Y-2944142D01*
X60578579Y-2930000D01*
X59932803Y-2284225D01*
X59709457Y-2319404D01*
X59552715Y-2752601D01*
X59573682Y-3212805D01*
X59709457Y-3540596D01*
X59932801Y-3575774D01*
X59816494Y-3692082D01*
X59870976Y-3746564D01*
X59762167Y-4008606D01*
X59761834Y-4389722D01*
X59907374Y-4741954D01*
X60176628Y-5011679D01*
X60528606Y-5157833D01*
X60909722Y-5158166D01*
X61261954Y-5012626D01*
X61354925Y-4919816D01*
X61446628Y-5011679D01*
X61798606Y-5157833D01*
X62179722Y-5158166D01*
X62531954Y-5012626D01*
X62624925Y-4919816D01*
X62716628Y-5011679D01*
X63068606Y-5157833D01*
X63449722Y-5158166D01*
X63801954Y-5012626D01*
X63894925Y-4919816D01*
X63986628Y-5011679D01*
X64338606Y-5157833D01*
X64719722Y-5158166D01*
X65071954Y-5012626D01*
X65164925Y-4919816D01*
X65256628Y-5011679D01*
X65608606Y-5157833D01*
X65989722Y-5158166D01*
X66341954Y-5012626D01*
X66611679Y-4743372D01*
X66757833Y-4391394D01*
X66758166Y-4010278D01*
X66758166Y-40556009D01*
X66682115Y-40479826D01*
X66450147Y-40383504D01*
X66450147Y-39031666D01*
X66321015Y-38719143D01*
X66082115Y-38479826D01*
X65769817Y-38350148D01*
X65431666Y-38349853D01*
X65119143Y-38478985D01*
X64879826Y-38717885D01*
X64750148Y-39030183D01*
X64749853Y-39368334D01*
X64878985Y-39680857D01*
X65117885Y-39920174D01*
X65430183Y-40049852D01*
X65768334Y-40050147D01*
X66080857Y-39921015D01*
X66320174Y-39682115D01*
X66449852Y-39369817D01*
X66450147Y-39031666D01*
X66450147Y-40383504D01*
X66369817Y-40350148D01*
X66031666Y-40349853D01*
X65719143Y-40478985D01*
X65479826Y-40717885D01*
X65350148Y-41030183D01*
X65349853Y-41368334D01*
X65478985Y-41680857D01*
X65717885Y-41920174D01*
X66030183Y-42049852D01*
X66368334Y-42050147D01*
X66680857Y-41921015D01*
X66920174Y-41682115D01*
X67049852Y-41369817D01*
X67050147Y-41031666D01*
X67050147Y-63003874D01*
X66934286Y-63051747D01*
X66652736Y-63332806D01*
X66500174Y-63700215D01*
X66499827Y-64098040D01*
X66651747Y-64465714D01*
X66932806Y-64747264D01*
X67300215Y-64899826D01*
X67698040Y-64900173D01*
X68065714Y-64748253D01*
X68347264Y-64467194D01*
X68499826Y-64099785D01*
X68500173Y-63701960D01*
X68500173Y-68850000D01*
X66350147Y-68850000D01*
X66350147Y-57431666D01*
X66221015Y-57119143D01*
X66050147Y-56947976D01*
X66050147Y-47631666D01*
X65921015Y-47319143D01*
X65682115Y-47079826D01*
X65369817Y-46950148D01*
X65031666Y-46949853D01*
X64719143Y-47078985D01*
X64479826Y-47317885D01*
X64450147Y-47389359D01*
X64450147Y-29831666D01*
X64321015Y-29519143D01*
X64082115Y-29279826D01*
X63769817Y-29150148D01*
X63431666Y-29149853D01*
X63119143Y-29278985D01*
X62879826Y-29517885D01*
X62750148Y-29830183D01*
X62749853Y-30168334D01*
X62878985Y-30480857D01*
X63117885Y-30720174D01*
X63430183Y-30849852D01*
X63768334Y-30850147D01*
X64080857Y-30721015D01*
X64320174Y-30482115D01*
X64449852Y-30169817D01*
X64450147Y-29831666D01*
X64450147Y-47389359D01*
X64350148Y-47630183D01*
X64349853Y-47968334D01*
X64478985Y-48280857D01*
X64717885Y-48520174D01*
X65030183Y-48649852D01*
X65368334Y-48650147D01*
X65680857Y-48521015D01*
X65920174Y-48282115D01*
X66049852Y-47969817D01*
X66050147Y-47631666D01*
X66050147Y-56947976D01*
X65982115Y-56879826D01*
X65669817Y-56750148D01*
X65331666Y-56749853D01*
X65019143Y-56878985D01*
X64779826Y-57117885D01*
X64650148Y-57430183D01*
X64649853Y-57768334D01*
X64778985Y-58080857D01*
X65017885Y-58320174D01*
X65330183Y-58449852D01*
X65668334Y-58450147D01*
X65980857Y-58321015D01*
X66220174Y-58082115D01*
X66349852Y-57769817D01*
X66350147Y-57431666D01*
X66350147Y-68850000D01*
X66332026Y-68850000D01*
X65321505Y-63769765D01*
X65239382Y-63571501D01*
X65239378Y-63571497D01*
X64050147Y-61791687D01*
X64050147Y-57331666D01*
X63921015Y-57019143D01*
X63682115Y-56779826D01*
X63650199Y-56766573D01*
X63650199Y-51872254D01*
X63650147Y-51872128D01*
X63650147Y-43131666D01*
X63521015Y-42819143D01*
X63282115Y-42579826D01*
X62969817Y-42450148D01*
X62631666Y-42449853D01*
X62319143Y-42578985D01*
X62079826Y-42817885D01*
X61950148Y-43130183D01*
X61949853Y-43468334D01*
X62078985Y-43780857D01*
X62317885Y-44020174D01*
X62630183Y-44149852D01*
X62968334Y-44150147D01*
X63280857Y-44021015D01*
X63520174Y-43782115D01*
X63649852Y-43469817D01*
X63650147Y-43131666D01*
X63650147Y-51872128D01*
X63475491Y-51449428D01*
X63152273Y-51125646D01*
X62729753Y-50950200D01*
X62272254Y-50949801D01*
X61850147Y-51124211D01*
X61850147Y-44831666D01*
X61721015Y-44519143D01*
X61482115Y-44279826D01*
X61169817Y-44150148D01*
X60950147Y-44149956D01*
X60950147Y-32331666D01*
X60821015Y-32019143D01*
X60582115Y-31779826D01*
X60350147Y-31683504D01*
X60350147Y-22631666D01*
X60221015Y-22319143D01*
X59982115Y-22079826D01*
X59669817Y-21950148D01*
X59331666Y-21949853D01*
X59019143Y-22078985D01*
X58779826Y-22317885D01*
X58650148Y-22630183D01*
X58649853Y-22968334D01*
X58778985Y-23280857D01*
X59017885Y-23520174D01*
X59330183Y-23649852D01*
X59668334Y-23650147D01*
X59980857Y-23521015D01*
X60220174Y-23282115D01*
X60349852Y-22969817D01*
X60350147Y-22631666D01*
X60350147Y-31683504D01*
X60269817Y-31650148D01*
X60250147Y-31650130D01*
X60250147Y-27431666D01*
X60121015Y-27119143D01*
X60050147Y-27048151D01*
X60050147Y-25631666D01*
X59921015Y-25319143D01*
X59682115Y-25079826D01*
X59369817Y-24950148D01*
X59031666Y-24949853D01*
X58719143Y-25078985D01*
X58479826Y-25317885D01*
X58350148Y-25630183D01*
X58349853Y-25968334D01*
X58478985Y-26280857D01*
X58717885Y-26520174D01*
X59030183Y-26649852D01*
X59368334Y-26650147D01*
X59680857Y-26521015D01*
X59920174Y-26282115D01*
X60049852Y-25969817D01*
X60050147Y-25631666D01*
X60050147Y-27048151D01*
X59882115Y-26879826D01*
X59569817Y-26750148D01*
X59231666Y-26749853D01*
X58919143Y-26878985D01*
X58679826Y-27117885D01*
X58550148Y-27430183D01*
X58549853Y-27768334D01*
X58678985Y-28080857D01*
X58917885Y-28320174D01*
X59230183Y-28449852D01*
X59568334Y-28450147D01*
X59880857Y-28321015D01*
X60120174Y-28082115D01*
X60249852Y-27769817D01*
X60250147Y-27431666D01*
X60250147Y-31650130D01*
X59931666Y-31649853D01*
X59619143Y-31778985D01*
X59379826Y-32017885D01*
X59250148Y-32330183D01*
X59249853Y-32668334D01*
X59378985Y-32980857D01*
X59617885Y-33220174D01*
X59930183Y-33349852D01*
X60268334Y-33350147D01*
X60580857Y-33221015D01*
X60820174Y-32982115D01*
X60949852Y-32669817D01*
X60950147Y-32331666D01*
X60950147Y-44149956D01*
X60831666Y-44149853D01*
X60519143Y-44278985D01*
X60279826Y-44517885D01*
X60150148Y-44830183D01*
X60149853Y-45168334D01*
X60278985Y-45480857D01*
X60517885Y-45720174D01*
X60830183Y-45849852D01*
X61168334Y-45850147D01*
X61480857Y-45721015D01*
X61720174Y-45482115D01*
X61849852Y-45169817D01*
X61850147Y-44831666D01*
X61850147Y-51124211D01*
X61849428Y-51124509D01*
X61525646Y-51447727D01*
X61350200Y-51870247D01*
X61349801Y-52327746D01*
X61524509Y-52750572D01*
X61847727Y-53074354D01*
X62270247Y-53249800D01*
X62727746Y-53250199D01*
X63150572Y-53075491D01*
X63474354Y-52752273D01*
X63649800Y-52329753D01*
X63650199Y-51872254D01*
X63650199Y-56766573D01*
X63369817Y-56650148D01*
X63031666Y-56649853D01*
X62719143Y-56778985D01*
X62479826Y-57017885D01*
X62350148Y-57330183D01*
X62349853Y-57668334D01*
X62478985Y-57980857D01*
X62717885Y-58220174D01*
X63030183Y-58349852D01*
X63368334Y-58350147D01*
X63680857Y-58221015D01*
X63920174Y-57982115D01*
X64049852Y-57669817D01*
X64050147Y-57331666D01*
X64050147Y-61791687D01*
X61771016Y-58380728D01*
X61619272Y-58228983D01*
X61619265Y-58228980D01*
X60100147Y-57213937D01*
X60100147Y-48431666D01*
X59971015Y-48119143D01*
X59732115Y-47879826D01*
X59419817Y-47750148D01*
X59081666Y-47749853D01*
X58769143Y-47878985D01*
X58750147Y-47897947D01*
X58750147Y-32731666D01*
X58621015Y-32419143D01*
X58382115Y-32179826D01*
X58150147Y-32083504D01*
X58150147Y-26031666D01*
X58021015Y-25719143D01*
X57782115Y-25479826D01*
X57469817Y-25350148D01*
X57131666Y-25349853D01*
X56819143Y-25478985D01*
X56579826Y-25717885D01*
X56450148Y-26030183D01*
X56450147Y-26031329D01*
X56450147Y-22131666D01*
X56321015Y-21819143D01*
X56082115Y-21579826D01*
X55769817Y-21450148D01*
X55431666Y-21449853D01*
X55119143Y-21578985D01*
X54879826Y-21817885D01*
X54750148Y-22130183D01*
X54749853Y-22468334D01*
X54878985Y-22780857D01*
X55117885Y-23020174D01*
X55430183Y-23149852D01*
X55768334Y-23150147D01*
X56080857Y-23021015D01*
X56320174Y-22782115D01*
X56449852Y-22469817D01*
X56450147Y-22131666D01*
X56450147Y-26031329D01*
X56449853Y-26368334D01*
X56578985Y-26680857D01*
X56817885Y-26920174D01*
X57130183Y-27049852D01*
X57468334Y-27050147D01*
X57780857Y-26921015D01*
X58020174Y-26682115D01*
X58149852Y-26369817D01*
X58150147Y-26031666D01*
X58150147Y-32083504D01*
X58069817Y-32050148D01*
X57731666Y-32049853D01*
X57419143Y-32178985D01*
X57179826Y-32417885D01*
X57050148Y-32730183D01*
X57049853Y-33068334D01*
X57178985Y-33380857D01*
X57417885Y-33620174D01*
X57730183Y-33749852D01*
X58068334Y-33750147D01*
X58380857Y-33621015D01*
X58620174Y-33382115D01*
X58749852Y-33069817D01*
X58750147Y-32731666D01*
X58750147Y-47897947D01*
X58600147Y-48047686D01*
X58600147Y-46031666D01*
X58471015Y-45719143D01*
X58232115Y-45479826D01*
X57919817Y-45350148D01*
X57581666Y-45349853D01*
X57269143Y-45478985D01*
X57029826Y-45717885D01*
X56900148Y-46030183D01*
X56899853Y-46368334D01*
X57028985Y-46680857D01*
X57267885Y-46920174D01*
X57580183Y-47049852D01*
X57918334Y-47050147D01*
X58230857Y-46921015D01*
X58470174Y-46682115D01*
X58599852Y-46369817D01*
X58600147Y-46031666D01*
X58600147Y-48047686D01*
X58529826Y-48117885D01*
X58400148Y-48430183D01*
X58399853Y-48768334D01*
X58528985Y-49080857D01*
X58767885Y-49320174D01*
X59080183Y-49449852D01*
X59418334Y-49450147D01*
X59730857Y-49321015D01*
X59970174Y-49082115D01*
X60099852Y-48769817D01*
X60100147Y-48431666D01*
X60100147Y-57213937D01*
X57550147Y-55510080D01*
X57550147Y-53131666D01*
X57421015Y-52819143D01*
X57182115Y-52579826D01*
X56869817Y-52450148D01*
X56531666Y-52449853D01*
X56250147Y-52566174D01*
X56250147Y-42431666D01*
X56150147Y-42189647D01*
X56150147Y-25831666D01*
X56021015Y-25519143D01*
X55782115Y-25279826D01*
X55469817Y-25150148D01*
X55131666Y-25149853D01*
X54819143Y-25278985D01*
X54579826Y-25517885D01*
X54450148Y-25830183D01*
X54449853Y-26168334D01*
X54578985Y-26480857D01*
X54817885Y-26720174D01*
X55130183Y-26849852D01*
X55468334Y-26850147D01*
X55780857Y-26721015D01*
X56020174Y-26482115D01*
X56149852Y-26169817D01*
X56150147Y-25831666D01*
X56150147Y-42189647D01*
X56121015Y-42119143D01*
X55882115Y-41879826D01*
X55569817Y-41750148D01*
X55450130Y-41750043D01*
X55450147Y-41731666D01*
X55321015Y-41419143D01*
X55082115Y-41179826D01*
X54769817Y-41050148D01*
X54431666Y-41049853D01*
X54119143Y-41178985D01*
X53879826Y-41417885D01*
X53750148Y-41730183D01*
X53750132Y-41748136D01*
X53582115Y-41579826D01*
X53500173Y-41545800D01*
X53500173Y-5951960D01*
X53348253Y-5584286D01*
X53067194Y-5302736D01*
X52699785Y-5150174D01*
X52301960Y-5149827D01*
X51934286Y-5301747D01*
X51652736Y-5582806D01*
X51500174Y-5950215D01*
X51499827Y-6348040D01*
X51651747Y-6715714D01*
X51932806Y-6997264D01*
X52300215Y-7149826D01*
X52698040Y-7150173D01*
X53065714Y-6998253D01*
X53347264Y-6717194D01*
X53499826Y-6349785D01*
X53500173Y-5951960D01*
X53500173Y-41545800D01*
X53269817Y-41450148D01*
X53250147Y-41450130D01*
X53250147Y-18431666D01*
X53121015Y-18119143D01*
X52882115Y-17879826D01*
X52569817Y-17750148D01*
X52231666Y-17749853D01*
X52200207Y-17762851D01*
X52200207Y-8012353D01*
X52017903Y-7571143D01*
X51680633Y-7233283D01*
X51239742Y-7050209D01*
X50762353Y-7049793D01*
X50321143Y-7232097D01*
X49999735Y-7552943D01*
X49680633Y-7233283D01*
X49239742Y-7050209D01*
X48762353Y-7049793D01*
X48321143Y-7232097D01*
X47999735Y-7552943D01*
X47680633Y-7233283D01*
X47239742Y-7050209D01*
X46762353Y-7049793D01*
X46321143Y-7232097D01*
X45999735Y-7552943D01*
X45680633Y-7233283D01*
X45239742Y-7050209D01*
X44762353Y-7049793D01*
X44500173Y-7158123D01*
X44500173Y-5951960D01*
X44348253Y-5584286D01*
X44067194Y-5302736D01*
X43699785Y-5150174D01*
X43301960Y-5149827D01*
X42934286Y-5301747D01*
X42652736Y-5582806D01*
X42500174Y-5950215D01*
X42499827Y-6348040D01*
X42651747Y-6715714D01*
X42932806Y-6997264D01*
X43300215Y-7149826D01*
X43698040Y-7150173D01*
X44065714Y-6998253D01*
X44347264Y-6717194D01*
X44499826Y-6349785D01*
X44500173Y-5951960D01*
X44500173Y-7158123D01*
X44321143Y-7232097D01*
X43983283Y-7569367D01*
X43800209Y-8010258D01*
X43799793Y-8487647D01*
X43982097Y-8928857D01*
X44319367Y-9266717D01*
X44760258Y-9449791D01*
X45237647Y-9450207D01*
X45678857Y-9267903D01*
X46000264Y-8947056D01*
X46319367Y-9266717D01*
X46760258Y-9449791D01*
X47237647Y-9450207D01*
X47678857Y-9267903D01*
X48000264Y-8947056D01*
X48319367Y-9266717D01*
X48760258Y-9449791D01*
X49237647Y-9450207D01*
X49678857Y-9267903D01*
X50000264Y-8947056D01*
X50319367Y-9266717D01*
X50760258Y-9449791D01*
X51237647Y-9450207D01*
X51678857Y-9267903D01*
X52016717Y-8930633D01*
X52199791Y-8489742D01*
X52200207Y-8012353D01*
X52200207Y-17762851D01*
X51919143Y-17878985D01*
X51679826Y-18117885D01*
X51550148Y-18430183D01*
X51549853Y-18768334D01*
X51678985Y-19080857D01*
X51917885Y-19320174D01*
X52230183Y-19449852D01*
X52568334Y-19450147D01*
X52880857Y-19321015D01*
X53120174Y-19082115D01*
X53249852Y-18769817D01*
X53250147Y-18431666D01*
X53250147Y-41450130D01*
X52931666Y-41449853D01*
X52619143Y-41578985D01*
X52379826Y-41817885D01*
X52250148Y-42130183D01*
X52249853Y-42468334D01*
X52378985Y-42780857D01*
X52531684Y-42933822D01*
X52450148Y-43130183D01*
X52449853Y-43468334D01*
X52578985Y-43780857D01*
X52817885Y-44020174D01*
X53130183Y-44149852D01*
X53468334Y-44150147D01*
X53780857Y-44021015D01*
X54020174Y-43782115D01*
X54149852Y-43469817D01*
X54150147Y-43131666D01*
X54021015Y-42819143D01*
X53868315Y-42666177D01*
X53949852Y-42469817D01*
X53949867Y-42451863D01*
X54117885Y-42620174D01*
X54430183Y-42749852D01*
X54549869Y-42749956D01*
X54549853Y-42768334D01*
X54678985Y-43080857D01*
X54917885Y-43320174D01*
X55230183Y-43449852D01*
X55568334Y-43450147D01*
X55880857Y-43321015D01*
X56120174Y-43082115D01*
X56249852Y-42769817D01*
X56250147Y-42431666D01*
X56250147Y-52566174D01*
X56219143Y-52578985D01*
X55979826Y-52817885D01*
X55850148Y-53130183D01*
X55849853Y-53468334D01*
X55978985Y-53780857D01*
X56217885Y-54020174D01*
X56530183Y-54149852D01*
X56868334Y-54150147D01*
X57180857Y-54021015D01*
X57420174Y-53782115D01*
X57549852Y-53469817D01*
X57550147Y-53131666D01*
X57550147Y-55510080D01*
X56428499Y-54760619D01*
X56428498Y-54760618D01*
X56312358Y-54712511D01*
X56230235Y-54678495D01*
X56230234Y-54678495D01*
X54250147Y-54284630D01*
X54250147Y-50431666D01*
X54121015Y-50119143D01*
X53882115Y-49879826D01*
X53569817Y-49750148D01*
X53231666Y-49749853D01*
X52919143Y-49878985D01*
X52750147Y-50047686D01*
X52750147Y-48831666D01*
X52621015Y-48519143D01*
X52382115Y-48279826D01*
X52069817Y-48150148D01*
X51731666Y-48149853D01*
X51419143Y-48278985D01*
X51179826Y-48517885D01*
X51050148Y-48830183D01*
X51049853Y-49168334D01*
X51178985Y-49480857D01*
X51417885Y-49720174D01*
X51730183Y-49849852D01*
X52068334Y-49850147D01*
X52380857Y-49721015D01*
X52620174Y-49482115D01*
X52749852Y-49169817D01*
X52750147Y-48831666D01*
X52750147Y-50047686D01*
X52679826Y-50117885D01*
X52550148Y-50430183D01*
X52549853Y-50768334D01*
X52678985Y-51080857D01*
X52917885Y-51320174D01*
X53230183Y-51449852D01*
X53568334Y-51450147D01*
X53880857Y-51321015D01*
X54120174Y-51082115D01*
X54249852Y-50769817D01*
X54250147Y-50431666D01*
X54250147Y-54284630D01*
X53598554Y-54155021D01*
X53680857Y-54121015D01*
X53920174Y-53882115D01*
X54049852Y-53569817D01*
X54050147Y-53231666D01*
X53921015Y-52919143D01*
X53682115Y-52679826D01*
X53369817Y-52550148D01*
X53031666Y-52549853D01*
X52719143Y-52678985D01*
X52479826Y-52917885D01*
X52350148Y-53230183D01*
X52349853Y-53568334D01*
X52478985Y-53880857D01*
X52543093Y-53945077D01*
X50950147Y-53628220D01*
X50950147Y-43031666D01*
X50821015Y-42719143D01*
X50582115Y-42479826D01*
X50269817Y-42350148D01*
X50016373Y-42349926D01*
X49921015Y-42119143D01*
X49682115Y-41879826D01*
X49369817Y-41750148D01*
X49350147Y-41750130D01*
X49350147Y-19031666D01*
X49221015Y-18719143D01*
X48982115Y-18479826D01*
X48669817Y-18350148D01*
X48331666Y-18349853D01*
X48019143Y-18478985D01*
X47779826Y-18717885D01*
X47650148Y-19030183D01*
X47650147Y-19031329D01*
X47650147Y-13431666D01*
X47521015Y-13119143D01*
X47282115Y-12879826D01*
X46969817Y-12750148D01*
X46631666Y-12749853D01*
X46319143Y-12878985D01*
X46079826Y-13117885D01*
X45950148Y-13430183D01*
X45949853Y-13768334D01*
X46078985Y-14080857D01*
X46317885Y-14320174D01*
X46630183Y-14449852D01*
X46968334Y-14450147D01*
X47280857Y-14321015D01*
X47520174Y-14082115D01*
X47649852Y-13769817D01*
X47650147Y-13431666D01*
X47650147Y-19031329D01*
X47649853Y-19368334D01*
X47778985Y-19680857D01*
X48017885Y-19920174D01*
X48330183Y-20049852D01*
X48668334Y-20050147D01*
X48980857Y-19921015D01*
X49220174Y-19682115D01*
X49349852Y-19369817D01*
X49350147Y-19031666D01*
X49350147Y-41750130D01*
X49031666Y-41749853D01*
X48719143Y-41878985D01*
X48549958Y-42047874D01*
X48432115Y-41929826D01*
X48250147Y-41854265D01*
X48250147Y-25331666D01*
X48121015Y-25019143D01*
X47882115Y-24779826D01*
X47650147Y-24683504D01*
X47650147Y-20031666D01*
X47521015Y-19719143D01*
X47282115Y-19479826D01*
X46969817Y-19350148D01*
X46631666Y-19349853D01*
X46319143Y-19478985D01*
X46079826Y-19717885D01*
X45950148Y-20030183D01*
X45949853Y-20368334D01*
X46078985Y-20680857D01*
X46317885Y-20920174D01*
X46630183Y-21049852D01*
X46968334Y-21050147D01*
X47280857Y-20921015D01*
X47520174Y-20682115D01*
X47649852Y-20369817D01*
X47650147Y-20031666D01*
X47650147Y-24683504D01*
X47569817Y-24650148D01*
X47231666Y-24649853D01*
X46919143Y-24778985D01*
X46679826Y-25017885D01*
X46550148Y-25330183D01*
X46549853Y-25668334D01*
X46678985Y-25980857D01*
X46917885Y-26220174D01*
X47230183Y-26349852D01*
X47568334Y-26350147D01*
X47880857Y-26221015D01*
X48120174Y-25982115D01*
X48249852Y-25669817D01*
X48250147Y-25331666D01*
X48250147Y-41854265D01*
X48119817Y-41800148D01*
X47781666Y-41799853D01*
X47469143Y-41928985D01*
X47229826Y-42167885D01*
X47100148Y-42480183D01*
X47099853Y-42818334D01*
X47228985Y-43130857D01*
X47467885Y-43370174D01*
X47780183Y-43499852D01*
X48118334Y-43500147D01*
X48430857Y-43371015D01*
X48600041Y-43202125D01*
X48717885Y-43320174D01*
X49030183Y-43449852D01*
X49283626Y-43450073D01*
X49378985Y-43680857D01*
X49617885Y-43920174D01*
X49930183Y-44049852D01*
X50268334Y-44050147D01*
X50580857Y-43921015D01*
X50820174Y-43682115D01*
X50949852Y-43369817D01*
X50950147Y-43031666D01*
X50950147Y-53628220D01*
X50107300Y-53460568D01*
X50107299Y-53460568D01*
X49892700Y-53460568D01*
X46950147Y-54045877D01*
X46950147Y-28731666D01*
X46821015Y-28419143D01*
X46582115Y-28179826D01*
X46269817Y-28050148D01*
X45931666Y-28049853D01*
X45619143Y-28178985D01*
X45379826Y-28417885D01*
X45250148Y-28730183D01*
X45250147Y-28731329D01*
X45250147Y-20031666D01*
X45121015Y-19719143D01*
X44882115Y-19479826D01*
X44569817Y-19350148D01*
X44231666Y-19349853D01*
X43919143Y-19478985D01*
X43679826Y-19717885D01*
X43550148Y-20030183D01*
X43549853Y-20368334D01*
X43678985Y-20680857D01*
X43917885Y-20920174D01*
X44230183Y-21049852D01*
X44568334Y-21050147D01*
X44880857Y-20921015D01*
X45120174Y-20682115D01*
X45249852Y-20369817D01*
X45250147Y-20031666D01*
X45250147Y-28731329D01*
X45249853Y-29068334D01*
X45378985Y-29380857D01*
X45617885Y-29620174D01*
X45930183Y-29749852D01*
X46268334Y-29750147D01*
X46580857Y-29621015D01*
X46820174Y-29382115D01*
X46949852Y-29069817D01*
X46950147Y-28731666D01*
X46950147Y-54045877D01*
X46550147Y-54125442D01*
X46550147Y-53131666D01*
X46421015Y-52819143D01*
X46182115Y-52579826D01*
X45869817Y-52450148D01*
X45531666Y-52449853D01*
X45219143Y-52578985D01*
X44979826Y-52817885D01*
X44850148Y-53130183D01*
X44850147Y-53131329D01*
X44850147Y-32631666D01*
X44721015Y-32319143D01*
X44482115Y-32079826D01*
X44169817Y-31950148D01*
X43831666Y-31949853D01*
X43519143Y-32078985D01*
X43350000Y-32247833D01*
X43350000Y-25914774D01*
X43350000Y-25585226D01*
X43189056Y-24776106D01*
X42722358Y-24077642D01*
X42023894Y-23610944D01*
X41500173Y-23506769D01*
X41500173Y-5951960D01*
X41348253Y-5584286D01*
X41067194Y-5302736D01*
X40699785Y-5150174D01*
X40301960Y-5149827D01*
X39934286Y-5301747D01*
X39652736Y-5582806D01*
X39500174Y-5950215D01*
X39499827Y-6348040D01*
X39651747Y-6715714D01*
X39932806Y-6997264D01*
X40300215Y-7149826D01*
X40698040Y-7150173D01*
X41065714Y-6998253D01*
X41347264Y-6717194D01*
X41499826Y-6349785D01*
X41500173Y-5951960D01*
X41500173Y-23506769D01*
X41214774Y-23450000D01*
X40885226Y-23450000D01*
X40200207Y-23586258D01*
X40200207Y-8012353D01*
X40017903Y-7571143D01*
X39680633Y-7233283D01*
X39239742Y-7050209D01*
X38762353Y-7049793D01*
X38321143Y-7232097D01*
X37999735Y-7552943D01*
X37680633Y-7233283D01*
X37239742Y-7050209D01*
X36762353Y-7049793D01*
X36321143Y-7232097D01*
X35999735Y-7552943D01*
X35680633Y-7233283D01*
X35239742Y-7050209D01*
X34762353Y-7049793D01*
X34321143Y-7232097D01*
X33999735Y-7552943D01*
X33680633Y-7233283D01*
X33239742Y-7050209D01*
X32762353Y-7049793D01*
X32500173Y-7158123D01*
X32500173Y-5951960D01*
X32348253Y-5584286D01*
X32067194Y-5302736D01*
X31699785Y-5150174D01*
X31301960Y-5149827D01*
X30934286Y-5301747D01*
X30652736Y-5582806D01*
X30500174Y-5950215D01*
X30499827Y-6348040D01*
X30651747Y-6715714D01*
X30932806Y-6997264D01*
X31300215Y-7149826D01*
X31698040Y-7150173D01*
X32065714Y-6998253D01*
X32347264Y-6717194D01*
X32499826Y-6349785D01*
X32500173Y-5951960D01*
X32500173Y-7158123D01*
X32321143Y-7232097D01*
X31983283Y-7569367D01*
X31800209Y-8010258D01*
X31799793Y-8487647D01*
X31982097Y-8928857D01*
X32319367Y-9266717D01*
X32760258Y-9449791D01*
X33237647Y-9450207D01*
X33678857Y-9267903D01*
X34000264Y-8947056D01*
X34319367Y-9266717D01*
X34760258Y-9449791D01*
X35237647Y-9450207D01*
X35678857Y-9267903D01*
X36000264Y-8947056D01*
X36319367Y-9266717D01*
X36760258Y-9449791D01*
X37237647Y-9450207D01*
X37678857Y-9267903D01*
X38000264Y-8947056D01*
X38319367Y-9266717D01*
X38760258Y-9449791D01*
X39237647Y-9450207D01*
X39678857Y-9267903D01*
X40016717Y-8930633D01*
X40199791Y-8489742D01*
X40200207Y-8012353D01*
X40200207Y-23586258D01*
X40076106Y-23610944D01*
X39850147Y-23761924D01*
X39850147Y-20831666D01*
X39721015Y-20519143D01*
X39482115Y-20279826D01*
X39169817Y-20150148D01*
X38831666Y-20149853D01*
X38519143Y-20278985D01*
X38279826Y-20517885D01*
X38150148Y-20830183D01*
X38149853Y-21168334D01*
X38278985Y-21480857D01*
X38517885Y-21720174D01*
X38830183Y-21849852D01*
X39168334Y-21850147D01*
X39480857Y-21721015D01*
X39720174Y-21482115D01*
X39849852Y-21169817D01*
X39850147Y-20831666D01*
X39850147Y-23761924D01*
X39377642Y-24077642D01*
X38910944Y-24776106D01*
X38750000Y-25585226D01*
X38750000Y-25914774D01*
X38910944Y-26723894D01*
X39377642Y-27422358D01*
X40076106Y-27889056D01*
X40885226Y-28050000D01*
X41214774Y-28050000D01*
X42023894Y-27889056D01*
X42722358Y-27422358D01*
X43189056Y-26723894D01*
X43350000Y-25914774D01*
X43350000Y-32247833D01*
X43279826Y-32317885D01*
X43150148Y-32630183D01*
X43149853Y-32968334D01*
X43278985Y-33280857D01*
X43350000Y-33351995D01*
X43517885Y-33520174D01*
X43830183Y-33649852D01*
X44168334Y-33650147D01*
X44480857Y-33521015D01*
X44720174Y-33282115D01*
X44849852Y-32969817D01*
X44850147Y-32631666D01*
X44850147Y-53131329D01*
X44849853Y-53468334D01*
X44978985Y-53780857D01*
X45217885Y-54020174D01*
X45530183Y-54149852D01*
X45868334Y-54150147D01*
X46180857Y-54021015D01*
X46420174Y-53782115D01*
X46549852Y-53469817D01*
X46550147Y-53131666D01*
X46550147Y-54125442D01*
X44550147Y-54523267D01*
X44550147Y-40731666D01*
X44421015Y-40419143D01*
X44182115Y-40179826D01*
X43869817Y-40050148D01*
X43750000Y-40050043D01*
X43750147Y-39881666D01*
X43621015Y-39569143D01*
X43382115Y-39329826D01*
X43350000Y-39316490D01*
X43069817Y-39200148D01*
X42731666Y-39199853D01*
X42419143Y-39328985D01*
X42179826Y-39567885D01*
X42050148Y-39880183D01*
X42049853Y-40218334D01*
X42178985Y-40530857D01*
X42417885Y-40770174D01*
X42730183Y-40899852D01*
X42849999Y-40899956D01*
X42849853Y-41068334D01*
X42978985Y-41380857D01*
X43217885Y-41620174D01*
X43350000Y-41675033D01*
X43530183Y-41749852D01*
X43868334Y-41750147D01*
X44180857Y-41621015D01*
X44420174Y-41382115D01*
X44549852Y-41069817D01*
X44550147Y-40731666D01*
X44550147Y-54523267D01*
X44150147Y-54602832D01*
X44150147Y-48231666D01*
X44021015Y-47919143D01*
X43782115Y-47679826D01*
X43710496Y-47650087D01*
X43780857Y-47621015D01*
X44020174Y-47382115D01*
X44149852Y-47069817D01*
X44150147Y-46731666D01*
X44021015Y-46419143D01*
X43782115Y-46179826D01*
X43469817Y-46050148D01*
X43350000Y-46050043D01*
X43131666Y-46049853D01*
X42949938Y-46124941D01*
X42769817Y-46050148D01*
X42431666Y-46049853D01*
X42119143Y-46178985D01*
X41879826Y-46417885D01*
X41850147Y-46489359D01*
X41850147Y-41931666D01*
X41721015Y-41619143D01*
X41482115Y-41379826D01*
X41169817Y-41250148D01*
X40831666Y-41249853D01*
X40519143Y-41378985D01*
X40279826Y-41617885D01*
X40150148Y-41930183D01*
X40149853Y-42268334D01*
X40278985Y-42580857D01*
X40517885Y-42820174D01*
X40830183Y-42949852D01*
X41168334Y-42950147D01*
X41480857Y-42821015D01*
X41720174Y-42582115D01*
X41849852Y-42269817D01*
X41850147Y-41931666D01*
X41850147Y-46489359D01*
X41750148Y-46730183D01*
X41749853Y-47068334D01*
X41878985Y-47380857D01*
X42117885Y-47620174D01*
X42189503Y-47649912D01*
X42119143Y-47678985D01*
X41879826Y-47917885D01*
X41750148Y-48230183D01*
X41749853Y-48568334D01*
X41878985Y-48880857D01*
X42117885Y-49120174D01*
X42209684Y-49158292D01*
X42049428Y-49224509D01*
X41725646Y-49547727D01*
X41550200Y-49970247D01*
X41550147Y-50031017D01*
X41550147Y-45631666D01*
X41421015Y-45319143D01*
X41182115Y-45079826D01*
X40869817Y-44950148D01*
X40531666Y-44949853D01*
X40219143Y-45078985D01*
X39979826Y-45317885D01*
X39850148Y-45630183D01*
X39849853Y-45968334D01*
X39978985Y-46280857D01*
X40217885Y-46520174D01*
X40530183Y-46649852D01*
X40868334Y-46650147D01*
X41180857Y-46521015D01*
X41420174Y-46282115D01*
X41549852Y-45969817D01*
X41550147Y-45631666D01*
X41550147Y-50031017D01*
X41549801Y-50427746D01*
X41724509Y-50850572D01*
X42047727Y-51174354D01*
X42470247Y-51349800D01*
X42927746Y-51350199D01*
X43350000Y-51175727D01*
X43350572Y-51175491D01*
X43674354Y-50852273D01*
X43849800Y-50429753D01*
X43850199Y-49972254D01*
X43675491Y-49549428D01*
X43376651Y-49250067D01*
X43468334Y-49250147D01*
X43780857Y-49121015D01*
X44020174Y-48882115D01*
X44149852Y-48569817D01*
X44150147Y-48231666D01*
X44150147Y-54602832D01*
X43769765Y-54678495D01*
X43571501Y-54760618D01*
X43571497Y-54760621D01*
X43350000Y-54908621D01*
X41050147Y-56445334D01*
X41050147Y-55131666D01*
X40921015Y-54819143D01*
X40682115Y-54579826D01*
X40369817Y-54450148D01*
X40031666Y-54449853D01*
X39719143Y-54578985D01*
X39479826Y-54817885D01*
X39350148Y-55130183D01*
X39349853Y-55468334D01*
X39478985Y-55780857D01*
X39717885Y-56020174D01*
X40030183Y-56149852D01*
X40368334Y-56150147D01*
X40680857Y-56021015D01*
X40920174Y-55782115D01*
X41049852Y-55469817D01*
X41050147Y-55131666D01*
X41050147Y-56445334D01*
X38650147Y-58048963D01*
X38650147Y-49031666D01*
X38521015Y-48719143D01*
X38350147Y-48547976D01*
X38350147Y-24331666D01*
X38221015Y-24019143D01*
X37982115Y-23779826D01*
X37669817Y-23650148D01*
X37331666Y-23649853D01*
X37019143Y-23778985D01*
X36779826Y-24017885D01*
X36650148Y-24330183D01*
X36649853Y-24668334D01*
X36778985Y-24980857D01*
X37017885Y-25220174D01*
X37330183Y-25349852D01*
X37668334Y-25350147D01*
X37980857Y-25221015D01*
X38220174Y-24982115D01*
X38349852Y-24669817D01*
X38350147Y-24331666D01*
X38350147Y-48547976D01*
X38282115Y-48479826D01*
X37969817Y-48350148D01*
X37750147Y-48349956D01*
X37750147Y-43431666D01*
X37621015Y-43119143D01*
X37382115Y-42879826D01*
X37069817Y-42750148D01*
X36731666Y-42749853D01*
X36419143Y-42878985D01*
X36179826Y-43117885D01*
X36050148Y-43430183D01*
X36049853Y-43768334D01*
X36178985Y-44080857D01*
X36417885Y-44320174D01*
X36730183Y-44449852D01*
X37068334Y-44450147D01*
X37380857Y-44321015D01*
X37620174Y-44082115D01*
X37749852Y-43769817D01*
X37750147Y-43431666D01*
X37750147Y-48349956D01*
X37631666Y-48349853D01*
X37319143Y-48478985D01*
X37079826Y-48717885D01*
X36950148Y-49030183D01*
X36949853Y-49368334D01*
X37078985Y-49680857D01*
X37317885Y-49920174D01*
X37630183Y-50049852D01*
X37968334Y-50050147D01*
X38280857Y-49921015D01*
X38520174Y-49682115D01*
X38649852Y-49369817D01*
X38650147Y-49031666D01*
X38650147Y-58048963D01*
X38380728Y-58228984D01*
X38228983Y-58380728D01*
X38228980Y-58380734D01*
X35150147Y-62988531D01*
X35150147Y-47131666D01*
X35021015Y-46819143D01*
X34782115Y-46579826D01*
X34469817Y-46450148D01*
X34131666Y-46449853D01*
X33819143Y-46578985D01*
X33579826Y-46817885D01*
X33450148Y-47130183D01*
X33449853Y-47468334D01*
X33578985Y-47780857D01*
X33817885Y-48020174D01*
X34130183Y-48149852D01*
X34468334Y-48150147D01*
X34780857Y-48021015D01*
X35020174Y-47782115D01*
X35149852Y-47469817D01*
X35150147Y-47131666D01*
X35150147Y-62988531D01*
X34760619Y-63571501D01*
X34760618Y-63571502D01*
X34712511Y-63687642D01*
X34678495Y-63769765D01*
X34678495Y-63769766D01*
X33667973Y-68850000D01*
X33500173Y-68850000D01*
X33500173Y-63651960D01*
X33450147Y-63530887D01*
X33450147Y-57931666D01*
X33321015Y-57619143D01*
X33082115Y-57379826D01*
X32769817Y-57250148D01*
X32450147Y-57249869D01*
X32450147Y-24831666D01*
X32321015Y-24519143D01*
X32082115Y-24279826D01*
X31769817Y-24150148D01*
X31431666Y-24149853D01*
X31119143Y-24278985D01*
X30879826Y-24517885D01*
X30750148Y-24830183D01*
X30749853Y-25168334D01*
X30878985Y-25480857D01*
X31117885Y-25720174D01*
X31430183Y-25849852D01*
X31768334Y-25850147D01*
X32080857Y-25721015D01*
X32320174Y-25482115D01*
X32449852Y-25169817D01*
X32450147Y-24831666D01*
X32450147Y-57249869D01*
X32431666Y-57249853D01*
X32250147Y-57324855D01*
X32250147Y-31431666D01*
X32121015Y-31119143D01*
X31882115Y-30879826D01*
X31569817Y-30750148D01*
X31231666Y-30749853D01*
X30919143Y-30878985D01*
X30679826Y-31117885D01*
X30550148Y-31430183D01*
X30549853Y-31768334D01*
X30678985Y-32080857D01*
X30917885Y-32320174D01*
X31230183Y-32449852D01*
X31568334Y-32450147D01*
X31880857Y-32321015D01*
X32120174Y-32082115D01*
X32249852Y-31769817D01*
X32250147Y-31431666D01*
X32250147Y-57324855D01*
X32119143Y-57378985D01*
X31879826Y-57617885D01*
X31750148Y-57930183D01*
X31749853Y-58268334D01*
X31878985Y-58580857D01*
X32117885Y-58820174D01*
X32430183Y-58949852D01*
X32768334Y-58950147D01*
X33080857Y-58821015D01*
X33320174Y-58582115D01*
X33449852Y-58269817D01*
X33450147Y-57931666D01*
X33450147Y-63530887D01*
X33348253Y-63284286D01*
X33067194Y-63002736D01*
X32699785Y-62850174D01*
X32407923Y-62849919D01*
X32407923Y-61985171D01*
X32390748Y-61428481D01*
X32210755Y-60993942D01*
X31962350Y-60929071D01*
X31820929Y-61070492D01*
X31820929Y-60787650D01*
X31756058Y-60539245D01*
X31235171Y-60342077D01*
X30678481Y-60359252D01*
X30243942Y-60539245D01*
X30179071Y-60787650D01*
X31000000Y-61608579D01*
X31820929Y-60787650D01*
X31820929Y-61070492D01*
X31141421Y-61750000D01*
X31962350Y-62570929D01*
X32210755Y-62506058D01*
X32407923Y-61985171D01*
X32407923Y-62849919D01*
X32301960Y-62849827D01*
X31934286Y-63001747D01*
X31820929Y-63114906D01*
X31820929Y-62712350D01*
X31000000Y-61891421D01*
X30858579Y-62032842D01*
X30858579Y-61750000D01*
X30287288Y-61178709D01*
X30210755Y-60993942D01*
X30064265Y-60955686D01*
X30037650Y-60929071D01*
X30000000Y-60938903D01*
X29962350Y-60929071D01*
X29935734Y-60955686D01*
X29820929Y-60985667D01*
X29820929Y-60787650D01*
X29756058Y-60539245D01*
X29235171Y-60342077D01*
X28678481Y-60359252D01*
X28243942Y-60539245D01*
X28179071Y-60787650D01*
X29000000Y-61608579D01*
X29820929Y-60787650D01*
X29820929Y-60985667D01*
X29789245Y-60993942D01*
X29723322Y-61168098D01*
X29141421Y-61750000D01*
X29712711Y-62321290D01*
X29789245Y-62506058D01*
X29935734Y-62544313D01*
X29962350Y-62570929D01*
X30000000Y-62561096D01*
X30037650Y-62570929D01*
X30064265Y-62544313D01*
X30210755Y-62506058D01*
X30276677Y-62331901D01*
X30858579Y-61750000D01*
X30858579Y-62032842D01*
X30179071Y-62712350D01*
X30243942Y-62960755D01*
X30764829Y-63157923D01*
X31321519Y-63140748D01*
X31756058Y-62960755D01*
X31820929Y-62712350D01*
X31820929Y-63114906D01*
X31652736Y-63282806D01*
X31500174Y-63650215D01*
X31499827Y-64048040D01*
X31651747Y-64415714D01*
X31932806Y-64697264D01*
X32300215Y-64849826D01*
X32698040Y-64850173D01*
X33065714Y-64698253D01*
X33347264Y-64417194D01*
X33499826Y-64049785D01*
X33500173Y-63651960D01*
X33500173Y-68850000D01*
X29820929Y-68850000D01*
X29820929Y-62712350D01*
X29000000Y-61891421D01*
X28858579Y-62032842D01*
X28858579Y-61750000D01*
X28037650Y-60929071D01*
X27909489Y-60962540D01*
X27680633Y-60733283D01*
X27650147Y-60720624D01*
X27650147Y-49031666D01*
X27521015Y-48719143D01*
X27350147Y-48547976D01*
X27350147Y-33331666D01*
X27350147Y-22531666D01*
X27350147Y-11531666D01*
X27221015Y-11219143D01*
X26982115Y-10979826D01*
X26669817Y-10850148D01*
X26331666Y-10849853D01*
X26019143Y-10978985D01*
X25779826Y-11217885D01*
X25650148Y-11530183D01*
X25649853Y-11868334D01*
X25778985Y-12180857D01*
X26017885Y-12420174D01*
X26330183Y-12549852D01*
X26668334Y-12550147D01*
X26980857Y-12421015D01*
X27220174Y-12182115D01*
X27349852Y-11869817D01*
X27350147Y-11531666D01*
X27350147Y-22531666D01*
X27221015Y-22219143D01*
X26982115Y-21979826D01*
X26669817Y-21850148D01*
X26331666Y-21849853D01*
X26019143Y-21978985D01*
X25779826Y-22217885D01*
X25650148Y-22530183D01*
X25649853Y-22868334D01*
X25778985Y-23180857D01*
X26017885Y-23420174D01*
X26330183Y-23549852D01*
X26668334Y-23550147D01*
X26980857Y-23421015D01*
X27220174Y-23182115D01*
X27349852Y-22869817D01*
X27350147Y-22531666D01*
X27350147Y-33331666D01*
X27221015Y-33019143D01*
X26982115Y-32779826D01*
X26669817Y-32650148D01*
X26331666Y-32649853D01*
X26019143Y-32778985D01*
X25779826Y-33017885D01*
X25650148Y-33330183D01*
X25649853Y-33668334D01*
X25778985Y-33980857D01*
X26017885Y-34220174D01*
X26330183Y-34349852D01*
X26668334Y-34350147D01*
X26980857Y-34221015D01*
X27220174Y-33982115D01*
X27349852Y-33669817D01*
X27350147Y-33331666D01*
X27350147Y-48547976D01*
X27282115Y-48479826D01*
X26969817Y-48350148D01*
X26750147Y-48349956D01*
X26750147Y-43431666D01*
X26621015Y-43119143D01*
X26382115Y-42879826D01*
X26069817Y-42750148D01*
X25731666Y-42749853D01*
X25419143Y-42878985D01*
X25179826Y-43117885D01*
X25050148Y-43430183D01*
X25049853Y-43768334D01*
X25178985Y-44080857D01*
X25417885Y-44320174D01*
X25730183Y-44449852D01*
X26068334Y-44450147D01*
X26380857Y-44321015D01*
X26620174Y-44082115D01*
X26749852Y-43769817D01*
X26750147Y-43431666D01*
X26750147Y-48349956D01*
X26631666Y-48349853D01*
X26319143Y-48478985D01*
X26079826Y-48717885D01*
X25950148Y-49030183D01*
X25949853Y-49368334D01*
X26078985Y-49680857D01*
X26317885Y-49920174D01*
X26630183Y-50049852D01*
X26968334Y-50050147D01*
X27280857Y-49921015D01*
X27520174Y-49682115D01*
X27649852Y-49369817D01*
X27650147Y-49031666D01*
X27650147Y-60720624D01*
X27239742Y-60550209D01*
X26762353Y-60549793D01*
X26321143Y-60732097D01*
X25999735Y-61052943D01*
X25680633Y-60733283D01*
X25239742Y-60550209D01*
X24762353Y-60549793D01*
X24321143Y-60732097D01*
X24150147Y-60902794D01*
X24150147Y-47031666D01*
X24021015Y-46719143D01*
X23782115Y-46479826D01*
X23650147Y-46425027D01*
X23650147Y-36931666D01*
X23650147Y-26131666D01*
X23550147Y-25889647D01*
X23550147Y-15131666D01*
X23421015Y-14819143D01*
X23182115Y-14579826D01*
X22869817Y-14450148D01*
X22531666Y-14449853D01*
X22219143Y-14578985D01*
X21979826Y-14817885D01*
X21850148Y-15130183D01*
X21849853Y-15468334D01*
X21978985Y-15780857D01*
X22217885Y-16020174D01*
X22530183Y-16149852D01*
X22868334Y-16150147D01*
X23180857Y-16021015D01*
X23420174Y-15782115D01*
X23549852Y-15469817D01*
X23550147Y-15131666D01*
X23550147Y-25889647D01*
X23521015Y-25819143D01*
X23282115Y-25579826D01*
X22969817Y-25450148D01*
X22631666Y-25449853D01*
X22319143Y-25578985D01*
X22079826Y-25817885D01*
X21950148Y-26130183D01*
X21949853Y-26468334D01*
X22078985Y-26780857D01*
X22317885Y-27020174D01*
X22630183Y-27149852D01*
X22968334Y-27150147D01*
X23280857Y-27021015D01*
X23520174Y-26782115D01*
X23649852Y-26469817D01*
X23650147Y-26131666D01*
X23650147Y-36931666D01*
X23521015Y-36619143D01*
X23282115Y-36379826D01*
X22969817Y-36250148D01*
X22631666Y-36249853D01*
X22319143Y-36378985D01*
X22079826Y-36617885D01*
X21950148Y-36930183D01*
X21949853Y-37268334D01*
X22078985Y-37580857D01*
X22317885Y-37820174D01*
X22630183Y-37949852D01*
X22968334Y-37950147D01*
X23280857Y-37821015D01*
X23520174Y-37582115D01*
X23649852Y-37269817D01*
X23650147Y-36931666D01*
X23650147Y-46425027D01*
X23469817Y-46350148D01*
X23131666Y-46349853D01*
X22819143Y-46478985D01*
X22579826Y-46717885D01*
X22450148Y-47030183D01*
X22449853Y-47368334D01*
X22578985Y-47680857D01*
X22817885Y-47920174D01*
X23130183Y-48049852D01*
X23468334Y-48050147D01*
X23780857Y-47921015D01*
X24020174Y-47682115D01*
X24149852Y-47369817D01*
X24150147Y-47031666D01*
X24150147Y-60902794D01*
X23983283Y-61069367D01*
X23800209Y-61510258D01*
X23799793Y-61987647D01*
X23982097Y-62428857D01*
X24319367Y-62766717D01*
X24760258Y-62949791D01*
X25237647Y-62950207D01*
X25678857Y-62767903D01*
X26000264Y-62447056D01*
X26319367Y-62766717D01*
X26760258Y-62949791D01*
X27237647Y-62950207D01*
X27678857Y-62767903D01*
X27909658Y-62537504D01*
X28037650Y-62570929D01*
X28858579Y-61750000D01*
X28858579Y-62032842D01*
X28179071Y-62712350D01*
X28243942Y-62960755D01*
X28764829Y-63157923D01*
X29321519Y-63140748D01*
X29756058Y-62960755D01*
X29820929Y-62712350D01*
X29820929Y-68850000D01*
X24500173Y-68850000D01*
X24500173Y-63651960D01*
X24348253Y-63284286D01*
X24067194Y-63002736D01*
X23699785Y-62850174D01*
X23301960Y-62849827D01*
X22934286Y-63001747D01*
X22652736Y-63282806D01*
X22500174Y-63650215D01*
X22500172Y-63651958D01*
X22450147Y-63530888D01*
X22450147Y-57931666D01*
X22321015Y-57619143D01*
X22082115Y-57379826D01*
X21769817Y-57250148D01*
X21431666Y-57249853D01*
X21119143Y-57378985D01*
X20879826Y-57617885D01*
X20750148Y-57930183D01*
X20749853Y-58268334D01*
X20878985Y-58580857D01*
X21117885Y-58820174D01*
X21430183Y-58949852D01*
X21768334Y-58950147D01*
X22080857Y-58821015D01*
X22320174Y-58582115D01*
X22449852Y-58269817D01*
X22450147Y-57931666D01*
X22450147Y-63530888D01*
X22348253Y-63284286D01*
X22067194Y-63002736D01*
X21699785Y-62850174D01*
X21407923Y-62849919D01*
X21407923Y-61985171D01*
X21390748Y-61428481D01*
X21210755Y-60993942D01*
X20962350Y-60929071D01*
X20820929Y-61070492D01*
X20820929Y-60787650D01*
X20756058Y-60539245D01*
X20235171Y-60342077D01*
X19678481Y-60359252D01*
X19243942Y-60539245D01*
X19179071Y-60787650D01*
X20000000Y-61608579D01*
X20820929Y-60787650D01*
X20820929Y-61070492D01*
X20141421Y-61750000D01*
X20962350Y-62570929D01*
X21210755Y-62506058D01*
X21407923Y-61985171D01*
X21407923Y-62849919D01*
X21301960Y-62849827D01*
X20934286Y-63001747D01*
X20820929Y-63114906D01*
X20820929Y-62712350D01*
X20000000Y-61891421D01*
X19858579Y-62032842D01*
X19858579Y-61750000D01*
X19287288Y-61178709D01*
X19210755Y-60993942D01*
X19064265Y-60955686D01*
X19037650Y-60929071D01*
X19000000Y-60938903D01*
X18962350Y-60929071D01*
X18935734Y-60955686D01*
X18850147Y-60978037D01*
X18850147Y-24331666D01*
X18850147Y-13231666D01*
X18721015Y-12919143D01*
X18482115Y-12679826D01*
X18169817Y-12550148D01*
X17831666Y-12549853D01*
X17519143Y-12678985D01*
X17279826Y-12917885D01*
X17150148Y-13230183D01*
X17149853Y-13568334D01*
X17278985Y-13880857D01*
X17517885Y-14120174D01*
X17830183Y-14249852D01*
X18168334Y-14250147D01*
X18480857Y-14121015D01*
X18720174Y-13882115D01*
X18849852Y-13569817D01*
X18850147Y-13231666D01*
X18850147Y-24331666D01*
X18721015Y-24019143D01*
X18482115Y-23779826D01*
X18169817Y-23650148D01*
X17831666Y-23649853D01*
X17519143Y-23778985D01*
X17279826Y-24017885D01*
X17150148Y-24330183D01*
X17150147Y-24331329D01*
X17150147Y-19831666D01*
X17050147Y-19589647D01*
X17050147Y-8831666D01*
X16921015Y-8519143D01*
X16682115Y-8279826D01*
X16369817Y-8150148D01*
X16031666Y-8149853D01*
X15719143Y-8278985D01*
X15479826Y-8517885D01*
X15350148Y-8830183D01*
X15349853Y-9168334D01*
X15478985Y-9480857D01*
X15717885Y-9720174D01*
X16030183Y-9849852D01*
X16368334Y-9850147D01*
X16680857Y-9721015D01*
X16920174Y-9482115D01*
X17049852Y-9169817D01*
X17050147Y-8831666D01*
X17050147Y-19589647D01*
X17021015Y-19519143D01*
X16782115Y-19279826D01*
X16469817Y-19150148D01*
X16131666Y-19149853D01*
X15819143Y-19278985D01*
X15579826Y-19517885D01*
X15450148Y-19830183D01*
X15449853Y-20168334D01*
X15578985Y-20480857D01*
X15817885Y-20720174D01*
X16130183Y-20849852D01*
X16468334Y-20850147D01*
X16780857Y-20721015D01*
X17020174Y-20482115D01*
X17149852Y-20169817D01*
X17150147Y-19831666D01*
X17150147Y-24331329D01*
X17149853Y-24668334D01*
X17278985Y-24980857D01*
X17517885Y-25220174D01*
X17830183Y-25349852D01*
X18168334Y-25350147D01*
X18480857Y-25221015D01*
X18720174Y-24982115D01*
X18849852Y-24669817D01*
X18850147Y-24331666D01*
X18850147Y-60978037D01*
X18820929Y-60985667D01*
X18820929Y-60787650D01*
X18756058Y-60539245D01*
X18750147Y-60537007D01*
X18750147Y-35131666D01*
X18621015Y-34819143D01*
X18382115Y-34579826D01*
X18069817Y-34450148D01*
X17731666Y-34449853D01*
X17419143Y-34578985D01*
X17179826Y-34817885D01*
X17150147Y-34889359D01*
X17150147Y-30831666D01*
X17021015Y-30519143D01*
X16782115Y-30279826D01*
X16469817Y-30150148D01*
X16131666Y-30149853D01*
X15819143Y-30278985D01*
X15579826Y-30517885D01*
X15450148Y-30830183D01*
X15449853Y-31168334D01*
X15578985Y-31480857D01*
X15817885Y-31720174D01*
X16130183Y-31849852D01*
X16468334Y-31850147D01*
X16780857Y-31721015D01*
X17020174Y-31482115D01*
X17149852Y-31169817D01*
X17150147Y-30831666D01*
X17150147Y-34889359D01*
X17050148Y-35130183D01*
X17049853Y-35468334D01*
X17178985Y-35780857D01*
X17417885Y-36020174D01*
X17730183Y-36149852D01*
X18068334Y-36150147D01*
X18380857Y-36021015D01*
X18620174Y-35782115D01*
X18749852Y-35469817D01*
X18750147Y-35131666D01*
X18750147Y-60537007D01*
X18235171Y-60342077D01*
X17678481Y-60359252D01*
X17243942Y-60539245D01*
X17179071Y-60787650D01*
X18000000Y-61608579D01*
X18820929Y-60787650D01*
X18820929Y-60985667D01*
X18789245Y-60993942D01*
X18723322Y-61168098D01*
X18141421Y-61750000D01*
X18712711Y-62321290D01*
X18789245Y-62506058D01*
X18935734Y-62544313D01*
X18962350Y-62570929D01*
X19000000Y-62561096D01*
X19037650Y-62570929D01*
X19064265Y-62544313D01*
X19210755Y-62506058D01*
X19276677Y-62331901D01*
X19858579Y-61750000D01*
X19858579Y-62032842D01*
X19179071Y-62712350D01*
X19243942Y-62960755D01*
X19764829Y-63157923D01*
X20321519Y-63140748D01*
X20756058Y-62960755D01*
X20820929Y-62712350D01*
X20820929Y-63114906D01*
X20652736Y-63282806D01*
X20500174Y-63650215D01*
X20499827Y-64048040D01*
X20651747Y-64415714D01*
X20932806Y-64697264D01*
X21300215Y-64849826D01*
X21698040Y-64850173D01*
X22065714Y-64698253D01*
X22347264Y-64417194D01*
X22499826Y-64049785D01*
X22499827Y-64048041D01*
X22651747Y-64415714D01*
X22932806Y-64697264D01*
X23300215Y-64849826D01*
X23698040Y-64850173D01*
X24065714Y-64698253D01*
X24347264Y-64417194D01*
X24499826Y-64049785D01*
X24500173Y-63651960D01*
X24500173Y-68850000D01*
X18820929Y-68850000D01*
X18820929Y-62712350D01*
X18000000Y-61891421D01*
X17858579Y-62032842D01*
X17858579Y-61750000D01*
X17037650Y-60929071D01*
X16909489Y-60962540D01*
X16680633Y-60733283D01*
X16650147Y-60720624D01*
X16650147Y-49131666D01*
X16521015Y-48819143D01*
X16282115Y-48579826D01*
X15969817Y-48450148D01*
X15750147Y-48449956D01*
X15750147Y-43431666D01*
X15621015Y-43119143D01*
X15382115Y-42879826D01*
X15069817Y-42750148D01*
X14731666Y-42749853D01*
X14419143Y-42878985D01*
X14179826Y-43117885D01*
X14050148Y-43430183D01*
X14049853Y-43768334D01*
X14178985Y-44080857D01*
X14417885Y-44320174D01*
X14730183Y-44449852D01*
X15068334Y-44450147D01*
X15380857Y-44321015D01*
X15620174Y-44082115D01*
X15749852Y-43769817D01*
X15750147Y-43431666D01*
X15750147Y-48449956D01*
X15631666Y-48449853D01*
X15319143Y-48578985D01*
X15079826Y-48817885D01*
X14950148Y-49130183D01*
X14949853Y-49468334D01*
X15078985Y-49780857D01*
X15317885Y-50020174D01*
X15630183Y-50149852D01*
X15968334Y-50150147D01*
X16280857Y-50021015D01*
X16520174Y-49782115D01*
X16649852Y-49469817D01*
X16650147Y-49131666D01*
X16650147Y-60720624D01*
X16239742Y-60550209D01*
X15762353Y-60549793D01*
X15321143Y-60732097D01*
X14999735Y-61052943D01*
X14680633Y-60733283D01*
X14239742Y-60550209D01*
X13762353Y-60549793D01*
X13321143Y-60732097D01*
X13050147Y-61002619D01*
X13050147Y-46931666D01*
X12921015Y-46619143D01*
X12682115Y-46379826D01*
X12369817Y-46250148D01*
X12031666Y-46249853D01*
X11719143Y-46378985D01*
X11479826Y-46617885D01*
X11350148Y-46930183D01*
X11349853Y-47268334D01*
X11478985Y-47580857D01*
X11717885Y-47820174D01*
X12030183Y-47949852D01*
X12368334Y-47950147D01*
X12680857Y-47821015D01*
X12920174Y-47582115D01*
X13049852Y-47269817D01*
X13050147Y-46931666D01*
X13050147Y-61002619D01*
X12983283Y-61069367D01*
X12800209Y-61510258D01*
X12799793Y-61987647D01*
X12982097Y-62428857D01*
X13319367Y-62766717D01*
X13760258Y-62949791D01*
X14237647Y-62950207D01*
X14678857Y-62767903D01*
X15000264Y-62447056D01*
X15319367Y-62766717D01*
X15760258Y-62949791D01*
X16237647Y-62950207D01*
X16678857Y-62767903D01*
X16909658Y-62537504D01*
X17037650Y-62570929D01*
X17858579Y-61750000D01*
X17858579Y-62032842D01*
X17179071Y-62712350D01*
X17243942Y-62960755D01*
X17764829Y-63157923D01*
X18321519Y-63140748D01*
X18756058Y-62960755D01*
X18820929Y-62712350D01*
X18820929Y-68850000D01*
X13500173Y-68850000D01*
X13500173Y-63651960D01*
X13348253Y-63284286D01*
X13067194Y-63002736D01*
X12699785Y-62850174D01*
X12301960Y-62849827D01*
X11934286Y-63001747D01*
X11652736Y-63282806D01*
X11500174Y-63650215D01*
X11500172Y-63651958D01*
X11450147Y-63530888D01*
X11450147Y-57931666D01*
X11321015Y-57619143D01*
X11082115Y-57379826D01*
X10769817Y-57250148D01*
X10431666Y-57249853D01*
X10119143Y-57378985D01*
X9879826Y-57617885D01*
X9750148Y-57930183D01*
X9749853Y-58268334D01*
X9878985Y-58580857D01*
X10117885Y-58820174D01*
X10430183Y-58949852D01*
X10768334Y-58950147D01*
X11080857Y-58821015D01*
X11320174Y-58582115D01*
X11449852Y-58269817D01*
X11450147Y-57931666D01*
X11450147Y-63530888D01*
X11348253Y-63284286D01*
X11067194Y-63002736D01*
X10699785Y-62850174D01*
X10407923Y-62849919D01*
X10407923Y-61985171D01*
X10390748Y-61428481D01*
X10210755Y-60993942D01*
X9962350Y-60929071D01*
X9820929Y-61070492D01*
X9820929Y-60787650D01*
X9756058Y-60539245D01*
X9400207Y-60404547D01*
X9400207Y-36762353D01*
X9217903Y-36321143D01*
X8897056Y-35999735D01*
X9216717Y-35680633D01*
X9399791Y-35239742D01*
X9400207Y-34762353D01*
X9400207Y-28762353D01*
X9217903Y-28321143D01*
X8897056Y-27999735D01*
X9216717Y-27680633D01*
X9399791Y-27239742D01*
X9400207Y-26762353D01*
X9400207Y-20762353D01*
X9217903Y-20321143D01*
X8897056Y-19999735D01*
X9216717Y-19680633D01*
X9399791Y-19239742D01*
X9400207Y-18762353D01*
X9217903Y-18321143D01*
X8880633Y-17983283D01*
X8439742Y-17800209D01*
X7962353Y-17799793D01*
X7521143Y-17982097D01*
X7183283Y-18319367D01*
X7100173Y-18519518D01*
X7100173Y-17301960D01*
X6948253Y-16934286D01*
X6667194Y-16652736D01*
X6299785Y-16500174D01*
X5901960Y-16499827D01*
X5534286Y-16651747D01*
X5252736Y-16932806D01*
X5100174Y-17300215D01*
X5099827Y-17698040D01*
X5251747Y-18065714D01*
X5532806Y-18347264D01*
X5900215Y-18499826D01*
X6298040Y-18500173D01*
X6665714Y-18348253D01*
X6947264Y-18067194D01*
X7099826Y-17699785D01*
X7100173Y-17301960D01*
X7100173Y-18519518D01*
X7000209Y-18760258D01*
X6999793Y-19237647D01*
X7182097Y-19678857D01*
X7502943Y-20000264D01*
X7183283Y-20319367D01*
X7000209Y-20760258D01*
X6999793Y-21237647D01*
X7182097Y-21678857D01*
X7519367Y-22016717D01*
X7960258Y-22199791D01*
X8437647Y-22200207D01*
X8878857Y-22017903D01*
X9216717Y-21680633D01*
X9399791Y-21239742D01*
X9400207Y-20762353D01*
X9400207Y-26762353D01*
X9217903Y-26321143D01*
X8880633Y-25983283D01*
X8439742Y-25800209D01*
X7962353Y-25799793D01*
X7521143Y-25982097D01*
X7183283Y-26319367D01*
X7100173Y-26519518D01*
X7100173Y-25301960D01*
X7100173Y-22301960D01*
X6948253Y-21934286D01*
X6667194Y-21652736D01*
X6299785Y-21500174D01*
X5901960Y-21499827D01*
X5534286Y-21651747D01*
X5252736Y-21932806D01*
X5100174Y-22300215D01*
X5099827Y-22698040D01*
X5251747Y-23065714D01*
X5532806Y-23347264D01*
X5900215Y-23499826D01*
X6298040Y-23500173D01*
X6665714Y-23348253D01*
X6947264Y-23067194D01*
X7099826Y-22699785D01*
X7100173Y-22301960D01*
X7100173Y-25301960D01*
X6948253Y-24934286D01*
X6667194Y-24652736D01*
X6299785Y-24500174D01*
X5901960Y-24499827D01*
X5534286Y-24651747D01*
X5252736Y-24932806D01*
X5100174Y-25300215D01*
X5099827Y-25698040D01*
X5251747Y-26065714D01*
X5532806Y-26347264D01*
X5900215Y-26499826D01*
X6298040Y-26500173D01*
X6665714Y-26348253D01*
X6947264Y-26067194D01*
X7099826Y-25699785D01*
X7100173Y-25301960D01*
X7100173Y-26519518D01*
X7000209Y-26760258D01*
X6999793Y-27237647D01*
X7182097Y-27678857D01*
X7502943Y-28000264D01*
X7183283Y-28319367D01*
X7000209Y-28760258D01*
X6999793Y-29237647D01*
X7182097Y-29678857D01*
X7519367Y-30016717D01*
X7960258Y-30199791D01*
X8437647Y-30200207D01*
X8878857Y-30017903D01*
X9216717Y-29680633D01*
X9399791Y-29239742D01*
X9400207Y-28762353D01*
X9400207Y-34762353D01*
X9217903Y-34321143D01*
X8880633Y-33983283D01*
X8439742Y-33800209D01*
X7962353Y-33799793D01*
X7521143Y-33982097D01*
X7183283Y-34319367D01*
X7100173Y-34519518D01*
X7100173Y-33301960D01*
X7100173Y-30301960D01*
X6948253Y-29934286D01*
X6667194Y-29652736D01*
X6299785Y-29500174D01*
X5901960Y-29499827D01*
X5534286Y-29651747D01*
X5252736Y-29932806D01*
X5100174Y-30300215D01*
X5099827Y-30698040D01*
X5251747Y-31065714D01*
X5532806Y-31347264D01*
X5900215Y-31499826D01*
X6298040Y-31500173D01*
X6665714Y-31348253D01*
X6947264Y-31067194D01*
X7099826Y-30699785D01*
X7100173Y-30301960D01*
X7100173Y-33301960D01*
X6948253Y-32934286D01*
X6667194Y-32652736D01*
X6299785Y-32500174D01*
X5901960Y-32499827D01*
X5534286Y-32651747D01*
X5252736Y-32932806D01*
X5100174Y-33300215D01*
X5099827Y-33698040D01*
X5251747Y-34065714D01*
X5532806Y-34347264D01*
X5900215Y-34499826D01*
X6298040Y-34500173D01*
X6665714Y-34348253D01*
X6947264Y-34067194D01*
X7099826Y-33699785D01*
X7100173Y-33301960D01*
X7100173Y-34519518D01*
X7000209Y-34760258D01*
X6999793Y-35237647D01*
X7182097Y-35678857D01*
X7502943Y-36000264D01*
X7183283Y-36319367D01*
X7000209Y-36760258D01*
X6999793Y-37237647D01*
X7182097Y-37678857D01*
X7519367Y-38016717D01*
X7960258Y-38199791D01*
X8437647Y-38200207D01*
X8878857Y-38017903D01*
X9216717Y-37680633D01*
X9399791Y-37239742D01*
X9400207Y-36762353D01*
X9400207Y-60404547D01*
X9235171Y-60342077D01*
X8678481Y-60359252D01*
X8243942Y-60539245D01*
X8179071Y-60787650D01*
X9000000Y-61608579D01*
X9820929Y-60787650D01*
X9820929Y-61070492D01*
X9141421Y-61750000D01*
X9962350Y-62570929D01*
X10210755Y-62506058D01*
X10407923Y-61985171D01*
X10407923Y-62849919D01*
X10301960Y-62849827D01*
X9934286Y-63001747D01*
X9820929Y-63114906D01*
X9820929Y-62712350D01*
X9000000Y-61891421D01*
X8858579Y-62032842D01*
X8858579Y-61750000D01*
X8287288Y-61178709D01*
X8210755Y-60993942D01*
X8064265Y-60955686D01*
X8037650Y-60929071D01*
X8000000Y-60938903D01*
X7962350Y-60929071D01*
X7935734Y-60955686D01*
X7820929Y-60985667D01*
X7820929Y-60787650D01*
X7756058Y-60539245D01*
X7235171Y-60342077D01*
X6678481Y-60359252D01*
X6243942Y-60539245D01*
X6179071Y-60787650D01*
X7000000Y-61608579D01*
X7820929Y-60787650D01*
X7820929Y-60985667D01*
X7789245Y-60993942D01*
X7723322Y-61168098D01*
X7141421Y-61750000D01*
X7712711Y-62321290D01*
X7789245Y-62506058D01*
X7935734Y-62544313D01*
X7962350Y-62570929D01*
X8000000Y-62561096D01*
X8037650Y-62570929D01*
X8064265Y-62544313D01*
X8210755Y-62506058D01*
X8276677Y-62331901D01*
X8858579Y-61750000D01*
X8858579Y-62032842D01*
X8179071Y-62712350D01*
X8243942Y-62960755D01*
X8764829Y-63157923D01*
X9321519Y-63140748D01*
X9756058Y-62960755D01*
X9820929Y-62712350D01*
X9820929Y-63114906D01*
X9652736Y-63282806D01*
X9500174Y-63650215D01*
X9499827Y-64048040D01*
X9651747Y-64415714D01*
X9932806Y-64697264D01*
X10300215Y-64849826D01*
X10698040Y-64850173D01*
X11065714Y-64698253D01*
X11347264Y-64417194D01*
X11499826Y-64049785D01*
X11499827Y-64048041D01*
X11651747Y-64415714D01*
X11932806Y-64697264D01*
X12300215Y-64849826D01*
X12698040Y-64850173D01*
X13065714Y-64698253D01*
X13347264Y-64417194D01*
X13499826Y-64049785D01*
X13500173Y-63651960D01*
X13500173Y-68850000D01*
X7820929Y-68850000D01*
X7820929Y-62712350D01*
X7000000Y-61891421D01*
X6858579Y-62032842D01*
X6858579Y-61750000D01*
X6037650Y-60929071D01*
X5909489Y-60962540D01*
X5680633Y-60733283D01*
X5239742Y-60550209D01*
X4762353Y-60549793D01*
X4321143Y-60732097D01*
X3999735Y-61052943D01*
X3680633Y-60733283D01*
X3239742Y-60550209D01*
X2762353Y-60549793D01*
X2321143Y-60732097D01*
X1983283Y-61069367D01*
X1800209Y-61510258D01*
X1799793Y-61987647D01*
X1982097Y-62428857D01*
X2319367Y-62766717D01*
X2760258Y-62949791D01*
X3237647Y-62950207D01*
X3678857Y-62767903D01*
X4000264Y-62447056D01*
X4319367Y-62766717D01*
X4760258Y-62949791D01*
X5237647Y-62950207D01*
X5678857Y-62767903D01*
X5909658Y-62537504D01*
X6037650Y-62570929D01*
X6858579Y-61750000D01*
X6858579Y-62032842D01*
X6179071Y-62712350D01*
X6243942Y-62960755D01*
X6764829Y-63157923D01*
X7321519Y-63140748D01*
X7756058Y-62960755D01*
X7820929Y-62712350D01*
X7820929Y-68850000D01*
X3014774Y-68850000D01*
X2293160Y-68706462D01*
X1693930Y-68306070D01*
X1293538Y-67706840D01*
X1150000Y-66985226D01*
X1150000Y-64787451D01*
X1300215Y-64849826D01*
X1698040Y-64850173D01*
X2065714Y-64698253D01*
X2347264Y-64417194D01*
X2499826Y-64049785D01*
X2500173Y-63651960D01*
X2348253Y-63284286D01*
X2067194Y-63002736D01*
X1699785Y-62850174D01*
X1301960Y-62849827D01*
X1150000Y-62912615D01*
X1150000Y-49852756D01*
X1273527Y-50151715D01*
X2243181Y-51123062D01*
X3510742Y-51649399D01*
X4883237Y-51650597D01*
X6151715Y-51126473D01*
X7123062Y-50156819D01*
X7649399Y-48889258D01*
X7650597Y-47516763D01*
X7126473Y-46248285D01*
X7100173Y-46221939D01*
X7100173Y-38301960D01*
X6948253Y-37934286D01*
X6667194Y-37652736D01*
X6299785Y-37500174D01*
X5901960Y-37499827D01*
X5534286Y-37651747D01*
X5252736Y-37932806D01*
X5100174Y-38300215D01*
X5099827Y-38698040D01*
X5251747Y-39065714D01*
X5532806Y-39347264D01*
X5900215Y-39499826D01*
X6298040Y-39500173D01*
X6665714Y-39348253D01*
X6947264Y-39067194D01*
X7099826Y-38699785D01*
X7100173Y-38301960D01*
X7100173Y-46221939D01*
X6156819Y-45276938D01*
X4889258Y-44750601D01*
X3516763Y-44749403D01*
X2248285Y-45273527D01*
X1276938Y-46243181D01*
X1150000Y-46548881D01*
X1150000Y-13941859D01*
X4419905Y-11943838D01*
X4350601Y-12110742D01*
X4349403Y-13483237D01*
X4873527Y-14751715D01*
X5843181Y-15723062D01*
X7110742Y-16249399D01*
X8483237Y-16250597D01*
X9751715Y-15726473D01*
X10723062Y-14756819D01*
X11249399Y-13489258D01*
X11250597Y-12116763D01*
X10726473Y-10848285D01*
X9756819Y-9876938D01*
X8593253Y-9393783D01*
X22084798Y-1150000D01*
X25431280Y-1150000D01*
X24648285Y-1473527D01*
X23676938Y-2443181D01*
X23150601Y-3710742D01*
X23149403Y-5083237D01*
X23673527Y-6351715D01*
X24643181Y-7323062D01*
X25910742Y-7849399D01*
X27283237Y-7850597D01*
X28551715Y-7326473D01*
X29523062Y-6356819D01*
X30049399Y-5089258D01*
X30050597Y-3716763D01*
X29526473Y-2448285D01*
X28556819Y-1476938D01*
X27769464Y-1150000D01*
X74547243Y-1150000D01*
X74248285Y-1273527D01*
X73276938Y-2243181D01*
X72750601Y-3510742D01*
X72749403Y-4883237D01*
X73273527Y-6151715D01*
X74243181Y-7123062D01*
X75510742Y-7649399D01*
X76883237Y-7650597D01*
X78151715Y-7126473D01*
X79123062Y-6156819D01*
X79649399Y-4889258D01*
X79650597Y-3516763D01*
X79126473Y-2248285D01*
X78347405Y-1467857D01*
X95359509Y-11862819D01*
X95089258Y-11750601D01*
X93716763Y-11749403D01*
X92448285Y-12273527D01*
X91476938Y-13243181D01*
X90950601Y-14510742D01*
X90949403Y-15883237D01*
X91473527Y-17151715D01*
X92443181Y-18123062D01*
X93710742Y-18649399D01*
X95083237Y-18650597D01*
X96351715Y-18126473D01*
X97323062Y-17156819D01*
X97849399Y-15889258D01*
X97850597Y-14516763D01*
X97326473Y-13248285D01*
X96856599Y-12777590D01*
X98850000Y-13995625D01*
X98850000Y-64715318D01*
M02*
