%FSLAX46Y46*%
G04 Gerber Fmt 4.6, Leading zero omitted, Abs format (unit mm)*
G04 Created by KiCad (PCBNEW (2014-jul-16 BZR unknown)-product) date Fri 01 Aug 2014 00:40:55 BST*
%MOMM*%
G01*
G04 APERTURE LIST*
%ADD10C,0.100000*%
%ADD11C,0.250000*%
%ADD12C,0.200000*%
%ADD13C,0.300000*%
%ADD14C,0.150000*%
%ADD15C,0.127000*%
%ADD16R,1.200000X1.700000*%
%ADD17R,1.700000X1.200000*%
%ADD18R,0.500000X0.600000*%
%ADD19R,0.800000X0.800000*%
%ADD20R,0.600000X0.500000*%
%ADD21R,0.700000X1.000000*%
%ADD22R,1.000000X0.700000*%
%ADD23R,0.965200X1.270000*%
%ADD24R,1.400000X0.400000*%
%ADD25R,1.200000X0.300000*%
%ADD26R,0.300000X1.200000*%
%ADD27R,0.400000X0.800000*%
%ADD28R,1.545000X0.550000*%
%ADD29R,0.550000X1.545000*%
%ADD30R,1.500000X0.600000*%
%ADD31R,0.800000X0.300000*%
%ADD32R,0.300000X0.800000*%
%ADD33R,0.600000X2.200000*%
%ADD34R,0.400000X1.400000*%
%ADD35C,1.016000*%
%ADD36R,3.200000X3.700000*%
%ADD37C,1.000000*%
%ADD38R,1.000000X0.800000*%
%ADD39R,2.300000X2.500000*%
%ADD40C,6.300000*%
%ADD41C,0.600000*%
%ADD42C,1.500000*%
%ADD43C,1.100000*%
%ADD44R,1.100000X0.700000*%
%ADD45R,1.830000X1.140000*%
%ADD46R,2.800000X0.860000*%
%ADD47R,3.330000X0.700000*%
%ADD48R,0.930000X0.900000*%
%ADD49R,0.780000X1.050000*%
G04 APERTURE END LIST*
D10*
D11*
X32190476Y-29166667D02*
X32666667Y-29166667D01*
X32095238Y-29452381D02*
X32428571Y-28452381D01*
X32761905Y-29452381D01*
X33095238Y-29452381D02*
X33095238Y-28452381D01*
X33666667Y-29452381D01*
X33666667Y-28452381D01*
X34095238Y-29166667D02*
X34571429Y-29166667D01*
X34000000Y-29452381D02*
X34333333Y-28452381D01*
X34666667Y-29452381D01*
X35476191Y-29452381D02*
X35000000Y-29452381D01*
X35000000Y-28452381D01*
X36000000Y-28452381D02*
X36190477Y-28452381D01*
X36285715Y-28500000D01*
X36380953Y-28595238D01*
X36428572Y-28785714D01*
X36428572Y-29119048D01*
X36380953Y-29309524D01*
X36285715Y-29404762D01*
X36190477Y-29452381D01*
X36000000Y-29452381D01*
X35904762Y-29404762D01*
X35809524Y-29309524D01*
X35761905Y-29119048D01*
X35761905Y-28785714D01*
X35809524Y-28595238D01*
X35904762Y-28500000D01*
X36000000Y-28452381D01*
X37380953Y-28500000D02*
X37285715Y-28452381D01*
X37142858Y-28452381D01*
X37000000Y-28500000D01*
X36904762Y-28595238D01*
X36857143Y-28690476D01*
X36809524Y-28880952D01*
X36809524Y-29023810D01*
X36857143Y-29214286D01*
X36904762Y-29309524D01*
X37000000Y-29404762D01*
X37142858Y-29452381D01*
X37238096Y-29452381D01*
X37380953Y-29404762D01*
X37428572Y-29357143D01*
X37428572Y-29023810D01*
X37238096Y-29023810D01*
X34342857Y-27052381D02*
X34961905Y-27052381D01*
X34628571Y-27433333D01*
X34771429Y-27433333D01*
X34866667Y-27480952D01*
X34914286Y-27528571D01*
X34961905Y-27623810D01*
X34961905Y-27861905D01*
X34914286Y-27957143D01*
X34866667Y-28004762D01*
X34771429Y-28052381D01*
X34485714Y-28052381D01*
X34390476Y-28004762D01*
X34342857Y-27957143D01*
X35247619Y-27052381D02*
X35580952Y-28052381D01*
X35914286Y-27052381D01*
D12*
X66682843Y-1900000D02*
G75*
G03X66682843Y-1900000I-282843J0D01*
G74*
G01*
D11*
X78238095Y-20952381D02*
X78238095Y-20285714D01*
X78238095Y-20476190D02*
X78285714Y-20380952D01*
X78333333Y-20333333D01*
X78428571Y-20285714D01*
X78523810Y-20285714D01*
X79380953Y-20952381D02*
X78809524Y-20952381D01*
X79095238Y-20952381D02*
X79095238Y-19952381D01*
X79000000Y-20095238D01*
X78904762Y-20190476D01*
X78809524Y-20238095D01*
X53595238Y-690476D02*
X53547619Y-833333D01*
X53547619Y-1071429D01*
X53595238Y-1166667D01*
X53642857Y-1214286D01*
X53738095Y-1261905D01*
X53833333Y-1261905D01*
X53928571Y-1214286D01*
X53976190Y-1166667D01*
X54023810Y-1071429D01*
X54071429Y-880952D01*
X54119048Y-785714D01*
X54166667Y-738095D01*
X54261905Y-690476D01*
X54357143Y-690476D01*
X54452381Y-738095D01*
X54500000Y-785714D01*
X54547619Y-880952D01*
X54547619Y-1119048D01*
X54500000Y-1261905D01*
X53547619Y-2166667D02*
X53547619Y-1690476D01*
X54547619Y-1690476D01*
X53833333Y-2452381D02*
X53833333Y-2928572D01*
X53547619Y-2357143D02*
X54547619Y-2690476D01*
X53547619Y-3023810D01*
X54547619Y-3214286D02*
X53547619Y-3547619D01*
X54547619Y-3880953D01*
X54071429Y-4214286D02*
X54071429Y-4547620D01*
X53547619Y-4690477D02*
X53547619Y-4214286D01*
X54547619Y-4214286D01*
X54547619Y-4690477D01*
X53595238Y-5833334D02*
X53547619Y-5976191D01*
X53547619Y-6214287D01*
X53595238Y-6309525D01*
X53642857Y-6357144D01*
X53738095Y-6404763D01*
X53833333Y-6404763D01*
X53928571Y-6357144D01*
X53976190Y-6309525D01*
X54023810Y-6214287D01*
X54071429Y-6023810D01*
X54119048Y-5928572D01*
X54166667Y-5880953D01*
X54261905Y-5833334D01*
X54357143Y-5833334D01*
X54452381Y-5880953D01*
X54500000Y-5928572D01*
X54547619Y-6023810D01*
X54547619Y-6261906D01*
X54500000Y-6404763D01*
X54071429Y-6833334D02*
X54071429Y-7166668D01*
X53547619Y-7309525D02*
X53547619Y-6833334D01*
X54547619Y-6833334D01*
X54547619Y-7309525D01*
X53547619Y-8309525D02*
X54023810Y-7976191D01*
X53547619Y-7738096D02*
X54547619Y-7738096D01*
X54547619Y-8119049D01*
X54500000Y-8214287D01*
X54452381Y-8261906D01*
X54357143Y-8309525D01*
X54214286Y-8309525D01*
X54119048Y-8261906D01*
X54071429Y-8214287D01*
X54023810Y-8119049D01*
X54023810Y-7738096D01*
X53547619Y-8738096D02*
X54547619Y-8738096D01*
X53833333Y-9166667D02*
X53833333Y-9642858D01*
X53547619Y-9071429D02*
X54547619Y-9404762D01*
X53547619Y-9738096D01*
X53547619Y-10547620D02*
X53547619Y-10071429D01*
X54547619Y-10071429D01*
X41547619Y-738095D02*
X42547619Y-738095D01*
X41833333Y-1071429D01*
X42547619Y-1404762D01*
X41547619Y-1404762D01*
X41833333Y-1833333D02*
X41833333Y-2309524D01*
X41547619Y-1738095D02*
X42547619Y-2071428D01*
X41547619Y-2404762D01*
X41595238Y-2690476D02*
X41547619Y-2833333D01*
X41547619Y-3071429D01*
X41595238Y-3166667D01*
X41642857Y-3214286D01*
X41738095Y-3261905D01*
X41833333Y-3261905D01*
X41928571Y-3214286D01*
X41976190Y-3166667D01*
X42023810Y-3071429D01*
X42071429Y-2880952D01*
X42119048Y-2785714D01*
X42166667Y-2738095D01*
X42261905Y-2690476D01*
X42357143Y-2690476D01*
X42452381Y-2738095D01*
X42500000Y-2785714D01*
X42547619Y-2880952D01*
X42547619Y-3119048D01*
X42500000Y-3261905D01*
X42547619Y-3547619D02*
X42547619Y-4119048D01*
X41547619Y-3833333D02*
X42547619Y-3833333D01*
X42071429Y-4452381D02*
X42071429Y-4785715D01*
X41547619Y-4928572D02*
X41547619Y-4452381D01*
X42547619Y-4452381D01*
X42547619Y-4928572D01*
X41547619Y-5928572D02*
X42023810Y-5595238D01*
X41547619Y-5357143D02*
X42547619Y-5357143D01*
X42547619Y-5738096D01*
X42500000Y-5833334D01*
X42452381Y-5880953D01*
X42357143Y-5928572D01*
X42214286Y-5928572D01*
X42119048Y-5880953D01*
X42071429Y-5833334D01*
X42023810Y-5738096D01*
X42023810Y-5357143D01*
X41595238Y-7071429D02*
X41547619Y-7214286D01*
X41547619Y-7452382D01*
X41595238Y-7547620D01*
X41642857Y-7595239D01*
X41738095Y-7642858D01*
X41833333Y-7642858D01*
X41928571Y-7595239D01*
X41976190Y-7547620D01*
X42023810Y-7452382D01*
X42071429Y-7261905D01*
X42119048Y-7166667D01*
X42166667Y-7119048D01*
X42261905Y-7071429D01*
X42357143Y-7071429D01*
X42452381Y-7119048D01*
X42500000Y-7166667D01*
X42547619Y-7261905D01*
X42547619Y-7500001D01*
X42500000Y-7642858D01*
X42071429Y-8071429D02*
X42071429Y-8404763D01*
X41547619Y-8547620D02*
X41547619Y-8071429D01*
X42547619Y-8071429D01*
X42547619Y-8547620D01*
X41547619Y-9547620D02*
X42023810Y-9214286D01*
X41547619Y-8976191D02*
X42547619Y-8976191D01*
X42547619Y-9357144D01*
X42500000Y-9452382D01*
X42452381Y-9500001D01*
X42357143Y-9547620D01*
X42214286Y-9547620D01*
X42119048Y-9500001D01*
X42071429Y-9452382D01*
X42023810Y-9357144D01*
X42023810Y-8976191D01*
X41547619Y-9976191D02*
X42547619Y-9976191D01*
X41833333Y-10404762D02*
X41833333Y-10880953D01*
X41547619Y-10309524D02*
X42547619Y-10642857D01*
X41547619Y-10976191D01*
X41547619Y-11785715D02*
X41547619Y-11309524D01*
X42547619Y-11309524D01*
X8761905Y-24452381D02*
X8190476Y-24452381D01*
X8476190Y-24452381D02*
X8476190Y-23452381D01*
X8380952Y-23595238D01*
X8285714Y-23690476D01*
X8190476Y-23738095D01*
X8190476Y-31547619D02*
X8238095Y-31500000D01*
X8333333Y-31452381D01*
X8571429Y-31452381D01*
X8666667Y-31500000D01*
X8714286Y-31547619D01*
X8761905Y-31642857D01*
X8761905Y-31738095D01*
X8714286Y-31880952D01*
X8142857Y-32452381D01*
X8761905Y-32452381D01*
X8142857Y-39452381D02*
X8761905Y-39452381D01*
X8428571Y-39833333D01*
X8571429Y-39833333D01*
X8666667Y-39880952D01*
X8714286Y-39928571D01*
X8761905Y-40023810D01*
X8761905Y-40261905D01*
X8714286Y-40357143D01*
X8666667Y-40404762D01*
X8571429Y-40452381D01*
X8285714Y-40452381D01*
X8190476Y-40404762D01*
X8142857Y-40357143D01*
X2095238Y-40627381D02*
X2666667Y-40627381D01*
X2380952Y-41627381D02*
X2380952Y-40627381D01*
X3000000Y-41627381D02*
X3000000Y-40627381D01*
X3000000Y-41103571D02*
X3571429Y-41103571D01*
X3571429Y-41627381D02*
X3571429Y-40627381D01*
X4047619Y-41103571D02*
X4380953Y-41103571D01*
X4523810Y-41627381D02*
X4047619Y-41627381D01*
X4047619Y-40627381D01*
X4523810Y-40627381D01*
X5523810Y-41627381D02*
X5190476Y-41151190D01*
X4952381Y-41627381D02*
X4952381Y-40627381D01*
X5333334Y-40627381D01*
X5428572Y-40675000D01*
X5476191Y-40722619D01*
X5523810Y-40817857D01*
X5523810Y-40960714D01*
X5476191Y-41055952D01*
X5428572Y-41103571D01*
X5333334Y-41151190D01*
X4952381Y-41151190D01*
X5952381Y-41627381D02*
X5952381Y-40627381D01*
X6285715Y-41341667D01*
X6619048Y-40627381D01*
X6619048Y-41627381D01*
X7285714Y-40627381D02*
X7476191Y-40627381D01*
X7571429Y-40675000D01*
X7666667Y-40770238D01*
X7714286Y-40960714D01*
X7714286Y-41294048D01*
X7666667Y-41484524D01*
X7571429Y-41579762D01*
X7476191Y-41627381D01*
X7285714Y-41627381D01*
X7190476Y-41579762D01*
X7095238Y-41484524D01*
X7047619Y-41294048D01*
X7047619Y-40960714D01*
X7095238Y-40770238D01*
X7190476Y-40675000D01*
X7285714Y-40627381D01*
X2809524Y-43182143D02*
X2761905Y-43229762D01*
X2619048Y-43277381D01*
X2523810Y-43277381D01*
X2380952Y-43229762D01*
X2285714Y-43134524D01*
X2238095Y-43039286D01*
X2190476Y-42848810D01*
X2190476Y-42705952D01*
X2238095Y-42515476D01*
X2285714Y-42420238D01*
X2380952Y-42325000D01*
X2523810Y-42277381D01*
X2619048Y-42277381D01*
X2761905Y-42325000D01*
X2809524Y-42372619D01*
X3428571Y-42277381D02*
X3619048Y-42277381D01*
X3714286Y-42325000D01*
X3809524Y-42420238D01*
X3857143Y-42610714D01*
X3857143Y-42944048D01*
X3809524Y-43134524D01*
X3714286Y-43229762D01*
X3619048Y-43277381D01*
X3428571Y-43277381D01*
X3333333Y-43229762D01*
X3238095Y-43134524D01*
X3190476Y-42944048D01*
X3190476Y-42610714D01*
X3238095Y-42420238D01*
X3333333Y-42325000D01*
X3428571Y-42277381D01*
X4285714Y-42277381D02*
X4285714Y-43086905D01*
X4333333Y-43182143D01*
X4380952Y-43229762D01*
X4476190Y-43277381D01*
X4666667Y-43277381D01*
X4761905Y-43229762D01*
X4809524Y-43182143D01*
X4857143Y-43086905D01*
X4857143Y-42277381D01*
X5333333Y-43277381D02*
X5333333Y-42277381D01*
X5714286Y-42277381D01*
X5809524Y-42325000D01*
X5857143Y-42372619D01*
X5904762Y-42467857D01*
X5904762Y-42610714D01*
X5857143Y-42705952D01*
X5809524Y-42753571D01*
X5714286Y-42801190D01*
X5333333Y-42801190D01*
X6809524Y-43277381D02*
X6333333Y-43277381D01*
X6333333Y-42277381D01*
X7142857Y-42753571D02*
X7476191Y-42753571D01*
X7619048Y-43277381D02*
X7142857Y-43277381D01*
X7142857Y-42277381D01*
X7619048Y-42277381D01*
X28642857Y-56952381D02*
X29261905Y-56952381D01*
X28928571Y-57333333D01*
X29071429Y-57333333D01*
X29166667Y-57380952D01*
X29214286Y-57428571D01*
X29261905Y-57523810D01*
X29261905Y-57761905D01*
X29214286Y-57857143D01*
X29166667Y-57904762D01*
X29071429Y-57952381D01*
X28785714Y-57952381D01*
X28690476Y-57904762D01*
X28642857Y-57857143D01*
X17690476Y-57047619D02*
X17738095Y-57000000D01*
X17833333Y-56952381D01*
X18071429Y-56952381D01*
X18166667Y-57000000D01*
X18214286Y-57047619D01*
X18261905Y-57142857D01*
X18261905Y-57238095D01*
X18214286Y-57380952D01*
X17642857Y-57952381D01*
X18261905Y-57952381D01*
X2690476Y-54579762D02*
X2833333Y-54627381D01*
X3071429Y-54627381D01*
X3166667Y-54579762D01*
X3214286Y-54532143D01*
X3261905Y-54436905D01*
X3261905Y-54341667D01*
X3214286Y-54246429D01*
X3166667Y-54198810D01*
X3071429Y-54151190D01*
X2880952Y-54103571D01*
X2785714Y-54055952D01*
X2738095Y-54008333D01*
X2690476Y-53913095D01*
X2690476Y-53817857D01*
X2738095Y-53722619D01*
X2785714Y-53675000D01*
X2880952Y-53627381D01*
X3119048Y-53627381D01*
X3261905Y-53675000D01*
X3547619Y-53627381D02*
X4119048Y-53627381D01*
X3833333Y-54627381D02*
X3833333Y-53627381D01*
X5023810Y-54627381D02*
X4690476Y-54151190D01*
X4452381Y-54627381D02*
X4452381Y-53627381D01*
X4833334Y-53627381D01*
X4928572Y-53675000D01*
X4976191Y-53722619D01*
X5023810Y-53817857D01*
X5023810Y-53960714D01*
X4976191Y-54055952D01*
X4928572Y-54103571D01*
X4833334Y-54151190D01*
X4452381Y-54151190D01*
X5404762Y-54341667D02*
X5880953Y-54341667D01*
X5309524Y-54627381D02*
X5642857Y-53627381D01*
X5976191Y-54627381D01*
X6309524Y-54627381D02*
X6309524Y-53627381D01*
X6785714Y-54627381D02*
X6785714Y-53627381D01*
X7357143Y-54627381D01*
X7357143Y-53627381D01*
X3261905Y-55325000D02*
X3166667Y-55277381D01*
X3023810Y-55277381D01*
X2880952Y-55325000D01*
X2785714Y-55420238D01*
X2738095Y-55515476D01*
X2690476Y-55705952D01*
X2690476Y-55848810D01*
X2738095Y-56039286D01*
X2785714Y-56134524D01*
X2880952Y-56229762D01*
X3023810Y-56277381D01*
X3119048Y-56277381D01*
X3261905Y-56229762D01*
X3309524Y-56182143D01*
X3309524Y-55848810D01*
X3119048Y-55848810D01*
X3690476Y-55991667D02*
X4166667Y-55991667D01*
X3595238Y-56277381D02*
X3928571Y-55277381D01*
X4261905Y-56277381D01*
X4595238Y-55277381D02*
X4595238Y-56086905D01*
X4642857Y-56182143D01*
X4690476Y-56229762D01*
X4785714Y-56277381D01*
X4976191Y-56277381D01*
X5071429Y-56229762D01*
X5119048Y-56182143D01*
X5166667Y-56086905D01*
X5166667Y-55277381D01*
X6166667Y-55325000D02*
X6071429Y-55277381D01*
X5928572Y-55277381D01*
X5785714Y-55325000D01*
X5690476Y-55420238D01*
X5642857Y-55515476D01*
X5595238Y-55705952D01*
X5595238Y-55848810D01*
X5642857Y-56039286D01*
X5690476Y-56134524D01*
X5785714Y-56229762D01*
X5928572Y-56277381D01*
X6023810Y-56277381D01*
X6166667Y-56229762D01*
X6214286Y-56182143D01*
X6214286Y-55848810D01*
X6023810Y-55848810D01*
X6642857Y-55753571D02*
X6976191Y-55753571D01*
X7119048Y-56277381D02*
X6642857Y-56277381D01*
X6642857Y-55277381D01*
X7119048Y-55277381D01*
X5761905Y-57952381D02*
X5190476Y-57952381D01*
X5476190Y-57952381D02*
X5476190Y-56952381D01*
X5380952Y-57095238D01*
X5285714Y-57190476D01*
X5190476Y-57238095D01*
X90452381Y-69361905D02*
X89452381Y-69361905D01*
X89452381Y-68980952D01*
X89500000Y-68885714D01*
X89547619Y-68838095D01*
X89642857Y-68790476D01*
X89785714Y-68790476D01*
X89880952Y-68838095D01*
X89928571Y-68885714D01*
X89976190Y-68980952D01*
X89976190Y-69361905D01*
X89976190Y-68171429D02*
X90452381Y-68171429D01*
X89452381Y-68504762D02*
X89976190Y-68171429D01*
X89452381Y-67838095D01*
X90452381Y-66933333D02*
X89976190Y-67266667D01*
X90452381Y-67504762D02*
X89452381Y-67504762D01*
X89452381Y-67123809D01*
X89500000Y-67028571D01*
X89547619Y-66980952D01*
X89642857Y-66933333D01*
X89785714Y-66933333D01*
X89880952Y-66980952D01*
X89928571Y-67028571D01*
X89976190Y-67123809D01*
X89976190Y-67504762D01*
X89452381Y-66314286D02*
X89452381Y-66123809D01*
X89500000Y-66028571D01*
X89595238Y-65933333D01*
X89785714Y-65885714D01*
X90119048Y-65885714D01*
X90309524Y-65933333D01*
X90404762Y-66028571D01*
X90452381Y-66123809D01*
X90452381Y-66314286D01*
X90404762Y-66409524D01*
X90309524Y-66504762D01*
X90119048Y-66552381D01*
X89785714Y-66552381D01*
X89595238Y-66504762D01*
X89500000Y-66409524D01*
X89452381Y-66314286D01*
X89452381Y-64790476D02*
X89452381Y-64171428D01*
X89833333Y-64504762D01*
X89833333Y-64361904D01*
X89880952Y-64266666D01*
X89928571Y-64219047D01*
X90023810Y-64171428D01*
X90261905Y-64171428D01*
X90357143Y-64219047D01*
X90404762Y-64266666D01*
X90452381Y-64361904D01*
X90452381Y-64647619D01*
X90404762Y-64742857D01*
X90357143Y-64790476D01*
X82452381Y-69361905D02*
X81452381Y-69361905D01*
X81452381Y-68980952D01*
X81500000Y-68885714D01*
X81547619Y-68838095D01*
X81642857Y-68790476D01*
X81785714Y-68790476D01*
X81880952Y-68838095D01*
X81928571Y-68885714D01*
X81976190Y-68980952D01*
X81976190Y-69361905D01*
X81976190Y-68171429D02*
X82452381Y-68171429D01*
X81452381Y-68504762D02*
X81976190Y-68171429D01*
X81452381Y-67838095D01*
X82452381Y-66933333D02*
X81976190Y-67266667D01*
X82452381Y-67504762D02*
X81452381Y-67504762D01*
X81452381Y-67123809D01*
X81500000Y-67028571D01*
X81547619Y-66980952D01*
X81642857Y-66933333D01*
X81785714Y-66933333D01*
X81880952Y-66980952D01*
X81928571Y-67028571D01*
X81976190Y-67123809D01*
X81976190Y-67504762D01*
X81452381Y-66314286D02*
X81452381Y-66123809D01*
X81500000Y-66028571D01*
X81595238Y-65933333D01*
X81785714Y-65885714D01*
X82119048Y-65885714D01*
X82309524Y-65933333D01*
X82404762Y-66028571D01*
X82452381Y-66123809D01*
X82452381Y-66314286D01*
X82404762Y-66409524D01*
X82309524Y-66504762D01*
X82119048Y-66552381D01*
X81785714Y-66552381D01*
X81595238Y-66504762D01*
X81500000Y-66409524D01*
X81452381Y-66314286D01*
X81547619Y-64742857D02*
X81500000Y-64695238D01*
X81452381Y-64600000D01*
X81452381Y-64361904D01*
X81500000Y-64266666D01*
X81547619Y-64219047D01*
X81642857Y-64171428D01*
X81738095Y-64171428D01*
X81880952Y-64219047D01*
X82452381Y-64790476D01*
X82452381Y-64171428D01*
X74452381Y-69361905D02*
X73452381Y-69361905D01*
X73452381Y-68980952D01*
X73500000Y-68885714D01*
X73547619Y-68838095D01*
X73642857Y-68790476D01*
X73785714Y-68790476D01*
X73880952Y-68838095D01*
X73928571Y-68885714D01*
X73976190Y-68980952D01*
X73976190Y-69361905D01*
X73976190Y-68171429D02*
X74452381Y-68171429D01*
X73452381Y-68504762D02*
X73976190Y-68171429D01*
X73452381Y-67838095D01*
X74452381Y-66933333D02*
X73976190Y-67266667D01*
X74452381Y-67504762D02*
X73452381Y-67504762D01*
X73452381Y-67123809D01*
X73500000Y-67028571D01*
X73547619Y-66980952D01*
X73642857Y-66933333D01*
X73785714Y-66933333D01*
X73880952Y-66980952D01*
X73928571Y-67028571D01*
X73976190Y-67123809D01*
X73976190Y-67504762D01*
X73452381Y-66314286D02*
X73452381Y-66123809D01*
X73500000Y-66028571D01*
X73595238Y-65933333D01*
X73785714Y-65885714D01*
X74119048Y-65885714D01*
X74309524Y-65933333D01*
X74404762Y-66028571D01*
X74452381Y-66123809D01*
X74452381Y-66314286D01*
X74404762Y-66409524D01*
X74309524Y-66504762D01*
X74119048Y-66552381D01*
X73785714Y-66552381D01*
X73595238Y-66504762D01*
X73500000Y-66409524D01*
X73452381Y-66314286D01*
X74452381Y-64171428D02*
X74452381Y-64742857D01*
X74452381Y-64457143D02*
X73452381Y-64457143D01*
X73595238Y-64552381D01*
X73690476Y-64647619D01*
X73738095Y-64742857D01*
D13*
X87607143Y-34214285D02*
X87607143Y-33071428D01*
X88178571Y-33642857D02*
X87035714Y-33642857D01*
X87607143Y-28928571D02*
X87607143Y-27785714D01*
X87607143Y-49642857D02*
X87607143Y-48500000D01*
X88178571Y-49071429D02*
X87035714Y-49071429D01*
X87607143Y-45500000D02*
X87607143Y-44357143D01*
D11*
X89214286Y-19452381D02*
X88738095Y-19452381D01*
X88738095Y-18452381D01*
X89547619Y-18928571D02*
X89880953Y-18928571D01*
X90023810Y-19452381D02*
X89547619Y-19452381D01*
X89547619Y-18452381D01*
X90023810Y-18452381D01*
X90452381Y-19452381D02*
X90452381Y-18452381D01*
X90690476Y-18452381D01*
X90833334Y-18500000D01*
X90928572Y-18595238D01*
X90976191Y-18690476D01*
X91023810Y-18880952D01*
X91023810Y-19023810D01*
X90976191Y-19214286D01*
X90928572Y-19309524D01*
X90833334Y-19404762D01*
X90690476Y-19452381D01*
X90452381Y-19452381D01*
X88690476Y-27166667D02*
X89166667Y-27166667D01*
X88595238Y-27452381D02*
X88928571Y-26452381D01*
X89261905Y-27452381D01*
X89595238Y-26452381D02*
X89595238Y-27261905D01*
X89642857Y-27357143D01*
X89690476Y-27404762D01*
X89785714Y-27452381D01*
X89976191Y-27452381D01*
X90071429Y-27404762D01*
X90119048Y-27357143D01*
X90166667Y-27261905D01*
X90166667Y-26452381D01*
X90547619Y-26452381D02*
X91214286Y-27452381D01*
X91214286Y-26452381D02*
X90547619Y-27452381D01*
X88690476Y-35166667D02*
X89166667Y-35166667D01*
X88595238Y-35452381D02*
X88928571Y-34452381D01*
X89261905Y-35452381D01*
X90166667Y-35452381D02*
X89833333Y-34976190D01*
X89595238Y-35452381D02*
X89595238Y-34452381D01*
X89976191Y-34452381D01*
X90071429Y-34500000D01*
X90119048Y-34547619D01*
X90166667Y-34642857D01*
X90166667Y-34785714D01*
X90119048Y-34880952D01*
X90071429Y-34928571D01*
X89976191Y-34976190D01*
X89595238Y-34976190D01*
X90595238Y-35452381D02*
X90595238Y-34452381D01*
X90928572Y-35166667D01*
X91261905Y-34452381D01*
X91261905Y-35452381D01*
X89071429Y-42928571D02*
X89214286Y-42976190D01*
X89261905Y-43023810D01*
X89309524Y-43119048D01*
X89309524Y-43261905D01*
X89261905Y-43357143D01*
X89214286Y-43404762D01*
X89119048Y-43452381D01*
X88738095Y-43452381D01*
X88738095Y-42452381D01*
X89071429Y-42452381D01*
X89166667Y-42500000D01*
X89214286Y-42547619D01*
X89261905Y-42642857D01*
X89261905Y-42738095D01*
X89214286Y-42833333D01*
X89166667Y-42880952D01*
X89071429Y-42928571D01*
X88738095Y-42928571D01*
X89690476Y-43166667D02*
X90166667Y-43166667D01*
X89595238Y-43452381D02*
X89928571Y-42452381D01*
X90261905Y-43452381D01*
X90452381Y-42452381D02*
X91023810Y-42452381D01*
X90738095Y-43452381D02*
X90738095Y-42452381D01*
X77190476Y-8341667D02*
X77666667Y-8341667D01*
X77095238Y-8627381D02*
X77428571Y-7627381D01*
X77761905Y-8627381D01*
X78095238Y-8627381D02*
X78095238Y-7627381D01*
X78333333Y-7627381D01*
X78476191Y-7675000D01*
X78571429Y-7770238D01*
X78619048Y-7865476D01*
X78666667Y-8055952D01*
X78666667Y-8198810D01*
X78619048Y-8389286D01*
X78571429Y-8484524D01*
X78476191Y-8579762D01*
X78333333Y-8627381D01*
X78095238Y-8627381D01*
X79047619Y-8341667D02*
X79523810Y-8341667D01*
X78952381Y-8627381D02*
X79285714Y-7627381D01*
X79619048Y-8627381D01*
X79952381Y-8627381D02*
X79952381Y-7627381D01*
X80285715Y-8341667D01*
X80619048Y-7627381D01*
X80619048Y-8627381D01*
X82380953Y-7675000D02*
X82285715Y-7627381D01*
X82142858Y-7627381D01*
X82000000Y-7675000D01*
X81904762Y-7770238D01*
X81857143Y-7865476D01*
X81809524Y-8055952D01*
X81809524Y-8198810D01*
X81857143Y-8389286D01*
X81904762Y-8484524D01*
X82000000Y-8579762D01*
X82142858Y-8627381D01*
X82238096Y-8627381D01*
X82380953Y-8579762D01*
X82428572Y-8532143D01*
X82428572Y-8198810D01*
X82238096Y-8198810D01*
X83428572Y-8627381D02*
X83095238Y-8151190D01*
X82857143Y-8627381D02*
X82857143Y-7627381D01*
X83238096Y-7627381D01*
X83333334Y-7675000D01*
X83380953Y-7722619D01*
X83428572Y-7817857D01*
X83428572Y-7960714D01*
X83380953Y-8055952D01*
X83333334Y-8103571D01*
X83238096Y-8151190D01*
X82857143Y-8151190D01*
X83857143Y-8103571D02*
X84190477Y-8103571D01*
X84333334Y-8627381D02*
X83857143Y-8627381D01*
X83857143Y-7627381D01*
X84333334Y-7627381D01*
X84761905Y-8627381D02*
X84761905Y-7627381D01*
X85761905Y-7675000D02*
X85666667Y-7627381D01*
X85523810Y-7627381D01*
X85380952Y-7675000D01*
X85285714Y-7770238D01*
X85238095Y-7865476D01*
X85190476Y-8055952D01*
X85190476Y-8198810D01*
X85238095Y-8389286D01*
X85285714Y-8484524D01*
X85380952Y-8579762D01*
X85523810Y-8627381D01*
X85619048Y-8627381D01*
X85761905Y-8579762D01*
X85809524Y-8532143D01*
X85809524Y-8198810D01*
X85619048Y-8198810D01*
X77190476Y-9372619D02*
X77238095Y-9325000D01*
X77333333Y-9277381D01*
X77571429Y-9277381D01*
X77666667Y-9325000D01*
X77714286Y-9372619D01*
X77761905Y-9467857D01*
X77761905Y-9563095D01*
X77714286Y-9705952D01*
X77142857Y-10277381D01*
X77761905Y-10277381D01*
X78380952Y-9277381D02*
X78476191Y-9277381D01*
X78571429Y-9325000D01*
X78619048Y-9372619D01*
X78666667Y-9467857D01*
X78714286Y-9658333D01*
X78714286Y-9896429D01*
X78666667Y-10086905D01*
X78619048Y-10182143D01*
X78571429Y-10229762D01*
X78476191Y-10277381D01*
X78380952Y-10277381D01*
X78285714Y-10229762D01*
X78238095Y-10182143D01*
X78190476Y-10086905D01*
X78142857Y-9896429D01*
X78142857Y-9658333D01*
X78190476Y-9467857D01*
X78238095Y-9372619D01*
X78285714Y-9325000D01*
X78380952Y-9277381D01*
X79666667Y-10277381D02*
X79095238Y-10277381D01*
X79380952Y-10277381D02*
X79380952Y-9277381D01*
X79285714Y-9420238D01*
X79190476Y-9515476D01*
X79095238Y-9563095D01*
X80523810Y-9610714D02*
X80523810Y-10277381D01*
X80285714Y-9229762D02*
X80047619Y-9944048D01*
X80666667Y-9944048D01*
X81047619Y-9896429D02*
X81809524Y-9896429D01*
X82476190Y-9277381D02*
X82571429Y-9277381D01*
X82666667Y-9325000D01*
X82714286Y-9372619D01*
X82761905Y-9467857D01*
X82809524Y-9658333D01*
X82809524Y-9896429D01*
X82761905Y-10086905D01*
X82714286Y-10182143D01*
X82666667Y-10229762D01*
X82571429Y-10277381D01*
X82476190Y-10277381D01*
X82380952Y-10229762D01*
X82333333Y-10182143D01*
X82285714Y-10086905D01*
X82238095Y-9896429D01*
X82238095Y-9658333D01*
X82285714Y-9467857D01*
X82333333Y-9372619D01*
X82380952Y-9325000D01*
X82476190Y-9277381D01*
X83142857Y-9277381D02*
X83809524Y-9277381D01*
X83380952Y-10277381D01*
X84190476Y-9896429D02*
X84952381Y-9896429D01*
X85333333Y-9277381D02*
X85952381Y-9277381D01*
X85619047Y-9658333D01*
X85761905Y-9658333D01*
X85857143Y-9705952D01*
X85904762Y-9753571D01*
X85952381Y-9848810D01*
X85952381Y-10086905D01*
X85904762Y-10182143D01*
X85857143Y-10229762D01*
X85761905Y-10277381D01*
X85476190Y-10277381D01*
X85380952Y-10229762D01*
X85333333Y-10182143D01*
X86904762Y-10277381D02*
X86333333Y-10277381D01*
X86619047Y-10277381D02*
X86619047Y-9277381D01*
X86523809Y-9420238D01*
X86428571Y-9515476D01*
X86333333Y-9563095D01*
D13*
X79392858Y-13078571D02*
X79392858Y-11578571D01*
X79892858Y-12650000D01*
X80392858Y-11578571D01*
X80392858Y-13078571D01*
X81035715Y-12650000D02*
X81750001Y-12650000D01*
X80892858Y-13078571D02*
X81392858Y-11578571D01*
X81892858Y-13078571D01*
X83250001Y-13078571D02*
X82750001Y-12364286D01*
X82392858Y-13078571D02*
X82392858Y-11578571D01*
X82964286Y-11578571D01*
X83107144Y-11650000D01*
X83178572Y-11721429D01*
X83250001Y-11864286D01*
X83250001Y-12078571D01*
X83178572Y-12221429D01*
X83107144Y-12292857D01*
X82964286Y-12364286D01*
X82392858Y-12364286D01*
X83678572Y-11578571D02*
X84535715Y-11578571D01*
X84107144Y-13078571D02*
X84107144Y-11578571D01*
X85750001Y-13078571D02*
X85035715Y-13078571D01*
X85035715Y-11578571D01*
X86250001Y-12292857D02*
X86750001Y-12292857D01*
X86964287Y-13078571D02*
X86250001Y-13078571D01*
X86250001Y-11578571D01*
X86964287Y-11578571D01*
X87392858Y-11578571D02*
X88250001Y-11578571D01*
X87821430Y-13078571D02*
X87821430Y-11578571D01*
X89821429Y-11721429D02*
X89892858Y-11650000D01*
X90035715Y-11578571D01*
X90392858Y-11578571D01*
X90535715Y-11650000D01*
X90607144Y-11721429D01*
X90678572Y-11864286D01*
X90678572Y-12007143D01*
X90607144Y-12221429D01*
X89750001Y-13078571D01*
X90678572Y-13078571D01*
X82142857Y-14692857D02*
X81642857Y-14692857D01*
X81642857Y-15478571D02*
X81642857Y-13978571D01*
X82357143Y-13978571D01*
X83642857Y-15478571D02*
X82928571Y-15478571D01*
X82928571Y-13978571D01*
X84142857Y-15478571D02*
X84142857Y-13978571D01*
X85642857Y-14050000D02*
X85500000Y-13978571D01*
X85285714Y-13978571D01*
X85071429Y-14050000D01*
X84928571Y-14192857D01*
X84857143Y-14335714D01*
X84785714Y-14621429D01*
X84785714Y-14835714D01*
X84857143Y-15121429D01*
X84928571Y-15264286D01*
X85071429Y-15407143D01*
X85285714Y-15478571D01*
X85428571Y-15478571D01*
X85642857Y-15407143D01*
X85714286Y-15335714D01*
X85714286Y-14835714D01*
X85428571Y-14835714D01*
X86357143Y-15478571D02*
X86357143Y-13978571D01*
X86357143Y-14692857D02*
X87214286Y-14692857D01*
X87214286Y-15478571D02*
X87214286Y-13978571D01*
X87714286Y-13978571D02*
X88571429Y-13978571D01*
X88142858Y-15478571D02*
X88142858Y-13978571D01*
X80285714Y-17735714D02*
X80214285Y-17807143D01*
X79999999Y-17878571D01*
X79857142Y-17878571D01*
X79642857Y-17807143D01*
X79499999Y-17664286D01*
X79428571Y-17521429D01*
X79357142Y-17235714D01*
X79357142Y-17021429D01*
X79428571Y-16735714D01*
X79499999Y-16592857D01*
X79642857Y-16450000D01*
X79857142Y-16378571D01*
X79999999Y-16378571D01*
X80214285Y-16450000D01*
X80285714Y-16521429D01*
X81214285Y-16378571D02*
X81499999Y-16378571D01*
X81642857Y-16450000D01*
X81785714Y-16592857D01*
X81857142Y-16878571D01*
X81857142Y-17378571D01*
X81785714Y-17664286D01*
X81642857Y-17807143D01*
X81499999Y-17878571D01*
X81214285Y-17878571D01*
X81071428Y-17807143D01*
X80928571Y-17664286D01*
X80857142Y-17378571D01*
X80857142Y-16878571D01*
X80928571Y-16592857D01*
X81071428Y-16450000D01*
X81214285Y-16378571D01*
X82500000Y-17878571D02*
X82500000Y-16378571D01*
X83000000Y-17450000D01*
X83500000Y-16378571D01*
X83500000Y-17878571D01*
X84214286Y-17878571D02*
X84214286Y-16378571D01*
X84785714Y-16378571D01*
X84928572Y-16450000D01*
X85000000Y-16521429D01*
X85071429Y-16664286D01*
X85071429Y-16878571D01*
X85000000Y-17021429D01*
X84928572Y-17092857D01*
X84785714Y-17164286D01*
X84214286Y-17164286D01*
X85714286Y-16378571D02*
X85714286Y-17592857D01*
X85785714Y-17735714D01*
X85857143Y-17807143D01*
X86000000Y-17878571D01*
X86285714Y-17878571D01*
X86428572Y-17807143D01*
X86500000Y-17735714D01*
X86571429Y-17592857D01*
X86571429Y-16378571D01*
X87071429Y-16378571D02*
X87928572Y-16378571D01*
X87500001Y-17878571D02*
X87500001Y-16378571D01*
X88428572Y-17092857D02*
X88928572Y-17092857D01*
X89142858Y-17878571D02*
X88428572Y-17878571D01*
X88428572Y-16378571D01*
X89142858Y-16378571D01*
X90642858Y-17878571D02*
X90142858Y-17164286D01*
X89785715Y-17878571D02*
X89785715Y-16378571D01*
X90357143Y-16378571D01*
X90500001Y-16450000D01*
X90571429Y-16521429D01*
X90642858Y-16664286D01*
X90642858Y-16878571D01*
X90571429Y-17021429D01*
X90500001Y-17092857D01*
X90357143Y-17164286D01*
X89785715Y-17164286D01*
D12*
X75600000Y-38700000D02*
X76000000Y-38700000D01*
X75600000Y-38900000D02*
X75900000Y-38900000D01*
X76100000Y-38200000D02*
X76100000Y-39300000D01*
X75400000Y-38200000D02*
X75400000Y-39200000D01*
X76100000Y-36500000D02*
X76100000Y-37600000D01*
X75500000Y-36500000D02*
X75300000Y-36500000D01*
X75400000Y-36500000D02*
X75400000Y-37600000D01*
X75500000Y-38500000D02*
X76000000Y-38500000D01*
X75500000Y-39000000D02*
X76000000Y-39000000D01*
X75500000Y-38800000D02*
X75500000Y-39000000D01*
X76000000Y-38800000D02*
X75500000Y-38800000D01*
X76000000Y-38600000D02*
X76000000Y-38800000D01*
X75500000Y-38600000D02*
X76000000Y-38600000D01*
X76200000Y-38200000D02*
X76000000Y-38200000D01*
X76200000Y-39300000D02*
X76200000Y-38200000D01*
X76000000Y-39300000D02*
X76200000Y-39300000D01*
X76000000Y-38200000D02*
X76000000Y-39300000D01*
X75500000Y-38200000D02*
X75300000Y-38200000D01*
X75500000Y-39300000D02*
X75500000Y-38200000D01*
X75400000Y-39300000D02*
X75500000Y-39300000D01*
X75300000Y-39300000D02*
X75400000Y-39300000D01*
X75300000Y-38200000D02*
X75300000Y-39300000D01*
X76200000Y-36500000D02*
X76000000Y-36500000D01*
X76200000Y-37600000D02*
X76200000Y-36500000D01*
X76000000Y-37600000D02*
X76200000Y-37600000D01*
X76000000Y-36500000D02*
X76000000Y-37600000D01*
X75500000Y-36500000D02*
X75400000Y-36500000D01*
X75500000Y-37600000D02*
X75500000Y-36500000D01*
X75300000Y-37600000D02*
X75500000Y-37600000D01*
X75300000Y-36500000D02*
X75300000Y-37600000D01*
X74500000Y-32300000D02*
X75200000Y-33000000D01*
X71700000Y-32300000D02*
X74500000Y-32300000D01*
D11*
X77171429Y-37003571D02*
X77314286Y-37051190D01*
X77361905Y-37098810D01*
X77409524Y-37194048D01*
X77409524Y-37336905D01*
X77361905Y-37432143D01*
X77314286Y-37479762D01*
X77219048Y-37527381D01*
X76838095Y-37527381D01*
X76838095Y-36527381D01*
X77171429Y-36527381D01*
X77266667Y-36575000D01*
X77314286Y-36622619D01*
X77361905Y-36717857D01*
X77361905Y-36813095D01*
X77314286Y-36908333D01*
X77266667Y-36955952D01*
X77171429Y-37003571D01*
X76838095Y-37003571D01*
X78028571Y-36527381D02*
X78219048Y-36527381D01*
X78314286Y-36575000D01*
X78409524Y-36670238D01*
X78457143Y-36860714D01*
X78457143Y-37194048D01*
X78409524Y-37384524D01*
X78314286Y-37479762D01*
X78219048Y-37527381D01*
X78028571Y-37527381D01*
X77933333Y-37479762D01*
X77838095Y-37384524D01*
X77790476Y-37194048D01*
X77790476Y-36860714D01*
X77838095Y-36670238D01*
X77933333Y-36575000D01*
X78028571Y-36527381D01*
X78885714Y-37527381D02*
X78885714Y-36527381D01*
X79123809Y-36527381D01*
X79266667Y-36575000D01*
X79361905Y-36670238D01*
X79409524Y-36765476D01*
X79457143Y-36955952D01*
X79457143Y-37098810D01*
X79409524Y-37289286D01*
X79361905Y-37384524D01*
X79266667Y-37479762D01*
X79123809Y-37527381D01*
X78885714Y-37527381D01*
X80076190Y-37051190D02*
X80076190Y-37527381D01*
X79742857Y-36527381D02*
X80076190Y-37051190D01*
X80409524Y-36527381D01*
X76838095Y-39177381D02*
X76838095Y-38177381D01*
X77409524Y-39177381D01*
X77409524Y-38177381D01*
X78076190Y-38177381D02*
X78266667Y-38177381D01*
X78361905Y-38225000D01*
X78457143Y-38320238D01*
X78504762Y-38510714D01*
X78504762Y-38844048D01*
X78457143Y-39034524D01*
X78361905Y-39129762D01*
X78266667Y-39177381D01*
X78076190Y-39177381D01*
X77980952Y-39129762D01*
X77885714Y-39034524D01*
X77838095Y-38844048D01*
X77838095Y-38510714D01*
X77885714Y-38320238D01*
X77980952Y-38225000D01*
X78076190Y-38177381D01*
X78885714Y-39129762D02*
X79028571Y-39177381D01*
X79266667Y-39177381D01*
X79361905Y-39129762D01*
X79409524Y-39082143D01*
X79457143Y-38986905D01*
X79457143Y-38891667D01*
X79409524Y-38796429D01*
X79361905Y-38748810D01*
X79266667Y-38701190D01*
X79076190Y-38653571D01*
X78980952Y-38605952D01*
X78933333Y-38558333D01*
X78885714Y-38463095D01*
X78885714Y-38367857D01*
X78933333Y-38272619D01*
X78980952Y-38225000D01*
X79076190Y-38177381D01*
X79314286Y-38177381D01*
X79457143Y-38225000D01*
X79885714Y-38653571D02*
X80219048Y-38653571D01*
X80361905Y-39177381D02*
X79885714Y-39177381D01*
X79885714Y-38177381D01*
X80361905Y-38177381D01*
X75471429Y-33903571D02*
X75138095Y-33903571D01*
X75138095Y-34427381D02*
X75138095Y-33427381D01*
X75614286Y-33427381D01*
X76471429Y-34427381D02*
X75995238Y-34427381D01*
X75995238Y-33427381D01*
X76804762Y-34427381D02*
X76804762Y-33427381D01*
X77804762Y-33475000D02*
X77709524Y-33427381D01*
X77566667Y-33427381D01*
X77423809Y-33475000D01*
X77328571Y-33570238D01*
X77280952Y-33665476D01*
X77233333Y-33855952D01*
X77233333Y-33998810D01*
X77280952Y-34189286D01*
X77328571Y-34284524D01*
X77423809Y-34379762D01*
X77566667Y-34427381D01*
X77661905Y-34427381D01*
X77804762Y-34379762D01*
X77852381Y-34332143D01*
X77852381Y-33998810D01*
X77661905Y-33998810D01*
X78280952Y-34427381D02*
X78280952Y-33427381D01*
X78280952Y-33903571D02*
X78852381Y-33903571D01*
X78852381Y-34427381D02*
X78852381Y-33427381D01*
X79185714Y-33427381D02*
X79757143Y-33427381D01*
X79471428Y-34427381D02*
X79471428Y-33427381D01*
X75138095Y-36077381D02*
X75138095Y-35077381D01*
X75471429Y-35791667D01*
X75804762Y-35077381D01*
X75804762Y-36077381D01*
X76471428Y-35077381D02*
X76661905Y-35077381D01*
X76757143Y-35125000D01*
X76852381Y-35220238D01*
X76900000Y-35410714D01*
X76900000Y-35744048D01*
X76852381Y-35934524D01*
X76757143Y-36029762D01*
X76661905Y-36077381D01*
X76471428Y-36077381D01*
X76376190Y-36029762D01*
X76280952Y-35934524D01*
X76233333Y-35744048D01*
X76233333Y-35410714D01*
X76280952Y-35220238D01*
X76376190Y-35125000D01*
X76471428Y-35077381D01*
X77328571Y-36077381D02*
X77328571Y-35077381D01*
X77566666Y-35077381D01*
X77709524Y-35125000D01*
X77804762Y-35220238D01*
X77852381Y-35315476D01*
X77900000Y-35505952D01*
X77900000Y-35648810D01*
X77852381Y-35839286D01*
X77804762Y-35934524D01*
X77709524Y-36029762D01*
X77566666Y-36077381D01*
X77328571Y-36077381D01*
X78328571Y-35553571D02*
X78661905Y-35553571D01*
X78804762Y-36077381D02*
X78328571Y-36077381D01*
X78328571Y-35077381D01*
X78804762Y-35077381D01*
X79233333Y-35982143D02*
X79280952Y-36029762D01*
X79233333Y-36077381D01*
X79185714Y-36029762D01*
X79233333Y-35982143D01*
X79233333Y-36077381D01*
X79233333Y-35458333D02*
X79280952Y-35505952D01*
X79233333Y-35553571D01*
X79185714Y-35505952D01*
X79233333Y-35458333D01*
X79233333Y-35553571D01*
X74442857Y-28452381D02*
X75061905Y-28452381D01*
X74728571Y-28833333D01*
X74871429Y-28833333D01*
X74966667Y-28880952D01*
X75014286Y-28928571D01*
X75061905Y-29023810D01*
X75061905Y-29261905D01*
X75014286Y-29357143D01*
X74966667Y-29404762D01*
X74871429Y-29452381D01*
X74585714Y-29452381D01*
X74490476Y-29404762D01*
X74442857Y-29357143D01*
X75347619Y-28452381D02*
X75680952Y-29452381D01*
X76014286Y-28452381D01*
X77109524Y-29452381D02*
X77109524Y-28452381D01*
X77347619Y-28452381D01*
X77490477Y-28500000D01*
X77585715Y-28595238D01*
X77633334Y-28690476D01*
X77680953Y-28880952D01*
X77680953Y-29023810D01*
X77633334Y-29214286D01*
X77585715Y-29309524D01*
X77490477Y-29404762D01*
X77347619Y-29452381D01*
X77109524Y-29452381D01*
X78109524Y-29452381D02*
X78109524Y-28452381D01*
X79109524Y-28500000D02*
X79014286Y-28452381D01*
X78871429Y-28452381D01*
X78728571Y-28500000D01*
X78633333Y-28595238D01*
X78585714Y-28690476D01*
X78538095Y-28880952D01*
X78538095Y-29023810D01*
X78585714Y-29214286D01*
X78633333Y-29309524D01*
X78728571Y-29404762D01*
X78871429Y-29452381D01*
X78966667Y-29452381D01*
X79109524Y-29404762D01*
X79157143Y-29357143D01*
X79157143Y-29023810D01*
X78966667Y-29023810D01*
X79585714Y-29452381D02*
X79585714Y-28452381D01*
X79919047Y-28452381D02*
X80490476Y-28452381D01*
X80204761Y-29452381D02*
X80204761Y-28452381D01*
X80776190Y-29166667D02*
X81252381Y-29166667D01*
X80680952Y-29452381D02*
X81014285Y-28452381D01*
X81347619Y-29452381D01*
X82157143Y-29452381D02*
X81680952Y-29452381D01*
X81680952Y-28452381D01*
X74490476Y-28004762D02*
X74633333Y-28052381D01*
X74871429Y-28052381D01*
X74966667Y-28004762D01*
X75014286Y-27957143D01*
X75061905Y-27861905D01*
X75061905Y-27766667D01*
X75014286Y-27671429D01*
X74966667Y-27623810D01*
X74871429Y-27576190D01*
X74680952Y-27528571D01*
X74585714Y-27480952D01*
X74538095Y-27433333D01*
X74490476Y-27338095D01*
X74490476Y-27242857D01*
X74538095Y-27147619D01*
X74585714Y-27100000D01*
X74680952Y-27052381D01*
X74919048Y-27052381D01*
X75061905Y-27100000D01*
X75490476Y-28052381D02*
X75490476Y-27052381D01*
X75728571Y-27052381D01*
X75871429Y-27100000D01*
X75966667Y-27195238D01*
X76014286Y-27290476D01*
X76061905Y-27480952D01*
X76061905Y-27623810D01*
X76014286Y-27814286D01*
X75966667Y-27909524D01*
X75871429Y-28004762D01*
X75728571Y-28052381D01*
X75490476Y-28052381D01*
X77823810Y-27957143D02*
X77776191Y-28004762D01*
X77633334Y-28052381D01*
X77538096Y-28052381D01*
X77395238Y-28004762D01*
X77300000Y-27909524D01*
X77252381Y-27814286D01*
X77204762Y-27623810D01*
X77204762Y-27480952D01*
X77252381Y-27290476D01*
X77300000Y-27195238D01*
X77395238Y-27100000D01*
X77538096Y-27052381D01*
X77633334Y-27052381D01*
X77776191Y-27100000D01*
X77823810Y-27147619D01*
X78204762Y-27766667D02*
X78680953Y-27766667D01*
X78109524Y-28052381D02*
X78442857Y-27052381D01*
X78776191Y-28052381D01*
X79680953Y-28052381D02*
X79347619Y-27576190D01*
X79109524Y-28052381D02*
X79109524Y-27052381D01*
X79490477Y-27052381D01*
X79585715Y-27100000D01*
X79633334Y-27147619D01*
X79680953Y-27242857D01*
X79680953Y-27385714D01*
X79633334Y-27480952D01*
X79585715Y-27528571D01*
X79490477Y-27576190D01*
X79109524Y-27576190D01*
X80109524Y-28052381D02*
X80109524Y-27052381D01*
X80347619Y-27052381D01*
X80490477Y-27100000D01*
X80585715Y-27195238D01*
X80633334Y-27290476D01*
X80680953Y-27480952D01*
X80680953Y-27623810D01*
X80633334Y-27814286D01*
X80585715Y-27909524D01*
X80490477Y-28004762D01*
X80347619Y-28052381D01*
X80109524Y-28052381D01*
X74538095Y-26652381D02*
X74538095Y-25652381D01*
X74919048Y-25652381D01*
X75014286Y-25700000D01*
X75061905Y-25747619D01*
X75109524Y-25842857D01*
X75109524Y-25985714D01*
X75061905Y-26080952D01*
X75014286Y-26128571D01*
X74919048Y-26176190D01*
X74538095Y-26176190D01*
X75728571Y-26176190D02*
X75728571Y-26652381D01*
X75395238Y-25652381D02*
X75728571Y-26176190D01*
X76061905Y-25652381D01*
X76966667Y-26652381D02*
X76633333Y-26176190D01*
X76395238Y-26652381D02*
X76395238Y-25652381D01*
X76776191Y-25652381D01*
X76871429Y-25700000D01*
X76919048Y-25747619D01*
X76966667Y-25842857D01*
X76966667Y-25985714D01*
X76919048Y-26080952D01*
X76871429Y-26128571D01*
X76776191Y-26176190D01*
X76395238Y-26176190D01*
X77585714Y-25652381D02*
X77776191Y-25652381D01*
X77871429Y-25700000D01*
X77966667Y-25795238D01*
X78014286Y-25985714D01*
X78014286Y-26319048D01*
X77966667Y-26509524D01*
X77871429Y-26604762D01*
X77776191Y-26652381D01*
X77585714Y-26652381D01*
X77490476Y-26604762D01*
X77395238Y-26509524D01*
X77347619Y-26319048D01*
X77347619Y-25985714D01*
X77395238Y-25795238D01*
X77490476Y-25700000D01*
X77585714Y-25652381D01*
X78395238Y-26604762D02*
X78538095Y-26652381D01*
X78776191Y-26652381D01*
X78871429Y-26604762D01*
X78919048Y-26557143D01*
X78966667Y-26461905D01*
X78966667Y-26366667D01*
X78919048Y-26271429D01*
X78871429Y-26223810D01*
X78776191Y-26176190D01*
X78585714Y-26128571D01*
X78490476Y-26080952D01*
X78442857Y-26033333D01*
X78395238Y-25938095D01*
X78395238Y-25842857D01*
X78442857Y-25747619D01*
X78490476Y-25700000D01*
X78585714Y-25652381D01*
X78823810Y-25652381D01*
X78966667Y-25700000D01*
X74490476Y-25104762D02*
X74633333Y-25152381D01*
X74871429Y-25152381D01*
X74966667Y-25104762D01*
X75014286Y-25057143D01*
X75061905Y-24961905D01*
X75061905Y-24866667D01*
X75014286Y-24771429D01*
X74966667Y-24723810D01*
X74871429Y-24676190D01*
X74680952Y-24628571D01*
X74585714Y-24580952D01*
X74538095Y-24533333D01*
X74490476Y-24438095D01*
X74490476Y-24342857D01*
X74538095Y-24247619D01*
X74585714Y-24200000D01*
X74680952Y-24152381D01*
X74919048Y-24152381D01*
X75061905Y-24200000D01*
X75490476Y-24628571D02*
X75823810Y-24628571D01*
X75966667Y-25152381D02*
X75490476Y-25152381D01*
X75490476Y-24152381D01*
X75966667Y-24152381D01*
X76395238Y-25152381D02*
X76395238Y-24152381D01*
X76966667Y-25152381D01*
X76966667Y-24152381D01*
X77395238Y-25104762D02*
X77538095Y-25152381D01*
X77776191Y-25152381D01*
X77871429Y-25104762D01*
X77919048Y-25057143D01*
X77966667Y-24961905D01*
X77966667Y-24866667D01*
X77919048Y-24771429D01*
X77871429Y-24723810D01*
X77776191Y-24676190D01*
X77585714Y-24628571D01*
X77490476Y-24580952D01*
X77442857Y-24533333D01*
X77395238Y-24438095D01*
X77395238Y-24342857D01*
X77442857Y-24247619D01*
X77490476Y-24200000D01*
X77585714Y-24152381D01*
X77823810Y-24152381D01*
X77966667Y-24200000D01*
X78585714Y-24152381D02*
X78776191Y-24152381D01*
X78871429Y-24200000D01*
X78966667Y-24295238D01*
X79014286Y-24485714D01*
X79014286Y-24819048D01*
X78966667Y-25009524D01*
X78871429Y-25104762D01*
X78776191Y-25152381D01*
X78585714Y-25152381D01*
X78490476Y-25104762D01*
X78395238Y-25009524D01*
X78347619Y-24819048D01*
X78347619Y-24485714D01*
X78395238Y-24295238D01*
X78490476Y-24200000D01*
X78585714Y-24152381D01*
X80014286Y-25152381D02*
X79680952Y-24676190D01*
X79442857Y-25152381D02*
X79442857Y-24152381D01*
X79823810Y-24152381D01*
X79919048Y-24200000D01*
X79966667Y-24247619D01*
X80014286Y-24342857D01*
X80014286Y-24485714D01*
X79966667Y-24580952D01*
X79919048Y-24628571D01*
X79823810Y-24676190D01*
X79442857Y-24676190D01*
X80395238Y-25104762D02*
X80538095Y-25152381D01*
X80776191Y-25152381D01*
X80871429Y-25104762D01*
X80919048Y-25057143D01*
X80966667Y-24961905D01*
X80966667Y-24866667D01*
X80919048Y-24771429D01*
X80871429Y-24723810D01*
X80776191Y-24676190D01*
X80585714Y-24628571D01*
X80490476Y-24580952D01*
X80442857Y-24533333D01*
X80395238Y-24438095D01*
X80395238Y-24342857D01*
X80442857Y-24247619D01*
X80490476Y-24200000D01*
X80585714Y-24152381D01*
X80823810Y-24152381D01*
X80966667Y-24200000D01*
X74490476Y-23604762D02*
X74633333Y-23652381D01*
X74871429Y-23652381D01*
X74966667Y-23604762D01*
X75014286Y-23557143D01*
X75061905Y-23461905D01*
X75061905Y-23366667D01*
X75014286Y-23271429D01*
X74966667Y-23223810D01*
X74871429Y-23176190D01*
X74680952Y-23128571D01*
X74585714Y-23080952D01*
X74538095Y-23033333D01*
X74490476Y-22938095D01*
X74490476Y-22842857D01*
X74538095Y-22747619D01*
X74585714Y-22700000D01*
X74680952Y-22652381D01*
X74919048Y-22652381D01*
X75061905Y-22700000D01*
X75347619Y-22652381D02*
X75919048Y-22652381D01*
X75633333Y-23652381D02*
X75633333Y-22652381D01*
X76204762Y-23366667D02*
X76680953Y-23366667D01*
X76109524Y-23652381D02*
X76442857Y-22652381D01*
X76776191Y-23652381D01*
X76966667Y-22652381D02*
X77538096Y-22652381D01*
X77252381Y-23652381D02*
X77252381Y-22652381D01*
X77871429Y-22652381D02*
X77871429Y-23461905D01*
X77919048Y-23557143D01*
X77966667Y-23604762D01*
X78061905Y-23652381D01*
X78252382Y-23652381D01*
X78347620Y-23604762D01*
X78395239Y-23557143D01*
X78442858Y-23461905D01*
X78442858Y-22652381D01*
X78871429Y-23604762D02*
X79014286Y-23652381D01*
X79252382Y-23652381D01*
X79347620Y-23604762D01*
X79395239Y-23557143D01*
X79442858Y-23461905D01*
X79442858Y-23366667D01*
X79395239Y-23271429D01*
X79347620Y-23223810D01*
X79252382Y-23176190D01*
X79061905Y-23128571D01*
X78966667Y-23080952D01*
X78919048Y-23033333D01*
X78871429Y-22938095D01*
X78871429Y-22842857D01*
X78919048Y-22747619D01*
X78966667Y-22700000D01*
X79061905Y-22652381D01*
X79300001Y-22652381D01*
X79442858Y-22700000D01*
D14*
X12000000Y-11800000D02*
X16300000Y-11800000D01*
X12000000Y-9800000D02*
X16300000Y-9800000D01*
X23600000Y-7600000D02*
X19300000Y-7600000D01*
X23600000Y-9600000D02*
X19300000Y-9600000D01*
X28400000Y-17200000D02*
X28400000Y-12900000D01*
X26400000Y-17200000D02*
X26400000Y-12900000D01*
X12000000Y-19000000D02*
X16300000Y-19000000D01*
X12000000Y-17000000D02*
X16300000Y-17000000D01*
X12000000Y-22800000D02*
X16300000Y-22800000D01*
X12000000Y-20800000D02*
X16300000Y-20800000D01*
X23600000Y-18600000D02*
X19300000Y-18600000D01*
X23600000Y-20600000D02*
X19300000Y-20600000D01*
X28400000Y-28200000D02*
X28400000Y-23900000D01*
X26400000Y-28200000D02*
X26400000Y-23900000D01*
X12000000Y-30000000D02*
X16300000Y-30000000D01*
X12000000Y-28000000D02*
X16300000Y-28000000D01*
X12000000Y-33600000D02*
X16300000Y-33600000D01*
X12000000Y-31600000D02*
X16300000Y-31600000D01*
X23600000Y-29400000D02*
X19300000Y-29400000D01*
X23600000Y-31400000D02*
X19300000Y-31400000D01*
X28400000Y-39000000D02*
X28400000Y-34700000D01*
X26400000Y-39000000D02*
X26400000Y-34700000D01*
X12000000Y-40600000D02*
X16300000Y-40600000D01*
X12000000Y-38600000D02*
X16300000Y-38600000D01*
X87250000Y-40100000D02*
X87250000Y-41800000D01*
X87950000Y-40100000D02*
X87950000Y-41800000D01*
X87250000Y-30500000D02*
X87250000Y-32200000D01*
X87950000Y-30500000D02*
X87950000Y-32200000D01*
X11450000Y-56100000D02*
X11450000Y-57800000D01*
X12150000Y-56100000D02*
X12150000Y-57800000D01*
X13250000Y-56100000D02*
X13250000Y-57800000D01*
X13950000Y-56100000D02*
X13950000Y-57800000D01*
X22450000Y-56100000D02*
X22450000Y-57800000D01*
X23150000Y-56100000D02*
X23150000Y-57800000D01*
X24250000Y-56100000D02*
X24250000Y-57800000D01*
X24950000Y-56100000D02*
X24950000Y-57800000D01*
X33450000Y-56100000D02*
X33450000Y-57800000D01*
X34150000Y-56100000D02*
X34150000Y-57800000D01*
X35250000Y-56100000D02*
X35250000Y-57800000D01*
X35950000Y-56100000D02*
X35950000Y-57800000D01*
X71350000Y-29600000D02*
X73850000Y-29600000D01*
X71350000Y-28600000D02*
X73850000Y-28600000D01*
X72550000Y-29300000D02*
X72450000Y-29300000D01*
X72650000Y-29200000D02*
X72450000Y-29200000D01*
X72550000Y-28900000D02*
X72450000Y-28900000D01*
X72650000Y-29000000D02*
X72450000Y-29000000D01*
X72750000Y-29100000D02*
X72450000Y-29100000D01*
X72350000Y-28700000D02*
X72850000Y-29100000D01*
X72850000Y-29100000D02*
X72350000Y-29500000D01*
X72350000Y-29500000D02*
X72350000Y-28700000D01*
X71350000Y-28050000D02*
X73850000Y-28050000D01*
X71350000Y-27050000D02*
X73850000Y-27050000D01*
X72550000Y-27750000D02*
X72450000Y-27750000D01*
X72650000Y-27650000D02*
X72450000Y-27650000D01*
X72550000Y-27350000D02*
X72450000Y-27350000D01*
X72650000Y-27450000D02*
X72450000Y-27450000D01*
X72750000Y-27550000D02*
X72450000Y-27550000D01*
X72350000Y-27150000D02*
X72850000Y-27550000D01*
X72850000Y-27550000D02*
X72350000Y-27950000D01*
X72350000Y-27950000D02*
X72350000Y-27150000D01*
X71350000Y-26550000D02*
X73850000Y-26550000D01*
X71350000Y-25550000D02*
X73850000Y-25550000D01*
X72550000Y-26250000D02*
X72450000Y-26250000D01*
X72650000Y-26150000D02*
X72450000Y-26150000D01*
X72550000Y-25850000D02*
X72450000Y-25850000D01*
X72650000Y-25950000D02*
X72450000Y-25950000D01*
X72750000Y-26050000D02*
X72450000Y-26050000D01*
X72350000Y-25650000D02*
X72850000Y-26050000D01*
X72850000Y-26050000D02*
X72350000Y-26450000D01*
X72350000Y-26450000D02*
X72350000Y-25650000D01*
X71350000Y-25050000D02*
X73850000Y-25050000D01*
X71350000Y-24050000D02*
X73850000Y-24050000D01*
X72550000Y-24750000D02*
X72450000Y-24750000D01*
X72650000Y-24650000D02*
X72450000Y-24650000D01*
X72550000Y-24350000D02*
X72450000Y-24350000D01*
X72650000Y-24450000D02*
X72450000Y-24450000D01*
X72750000Y-24550000D02*
X72450000Y-24550000D01*
X72350000Y-24150000D02*
X72850000Y-24550000D01*
X72850000Y-24550000D02*
X72350000Y-24950000D01*
X72350000Y-24950000D02*
X72350000Y-24150000D01*
X71350000Y-23550000D02*
X73850000Y-23550000D01*
X71350000Y-22550000D02*
X73850000Y-22550000D01*
X72550000Y-23250000D02*
X72450000Y-23250000D01*
X72650000Y-23150000D02*
X72450000Y-23150000D01*
X72550000Y-22850000D02*
X72450000Y-22850000D01*
X72650000Y-22950000D02*
X72450000Y-22950000D01*
X72750000Y-23050000D02*
X72450000Y-23050000D01*
X72350000Y-22650000D02*
X72850000Y-23050000D01*
X72850000Y-23050000D02*
X72350000Y-23450000D01*
X72350000Y-23450000D02*
X72350000Y-22650000D01*
X86100000Y-22350000D02*
X87800000Y-22350000D01*
X86100000Y-21650000D02*
X87800000Y-21650000D01*
X86100000Y-24350000D02*
X87800000Y-24350000D01*
X86100000Y-23650000D02*
X87800000Y-23650000D01*
X65000000Y-58700000D02*
X63800000Y-58700000D01*
X63800000Y-58600000D02*
X65000000Y-58600000D01*
X65000000Y-58500000D02*
X63800000Y-58500000D01*
X63800000Y-58400000D02*
X65000000Y-58400000D01*
X65000000Y-58300000D02*
X63800000Y-58300000D01*
X63800000Y-58200000D02*
X65000000Y-58200000D01*
X63800000Y-57600000D02*
X63800000Y-60100000D01*
X65000000Y-57600000D02*
X65000000Y-60000000D01*
X69100000Y-57950000D02*
X70800000Y-57950000D01*
X69100000Y-57250000D02*
X70800000Y-57250000D01*
X78400000Y-54900000D02*
X79600000Y-54900000D01*
X79600000Y-55000000D02*
X78400000Y-55000000D01*
X78400000Y-55100000D02*
X79600000Y-55100000D01*
X79600000Y-55200000D02*
X78400000Y-55200000D01*
X78400000Y-55300000D02*
X79600000Y-55300000D01*
X79600000Y-55400000D02*
X78400000Y-55400000D01*
X79600000Y-56000000D02*
X79600000Y-53500000D01*
X78400000Y-56000000D02*
X78400000Y-53600000D01*
X77100000Y-57950000D02*
X78800000Y-57950000D01*
X77100000Y-57250000D02*
X78800000Y-57250000D01*
X92300000Y-57000000D02*
X92300000Y-58200000D01*
X92200000Y-58200000D02*
X92200000Y-57000000D01*
X92100000Y-57000000D02*
X92100000Y-58200000D01*
X92000000Y-58200000D02*
X92000000Y-57000000D01*
X91900000Y-57000000D02*
X91900000Y-58200000D01*
X91800000Y-58200000D02*
X91800000Y-57000000D01*
X91200000Y-58200000D02*
X93700000Y-58200000D01*
X91200000Y-57000000D02*
X93600000Y-57000000D01*
X86900000Y-57250000D02*
X85200000Y-57250000D01*
X86900000Y-57950000D02*
X85200000Y-57950000D01*
X12300000Y-14150000D02*
X14000000Y-14150000D01*
X12300000Y-13450000D02*
X14000000Y-13450000D01*
X12300000Y-15350000D02*
X14000000Y-15350000D01*
X12300000Y-14650000D02*
X14000000Y-14650000D01*
X12300000Y-25150000D02*
X14000000Y-25150000D01*
X12300000Y-24450000D02*
X14000000Y-24450000D01*
X12300000Y-26350000D02*
X14000000Y-26350000D01*
X12300000Y-25650000D02*
X14000000Y-25650000D01*
X12300000Y-35950000D02*
X14000000Y-35950000D01*
X12300000Y-35250000D02*
X14000000Y-35250000D01*
X12300000Y-36950000D02*
X14000000Y-36950000D01*
X12300000Y-36250000D02*
X14000000Y-36250000D01*
D15*
X71270000Y-30861000D02*
X68730000Y-30861000D01*
X68730000Y-32639000D02*
X71270000Y-32639000D01*
X68730000Y-32639000D02*
X68730000Y-30861000D01*
X71270000Y-30861000D02*
X71270000Y-32639000D01*
D14*
X79200000Y-30100000D02*
G75*
G03X79200000Y-30100000I-200000J0D01*
G74*
G01*
X79100000Y-30100000D02*
G75*
G03X79100000Y-30100000I-100000J0D01*
G74*
G01*
X79000000Y-33100000D02*
X83500000Y-33100000D01*
X79000000Y-30100000D02*
X83500000Y-30100000D01*
X46300000Y-29500000D02*
G75*
G03X46300000Y-29500000I-250000J0D01*
G74*
G01*
X46161803Y-29500000D02*
G75*
G03X46161803Y-29500000I-111803J0D01*
G74*
G01*
X61050000Y-30500000D02*
X61050000Y-29500000D01*
X61050000Y-29500000D02*
X60050000Y-29500000D01*
X61050000Y-43500000D02*
X61050000Y-44500000D01*
X61050000Y-44500000D02*
X60050000Y-44500000D01*
X46050000Y-43500000D02*
X46050000Y-44500000D01*
X46050000Y-44500000D02*
X47050000Y-44500000D01*
X47050000Y-29500000D02*
X46050000Y-29500000D01*
X46050000Y-29500000D02*
X46050000Y-30500000D01*
X15200000Y-55500000D02*
G75*
G03X15200000Y-55500000I-200000J0D01*
G74*
G01*
X15100000Y-55500000D02*
G75*
G03X15100000Y-55500000I-100000J0D01*
G74*
G01*
X15000000Y-52500000D02*
X10500000Y-52500000D01*
X15000000Y-55500000D02*
X10500000Y-55500000D01*
X10800000Y-44500000D02*
G75*
G03X10800000Y-44500000I-200000J0D01*
G74*
G01*
X10700000Y-44500000D02*
G75*
G03X10700000Y-44500000I-100000J0D01*
G74*
G01*
X10600000Y-47500000D02*
X15100000Y-47500000D01*
X10600000Y-44500000D02*
X15100000Y-44500000D01*
X10950000Y-50050000D02*
X10950000Y-51250000D01*
X13150000Y-50050000D02*
X13150000Y-51250000D01*
X10950000Y-50050000D02*
X13150000Y-50050000D01*
X13150000Y-51250000D02*
X10950000Y-51250000D01*
X26200000Y-55500000D02*
G75*
G03X26200000Y-55500000I-200000J0D01*
G74*
G01*
X26100000Y-55500000D02*
G75*
G03X26100000Y-55500000I-100000J0D01*
G74*
G01*
X26000000Y-52500000D02*
X21500000Y-52500000D01*
X26000000Y-55500000D02*
X21500000Y-55500000D01*
X21800000Y-44500000D02*
G75*
G03X21800000Y-44500000I-200000J0D01*
G74*
G01*
X21700000Y-44500000D02*
G75*
G03X21700000Y-44500000I-100000J0D01*
G74*
G01*
X21600000Y-47500000D02*
X26100000Y-47500000D01*
X21600000Y-44500000D02*
X26100000Y-44500000D01*
X21950000Y-50050000D02*
X21950000Y-51250000D01*
X24150000Y-50050000D02*
X24150000Y-51250000D01*
X21950000Y-50050000D02*
X24150000Y-50050000D01*
X24150000Y-51250000D02*
X21950000Y-51250000D01*
X37200000Y-55500000D02*
G75*
G03X37200000Y-55500000I-200000J0D01*
G74*
G01*
X37100000Y-55500000D02*
G75*
G03X37100000Y-55500000I-100000J0D01*
G74*
G01*
X37000000Y-52500000D02*
X32500000Y-52500000D01*
X37000000Y-55500000D02*
X32500000Y-55500000D01*
X32800000Y-44500000D02*
G75*
G03X32800000Y-44500000I-200000J0D01*
G74*
G01*
X32700000Y-44500000D02*
G75*
G03X32700000Y-44500000I-100000J0D01*
G74*
G01*
X32600000Y-47500000D02*
X37100000Y-47500000D01*
X32600000Y-44500000D02*
X37100000Y-44500000D01*
X32950000Y-50050000D02*
X32950000Y-51250000D01*
X35150000Y-50050000D02*
X35150000Y-51250000D01*
X32950000Y-50050000D02*
X35150000Y-50050000D01*
X35150000Y-51250000D02*
X32950000Y-51250000D01*
X48200000Y-47700000D02*
G75*
G03X48200000Y-47700000I-200000J0D01*
G74*
G01*
X48100000Y-47700000D02*
G75*
G03X48100000Y-47700000I-100000J0D01*
G74*
G01*
X48000000Y-47700000D02*
X48000000Y-47800000D01*
X48000000Y-52700000D02*
X48000000Y-52600000D01*
X51000000Y-52700000D02*
X51000000Y-52600000D01*
X51000000Y-47700000D02*
X51000000Y-47800000D01*
X50000000Y-52700000D02*
X51000000Y-52700000D01*
X48000000Y-52700000D02*
X49000000Y-52700000D01*
X50000000Y-47700000D02*
X51000000Y-47700000D01*
X48000000Y-47700000D02*
X49000000Y-47700000D01*
X70000000Y-40500000D02*
G75*
G03X70000000Y-40500000I-200000J0D01*
G74*
G01*
X69900000Y-40500000D02*
G75*
G03X69900000Y-40500000I-100000J0D01*
G74*
G01*
X69800000Y-40500000D02*
X69800000Y-40400000D01*
X69800000Y-35500000D02*
X69800000Y-35600000D01*
X66800000Y-35500000D02*
X66800000Y-35600000D01*
X66800000Y-40500000D02*
X66800000Y-40400000D01*
X67800000Y-35500000D02*
X66800000Y-35500000D01*
X69800000Y-35500000D02*
X68800000Y-35500000D01*
X67800000Y-40500000D02*
X66800000Y-40500000D01*
X69800000Y-40500000D02*
X68800000Y-40500000D01*
X47500000Y-19200000D02*
G75*
G03X47500000Y-19200000I-150000J0D01*
G74*
G01*
X47400000Y-19200000D02*
G75*
G03X47400000Y-19200000I-50000J0D01*
G74*
G01*
X45850000Y-18950000D02*
X45100000Y-18950000D01*
X44100000Y-17950000D02*
X44100000Y-18200000D01*
X44100000Y-16700000D02*
X44100000Y-16950000D01*
X44100000Y-15450000D02*
X44100000Y-15700000D01*
X45850000Y-14700000D02*
X45100000Y-14700000D01*
X46850000Y-15700000D02*
X46850000Y-15450000D01*
X46850000Y-16950000D02*
X46850000Y-16700000D01*
X46850000Y-18200000D02*
X46850000Y-17950000D01*
X57891421Y-50400000D02*
G75*
G03X57891421Y-50400000I-141421J0D01*
G74*
G01*
X54750000Y-47000000D02*
X54250000Y-47000000D01*
X54250000Y-47000000D02*
X54250000Y-47400000D01*
X57750000Y-47400000D02*
X57750000Y-47000000D01*
X57750000Y-47000000D02*
X57250000Y-47000000D01*
X54750000Y-50400000D02*
X54250000Y-50400000D01*
X54250000Y-50400000D02*
X54250000Y-50000000D01*
X57250000Y-50400000D02*
X57750000Y-50400000D01*
X57750000Y-50400000D02*
X57750000Y-50000000D01*
X31600000Y-21000000D02*
G75*
G03X31600000Y-21000000I-200000J0D01*
G74*
G01*
X31500000Y-21000000D02*
G75*
G03X31500000Y-21000000I-100000J0D01*
G74*
G01*
X41480000Y-21000000D02*
X41480000Y-15800000D01*
X31400000Y-21000000D02*
X31400000Y-15800000D01*
X52950000Y-18600000D02*
G75*
G03X52950000Y-18600000I-200000J0D01*
G74*
G01*
X52850000Y-18600000D02*
G75*
G03X52850000Y-18600000I-100000J0D01*
G74*
G01*
X57750000Y-18600000D02*
X57750000Y-13400000D01*
X52750000Y-18600000D02*
X52750000Y-13400000D01*
X17100000Y-16600000D02*
G75*
G03X17100000Y-16600000I-200000J0D01*
G74*
G01*
X17000000Y-16600000D02*
G75*
G03X17000000Y-16600000I-100000J0D01*
G74*
G01*
X19900000Y-16600000D02*
X19900000Y-12100000D01*
X16900000Y-16600000D02*
X16900000Y-12100000D01*
X23500000Y-12200000D02*
G75*
G03X23500000Y-12200000I-200000J0D01*
G74*
G01*
X23400000Y-12200000D02*
G75*
G03X23400000Y-12200000I-100000J0D01*
G74*
G01*
X20300000Y-12200000D02*
X20300000Y-16700000D01*
X23300000Y-12200000D02*
X23300000Y-16700000D01*
X17100000Y-27600000D02*
G75*
G03X17100000Y-27600000I-200000J0D01*
G74*
G01*
X17000000Y-27600000D02*
G75*
G03X17000000Y-27600000I-100000J0D01*
G74*
G01*
X19900000Y-27600000D02*
X19900000Y-23100000D01*
X16900000Y-27600000D02*
X16900000Y-23100000D01*
X23500000Y-23200000D02*
G75*
G03X23500000Y-23200000I-200000J0D01*
G74*
G01*
X23400000Y-23200000D02*
G75*
G03X23400000Y-23200000I-100000J0D01*
G74*
G01*
X20300000Y-23200000D02*
X20300000Y-27700000D01*
X23300000Y-23200000D02*
X23300000Y-27700000D01*
X17100000Y-38400000D02*
G75*
G03X17100000Y-38400000I-200000J0D01*
G74*
G01*
X17000000Y-38400000D02*
G75*
G03X17000000Y-38400000I-100000J0D01*
G74*
G01*
X19900000Y-38400000D02*
X19900000Y-33900000D01*
X16900000Y-38400000D02*
X16900000Y-33900000D01*
X23500000Y-34000000D02*
G75*
G03X23500000Y-34000000I-200000J0D01*
G74*
G01*
X23400000Y-34000000D02*
G75*
G03X23400000Y-34000000I-100000J0D01*
G74*
G01*
X20300000Y-34000000D02*
X20300000Y-38500000D01*
X23300000Y-34000000D02*
X23300000Y-38500000D01*
X60720000Y-1850500D02*
X60720000Y-1025000D01*
X60720000Y-1025000D02*
X62180500Y-1025000D01*
X62180500Y-1025000D02*
X62180500Y-1850500D01*
X65800000Y-1850500D02*
X65800000Y-1025000D01*
X65800000Y-1025000D02*
X64339500Y-1025000D01*
X64339500Y-1025000D02*
X64339500Y-1850500D01*
X65800000Y-5279500D02*
X65800000Y-6105000D01*
X65800000Y-6105000D02*
X60720000Y-6105000D01*
X60720000Y-6105000D02*
X60720000Y-5279500D01*
X63260000Y-5279500D02*
X60085000Y-5279500D01*
X60085000Y-5279500D02*
X60085000Y-1850500D01*
X60085000Y-1850500D02*
X66435000Y-1850500D01*
X66435000Y-1850500D02*
X66435000Y-5279500D01*
X66435000Y-5279500D02*
X63260000Y-5279500D01*
X45500000Y-47600000D02*
X45500000Y-45200000D01*
X44500000Y-47600000D02*
X44500000Y-45200000D01*
X45900000Y-45200000D02*
X45900000Y-47600000D01*
X46900000Y-45200000D02*
X46900000Y-47600000D01*
X59700000Y-22400000D02*
X59700000Y-24800000D01*
X60700000Y-22400000D02*
X60700000Y-24800000D01*
X61100000Y-22400000D02*
X61100000Y-24800000D01*
X62100000Y-22400000D02*
X62100000Y-24800000D01*
X58300000Y-22400000D02*
X58300000Y-24800000D01*
X59300000Y-22400000D02*
X59300000Y-24800000D01*
X56900000Y-22400000D02*
X56900000Y-24800000D01*
X57900000Y-22400000D02*
X57900000Y-24800000D01*
X55100000Y-22400000D02*
X55100000Y-24800000D01*
X56100000Y-22400000D02*
X56100000Y-24800000D01*
X35000000Y-36500000D02*
X37400000Y-36500000D01*
X35000000Y-35500000D02*
X37400000Y-35500000D01*
X16800000Y-56900000D02*
X14400000Y-56900000D01*
X16800000Y-57900000D02*
X14400000Y-57900000D01*
X14900000Y-49600000D02*
X14900000Y-52000000D01*
X15900000Y-49600000D02*
X15900000Y-52000000D01*
X17300000Y-55000000D02*
X17300000Y-52600000D01*
X16300000Y-55000000D02*
X16300000Y-52600000D01*
X7900000Y-52600000D02*
X7900000Y-55000000D01*
X8900000Y-52600000D02*
X8900000Y-55000000D01*
X9300000Y-49600000D02*
X9300000Y-52000000D01*
X10300000Y-49600000D02*
X10300000Y-52000000D01*
X7900000Y-44600000D02*
X7900000Y-47000000D01*
X8900000Y-44600000D02*
X8900000Y-47000000D01*
X9300000Y-41600000D02*
X9300000Y-44000000D01*
X10300000Y-41600000D02*
X10300000Y-44000000D01*
X14500000Y-52000000D02*
X14500000Y-49600000D01*
X13500000Y-52000000D02*
X13500000Y-49600000D01*
X27800000Y-57000000D02*
X25400000Y-57000000D01*
X27800000Y-58000000D02*
X25400000Y-58000000D01*
X25900000Y-49600000D02*
X25900000Y-52000000D01*
X26900000Y-49600000D02*
X26900000Y-52000000D01*
X28300000Y-55000000D02*
X28300000Y-52600000D01*
X27300000Y-55000000D02*
X27300000Y-52600000D01*
X18900000Y-52600000D02*
X18900000Y-55000000D01*
X19900000Y-52600000D02*
X19900000Y-55000000D01*
X20300000Y-49600000D02*
X20300000Y-52000000D01*
X21300000Y-49600000D02*
X21300000Y-52000000D01*
X18900000Y-44600000D02*
X18900000Y-47000000D01*
X19900000Y-44600000D02*
X19900000Y-47000000D01*
X20300000Y-41600000D02*
X20300000Y-44000000D01*
X21300000Y-41600000D02*
X21300000Y-44000000D01*
X25500000Y-52000000D02*
X25500000Y-49600000D01*
X24500000Y-52000000D02*
X24500000Y-49600000D01*
X38800000Y-57000000D02*
X36400000Y-57000000D01*
X38800000Y-58000000D02*
X36400000Y-58000000D01*
X36900000Y-49600000D02*
X36900000Y-52000000D01*
X37900000Y-49600000D02*
X37900000Y-52000000D01*
X39300000Y-55000000D02*
X39300000Y-52600000D01*
X38300000Y-55000000D02*
X38300000Y-52600000D01*
X29900000Y-52600000D02*
X29900000Y-55000000D01*
X30900000Y-52600000D02*
X30900000Y-55000000D01*
X31300000Y-49600000D02*
X31300000Y-52000000D01*
X32300000Y-49600000D02*
X32300000Y-52000000D01*
X29900000Y-44600000D02*
X29900000Y-47000000D01*
X30900000Y-44600000D02*
X30900000Y-47000000D01*
X31300000Y-41600000D02*
X31300000Y-44000000D01*
X32300000Y-41600000D02*
X32300000Y-44000000D01*
X36500000Y-52000000D02*
X36500000Y-49600000D01*
X35500000Y-52000000D02*
X35500000Y-49600000D01*
X53600000Y-52900000D02*
X51200000Y-52900000D01*
X53600000Y-53900000D02*
X51200000Y-53900000D01*
X73400000Y-33300000D02*
X71000000Y-33300000D01*
X73400000Y-34300000D02*
X71000000Y-34300000D01*
X61100000Y-50400000D02*
X61100000Y-48000000D01*
X60100000Y-50400000D02*
X60100000Y-48000000D01*
X47800000Y-25700000D02*
X45400000Y-25700000D01*
X47800000Y-26700000D02*
X45400000Y-26700000D01*
X59750000Y-51100000D02*
X59750000Y-48700000D01*
X58750000Y-51100000D02*
X58750000Y-48700000D01*
X47800000Y-24300000D02*
X45400000Y-24300000D01*
X47800000Y-25300000D02*
X45400000Y-25300000D01*
X46550000Y-13050000D02*
X44150000Y-13050000D01*
X46550000Y-14050000D02*
X44150000Y-14050000D01*
X60200000Y-51750000D02*
X60200000Y-54150000D01*
X61200000Y-51750000D02*
X61200000Y-54150000D01*
X70650000Y-28600000D02*
X68250000Y-28600000D01*
X70650000Y-29600000D02*
X68250000Y-29600000D01*
X70650000Y-27050000D02*
X68250000Y-27050000D01*
X70650000Y-28050000D02*
X68250000Y-28050000D01*
X70650000Y-25550000D02*
X68250000Y-25550000D01*
X70650000Y-26550000D02*
X68250000Y-26550000D01*
X70650000Y-24050000D02*
X68250000Y-24050000D01*
X70650000Y-25050000D02*
X68250000Y-25050000D01*
X70650000Y-22550000D02*
X68250000Y-22550000D01*
X70650000Y-23550000D02*
X68250000Y-23550000D01*
X84700000Y-21800000D02*
X84700000Y-24200000D01*
X85700000Y-21800000D02*
X85700000Y-24200000D01*
X83300000Y-21800000D02*
X83300000Y-24200000D01*
X84300000Y-21800000D02*
X84300000Y-24200000D01*
X69100000Y-51400000D02*
X69100000Y-49000000D01*
X68100000Y-51400000D02*
X68100000Y-49000000D01*
X64700000Y-45600000D02*
X64700000Y-48000000D01*
X65700000Y-45600000D02*
X65700000Y-48000000D01*
X70500000Y-51400000D02*
X70500000Y-49000000D01*
X69500000Y-51400000D02*
X69500000Y-49000000D01*
X66100000Y-45600000D02*
X66100000Y-48000000D01*
X67100000Y-45600000D02*
X67100000Y-48000000D01*
X74600000Y-52200000D02*
X65300000Y-52200000D01*
X74600000Y-56600000D02*
X65300000Y-56600000D01*
X68400000Y-56900000D02*
X66000000Y-56900000D01*
X68400000Y-57900000D02*
X66000000Y-57900000D01*
X65500000Y-58400000D02*
X65500000Y-60800000D01*
X66500000Y-58400000D02*
X66500000Y-60800000D01*
X76500000Y-45800000D02*
X76500000Y-43400000D01*
X75500000Y-45800000D02*
X75500000Y-43400000D01*
X72300000Y-40000000D02*
X72300000Y-42400000D01*
X73300000Y-40000000D02*
X73300000Y-42400000D01*
X77900000Y-45800000D02*
X77900000Y-43400000D01*
X76900000Y-45800000D02*
X76900000Y-43400000D01*
X73700000Y-40000000D02*
X73700000Y-42400000D01*
X74700000Y-40000000D02*
X74700000Y-42400000D01*
X82600000Y-46800000D02*
X73300000Y-46800000D01*
X82600000Y-51200000D02*
X73300000Y-51200000D01*
X76400000Y-56900000D02*
X74000000Y-56900000D01*
X76400000Y-57900000D02*
X74000000Y-57900000D01*
X77900000Y-56400000D02*
X77900000Y-54000000D01*
X76900000Y-56400000D02*
X76900000Y-54000000D01*
X84700000Y-45800000D02*
X84700000Y-43400000D01*
X83700000Y-45800000D02*
X83700000Y-43400000D01*
X80500000Y-40000000D02*
X80500000Y-42400000D01*
X81500000Y-40000000D02*
X81500000Y-42400000D01*
X86100000Y-45800000D02*
X86100000Y-43400000D01*
X85100000Y-45800000D02*
X85100000Y-43400000D01*
X81900000Y-40000000D02*
X81900000Y-42400000D01*
X82900000Y-40000000D02*
X82900000Y-42400000D01*
X91200000Y-52200000D02*
X81900000Y-52200000D01*
X91200000Y-56600000D02*
X81900000Y-56600000D01*
X87400000Y-57900000D02*
X89800000Y-57900000D01*
X87400000Y-56900000D02*
X89800000Y-56900000D01*
X89500000Y-58600000D02*
X89500000Y-61000000D01*
X90500000Y-58600000D02*
X90500000Y-61000000D01*
X14600000Y-12100000D02*
X12200000Y-12100000D01*
X14600000Y-13100000D02*
X12200000Y-13100000D01*
X19600000Y-9900000D02*
X17200000Y-9900000D01*
X19600000Y-10900000D02*
X17200000Y-10900000D01*
X23000000Y-9900000D02*
X20600000Y-9900000D01*
X23000000Y-10900000D02*
X20600000Y-10900000D01*
X26000000Y-12900000D02*
X23600000Y-12900000D01*
X26000000Y-13900000D02*
X23600000Y-13900000D01*
X23600000Y-15300000D02*
X26000000Y-15300000D01*
X23600000Y-14300000D02*
X26000000Y-14300000D01*
X14600000Y-15700000D02*
X12200000Y-15700000D01*
X14600000Y-16700000D02*
X12200000Y-16700000D01*
X16700000Y-15600000D02*
X16700000Y-13200000D01*
X15700000Y-15600000D02*
X15700000Y-13200000D01*
X14600000Y-23100000D02*
X12200000Y-23100000D01*
X14600000Y-24100000D02*
X12200000Y-24100000D01*
X19600000Y-20900000D02*
X17200000Y-20900000D01*
X19600000Y-21900000D02*
X17200000Y-21900000D01*
X23000000Y-20900000D02*
X20600000Y-20900000D01*
X23000000Y-21900000D02*
X20600000Y-21900000D01*
X26000000Y-23900000D02*
X23600000Y-23900000D01*
X26000000Y-24900000D02*
X23600000Y-24900000D01*
X23600000Y-26300000D02*
X26000000Y-26300000D01*
X23600000Y-25300000D02*
X26000000Y-25300000D01*
X14600000Y-26700000D02*
X12200000Y-26700000D01*
X14600000Y-27700000D02*
X12200000Y-27700000D01*
X16700000Y-26600000D02*
X16700000Y-24200000D01*
X15700000Y-26600000D02*
X15700000Y-24200000D01*
X14600000Y-33900000D02*
X12200000Y-33900000D01*
X14600000Y-34900000D02*
X12200000Y-34900000D01*
X19600000Y-31700000D02*
X17200000Y-31700000D01*
X19600000Y-32700000D02*
X17200000Y-32700000D01*
X23000000Y-31700000D02*
X20600000Y-31700000D01*
X23000000Y-32700000D02*
X20600000Y-32700000D01*
X26000000Y-34700000D02*
X23600000Y-34700000D01*
X26000000Y-35700000D02*
X23600000Y-35700000D01*
X23600000Y-37100000D02*
X26000000Y-37100000D01*
X23600000Y-36100000D02*
X26000000Y-36100000D01*
X14600000Y-37300000D02*
X12200000Y-37300000D01*
X14600000Y-38300000D02*
X12200000Y-38300000D01*
X16700000Y-37400000D02*
X16700000Y-35000000D01*
X15700000Y-37400000D02*
X15700000Y-35000000D01*
X42700000Y-24300000D02*
G75*
G03X42700000Y-24300000I-200000J0D01*
G74*
G01*
X42641421Y-24300000D02*
G75*
G03X42641421Y-24300000I-141421J0D01*
G74*
G01*
X39600000Y-26800000D02*
X39600000Y-27200000D01*
X39600000Y-27200000D02*
X40000000Y-27200000D01*
X40000000Y-24300000D02*
X39600000Y-24300000D01*
X39600000Y-24300000D02*
X39600000Y-24700000D01*
X42500000Y-26800000D02*
X42500000Y-27200000D01*
X42500000Y-27200000D02*
X42100000Y-27200000D01*
X42500000Y-24700000D02*
X42500000Y-24300000D01*
X42500000Y-24300000D02*
X42100000Y-24300000D01*
X23600000Y-38500000D02*
X26000000Y-38500000D01*
X23600000Y-37500000D02*
X26000000Y-37500000D01*
X23900000Y-31500000D02*
X23900000Y-33900000D01*
X24900000Y-31500000D02*
X24900000Y-33900000D01*
X14300000Y-35000000D02*
X14300000Y-37400000D01*
X15300000Y-35000000D02*
X15300000Y-37400000D01*
X27700000Y-33900000D02*
X27700000Y-31500000D01*
X26700000Y-33900000D02*
X26700000Y-31500000D01*
X26300000Y-33900000D02*
X26300000Y-31500000D01*
X25300000Y-33900000D02*
X25300000Y-31500000D01*
X17700000Y-31400000D02*
X17700000Y-29000000D01*
X16700000Y-31400000D02*
X16700000Y-29000000D01*
X18900000Y-31400000D02*
X18900000Y-29000000D01*
X17900000Y-31400000D02*
X17900000Y-29000000D01*
X23600000Y-27700000D02*
X26000000Y-27700000D01*
X23600000Y-26700000D02*
X26000000Y-26700000D01*
X23900000Y-20700000D02*
X23900000Y-23100000D01*
X24900000Y-20700000D02*
X24900000Y-23100000D01*
X14300000Y-24200000D02*
X14300000Y-26600000D01*
X15300000Y-24200000D02*
X15300000Y-26600000D01*
X27700000Y-23100000D02*
X27700000Y-20700000D01*
X26700000Y-23100000D02*
X26700000Y-20700000D01*
X26300000Y-23100000D02*
X26300000Y-20700000D01*
X25300000Y-23100000D02*
X25300000Y-20700000D01*
X17700000Y-20400000D02*
X17700000Y-18000000D01*
X16700000Y-20400000D02*
X16700000Y-18000000D01*
X18900000Y-20400000D02*
X18900000Y-18000000D01*
X17900000Y-20400000D02*
X17900000Y-18000000D01*
X23600000Y-16700000D02*
X26000000Y-16700000D01*
X23600000Y-15700000D02*
X26000000Y-15700000D01*
X23900000Y-9700000D02*
X23900000Y-12100000D01*
X24900000Y-9700000D02*
X24900000Y-12100000D01*
X14300000Y-13200000D02*
X14300000Y-15600000D01*
X15300000Y-13200000D02*
X15300000Y-15600000D01*
X27700000Y-12100000D02*
X27700000Y-9700000D01*
X26700000Y-12100000D02*
X26700000Y-9700000D01*
X26300000Y-12100000D02*
X26300000Y-9700000D01*
X25300000Y-12100000D02*
X25300000Y-9700000D01*
X17700000Y-9400000D02*
X17700000Y-7000000D01*
X16700000Y-9400000D02*
X16700000Y-7000000D01*
X18900000Y-9400000D02*
X18900000Y-7000000D01*
X17900000Y-9400000D02*
X17900000Y-7000000D01*
X91900000Y-61000000D02*
X91900000Y-58600000D01*
X90900000Y-61000000D02*
X90900000Y-58600000D01*
X77000000Y-52500000D02*
X79400000Y-52500000D01*
X77000000Y-51500000D02*
X79400000Y-51500000D01*
X63100000Y-58200000D02*
X63100000Y-55800000D01*
X62100000Y-58200000D02*
X62100000Y-55800000D01*
X52200000Y-15400000D02*
X52200000Y-13000000D01*
X51200000Y-15400000D02*
X51200000Y-13000000D01*
X87800000Y-24700000D02*
X85400000Y-24700000D01*
X87800000Y-25700000D02*
X85400000Y-25700000D01*
X51200000Y-16550000D02*
X51200000Y-18950000D01*
X52200000Y-16550000D02*
X52200000Y-18950000D01*
X85400000Y-21300000D02*
X87800000Y-21300000D01*
X85400000Y-20300000D02*
X87800000Y-20300000D01*
X31400000Y-14300000D02*
X33800000Y-14300000D01*
X31400000Y-13300000D02*
X33800000Y-13300000D01*
X33600000Y-22500000D02*
X31200000Y-22500000D01*
X33600000Y-23500000D02*
X31200000Y-23500000D01*
X31400000Y-13100000D02*
X33800000Y-13100000D01*
X31400000Y-12100000D02*
X33800000Y-12100000D01*
X33600000Y-23700000D02*
X31200000Y-23700000D01*
X33600000Y-24700000D02*
X31200000Y-24700000D01*
X43000000Y-28000000D02*
X40600000Y-28000000D01*
X43000000Y-29000000D02*
X40600000Y-29000000D01*
X59750000Y-51500000D02*
X57350000Y-51500000D01*
X59750000Y-52500000D02*
X57350000Y-52500000D01*
X37700000Y-29000000D02*
X40100000Y-29000000D01*
X37700000Y-28000000D02*
X40100000Y-28000000D01*
X59750000Y-52800000D02*
X57350000Y-52800000D01*
X59750000Y-53800000D02*
X57350000Y-53800000D01*
X56850000Y-51500000D02*
X54450000Y-51500000D01*
X56850000Y-52500000D02*
X54450000Y-52500000D01*
X56850000Y-52800000D02*
X54450000Y-52800000D01*
X56850000Y-53800000D02*
X54450000Y-53800000D01*
X37500000Y-24100000D02*
X37500000Y-26500000D01*
X38500000Y-24100000D02*
X38500000Y-26500000D01*
X49050000Y-19000000D02*
X49050000Y-16600000D01*
X48050000Y-19000000D02*
X48050000Y-16600000D01*
X72600000Y-37100000D02*
X75000000Y-37100000D01*
X72600000Y-36100000D02*
X75000000Y-36100000D01*
X71000000Y-35700000D02*
X73400000Y-35700000D01*
X71000000Y-34700000D02*
X73400000Y-34700000D01*
X71900000Y-38600000D02*
X71900000Y-36200000D01*
X70900000Y-38600000D02*
X70900000Y-36200000D01*
X45500000Y-53600000D02*
X45500000Y-51200000D01*
X44500000Y-53600000D02*
X44500000Y-51200000D01*
X46900000Y-53600000D02*
X46900000Y-51200000D01*
X45900000Y-53600000D02*
X45900000Y-51200000D01*
X45900000Y-48200000D02*
X45900000Y-50600000D01*
X46900000Y-48200000D02*
X46900000Y-50600000D01*
X36700000Y-44000000D02*
X36700000Y-41600000D01*
X35700000Y-44000000D02*
X35700000Y-41600000D01*
X32800000Y-44100000D02*
X35200000Y-44100000D01*
X32800000Y-43100000D02*
X35200000Y-43100000D01*
X36800000Y-47900000D02*
X34400000Y-47900000D01*
X36800000Y-48900000D02*
X34400000Y-48900000D01*
X30600000Y-56700000D02*
X33000000Y-56700000D01*
X30600000Y-55700000D02*
X33000000Y-55700000D01*
X39300000Y-52000000D02*
X39300000Y-49600000D01*
X38300000Y-52000000D02*
X38300000Y-49600000D01*
X32800000Y-42500000D02*
X35200000Y-42500000D01*
X32800000Y-41500000D02*
X35200000Y-41500000D01*
X31400000Y-48900000D02*
X33800000Y-48900000D01*
X31400000Y-47900000D02*
X33800000Y-47900000D01*
X37400000Y-48900000D02*
X39800000Y-48900000D01*
X37400000Y-47900000D02*
X39800000Y-47900000D01*
X33000000Y-56900000D02*
X30600000Y-56900000D01*
X33000000Y-57900000D02*
X30600000Y-57900000D01*
X39500000Y-49600000D02*
X39500000Y-52000000D01*
X40500000Y-49600000D02*
X40500000Y-52000000D01*
X29900000Y-41600000D02*
X29900000Y-44000000D01*
X30900000Y-41600000D02*
X30900000Y-44000000D01*
X29900000Y-49600000D02*
X29900000Y-52000000D01*
X30900000Y-49600000D02*
X30900000Y-52000000D01*
X38800000Y-55700000D02*
X36400000Y-55700000D01*
X38800000Y-56700000D02*
X36400000Y-56700000D01*
X25700000Y-44000000D02*
X25700000Y-41600000D01*
X24700000Y-44000000D02*
X24700000Y-41600000D01*
X21800000Y-44100000D02*
X24200000Y-44100000D01*
X21800000Y-43100000D02*
X24200000Y-43100000D01*
X25800000Y-47900000D02*
X23400000Y-47900000D01*
X25800000Y-48900000D02*
X23400000Y-48900000D01*
X19600000Y-56700000D02*
X22000000Y-56700000D01*
X19600000Y-55700000D02*
X22000000Y-55700000D01*
X28300000Y-52000000D02*
X28300000Y-49600000D01*
X27300000Y-52000000D02*
X27300000Y-49600000D01*
X21800000Y-42500000D02*
X24200000Y-42500000D01*
X21800000Y-41500000D02*
X24200000Y-41500000D01*
X20400000Y-48900000D02*
X22800000Y-48900000D01*
X20400000Y-47900000D02*
X22800000Y-47900000D01*
X26400000Y-48900000D02*
X28800000Y-48900000D01*
X26400000Y-47900000D02*
X28800000Y-47900000D01*
X22000000Y-56900000D02*
X19600000Y-56900000D01*
X22000000Y-57900000D02*
X19600000Y-57900000D01*
X28500000Y-49600000D02*
X28500000Y-52000000D01*
X29500000Y-49600000D02*
X29500000Y-52000000D01*
X18900000Y-41600000D02*
X18900000Y-44000000D01*
X19900000Y-41600000D02*
X19900000Y-44000000D01*
X18900000Y-49600000D02*
X18900000Y-52000000D01*
X19900000Y-49600000D02*
X19900000Y-52000000D01*
X27800000Y-55700000D02*
X25400000Y-55700000D01*
X27800000Y-56700000D02*
X25400000Y-56700000D01*
X14700000Y-44000000D02*
X14700000Y-41600000D01*
X13700000Y-44000000D02*
X13700000Y-41600000D01*
X10800000Y-44100000D02*
X13200000Y-44100000D01*
X10800000Y-43100000D02*
X13200000Y-43100000D01*
X14800000Y-47900000D02*
X12400000Y-47900000D01*
X14800000Y-48900000D02*
X12400000Y-48900000D01*
X8600000Y-56700000D02*
X11000000Y-56700000D01*
X8600000Y-55700000D02*
X11000000Y-55700000D01*
X17300000Y-52000000D02*
X17300000Y-49600000D01*
X16300000Y-52000000D02*
X16300000Y-49600000D01*
X10800000Y-42500000D02*
X13200000Y-42500000D01*
X10800000Y-41500000D02*
X13200000Y-41500000D01*
X9400000Y-48900000D02*
X11800000Y-48900000D01*
X9400000Y-47900000D02*
X11800000Y-47900000D01*
X15400000Y-48900000D02*
X17800000Y-48900000D01*
X15400000Y-47900000D02*
X17800000Y-47900000D01*
X11000000Y-56900000D02*
X8600000Y-56900000D01*
X11000000Y-57900000D02*
X8600000Y-57900000D01*
X17500000Y-49600000D02*
X17500000Y-52000000D01*
X18500000Y-49600000D02*
X18500000Y-52000000D01*
X7900000Y-41600000D02*
X7900000Y-44000000D01*
X8900000Y-41600000D02*
X8900000Y-44000000D01*
X7900000Y-49600000D02*
X7900000Y-52000000D01*
X8900000Y-49600000D02*
X8900000Y-52000000D01*
X16800000Y-55700000D02*
X14400000Y-55700000D01*
X16800000Y-56700000D02*
X14400000Y-56700000D01*
X35000000Y-35200000D02*
X37400000Y-35200000D01*
X35000000Y-34200000D02*
X37400000Y-34200000D01*
X31900000Y-34450000D02*
X31900000Y-36850000D01*
X32900000Y-34450000D02*
X32900000Y-36850000D01*
X40300000Y-34200000D02*
X37900000Y-34200000D01*
X40300000Y-35200000D02*
X37900000Y-35200000D01*
X65500000Y-29800000D02*
X65500000Y-27400000D01*
X64500000Y-29800000D02*
X64500000Y-27400000D01*
X60600000Y-47500000D02*
X63000000Y-47500000D01*
X60600000Y-46500000D02*
X63000000Y-46500000D01*
X44100000Y-41000000D02*
X41700000Y-41000000D01*
X44100000Y-42000000D02*
X41700000Y-42000000D01*
X41400000Y-41000000D02*
X39000000Y-41000000D01*
X41400000Y-42000000D02*
X39000000Y-42000000D01*
X43700000Y-29000000D02*
X43700000Y-31400000D01*
X44700000Y-29000000D02*
X44700000Y-31400000D01*
X49600000Y-45900000D02*
X47200000Y-45900000D01*
X49600000Y-46900000D02*
X47200000Y-46900000D01*
X60600000Y-46100000D02*
X63000000Y-46100000D01*
X60600000Y-45100000D02*
X63000000Y-45100000D01*
X41400000Y-39700000D02*
X39000000Y-39700000D01*
X41400000Y-40700000D02*
X39000000Y-40700000D01*
X44400000Y-33100000D02*
X42000000Y-33100000D01*
X44400000Y-34100000D02*
X42000000Y-34100000D01*
X44400000Y-34500000D02*
X42000000Y-34500000D01*
X44400000Y-35500000D02*
X42000000Y-35500000D01*
X62650000Y-29800000D02*
X62650000Y-27400000D01*
X61650000Y-29800000D02*
X61650000Y-27400000D01*
X64100000Y-29800000D02*
X64100000Y-27400000D01*
X63100000Y-29800000D02*
X63100000Y-27400000D01*
X69900000Y-6800000D02*
X72300000Y-6800000D01*
X69900000Y-5800000D02*
X72300000Y-5800000D01*
X75700000Y-30400000D02*
X75700000Y-32800000D01*
X76700000Y-30400000D02*
X76700000Y-32800000D01*
X76900000Y-30400000D02*
X76900000Y-32800000D01*
X77900000Y-30400000D02*
X77900000Y-32800000D01*
X80000000Y-34500000D02*
X82400000Y-34500000D01*
X80000000Y-33500000D02*
X82400000Y-33500000D01*
X84500000Y-30400000D02*
X84500000Y-32800000D01*
X85500000Y-30400000D02*
X85500000Y-32800000D01*
X66900000Y-2400000D02*
X66900000Y-4800000D01*
X67900000Y-2400000D02*
X67900000Y-4800000D01*
X85900000Y-30400000D02*
X85900000Y-32800000D01*
X86900000Y-30400000D02*
X86900000Y-32800000D01*
X43000000Y-44700000D02*
X45400000Y-44700000D01*
X43000000Y-43700000D02*
X45400000Y-43700000D01*
X66700000Y-50700000D02*
X66700000Y-49800000D01*
X65300000Y-48800000D02*
X65300000Y-49700000D01*
X65300000Y-51700000D02*
X65300000Y-50800000D01*
X65300000Y-48800000D02*
X66700000Y-48800000D01*
X66700000Y-51700000D02*
X65300000Y-51700000D01*
X68500000Y-46300000D02*
X68500000Y-47200000D01*
X69900000Y-48200000D02*
X69900000Y-47300000D01*
X69900000Y-45300000D02*
X69900000Y-46200000D01*
X69900000Y-48200000D02*
X68500000Y-48200000D01*
X68500000Y-45300000D02*
X69900000Y-45300000D01*
X74100000Y-45100000D02*
X74100000Y-44200000D01*
X72700000Y-43200000D02*
X72700000Y-44100000D01*
X72700000Y-46100000D02*
X72700000Y-45200000D01*
X72700000Y-43200000D02*
X74100000Y-43200000D01*
X74100000Y-46100000D02*
X72700000Y-46100000D01*
X75900000Y-40700000D02*
X75900000Y-41600000D01*
X77300000Y-42600000D02*
X77300000Y-41700000D01*
X77300000Y-39700000D02*
X77300000Y-40600000D01*
X77300000Y-42600000D02*
X75900000Y-42600000D01*
X75900000Y-39700000D02*
X77300000Y-39700000D01*
X82300000Y-45100000D02*
X82300000Y-44200000D01*
X80900000Y-43200000D02*
X80900000Y-44100000D01*
X80900000Y-46100000D02*
X80900000Y-45200000D01*
X80900000Y-43200000D02*
X82300000Y-43200000D01*
X82300000Y-46100000D02*
X80900000Y-46100000D01*
X84100000Y-40700000D02*
X84100000Y-41600000D01*
X85500000Y-42600000D02*
X85500000Y-41700000D01*
X85500000Y-39700000D02*
X85500000Y-40600000D01*
X85500000Y-42600000D02*
X84100000Y-42600000D01*
X84100000Y-39700000D02*
X85500000Y-39700000D01*
X43800000Y-53300000D02*
X41400000Y-53300000D01*
X43800000Y-54300000D02*
X41400000Y-54300000D01*
X40700000Y-55000000D02*
X40700000Y-52600000D01*
X39700000Y-55000000D02*
X39700000Y-52600000D01*
X41400000Y-46300000D02*
X43800000Y-46300000D01*
X41400000Y-45300000D02*
X43800000Y-45300000D01*
X44300000Y-47600000D02*
G75*
G03X44300000Y-47600000I-200000J0D01*
G74*
G01*
X44200000Y-47600000D02*
G75*
G03X44200000Y-47600000I-100000J0D01*
G74*
G01*
X41100000Y-47600000D02*
X41100000Y-52100000D01*
X44100000Y-47600000D02*
X44100000Y-52100000D01*
X39950000Y-33900000D02*
X35350000Y-33900000D01*
X35150000Y-33700000D02*
X35350000Y-33900000D01*
X40150000Y-33700000D02*
X39950000Y-33900000D01*
X40000000Y-30700000D02*
X35300000Y-30700000D01*
X40150000Y-30900000D02*
X40000000Y-30700000D01*
X35150000Y-30900000D02*
X35300000Y-30700000D01*
X7500000Y-48200000D02*
G75*
G03X7500000Y-48200000I-3300000J0D01*
G74*
G01*
X29900000Y-4400000D02*
G75*
G03X29900000Y-4400000I-3300000J0D01*
G74*
G01*
X79500000Y-4200000D02*
G75*
G03X79500000Y-4200000I-3300000J0D01*
G74*
G01*
X98700000Y-65400000D02*
G75*
G03X98700000Y-65400000I-3300000J0D01*
G74*
G01*
X97700000Y-15200000D02*
G75*
G03X97700000Y-15200000I-3300000J0D01*
G74*
G01*
X11100000Y-12800000D02*
G75*
G03X11100000Y-12800000I-3300000J0D01*
G74*
G01*
D12*
X0Y-33000000D02*
X0Y-39000000D01*
X5200000Y-33000000D02*
X0Y-33000000D01*
X11700000Y-33000000D02*
X7000000Y-33000000D01*
X11700000Y-39000000D02*
X11700000Y-33000000D01*
X7000000Y-39000000D02*
X11700000Y-39000000D01*
X0Y-39000000D02*
X5200000Y-39000000D01*
X0Y-25000000D02*
X0Y-31000000D01*
X5200000Y-25000000D02*
X0Y-25000000D01*
X11700000Y-25000000D02*
X7000000Y-25000000D01*
X11700000Y-31000000D02*
X11700000Y-25000000D01*
X7000000Y-31000000D02*
X11700000Y-31000000D01*
X0Y-31000000D02*
X5200000Y-31000000D01*
X0Y-17000000D02*
X0Y-23000000D01*
X5200000Y-17000000D02*
X0Y-17000000D01*
X11700000Y-17000000D02*
X7000000Y-17000000D01*
X11700000Y-23000000D02*
X11700000Y-17000000D01*
X7000000Y-23000000D02*
X11700000Y-23000000D01*
X0Y-23000000D02*
X5200000Y-23000000D01*
X83000000Y-70000000D02*
X89000000Y-70000000D01*
X83000000Y-64800000D02*
X83000000Y-70000000D01*
X83000000Y-58300000D02*
X83000000Y-63000000D01*
X89000000Y-58300000D02*
X83000000Y-58300000D01*
X89000000Y-63000000D02*
X89000000Y-58300000D01*
X89000000Y-70000000D02*
X89000000Y-64800000D01*
X75000000Y-70000000D02*
X81000000Y-70000000D01*
X75000000Y-64800000D02*
X75000000Y-70000000D01*
X75000000Y-58300000D02*
X75000000Y-63000000D01*
X81000000Y-58300000D02*
X75000000Y-58300000D01*
X81000000Y-63000000D02*
X81000000Y-58300000D01*
X81000000Y-70000000D02*
X81000000Y-64800000D01*
X67000000Y-70000000D02*
X73000000Y-70000000D01*
X67000000Y-64800000D02*
X67000000Y-70000000D01*
X67000000Y-58300000D02*
X67000000Y-63000000D01*
X73000000Y-58300000D02*
X67000000Y-58300000D01*
X73000000Y-63000000D02*
X73000000Y-58300000D01*
X73000000Y-70000000D02*
X73000000Y-64800000D01*
X99950000Y-26000000D02*
X99950000Y-20000000D01*
X94750000Y-26000000D02*
X99950000Y-26000000D01*
X88250000Y-26000000D02*
X92950000Y-26000000D01*
X88250000Y-20000000D02*
X88250000Y-26000000D01*
X92950000Y-20000000D02*
X88250000Y-20000000D01*
X99950000Y-20000000D02*
X94750000Y-20000000D01*
X100000000Y-42000000D02*
X100000000Y-36000000D01*
X94800000Y-42000000D02*
X100000000Y-42000000D01*
X88300000Y-42000000D02*
X93000000Y-42000000D01*
X88300000Y-36000000D02*
X88300000Y-42000000D01*
X93000000Y-36000000D02*
X88300000Y-36000000D01*
X100000000Y-36000000D02*
X94800000Y-36000000D01*
X100000000Y-50000000D02*
X100000000Y-44000000D01*
X94800000Y-50000000D02*
X100000000Y-50000000D01*
X88300000Y-50000000D02*
X93000000Y-50000000D01*
X88300000Y-44000000D02*
X88300000Y-50000000D01*
X93000000Y-44000000D02*
X88300000Y-44000000D01*
X100000000Y-44000000D02*
X94800000Y-44000000D01*
X100000000Y-34000000D02*
X100000000Y-28000000D01*
X94800000Y-34000000D02*
X100000000Y-34000000D01*
X88300000Y-34000000D02*
X93000000Y-34000000D01*
X88300000Y-28000000D02*
X88300000Y-34000000D01*
X93000000Y-28000000D02*
X88300000Y-28000000D01*
X100000000Y-28000000D02*
X94800000Y-28000000D01*
X53000000Y-50000D02*
X43000000Y-50000D01*
X53000000Y-5250000D02*
X53000000Y-50000D01*
X53000000Y-11750000D02*
X53000000Y-7050000D01*
X43000000Y-11750000D02*
X53000000Y-11750000D01*
X43000000Y-7050000D02*
X43000000Y-11750000D01*
X43000000Y-50000D02*
X43000000Y-5250000D01*
X41000000Y-50000D02*
X31000000Y-50000D01*
X41000000Y-5250000D02*
X41000000Y-50000D01*
X41000000Y-11750000D02*
X41000000Y-7050000D01*
X31000000Y-11750000D02*
X41000000Y-11750000D01*
X31000000Y-7050000D02*
X31000000Y-11750000D01*
X31000000Y-50000D02*
X31000000Y-5250000D01*
X23000000Y-69950000D02*
X33000000Y-69950000D01*
X23000000Y-64750000D02*
X23000000Y-69950000D01*
X23000000Y-58250000D02*
X23000000Y-62950000D01*
X33000000Y-58250000D02*
X23000000Y-58250000D01*
X33000000Y-62950000D02*
X33000000Y-58250000D01*
X33000000Y-69950000D02*
X33000000Y-64750000D01*
X12000000Y-69950000D02*
X22000000Y-69950000D01*
X12000000Y-64750000D02*
X12000000Y-69950000D01*
X12000000Y-58250000D02*
X12000000Y-62950000D01*
X22000000Y-58250000D02*
X12000000Y-58250000D01*
X22000000Y-62950000D02*
X22000000Y-58250000D01*
X22000000Y-69950000D02*
X22000000Y-64750000D01*
X1000000Y-69950000D02*
X11000000Y-69950000D01*
X1000000Y-64750000D02*
X1000000Y-69950000D01*
X1000000Y-58250000D02*
X1000000Y-62950000D01*
X11000000Y-58250000D02*
X1000000Y-58250000D01*
X11000000Y-62950000D02*
X11000000Y-58250000D01*
X11000000Y-69950000D02*
X11000000Y-64750000D01*
D14*
X60200000Y-9000000D02*
X60200000Y-9400000D01*
X60200000Y-9400000D02*
X62400000Y-9400000D01*
X62400000Y-9400000D02*
X62400000Y-9000000D01*
X62400000Y-9000000D02*
X60200000Y-9000000D01*
X60600000Y-11600000D02*
X60600000Y-11000000D01*
X60600000Y-11000000D02*
X60000000Y-11000000D01*
X60000000Y-11000000D02*
X60000000Y-11600000D01*
X60000000Y-11600000D02*
X60600000Y-11600000D01*
X59800000Y-13600000D02*
X60600000Y-13600000D01*
X60600000Y-13600000D02*
X60600000Y-20200000D01*
X60600000Y-20200000D02*
X63100000Y-20200000D01*
X63100000Y-20200000D02*
X63100000Y-20900000D01*
X70600000Y-20900000D02*
X70600000Y-11000000D01*
X70600000Y-11000000D02*
X65600000Y-11000000D01*
X65600000Y-11000000D02*
X65600000Y-10400000D01*
X65600000Y-10400000D02*
X63000000Y-10400000D01*
X63000000Y-10400000D02*
X63000000Y-14800000D01*
X63000000Y-14800000D02*
X61700000Y-14800000D01*
X61700000Y-14800000D02*
X61700000Y-12500000D01*
X61700000Y-12500000D02*
X59800000Y-12500000D01*
X65700000Y-7400000D02*
X65700000Y-8100000D01*
X65700000Y-8100000D02*
X68100000Y-8100000D01*
X68100000Y-8100000D02*
X68100000Y-7400000D01*
X76300000Y-19900000D02*
X76300000Y-9800000D01*
X75800000Y-20400000D02*
X74000000Y-20400000D01*
X75800000Y-20400000D02*
G75*
G03X76300000Y-19900000I0J500000D01*
G74*
G01*
X75900000Y-9400000D02*
X74000000Y-9400000D01*
X76300000Y-9800000D02*
G75*
G03X75900000Y-9400000I-400000J0D01*
G74*
G01*
X71500000Y-11200000D02*
X71500000Y-19900000D01*
X71500000Y-19900000D02*
X74000000Y-19900000D01*
X74000000Y-19900000D02*
X74000000Y-20900000D01*
X74000000Y-20900000D02*
X73600000Y-20900000D01*
X74000000Y-10500000D02*
X71500000Y-11200000D01*
X74000000Y-10500000D02*
X74000000Y-8300000D01*
X74000000Y-8300000D02*
X73600000Y-8300000D01*
X59800000Y-9400000D02*
X59800000Y-8200000D01*
X59800000Y-13600000D02*
X59800000Y-10600000D01*
X59800000Y-20200000D02*
X59800000Y-14900000D01*
X70600000Y-20900000D02*
X63100000Y-20900000D01*
X71600000Y-7400000D02*
X63100000Y-7400000D01*
X31000000Y-28100000D02*
X33500000Y-28100000D01*
X31000000Y-27100000D02*
X33500000Y-27100000D01*
X32200000Y-27800000D02*
X32100000Y-27800000D01*
X32300000Y-27700000D02*
X32100000Y-27700000D01*
X32200000Y-27400000D02*
X32100000Y-27400000D01*
X32300000Y-27500000D02*
X32100000Y-27500000D01*
X32400000Y-27600000D02*
X32100000Y-27600000D01*
X32000000Y-27200000D02*
X32500000Y-27600000D01*
X32500000Y-27600000D02*
X32000000Y-28000000D01*
X32000000Y-28000000D02*
X32000000Y-27200000D01*
X30900000Y-28600000D02*
X30900000Y-31000000D01*
X31900000Y-28600000D02*
X31900000Y-31000000D01*
D10*
G36*
X96895736Y-62738875D02*
X96893366Y-62787746D01*
X96872523Y-62818489D01*
X96854842Y-62823000D01*
X96830121Y-62811207D01*
X96774208Y-62777355D01*
X96690543Y-62723733D01*
X96582563Y-62652633D01*
X96453707Y-62566343D01*
X96307414Y-62467155D01*
X96147121Y-62357357D01*
X95976267Y-62239240D01*
X95928800Y-62206240D01*
X95754527Y-62084672D01*
X95589338Y-61968944D01*
X95436790Y-61861580D01*
X95300440Y-61765108D01*
X95183844Y-61682054D01*
X95090559Y-61614943D01*
X95024142Y-61566302D01*
X94988149Y-61538657D01*
X94984542Y-61535530D01*
X94938296Y-61473875D01*
X94926334Y-61408989D01*
X94929800Y-61360576D01*
X94945620Y-61343531D01*
X94974288Y-61345565D01*
X94998883Y-61358810D01*
X95054107Y-61393668D01*
X95135971Y-61447387D01*
X95240488Y-61517211D01*
X95363669Y-61600388D01*
X95501526Y-61694163D01*
X95650070Y-61795783D01*
X95805314Y-61902495D01*
X95963270Y-62011543D01*
X96119948Y-62120175D01*
X96271361Y-62225637D01*
X96413521Y-62325175D01*
X96542440Y-62416035D01*
X96654128Y-62495464D01*
X96744598Y-62560707D01*
X96809862Y-62609012D01*
X96845932Y-62637623D01*
X96847209Y-62638770D01*
X96880170Y-62684882D01*
X96895736Y-62738875D01*
X96895736Y-62738875D01*
X96895736Y-62738875D01*
G37*
X96895736Y-62738875D02*
X96893366Y-62787746D01*
X96872523Y-62818489D01*
X96854842Y-62823000D01*
X96830121Y-62811207D01*
X96774208Y-62777355D01*
X96690543Y-62723733D01*
X96582563Y-62652633D01*
X96453707Y-62566343D01*
X96307414Y-62467155D01*
X96147121Y-62357357D01*
X95976267Y-62239240D01*
X95928800Y-62206240D01*
X95754527Y-62084672D01*
X95589338Y-61968944D01*
X95436790Y-61861580D01*
X95300440Y-61765108D01*
X95183844Y-61682054D01*
X95090559Y-61614943D01*
X95024142Y-61566302D01*
X94988149Y-61538657D01*
X94984542Y-61535530D01*
X94938296Y-61473875D01*
X94926334Y-61408989D01*
X94929800Y-61360576D01*
X94945620Y-61343531D01*
X94974288Y-61345565D01*
X94998883Y-61358810D01*
X95054107Y-61393668D01*
X95135971Y-61447387D01*
X95240488Y-61517211D01*
X95363669Y-61600388D01*
X95501526Y-61694163D01*
X95650070Y-61795783D01*
X95805314Y-61902495D01*
X95963270Y-62011543D01*
X96119948Y-62120175D01*
X96271361Y-62225637D01*
X96413521Y-62325175D01*
X96542440Y-62416035D01*
X96654128Y-62495464D01*
X96744598Y-62560707D01*
X96809862Y-62609012D01*
X96845932Y-62637623D01*
X96847209Y-62638770D01*
X96880170Y-62684882D01*
X96895736Y-62738875D01*
X96895736Y-62738875D01*
G36*
X96896748Y-62194801D02*
X96883434Y-62236726D01*
X96857253Y-62251500D01*
X96833072Y-62239695D01*
X96777671Y-62205795D01*
X96694447Y-62152075D01*
X96586797Y-62080809D01*
X96458118Y-61994270D01*
X96311806Y-61894732D01*
X96151259Y-61784469D01*
X95979873Y-61665756D01*
X95920628Y-61624494D01*
X95745603Y-61502236D01*
X95580001Y-61386186D01*
X95427289Y-61278802D01*
X95290936Y-61182539D01*
X95174410Y-61099853D01*
X95081180Y-61033202D01*
X95014714Y-60985041D01*
X94978480Y-60957826D01*
X94973959Y-60954055D01*
X94944669Y-60910728D01*
X94927541Y-60853450D01*
X94923346Y-60795206D01*
X94932852Y-60748978D01*
X94956834Y-60727751D01*
X94960508Y-60727500D01*
X94983315Y-60739257D01*
X95036766Y-60772714D01*
X95116927Y-60825147D01*
X95219864Y-60893835D01*
X95341641Y-60976054D01*
X95478326Y-61069082D01*
X95625982Y-61170196D01*
X95780677Y-61276674D01*
X95938476Y-61385792D01*
X96095444Y-61494828D01*
X96247647Y-61601060D01*
X96391151Y-61701765D01*
X96522021Y-61794219D01*
X96636324Y-61875701D01*
X96730124Y-61943488D01*
X96799488Y-61994856D01*
X96840480Y-62027085D01*
X96847209Y-62033151D01*
X96878047Y-62080230D01*
X96894756Y-62138374D01*
X96896748Y-62194801D01*
X96896748Y-62194801D01*
X96896748Y-62194801D01*
G37*
X96896748Y-62194801D02*
X96883434Y-62236726D01*
X96857253Y-62251500D01*
X96833072Y-62239695D01*
X96777671Y-62205795D01*
X96694447Y-62152075D01*
X96586797Y-62080809D01*
X96458118Y-61994270D01*
X96311806Y-61894732D01*
X96151259Y-61784469D01*
X95979873Y-61665756D01*
X95920628Y-61624494D01*
X95745603Y-61502236D01*
X95580001Y-61386186D01*
X95427289Y-61278802D01*
X95290936Y-61182539D01*
X95174410Y-61099853D01*
X95081180Y-61033202D01*
X95014714Y-60985041D01*
X94978480Y-60957826D01*
X94973959Y-60954055D01*
X94944669Y-60910728D01*
X94927541Y-60853450D01*
X94923346Y-60795206D01*
X94932852Y-60748978D01*
X94956834Y-60727751D01*
X94960508Y-60727500D01*
X94983315Y-60739257D01*
X95036766Y-60772714D01*
X95116927Y-60825147D01*
X95219864Y-60893835D01*
X95341641Y-60976054D01*
X95478326Y-61069082D01*
X95625982Y-61170196D01*
X95780677Y-61276674D01*
X95938476Y-61385792D01*
X96095444Y-61494828D01*
X96247647Y-61601060D01*
X96391151Y-61701765D01*
X96522021Y-61794219D01*
X96636324Y-61875701D01*
X96730124Y-61943488D01*
X96799488Y-61994856D01*
X96840480Y-62027085D01*
X96847209Y-62033151D01*
X96878047Y-62080230D01*
X96894756Y-62138374D01*
X96896748Y-62194801D01*
X96896748Y-62194801D01*
G36*
X96894834Y-61525960D02*
X96892604Y-61592050D01*
X96883617Y-61625823D01*
X96864423Y-61637161D01*
X96855856Y-61637667D01*
X96831394Y-61625859D01*
X96775726Y-61591954D01*
X96692258Y-61538228D01*
X96584395Y-61466958D01*
X96455543Y-61380421D01*
X96309109Y-61280891D01*
X96148499Y-61170647D01*
X95977118Y-61051965D01*
X95919231Y-61011651D01*
X95744292Y-60889432D01*
X95578747Y-60773358D01*
X95426074Y-60665897D01*
X95289748Y-60569514D01*
X95173246Y-60486676D01*
X95080046Y-60419850D01*
X95013623Y-60371503D01*
X94977456Y-60344102D01*
X94973038Y-60340346D01*
X94944389Y-60306540D01*
X94931232Y-60265392D01*
X94929624Y-60201774D01*
X94930705Y-60177904D01*
X94936162Y-60110443D01*
X94946180Y-60075413D01*
X94965065Y-60062911D01*
X94981081Y-60062059D01*
X95006579Y-60074166D01*
X95062554Y-60108120D01*
X95145032Y-60161161D01*
X95250040Y-60230532D01*
X95373606Y-60313472D01*
X95511756Y-60407225D01*
X95660519Y-60509030D01*
X95815920Y-60616130D01*
X95973989Y-60725765D01*
X96130751Y-60835178D01*
X96282233Y-60941609D01*
X96424464Y-61042300D01*
X96553471Y-61134492D01*
X96665280Y-61215426D01*
X96755919Y-61282344D01*
X96821415Y-61332487D01*
X96857795Y-61363097D01*
X96863054Y-61368881D01*
X96883116Y-61420395D01*
X96893914Y-61495912D01*
X96894834Y-61525960D01*
X96894834Y-61525960D01*
X96894834Y-61525960D01*
G37*
X96894834Y-61525960D02*
X96892604Y-61592050D01*
X96883617Y-61625823D01*
X96864423Y-61637161D01*
X96855856Y-61637667D01*
X96831394Y-61625859D01*
X96775726Y-61591954D01*
X96692258Y-61538228D01*
X96584395Y-61466958D01*
X96455543Y-61380421D01*
X96309109Y-61280891D01*
X96148499Y-61170647D01*
X95977118Y-61051965D01*
X95919231Y-61011651D01*
X95744292Y-60889432D01*
X95578747Y-60773358D01*
X95426074Y-60665897D01*
X95289748Y-60569514D01*
X95173246Y-60486676D01*
X95080046Y-60419850D01*
X95013623Y-60371503D01*
X94977456Y-60344102D01*
X94973038Y-60340346D01*
X94944389Y-60306540D01*
X94931232Y-60265392D01*
X94929624Y-60201774D01*
X94930705Y-60177904D01*
X94936162Y-60110443D01*
X94946180Y-60075413D01*
X94965065Y-60062911D01*
X94981081Y-60062059D01*
X95006579Y-60074166D01*
X95062554Y-60108120D01*
X95145032Y-60161161D01*
X95250040Y-60230532D01*
X95373606Y-60313472D01*
X95511756Y-60407225D01*
X95660519Y-60509030D01*
X95815920Y-60616130D01*
X95973989Y-60725765D01*
X96130751Y-60835178D01*
X96282233Y-60941609D01*
X96424464Y-61042300D01*
X96553471Y-61134492D01*
X96665280Y-61215426D01*
X96755919Y-61282344D01*
X96821415Y-61332487D01*
X96857795Y-61363097D01*
X96863054Y-61368881D01*
X96883116Y-61420395D01*
X96893914Y-61495912D01*
X96894834Y-61525960D01*
X96894834Y-61525960D01*
G36*
X96892199Y-60713405D02*
X96890412Y-60789997D01*
X96890400Y-60790272D01*
X96884093Y-60870389D01*
X96872762Y-60915715D01*
X96854411Y-60933683D01*
X96851719Y-60934339D01*
X96828535Y-60923757D01*
X96774105Y-60891054D01*
X96691802Y-60838476D01*
X96585000Y-60768269D01*
X96457070Y-60682678D01*
X96311387Y-60583947D01*
X96151323Y-60474322D01*
X95980250Y-60356048D01*
X95920386Y-60314408D01*
X95745256Y-60192031D01*
X95579565Y-60075523D01*
X95426790Y-59967378D01*
X95290408Y-59870093D01*
X95173895Y-59786161D01*
X95080728Y-59718078D01*
X95014383Y-59668339D01*
X94978338Y-59639438D01*
X94973959Y-59635211D01*
X94945110Y-59593263D01*
X94930573Y-59540578D01*
X94926347Y-59462070D01*
X94926334Y-59455655D01*
X94931688Y-59371067D01*
X94949559Y-59324355D01*
X94982654Y-59312216D01*
X95029906Y-59329290D01*
X95061414Y-59349033D01*
X95123029Y-59390191D01*
X95210602Y-59449854D01*
X95319985Y-59525113D01*
X95447028Y-59613058D01*
X95587584Y-59710780D01*
X95737504Y-59815370D01*
X95892638Y-59923918D01*
X96048839Y-60033514D01*
X96201958Y-60141250D01*
X96347845Y-60244215D01*
X96482353Y-60339501D01*
X96601334Y-60424198D01*
X96700637Y-60495396D01*
X96776115Y-60550187D01*
X96823619Y-60585661D01*
X96837483Y-60596937D01*
X96869553Y-60630826D01*
X96886519Y-60664998D01*
X96892199Y-60713405D01*
X96892199Y-60713405D01*
X96892199Y-60713405D01*
G37*
X96892199Y-60713405D02*
X96890412Y-60789997D01*
X96890400Y-60790272D01*
X96884093Y-60870389D01*
X96872762Y-60915715D01*
X96854411Y-60933683D01*
X96851719Y-60934339D01*
X96828535Y-60923757D01*
X96774105Y-60891054D01*
X96691802Y-60838476D01*
X96585000Y-60768269D01*
X96457070Y-60682678D01*
X96311387Y-60583947D01*
X96151323Y-60474322D01*
X95980250Y-60356048D01*
X95920386Y-60314408D01*
X95745256Y-60192031D01*
X95579565Y-60075523D01*
X95426790Y-59967378D01*
X95290408Y-59870093D01*
X95173895Y-59786161D01*
X95080728Y-59718078D01*
X95014383Y-59668339D01*
X94978338Y-59639438D01*
X94973959Y-59635211D01*
X94945110Y-59593263D01*
X94930573Y-59540578D01*
X94926347Y-59462070D01*
X94926334Y-59455655D01*
X94931688Y-59371067D01*
X94949559Y-59324355D01*
X94982654Y-59312216D01*
X95029906Y-59329290D01*
X95061414Y-59349033D01*
X95123029Y-59390191D01*
X95210602Y-59449854D01*
X95319985Y-59525113D01*
X95447028Y-59613058D01*
X95587584Y-59710780D01*
X95737504Y-59815370D01*
X95892638Y-59923918D01*
X96048839Y-60033514D01*
X96201958Y-60141250D01*
X96347845Y-60244215D01*
X96482353Y-60339501D01*
X96601334Y-60424198D01*
X96700637Y-60495396D01*
X96776115Y-60550187D01*
X96823619Y-60585661D01*
X96837483Y-60596937D01*
X96869553Y-60630826D01*
X96886519Y-60664998D01*
X96892199Y-60713405D01*
X96892199Y-60713405D01*
G36*
X96892455Y-59963004D02*
X96890416Y-60031445D01*
X96884431Y-60121917D01*
X96874470Y-60184698D01*
X96861685Y-60212798D01*
X96860424Y-60213391D01*
X96833054Y-60205780D01*
X96781077Y-60178623D01*
X96714195Y-60137173D01*
X96691091Y-60121655D01*
X96483644Y-59979206D01*
X96277312Y-59836717D01*
X96075343Y-59696486D01*
X95880983Y-59560811D01*
X95697481Y-59431988D01*
X95528083Y-59312316D01*
X95376037Y-59204091D01*
X95244590Y-59109612D01*
X95136990Y-59031175D01*
X95056484Y-58971078D01*
X95006320Y-58931619D01*
X94995125Y-58921796D01*
X94960428Y-58886494D01*
X94939927Y-58853934D01*
X94929898Y-58811636D01*
X94926615Y-58747124D01*
X94926334Y-58691348D01*
X94927070Y-58608540D01*
X94930955Y-58559385D01*
X94940499Y-58535205D01*
X94958213Y-58527325D01*
X94973959Y-58526812D01*
X94998170Y-58538643D01*
X95053016Y-58572108D01*
X95134510Y-58624471D01*
X95238671Y-58693000D01*
X95361514Y-58774959D01*
X95499055Y-58867614D01*
X95647312Y-58968231D01*
X95802301Y-59074075D01*
X95960037Y-59182413D01*
X96116538Y-59290509D01*
X96267820Y-59395630D01*
X96409899Y-59495042D01*
X96538791Y-59586008D01*
X96650514Y-59665797D01*
X96741083Y-59731672D01*
X96806515Y-59780900D01*
X96837500Y-59805949D01*
X96866549Y-59833609D01*
X96883641Y-59861543D01*
X96891400Y-59900943D01*
X96892455Y-59963004D01*
X96892455Y-59963004D01*
X96892455Y-59963004D01*
G37*
X96892455Y-59963004D02*
X96890416Y-60031445D01*
X96884431Y-60121917D01*
X96874470Y-60184698D01*
X96861685Y-60212798D01*
X96860424Y-60213391D01*
X96833054Y-60205780D01*
X96781077Y-60178623D01*
X96714195Y-60137173D01*
X96691091Y-60121655D01*
X96483644Y-59979206D01*
X96277312Y-59836717D01*
X96075343Y-59696486D01*
X95880983Y-59560811D01*
X95697481Y-59431988D01*
X95528083Y-59312316D01*
X95376037Y-59204091D01*
X95244590Y-59109612D01*
X95136990Y-59031175D01*
X95056484Y-58971078D01*
X95006320Y-58931619D01*
X94995125Y-58921796D01*
X94960428Y-58886494D01*
X94939927Y-58853934D01*
X94929898Y-58811636D01*
X94926615Y-58747124D01*
X94926334Y-58691348D01*
X94927070Y-58608540D01*
X94930955Y-58559385D01*
X94940499Y-58535205D01*
X94958213Y-58527325D01*
X94973959Y-58526812D01*
X94998170Y-58538643D01*
X95053016Y-58572108D01*
X95134510Y-58624471D01*
X95238671Y-58693000D01*
X95361514Y-58774959D01*
X95499055Y-58867614D01*
X95647312Y-58968231D01*
X95802301Y-59074075D01*
X95960037Y-59182413D01*
X96116538Y-59290509D01*
X96267820Y-59395630D01*
X96409899Y-59495042D01*
X96538791Y-59586008D01*
X96650514Y-59665797D01*
X96741083Y-59731672D01*
X96806515Y-59780900D01*
X96837500Y-59805949D01*
X96866549Y-59833609D01*
X96883641Y-59861543D01*
X96891400Y-59900943D01*
X96892455Y-59963004D01*
X96892455Y-59963004D01*
G36*
X96894954Y-52087874D02*
X96889602Y-55735645D01*
X96888922Y-56196080D01*
X96888277Y-56616045D01*
X96887643Y-56997406D01*
X96886995Y-57342026D01*
X96886311Y-57651770D01*
X96885564Y-57928502D01*
X96884730Y-58174087D01*
X96883786Y-58390388D01*
X96882707Y-58579271D01*
X96881469Y-58742598D01*
X96880047Y-58882235D01*
X96878417Y-59000047D01*
X96876555Y-59097896D01*
X96874436Y-59177648D01*
X96872036Y-59241166D01*
X96869330Y-59290315D01*
X96866295Y-59326960D01*
X96862906Y-59352965D01*
X96859138Y-59370193D01*
X96854968Y-59380509D01*
X96850371Y-59385778D01*
X96845322Y-59387864D01*
X96841917Y-59388380D01*
X96814543Y-59377381D01*
X96754647Y-59342682D01*
X96663974Y-59285439D01*
X96544271Y-59206807D01*
X96519973Y-59190463D01*
X96519973Y-52895833D01*
X96379320Y-52895833D01*
X96238667Y-52895833D01*
X96238667Y-52968539D01*
X96226661Y-53065783D01*
X96192835Y-53137782D01*
X96156067Y-53169894D01*
X96096567Y-53188846D01*
X96010079Y-53201361D01*
X95911547Y-53206794D01*
X95815919Y-53204495D01*
X95738141Y-53193820D01*
X95720153Y-53188763D01*
X95674589Y-53168484D01*
X95639984Y-53138681D01*
X95614872Y-53093854D01*
X95597789Y-53028501D01*
X95587270Y-52937120D01*
X95581851Y-52814210D01*
X95580090Y-52662690D01*
X95581932Y-52499848D01*
X95589192Y-52374828D01*
X95602742Y-52283364D01*
X95623458Y-52221188D01*
X95652214Y-52184034D01*
X95681110Y-52169590D01*
X95773276Y-52148050D01*
X95854856Y-52139607D01*
X95947676Y-52142626D01*
X95990214Y-52146416D01*
X96094190Y-52162503D01*
X96162451Y-52189568D01*
X96201168Y-52232440D01*
X96216510Y-52295950D01*
X96217500Y-52324333D01*
X96217500Y-52409000D01*
X96357981Y-52409000D01*
X96498463Y-52409000D01*
X96487767Y-52275752D01*
X96470581Y-52157841D01*
X96437310Y-52067074D01*
X96383476Y-52000415D01*
X96304605Y-51954829D01*
X96196219Y-51927282D01*
X96053842Y-51914739D01*
X95952917Y-51913145D01*
X95775624Y-51918981D01*
X95634684Y-51936939D01*
X95525330Y-51969090D01*
X95442793Y-52017503D01*
X95382303Y-52084249D01*
X95339092Y-52171399D01*
X95335591Y-52181163D01*
X95314973Y-52270234D01*
X95301861Y-52390487D01*
X95295889Y-52532268D01*
X95296692Y-52685918D01*
X95303904Y-52841780D01*
X95317159Y-52990198D01*
X95336091Y-53121514D01*
X95360337Y-53226071D01*
X95376845Y-53270990D01*
X95422365Y-53327881D01*
X95498483Y-53378321D01*
X95593467Y-53415206D01*
X95628733Y-53423547D01*
X95733871Y-53436948D01*
X95863168Y-53442825D01*
X95999129Y-53441193D01*
X96124259Y-53432068D01*
X96186727Y-53423028D01*
X96265280Y-53405396D01*
X96334836Y-53384531D01*
X96367677Y-53371044D01*
X96428915Y-53315934D01*
X96473981Y-53223307D01*
X96502049Y-53095103D01*
X96507603Y-53043390D01*
X96519973Y-52895833D01*
X96519973Y-59190463D01*
X96518120Y-59189217D01*
X96518120Y-53467333D01*
X96378393Y-53467333D01*
X96238667Y-53467333D01*
X96237745Y-53980625D01*
X96236650Y-54174004D01*
X96233839Y-54329581D01*
X96228872Y-54451868D01*
X96221308Y-54545378D01*
X96210709Y-54614623D01*
X96196632Y-54664114D01*
X96178640Y-54698364D01*
X96166312Y-54712947D01*
X96126703Y-54730743D01*
X96056521Y-54743029D01*
X95967143Y-54749787D01*
X95869947Y-54750996D01*
X95776308Y-54746638D01*
X95697604Y-54736692D01*
X95645210Y-54721141D01*
X95634661Y-54713853D01*
X95613572Y-54686242D01*
X95596843Y-54647101D01*
X95584008Y-54591788D01*
X95574597Y-54515658D01*
X95568143Y-54414069D01*
X95564179Y-54282376D01*
X95562236Y-54115936D01*
X95561838Y-53991208D01*
X95561334Y-53467333D01*
X95422073Y-53467333D01*
X95282813Y-53467333D01*
X95290176Y-54086458D01*
X95292742Y-54272457D01*
X95295721Y-54420933D01*
X95299398Y-54536695D01*
X95304059Y-54624553D01*
X95309989Y-54689317D01*
X95317473Y-54735797D01*
X95326795Y-54768802D01*
X95331265Y-54779667D01*
X95384924Y-54866172D01*
X95458794Y-54924558D01*
X95556029Y-54961423D01*
X95639105Y-54976079D01*
X95750571Y-54985338D01*
X95876814Y-54989073D01*
X96004219Y-54987155D01*
X96119171Y-54979456D01*
X96200583Y-54967508D01*
X96312066Y-54933412D01*
X96391262Y-54882303D01*
X96446869Y-54807779D01*
X96462507Y-54774648D01*
X96473915Y-54743022D01*
X96483059Y-54704537D01*
X96490287Y-54653987D01*
X96495950Y-54586169D01*
X96500396Y-54495879D01*
X96503974Y-54377913D01*
X96507034Y-54227067D01*
X96509391Y-54075875D01*
X96518120Y-53467333D01*
X96518120Y-59189217D01*
X96513834Y-59186334D01*
X96513834Y-56811667D01*
X96513834Y-56695250D01*
X96513834Y-56578833D01*
X96502885Y-56578833D01*
X96502885Y-56087994D01*
X96496344Y-55972183D01*
X96476036Y-55872717D01*
X96443535Y-55800686D01*
X96434519Y-55789188D01*
X96385633Y-55748123D01*
X96317233Y-55716583D01*
X96222492Y-55692456D01*
X96094587Y-55673629D01*
X96043502Y-55668175D01*
X95893023Y-55652912D01*
X95779471Y-55639419D01*
X95697647Y-55625284D01*
X95642354Y-55608091D01*
X95608391Y-55585428D01*
X95590560Y-55554878D01*
X95583663Y-55514029D01*
X95582501Y-55460466D01*
X95582500Y-55454096D01*
X95587897Y-55364702D01*
X95608729Y-55307112D01*
X95651961Y-55271652D01*
X95724556Y-55248651D01*
X95731490Y-55247134D01*
X95879522Y-55225757D01*
X96002417Y-55229486D01*
X96097509Y-55257354D01*
X96162129Y-55308394D01*
X96193613Y-55381640D01*
X96196334Y-55415662D01*
X96200799Y-55437876D01*
X96220344Y-55450361D01*
X96264191Y-55455831D01*
X96336878Y-55457000D01*
X96477423Y-55457000D01*
X96464990Y-55336537D01*
X96442122Y-55225687D01*
X96395978Y-55144030D01*
X96320424Y-55082049D01*
X96290218Y-55065417D01*
X96251303Y-55048326D01*
X96207719Y-55036474D01*
X96151062Y-55028949D01*
X96072928Y-55024839D01*
X95964914Y-55023233D01*
X95900000Y-55023083D01*
X95740230Y-55025444D01*
X95616648Y-55033750D01*
X95523307Y-55049840D01*
X95454261Y-55075549D01*
X95403565Y-55112715D01*
X95365271Y-55163176D01*
X95349273Y-55193231D01*
X95320734Y-55282892D01*
X95305378Y-55396213D01*
X95303655Y-55516480D01*
X95316016Y-55626980D01*
X95335745Y-55695691D01*
X95366460Y-55747839D01*
X95413501Y-55789685D01*
X95481701Y-55822813D01*
X95575894Y-55848809D01*
X95700911Y-55869258D01*
X95861585Y-55885746D01*
X95931750Y-55891212D01*
X96022823Y-55900713D01*
X96102133Y-55914132D01*
X96156910Y-55929116D01*
X96168886Y-55934890D01*
X96209907Y-55983547D01*
X96230261Y-56054864D01*
X96231053Y-56135973D01*
X96213384Y-56214006D01*
X96178357Y-56276094D01*
X96137059Y-56306237D01*
X96091968Y-56314865D01*
X96016739Y-56320419D01*
X95923499Y-56322242D01*
X95861052Y-56321182D01*
X95761150Y-56317238D01*
X95694450Y-56311643D01*
X95651825Y-56302394D01*
X95624144Y-56287487D01*
X95602278Y-56264919D01*
X95601760Y-56264280D01*
X95572957Y-56207153D01*
X95561334Y-56142572D01*
X95561334Y-56070833D01*
X95421311Y-56070833D01*
X95281289Y-56070833D01*
X95296194Y-56192542D01*
X95323614Y-56326813D01*
X95368480Y-56423017D01*
X95431099Y-56481796D01*
X95436198Y-56484547D01*
X95522782Y-56515496D01*
X95640411Y-56537966D01*
X95778498Y-56551165D01*
X95926457Y-56554299D01*
X96073704Y-56546573D01*
X96147369Y-56537871D01*
X96274021Y-56511923D01*
X96365506Y-56472326D01*
X96428323Y-56412917D01*
X96468971Y-56327532D01*
X96493951Y-56210007D01*
X96494086Y-56209059D01*
X96502885Y-56087994D01*
X96502885Y-56578833D01*
X95900000Y-56578833D01*
X95286167Y-56578833D01*
X95286167Y-57330250D01*
X95286167Y-58081667D01*
X95423750Y-58081667D01*
X95561334Y-58081667D01*
X95561334Y-57774750D01*
X95561334Y-57467833D01*
X95974084Y-57467833D01*
X96386834Y-57467833D01*
X96386834Y-57351417D01*
X96386834Y-57235000D01*
X95974084Y-57235000D01*
X95561334Y-57235000D01*
X95561334Y-57023333D01*
X95561334Y-56811667D01*
X96037584Y-56811667D01*
X96513834Y-56811667D01*
X96513834Y-59186334D01*
X96397285Y-59107942D01*
X96224761Y-58989998D01*
X96028447Y-58854132D01*
X95921167Y-58779316D01*
X95747757Y-58657837D01*
X95583415Y-58542206D01*
X95431709Y-58434969D01*
X95296207Y-58338670D01*
X95180475Y-58255855D01*
X95088080Y-58189068D01*
X95022591Y-58140855D01*
X94987574Y-58113760D01*
X94984542Y-58111100D01*
X94926334Y-58056911D01*
X94926334Y-55084085D01*
X94926334Y-52111259D01*
X94981221Y-52000838D01*
X95003573Y-51958055D01*
X95043974Y-51883001D01*
X95099850Y-51780374D01*
X95168624Y-51654871D01*
X95247720Y-51511192D01*
X95334561Y-51354032D01*
X95426572Y-51188091D01*
X95451401Y-51143411D01*
X95556967Y-50954043D01*
X95644297Y-50798753D01*
X95715331Y-50674405D01*
X95772012Y-50577862D01*
X95816279Y-50505986D01*
X95850073Y-50455641D01*
X95875337Y-50423689D01*
X95894010Y-50406994D01*
X95908034Y-50402420D01*
X95909804Y-50402577D01*
X95927764Y-50414387D01*
X95955897Y-50447671D01*
X95995809Y-50504973D01*
X96049108Y-50588838D01*
X96117398Y-50701809D01*
X96202288Y-50846430D01*
X96305383Y-51025245D01*
X96328088Y-51064917D01*
X96419916Y-51225974D01*
X96509242Y-51383485D01*
X96592818Y-51531663D01*
X96667398Y-51664721D01*
X96729735Y-51776872D01*
X96776582Y-51862329D01*
X96799107Y-51904479D01*
X96894954Y-52087874D01*
X96894954Y-52087874D01*
X96894954Y-52087874D01*
G37*
X96894954Y-52087874D02*
X96889602Y-55735645D01*
X96888922Y-56196080D01*
X96888277Y-56616045D01*
X96887643Y-56997406D01*
X96886995Y-57342026D01*
X96886311Y-57651770D01*
X96885564Y-57928502D01*
X96884730Y-58174087D01*
X96883786Y-58390388D01*
X96882707Y-58579271D01*
X96881469Y-58742598D01*
X96880047Y-58882235D01*
X96878417Y-59000047D01*
X96876555Y-59097896D01*
X96874436Y-59177648D01*
X96872036Y-59241166D01*
X96869330Y-59290315D01*
X96866295Y-59326960D01*
X96862906Y-59352965D01*
X96859138Y-59370193D01*
X96854968Y-59380509D01*
X96850371Y-59385778D01*
X96845322Y-59387864D01*
X96841917Y-59388380D01*
X96814543Y-59377381D01*
X96754647Y-59342682D01*
X96663974Y-59285439D01*
X96544271Y-59206807D01*
X96519973Y-59190463D01*
X96519973Y-52895833D01*
X96379320Y-52895833D01*
X96238667Y-52895833D01*
X96238667Y-52968539D01*
X96226661Y-53065783D01*
X96192835Y-53137782D01*
X96156067Y-53169894D01*
X96096567Y-53188846D01*
X96010079Y-53201361D01*
X95911547Y-53206794D01*
X95815919Y-53204495D01*
X95738141Y-53193820D01*
X95720153Y-53188763D01*
X95674589Y-53168484D01*
X95639984Y-53138681D01*
X95614872Y-53093854D01*
X95597789Y-53028501D01*
X95587270Y-52937120D01*
X95581851Y-52814210D01*
X95580090Y-52662690D01*
X95581932Y-52499848D01*
X95589192Y-52374828D01*
X95602742Y-52283364D01*
X95623458Y-52221188D01*
X95652214Y-52184034D01*
X95681110Y-52169590D01*
X95773276Y-52148050D01*
X95854856Y-52139607D01*
X95947676Y-52142626D01*
X95990214Y-52146416D01*
X96094190Y-52162503D01*
X96162451Y-52189568D01*
X96201168Y-52232440D01*
X96216510Y-52295950D01*
X96217500Y-52324333D01*
X96217500Y-52409000D01*
X96357981Y-52409000D01*
X96498463Y-52409000D01*
X96487767Y-52275752D01*
X96470581Y-52157841D01*
X96437310Y-52067074D01*
X96383476Y-52000415D01*
X96304605Y-51954829D01*
X96196219Y-51927282D01*
X96053842Y-51914739D01*
X95952917Y-51913145D01*
X95775624Y-51918981D01*
X95634684Y-51936939D01*
X95525330Y-51969090D01*
X95442793Y-52017503D01*
X95382303Y-52084249D01*
X95339092Y-52171399D01*
X95335591Y-52181163D01*
X95314973Y-52270234D01*
X95301861Y-52390487D01*
X95295889Y-52532268D01*
X95296692Y-52685918D01*
X95303904Y-52841780D01*
X95317159Y-52990198D01*
X95336091Y-53121514D01*
X95360337Y-53226071D01*
X95376845Y-53270990D01*
X95422365Y-53327881D01*
X95498483Y-53378321D01*
X95593467Y-53415206D01*
X95628733Y-53423547D01*
X95733871Y-53436948D01*
X95863168Y-53442825D01*
X95999129Y-53441193D01*
X96124259Y-53432068D01*
X96186727Y-53423028D01*
X96265280Y-53405396D01*
X96334836Y-53384531D01*
X96367677Y-53371044D01*
X96428915Y-53315934D01*
X96473981Y-53223307D01*
X96502049Y-53095103D01*
X96507603Y-53043390D01*
X96519973Y-52895833D01*
X96519973Y-59190463D01*
X96518120Y-59189217D01*
X96518120Y-53467333D01*
X96378393Y-53467333D01*
X96238667Y-53467333D01*
X96237745Y-53980625D01*
X96236650Y-54174004D01*
X96233839Y-54329581D01*
X96228872Y-54451868D01*
X96221308Y-54545378D01*
X96210709Y-54614623D01*
X96196632Y-54664114D01*
X96178640Y-54698364D01*
X96166312Y-54712947D01*
X96126703Y-54730743D01*
X96056521Y-54743029D01*
X95967143Y-54749787D01*
X95869947Y-54750996D01*
X95776308Y-54746638D01*
X95697604Y-54736692D01*
X95645210Y-54721141D01*
X95634661Y-54713853D01*
X95613572Y-54686242D01*
X95596843Y-54647101D01*
X95584008Y-54591788D01*
X95574597Y-54515658D01*
X95568143Y-54414069D01*
X95564179Y-54282376D01*
X95562236Y-54115936D01*
X95561838Y-53991208D01*
X95561334Y-53467333D01*
X95422073Y-53467333D01*
X95282813Y-53467333D01*
X95290176Y-54086458D01*
X95292742Y-54272457D01*
X95295721Y-54420933D01*
X95299398Y-54536695D01*
X95304059Y-54624553D01*
X95309989Y-54689317D01*
X95317473Y-54735797D01*
X95326795Y-54768802D01*
X95331265Y-54779667D01*
X95384924Y-54866172D01*
X95458794Y-54924558D01*
X95556029Y-54961423D01*
X95639105Y-54976079D01*
X95750571Y-54985338D01*
X95876814Y-54989073D01*
X96004219Y-54987155D01*
X96119171Y-54979456D01*
X96200583Y-54967508D01*
X96312066Y-54933412D01*
X96391262Y-54882303D01*
X96446869Y-54807779D01*
X96462507Y-54774648D01*
X96473915Y-54743022D01*
X96483059Y-54704537D01*
X96490287Y-54653987D01*
X96495950Y-54586169D01*
X96500396Y-54495879D01*
X96503974Y-54377913D01*
X96507034Y-54227067D01*
X96509391Y-54075875D01*
X96518120Y-53467333D01*
X96518120Y-59189217D01*
X96513834Y-59186334D01*
X96513834Y-56811667D01*
X96513834Y-56695250D01*
X96513834Y-56578833D01*
X96502885Y-56578833D01*
X96502885Y-56087994D01*
X96496344Y-55972183D01*
X96476036Y-55872717D01*
X96443535Y-55800686D01*
X96434519Y-55789188D01*
X96385633Y-55748123D01*
X96317233Y-55716583D01*
X96222492Y-55692456D01*
X96094587Y-55673629D01*
X96043502Y-55668175D01*
X95893023Y-55652912D01*
X95779471Y-55639419D01*
X95697647Y-55625284D01*
X95642354Y-55608091D01*
X95608391Y-55585428D01*
X95590560Y-55554878D01*
X95583663Y-55514029D01*
X95582501Y-55460466D01*
X95582500Y-55454096D01*
X95587897Y-55364702D01*
X95608729Y-55307112D01*
X95651961Y-55271652D01*
X95724556Y-55248651D01*
X95731490Y-55247134D01*
X95879522Y-55225757D01*
X96002417Y-55229486D01*
X96097509Y-55257354D01*
X96162129Y-55308394D01*
X96193613Y-55381640D01*
X96196334Y-55415662D01*
X96200799Y-55437876D01*
X96220344Y-55450361D01*
X96264191Y-55455831D01*
X96336878Y-55457000D01*
X96477423Y-55457000D01*
X96464990Y-55336537D01*
X96442122Y-55225687D01*
X96395978Y-55144030D01*
X96320424Y-55082049D01*
X96290218Y-55065417D01*
X96251303Y-55048326D01*
X96207719Y-55036474D01*
X96151062Y-55028949D01*
X96072928Y-55024839D01*
X95964914Y-55023233D01*
X95900000Y-55023083D01*
X95740230Y-55025444D01*
X95616648Y-55033750D01*
X95523307Y-55049840D01*
X95454261Y-55075549D01*
X95403565Y-55112715D01*
X95365271Y-55163176D01*
X95349273Y-55193231D01*
X95320734Y-55282892D01*
X95305378Y-55396213D01*
X95303655Y-55516480D01*
X95316016Y-55626980D01*
X95335745Y-55695691D01*
X95366460Y-55747839D01*
X95413501Y-55789685D01*
X95481701Y-55822813D01*
X95575894Y-55848809D01*
X95700911Y-55869258D01*
X95861585Y-55885746D01*
X95931750Y-55891212D01*
X96022823Y-55900713D01*
X96102133Y-55914132D01*
X96156910Y-55929116D01*
X96168886Y-55934890D01*
X96209907Y-55983547D01*
X96230261Y-56054864D01*
X96231053Y-56135973D01*
X96213384Y-56214006D01*
X96178357Y-56276094D01*
X96137059Y-56306237D01*
X96091968Y-56314865D01*
X96016739Y-56320419D01*
X95923499Y-56322242D01*
X95861052Y-56321182D01*
X95761150Y-56317238D01*
X95694450Y-56311643D01*
X95651825Y-56302394D01*
X95624144Y-56287487D01*
X95602278Y-56264919D01*
X95601760Y-56264280D01*
X95572957Y-56207153D01*
X95561334Y-56142572D01*
X95561334Y-56070833D01*
X95421311Y-56070833D01*
X95281289Y-56070833D01*
X95296194Y-56192542D01*
X95323614Y-56326813D01*
X95368480Y-56423017D01*
X95431099Y-56481796D01*
X95436198Y-56484547D01*
X95522782Y-56515496D01*
X95640411Y-56537966D01*
X95778498Y-56551165D01*
X95926457Y-56554299D01*
X96073704Y-56546573D01*
X96147369Y-56537871D01*
X96274021Y-56511923D01*
X96365506Y-56472326D01*
X96428323Y-56412917D01*
X96468971Y-56327532D01*
X96493951Y-56210007D01*
X96494086Y-56209059D01*
X96502885Y-56087994D01*
X96502885Y-56578833D01*
X95900000Y-56578833D01*
X95286167Y-56578833D01*
X95286167Y-57330250D01*
X95286167Y-58081667D01*
X95423750Y-58081667D01*
X95561334Y-58081667D01*
X95561334Y-57774750D01*
X95561334Y-57467833D01*
X95974084Y-57467833D01*
X96386834Y-57467833D01*
X96386834Y-57351417D01*
X96386834Y-57235000D01*
X95974084Y-57235000D01*
X95561334Y-57235000D01*
X95561334Y-57023333D01*
X95561334Y-56811667D01*
X96037584Y-56811667D01*
X96513834Y-56811667D01*
X96513834Y-59186334D01*
X96397285Y-59107942D01*
X96224761Y-58989998D01*
X96028447Y-58854132D01*
X95921167Y-58779316D01*
X95747757Y-58657837D01*
X95583415Y-58542206D01*
X95431709Y-58434969D01*
X95296207Y-58338670D01*
X95180475Y-58255855D01*
X95088080Y-58189068D01*
X95022591Y-58140855D01*
X94987574Y-58113760D01*
X94984542Y-58111100D01*
X94926334Y-58056911D01*
X94926334Y-55084085D01*
X94926334Y-52111259D01*
X94981221Y-52000838D01*
X95003573Y-51958055D01*
X95043974Y-51883001D01*
X95099850Y-51780374D01*
X95168624Y-51654871D01*
X95247720Y-51511192D01*
X95334561Y-51354032D01*
X95426572Y-51188091D01*
X95451401Y-51143411D01*
X95556967Y-50954043D01*
X95644297Y-50798753D01*
X95715331Y-50674405D01*
X95772012Y-50577862D01*
X95816279Y-50505986D01*
X95850073Y-50455641D01*
X95875337Y-50423689D01*
X95894010Y-50406994D01*
X95908034Y-50402420D01*
X95909804Y-50402577D01*
X95927764Y-50414387D01*
X95955897Y-50447671D01*
X95995809Y-50504973D01*
X96049108Y-50588838D01*
X96117398Y-50701809D01*
X96202288Y-50846430D01*
X96305383Y-51025245D01*
X96328088Y-51064917D01*
X96419916Y-51225974D01*
X96509242Y-51383485D01*
X96592818Y-51531663D01*
X96667398Y-51664721D01*
X96729735Y-51776872D01*
X96776582Y-51862329D01*
X96799107Y-51904479D01*
X96894954Y-52087874D01*
X96894954Y-52087874D01*
%LPC*%
D16*
X12600000Y-10800000D03*
X15700000Y-10800000D03*
X23000000Y-8600000D03*
X19900000Y-8600000D03*
D17*
X27400000Y-16600000D03*
X27400000Y-13500000D03*
D16*
X12600000Y-18000000D03*
X15700000Y-18000000D03*
X12600000Y-21800000D03*
X15700000Y-21800000D03*
X23000000Y-19600000D03*
X19900000Y-19600000D03*
D17*
X27400000Y-27600000D03*
X27400000Y-24500000D03*
D16*
X12600000Y-29000000D03*
X15700000Y-29000000D03*
X12600000Y-32600000D03*
X15700000Y-32600000D03*
X23000000Y-30400000D03*
X19900000Y-30400000D03*
D17*
X27400000Y-38400000D03*
X27400000Y-35300000D03*
D16*
X12600000Y-39600000D03*
X15700000Y-39600000D03*
D18*
X87600000Y-40400000D03*
X87600000Y-41500000D03*
X87600000Y-30800000D03*
X87600000Y-31900000D03*
X11800000Y-56400000D03*
X11800000Y-57500000D03*
X13600000Y-56400000D03*
X13600000Y-57500000D03*
X22800000Y-56400000D03*
X22800000Y-57500000D03*
X24600000Y-56400000D03*
X24600000Y-57500000D03*
X33800000Y-56400000D03*
X33800000Y-57500000D03*
X35600000Y-56400000D03*
X35600000Y-57500000D03*
D19*
X71750000Y-29100000D03*
X73400000Y-29100000D03*
X71750000Y-27550000D03*
X73400000Y-27550000D03*
X71750000Y-26050000D03*
X73400000Y-26050000D03*
X71750000Y-24550000D03*
X73400000Y-24550000D03*
X71750000Y-23050000D03*
X73400000Y-23050000D03*
D20*
X86400000Y-22000000D03*
X87500000Y-22000000D03*
X86400000Y-24000000D03*
X87500000Y-24000000D03*
D21*
X64400000Y-57500000D03*
X64400000Y-60100000D03*
D20*
X69400000Y-57600000D03*
X70500000Y-57600000D03*
D21*
X79000000Y-56100000D03*
X79000000Y-53500000D03*
D20*
X77400000Y-57600000D03*
X78500000Y-57600000D03*
D22*
X91100000Y-57600000D03*
X93700000Y-57600000D03*
D20*
X86600000Y-57600000D03*
X85500000Y-57600000D03*
X12600000Y-13800000D03*
X13700000Y-13800000D03*
X12600000Y-15000000D03*
X13700000Y-15000000D03*
X12600000Y-24800000D03*
X13700000Y-24800000D03*
X12600000Y-26000000D03*
X13700000Y-26000000D03*
X12600000Y-35600000D03*
X13700000Y-35600000D03*
X12600000Y-36600000D03*
X13700000Y-36600000D03*
D23*
X70635000Y-31750000D03*
X69365000Y-31750000D03*
D24*
X79000000Y-30600000D03*
X79000000Y-31250000D03*
X79000000Y-31900000D03*
X79000000Y-32550000D03*
X83400000Y-32550000D03*
X83400000Y-31900000D03*
X83400000Y-31250000D03*
X83400000Y-30600000D03*
D25*
X45800000Y-31000000D03*
X45800000Y-31500000D03*
X45800000Y-32000000D03*
X45800000Y-32500000D03*
X45800000Y-33000000D03*
X45800000Y-33500000D03*
X45800000Y-34000000D03*
X45800000Y-34500000D03*
X45800000Y-35000000D03*
X45800000Y-35500000D03*
X45800000Y-36000000D03*
X45800000Y-36500000D03*
X45800000Y-37000000D03*
X45800000Y-37500000D03*
X45800000Y-38000000D03*
X45800000Y-38500000D03*
X45800000Y-39000000D03*
X45800000Y-39500000D03*
X45800000Y-40000000D03*
X45800000Y-40500000D03*
X45800000Y-41000000D03*
X45800000Y-41500000D03*
X45800000Y-42000000D03*
X45800000Y-42500000D03*
X45800000Y-43000000D03*
D26*
X47550000Y-44750000D03*
X48050000Y-44750000D03*
X48550000Y-44750000D03*
X49050000Y-44750000D03*
X49550000Y-44750000D03*
X50050000Y-44750000D03*
X50550000Y-44750000D03*
X51050000Y-44750000D03*
X51550000Y-44750000D03*
X52050000Y-44750000D03*
X52550000Y-44750000D03*
X53050000Y-44750000D03*
X53550000Y-44750000D03*
X54050000Y-44750000D03*
X54550000Y-44750000D03*
X55050000Y-44750000D03*
X55550000Y-44750000D03*
X56050000Y-44750000D03*
X56550000Y-44750000D03*
X57050000Y-44750000D03*
X57550000Y-44750000D03*
X58050000Y-44750000D03*
X58550000Y-44750000D03*
X59050000Y-44750000D03*
X59550000Y-44750000D03*
D25*
X61300000Y-43000000D03*
X61300000Y-42500000D03*
X61300000Y-42000000D03*
X61300000Y-41500000D03*
X61300000Y-41000000D03*
X61300000Y-40500000D03*
X61300000Y-40000000D03*
X61300000Y-39500000D03*
X61300000Y-39000000D03*
X61300000Y-38500000D03*
X61300000Y-38000000D03*
X61300000Y-37500000D03*
X61300000Y-37000000D03*
X61300000Y-36500000D03*
X61300000Y-36000000D03*
X61300000Y-35500000D03*
X61300000Y-35000000D03*
X61300000Y-34500000D03*
X61300000Y-34000000D03*
X61300000Y-33500000D03*
X61300000Y-33000000D03*
X61300000Y-32500000D03*
X61300000Y-32000000D03*
X61300000Y-31500000D03*
X61300000Y-31000000D03*
D26*
X59550000Y-29250000D03*
X59050000Y-29250000D03*
X58550000Y-29250000D03*
X58050000Y-29250000D03*
X57550000Y-29250000D03*
X57050000Y-29250000D03*
X56550000Y-29250000D03*
X56050000Y-29250000D03*
X55550000Y-29250000D03*
X55050000Y-29250000D03*
X54550000Y-29250000D03*
X54050000Y-29250000D03*
X53550000Y-29250000D03*
X53050000Y-29250000D03*
X52550000Y-29250000D03*
X52050000Y-29250000D03*
X51550000Y-29250000D03*
X51050000Y-29250000D03*
X50550000Y-29250000D03*
X50050000Y-29250000D03*
X49550000Y-29250000D03*
X49050000Y-29250000D03*
X48550000Y-29250000D03*
X48050000Y-29250000D03*
X47550000Y-29250000D03*
D24*
X15000000Y-55000000D03*
X15000000Y-54350000D03*
X15000000Y-53700000D03*
X15000000Y-53050000D03*
X10600000Y-53050000D03*
X10600000Y-53700000D03*
X10600000Y-54350000D03*
X10600000Y-55000000D03*
X10600000Y-45000000D03*
X10600000Y-45650000D03*
X10600000Y-46300000D03*
X10600000Y-46950000D03*
X15000000Y-46950000D03*
X15000000Y-46300000D03*
X15000000Y-45650000D03*
X15000000Y-45000000D03*
D27*
X11400000Y-51600000D03*
X12050000Y-51600000D03*
X12700000Y-51600000D03*
X11400000Y-49700000D03*
X12700000Y-49700000D03*
D24*
X26000000Y-55000000D03*
X26000000Y-54350000D03*
X26000000Y-53700000D03*
X26000000Y-53050000D03*
X21600000Y-53050000D03*
X21600000Y-53700000D03*
X21600000Y-54350000D03*
X21600000Y-55000000D03*
X21600000Y-45000000D03*
X21600000Y-45650000D03*
X21600000Y-46300000D03*
X21600000Y-46950000D03*
X26000000Y-46950000D03*
X26000000Y-46300000D03*
X26000000Y-45650000D03*
X26000000Y-45000000D03*
D27*
X22400000Y-51600000D03*
X23050000Y-51600000D03*
X23700000Y-51600000D03*
X22400000Y-49700000D03*
X23700000Y-49700000D03*
D24*
X37000000Y-55000000D03*
X37000000Y-54350000D03*
X37000000Y-53700000D03*
X37000000Y-53050000D03*
X32600000Y-53050000D03*
X32600000Y-53700000D03*
X32600000Y-54350000D03*
X32600000Y-55000000D03*
X32600000Y-45000000D03*
X32600000Y-45650000D03*
X32600000Y-46300000D03*
X32600000Y-46950000D03*
X37000000Y-46950000D03*
X37000000Y-46300000D03*
X37000000Y-45650000D03*
X37000000Y-45000000D03*
D27*
X33400000Y-51600000D03*
X34050000Y-51600000D03*
X34700000Y-51600000D03*
X33400000Y-49700000D03*
X34700000Y-49700000D03*
D28*
X48200000Y-48200000D03*
X48200000Y-49000000D03*
X48200000Y-49800000D03*
X48200000Y-50600000D03*
X48200000Y-51400000D03*
X48200000Y-52200000D03*
X50795000Y-52200000D03*
X50795000Y-51400000D03*
X50795000Y-50600000D03*
X50795000Y-49800000D03*
X50795000Y-49000000D03*
X50795000Y-48200000D03*
D29*
X49500000Y-47902500D03*
X49500000Y-52497500D03*
D28*
X69600000Y-40000000D03*
X69600000Y-39200000D03*
X69600000Y-38400000D03*
X69600000Y-37600000D03*
X69600000Y-36800000D03*
X69600000Y-36000000D03*
X67005000Y-36000000D03*
X67005000Y-36800000D03*
X67005000Y-37600000D03*
X67005000Y-38400000D03*
X67005000Y-39200000D03*
X67005000Y-40000000D03*
D29*
X68300000Y-40297500D03*
X68300000Y-35702500D03*
D30*
X46800000Y-18700000D03*
X46800000Y-17450000D03*
X46800000Y-16200000D03*
X44200000Y-16200000D03*
X44200000Y-17450000D03*
X44200000Y-18700000D03*
X46800000Y-14950000D03*
X44200000Y-14950000D03*
D31*
X57950000Y-49700000D03*
X57950000Y-49050000D03*
X57950000Y-48400000D03*
X57950000Y-47750000D03*
D32*
X56975000Y-46775000D03*
X56325000Y-46775000D03*
X55675000Y-46775000D03*
X55025000Y-46775000D03*
D31*
X54050000Y-47750000D03*
X54050000Y-48400000D03*
X54050000Y-49050000D03*
X54050000Y-49700000D03*
D32*
X55025000Y-50675000D03*
X55675000Y-50675000D03*
X56325000Y-50675000D03*
X56975000Y-50675000D03*
D33*
X32000000Y-21000000D03*
X33270000Y-21000000D03*
X34540000Y-21000000D03*
X35810000Y-21000000D03*
X35810000Y-15793000D03*
X34540000Y-15793000D03*
X33270000Y-15793000D03*
X32000000Y-15793000D03*
X37080000Y-21000000D03*
X38350000Y-21000000D03*
X39620000Y-21000000D03*
X40890000Y-21000000D03*
X37080000Y-15793000D03*
X38350000Y-15793000D03*
X39620000Y-15793000D03*
X40890000Y-15793000D03*
X53350000Y-18600000D03*
X54620000Y-18600000D03*
X55890000Y-18600000D03*
X57160000Y-18600000D03*
X57160000Y-13393000D03*
X55890000Y-13393000D03*
X54620000Y-13393000D03*
X53350000Y-13393000D03*
D34*
X17400000Y-16600000D03*
X18050000Y-16600000D03*
X18700000Y-16600000D03*
X19350000Y-16600000D03*
X19350000Y-12200000D03*
X18700000Y-12200000D03*
X18050000Y-12200000D03*
X17400000Y-12200000D03*
X22800000Y-12200000D03*
X22150000Y-12200000D03*
X21500000Y-12200000D03*
X20850000Y-12200000D03*
X20850000Y-16600000D03*
X21500000Y-16600000D03*
X22150000Y-16600000D03*
X22800000Y-16600000D03*
X17400000Y-27600000D03*
X18050000Y-27600000D03*
X18700000Y-27600000D03*
X19350000Y-27600000D03*
X19350000Y-23200000D03*
X18700000Y-23200000D03*
X18050000Y-23200000D03*
X17400000Y-23200000D03*
X22800000Y-23200000D03*
X22150000Y-23200000D03*
X21500000Y-23200000D03*
X20850000Y-23200000D03*
X20850000Y-27600000D03*
X21500000Y-27600000D03*
X22150000Y-27600000D03*
X22800000Y-27600000D03*
X17400000Y-38400000D03*
X18050000Y-38400000D03*
X18700000Y-38400000D03*
X19350000Y-38400000D03*
X19350000Y-34000000D03*
X18700000Y-34000000D03*
X18050000Y-34000000D03*
X17400000Y-34000000D03*
X22800000Y-34000000D03*
X22150000Y-34000000D03*
X21500000Y-34000000D03*
X20850000Y-34000000D03*
X20850000Y-38400000D03*
X21500000Y-38400000D03*
X22150000Y-38400000D03*
X22800000Y-38400000D03*
D35*
X65800000Y-2930000D03*
X65800000Y-4200000D03*
X64530000Y-2930000D03*
X64530000Y-4200000D03*
X63260000Y-2930000D03*
X63260000Y-4200000D03*
X61990000Y-2930000D03*
X61990000Y-4200000D03*
X60720000Y-2930000D03*
X60720000Y-4200000D03*
D19*
X45000000Y-47200000D03*
X45000000Y-45600000D03*
X46400000Y-45600000D03*
X46400000Y-47200000D03*
X60200000Y-22800000D03*
X60200000Y-24400000D03*
X61600000Y-22800000D03*
X61600000Y-24400000D03*
X58800000Y-22800000D03*
X58800000Y-24400000D03*
X57400000Y-22800000D03*
X57400000Y-24400000D03*
X55600000Y-22800000D03*
X55600000Y-24400000D03*
X35400000Y-36000000D03*
X37000000Y-36000000D03*
X16400000Y-57400000D03*
X14800000Y-57400000D03*
X15400000Y-50000000D03*
X15400000Y-51600000D03*
X16800000Y-54600000D03*
X16800000Y-53000000D03*
X8400000Y-53000000D03*
X8400000Y-54600000D03*
X9800000Y-50000000D03*
X9800000Y-51600000D03*
X8400000Y-45000000D03*
X8400000Y-46600000D03*
X9800000Y-42000000D03*
X9800000Y-43600000D03*
X14000000Y-51600000D03*
X14000000Y-50000000D03*
X27400000Y-57500000D03*
X25800000Y-57500000D03*
X26400000Y-50000000D03*
X26400000Y-51600000D03*
X27800000Y-54600000D03*
X27800000Y-53000000D03*
X19400000Y-53000000D03*
X19400000Y-54600000D03*
X20800000Y-50000000D03*
X20800000Y-51600000D03*
X19400000Y-45000000D03*
X19400000Y-46600000D03*
X20800000Y-42000000D03*
X20800000Y-43600000D03*
X25000000Y-51600000D03*
X25000000Y-50000000D03*
X38400000Y-57500000D03*
X36800000Y-57500000D03*
X37400000Y-50000000D03*
X37400000Y-51600000D03*
X38800000Y-54600000D03*
X38800000Y-53000000D03*
X30400000Y-53000000D03*
X30400000Y-54600000D03*
X31800000Y-50000000D03*
X31800000Y-51600000D03*
X30400000Y-45000000D03*
X30400000Y-46600000D03*
X31800000Y-42000000D03*
X31800000Y-43600000D03*
X36000000Y-51600000D03*
X36000000Y-50000000D03*
X53200000Y-53400000D03*
X51600000Y-53400000D03*
X73000000Y-33800000D03*
X71400000Y-33800000D03*
X60600000Y-50000000D03*
X60600000Y-48400000D03*
X47400000Y-26200000D03*
X45800000Y-26200000D03*
X59250000Y-50700000D03*
X59250000Y-49100000D03*
X47400000Y-24800000D03*
X45800000Y-24800000D03*
X46150000Y-13550000D03*
X44550000Y-13550000D03*
X60700000Y-52150000D03*
X60700000Y-53750000D03*
X70250000Y-29100000D03*
X68650000Y-29100000D03*
X70250000Y-27550000D03*
X68650000Y-27550000D03*
X70250000Y-26050000D03*
X68650000Y-26050000D03*
X70250000Y-24550000D03*
X68650000Y-24550000D03*
X70250000Y-23050000D03*
X68650000Y-23050000D03*
X85200000Y-22200000D03*
X85200000Y-23800000D03*
X83800000Y-22200000D03*
X83800000Y-23800000D03*
X68600000Y-51000000D03*
X68600000Y-49400000D03*
X65200000Y-46000000D03*
X65200000Y-47600000D03*
X70000000Y-51000000D03*
X70000000Y-49400000D03*
X66600000Y-46000000D03*
X66600000Y-47600000D03*
D36*
X74600000Y-54400000D03*
X65300000Y-54400000D03*
D19*
X68000000Y-57400000D03*
X66400000Y-57400000D03*
X66000000Y-58800000D03*
X66000000Y-60400000D03*
X76000000Y-45400000D03*
X76000000Y-43800000D03*
X72800000Y-40400000D03*
X72800000Y-42000000D03*
X77400000Y-45400000D03*
X77400000Y-43800000D03*
X74200000Y-40400000D03*
X74200000Y-42000000D03*
D36*
X82600000Y-49000000D03*
X73300000Y-49000000D03*
D19*
X76000000Y-57400000D03*
X74400000Y-57400000D03*
X77400000Y-56000000D03*
X77400000Y-54400000D03*
X84200000Y-45400000D03*
X84200000Y-43800000D03*
X81000000Y-40400000D03*
X81000000Y-42000000D03*
X85600000Y-45400000D03*
X85600000Y-43800000D03*
X82400000Y-40400000D03*
X82400000Y-42000000D03*
D36*
X91200000Y-54400000D03*
X81900000Y-54400000D03*
D19*
X87800000Y-57400000D03*
X89400000Y-57400000D03*
X90000000Y-59000000D03*
X90000000Y-60600000D03*
X14200000Y-12600000D03*
X12600000Y-12600000D03*
X19200000Y-10400000D03*
X17600000Y-10400000D03*
X22600000Y-10400000D03*
X21000000Y-10400000D03*
X25600000Y-13400000D03*
X24000000Y-13400000D03*
X24000000Y-14800000D03*
X25600000Y-14800000D03*
X14200000Y-16200000D03*
X12600000Y-16200000D03*
X16200000Y-15200000D03*
X16200000Y-13600000D03*
X14200000Y-23600000D03*
X12600000Y-23600000D03*
X19200000Y-21400000D03*
X17600000Y-21400000D03*
X22600000Y-21400000D03*
X21000000Y-21400000D03*
X25600000Y-24400000D03*
X24000000Y-24400000D03*
X24000000Y-25800000D03*
X25600000Y-25800000D03*
X14200000Y-27200000D03*
X12600000Y-27200000D03*
X16200000Y-26200000D03*
X16200000Y-24600000D03*
X14200000Y-34400000D03*
X12600000Y-34400000D03*
X19200000Y-32200000D03*
X17600000Y-32200000D03*
X22600000Y-32200000D03*
X21000000Y-32200000D03*
X25600000Y-35200000D03*
X24000000Y-35200000D03*
X24000000Y-36600000D03*
X25600000Y-36600000D03*
X14200000Y-37800000D03*
X12600000Y-37800000D03*
X16200000Y-37000000D03*
X16200000Y-35400000D03*
D37*
X45600000Y-45000000D03*
X80400000Y-35400000D03*
X91800000Y-43300000D03*
X86400000Y-29400000D03*
X78000000Y-18300000D03*
X77300000Y-19400000D03*
X78000000Y-11800000D03*
X77300000Y-12900000D03*
X78000000Y-14000000D03*
X78000000Y-16100000D03*
X16600000Y-46000000D03*
X27600000Y-46000000D03*
X38600000Y-46000000D03*
X53600000Y-46300000D03*
X65350000Y-37950000D03*
X49500000Y-53300000D03*
X69800000Y-33600000D03*
X65650000Y-39200000D03*
X51200000Y-47200000D03*
X67200000Y-40600000D03*
X68500000Y-42000000D03*
X61800000Y-49400000D03*
X45800000Y-24200000D03*
X61800000Y-48200000D03*
X45800000Y-26800000D03*
X42800000Y-18800000D03*
X42800000Y-17600000D03*
X42800000Y-16200000D03*
X44800000Y-28000000D03*
X43000000Y-13600000D03*
X34600000Y-23000000D03*
X35800000Y-23000000D03*
X54650000Y-20700000D03*
X55900000Y-20700000D03*
X70800000Y-51000000D03*
X66600000Y-45200000D03*
X65200000Y-61800000D03*
X78200000Y-45400000D03*
X74200000Y-39600000D03*
X77400000Y-53200000D03*
X86400000Y-45400000D03*
X82400000Y-39600000D03*
X93900000Y-59200000D03*
X17200000Y-10400000D03*
X28800000Y-16600000D03*
X17200000Y-21400000D03*
X27400000Y-28700000D03*
X17200000Y-32200000D03*
X28800000Y-38400000D03*
D32*
X41800000Y-24250000D03*
X41300000Y-24250000D03*
X40800000Y-24250000D03*
X40300000Y-24250000D03*
D31*
X39550000Y-25000000D03*
X39550000Y-25500000D03*
X39550000Y-26000000D03*
X39550000Y-26500000D03*
D32*
X40300000Y-27250000D03*
X40800000Y-27250000D03*
X41300000Y-27250000D03*
X41800000Y-27250000D03*
D31*
X42550000Y-26500000D03*
X42550000Y-26000000D03*
X42550000Y-25500000D03*
X42550000Y-25000000D03*
D19*
X24000000Y-38000000D03*
X25600000Y-38000000D03*
X24400000Y-31900000D03*
X24400000Y-33500000D03*
X14800000Y-35400000D03*
X14800000Y-37000000D03*
X27200000Y-33500000D03*
X27200000Y-31900000D03*
X25800000Y-33500000D03*
X25800000Y-31900000D03*
X17200000Y-31000000D03*
X17200000Y-29400000D03*
X18400000Y-31000000D03*
X18400000Y-29400000D03*
X24000000Y-27200000D03*
X25600000Y-27200000D03*
X24400000Y-21100000D03*
X24400000Y-22700000D03*
X14800000Y-24600000D03*
X14800000Y-26200000D03*
X27200000Y-22700000D03*
X27200000Y-21100000D03*
X25800000Y-22700000D03*
X25800000Y-21100000D03*
X17200000Y-20000000D03*
X17200000Y-18400000D03*
X18400000Y-20000000D03*
X18400000Y-18400000D03*
X24000000Y-16200000D03*
X25600000Y-16200000D03*
X24400000Y-10100000D03*
X24400000Y-11700000D03*
X14800000Y-13600000D03*
X14800000Y-15200000D03*
X27200000Y-11700000D03*
X27200000Y-10100000D03*
X25800000Y-11700000D03*
X25800000Y-10100000D03*
X17200000Y-9000000D03*
X17200000Y-7400000D03*
X18400000Y-9000000D03*
X18400000Y-7400000D03*
X91400000Y-60600000D03*
X91400000Y-59000000D03*
X77400000Y-52000000D03*
X79000000Y-52000000D03*
X62600000Y-57800000D03*
X62600000Y-56200000D03*
X51700000Y-15000000D03*
X51700000Y-13400000D03*
X87400000Y-25200000D03*
X85800000Y-25200000D03*
X51700000Y-16950000D03*
X51700000Y-18550000D03*
X85800000Y-20800000D03*
X87400000Y-20800000D03*
X31800000Y-13800000D03*
X33400000Y-13800000D03*
X33200000Y-23000000D03*
X31600000Y-23000000D03*
X31800000Y-12600000D03*
X33400000Y-12600000D03*
X33200000Y-24200000D03*
X31600000Y-24200000D03*
X42600000Y-28500000D03*
X41000000Y-28500000D03*
X59350000Y-52000000D03*
X57750000Y-52000000D03*
X38100000Y-28500000D03*
X39700000Y-28500000D03*
X59350000Y-53300000D03*
X57750000Y-53300000D03*
X56450000Y-52000000D03*
X54850000Y-52000000D03*
X56450000Y-53300000D03*
X54850000Y-53300000D03*
X38000000Y-24500000D03*
X38000000Y-26100000D03*
X48550000Y-18600000D03*
X48550000Y-17000000D03*
X73000000Y-36600000D03*
X74600000Y-36600000D03*
X71400000Y-35200000D03*
X73000000Y-35200000D03*
X71400000Y-38200000D03*
X71400000Y-36600000D03*
X45000000Y-53200000D03*
X45000000Y-51600000D03*
X46400000Y-53200000D03*
X46400000Y-51600000D03*
X46400000Y-48600000D03*
X46400000Y-50200000D03*
X36200000Y-43600000D03*
X36200000Y-42000000D03*
X33200000Y-43600000D03*
X34800000Y-43600000D03*
X36400000Y-48400000D03*
X34800000Y-48400000D03*
X31000000Y-56200000D03*
X32600000Y-56200000D03*
X38800000Y-51600000D03*
X38800000Y-50000000D03*
X33200000Y-42000000D03*
X34800000Y-42000000D03*
X31800000Y-48400000D03*
X33400000Y-48400000D03*
X37800000Y-48400000D03*
X39400000Y-48400000D03*
X32600000Y-57400000D03*
X31000000Y-57400000D03*
X40000000Y-50000000D03*
X40000000Y-51600000D03*
X30400000Y-42000000D03*
X30400000Y-43600000D03*
X30400000Y-50000000D03*
X30400000Y-51600000D03*
X38400000Y-56200000D03*
X36800000Y-56200000D03*
X25200000Y-43600000D03*
X25200000Y-42000000D03*
X22200000Y-43600000D03*
X23800000Y-43600000D03*
X25400000Y-48400000D03*
X23800000Y-48400000D03*
X20000000Y-56200000D03*
X21600000Y-56200000D03*
X27800000Y-51600000D03*
X27800000Y-50000000D03*
X22200000Y-42000000D03*
X23800000Y-42000000D03*
X20800000Y-48400000D03*
X22400000Y-48400000D03*
X26800000Y-48400000D03*
X28400000Y-48400000D03*
X21600000Y-57400000D03*
X20000000Y-57400000D03*
X29000000Y-50000000D03*
X29000000Y-51600000D03*
X19400000Y-42000000D03*
X19400000Y-43600000D03*
X19400000Y-50000000D03*
X19400000Y-51600000D03*
X27400000Y-56200000D03*
X25800000Y-56200000D03*
X14200000Y-43600000D03*
X14200000Y-42000000D03*
X11200000Y-43600000D03*
X12800000Y-43600000D03*
X14400000Y-48400000D03*
X12800000Y-48400000D03*
X9000000Y-56200000D03*
X10600000Y-56200000D03*
X16800000Y-51600000D03*
X16800000Y-50000000D03*
X11200000Y-42000000D03*
X12800000Y-42000000D03*
X9800000Y-48400000D03*
X11400000Y-48400000D03*
X15800000Y-48400000D03*
X17400000Y-48400000D03*
X10600000Y-57400000D03*
X9000000Y-57400000D03*
X18000000Y-50000000D03*
X18000000Y-51600000D03*
X8400000Y-42000000D03*
X8400000Y-43600000D03*
X8400000Y-50000000D03*
X8400000Y-51600000D03*
X16400000Y-56200000D03*
X14800000Y-56200000D03*
X35400000Y-34700000D03*
X37000000Y-34700000D03*
X32400000Y-34850000D03*
X32400000Y-36450000D03*
X39900000Y-34700000D03*
X38300000Y-34700000D03*
X65000000Y-29400000D03*
X65000000Y-27800000D03*
X61000000Y-47000000D03*
X62600000Y-47000000D03*
X43700000Y-41500000D03*
X42100000Y-41500000D03*
X41000000Y-41500000D03*
X39400000Y-41500000D03*
X44200000Y-29400000D03*
X44200000Y-31000000D03*
X49200000Y-46400000D03*
X47600000Y-46400000D03*
X61000000Y-45600000D03*
X62600000Y-45600000D03*
X41000000Y-40200000D03*
X39400000Y-40200000D03*
X44000000Y-33600000D03*
X42400000Y-33600000D03*
X44000000Y-35000000D03*
X42400000Y-35000000D03*
X62150000Y-29400000D03*
X62150000Y-27800000D03*
X63600000Y-29400000D03*
X63600000Y-27800000D03*
X70300000Y-6300000D03*
X71900000Y-6300000D03*
X76200000Y-30800000D03*
X76200000Y-32400000D03*
X77400000Y-30800000D03*
X77400000Y-32400000D03*
X80400000Y-34000000D03*
X82000000Y-34000000D03*
X85000000Y-30800000D03*
X85000000Y-32400000D03*
X67400000Y-2800000D03*
X67400000Y-4400000D03*
X86400000Y-30800000D03*
X86400000Y-32400000D03*
X43400000Y-44200000D03*
X45000000Y-44200000D03*
D38*
X67000000Y-51200000D03*
X67000000Y-49300000D03*
X65000000Y-50250000D03*
X68200000Y-45800000D03*
X68200000Y-47700000D03*
X70200000Y-46750000D03*
X74400000Y-45600000D03*
X74400000Y-43700000D03*
X72400000Y-44650000D03*
X75600000Y-40200000D03*
X75600000Y-42100000D03*
X77600000Y-41150000D03*
X82600000Y-45600000D03*
X82600000Y-43700000D03*
X80600000Y-44650000D03*
X83800000Y-40200000D03*
X83800000Y-42100000D03*
X85800000Y-41150000D03*
D19*
X43400000Y-53800000D03*
X41800000Y-53800000D03*
X40200000Y-54600000D03*
X40200000Y-53000000D03*
X41800000Y-45800000D03*
X43400000Y-45800000D03*
D34*
X43600000Y-47600000D03*
X42950000Y-47600000D03*
X42300000Y-47600000D03*
X41650000Y-47600000D03*
X41650000Y-52000000D03*
X42300000Y-52000000D03*
X42950000Y-52000000D03*
X43600000Y-52000000D03*
D37*
X39900000Y-45000000D03*
D39*
X39900000Y-32300000D03*
X35400000Y-32300000D03*
D37*
X77300000Y-15100000D03*
X77300000Y-17200000D03*
D40*
X4200000Y-48200000D03*
D41*
X4200000Y-45700000D03*
X6700000Y-48200000D03*
X4200000Y-50700000D03*
X1700000Y-48200000D03*
X2400000Y-46400000D03*
X6000000Y-46400000D03*
X2400000Y-50000000D03*
X6000000Y-50000000D03*
D40*
X26600000Y-4400000D03*
D41*
X26600000Y-1900000D03*
X29100000Y-4400000D03*
X26600000Y-6900000D03*
X24100000Y-4400000D03*
X24800000Y-2600000D03*
X28400000Y-2600000D03*
X24800000Y-6200000D03*
X28400000Y-6200000D03*
D40*
X76200000Y-4200000D03*
D41*
X76200000Y-1700000D03*
X78700000Y-4200000D03*
X76200000Y-6700000D03*
X73700000Y-4200000D03*
X74400000Y-2400000D03*
X78000000Y-2400000D03*
X74400000Y-6000000D03*
X78000000Y-6000000D03*
D40*
X95400000Y-65400000D03*
D41*
X95400000Y-62900000D03*
X97900000Y-65400000D03*
X95400000Y-67900000D03*
X92900000Y-65400000D03*
X93600000Y-63600000D03*
X97200000Y-63600000D03*
X93600000Y-67200000D03*
X97200000Y-67200000D03*
D40*
X94400000Y-15200000D03*
D41*
X94400000Y-12700000D03*
X96900000Y-15200000D03*
X94400000Y-17700000D03*
X91900000Y-15200000D03*
X92600000Y-13400000D03*
X96200000Y-13400000D03*
X92600000Y-17000000D03*
X96200000Y-17000000D03*
D40*
X7800000Y-12800000D03*
D41*
X7800000Y-10300000D03*
X10300000Y-12800000D03*
X7800000Y-15300000D03*
X5300000Y-12800000D03*
X6000000Y-11000000D03*
X9600000Y-11000000D03*
X6000000Y-14600000D03*
X9600000Y-14600000D03*
D42*
X8200000Y-37000000D03*
X8200000Y-35000000D03*
D43*
X6100000Y-38500000D03*
X6100000Y-33500000D03*
D42*
X8200000Y-29000000D03*
X8200000Y-27000000D03*
D43*
X6100000Y-30500000D03*
X6100000Y-25500000D03*
D42*
X8200000Y-21000000D03*
X8200000Y-19000000D03*
D43*
X6100000Y-22500000D03*
X6100000Y-17500000D03*
D42*
X87000000Y-61800000D03*
X85000000Y-61800000D03*
D43*
X88500000Y-63900000D03*
X83500000Y-63900000D03*
D42*
X79000000Y-61800000D03*
X77000000Y-61800000D03*
D43*
X80500000Y-63900000D03*
X75500000Y-63900000D03*
D42*
X71000000Y-61800000D03*
X69000000Y-61800000D03*
D43*
X72500000Y-63900000D03*
X67500000Y-63900000D03*
D42*
X91750000Y-22000000D03*
X91750000Y-24000000D03*
D43*
X93850000Y-20500000D03*
X93850000Y-25500000D03*
D42*
X91800000Y-38000000D03*
X91800000Y-40000000D03*
D43*
X93900000Y-36500000D03*
X93900000Y-41500000D03*
D42*
X91800000Y-46000000D03*
X91800000Y-48000000D03*
D43*
X93900000Y-44500000D03*
X93900000Y-49500000D03*
D42*
X91800000Y-30000000D03*
X91800000Y-32000000D03*
D43*
X93900000Y-28500000D03*
X93900000Y-33500000D03*
D42*
X45000000Y-8250000D03*
X47000000Y-8250000D03*
X49000000Y-8250000D03*
X51000000Y-8250000D03*
D43*
X43500000Y-6150000D03*
X52500000Y-6150000D03*
D42*
X33000000Y-8250000D03*
X35000000Y-8250000D03*
X37000000Y-8250000D03*
X39000000Y-8250000D03*
D43*
X31500000Y-6150000D03*
X40500000Y-6150000D03*
D42*
X31000000Y-61750000D03*
X29000000Y-61750000D03*
X27000000Y-61750000D03*
X25000000Y-61750000D03*
D43*
X32500000Y-63850000D03*
X23500000Y-63850000D03*
D42*
X20000000Y-61750000D03*
X18000000Y-61750000D03*
X16000000Y-61750000D03*
X14000000Y-61750000D03*
D43*
X21500000Y-63850000D03*
X12500000Y-63850000D03*
D42*
X9000000Y-61750000D03*
X7000000Y-61750000D03*
X5000000Y-61750000D03*
X3000000Y-61750000D03*
D43*
X10500000Y-63850000D03*
X1500000Y-63850000D03*
D44*
X72600000Y-11800000D03*
X72600000Y-12900000D03*
X72600000Y-14000000D03*
X72600000Y-15100000D03*
X72600000Y-16100000D03*
X72600000Y-17200000D03*
X72600000Y-18300000D03*
X72600000Y-19400000D03*
D45*
X72585000Y-7920000D03*
D46*
X72100000Y-20580000D03*
D47*
X61335000Y-20660000D03*
X61335000Y-7700000D03*
D48*
X60135000Y-10010000D03*
D49*
X60060000Y-14275000D03*
D19*
X31400000Y-27600000D03*
X33050000Y-27600000D03*
X31400000Y-29000000D03*
X31400000Y-30600000D03*
M02*
