M48
;DRILL file {kicad (2014-jan-25)-product} date Thu 31 Jul 2014 17:26:02 BST
;FORMAT={-:-/ absolute / inch / decimal}
FMAT,2
INCH,TZ
T1C0.016
T2C0.025
T3C0.028
T4C0.031
%
G90
G05
M72
T1
X0.0787Y-0.5906
X0.0787Y-0.7087
X0.0787Y-0.8268
X0.0787Y-0.9449
X0.0787Y-1.063
X0.0787Y-1.1811
X0.0787Y-1.2992
X0.0787Y-1.4173
X0.0787Y-1.5354
X0.0787Y-1.6535
X0.0787Y-1.7717
X0.0787Y-2.0236
X0.0787Y-2.126
X0.0787Y-2.2441
X0.0787Y-2.3622
X0.0787Y-2.5984
X0.1575Y-2.6772
X0.2756Y-2.6772
X0.3228Y-2.2598
X0.3858Y-2.0827
X0.3937Y-2.6772
X0.4173Y-2.2874
X0.4291Y-1.7047
X0.4488Y-1.9055
X0.4606Y-1.5591
X0.4862Y-0.3051
X0.4961Y-0.378
X0.4961Y-0.7559
X0.4961Y-0.811
X0.4961Y-1.189
X0.4961Y-1.2402
X0.4961Y-2.0787
X0.5039Y-1.8819
X0.5039Y-2.2205
X0.5118Y-2.6772
X0.5354Y-0.5669
X0.5354Y-1.
X0.5354Y-1.4173
X0.5512Y-1.9331
X0.5866Y-1.7165
X0.5984Y-1.6535
X0.622Y-1.9409
X0.6299Y-1.7638
X0.6299Y-2.6772
X0.6378Y-0.3543
X0.6378Y-0.5039
X0.6378Y-0.937
X0.6378Y-1.3701
X0.6417Y-0.7874
X0.6417Y-1.2205
X0.6614Y-0.1969
X0.6772Y-0.2598
X0.6772Y-2.2126
X0.7047Y-1.3898
X0.7087Y-0.5276
X0.7087Y-0.9646
X0.7087Y-1.9055
X0.7087Y-2.0551
X0.7244Y-0.2598
X0.7244Y-1.0551
X0.7244Y-1.5512
X0.748Y-2.6772
X0.7559Y-2.2598
X0.7638Y-0.7087
X0.7874Y-0.1181
X0.8189Y-0.5236
X0.8189Y-0.9646
X0.8189Y-1.3898
X0.8189Y-2.0827
X0.8504Y-2.2874
X0.8622Y-1.7008
X0.8661Y-2.6772
X0.8819Y-1.9055
X0.9055Y-0.0787
X0.9331Y-2.0787
X0.937Y-1.8858
X0.937Y-2.2205
X0.9843Y-1.9331
X0.9843Y-2.6772
X1.0079Y-0.6693
X1.0079Y-1.1024
X1.0079Y-1.5236
X1.0157Y-1.6535
X1.0197Y-1.7165
X1.0433Y-0.3976
X1.0433Y-0.4606
X1.0433Y-0.8307
X1.0433Y-0.8937
X1.0433Y-1.2559
X1.0433Y-1.3189
X1.0551Y-1.7638
X1.0551Y-1.937
X1.1024Y-2.6772
X1.1102Y-2.2126
X1.1417Y-1.9055
X1.1417Y-2.0551
X1.189Y-2.2598
X1.2205Y-2.6772
X1.2441Y-0.9843
X1.252Y-2.0827
X1.2598Y-0.0591
X1.2756Y-1.3386
X1.2835Y-2.2874
X1.2953Y-1.7047
X1.3071Y-0.9843
X1.315Y-1.9055
X1.3189Y-1.1811
X1.3189Y-1.2402
X1.3189Y-1.3189
X1.3189Y-1.3976
X1.3622Y-2.0787
X1.3701Y-1.8819
X1.3701Y-2.2205
X1.378Y-0.0591
X1.4173Y-1.1811
X1.4173Y-1.9331
X1.4488Y-1.6535
X1.4528Y-1.7165
X1.4606Y-0.8819
X1.4764Y-0.9646
X1.4764Y-1.0276
X1.4823Y-1.3661
X1.4882Y-1.7638
X1.4882Y-1.937
X1.4961Y-0.0591
X1.4961Y-1.1811
X1.5354Y-0.8268
X1.5433Y-2.2126
X1.5512Y-1.6575
X1.5551Y-1.0787
X1.5748Y-1.189
X1.5748Y-1.9055
X1.5748Y-2.0315
X1.5827Y-2.1772
X1.6024Y-1.8031
X1.6142Y-0.0591
X1.6142Y-1.6575
X1.6142Y-1.8583
X1.6339Y-0.8268
X1.6457Y-2.1496
X1.6535Y-1.189
X1.6575Y-1.6102
X1.6693Y-1.2913
X1.6772Y-1.1496
X1.6772Y-1.8465
X1.6772Y-1.9055
X1.689Y-1.5768
X1.7008Y-1.189
X1.7047Y-1.8465
X1.7047Y-1.9055
X1.7087Y-1.7756
X1.7205Y-1.6102
X1.7323Y-0.0591
X1.7323Y-1.2913
X1.7402Y-1.2402
X1.748Y-0.7953
X1.7992Y-2.0984
X1.8031Y-1.9764
X1.815Y-1.1378
X1.8268Y-1.8583
X1.8425Y-0.5354
X1.8425Y-0.7953
X1.8504Y-0.0591
X1.8583Y-1.3976
X1.8583Y-1.5945
X1.8622Y-1.7126
X1.8661Y-1.0039
X1.8878Y-1.6791
X1.8898Y-1.2047
X1.9094Y-0.7559
X1.9134Y-0.6457
X1.937Y-1.6772
X1.9685Y-0.0591
X1.9724Y-1.7008
X1.9921Y-1.2047
X2.0433Y-1.9291
X2.0591Y-0.6693
X2.063Y-0.7323
X2.0866Y-0.0591
X2.0906Y-1.6654
X2.0945Y-2.1024
X2.0984Y-1.7047
X2.1024Y-1.9921
X2.1378Y-2.0984
X2.1496Y-1.6496
X2.1772Y-1.0236
X2.1811Y-1.6772
X2.189Y-0.878
X2.2047Y-0.0591
X2.2323Y-2.0984
X2.252Y-0.7874
X2.2559Y-1.0315
X2.2736Y-1.8189
X2.2795Y-1.2953
X2.3228Y-0.0591
X2.3307Y-1.0157
X2.3327Y-1.9134
X2.3386Y-0.437
X2.3386Y-1.0866
X2.3425Y-0.3031
X2.3425Y-0.8976
X2.3465Y-0.815
X2.3661Y-1.2795
X2.3898Y-2.1417
X2.4016Y-1.7717
X2.4646Y-1.8228
X2.4646Y-2.1811
X2.4724Y-1.2283
X2.4724Y-1.7047
X2.4882Y-2.2638
X2.5039Y-1.0709
X2.5039Y-1.1811
X2.5669Y-1.8819
X2.5787Y-2.2677
X2.5827Y-1.5433
X2.6063Y-1.622
X2.6378Y-2.6772
X2.6732Y-0.1732
X2.6772Y-0.1102
X2.685Y-1.1535
X2.7165Y-1.8898
X2.7441Y-0.248
X2.7559Y-0.0787
X2.7559Y-2.6772
X2.7717Y-1.6654
X2.7992Y-2.2677
X2.8031Y-0.685
X2.8051Y-1.25
X2.8661Y-1.6575
X2.874Y-0.0787
X2.874Y-1.4646
X2.874Y-2.6772
X2.8858Y-0.5945
X2.8858Y-0.6772
X2.8976Y-0.311
X2.8976Y-0.811
X2.9016Y-2.2598
X2.9055Y-0.5512
X2.9055Y-0.6339
X2.9094Y-1.0276
X2.9134Y-1.4094
X2.9449Y-0.5079
X2.9764Y-1.1969
X2.9882Y-0.7283
X2.9882Y-0.815
X2.9921Y-2.6772
X3.Y-1.1811
X3.Y-2.0394
X3.0039Y-1.6693
X3.0236Y-1.1969
X3.0236Y-1.2756
X3.0472Y-1.1811
X3.0709Y-1.1969
X3.0906Y-2.2874
X3.1102Y-2.6772
X3.1339Y-2.2323
X3.1378Y-2.0472
X3.1614Y-1.6575
X3.189Y-0.1969
X3.2283Y-2.6772
X3.3071Y-0.2756
X3.3268Y-1.6732
X3.3425Y-0.8189
X3.3425Y-0.9921
X3.3425Y-2.2677
X3.3465Y-1.311
X3.3465Y-2.6772
X3.4252Y-0.3543
X3.4488Y-1.2835
X3.4646Y-2.6772
X3.5433Y-0.4331
X3.5512Y-2.2677
X3.5827Y-2.6772
X3.6299Y-2.3228
X3.6614Y-0.4567
X3.6969Y-2.2205
X3.8583Y-0.6693
X3.8583Y-0.7874
X3.8583Y-0.9055
X3.8583Y-1.0236
X3.8583Y-1.1417
X3.8583Y-1.2598
X3.8583Y-1.378
X3.8583Y-1.4961
X3.8583Y-1.6142
X3.8583Y-1.7323
X3.8583Y-1.8504
X3.8583Y-1.9685
X3.8583Y-2.0866
X3.8583Y-2.2047
X3.8583Y-2.3228
X3.8583Y-2.4409
T2
X2.3906Y-0.1154
X2.3906Y-0.1654
X2.4406Y-0.1154
X2.4406Y-0.1654
X2.4906Y-0.1154
X2.4906Y-0.1654
X2.5406Y-0.1154
X2.5406Y-0.1654
X2.5906Y-0.1154
X2.5906Y-0.1654
T3
X0.1181Y-2.4311
X0.1969Y-2.4311
X0.2756Y-2.4311
X0.3228Y-0.748
X0.3228Y-0.8268
X0.3228Y-1.063
X0.3228Y-1.1417
X0.3228Y-1.378
X0.3228Y-1.4567
X0.3543Y-2.4311
X0.5512Y-2.4311
X0.6299Y-2.4311
X0.7087Y-2.4311
X0.7874Y-2.4311
X0.9843Y-2.4311
X1.063Y-2.4311
X1.1417Y-2.4311
X1.2205Y-2.4311
X1.2992Y-0.3248
X1.378Y-0.3248
X1.4567Y-0.3248
X1.5354Y-0.3248
X1.7717Y-0.3248
X1.8504Y-0.3248
X1.9291Y-0.3248
X2.0079Y-0.3248
X2.7165Y-2.4331
X2.7953Y-2.4331
X3.0315Y-2.4331
X3.1102Y-2.4331
X3.3465Y-2.4331
X3.4252Y-2.4331
X3.6122Y-0.8661
X3.6122Y-0.9449
X3.6142Y-1.1811
X3.6142Y-1.2598
X3.6142Y-1.4961
X3.6142Y-1.5748
X3.6142Y-1.811
X3.6142Y-1.8898
T4
X1.6811Y-1.9764
X2.4606Y-2.0512
T0
M30
