M48
;DRILL file {kicad (2014-jan-25)-product} date Thu 31 Jul 2014 17:57:04 BST
;FORMAT={-:-/ absolute / inch / decimal}
FMAT,2
INCH,TZ
T1C0.024
T2C0.043
T3C0.130
%
G90
G05
M72
T1
X0.0669Y-1.8976
X0.0945Y-1.8268
X0.0945Y-1.9685
X0.1654Y-1.7992
X0.1654Y-1.9961
X0.2087Y-0.5039
X0.2362Y-0.4331
X0.2362Y-0.5748
X0.2362Y-1.8268
X0.2362Y-1.9685
X0.2638Y-1.8976
X0.3071Y-0.4055
X0.3071Y-0.6024
X0.378Y-0.4331
X0.378Y-0.5748
X0.4055Y-0.5039
X0.9488Y-0.1732
X0.9764Y-0.1024
X0.9764Y-0.2441
X1.0472Y-0.0748
X1.0472Y-0.2717
X1.1181Y-0.1024
X1.1181Y-0.2441
X1.1457Y-0.1732
X2.9016Y-0.1654
X2.9291Y-0.0945
X2.9291Y-0.2362
X3.Y-0.0669
X3.Y-0.2638
X3.0709Y-0.0945
X3.0709Y-0.2362
X3.0984Y-0.1654
X3.6181Y-0.5984
X3.6457Y-0.5276
X3.6457Y-0.6693
X3.6575Y-2.5748
X3.685Y-2.5039
X3.685Y-2.6457
X3.7165Y-0.5
X3.7165Y-0.6969
X3.7559Y-2.4764
X3.7559Y-2.6732
X3.7874Y-0.5276
X3.7874Y-0.6693
X3.815Y-0.5984
X3.8268Y-2.5039
X3.8268Y-2.6457
X3.8543Y-2.5748
T2
X0.0591Y-2.5138
X0.2402Y-0.689
X0.2402Y-0.8858
X0.2402Y-1.0039
X0.2402Y-1.2008
X0.2402Y-1.3189
X0.2402Y-1.5157
X0.4134Y-2.5138
X0.4921Y-2.5138
X0.8465Y-2.5138
X0.9252Y-2.5138
X1.2402Y-0.2421
X1.2795Y-2.5138
X1.5945Y-0.2421
X1.7126Y-0.2421
X2.0669Y-0.2421
X2.6575Y-2.5157
X2.8543Y-2.5157
X2.9724Y-2.5157
X3.1693Y-2.5157
X3.2874Y-2.5157
X3.4843Y-2.5157
X3.6949Y-0.8071
X3.6949Y-1.0039
X3.6969Y-1.122
X3.6969Y-1.3189
X3.6969Y-1.437
X3.6969Y-1.6339
X3.6969Y-1.752
X3.6969Y-1.9488
T3
X0.1654Y-1.8976
X0.3071Y-0.5039
X1.0472Y-0.1732
X3.Y-0.1654
X3.7165Y-0.5984
X3.7559Y-2.5748
T0
M30
