G04 #@! TF.FileFunction,Soldermask,Top*
%FSLAX46Y46*%
G04 Gerber Fmt 4.6, Leading zero omitted, Abs format (unit mm)*
G04 Created by KiCad (PCBNEW 0.201505031001+5637~23~ubuntu14.04.1-product) date Sun 24 May 2015 16:44:14 BST*
%MOMM*%
G01*
G04 APERTURE LIST*
%ADD10C,0.100000*%
%ADD11C,0.600000*%
%ADD12R,0.600000X0.600000*%
%ADD13R,0.700000X0.800000*%
%ADD14R,1.200000X1.700000*%
%ADD15R,0.500000X0.600000*%
%ADD16R,0.640000X1.020000*%
%ADD17R,1.020000X0.640000*%
%ADD18R,0.360000X0.660000*%
%ADD19C,1.500000*%
%ADD20C,1.200000*%
%ADD21R,0.600000X0.500000*%
%ADD22C,6.300000*%
%ADD23C,0.600000*%
%ADD24R,5.080000X2.286000*%
%ADD25R,5.080000X2.413000*%
%ADD26R,0.900000X1.900000*%
%ADD27R,0.900000X1.300000*%
%ADD28R,1.800000X3.500000*%
%ADD29C,0.300000*%
G04 APERTURE END LIST*
D10*
D11*
X149500000Y-87700000D02*
X152300000Y-87700000D01*
X149500000Y-88700000D02*
X152300000Y-88700000D01*
X124700000Y-87700000D02*
X129900000Y-87700000D01*
X124700000Y-88700000D02*
X129900000Y-88700000D01*
D12*
X123550000Y-87010000D03*
X122550000Y-87010000D03*
X127310000Y-88690000D03*
X127310000Y-87690000D03*
X143000000Y-83500000D03*
X142000000Y-83500000D03*
D13*
X143000000Y-82250000D03*
X141600000Y-82250000D03*
D12*
X151180000Y-88700000D03*
X151180000Y-87700000D03*
D14*
X143000000Y-80250000D03*
X139900000Y-80250000D03*
D12*
X153300000Y-87000000D03*
X154300000Y-87000000D03*
D15*
X120890000Y-87010000D03*
X120890000Y-88110000D03*
X156000000Y-87000000D03*
X156000000Y-88100000D03*
D16*
X132290000Y-87000000D03*
X131010000Y-87000000D03*
D17*
X142000000Y-86000000D03*
X142000000Y-84720000D03*
D18*
X148360000Y-87000000D03*
X147540000Y-87000000D03*
D19*
X149000000Y-81000000D03*
X151000000Y-81000000D03*
D20*
X147500000Y-78900000D03*
X152500000Y-78900000D03*
D21*
X134450000Y-87000000D03*
X133350000Y-87000000D03*
D22*
X158000000Y-77000000D03*
D23*
X158000000Y-74500000D03*
X160500000Y-77000000D03*
X158000000Y-79500000D03*
X155500000Y-77000000D03*
X156200000Y-75200000D03*
X159800000Y-75200000D03*
X156200000Y-78800000D03*
X159800000Y-78800000D03*
D22*
X119000000Y-97000000D03*
D23*
X119000000Y-94500000D03*
X121500000Y-97000000D03*
X119000000Y-99500000D03*
X116500000Y-97000000D03*
X117200000Y-95200000D03*
X120800000Y-95200000D03*
X117200000Y-98800000D03*
X120800000Y-98800000D03*
D22*
X158000000Y-97000000D03*
D23*
X158000000Y-94500000D03*
X160500000Y-97000000D03*
X158000000Y-99500000D03*
X155500000Y-97000000D03*
X156200000Y-95200000D03*
X159800000Y-95200000D03*
X156200000Y-98800000D03*
X159800000Y-98800000D03*
D22*
X119000000Y-77000000D03*
D23*
X119000000Y-74500000D03*
X121500000Y-77000000D03*
X119000000Y-79500000D03*
X116500000Y-77000000D03*
X117200000Y-75200000D03*
X120800000Y-75200000D03*
X117200000Y-78800000D03*
X120800000Y-78800000D03*
D21*
X150550000Y-82650000D03*
X149450000Y-82650000D03*
D24*
X159460000Y-87010000D03*
D25*
X159460000Y-82628500D03*
X159460000Y-91391500D03*
D24*
X117550000Y-86950000D03*
D25*
X117550000Y-91331500D03*
X117550000Y-82568500D03*
D26*
X139000000Y-86700000D03*
D27*
X137500000Y-87000000D03*
X140500000Y-87000000D03*
D28*
X139000000Y-84000000D03*
D29*
X139000000Y-86700000D03*
X139000000Y-87300000D03*
X139000000Y-86100000D03*
X139000000Y-85500000D03*
X139000000Y-84900000D03*
X139000000Y-84300000D03*
X139000000Y-83700000D03*
X139000000Y-83100000D03*
X139000000Y-82500000D03*
X139500000Y-85500000D03*
X139500000Y-84900000D03*
X139500000Y-84300000D03*
X139500000Y-83700000D03*
X139500000Y-83100000D03*
X138500000Y-83100000D03*
X138500000Y-83700000D03*
X138500000Y-84300000D03*
X138500000Y-84900000D03*
X138500000Y-85500000D03*
X138500000Y-82500000D03*
X139500000Y-82500000D03*
M02*
