G04 #@! TF.FileFunction,Legend,Top*
%FSLAX46Y46*%
G04 Gerber Fmt 4.6, Leading zero omitted, Abs format (unit mm)*
G04 Created by KiCad (PCBNEW 0.201505031001+5637~23~ubuntu14.04.1-product) date Tue 26 May 2015 22:06:30 BST*
%MOMM*%
G01*
G04 APERTURE LIST*
%ADD10C,0.100000*%
%ADD11C,0.300000*%
%ADD12C,0.150000*%
G04 APERTURE END LIST*
D10*
D11*
X125645239Y-83716667D02*
X126264287Y-83716667D01*
X125521430Y-84088095D02*
X125954763Y-82788095D01*
X126388096Y-84088095D01*
X127378573Y-84088095D02*
X127378573Y-82788095D01*
X127378573Y-84026190D02*
X127254763Y-84088095D01*
X127007144Y-84088095D01*
X126883335Y-84026190D01*
X126821430Y-83964286D01*
X126759525Y-83840476D01*
X126759525Y-83469048D01*
X126821430Y-83345238D01*
X126883335Y-83283333D01*
X127007144Y-83221429D01*
X127254763Y-83221429D01*
X127378573Y-83283333D01*
X128554763Y-84088095D02*
X128554763Y-83407143D01*
X128492858Y-83283333D01*
X128369048Y-83221429D01*
X128121429Y-83221429D01*
X127997620Y-83283333D01*
X128554763Y-84026190D02*
X128430953Y-84088095D01*
X128121429Y-84088095D01*
X127997620Y-84026190D01*
X127935715Y-83902381D01*
X127935715Y-83778571D01*
X127997620Y-83654762D01*
X128121429Y-83592857D01*
X128430953Y-83592857D01*
X128554763Y-83530952D01*
X129173810Y-84088095D02*
X129173810Y-83221429D01*
X129173810Y-83345238D02*
X129235715Y-83283333D01*
X129359524Y-83221429D01*
X129545238Y-83221429D01*
X129669048Y-83283333D01*
X129730953Y-83407143D01*
X129730953Y-84088095D01*
X129730953Y-83407143D02*
X129792857Y-83283333D01*
X129916667Y-83221429D01*
X130102381Y-83221429D01*
X130226191Y-83283333D01*
X130288096Y-83407143D01*
X130288096Y-84088095D01*
X132578571Y-82850000D02*
X132454762Y-82788095D01*
X132269047Y-82788095D01*
X132083333Y-82850000D01*
X131959524Y-82973810D01*
X131897619Y-83097619D01*
X131835714Y-83345238D01*
X131835714Y-83530952D01*
X131897619Y-83778571D01*
X131959524Y-83902381D01*
X132083333Y-84026190D01*
X132269047Y-84088095D01*
X132392857Y-84088095D01*
X132578571Y-84026190D01*
X132640476Y-83964286D01*
X132640476Y-83530952D01*
X132392857Y-83530952D01*
X133197619Y-84088095D02*
X133197619Y-83221429D01*
X133197619Y-83469048D02*
X133259524Y-83345238D01*
X133321428Y-83283333D01*
X133445238Y-83221429D01*
X133569047Y-83221429D01*
X134497619Y-84026190D02*
X134373809Y-84088095D01*
X134126190Y-84088095D01*
X134002381Y-84026190D01*
X133940476Y-83902381D01*
X133940476Y-83407143D01*
X134002381Y-83283333D01*
X134126190Y-83221429D01*
X134373809Y-83221429D01*
X134497619Y-83283333D01*
X134559524Y-83407143D01*
X134559524Y-83530952D01*
X133940476Y-83654762D01*
X135116667Y-84088095D02*
X135116667Y-83221429D01*
X135116667Y-82788095D02*
X135054762Y-82850000D01*
X135116667Y-82911905D01*
X135178572Y-82850000D01*
X135116667Y-82788095D01*
X135116667Y-82911905D01*
X136292858Y-83221429D02*
X136292858Y-84273810D01*
X136230953Y-84397619D01*
X136169048Y-84459524D01*
X136045239Y-84521429D01*
X135859524Y-84521429D01*
X135735715Y-84459524D01*
X136292858Y-84026190D02*
X136169048Y-84088095D01*
X135921429Y-84088095D01*
X135797620Y-84026190D01*
X135735715Y-83964286D01*
X135673810Y-83840476D01*
X135673810Y-83469048D01*
X135735715Y-83345238D01*
X135797620Y-83283333D01*
X135921429Y-83221429D01*
X136169048Y-83221429D01*
X136292858Y-83283333D01*
X122730954Y-93588095D02*
X122730954Y-92721429D01*
X122730954Y-92969048D02*
X122792859Y-92845238D01*
X122854763Y-92783333D01*
X122978573Y-92721429D01*
X123102382Y-92721429D01*
X124216668Y-93588095D02*
X123473811Y-93588095D01*
X123845240Y-93588095D02*
X123845240Y-92288095D01*
X123721430Y-92473810D01*
X123597621Y-92597619D01*
X123473811Y-92659524D01*
X125702382Y-92411905D02*
X125764287Y-92350000D01*
X125888096Y-92288095D01*
X126197620Y-92288095D01*
X126321430Y-92350000D01*
X126383334Y-92411905D01*
X126445239Y-92535714D01*
X126445239Y-92659524D01*
X126383334Y-92845238D01*
X125640477Y-93588095D01*
X126445239Y-93588095D01*
X127250001Y-92288095D02*
X127373810Y-92288095D01*
X127497620Y-92350000D01*
X127559525Y-92411905D01*
X127621429Y-92535714D01*
X127683334Y-92783333D01*
X127683334Y-93092857D01*
X127621429Y-93340476D01*
X127559525Y-93464286D01*
X127497620Y-93526190D01*
X127373810Y-93588095D01*
X127250001Y-93588095D01*
X127126191Y-93526190D01*
X127064287Y-93464286D01*
X127002382Y-93340476D01*
X126940477Y-93092857D01*
X126940477Y-92783333D01*
X127002382Y-92535714D01*
X127064287Y-92411905D01*
X127126191Y-92350000D01*
X127250001Y-92288095D01*
X128921429Y-93588095D02*
X128178572Y-93588095D01*
X128550001Y-93588095D02*
X128550001Y-92288095D01*
X128426191Y-92473810D01*
X128302382Y-92597619D01*
X128178572Y-92659524D01*
X130097619Y-92288095D02*
X129478572Y-92288095D01*
X129416667Y-92907143D01*
X129478572Y-92845238D01*
X129602381Y-92783333D01*
X129911905Y-92783333D01*
X130035715Y-92845238D01*
X130097619Y-92907143D01*
X130159524Y-93030952D01*
X130159524Y-93340476D01*
X130097619Y-93464286D01*
X130035715Y-93526190D01*
X129911905Y-93588095D01*
X129602381Y-93588095D01*
X129478572Y-93526190D01*
X129416667Y-93464286D01*
X130716667Y-93092857D02*
X131707143Y-93092857D01*
X132573810Y-92288095D02*
X132697619Y-92288095D01*
X132821429Y-92350000D01*
X132883334Y-92411905D01*
X132945238Y-92535714D01*
X133007143Y-92783333D01*
X133007143Y-93092857D01*
X132945238Y-93340476D01*
X132883334Y-93464286D01*
X132821429Y-93526190D01*
X132697619Y-93588095D01*
X132573810Y-93588095D01*
X132450000Y-93526190D01*
X132388096Y-93464286D01*
X132326191Y-93340476D01*
X132264286Y-93092857D01*
X132264286Y-92783333D01*
X132326191Y-92535714D01*
X132388096Y-92411905D01*
X132450000Y-92350000D01*
X132573810Y-92288095D01*
X134183333Y-92288095D02*
X133564286Y-92288095D01*
X133502381Y-92907143D01*
X133564286Y-92845238D01*
X133688095Y-92783333D01*
X133997619Y-92783333D01*
X134121429Y-92845238D01*
X134183333Y-92907143D01*
X134245238Y-93030952D01*
X134245238Y-93340476D01*
X134183333Y-93464286D01*
X134121429Y-93526190D01*
X133997619Y-93588095D01*
X133688095Y-93588095D01*
X133564286Y-93526190D01*
X133502381Y-93464286D01*
X134802381Y-93092857D02*
X135792857Y-93092857D01*
X136350000Y-92411905D02*
X136411905Y-92350000D01*
X136535714Y-92288095D01*
X136845238Y-92288095D01*
X136969048Y-92350000D01*
X137030952Y-92411905D01*
X137092857Y-92535714D01*
X137092857Y-92659524D01*
X137030952Y-92845238D01*
X136288095Y-93588095D01*
X137092857Y-93588095D01*
X138207143Y-92288095D02*
X137959524Y-92288095D01*
X137835714Y-92350000D01*
X137773809Y-92411905D01*
X137650000Y-92597619D01*
X137588095Y-92845238D01*
X137588095Y-93340476D01*
X137650000Y-93464286D01*
X137711905Y-93526190D01*
X137835714Y-93588095D01*
X138083333Y-93588095D01*
X138207143Y-93526190D01*
X138269047Y-93464286D01*
X138330952Y-93340476D01*
X138330952Y-93030952D01*
X138269047Y-92907143D01*
X138207143Y-92845238D01*
X138083333Y-92783333D01*
X137835714Y-92783333D01*
X137711905Y-92845238D01*
X137650000Y-92907143D01*
X137588095Y-93030952D01*
X151700000Y-81788095D02*
X151947619Y-81788095D01*
X152071428Y-81850000D01*
X152195238Y-81973810D01*
X152257143Y-82221429D01*
X152257143Y-82654762D01*
X152195238Y-82902381D01*
X152071428Y-83026190D01*
X151947619Y-83088095D01*
X151700000Y-83088095D01*
X151576190Y-83026190D01*
X151452381Y-82902381D01*
X151390476Y-82654762D01*
X151390476Y-82221429D01*
X151452381Y-81973810D01*
X151576190Y-81850000D01*
X151700000Y-81788095D01*
X152814286Y-81788095D02*
X152814286Y-82840476D01*
X152876191Y-82964286D01*
X152938095Y-83026190D01*
X153061905Y-83088095D01*
X153309524Y-83088095D01*
X153433333Y-83026190D01*
X153495238Y-82964286D01*
X153557143Y-82840476D01*
X153557143Y-81788095D01*
X153990477Y-81788095D02*
X154733334Y-81788095D01*
X154361905Y-83088095D02*
X154361905Y-81788095D01*
X123319048Y-83088095D02*
X123319048Y-81788095D01*
X123938096Y-83088095D02*
X123938096Y-81788095D01*
X124680953Y-83088095D01*
X124680953Y-81788095D01*
X141300000Y-89762857D02*
X141300000Y-90562857D01*
X141014286Y-89305714D02*
X140728571Y-90162857D01*
X141471429Y-90162857D01*
X141871428Y-89477143D02*
X141928571Y-89420000D01*
X142042857Y-89362857D01*
X142328571Y-89362857D01*
X142442857Y-89420000D01*
X142500000Y-89477143D01*
X142557143Y-89591429D01*
X142557143Y-89705714D01*
X142500000Y-89877143D01*
X141814286Y-90562857D01*
X142557143Y-90562857D01*
X143300000Y-89362857D02*
X143414285Y-89362857D01*
X143528571Y-89420000D01*
X143585714Y-89477143D01*
X143642857Y-89591429D01*
X143700000Y-89820000D01*
X143700000Y-90105714D01*
X143642857Y-90334286D01*
X143585714Y-90448571D01*
X143528571Y-90505714D01*
X143414285Y-90562857D01*
X143300000Y-90562857D01*
X143185714Y-90505714D01*
X143128571Y-90448571D01*
X143071428Y-90334286D01*
X143014285Y-90105714D01*
X143014285Y-89820000D01*
X143071428Y-89591429D01*
X143128571Y-89477143D01*
X143185714Y-89420000D01*
X143300000Y-89362857D01*
X144214285Y-90105714D02*
X145128571Y-90105714D01*
X146214285Y-89762857D02*
X146214285Y-90562857D01*
X145928571Y-89305714D02*
X145642856Y-90162857D01*
X146385714Y-90162857D01*
X147414285Y-89362857D02*
X146842856Y-89362857D01*
X146785713Y-89934286D01*
X146842856Y-89877143D01*
X146957142Y-89820000D01*
X147242856Y-89820000D01*
X147357142Y-89877143D01*
X147414285Y-89934286D01*
X147471428Y-90048571D01*
X147471428Y-90334286D01*
X147414285Y-90448571D01*
X147357142Y-90505714D01*
X147242856Y-90562857D01*
X146957142Y-90562857D01*
X146842856Y-90505714D01*
X146785713Y-90448571D01*
X148214285Y-89362857D02*
X148328570Y-89362857D01*
X148442856Y-89420000D01*
X148499999Y-89477143D01*
X148557142Y-89591429D01*
X148614285Y-89820000D01*
X148614285Y-90105714D01*
X148557142Y-90334286D01*
X148499999Y-90448571D01*
X148442856Y-90505714D01*
X148328570Y-90562857D01*
X148214285Y-90562857D01*
X148099999Y-90505714D01*
X148042856Y-90448571D01*
X147985713Y-90334286D01*
X147928570Y-90105714D01*
X147928570Y-89820000D01*
X147985713Y-89591429D01*
X148042856Y-89477143D01*
X148099999Y-89420000D01*
X148214285Y-89362857D01*
X149128570Y-90562857D02*
X149128570Y-89362857D01*
X149528570Y-90220000D01*
X149928570Y-89362857D01*
X149928570Y-90562857D01*
X150499999Y-90562857D02*
X150499999Y-89362857D01*
X150499999Y-89934286D02*
X151185714Y-89934286D01*
X151185714Y-90562857D02*
X151185714Y-89362857D01*
X151642857Y-89762857D02*
X152271428Y-89762857D01*
X151642857Y-90562857D01*
X152271428Y-90562857D01*
X141414286Y-92542857D02*
X140728571Y-92542857D01*
X141071429Y-92542857D02*
X141071429Y-91342857D01*
X140957143Y-91514286D01*
X140842857Y-91628571D01*
X140728571Y-91685714D01*
X142157143Y-91342857D02*
X142271428Y-91342857D01*
X142385714Y-91400000D01*
X142442857Y-91457143D01*
X142500000Y-91571429D01*
X142557143Y-91800000D01*
X142557143Y-92085714D01*
X142500000Y-92314286D01*
X142442857Y-92428571D01*
X142385714Y-92485714D01*
X142271428Y-92542857D01*
X142157143Y-92542857D01*
X142042857Y-92485714D01*
X141985714Y-92428571D01*
X141928571Y-92314286D01*
X141871428Y-92085714D01*
X141871428Y-91800000D01*
X141928571Y-91571429D01*
X141985714Y-91457143D01*
X142042857Y-91400000D01*
X142157143Y-91342857D01*
X143071428Y-92542857D02*
X143071428Y-91742857D01*
X143071428Y-91857143D02*
X143128571Y-91800000D01*
X143242857Y-91742857D01*
X143414285Y-91742857D01*
X143528571Y-91800000D01*
X143585714Y-91914286D01*
X143585714Y-92542857D01*
X143585714Y-91914286D02*
X143642857Y-91800000D01*
X143757143Y-91742857D01*
X143928571Y-91742857D01*
X144042857Y-91800000D01*
X144100000Y-91914286D01*
X144100000Y-92542857D01*
X144557143Y-91342857D02*
X144842857Y-92542857D01*
X145071428Y-91685714D01*
X145300000Y-92542857D01*
X145585714Y-91342857D01*
X146042857Y-92085714D02*
X146957143Y-92085714D01*
X146728572Y-92314286D02*
X146957143Y-92085714D01*
X146728572Y-91857143D01*
X148100000Y-91342857D02*
X147528571Y-91342857D01*
X147471428Y-91914286D01*
X147528571Y-91857143D01*
X147642857Y-91800000D01*
X147928571Y-91800000D01*
X148042857Y-91857143D01*
X148100000Y-91914286D01*
X148157143Y-92028571D01*
X148157143Y-92314286D01*
X148100000Y-92428571D01*
X148042857Y-92485714D01*
X147928571Y-92542857D01*
X147642857Y-92542857D01*
X147528571Y-92485714D01*
X147471428Y-92428571D01*
X148900000Y-91342857D02*
X149014285Y-91342857D01*
X149128571Y-91400000D01*
X149185714Y-91457143D01*
X149242857Y-91571429D01*
X149300000Y-91800000D01*
X149300000Y-92085714D01*
X149242857Y-92314286D01*
X149185714Y-92428571D01*
X149128571Y-92485714D01*
X149014285Y-92542857D01*
X148900000Y-92542857D01*
X148785714Y-92485714D01*
X148728571Y-92428571D01*
X148671428Y-92314286D01*
X148614285Y-92085714D01*
X148614285Y-91800000D01*
X148671428Y-91571429D01*
X148728571Y-91457143D01*
X148785714Y-91400000D01*
X148900000Y-91342857D01*
X150042857Y-91342857D02*
X150157142Y-91342857D01*
X150271428Y-91400000D01*
X150328571Y-91457143D01*
X150385714Y-91571429D01*
X150442857Y-91800000D01*
X150442857Y-92085714D01*
X150385714Y-92314286D01*
X150328571Y-92428571D01*
X150271428Y-92485714D01*
X150157142Y-92542857D01*
X150042857Y-92542857D01*
X149928571Y-92485714D01*
X149871428Y-92428571D01*
X149814285Y-92314286D01*
X149757142Y-92085714D01*
X149757142Y-91800000D01*
X149814285Y-91571429D01*
X149871428Y-91457143D01*
X149928571Y-91400000D01*
X150042857Y-91342857D01*
X150957142Y-92542857D02*
X150957142Y-91742857D01*
X150957142Y-91857143D02*
X151014285Y-91800000D01*
X151128571Y-91742857D01*
X151299999Y-91742857D01*
X151414285Y-91800000D01*
X151471428Y-91914286D01*
X151471428Y-92542857D01*
X151471428Y-91914286D02*
X151528571Y-91800000D01*
X151642857Y-91742857D01*
X151814285Y-91742857D01*
X151928571Y-91800000D01*
X151985714Y-91914286D01*
X151985714Y-92542857D01*
X152442857Y-91342857D02*
X152728571Y-92542857D01*
X152957142Y-91685714D01*
X153185714Y-92542857D01*
X153471428Y-91342857D01*
X141357143Y-93322857D02*
X140785714Y-93322857D01*
X140728571Y-93894286D01*
X140785714Y-93837143D01*
X140900000Y-93780000D01*
X141185714Y-93780000D01*
X141300000Y-93837143D01*
X141357143Y-93894286D01*
X141414286Y-94008571D01*
X141414286Y-94294286D01*
X141357143Y-94408571D01*
X141300000Y-94465714D01*
X141185714Y-94522857D01*
X140900000Y-94522857D01*
X140785714Y-94465714D01*
X140728571Y-94408571D01*
X141757143Y-93322857D02*
X142157143Y-94522857D01*
X142557143Y-93322857D01*
X142957142Y-94522857D02*
X142957142Y-93322857D01*
X143242857Y-93322857D01*
X143414285Y-93380000D01*
X143528571Y-93494286D01*
X143585714Y-93608571D01*
X143642857Y-93837143D01*
X143642857Y-94008571D01*
X143585714Y-94237143D01*
X143528571Y-94351429D01*
X143414285Y-94465714D01*
X143242857Y-94522857D01*
X142957142Y-94522857D01*
X144842857Y-94408571D02*
X144785714Y-94465714D01*
X144614285Y-94522857D01*
X144499999Y-94522857D01*
X144328571Y-94465714D01*
X144214285Y-94351429D01*
X144157142Y-94237143D01*
X144099999Y-94008571D01*
X144099999Y-93837143D01*
X144157142Y-93608571D01*
X144214285Y-93494286D01*
X144328571Y-93380000D01*
X144499999Y-93322857D01*
X144614285Y-93322857D01*
X144785714Y-93380000D01*
X144842857Y-93437143D01*
X146900000Y-94522857D02*
X146214285Y-94522857D01*
X146557143Y-94522857D02*
X146557143Y-93322857D01*
X146442857Y-93494286D01*
X146328571Y-93608571D01*
X146214285Y-93665714D01*
X147985714Y-93322857D02*
X147414285Y-93322857D01*
X147357142Y-93894286D01*
X147414285Y-93837143D01*
X147528571Y-93780000D01*
X147814285Y-93780000D01*
X147928571Y-93837143D01*
X147985714Y-93894286D01*
X148042857Y-94008571D01*
X148042857Y-94294286D01*
X147985714Y-94408571D01*
X147928571Y-94465714D01*
X147814285Y-94522857D01*
X147528571Y-94522857D01*
X147414285Y-94465714D01*
X147357142Y-94408571D01*
X148785714Y-93322857D02*
X148899999Y-93322857D01*
X149014285Y-93380000D01*
X149071428Y-93437143D01*
X149128571Y-93551429D01*
X149185714Y-93780000D01*
X149185714Y-94065714D01*
X149128571Y-94294286D01*
X149071428Y-94408571D01*
X149014285Y-94465714D01*
X148899999Y-94522857D01*
X148785714Y-94522857D01*
X148671428Y-94465714D01*
X148614285Y-94408571D01*
X148557142Y-94294286D01*
X148499999Y-94065714D01*
X148499999Y-93780000D01*
X148557142Y-93551429D01*
X148614285Y-93437143D01*
X148671428Y-93380000D01*
X148785714Y-93322857D01*
X149699999Y-94522857D02*
X149699999Y-93722857D01*
X149699999Y-93837143D02*
X149757142Y-93780000D01*
X149871428Y-93722857D01*
X150042856Y-93722857D01*
X150157142Y-93780000D01*
X150214285Y-93894286D01*
X150214285Y-94522857D01*
X150214285Y-93894286D02*
X150271428Y-93780000D01*
X150385714Y-93722857D01*
X150557142Y-93722857D01*
X150671428Y-93780000D01*
X150728571Y-93894286D01*
X150728571Y-94522857D01*
X151242856Y-94180000D02*
X151814285Y-94180000D01*
X151128571Y-94522857D02*
X151528571Y-93322857D01*
X151928571Y-94522857D01*
X148207143Y-83771428D02*
X148207143Y-82628571D01*
X148207143Y-80771428D02*
X148207143Y-79628571D01*
X148778571Y-80200000D02*
X147635714Y-80200000D01*
X128357143Y-81678571D02*
X128357143Y-80178571D01*
X128857143Y-81250000D01*
X129357143Y-80178571D01*
X129357143Y-81678571D01*
X130000000Y-80321429D02*
X130071429Y-80250000D01*
X130214286Y-80178571D01*
X130571429Y-80178571D01*
X130714286Y-80250000D01*
X130785715Y-80321429D01*
X130857143Y-80464286D01*
X130857143Y-80607143D01*
X130785715Y-80821429D01*
X129928572Y-81678571D01*
X130857143Y-81678571D01*
X131500000Y-81678571D02*
X131500000Y-80178571D01*
X132071428Y-80178571D01*
X132214286Y-80250000D01*
X132285714Y-80321429D01*
X132357143Y-80464286D01*
X132357143Y-80678571D01*
X132285714Y-80821429D01*
X132214286Y-80892857D01*
X132071428Y-80964286D01*
X131500000Y-80964286D01*
X132928571Y-81250000D02*
X133642857Y-81250000D01*
X132785714Y-81678571D02*
X133285714Y-80178571D01*
X133785714Y-81678571D01*
D12*
X124950000Y-86600000D02*
X123250000Y-86600000D01*
X124950000Y-87400000D02*
X123250000Y-87400000D01*
X127710000Y-89040000D02*
X127710000Y-87340000D01*
X126910000Y-89040000D02*
X126910000Y-87340000D01*
X143350000Y-83100000D02*
X141650000Y-83100000D01*
X143350000Y-83900000D02*
X141650000Y-83900000D01*
X141250000Y-81750000D02*
X143350000Y-81750000D01*
X143350000Y-82750000D02*
X141250000Y-82750000D01*
X151580000Y-89050000D02*
X151580000Y-87350000D01*
X150780000Y-89050000D02*
X150780000Y-87350000D01*
X143600000Y-79250000D02*
X139300000Y-79250000D01*
X143600000Y-81250000D02*
X139300000Y-81250000D01*
X152950000Y-87400000D02*
X154650000Y-87400000D01*
X152950000Y-86600000D02*
X154650000Y-86600000D01*
X122250000Y-86700000D02*
X122250000Y-88400000D01*
X122950000Y-86700000D02*
X122950000Y-88400000D01*
X155150000Y-86700000D02*
X155150000Y-88400000D01*
X155850000Y-86700000D02*
X155850000Y-88400000D01*
X132590000Y-86400000D02*
X130690000Y-86400000D01*
X132590000Y-87600000D02*
X130690000Y-87600000D01*
X142600000Y-86300000D02*
X142600000Y-84400000D01*
X141400000Y-86300000D02*
X141400000Y-84400000D01*
X148560000Y-86600000D02*
X147360000Y-86600000D01*
X148560000Y-87400000D02*
X147360000Y-87400000D01*
X134750000Y-86650000D02*
X133050000Y-86650000D01*
X134750000Y-87350000D02*
X133050000Y-87350000D01*
X147050000Y-80900000D02*
X147050000Y-82600000D01*
X147750000Y-80900000D02*
X147750000Y-82600000D01*
X161367000Y-81412000D02*
X161367000Y-92588000D01*
X116733000Y-92588000D02*
X116733000Y-81412000D01*
X140500000Y-86100000D02*
X141000000Y-86100000D01*
X141000000Y-86100000D02*
X141000000Y-83600000D01*
X141000000Y-83600000D02*
X140500000Y-83600000D01*
X137500000Y-83600000D02*
X137000000Y-83600000D01*
X137000000Y-83600000D02*
X137000000Y-86100000D01*
X137000000Y-86100000D02*
X137500000Y-86100000D01*
X140500000Y-86100000D02*
X139700000Y-86100000D01*
X137500000Y-86100000D02*
X138300000Y-86100000D01*
X140200000Y-83600000D02*
X140500000Y-83600000D01*
X137500000Y-83600000D02*
X137800000Y-83600000D01*
D10*
G36*
X123861125Y-91495736D02*
X123812254Y-91493366D01*
X123781511Y-91472523D01*
X123777000Y-91454842D01*
X123788793Y-91430121D01*
X123822645Y-91374208D01*
X123876267Y-91290543D01*
X123947367Y-91182563D01*
X124033657Y-91053707D01*
X124132845Y-90907414D01*
X124242643Y-90747121D01*
X124360760Y-90576267D01*
X124393760Y-90528800D01*
X124515328Y-90354527D01*
X124631056Y-90189338D01*
X124738420Y-90036790D01*
X124834892Y-89900440D01*
X124917946Y-89783844D01*
X124985057Y-89690559D01*
X125033698Y-89624142D01*
X125061343Y-89588149D01*
X125064470Y-89584542D01*
X125126125Y-89538296D01*
X125191011Y-89526334D01*
X125239424Y-89529800D01*
X125256469Y-89545620D01*
X125254435Y-89574288D01*
X125241190Y-89598883D01*
X125206332Y-89654107D01*
X125152613Y-89735971D01*
X125082789Y-89840488D01*
X124999612Y-89963669D01*
X124905837Y-90101526D01*
X124804217Y-90250070D01*
X124697505Y-90405314D01*
X124588457Y-90563270D01*
X124479825Y-90719948D01*
X124374363Y-90871361D01*
X124274825Y-91013521D01*
X124183965Y-91142440D01*
X124104536Y-91254128D01*
X124039293Y-91344598D01*
X123990988Y-91409862D01*
X123962377Y-91445932D01*
X123961230Y-91447209D01*
X123915118Y-91480170D01*
X123861125Y-91495736D01*
X123861125Y-91495736D01*
X123861125Y-91495736D01*
G37*
X123861125Y-91495736D02*
X123812254Y-91493366D01*
X123781511Y-91472523D01*
X123777000Y-91454842D01*
X123788793Y-91430121D01*
X123822645Y-91374208D01*
X123876267Y-91290543D01*
X123947367Y-91182563D01*
X124033657Y-91053707D01*
X124132845Y-90907414D01*
X124242643Y-90747121D01*
X124360760Y-90576267D01*
X124393760Y-90528800D01*
X124515328Y-90354527D01*
X124631056Y-90189338D01*
X124738420Y-90036790D01*
X124834892Y-89900440D01*
X124917946Y-89783844D01*
X124985057Y-89690559D01*
X125033698Y-89624142D01*
X125061343Y-89588149D01*
X125064470Y-89584542D01*
X125126125Y-89538296D01*
X125191011Y-89526334D01*
X125239424Y-89529800D01*
X125256469Y-89545620D01*
X125254435Y-89574288D01*
X125241190Y-89598883D01*
X125206332Y-89654107D01*
X125152613Y-89735971D01*
X125082789Y-89840488D01*
X124999612Y-89963669D01*
X124905837Y-90101526D01*
X124804217Y-90250070D01*
X124697505Y-90405314D01*
X124588457Y-90563270D01*
X124479825Y-90719948D01*
X124374363Y-90871361D01*
X124274825Y-91013521D01*
X124183965Y-91142440D01*
X124104536Y-91254128D01*
X124039293Y-91344598D01*
X123990988Y-91409862D01*
X123962377Y-91445932D01*
X123961230Y-91447209D01*
X123915118Y-91480170D01*
X123861125Y-91495736D01*
X123861125Y-91495736D01*
G36*
X124405199Y-91496748D02*
X124363274Y-91483434D01*
X124348500Y-91457253D01*
X124360305Y-91433072D01*
X124394205Y-91377671D01*
X124447925Y-91294447D01*
X124519191Y-91186797D01*
X124605730Y-91058118D01*
X124705268Y-90911806D01*
X124815531Y-90751259D01*
X124934244Y-90579873D01*
X124975506Y-90520628D01*
X125097764Y-90345603D01*
X125213814Y-90180001D01*
X125321198Y-90027289D01*
X125417461Y-89890936D01*
X125500147Y-89774410D01*
X125566798Y-89681180D01*
X125614959Y-89614714D01*
X125642174Y-89578480D01*
X125645945Y-89573959D01*
X125689272Y-89544669D01*
X125746550Y-89527541D01*
X125804794Y-89523346D01*
X125851022Y-89532852D01*
X125872249Y-89556834D01*
X125872500Y-89560508D01*
X125860743Y-89583315D01*
X125827286Y-89636766D01*
X125774853Y-89716927D01*
X125706165Y-89819864D01*
X125623946Y-89941641D01*
X125530918Y-90078326D01*
X125429804Y-90225982D01*
X125323326Y-90380677D01*
X125214208Y-90538476D01*
X125105172Y-90695444D01*
X124998940Y-90847647D01*
X124898235Y-90991151D01*
X124805781Y-91122021D01*
X124724299Y-91236324D01*
X124656512Y-91330124D01*
X124605144Y-91399488D01*
X124572915Y-91440480D01*
X124566849Y-91447209D01*
X124519770Y-91478047D01*
X124461626Y-91494756D01*
X124405199Y-91496748D01*
X124405199Y-91496748D01*
X124405199Y-91496748D01*
G37*
X124405199Y-91496748D02*
X124363274Y-91483434D01*
X124348500Y-91457253D01*
X124360305Y-91433072D01*
X124394205Y-91377671D01*
X124447925Y-91294447D01*
X124519191Y-91186797D01*
X124605730Y-91058118D01*
X124705268Y-90911806D01*
X124815531Y-90751259D01*
X124934244Y-90579873D01*
X124975506Y-90520628D01*
X125097764Y-90345603D01*
X125213814Y-90180001D01*
X125321198Y-90027289D01*
X125417461Y-89890936D01*
X125500147Y-89774410D01*
X125566798Y-89681180D01*
X125614959Y-89614714D01*
X125642174Y-89578480D01*
X125645945Y-89573959D01*
X125689272Y-89544669D01*
X125746550Y-89527541D01*
X125804794Y-89523346D01*
X125851022Y-89532852D01*
X125872249Y-89556834D01*
X125872500Y-89560508D01*
X125860743Y-89583315D01*
X125827286Y-89636766D01*
X125774853Y-89716927D01*
X125706165Y-89819864D01*
X125623946Y-89941641D01*
X125530918Y-90078326D01*
X125429804Y-90225982D01*
X125323326Y-90380677D01*
X125214208Y-90538476D01*
X125105172Y-90695444D01*
X124998940Y-90847647D01*
X124898235Y-90991151D01*
X124805781Y-91122021D01*
X124724299Y-91236324D01*
X124656512Y-91330124D01*
X124605144Y-91399488D01*
X124572915Y-91440480D01*
X124566849Y-91447209D01*
X124519770Y-91478047D01*
X124461626Y-91494756D01*
X124405199Y-91496748D01*
X124405199Y-91496748D01*
G36*
X125074040Y-91494834D02*
X125007950Y-91492604D01*
X124974177Y-91483617D01*
X124962839Y-91464423D01*
X124962333Y-91455856D01*
X124974141Y-91431394D01*
X125008046Y-91375726D01*
X125061772Y-91292258D01*
X125133042Y-91184395D01*
X125219579Y-91055543D01*
X125319109Y-90909109D01*
X125429353Y-90748499D01*
X125548035Y-90577118D01*
X125588349Y-90519231D01*
X125710568Y-90344292D01*
X125826642Y-90178747D01*
X125934103Y-90026074D01*
X126030486Y-89889748D01*
X126113324Y-89773246D01*
X126180150Y-89680046D01*
X126228497Y-89613623D01*
X126255898Y-89577456D01*
X126259654Y-89573038D01*
X126293460Y-89544389D01*
X126334608Y-89531232D01*
X126398226Y-89529624D01*
X126422096Y-89530705D01*
X126489557Y-89536162D01*
X126524587Y-89546180D01*
X126537089Y-89565065D01*
X126537941Y-89581081D01*
X126525834Y-89606579D01*
X126491880Y-89662554D01*
X126438839Y-89745032D01*
X126369468Y-89850040D01*
X126286528Y-89973606D01*
X126192775Y-90111756D01*
X126090970Y-90260519D01*
X125983870Y-90415920D01*
X125874235Y-90573989D01*
X125764822Y-90730751D01*
X125658391Y-90882233D01*
X125557700Y-91024464D01*
X125465508Y-91153471D01*
X125384574Y-91265280D01*
X125317656Y-91355919D01*
X125267513Y-91421415D01*
X125236903Y-91457795D01*
X125231119Y-91463054D01*
X125179605Y-91483116D01*
X125104088Y-91493914D01*
X125074040Y-91494834D01*
X125074040Y-91494834D01*
X125074040Y-91494834D01*
G37*
X125074040Y-91494834D02*
X125007950Y-91492604D01*
X124974177Y-91483617D01*
X124962839Y-91464423D01*
X124962333Y-91455856D01*
X124974141Y-91431394D01*
X125008046Y-91375726D01*
X125061772Y-91292258D01*
X125133042Y-91184395D01*
X125219579Y-91055543D01*
X125319109Y-90909109D01*
X125429353Y-90748499D01*
X125548035Y-90577118D01*
X125588349Y-90519231D01*
X125710568Y-90344292D01*
X125826642Y-90178747D01*
X125934103Y-90026074D01*
X126030486Y-89889748D01*
X126113324Y-89773246D01*
X126180150Y-89680046D01*
X126228497Y-89613623D01*
X126255898Y-89577456D01*
X126259654Y-89573038D01*
X126293460Y-89544389D01*
X126334608Y-89531232D01*
X126398226Y-89529624D01*
X126422096Y-89530705D01*
X126489557Y-89536162D01*
X126524587Y-89546180D01*
X126537089Y-89565065D01*
X126537941Y-89581081D01*
X126525834Y-89606579D01*
X126491880Y-89662554D01*
X126438839Y-89745032D01*
X126369468Y-89850040D01*
X126286528Y-89973606D01*
X126192775Y-90111756D01*
X126090970Y-90260519D01*
X125983870Y-90415920D01*
X125874235Y-90573989D01*
X125764822Y-90730751D01*
X125658391Y-90882233D01*
X125557700Y-91024464D01*
X125465508Y-91153471D01*
X125384574Y-91265280D01*
X125317656Y-91355919D01*
X125267513Y-91421415D01*
X125236903Y-91457795D01*
X125231119Y-91463054D01*
X125179605Y-91483116D01*
X125104088Y-91493914D01*
X125074040Y-91494834D01*
X125074040Y-91494834D01*
G36*
X125886595Y-91492199D02*
X125810003Y-91490412D01*
X125809728Y-91490400D01*
X125729611Y-91484093D01*
X125684285Y-91472762D01*
X125666317Y-91454411D01*
X125665661Y-91451719D01*
X125676243Y-91428535D01*
X125708946Y-91374105D01*
X125761524Y-91291802D01*
X125831731Y-91185000D01*
X125917322Y-91057070D01*
X126016053Y-90911387D01*
X126125678Y-90751323D01*
X126243952Y-90580250D01*
X126285592Y-90520386D01*
X126407969Y-90345256D01*
X126524477Y-90179565D01*
X126632622Y-90026790D01*
X126729907Y-89890408D01*
X126813839Y-89773895D01*
X126881922Y-89680728D01*
X126931661Y-89614383D01*
X126960562Y-89578338D01*
X126964789Y-89573959D01*
X127006737Y-89545110D01*
X127059422Y-89530573D01*
X127137930Y-89526347D01*
X127144345Y-89526334D01*
X127228933Y-89531688D01*
X127275645Y-89549559D01*
X127287784Y-89582654D01*
X127270710Y-89629906D01*
X127250967Y-89661414D01*
X127209809Y-89723029D01*
X127150146Y-89810602D01*
X127074887Y-89919985D01*
X126986942Y-90047028D01*
X126889220Y-90187584D01*
X126784630Y-90337504D01*
X126676082Y-90492638D01*
X126566486Y-90648839D01*
X126458750Y-90801958D01*
X126355785Y-90947845D01*
X126260499Y-91082353D01*
X126175802Y-91201334D01*
X126104604Y-91300637D01*
X126049813Y-91376115D01*
X126014339Y-91423619D01*
X126003063Y-91437483D01*
X125969174Y-91469553D01*
X125935002Y-91486519D01*
X125886595Y-91492199D01*
X125886595Y-91492199D01*
X125886595Y-91492199D01*
G37*
X125886595Y-91492199D02*
X125810003Y-91490412D01*
X125809728Y-91490400D01*
X125729611Y-91484093D01*
X125684285Y-91472762D01*
X125666317Y-91454411D01*
X125665661Y-91451719D01*
X125676243Y-91428535D01*
X125708946Y-91374105D01*
X125761524Y-91291802D01*
X125831731Y-91185000D01*
X125917322Y-91057070D01*
X126016053Y-90911387D01*
X126125678Y-90751323D01*
X126243952Y-90580250D01*
X126285592Y-90520386D01*
X126407969Y-90345256D01*
X126524477Y-90179565D01*
X126632622Y-90026790D01*
X126729907Y-89890408D01*
X126813839Y-89773895D01*
X126881922Y-89680728D01*
X126931661Y-89614383D01*
X126960562Y-89578338D01*
X126964789Y-89573959D01*
X127006737Y-89545110D01*
X127059422Y-89530573D01*
X127137930Y-89526347D01*
X127144345Y-89526334D01*
X127228933Y-89531688D01*
X127275645Y-89549559D01*
X127287784Y-89582654D01*
X127270710Y-89629906D01*
X127250967Y-89661414D01*
X127209809Y-89723029D01*
X127150146Y-89810602D01*
X127074887Y-89919985D01*
X126986942Y-90047028D01*
X126889220Y-90187584D01*
X126784630Y-90337504D01*
X126676082Y-90492638D01*
X126566486Y-90648839D01*
X126458750Y-90801958D01*
X126355785Y-90947845D01*
X126260499Y-91082353D01*
X126175802Y-91201334D01*
X126104604Y-91300637D01*
X126049813Y-91376115D01*
X126014339Y-91423619D01*
X126003063Y-91437483D01*
X125969174Y-91469553D01*
X125935002Y-91486519D01*
X125886595Y-91492199D01*
X125886595Y-91492199D01*
G36*
X126636996Y-91492455D02*
X126568555Y-91490416D01*
X126478083Y-91484431D01*
X126415302Y-91474470D01*
X126387202Y-91461685D01*
X126386609Y-91460424D01*
X126394220Y-91433054D01*
X126421377Y-91381077D01*
X126462827Y-91314195D01*
X126478345Y-91291091D01*
X126620794Y-91083644D01*
X126763283Y-90877312D01*
X126903514Y-90675343D01*
X127039189Y-90480983D01*
X127168012Y-90297481D01*
X127287684Y-90128083D01*
X127395909Y-89976037D01*
X127490388Y-89844590D01*
X127568825Y-89736990D01*
X127628922Y-89656484D01*
X127668381Y-89606320D01*
X127678204Y-89595125D01*
X127713506Y-89560428D01*
X127746066Y-89539927D01*
X127788364Y-89529898D01*
X127852876Y-89526615D01*
X127908652Y-89526334D01*
X127991460Y-89527070D01*
X128040615Y-89530955D01*
X128064795Y-89540499D01*
X128072675Y-89558213D01*
X128073188Y-89573959D01*
X128061357Y-89598170D01*
X128027892Y-89653016D01*
X127975529Y-89734510D01*
X127907000Y-89838671D01*
X127825041Y-89961514D01*
X127732386Y-90099055D01*
X127631769Y-90247312D01*
X127525925Y-90402301D01*
X127417587Y-90560037D01*
X127309491Y-90716538D01*
X127204370Y-90867820D01*
X127104958Y-91009899D01*
X127013992Y-91138791D01*
X126934203Y-91250514D01*
X126868328Y-91341083D01*
X126819100Y-91406515D01*
X126794051Y-91437500D01*
X126766391Y-91466549D01*
X126738457Y-91483641D01*
X126699057Y-91491400D01*
X126636996Y-91492455D01*
X126636996Y-91492455D01*
X126636996Y-91492455D01*
G37*
X126636996Y-91492455D02*
X126568555Y-91490416D01*
X126478083Y-91484431D01*
X126415302Y-91474470D01*
X126387202Y-91461685D01*
X126386609Y-91460424D01*
X126394220Y-91433054D01*
X126421377Y-91381077D01*
X126462827Y-91314195D01*
X126478345Y-91291091D01*
X126620794Y-91083644D01*
X126763283Y-90877312D01*
X126903514Y-90675343D01*
X127039189Y-90480983D01*
X127168012Y-90297481D01*
X127287684Y-90128083D01*
X127395909Y-89976037D01*
X127490388Y-89844590D01*
X127568825Y-89736990D01*
X127628922Y-89656484D01*
X127668381Y-89606320D01*
X127678204Y-89595125D01*
X127713506Y-89560428D01*
X127746066Y-89539927D01*
X127788364Y-89529898D01*
X127852876Y-89526615D01*
X127908652Y-89526334D01*
X127991460Y-89527070D01*
X128040615Y-89530955D01*
X128064795Y-89540499D01*
X128072675Y-89558213D01*
X128073188Y-89573959D01*
X128061357Y-89598170D01*
X128027892Y-89653016D01*
X127975529Y-89734510D01*
X127907000Y-89838671D01*
X127825041Y-89961514D01*
X127732386Y-90099055D01*
X127631769Y-90247312D01*
X127525925Y-90402301D01*
X127417587Y-90560037D01*
X127309491Y-90716538D01*
X127204370Y-90867820D01*
X127104958Y-91009899D01*
X127013992Y-91138791D01*
X126934203Y-91250514D01*
X126868328Y-91341083D01*
X126819100Y-91406515D01*
X126794051Y-91437500D01*
X126766391Y-91466549D01*
X126738457Y-91483641D01*
X126699057Y-91491400D01*
X126636996Y-91492455D01*
X126636996Y-91492455D01*
G36*
X134512126Y-91494954D02*
X130864355Y-91489602D01*
X130403920Y-91488922D01*
X129983955Y-91488277D01*
X129602594Y-91487643D01*
X129257974Y-91486995D01*
X128948230Y-91486311D01*
X128671498Y-91485564D01*
X128425913Y-91484730D01*
X128209612Y-91483786D01*
X128020729Y-91482707D01*
X127857402Y-91481469D01*
X127717765Y-91480047D01*
X127599953Y-91478417D01*
X127502104Y-91476555D01*
X127422352Y-91474436D01*
X127358834Y-91472036D01*
X127309685Y-91469330D01*
X127273040Y-91466295D01*
X127247035Y-91462906D01*
X127229807Y-91459138D01*
X127219491Y-91454968D01*
X127214222Y-91450371D01*
X127212136Y-91445322D01*
X127211620Y-91441917D01*
X127222619Y-91414543D01*
X127257318Y-91354647D01*
X127314561Y-91263974D01*
X127393193Y-91144271D01*
X127409537Y-91119973D01*
X133704167Y-91119973D01*
X133704167Y-90979320D01*
X133704167Y-90838667D01*
X133631461Y-90838667D01*
X133534217Y-90826661D01*
X133462218Y-90792835D01*
X133430106Y-90756067D01*
X133411154Y-90696567D01*
X133398639Y-90610079D01*
X133393206Y-90511547D01*
X133395505Y-90415919D01*
X133406180Y-90338141D01*
X133411237Y-90320153D01*
X133431516Y-90274589D01*
X133461319Y-90239984D01*
X133506146Y-90214872D01*
X133571499Y-90197789D01*
X133662880Y-90187270D01*
X133785790Y-90181851D01*
X133937310Y-90180090D01*
X134100152Y-90181932D01*
X134225172Y-90189192D01*
X134316636Y-90202742D01*
X134378812Y-90223458D01*
X134415966Y-90252214D01*
X134430410Y-90281110D01*
X134451950Y-90373276D01*
X134460393Y-90454856D01*
X134457374Y-90547676D01*
X134453584Y-90590214D01*
X134437497Y-90694190D01*
X134410432Y-90762451D01*
X134367560Y-90801168D01*
X134304050Y-90816510D01*
X134275667Y-90817500D01*
X134191000Y-90817500D01*
X134191000Y-90957981D01*
X134191000Y-91098463D01*
X134324248Y-91087767D01*
X134442159Y-91070581D01*
X134532926Y-91037310D01*
X134599585Y-90983476D01*
X134645171Y-90904605D01*
X134672718Y-90796219D01*
X134685261Y-90653842D01*
X134686855Y-90552917D01*
X134681019Y-90375624D01*
X134663061Y-90234684D01*
X134630910Y-90125330D01*
X134582497Y-90042793D01*
X134515751Y-89982303D01*
X134428601Y-89939092D01*
X134418837Y-89935591D01*
X134329766Y-89914973D01*
X134209513Y-89901861D01*
X134067732Y-89895889D01*
X133914082Y-89896692D01*
X133758220Y-89903904D01*
X133609802Y-89917159D01*
X133478486Y-89936091D01*
X133373929Y-89960337D01*
X133329010Y-89976845D01*
X133272119Y-90022365D01*
X133221679Y-90098483D01*
X133184794Y-90193467D01*
X133176453Y-90228733D01*
X133163052Y-90333871D01*
X133157175Y-90463168D01*
X133158807Y-90599129D01*
X133167932Y-90724259D01*
X133176972Y-90786727D01*
X133194604Y-90865280D01*
X133215469Y-90934836D01*
X133228956Y-90967677D01*
X133284066Y-91028915D01*
X133376693Y-91073981D01*
X133504897Y-91102049D01*
X133556610Y-91107603D01*
X133704167Y-91119973D01*
X127409537Y-91119973D01*
X127410783Y-91118120D01*
X133132667Y-91118120D01*
X133132667Y-90978393D01*
X133132667Y-90838667D01*
X132619375Y-90837745D01*
X132425996Y-90836650D01*
X132270419Y-90833839D01*
X132148132Y-90828872D01*
X132054622Y-90821308D01*
X131985377Y-90810709D01*
X131935886Y-90796632D01*
X131901636Y-90778640D01*
X131887053Y-90766312D01*
X131869257Y-90726703D01*
X131856971Y-90656521D01*
X131850213Y-90567143D01*
X131849004Y-90469947D01*
X131853362Y-90376308D01*
X131863308Y-90297604D01*
X131878859Y-90245210D01*
X131886147Y-90234661D01*
X131913758Y-90213572D01*
X131952899Y-90196843D01*
X132008212Y-90184008D01*
X132084342Y-90174597D01*
X132185931Y-90168143D01*
X132317624Y-90164179D01*
X132484064Y-90162236D01*
X132608792Y-90161838D01*
X133132667Y-90161334D01*
X133132667Y-90022073D01*
X133132667Y-89882813D01*
X132513542Y-89890176D01*
X132327543Y-89892742D01*
X132179067Y-89895721D01*
X132063305Y-89899398D01*
X131975447Y-89904059D01*
X131910683Y-89909989D01*
X131864203Y-89917473D01*
X131831198Y-89926795D01*
X131820333Y-89931265D01*
X131733828Y-89984924D01*
X131675442Y-90058794D01*
X131638577Y-90156029D01*
X131623921Y-90239105D01*
X131614662Y-90350571D01*
X131610927Y-90476814D01*
X131612845Y-90604219D01*
X131620544Y-90719171D01*
X131632492Y-90800583D01*
X131666588Y-90912066D01*
X131717697Y-90991262D01*
X131792221Y-91046869D01*
X131825352Y-91062507D01*
X131856978Y-91073915D01*
X131895463Y-91083059D01*
X131946013Y-91090287D01*
X132013831Y-91095950D01*
X132104121Y-91100396D01*
X132222087Y-91103974D01*
X132372933Y-91107034D01*
X132524125Y-91109391D01*
X133132667Y-91118120D01*
X127410783Y-91118120D01*
X127413666Y-91113834D01*
X129788333Y-91113834D01*
X129904750Y-91113834D01*
X130021167Y-91113834D01*
X130021167Y-91102885D01*
X130512006Y-91102885D01*
X130627817Y-91096344D01*
X130727283Y-91076036D01*
X130799314Y-91043535D01*
X130810812Y-91034519D01*
X130851877Y-90985633D01*
X130883417Y-90917233D01*
X130907544Y-90822492D01*
X130926371Y-90694587D01*
X130931825Y-90643502D01*
X130947088Y-90493023D01*
X130960581Y-90379471D01*
X130974716Y-90297647D01*
X130991909Y-90242354D01*
X131014572Y-90208391D01*
X131045122Y-90190560D01*
X131085971Y-90183663D01*
X131139534Y-90182501D01*
X131145904Y-90182500D01*
X131235298Y-90187897D01*
X131292888Y-90208729D01*
X131328348Y-90251961D01*
X131351349Y-90324556D01*
X131352866Y-90331490D01*
X131374243Y-90479522D01*
X131370514Y-90602417D01*
X131342646Y-90697509D01*
X131291606Y-90762129D01*
X131218360Y-90793613D01*
X131184338Y-90796334D01*
X131162124Y-90800799D01*
X131149639Y-90820344D01*
X131144169Y-90864191D01*
X131143000Y-90936878D01*
X131143000Y-91077423D01*
X131263463Y-91064990D01*
X131374313Y-91042122D01*
X131455970Y-90995978D01*
X131517951Y-90920424D01*
X131534583Y-90890218D01*
X131551674Y-90851303D01*
X131563526Y-90807719D01*
X131571051Y-90751062D01*
X131575161Y-90672928D01*
X131576767Y-90564914D01*
X131576917Y-90500000D01*
X131574556Y-90340230D01*
X131566250Y-90216648D01*
X131550160Y-90123307D01*
X131524451Y-90054261D01*
X131487285Y-90003565D01*
X131436824Y-89965271D01*
X131406769Y-89949273D01*
X131317108Y-89920734D01*
X131203787Y-89905378D01*
X131083520Y-89903655D01*
X130973020Y-89916016D01*
X130904309Y-89935745D01*
X130852161Y-89966460D01*
X130810315Y-90013501D01*
X130777187Y-90081701D01*
X130751191Y-90175894D01*
X130730742Y-90300911D01*
X130714254Y-90461585D01*
X130708788Y-90531750D01*
X130699287Y-90622823D01*
X130685868Y-90702133D01*
X130670884Y-90756910D01*
X130665110Y-90768886D01*
X130616453Y-90809907D01*
X130545136Y-90830261D01*
X130464027Y-90831053D01*
X130385994Y-90813384D01*
X130323906Y-90778357D01*
X130293763Y-90737059D01*
X130285135Y-90691968D01*
X130279581Y-90616739D01*
X130277758Y-90523499D01*
X130278818Y-90461052D01*
X130282762Y-90361150D01*
X130288357Y-90294450D01*
X130297606Y-90251825D01*
X130312513Y-90224144D01*
X130335081Y-90202278D01*
X130335720Y-90201760D01*
X130392847Y-90172957D01*
X130457428Y-90161334D01*
X130529167Y-90161334D01*
X130529167Y-90021311D01*
X130529167Y-89881289D01*
X130407458Y-89896194D01*
X130273187Y-89923614D01*
X130176983Y-89968480D01*
X130118204Y-90031099D01*
X130115453Y-90036198D01*
X130084504Y-90122782D01*
X130062034Y-90240411D01*
X130048835Y-90378498D01*
X130045701Y-90526457D01*
X130053427Y-90673704D01*
X130062129Y-90747369D01*
X130088077Y-90874021D01*
X130127674Y-90965506D01*
X130187083Y-91028323D01*
X130272468Y-91068971D01*
X130389993Y-91093951D01*
X130390941Y-91094086D01*
X130512006Y-91102885D01*
X130021167Y-91102885D01*
X130021167Y-90500000D01*
X130021167Y-89886167D01*
X129269750Y-89886167D01*
X128518333Y-89886167D01*
X128518333Y-90023750D01*
X128518333Y-90161334D01*
X128825250Y-90161334D01*
X129132167Y-90161334D01*
X129132167Y-90574084D01*
X129132167Y-90986834D01*
X129248583Y-90986834D01*
X129365000Y-90986834D01*
X129365000Y-90574084D01*
X129365000Y-90161334D01*
X129576667Y-90161334D01*
X129788333Y-90161334D01*
X129788333Y-90637584D01*
X129788333Y-91113834D01*
X127413666Y-91113834D01*
X127492058Y-90997285D01*
X127610002Y-90824761D01*
X127745868Y-90628447D01*
X127820684Y-90521167D01*
X127942163Y-90347757D01*
X128057794Y-90183415D01*
X128165031Y-90031709D01*
X128261330Y-89896207D01*
X128344145Y-89780475D01*
X128410932Y-89688080D01*
X128459145Y-89622591D01*
X128486240Y-89587574D01*
X128488900Y-89584542D01*
X128543089Y-89526334D01*
X131515915Y-89526334D01*
X134488741Y-89526334D01*
X134599162Y-89581221D01*
X134641945Y-89603573D01*
X134716999Y-89643974D01*
X134819626Y-89699850D01*
X134945129Y-89768624D01*
X135088808Y-89847720D01*
X135245968Y-89934561D01*
X135411909Y-90026572D01*
X135456589Y-90051401D01*
X135645957Y-90156967D01*
X135801247Y-90244297D01*
X135925595Y-90315331D01*
X136022138Y-90372012D01*
X136094014Y-90416279D01*
X136144359Y-90450073D01*
X136176311Y-90475337D01*
X136193006Y-90494010D01*
X136197580Y-90508034D01*
X136197423Y-90509804D01*
X136185613Y-90527764D01*
X136152329Y-90555897D01*
X136095027Y-90595809D01*
X136011162Y-90649108D01*
X135898191Y-90717398D01*
X135753570Y-90802288D01*
X135574755Y-90905383D01*
X135535083Y-90928088D01*
X135374026Y-91019916D01*
X135216515Y-91109242D01*
X135068337Y-91192818D01*
X134935279Y-91267398D01*
X134823128Y-91329735D01*
X134737671Y-91376582D01*
X134695521Y-91399107D01*
X134512126Y-91494954D01*
X134512126Y-91494954D01*
X134512126Y-91494954D01*
G37*
X134512126Y-91494954D02*
X130864355Y-91489602D01*
X130403920Y-91488922D01*
X129983955Y-91488277D01*
X129602594Y-91487643D01*
X129257974Y-91486995D01*
X128948230Y-91486311D01*
X128671498Y-91485564D01*
X128425913Y-91484730D01*
X128209612Y-91483786D01*
X128020729Y-91482707D01*
X127857402Y-91481469D01*
X127717765Y-91480047D01*
X127599953Y-91478417D01*
X127502104Y-91476555D01*
X127422352Y-91474436D01*
X127358834Y-91472036D01*
X127309685Y-91469330D01*
X127273040Y-91466295D01*
X127247035Y-91462906D01*
X127229807Y-91459138D01*
X127219491Y-91454968D01*
X127214222Y-91450371D01*
X127212136Y-91445322D01*
X127211620Y-91441917D01*
X127222619Y-91414543D01*
X127257318Y-91354647D01*
X127314561Y-91263974D01*
X127393193Y-91144271D01*
X127409537Y-91119973D01*
X133704167Y-91119973D01*
X133704167Y-90979320D01*
X133704167Y-90838667D01*
X133631461Y-90838667D01*
X133534217Y-90826661D01*
X133462218Y-90792835D01*
X133430106Y-90756067D01*
X133411154Y-90696567D01*
X133398639Y-90610079D01*
X133393206Y-90511547D01*
X133395505Y-90415919D01*
X133406180Y-90338141D01*
X133411237Y-90320153D01*
X133431516Y-90274589D01*
X133461319Y-90239984D01*
X133506146Y-90214872D01*
X133571499Y-90197789D01*
X133662880Y-90187270D01*
X133785790Y-90181851D01*
X133937310Y-90180090D01*
X134100152Y-90181932D01*
X134225172Y-90189192D01*
X134316636Y-90202742D01*
X134378812Y-90223458D01*
X134415966Y-90252214D01*
X134430410Y-90281110D01*
X134451950Y-90373276D01*
X134460393Y-90454856D01*
X134457374Y-90547676D01*
X134453584Y-90590214D01*
X134437497Y-90694190D01*
X134410432Y-90762451D01*
X134367560Y-90801168D01*
X134304050Y-90816510D01*
X134275667Y-90817500D01*
X134191000Y-90817500D01*
X134191000Y-90957981D01*
X134191000Y-91098463D01*
X134324248Y-91087767D01*
X134442159Y-91070581D01*
X134532926Y-91037310D01*
X134599585Y-90983476D01*
X134645171Y-90904605D01*
X134672718Y-90796219D01*
X134685261Y-90653842D01*
X134686855Y-90552917D01*
X134681019Y-90375624D01*
X134663061Y-90234684D01*
X134630910Y-90125330D01*
X134582497Y-90042793D01*
X134515751Y-89982303D01*
X134428601Y-89939092D01*
X134418837Y-89935591D01*
X134329766Y-89914973D01*
X134209513Y-89901861D01*
X134067732Y-89895889D01*
X133914082Y-89896692D01*
X133758220Y-89903904D01*
X133609802Y-89917159D01*
X133478486Y-89936091D01*
X133373929Y-89960337D01*
X133329010Y-89976845D01*
X133272119Y-90022365D01*
X133221679Y-90098483D01*
X133184794Y-90193467D01*
X133176453Y-90228733D01*
X133163052Y-90333871D01*
X133157175Y-90463168D01*
X133158807Y-90599129D01*
X133167932Y-90724259D01*
X133176972Y-90786727D01*
X133194604Y-90865280D01*
X133215469Y-90934836D01*
X133228956Y-90967677D01*
X133284066Y-91028915D01*
X133376693Y-91073981D01*
X133504897Y-91102049D01*
X133556610Y-91107603D01*
X133704167Y-91119973D01*
X127409537Y-91119973D01*
X127410783Y-91118120D01*
X133132667Y-91118120D01*
X133132667Y-90978393D01*
X133132667Y-90838667D01*
X132619375Y-90837745D01*
X132425996Y-90836650D01*
X132270419Y-90833839D01*
X132148132Y-90828872D01*
X132054622Y-90821308D01*
X131985377Y-90810709D01*
X131935886Y-90796632D01*
X131901636Y-90778640D01*
X131887053Y-90766312D01*
X131869257Y-90726703D01*
X131856971Y-90656521D01*
X131850213Y-90567143D01*
X131849004Y-90469947D01*
X131853362Y-90376308D01*
X131863308Y-90297604D01*
X131878859Y-90245210D01*
X131886147Y-90234661D01*
X131913758Y-90213572D01*
X131952899Y-90196843D01*
X132008212Y-90184008D01*
X132084342Y-90174597D01*
X132185931Y-90168143D01*
X132317624Y-90164179D01*
X132484064Y-90162236D01*
X132608792Y-90161838D01*
X133132667Y-90161334D01*
X133132667Y-90022073D01*
X133132667Y-89882813D01*
X132513542Y-89890176D01*
X132327543Y-89892742D01*
X132179067Y-89895721D01*
X132063305Y-89899398D01*
X131975447Y-89904059D01*
X131910683Y-89909989D01*
X131864203Y-89917473D01*
X131831198Y-89926795D01*
X131820333Y-89931265D01*
X131733828Y-89984924D01*
X131675442Y-90058794D01*
X131638577Y-90156029D01*
X131623921Y-90239105D01*
X131614662Y-90350571D01*
X131610927Y-90476814D01*
X131612845Y-90604219D01*
X131620544Y-90719171D01*
X131632492Y-90800583D01*
X131666588Y-90912066D01*
X131717697Y-90991262D01*
X131792221Y-91046869D01*
X131825352Y-91062507D01*
X131856978Y-91073915D01*
X131895463Y-91083059D01*
X131946013Y-91090287D01*
X132013831Y-91095950D01*
X132104121Y-91100396D01*
X132222087Y-91103974D01*
X132372933Y-91107034D01*
X132524125Y-91109391D01*
X133132667Y-91118120D01*
X127410783Y-91118120D01*
X127413666Y-91113834D01*
X129788333Y-91113834D01*
X129904750Y-91113834D01*
X130021167Y-91113834D01*
X130021167Y-91102885D01*
X130512006Y-91102885D01*
X130627817Y-91096344D01*
X130727283Y-91076036D01*
X130799314Y-91043535D01*
X130810812Y-91034519D01*
X130851877Y-90985633D01*
X130883417Y-90917233D01*
X130907544Y-90822492D01*
X130926371Y-90694587D01*
X130931825Y-90643502D01*
X130947088Y-90493023D01*
X130960581Y-90379471D01*
X130974716Y-90297647D01*
X130991909Y-90242354D01*
X131014572Y-90208391D01*
X131045122Y-90190560D01*
X131085971Y-90183663D01*
X131139534Y-90182501D01*
X131145904Y-90182500D01*
X131235298Y-90187897D01*
X131292888Y-90208729D01*
X131328348Y-90251961D01*
X131351349Y-90324556D01*
X131352866Y-90331490D01*
X131374243Y-90479522D01*
X131370514Y-90602417D01*
X131342646Y-90697509D01*
X131291606Y-90762129D01*
X131218360Y-90793613D01*
X131184338Y-90796334D01*
X131162124Y-90800799D01*
X131149639Y-90820344D01*
X131144169Y-90864191D01*
X131143000Y-90936878D01*
X131143000Y-91077423D01*
X131263463Y-91064990D01*
X131374313Y-91042122D01*
X131455970Y-90995978D01*
X131517951Y-90920424D01*
X131534583Y-90890218D01*
X131551674Y-90851303D01*
X131563526Y-90807719D01*
X131571051Y-90751062D01*
X131575161Y-90672928D01*
X131576767Y-90564914D01*
X131576917Y-90500000D01*
X131574556Y-90340230D01*
X131566250Y-90216648D01*
X131550160Y-90123307D01*
X131524451Y-90054261D01*
X131487285Y-90003565D01*
X131436824Y-89965271D01*
X131406769Y-89949273D01*
X131317108Y-89920734D01*
X131203787Y-89905378D01*
X131083520Y-89903655D01*
X130973020Y-89916016D01*
X130904309Y-89935745D01*
X130852161Y-89966460D01*
X130810315Y-90013501D01*
X130777187Y-90081701D01*
X130751191Y-90175894D01*
X130730742Y-90300911D01*
X130714254Y-90461585D01*
X130708788Y-90531750D01*
X130699287Y-90622823D01*
X130685868Y-90702133D01*
X130670884Y-90756910D01*
X130665110Y-90768886D01*
X130616453Y-90809907D01*
X130545136Y-90830261D01*
X130464027Y-90831053D01*
X130385994Y-90813384D01*
X130323906Y-90778357D01*
X130293763Y-90737059D01*
X130285135Y-90691968D01*
X130279581Y-90616739D01*
X130277758Y-90523499D01*
X130278818Y-90461052D01*
X130282762Y-90361150D01*
X130288357Y-90294450D01*
X130297606Y-90251825D01*
X130312513Y-90224144D01*
X130335081Y-90202278D01*
X130335720Y-90201760D01*
X130392847Y-90172957D01*
X130457428Y-90161334D01*
X130529167Y-90161334D01*
X130529167Y-90021311D01*
X130529167Y-89881289D01*
X130407458Y-89896194D01*
X130273187Y-89923614D01*
X130176983Y-89968480D01*
X130118204Y-90031099D01*
X130115453Y-90036198D01*
X130084504Y-90122782D01*
X130062034Y-90240411D01*
X130048835Y-90378498D01*
X130045701Y-90526457D01*
X130053427Y-90673704D01*
X130062129Y-90747369D01*
X130088077Y-90874021D01*
X130127674Y-90965506D01*
X130187083Y-91028323D01*
X130272468Y-91068971D01*
X130389993Y-91093951D01*
X130390941Y-91094086D01*
X130512006Y-91102885D01*
X130021167Y-91102885D01*
X130021167Y-90500000D01*
X130021167Y-89886167D01*
X129269750Y-89886167D01*
X128518333Y-89886167D01*
X128518333Y-90023750D01*
X128518333Y-90161334D01*
X128825250Y-90161334D01*
X129132167Y-90161334D01*
X129132167Y-90574084D01*
X129132167Y-90986834D01*
X129248583Y-90986834D01*
X129365000Y-90986834D01*
X129365000Y-90574084D01*
X129365000Y-90161334D01*
X129576667Y-90161334D01*
X129788333Y-90161334D01*
X129788333Y-90637584D01*
X129788333Y-91113834D01*
X127413666Y-91113834D01*
X127492058Y-90997285D01*
X127610002Y-90824761D01*
X127745868Y-90628447D01*
X127820684Y-90521167D01*
X127942163Y-90347757D01*
X128057794Y-90183415D01*
X128165031Y-90031709D01*
X128261330Y-89896207D01*
X128344145Y-89780475D01*
X128410932Y-89688080D01*
X128459145Y-89622591D01*
X128486240Y-89587574D01*
X128488900Y-89584542D01*
X128543089Y-89526334D01*
X131515915Y-89526334D01*
X134488741Y-89526334D01*
X134599162Y-89581221D01*
X134641945Y-89603573D01*
X134716999Y-89643974D01*
X134819626Y-89699850D01*
X134945129Y-89768624D01*
X135088808Y-89847720D01*
X135245968Y-89934561D01*
X135411909Y-90026572D01*
X135456589Y-90051401D01*
X135645957Y-90156967D01*
X135801247Y-90244297D01*
X135925595Y-90315331D01*
X136022138Y-90372012D01*
X136094014Y-90416279D01*
X136144359Y-90450073D01*
X136176311Y-90475337D01*
X136193006Y-90494010D01*
X136197580Y-90508034D01*
X136197423Y-90509804D01*
X136185613Y-90527764D01*
X136152329Y-90555897D01*
X136095027Y-90595809D01*
X136011162Y-90649108D01*
X135898191Y-90717398D01*
X135753570Y-90802288D01*
X135574755Y-90905383D01*
X135535083Y-90928088D01*
X135374026Y-91019916D01*
X135216515Y-91109242D01*
X135068337Y-91192818D01*
X134935279Y-91267398D01*
X134823128Y-91329735D01*
X134737671Y-91376582D01*
X134695521Y-91399107D01*
X134512126Y-91494954D01*
X134512126Y-91494954D01*
M02*
