M48
;DRILL file {KiCad 0.201505031001+5637~23~ubuntu14.04.1-product} date Mon 25 May 2015 03:05:38 BST
;FORMAT={-:-/ absolute / inch / decimal}
FMAT,2
INCH,TZ
T1C0.008
T2C0.016
T3C0.024
T4C0.028
%
G90
G05
M72
T1
X5.4528Y-3.248
X5.4528Y-3.2717
X5.4528Y-3.2953
X5.4528Y-3.3189
X5.4528Y-3.3425
X5.4528Y-3.3661
X5.4724Y-3.248
X5.4724Y-3.2717
X5.4724Y-3.2953
X5.4724Y-3.3189
X5.4724Y-3.3425
X5.4724Y-3.3661
X5.4724Y-3.3898
X5.4724Y-3.4134
X5.4724Y-3.437
X5.4921Y-3.248
X5.4921Y-3.2717
X5.4921Y-3.2953
X5.4921Y-3.3189
X5.4921Y-3.3425
X5.4921Y-3.3661
T2
X5.4134Y-3.2283
X5.4134Y-3.2677
X5.4134Y-3.3071
X5.4134Y-3.3465
X5.4528Y-3.2283
X5.4921Y-3.2283
X5.5315Y-3.2283
X5.5315Y-3.2677
X5.5315Y-3.3071
X5.5315Y-3.3465
T3
X4.3307Y-2.7559
X4.3307Y-2.9528
X4.3307Y-3.1496
X4.3307Y-3.3071
X4.3307Y-3.5433
X4.3307Y-3.7402
X4.3307Y-3.937
X4.3307Y-4.1339
X4.4094Y-3.3071
X4.4094Y-3.5433
X4.4882Y-3.3071
X4.4882Y-3.5433
X4.5276Y-2.7559
X4.5276Y-2.9528
X4.5276Y-3.1496
X4.5276Y-3.7402
X4.5276Y-3.937
X4.5276Y-4.1339
X4.5669Y-3.3071
X4.5669Y-3.5433
X4.6457Y-3.3071
X4.6457Y-3.5433
X4.7244Y-2.7559
X4.7244Y-3.1496
X4.7244Y-3.3071
X4.7244Y-3.5433
X4.7244Y-3.7402
X4.7244Y-3.937
X4.7244Y-4.1339
X4.8031Y-3.3071
X4.8031Y-3.5433
X4.8819Y-3.3071
X4.8819Y-3.5433
X4.9213Y-2.7559
X4.9213Y-3.1496
X4.9213Y-3.7402
X4.9213Y-3.937
X4.9213Y-4.1339
X4.9606Y-3.3071
X4.9606Y-3.5433
X5.0394Y-3.3071
X5.0394Y-3.5433
X5.1181Y-2.7559
X5.1181Y-3.1496
X5.1181Y-3.3071
X5.1181Y-3.5433
X5.1181Y-3.7402
X5.1181Y-3.937
X5.1181Y-4.1339
X5.1969Y-3.3071
X5.1969Y-3.5433
X5.2756Y-3.3071
X5.2756Y-3.5433
X5.315Y-2.7559
X5.315Y-3.1496
X5.315Y-3.7402
X5.315Y-3.937
X5.315Y-4.1339
X5.3543Y-3.3071
X5.3543Y-3.5433
X5.4331Y-3.5433
X5.5118Y-2.7559
X5.5118Y-3.5433
X5.5118Y-3.7402
X5.5118Y-3.937
X5.5118Y-4.1339
X5.5906Y-3.5433
X5.6693Y-3.3071
X5.6693Y-3.5433
X5.7087Y-2.7559
X5.7087Y-2.9528
X5.7087Y-3.1496
X5.7087Y-3.7402
X5.7087Y-3.937
X5.7087Y-4.1339
X5.748Y-3.3071
X5.748Y-3.5433
X5.8268Y-3.3071
X5.8268Y-3.5433
X5.9055Y-2.7559
X5.9055Y-2.9528
X5.9055Y-3.1496
X5.9055Y-3.3071
X5.9055Y-3.5433
X5.9055Y-3.7402
X5.9055Y-3.937
X5.9055Y-4.1339
X5.9843Y-3.3071
X5.9843Y-3.5433
X6.063Y-3.3071
X6.063Y-3.5433
X6.1024Y-2.7559
X6.1024Y-2.9528
X6.1024Y-3.1496
X6.1024Y-3.7402
X6.1024Y-3.937
X6.1024Y-4.1339
X6.1417Y-3.3071
X6.1417Y-3.5433
X6.2205Y-3.3071
X6.2205Y-3.5433
X6.2992Y-2.7559
X6.2992Y-2.9528
X6.2992Y-3.1496
X6.2992Y-3.3071
X6.2992Y-3.5433
X6.2992Y-3.7402
X6.2992Y-3.937
X6.2992Y-4.1339
X6.378Y-3.3071
X6.378Y-3.5433
X6.4567Y-3.3071
X6.4567Y-3.5433
X6.4961Y-2.7559
X6.4961Y-2.9528
X6.4961Y-3.1496
X6.4961Y-3.7402
X6.4961Y-3.937
X6.4961Y-4.1339
X6.5354Y-3.3071
X6.5354Y-3.5433
X6.6142Y-3.3071
X6.6142Y-3.5433
T4
X4.626Y-2.9331
X4.626Y-3.0118
T0
M30
