G04 #@! TF.FileFunction,Legend,Top*
%FSLAX46Y46*%
G04 Gerber Fmt 4.6, Leading zero omitted, Abs format (unit mm)*
G04 Created by KiCad (PCBNEW 0.201505031001+5637~23~ubuntu14.04.1-product) date Sun 24 May 2015 16:44:14 BST*
%MOMM*%
G01*
G04 APERTURE LIST*
%ADD10C,0.100000*%
%ADD11C,0.300000*%
%ADD12C,0.600000*%
%ADD13C,0.150000*%
%ADD14C,0.200000*%
G04 APERTURE END LIST*
D10*
D11*
X153450000Y-90538095D02*
X153697619Y-90538095D01*
X153821428Y-90600000D01*
X153945238Y-90723810D01*
X154007143Y-90971429D01*
X154007143Y-91404762D01*
X153945238Y-91652381D01*
X153821428Y-91776190D01*
X153697619Y-91838095D01*
X153450000Y-91838095D01*
X153326190Y-91776190D01*
X153202381Y-91652381D01*
X153140476Y-91404762D01*
X153140476Y-90971429D01*
X153202381Y-90723810D01*
X153326190Y-90600000D01*
X153450000Y-90538095D01*
X154564286Y-90538095D02*
X154564286Y-91590476D01*
X154626191Y-91714286D01*
X154688095Y-91776190D01*
X154811905Y-91838095D01*
X155059524Y-91838095D01*
X155183333Y-91776190D01*
X155245238Y-91714286D01*
X155307143Y-91590476D01*
X155307143Y-90538095D01*
X155740477Y-90538095D02*
X156483334Y-90538095D01*
X156111905Y-91838095D02*
X156111905Y-90538095D01*
X120819048Y-91838095D02*
X120819048Y-90538095D01*
X121438096Y-91838095D02*
X121438096Y-90538095D01*
X122180953Y-91838095D01*
X122180953Y-90538095D01*
D12*
X142000000Y-91000000D02*
X141000000Y-92000000D01*
X142000000Y-91000000D02*
X141000000Y-90000000D01*
X136000000Y-91000000D02*
X142000000Y-91000000D01*
D11*
X126414286Y-78562857D02*
X125728571Y-78562857D01*
X126071429Y-78562857D02*
X126071429Y-77362857D01*
X125957143Y-77534286D01*
X125842857Y-77648571D01*
X125728571Y-77705714D01*
X127157143Y-77362857D02*
X127271428Y-77362857D01*
X127385714Y-77420000D01*
X127442857Y-77477143D01*
X127500000Y-77591429D01*
X127557143Y-77820000D01*
X127557143Y-78105714D01*
X127500000Y-78334286D01*
X127442857Y-78448571D01*
X127385714Y-78505714D01*
X127271428Y-78562857D01*
X127157143Y-78562857D01*
X127042857Y-78505714D01*
X126985714Y-78448571D01*
X126928571Y-78334286D01*
X126871428Y-78105714D01*
X126871428Y-77820000D01*
X126928571Y-77591429D01*
X126985714Y-77477143D01*
X127042857Y-77420000D01*
X127157143Y-77362857D01*
X128071428Y-78562857D02*
X128071428Y-77762857D01*
X128071428Y-77877143D02*
X128128571Y-77820000D01*
X128242857Y-77762857D01*
X128414285Y-77762857D01*
X128528571Y-77820000D01*
X128585714Y-77934286D01*
X128585714Y-78562857D01*
X128585714Y-77934286D02*
X128642857Y-77820000D01*
X128757143Y-77762857D01*
X128928571Y-77762857D01*
X129042857Y-77820000D01*
X129100000Y-77934286D01*
X129100000Y-78562857D01*
X129557143Y-77362857D02*
X129842857Y-78562857D01*
X130071428Y-77705714D01*
X130300000Y-78562857D01*
X130585714Y-77362857D01*
X132471429Y-77762857D02*
X132471429Y-78562857D01*
X132185715Y-77305714D02*
X131900000Y-78162857D01*
X132642858Y-78162857D01*
X132985715Y-77362857D02*
X133728572Y-77362857D01*
X133328572Y-77820000D01*
X133500000Y-77820000D01*
X133614286Y-77877143D01*
X133671429Y-77934286D01*
X133728572Y-78048571D01*
X133728572Y-78334286D01*
X133671429Y-78448571D01*
X133614286Y-78505714D01*
X133500000Y-78562857D01*
X133157143Y-78562857D01*
X133042857Y-78505714D01*
X132985715Y-78448571D01*
X134757143Y-77762857D02*
X134757143Y-78562857D01*
X134471429Y-77305714D02*
X134185714Y-78162857D01*
X134928572Y-78162857D01*
X135385714Y-78562857D02*
X135385714Y-77362857D01*
X135785714Y-78220000D01*
X136185714Y-77362857D01*
X136185714Y-78562857D01*
X136757143Y-78562857D02*
X136757143Y-77362857D01*
X136757143Y-77934286D02*
X137442858Y-77934286D01*
X137442858Y-78562857D02*
X137442858Y-77362857D01*
X137900001Y-77762857D02*
X138528572Y-77762857D01*
X137900001Y-78562857D01*
X138528572Y-78562857D01*
X139900001Y-78562857D02*
X139900001Y-77762857D01*
X139900001Y-77362857D02*
X139842858Y-77420000D01*
X139900001Y-77477143D01*
X139957144Y-77420000D01*
X139900001Y-77362857D01*
X139900001Y-77477143D01*
X140471430Y-77762857D02*
X140471430Y-78562857D01*
X140471430Y-77877143D02*
X140528573Y-77820000D01*
X140642859Y-77762857D01*
X140814287Y-77762857D01*
X140928573Y-77820000D01*
X140985716Y-77934286D01*
X140985716Y-78562857D01*
X126357143Y-79342857D02*
X125785714Y-79342857D01*
X125728571Y-79914286D01*
X125785714Y-79857143D01*
X125900000Y-79800000D01*
X126185714Y-79800000D01*
X126300000Y-79857143D01*
X126357143Y-79914286D01*
X126414286Y-80028571D01*
X126414286Y-80314286D01*
X126357143Y-80428571D01*
X126300000Y-80485714D01*
X126185714Y-80542857D01*
X125900000Y-80542857D01*
X125785714Y-80485714D01*
X125728571Y-80428571D01*
X127157143Y-79342857D02*
X127271428Y-79342857D01*
X127385714Y-79400000D01*
X127442857Y-79457143D01*
X127500000Y-79571429D01*
X127557143Y-79800000D01*
X127557143Y-80085714D01*
X127500000Y-80314286D01*
X127442857Y-80428571D01*
X127385714Y-80485714D01*
X127271428Y-80542857D01*
X127157143Y-80542857D01*
X127042857Y-80485714D01*
X126985714Y-80428571D01*
X126928571Y-80314286D01*
X126871428Y-80085714D01*
X126871428Y-79800000D01*
X126928571Y-79571429D01*
X126985714Y-79457143D01*
X127042857Y-79400000D01*
X127157143Y-79342857D01*
X128300000Y-79342857D02*
X128414285Y-79342857D01*
X128528571Y-79400000D01*
X128585714Y-79457143D01*
X128642857Y-79571429D01*
X128700000Y-79800000D01*
X128700000Y-80085714D01*
X128642857Y-80314286D01*
X128585714Y-80428571D01*
X128528571Y-80485714D01*
X128414285Y-80542857D01*
X128300000Y-80542857D01*
X128185714Y-80485714D01*
X128128571Y-80428571D01*
X128071428Y-80314286D01*
X128014285Y-80085714D01*
X128014285Y-79800000D01*
X128071428Y-79571429D01*
X128128571Y-79457143D01*
X128185714Y-79400000D01*
X128300000Y-79342857D01*
X129214285Y-80542857D02*
X129214285Y-79742857D01*
X129214285Y-79857143D02*
X129271428Y-79800000D01*
X129385714Y-79742857D01*
X129557142Y-79742857D01*
X129671428Y-79800000D01*
X129728571Y-79914286D01*
X129728571Y-80542857D01*
X129728571Y-79914286D02*
X129785714Y-79800000D01*
X129900000Y-79742857D01*
X130071428Y-79742857D01*
X130185714Y-79800000D01*
X130242857Y-79914286D01*
X130242857Y-80542857D01*
X130700000Y-79342857D02*
X130985714Y-80542857D01*
X131214285Y-79685714D01*
X131442857Y-80542857D01*
X131728571Y-79342857D01*
X133271429Y-80542857D02*
X133157143Y-80485714D01*
X133100000Y-80428571D01*
X133042857Y-80314286D01*
X133042857Y-79971429D01*
X133100000Y-79857143D01*
X133157143Y-79800000D01*
X133271429Y-79742857D01*
X133442857Y-79742857D01*
X133557143Y-79800000D01*
X133614286Y-79857143D01*
X133671429Y-79971429D01*
X133671429Y-80314286D01*
X133614286Y-80428571D01*
X133557143Y-80485714D01*
X133442857Y-80542857D01*
X133271429Y-80542857D01*
X134700000Y-79742857D02*
X134700000Y-80542857D01*
X134185714Y-79742857D02*
X134185714Y-80371429D01*
X134242857Y-80485714D01*
X134357143Y-80542857D01*
X134528571Y-80542857D01*
X134642857Y-80485714D01*
X134700000Y-80428571D01*
X135100000Y-79742857D02*
X135557143Y-79742857D01*
X135271428Y-79342857D02*
X135271428Y-80371429D01*
X135328571Y-80485714D01*
X135442857Y-80542857D01*
X135557143Y-80542857D01*
X126357143Y-81322857D02*
X125785714Y-81322857D01*
X125728571Y-81894286D01*
X125785714Y-81837143D01*
X125900000Y-81780000D01*
X126185714Y-81780000D01*
X126300000Y-81837143D01*
X126357143Y-81894286D01*
X126414286Y-82008571D01*
X126414286Y-82294286D01*
X126357143Y-82408571D01*
X126300000Y-82465714D01*
X126185714Y-82522857D01*
X125900000Y-82522857D01*
X125785714Y-82465714D01*
X125728571Y-82408571D01*
X126757143Y-81322857D02*
X127157143Y-82522857D01*
X127557143Y-81322857D01*
X127957142Y-82522857D02*
X127957142Y-81322857D01*
X128242857Y-81322857D01*
X128414285Y-81380000D01*
X128528571Y-81494286D01*
X128585714Y-81608571D01*
X128642857Y-81837143D01*
X128642857Y-82008571D01*
X128585714Y-82237143D01*
X128528571Y-82351429D01*
X128414285Y-82465714D01*
X128242857Y-82522857D01*
X127957142Y-82522857D01*
X129842857Y-82408571D02*
X129785714Y-82465714D01*
X129614285Y-82522857D01*
X129499999Y-82522857D01*
X129328571Y-82465714D01*
X129214285Y-82351429D01*
X129157142Y-82237143D01*
X129099999Y-82008571D01*
X129099999Y-81837143D01*
X129157142Y-81608571D01*
X129214285Y-81494286D01*
X129328571Y-81380000D01*
X129499999Y-81322857D01*
X129614285Y-81322857D01*
X129785714Y-81380000D01*
X129842857Y-81437143D01*
X131900000Y-82522857D02*
X131214285Y-82522857D01*
X131557143Y-82522857D02*
X131557143Y-81322857D01*
X131442857Y-81494286D01*
X131328571Y-81608571D01*
X131214285Y-81665714D01*
X132985714Y-81322857D02*
X132414285Y-81322857D01*
X132357142Y-81894286D01*
X132414285Y-81837143D01*
X132528571Y-81780000D01*
X132814285Y-81780000D01*
X132928571Y-81837143D01*
X132985714Y-81894286D01*
X133042857Y-82008571D01*
X133042857Y-82294286D01*
X132985714Y-82408571D01*
X132928571Y-82465714D01*
X132814285Y-82522857D01*
X132528571Y-82522857D01*
X132414285Y-82465714D01*
X132357142Y-82408571D01*
X133785714Y-81322857D02*
X133899999Y-81322857D01*
X134014285Y-81380000D01*
X134071428Y-81437143D01*
X134128571Y-81551429D01*
X134185714Y-81780000D01*
X134185714Y-82065714D01*
X134128571Y-82294286D01*
X134071428Y-82408571D01*
X134014285Y-82465714D01*
X133899999Y-82522857D01*
X133785714Y-82522857D01*
X133671428Y-82465714D01*
X133614285Y-82408571D01*
X133557142Y-82294286D01*
X133499999Y-82065714D01*
X133499999Y-81780000D01*
X133557142Y-81551429D01*
X133614285Y-81437143D01*
X133671428Y-81380000D01*
X133785714Y-81322857D01*
X134699999Y-82522857D02*
X134699999Y-81722857D01*
X134699999Y-81837143D02*
X134757142Y-81780000D01*
X134871428Y-81722857D01*
X135042856Y-81722857D01*
X135157142Y-81780000D01*
X135214285Y-81894286D01*
X135214285Y-82522857D01*
X135214285Y-81894286D02*
X135271428Y-81780000D01*
X135385714Y-81722857D01*
X135557142Y-81722857D01*
X135671428Y-81780000D01*
X135728571Y-81894286D01*
X135728571Y-82522857D01*
X136242856Y-82180000D02*
X136814285Y-82180000D01*
X136128571Y-82522857D02*
X136528571Y-81322857D01*
X136928571Y-82522857D01*
X148500000Y-84107143D02*
X149642857Y-84107143D01*
X150357143Y-84107143D02*
X151500000Y-84107143D01*
X150928571Y-84678571D02*
X150928571Y-83535714D01*
X123185714Y-94101429D02*
X123433333Y-94968095D01*
X123680952Y-94349048D01*
X123928571Y-94968095D01*
X124176190Y-94101429D01*
X124547619Y-94101429D02*
X124795238Y-94968095D01*
X125042857Y-94349048D01*
X125290476Y-94968095D01*
X125538095Y-94101429D01*
X125909524Y-94101429D02*
X126157143Y-94968095D01*
X126404762Y-94349048D01*
X126652381Y-94968095D01*
X126900000Y-94101429D01*
X127395239Y-94844286D02*
X127457144Y-94906190D01*
X127395239Y-94968095D01*
X127333334Y-94906190D01*
X127395239Y-94844286D01*
X127395239Y-94968095D01*
X128571430Y-94906190D02*
X128447620Y-94968095D01*
X128200001Y-94968095D01*
X128076192Y-94906190D01*
X128014287Y-94844286D01*
X127952382Y-94720476D01*
X127952382Y-94349048D01*
X128014287Y-94225238D01*
X128076192Y-94163333D01*
X128200001Y-94101429D01*
X128447620Y-94101429D01*
X128571430Y-94163333D01*
X129685716Y-94101429D02*
X129685716Y-94968095D01*
X129128573Y-94101429D02*
X129128573Y-94782381D01*
X129190478Y-94906190D01*
X129314287Y-94968095D01*
X129500001Y-94968095D01*
X129623811Y-94906190D01*
X129685716Y-94844286D01*
X130242858Y-94906190D02*
X130366668Y-94968095D01*
X130614287Y-94968095D01*
X130738096Y-94906190D01*
X130800001Y-94782381D01*
X130800001Y-94720476D01*
X130738096Y-94596667D01*
X130614287Y-94534762D01*
X130428572Y-94534762D01*
X130304763Y-94472857D01*
X130242858Y-94349048D01*
X130242858Y-94287143D01*
X130304763Y-94163333D01*
X130428572Y-94101429D01*
X130614287Y-94101429D01*
X130738096Y-94163333D01*
X131171430Y-94101429D02*
X131666668Y-94101429D01*
X131357144Y-94968095D02*
X131357144Y-93853810D01*
X131419049Y-93730000D01*
X131542858Y-93668095D01*
X131666668Y-93668095D01*
X132100001Y-94844286D02*
X132161906Y-94906190D01*
X132100001Y-94968095D01*
X132038096Y-94906190D01*
X132100001Y-94844286D01*
X132100001Y-94968095D01*
X133276192Y-94906190D02*
X133152382Y-94968095D01*
X132904763Y-94968095D01*
X132780954Y-94906190D01*
X132719049Y-94844286D01*
X132657144Y-94720476D01*
X132657144Y-94349048D01*
X132719049Y-94225238D01*
X132780954Y-94163333D01*
X132904763Y-94101429D01*
X133152382Y-94101429D01*
X133276192Y-94163333D01*
X134019049Y-94968095D02*
X133895240Y-94906190D01*
X133833335Y-94844286D01*
X133771430Y-94720476D01*
X133771430Y-94349048D01*
X133833335Y-94225238D01*
X133895240Y-94163333D01*
X134019049Y-94101429D01*
X134204763Y-94101429D01*
X134328573Y-94163333D01*
X134390478Y-94225238D01*
X134452382Y-94349048D01*
X134452382Y-94720476D01*
X134390478Y-94844286D01*
X134328573Y-94906190D01*
X134204763Y-94968095D01*
X134019049Y-94968095D01*
X135009525Y-94844286D02*
X135071430Y-94906190D01*
X135009525Y-94968095D01*
X134947620Y-94906190D01*
X135009525Y-94844286D01*
X135009525Y-94968095D01*
X136185716Y-94101429D02*
X136185716Y-94968095D01*
X135628573Y-94101429D02*
X135628573Y-94782381D01*
X135690478Y-94906190D01*
X135814287Y-94968095D01*
X136000001Y-94968095D01*
X136123811Y-94906190D01*
X136185716Y-94844286D01*
X136804763Y-94968095D02*
X136804763Y-93668095D01*
X136928572Y-94472857D02*
X137300001Y-94968095D01*
X137300001Y-94101429D02*
X136804763Y-94596667D01*
X123309524Y-97088095D02*
X123309524Y-96221429D01*
X123309524Y-96469048D02*
X123371429Y-96345238D01*
X123433333Y-96283333D01*
X123557143Y-96221429D01*
X123680952Y-96221429D01*
X124795238Y-97088095D02*
X124052381Y-97088095D01*
X124423810Y-97088095D02*
X124423810Y-95788095D01*
X124300000Y-95973810D01*
X124176191Y-96097619D01*
X124052381Y-96159524D01*
X126280952Y-95911905D02*
X126342857Y-95850000D01*
X126466666Y-95788095D01*
X126776190Y-95788095D01*
X126900000Y-95850000D01*
X126961904Y-95911905D01*
X127023809Y-96035714D01*
X127023809Y-96159524D01*
X126961904Y-96345238D01*
X126219047Y-97088095D01*
X127023809Y-97088095D01*
X127828571Y-95788095D02*
X127952380Y-95788095D01*
X128076190Y-95850000D01*
X128138095Y-95911905D01*
X128199999Y-96035714D01*
X128261904Y-96283333D01*
X128261904Y-96592857D01*
X128199999Y-96840476D01*
X128138095Y-96964286D01*
X128076190Y-97026190D01*
X127952380Y-97088095D01*
X127828571Y-97088095D01*
X127704761Y-97026190D01*
X127642857Y-96964286D01*
X127580952Y-96840476D01*
X127519047Y-96592857D01*
X127519047Y-96283333D01*
X127580952Y-96035714D01*
X127642857Y-95911905D01*
X127704761Y-95850000D01*
X127828571Y-95788095D01*
X129499999Y-97088095D02*
X128757142Y-97088095D01*
X129128571Y-97088095D02*
X129128571Y-95788095D01*
X129004761Y-95973810D01*
X128880952Y-96097619D01*
X128757142Y-96159524D01*
X130676189Y-95788095D02*
X130057142Y-95788095D01*
X129995237Y-96407143D01*
X130057142Y-96345238D01*
X130180951Y-96283333D01*
X130490475Y-96283333D01*
X130614285Y-96345238D01*
X130676189Y-96407143D01*
X130738094Y-96530952D01*
X130738094Y-96840476D01*
X130676189Y-96964286D01*
X130614285Y-97026190D01*
X130490475Y-97088095D01*
X130180951Y-97088095D01*
X130057142Y-97026190D01*
X129995237Y-96964286D01*
X131295237Y-96592857D02*
X132285713Y-96592857D01*
X133152380Y-95788095D02*
X133276189Y-95788095D01*
X133399999Y-95850000D01*
X133461904Y-95911905D01*
X133523808Y-96035714D01*
X133585713Y-96283333D01*
X133585713Y-96592857D01*
X133523808Y-96840476D01*
X133461904Y-96964286D01*
X133399999Y-97026190D01*
X133276189Y-97088095D01*
X133152380Y-97088095D01*
X133028570Y-97026190D01*
X132966666Y-96964286D01*
X132904761Y-96840476D01*
X132842856Y-96592857D01*
X132842856Y-96283333D01*
X132904761Y-96035714D01*
X132966666Y-95911905D01*
X133028570Y-95850000D01*
X133152380Y-95788095D01*
X134761903Y-95788095D02*
X134142856Y-95788095D01*
X134080951Y-96407143D01*
X134142856Y-96345238D01*
X134266665Y-96283333D01*
X134576189Y-96283333D01*
X134699999Y-96345238D01*
X134761903Y-96407143D01*
X134823808Y-96530952D01*
X134823808Y-96840476D01*
X134761903Y-96964286D01*
X134699999Y-97026190D01*
X134576189Y-97088095D01*
X134266665Y-97088095D01*
X134142856Y-97026190D01*
X134080951Y-96964286D01*
X135380951Y-96592857D02*
X136371427Y-96592857D01*
X136928570Y-95911905D02*
X136990475Y-95850000D01*
X137114284Y-95788095D01*
X137423808Y-95788095D01*
X137547618Y-95850000D01*
X137609522Y-95911905D01*
X137671427Y-96035714D01*
X137671427Y-96159524D01*
X137609522Y-96345238D01*
X136866665Y-97088095D01*
X137671427Y-97088095D01*
X138104760Y-95788095D02*
X138909522Y-95788095D01*
X138476189Y-96283333D01*
X138661903Y-96283333D01*
X138785713Y-96345238D01*
X138847617Y-96407143D01*
X138909522Y-96530952D01*
X138909522Y-96840476D01*
X138847617Y-96964286D01*
X138785713Y-97026190D01*
X138661903Y-97088095D01*
X138290475Y-97088095D01*
X138166665Y-97026190D01*
X138104760Y-96964286D01*
X123247619Y-98836667D02*
X123866667Y-98836667D01*
X123123810Y-99208095D02*
X123557143Y-97908095D01*
X123990476Y-99208095D01*
X124980953Y-99208095D02*
X124980953Y-97908095D01*
X124980953Y-99146190D02*
X124857143Y-99208095D01*
X124609524Y-99208095D01*
X124485715Y-99146190D01*
X124423810Y-99084286D01*
X124361905Y-98960476D01*
X124361905Y-98589048D01*
X124423810Y-98465238D01*
X124485715Y-98403333D01*
X124609524Y-98341429D01*
X124857143Y-98341429D01*
X124980953Y-98403333D01*
X126157143Y-99208095D02*
X126157143Y-98527143D01*
X126095238Y-98403333D01*
X125971428Y-98341429D01*
X125723809Y-98341429D01*
X125600000Y-98403333D01*
X126157143Y-99146190D02*
X126033333Y-99208095D01*
X125723809Y-99208095D01*
X125600000Y-99146190D01*
X125538095Y-99022381D01*
X125538095Y-98898571D01*
X125600000Y-98774762D01*
X125723809Y-98712857D01*
X126033333Y-98712857D01*
X126157143Y-98650952D01*
X126776190Y-99208095D02*
X126776190Y-98341429D01*
X126776190Y-98465238D02*
X126838095Y-98403333D01*
X126961904Y-98341429D01*
X127147618Y-98341429D01*
X127271428Y-98403333D01*
X127333333Y-98527143D01*
X127333333Y-99208095D01*
X127333333Y-98527143D02*
X127395237Y-98403333D01*
X127519047Y-98341429D01*
X127704761Y-98341429D01*
X127828571Y-98403333D01*
X127890476Y-98527143D01*
X127890476Y-99208095D01*
X130180951Y-97970000D02*
X130057142Y-97908095D01*
X129871427Y-97908095D01*
X129685713Y-97970000D01*
X129561904Y-98093810D01*
X129499999Y-98217619D01*
X129438094Y-98465238D01*
X129438094Y-98650952D01*
X129499999Y-98898571D01*
X129561904Y-99022381D01*
X129685713Y-99146190D01*
X129871427Y-99208095D01*
X129995237Y-99208095D01*
X130180951Y-99146190D01*
X130242856Y-99084286D01*
X130242856Y-98650952D01*
X129995237Y-98650952D01*
X130799999Y-99208095D02*
X130799999Y-98341429D01*
X130799999Y-98589048D02*
X130861904Y-98465238D01*
X130923808Y-98403333D01*
X131047618Y-98341429D01*
X131171427Y-98341429D01*
X132099999Y-99146190D02*
X131976189Y-99208095D01*
X131728570Y-99208095D01*
X131604761Y-99146190D01*
X131542856Y-99022381D01*
X131542856Y-98527143D01*
X131604761Y-98403333D01*
X131728570Y-98341429D01*
X131976189Y-98341429D01*
X132099999Y-98403333D01*
X132161904Y-98527143D01*
X132161904Y-98650952D01*
X131542856Y-98774762D01*
X132719047Y-99208095D02*
X132719047Y-98341429D01*
X132719047Y-97908095D02*
X132657142Y-97970000D01*
X132719047Y-98031905D01*
X132780952Y-97970000D01*
X132719047Y-97908095D01*
X132719047Y-98031905D01*
X133895238Y-98341429D02*
X133895238Y-99393810D01*
X133833333Y-99517619D01*
X133771428Y-99579524D01*
X133647619Y-99641429D01*
X133461904Y-99641429D01*
X133338095Y-99579524D01*
X133895238Y-99146190D02*
X133771428Y-99208095D01*
X133523809Y-99208095D01*
X133400000Y-99146190D01*
X133338095Y-99084286D01*
X133276190Y-98960476D01*
X133276190Y-98589048D01*
X133338095Y-98465238D01*
X133400000Y-98403333D01*
X133523809Y-98341429D01*
X133771428Y-98341429D01*
X133895238Y-98403333D01*
X125857143Y-76678571D02*
X125857143Y-75178571D01*
X126357143Y-76250000D01*
X126857143Y-75178571D01*
X126857143Y-76678571D01*
X127500000Y-75321429D02*
X127571429Y-75250000D01*
X127714286Y-75178571D01*
X128071429Y-75178571D01*
X128214286Y-75250000D01*
X128285715Y-75321429D01*
X128357143Y-75464286D01*
X128357143Y-75607143D01*
X128285715Y-75821429D01*
X127428572Y-76678571D01*
X128357143Y-76678571D01*
X129000000Y-76678571D02*
X129000000Y-75178571D01*
X129571428Y-75178571D01*
X129714286Y-75250000D01*
X129785714Y-75321429D01*
X129857143Y-75464286D01*
X129857143Y-75678571D01*
X129785714Y-75821429D01*
X129714286Y-75892857D01*
X129571428Y-75964286D01*
X129000000Y-75964286D01*
X130428571Y-76250000D02*
X131142857Y-76250000D01*
X130285714Y-76678571D02*
X130785714Y-75178571D01*
X131285714Y-76678571D01*
D13*
X123900000Y-86610000D02*
X122200000Y-86610000D01*
X123900000Y-87410000D02*
X122200000Y-87410000D01*
X127710000Y-89040000D02*
X127710000Y-87340000D01*
X126910000Y-89040000D02*
X126910000Y-87340000D01*
X143350000Y-83100000D02*
X141650000Y-83100000D01*
X143350000Y-83900000D02*
X141650000Y-83900000D01*
X141250000Y-81750000D02*
X143350000Y-81750000D01*
X143350000Y-82750000D02*
X141250000Y-82750000D01*
X151580000Y-89050000D02*
X151580000Y-87350000D01*
X150780000Y-89050000D02*
X150780000Y-87350000D01*
X143600000Y-79250000D02*
X139300000Y-79250000D01*
X143600000Y-81250000D02*
X139300000Y-81250000D01*
X152950000Y-87400000D02*
X154650000Y-87400000D01*
X152950000Y-86600000D02*
X154650000Y-86600000D01*
X120540000Y-86710000D02*
X120540000Y-88410000D01*
X121240000Y-86710000D02*
X121240000Y-88410000D01*
X155650000Y-86700000D02*
X155650000Y-88400000D01*
X156350000Y-86700000D02*
X156350000Y-88400000D01*
X132590000Y-86400000D02*
X130690000Y-86400000D01*
X132590000Y-87600000D02*
X130690000Y-87600000D01*
X142600000Y-86300000D02*
X142600000Y-84400000D01*
X141400000Y-86300000D02*
X141400000Y-84400000D01*
X148560000Y-86600000D02*
X147360000Y-86600000D01*
X148560000Y-87400000D02*
X147360000Y-87400000D01*
D14*
X152000000Y-80500000D02*
X151700000Y-80500000D01*
X149700000Y-80500000D02*
X150300000Y-80500000D01*
X148000000Y-80500000D02*
X148300000Y-80500000D01*
X153000000Y-84500000D02*
X152000000Y-84500000D01*
X152000000Y-84500000D02*
X152000000Y-80500000D01*
X147000000Y-84500000D02*
X148000000Y-84500000D01*
X148000000Y-84500000D02*
X148000000Y-80500000D01*
X153000000Y-72800000D02*
X147000000Y-72800000D01*
X153000000Y-78000000D02*
X153000000Y-72800000D01*
X153000000Y-84500000D02*
X153000000Y-79800000D01*
X147000000Y-79800000D02*
X147000000Y-84500000D01*
X147000000Y-72800000D02*
X147000000Y-78000000D01*
D13*
X134750000Y-86650000D02*
X133050000Y-86650000D01*
X134750000Y-87350000D02*
X133050000Y-87350000D01*
X161300000Y-77000000D02*
G75*
G03X161300000Y-77000000I-3300000J0D01*
G01*
X122300000Y-97000000D02*
G75*
G03X122300000Y-97000000I-3300000J0D01*
G01*
X161300000Y-97000000D02*
G75*
G03X161300000Y-97000000I-3300000J0D01*
G01*
X122300000Y-77000000D02*
G75*
G03X122300000Y-77000000I-3300000J0D01*
G01*
X150850000Y-82300000D02*
X149150000Y-82300000D01*
X150850000Y-83000000D02*
X149150000Y-83000000D01*
X162127000Y-81422000D02*
X162127000Y-92598000D01*
X114883000Y-92538000D02*
X114883000Y-81362000D01*
X140500000Y-86100000D02*
X141000000Y-86100000D01*
X141000000Y-86100000D02*
X141000000Y-83600000D01*
X141000000Y-83600000D02*
X140500000Y-83600000D01*
X137500000Y-83600000D02*
X137000000Y-83600000D01*
X137000000Y-83600000D02*
X137000000Y-86100000D01*
X137000000Y-86100000D02*
X137500000Y-86100000D01*
X140500000Y-86100000D02*
X139700000Y-86100000D01*
X137500000Y-86100000D02*
X138300000Y-86100000D01*
X140200000Y-83600000D02*
X140500000Y-83600000D01*
X137500000Y-83600000D02*
X137800000Y-83600000D01*
D10*
G36*
X124995736Y-86138875D02*
X124993366Y-86187746D01*
X124972523Y-86218489D01*
X124954842Y-86223000D01*
X124930121Y-86211207D01*
X124874208Y-86177355D01*
X124790543Y-86123733D01*
X124682563Y-86052633D01*
X124553707Y-85966343D01*
X124407414Y-85867155D01*
X124247121Y-85757357D01*
X124076267Y-85639240D01*
X124028800Y-85606240D01*
X123854527Y-85484672D01*
X123689338Y-85368944D01*
X123536790Y-85261580D01*
X123400440Y-85165108D01*
X123283844Y-85082054D01*
X123190559Y-85014943D01*
X123124142Y-84966302D01*
X123088149Y-84938657D01*
X123084542Y-84935530D01*
X123038296Y-84873875D01*
X123026334Y-84808989D01*
X123029800Y-84760576D01*
X123045620Y-84743531D01*
X123074288Y-84745565D01*
X123098883Y-84758810D01*
X123154107Y-84793668D01*
X123235971Y-84847387D01*
X123340488Y-84917211D01*
X123463669Y-85000388D01*
X123601526Y-85094163D01*
X123750070Y-85195783D01*
X123905314Y-85302495D01*
X124063270Y-85411543D01*
X124219948Y-85520175D01*
X124371361Y-85625637D01*
X124513521Y-85725175D01*
X124642440Y-85816035D01*
X124754128Y-85895464D01*
X124844598Y-85960707D01*
X124909862Y-86009012D01*
X124945932Y-86037623D01*
X124947209Y-86038770D01*
X124980170Y-86084882D01*
X124995736Y-86138875D01*
X124995736Y-86138875D01*
X124995736Y-86138875D01*
G37*
X124995736Y-86138875D02*
X124993366Y-86187746D01*
X124972523Y-86218489D01*
X124954842Y-86223000D01*
X124930121Y-86211207D01*
X124874208Y-86177355D01*
X124790543Y-86123733D01*
X124682563Y-86052633D01*
X124553707Y-85966343D01*
X124407414Y-85867155D01*
X124247121Y-85757357D01*
X124076267Y-85639240D01*
X124028800Y-85606240D01*
X123854527Y-85484672D01*
X123689338Y-85368944D01*
X123536790Y-85261580D01*
X123400440Y-85165108D01*
X123283844Y-85082054D01*
X123190559Y-85014943D01*
X123124142Y-84966302D01*
X123088149Y-84938657D01*
X123084542Y-84935530D01*
X123038296Y-84873875D01*
X123026334Y-84808989D01*
X123029800Y-84760576D01*
X123045620Y-84743531D01*
X123074288Y-84745565D01*
X123098883Y-84758810D01*
X123154107Y-84793668D01*
X123235971Y-84847387D01*
X123340488Y-84917211D01*
X123463669Y-85000388D01*
X123601526Y-85094163D01*
X123750070Y-85195783D01*
X123905314Y-85302495D01*
X124063270Y-85411543D01*
X124219948Y-85520175D01*
X124371361Y-85625637D01*
X124513521Y-85725175D01*
X124642440Y-85816035D01*
X124754128Y-85895464D01*
X124844598Y-85960707D01*
X124909862Y-86009012D01*
X124945932Y-86037623D01*
X124947209Y-86038770D01*
X124980170Y-86084882D01*
X124995736Y-86138875D01*
X124995736Y-86138875D01*
G36*
X124996748Y-85594801D02*
X124983434Y-85636726D01*
X124957253Y-85651500D01*
X124933072Y-85639695D01*
X124877671Y-85605795D01*
X124794447Y-85552075D01*
X124686797Y-85480809D01*
X124558118Y-85394270D01*
X124411806Y-85294732D01*
X124251259Y-85184469D01*
X124079873Y-85065756D01*
X124020628Y-85024494D01*
X123845603Y-84902236D01*
X123680001Y-84786186D01*
X123527289Y-84678802D01*
X123390936Y-84582539D01*
X123274410Y-84499853D01*
X123181180Y-84433202D01*
X123114714Y-84385041D01*
X123078480Y-84357826D01*
X123073959Y-84354055D01*
X123044669Y-84310728D01*
X123027541Y-84253450D01*
X123023346Y-84195206D01*
X123032852Y-84148978D01*
X123056834Y-84127751D01*
X123060508Y-84127500D01*
X123083315Y-84139257D01*
X123136766Y-84172714D01*
X123216927Y-84225147D01*
X123319864Y-84293835D01*
X123441641Y-84376054D01*
X123578326Y-84469082D01*
X123725982Y-84570196D01*
X123880677Y-84676674D01*
X124038476Y-84785792D01*
X124195444Y-84894828D01*
X124347647Y-85001060D01*
X124491151Y-85101765D01*
X124622021Y-85194219D01*
X124736324Y-85275701D01*
X124830124Y-85343488D01*
X124899488Y-85394856D01*
X124940480Y-85427085D01*
X124947209Y-85433151D01*
X124978047Y-85480230D01*
X124994756Y-85538374D01*
X124996748Y-85594801D01*
X124996748Y-85594801D01*
X124996748Y-85594801D01*
G37*
X124996748Y-85594801D02*
X124983434Y-85636726D01*
X124957253Y-85651500D01*
X124933072Y-85639695D01*
X124877671Y-85605795D01*
X124794447Y-85552075D01*
X124686797Y-85480809D01*
X124558118Y-85394270D01*
X124411806Y-85294732D01*
X124251259Y-85184469D01*
X124079873Y-85065756D01*
X124020628Y-85024494D01*
X123845603Y-84902236D01*
X123680001Y-84786186D01*
X123527289Y-84678802D01*
X123390936Y-84582539D01*
X123274410Y-84499853D01*
X123181180Y-84433202D01*
X123114714Y-84385041D01*
X123078480Y-84357826D01*
X123073959Y-84354055D01*
X123044669Y-84310728D01*
X123027541Y-84253450D01*
X123023346Y-84195206D01*
X123032852Y-84148978D01*
X123056834Y-84127751D01*
X123060508Y-84127500D01*
X123083315Y-84139257D01*
X123136766Y-84172714D01*
X123216927Y-84225147D01*
X123319864Y-84293835D01*
X123441641Y-84376054D01*
X123578326Y-84469082D01*
X123725982Y-84570196D01*
X123880677Y-84676674D01*
X124038476Y-84785792D01*
X124195444Y-84894828D01*
X124347647Y-85001060D01*
X124491151Y-85101765D01*
X124622021Y-85194219D01*
X124736324Y-85275701D01*
X124830124Y-85343488D01*
X124899488Y-85394856D01*
X124940480Y-85427085D01*
X124947209Y-85433151D01*
X124978047Y-85480230D01*
X124994756Y-85538374D01*
X124996748Y-85594801D01*
X124996748Y-85594801D01*
G36*
X124994834Y-84925960D02*
X124992604Y-84992050D01*
X124983617Y-85025823D01*
X124964423Y-85037161D01*
X124955856Y-85037667D01*
X124931394Y-85025859D01*
X124875726Y-84991954D01*
X124792258Y-84938228D01*
X124684395Y-84866958D01*
X124555543Y-84780421D01*
X124409109Y-84680891D01*
X124248499Y-84570647D01*
X124077118Y-84451965D01*
X124019231Y-84411651D01*
X123844292Y-84289432D01*
X123678747Y-84173358D01*
X123526074Y-84065897D01*
X123389748Y-83969514D01*
X123273246Y-83886676D01*
X123180046Y-83819850D01*
X123113623Y-83771503D01*
X123077456Y-83744102D01*
X123073038Y-83740346D01*
X123044389Y-83706540D01*
X123031232Y-83665392D01*
X123029624Y-83601774D01*
X123030705Y-83577904D01*
X123036162Y-83510443D01*
X123046180Y-83475413D01*
X123065065Y-83462911D01*
X123081081Y-83462059D01*
X123106579Y-83474166D01*
X123162554Y-83508120D01*
X123245032Y-83561161D01*
X123350040Y-83630532D01*
X123473606Y-83713472D01*
X123611756Y-83807225D01*
X123760519Y-83909030D01*
X123915920Y-84016130D01*
X124073989Y-84125765D01*
X124230751Y-84235178D01*
X124382233Y-84341609D01*
X124524464Y-84442300D01*
X124653471Y-84534492D01*
X124765280Y-84615426D01*
X124855919Y-84682344D01*
X124921415Y-84732487D01*
X124957795Y-84763097D01*
X124963054Y-84768881D01*
X124983116Y-84820395D01*
X124993914Y-84895912D01*
X124994834Y-84925960D01*
X124994834Y-84925960D01*
X124994834Y-84925960D01*
G37*
X124994834Y-84925960D02*
X124992604Y-84992050D01*
X124983617Y-85025823D01*
X124964423Y-85037161D01*
X124955856Y-85037667D01*
X124931394Y-85025859D01*
X124875726Y-84991954D01*
X124792258Y-84938228D01*
X124684395Y-84866958D01*
X124555543Y-84780421D01*
X124409109Y-84680891D01*
X124248499Y-84570647D01*
X124077118Y-84451965D01*
X124019231Y-84411651D01*
X123844292Y-84289432D01*
X123678747Y-84173358D01*
X123526074Y-84065897D01*
X123389748Y-83969514D01*
X123273246Y-83886676D01*
X123180046Y-83819850D01*
X123113623Y-83771503D01*
X123077456Y-83744102D01*
X123073038Y-83740346D01*
X123044389Y-83706540D01*
X123031232Y-83665392D01*
X123029624Y-83601774D01*
X123030705Y-83577904D01*
X123036162Y-83510443D01*
X123046180Y-83475413D01*
X123065065Y-83462911D01*
X123081081Y-83462059D01*
X123106579Y-83474166D01*
X123162554Y-83508120D01*
X123245032Y-83561161D01*
X123350040Y-83630532D01*
X123473606Y-83713472D01*
X123611756Y-83807225D01*
X123760519Y-83909030D01*
X123915920Y-84016130D01*
X124073989Y-84125765D01*
X124230751Y-84235178D01*
X124382233Y-84341609D01*
X124524464Y-84442300D01*
X124653471Y-84534492D01*
X124765280Y-84615426D01*
X124855919Y-84682344D01*
X124921415Y-84732487D01*
X124957795Y-84763097D01*
X124963054Y-84768881D01*
X124983116Y-84820395D01*
X124993914Y-84895912D01*
X124994834Y-84925960D01*
X124994834Y-84925960D01*
G36*
X124992199Y-84113405D02*
X124990412Y-84189997D01*
X124990400Y-84190272D01*
X124984093Y-84270389D01*
X124972762Y-84315715D01*
X124954411Y-84333683D01*
X124951719Y-84334339D01*
X124928535Y-84323757D01*
X124874105Y-84291054D01*
X124791802Y-84238476D01*
X124685000Y-84168269D01*
X124557070Y-84082678D01*
X124411387Y-83983947D01*
X124251323Y-83874322D01*
X124080250Y-83756048D01*
X124020386Y-83714408D01*
X123845256Y-83592031D01*
X123679565Y-83475523D01*
X123526790Y-83367378D01*
X123390408Y-83270093D01*
X123273895Y-83186161D01*
X123180728Y-83118078D01*
X123114383Y-83068339D01*
X123078338Y-83039438D01*
X123073959Y-83035211D01*
X123045110Y-82993263D01*
X123030573Y-82940578D01*
X123026347Y-82862070D01*
X123026334Y-82855655D01*
X123031688Y-82771067D01*
X123049559Y-82724355D01*
X123082654Y-82712216D01*
X123129906Y-82729290D01*
X123161414Y-82749033D01*
X123223029Y-82790191D01*
X123310602Y-82849854D01*
X123419985Y-82925113D01*
X123547028Y-83013058D01*
X123687584Y-83110780D01*
X123837504Y-83215370D01*
X123992638Y-83323918D01*
X124148839Y-83433514D01*
X124301958Y-83541250D01*
X124447845Y-83644215D01*
X124582353Y-83739501D01*
X124701334Y-83824198D01*
X124800637Y-83895396D01*
X124876115Y-83950187D01*
X124923619Y-83985661D01*
X124937483Y-83996937D01*
X124969553Y-84030826D01*
X124986519Y-84064998D01*
X124992199Y-84113405D01*
X124992199Y-84113405D01*
X124992199Y-84113405D01*
G37*
X124992199Y-84113405D02*
X124990412Y-84189997D01*
X124990400Y-84190272D01*
X124984093Y-84270389D01*
X124972762Y-84315715D01*
X124954411Y-84333683D01*
X124951719Y-84334339D01*
X124928535Y-84323757D01*
X124874105Y-84291054D01*
X124791802Y-84238476D01*
X124685000Y-84168269D01*
X124557070Y-84082678D01*
X124411387Y-83983947D01*
X124251323Y-83874322D01*
X124080250Y-83756048D01*
X124020386Y-83714408D01*
X123845256Y-83592031D01*
X123679565Y-83475523D01*
X123526790Y-83367378D01*
X123390408Y-83270093D01*
X123273895Y-83186161D01*
X123180728Y-83118078D01*
X123114383Y-83068339D01*
X123078338Y-83039438D01*
X123073959Y-83035211D01*
X123045110Y-82993263D01*
X123030573Y-82940578D01*
X123026347Y-82862070D01*
X123026334Y-82855655D01*
X123031688Y-82771067D01*
X123049559Y-82724355D01*
X123082654Y-82712216D01*
X123129906Y-82729290D01*
X123161414Y-82749033D01*
X123223029Y-82790191D01*
X123310602Y-82849854D01*
X123419985Y-82925113D01*
X123547028Y-83013058D01*
X123687584Y-83110780D01*
X123837504Y-83215370D01*
X123992638Y-83323918D01*
X124148839Y-83433514D01*
X124301958Y-83541250D01*
X124447845Y-83644215D01*
X124582353Y-83739501D01*
X124701334Y-83824198D01*
X124800637Y-83895396D01*
X124876115Y-83950187D01*
X124923619Y-83985661D01*
X124937483Y-83996937D01*
X124969553Y-84030826D01*
X124986519Y-84064998D01*
X124992199Y-84113405D01*
X124992199Y-84113405D01*
G36*
X124992455Y-83363004D02*
X124990416Y-83431445D01*
X124984431Y-83521917D01*
X124974470Y-83584698D01*
X124961685Y-83612798D01*
X124960424Y-83613391D01*
X124933054Y-83605780D01*
X124881077Y-83578623D01*
X124814195Y-83537173D01*
X124791091Y-83521655D01*
X124583644Y-83379206D01*
X124377312Y-83236717D01*
X124175343Y-83096486D01*
X123980983Y-82960811D01*
X123797481Y-82831988D01*
X123628083Y-82712316D01*
X123476037Y-82604091D01*
X123344590Y-82509612D01*
X123236990Y-82431175D01*
X123156484Y-82371078D01*
X123106320Y-82331619D01*
X123095125Y-82321796D01*
X123060428Y-82286494D01*
X123039927Y-82253934D01*
X123029898Y-82211636D01*
X123026615Y-82147124D01*
X123026334Y-82091348D01*
X123027070Y-82008540D01*
X123030955Y-81959385D01*
X123040499Y-81935205D01*
X123058213Y-81927325D01*
X123073959Y-81926812D01*
X123098170Y-81938643D01*
X123153016Y-81972108D01*
X123234510Y-82024471D01*
X123338671Y-82093000D01*
X123461514Y-82174959D01*
X123599055Y-82267614D01*
X123747312Y-82368231D01*
X123902301Y-82474075D01*
X124060037Y-82582413D01*
X124216538Y-82690509D01*
X124367820Y-82795630D01*
X124509899Y-82895042D01*
X124638791Y-82986008D01*
X124750514Y-83065797D01*
X124841083Y-83131672D01*
X124906515Y-83180900D01*
X124937500Y-83205949D01*
X124966549Y-83233609D01*
X124983641Y-83261543D01*
X124991400Y-83300943D01*
X124992455Y-83363004D01*
X124992455Y-83363004D01*
X124992455Y-83363004D01*
G37*
X124992455Y-83363004D02*
X124990416Y-83431445D01*
X124984431Y-83521917D01*
X124974470Y-83584698D01*
X124961685Y-83612798D01*
X124960424Y-83613391D01*
X124933054Y-83605780D01*
X124881077Y-83578623D01*
X124814195Y-83537173D01*
X124791091Y-83521655D01*
X124583644Y-83379206D01*
X124377312Y-83236717D01*
X124175343Y-83096486D01*
X123980983Y-82960811D01*
X123797481Y-82831988D01*
X123628083Y-82712316D01*
X123476037Y-82604091D01*
X123344590Y-82509612D01*
X123236990Y-82431175D01*
X123156484Y-82371078D01*
X123106320Y-82331619D01*
X123095125Y-82321796D01*
X123060428Y-82286494D01*
X123039927Y-82253934D01*
X123029898Y-82211636D01*
X123026615Y-82147124D01*
X123026334Y-82091348D01*
X123027070Y-82008540D01*
X123030955Y-81959385D01*
X123040499Y-81935205D01*
X123058213Y-81927325D01*
X123073959Y-81926812D01*
X123098170Y-81938643D01*
X123153016Y-81972108D01*
X123234510Y-82024471D01*
X123338671Y-82093000D01*
X123461514Y-82174959D01*
X123599055Y-82267614D01*
X123747312Y-82368231D01*
X123902301Y-82474075D01*
X124060037Y-82582413D01*
X124216538Y-82690509D01*
X124367820Y-82795630D01*
X124509899Y-82895042D01*
X124638791Y-82986008D01*
X124750514Y-83065797D01*
X124841083Y-83131672D01*
X124906515Y-83180900D01*
X124937500Y-83205949D01*
X124966549Y-83233609D01*
X124983641Y-83261543D01*
X124991400Y-83300943D01*
X124992455Y-83363004D01*
X124992455Y-83363004D01*
G36*
X124994954Y-75487874D02*
X124989602Y-79135645D01*
X124988922Y-79596080D01*
X124988277Y-80016045D01*
X124987643Y-80397406D01*
X124986995Y-80742026D01*
X124986311Y-81051770D01*
X124985564Y-81328502D01*
X124984730Y-81574087D01*
X124983786Y-81790388D01*
X124982707Y-81979271D01*
X124981469Y-82142598D01*
X124980047Y-82282235D01*
X124978417Y-82400047D01*
X124976555Y-82497896D01*
X124974436Y-82577648D01*
X124972036Y-82641166D01*
X124969330Y-82690315D01*
X124966295Y-82726960D01*
X124962906Y-82752965D01*
X124959138Y-82770193D01*
X124954968Y-82780509D01*
X124950371Y-82785778D01*
X124945322Y-82787864D01*
X124941917Y-82788380D01*
X124914543Y-82777381D01*
X124854647Y-82742682D01*
X124763974Y-82685439D01*
X124644271Y-82606807D01*
X124619973Y-82590463D01*
X124619973Y-76295833D01*
X124479320Y-76295833D01*
X124338667Y-76295833D01*
X124338667Y-76368539D01*
X124326661Y-76465783D01*
X124292835Y-76537782D01*
X124256067Y-76569894D01*
X124196567Y-76588846D01*
X124110079Y-76601361D01*
X124011547Y-76606794D01*
X123915919Y-76604495D01*
X123838141Y-76593820D01*
X123820153Y-76588763D01*
X123774589Y-76568484D01*
X123739984Y-76538681D01*
X123714872Y-76493854D01*
X123697789Y-76428501D01*
X123687270Y-76337120D01*
X123681851Y-76214210D01*
X123680090Y-76062690D01*
X123681932Y-75899848D01*
X123689192Y-75774828D01*
X123702742Y-75683364D01*
X123723458Y-75621188D01*
X123752214Y-75584034D01*
X123781110Y-75569590D01*
X123873276Y-75548050D01*
X123954856Y-75539607D01*
X124047676Y-75542626D01*
X124090214Y-75546416D01*
X124194190Y-75562503D01*
X124262451Y-75589568D01*
X124301168Y-75632440D01*
X124316510Y-75695950D01*
X124317500Y-75724333D01*
X124317500Y-75809000D01*
X124457981Y-75809000D01*
X124598463Y-75809000D01*
X124587767Y-75675752D01*
X124570581Y-75557841D01*
X124537310Y-75467074D01*
X124483476Y-75400415D01*
X124404605Y-75354829D01*
X124296219Y-75327282D01*
X124153842Y-75314739D01*
X124052917Y-75313145D01*
X123875624Y-75318981D01*
X123734684Y-75336939D01*
X123625330Y-75369090D01*
X123542793Y-75417503D01*
X123482303Y-75484249D01*
X123439092Y-75571399D01*
X123435591Y-75581163D01*
X123414973Y-75670234D01*
X123401861Y-75790487D01*
X123395889Y-75932268D01*
X123396692Y-76085918D01*
X123403904Y-76241780D01*
X123417159Y-76390198D01*
X123436091Y-76521514D01*
X123460337Y-76626071D01*
X123476845Y-76670990D01*
X123522365Y-76727881D01*
X123598483Y-76778321D01*
X123693467Y-76815206D01*
X123728733Y-76823547D01*
X123833871Y-76836948D01*
X123963168Y-76842825D01*
X124099129Y-76841193D01*
X124224259Y-76832068D01*
X124286727Y-76823028D01*
X124365280Y-76805396D01*
X124434836Y-76784531D01*
X124467677Y-76771044D01*
X124528915Y-76715934D01*
X124573981Y-76623307D01*
X124602049Y-76495103D01*
X124607603Y-76443390D01*
X124619973Y-76295833D01*
X124619973Y-82590463D01*
X124618120Y-82589217D01*
X124618120Y-76867333D01*
X124478393Y-76867333D01*
X124338667Y-76867333D01*
X124337745Y-77380625D01*
X124336650Y-77574004D01*
X124333839Y-77729581D01*
X124328872Y-77851868D01*
X124321308Y-77945378D01*
X124310709Y-78014623D01*
X124296632Y-78064114D01*
X124278640Y-78098364D01*
X124266312Y-78112947D01*
X124226703Y-78130743D01*
X124156521Y-78143029D01*
X124067143Y-78149787D01*
X123969947Y-78150996D01*
X123876308Y-78146638D01*
X123797604Y-78136692D01*
X123745210Y-78121141D01*
X123734661Y-78113853D01*
X123713572Y-78086242D01*
X123696843Y-78047101D01*
X123684008Y-77991788D01*
X123674597Y-77915658D01*
X123668143Y-77814069D01*
X123664179Y-77682376D01*
X123662236Y-77515936D01*
X123661838Y-77391208D01*
X123661334Y-76867333D01*
X123522073Y-76867333D01*
X123382813Y-76867333D01*
X123390176Y-77486458D01*
X123392742Y-77672457D01*
X123395721Y-77820933D01*
X123399398Y-77936695D01*
X123404059Y-78024553D01*
X123409989Y-78089317D01*
X123417473Y-78135797D01*
X123426795Y-78168802D01*
X123431265Y-78179667D01*
X123484924Y-78266172D01*
X123558794Y-78324558D01*
X123656029Y-78361423D01*
X123739105Y-78376079D01*
X123850571Y-78385338D01*
X123976814Y-78389073D01*
X124104219Y-78387155D01*
X124219171Y-78379456D01*
X124300583Y-78367508D01*
X124412066Y-78333412D01*
X124491262Y-78282303D01*
X124546869Y-78207779D01*
X124562507Y-78174648D01*
X124573915Y-78143022D01*
X124583059Y-78104537D01*
X124590287Y-78053987D01*
X124595950Y-77986169D01*
X124600396Y-77895879D01*
X124603974Y-77777913D01*
X124607034Y-77627067D01*
X124609391Y-77475875D01*
X124618120Y-76867333D01*
X124618120Y-82589217D01*
X124613834Y-82586334D01*
X124613834Y-80211667D01*
X124613834Y-80095250D01*
X124613834Y-79978833D01*
X124602885Y-79978833D01*
X124602885Y-79487994D01*
X124596344Y-79372183D01*
X124576036Y-79272717D01*
X124543535Y-79200686D01*
X124534519Y-79189188D01*
X124485633Y-79148123D01*
X124417233Y-79116583D01*
X124322492Y-79092456D01*
X124194587Y-79073629D01*
X124143502Y-79068175D01*
X123993023Y-79052912D01*
X123879471Y-79039419D01*
X123797647Y-79025284D01*
X123742354Y-79008091D01*
X123708391Y-78985428D01*
X123690560Y-78954878D01*
X123683663Y-78914029D01*
X123682501Y-78860466D01*
X123682500Y-78854096D01*
X123687897Y-78764702D01*
X123708729Y-78707112D01*
X123751961Y-78671652D01*
X123824556Y-78648651D01*
X123831490Y-78647134D01*
X123979522Y-78625757D01*
X124102417Y-78629486D01*
X124197509Y-78657354D01*
X124262129Y-78708394D01*
X124293613Y-78781640D01*
X124296334Y-78815662D01*
X124300799Y-78837876D01*
X124320344Y-78850361D01*
X124364191Y-78855831D01*
X124436878Y-78857000D01*
X124577423Y-78857000D01*
X124564990Y-78736537D01*
X124542122Y-78625687D01*
X124495978Y-78544030D01*
X124420424Y-78482049D01*
X124390218Y-78465417D01*
X124351303Y-78448326D01*
X124307719Y-78436474D01*
X124251062Y-78428949D01*
X124172928Y-78424839D01*
X124064914Y-78423233D01*
X124000000Y-78423083D01*
X123840230Y-78425444D01*
X123716648Y-78433750D01*
X123623307Y-78449840D01*
X123554261Y-78475549D01*
X123503565Y-78512715D01*
X123465271Y-78563176D01*
X123449273Y-78593231D01*
X123420734Y-78682892D01*
X123405378Y-78796213D01*
X123403655Y-78916480D01*
X123416016Y-79026980D01*
X123435745Y-79095691D01*
X123466460Y-79147839D01*
X123513501Y-79189685D01*
X123581701Y-79222813D01*
X123675894Y-79248809D01*
X123800911Y-79269258D01*
X123961585Y-79285746D01*
X124031750Y-79291212D01*
X124122823Y-79300713D01*
X124202133Y-79314132D01*
X124256910Y-79329116D01*
X124268886Y-79334890D01*
X124309907Y-79383547D01*
X124330261Y-79454864D01*
X124331053Y-79535973D01*
X124313384Y-79614006D01*
X124278357Y-79676094D01*
X124237059Y-79706237D01*
X124191968Y-79714865D01*
X124116739Y-79720419D01*
X124023499Y-79722242D01*
X123961052Y-79721182D01*
X123861150Y-79717238D01*
X123794450Y-79711643D01*
X123751825Y-79702394D01*
X123724144Y-79687487D01*
X123702278Y-79664919D01*
X123701760Y-79664280D01*
X123672957Y-79607153D01*
X123661334Y-79542572D01*
X123661334Y-79470833D01*
X123521311Y-79470833D01*
X123381289Y-79470833D01*
X123396194Y-79592542D01*
X123423614Y-79726813D01*
X123468480Y-79823017D01*
X123531099Y-79881796D01*
X123536198Y-79884547D01*
X123622782Y-79915496D01*
X123740411Y-79937966D01*
X123878498Y-79951165D01*
X124026457Y-79954299D01*
X124173704Y-79946573D01*
X124247369Y-79937871D01*
X124374021Y-79911923D01*
X124465506Y-79872326D01*
X124528323Y-79812917D01*
X124568971Y-79727532D01*
X124593951Y-79610007D01*
X124594086Y-79609059D01*
X124602885Y-79487994D01*
X124602885Y-79978833D01*
X124000000Y-79978833D01*
X123386167Y-79978833D01*
X123386167Y-80730250D01*
X123386167Y-81481667D01*
X123523750Y-81481667D01*
X123661334Y-81481667D01*
X123661334Y-81174750D01*
X123661334Y-80867833D01*
X124074084Y-80867833D01*
X124486834Y-80867833D01*
X124486834Y-80751417D01*
X124486834Y-80635000D01*
X124074084Y-80635000D01*
X123661334Y-80635000D01*
X123661334Y-80423333D01*
X123661334Y-80211667D01*
X124137584Y-80211667D01*
X124613834Y-80211667D01*
X124613834Y-82586334D01*
X124497285Y-82507942D01*
X124324761Y-82389998D01*
X124128447Y-82254132D01*
X124021167Y-82179316D01*
X123847757Y-82057837D01*
X123683415Y-81942206D01*
X123531709Y-81834969D01*
X123396207Y-81738670D01*
X123280475Y-81655855D01*
X123188080Y-81589068D01*
X123122591Y-81540855D01*
X123087574Y-81513760D01*
X123084542Y-81511100D01*
X123026334Y-81456911D01*
X123026334Y-78484085D01*
X123026334Y-75511259D01*
X123081221Y-75400838D01*
X123103573Y-75358055D01*
X123143974Y-75283001D01*
X123199850Y-75180374D01*
X123268624Y-75054871D01*
X123347720Y-74911192D01*
X123434561Y-74754032D01*
X123526572Y-74588091D01*
X123551401Y-74543411D01*
X123656967Y-74354043D01*
X123744297Y-74198753D01*
X123815331Y-74074405D01*
X123872012Y-73977862D01*
X123916279Y-73905986D01*
X123950073Y-73855641D01*
X123975337Y-73823689D01*
X123994010Y-73806994D01*
X124008034Y-73802420D01*
X124009804Y-73802577D01*
X124027764Y-73814387D01*
X124055897Y-73847671D01*
X124095809Y-73904973D01*
X124149108Y-73988838D01*
X124217398Y-74101809D01*
X124302288Y-74246430D01*
X124405383Y-74425245D01*
X124428088Y-74464917D01*
X124519916Y-74625974D01*
X124609242Y-74783485D01*
X124692818Y-74931663D01*
X124767398Y-75064721D01*
X124829735Y-75176872D01*
X124876582Y-75262329D01*
X124899107Y-75304479D01*
X124994954Y-75487874D01*
X124994954Y-75487874D01*
X124994954Y-75487874D01*
G37*
X124994954Y-75487874D02*
X124989602Y-79135645D01*
X124988922Y-79596080D01*
X124988277Y-80016045D01*
X124987643Y-80397406D01*
X124986995Y-80742026D01*
X124986311Y-81051770D01*
X124985564Y-81328502D01*
X124984730Y-81574087D01*
X124983786Y-81790388D01*
X124982707Y-81979271D01*
X124981469Y-82142598D01*
X124980047Y-82282235D01*
X124978417Y-82400047D01*
X124976555Y-82497896D01*
X124974436Y-82577648D01*
X124972036Y-82641166D01*
X124969330Y-82690315D01*
X124966295Y-82726960D01*
X124962906Y-82752965D01*
X124959138Y-82770193D01*
X124954968Y-82780509D01*
X124950371Y-82785778D01*
X124945322Y-82787864D01*
X124941917Y-82788380D01*
X124914543Y-82777381D01*
X124854647Y-82742682D01*
X124763974Y-82685439D01*
X124644271Y-82606807D01*
X124619973Y-82590463D01*
X124619973Y-76295833D01*
X124479320Y-76295833D01*
X124338667Y-76295833D01*
X124338667Y-76368539D01*
X124326661Y-76465783D01*
X124292835Y-76537782D01*
X124256067Y-76569894D01*
X124196567Y-76588846D01*
X124110079Y-76601361D01*
X124011547Y-76606794D01*
X123915919Y-76604495D01*
X123838141Y-76593820D01*
X123820153Y-76588763D01*
X123774589Y-76568484D01*
X123739984Y-76538681D01*
X123714872Y-76493854D01*
X123697789Y-76428501D01*
X123687270Y-76337120D01*
X123681851Y-76214210D01*
X123680090Y-76062690D01*
X123681932Y-75899848D01*
X123689192Y-75774828D01*
X123702742Y-75683364D01*
X123723458Y-75621188D01*
X123752214Y-75584034D01*
X123781110Y-75569590D01*
X123873276Y-75548050D01*
X123954856Y-75539607D01*
X124047676Y-75542626D01*
X124090214Y-75546416D01*
X124194190Y-75562503D01*
X124262451Y-75589568D01*
X124301168Y-75632440D01*
X124316510Y-75695950D01*
X124317500Y-75724333D01*
X124317500Y-75809000D01*
X124457981Y-75809000D01*
X124598463Y-75809000D01*
X124587767Y-75675752D01*
X124570581Y-75557841D01*
X124537310Y-75467074D01*
X124483476Y-75400415D01*
X124404605Y-75354829D01*
X124296219Y-75327282D01*
X124153842Y-75314739D01*
X124052917Y-75313145D01*
X123875624Y-75318981D01*
X123734684Y-75336939D01*
X123625330Y-75369090D01*
X123542793Y-75417503D01*
X123482303Y-75484249D01*
X123439092Y-75571399D01*
X123435591Y-75581163D01*
X123414973Y-75670234D01*
X123401861Y-75790487D01*
X123395889Y-75932268D01*
X123396692Y-76085918D01*
X123403904Y-76241780D01*
X123417159Y-76390198D01*
X123436091Y-76521514D01*
X123460337Y-76626071D01*
X123476845Y-76670990D01*
X123522365Y-76727881D01*
X123598483Y-76778321D01*
X123693467Y-76815206D01*
X123728733Y-76823547D01*
X123833871Y-76836948D01*
X123963168Y-76842825D01*
X124099129Y-76841193D01*
X124224259Y-76832068D01*
X124286727Y-76823028D01*
X124365280Y-76805396D01*
X124434836Y-76784531D01*
X124467677Y-76771044D01*
X124528915Y-76715934D01*
X124573981Y-76623307D01*
X124602049Y-76495103D01*
X124607603Y-76443390D01*
X124619973Y-76295833D01*
X124619973Y-82590463D01*
X124618120Y-82589217D01*
X124618120Y-76867333D01*
X124478393Y-76867333D01*
X124338667Y-76867333D01*
X124337745Y-77380625D01*
X124336650Y-77574004D01*
X124333839Y-77729581D01*
X124328872Y-77851868D01*
X124321308Y-77945378D01*
X124310709Y-78014623D01*
X124296632Y-78064114D01*
X124278640Y-78098364D01*
X124266312Y-78112947D01*
X124226703Y-78130743D01*
X124156521Y-78143029D01*
X124067143Y-78149787D01*
X123969947Y-78150996D01*
X123876308Y-78146638D01*
X123797604Y-78136692D01*
X123745210Y-78121141D01*
X123734661Y-78113853D01*
X123713572Y-78086242D01*
X123696843Y-78047101D01*
X123684008Y-77991788D01*
X123674597Y-77915658D01*
X123668143Y-77814069D01*
X123664179Y-77682376D01*
X123662236Y-77515936D01*
X123661838Y-77391208D01*
X123661334Y-76867333D01*
X123522073Y-76867333D01*
X123382813Y-76867333D01*
X123390176Y-77486458D01*
X123392742Y-77672457D01*
X123395721Y-77820933D01*
X123399398Y-77936695D01*
X123404059Y-78024553D01*
X123409989Y-78089317D01*
X123417473Y-78135797D01*
X123426795Y-78168802D01*
X123431265Y-78179667D01*
X123484924Y-78266172D01*
X123558794Y-78324558D01*
X123656029Y-78361423D01*
X123739105Y-78376079D01*
X123850571Y-78385338D01*
X123976814Y-78389073D01*
X124104219Y-78387155D01*
X124219171Y-78379456D01*
X124300583Y-78367508D01*
X124412066Y-78333412D01*
X124491262Y-78282303D01*
X124546869Y-78207779D01*
X124562507Y-78174648D01*
X124573915Y-78143022D01*
X124583059Y-78104537D01*
X124590287Y-78053987D01*
X124595950Y-77986169D01*
X124600396Y-77895879D01*
X124603974Y-77777913D01*
X124607034Y-77627067D01*
X124609391Y-77475875D01*
X124618120Y-76867333D01*
X124618120Y-82589217D01*
X124613834Y-82586334D01*
X124613834Y-80211667D01*
X124613834Y-80095250D01*
X124613834Y-79978833D01*
X124602885Y-79978833D01*
X124602885Y-79487994D01*
X124596344Y-79372183D01*
X124576036Y-79272717D01*
X124543535Y-79200686D01*
X124534519Y-79189188D01*
X124485633Y-79148123D01*
X124417233Y-79116583D01*
X124322492Y-79092456D01*
X124194587Y-79073629D01*
X124143502Y-79068175D01*
X123993023Y-79052912D01*
X123879471Y-79039419D01*
X123797647Y-79025284D01*
X123742354Y-79008091D01*
X123708391Y-78985428D01*
X123690560Y-78954878D01*
X123683663Y-78914029D01*
X123682501Y-78860466D01*
X123682500Y-78854096D01*
X123687897Y-78764702D01*
X123708729Y-78707112D01*
X123751961Y-78671652D01*
X123824556Y-78648651D01*
X123831490Y-78647134D01*
X123979522Y-78625757D01*
X124102417Y-78629486D01*
X124197509Y-78657354D01*
X124262129Y-78708394D01*
X124293613Y-78781640D01*
X124296334Y-78815662D01*
X124300799Y-78837876D01*
X124320344Y-78850361D01*
X124364191Y-78855831D01*
X124436878Y-78857000D01*
X124577423Y-78857000D01*
X124564990Y-78736537D01*
X124542122Y-78625687D01*
X124495978Y-78544030D01*
X124420424Y-78482049D01*
X124390218Y-78465417D01*
X124351303Y-78448326D01*
X124307719Y-78436474D01*
X124251062Y-78428949D01*
X124172928Y-78424839D01*
X124064914Y-78423233D01*
X124000000Y-78423083D01*
X123840230Y-78425444D01*
X123716648Y-78433750D01*
X123623307Y-78449840D01*
X123554261Y-78475549D01*
X123503565Y-78512715D01*
X123465271Y-78563176D01*
X123449273Y-78593231D01*
X123420734Y-78682892D01*
X123405378Y-78796213D01*
X123403655Y-78916480D01*
X123416016Y-79026980D01*
X123435745Y-79095691D01*
X123466460Y-79147839D01*
X123513501Y-79189685D01*
X123581701Y-79222813D01*
X123675894Y-79248809D01*
X123800911Y-79269258D01*
X123961585Y-79285746D01*
X124031750Y-79291212D01*
X124122823Y-79300713D01*
X124202133Y-79314132D01*
X124256910Y-79329116D01*
X124268886Y-79334890D01*
X124309907Y-79383547D01*
X124330261Y-79454864D01*
X124331053Y-79535973D01*
X124313384Y-79614006D01*
X124278357Y-79676094D01*
X124237059Y-79706237D01*
X124191968Y-79714865D01*
X124116739Y-79720419D01*
X124023499Y-79722242D01*
X123961052Y-79721182D01*
X123861150Y-79717238D01*
X123794450Y-79711643D01*
X123751825Y-79702394D01*
X123724144Y-79687487D01*
X123702278Y-79664919D01*
X123701760Y-79664280D01*
X123672957Y-79607153D01*
X123661334Y-79542572D01*
X123661334Y-79470833D01*
X123521311Y-79470833D01*
X123381289Y-79470833D01*
X123396194Y-79592542D01*
X123423614Y-79726813D01*
X123468480Y-79823017D01*
X123531099Y-79881796D01*
X123536198Y-79884547D01*
X123622782Y-79915496D01*
X123740411Y-79937966D01*
X123878498Y-79951165D01*
X124026457Y-79954299D01*
X124173704Y-79946573D01*
X124247369Y-79937871D01*
X124374021Y-79911923D01*
X124465506Y-79872326D01*
X124528323Y-79812917D01*
X124568971Y-79727532D01*
X124593951Y-79610007D01*
X124594086Y-79609059D01*
X124602885Y-79487994D01*
X124602885Y-79978833D01*
X124000000Y-79978833D01*
X123386167Y-79978833D01*
X123386167Y-80730250D01*
X123386167Y-81481667D01*
X123523750Y-81481667D01*
X123661334Y-81481667D01*
X123661334Y-81174750D01*
X123661334Y-80867833D01*
X124074084Y-80867833D01*
X124486834Y-80867833D01*
X124486834Y-80751417D01*
X124486834Y-80635000D01*
X124074084Y-80635000D01*
X123661334Y-80635000D01*
X123661334Y-80423333D01*
X123661334Y-80211667D01*
X124137584Y-80211667D01*
X124613834Y-80211667D01*
X124613834Y-82586334D01*
X124497285Y-82507942D01*
X124324761Y-82389998D01*
X124128447Y-82254132D01*
X124021167Y-82179316D01*
X123847757Y-82057837D01*
X123683415Y-81942206D01*
X123531709Y-81834969D01*
X123396207Y-81738670D01*
X123280475Y-81655855D01*
X123188080Y-81589068D01*
X123122591Y-81540855D01*
X123087574Y-81513760D01*
X123084542Y-81511100D01*
X123026334Y-81456911D01*
X123026334Y-78484085D01*
X123026334Y-75511259D01*
X123081221Y-75400838D01*
X123103573Y-75358055D01*
X123143974Y-75283001D01*
X123199850Y-75180374D01*
X123268624Y-75054871D01*
X123347720Y-74911192D01*
X123434561Y-74754032D01*
X123526572Y-74588091D01*
X123551401Y-74543411D01*
X123656967Y-74354043D01*
X123744297Y-74198753D01*
X123815331Y-74074405D01*
X123872012Y-73977862D01*
X123916279Y-73905986D01*
X123950073Y-73855641D01*
X123975337Y-73823689D01*
X123994010Y-73806994D01*
X124008034Y-73802420D01*
X124009804Y-73802577D01*
X124027764Y-73814387D01*
X124055897Y-73847671D01*
X124095809Y-73904973D01*
X124149108Y-73988838D01*
X124217398Y-74101809D01*
X124302288Y-74246430D01*
X124405383Y-74425245D01*
X124428088Y-74464917D01*
X124519916Y-74625974D01*
X124609242Y-74783485D01*
X124692818Y-74931663D01*
X124767398Y-75064721D01*
X124829735Y-75176872D01*
X124876582Y-75262329D01*
X124899107Y-75304479D01*
X124994954Y-75487874D01*
X124994954Y-75487874D01*
M02*
