M48
;DRILL file {KiCad 0.201505031001+5637~23~ubuntu14.04.1-product} date Tue 26 May 2015 22:06:31 BST
;FORMAT={-:-/ absolute / inch / decimal}
FMAT,2
INCH,TZ
T1C0.008
T2C0.016
T3C0.047
%
G90
G05
M72
T1
X5.4528Y-3.248
X5.4528Y-3.2717
X5.4528Y-3.2953
X5.4528Y-3.3189
X5.4528Y-3.3425
X5.4528Y-3.3661
X5.4724Y-3.248
X5.4724Y-3.2717
X5.4724Y-3.2953
X5.4724Y-3.3189
X5.4724Y-3.3425
X5.4724Y-3.3661
X5.4724Y-3.3898
X5.4724Y-3.4134
X5.4724Y-3.437
X5.4921Y-3.248
X5.4921Y-3.2717
X5.4921Y-3.2953
X5.4921Y-3.3189
X5.4921Y-3.3425
X5.4921Y-3.3661
T2
X4.6457Y-3.3071
X4.6457Y-3.5433
X4.7244Y-3.1496
X4.7244Y-3.3071
X4.7244Y-3.5433
X4.7244Y-3.7008
X4.8031Y-3.2283
X4.8031Y-3.3071
X4.8031Y-3.5433
X4.8031Y-3.622
X4.8819Y-3.1496
X4.8819Y-3.3071
X4.8819Y-3.5433
X4.8819Y-3.7008
X4.9606Y-3.2283
X4.9606Y-3.3071
X4.9606Y-3.5433
X4.9606Y-3.622
X5.0394Y-3.1496
X5.0394Y-3.3071
X5.0394Y-3.5433
X5.0394Y-3.7008
X5.1181Y-3.2283
X5.1181Y-3.3071
X5.1181Y-3.5433
X5.1181Y-3.622
X5.1969Y-3.1496
X5.1969Y-3.3071
X5.1969Y-3.5433
X5.1969Y-3.7008
X5.2756Y-3.2283
X5.2756Y-3.3071
X5.2756Y-3.5433
X5.2756Y-3.622
X5.3543Y-3.1496
X5.3543Y-3.2283
X5.3543Y-3.3071
X5.3543Y-3.5433
X5.3543Y-3.7008
X5.4134Y-3.2283
X5.4134Y-3.2677
X5.4134Y-3.3071
X5.4134Y-3.3465
X5.4331Y-3.5433
X5.4331Y-3.622
X5.4528Y-3.2283
X5.4724Y-3.1496
X5.4921Y-3.2283
X5.5118Y-3.5433
X5.5118Y-3.7008
X5.5315Y-3.2283
X5.5315Y-3.2677
X5.5315Y-3.3071
X5.5315Y-3.3465
X5.5906Y-3.5433
X5.5906Y-3.622
X5.6693Y-3.3071
X5.6693Y-3.5433
X5.6693Y-3.7008
X5.748Y-3.3071
X5.748Y-3.5433
X5.748Y-3.622
X5.8268Y-3.2283
X5.8268Y-3.3071
X5.8268Y-3.5433
X5.8268Y-3.7008
X5.9055Y-3.1496
X5.9055Y-3.3071
X5.9055Y-3.5433
X5.9055Y-3.622
X5.9843Y-3.2283
X5.9843Y-3.3071
X5.9843Y-3.5433
X5.9843Y-3.7008
X6.063Y-3.1496
X6.063Y-3.3071
X6.063Y-3.5433
X6.063Y-3.622
X6.1417Y-3.2283
X6.1417Y-3.3071
X6.1417Y-3.5433
X6.1417Y-3.7008
X6.2205Y-3.1496
X6.2205Y-3.3071
X6.2205Y-3.5433
X6.2992Y-3.3071
X6.2992Y-3.5433
T3
X5.7362Y-3.1677
X5.7362Y-3.2677
T0
M30
