G04 #@! TF.FileFunction,Legend,Top*
%FSLAX46Y46*%
G04 Gerber Fmt 4.6, Leading zero omitted, Abs format (unit mm)*
G04 Created by KiCad (PCBNEW 0.201505031001+5637~23~ubuntu14.04.1-product) date Mon 25 May 2015 03:05:37 BST*
%MOMM*%
G01*
G04 APERTURE LIST*
%ADD10C,0.100000*%
%ADD11C,0.300000*%
%ADD12C,0.150000*%
%ADD13C,0.200000*%
G04 APERTURE END LIST*
D10*
D11*
X159700000Y-81788095D02*
X159947619Y-81788095D01*
X160071428Y-81850000D01*
X160195238Y-81973810D01*
X160257143Y-82221429D01*
X160257143Y-82654762D01*
X160195238Y-82902381D01*
X160071428Y-83026190D01*
X159947619Y-83088095D01*
X159700000Y-83088095D01*
X159576190Y-83026190D01*
X159452381Y-82902381D01*
X159390476Y-82654762D01*
X159390476Y-82221429D01*
X159452381Y-81973810D01*
X159576190Y-81850000D01*
X159700000Y-81788095D01*
X160814286Y-81788095D02*
X160814286Y-82840476D01*
X160876191Y-82964286D01*
X160938095Y-83026190D01*
X161061905Y-83088095D01*
X161309524Y-83088095D01*
X161433333Y-83026190D01*
X161495238Y-82964286D01*
X161557143Y-82840476D01*
X161557143Y-81788095D01*
X161990477Y-81788095D02*
X162733334Y-81788095D01*
X162361905Y-83088095D02*
X162361905Y-81788095D01*
X115319048Y-83088095D02*
X115319048Y-81788095D01*
X115938096Y-83088095D02*
X115938096Y-81788095D01*
X116680953Y-83088095D01*
X116680953Y-81788095D01*
X146414286Y-97062857D02*
X145728571Y-97062857D01*
X146071429Y-97062857D02*
X146071429Y-95862857D01*
X145957143Y-96034286D01*
X145842857Y-96148571D01*
X145728571Y-96205714D01*
X147157143Y-95862857D02*
X147271428Y-95862857D01*
X147385714Y-95920000D01*
X147442857Y-95977143D01*
X147500000Y-96091429D01*
X147557143Y-96320000D01*
X147557143Y-96605714D01*
X147500000Y-96834286D01*
X147442857Y-96948571D01*
X147385714Y-97005714D01*
X147271428Y-97062857D01*
X147157143Y-97062857D01*
X147042857Y-97005714D01*
X146985714Y-96948571D01*
X146928571Y-96834286D01*
X146871428Y-96605714D01*
X146871428Y-96320000D01*
X146928571Y-96091429D01*
X146985714Y-95977143D01*
X147042857Y-95920000D01*
X147157143Y-95862857D01*
X148071428Y-97062857D02*
X148071428Y-96262857D01*
X148071428Y-96377143D02*
X148128571Y-96320000D01*
X148242857Y-96262857D01*
X148414285Y-96262857D01*
X148528571Y-96320000D01*
X148585714Y-96434286D01*
X148585714Y-97062857D01*
X148585714Y-96434286D02*
X148642857Y-96320000D01*
X148757143Y-96262857D01*
X148928571Y-96262857D01*
X149042857Y-96320000D01*
X149100000Y-96434286D01*
X149100000Y-97062857D01*
X149557143Y-95862857D02*
X149842857Y-97062857D01*
X150071428Y-96205714D01*
X150300000Y-97062857D01*
X150585714Y-95862857D01*
X152471429Y-96262857D02*
X152471429Y-97062857D01*
X152185715Y-95805714D02*
X151900000Y-96662857D01*
X152642858Y-96662857D01*
X152985715Y-95862857D02*
X153728572Y-95862857D01*
X153328572Y-96320000D01*
X153500000Y-96320000D01*
X153614286Y-96377143D01*
X153671429Y-96434286D01*
X153728572Y-96548571D01*
X153728572Y-96834286D01*
X153671429Y-96948571D01*
X153614286Y-97005714D01*
X153500000Y-97062857D01*
X153157143Y-97062857D01*
X153042857Y-97005714D01*
X152985715Y-96948571D01*
X154757143Y-96262857D02*
X154757143Y-97062857D01*
X154471429Y-95805714D02*
X154185714Y-96662857D01*
X154928572Y-96662857D01*
X155385714Y-97062857D02*
X155385714Y-95862857D01*
X155785714Y-96720000D01*
X156185714Y-95862857D01*
X156185714Y-97062857D01*
X156757143Y-97062857D02*
X156757143Y-95862857D01*
X156757143Y-96434286D02*
X157442858Y-96434286D01*
X157442858Y-97062857D02*
X157442858Y-95862857D01*
X157900001Y-96262857D02*
X158528572Y-96262857D01*
X157900001Y-97062857D01*
X158528572Y-97062857D01*
X159900001Y-97062857D02*
X159900001Y-96262857D01*
X159900001Y-95862857D02*
X159842858Y-95920000D01*
X159900001Y-95977143D01*
X159957144Y-95920000D01*
X159900001Y-95862857D01*
X159900001Y-95977143D01*
X160471430Y-96262857D02*
X160471430Y-97062857D01*
X160471430Y-96377143D02*
X160528573Y-96320000D01*
X160642859Y-96262857D01*
X160814287Y-96262857D01*
X160928573Y-96320000D01*
X160985716Y-96434286D01*
X160985716Y-97062857D01*
X146357143Y-97842857D02*
X145785714Y-97842857D01*
X145728571Y-98414286D01*
X145785714Y-98357143D01*
X145900000Y-98300000D01*
X146185714Y-98300000D01*
X146300000Y-98357143D01*
X146357143Y-98414286D01*
X146414286Y-98528571D01*
X146414286Y-98814286D01*
X146357143Y-98928571D01*
X146300000Y-98985714D01*
X146185714Y-99042857D01*
X145900000Y-99042857D01*
X145785714Y-98985714D01*
X145728571Y-98928571D01*
X147157143Y-97842857D02*
X147271428Y-97842857D01*
X147385714Y-97900000D01*
X147442857Y-97957143D01*
X147500000Y-98071429D01*
X147557143Y-98300000D01*
X147557143Y-98585714D01*
X147500000Y-98814286D01*
X147442857Y-98928571D01*
X147385714Y-98985714D01*
X147271428Y-99042857D01*
X147157143Y-99042857D01*
X147042857Y-98985714D01*
X146985714Y-98928571D01*
X146928571Y-98814286D01*
X146871428Y-98585714D01*
X146871428Y-98300000D01*
X146928571Y-98071429D01*
X146985714Y-97957143D01*
X147042857Y-97900000D01*
X147157143Y-97842857D01*
X148300000Y-97842857D02*
X148414285Y-97842857D01*
X148528571Y-97900000D01*
X148585714Y-97957143D01*
X148642857Y-98071429D01*
X148700000Y-98300000D01*
X148700000Y-98585714D01*
X148642857Y-98814286D01*
X148585714Y-98928571D01*
X148528571Y-98985714D01*
X148414285Y-99042857D01*
X148300000Y-99042857D01*
X148185714Y-98985714D01*
X148128571Y-98928571D01*
X148071428Y-98814286D01*
X148014285Y-98585714D01*
X148014285Y-98300000D01*
X148071428Y-98071429D01*
X148128571Y-97957143D01*
X148185714Y-97900000D01*
X148300000Y-97842857D01*
X149214285Y-99042857D02*
X149214285Y-98242857D01*
X149214285Y-98357143D02*
X149271428Y-98300000D01*
X149385714Y-98242857D01*
X149557142Y-98242857D01*
X149671428Y-98300000D01*
X149728571Y-98414286D01*
X149728571Y-99042857D01*
X149728571Y-98414286D02*
X149785714Y-98300000D01*
X149900000Y-98242857D01*
X150071428Y-98242857D01*
X150185714Y-98300000D01*
X150242857Y-98414286D01*
X150242857Y-99042857D01*
X150700000Y-97842857D02*
X150985714Y-99042857D01*
X151214285Y-98185714D01*
X151442857Y-99042857D01*
X151728571Y-97842857D01*
X153271429Y-99042857D02*
X153157143Y-98985714D01*
X153100000Y-98928571D01*
X153042857Y-98814286D01*
X153042857Y-98471429D01*
X153100000Y-98357143D01*
X153157143Y-98300000D01*
X153271429Y-98242857D01*
X153442857Y-98242857D01*
X153557143Y-98300000D01*
X153614286Y-98357143D01*
X153671429Y-98471429D01*
X153671429Y-98814286D01*
X153614286Y-98928571D01*
X153557143Y-98985714D01*
X153442857Y-99042857D01*
X153271429Y-99042857D01*
X154700000Y-98242857D02*
X154700000Y-99042857D01*
X154185714Y-98242857D02*
X154185714Y-98871429D01*
X154242857Y-98985714D01*
X154357143Y-99042857D01*
X154528571Y-99042857D01*
X154642857Y-98985714D01*
X154700000Y-98928571D01*
X155100000Y-98242857D02*
X155557143Y-98242857D01*
X155271428Y-97842857D02*
X155271428Y-98871429D01*
X155328571Y-98985714D01*
X155442857Y-99042857D01*
X155557143Y-99042857D01*
X146357143Y-99822857D02*
X145785714Y-99822857D01*
X145728571Y-100394286D01*
X145785714Y-100337143D01*
X145900000Y-100280000D01*
X146185714Y-100280000D01*
X146300000Y-100337143D01*
X146357143Y-100394286D01*
X146414286Y-100508571D01*
X146414286Y-100794286D01*
X146357143Y-100908571D01*
X146300000Y-100965714D01*
X146185714Y-101022857D01*
X145900000Y-101022857D01*
X145785714Y-100965714D01*
X145728571Y-100908571D01*
X146757143Y-99822857D02*
X147157143Y-101022857D01*
X147557143Y-99822857D01*
X147957142Y-101022857D02*
X147957142Y-99822857D01*
X148242857Y-99822857D01*
X148414285Y-99880000D01*
X148528571Y-99994286D01*
X148585714Y-100108571D01*
X148642857Y-100337143D01*
X148642857Y-100508571D01*
X148585714Y-100737143D01*
X148528571Y-100851429D01*
X148414285Y-100965714D01*
X148242857Y-101022857D01*
X147957142Y-101022857D01*
X149842857Y-100908571D02*
X149785714Y-100965714D01*
X149614285Y-101022857D01*
X149499999Y-101022857D01*
X149328571Y-100965714D01*
X149214285Y-100851429D01*
X149157142Y-100737143D01*
X149099999Y-100508571D01*
X149099999Y-100337143D01*
X149157142Y-100108571D01*
X149214285Y-99994286D01*
X149328571Y-99880000D01*
X149499999Y-99822857D01*
X149614285Y-99822857D01*
X149785714Y-99880000D01*
X149842857Y-99937143D01*
X151900000Y-101022857D02*
X151214285Y-101022857D01*
X151557143Y-101022857D02*
X151557143Y-99822857D01*
X151442857Y-99994286D01*
X151328571Y-100108571D01*
X151214285Y-100165714D01*
X152985714Y-99822857D02*
X152414285Y-99822857D01*
X152357142Y-100394286D01*
X152414285Y-100337143D01*
X152528571Y-100280000D01*
X152814285Y-100280000D01*
X152928571Y-100337143D01*
X152985714Y-100394286D01*
X153042857Y-100508571D01*
X153042857Y-100794286D01*
X152985714Y-100908571D01*
X152928571Y-100965714D01*
X152814285Y-101022857D01*
X152528571Y-101022857D01*
X152414285Y-100965714D01*
X152357142Y-100908571D01*
X153785714Y-99822857D02*
X153899999Y-99822857D01*
X154014285Y-99880000D01*
X154071428Y-99937143D01*
X154128571Y-100051429D01*
X154185714Y-100280000D01*
X154185714Y-100565714D01*
X154128571Y-100794286D01*
X154071428Y-100908571D01*
X154014285Y-100965714D01*
X153899999Y-101022857D01*
X153785714Y-101022857D01*
X153671428Y-100965714D01*
X153614285Y-100908571D01*
X153557142Y-100794286D01*
X153499999Y-100565714D01*
X153499999Y-100280000D01*
X153557142Y-100051429D01*
X153614285Y-99937143D01*
X153671428Y-99880000D01*
X153785714Y-99822857D01*
X154699999Y-101022857D02*
X154699999Y-100222857D01*
X154699999Y-100337143D02*
X154757142Y-100280000D01*
X154871428Y-100222857D01*
X155042856Y-100222857D01*
X155157142Y-100280000D01*
X155214285Y-100394286D01*
X155214285Y-101022857D01*
X155214285Y-100394286D02*
X155271428Y-100280000D01*
X155385714Y-100222857D01*
X155557142Y-100222857D01*
X155671428Y-100280000D01*
X155728571Y-100394286D01*
X155728571Y-101022857D01*
X156242856Y-100680000D02*
X156814285Y-100680000D01*
X156128571Y-101022857D02*
X156528571Y-99822857D01*
X156928571Y-101022857D01*
X121107143Y-77000000D02*
X121107143Y-75857143D01*
X121107143Y-75142857D02*
X121107143Y-74000000D01*
X121678571Y-74571429D02*
X120535714Y-74571429D01*
X118185714Y-96101429D02*
X118433333Y-96968095D01*
X118680952Y-96349048D01*
X118928571Y-96968095D01*
X119176190Y-96101429D01*
X119547619Y-96101429D02*
X119795238Y-96968095D01*
X120042857Y-96349048D01*
X120290476Y-96968095D01*
X120538095Y-96101429D01*
X120909524Y-96101429D02*
X121157143Y-96968095D01*
X121404762Y-96349048D01*
X121652381Y-96968095D01*
X121900000Y-96101429D01*
X122395239Y-96844286D02*
X122457144Y-96906190D01*
X122395239Y-96968095D01*
X122333334Y-96906190D01*
X122395239Y-96844286D01*
X122395239Y-96968095D01*
X123571430Y-96906190D02*
X123447620Y-96968095D01*
X123200001Y-96968095D01*
X123076192Y-96906190D01*
X123014287Y-96844286D01*
X122952382Y-96720476D01*
X122952382Y-96349048D01*
X123014287Y-96225238D01*
X123076192Y-96163333D01*
X123200001Y-96101429D01*
X123447620Y-96101429D01*
X123571430Y-96163333D01*
X124685716Y-96101429D02*
X124685716Y-96968095D01*
X124128573Y-96101429D02*
X124128573Y-96782381D01*
X124190478Y-96906190D01*
X124314287Y-96968095D01*
X124500001Y-96968095D01*
X124623811Y-96906190D01*
X124685716Y-96844286D01*
X125242858Y-96906190D02*
X125366668Y-96968095D01*
X125614287Y-96968095D01*
X125738096Y-96906190D01*
X125800001Y-96782381D01*
X125800001Y-96720476D01*
X125738096Y-96596667D01*
X125614287Y-96534762D01*
X125428572Y-96534762D01*
X125304763Y-96472857D01*
X125242858Y-96349048D01*
X125242858Y-96287143D01*
X125304763Y-96163333D01*
X125428572Y-96101429D01*
X125614287Y-96101429D01*
X125738096Y-96163333D01*
X126171430Y-96101429D02*
X126666668Y-96101429D01*
X126357144Y-96968095D02*
X126357144Y-95853810D01*
X126419049Y-95730000D01*
X126542858Y-95668095D01*
X126666668Y-95668095D01*
X127100001Y-96844286D02*
X127161906Y-96906190D01*
X127100001Y-96968095D01*
X127038096Y-96906190D01*
X127100001Y-96844286D01*
X127100001Y-96968095D01*
X128276192Y-96906190D02*
X128152382Y-96968095D01*
X127904763Y-96968095D01*
X127780954Y-96906190D01*
X127719049Y-96844286D01*
X127657144Y-96720476D01*
X127657144Y-96349048D01*
X127719049Y-96225238D01*
X127780954Y-96163333D01*
X127904763Y-96101429D01*
X128152382Y-96101429D01*
X128276192Y-96163333D01*
X129019049Y-96968095D02*
X128895240Y-96906190D01*
X128833335Y-96844286D01*
X128771430Y-96720476D01*
X128771430Y-96349048D01*
X128833335Y-96225238D01*
X128895240Y-96163333D01*
X129019049Y-96101429D01*
X129204763Y-96101429D01*
X129328573Y-96163333D01*
X129390478Y-96225238D01*
X129452382Y-96349048D01*
X129452382Y-96720476D01*
X129390478Y-96844286D01*
X129328573Y-96906190D01*
X129204763Y-96968095D01*
X129019049Y-96968095D01*
X130009525Y-96844286D02*
X130071430Y-96906190D01*
X130009525Y-96968095D01*
X129947620Y-96906190D01*
X130009525Y-96844286D01*
X130009525Y-96968095D01*
X131185716Y-96101429D02*
X131185716Y-96968095D01*
X130628573Y-96101429D02*
X130628573Y-96782381D01*
X130690478Y-96906190D01*
X130814287Y-96968095D01*
X131000001Y-96968095D01*
X131123811Y-96906190D01*
X131185716Y-96844286D01*
X131804763Y-96968095D02*
X131804763Y-95668095D01*
X131928572Y-96472857D02*
X132300001Y-96968095D01*
X132300001Y-96101429D02*
X131804763Y-96596667D01*
X118309524Y-99088095D02*
X118309524Y-98221429D01*
X118309524Y-98469048D02*
X118371429Y-98345238D01*
X118433333Y-98283333D01*
X118557143Y-98221429D01*
X118680952Y-98221429D01*
X119795238Y-99088095D02*
X119052381Y-99088095D01*
X119423810Y-99088095D02*
X119423810Y-97788095D01*
X119300000Y-97973810D01*
X119176191Y-98097619D01*
X119052381Y-98159524D01*
X121280952Y-97911905D02*
X121342857Y-97850000D01*
X121466666Y-97788095D01*
X121776190Y-97788095D01*
X121900000Y-97850000D01*
X121961904Y-97911905D01*
X122023809Y-98035714D01*
X122023809Y-98159524D01*
X121961904Y-98345238D01*
X121219047Y-99088095D01*
X122023809Y-99088095D01*
X122828571Y-97788095D02*
X122952380Y-97788095D01*
X123076190Y-97850000D01*
X123138095Y-97911905D01*
X123199999Y-98035714D01*
X123261904Y-98283333D01*
X123261904Y-98592857D01*
X123199999Y-98840476D01*
X123138095Y-98964286D01*
X123076190Y-99026190D01*
X122952380Y-99088095D01*
X122828571Y-99088095D01*
X122704761Y-99026190D01*
X122642857Y-98964286D01*
X122580952Y-98840476D01*
X122519047Y-98592857D01*
X122519047Y-98283333D01*
X122580952Y-98035714D01*
X122642857Y-97911905D01*
X122704761Y-97850000D01*
X122828571Y-97788095D01*
X124499999Y-99088095D02*
X123757142Y-99088095D01*
X124128571Y-99088095D02*
X124128571Y-97788095D01*
X124004761Y-97973810D01*
X123880952Y-98097619D01*
X123757142Y-98159524D01*
X125676189Y-97788095D02*
X125057142Y-97788095D01*
X124995237Y-98407143D01*
X125057142Y-98345238D01*
X125180951Y-98283333D01*
X125490475Y-98283333D01*
X125614285Y-98345238D01*
X125676189Y-98407143D01*
X125738094Y-98530952D01*
X125738094Y-98840476D01*
X125676189Y-98964286D01*
X125614285Y-99026190D01*
X125490475Y-99088095D01*
X125180951Y-99088095D01*
X125057142Y-99026190D01*
X124995237Y-98964286D01*
X126295237Y-98592857D02*
X127285713Y-98592857D01*
X128152380Y-97788095D02*
X128276189Y-97788095D01*
X128399999Y-97850000D01*
X128461904Y-97911905D01*
X128523808Y-98035714D01*
X128585713Y-98283333D01*
X128585713Y-98592857D01*
X128523808Y-98840476D01*
X128461904Y-98964286D01*
X128399999Y-99026190D01*
X128276189Y-99088095D01*
X128152380Y-99088095D01*
X128028570Y-99026190D01*
X127966666Y-98964286D01*
X127904761Y-98840476D01*
X127842856Y-98592857D01*
X127842856Y-98283333D01*
X127904761Y-98035714D01*
X127966666Y-97911905D01*
X128028570Y-97850000D01*
X128152380Y-97788095D01*
X129761903Y-97788095D02*
X129142856Y-97788095D01*
X129080951Y-98407143D01*
X129142856Y-98345238D01*
X129266665Y-98283333D01*
X129576189Y-98283333D01*
X129699999Y-98345238D01*
X129761903Y-98407143D01*
X129823808Y-98530952D01*
X129823808Y-98840476D01*
X129761903Y-98964286D01*
X129699999Y-99026190D01*
X129576189Y-99088095D01*
X129266665Y-99088095D01*
X129142856Y-99026190D01*
X129080951Y-98964286D01*
X130380951Y-98592857D02*
X131371427Y-98592857D01*
X131928570Y-97911905D02*
X131990475Y-97850000D01*
X132114284Y-97788095D01*
X132423808Y-97788095D01*
X132547618Y-97850000D01*
X132609522Y-97911905D01*
X132671427Y-98035714D01*
X132671427Y-98159524D01*
X132609522Y-98345238D01*
X131866665Y-99088095D01*
X132671427Y-99088095D01*
X133104760Y-97788095D02*
X133909522Y-97788095D01*
X133476189Y-98283333D01*
X133661903Y-98283333D01*
X133785713Y-98345238D01*
X133847617Y-98407143D01*
X133909522Y-98530952D01*
X133909522Y-98840476D01*
X133847617Y-98964286D01*
X133785713Y-99026190D01*
X133661903Y-99088095D01*
X133290475Y-99088095D01*
X133166665Y-99026190D01*
X133104760Y-98964286D01*
X118247619Y-100836667D02*
X118866667Y-100836667D01*
X118123810Y-101208095D02*
X118557143Y-99908095D01*
X118990476Y-101208095D01*
X119980953Y-101208095D02*
X119980953Y-99908095D01*
X119980953Y-101146190D02*
X119857143Y-101208095D01*
X119609524Y-101208095D01*
X119485715Y-101146190D01*
X119423810Y-101084286D01*
X119361905Y-100960476D01*
X119361905Y-100589048D01*
X119423810Y-100465238D01*
X119485715Y-100403333D01*
X119609524Y-100341429D01*
X119857143Y-100341429D01*
X119980953Y-100403333D01*
X121157143Y-101208095D02*
X121157143Y-100527143D01*
X121095238Y-100403333D01*
X120971428Y-100341429D01*
X120723809Y-100341429D01*
X120600000Y-100403333D01*
X121157143Y-101146190D02*
X121033333Y-101208095D01*
X120723809Y-101208095D01*
X120600000Y-101146190D01*
X120538095Y-101022381D01*
X120538095Y-100898571D01*
X120600000Y-100774762D01*
X120723809Y-100712857D01*
X121033333Y-100712857D01*
X121157143Y-100650952D01*
X121776190Y-101208095D02*
X121776190Y-100341429D01*
X121776190Y-100465238D02*
X121838095Y-100403333D01*
X121961904Y-100341429D01*
X122147618Y-100341429D01*
X122271428Y-100403333D01*
X122333333Y-100527143D01*
X122333333Y-101208095D01*
X122333333Y-100527143D02*
X122395237Y-100403333D01*
X122519047Y-100341429D01*
X122704761Y-100341429D01*
X122828571Y-100403333D01*
X122890476Y-100527143D01*
X122890476Y-101208095D01*
X125180951Y-99970000D02*
X125057142Y-99908095D01*
X124871427Y-99908095D01*
X124685713Y-99970000D01*
X124561904Y-100093810D01*
X124499999Y-100217619D01*
X124438094Y-100465238D01*
X124438094Y-100650952D01*
X124499999Y-100898571D01*
X124561904Y-101022381D01*
X124685713Y-101146190D01*
X124871427Y-101208095D01*
X124995237Y-101208095D01*
X125180951Y-101146190D01*
X125242856Y-101084286D01*
X125242856Y-100650952D01*
X124995237Y-100650952D01*
X125799999Y-101208095D02*
X125799999Y-100341429D01*
X125799999Y-100589048D02*
X125861904Y-100465238D01*
X125923808Y-100403333D01*
X126047618Y-100341429D01*
X126171427Y-100341429D01*
X127099999Y-101146190D02*
X126976189Y-101208095D01*
X126728570Y-101208095D01*
X126604761Y-101146190D01*
X126542856Y-101022381D01*
X126542856Y-100527143D01*
X126604761Y-100403333D01*
X126728570Y-100341429D01*
X126976189Y-100341429D01*
X127099999Y-100403333D01*
X127161904Y-100527143D01*
X127161904Y-100650952D01*
X126542856Y-100774762D01*
X127719047Y-101208095D02*
X127719047Y-100341429D01*
X127719047Y-99908095D02*
X127657142Y-99970000D01*
X127719047Y-100031905D01*
X127780952Y-99970000D01*
X127719047Y-99908095D01*
X127719047Y-100031905D01*
X128895238Y-100341429D02*
X128895238Y-101393810D01*
X128833333Y-101517619D01*
X128771428Y-101579524D01*
X128647619Y-101641429D01*
X128461904Y-101641429D01*
X128338095Y-101579524D01*
X128895238Y-101146190D02*
X128771428Y-101208095D01*
X128523809Y-101208095D01*
X128400000Y-101146190D01*
X128338095Y-101084286D01*
X128276190Y-100960476D01*
X128276190Y-100589048D01*
X128338095Y-100465238D01*
X128400000Y-100403333D01*
X128523809Y-100341429D01*
X128771428Y-100341429D01*
X128895238Y-100403333D01*
X118357143Y-93678571D02*
X118357143Y-92178571D01*
X118857143Y-93250000D01*
X119357143Y-92178571D01*
X119357143Y-93678571D01*
X120000000Y-92321429D02*
X120071429Y-92250000D01*
X120214286Y-92178571D01*
X120571429Y-92178571D01*
X120714286Y-92250000D01*
X120785715Y-92321429D01*
X120857143Y-92464286D01*
X120857143Y-92607143D01*
X120785715Y-92821429D01*
X119928572Y-93678571D01*
X120857143Y-93678571D01*
X121500000Y-93678571D02*
X121500000Y-92178571D01*
X122071428Y-92178571D01*
X122214286Y-92250000D01*
X122285714Y-92321429D01*
X122357143Y-92464286D01*
X122357143Y-92678571D01*
X122285714Y-92821429D01*
X122214286Y-92892857D01*
X122071428Y-92964286D01*
X121500000Y-92964286D01*
X122928571Y-93250000D02*
X123642857Y-93250000D01*
X122785714Y-93678571D02*
X123285714Y-92178571D01*
X123785714Y-93678571D01*
D12*
X123900000Y-86610000D02*
X122200000Y-86610000D01*
X123900000Y-87410000D02*
X122200000Y-87410000D01*
X127710000Y-89040000D02*
X127710000Y-87340000D01*
X126910000Y-89040000D02*
X126910000Y-87340000D01*
X143350000Y-83100000D02*
X141650000Y-83100000D01*
X143350000Y-83900000D02*
X141650000Y-83900000D01*
X141250000Y-81750000D02*
X143350000Y-81750000D01*
X143350000Y-82750000D02*
X141250000Y-82750000D01*
X151580000Y-89050000D02*
X151580000Y-87350000D01*
X150780000Y-89050000D02*
X150780000Y-87350000D01*
X143600000Y-79250000D02*
X139300000Y-79250000D01*
X143600000Y-81250000D02*
X139300000Y-81250000D01*
X152950000Y-87400000D02*
X154650000Y-87400000D01*
X152950000Y-86600000D02*
X154650000Y-86600000D01*
X114650000Y-86700000D02*
X114650000Y-88400000D01*
X115350000Y-86700000D02*
X115350000Y-88400000D01*
X162650000Y-86700000D02*
X162650000Y-88400000D01*
X163350000Y-86700000D02*
X163350000Y-88400000D01*
X132590000Y-86400000D02*
X130690000Y-86400000D01*
X132590000Y-87600000D02*
X130690000Y-87600000D01*
X142600000Y-86300000D02*
X142600000Y-84400000D01*
X141400000Y-86300000D02*
X141400000Y-84400000D01*
X148560000Y-86600000D02*
X147360000Y-86600000D01*
X148560000Y-87400000D02*
X147360000Y-87400000D01*
D13*
X117000000Y-73500000D02*
X117000000Y-73800000D01*
X117000000Y-75800000D02*
X117000000Y-75200000D01*
X117000000Y-77500000D02*
X117000000Y-77200000D01*
X121000000Y-72500000D02*
X121000000Y-73500000D01*
X121000000Y-73500000D02*
X117000000Y-73500000D01*
X121000000Y-78500000D02*
X121000000Y-77500000D01*
X121000000Y-77500000D02*
X117000000Y-77500000D01*
X109300000Y-72500000D02*
X109300000Y-78500000D01*
X114500000Y-72500000D02*
X109300000Y-72500000D01*
X121000000Y-72500000D02*
X116300000Y-72500000D01*
X116300000Y-78500000D02*
X121000000Y-78500000D01*
X109300000Y-78500000D02*
X114500000Y-78500000D01*
D12*
X134750000Y-86650000D02*
X133050000Y-86650000D01*
X134750000Y-87350000D02*
X133050000Y-87350000D01*
X119150000Y-74700000D02*
X119150000Y-76400000D01*
X119850000Y-74700000D02*
X119850000Y-76400000D01*
X169167000Y-81412000D02*
X169167000Y-92588000D01*
X108833000Y-92588000D02*
X108833000Y-81412000D01*
X140500000Y-86100000D02*
X141000000Y-86100000D01*
X141000000Y-86100000D02*
X141000000Y-83600000D01*
X141000000Y-83600000D02*
X140500000Y-83600000D01*
X137500000Y-83600000D02*
X137000000Y-83600000D01*
X137000000Y-83600000D02*
X137000000Y-86100000D01*
X137000000Y-86100000D02*
X137500000Y-86100000D01*
X140500000Y-86100000D02*
X139700000Y-86100000D01*
X137500000Y-86100000D02*
X138300000Y-86100000D01*
X140200000Y-83600000D02*
X140500000Y-83600000D01*
X137500000Y-83600000D02*
X137800000Y-83600000D01*
D10*
G36*
X116995736Y-104138875D02*
X116993366Y-104187746D01*
X116972523Y-104218489D01*
X116954842Y-104223000D01*
X116930121Y-104211207D01*
X116874208Y-104177355D01*
X116790543Y-104123733D01*
X116682563Y-104052633D01*
X116553707Y-103966343D01*
X116407414Y-103867155D01*
X116247121Y-103757357D01*
X116076267Y-103639240D01*
X116028800Y-103606240D01*
X115854527Y-103484672D01*
X115689338Y-103368944D01*
X115536790Y-103261580D01*
X115400440Y-103165108D01*
X115283844Y-103082054D01*
X115190559Y-103014943D01*
X115124142Y-102966302D01*
X115088149Y-102938657D01*
X115084542Y-102935530D01*
X115038296Y-102873875D01*
X115026334Y-102808989D01*
X115029800Y-102760576D01*
X115045620Y-102743531D01*
X115074288Y-102745565D01*
X115098883Y-102758810D01*
X115154107Y-102793668D01*
X115235971Y-102847387D01*
X115340488Y-102917211D01*
X115463669Y-103000388D01*
X115601526Y-103094163D01*
X115750070Y-103195783D01*
X115905314Y-103302495D01*
X116063270Y-103411543D01*
X116219948Y-103520175D01*
X116371361Y-103625637D01*
X116513521Y-103725175D01*
X116642440Y-103816035D01*
X116754128Y-103895464D01*
X116844598Y-103960707D01*
X116909862Y-104009012D01*
X116945932Y-104037623D01*
X116947209Y-104038770D01*
X116980170Y-104084882D01*
X116995736Y-104138875D01*
X116995736Y-104138875D01*
X116995736Y-104138875D01*
G37*
X116995736Y-104138875D02*
X116993366Y-104187746D01*
X116972523Y-104218489D01*
X116954842Y-104223000D01*
X116930121Y-104211207D01*
X116874208Y-104177355D01*
X116790543Y-104123733D01*
X116682563Y-104052633D01*
X116553707Y-103966343D01*
X116407414Y-103867155D01*
X116247121Y-103757357D01*
X116076267Y-103639240D01*
X116028800Y-103606240D01*
X115854527Y-103484672D01*
X115689338Y-103368944D01*
X115536790Y-103261580D01*
X115400440Y-103165108D01*
X115283844Y-103082054D01*
X115190559Y-103014943D01*
X115124142Y-102966302D01*
X115088149Y-102938657D01*
X115084542Y-102935530D01*
X115038296Y-102873875D01*
X115026334Y-102808989D01*
X115029800Y-102760576D01*
X115045620Y-102743531D01*
X115074288Y-102745565D01*
X115098883Y-102758810D01*
X115154107Y-102793668D01*
X115235971Y-102847387D01*
X115340488Y-102917211D01*
X115463669Y-103000388D01*
X115601526Y-103094163D01*
X115750070Y-103195783D01*
X115905314Y-103302495D01*
X116063270Y-103411543D01*
X116219948Y-103520175D01*
X116371361Y-103625637D01*
X116513521Y-103725175D01*
X116642440Y-103816035D01*
X116754128Y-103895464D01*
X116844598Y-103960707D01*
X116909862Y-104009012D01*
X116945932Y-104037623D01*
X116947209Y-104038770D01*
X116980170Y-104084882D01*
X116995736Y-104138875D01*
X116995736Y-104138875D01*
G36*
X116996748Y-103594801D02*
X116983434Y-103636726D01*
X116957253Y-103651500D01*
X116933072Y-103639695D01*
X116877671Y-103605795D01*
X116794447Y-103552075D01*
X116686797Y-103480809D01*
X116558118Y-103394270D01*
X116411806Y-103294732D01*
X116251259Y-103184469D01*
X116079873Y-103065756D01*
X116020628Y-103024494D01*
X115845603Y-102902236D01*
X115680001Y-102786186D01*
X115527289Y-102678802D01*
X115390936Y-102582539D01*
X115274410Y-102499853D01*
X115181180Y-102433202D01*
X115114714Y-102385041D01*
X115078480Y-102357826D01*
X115073959Y-102354055D01*
X115044669Y-102310728D01*
X115027541Y-102253450D01*
X115023346Y-102195206D01*
X115032852Y-102148978D01*
X115056834Y-102127751D01*
X115060508Y-102127500D01*
X115083315Y-102139257D01*
X115136766Y-102172714D01*
X115216927Y-102225147D01*
X115319864Y-102293835D01*
X115441641Y-102376054D01*
X115578326Y-102469082D01*
X115725982Y-102570196D01*
X115880677Y-102676674D01*
X116038476Y-102785792D01*
X116195444Y-102894828D01*
X116347647Y-103001060D01*
X116491151Y-103101765D01*
X116622021Y-103194219D01*
X116736324Y-103275701D01*
X116830124Y-103343488D01*
X116899488Y-103394856D01*
X116940480Y-103427085D01*
X116947209Y-103433151D01*
X116978047Y-103480230D01*
X116994756Y-103538374D01*
X116996748Y-103594801D01*
X116996748Y-103594801D01*
X116996748Y-103594801D01*
G37*
X116996748Y-103594801D02*
X116983434Y-103636726D01*
X116957253Y-103651500D01*
X116933072Y-103639695D01*
X116877671Y-103605795D01*
X116794447Y-103552075D01*
X116686797Y-103480809D01*
X116558118Y-103394270D01*
X116411806Y-103294732D01*
X116251259Y-103184469D01*
X116079873Y-103065756D01*
X116020628Y-103024494D01*
X115845603Y-102902236D01*
X115680001Y-102786186D01*
X115527289Y-102678802D01*
X115390936Y-102582539D01*
X115274410Y-102499853D01*
X115181180Y-102433202D01*
X115114714Y-102385041D01*
X115078480Y-102357826D01*
X115073959Y-102354055D01*
X115044669Y-102310728D01*
X115027541Y-102253450D01*
X115023346Y-102195206D01*
X115032852Y-102148978D01*
X115056834Y-102127751D01*
X115060508Y-102127500D01*
X115083315Y-102139257D01*
X115136766Y-102172714D01*
X115216927Y-102225147D01*
X115319864Y-102293835D01*
X115441641Y-102376054D01*
X115578326Y-102469082D01*
X115725982Y-102570196D01*
X115880677Y-102676674D01*
X116038476Y-102785792D01*
X116195444Y-102894828D01*
X116347647Y-103001060D01*
X116491151Y-103101765D01*
X116622021Y-103194219D01*
X116736324Y-103275701D01*
X116830124Y-103343488D01*
X116899488Y-103394856D01*
X116940480Y-103427085D01*
X116947209Y-103433151D01*
X116978047Y-103480230D01*
X116994756Y-103538374D01*
X116996748Y-103594801D01*
X116996748Y-103594801D01*
G36*
X116994834Y-102925960D02*
X116992604Y-102992050D01*
X116983617Y-103025823D01*
X116964423Y-103037161D01*
X116955856Y-103037667D01*
X116931394Y-103025859D01*
X116875726Y-102991954D01*
X116792258Y-102938228D01*
X116684395Y-102866958D01*
X116555543Y-102780421D01*
X116409109Y-102680891D01*
X116248499Y-102570647D01*
X116077118Y-102451965D01*
X116019231Y-102411651D01*
X115844292Y-102289432D01*
X115678747Y-102173358D01*
X115526074Y-102065897D01*
X115389748Y-101969514D01*
X115273246Y-101886676D01*
X115180046Y-101819850D01*
X115113623Y-101771503D01*
X115077456Y-101744102D01*
X115073038Y-101740346D01*
X115044389Y-101706540D01*
X115031232Y-101665392D01*
X115029624Y-101601774D01*
X115030705Y-101577904D01*
X115036162Y-101510443D01*
X115046180Y-101475413D01*
X115065065Y-101462911D01*
X115081081Y-101462059D01*
X115106579Y-101474166D01*
X115162554Y-101508120D01*
X115245032Y-101561161D01*
X115350040Y-101630532D01*
X115473606Y-101713472D01*
X115611756Y-101807225D01*
X115760519Y-101909030D01*
X115915920Y-102016130D01*
X116073989Y-102125765D01*
X116230751Y-102235178D01*
X116382233Y-102341609D01*
X116524464Y-102442300D01*
X116653471Y-102534492D01*
X116765280Y-102615426D01*
X116855919Y-102682344D01*
X116921415Y-102732487D01*
X116957795Y-102763097D01*
X116963054Y-102768881D01*
X116983116Y-102820395D01*
X116993914Y-102895912D01*
X116994834Y-102925960D01*
X116994834Y-102925960D01*
X116994834Y-102925960D01*
G37*
X116994834Y-102925960D02*
X116992604Y-102992050D01*
X116983617Y-103025823D01*
X116964423Y-103037161D01*
X116955856Y-103037667D01*
X116931394Y-103025859D01*
X116875726Y-102991954D01*
X116792258Y-102938228D01*
X116684395Y-102866958D01*
X116555543Y-102780421D01*
X116409109Y-102680891D01*
X116248499Y-102570647D01*
X116077118Y-102451965D01*
X116019231Y-102411651D01*
X115844292Y-102289432D01*
X115678747Y-102173358D01*
X115526074Y-102065897D01*
X115389748Y-101969514D01*
X115273246Y-101886676D01*
X115180046Y-101819850D01*
X115113623Y-101771503D01*
X115077456Y-101744102D01*
X115073038Y-101740346D01*
X115044389Y-101706540D01*
X115031232Y-101665392D01*
X115029624Y-101601774D01*
X115030705Y-101577904D01*
X115036162Y-101510443D01*
X115046180Y-101475413D01*
X115065065Y-101462911D01*
X115081081Y-101462059D01*
X115106579Y-101474166D01*
X115162554Y-101508120D01*
X115245032Y-101561161D01*
X115350040Y-101630532D01*
X115473606Y-101713472D01*
X115611756Y-101807225D01*
X115760519Y-101909030D01*
X115915920Y-102016130D01*
X116073989Y-102125765D01*
X116230751Y-102235178D01*
X116382233Y-102341609D01*
X116524464Y-102442300D01*
X116653471Y-102534492D01*
X116765280Y-102615426D01*
X116855919Y-102682344D01*
X116921415Y-102732487D01*
X116957795Y-102763097D01*
X116963054Y-102768881D01*
X116983116Y-102820395D01*
X116993914Y-102895912D01*
X116994834Y-102925960D01*
X116994834Y-102925960D01*
G36*
X116992199Y-102113405D02*
X116990412Y-102189997D01*
X116990400Y-102190272D01*
X116984093Y-102270389D01*
X116972762Y-102315715D01*
X116954411Y-102333683D01*
X116951719Y-102334339D01*
X116928535Y-102323757D01*
X116874105Y-102291054D01*
X116791802Y-102238476D01*
X116685000Y-102168269D01*
X116557070Y-102082678D01*
X116411387Y-101983947D01*
X116251323Y-101874322D01*
X116080250Y-101756048D01*
X116020386Y-101714408D01*
X115845256Y-101592031D01*
X115679565Y-101475523D01*
X115526790Y-101367378D01*
X115390408Y-101270093D01*
X115273895Y-101186161D01*
X115180728Y-101118078D01*
X115114383Y-101068339D01*
X115078338Y-101039438D01*
X115073959Y-101035211D01*
X115045110Y-100993263D01*
X115030573Y-100940578D01*
X115026347Y-100862070D01*
X115026334Y-100855655D01*
X115031688Y-100771067D01*
X115049559Y-100724355D01*
X115082654Y-100712216D01*
X115129906Y-100729290D01*
X115161414Y-100749033D01*
X115223029Y-100790191D01*
X115310602Y-100849854D01*
X115419985Y-100925113D01*
X115547028Y-101013058D01*
X115687584Y-101110780D01*
X115837504Y-101215370D01*
X115992638Y-101323918D01*
X116148839Y-101433514D01*
X116301958Y-101541250D01*
X116447845Y-101644215D01*
X116582353Y-101739501D01*
X116701334Y-101824198D01*
X116800637Y-101895396D01*
X116876115Y-101950187D01*
X116923619Y-101985661D01*
X116937483Y-101996937D01*
X116969553Y-102030826D01*
X116986519Y-102064998D01*
X116992199Y-102113405D01*
X116992199Y-102113405D01*
X116992199Y-102113405D01*
G37*
X116992199Y-102113405D02*
X116990412Y-102189997D01*
X116990400Y-102190272D01*
X116984093Y-102270389D01*
X116972762Y-102315715D01*
X116954411Y-102333683D01*
X116951719Y-102334339D01*
X116928535Y-102323757D01*
X116874105Y-102291054D01*
X116791802Y-102238476D01*
X116685000Y-102168269D01*
X116557070Y-102082678D01*
X116411387Y-101983947D01*
X116251323Y-101874322D01*
X116080250Y-101756048D01*
X116020386Y-101714408D01*
X115845256Y-101592031D01*
X115679565Y-101475523D01*
X115526790Y-101367378D01*
X115390408Y-101270093D01*
X115273895Y-101186161D01*
X115180728Y-101118078D01*
X115114383Y-101068339D01*
X115078338Y-101039438D01*
X115073959Y-101035211D01*
X115045110Y-100993263D01*
X115030573Y-100940578D01*
X115026347Y-100862070D01*
X115026334Y-100855655D01*
X115031688Y-100771067D01*
X115049559Y-100724355D01*
X115082654Y-100712216D01*
X115129906Y-100729290D01*
X115161414Y-100749033D01*
X115223029Y-100790191D01*
X115310602Y-100849854D01*
X115419985Y-100925113D01*
X115547028Y-101013058D01*
X115687584Y-101110780D01*
X115837504Y-101215370D01*
X115992638Y-101323918D01*
X116148839Y-101433514D01*
X116301958Y-101541250D01*
X116447845Y-101644215D01*
X116582353Y-101739501D01*
X116701334Y-101824198D01*
X116800637Y-101895396D01*
X116876115Y-101950187D01*
X116923619Y-101985661D01*
X116937483Y-101996937D01*
X116969553Y-102030826D01*
X116986519Y-102064998D01*
X116992199Y-102113405D01*
X116992199Y-102113405D01*
G36*
X116992455Y-101363004D02*
X116990416Y-101431445D01*
X116984431Y-101521917D01*
X116974470Y-101584698D01*
X116961685Y-101612798D01*
X116960424Y-101613391D01*
X116933054Y-101605780D01*
X116881077Y-101578623D01*
X116814195Y-101537173D01*
X116791091Y-101521655D01*
X116583644Y-101379206D01*
X116377312Y-101236717D01*
X116175343Y-101096486D01*
X115980983Y-100960811D01*
X115797481Y-100831988D01*
X115628083Y-100712316D01*
X115476037Y-100604091D01*
X115344590Y-100509612D01*
X115236990Y-100431175D01*
X115156484Y-100371078D01*
X115106320Y-100331619D01*
X115095125Y-100321796D01*
X115060428Y-100286494D01*
X115039927Y-100253934D01*
X115029898Y-100211636D01*
X115026615Y-100147124D01*
X115026334Y-100091348D01*
X115027070Y-100008540D01*
X115030955Y-99959385D01*
X115040499Y-99935205D01*
X115058213Y-99927325D01*
X115073959Y-99926812D01*
X115098170Y-99938643D01*
X115153016Y-99972108D01*
X115234510Y-100024471D01*
X115338671Y-100093000D01*
X115461514Y-100174959D01*
X115599055Y-100267614D01*
X115747312Y-100368231D01*
X115902301Y-100474075D01*
X116060037Y-100582413D01*
X116216538Y-100690509D01*
X116367820Y-100795630D01*
X116509899Y-100895042D01*
X116638791Y-100986008D01*
X116750514Y-101065797D01*
X116841083Y-101131672D01*
X116906515Y-101180900D01*
X116937500Y-101205949D01*
X116966549Y-101233609D01*
X116983641Y-101261543D01*
X116991400Y-101300943D01*
X116992455Y-101363004D01*
X116992455Y-101363004D01*
X116992455Y-101363004D01*
G37*
X116992455Y-101363004D02*
X116990416Y-101431445D01*
X116984431Y-101521917D01*
X116974470Y-101584698D01*
X116961685Y-101612798D01*
X116960424Y-101613391D01*
X116933054Y-101605780D01*
X116881077Y-101578623D01*
X116814195Y-101537173D01*
X116791091Y-101521655D01*
X116583644Y-101379206D01*
X116377312Y-101236717D01*
X116175343Y-101096486D01*
X115980983Y-100960811D01*
X115797481Y-100831988D01*
X115628083Y-100712316D01*
X115476037Y-100604091D01*
X115344590Y-100509612D01*
X115236990Y-100431175D01*
X115156484Y-100371078D01*
X115106320Y-100331619D01*
X115095125Y-100321796D01*
X115060428Y-100286494D01*
X115039927Y-100253934D01*
X115029898Y-100211636D01*
X115026615Y-100147124D01*
X115026334Y-100091348D01*
X115027070Y-100008540D01*
X115030955Y-99959385D01*
X115040499Y-99935205D01*
X115058213Y-99927325D01*
X115073959Y-99926812D01*
X115098170Y-99938643D01*
X115153016Y-99972108D01*
X115234510Y-100024471D01*
X115338671Y-100093000D01*
X115461514Y-100174959D01*
X115599055Y-100267614D01*
X115747312Y-100368231D01*
X115902301Y-100474075D01*
X116060037Y-100582413D01*
X116216538Y-100690509D01*
X116367820Y-100795630D01*
X116509899Y-100895042D01*
X116638791Y-100986008D01*
X116750514Y-101065797D01*
X116841083Y-101131672D01*
X116906515Y-101180900D01*
X116937500Y-101205949D01*
X116966549Y-101233609D01*
X116983641Y-101261543D01*
X116991400Y-101300943D01*
X116992455Y-101363004D01*
X116992455Y-101363004D01*
G36*
X116994954Y-93487874D02*
X116989602Y-97135645D01*
X116988922Y-97596080D01*
X116988277Y-98016045D01*
X116987643Y-98397406D01*
X116986995Y-98742026D01*
X116986311Y-99051770D01*
X116985564Y-99328502D01*
X116984730Y-99574087D01*
X116983786Y-99790388D01*
X116982707Y-99979271D01*
X116981469Y-100142598D01*
X116980047Y-100282235D01*
X116978417Y-100400047D01*
X116976555Y-100497896D01*
X116974436Y-100577648D01*
X116972036Y-100641166D01*
X116969330Y-100690315D01*
X116966295Y-100726960D01*
X116962906Y-100752965D01*
X116959138Y-100770193D01*
X116954968Y-100780509D01*
X116950371Y-100785778D01*
X116945322Y-100787864D01*
X116941917Y-100788380D01*
X116914543Y-100777381D01*
X116854647Y-100742682D01*
X116763974Y-100685439D01*
X116644271Y-100606807D01*
X116619973Y-100590463D01*
X116619973Y-94295833D01*
X116479320Y-94295833D01*
X116338667Y-94295833D01*
X116338667Y-94368539D01*
X116326661Y-94465783D01*
X116292835Y-94537782D01*
X116256067Y-94569894D01*
X116196567Y-94588846D01*
X116110079Y-94601361D01*
X116011547Y-94606794D01*
X115915919Y-94604495D01*
X115838141Y-94593820D01*
X115820153Y-94588763D01*
X115774589Y-94568484D01*
X115739984Y-94538681D01*
X115714872Y-94493854D01*
X115697789Y-94428501D01*
X115687270Y-94337120D01*
X115681851Y-94214210D01*
X115680090Y-94062690D01*
X115681932Y-93899848D01*
X115689192Y-93774828D01*
X115702742Y-93683364D01*
X115723458Y-93621188D01*
X115752214Y-93584034D01*
X115781110Y-93569590D01*
X115873276Y-93548050D01*
X115954856Y-93539607D01*
X116047676Y-93542626D01*
X116090214Y-93546416D01*
X116194190Y-93562503D01*
X116262451Y-93589568D01*
X116301168Y-93632440D01*
X116316510Y-93695950D01*
X116317500Y-93724333D01*
X116317500Y-93809000D01*
X116457981Y-93809000D01*
X116598463Y-93809000D01*
X116587767Y-93675752D01*
X116570581Y-93557841D01*
X116537310Y-93467074D01*
X116483476Y-93400415D01*
X116404605Y-93354829D01*
X116296219Y-93327282D01*
X116153842Y-93314739D01*
X116052917Y-93313145D01*
X115875624Y-93318981D01*
X115734684Y-93336939D01*
X115625330Y-93369090D01*
X115542793Y-93417503D01*
X115482303Y-93484249D01*
X115439092Y-93571399D01*
X115435591Y-93581163D01*
X115414973Y-93670234D01*
X115401861Y-93790487D01*
X115395889Y-93932268D01*
X115396692Y-94085918D01*
X115403904Y-94241780D01*
X115417159Y-94390198D01*
X115436091Y-94521514D01*
X115460337Y-94626071D01*
X115476845Y-94670990D01*
X115522365Y-94727881D01*
X115598483Y-94778321D01*
X115693467Y-94815206D01*
X115728733Y-94823547D01*
X115833871Y-94836948D01*
X115963168Y-94842825D01*
X116099129Y-94841193D01*
X116224259Y-94832068D01*
X116286727Y-94823028D01*
X116365280Y-94805396D01*
X116434836Y-94784531D01*
X116467677Y-94771044D01*
X116528915Y-94715934D01*
X116573981Y-94623307D01*
X116602049Y-94495103D01*
X116607603Y-94443390D01*
X116619973Y-94295833D01*
X116619973Y-100590463D01*
X116618120Y-100589217D01*
X116618120Y-94867333D01*
X116478393Y-94867333D01*
X116338667Y-94867333D01*
X116337745Y-95380625D01*
X116336650Y-95574004D01*
X116333839Y-95729581D01*
X116328872Y-95851868D01*
X116321308Y-95945378D01*
X116310709Y-96014623D01*
X116296632Y-96064114D01*
X116278640Y-96098364D01*
X116266312Y-96112947D01*
X116226703Y-96130743D01*
X116156521Y-96143029D01*
X116067143Y-96149787D01*
X115969947Y-96150996D01*
X115876308Y-96146638D01*
X115797604Y-96136692D01*
X115745210Y-96121141D01*
X115734661Y-96113853D01*
X115713572Y-96086242D01*
X115696843Y-96047101D01*
X115684008Y-95991788D01*
X115674597Y-95915658D01*
X115668143Y-95814069D01*
X115664179Y-95682376D01*
X115662236Y-95515936D01*
X115661838Y-95391208D01*
X115661334Y-94867333D01*
X115522073Y-94867333D01*
X115382813Y-94867333D01*
X115390176Y-95486458D01*
X115392742Y-95672457D01*
X115395721Y-95820933D01*
X115399398Y-95936695D01*
X115404059Y-96024553D01*
X115409989Y-96089317D01*
X115417473Y-96135797D01*
X115426795Y-96168802D01*
X115431265Y-96179667D01*
X115484924Y-96266172D01*
X115558794Y-96324558D01*
X115656029Y-96361423D01*
X115739105Y-96376079D01*
X115850571Y-96385338D01*
X115976814Y-96389073D01*
X116104219Y-96387155D01*
X116219171Y-96379456D01*
X116300583Y-96367508D01*
X116412066Y-96333412D01*
X116491262Y-96282303D01*
X116546869Y-96207779D01*
X116562507Y-96174648D01*
X116573915Y-96143022D01*
X116583059Y-96104537D01*
X116590287Y-96053987D01*
X116595950Y-95986169D01*
X116600396Y-95895879D01*
X116603974Y-95777913D01*
X116607034Y-95627067D01*
X116609391Y-95475875D01*
X116618120Y-94867333D01*
X116618120Y-100589217D01*
X116613834Y-100586334D01*
X116613834Y-98211667D01*
X116613834Y-98095250D01*
X116613834Y-97978833D01*
X116602885Y-97978833D01*
X116602885Y-97487994D01*
X116596344Y-97372183D01*
X116576036Y-97272717D01*
X116543535Y-97200686D01*
X116534519Y-97189188D01*
X116485633Y-97148123D01*
X116417233Y-97116583D01*
X116322492Y-97092456D01*
X116194587Y-97073629D01*
X116143502Y-97068175D01*
X115993023Y-97052912D01*
X115879471Y-97039419D01*
X115797647Y-97025284D01*
X115742354Y-97008091D01*
X115708391Y-96985428D01*
X115690560Y-96954878D01*
X115683663Y-96914029D01*
X115682501Y-96860466D01*
X115682500Y-96854096D01*
X115687897Y-96764702D01*
X115708729Y-96707112D01*
X115751961Y-96671652D01*
X115824556Y-96648651D01*
X115831490Y-96647134D01*
X115979522Y-96625757D01*
X116102417Y-96629486D01*
X116197509Y-96657354D01*
X116262129Y-96708394D01*
X116293613Y-96781640D01*
X116296334Y-96815662D01*
X116300799Y-96837876D01*
X116320344Y-96850361D01*
X116364191Y-96855831D01*
X116436878Y-96857000D01*
X116577423Y-96857000D01*
X116564990Y-96736537D01*
X116542122Y-96625687D01*
X116495978Y-96544030D01*
X116420424Y-96482049D01*
X116390218Y-96465417D01*
X116351303Y-96448326D01*
X116307719Y-96436474D01*
X116251062Y-96428949D01*
X116172928Y-96424839D01*
X116064914Y-96423233D01*
X116000000Y-96423083D01*
X115840230Y-96425444D01*
X115716648Y-96433750D01*
X115623307Y-96449840D01*
X115554261Y-96475549D01*
X115503565Y-96512715D01*
X115465271Y-96563176D01*
X115449273Y-96593231D01*
X115420734Y-96682892D01*
X115405378Y-96796213D01*
X115403655Y-96916480D01*
X115416016Y-97026980D01*
X115435745Y-97095691D01*
X115466460Y-97147839D01*
X115513501Y-97189685D01*
X115581701Y-97222813D01*
X115675894Y-97248809D01*
X115800911Y-97269258D01*
X115961585Y-97285746D01*
X116031750Y-97291212D01*
X116122823Y-97300713D01*
X116202133Y-97314132D01*
X116256910Y-97329116D01*
X116268886Y-97334890D01*
X116309907Y-97383547D01*
X116330261Y-97454864D01*
X116331053Y-97535973D01*
X116313384Y-97614006D01*
X116278357Y-97676094D01*
X116237059Y-97706237D01*
X116191968Y-97714865D01*
X116116739Y-97720419D01*
X116023499Y-97722242D01*
X115961052Y-97721182D01*
X115861150Y-97717238D01*
X115794450Y-97711643D01*
X115751825Y-97702394D01*
X115724144Y-97687487D01*
X115702278Y-97664919D01*
X115701760Y-97664280D01*
X115672957Y-97607153D01*
X115661334Y-97542572D01*
X115661334Y-97470833D01*
X115521311Y-97470833D01*
X115381289Y-97470833D01*
X115396194Y-97592542D01*
X115423614Y-97726813D01*
X115468480Y-97823017D01*
X115531099Y-97881796D01*
X115536198Y-97884547D01*
X115622782Y-97915496D01*
X115740411Y-97937966D01*
X115878498Y-97951165D01*
X116026457Y-97954299D01*
X116173704Y-97946573D01*
X116247369Y-97937871D01*
X116374021Y-97911923D01*
X116465506Y-97872326D01*
X116528323Y-97812917D01*
X116568971Y-97727532D01*
X116593951Y-97610007D01*
X116594086Y-97609059D01*
X116602885Y-97487994D01*
X116602885Y-97978833D01*
X116000000Y-97978833D01*
X115386167Y-97978833D01*
X115386167Y-98730250D01*
X115386167Y-99481667D01*
X115523750Y-99481667D01*
X115661334Y-99481667D01*
X115661334Y-99174750D01*
X115661334Y-98867833D01*
X116074084Y-98867833D01*
X116486834Y-98867833D01*
X116486834Y-98751417D01*
X116486834Y-98635000D01*
X116074084Y-98635000D01*
X115661334Y-98635000D01*
X115661334Y-98423333D01*
X115661334Y-98211667D01*
X116137584Y-98211667D01*
X116613834Y-98211667D01*
X116613834Y-100586334D01*
X116497285Y-100507942D01*
X116324761Y-100389998D01*
X116128447Y-100254132D01*
X116021167Y-100179316D01*
X115847757Y-100057837D01*
X115683415Y-99942206D01*
X115531709Y-99834969D01*
X115396207Y-99738670D01*
X115280475Y-99655855D01*
X115188080Y-99589068D01*
X115122591Y-99540855D01*
X115087574Y-99513760D01*
X115084542Y-99511100D01*
X115026334Y-99456911D01*
X115026334Y-96484085D01*
X115026334Y-93511259D01*
X115081221Y-93400838D01*
X115103573Y-93358055D01*
X115143974Y-93283001D01*
X115199850Y-93180374D01*
X115268624Y-93054871D01*
X115347720Y-92911192D01*
X115434561Y-92754032D01*
X115526572Y-92588091D01*
X115551401Y-92543411D01*
X115656967Y-92354043D01*
X115744297Y-92198753D01*
X115815331Y-92074405D01*
X115872012Y-91977862D01*
X115916279Y-91905986D01*
X115950073Y-91855641D01*
X115975337Y-91823689D01*
X115994010Y-91806994D01*
X116008034Y-91802420D01*
X116009804Y-91802577D01*
X116027764Y-91814387D01*
X116055897Y-91847671D01*
X116095809Y-91904973D01*
X116149108Y-91988838D01*
X116217398Y-92101809D01*
X116302288Y-92246430D01*
X116405383Y-92425245D01*
X116428088Y-92464917D01*
X116519916Y-92625974D01*
X116609242Y-92783485D01*
X116692818Y-92931663D01*
X116767398Y-93064721D01*
X116829735Y-93176872D01*
X116876582Y-93262329D01*
X116899107Y-93304479D01*
X116994954Y-93487874D01*
X116994954Y-93487874D01*
X116994954Y-93487874D01*
G37*
X116994954Y-93487874D02*
X116989602Y-97135645D01*
X116988922Y-97596080D01*
X116988277Y-98016045D01*
X116987643Y-98397406D01*
X116986995Y-98742026D01*
X116986311Y-99051770D01*
X116985564Y-99328502D01*
X116984730Y-99574087D01*
X116983786Y-99790388D01*
X116982707Y-99979271D01*
X116981469Y-100142598D01*
X116980047Y-100282235D01*
X116978417Y-100400047D01*
X116976555Y-100497896D01*
X116974436Y-100577648D01*
X116972036Y-100641166D01*
X116969330Y-100690315D01*
X116966295Y-100726960D01*
X116962906Y-100752965D01*
X116959138Y-100770193D01*
X116954968Y-100780509D01*
X116950371Y-100785778D01*
X116945322Y-100787864D01*
X116941917Y-100788380D01*
X116914543Y-100777381D01*
X116854647Y-100742682D01*
X116763974Y-100685439D01*
X116644271Y-100606807D01*
X116619973Y-100590463D01*
X116619973Y-94295833D01*
X116479320Y-94295833D01*
X116338667Y-94295833D01*
X116338667Y-94368539D01*
X116326661Y-94465783D01*
X116292835Y-94537782D01*
X116256067Y-94569894D01*
X116196567Y-94588846D01*
X116110079Y-94601361D01*
X116011547Y-94606794D01*
X115915919Y-94604495D01*
X115838141Y-94593820D01*
X115820153Y-94588763D01*
X115774589Y-94568484D01*
X115739984Y-94538681D01*
X115714872Y-94493854D01*
X115697789Y-94428501D01*
X115687270Y-94337120D01*
X115681851Y-94214210D01*
X115680090Y-94062690D01*
X115681932Y-93899848D01*
X115689192Y-93774828D01*
X115702742Y-93683364D01*
X115723458Y-93621188D01*
X115752214Y-93584034D01*
X115781110Y-93569590D01*
X115873276Y-93548050D01*
X115954856Y-93539607D01*
X116047676Y-93542626D01*
X116090214Y-93546416D01*
X116194190Y-93562503D01*
X116262451Y-93589568D01*
X116301168Y-93632440D01*
X116316510Y-93695950D01*
X116317500Y-93724333D01*
X116317500Y-93809000D01*
X116457981Y-93809000D01*
X116598463Y-93809000D01*
X116587767Y-93675752D01*
X116570581Y-93557841D01*
X116537310Y-93467074D01*
X116483476Y-93400415D01*
X116404605Y-93354829D01*
X116296219Y-93327282D01*
X116153842Y-93314739D01*
X116052917Y-93313145D01*
X115875624Y-93318981D01*
X115734684Y-93336939D01*
X115625330Y-93369090D01*
X115542793Y-93417503D01*
X115482303Y-93484249D01*
X115439092Y-93571399D01*
X115435591Y-93581163D01*
X115414973Y-93670234D01*
X115401861Y-93790487D01*
X115395889Y-93932268D01*
X115396692Y-94085918D01*
X115403904Y-94241780D01*
X115417159Y-94390198D01*
X115436091Y-94521514D01*
X115460337Y-94626071D01*
X115476845Y-94670990D01*
X115522365Y-94727881D01*
X115598483Y-94778321D01*
X115693467Y-94815206D01*
X115728733Y-94823547D01*
X115833871Y-94836948D01*
X115963168Y-94842825D01*
X116099129Y-94841193D01*
X116224259Y-94832068D01*
X116286727Y-94823028D01*
X116365280Y-94805396D01*
X116434836Y-94784531D01*
X116467677Y-94771044D01*
X116528915Y-94715934D01*
X116573981Y-94623307D01*
X116602049Y-94495103D01*
X116607603Y-94443390D01*
X116619973Y-94295833D01*
X116619973Y-100590463D01*
X116618120Y-100589217D01*
X116618120Y-94867333D01*
X116478393Y-94867333D01*
X116338667Y-94867333D01*
X116337745Y-95380625D01*
X116336650Y-95574004D01*
X116333839Y-95729581D01*
X116328872Y-95851868D01*
X116321308Y-95945378D01*
X116310709Y-96014623D01*
X116296632Y-96064114D01*
X116278640Y-96098364D01*
X116266312Y-96112947D01*
X116226703Y-96130743D01*
X116156521Y-96143029D01*
X116067143Y-96149787D01*
X115969947Y-96150996D01*
X115876308Y-96146638D01*
X115797604Y-96136692D01*
X115745210Y-96121141D01*
X115734661Y-96113853D01*
X115713572Y-96086242D01*
X115696843Y-96047101D01*
X115684008Y-95991788D01*
X115674597Y-95915658D01*
X115668143Y-95814069D01*
X115664179Y-95682376D01*
X115662236Y-95515936D01*
X115661838Y-95391208D01*
X115661334Y-94867333D01*
X115522073Y-94867333D01*
X115382813Y-94867333D01*
X115390176Y-95486458D01*
X115392742Y-95672457D01*
X115395721Y-95820933D01*
X115399398Y-95936695D01*
X115404059Y-96024553D01*
X115409989Y-96089317D01*
X115417473Y-96135797D01*
X115426795Y-96168802D01*
X115431265Y-96179667D01*
X115484924Y-96266172D01*
X115558794Y-96324558D01*
X115656029Y-96361423D01*
X115739105Y-96376079D01*
X115850571Y-96385338D01*
X115976814Y-96389073D01*
X116104219Y-96387155D01*
X116219171Y-96379456D01*
X116300583Y-96367508D01*
X116412066Y-96333412D01*
X116491262Y-96282303D01*
X116546869Y-96207779D01*
X116562507Y-96174648D01*
X116573915Y-96143022D01*
X116583059Y-96104537D01*
X116590287Y-96053987D01*
X116595950Y-95986169D01*
X116600396Y-95895879D01*
X116603974Y-95777913D01*
X116607034Y-95627067D01*
X116609391Y-95475875D01*
X116618120Y-94867333D01*
X116618120Y-100589217D01*
X116613834Y-100586334D01*
X116613834Y-98211667D01*
X116613834Y-98095250D01*
X116613834Y-97978833D01*
X116602885Y-97978833D01*
X116602885Y-97487994D01*
X116596344Y-97372183D01*
X116576036Y-97272717D01*
X116543535Y-97200686D01*
X116534519Y-97189188D01*
X116485633Y-97148123D01*
X116417233Y-97116583D01*
X116322492Y-97092456D01*
X116194587Y-97073629D01*
X116143502Y-97068175D01*
X115993023Y-97052912D01*
X115879471Y-97039419D01*
X115797647Y-97025284D01*
X115742354Y-97008091D01*
X115708391Y-96985428D01*
X115690560Y-96954878D01*
X115683663Y-96914029D01*
X115682501Y-96860466D01*
X115682500Y-96854096D01*
X115687897Y-96764702D01*
X115708729Y-96707112D01*
X115751961Y-96671652D01*
X115824556Y-96648651D01*
X115831490Y-96647134D01*
X115979522Y-96625757D01*
X116102417Y-96629486D01*
X116197509Y-96657354D01*
X116262129Y-96708394D01*
X116293613Y-96781640D01*
X116296334Y-96815662D01*
X116300799Y-96837876D01*
X116320344Y-96850361D01*
X116364191Y-96855831D01*
X116436878Y-96857000D01*
X116577423Y-96857000D01*
X116564990Y-96736537D01*
X116542122Y-96625687D01*
X116495978Y-96544030D01*
X116420424Y-96482049D01*
X116390218Y-96465417D01*
X116351303Y-96448326D01*
X116307719Y-96436474D01*
X116251062Y-96428949D01*
X116172928Y-96424839D01*
X116064914Y-96423233D01*
X116000000Y-96423083D01*
X115840230Y-96425444D01*
X115716648Y-96433750D01*
X115623307Y-96449840D01*
X115554261Y-96475549D01*
X115503565Y-96512715D01*
X115465271Y-96563176D01*
X115449273Y-96593231D01*
X115420734Y-96682892D01*
X115405378Y-96796213D01*
X115403655Y-96916480D01*
X115416016Y-97026980D01*
X115435745Y-97095691D01*
X115466460Y-97147839D01*
X115513501Y-97189685D01*
X115581701Y-97222813D01*
X115675894Y-97248809D01*
X115800911Y-97269258D01*
X115961585Y-97285746D01*
X116031750Y-97291212D01*
X116122823Y-97300713D01*
X116202133Y-97314132D01*
X116256910Y-97329116D01*
X116268886Y-97334890D01*
X116309907Y-97383547D01*
X116330261Y-97454864D01*
X116331053Y-97535973D01*
X116313384Y-97614006D01*
X116278357Y-97676094D01*
X116237059Y-97706237D01*
X116191968Y-97714865D01*
X116116739Y-97720419D01*
X116023499Y-97722242D01*
X115961052Y-97721182D01*
X115861150Y-97717238D01*
X115794450Y-97711643D01*
X115751825Y-97702394D01*
X115724144Y-97687487D01*
X115702278Y-97664919D01*
X115701760Y-97664280D01*
X115672957Y-97607153D01*
X115661334Y-97542572D01*
X115661334Y-97470833D01*
X115521311Y-97470833D01*
X115381289Y-97470833D01*
X115396194Y-97592542D01*
X115423614Y-97726813D01*
X115468480Y-97823017D01*
X115531099Y-97881796D01*
X115536198Y-97884547D01*
X115622782Y-97915496D01*
X115740411Y-97937966D01*
X115878498Y-97951165D01*
X116026457Y-97954299D01*
X116173704Y-97946573D01*
X116247369Y-97937871D01*
X116374021Y-97911923D01*
X116465506Y-97872326D01*
X116528323Y-97812917D01*
X116568971Y-97727532D01*
X116593951Y-97610007D01*
X116594086Y-97609059D01*
X116602885Y-97487994D01*
X116602885Y-97978833D01*
X116000000Y-97978833D01*
X115386167Y-97978833D01*
X115386167Y-98730250D01*
X115386167Y-99481667D01*
X115523750Y-99481667D01*
X115661334Y-99481667D01*
X115661334Y-99174750D01*
X115661334Y-98867833D01*
X116074084Y-98867833D01*
X116486834Y-98867833D01*
X116486834Y-98751417D01*
X116486834Y-98635000D01*
X116074084Y-98635000D01*
X115661334Y-98635000D01*
X115661334Y-98423333D01*
X115661334Y-98211667D01*
X116137584Y-98211667D01*
X116613834Y-98211667D01*
X116613834Y-100586334D01*
X116497285Y-100507942D01*
X116324761Y-100389998D01*
X116128447Y-100254132D01*
X116021167Y-100179316D01*
X115847757Y-100057837D01*
X115683415Y-99942206D01*
X115531709Y-99834969D01*
X115396207Y-99738670D01*
X115280475Y-99655855D01*
X115188080Y-99589068D01*
X115122591Y-99540855D01*
X115087574Y-99513760D01*
X115084542Y-99511100D01*
X115026334Y-99456911D01*
X115026334Y-96484085D01*
X115026334Y-93511259D01*
X115081221Y-93400838D01*
X115103573Y-93358055D01*
X115143974Y-93283001D01*
X115199850Y-93180374D01*
X115268624Y-93054871D01*
X115347720Y-92911192D01*
X115434561Y-92754032D01*
X115526572Y-92588091D01*
X115551401Y-92543411D01*
X115656967Y-92354043D01*
X115744297Y-92198753D01*
X115815331Y-92074405D01*
X115872012Y-91977862D01*
X115916279Y-91905986D01*
X115950073Y-91855641D01*
X115975337Y-91823689D01*
X115994010Y-91806994D01*
X116008034Y-91802420D01*
X116009804Y-91802577D01*
X116027764Y-91814387D01*
X116055897Y-91847671D01*
X116095809Y-91904973D01*
X116149108Y-91988838D01*
X116217398Y-92101809D01*
X116302288Y-92246430D01*
X116405383Y-92425245D01*
X116428088Y-92464917D01*
X116519916Y-92625974D01*
X116609242Y-92783485D01*
X116692818Y-92931663D01*
X116767398Y-93064721D01*
X116829735Y-93176872D01*
X116876582Y-93262329D01*
X116899107Y-93304479D01*
X116994954Y-93487874D01*
X116994954Y-93487874D01*
M02*
