G04 #@! TF.FileFunction,Copper,L2,Bot,Signal*
%FSLAX46Y46*%
G04 Gerber Fmt 4.6, Leading zero omitted, Abs format (unit mm)*
G04 Created by KiCad (PCBNEW 0.201505031001+5637~23~ubuntu14.04.1-product) date Tue 26 May 2015 22:06:30 BST*
%MOMM*%
G01*
G04 APERTURE LIST*
%ADD10C,0.100000*%
%ADD11R,5.080000X2.413000*%
%ADD12C,0.300000*%
%ADD13R,1.800000X3.500000*%
%ADD14R,0.900000X1.900000*%
%ADD15C,2.200000*%
%ADD16C,0.800000*%
%ADD17C,0.500000*%
%ADD18C,0.250000*%
G04 APERTURE END LIST*
D10*
D11*
X158700000Y-82618500D03*
X158700000Y-91381500D03*
X119400000Y-91381500D03*
X119400000Y-82618500D03*
D12*
X139000000Y-86700000D03*
X139000000Y-87300000D03*
X139000000Y-86100000D03*
X139000000Y-85500000D03*
X139000000Y-84900000D03*
X139000000Y-84300000D03*
X139000000Y-83700000D03*
X139000000Y-83100000D03*
X139000000Y-82500000D03*
X139500000Y-85500000D03*
X139500000Y-84900000D03*
X139500000Y-84300000D03*
X139500000Y-83700000D03*
X139500000Y-83100000D03*
X138500000Y-83100000D03*
X138500000Y-83700000D03*
X138500000Y-84300000D03*
X138500000Y-84900000D03*
X138500000Y-85500000D03*
X138500000Y-82500000D03*
X139500000Y-82500000D03*
D13*
X139000000Y-84000000D03*
D14*
X139000000Y-86700000D03*
D15*
X145700000Y-83000000D03*
X145700000Y-80460000D03*
D16*
X148000000Y-84000000D03*
X150000000Y-80000000D03*
X154000000Y-80000000D03*
X158000000Y-80000000D03*
X120000000Y-80000000D03*
X124000000Y-80000000D03*
X128000000Y-80000000D03*
X132000000Y-80000000D03*
X136000000Y-80000000D03*
X139000000Y-80000000D03*
X148000000Y-82000000D03*
X152000000Y-82000000D03*
X156000000Y-82000000D03*
X136000000Y-82000000D03*
X134000000Y-82000000D03*
X130000000Y-82000000D03*
X126000000Y-82000000D03*
X122000000Y-82000000D03*
X156000000Y-94000000D03*
X152000000Y-94000000D03*
X148000000Y-94000000D03*
X144000000Y-94000000D03*
X140000000Y-94000000D03*
X136000000Y-94000000D03*
X132000000Y-94000000D03*
X128000000Y-94000000D03*
X124000000Y-94000000D03*
X120000000Y-94000000D03*
X154000000Y-92000000D03*
X150000000Y-92000000D03*
X146000000Y-92000000D03*
X142000000Y-92000000D03*
X138000000Y-92000000D03*
X134000000Y-92000000D03*
X130000000Y-92000000D03*
X126000000Y-92000000D03*
X122000000Y-92000000D03*
X160000000Y-84000000D03*
X158000000Y-84000000D03*
X156000000Y-84000000D03*
X154000000Y-84000000D03*
X152000000Y-84000000D03*
X150000000Y-84000000D03*
X146000000Y-84000000D03*
X144000000Y-84000000D03*
X118000000Y-84000000D03*
X120000000Y-84000000D03*
X122000000Y-84000000D03*
X124000000Y-84000000D03*
X126000000Y-84000000D03*
X128000000Y-84000000D03*
X130000000Y-84000000D03*
X132000000Y-84000000D03*
X134000000Y-84000000D03*
X136000000Y-84000000D03*
X118000000Y-90000000D03*
X120000000Y-90000000D03*
X122000000Y-90000000D03*
X124000000Y-90000000D03*
X126000000Y-90000000D03*
X128000000Y-90000000D03*
X130000000Y-90000000D03*
X132000000Y-90000000D03*
X134000000Y-90000000D03*
X136000000Y-90000000D03*
X138000000Y-90000000D03*
X140000000Y-90000000D03*
X142000000Y-90000000D03*
X144000000Y-90000000D03*
X146000000Y-90000000D03*
X148000000Y-90000000D03*
X150000000Y-90000000D03*
X152000000Y-90000000D03*
X154000000Y-90000000D03*
X156000000Y-90000000D03*
X158000000Y-90000000D03*
X160000000Y-90000000D03*
X140500000Y-83000000D03*
X137500000Y-83000000D03*
X138500000Y-82000000D03*
X137500000Y-84000000D03*
X140500000Y-84000000D03*
X137500000Y-82000000D03*
X140500000Y-82000000D03*
X139500000Y-82000000D03*
X137500000Y-85000000D03*
X140500000Y-85000000D03*
D17*
X148000000Y-84000000D02*
X146000000Y-84000000D01*
X158000000Y-80000000D02*
X154000000Y-80000000D01*
X136000000Y-80000000D02*
X139000000Y-80000000D01*
X120000000Y-80000000D02*
X124000000Y-80000000D01*
X128000000Y-80000000D02*
X132000000Y-80000000D01*
X136000000Y-80000000D02*
X139000000Y-80000000D01*
X156000000Y-82000000D02*
X152000000Y-82000000D01*
X130000000Y-82000000D02*
X134000000Y-82000000D01*
X122000000Y-82000000D02*
X126000000Y-82000000D01*
X152000000Y-94000000D02*
X156000000Y-94000000D01*
X144000000Y-94000000D02*
X148000000Y-94000000D01*
X136000000Y-94000000D02*
X140000000Y-94000000D01*
X128000000Y-94000000D02*
X132000000Y-94000000D01*
X120000000Y-94000000D02*
X124000000Y-94000000D01*
X154618500Y-91381500D02*
X158700000Y-91381500D01*
X154000000Y-92000000D02*
X154618500Y-91381500D01*
X146000000Y-92000000D02*
X150000000Y-92000000D01*
X138000000Y-92000000D02*
X142000000Y-92000000D01*
X130000000Y-92000000D02*
X134000000Y-92000000D01*
X122000000Y-92000000D02*
X126000000Y-92000000D01*
X160000000Y-84000000D02*
X158000000Y-84000000D01*
X156000000Y-84000000D02*
X154000000Y-84000000D01*
X152000000Y-84000000D02*
X150000000Y-84000000D01*
X118000000Y-84000000D02*
X120000000Y-84000000D01*
X122000000Y-84000000D02*
X124000000Y-84000000D01*
X126000000Y-84000000D02*
X128000000Y-84000000D01*
X130000000Y-84000000D02*
X132000000Y-84000000D01*
X134000000Y-84000000D02*
X136000000Y-84000000D01*
X118000000Y-90000000D02*
X120000000Y-90000000D01*
X122000000Y-90000000D02*
X124000000Y-90000000D01*
X126000000Y-90000000D02*
X128000000Y-90000000D01*
X130000000Y-90000000D02*
X132000000Y-90000000D01*
X134000000Y-90000000D02*
X136000000Y-90000000D01*
X138000000Y-90000000D02*
X140000000Y-90000000D01*
X142000000Y-90000000D02*
X144000000Y-90000000D01*
X146000000Y-90000000D02*
X148000000Y-90000000D01*
X150000000Y-90000000D02*
X152000000Y-90000000D01*
X154000000Y-90000000D02*
X156000000Y-90000000D01*
X158000000Y-90000000D02*
X160000000Y-90000000D01*
D18*
G36*
X161025000Y-94525000D02*
X147231624Y-94525000D01*
X147231624Y-82732103D01*
X147012516Y-82166368D01*
X146972454Y-82106410D01*
X146741859Y-81993496D01*
X145735355Y-83000000D01*
X146741859Y-84006504D01*
X146972454Y-83893590D01*
X147217556Y-83338622D01*
X147231624Y-82732103D01*
X147231624Y-94525000D01*
X146706504Y-94525000D01*
X146706504Y-84041859D01*
X145700000Y-83035355D01*
X145664645Y-83070710D01*
X145664645Y-83000000D01*
X144658141Y-81993496D01*
X144427546Y-82106410D01*
X144182444Y-82661378D01*
X144168376Y-83267897D01*
X144387484Y-83833632D01*
X144427546Y-83893590D01*
X144658141Y-84006504D01*
X145664645Y-83000000D01*
X145664645Y-83070710D01*
X144693496Y-84041859D01*
X144806410Y-84272454D01*
X145361378Y-84517556D01*
X145967897Y-84531624D01*
X146533632Y-84312516D01*
X146593590Y-84272454D01*
X146706504Y-84041859D01*
X146706504Y-94525000D01*
X117225000Y-94525000D01*
X117225000Y-79475000D01*
X144528159Y-79475000D01*
X144407921Y-79595029D01*
X144175265Y-80155328D01*
X144174735Y-80762011D01*
X144406414Y-81322715D01*
X144808886Y-81725891D01*
X144806410Y-81727546D01*
X144693496Y-81958141D01*
X145700000Y-82964645D01*
X146706504Y-81958141D01*
X146593590Y-81727546D01*
X146590269Y-81726079D01*
X146992079Y-81324971D01*
X147224735Y-80764672D01*
X147225265Y-80157989D01*
X146993586Y-79597285D01*
X146871514Y-79475000D01*
X161025000Y-79475000D01*
X161025000Y-94525000D01*
X161025000Y-94525000D01*
G37*
X161025000Y-94525000D02*
X147231624Y-94525000D01*
X147231624Y-82732103D01*
X147012516Y-82166368D01*
X146972454Y-82106410D01*
X146741859Y-81993496D01*
X145735355Y-83000000D01*
X146741859Y-84006504D01*
X146972454Y-83893590D01*
X147217556Y-83338622D01*
X147231624Y-82732103D01*
X147231624Y-94525000D01*
X146706504Y-94525000D01*
X146706504Y-84041859D01*
X145700000Y-83035355D01*
X145664645Y-83070710D01*
X145664645Y-83000000D01*
X144658141Y-81993496D01*
X144427546Y-82106410D01*
X144182444Y-82661378D01*
X144168376Y-83267897D01*
X144387484Y-83833632D01*
X144427546Y-83893590D01*
X144658141Y-84006504D01*
X145664645Y-83000000D01*
X145664645Y-83070710D01*
X144693496Y-84041859D01*
X144806410Y-84272454D01*
X145361378Y-84517556D01*
X145967897Y-84531624D01*
X146533632Y-84312516D01*
X146593590Y-84272454D01*
X146706504Y-84041859D01*
X146706504Y-94525000D01*
X117225000Y-94525000D01*
X117225000Y-79475000D01*
X144528159Y-79475000D01*
X144407921Y-79595029D01*
X144175265Y-80155328D01*
X144174735Y-80762011D01*
X144406414Y-81322715D01*
X144808886Y-81725891D01*
X144806410Y-81727546D01*
X144693496Y-81958141D01*
X145700000Y-82964645D01*
X146706504Y-81958141D01*
X146593590Y-81727546D01*
X146590269Y-81726079D01*
X146992079Y-81324971D01*
X147224735Y-80764672D01*
X147225265Y-80157989D01*
X146993586Y-79597285D01*
X146871514Y-79475000D01*
X161025000Y-79475000D01*
X161025000Y-94525000D01*
M02*
