G04 #@! TF.FileFunction,Soldermask,Bot*
%FSLAX46Y46*%
G04 Gerber Fmt 4.6, Leading zero omitted, Abs format (unit mm)*
G04 Created by KiCad (PCBNEW 0.201505031001+5637~23~ubuntu14.04.1-product) date Sun 24 May 2015 16:44:14 BST*
%MOMM*%
G01*
G04 APERTURE LIST*
%ADD10C,0.100000*%
%ADD11C,1.500000*%
%ADD12C,1.200000*%
%ADD13C,6.300000*%
%ADD14C,0.600000*%
%ADD15R,5.080000X2.413000*%
G04 APERTURE END LIST*
D10*
D11*
X149000000Y-81000000D03*
X151000000Y-81000000D03*
D12*
X147500000Y-78900000D03*
X152500000Y-78900000D03*
D13*
X158000000Y-77000000D03*
D14*
X158000000Y-74500000D03*
X160500000Y-77000000D03*
X158000000Y-79500000D03*
X155500000Y-77000000D03*
X156200000Y-75200000D03*
X159800000Y-75200000D03*
X156200000Y-78800000D03*
X159800000Y-78800000D03*
D13*
X119000000Y-97000000D03*
D14*
X119000000Y-94500000D03*
X121500000Y-97000000D03*
X119000000Y-99500000D03*
X116500000Y-97000000D03*
X117200000Y-95200000D03*
X120800000Y-95200000D03*
X117200000Y-98800000D03*
X120800000Y-98800000D03*
D13*
X158000000Y-97000000D03*
D14*
X158000000Y-94500000D03*
X160500000Y-97000000D03*
X158000000Y-99500000D03*
X155500000Y-97000000D03*
X156200000Y-95200000D03*
X159800000Y-95200000D03*
X156200000Y-98800000D03*
X159800000Y-98800000D03*
D13*
X119000000Y-77000000D03*
D14*
X119000000Y-74500000D03*
X121500000Y-77000000D03*
X119000000Y-79500000D03*
X116500000Y-77000000D03*
X117200000Y-75200000D03*
X120800000Y-75200000D03*
X117200000Y-78800000D03*
X120800000Y-78800000D03*
D15*
X159460000Y-82628500D03*
X159460000Y-91391500D03*
X117550000Y-91331500D03*
X117550000Y-82568500D03*
M02*
