G04 #@! TF.FileFunction,Copper,L1,Top,Signal*
%FSLAX46Y46*%
G04 Gerber Fmt 4.6, Leading zero omitted, Abs format (unit mm)*
G04 Created by KiCad (PCBNEW 0.201505031001+5637~23~ubuntu14.04.1-product) date Sun 24 May 2015 16:44:14 BST*
%MOMM*%
G01*
G04 APERTURE LIST*
%ADD10C,0.100000*%
%ADD11R,0.600000X0.600000*%
%ADD12R,0.700000X0.800000*%
%ADD13R,1.200000X1.700000*%
%ADD14R,0.500000X0.600000*%
%ADD15R,0.640000X1.020000*%
%ADD16R,1.020000X0.640000*%
%ADD17R,0.360000X0.660000*%
%ADD18C,1.500000*%
%ADD19R,0.600000X0.500000*%
%ADD20R,5.080000X2.286000*%
%ADD21R,5.080000X2.413000*%
%ADD22R,0.900000X1.900000*%
%ADD23R,0.900000X1.300000*%
%ADD24R,1.800000X3.500000*%
%ADD25C,0.300000*%
%ADD26C,0.800000*%
%ADD27C,2.000000*%
%ADD28C,0.500000*%
%ADD29C,0.300000*%
%ADD30C,1.000000*%
%ADD31C,0.800000*%
%ADD32C,1.200000*%
%ADD33C,0.250000*%
G04 APERTURE END LIST*
D10*
D11*
X123550000Y-87010000D03*
X122550000Y-87010000D03*
X127310000Y-88690000D03*
X127310000Y-87690000D03*
X143000000Y-83500000D03*
X142000000Y-83500000D03*
D12*
X143000000Y-82250000D03*
X141600000Y-82250000D03*
D11*
X151180000Y-88700000D03*
X151180000Y-87700000D03*
D13*
X143000000Y-80250000D03*
X139900000Y-80250000D03*
D11*
X153300000Y-87000000D03*
X154300000Y-87000000D03*
D14*
X120890000Y-87010000D03*
X120890000Y-88110000D03*
X156000000Y-87000000D03*
X156000000Y-88100000D03*
D15*
X132290000Y-87000000D03*
X131010000Y-87000000D03*
D16*
X142000000Y-86000000D03*
X142000000Y-84720000D03*
D17*
X148360000Y-87000000D03*
X147540000Y-87000000D03*
D18*
X149000000Y-81000000D03*
X151000000Y-81000000D03*
D19*
X134450000Y-87000000D03*
X133350000Y-87000000D03*
X150550000Y-82650000D03*
X149450000Y-82650000D03*
D20*
X159460000Y-87010000D03*
D21*
X159460000Y-82628500D03*
X159460000Y-91391500D03*
D20*
X117550000Y-86950000D03*
D21*
X117550000Y-91331500D03*
X117550000Y-82568500D03*
D22*
X139000000Y-86700000D03*
D23*
X137500000Y-87000000D03*
X140500000Y-87000000D03*
D24*
X139000000Y-84000000D03*
D25*
X139000000Y-86700000D03*
X139000000Y-87300000D03*
X139000000Y-86100000D03*
X139000000Y-85500000D03*
X139000000Y-84900000D03*
X139000000Y-84300000D03*
X139000000Y-83700000D03*
X139000000Y-83100000D03*
X139000000Y-82500000D03*
X139500000Y-85500000D03*
X139500000Y-84900000D03*
X139500000Y-84300000D03*
X139500000Y-83700000D03*
X139500000Y-83100000D03*
X138500000Y-83100000D03*
X138500000Y-83700000D03*
X138500000Y-84300000D03*
X138500000Y-84900000D03*
X138500000Y-85500000D03*
X138500000Y-82500000D03*
X139500000Y-82500000D03*
D26*
X140500000Y-83000000D03*
X137500000Y-83000000D03*
X138500000Y-82000000D03*
X155000000Y-82500000D03*
X145000000Y-82500000D03*
X137500000Y-84000000D03*
X140500000Y-84000000D03*
X137500000Y-82000000D03*
X140500000Y-82000000D03*
X139500000Y-82000000D03*
X137500000Y-85000000D03*
X140500000Y-85000000D03*
X118000000Y-90000000D03*
X120000000Y-90000000D03*
X122000000Y-90000000D03*
X124000000Y-90000000D03*
X126000000Y-90000000D03*
X128000000Y-90000000D03*
X130000000Y-90000000D03*
X132000000Y-90000000D03*
X134000000Y-90000000D03*
X136000000Y-90000000D03*
X138000000Y-90000000D03*
X140000000Y-90000000D03*
X142000000Y-90000000D03*
X144000000Y-90000000D03*
X146000000Y-90000000D03*
X148000000Y-90000000D03*
X150000000Y-90000000D03*
X152000000Y-90000000D03*
X154000000Y-90000000D03*
X156000000Y-90000000D03*
X158000000Y-90000000D03*
X160000000Y-90000000D03*
X136000000Y-84000000D03*
X134000000Y-84000000D03*
X132000000Y-84000000D03*
X130000000Y-84000000D03*
X128000000Y-84000000D03*
X126000000Y-84000000D03*
X124000000Y-84000000D03*
X122000000Y-84000000D03*
X120000000Y-84000000D03*
X118000000Y-84000000D03*
X144000000Y-84000000D03*
X146000000Y-84000000D03*
X148000000Y-84000000D03*
X150000000Y-84000000D03*
X152000000Y-84000000D03*
X154000000Y-84000000D03*
X156000000Y-84000000D03*
X158000000Y-84000000D03*
X160000000Y-84000000D03*
X122500000Y-82500000D03*
X127500000Y-82500000D03*
X132500000Y-82500000D03*
X132500000Y-77500000D03*
X127500000Y-77500000D03*
X122500000Y-92500000D03*
X127500000Y-92500000D03*
X132500000Y-92500000D03*
X137500000Y-92500000D03*
X142500000Y-92500000D03*
X147500000Y-92500000D03*
X152500000Y-92500000D03*
X127500000Y-97500000D03*
X132500000Y-97500000D03*
X137500000Y-97500000D03*
X142500000Y-97500000D03*
X147500000Y-97500000D03*
X152500000Y-97500000D03*
X137500000Y-77500000D03*
X154000000Y-77500000D03*
D27*
X124290000Y-87010000D02*
X124300000Y-87000000D01*
X127300000Y-87000000D02*
X129500000Y-87000000D01*
X124300000Y-87000000D02*
X127300000Y-87000000D01*
X129500000Y-87000000D02*
X129700000Y-87000000D01*
X129700000Y-87000000D02*
X129900000Y-87000000D01*
X129900000Y-87000000D02*
X130000000Y-87000000D01*
X130000000Y-87000000D02*
X130100000Y-87000000D01*
D28*
X130100000Y-87000000D02*
X131010000Y-87000000D01*
D29*
X123550000Y-87010000D02*
X124290000Y-87010000D01*
D28*
X127300000Y-87500000D02*
X127300000Y-87000000D01*
D30*
X117320000Y-87010000D02*
X120750000Y-87010000D01*
D31*
X120750000Y-87010000D02*
X122550000Y-87010000D01*
D29*
X139500000Y-84000000D02*
X140500000Y-83000000D01*
X137500000Y-83000000D02*
X138500000Y-84000000D01*
X138500000Y-82000000D02*
X139000000Y-82500000D01*
D28*
X159460000Y-82628500D02*
X155128500Y-82628500D01*
X155128500Y-82628500D02*
X155000000Y-82500000D01*
X145000000Y-84000000D02*
X145000000Y-82500000D01*
D29*
X139000000Y-86700000D02*
X139000000Y-84000000D01*
X139000000Y-84000000D02*
X137500000Y-84000000D01*
X139000000Y-84000000D02*
X140500000Y-84000000D01*
X139000000Y-83500000D02*
X137500000Y-82000000D01*
X139000000Y-83500000D02*
X140500000Y-82000000D01*
X139000000Y-84000000D02*
X139000000Y-83500000D01*
X139000000Y-82500000D02*
X139500000Y-82000000D01*
X139000000Y-84000000D02*
X139000000Y-82500000D01*
X138500000Y-84000000D02*
X137500000Y-85000000D01*
X139000000Y-84000000D02*
X138500000Y-84000000D01*
X139500000Y-84000000D02*
X140500000Y-85000000D01*
X139000000Y-84000000D02*
X139500000Y-84000000D01*
D28*
X120890000Y-91010000D02*
X120568500Y-91331500D01*
X120568500Y-91331500D02*
X117550000Y-91331500D01*
X120890000Y-88110000D02*
X120890000Y-91010000D01*
X156000000Y-90950000D02*
X156441500Y-91391500D01*
X156441500Y-91391500D02*
X159460000Y-91391500D01*
X156000000Y-88100000D02*
X156000000Y-90950000D01*
X149000000Y-82200000D02*
X149450000Y-82650000D01*
X149000000Y-81000000D02*
X149000000Y-82200000D01*
D31*
X139000000Y-86700000D02*
X139000000Y-89700000D01*
D28*
X159460000Y-90540000D02*
X159460000Y-91391500D01*
X120000000Y-90000000D02*
X122000000Y-90000000D01*
X124000000Y-90000000D02*
X126000000Y-90000000D01*
X128000000Y-90000000D02*
X130000000Y-90000000D01*
X132000000Y-90000000D02*
X134000000Y-90000000D01*
X136000000Y-90000000D02*
X138000000Y-90000000D01*
X140000000Y-90000000D02*
X142000000Y-90000000D01*
X144000000Y-90000000D02*
X146000000Y-90000000D01*
X148000000Y-90000000D02*
X150000000Y-90000000D01*
X152000000Y-90000000D02*
X154000000Y-90000000D01*
X156000000Y-90000000D02*
X158000000Y-90000000D01*
X160000000Y-90000000D02*
X159460000Y-90540000D01*
X117550000Y-90450000D02*
X118000000Y-90000000D01*
X117550000Y-91331500D02*
X117550000Y-90450000D01*
X132000000Y-84000000D02*
X134000000Y-84000000D01*
X128000000Y-84000000D02*
X130000000Y-84000000D01*
X124000000Y-84000000D02*
X126000000Y-84000000D01*
X120000000Y-84000000D02*
X122000000Y-84000000D01*
X117550000Y-83550000D02*
X118000000Y-84000000D01*
X117550000Y-82568500D02*
X117550000Y-83550000D01*
X146000000Y-84000000D02*
X145000000Y-84000000D01*
X145000000Y-84000000D02*
X144000000Y-84000000D01*
X150000000Y-84000000D02*
X148000000Y-84000000D01*
X154000000Y-84000000D02*
X152000000Y-84000000D01*
X158000000Y-84000000D02*
X156000000Y-84000000D01*
X159460000Y-83460000D02*
X160000000Y-84000000D01*
X159460000Y-82628500D02*
X159460000Y-83460000D01*
X122431500Y-82568500D02*
X122500000Y-82500000D01*
X127500000Y-82500000D02*
X132500000Y-82500000D01*
X132500000Y-77500000D02*
X127500000Y-77500000D01*
X117550000Y-82568500D02*
X122431500Y-82568500D01*
X121331500Y-91331500D02*
X122500000Y-92500000D01*
X127500000Y-92500000D02*
X132500000Y-92500000D01*
X137500000Y-92500000D02*
X142500000Y-92500000D01*
X147500000Y-92500000D02*
X152500000Y-92500000D01*
X117550000Y-91331500D02*
X121331500Y-91331500D01*
X132500000Y-97500000D02*
X137500000Y-97500000D01*
X142500000Y-97500000D02*
X147500000Y-97500000D01*
X127500000Y-92500000D02*
X127500000Y-97500000D01*
X132500000Y-77500000D02*
X137500000Y-77500000D01*
D29*
X154000000Y-84000000D02*
X154000000Y-77500000D01*
D28*
X143000000Y-83500000D02*
X143000000Y-84200000D01*
X143000000Y-84200000D02*
X142480000Y-84720000D01*
X142480000Y-84720000D02*
X142000000Y-84720000D01*
D31*
X143000000Y-82250000D02*
X143000000Y-83500000D01*
D30*
X143000000Y-80250000D02*
X143000000Y-82250000D01*
X150000000Y-77300000D02*
X143700000Y-77300000D01*
X151000000Y-78300000D02*
X150000000Y-77300000D01*
X151000000Y-81000000D02*
X151000000Y-78300000D01*
X143000000Y-78000000D02*
X143000000Y-80250000D01*
X143700000Y-77300000D02*
X143000000Y-78000000D01*
D28*
X151000000Y-82200000D02*
X150550000Y-82650000D01*
X151000000Y-81000000D02*
X151000000Y-82200000D01*
D27*
X151290000Y-87000000D02*
X152500000Y-87000000D01*
X149250000Y-87000000D02*
X151290000Y-87000000D01*
D29*
X152500000Y-87000000D02*
X153300000Y-87000000D01*
X148360000Y-87000000D02*
X149250000Y-87000000D01*
D28*
X151180000Y-87000000D02*
X151290000Y-87000000D01*
X151180000Y-87700000D02*
X151180000Y-87000000D01*
X159450000Y-87000000D02*
X159460000Y-87010000D01*
D30*
X156000000Y-87000000D02*
X159450000Y-87000000D01*
D32*
X154750000Y-87000000D02*
X155000000Y-87000000D01*
X155000000Y-87000000D02*
X155250000Y-87000000D01*
X155250000Y-87000000D02*
X155500000Y-87000000D01*
D30*
X155500000Y-87000000D02*
X156000000Y-87000000D01*
D28*
X154300000Y-87000000D02*
X154750000Y-87000000D01*
D27*
X135000000Y-87000000D02*
X136250000Y-87000000D01*
X136250000Y-87000000D02*
X136500000Y-87000000D01*
D28*
X136500000Y-87000000D02*
X137500000Y-87000000D01*
D31*
X134450000Y-87000000D02*
X135000000Y-87000000D01*
D28*
X142000000Y-86000000D02*
X142000000Y-87000000D01*
X142000000Y-87000000D02*
X142250000Y-87000000D01*
D27*
X142250000Y-87000000D02*
X141250000Y-87000000D01*
X146500000Y-87000000D02*
X142250000Y-87000000D01*
D28*
X141250000Y-87000000D02*
X140500000Y-87000000D01*
D29*
X147540000Y-87000000D02*
X146500000Y-87000000D01*
D28*
X132290000Y-87000000D02*
X133350000Y-87000000D01*
D33*
G36*
X160875000Y-84875000D02*
X153148223Y-84875000D01*
X152548223Y-85475000D01*
X149425000Y-85475000D01*
X149425000Y-83218750D01*
X149425000Y-82675000D01*
X148831250Y-82675000D01*
X148725000Y-82781250D01*
X148725000Y-82815462D01*
X148725000Y-82984538D01*
X148789702Y-83140743D01*
X148909257Y-83260298D01*
X149065462Y-83325000D01*
X149318750Y-83325000D01*
X149425000Y-83218750D01*
X149425000Y-85475000D01*
X149251777Y-85475000D01*
X148651777Y-84875000D01*
X143279594Y-84875000D01*
X143477297Y-84677297D01*
X143623619Y-84458312D01*
X143623619Y-84458311D01*
X143675000Y-84200000D01*
X143675000Y-84003850D01*
X143699819Y-83967082D01*
X143716440Y-83884199D01*
X143762201Y-83815714D01*
X143825000Y-83500000D01*
X143825000Y-82648265D01*
X143854589Y-82603982D01*
X143925000Y-82250000D01*
X143925000Y-81377923D01*
X143999819Y-81267082D01*
X144033326Y-81100000D01*
X144033326Y-79400000D01*
X144001884Y-79237949D01*
X143925000Y-79120905D01*
X143925000Y-78383147D01*
X144083147Y-78225000D01*
X146725343Y-78225000D01*
X146631554Y-78318626D01*
X146475178Y-78695220D01*
X146474822Y-79102991D01*
X146630541Y-79479857D01*
X146918626Y-79768446D01*
X147295220Y-79924822D01*
X147702991Y-79925178D01*
X148079857Y-79769459D01*
X148368446Y-79481374D01*
X148524822Y-79104780D01*
X148525178Y-78697009D01*
X148369459Y-78320143D01*
X148274482Y-78225000D01*
X149616852Y-78225000D01*
X150075000Y-78683147D01*
X150075000Y-80263133D01*
X150004464Y-80333547D01*
X150000948Y-80342012D01*
X149983702Y-80316200D01*
X149789473Y-80245882D01*
X149754118Y-80281237D01*
X149754118Y-80210527D01*
X149683800Y-80016298D01*
X149255302Y-79829499D01*
X148787937Y-79820898D01*
X148352857Y-79991805D01*
X148316200Y-80016298D01*
X148245882Y-80210527D01*
X149000000Y-80964645D01*
X149754118Y-80210527D01*
X149754118Y-80281237D01*
X149035355Y-81000000D01*
X149789473Y-81754118D01*
X149983702Y-81683800D01*
X149997813Y-81651430D01*
X150003302Y-81664715D01*
X150291744Y-81953661D01*
X150278732Y-81966674D01*
X150250000Y-81966674D01*
X150087949Y-81998116D01*
X150004182Y-82053141D01*
X149990743Y-82039702D01*
X149834538Y-81975000D01*
X149686950Y-81975000D01*
X149754118Y-81789473D01*
X149000000Y-81035355D01*
X148964645Y-81070710D01*
X148964645Y-81000000D01*
X148210527Y-80245882D01*
X148016298Y-80316200D01*
X147829499Y-80744698D01*
X147820898Y-81212063D01*
X147991805Y-81647143D01*
X148016298Y-81683800D01*
X148210527Y-81754118D01*
X148964645Y-81000000D01*
X148964645Y-81070710D01*
X148245882Y-81789473D01*
X148316200Y-81983702D01*
X148744698Y-82170501D01*
X148784739Y-82171237D01*
X148725000Y-82315462D01*
X148725000Y-82484538D01*
X148725000Y-82518750D01*
X148831250Y-82625000D01*
X149425000Y-82625000D01*
X149425000Y-82605000D01*
X149475000Y-82605000D01*
X149475000Y-82625000D01*
X149495000Y-82625000D01*
X149495000Y-82675000D01*
X149475000Y-82675000D01*
X149475000Y-83218750D01*
X149581250Y-83325000D01*
X149834538Y-83325000D01*
X149990743Y-83260298D01*
X150004293Y-83246747D01*
X150082918Y-83299819D01*
X150250000Y-83333326D01*
X150850000Y-83333326D01*
X151012051Y-83301884D01*
X151154479Y-83208325D01*
X151249819Y-83067082D01*
X151283326Y-82900000D01*
X151283326Y-82871268D01*
X151477297Y-82677297D01*
X151623619Y-82458312D01*
X151623619Y-82458311D01*
X151675000Y-82200000D01*
X151675000Y-81986430D01*
X151995536Y-81666453D01*
X152174796Y-81234747D01*
X152175204Y-80767303D01*
X151996698Y-80335285D01*
X151925000Y-80263461D01*
X151925000Y-79771092D01*
X152295220Y-79924822D01*
X152702991Y-79925178D01*
X153079857Y-79769459D01*
X153368446Y-79481374D01*
X153524822Y-79104780D01*
X153525178Y-78697009D01*
X153369459Y-78320143D01*
X153081374Y-78031554D01*
X152704780Y-77875178D01*
X152297009Y-77874822D01*
X151920143Y-78030541D01*
X151879476Y-78071136D01*
X151854589Y-77946018D01*
X151654074Y-77645927D01*
X151654074Y-77645926D01*
X151654070Y-77645923D01*
X150654074Y-76645926D01*
X150353983Y-76445411D01*
X150000000Y-76375000D01*
X143700000Y-76375000D01*
X143346018Y-76445411D01*
X143045926Y-76645926D01*
X143045923Y-76645929D01*
X142345926Y-77345926D01*
X142145411Y-77646017D01*
X142075000Y-78000000D01*
X142075000Y-79122076D01*
X142000181Y-79232918D01*
X141966674Y-79400000D01*
X141966674Y-81100000D01*
X141998116Y-81262051D01*
X142075000Y-81379094D01*
X142075000Y-81441759D01*
X142034538Y-81425000D01*
X141731250Y-81425000D01*
X141625000Y-81531250D01*
X141625000Y-82225000D01*
X141645000Y-82225000D01*
X141645000Y-82275000D01*
X141625000Y-82275000D01*
X141625000Y-82295000D01*
X141575000Y-82295000D01*
X141575000Y-82275000D01*
X141575000Y-82225000D01*
X141575000Y-81531250D01*
X141468750Y-81425000D01*
X141165462Y-81425000D01*
X141009257Y-81489702D01*
X140925000Y-81573959D01*
X140925000Y-81184538D01*
X140925000Y-81015462D01*
X140925000Y-80381250D01*
X140925000Y-80118750D01*
X140925000Y-79484538D01*
X140925000Y-79315462D01*
X140860298Y-79159257D01*
X140740743Y-79039702D01*
X140584538Y-78975000D01*
X140031250Y-78975000D01*
X139925000Y-79081250D01*
X139925000Y-80225000D01*
X140818750Y-80225000D01*
X140925000Y-80118750D01*
X140925000Y-80381250D01*
X140818750Y-80275000D01*
X139925000Y-80275000D01*
X139925000Y-81418750D01*
X140031250Y-81525000D01*
X140584538Y-81525000D01*
X140740743Y-81460298D01*
X140860298Y-81340743D01*
X140925000Y-81184538D01*
X140925000Y-81573959D01*
X140889702Y-81609257D01*
X140825000Y-81765462D01*
X140825000Y-81934538D01*
X140825000Y-82118750D01*
X140931250Y-82225000D01*
X141575000Y-82225000D01*
X141575000Y-82275000D01*
X140931250Y-82275000D01*
X140825000Y-82381250D01*
X140825000Y-82565462D01*
X140825000Y-82734538D01*
X140889702Y-82890743D01*
X141009257Y-83010298D01*
X141165462Y-83075000D01*
X141291759Y-83075000D01*
X141275000Y-83115462D01*
X141275000Y-83284538D01*
X141275000Y-83368750D01*
X141381250Y-83475000D01*
X141975000Y-83475000D01*
X141975000Y-83455000D01*
X142025000Y-83455000D01*
X142025000Y-83475000D01*
X142045000Y-83475000D01*
X142045000Y-83525000D01*
X142025000Y-83525000D01*
X142025000Y-83545000D01*
X141975000Y-83545000D01*
X141975000Y-83525000D01*
X141381250Y-83525000D01*
X141275000Y-83631250D01*
X141275000Y-83715462D01*
X141275000Y-83884538D01*
X141323308Y-84001164D01*
X141185521Y-84091675D01*
X141090181Y-84232918D01*
X141056674Y-84400000D01*
X141056674Y-84875000D01*
X139875000Y-84875000D01*
X139875000Y-81418750D01*
X139875000Y-80275000D01*
X139875000Y-80225000D01*
X139875000Y-79081250D01*
X139768750Y-78975000D01*
X139215462Y-78975000D01*
X139059257Y-79039702D01*
X138939702Y-79159257D01*
X138875000Y-79315462D01*
X138875000Y-79484538D01*
X138875000Y-80118750D01*
X138981250Y-80225000D01*
X139875000Y-80225000D01*
X139875000Y-80275000D01*
X138981250Y-80275000D01*
X138875000Y-80381250D01*
X138875000Y-81015462D01*
X138875000Y-81184538D01*
X138939702Y-81340743D01*
X139059257Y-81460298D01*
X139215462Y-81525000D01*
X139768750Y-81525000D01*
X139875000Y-81418750D01*
X139875000Y-84875000D01*
X130748223Y-84875000D01*
X130148223Y-85475000D01*
X124451777Y-85475000D01*
X123851777Y-84875000D01*
X116125000Y-84875000D01*
X116125000Y-78967891D01*
X117057360Y-79901881D01*
X118315736Y-80424404D01*
X119678286Y-80425593D01*
X120937572Y-79905267D01*
X121901881Y-78942640D01*
X122424404Y-77684264D01*
X122425593Y-76321714D01*
X121905267Y-75062428D01*
X120969474Y-74125000D01*
X156032108Y-74125000D01*
X155098119Y-75057360D01*
X154575596Y-76315736D01*
X154574407Y-77678286D01*
X155094733Y-78937572D01*
X156057360Y-79901881D01*
X157315736Y-80424404D01*
X158678286Y-80425593D01*
X159937572Y-79905267D01*
X160875000Y-78969474D01*
X160875000Y-84875000D01*
X160875000Y-84875000D01*
G37*
X160875000Y-84875000D02*
X153148223Y-84875000D01*
X152548223Y-85475000D01*
X149425000Y-85475000D01*
X149425000Y-83218750D01*
X149425000Y-82675000D01*
X148831250Y-82675000D01*
X148725000Y-82781250D01*
X148725000Y-82815462D01*
X148725000Y-82984538D01*
X148789702Y-83140743D01*
X148909257Y-83260298D01*
X149065462Y-83325000D01*
X149318750Y-83325000D01*
X149425000Y-83218750D01*
X149425000Y-85475000D01*
X149251777Y-85475000D01*
X148651777Y-84875000D01*
X143279594Y-84875000D01*
X143477297Y-84677297D01*
X143623619Y-84458312D01*
X143623619Y-84458311D01*
X143675000Y-84200000D01*
X143675000Y-84003850D01*
X143699819Y-83967082D01*
X143716440Y-83884199D01*
X143762201Y-83815714D01*
X143825000Y-83500000D01*
X143825000Y-82648265D01*
X143854589Y-82603982D01*
X143925000Y-82250000D01*
X143925000Y-81377923D01*
X143999819Y-81267082D01*
X144033326Y-81100000D01*
X144033326Y-79400000D01*
X144001884Y-79237949D01*
X143925000Y-79120905D01*
X143925000Y-78383147D01*
X144083147Y-78225000D01*
X146725343Y-78225000D01*
X146631554Y-78318626D01*
X146475178Y-78695220D01*
X146474822Y-79102991D01*
X146630541Y-79479857D01*
X146918626Y-79768446D01*
X147295220Y-79924822D01*
X147702991Y-79925178D01*
X148079857Y-79769459D01*
X148368446Y-79481374D01*
X148524822Y-79104780D01*
X148525178Y-78697009D01*
X148369459Y-78320143D01*
X148274482Y-78225000D01*
X149616852Y-78225000D01*
X150075000Y-78683147D01*
X150075000Y-80263133D01*
X150004464Y-80333547D01*
X150000948Y-80342012D01*
X149983702Y-80316200D01*
X149789473Y-80245882D01*
X149754118Y-80281237D01*
X149754118Y-80210527D01*
X149683800Y-80016298D01*
X149255302Y-79829499D01*
X148787937Y-79820898D01*
X148352857Y-79991805D01*
X148316200Y-80016298D01*
X148245882Y-80210527D01*
X149000000Y-80964645D01*
X149754118Y-80210527D01*
X149754118Y-80281237D01*
X149035355Y-81000000D01*
X149789473Y-81754118D01*
X149983702Y-81683800D01*
X149997813Y-81651430D01*
X150003302Y-81664715D01*
X150291744Y-81953661D01*
X150278732Y-81966674D01*
X150250000Y-81966674D01*
X150087949Y-81998116D01*
X150004182Y-82053141D01*
X149990743Y-82039702D01*
X149834538Y-81975000D01*
X149686950Y-81975000D01*
X149754118Y-81789473D01*
X149000000Y-81035355D01*
X148964645Y-81070710D01*
X148964645Y-81000000D01*
X148210527Y-80245882D01*
X148016298Y-80316200D01*
X147829499Y-80744698D01*
X147820898Y-81212063D01*
X147991805Y-81647143D01*
X148016298Y-81683800D01*
X148210527Y-81754118D01*
X148964645Y-81000000D01*
X148964645Y-81070710D01*
X148245882Y-81789473D01*
X148316200Y-81983702D01*
X148744698Y-82170501D01*
X148784739Y-82171237D01*
X148725000Y-82315462D01*
X148725000Y-82484538D01*
X148725000Y-82518750D01*
X148831250Y-82625000D01*
X149425000Y-82625000D01*
X149425000Y-82605000D01*
X149475000Y-82605000D01*
X149475000Y-82625000D01*
X149495000Y-82625000D01*
X149495000Y-82675000D01*
X149475000Y-82675000D01*
X149475000Y-83218750D01*
X149581250Y-83325000D01*
X149834538Y-83325000D01*
X149990743Y-83260298D01*
X150004293Y-83246747D01*
X150082918Y-83299819D01*
X150250000Y-83333326D01*
X150850000Y-83333326D01*
X151012051Y-83301884D01*
X151154479Y-83208325D01*
X151249819Y-83067082D01*
X151283326Y-82900000D01*
X151283326Y-82871268D01*
X151477297Y-82677297D01*
X151623619Y-82458312D01*
X151623619Y-82458311D01*
X151675000Y-82200000D01*
X151675000Y-81986430D01*
X151995536Y-81666453D01*
X152174796Y-81234747D01*
X152175204Y-80767303D01*
X151996698Y-80335285D01*
X151925000Y-80263461D01*
X151925000Y-79771092D01*
X152295220Y-79924822D01*
X152702991Y-79925178D01*
X153079857Y-79769459D01*
X153368446Y-79481374D01*
X153524822Y-79104780D01*
X153525178Y-78697009D01*
X153369459Y-78320143D01*
X153081374Y-78031554D01*
X152704780Y-77875178D01*
X152297009Y-77874822D01*
X151920143Y-78030541D01*
X151879476Y-78071136D01*
X151854589Y-77946018D01*
X151654074Y-77645927D01*
X151654074Y-77645926D01*
X151654070Y-77645923D01*
X150654074Y-76645926D01*
X150353983Y-76445411D01*
X150000000Y-76375000D01*
X143700000Y-76375000D01*
X143346018Y-76445411D01*
X143045926Y-76645926D01*
X143045923Y-76645929D01*
X142345926Y-77345926D01*
X142145411Y-77646017D01*
X142075000Y-78000000D01*
X142075000Y-79122076D01*
X142000181Y-79232918D01*
X141966674Y-79400000D01*
X141966674Y-81100000D01*
X141998116Y-81262051D01*
X142075000Y-81379094D01*
X142075000Y-81441759D01*
X142034538Y-81425000D01*
X141731250Y-81425000D01*
X141625000Y-81531250D01*
X141625000Y-82225000D01*
X141645000Y-82225000D01*
X141645000Y-82275000D01*
X141625000Y-82275000D01*
X141625000Y-82295000D01*
X141575000Y-82295000D01*
X141575000Y-82275000D01*
X141575000Y-82225000D01*
X141575000Y-81531250D01*
X141468750Y-81425000D01*
X141165462Y-81425000D01*
X141009257Y-81489702D01*
X140925000Y-81573959D01*
X140925000Y-81184538D01*
X140925000Y-81015462D01*
X140925000Y-80381250D01*
X140925000Y-80118750D01*
X140925000Y-79484538D01*
X140925000Y-79315462D01*
X140860298Y-79159257D01*
X140740743Y-79039702D01*
X140584538Y-78975000D01*
X140031250Y-78975000D01*
X139925000Y-79081250D01*
X139925000Y-80225000D01*
X140818750Y-80225000D01*
X140925000Y-80118750D01*
X140925000Y-80381250D01*
X140818750Y-80275000D01*
X139925000Y-80275000D01*
X139925000Y-81418750D01*
X140031250Y-81525000D01*
X140584538Y-81525000D01*
X140740743Y-81460298D01*
X140860298Y-81340743D01*
X140925000Y-81184538D01*
X140925000Y-81573959D01*
X140889702Y-81609257D01*
X140825000Y-81765462D01*
X140825000Y-81934538D01*
X140825000Y-82118750D01*
X140931250Y-82225000D01*
X141575000Y-82225000D01*
X141575000Y-82275000D01*
X140931250Y-82275000D01*
X140825000Y-82381250D01*
X140825000Y-82565462D01*
X140825000Y-82734538D01*
X140889702Y-82890743D01*
X141009257Y-83010298D01*
X141165462Y-83075000D01*
X141291759Y-83075000D01*
X141275000Y-83115462D01*
X141275000Y-83284538D01*
X141275000Y-83368750D01*
X141381250Y-83475000D01*
X141975000Y-83475000D01*
X141975000Y-83455000D01*
X142025000Y-83455000D01*
X142025000Y-83475000D01*
X142045000Y-83475000D01*
X142045000Y-83525000D01*
X142025000Y-83525000D01*
X142025000Y-83545000D01*
X141975000Y-83545000D01*
X141975000Y-83525000D01*
X141381250Y-83525000D01*
X141275000Y-83631250D01*
X141275000Y-83715462D01*
X141275000Y-83884538D01*
X141323308Y-84001164D01*
X141185521Y-84091675D01*
X141090181Y-84232918D01*
X141056674Y-84400000D01*
X141056674Y-84875000D01*
X139875000Y-84875000D01*
X139875000Y-81418750D01*
X139875000Y-80275000D01*
X139875000Y-80225000D01*
X139875000Y-79081250D01*
X139768750Y-78975000D01*
X139215462Y-78975000D01*
X139059257Y-79039702D01*
X138939702Y-79159257D01*
X138875000Y-79315462D01*
X138875000Y-79484538D01*
X138875000Y-80118750D01*
X138981250Y-80225000D01*
X139875000Y-80225000D01*
X139875000Y-80275000D01*
X138981250Y-80275000D01*
X138875000Y-80381250D01*
X138875000Y-81015462D01*
X138875000Y-81184538D01*
X138939702Y-81340743D01*
X139059257Y-81460298D01*
X139215462Y-81525000D01*
X139768750Y-81525000D01*
X139875000Y-81418750D01*
X139875000Y-84875000D01*
X130748223Y-84875000D01*
X130148223Y-85475000D01*
X124451777Y-85475000D01*
X123851777Y-84875000D01*
X116125000Y-84875000D01*
X116125000Y-78967891D01*
X117057360Y-79901881D01*
X118315736Y-80424404D01*
X119678286Y-80425593D01*
X120937572Y-79905267D01*
X121901881Y-78942640D01*
X122424404Y-77684264D01*
X122425593Y-76321714D01*
X121905267Y-75062428D01*
X120969474Y-74125000D01*
X156032108Y-74125000D01*
X155098119Y-75057360D01*
X154575596Y-76315736D01*
X154574407Y-77678286D01*
X155094733Y-78937572D01*
X156057360Y-79901881D01*
X157315736Y-80424404D01*
X158678286Y-80425593D01*
X159937572Y-79905267D01*
X160875000Y-78969474D01*
X160875000Y-84875000D01*
G36*
X160875000Y-95032108D02*
X159942640Y-94098119D01*
X158684264Y-93575596D01*
X157321714Y-93574407D01*
X156062428Y-94094733D01*
X155098119Y-95057360D01*
X154575596Y-96315736D01*
X154574407Y-97678286D01*
X155094733Y-98937572D01*
X156030525Y-99875000D01*
X120967891Y-99875000D01*
X121901881Y-98942640D01*
X122424404Y-97684264D01*
X122425593Y-96321714D01*
X121905267Y-95062428D01*
X120942640Y-94098119D01*
X119684264Y-93575596D01*
X118321714Y-93574407D01*
X117062428Y-94094733D01*
X116125000Y-95030525D01*
X116125000Y-89125000D01*
X123851777Y-89125000D01*
X124451777Y-88525000D01*
X130148223Y-88525000D01*
X130748223Y-89125000D01*
X148651777Y-89125000D01*
X149251777Y-88525000D01*
X152548223Y-88525000D01*
X153148223Y-89125000D01*
X160875000Y-89125000D01*
X160875000Y-95032108D01*
X160875000Y-95032108D01*
G37*
X160875000Y-95032108D02*
X159942640Y-94098119D01*
X158684264Y-93575596D01*
X157321714Y-93574407D01*
X156062428Y-94094733D01*
X155098119Y-95057360D01*
X154575596Y-96315736D01*
X154574407Y-97678286D01*
X155094733Y-98937572D01*
X156030525Y-99875000D01*
X120967891Y-99875000D01*
X121901881Y-98942640D01*
X122424404Y-97684264D01*
X122425593Y-96321714D01*
X121905267Y-95062428D01*
X120942640Y-94098119D01*
X119684264Y-93575596D01*
X118321714Y-93574407D01*
X117062428Y-94094733D01*
X116125000Y-95030525D01*
X116125000Y-89125000D01*
X123851777Y-89125000D01*
X124451777Y-88525000D01*
X130148223Y-88525000D01*
X130748223Y-89125000D01*
X148651777Y-89125000D01*
X149251777Y-88525000D01*
X152548223Y-88525000D01*
X153148223Y-89125000D01*
X160875000Y-89125000D01*
X160875000Y-95032108D01*
M02*
