G04 #@! TF.FileFunction,Copper,L1,Top,Signal*
%FSLAX46Y46*%
G04 Gerber Fmt 4.6, Leading zero omitted, Abs format (unit mm)*
G04 Created by KiCad (PCBNEW 0.201505031001+5637~23~ubuntu14.04.1-product) date Tue 26 May 2015 22:06:30 BST*
%MOMM*%
G01*
G04 APERTURE LIST*
%ADD10C,0.100000*%
%ADD11R,0.600000X0.600000*%
%ADD12R,0.700000X0.800000*%
%ADD13R,1.200000X1.700000*%
%ADD14R,0.500000X0.600000*%
%ADD15R,0.640000X1.020000*%
%ADD16R,1.020000X0.640000*%
%ADD17R,0.360000X0.660000*%
%ADD18R,0.600000X0.500000*%
%ADD19R,5.080000X2.286000*%
%ADD20R,5.080000X2.413000*%
%ADD21R,0.900000X1.900000*%
%ADD22R,0.900000X1.300000*%
%ADD23R,1.800000X3.500000*%
%ADD24C,0.300000*%
%ADD25C,2.200000*%
%ADD26C,0.800000*%
%ADD27C,0.300000*%
%ADD28C,2.000000*%
%ADD29C,0.500000*%
%ADD30C,0.800000*%
%ADD31C,1.500000*%
%ADD32C,1.000000*%
%ADD33C,0.250000*%
G04 APERTURE END LIST*
D10*
D11*
X124600000Y-87000000D03*
X123600000Y-87000000D03*
X127310000Y-88690000D03*
X127310000Y-87690000D03*
X143000000Y-83500000D03*
X142000000Y-83500000D03*
D12*
X143000000Y-82250000D03*
X141600000Y-82250000D03*
D11*
X151180000Y-88700000D03*
X151180000Y-87700000D03*
D13*
X143000000Y-80250000D03*
X139900000Y-80250000D03*
D11*
X153300000Y-87000000D03*
X154300000Y-87000000D03*
D14*
X122600000Y-87000000D03*
X122600000Y-88100000D03*
X155500000Y-87000000D03*
X155500000Y-88100000D03*
D15*
X132290000Y-87000000D03*
X131010000Y-87000000D03*
D16*
X142000000Y-86000000D03*
X142000000Y-84720000D03*
D17*
X148360000Y-87000000D03*
X147540000Y-87000000D03*
D18*
X134450000Y-87000000D03*
X133350000Y-87000000D03*
D14*
X147400000Y-81200000D03*
X147400000Y-82300000D03*
D19*
X158700000Y-87000000D03*
D20*
X158700000Y-82618500D03*
X158700000Y-91381500D03*
D19*
X119400000Y-87000000D03*
D20*
X119400000Y-91381500D03*
X119400000Y-82618500D03*
D21*
X139000000Y-86700000D03*
D22*
X137500000Y-87000000D03*
X140500000Y-87000000D03*
D23*
X139000000Y-84000000D03*
D24*
X139000000Y-86700000D03*
X139000000Y-87300000D03*
X139000000Y-86100000D03*
X139000000Y-85500000D03*
X139000000Y-84900000D03*
X139000000Y-84300000D03*
X139000000Y-83700000D03*
X139000000Y-83100000D03*
X139000000Y-82500000D03*
X139500000Y-85500000D03*
X139500000Y-84900000D03*
X139500000Y-84300000D03*
X139500000Y-83700000D03*
X139500000Y-83100000D03*
X138500000Y-83100000D03*
X138500000Y-83700000D03*
X138500000Y-84300000D03*
X138500000Y-84900000D03*
X138500000Y-85500000D03*
X138500000Y-82500000D03*
X139500000Y-82500000D03*
D25*
X145700000Y-83000000D03*
X145700000Y-80460000D03*
D26*
X148000000Y-84000000D03*
X150000000Y-80000000D03*
X154000000Y-80000000D03*
X158000000Y-80000000D03*
X120000000Y-80000000D03*
X124000000Y-80000000D03*
X128000000Y-80000000D03*
X132000000Y-80000000D03*
X136000000Y-80000000D03*
X139000000Y-80000000D03*
X148000000Y-82000000D03*
X152000000Y-82000000D03*
X156000000Y-82000000D03*
X136000000Y-82000000D03*
X134000000Y-82000000D03*
X130000000Y-82000000D03*
X126000000Y-82000000D03*
X122000000Y-82000000D03*
X156000000Y-94000000D03*
X152000000Y-94000000D03*
X148000000Y-94000000D03*
X144000000Y-94000000D03*
X140000000Y-94000000D03*
X136000000Y-94000000D03*
X132000000Y-94000000D03*
X128000000Y-94000000D03*
X124000000Y-94000000D03*
X120000000Y-94000000D03*
X154000000Y-92000000D03*
X150000000Y-92000000D03*
X146000000Y-92000000D03*
X142000000Y-92000000D03*
X138000000Y-92000000D03*
X134000000Y-92000000D03*
X130000000Y-92000000D03*
X126000000Y-92000000D03*
X122000000Y-92000000D03*
X160000000Y-84000000D03*
X158000000Y-84000000D03*
X156000000Y-84000000D03*
X154000000Y-84000000D03*
X152000000Y-84000000D03*
X150000000Y-84000000D03*
X146000000Y-84000000D03*
X144000000Y-84000000D03*
X118000000Y-84000000D03*
X120000000Y-84000000D03*
X122000000Y-84000000D03*
X124000000Y-84000000D03*
X126000000Y-84000000D03*
X128000000Y-84000000D03*
X130000000Y-84000000D03*
X132000000Y-84000000D03*
X134000000Y-84000000D03*
X136000000Y-84000000D03*
X118000000Y-90000000D03*
X120000000Y-90000000D03*
X122000000Y-90000000D03*
X124000000Y-90000000D03*
X126000000Y-90000000D03*
X128000000Y-90000000D03*
X130000000Y-90000000D03*
X132000000Y-90000000D03*
X134000000Y-90000000D03*
X136000000Y-90000000D03*
X138000000Y-90000000D03*
X140000000Y-90000000D03*
X142000000Y-90000000D03*
X144000000Y-90000000D03*
X146000000Y-90000000D03*
X148000000Y-90000000D03*
X150000000Y-90000000D03*
X152000000Y-90000000D03*
X154000000Y-90000000D03*
X156000000Y-90000000D03*
X158000000Y-90000000D03*
X160000000Y-90000000D03*
X140500000Y-83000000D03*
X137500000Y-83000000D03*
X138500000Y-82000000D03*
X137500000Y-84000000D03*
X140500000Y-84000000D03*
X137500000Y-82000000D03*
X140500000Y-82000000D03*
X139500000Y-82000000D03*
X137500000Y-85000000D03*
X140500000Y-85000000D03*
D27*
X127200000Y-87100000D02*
X127200000Y-87000000D01*
X127210000Y-87100000D02*
X127200000Y-87100000D01*
X127310000Y-87000000D02*
X127210000Y-87100000D01*
X127310000Y-87690000D02*
X127310000Y-87000000D01*
D28*
X127200000Y-87000000D02*
X125200000Y-87000000D01*
D27*
X125200000Y-87000000D02*
X124600000Y-87000000D01*
D28*
X130500000Y-87000000D02*
X127200000Y-87000000D01*
D29*
X131010000Y-87000000D02*
X130500000Y-87000000D01*
D30*
X122600000Y-87000000D02*
X119400000Y-87000000D01*
X123600000Y-87000000D02*
X122600000Y-87000000D01*
D29*
X147400000Y-82300000D02*
X146400000Y-82300000D01*
X146400000Y-82300000D02*
X145700000Y-83000000D01*
X158700000Y-82618500D02*
X158700000Y-80700000D01*
X154000000Y-80000000D02*
X150000000Y-80000000D01*
X158700000Y-80700000D02*
X158000000Y-80000000D01*
X119400000Y-80600000D02*
X120000000Y-80000000D01*
X124000000Y-80000000D02*
X128000000Y-80000000D01*
X132000000Y-80000000D02*
X136000000Y-80000000D01*
X119400000Y-82618500D02*
X119400000Y-80600000D01*
X158700000Y-82618500D02*
X156618500Y-82618500D01*
X156618500Y-82618500D02*
X156000000Y-82000000D01*
X152000000Y-82000000D02*
X148000000Y-82000000D01*
X119400000Y-82618500D02*
X121381500Y-82618500D01*
X121381500Y-82618500D02*
X122000000Y-82000000D01*
X134000000Y-82000000D02*
X136000000Y-82000000D01*
X126000000Y-82000000D02*
X130000000Y-82000000D01*
X119400000Y-91381500D02*
X119400000Y-93400000D01*
X156000000Y-94000000D02*
X158618500Y-91381500D01*
X148000000Y-94000000D02*
X152000000Y-94000000D01*
X140000000Y-94000000D02*
X144000000Y-94000000D01*
X132000000Y-94000000D02*
X136000000Y-94000000D01*
X124000000Y-94000000D02*
X128000000Y-94000000D01*
X119400000Y-93400000D02*
X120000000Y-94000000D01*
X158618500Y-91381500D02*
X158700000Y-91381500D01*
X119400000Y-91381500D02*
X121381500Y-91381500D01*
X121381500Y-91381500D02*
X122000000Y-92000000D01*
X150000000Y-92000000D02*
X154000000Y-92000000D01*
X142000000Y-92000000D02*
X146000000Y-92000000D01*
X134000000Y-92000000D02*
X138000000Y-92000000D01*
X126000000Y-92000000D02*
X130000000Y-92000000D01*
X158700000Y-82618500D02*
X158700000Y-82700000D01*
X158700000Y-82700000D02*
X160000000Y-84000000D01*
X158000000Y-84000000D02*
X156000000Y-84000000D01*
X154000000Y-84000000D02*
X152000000Y-84000000D01*
X150000000Y-84000000D02*
X148000000Y-84000000D01*
X146000000Y-84000000D02*
X144000000Y-84000000D01*
X119400000Y-82618500D02*
X119381500Y-82618500D01*
X119381500Y-82618500D02*
X118000000Y-84000000D01*
X120000000Y-84000000D02*
X122000000Y-84000000D01*
X124000000Y-84000000D02*
X126000000Y-84000000D01*
X128000000Y-84000000D02*
X130000000Y-84000000D01*
X132000000Y-84000000D02*
X134000000Y-84000000D01*
X119400000Y-91381500D02*
X119381500Y-91381500D01*
X120000000Y-90000000D02*
X122000000Y-90000000D01*
X124000000Y-90000000D02*
X126000000Y-90000000D01*
X128000000Y-90000000D02*
X130000000Y-90000000D01*
X132000000Y-90000000D02*
X134000000Y-90000000D01*
X136000000Y-90000000D02*
X138000000Y-90000000D01*
X140000000Y-90000000D02*
X142000000Y-90000000D01*
X144000000Y-90000000D02*
X146000000Y-90000000D01*
X148000000Y-90000000D02*
X150000000Y-90000000D01*
X152000000Y-90000000D02*
X154000000Y-90000000D01*
X156000000Y-90000000D02*
X158000000Y-90000000D01*
X160000000Y-90000000D02*
X158700000Y-91300000D01*
X158700000Y-91300000D02*
X158700000Y-91381500D01*
D30*
X155500000Y-88100000D02*
X155500000Y-89400000D01*
X122600000Y-88100000D02*
X122600000Y-89400000D01*
D27*
X139500000Y-84000000D02*
X140500000Y-83000000D01*
X137500000Y-83000000D02*
X138500000Y-84000000D01*
X138500000Y-82000000D02*
X139000000Y-82500000D01*
X139000000Y-86700000D02*
X139000000Y-84000000D01*
X139000000Y-84000000D02*
X137500000Y-84000000D01*
X139000000Y-84000000D02*
X140500000Y-84000000D01*
X139000000Y-83500000D02*
X137500000Y-82000000D01*
X139000000Y-83500000D02*
X140500000Y-82000000D01*
X139000000Y-84000000D02*
X139000000Y-83500000D01*
X139000000Y-82500000D02*
X139500000Y-82000000D01*
X139000000Y-84000000D02*
X139000000Y-82500000D01*
X138500000Y-84000000D02*
X137500000Y-85000000D01*
X139000000Y-84000000D02*
X138500000Y-84000000D01*
X139500000Y-84000000D02*
X140500000Y-85000000D01*
X139000000Y-84000000D02*
X139500000Y-84000000D01*
D30*
X139000000Y-86700000D02*
X139000000Y-89700000D01*
D29*
X159460000Y-90540000D02*
X159460000Y-91391500D01*
X117550000Y-91331500D02*
X117550000Y-90450000D01*
X117550000Y-82568500D02*
X117550000Y-83550000D01*
X159460000Y-82628500D02*
X159460000Y-83460000D01*
D31*
X145700000Y-80460000D02*
X143210000Y-80460000D01*
D32*
X143210000Y-80460000D02*
X143000000Y-80250000D01*
D29*
X145700000Y-80460000D02*
X146660000Y-80460000D01*
X146660000Y-80460000D02*
X147400000Y-81200000D01*
X143000000Y-83500000D02*
X143000000Y-84200000D01*
X143000000Y-84200000D02*
X142480000Y-84720000D01*
X142480000Y-84720000D02*
X142000000Y-84720000D01*
D30*
X143000000Y-82250000D02*
X143000000Y-83500000D01*
D32*
X143000000Y-80250000D02*
X143000000Y-82250000D01*
D28*
X151290000Y-87000000D02*
X152500000Y-87000000D01*
X149250000Y-87000000D02*
X151290000Y-87000000D01*
D27*
X152500000Y-87000000D02*
X153300000Y-87000000D01*
X148360000Y-87000000D02*
X149250000Y-87000000D01*
D29*
X151180000Y-87000000D02*
X151290000Y-87000000D01*
X151180000Y-87700000D02*
X151180000Y-87000000D01*
D30*
X155500000Y-87000000D02*
X158700000Y-87000000D01*
X154300000Y-87000000D02*
X155500000Y-87000000D01*
D29*
X159450000Y-87000000D02*
X159460000Y-87010000D01*
D28*
X135000000Y-87000000D02*
X136250000Y-87000000D01*
X136250000Y-87000000D02*
X136500000Y-87000000D01*
D29*
X136500000Y-87000000D02*
X137500000Y-87000000D01*
D30*
X134450000Y-87000000D02*
X135000000Y-87000000D01*
D29*
X142000000Y-86000000D02*
X142000000Y-87000000D01*
X142000000Y-87000000D02*
X142250000Y-87000000D01*
D28*
X142250000Y-87000000D02*
X141250000Y-87000000D01*
X146500000Y-87000000D02*
X142250000Y-87000000D01*
D29*
X141250000Y-87000000D02*
X140500000Y-87000000D01*
D27*
X147540000Y-87000000D02*
X146500000Y-87000000D01*
D29*
X132600000Y-87000000D02*
X132290000Y-87000000D01*
D32*
X133000000Y-87000000D02*
X132600000Y-87000000D01*
D29*
X133350000Y-87000000D02*
X133000000Y-87000000D01*
D33*
G36*
X161025000Y-94525000D02*
X117225000Y-94525000D01*
X117225000Y-89125000D01*
X124851777Y-89125000D01*
X125451777Y-88525000D01*
X130148223Y-88525000D01*
X130748223Y-89125000D01*
X148651777Y-89125000D01*
X149251777Y-88525000D01*
X152548223Y-88525000D01*
X153148223Y-89125000D01*
X161025000Y-89125000D01*
X161025000Y-94525000D01*
X161025000Y-94525000D01*
G37*
X161025000Y-94525000D02*
X117225000Y-94525000D01*
X117225000Y-89125000D01*
X124851777Y-89125000D01*
X125451777Y-88525000D01*
X130148223Y-88525000D01*
X130748223Y-89125000D01*
X148651777Y-89125000D01*
X149251777Y-88525000D01*
X152548223Y-88525000D01*
X153148223Y-89125000D01*
X161025000Y-89125000D01*
X161025000Y-94525000D01*
G36*
X142075000Y-81441759D02*
X142034538Y-81425000D01*
X141731250Y-81425000D01*
X141625000Y-81531250D01*
X141625000Y-82225000D01*
X141645000Y-82225000D01*
X141645000Y-82275000D01*
X141625000Y-82275000D01*
X141625000Y-82295000D01*
X141575000Y-82295000D01*
X141575000Y-82275000D01*
X141575000Y-82225000D01*
X141575000Y-81531250D01*
X141468750Y-81425000D01*
X141165462Y-81425000D01*
X141009257Y-81489702D01*
X140925000Y-81573959D01*
X140925000Y-81184538D01*
X140925000Y-81015462D01*
X140925000Y-80381250D01*
X140818750Y-80275000D01*
X139925000Y-80275000D01*
X139925000Y-81418750D01*
X140031250Y-81525000D01*
X140584538Y-81525000D01*
X140740743Y-81460298D01*
X140860298Y-81340743D01*
X140925000Y-81184538D01*
X140925000Y-81573959D01*
X140889702Y-81609257D01*
X140825000Y-81765462D01*
X140825000Y-81934538D01*
X140825000Y-82118750D01*
X140931250Y-82225000D01*
X141575000Y-82225000D01*
X141575000Y-82275000D01*
X140931250Y-82275000D01*
X140825000Y-82381250D01*
X140825000Y-82565462D01*
X140825000Y-82734538D01*
X140889702Y-82890743D01*
X141009257Y-83010298D01*
X141165462Y-83075000D01*
X141291759Y-83075000D01*
X141275000Y-83115462D01*
X141275000Y-83284538D01*
X141275000Y-83368750D01*
X141381250Y-83475000D01*
X141975000Y-83475000D01*
X141975000Y-83455000D01*
X142025000Y-83455000D01*
X142025000Y-83475000D01*
X142045000Y-83475000D01*
X142045000Y-83525000D01*
X142025000Y-83525000D01*
X142025000Y-83545000D01*
X141975000Y-83545000D01*
X141975000Y-83525000D01*
X141381250Y-83525000D01*
X141275000Y-83631250D01*
X141275000Y-83715462D01*
X141275000Y-83884538D01*
X141323308Y-84001164D01*
X141185521Y-84091675D01*
X141090181Y-84232918D01*
X141056674Y-84400000D01*
X141056674Y-84875000D01*
X139875000Y-84875000D01*
X139875000Y-81418750D01*
X139875000Y-80275000D01*
X138981250Y-80275000D01*
X138875000Y-80381250D01*
X138875000Y-81015462D01*
X138875000Y-81184538D01*
X138939702Y-81340743D01*
X139059257Y-81460298D01*
X139215462Y-81525000D01*
X139768750Y-81525000D01*
X139875000Y-81418750D01*
X139875000Y-84875000D01*
X130748223Y-84875000D01*
X130148223Y-85475000D01*
X125551777Y-85475000D01*
X124951777Y-84875000D01*
X117225000Y-84875000D01*
X117225000Y-79475000D01*
X138875000Y-79475000D01*
X138875000Y-79484538D01*
X138875000Y-80118750D01*
X138981250Y-80225000D01*
X139875000Y-80225000D01*
X139875000Y-80205000D01*
X139925000Y-80205000D01*
X139925000Y-80225000D01*
X140818750Y-80225000D01*
X140925000Y-80118750D01*
X140925000Y-79484538D01*
X140925000Y-79475000D01*
X141966674Y-79475000D01*
X141966674Y-81100000D01*
X141998116Y-81262051D01*
X142075000Y-81379094D01*
X142075000Y-81441759D01*
X142075000Y-81441759D01*
G37*
X142075000Y-81441759D02*
X142034538Y-81425000D01*
X141731250Y-81425000D01*
X141625000Y-81531250D01*
X141625000Y-82225000D01*
X141645000Y-82225000D01*
X141645000Y-82275000D01*
X141625000Y-82275000D01*
X141625000Y-82295000D01*
X141575000Y-82295000D01*
X141575000Y-82275000D01*
X141575000Y-82225000D01*
X141575000Y-81531250D01*
X141468750Y-81425000D01*
X141165462Y-81425000D01*
X141009257Y-81489702D01*
X140925000Y-81573959D01*
X140925000Y-81184538D01*
X140925000Y-81015462D01*
X140925000Y-80381250D01*
X140818750Y-80275000D01*
X139925000Y-80275000D01*
X139925000Y-81418750D01*
X140031250Y-81525000D01*
X140584538Y-81525000D01*
X140740743Y-81460298D01*
X140860298Y-81340743D01*
X140925000Y-81184538D01*
X140925000Y-81573959D01*
X140889702Y-81609257D01*
X140825000Y-81765462D01*
X140825000Y-81934538D01*
X140825000Y-82118750D01*
X140931250Y-82225000D01*
X141575000Y-82225000D01*
X141575000Y-82275000D01*
X140931250Y-82275000D01*
X140825000Y-82381250D01*
X140825000Y-82565462D01*
X140825000Y-82734538D01*
X140889702Y-82890743D01*
X141009257Y-83010298D01*
X141165462Y-83075000D01*
X141291759Y-83075000D01*
X141275000Y-83115462D01*
X141275000Y-83284538D01*
X141275000Y-83368750D01*
X141381250Y-83475000D01*
X141975000Y-83475000D01*
X141975000Y-83455000D01*
X142025000Y-83455000D01*
X142025000Y-83475000D01*
X142045000Y-83475000D01*
X142045000Y-83525000D01*
X142025000Y-83525000D01*
X142025000Y-83545000D01*
X141975000Y-83545000D01*
X141975000Y-83525000D01*
X141381250Y-83525000D01*
X141275000Y-83631250D01*
X141275000Y-83715462D01*
X141275000Y-83884538D01*
X141323308Y-84001164D01*
X141185521Y-84091675D01*
X141090181Y-84232918D01*
X141056674Y-84400000D01*
X141056674Y-84875000D01*
X139875000Y-84875000D01*
X139875000Y-81418750D01*
X139875000Y-80275000D01*
X138981250Y-80275000D01*
X138875000Y-80381250D01*
X138875000Y-81015462D01*
X138875000Y-81184538D01*
X138939702Y-81340743D01*
X139059257Y-81460298D01*
X139215462Y-81525000D01*
X139768750Y-81525000D01*
X139875000Y-81418750D01*
X139875000Y-84875000D01*
X130748223Y-84875000D01*
X130148223Y-85475000D01*
X125551777Y-85475000D01*
X124951777Y-84875000D01*
X117225000Y-84875000D01*
X117225000Y-79475000D01*
X138875000Y-79475000D01*
X138875000Y-79484538D01*
X138875000Y-80118750D01*
X138981250Y-80225000D01*
X139875000Y-80225000D01*
X139875000Y-80205000D01*
X139925000Y-80205000D01*
X139925000Y-80225000D01*
X140818750Y-80225000D01*
X140925000Y-80118750D01*
X140925000Y-79484538D01*
X140925000Y-79475000D01*
X141966674Y-79475000D01*
X141966674Y-81100000D01*
X141998116Y-81262051D01*
X142075000Y-81379094D01*
X142075000Y-81441759D01*
G36*
X161025000Y-84875000D02*
X153148223Y-84875000D01*
X152548223Y-85475000D01*
X149251777Y-85475000D01*
X148651777Y-84875000D01*
X148075000Y-84875000D01*
X148075000Y-82684538D01*
X148075000Y-82431250D01*
X147968750Y-82325000D01*
X147425000Y-82325000D01*
X147425000Y-82918750D01*
X147531250Y-83025000D01*
X147565462Y-83025000D01*
X147734538Y-83025000D01*
X147890743Y-82960298D01*
X148010298Y-82840743D01*
X148075000Y-82684538D01*
X148075000Y-84875000D01*
X146706504Y-84875000D01*
X146706504Y-84041859D01*
X145700000Y-83035355D01*
X145664645Y-83070710D01*
X145664645Y-83000000D01*
X144658141Y-81993496D01*
X144427546Y-82106410D01*
X144182444Y-82661378D01*
X144168376Y-83267897D01*
X144387484Y-83833632D01*
X144427546Y-83893590D01*
X144658141Y-84006504D01*
X145664645Y-83000000D01*
X145664645Y-83070710D01*
X144693496Y-84041859D01*
X144806410Y-84272454D01*
X145361378Y-84517556D01*
X145967897Y-84531624D01*
X146533632Y-84312516D01*
X146593590Y-84272454D01*
X146706504Y-84041859D01*
X146706504Y-84875000D01*
X143279594Y-84875000D01*
X143477297Y-84677297D01*
X143623619Y-84458312D01*
X143623619Y-84458311D01*
X143675000Y-84200000D01*
X143675000Y-84003850D01*
X143699819Y-83967082D01*
X143716440Y-83884199D01*
X143762201Y-83815714D01*
X143825000Y-83500000D01*
X143825000Y-82648265D01*
X143854589Y-82603982D01*
X143925000Y-82250000D01*
X143925000Y-81635000D01*
X144718154Y-81635000D01*
X144808886Y-81725891D01*
X144806410Y-81727546D01*
X144693496Y-81958141D01*
X145700000Y-82964645D01*
X145714142Y-82950502D01*
X145749497Y-82985857D01*
X145735355Y-83000000D01*
X146741859Y-84006504D01*
X146972454Y-83893590D01*
X147217556Y-83338622D01*
X147224830Y-83025000D01*
X147234538Y-83025000D01*
X147268750Y-83025000D01*
X147375000Y-82918750D01*
X147375000Y-82325000D01*
X147355000Y-82325000D01*
X147355000Y-82275000D01*
X147375000Y-82275000D01*
X147375000Y-82255000D01*
X147425000Y-82255000D01*
X147425000Y-82275000D01*
X147968750Y-82275000D01*
X148075000Y-82168750D01*
X148075000Y-81915462D01*
X148010298Y-81759257D01*
X147996747Y-81745706D01*
X148049819Y-81667082D01*
X148083326Y-81500000D01*
X148083326Y-80900000D01*
X148051884Y-80737949D01*
X147958325Y-80595521D01*
X147817082Y-80500181D01*
X147650000Y-80466674D01*
X147621268Y-80466674D01*
X147163781Y-80009187D01*
X146993586Y-79597285D01*
X146871514Y-79475000D01*
X161025000Y-79475000D01*
X161025000Y-84875000D01*
X161025000Y-84875000D01*
G37*
X161025000Y-84875000D02*
X153148223Y-84875000D01*
X152548223Y-85475000D01*
X149251777Y-85475000D01*
X148651777Y-84875000D01*
X148075000Y-84875000D01*
X148075000Y-82684538D01*
X148075000Y-82431250D01*
X147968750Y-82325000D01*
X147425000Y-82325000D01*
X147425000Y-82918750D01*
X147531250Y-83025000D01*
X147565462Y-83025000D01*
X147734538Y-83025000D01*
X147890743Y-82960298D01*
X148010298Y-82840743D01*
X148075000Y-82684538D01*
X148075000Y-84875000D01*
X146706504Y-84875000D01*
X146706504Y-84041859D01*
X145700000Y-83035355D01*
X145664645Y-83070710D01*
X145664645Y-83000000D01*
X144658141Y-81993496D01*
X144427546Y-82106410D01*
X144182444Y-82661378D01*
X144168376Y-83267897D01*
X144387484Y-83833632D01*
X144427546Y-83893590D01*
X144658141Y-84006504D01*
X145664645Y-83000000D01*
X145664645Y-83070710D01*
X144693496Y-84041859D01*
X144806410Y-84272454D01*
X145361378Y-84517556D01*
X145967897Y-84531624D01*
X146533632Y-84312516D01*
X146593590Y-84272454D01*
X146706504Y-84041859D01*
X146706504Y-84875000D01*
X143279594Y-84875000D01*
X143477297Y-84677297D01*
X143623619Y-84458312D01*
X143623619Y-84458311D01*
X143675000Y-84200000D01*
X143675000Y-84003850D01*
X143699819Y-83967082D01*
X143716440Y-83884199D01*
X143762201Y-83815714D01*
X143825000Y-83500000D01*
X143825000Y-82648265D01*
X143854589Y-82603982D01*
X143925000Y-82250000D01*
X143925000Y-81635000D01*
X144718154Y-81635000D01*
X144808886Y-81725891D01*
X144806410Y-81727546D01*
X144693496Y-81958141D01*
X145700000Y-82964645D01*
X145714142Y-82950502D01*
X145749497Y-82985857D01*
X145735355Y-83000000D01*
X146741859Y-84006504D01*
X146972454Y-83893590D01*
X147217556Y-83338622D01*
X147224830Y-83025000D01*
X147234538Y-83025000D01*
X147268750Y-83025000D01*
X147375000Y-82918750D01*
X147375000Y-82325000D01*
X147355000Y-82325000D01*
X147355000Y-82275000D01*
X147375000Y-82275000D01*
X147375000Y-82255000D01*
X147425000Y-82255000D01*
X147425000Y-82275000D01*
X147968750Y-82275000D01*
X148075000Y-82168750D01*
X148075000Y-81915462D01*
X148010298Y-81759257D01*
X147996747Y-81745706D01*
X148049819Y-81667082D01*
X148083326Y-81500000D01*
X148083326Y-80900000D01*
X148051884Y-80737949D01*
X147958325Y-80595521D01*
X147817082Y-80500181D01*
X147650000Y-80466674D01*
X147621268Y-80466674D01*
X147163781Y-80009187D01*
X146993586Y-79597285D01*
X146871514Y-79475000D01*
X161025000Y-79475000D01*
X161025000Y-84875000D01*
M02*
