M48
;DRILL file {KiCad 0.201505031001+5637~23~ubuntu14.04.1-product} date Sun 24 May 2015 16:44:16 BST
;FORMAT={-:-/ absolute / inch / decimal}
FMAT,2
INCH,TZ
T1C0.024
T2C0.047
T3C0.130
%
G90
G05
M72
T1
X4.5866Y-3.0315
X4.5866Y-3.8189
X4.6142Y-2.9606
X4.6142Y-3.1024
X4.6142Y-3.748
X4.6142Y-3.8898
X4.685Y-2.9331
X4.685Y-3.1299
X4.685Y-3.7205
X4.685Y-3.9173
X4.7559Y-2.9606
X4.7559Y-3.1024
X4.7559Y-3.748
X4.7559Y-3.8898
X4.7835Y-3.0315
X4.7835Y-3.8189
X6.122Y-3.0315
X6.122Y-3.8189
X6.1496Y-2.9606
X6.1496Y-3.1024
X6.1496Y-3.748
X6.1496Y-3.8898
X6.2205Y-2.9331
X6.2205Y-3.1299
X6.2205Y-3.7205
X6.2205Y-3.9173
X6.2913Y-2.9606
X6.2913Y-3.1024
X6.2913Y-3.748
X6.2913Y-3.8898
X6.3189Y-3.0315
X6.3189Y-3.8189
T2
X5.8071Y-3.1063
X6.0039Y-3.1063
T3
X4.685Y-3.0315
X4.685Y-3.8189
X6.2205Y-3.0315
X6.2205Y-3.8189
T0
M30
