  0
SECTION
  2
HEADER
  9
$ANGBASE
  50
0.0
  9
$ANGDIR
  70
  1
  9
$MEASUREMENT
  70
0
  0
ENDSEC
  0
SECTION
  2
TABLES
  0
TABLE
  2
LTYPE
  70
1
  0
LTYPE
  2
CONTINUOUS
  70
0
  3
Solid line
  72
65
  73
0
  40
0.0
  0
ENDTAB
  0
TABLE
  2
STYLE
  70
4
  0
STYLE
  2
KICAD
  70
0
  40
0
  41
1
  42
1
  50
0
  71
0
  3
isocp.shx
  0
STYLE
  2
KICADB
  70
0
  40
0
  41
1
  42
1
  50
0
  71
0
  3
isocp.shx
  0
STYLE
  2
KICADI
  70
0
  40
0
  41
1
  42
1
  50
15
  71
0
  3
isocp.shx
  0
STYLE
  2
KICADBI
  70
0
  40
0
  41
1
  42
1
  50
15
  71
0
  3
isocp.shx
  0
ENDTAB
  0
TABLE
  2
LAYER
  70
30
  0
LAYER
  2
BLACK
  70
0
  62
7
  6
CONTINUOUS
  0
LAYER
  2
GRAY1
  70
0
  62
251
  6
CONTINUOUS
  0
LAYER
  2
GRAY2
  70
0
  62
8
  6
CONTINUOUS
  0
LAYER
  2
GRAY3
  70
0
  62
9
  6
CONTINUOUS
  0
LAYER
  2
WHITE
  70
0
  62
7
  6
CONTINUOUS
  0
LAYER
  2
LYELLOW
  70
0
  62
51
  6
CONTINUOUS
  0
LAYER
  2
BLUE1
  70
0
  62
178
  6
CONTINUOUS
  0
LAYER
  2
GREEN1
  70
0
  62
98
  6
CONTINUOUS
  0
LAYER
  2
CYAN1
  70
0
  62
138
  6
CONTINUOUS
  0
LAYER
  2
RED1
  70
0
  62
18
  6
CONTINUOUS
  0
LAYER
  2
MAGENTA1
  70
0
  62
228
  6
CONTINUOUS
  0
LAYER
  2
BROWN1
  70
0
  62
58
  6
CONTINUOUS
  0
LAYER
  2
BLUE2
  70
0
  62
5
  6
CONTINUOUS
  0
LAYER
  2
GREEN2
  70
0
  62
3
  6
CONTINUOUS
  0
LAYER
  2
CYAN2
  70
0
  62
4
  6
CONTINUOUS
  0
LAYER
  2
RED2
  70
0
  62
1
  6
CONTINUOUS
  0
LAYER
  2
MAGENTA2
  70
0
  62
6
  6
CONTINUOUS
  0
LAYER
  2
BROWN2
  70
0
  62
54
  6
CONTINUOUS
  0
LAYER
  2
BLUE3
  70
0
  62
171
  6
CONTINUOUS
  0
LAYER
  2
GREEN3
  70
0
  62
91
  6
CONTINUOUS
  0
LAYER
  2
CYAN3
  70
0
  62
131
  6
CONTINUOUS
  0
LAYER
  2
RED3
  70
0
  62
11
  6
CONTINUOUS
  0
LAYER
  2
MAGENTA3
  70
0
  62
221
  6
CONTINUOUS
  0
LAYER
  2
YELLOW3
  70
0
  62
2
  6
CONTINUOUS
  0
LAYER
  2
BLUE4
  70
0
  62
5
  6
CONTINUOUS
  0
LAYER
  2
GREEN4
  70
0
  62
3
  6
CONTINUOUS
  0
LAYER
  2
CYAN4
  70
0
  62
4
  6
CONTINUOUS
  0
LAYER
  2
RED4
  70
0
  62
1
  6
CONTINUOUS
  0
LAYER
  2
MAGENTA4
  70
0
  62
6
  6
CONTINUOUS
  0
LAYER
  2
YELLOW4
  70
0
  62
2
  6
CONTINUOUS
  0
ENDTAB
  0
ENDSEC
  0
SECTION
  2
ENTITIES
0
LINE
8
Black
10
122.85
20
-87.3
11
122.35
21
-87.3
0
LINE
8
Black
10
122.35
20
-87.3
11
122.35
21
-86.7
0
LINE
8
Black
10
122.35
20
-86.7
11
122.85
21
-86.7
0
LINE
8
Black
10
122.85
20
-86.7
11
122.85
21
-87.3
0
LINE
8
Black
10
122.85
20
-88.4
11
122.35
21
-88.4
0
LINE
8
Black
10
122.35
20
-88.4
11
122.35
21
-87.8
0
LINE
8
Black
10
122.35
20
-87.8
11
122.85
21
-87.8
0
LINE
8
Black
10
122.85
20
-87.8
11
122.85
21
-88.4
0
LINE
8
Black
10
123.9
20
-87.3
11
123.3
21
-87.3
0
LINE
8
Black
10
123.3
20
-87.3
11
123.3
21
-86.7
0
LINE
8
Black
10
123.3
20
-86.7
11
123.9
21
-86.7
0
LINE
8
Black
10
123.9
20
-86.7
11
123.9
21
-87.3
0
LINE
8
Black
10
124.9
20
-87.3
11
124.3
21
-87.3
0
LINE
8
Black
10
124.3
20
-87.3
11
124.3
21
-86.7
0
LINE
8
Black
10
124.3
20
-86.7
11
124.9
21
-86.7
0
LINE
8
Black
10
124.9
20
-86.7
11
124.9
21
-87.3
0
LINE
8
Black
10
127.61
20
-87.99
11
127.01
21
-87.99
0
LINE
8
Black
10
127.01
20
-87.99
11
127.01
21
-87.39
0
LINE
8
Black
10
127.01
20
-87.39
11
127.61
21
-87.39
0
LINE
8
Black
10
127.61
20
-87.39
11
127.61
21
-87.99
0
LINE
8
Black
10
127.61
20
-88.99
11
127.01
21
-88.99
0
LINE
8
Black
10
127.01
20
-88.99
11
127.01
21
-88.39
0
LINE
8
Black
10
127.01
20
-88.39
11
127.61
21
-88.39
0
LINE
8
Black
10
127.61
20
-88.39
11
127.61
21
-88.99
0
LINE
8
Black
10
131.33
20
-87.51
11
130.69
21
-87.51
0
LINE
8
Black
10
130.69
20
-87.51
11
130.69
21
-86.49
0
LINE
8
Black
10
130.69
20
-86.49
11
131.33
21
-86.49
0
LINE
8
Black
10
131.33
20
-86.49
11
131.33
21
-87.51
0
LINE
8
Black
10
132.61
20
-87.51
11
131.97
21
-87.51
0
LINE
8
Black
10
131.97
20
-87.51
11
131.97
21
-86.49
0
LINE
8
Black
10
131.97
20
-86.49
11
132.61
21
-86.49
0
LINE
8
Black
10
132.61
20
-86.49
11
132.61
21
-87.51
0
LINE
8
Black
10
133.65
20
-87.25
11
133.05
21
-87.25
0
LINE
8
Black
10
133.05
20
-87.25
11
133.05
21
-86.75
0
LINE
8
Black
10
133.05
20
-86.75
11
133.65
21
-86.75
0
LINE
8
Black
10
133.65
20
-86.75
11
133.65
21
-87.25
0
LINE
8
Black
10
134.75
20
-87.25
11
134.15
21
-87.25
0
LINE
8
Black
10
134.15
20
-87.25
11
134.15
21
-86.75
0
LINE
8
Black
10
134.15
20
-86.75
11
134.75
21
-86.75
0
LINE
8
Black
10
134.75
20
-86.75
11
134.75
21
-87.25
0
LINE
8
Black
10
137.95
20
-87.65
11
137.05
21
-87.65
0
LINE
8
Black
10
137.05
20
-87.65
11
137.05
21
-86.35
0
LINE
8
Black
10
137.05
20
-86.35
11
137.95
21
-86.35
0
LINE
8
Black
10
137.95
20
-86.35
11
137.95
21
-87.65
0
LINE
8
Black
10
139.9
20
-85.75
11
139.45
21
-85.75
0
LINE
8
Black
10
139.45
20
-85.75
11
139.45
21
-87.65
0
LINE
8
Black
10
139.45
20
-87.65
11
138.55
21
-87.65
0
LINE
8
Black
10
138.55
20
-87.65
11
138.55
21
-85.75
0
LINE
8
Black
10
138.55
20
-85.75
11
138.1
21
-85.75
0
LINE
8
Black
10
138.1
20
-85.75
11
138.1
21
-82.25
0
LINE
8
Black
10
138.1
20
-82.25
11
139.9
21
-82.25
0
LINE
8
Black
10
139.9
20
-82.25
11
139.9
21
-85.75
0
LINE
8
Black
10
140.5
20
-81.1
11
139.3
21
-81.1
0
LINE
8
Black
10
139.3
20
-81.1
11
139.3
21
-79.4
0
LINE
8
Black
10
139.3
20
-79.4
11
140.5
21
-79.4
0
LINE
8
Black
10
140.5
20
-79.4
11
140.5
21
-81.1
0
LINE
8
Black
10
140.95
20
-87.65
11
140.05
21
-87.65
0
LINE
8
Black
10
140.05
20
-87.65
11
140.05
21
-86.35
0
LINE
8
Black
10
140.05
20
-86.35
11
140.95
21
-86.35
0
LINE
8
Black
10
140.95
20
-86.35
11
140.95
21
-87.65
0
LINE
8
Black
10
141.95
20
-82.65
11
141.25
21
-82.65
0
LINE
8
Black
10
141.25
20
-82.65
11
141.25
21
-81.85
0
LINE
8
Black
10
141.25
20
-81.85
11
141.95
21
-81.85
0
LINE
8
Black
10
141.95
20
-81.85
11
141.95
21
-82.65
0
LINE
8
Black
10
142.3
20
-83.8
11
141.7
21
-83.8
0
LINE
8
Black
10
141.7
20
-83.8
11
141.7
21
-83.2
0
LINE
8
Black
10
141.7
20
-83.2
11
142.3
21
-83.2
0
LINE
8
Black
10
142.3
20
-83.2
11
142.3
21
-83.8
0
LINE
8
Black
10
142.51
20
-85.04
11
141.49
21
-85.04
0
LINE
8
Black
10
141.49
20
-85.04
11
141.49
21
-84.4
0
LINE
8
Black
10
141.49
20
-84.4
11
142.51
21
-84.4
0
LINE
8
Black
10
142.51
20
-84.4
11
142.51
21
-85.04
0
LINE
8
Black
10
142.51
20
-86.32
11
141.49
21
-86.32
0
LINE
8
Black
10
141.49
20
-86.32
11
141.49
21
-85.68
0
LINE
8
Black
10
141.49
20
-85.68
11
142.51
21
-85.68
0
LINE
8
Black
10
142.51
20
-85.68
11
142.51
21
-86.32
0
LINE
8
Black
10
143.3
20
-83.8
11
142.7
21
-83.8
0
LINE
8
Black
10
142.7
20
-83.8
11
142.7
21
-83.2
0
LINE
8
Black
10
142.7
20
-83.2
11
143.3
21
-83.2
0
LINE
8
Black
10
143.3
20
-83.2
11
143.3
21
-83.8
0
LINE
8
Black
10
143.35
20
-82.65
11
142.65
21
-82.65
0
LINE
8
Black
10
142.65
20
-82.65
11
142.65
21
-81.85
0
LINE
8
Black
10
142.65
20
-81.85
11
143.35
21
-81.85
0
LINE
8
Black
10
143.35
20
-81.85
11
143.35
21
-82.65
0
LINE
8
Black
10
143.6
20
-81.1
11
142.4
21
-81.1
0
LINE
8
Black
10
142.4
20
-81.1
11
142.4
21
-79.4
0
LINE
8
Black
10
142.4
20
-79.4
11
143.6
21
-79.4
0
LINE
8
Black
10
143.6
20
-79.4
11
143.6
21
-81.1
0
LINE
8
Black
10
147.65
20
-81.5
11
147.15
21
-81.5
0
LINE
8
Black
10
147.15
20
-81.5
11
147.15
21
-80.9
0
LINE
8
Black
10
147.15
20
-80.9
11
147.65
21
-80.9
0
LINE
8
Black
10
147.65
20
-80.9
11
147.65
21
-81.5
0
LINE
8
Black
10
147.65
20
-82.6
11
147.15
21
-82.6
0
LINE
8
Black
10
147.15
20
-82.6
11
147.15
21
-82
0
LINE
8
Black
10
147.15
20
-82
11
147.65
21
-82
0
LINE
8
Black
10
147.65
20
-82
11
147.65
21
-82.6
0
LINE
8
Black
10
147.72
20
-87.33
11
147.36
21
-87.33
0
LINE
8
Black
10
147.36
20
-87.33
11
147.36
21
-86.67
0
LINE
8
Black
10
147.36
20
-86.67
11
147.72
21
-86.67
0
LINE
8
Black
10
147.72
20
-86.67
11
147.72
21
-87.33
0
LINE
8
Black
10
148.54
20
-87.33
11
148.18
21
-87.33
0
LINE
8
Black
10
148.18
20
-87.33
11
148.18
21
-86.67
0
LINE
8
Black
10
148.18
20
-86.67
11
148.54
21
-86.67
0
LINE
8
Black
10
148.54
20
-86.67
11
148.54
21
-87.33
0
LINE
8
Black
10
151.48
20
-88
11
150.88
21
-88
0
LINE
8
Black
10
150.88
20
-88
11
150.88
21
-87.4
0
LINE
8
Black
10
150.88
20
-87.4
11
151.48
21
-87.4
0
LINE
8
Black
10
151.48
20
-87.4
11
151.48
21
-88
0
LINE
8
Black
10
151.48
20
-89
11
150.88
21
-89
0
LINE
8
Black
10
150.88
20
-89
11
150.88
21
-88.4
0
LINE
8
Black
10
150.88
20
-88.4
11
151.48
21
-88.4
0
LINE
8
Black
10
151.48
20
-88.4
11
151.48
21
-89
0
LINE
8
Black
10
153.6
20
-87.3
11
153
21
-87.3
0
LINE
8
Black
10
153
20
-87.3
11
153
21
-86.7
0
LINE
8
Black
10
153
20
-86.7
11
153.6
21
-86.7
0
LINE
8
Black
10
153.6
20
-86.7
11
153.6
21
-87.3
0
LINE
8
Black
10
154.6
20
-87.3
11
154
21
-87.3
0
LINE
8
Black
10
154
20
-87.3
11
154
21
-86.7
0
LINE
8
Black
10
154
20
-86.7
11
154.6
21
-86.7
0
LINE
8
Black
10
154.6
20
-86.7
11
154.6
21
-87.3
0
LINE
8
Black
10
155.75
20
-87.3
11
155.25
21
-87.3
0
LINE
8
Black
10
155.25
20
-87.3
11
155.25
21
-86.7
0
LINE
8
Black
10
155.25
20
-86.7
11
155.75
21
-86.7
0
LINE
8
Black
10
155.75
20
-86.7
11
155.75
21
-87.3
0
LINE
8
Black
10
155.75
20
-88.4
11
155.25
21
-88.4
0
LINE
8
Black
10
155.25
20
-88.4
11
155.25
21
-87.8
0
LINE
8
Black
10
155.25
20
-87.8
11
155.75
21
-87.8
0
LINE
8
Black
10
155.75
20
-87.8
11
155.75
21
-88.4
  0
ENDSEC
  0
EOF
