999
dxflib 3.3.4.0
  0
SECTION
  2
HEADER
  9
$ACADVER
  1
AC1015
  9
$HANDSEED
  5
FFFF
  9
$DIMADEC
 70
0
  9
$DIMASZ
 40
2.5
  9
$DIMAUNIT
 70
0
  9
$DIMAZIN
 70
2
  9
$DIMDEC
 70
4
  9
$DIMEXE
 40
1.25
  9
$DIMEXO
 40
0.625
  9
$DIMGAP
 40
0.625
  9
$DIMLUNIT
 70
2
  9
$DIMSCALE
 40
1.0
  9
$DIMTSZ
 40
0.0
  9
$DIMTXT
 40
2.5
  9
$DIMZIN
 70
8
  9
$DWGCODEPAGE
  3
ANSI_1252
  9
$INSUNITS
 70
4
  9
$LTSCALE
 40
1.0
  0
ENDSEC
  0
SECTION
  2
TABLES
  0
TABLE
  2
VPORT
  5
8
100
AcDbSymbolTable
 70
1
  0
VPORT
  5
30
100
AcDbSymbolTableRecord
100
AcDbViewportTableRecord
  2
*Active
 70
0
 10
0.0
 20
0.0
 11
1.0
 21
1.0
 12
286.3055555555554861
 22
148.5
 13
0.0
 23
0.0
 14
10.0
 24
10.0
 15
10.0
 25
10.0
 16
0.0
 26
0.0
 36
1.0
 17
0.0
 27
0.0
 37
0.0
 40
297.0
 41
1.92798353909465
 42
50.0
 43
0.0
 44
0.0
 50
0.0
 51
0.0
 71
0
 72
100
 73
1
 74
3
 75
1
 76
1
 77
0
 78
0
281
0
 65
1
110
0.0
120
0.0
130
0.0
111
1.0
121
0.0
131
0.0
112
0.0
122
1.0
132
0.0
 79
0
146
0.0
  0
ENDTAB
  0
TABLE
  2
LTYPE
  5
5
100
AcDbSymbolTable
 70
21
  0
LTYPE
  5
16
100
AcDbSymbolTableRecord
100
AcDbLinetypeTableRecord
  2
CONTINUOUS
 70
0
  3
Solid line
 72
65
 73
0
 40
0.0
  0
LTYPE
  5
31
100
AcDbSymbolTableRecord
100
AcDbLinetypeTableRecord
  2
CENTER2
 70
0
  3
Center (.5x) ___ _ ___ _ ___ _ ___ _ ___ _ ___
 72
65
 73
4
 40
28.5749999999999993
 49
19.0500000000000007
 74
0
 49
-3.1749999999999998
 74
0
 49
3.1749999999999998
 74
0
 49
-3.1749999999999998
 74
0
  0
LTYPE
  5
32
100
AcDbSymbolTableRecord
100
AcDbLinetypeTableRecord
  2
DIVIDEX2
 70
0
  3
Divide (2x) ________  .  .  ________  .  .  _
 72
65
 73
6
 40
63.5
 49
25.3999999999999986
 74
0
 49
-12.6999999999999993
 74
0
 49
0.0
 74
0
 49
-12.6999999999999993
 74
0
 49
0.0
 74
0
 49
-12.6999999999999993
 74
0
  0
LTYPE
  5
33
100
AcDbSymbolTableRecord
100
AcDbLinetypeTableRecord
  2
DOT2
 70
0
  3
Dot (.5x) .....................................
 72
65
 73
2
 40
3.1749999999999998
 49
0.0
 74
0
 49
-3.1749999999999998
 74
0
  0
LTYPE
  5
34
100
AcDbSymbolTableRecord
100
AcDbLinetypeTableRecord
  2
DASHDOT2
 70
0
  3
Dash dot (.5x) _._._._._._._._._._._._._._._.
 72
65
 73
4
 40
12.6999999999999993
 49
6.3499999999999996
 74
0
 49
-3.1749999999999998
 74
0
 49
0.0
 74
0
 49
-3.1749999999999998
 74
0
  0
LTYPE
  5
35
100
AcDbSymbolTableRecord
100
AcDbLinetypeTableRecord
  2
DIVIDE
 70
0
  3
Divide ____ . . ____ . . ____ . . ____ . . ____
 72
65
 73
6
 40
31.75
 49
12.6999999999999993
 74
0
 49
-6.3499999999999996
 74
0
 49
0.0
 74
0
 49
-6.3499999999999996
 74
0
 49
0.0
 74
0
 49
-6.3499999999999996
 74
0
  0
LTYPE
  5
36
100
AcDbSymbolTableRecord
100
AcDbLinetypeTableRecord
  2
DASHDOT
 70
0
  3
Dash dot __ . __ . __ . __ . __ . __ . __ . __
 72
65
 73
4
 40
25.3999999999999986
 49
12.6999999999999993
 74
0
 49
-6.3499999999999996
 74
0
 49
0.0
 74
0
 49
-6.3499999999999996
 74
0
  0
LTYPE
  5
37
100
AcDbSymbolTableRecord
100
AcDbLinetypeTableRecord
  2
BORDER
 70
0
  3
Border __ __ . __ __ . __ __ . __ __ . __ __ .
 72
65
 73
6
 40
44.4500000000000028
 49
12.6999999999999993
 74
0
 49
-6.3499999999999996
 74
0
 49
12.6999999999999993
 74
0
 49
-6.3499999999999996
 74
0
 49
0.0
 74
0
 49
-6.3499999999999996
 74
0
  0
LTYPE
  5
38
100
AcDbSymbolTableRecord
100
AcDbLinetypeTableRecord
  2
DASHDOTX2
 70
0
  3
Dash dot (2x) ____  .  ____  .  ____  .  ___
 72
65
 73
4
 40
50.7999999999999972
 49
25.3999999999999986
 74
0
 49
-12.6999999999999993
 74
0
 49
0.0
 74
0
 49
-12.6999999999999993
 74
0
  0
LTYPE
  5
39
100
AcDbSymbolTableRecord
100
AcDbLinetypeTableRecord
  2
CENTERX2
 70
0
  3
Center (2x) ________  __  ________  __  _____
 72
65
 73
4
 40
101.5999999999999943
 49
63.5
 74
0
 49
-12.6999999999999993
 74
0
 49
12.6999999999999993
 74
0
 49
-12.6999999999999993
 74
0
  0
LTYPE
  5
3A
100
AcDbSymbolTableRecord
100
AcDbLinetypeTableRecord
  2
BORDER2
 70
0
  3
Border (.5x) __.__.__.__.__.__.__.__.__.__.__.
 72
65
 73
6
 40
22.2250000000000014
 49
6.3499999999999996
 74
0
 49
-3.1749999999999998
 74
0
 49
6.3499999999999996
 74
0
 49
-3.1749999999999998
 74
0
 49
0.0
 74
0
 49
-3.1749999999999998
 74
0
  0
LTYPE
  5
3B
100
AcDbSymbolTableRecord
100
AcDbLinetypeTableRecord
  2
BORDERX2
 70
0
  3
Border (2x) ____  ____  .  ____  ____  .  ___
 72
65
 73
6
 40
88.9000000000000057
 49
25.3999999999999986
 74
0
 49
-12.6999999999999993
 74
0
 49
25.3999999999999986
 74
0
 49
-12.6999999999999993
 74
0
 49
0.0
 74
0
 49
-12.6999999999999993
 74
0
  0
LTYPE
  5
14
100
AcDbSymbolTableRecord
100
AcDbLinetypeTableRecord
  2
BYBLOCK
 70
0
  3

 72
65
 73
0
 40
0.0
  0
LTYPE
  5
15
100
AcDbSymbolTableRecord
100
AcDbLinetypeTableRecord
  2
BYLAYER
 70
0
  3

 72
65
 73
0
 40
0.0
  0
LTYPE
  5
3C
100
AcDbSymbolTableRecord
100
AcDbLinetypeTableRecord
  2
DASHED2
 70
0
  3
Dashed (.5x) _ _ _ _ _ _ _ _ _ _ _ _ _ _ _ _ _
 72
65
 73
2
 40
9.5250000000000004
 49
6.3499999999999996
 74
0
 49
-3.1749999999999998
 74
0
  0
LTYPE
  5
3D
100
AcDbSymbolTableRecord
100
AcDbLinetypeTableRecord
  2
CENTER
 70
0
  3
Center ____ _ ____ _ ____ _ ____ _ ____ _ ____
 72
65
 73
4
 40
50.7999999999999972
 49
31.75
 74
0
 49
-6.3499999999999996
 74
0
 49
6.3499999999999996
 74
0
 49
-6.3499999999999996
 74
0
  0
LTYPE
  5
3E
100
AcDbSymbolTableRecord
100
AcDbLinetypeTableRecord
  2
DIVIDE2
 70
0
  3
Divide (.5x) __..__..__..__..__..__..__..__.._
 72
65
 73
6
 40
15.875
 49
6.3499999999999996
 74
0
 49
-3.1749999999999998
 74
0
 49
0.0
 74
0
 49
-3.1749999999999998
 74
0
 49
0.0
 74
0
 49
-3.1749999999999998
 74
0
  0
LTYPE
  5
3F
100
AcDbSymbolTableRecord
100
AcDbLinetypeTableRecord
  2
DASHED
 70
0
  3
Dashed __ __ __ __ __ __ __ __ __ __ __ __ __ _
 72
65
 73
2
 40
19.0500000000000007
 49
12.6999999999999993
 74
0
 49
-6.3499999999999996
 74
0
  0
LTYPE
  5
40
100
AcDbSymbolTableRecord
100
AcDbLinetypeTableRecord
  2
DOTX2
 70
0
  3
Dot (2x) .  .  .  .  .  .  .  .  .  .  .  .  .
 72
65
 73
2
 40
12.6999999999999993
 49
0.0
 74
0
 49
-12.6999999999999993
 74
0
  0
LTYPE
  5
41
100
AcDbSymbolTableRecord
100
AcDbLinetypeTableRecord
  2
DASHEDX2
 70
0
  3
Dashed (2x) ____  ____  ____  ____  ____  ___
 72
65
 73
2
 40
38.1000000000000014
 49
25.3999999999999986
 74
0
 49
-12.6999999999999993
 74
0
  0
LTYPE
  5
42
100
AcDbSymbolTableRecord
100
AcDbLinetypeTableRecord
  2
DOT
 70
0
  3
Dot . . . . . . . . . . . . . . . . . . . . . .
 72
65
 73
2
 40
6.3499999999999996
 49
0.0
 74
0
 49
-6.3499999999999996
 74
0
  0
ENDTAB
  0
TABLE
  2
LAYER
  5
2
100
AcDbSymbolTable
 70
1
  0
LAYER
  5
10
100
AcDbSymbolTableRecord
100
AcDbLayerTableRecord
  2
0
 70
0
 62
7
420
16777215
  6
CONTINUOUS
370
25
390
F
  0
ENDTAB
  0
TABLE
  2
STYLE
  5
3
100
AcDbSymbolTable
 70
1
  0
STYLE
  5
43
100
AcDbSymbolTableRecord
100
AcDbTextStyleTableRecord
  2
Standard
 70
0
 40
0.0
 41
1.0
 50
0.0
 71
0
 42
2.5
  3

  4

1001
ACAD
1000
txt
1071
0
  0
ENDTAB
  0
TABLE
  2
VIEW
  5
6
100
AcDbSymbolTable
 70
0
  0
ENDTAB
  0
TABLE
  2
UCS
  5
7
100
AcDbSymbolTable
 70
0
  0
ENDTAB
  0
TABLE
  2
APPID
  5
9
100
AcDbSymbolTable
 70
1
  0
APPID
  5
12
100
AcDbSymbolTableRecord
100
AcDbRegAppTableRecord
  2
ACAD
 70
0
  0
APPID
  5
44
100
AcDbSymbolTableRecord
100
AcDbRegAppTableRecord
  2
QCAD
 70
0
  0
ENDTAB
  0
TABLE
  2
DIMSTYLE
  5
A
100
AcDbSymbolTable
 70
1
100
AcDbDimStyleTable
 71
0
  0
DIMSTYLE
105
27
100
AcDbSymbolTableRecord
100
AcDbDimStyleTableRecord
  2
Standard
 41
2.5
 42
0.625
 43
3.75
 44
1.25
 70
0
 73
0
 74
0
 77
1
 78
8
140
2.5
141
2.5
143
0.03937007874016
147
0.625
171
3
172
1
271
2
272
2
274
3
278
44
283
0
284
8
340
43
  0
ENDTAB
  0
TABLE
  2
BLOCK_RECORD
  5
1
100
AcDbSymbolTable
 70
1
  0
BLOCK_RECORD
  5
1F
100
AcDbSymbolTableRecord
100
AcDbBlockTableRecord
  2
*Model_Space
340
22
  0
BLOCK_RECORD
  5
1B
100
AcDbSymbolTableRecord
100
AcDbBlockTableRecord
  2
*Paper_Space
340
1E
  0
BLOCK_RECORD
  5
23
100
AcDbSymbolTableRecord
100
AcDbBlockTableRecord
  2
*Paper_Space0
340
26
  0
ENDTAB
  0
ENDSEC
  0
SECTION
  2
BLOCKS
  0
BLOCK
  5
20
100
AcDbEntity
  8
0
100
AcDbBlockBegin
  2
*Model_Space
 70
0
 10
0.0
 20
0.0
 30
0.0
  3
*Model_Space
  1

  0
ENDBLK
  5
21
100
AcDbEntity
  8
0
100
AcDbBlockEnd
  0
BLOCK
  5
1C
100
AcDbEntity
 67
1
  8
0
100
AcDbBlockBegin
  2
*Paper_Space
 70
0
 10
0.0
 20
0.0
 30
0.0
  3
*Paper_Space
  1

  0
ENDBLK
  5
1D
100
AcDbEntity
 67
1
  8
0
100
AcDbBlockEnd
  0
BLOCK
  5
24
100
AcDbEntity
  8
0
100
AcDbBlockBegin
  2
*Paper_Space0
 70
0
 10
0.0
 20
0.0
 30
0.0
  3
*Paper_Space0
  1

  0
ENDBLK
  5
25
100
AcDbEntity
  8
0
100
AcDbBlockEnd
  0
ENDSEC
  0
SECTION
  2
ENTITIES
  0
LINE
  5
45
100
AcDbEntity
100
AcDbLine
  8
0
 62
7
420
16777215
370
5
  6
BYLAYER
 10
29.5192328814449532
 20
-17.5000008060644774
 30
0.0
 11
29.5192328814449532
 21
-17.5000008060644774
 31
0.0
  0
ARC
  5
46
100
AcDbEntity
  8
0
 62
3
420
65280
370
5
  6
BYLAYER
100
AcDbCircle
 10
12.8953371510469541
 20
-27.1293515550240869
 30
0.0
 40
0.8808707050794693
100
AcDbArc
 50
242.3172765759247795
 51
263.2045738770330559
  0
ARC
  5
47
100
AcDbEntity
  8
0
 62
3
420
65280
370
5
  6
BYLAYER
100
AcDbCircle
 10
12.8678639276102249
 20
-27.2108670757567417
 30
0.0
 40
0.7968722293351099
100
AcDbArc
 50
264.4726431256091814
 51
283.8966039191786308
  0
ARC
  5
48
100
AcDbEntity
  8
0
 62
3
420
65280
370
5
  6
BYLAYER
100
AcDbCircle
 10
12.8802457403975641
 20
-27.2396619244529319
 30
0.0
 40
0.7659634425984947
100
AcDbArc
 50
283.5148304693381647
 51
302.3109490889424933
  0
ARC
  5
49
100
AcDbEntity
  8
0
 62
3
420
65280
370
5
  6
BYLAYER
100
AcDbCircle
 10
12.627468048320079
 20
-26.8026962244308606
 30
0.0
 40
1.2705386976852366
100
AcDbArc
 50
301.4123042824844561
 51
312.233822067059009
  0
LINE
  5
4A
100
AcDbEntity
100
AcDbLine
  8
0
 62
3
420
65280
370
5
  6
BYLAYER
 10
13.4814705111111106
 20
-27.7434131722222261
 30
0.0
 11
13.8941132666666665
 21
-28.1867617055555577
 31
0.0
  0
ARC
  5
4B
100
AcDbEntity
  8
0
 62
3
420
65280
370
5
  6
BYLAYER
100
AcDbCircle
 10
12.7384912951969209
 20
-26.8673273914318962
 30
0.0
 40
1.7539581095997507
100
AcDbArc
 50
298.9751031923974551
 51
311.2133842855504895
  0
ARC
  5
4C
100
AcDbEntity
  8
0
 62
3
420
65280
370
5
  6
BYLAYER
100
AcDbCircle
 10
13.0051422404476664
 20
-27.350202906016527
 30
0.0
 40
1.2023505655823841
100
AcDbArc
 50
280.0462908419683572
 51
299.005831486016632
  0
ARC
  5
4D
100
AcDbEntity
  8
0
 62
3
420
65280
370
5
  6
BYLAYER
100
AcDbCircle
 10
12.9797160039857786
 20
-27.1522812052038098
 30
0.0
 40
1.4017051330233752
100
AcDbArc
 50
261.4847910722460256
 51
279.6583837893330156
  0
ARC
  5
4E
100
AcDbEntity
  8
0
 62
3
420
65280
370
5
  6
BYLAYER
100
AcDbCircle
 10
13.0501290766698226
 20
-26.847014907843171
 30
0.0
 40
1.7142067250999111
100
AcDbArc
 50
242.5097106194215826
 51
260.6680290460788569
  0
ARC
  5
4F
100
AcDbEntity
  8
0
 62
3
420
65280
370
5
  6
BYLAYER
100
AcDbCircle
 10
13.0495213076509344
 20
-26.6786612677798054
 30
0.0
 40
1.8649132642610264
100
AcDbArc
 50
222.9982195635953701
 51
244.9145209376913215
  0
ARC
  5
50
100
AcDbEntity
  8
0
 62
3
420
65280
370
5
  6
BYLAYER
100
AcDbCircle
 10
12.6737812105366157
 20
-27.0577597306385087
 30
0.0
 40
1.3317363360993066
100
AcDbArc
 50
196.3558534808150569
 51
222.0939381133439383
  0
ARC
  5
51
100
AcDbEntity
  8
0
 62
3
420
65280
370
5
  6
BYLAYER
100
AcDbCircle
 10
12.7561756621825424
 20
-27.070612468221551
 30
0.0
 40
1.4076256337694462
100
AcDbArc
 50
170.8661618237650544
 51
194.9092859844350301
  0
ARC
  5
52
100
AcDbEntity
  8
0
 62
3
420
65280
370
5
  6
BYLAYER
100
AcDbCircle
 10
13.4877733437437808
 20
-27.2018705821728304
 30
0.0
 40
2.150825005084783
100
AcDbArc
 50
153.0549038245893883
 51
170.5076227764529051
  0
ARC
  5
53
100
AcDbEntity
  8
0
 62
3
420
65280
370
5
  6
BYLAYER
100
AcDbCircle
 10
13.532940872584069
 20
-27.1688501717633777
 30
0.0
 40
2.1766985554101774
100
AcDbArc
 50
136.834256118412469
 51
154.3685771368213011
  0
ARC
  5
54
100
AcDbEntity
  8
0
 62
3
420
65280
370
5
  6
BYLAYER
100
AcDbCircle
 10
12.9025200675788252
 20
-26.5896234319494589
 30
0.0
 40
1.3206574996753275
100
AcDbArc
 50
111.3601151695066989
 51
136.4523506144818157
  0
ARC
  5
55
100
AcDbEntity
  8
0
 62
3
420
65280
370
5
  6
BYLAYER
100
AcDbCircle
 10
12.856237492344686
 20
-26.5115869925066541
 30
0.0
 40
1.231211502399471
100
AcDbArc
 50
83.7068045291065204
 51
110.6769348396636872
  0
ARC
  5
56
100
AcDbEntity
  8
0
 62
3
420
65280
370
5
  6
BYLAYER
100
AcDbCircle
 10
12.7773533996756967
 20
-27.1681106857249475
 30
0.0
 40
1.8924369190006154
100
AcDbArc
 50
62.4206945075247717
 51
83.5117328517066255
  0
ARC
  5
57
100
AcDbEntity
  8
0
 62
3
420
65280
370
5
  6
BYLAYER
100
AcDbCircle
 10
12.8068342094723349
 20
-27.2709256147948444
 30
0.0
 40
1.9712995340907791
100
AcDbArc
 50
48.9603276950503457
 51
64.5642067431450499
  0
ARC
  5
58
100
AcDbEntity
  8
0
 62
3
420
65280
370
5
  6
BYLAYER
100
AcDbCircle
 10
13.2669266245996003
 20
-26.7392200023204474
 30
0.0
 40
1.2681714110776101
100
AcDbArc
 50
29.1561551941318164
 51
48.8663097382802434
  0
ARC
  5
59
100
AcDbEntity
  8
0
 62
3
420
65280
370
5
  6
BYLAYER
100
AcDbCircle
 10
13.4720708215077547
 20
-26.6346201084162999
 30
0.0
 40
1.0380954035897936
100
AcDbArc
 50
8.0771863688884853
 51
29.6307078867107379
  0
ARC
  5
5A
100
AcDbEntity
  8
0
 62
3
420
65280
370
5
  6
BYLAYER
100
AcDbCircle
 10
13.2227756554763882
 20
-26.6829580517593499
 30
0.0
 40
1.2917730255495192
100
AcDbArc
 50
351.4373750790359168
 51
8.6462931138730852
  0
LINE
  5
5B
100
AcDbEntity
100
AcDbLine
  8
0
 62
3
420
65280
370
5
  6
BYLAYER
 10
14.500150211111114
 20
-26.8752905611111075
 30
0.0
 11
13.9170170111111169
 21
-26.7608593277777764
 31
0.0
  0
ARC
  5
5C
100
AcDbEntity
  8
0
 62
3
420
65280
370
5
  6
BYLAYER
100
AcDbCircle
 10
13.250761651114793
 20
-26.6570763921105716
 30
0.0
 40
0.674290072935919
100
AcDbArc
 50
351.1461609556883445
 51
9.2352120130243733
  0
ARC
  5
5D
100
AcDbEntity
  8
0
 62
3
420
65280
370
5
  6
BYLAYER
100
AcDbCircle
 10
13.2619988841480883
 20
-26.6476171690682477
 30
0.0
 40
0.6617232897180052
100
AcDbArc
 50
8.5829329013346332
 51
28.6645857873409078
  0
ARC
  5
5E
100
AcDbEntity
  8
0
 62
3
420
65280
370
5
  6
BYLAYER
100
AcDbCircle
 10
13.1427488909457306
 20
-26.7062939684838767
 30
0.0
 40
0.7945250649020622
100
AcDbArc
 50
28.2523505484143591
 51
46.7498367192089859
  0
ARC
  5
5F
100
AcDbEntity
  8
0
 62
3
420
65280
370
5
  6
BYLAYER
100
AcDbCircle
 10
13.0303577921962379
 20
-26.8087073993959635
 30
0.0
 40
0.9462007536641724
100
AcDbArc
 50
46.0419456784628807
 51
64.4742466159113832
  0
ARC
  5
60
100
AcDbEntity
  8
0
 62
3
420
65280
370
5
  6
BYLAYER
100
AcDbCircle
 10
12.9829613757853934
 20
-26.8167354179896513
 30
0.0
 40
0.9746621563998747
100
AcDbArc
 50
62.1627280144778922
 51
86.624600756327041
  0
ARC
  5
61
100
AcDbEntity
  8
0
 62
3
420
65280
370
5
  6
BYLAYER
100
AcDbCircle
 10
13.0026265257073366
 20
-26.5587772884152074
 30
0.0
 40
0.7160074779480035
100
AcDbArc
 50
86.9801402870122331
 51
115.579024523627254
  0
ARC
  5
62
100
AcDbEntity
  8
0
 62
3
420
65280
370
5
  6
BYLAYER
100
AcDbCircle
 10
13.127295243235988
 20
-26.766399052713286
 30
0.0
 40
0.9573785050454539
100
AcDbArc
 50
116.944143151787884
 51
139.5793516124014104
  0
ARC
  5
63
100
AcDbEntity
  8
0
 62
3
420
65280
370
5
  6
BYLAYER
100
AcDbCircle
 10
13.7469945295049261
 20
-27.2837174879702573
 30
0.0
 40
1.7646028132213138
100
AcDbArc
 50
139.8382168499047964
 51
154.2889579333319716
  0
ARC
  5
64
100
AcDbEntity
  8
0
 62
3
420
65280
370
5
  6
BYLAYER
100
AcDbCircle
 10
13.7936321283321597
 20
-27.348290492587001
 30
0.0
 40
1.8350292644564998
100
AcDbArc
 50
153.1040426264165433
 51
167.1352481009899122
  0
ARC
  5
65
100
AcDbEntity
  8
0
 62
3
420
65280
370
5
  6
BYLAYER
100
AcDbCircle
 10
12.9619635090810643
 20
-27.1501680702575108
 30
0.0
 40
0.9801573283534448
100
AcDbArc
 50
167.6016050828028199
 51
190.1165265804836508
  0
ARC
  5
66
100
AcDbEntity
  8
0
 62
3
420
65280
370
5
  6
BYLAYER
100
AcDbCircle
 10
12.7357346174726427
 20
-27.1805268621520213
 30
0.0
 40
0.7521776783734196
100
AcDbArc
 50
190.8668899200681892
 51
218.7344274340681238
  0
ARC
  5
67
100
AcDbEntity
  8
0
 62
3
420
65280
370
5
  6
BYLAYER
100
AcDbCircle
 10
12.8965829367751468
 20
-27.0243709627250261
 30
0.0
 40
0.9755863062323707
100
AcDbArc
 50
219.9775650464247576
 51
245.1169689008931982
  0
ARC
  5
68
100
AcDbEntity
  8
0
 62
3
420
65280
370
5
  6
BYLAYER
100
AcDbCircle
 10
16.1535362506544047
 20
-27.513168647210744
 30
0.0
 40
1.9629388282647267
100
AcDbArc
 50
247.5358101949894944
 51
263.2871015150348626
  0
ARC
  5
69
100
AcDbEntity
  8
0
 62
3
420
65280
370
5
  6
BYLAYER
100
AcDbCircle
 10
15.8523560349853554
 20
-28.2604912962471317
 30
0.0
 40
1.1572639597989047
100
AcDbArc
 50
223.6762588328280401
 51
247.1778431347357525
  0
ARC
  5
6A
100
AcDbEntity
  8
0
 62
3
420
65280
370
5
  6
BYLAYER
100
AcDbCircle
 10
15.7677293265423746
 20
-28.3830975653559427
 30
0.0
 40
1.0118394201194283
100
AcDbArc
 50
195.3535029174031479
 51
221.9640125281990493
  0
ARC
  5
6B
100
AcDbEntity
  8
0
 62
3
420
65280
370
5
  6
BYLAYER
100
AcDbCircle
 10
16.1476911674192465
 20
-28.3073708734121325
 30
0.0
 40
1.3985630452129323
100
AcDbArc
 50
171.3202166649532501
 51
194.2235501241841291
  0
LINE
  5
6C
100
AcDbEntity
100
AcDbLine
  8
0
 62
3
420
65280
370
5
  6
BYLAYER
 10
14.7651455888888865
 20
-28.0963108944444393
 30
0.0
 11
15.0115876777777757
 21
-26.1695247499999901
 31
0.0
  0
LINE
  5
6D
100
AcDbEntity
100
AcDbLine
  8
0
 62
3
420
65280
370
5
  6
BYLAYER
 10
15.0115876777777757
 20
-26.1695247499999901
 30
0.0
 11
15.6567660222222216
 21
-26.2520451166666575
 31
0.0
  0
LINE
  5
6E
100
AcDbEntity
100
AcDbLine
  8
0
 62
3
420
65280
370
5
  6
BYLAYER
 10
15.6567660222222216
 20
-26.2520451166666575
 30
0.0
 11
15.416757188888889
 21
-28.1285293833333299
 31
0.0
  0
ARC
  5
6F
100
AcDbEntity
  8
0
 62
3
420
65280
370
5
  6
BYLAYER
100
AcDbCircle
 10
16.4672620853314946
 20
-28.2846153388442794
 30
0.0
 40
1.0620373642003773
100
AcDbArc
 50
171.548717189026064
 51
190.1343764633187732
  0
ARC
  5
70
100
AcDbEntity
  8
0
 62
3
420
65280
370
5
  6
BYLAYER
100
AcDbCircle
 10
16.025859174622699
 20
-28.3577981864410269
 30
0.0
 40
0.6146700115302938
100
AcDbArc
 50
190.6589044874532988
 51
216.2129428084411416
  0
ARC
  5
71
100
AcDbEntity
  8
0
 62
3
420
65280
370
5
  6
BYLAYER
100
AcDbCircle
 10
15.9744778315530702
 20
-28.3745821828756597
 30
0.0
 40
0.563549257549123
100
AcDbArc
 50
217.9226370788247777
 51
244.2199546544024145
  0
ARC
  5
72
100
AcDbEntity
  8
0
 62
3
420
65280
370
5
  6
BYLAYER
100
AcDbCircle
 10
16.1105034894584378
 20
-28.0554840958007858
 30
0.0
 40
0.9101934096006655
100
AcDbArc
 50
245.2457185016071435
 51
263.4194400024834408
  0
ARC
  5
73
100
AcDbEntity
  8
0
 62
3
420
65280
370
5
  6
BYLAYER
100
AcDbCircle
 10
16.1323972867177297
 20
-28.0521269430905278
 30
0.0
 40
0.9162865887534521
100
AcDbArc
 50
262.0833676077689347
 51
280.5701140928608766
  0
ARC
  5
74
100
AcDbEntity
  8
0
 62
3
420
65280
370
5
  6
BYLAYER
100
AcDbCircle
 10
16.1860859692392616
 20
-28.372824751382808
 30
0.0
 40
0.5912130341531426
100
AcDbArc
 50
281.1565126706655633
 51
307.4806416306951746
  0
ARC
  5
75
100
AcDbEntity
  8
0
 62
3
420
65280
370
5
  6
BYLAYER
100
AcDbCircle
 10
16.1586796513603907
 20
-28.3428173259192313
 30
0.0
 40
0.6317118942981617
100
AcDbArc
 50
307.7971119578256776
 51
333.7090236715548031
  0
ARC
  5
76
100
AcDbEntity
  8
0
 62
3
420
65280
370
5
  6
BYLAYER
100
AcDbCircle
 10
15.8126067501035941
 20
-28.1791966150546855
 30
0.0
 40
1.0144796304069799
100
AcDbArc
 50
334.0812674584387878
 51
353.9585509404495838
  0
LINE
  5
77
100
AcDbEntity
100
AcDbLine
  8
0
 62
3
420
65280
370
5
  6
BYLAYER
 10
16.8214519777777909
 20
-28.2859684611111035
 30
0.0
 11
17.0586625777777883
 21
-26.4313550055555453
 31
0.0
  0
LINE
  5
78
100
AcDbEntity
100
AcDbLine
  8
0
 62
3
420
65280
370
5
  6
BYLAYER
 10
17.0586625777777883
 20
-26.4313550055555453
 30
0.0
 11
17.7038409222222342
 21
-26.5138753722222091
 31
0.0
  0
LINE
  5
79
100
AcDbEntity
100
AcDbLine
  8
0
 62
3
420
65280
370
5
  6
BYLAYER
 10
17.7038409222222342
 20
-26.5138753722222091
 30
0.0
 11
17.4615940666666845
 21
-28.4078560055555478
 31
0.0
  0
ARC
  5
7A
100
AcDbEntity
  8
0
 62
3
420
65280
370
5
  6
BYLAYER
100
AcDbCircle
 10
16.1116052297807606
 20
-28.2677910141261037
 30
0.0
 40
1.3572354480855022
100
AcDbArc
 50
330.1340789549856254
 51
354.0766016939587075
  0
ARC
  5
7B
100
AcDbEntity
  8
0
 62
3
420
65280
370
5
  6
BYLAYER
100
AcDbCircle
 10
16.3844541061885707
 20
-28.4080336107839777
 30
0.0
 40
1.0508825668063635
100
AcDbArc
 50
302.7435109267653957
 51
329.3569209674737408
  0
ARC
  5
7C
100
AcDbEntity
  8
0
 62
3
420
65280
370
5
  6
BYLAYER
100
AcDbCircle
 10
16.3082255112211172
 20
-28.2434727687105429
 30
0.0
 40
1.2307769334000795
100
AcDbArc
 50
278.3347029660492353
 51
301.5846627919589196
  0
ARC
  5
7D
100
AcDbEntity
  8
0
 62
3
420
65280
370
5
  6
BYLAYER
100
AcDbCircle
 10
16.2003448180800866
 20
-27.4636694723875543
 30
0.0
 40
2.0179918039028228
100
AcDbArc
 50
262.1314843631258782
 51
278.1559575827059803
  0
ARC
  5
7E
100
AcDbEntity
  8
0
 62
3
420
65280
370
5
  6
BYLAYER
100
AcDbCircle
 10
20.0186295613711565
 20
-28.3545490821394068
 30
0.0
 40
0.9423040257728615
100
AcDbArc
 50
347.7203464837998013
 51
11.8235087835418344
  0
ARC
  5
7F
100
AcDbEntity
  8
0
 62
3
420
65280
370
5
  6
BYLAYER
100
AcDbCircle
 10
20.2031066902778811
 20
-28.378512092211384
 30
0.0
 40
0.757116292058699
100
AcDbArc
 50
317.3884696283782887
 51
346.5230249902730293
  0
ARC
  5
80
100
AcDbEntity
  8
0
 62
3
420
65280
370
5
  6
BYLAYER
100
AcDbCircle
 10
19.8967965682918901
 20
-28.0881729753936327
 30
0.0
 40
1.1791319523768342
100
AcDbArc
 50
294.7472546874132604
 51
317.0823955630129944
  0
ARC
  5
81
100
AcDbEntity
  8
0
 62
3
420
65280
370
5
  6
BYLAYER
100
AcDbCircle
 10
19.3975620282502277
 20
-26.9963415841481371
 30
0.0
 40
2.3796835890023749
100
AcDbArc
 50
280.0925292108210556
 51
294.6588465842293658
  0
ARC
  5
82
100
AcDbEntity
  8
0
 62
3
420
65280
370
5
  6
BYLAYER
100
AcDbCircle
 10
19.3209060073090484
 20
-26.9816422414537058
 30
0.0
 40
2.4086917930375584
100
AcDbArc
 50
268.7779072895156105
 51
281.8267295079803034
  0
ARC
  5
83
100
AcDbEntity
  8
0
 62
3
420
65280
370
5
  6
BYLAYER
100
AcDbCircle
 10
19.2959080480630831
 20
-28.0879441910411458
 30
0.0
 40
1.3021090845629208
100
AcDbArc
 50
249.5066872281990982
 51
268.8393850474322448
  0
ARC
  5
84
100
AcDbEntity
  8
0
 62
3
420
65280
370
5
  6
BYLAYER
100
AcDbCircle
 10
19.1780716260905564
 20
-28.4427492526211054
 30
0.0
 40
0.9286073550359637
100
AcDbArc
 50
224.9136287561353811
 51
248.6528622751577018
  0
ARC
  5
85
100
AcDbEntity
  8
0
 62
3
420
65280
370
5
  6
BYLAYER
100
AcDbCircle
 10
19.3403039910727053
 20
-28.3234702798209454
 30
0.0
 40
1.1281123890937217
100
AcDbArc
 50
203.088087775726251
 51
223.3860921074908958
  0
LINE
  5
86
100
AcDbEntity
100
AcDbLine
  8
0
 62
3
420
65280
370
5
  6
BYLAYER
 10
18.302549966666664
 20
-28.7658548944444483
 30
0.0
 11
18.8993003888888893
 21
-28.5433777055555566
 31
0.0
  0
ARC
  5
87
100
AcDbEntity
  8
0
 62
3
420
65280
370
5
  6
BYLAYER
100
AcDbCircle
 10
19.5541651582383764
 20
-28.2367721657526616
 30
0.0
 40
0.7230870094072536
100
AcDbArc
 50
205.0888396271157603
 51
221.3650594235151061
  0
ARC
  5
88
100
AcDbEntity
  8
0
 62
3
420
65280
370
5
  6
BYLAYER
100
AcDbCircle
 10
19.3804639792490292
 20
-28.3821247697088168
 30
0.0
 40
0.4966976410313074
100
AcDbArc
 50
222.0228163908659553
 51
245.769109016571349
  0
ARC
  5
89
100
AcDbEntity
  8
0
 62
3
420
65280
370
5
  6
BYLAYER
100
AcDbCircle
 10
19.4488512059397429
 20
-28.1658133832126296
 30
0.0
 40
0.7225019373141269
100
AcDbArc
 50
247.8643469000043922
 51
267.2190544022159315
  0
ARC
  5
8A
100
AcDbEntity
  8
0
 62
3
420
65280
370
5
  6
BYLAYER
100
AcDbCircle
 10
19.4509567563820696
 20
-27.5129508277541071
 30
0.0
 40
1.3750158306362197
100
AcDbArc
 50
268.4514009722299193
 51
282.0590961124285059
  0
ARC
  5
8B
100
AcDbEntity
  8
0
 62
3
420
65280
370
5
  6
BYLAYER
100
AcDbCircle
 10
19.5969619667944812
 20
-27.8304948814153761
 30
0.0
 40
1.0367974816949552
100
AcDbArc
 50
277.8309117958780234
 51
306.567453520126719
  0
ARC
  5
8C
100
AcDbEntity
  8
0
 62
3
420
65280
370
5
  6
BYLAYER
100
AcDbCircle
 10
19.9988200566112262
 20
-28.4023914777416913
 30
0.0
 40
0.3385377130631834
100
AcDbArc
 50
309.6090906037360355
 51
14.105702981888264
  0
ARC
  5
8D
100
AcDbEntity
  8
0
 62
3
420
65280
370
5
  6
BYLAYER
100
AcDbCircle
 10
20.0219707259541302
 20
-28.3667150087971862
 30
0.0
 40
0.3087513776051751
100
AcDbArc
 50
8.7238605238469074
 51
50.6708942975283065
  0
ARC
  5
8E
100
AcDbEntity
  8
0
 62
3
420
65280
370
5
  6
BYLAYER
100
AcDbCircle
 10
19.8956819634570827
 20
-28.5544259425867644
 30
0.0
 40
0.5344115838959301
100
AcDbArc
 50
52.9529452181610694
 51
77.880854194467787
  0
ARC
  5
8F
100
AcDbEntity
  8
0
 62
3
420
65280
370
5
  6
BYLAYER
100
AcDbCircle
 10
19.6905116570981811
 20
-29.4406381332579166
 30
0.0
 40
1.4440206436065341
100
AcDbArc
 50
77.3038622432722207
 51
88.5540111532451419
  0
ARC
  5
90
100
AcDbEntity
  8
0
 62
3
420
65280
370
5
  6
BYLAYER
100
AcDbCircle
 10
19.3653661016838576
 20
-38.6805001143524763
 30
0.0
 40
10.6895400284178361
100
AcDbArc
 50
88.0615408218588982
 51
89.8023930915429247
  0
ARC
  5
91
100
AcDbEntity
  8
0
 62
3
420
65280
370
5
  6
BYLAYER
100
AcDbCircle
 10
20.0233120955208932
 20
-10.6786543859796623
 30
0.0
 40
17.3235062574235954
100
AcDbArc
 50
267.0451202893262348
 51
267.9454024513814829
  0
ARC
  5
92
100
AcDbEntity
  8
0
 62
3
420
65280
370
5
  6
BYLAYER
100
AcDbCircle
 10
19.2412853337047842
 20
-25.7634309240620958
 30
0.0
 40
2.2184753019252126
100
AcDbArc
 50
260.2661932904461537
 51
267.1322592783540699
  0
ARC
  5
93
100
AcDbEntity
  8
0
 62
3
420
65280
370
5
  6
BYLAYER
100
AcDbCircle
 10
19.104029364346836
 20
-26.6058142043358146
 30
0.0
 40
1.365031759703647
100
AcDbArc
 50
249.5220010179297958
 51
259.9663917933689277
  0
ARC
  5
94
100
AcDbEntity
  8
0
 62
3
420
65280
370
5
  6
BYLAYER
100
AcDbCircle
 10
18.8848536677698995
 20
-27.1929768043223419
 30
0.0
 40
0.7382958591334745
100
AcDbArc
 50
230.8731193046388057
 51
249.514842960256999
  0
ARC
  5
95
100
AcDbEntity
  8
0
 62
3
420
65280
370
5
  6
BYLAYER
100
AcDbCircle
 10
18.9144845085969742
 20
-27.1956911312312393
 30
0.0
 40
0.7552924110262657
100
AcDbArc
 50
209.9021751183121296
 51
228.9991431066880523
  0
ARC
  5
96
100
AcDbEntity
  8
0
 62
3
420
65280
370
5
  6
BYLAYER
100
AcDbCircle
 10
19.0839109997740124
 20
-27.1280408326574154
 30
0.0
 40
0.9362455990621966
100
AcDbArc
 50
189.982054575737294
 51
208.3219770739794967
  0
ARC
  5
97
100
AcDbEntity
  8
0
 62
3
420
65280
370
5
  6
BYLAYER
100
AcDbCircle
 10
18.9425530347744946
 20
-27.1144063041173418
 30
0.0
 40
0.8002903117232539
100
AcDbArc
 50
163.196929898788909
 51
192.6987004121353095
  0
ARC
  5
98
100
AcDbEntity
  8
0
 62
3
420
65280
370
5
  6
BYLAYER
100
AcDbCircle
 10
18.8866225337130729
 20
-27.1150594939429688
 30
0.0
 40
0.7471254148115178
100
AcDbArc
 50
133.1427394731980485
 51
161.908928545338739
  0
ARC
  5
99
100
AcDbEntity
  8
0
 62
3
420
65280
370
5
  6
BYLAYER
100
AcDbCircle
 10
19.1772441230971289
 20
-27.4337430229122887
 30
0.0
 40
1.1784005727471834
100
AcDbArc
 50
112.2415090156772663
 51
132.8573839519608271
  0
ARC
  5
9A
100
AcDbEntity
  8
0
 62
3
420
65280
370
5
  6
BYLAYER
100
AcDbCircle
 10
19.6478294459408467
 20
-28.5358372543376149
 30
0.0
 40
2.376688545918364
100
AcDbArc
 50
100.6468080460085872
 51
112.6854967934288823
  0
ARC
  5
9B
100
AcDbEntity
  8
0
 62
3
420
65280
370
5
  6
BYLAYER
100
AcDbCircle
 10
19.7089838730305082
 20
-28.5574558477107843
 30
0.0
 40
2.4098867553239054
100
AcDbArc
 50
89.5313555052315451
 51
101.9809014411261927
  0
ARC
  5
9C
100
AcDbEntity
  8
0
 62
3
420
65280
370
5
  6
BYLAYER
100
AcDbCircle
 10
19.7361347344497311
 20
-27.188184756932241
 30
0.0
 40
1.0405616473644974
100
AcDbArc
 50
68.7508468643654425
 51
90.4096497639852146
  0
ARC
  5
9D
100
AcDbEntity
  8
0
 62
3
420
65280
370
5
  6
BYLAYER
100
AcDbCircle
 10
19.8508393044639746
 20
-26.8761453034815077
 30
0.0
 40
0.70819203488993
100
AcDbArc
 50
40.7309014114896826
 51
68.2504884821746174
  0
ARC
  5
9E
100
AcDbEntity
  8
0
 62
3
420
65280
370
5
  6
BYLAYER
100
AcDbCircle
 10
19.5605796870623507
 20
-27.1292816150825651
 30
0.0
 40
1.0933216573996913
100
AcDbArc
 50
21.6864518491936273
 51
40.8580253871690999
  0
LINE
  5
9F
100
AcDbEntity
100
AcDbLine
  8
0
 62
3
420
65280
370
5
  6
BYLAYER
 10
20.5765160111111136
 20
-26.7252696944444459
 30
0.0
 11
19.9742128666666723
 21
-26.930861527777779
 31
0.0
  0
ARC
  5
A0
100
AcDbEntity
  8
0
 62
3
420
65280
370
5
  6
BYLAYER
100
AcDbCircle
 10
19.5254999064946979
 20
-27.117174902761132
 30
0.0
 40
0.4858559398886378
100
AcDbArc
 50
22.549069409718534
 51
66.2192869983504124
  0
ARC
  5
A1
100
AcDbEntity
  8
0
 62
3
420
65280
370
5
  6
BYLAYER
100
AcDbCircle
 10
19.4738121309605106
 20
-27.3795377216398634
 30
0.0
 40
0.7490728449617117
100
AcDbArc
 50
70.6980836405373765
 51
104.6535497345541756
  0
ARC
  5
A2
100
AcDbEntity
  8
0
 62
3
420
65280
370
5
  6
BYLAYER
100
AcDbCircle
 10
19.476636970852951
 20
-27.761701622373451
 30
0.0
 40
1.1234555256780665
100
AcDbArc
 50
99.8568190990565085
 51
114.6001092582329761
  0
ARC
  5
A3
100
AcDbEntity
  8
0
 62
3
420
65280
370
5
  6
BYLAYER
100
AcDbCircle
 10
19.2166555104651735
 20
-27.2122781673653797
 30
0.0
 40
0.5157316001237883
100
AcDbArc
 50
113.7480882323734477
 51
135.8208031486129244
  0
ARC
  5
A4
100
AcDbEntity
  8
0
 62
3
420
65280
370
5
  6
BYLAYER
100
AcDbCircle
 10
19.0619992971383958
 20
-27.0503999662411374
 30
0.0
 40
0.2921223836817394
100
AcDbArc
 50
137.4514088936128928
 51
167.6513831051026386
  0
ARC
  5
A5
100
AcDbEntity
  8
0
 62
3
420
65280
370
5
  6
BYLAYER
100
AcDbCircle
 10
19.1194839326311126
 20
-27.0622770983904992
 30
0.0
 40
0.3508177980718969
100
AcDbArc
 50
167.7642832727734969
 51
191.4496246737668912
  0
ARC
  5
A6
100
AcDbEntity
  8
0
 62
3
420
65280
370
5
  6
BYLAYER
100
AcDbCircle
 10
19.0835797323506071
 20
-27.0841422014713231
 30
0.0
 40
0.3116161568655132
100
AcDbArc
 50
188.8188999488644413
 51
225.7632733341824007
  0
ARC
  5
A7
100
AcDbEntity
  8
0
 62
3
420
65280
370
5
  6
BYLAYER
100
AcDbCircle
 10
19.1526170790552968
 20
-26.9724751684022124
 30
0.0
 40
0.4407022149883157
100
AcDbArc
 50
229.4631928983394573
 51
255.3804112641686288
  0
ARC
  5
A8
100
AcDbEntity
  8
0
 62
3
420
65280
370
5
  6
BYLAYER
100
AcDbCircle
 10
19.3485546610744343
 20
-26.1861016690792354
 30
0.0
 40
1.2511014961938813
100
AcDbArc
 50
255.7874117915602596
 51
267.2719708028869832
  0
ARC
  5
A9
100
AcDbEntity
  8
0
 62
3
420
65280
370
5
  6
BYLAYER
100
AcDbCircle
 10
19.8116125291671672
 20
-14.1367053327996555
 30
0.0
 40
13.309344207887678
100
AcDbArc
 50
267.7496477051259944
 51
269.0921878644392677
  0
ARC
  5
AA
100
AcDbEntity
  8
0
 62
3
420
65280
370
5
  6
BYLAYER
100
AcDbCircle
 10
19.457588935236604
 20
-36.6269800978318543
 30
0.0
 40
9.1837169378781969
100
AcDbArc
 50
87.2581105775004744
 51
89.1068418839442558
  0
ARC
  5
AB
100
AcDbEntity
  8
0
 62
3
420
65280
370
5
  6
BYLAYER
100
AcDbCircle
 10
19.8187354442683414
 20
-29.9273022331612175
 30
0.0
 40
2.4747602226805254
100
AcDbArc
 50
81.5950052573022333
 51
88.1898445155842694
  0
ARC
  5
AC
100
AcDbEntity
  8
0
 62
3
420
65280
370
5
  6
BYLAYER
100
AcDbCircle
 10
19.975780640276529
 20
-28.8736358082247619
 30
0.0
 40
1.4094560627543593
100
AcDbArc
 50
70.765917314022829
 51
81.6496734180479109
  0
ARC
  5
AD
100
AcDbEntity
  8
0
 62
3
420
65280
370
5
  6
BYLAYER
100
AcDbCircle
 10
20.195597335516787
 20
-28.2459539585696184
 30
0.0
 40
0.7443975991889726
100
AcDbArc
 50
51.217048474709145
 51
70.8252186603852323
  0
ARC
  5
AE
100
AcDbEntity
  8
0
 62
3
420
65280
370
5
  6
BYLAYER
100
AcDbCircle
 10
20.2464648734118704
 20
-28.1984300176701801
 30
0.0
 40
0.6755618541639965
100
AcDbArc
 50
29.7171839117299044
 51
52.0554305846223215
  0
ARC
  5
AF
100
AcDbEntity
  8
0
 62
3
420
65280
370
5
  6
BYLAYER
100
AcDbCircle
 10
20.0444261446405143
 20
-28.3173494636304603
 30
0.0
 40
0.9099850451951228
100
AcDbArc
 50
9.8633270376931801
 51
29.9139471217902084
  0
LINE
  5
B0
100
AcDbEntity
100
AcDbLine
  8
0
 62
3
420
65280
370
5
  6
BYLAYER
 10
21.5889670666666653
 20
-25.994088361111114
 30
0.0
 11
22.04400101111111
 21
-26.8408933166666621
 31
0.0
  0
LINE
  5
B1
100
AcDbEntity
100
AcDbLine
  8
0
 62
3
420
65280
370
5
  6
BYLAYER
 10
22.04400101111111
 20
-26.8408933166666621
 30
0.0
 11
23.4443368777777756
 21
-26.088416905555551
 31
0.0
  0
LINE
  5
B2
100
AcDbEntity
100
AcDbLine
  8
0
 62
3
420
65280
370
5
  6
BYLAYER
 10
23.4443368777777756
 20
-26.088416905555551
 30
0.0
 11
23.6822897222222188
 21
-26.5312419166666587
 31
0.0
  0
LINE
  5
B3
100
AcDbEntity
100
AcDbLine
  8
0
 62
3
420
65280
370
5
  6
BYLAYER
 10
23.6822897222222188
 20
-26.5312419166666587
 30
0.0
 11
22.2819538555555567
 21
-27.2837183277777733
 31
0.0
  0
LINE
  5
B4
100
AcDbEntity
100
AcDbLine
  8
0
 62
3
420
65280
370
5
  6
BYLAYER
 10
22.2819538555555567
 20
-27.2837183277777733
 30
0.0
 11
22.8215246444444482
 21
-28.2878424166666598
 31
0.0
  0
LINE
  5
B5
100
AcDbEntity
100
AcDbLine
  8
0
 62
3
420
65280
370
5
  6
BYLAYER
 10
22.8215246444444482
 20
-28.2878424166666598
 30
0.0
 11
22.2485712000000042
 21
-28.5957214611111077
 31
0.0
  0
LINE
  5
B6
100
AcDbEntity
100
AcDbLine
  8
0
 62
3
420
65280
370
5
  6
BYLAYER
 10
22.2485712000000042
 20
-28.5957214611111077
 30
0.0
 11
20.7780593666666711
 21
-25.8591423944444401
 31
0.0
  0
LINE
  5
B7
100
AcDbEntity
100
AcDbLine
  8
0
 62
3
420
65280
370
5
  6
BYLAYER
 10
20.7780593666666711
 20
-25.8591423944444401
 30
0.0
 11
22.7960202222222215
 21
-24.7747825277777771
 31
0.0
  0
LINE
  5
B8
100
AcDbEntity
100
AcDbLine
  8
0
 62
3
420
65280
370
5
  6
BYLAYER
 10
22.7960202222222215
 20
-24.7747825277777771
 30
0.0
 11
23.0339730666666682
 21
-25.2176075388888847
 31
0.0
  0
LINE
  5
B9
100
AcDbEntity
100
AcDbLine
  8
0
 62
3
420
65280
370
5
  6
BYLAYER
 10
23.0339730666666682
 20
-25.2176075388888847
 30
0.0
 11
21.5889670666666653
 21
-25.9940883611111033
 31
0.0
  0
LINE
  5
BA
100
AcDbEntity
100
AcDbLine
  8
0
 62
256
370
5
  6
BYLAYER
 10
10.7615510222222248
 20
-27.4526494944444366
 30
0.0
 11
10.7615510222222248
 21
-27.4526494944444437
 31
0.0
  0
LINE
  5
BB
100
AcDbEntity
100
AcDbLine
  8
0
 62
3
420
65280
370
5
  6
BYLAYER
 10
10.7734015333333346
 20
-12.2360287833333317
 30
0.0
 11
9.5885705555555596
 21
-11.4675729499999974
 31
0.0
  0
ARC
  5
BC
100
AcDbEntity
  8
0
 62
3
420
65280
370
5
  6
BYLAYER
100
AcDbCircle
 10
14.6756711000994251
 20
-3.62811884469565
 30
0.0
 40
9.3453535310052196
100
AcDbArc
 50
235.9554620087703825
 51
237.0200556220652004
  0
ARC
  5
BD
100
AcDbEntity
  8
0
 62
3
420
65280
370
5
  6
BYLAYER
100
AcDbCircle
 10
22.1352023149009618
 20
6.7080885898760867
 30
0.0
 40
22.0896062889320923
100
AcDbArc
 50
234.5074548468196269
 51
234.9324325080135907
  0
ARC
  5
BE
100
AcDbEntity
  8
0
 62
3
420
65280
370
5
  6
BYLAYER
100
AcDbCircle
 10
3.1964103704754199
 20
-19.6247546422388019
 30
0.0
 40
10.3469953369832179
100
AcDbArc
 50
53.7818946034654459
 51
54.7261833397274273
  0
LINE
  5
BF
100
AcDbEntity
100
AcDbLine
  8
0
 62
3
420
65280
370
5
  6
BYLAYER
 10
9.1716408444444522
 20
-11.1774513277777778
 30
0.0
 11
9.3437554777777887
 21
-11.3679216944444441
 31
0.0
  0
ARC
  5
C0
100
AcDbEntity
  8
0
 62
3
420
65280
370
5
  6
BYLAYER
100
AcDbCircle
 10
3.4777592110515991
 20
-16.6656398640324674
 30
0.0
 40
7.9041590321569846
100
AcDbArc
 50
41.3152954138233781
 51
42.0859289658417097
  0
ARC
  5
C1
100
AcDbEntity
  8
0
 62
3
420
65280
370
5
  6
BYLAYER
100
AcDbCircle
 10
4.7494616058649664
 20
-15.5508518786340346
 30
0.0
 40
6.213013669459448
100
AcDbArc
 50
40.3517637701701162
 51
41.3362930520998901
  0
ARC
  5
C2
100
AcDbEntity
  8
0
 62
3
420
65280
370
5
  6
BYLAYER
100
AcDbCircle
 10
7.5896623580872031
 20
-13.2440522365843556
 30
0.0
 40
2.5562232484630738
100
AcDbArc
 50
40.0086561987349967
 51
42.1675016588524727
  0
ARC
  5
C3
100
AcDbEntity
  8
0
 62
3
420
65280
370
5
  6
BYLAYER
100
AcDbCircle
 10
1.1326521708132378
 20
-18.6504383065033004
 30
0.0
 40
10.9777413149104603
100
AcDbArc
 50
39.5485323274707596
 51
39.9552815863035207
  0
LINE
  5
C4
100
AcDbEntity
100
AcDbLine
  8
0
 62
3
420
65280
370
5
  6
BYLAYER
 10
9.5974295111111196
 20
-11.6605635611111094
 30
0.0
 11
10.4593601666666718
 21
-12.7202275722222193
 31
0.0
  0
LINE
  5
C5
100
AcDbEntity
100
AcDbLine
  8
0
 62
3
420
65280
370
5
  6
BYLAYER
 10
10.4593601666666718
 20
-12.7202275722222193
 30
0.0
 11
10.2703954555555637
 21
-13.0115796833333306
 31
0.0
  0
LINE
  5
C6
100
AcDbEntity
100
AcDbLine
  8
0
 62
3
420
65280
370
5
  6
BYLAYER
 10
10.2703954555555637
 20
-13.0115796833333306
 30
0.0
 11
8.9513508777777879
 21
-12.6567092277777746
 31
0.0
  0
ARC
  5
C7
100
AcDbEntity
  8
0
 62
3
420
65280
370
5
  6
BYLAYER
100
AcDbCircle
 10
11.7067089405017732
 20
-2.700433593262912
 30
0.0
 40
10.3305093080763655
100
AcDbArc
 50
254.098558310218948
 51
254.5307928494294458
  0
ARC
  5
C8
100
AcDbEntity
  8
0
 62
3
420
65280
370
5
  6
BYLAYER
100
AcDbCircle
 10
7.8264428759749975
 20
-15.9005423901880256
 30
0.0
 40
3.4295526692414962
100
AcDbArc
 50
72.1740352680573665
 51
73.7830787197640632
  0
ARC
  5
C9
100
AcDbEntity
  8
0
 62
3
420
65280
370
5
  6
BYLAYER
100
AcDbCircle
 10
6.3580595399740503
 20
-20.0650364504373719
 30
0.0
 40
7.8423172128212491
100
AcDbArc
 50
71.9787862833402414
 51
72.755488286945706
  0
ARC
  5
CA
100
AcDbEntity
  8
0
 62
3
420
65280
370
5
  6
BYLAYER
100
AcDbCircle
 10
6.8233376855973571
 20
-18.5582022408421707
 30
0.0
 40
6.2652863806116024
100
AcDbArc
 50
72.7341071993491255
 51
73.7104330709184978
  0
ARC
  5
CB
100
AcDbEntity
  8
0
 62
3
420
65280
370
5
  6
BYLAYER
100
AcDbCircle
 10
34.1061443486841824
 20
69.7191210747407553
 30
0.0
 40
86.1326864316879295
100
AcDbArc
 50
252.5901292966040614
 51
252.7614772032963231
  0
ARC
  5
CC
100
AcDbEntity
  8
0
 62
256
370
5
  6
BYLAYER
100
AcDbCircle
 10
117.9675172891474091
 20
-0.0000000000000032
 30
0.0
 40
202.5520108937345469
100
AcDbArc
 50
193.8289570510998203
 51
193.9728108542421694
  0
ARC
  5
CD
100
AcDbEntity
  8
0
 62
3
420
65280
370
5
  6
BYLAYER
100
AcDbCircle
 10
-13.4345770362819792
 20
-49.6669699864441654
 30
0.0
 40
43.102598808415415
100
AcDbArc
 50
59.1902753331872162
 51
59.4124631369596941
  0
ARC
  5
CE
100
AcDbEntity
  8
0
 62
3
420
65280
370
5
  6
BYLAYER
100
AcDbCircle
 10
6.5469221378789362
 20
-16.1815656088485618
 30
0.0
 40
4.108606851956246
100
AcDbArc
 50
57.2176450907435594
 51
59.3398490769743816
  0
LINE
  5
CF
100
AcDbEntity
100
AcDbLine
  8
0
 62
3
420
65280
370
5
  6
BYLAYER
 10
8.77152452222224
 20
-12.727322638888884
 30
0.0
 11
9.956355500000015
 21
-13.4957784722222183
 31
0.0
  0
LINE
  5
D0
100
AcDbEntity
100
AcDbLine
  8
0
 62
3
420
65280
370
5
  6
BYLAYER
 10
9.956355500000015
 20
-13.4957784722222183
 30
0.0
 11
9.7205997555555719
 21
-13.8592750499999955
 31
0.0
  0
LINE
  5
D1
100
AcDbEntity
100
AcDbLine
  8
0
 62
3
420
65280
370
5
  6
BYLAYER
 10
9.7205997555555719
 20
-13.8592750499999955
 30
0.0
 11
7.7657677777777954
 21
-12.5914128833333283
 31
0.0
  0
LINE
  5
D2
100
AcDbEntity
100
AcDbLine
  8
0
 62
3
420
65280
370
5
  6
BYLAYER
 10
7.7657677777777954
 20
-12.5914128833333283
 30
0.0
 11
8.1212012666666844
 21
-12.0433937722222169
 31
0.0
  0
LINE
  5
D3
100
AcDbEntity
100
AcDbLine
  8
0
 62
3
420
65280
370
5
  6
BYLAYER
 10
8.1212012666666844
 20
-12.0433937722222169
 30
0.0
 11
9.4412209222222394
 21
-12.4028390499999954
 31
0.0
  0
ARC
  5
D4
100
AcDbEntity
  8
0
 62
3
420
65280
370
5
  6
BYLAYER
100
AcDbCircle
 10
8.948876878312376
 20
-14.1790218276014421
 30
0.0
 40
1.8431570516430595
100
AcDbArc
 50
70.4530263307843683
 51
74.5070404991388102
  0
ARC
  5
D5
100
AcDbEntity
  8
0
 62
3
420
65280
370
5
  6
BYLAYER
100
AcDbCircle
 10
-1.0045182619473951
 20
-44.9095467090463671
 30
0.0
 40
34.1447251695932366
100
AcDbArc
 50
71.7171595108597444
 51
71.9668662272303123
  0
ARC
  5
D6
100
AcDbEntity
  8
0
 62
3
420
65280
370
5
  6
BYLAYER
100
AcDbCircle
 10
12.8605802457118337
 20
-3.425339709916253
 30
0.0
 40
9.5961229042164877
100
AcDbArc
 50
250.8140544658992894
 51
251.8533657766503495
  0
ARC
  5
D7
100
AcDbEntity
  8
0
 62
3
420
65280
370
5
  6
BYLAYER
100
AcDbCircle
 10
92.2047661792382769
 20
61.5067175159949286
 30
0.0
 40
110.7350032137123605
100
AcDbArc
 50
221.8798516870951971
 51
221.9684772262479555
  0
ARC
  5
D8
100
AcDbEntity
  8
0
 62
3
420
65280
370
5
  6
BYLAYER
100
AcDbCircle
 10
5.0881356266640401
 20
-16.4898364231715604
 30
0.0
 40
6.1961614063524681
100
AcDbArc
 50
41.098761064551077
 51
41.7814183388090896
  0
ARC
  5
D9
100
AcDbEntity
  8
0
 62
3
420
65280
370
5
  6
BYLAYER
100
AcDbCircle
 10
14.2419035184696092
 20
-8.3097336737254235
 30
0.0
 40
6.0800574011523603
100
AcDbArc
 50
221.0929728385652027
 51
221.7886562395183034
  0
ARC
  5
DA
100
AcDbEntity
  8
0
 62
3
420
65280
370
5
  6
BYLAYER
100
AcDbCircle
 10
11.5425860264431694
 20
-10.6619823666784121
 30
0.0
 40
2.499640711207098
100
AcDbArc
 50
219.5433854885241658
 51
221.1263665814428805
  0
ARC
  5
DB
100
AcDbEntity
  8
0
 62
3
420
65280
370
5
  6
BYLAYER
100
AcDbCircle
 10
12.5370320168521925
 20
-9.8401982036967546
 30
0.0
 40
3.7896995515039276
100
AcDbArc
 50
218.6588252172879265
 51
219.5522537200158695
  0
LINE
  5
DC
100
AcDbEntity
100
AcDbLine
  8
0
 62
3
420
65280
370
5
  6
BYLAYER
 10
9.5777332222222515
 20
-12.2075539722222164
 30
0.0
 11
8.7006923888889141
 21
-11.1499149055555495
 31
0.0
  0
LINE
  5
DD
100
AcDbEntity
100
AcDbLine
  8
0
 62
3
420
65280
370
5
  6
BYLAYER
 10
8.7006923888889141
 20
-11.1499149055555495
 30
0.0
 11
9.0543253000000252
 21
-10.6046714499999943
 31
0.0
  0
LINE
  5
DE
100
AcDbEntity
100
AcDbLine
  8
0
 62
3
420
65280
370
5
  6
BYLAYER
 10
9.0543253000000252
 20
-10.6046714499999943
 30
0.0
 11
11.0091572777778026
 21
-11.8725336166666597
 31
0.0
  0
LINE
  5
DF
100
AcDbEntity
100
AcDbLine
  8
0
 62
3
420
65280
370
5
  6
BYLAYER
 10
11.0091572777778026
 20
-11.8725336166666597
 30
0.0
 11
10.7734015333333595
 21
-12.2360287833333281
 31
0.0
  0
LINE
  5
E0
100
AcDbEntity
100
AcDbLine
  8
0
 62
3
420
65280
370
5
  6
BYLAYER
 10
12.6219387444444475
 20
-10.4991556166666662
 30
0.0
 11
12.0855147333333388
 21
-10.1684391499999993
 31
0.0
  0
LINE
  5
E1
100
AcDbEntity
100
AcDbLine
  8
0
 62
3
420
65280
370
5
  6
BYLAYER
 10
12.0855147333333388
 20
-10.1684391499999993
 30
0.0
 11
11.3973313666666716
 21
-10.7296535611111103
 31
0.0
  0
LINE
  5
E2
100
AcDbEntity
100
AcDbLine
  8
0
 62
3
420
65280
370
5
  6
BYLAYER
 10
11.3973313666666716
 20
-10.7296535611111103
 30
0.0
 11
11.6133724777777836
 21
-11.3216414833333321
 31
0.0
  0
LINE
  5
E3
100
AcDbEntity
100
AcDbLine
  8
0
 62
3
420
65280
370
5
  6
BYLAYER
 10
11.6133724777777836
 20
-11.3216414833333321
 30
0.0
 11
11.2353188777777824
 21
-11.6299438611111086
 31
0.0
  0
LINE
  5
E4
100
AcDbEntity
100
AcDbLine
  8
0
 62
3
420
65280
370
5
  6
BYLAYER
 10
11.2353188777777824
 20
-11.6299438611111086
 30
0.0
 11
10.4214944111111123
 21
-9.2870855377777772
 31
0.0
  0
LINE
  5
E5
100
AcDbEntity
100
AcDbLine
  8
0
 62
3
420
65280
370
5
  6
BYLAYER
 10
10.4214944111111123
 20
-9.2870855377777772
 30
0.0
 11
10.8674690222222274
 21
-8.9233938033333331
 31
0.0
  0
LINE
  5
E6
100
AcDbEntity
100
AcDbLine
  8
0
 62
3
420
65280
370
5
  6
BYLAYER
 10
10.8674690222222274
 20
-8.9233938033333331
 30
0.0
 11
12.9961470666666745
 21
-10.1939884455555561
 31
0.0
  0
LINE
  5
E7
100
AcDbEntity
100
AcDbLine
  8
0
 62
3
420
65280
370
5
  6
BYLAYER
 10
12.9961470666666745
 20
-10.1939884455555561
 30
0.0
 11
12.6219387444444564
 21
-10.499155616666668
 31
0.0
  0
LINE
  5
E8
100
AcDbEntity
100
AcDbLine
  8
0
 62
3
420
65280
370
5
  6
BYLAYER
 10
11.1675276888889012
 20
-9.579161125555558
 30
0.0
 11
11.063614877777793
 21
-9.5145359055555581
 31
0.0
  0
ARC
  5
E9
100
AcDbEntity
  8
0
 62
3
420
65280
370
5
  6
BYLAYER
100
AcDbCircle
 10
-3.6971541802220513
 20
-31.5462163241572924
 30
0.0
 40
26.519337194790598
100
AcDbArc
 50
56.1787347340955989
 51
56.421709254296772
  0
ARC
  5
EA
100
AcDbEntity
  8
0
 62
3
420
65280
370
5
  6
BYLAYER
100
AcDbCircle
 10
9.8296187772281787
 20
-11.0157645025131252
 30
0.0
 40
1.9353337382181033
100
AcDbArc
 50
53.8947895321068984
 51
56.3898209282137088
  0
ARC
  5
EB
100
AcDbEntity
  8
0
 62
3
420
65280
370
5
  6
BYLAYER
100
AcDbCircle
 10
10.6553540993220786
 20
-9.7249220018901728
 30
0.0
 40
0.4041057833654285
100
AcDbArc
 50
52.5813845914147606
 51
57.7037995376163977
  0
ARC
  5
EC
100
AcDbEntity
  8
0
 62
3
420
65280
370
5
  6
BYLAYER
100
AcDbCircle
 10
11.9310079400366771
 20
-8.933437873929897
 30
0.0
 40
1.1512851341424071
100
AcDbArc
 50
203.0027937765624131
 51
204.8795150782552525
  0
ARC
  5
ED
100
AcDbEntity
  8
0
 62
3
420
65280
370
5
  6
BYLAYER
100
AcDbCircle
 10
9.1024970850767186
 20
-10.2176970070093418
 30
0.0
 40
1.9551856437545323
100
AcDbArc
 50
21.7262348277899413
 51
24.1493962329288081
  0
ARC
  5
EE
100
AcDbEntity
  8
0
 62
3
420
65280
370
5
  6
BYLAYER
100
AcDbCircle
 10
8.93103846992123
 20
-10.3615349695414487
 30
0.0
 40
2.1688439998915681
100
AcDbArc
 50
20.6085253286049728
 51
23.5797823410415397
  0
ARC
  5
EF
100
AcDbEntity
  8
0
 62
3
420
65280
370
5
  6
BYLAYER
100
AcDbCircle
 10
6.5692845884214366
 20
-11.3499756765901605
 30
0.0
 40
4.7283072325042541
100
AcDbArc
 50
20.2698943266555851
 51
21.7463863741395791
  0
LINE
  5
F0
100
AcDbEntity
100
AcDbLine
  8
0
 62
3
420
65280
370
5
  6
BYLAYER
 10
11.0047729555555627
 20
-9.7118876966666683
 30
0.0
 11
11.2499013000000048
 21
-10.3761772833333339
 31
0.0
  0
LINE
  5
F1
100
AcDbEntity
100
AcDbLine
  8
0
 62
3
420
65280
370
5
  6
BYLAYER
 10
11.2499013000000048
 20
-10.3761772833333339
 30
0.0
 11
11.7689234888888947
 21
-9.9529146466666685
 31
0.0
  0
LINE
  5
F2
100
AcDbEntity
100
AcDbLine
  8
0
 62
3
420
65280
370
5
  6
BYLAYER
 10
11.7689234888888947
 20
-9.9529146466666685
 30
0.0
 11
11.1675276888888924
 21
-9.579161125555558
 31
0.0
  0
LINE
  5
F3
100
AcDbEntity
100
AcDbLine
  8
0
 62
3
420
65280
370
5
  6
BYLAYER
 10
14.7665905666666646
 20
-9.4220030000000001
 30
0.0
 11
13.9258308111111084
 21
-8.8151909322222224
 31
0.0
  0
LINE
  5
F4
100
AcDbEntity
100
AcDbLine
  8
0
 62
3
420
65280
370
5
  6
BYLAYER
 10
13.9258308111111084
 20
-8.8151909322222224
 30
0.0
 11
13.398169799999998
 21
-9.0364197111111118
 31
0.0
  0
LINE
  5
F5
100
AcDbEntity
100
AcDbLine
  8
0
 62
3
420
65280
370
5
  6
BYLAYER
 10
13.398169799999998
 20
-9.0364197111111118
 30
0.0
 11
13.740244299999997
 21
-9.8523123022222219
 31
0.0
  0
LINE
  5
F6
100
AcDbEntity
100
AcDbLine
  8
0
 62
3
420
65280
370
5
  6
BYLAYER
 10
13.740244299999997
 20
-9.8523123022222219
 30
0.0
 11
13.2903594999999992
 21
-10.0409322788888868
 31
0.0
  0
LINE
  5
F7
100
AcDbEntity
100
AcDbLine
  8
0
 62
3
420
65280
370
5
  6
BYLAYER
 10
13.2903594999999992
 20
-10.0409322788888868
 30
0.0
 11
12.3894581888888862
 21
-7.8921609999999989
 31
0.0
  0
LINE
  5
F8
100
AcDbEntity
100
AcDbLine
  8
0
 62
3
420
65280
370
5
  6
BYLAYER
 10
12.3894581888888862
 20
-7.8921609999999989
 30
0.0
 11
13.4630823222222205
 21
-7.4420305255555528
 31
0.0
  0
ARC
  5
F9
100
AcDbEntity
  8
0
 62
3
420
65280
370
5
  6
BYLAYER
100
AcDbCircle
 10
13.9889025954824895
 20
-8.6360274979632337
 30
0.0
 40
1.3046515741339648
100
AcDbArc
 50
96.8621903165298619
 51
113.7680498609490769
  0
ARC
  5
FA
100
AcDbEntity
  8
0
 62
3
420
65280
370
5
  6
BYLAYER
100
AcDbCircle
 10
13.9315269964552986
 20
-8.0836870259217708
 30
0.0
 40
0.7494669134671013
100
AcDbArc
 50
73.9799900059524731
 51
97.5525380322398377
  0
ARC
  5
FB
100
AcDbEntity
  8
0
 62
3
420
65280
370
5
  6
BYLAYER
100
AcDbCircle
 10
13.9857186052556912
 20
-7.8873322009111977
 30
0.0
 40
0.5457860771311555
100
AcDbArc
 50
44.9159694760533981
 51
73.7593728188145263
  0
ARC
  5
FC
100
AcDbEntity
  8
0
 62
3
420
65280
370
5
  6
BYLAYER
100
AcDbCircle
 10
13.8616985901751981
 20
-8.0152550525990698
 30
0.0
 40
0.7239386510031787
100
AcDbArc
 50
21.8155215529254853
 51
45.1550654876128306
  0
ARC
  5
FD
100
AcDbEntity
  8
0
 62
3
420
65280
370
5
  6
BYLAYER
100
AcDbCircle
 10
13.8940404120839833
 20
-8.0229221714296557
 30
0.0
 40
0.6970249843288929
100
AcDbArc
 50
3.3080836776852469
 51
23.3887802529320084
  0
ARC
  5
FE
100
AcDbEntity
  8
0
 62
3
420
65280
370
5
  6
BYLAYER
100
AcDbCircle
 10
13.9620661913014832
 20
-8.0216312851243785
 30
0.0
 40
0.6290435929941954
100
AcDbArc
 50
343.4168243767225022
 51
3.5482440011270331
  0
ARC
  5
FF
100
AcDbEntity
  8
0
 62
3
420
65280
370
5
  6
BYLAYER
100
AcDbCircle
 10
13.9623230238904021
 20
-8.0273714187987988
 30
0.0
 40
0.6271826585769977
100
AcDbArc
 50
324.1176235045629141
 51
343.9127084801513092
  0
ARC
  5
100
100
AcDbEntity
  8
0
 62
3
420
65280
370
5
  6
BYLAYER
100
AcDbCircle
 10
13.8860840890376043
 20
-7.9617185480472079
 30
0.0
 40
0.7274835393665664
100
AcDbArc
 50
305.9666862449555538
 51
323.4475284409197684
  0
LINE
  5
101
100
AcDbEntity
100
AcDbLine
  8
0
 62
3
420
65280
370
5
  6
BYLAYER
 10
14.3133459111111172
 20
-8.5505136188888873
 30
0.0
 11
15.2729014666666743
 21
-9.2097256044444435
 31
0.0
  0
LINE
  5
102
100
AcDbEntity
100
AcDbLine
  8
0
 62
3
420
65280
370
5
  6
BYLAYER
 10
15.2729014666666743
 20
-9.2097256044444435
 30
0.0
 11
14.7665905666666735
 21
-9.4220030000000001
 31
0.0
  0
ARC
  5
103
100
AcDbEntity
  8
0
 62
3
420
65280
370
5
  6
BYLAYER
100
AcDbCircle
 10
13.810383522161084
 20
-8.0477918297375872
 30
0.0
 40
0.2933993693847192
100
AcDbArc
 50
18.5556618990644964
 51
74.862398208718588
  0
ARC
  5
104
100
AcDbEntity
  8
0
 62
3
420
65280
370
5
  6
BYLAYER
100
AcDbCircle
 10
13.7951256663606792
 20
-8.2801972662326602
 30
0.0
 40
0.5237456636309767
100
AcDbArc
 50
79.8968844570547958
 51
116.4029729554398926
  0
LINE
  5
105
100
AcDbEntity
100
AcDbLine
  8
0
 62
3
420
65280
370
5
  6
BYLAYER
 10
13.5622255777777827
 20
-7.8110841999999998
 30
0.0
 11
12.9857641111111199
 21
-8.0527735255555566
 31
0.0
  0
LINE
  5
106
100
AcDbEntity
100
AcDbLine
  8
0
 62
3
420
65280
370
5
  6
BYLAYER
 10
12.9857641111111199
 20
-8.0527735255555566
 30
0.0
 11
13.2517500888888939
 21
-8.68718720888889
 31
0.0
  0
LINE
  5
107
100
AcDbEntity
100
AcDbLine
  8
0
 62
3
420
65280
370
5
  6
BYLAYER
 10
13.2517500888888939
 20
-8.68718720888889
 30
0.0
 11
13.84041202222223
 21
-8.4403827466666677
 31
0.0
  0
ARC
  5
108
100
AcDbEntity
  8
0
 62
3
420
65280
370
5
  6
BYLAYER
100
AcDbCircle
 10
13.6132029016770399
 20
-7.8649193337343153
 30
0.0
 40
0.6186938856033711
100
AcDbArc
 50
291.5454991178039563
 51
309.0703705322897008
  0
ARC
  5
109
100
AcDbEntity
  8
0
 62
3
420
65280
370
5
  6
BYLAYER
100
AcDbCircle
 10
13.7810721971529713
 20
-8.0790871504339634
 30
0.0
 40
0.3466474355287825
100
AcDbArc
 50
309.8398631989024352
 51
334.5074005031950719
  0
ARC
  5
10A
100
AcDbEntity
  8
0
 62
3
420
65280
370
5
  6
BYLAYER
100
AcDbCircle
 10
13.8213246981229751
 20
-8.1044214209129137
 30
0.0
 40
0.2994614615069054
100
AcDbArc
 50
335.568055915153991
 51
1.7706869012989295
  0
ARC
  5
10B
100
AcDbEntity
  8
0
 62
3
420
65280
370
5
  6
BYLAYER
100
AcDbCircle
 10
13.7270158889361724
 20
-8.1109445641986895
 30
0.0
 40
0.3939433031650849
100
AcDbArc
 50
2.2951486832730472
 51
23.4104959160695962
  0
LINE
  5
10C
100
AcDbEntity
100
AcDbLine
  8
0
 62
3
420
65280
370
5
  6
BYLAYER
 10
16.366784922222223
 20
-7.0977270344444436
 30
0.0
 11
16.6246584222222218
 21
-9.0335828133333305
 31
0.0
  0
LINE
  5
10D
100
AcDbEntity
100
AcDbLine
  8
0
 62
3
420
65280
370
5
  6
BYLAYER
 10
16.6246584222222218
 20
-9.0335828133333305
 30
0.0
 11
16.1411045111111129
 21
-9.0979965077777756
 31
0.0
  0
LINE
  5
10E
100
AcDbEntity
100
AcDbLine
  8
0
 62
3
420
65280
370
5
  6
BYLAYER
 10
16.1411045111111129
 20
-9.0979965077777756
 30
0.0
 11
15.8832310111111124
 21
-7.1621407288888852
 31
0.0
  0
LINE
  5
10F
100
AcDbEntity
100
AcDbLine
  8
0
 62
3
420
65280
370
5
  6
BYLAYER
 10
15.8832310111111124
 20
-7.1621407288888852
 30
0.0
 11
15.137409400000001
 21
-7.2614908533333287
 31
0.0
  0
LINE
  5
110
100
AcDbEntity
100
AcDbLine
  8
0
 62
3
420
65280
370
5
  6
BYLAYER
 10
15.137409400000001
 20
-7.2614908533333287
 30
0.0
 11
15.0876254000000021
 21
-6.8877607566666619
 31
0.0
  0
LINE
  5
111
100
AcDbEntity
100
AcDbLine
  8
0
 62
3
420
65280
370
5
  6
BYLAYER
 10
15.0876254000000021
 20
-6.8877607566666619
 30
0.0
 11
17.0644608333333352
 21
-6.6244286555555503
 31
0.0
  0
LINE
  5
112
100
AcDbEntity
100
AcDbLine
  8
0
 62
3
420
65280
370
5
  6
BYLAYER
 10
17.0644608333333352
 20
-6.6244286555555503
 30
0.0
 11
17.1142448333333377
 21
-6.9981586111111067
 31
0.0
  0
LINE
  5
113
100
AcDbEntity
100
AcDbLine
  8
0
 62
3
420
65280
370
5
  6
BYLAYER
 10
17.1142448333333377
 20
-6.9981586111111067
 30
0.0
 11
16.366784922222223
 21
-7.0977270344444392
 31
0.0
  0
LINE
  5
114
100
AcDbEntity
100
AcDbLine
  8
0
 62
3
420
65280
370
5
  6
BYLAYER
 10
17.6452374777777763
 20
-8.953772626666666
 30
0.0
 11
17.9058033777777723
 21
-6.638401195555554
 31
0.0
  0
LINE
  5
115
100
AcDbEntity
100
AcDbLine
  8
0
 62
3
420
65280
370
5
  6
BYLAYER
 10
17.9058033777777723
 20
-6.638401195555554
 30
0.0
 11
18.3905694333333294
 21
-6.6929555977777762
 31
0.0
  0
LINE
  5
116
100
AcDbEntity
100
AcDbLine
  8
0
 62
3
420
65280
370
5
  6
BYLAYER
 10
18.3905694333333294
 20
-6.6929555977777762
 30
0.0
 11
18.1721675333333295
 21
-8.6336606599999985
 31
0.0
  0
LINE
  5
117
100
AcDbEntity
100
AcDbLine
  8
0
 62
3
420
65280
370
5
  6
BYLAYER
 10
18.1721675333333295
 20
-8.6336606599999985
 30
0.0
 11
19.4144815333333334
 21
-8.7734676222222205
 31
0.0
  0
LINE
  5
118
100
AcDbEntity
100
AcDbLine
  8
0
 62
3
420
65280
370
5
  6
BYLAYER
 10
19.4144815333333334
 20
-8.7734676222222205
 30
0.0
 11
19.3723175333333302
 21
-9.1481338499999971
 31
0.0
  0
LINE
  5
119
100
AcDbEntity
100
AcDbLine
  8
0
 62
3
420
65280
370
5
  6
BYLAYER
 10
19.3723175333333302
 20
-9.1481338499999971
 30
0.0
 11
17.6452374777777763
 21
-8.9537726266666642
 31
0.0
  0
LINE
  5
11A
100
AcDbEntity
100
AcDbLine
  8
0
 62
3
420
65280
370
5
  6
BYLAYER
 10
19.7028773666666659
 20
-9.2334012266666665
 30
0.0
 11
20.5384103666666675
 21
-7.0583784833333345
 31
0.0
  0
LINE
  5
11B
100
AcDbEntity
100
AcDbLine
  8
0
 62
3
420
65280
370
5
  6
BYLAYER
 10
20.5384103666666675
 20
-7.0583784833333345
 30
0.0
 11
22.248789922222219
 21
-7.7154194744444453
 31
0.0
  0
LINE
  5
11C
100
AcDbEntity
100
AcDbLine
  8
0
 62
3
420
65280
370
5
  6
BYLAYER
 10
22.248789922222219
 20
-7.7154194744444453
 30
0.0
 11
22.1135871333333327
 21
-8.0673748566666674
 31
0.0
  0
LINE
  5
11D
100
AcDbEntity
100
AcDbLine
  8
0
 62
3
420
65280
370
5
  6
BYLAYER
 10
22.1135871333333327
 20
-8.0673748566666674
 30
0.0
 11
20.8585886555555575
 21
-7.585268181111112
 31
0.0
  0
LINE
  5
11E
100
AcDbEntity
100
AcDbLine
  8
0
 62
3
420
65280
370
5
  6
BYLAYER
 10
20.8585886555555575
 20
-7.585268181111112
 30
0.0
 11
20.6486675333333309
 21
-8.1317251922222233
 31
0.0
  0
LINE
  5
11F
100
AcDbEntity
100
AcDbLine
  8
0
 62
3
420
65280
370
5
  6
BYLAYER
 10
20.6486675333333309
 20
-8.1317251922222233
 30
0.0
 11
21.8095025666666622
 21
-8.5776591633333332
 31
0.0
  0
LINE
  5
120
100
AcDbEntity
100
AcDbLine
  8
0
 62
3
420
65280
370
5
  6
BYLAYER
 10
21.8095025666666622
 20
-8.5776591633333332
 30
0.0
 11
21.6742997777777759
 21
-8.9296145455555571
 31
0.0
  0
LINE
  5
121
100
AcDbEntity
100
AcDbLine
  8
0
 62
3
420
65280
370
5
  6
BYLAYER
 10
21.6742997777777759
 20
-8.9296145455555571
 30
0.0
 11
20.5134633333333305
 21
-8.4836807155555558
 31
0.0
  0
LINE
  5
122
100
AcDbEntity
100
AcDbLine
  8
0
 62
3
420
65280
370
5
  6
BYLAYER
 10
20.5134633333333305
 20
-8.4836807155555558
 30
0.0
 11
20.2934612333333284
 21
-9.0563800188888894
 31
0.0
  0
LINE
  5
123
100
AcDbEntity
100
AcDbLine
  8
0
 62
3
420
65280
370
5
  6
BYLAYER
 10
20.2934612333333284
 20
-9.0563800188888894
 30
0.0
 11
21.6117508666666645
 21
-9.5627995744444458
 31
0.0
  0
LINE
  5
124
100
AcDbEntity
100
AcDbLine
  8
0
 62
3
420
65280
370
5
  6
BYLAYER
 10
21.6117508666666645
 20
-9.5627995744444458
 30
0.0
 11
21.4765480777777782
 21
-9.9147550977777801
 31
0.0
  0
LINE
  5
125
100
AcDbEntity
100
AcDbLine
  8
0
 62
3
420
65280
370
5
  6
BYLAYER
 10
21.4765480777777782
 20
-9.9147550977777801
 30
0.0
 11
19.7028773666666659
 21
-9.2334012266666683
 31
0.0
  0
LINE
  5
126
100
AcDbEntity
100
AcDbLine
  8
0
 62
3
420
65280
370
5
  6
BYLAYER
 10
23.7833887777777768
 20
-9.132159648888889
 30
0.0
 11
22.6484363444444412
 21
-10.7214747611111108
 31
0.0
  0
LINE
  5
127
100
AcDbEntity
100
AcDbLine
  8
0
 62
3
420
65280
370
5
  6
BYLAYER
 10
22.6484363444444412
 20
-10.7214747611111108
 30
0.0
 11
22.2514442222222151
 21
-10.4379768944444447
 31
0.0
  0
LINE
  5
128
100
AcDbEntity
100
AcDbLine
  8
0
 62
3
420
65280
370
5
  6
BYLAYER
 10
22.2514442222222151
 20
-10.4379768944444447
 30
0.0
 11
23.3863966555555542
 21
-8.8486620644444436
 31
0.0
  0
LINE
  5
129
100
AcDbEntity
100
AcDbLine
  8
0
 62
3
420
65280
370
5
  6
BYLAYER
 10
23.3863966555555542
 20
-8.8486620644444436
 30
0.0
 11
22.7740859111111114
 21
-8.4114028988888894
 31
0.0
  0
LINE
  5
12A
100
AcDbEntity
100
AcDbLine
  8
0
 62
3
420
65280
370
5
  6
BYLAYER
 10
22.7740859111111114
 20
-8.4114028988888894
 30
0.0
 11
22.9931961888888914
 21
-8.104575132222223
 31
0.0
  0
LINE
  5
12B
100
AcDbEntity
100
AcDbLine
  8
0
 62
3
420
65280
370
5
  6
BYLAYER
 10
22.9931961888888914
 20
-8.104575132222223
 30
0.0
 11
24.6161545888888895
 21
-9.2635520144444445
 31
0.0
  0
LINE
  5
12C
100
AcDbEntity
100
AcDbLine
  8
0
 62
3
420
65280
370
5
  6
BYLAYER
 10
24.6161545888888895
 20
-9.2635520144444445
 30
0.0
 11
24.397044311111113
 21
-9.5703797811111109
 31
0.0
  0
LINE
  5
12D
100
AcDbEntity
100
AcDbLine
  8
0
 62
3
420
65280
370
5
  6
BYLAYER
 10
24.397044311111113
 20
-9.5703797811111109
 30
0.0
 11
23.7833887777777768
 21
-9.132159648888889
 31
0.0
  0
LINE
  5
12E
100
AcDbEntity
100
AcDbLine
  8
0
 62
3
420
65280
370
5
  6
BYLAYER
 10
24.058764288888888
 20
-12.0745892055555544
 30
0.0
 11
25.8970342555555533
 21
-10.6429464277777779
 31
0.0
  0
LINE
  5
12F
100
AcDbEntity
100
AcDbLine
  8
0
 62
3
420
65280
370
5
  6
BYLAYER
 10
25.8970342555555533
 20
-10.6429464277777779
 30
0.0
 11
26.1967740111111098
 21
-11.0278213388888879
 31
0.0
  0
LINE
  5
130
100
AcDbEntity
100
AcDbLine
  8
0
 62
3
420
65280
370
5
  6
BYLAYER
 10
26.1967740111111098
 20
-11.0278213388888879
 30
0.0
 11
24.3585040444444445
 21
-12.4594655277777768
 31
0.0
  0
LINE
  5
131
100
AcDbEntity
100
AcDbLine
  8
0
 62
3
420
65280
370
5
  6
BYLAYER
 10
24.3585040444444445
 20
-12.4594655277777768
 30
0.0
 11
24.058764288888888
 21
-12.0745892055555544
 31
0.0
  0
LINE
  5
132
100
AcDbEntity
100
AcDbLine
  8
0
 62
3
420
65280
370
5
  6
BYLAYER
 10
24.615851199999998
 20
-12.8307091055555542
 30
0.0
 11
26.6006537666666674
 21
-11.6102997833333301
 31
0.0
  0
LINE
  5
133
100
AcDbEntity
100
AcDbLine
  8
0
 62
3
420
65280
370
5
  6
BYLAYER
 10
26.6006537666666674
 20
-11.6102997833333301
 30
0.0
 11
26.8561678888888871
 21
-12.0258550722222193
 31
0.0
  0
LINE
  5
134
100
AcDbEntity
100
AcDbLine
  8
0
 62
3
420
65280
370
5
  6
BYLAYER
 10
26.8561678888888871
 20
-12.0258550722222193
 30
0.0
 11
24.8713667333333319
 21
-13.2462643944444398
 31
0.0
  0
LINE
  5
135
100
AcDbEntity
100
AcDbLine
  8
0
 62
3
420
65280
370
5
  6
BYLAYER
 10
24.8713667333333319
 20
-13.2462643944444398
 30
0.0
 11
24.615851199999998
 21
-12.8307091055555524
 31
0.0
  0
LINE
  5
136
100
AcDbEntity
100
AcDbLine
  8
0
 62
3
420
65280
370
5
  6
BYLAYER
 10
9.6990873666666619
 20
-14.1076574166666671
 30
0.0
 11
9.699087366666669
 21
-14.1076574166666671
 31
0.0
  0
LINE
  5
137
100
AcDbEntity
100
AcDbLine
  8
0
 62
3
420
65280
370
5
  6
BYLAYER
 10
8.8319553555555554
 20
-23.4953436055555542
 30
0.0
 11
11.5581048999999982
 21
-21.7313644055555564
 31
0.0
  0
LINE
  5
138
100
AcDbEntity
100
AcDbLine
  8
0
 62
3
420
65280
370
5
  6
BYLAYER
 10
11.5581048999999982
 20
-21.7313644055555564
 30
0.0
 11
14.3733435333333315
 21
-22.6044456611111109
 31
0.0
  0
LINE
  5
139
100
AcDbEntity
100
AcDbLine
  8
0
 62
3
420
65280
370
5
  6
BYLAYER
 10
18.7031107888888855
 20
-21.1077365499999985
 30
0.0
 11
20.8947201555555502
 21
-21.8560911055555493
 31
0.0
  0
LINE
  5
13A
100
AcDbEntity
100
AcDbLine
  8
0
 62
3
420
65280
370
5
  6
BYLAYER
 10
20.8947201555555502
 20
-21.8560911055555493
 30
0.0
 11
22.8903332444444381
 21
-20.9117388611111075
 31
0.0
  0
LINE
  5
13B
100
AcDbEntity
100
AcDbLine
  8
0
 62
3
420
65280
370
5
  6
BYLAYER
 10
22.8903332444444381
 20
-20.9117388611111075
 30
0.0
 11
26.6499241222222132
 21
-22.5866275611111043
 31
0.0
  0
LINE
  5
13C
100
AcDbEntity
100
AcDbLine
  8
0
 62
3
420
65280
370
5
  6
BYLAYER
 10
26.6499241222222132
 20
-22.5866275611111043
 30
0.0
 11
28.2535418333333226
 21
-21.9808163944444424
 31
0.0
  0
LINE
  5
13D
100
AcDbEntity
100
AcDbLine
  8
0
 62
3
420
65280
370
5
  6
BYLAYER
 10
28.2535418333333226
 20
-21.9808163944444424
 30
0.0
 11
28.6065634744681212
 21
-22.5435941486460507
 31
0.0
  0
LINE
  5
13E
100
AcDbEntity
100
AcDbLine
  8
0
 62
3
420
65280
370
5
  6
BYLAYER
 10
7.21008489144947
 20
-24.1739490651303193
 30
0.0
 11
8.8319553555555554
 21
-23.4953436055555542
 31
0.0
  0
LINE
  5
13F
100
AcDbEntity
100
AcDbLine
  8
0
 62
3
420
65280
370
5
  6
BYLAYER
 10
16.6376942666666672
 20
-25.3246911166666671
 30
0.0
 11
14.8147207444444469
 21
-25.3055028277777758
 31
0.0
  0
LINE
  5
140
100
AcDbEntity
100
AcDbLine
  8
0
 62
3
420
65280
370
5
  6
BYLAYER
 10
14.8147207444444469
 20
-25.3055028277777758
 30
0.0
 11
14.8147207444444469
 21
-25.0176643833333294
 31
0.0
  0
LINE
  5
141
100
AcDbEntity
100
AcDbLine
  8
0
 62
3
420
65280
370
5
  6
BYLAYER
 10
14.8147207444444469
 20
-25.0176643833333294
 30
0.0
 11
16.6376942666666672
 21
-23.0795568944444405
 31
0.0
  0
LINE
  5
142
100
AcDbEntity
100
AcDbLine
  8
0
 62
3
420
65280
370
5
  6
BYLAYER
 10
16.6376942666666672
 20
-23.0795568944444405
 30
0.0
 11
16.6376942666666672
 21
-21.8217074275530365
 31
0.0
  0
ARC
  5
143
100
AcDbEntity
  8
0
 62
3
420
65280
370
5
  6
BYLAYER
100
AcDbCircle
 10
80.6239334694222691
 20
-16.9910053270036379
 30
0.0
 40
64.1175191889425662
100
AcDbArc
 50
171.8312020629156507
 51
176.33290074268578
  0
ARC
  5
144
100
AcDbEntity
  8
0
 62
3
420
65280
370
5
  6
BYLAYER
100
AcDbCircle
 10
-42.1041091999727755
 20
-17.2831260745247164
 30
0.0
 40
60.0023619051968495
100
AcDbArc
 50
4.2324409003918859
 51
9.0155999086498397
  0
LINE
  5
145
100
AcDbEntity
100
AcDbLine
  8
0
 62
3
420
65280
370
5
  6
BYLAYER
 10
17.734617255555559
 20
-12.8547798388888879
 30
0.0
 11
17.7734152407761279
 21
-21.4291126691515288
 31
0.0
  0
LINE
  5
146
100
AcDbEntity
100
AcDbLine
  8
0
 62
3
420
65280
370
5
  6
BYLAYER
 10
19.0779287111111131
 20
-25.5009078499999937
 30
0.0
 11
19.0779287111111131
 21
-25.8604815388888802
 31
0.0
  0
LINE
  5
147
100
AcDbEntity
100
AcDbLine
  8
0
 62
3
420
65280
370
5
  6
BYLAYER
 10
19.0779287111111131
 20
-25.8604815388888802
 30
0.0
 11
17.5921444222222227
 21
-25.3991413388888816
 31
0.0
  0
SPLINE
  5
148
  8
0
 62
3
420
65280
370
5
  6
BYLAYER
100
AcDbEntity
100
AcDbSpline
 70
8
 71
3
 72
8
 73
4
 74
0
 40
0.0
 40
0.0
 40
0.0
 40
0.0
 40
1.0
 40
1.0
 40
1.0
 40
1.0
 10
17.5921444222222227
 20
-25.3991413388888816
 30
0.0
 10
17.62691843333333
 20
-25.3944282277777731
 30
0.0
 10
16.8263442999999988
 20
-25.5139225277777761
 30
0.0
 10
16.6376942666666672
 20
-25.32469111666666
 30
0.0
  0
LINE
  5
149
100
AcDbEntity
100
AcDbLine
  8
0
 62
3
420
65280
370
5
  6
BYLAYER
 10
16.6376942666666672
 20
-25.32469111666666
 30
0.0
 11
16.6376942666666672
 21
-25.3246911166666671
 31
0.0
  0
ARC
  5
14A
100
AcDbEntity
  8
0
 62
3
420
65280
370
5
  6
BYLAYER
100
AcDbCircle
 10
17.2798481516835736
 20
-21.1691862713652874
 30
0.0
 40
1.831744181654771
100
AcDbArc
 50
249.8587416667303671
 51
285.253251362882736
  0
ARC
  5
14B
100
AcDbEntity
  8
0
 62
3
420
65280
370
5
  6
BYLAYER
100
AcDbCircle
 10
17.1353327899154699
 20
-24.0543225266542144
 30
0.0
 40
5.7789413837897543
100
AcDbArc
 50
83.7770658182288628
 51
94.8263711992264717
  0
ARC
  5
14C
100
AcDbEntity
  8
0
 62
3
420
65280
370
5
  6
BYLAYER
100
AcDbCircle
 10
17.2097242578677658
 20
-14.1365553192074884
 30
0.0
 40
1.403940817985438
100
AcDbArc
 50
68.0454385105521311
 51
114.7488704057281552
  0
LINE
  5
14D
100
AcDbEntity
100
AcDbLine
  8
0
 62
3
420
65280
370
5
  6
BYLAYER
 10
17.6039370777777791
 20
-23.0385090833333308
 30
0.0
 11
17.5779641666666713
 21
-25.3822588055555549
 31
0.0
  0
LINE
  5
14E
100
AcDbEntity
100
AcDbLine
  8
0
 62
3
420
65280
370
5
  6
BYLAYER
 10
16.6389360444444456
 20
-23.0720907055555493
 30
0.0
 11
16.6321486000000043
 21
-25.3177286944444404
 31
0.0
  0
LINE
  5
14F
100
AcDbEntity
100
AcDbLine
  8
0
 62
3
420
65280
370
5
  6
BYLAYER
 10
19.0745363999999995
 20
-25.4975155388888872
 30
0.0
 11
17.7820908163722535
 21
-23.3464099780820611
 31
0.0
  0
ARC
  5
150
100
AcDbEntity
  8
0
 62
3
420
65280
370
5
  6
BYLAYER
100
AcDbCircle
 10
36.737587831347021
 20
-43.7316333728402142
 30
0.0
 40
28.5493790111760219
100
AcDbArc
 50
135.0849786018554823
 51
139.1370214009598953
  0
LINE
  5
151
100
AcDbEntity
100
AcDbLine
  8
0
 62
3
420
65280
370
5
  6
BYLAYER
 10
15.1463671333333387
 20
-25.0531368944444459
 30
0.0
 11
16.530384911111117
 21
-25.0293921277777791
 31
0.0
  0
LINE
  5
152
100
AcDbEntity
100
AcDbLine
  8
0
 62
3
420
65280
370
5
  6
BYLAYER
 10
16.530384911111117
 20
-25.0293921277777791
 30
0.0
 11
16.5202093888888903
 21
-23.5741372277777756
 31
0.0
  0
LINE
  5
153
100
AcDbEntity
100
AcDbLine
  8
0
 62
3
420
65280
370
5
  6
BYLAYER
 10
17.710871077777778
 20
-23.6725114277777742
 30
0.0
 11
17.6939109333333349
 21
-25.154903405555558
 31
0.0
  0
LINE
  5
154
100
AcDbEntity
100
AcDbLine
  8
0
 62
3
420
65280
370
5
  6
BYLAYER
 10
17.6939109333333349
 20
-25.154903405555558
 30
0.0
 11
18.7929844555555547
 21
-25.4873386055555571
 31
0.0
  0
LINE
  5
155
100
AcDbEntity
100
AcDbLine
  8
0
 62
3
420
65280
370
5
  6
BYLAYER
 10
18.7929844555555547
 20
-25.4873386055555571
 30
0.0
 11
17.710871077777778
 21
-23.6725114277777742
 31
0.0
  0
LINE
  5
156
100
AcDbEntity
100
AcDbLine
  8
0
 62
3
420
65280
370
5
  6
BYLAYER
 10
14.3733435333333315
 20
-22.6044456611111109
 30
0.0
 11
16.3750333423542394
 21
-21.9075558128045706
 31
0.0
  0
LINE
  5
157
100
AcDbEntity
100
AcDbLine
  8
0
 62
3
420
65280
370
5
  6
BYLAYER
 10
17.9726638795166842
 20
-21.3493475528321497
 30
0.0
 11
18.7031107888888855
 21
-21.1077365499999985
 31
0.0
  0
CIRCLE
  5
158
100
AcDbEntity
100
AcDbCircle
  8
0
 62
3
420
65280
370
5
  6
BYLAYER
 10
17.5
 20
-18.0
 30
0.0
 40
12.8160056179762964
  0
ARC
  5
159
100
AcDbEntity
  8
0
 62
3
420
65280
370
5
  6
BYLAYER
100
AcDbCircle
 10
17.5
 20
-18.0
 30
0.0
 40
12.0
100
AcDbArc
 50
337.7509763427876237
 51
210.9637565320735177
  0
LINE
  5
15A
100
AcDbEntity
100
AcDbLine
  8
0
 62
3
420
65280
370
5
  6
BYLAYER
 10
16.6376942666666672
 20
-21.8217074275530365
 30
0.0
 11
16.6376942666666672
 21
-12.8900957166666625
 31
0.0
  0
LINE
  5
15B
100
AcDbEntity
100
AcDbLine
  8
0
 62
3
420
65280
370
5
  6
BYLAYER
 10
17.7820908163722535
 20
-23.3464099780820611
 30
0.0
 11
17.5989290444444428
 21
-23.041561316666666
 31
0.0
  0
LINE
  5
15C
100
AcDbEntity
100
AcDbLine
  8
0
 62
3
420
65280
370
5
  6
BYLAYER
 10
17.7734152407761279
 20
-21.4291126691515288
 30
0.0
 11
17.7821082000000033
 21
-23.3502517499999982
 31
0.0
  0
LINE
  5
15D
100
AcDbEntity
100
AcDbLine
  8
0
 62
3
420
65280
370
5
  6
BYLAYER
 10
16.528076576287507
 20
-25.5639127262389643
 30
0.0
 11
14.3405083496208441
 21
-25.5408867795722934
 31
0.0
  0
LINE
  5
15E
100
AcDbEntity
100
AcDbLine
  8
0
 62
3
420
65280
370
5
  6
BYLAYER
 10
14.3405083496208441
 20
-25.5408867795722934
 30
0.0
 11
14.3405083496208441
 21
-25.1954806462389591
 31
0.0
  0
LINE
  5
15F
100
AcDbEntity
100
AcDbLine
  8
0
 62
3
420
65280
370
5
  6
BYLAYER
 10
14.3405083496208441
 20
-25.1954806462389591
 30
0.0
 11
16.3750333423542394
 21
-23.0047237720607072
 31
0.0
  0
LINE
  5
160
100
AcDbEntity
100
AcDbLine
  8
0
 62
3
420
65280
370
5
  6
BYLAYER
 10
19.4522871362875058
 20
-25.771302032905627
 30
0.0
 11
17.9726638795166842
 21
-23.3191169299762073
 31
0.0
  0
LINE
  5
161
100
AcDbEntity
100
AcDbLine
  8
0
 62
3
420
65280
370
5
  6
BYLAYER
 10
19.456357909620845
 20
-25.7753728062389555
 30
0.0
 11
19.4572865249648039
 21
-26.105715876339449
 31
0.0
  0
LINE
  5
162
100
AcDbEntity
100
AcDbLine
  8
0
 62
3
420
65280
370
5
  6
BYLAYER
 10
19.2065969238503804
 20
-26.1325754764588503
 30
0.0
 11
17.6734167629541759
 21
-25.653252992905621
 31
0.0
  0
SPLINE
  5
163
  8
0
 62
3
420
65280
370
5
  6
BYLAYER
100
AcDbEntity
100
AcDbSpline
 70
8
 71
3
 72
8
 73
4
 74
0
 40
0.0
 40
0.0
 40
0.0
 40
0.0
 40
1.0
 40
1.0
 40
1.0
 40
1.0
 10
17.6734167629541759
 20
-25.653252992905621
 30
0.0
 10
17.7151455762875045
 20
-25.6475972595722901
 30
0.0
 10
16.7544566162875057
 20
-25.7909904195722959
 30
0.0
 10
16.528076576287507
 20
-25.5639127262389572
 30
0.0
  0
LINE
  5
164
100
AcDbEntity
100
AcDbLine
  8
0
 62
3
420
65280
370
5
  6
BYLAYER
 10
16.3750333423542394
 20
-21.9075558128045706
 30
0.0
 11
16.3750333423542394
 21
-23.0047237720607072
 31
0.0
  0
LINE
  5
165
100
AcDbEntity
100
AcDbLine
  8
0
 62
3
420
65280
370
5
  6
BYLAYER
 10
16.3750333423542394
 20
-23.0047237720607072
 30
0.0
 11
16.3750333423542394
 21
-23.0047237720607036
 31
0.0
  0
LINE
  5
166
100
AcDbEntity
100
AcDbLine
  8
0
 62
3
420
65280
370
5
  6
BYLAYER
 10
17.9726638795166842
 20
-21.3493475528321497
 30
0.0
 11
17.9726638795166842
 21
-23.3191169299762073
 31
0.0
  0
LINE
  5
167
100
AcDbEntity
100
AcDbLine
  8
0
 62
3
420
65280
370
5
  6
BYLAYER
 10
19.2065969238503804
 20
-26.1325754764588503
 30
0.0
 11
19.4572865249648039
 21
-26.105715876339449
 31
0.0
  0
ENDSEC
  0
SECTION
  2
OBJECTS
  0
DICTIONARY
  5
C
100
AcDbDictionary
280
0
281
1
  3
ACAD_GROUP
350
D
  3
ACAD_LAYOUT
350
1A
  3
ACAD_MLINESTYLE
350
17
  3
ACAD_PLOTSETTINGS
350
19
  3
ACAD_PLOTSTYLENAME
350
E
  3
AcDbVariableDictionary
350
168
  3
QCAD_OBJECTS
350
169
  0
DICTIONARY
  5
D
100
AcDbDictionary
280
0
281
1
  0
ACDBDICTIONARYWDFLT
  5
E
100
AcDbDictionary
281
1
  3
Normal
350
F
100
AcDbDictionaryWithDefault
340
F
  0
ACDBPLACEHOLDER
  5
F
  0
DICTIONARY
  5
17
100
AcDbDictionary
280
0
281
1
  3
Standard
350
18
  0
MLINESTYLE
  5
18
100
AcDbMlineStyle
  2
STANDARD
 70
0
  3

 62
256
 51
90.0
 52
90.0
 71
2
 49
0.5
 62
256
  6
BYLAYER
 49
-0.5
 62
256
  6
BYLAYER
  0
DICTIONARY
  5
19
100
AcDbDictionary
280
0
281
1
  0
DICTIONARY
  5
1A
100
AcDbDictionary
281
1
  3
Layout1
350
1E
  3
Layout2
350
26
  3
Model
350
22
  0
LAYOUT
  5
1E
100
AcDbPlotSettings
  1

  2
none_device
  4

  6

 40
0.0
 41
0.0
 42
0.0
 43
0.0
 44
0.0
 45
0.0
 46
0.0
 47
0.0
 48
0.0
 49
0.0
140
0.0
141
0.0
142
1.0
143
1.0
 70
688
 72
0
 73
0
 74
5
  7

 75
16
147
1.0
148
0.0
149
0.0
100
AcDbLayout
  1
Layout1
 70
1
 71
1
 10
0.0
 20
0.0
 11
420.0
 21
297.0
 12
0.0
 22
0.0
 32
0.0
 14
100000000000000000000.0
 24
100000000000000000000.0
 34
100000000000000000000.0
 15
-100000000000000000000.0
 25
-100000000000000000000.0
 35
-100000000000000000000.0
146
0.0
 13
0.0
 23
0.0
 33
0.0
 16
1.0
 26
0.0
 36
0.0
 17
0.0
 27
1.0
 37
0.0
 76
0
330
1B
  0
LAYOUT
  5
22
100
AcDbPlotSettings
  1

  2
none_device
  4

  6

 40
0.0
 41
0.0
 42
0.0
 43
0.0
 44
0.0
 45
0.0
 46
0.0
 47
0.0
 48
0.0
 49
0.0
140
0.0
141
0.0
142
1.0
143
1.0
 70
1712
 72
0
 73
0
 74
0
  7

 75
0
147
1.0
148
0.0
149
0.0
100
AcDbLayout
  1
Model
 70
1
 71
0
 10
0.0
 20
0.0
 11
12.0
 21
9.0
 12
0.0
 22
0.0
 32
0.0
 14
0.0
 24
0.0
 34
0.0
 15
0.0
 25
0.0
 35
0.0
146
0.0
 13
0.0
 23
0.0
 33
0.0
 16
1.0
 26
0.0
 36
0.0
 17
0.0
 27
1.0
 37
0.0
 76
0
330
1F
  0
LAYOUT
  5
26
100
AcDbPlotSettings
  1

  2
none_device
  4

  6

 40
0.0
 41
0.0
 42
0.0
 43
0.0
 44
0.0
 45
0.0
 46
0.0
 47
0.0
 48
0.0
 49
0.0
140
0.0
141
0.0
142
1.0
143
1.0
 70
688
 72
0
 73
0
 74
5
  7

 75
16
147
1.0
148
0.0
149
0.0
100
AcDbLayout
  1
Layout2
 70
1
 71
2
 10
0.0
 20
0.0
 11
12.0
 21
9.0
 12
0.0
 22
0.0
 32
0.0
 14
0.0
 24
0.0
 34
0.0
 15
0.0
 25
0.0
 35
0.0
146
0.0
 13
0.0
 23
0.0
 33
0.0
 16
1.0
 26
0.0
 36
0.0
 17
0.0
 27
1.0
 37
0.0
 76
0
330
23
  0
DICTIONARY
  5
168
100
AcDbDictionary
281
1
  3
DIMASSOC
350
16B
  3
HIDETEXT
350
16A
  0
DICTIONARYVAR
  5
16A
100
DictionaryVariables
280
0
  1
2
  0
DICTIONARYVAR
  5
16B
100
DictionaryVariables
280
0
  1
1
  0
DICTIONARY
  5
169
100
AcDbDictionary
281
1
  3
Grid/DisplayGrid00
350
16C
  3
Grid/DisplayGrid01
350
16D
  3
Grid/DisplayGrid02
350
16E
  3
Grid/DisplayGrid03
350
16F
  3
Grid/GridSpacingX00
350
170
  3
Grid/GridSpacingX01
350
171
  3
Grid/GridSpacingX02
350
172
  3
Grid/GridSpacingX03
350
173
  3
Grid/GridSpacingY00
350
174
  3
Grid/GridSpacingY01
350
175
  3
Grid/GridSpacingY02
350
176
  3
Grid/GridSpacingY03
350
177
  3
Grid/IsometricGrid00
350
178
  3
Grid/IsometricGrid01
350
179
  3
Grid/IsometricGrid02
350
17A
  3
Grid/IsometricGrid03
350
17B
  3
Grid/IsometricProjection00
350
17C
  3
Grid/IsometricProjection01
350
17D
  3
Grid/IsometricProjection02
350
17E
  3
Grid/IsometricProjection03
350
17F
  3
Grid/MetaGridSpacingX00
350
180
  3
Grid/MetaGridSpacingX01
350
181
  3
Grid/MetaGridSpacingX02
350
182
  3
Grid/MetaGridSpacingX03
350
183
  3
Grid/MetaGridSpacingY00
350
184
  3
Grid/MetaGridSpacingY01
350
185
  3
Grid/MetaGridSpacingY02
350
186
  3
Grid/MetaGridSpacingY03
350
187
  3
MultiPageSettings/Columns
350
188
  3
MultiPageSettings/GlueMarginsBottom
350
189
  3
MultiPageSettings/GlueMarginsLeft
350
18A
  3
MultiPageSettings/GlueMarginsRight
350
18B
  3
MultiPageSettings/GlueMarginsTop
350
18C
  3
MultiPageSettings/PrintCropMarks
350
18D
  3
MultiPageSettings/Rows
350
18E
  3
PageSettings/OffsetX
350
18F
  3
PageSettings/OffsetY
350
190
  3
PageSettings/PageOrientation
350
191
  3
PageSettings/PaperHeight
350
192
  3
PageSettings/PaperWidth
350
193
  3
PageSettings/Scale
350
194
  3
PageSettings/ShowPaperBorders
350
195
  3
UnitSettings/PaperUnit
350
196
  0
XRECORD
  5
16C
330
169
100
AcDbXrecord
280
1
290
1
  0
XRECORD
  5
16D
330
169
100
AcDbXrecord
280
1
290
1
  0
XRECORD
  5
16E
330
169
100
AcDbXrecord
280
1
290
1
  0
XRECORD
  5
16F
330
169
100
AcDbXrecord
280
1
290
1
  0
XRECORD
  5
170
330
169
100
AcDbXrecord
280
1
1000
auto
  0
XRECORD
  5
171
330
169
100
AcDbXrecord
280
1
1000
auto
  0
XRECORD
  5
172
330
169
100
AcDbXrecord
280
1
1000
auto
  0
XRECORD
  5
173
330
169
100
AcDbXrecord
280
1
1000
auto
  0
XRECORD
  5
174
330
169
100
AcDbXrecord
280
1
1000
auto
  0
XRECORD
  5
175
330
169
100
AcDbXrecord
280
1
1000
auto
  0
XRECORD
  5
176
330
169
100
AcDbXrecord
280
1
1000
auto
  0
XRECORD
  5
177
330
169
100
AcDbXrecord
280
1
1000
auto
  0
XRECORD
  5
178
330
169
100
AcDbXrecord
280
1
290
0
  0
XRECORD
  5
179
330
169
100
AcDbXrecord
280
1
290
0
  0
XRECORD
  5
17A
330
169
100
AcDbXrecord
280
1
290
0
  0
XRECORD
  5
17B
330
169
100
AcDbXrecord
280
1
290
0
  0
XRECORD
  5
17C
330
169
100
AcDbXrecord
280
1
 90
0
  0
XRECORD
  5
17D
330
169
100
AcDbXrecord
280
1
 90
0
  0
XRECORD
  5
17E
330
169
100
AcDbXrecord
280
1
 90
0
  0
XRECORD
  5
17F
330
169
100
AcDbXrecord
280
1
 90
0
  0
XRECORD
  5
180
330
169
100
AcDbXrecord
280
1
1000
auto
  0
XRECORD
  5
181
330
169
100
AcDbXrecord
280
1
1000
auto
  0
XRECORD
  5
182
330
169
100
AcDbXrecord
280
1
1000
auto
  0
XRECORD
  5
183
330
169
100
AcDbXrecord
280
1
1000
auto
  0
XRECORD
  5
184
330
169
100
AcDbXrecord
280
1
1000
auto
  0
XRECORD
  5
185
330
169
100
AcDbXrecord
280
1
1000
auto
  0
XRECORD
  5
186
330
169
100
AcDbXrecord
280
1
1000
auto
  0
XRECORD
  5
187
330
169
100
AcDbXrecord
280
1
1000
auto
  0
XRECORD
  5
188
330
169
100
AcDbXrecord
280
1
 90
1
  0
XRECORD
  5
189
330
169
100
AcDbXrecord
280
1
 40
10.0
  0
XRECORD
  5
18A
330
169
100
AcDbXrecord
280
1
 40
10.0
  0
XRECORD
  5
18B
330
169
100
AcDbXrecord
280
1
 40
10.0
  0
XRECORD
  5
18C
330
169
100
AcDbXrecord
280
1
 40
10.0
  0
XRECORD
  5
18D
330
169
100
AcDbXrecord
280
1
290
0
  0
XRECORD
  5
18E
330
169
100
AcDbXrecord
280
1
 90
1
  0
XRECORD
  5
18F
330
169
100
AcDbXrecord
280
1
 40
0.0
  0
XRECORD
  5
190
330
169
100
AcDbXrecord
280
1
 40
0.0
  0
XRECORD
  5
191
330
169
100
AcDbXrecord
280
1
1000
Portrait
  0
XRECORD
  5
192
330
169
100
AcDbXrecord
280
1
 40
297.0
  0
XRECORD
  5
193
330
169
100
AcDbXrecord
280
1
 40
210.0
  0
XRECORD
  5
194
330
169
100
AcDbXrecord
280
1
1000
1:1
  0
XRECORD
  5
195
330
169
100
AcDbXrecord
280
1
290
1
  0
XRECORD
  5
196
330
169
100
AcDbXrecord
280
1
 90
4
  0
ENDSEC
  0
EOF
