999
dxflib 3.7.5.0
  0
SECTION
  2
HEADER
  9
$ACADVER
  1
AC1015
  9
$HANDSEED
  5
FFFF
  9
$ANGBASE
 50
0.0
  9
$ANGDIR
 70
0
  9
$ATTMODE
 70
1
  9
$AUNITS
 70
0
  9
$AUPREC
 70
0
  9
$CECOLOR
 62
256
  9
$CELTSCALE
 40
1.0
  9
$CHAMFERA
 40
0.0
  9
$CHAMFERB
 40
0.0
  9
$CHAMFERC
 40
0.0
  9
$CHAMFERD
 40
0.0
  9
$CMLJUST
 70
0
  9
$CMLSCALE
 40
1.0
  9
$DIMADEC
 70
0
  9
$DIMALT
 70
0
  9
$DIMALTD
 70
2
  9
$DIMALTF
 40
25.3999999999999986
  9
$DIMALTRND
 40
0.0
  9
$DIMALTTD
 70
2
  9
$DIMALTTZ
 70
0
  9
$DIMALTU
 70
2
  9
$DIMALTZ
 70
0
  9
$DIMAPOST
  1

  9
$DIMASZ
 40
2.5
  9
$DIMATFIT
 70
3
  9
$DIMAUNIT
 70
0
  9
$DIMAZIN
 70
2
  9
$DIMBLK
  1

  9
$DIMBLK1
  1

  9
$DIMBLK2
  1

  9
$DIMCEN
 40
0.09
  9
$DIMCLRD
 70
0
  9
$DIMCLRE
 70
0
  9
$DIMCLRT
 70
0
  9
$DIMDEC
 70
4
  9
$DIMDLE
 40
0.0
  9
$DIMDLI
 40
0.38
  9
$DIMDSEP
 70
46
  9
$DIMEXE
 40
1.25
  9
$DIMEXO
 40
0.625
  9
$DIMFRAC
 70
0
  9
$DIMGAP
 40
0.625
  9
$DIMJUST
 70
0
  9
$DIMLDRBLK
  1

  9
$DIMLFAC
 40
1.0
  9
$DIMLIM
 70
0
  9
$DIMLUNIT
 70
2
  9
$DIMLWD
 70
-2
  9
$DIMLWE
 70
-2
  9
$DIMPOST
  1

  9
$DIMRND
 40
0.0
  9
$DIMSAH
 70
0
  9
$DIMSCALE
 40
1.0
  9
$DIMSD1
 70
0
  9
$DIMSD2
 70
0
  9
$DIMSE1
 70
0
  9
$DIMSE2
 70
0
  9
$DIMSOXD
 70
0
  9
$DIMTAD
 70
0
  9
$DIMTDEC
 70
4
  9
$DIMTFAC
 40
1.0
  9
$DIMTIH
 70
1
  9
$DIMTIX
 70
0
  9
$DIMTM
 40
0.0
  9
$DIMTOFL
 70
0
  9
$DIMTOH
 70
1
  9
$DIMTOL
 70
0
  9
$DIMTOLJ
 70
1
  9
$DIMTP
 40
0.0
  9
$DIMTSZ
 40
0.0
  9
$DIMTVP
 40
0.0
  9
$DIMTXSTY
  7
Standard
  9
$DIMTXT
 40
2.5
  9
$DIMTZIN
 70
0
  9
$DIMUPT
 70
0
  9
$DIMZIN
 70
8
  9
$DISPSILH
 70
0
  9
$DWGCODEPAGE
  3
ANSI_1252
  9
$ELEVATION
 40
0.0
  9
$EXTMAX
 10
-100000000000000000000.0
 20
-100000000000000000000.0
 30
-100000000000000000000.0
  9
$EXTMIN
 10
100000000000000000000.0
 20
100000000000000000000.0
 30
100000000000000000000.0
  9
$FILLETRAD
 40
0.5
  9
$FILLMODE
 70
1
  9
$INSBASE
 10
0.0
 20
0.0
 30
0.0
  9
$INSUNITS
 70
4
  9
$LIMCHECK
 70
0
  9
$LIMMAX
 10
12.0
 20
9.0
  9
$LIMMIN
 10
0.0
 20
0.0
  9
$LTSCALE
 40
1
  9
$LUNITS
 70
2
  9
$LUPREC
 70
4
  9
$MAXACTVP
 70
64
  9
$MIRRTEXT
 70
1
  9
$ORTHOMODE
 70
0
  9
$PDMODE
 70
0
  9
$PDSIZE
 40
0.0
  9
$PELEVATION
 40
0.0
  9
$PEXTMAX
 10
-100000000000000000000.0
 20
-100000000000000000000.0
 30
-100000000000000000000.0
  9
$PEXTMIN
 10
100000000000000000000.0
 20
100000000000000000000.0
 30
100000000000000000000.0
  9
$PINSBASE
 10
0.0
 20
0.0
 30
0.0
  9
$PLIMCHECK
 70
0
  9
$PLIMMAX
 10
12.0
 20
9.0
  9
$PLIMMIN
 10
0.0
 20
0.0
  9
$PLINEGEN
 70
0
  9
$PLINEWID
 40
0.0
  9
$PROXYGRAPHICS
 70
1
  9
$PSLTSCALE
 70
1
  9
$PUCSNAME
  2

  9
$PUCSORG
 10
0.0
 20
0.0
 30
0.0
  9
$PUCSXDIR
 10
1.0
 20
0.0
 30
0.0
  9
$PUCSYDIR
 10
0.0
 20
1.0
 30
0.0
  9
$QTEXTMODE
 70
0
  9
$REGENMODE
 70
1
  9
$SHADEDGE
 70
3
  9
$SHADEDIF
 70
70
  9
$SKETCHINC
 40
0.1
  9
$SKPOLY
 70
0
  9
$SPLFRAME
 70
0
  9
$SPLINESEGS
 70
8
  9
$SPLINETYPE
 70
6
  9
$SURFTAB1
 70
6
  9
$SURFTAB2
 70
6
  9
$SURFTYPE
 70
6
  9
$SURFU
 70
6
  9
$SURFV
 70
6
  9
$TEXTSIZE
 40
0.2
  9
$TEXTSTYLE
  7
Standard
  9
$THICKNESS
 40
0.0
  9
$TILEMODE
 70
1
  9
$TRACEWID
 40
0.05
  9
$TREEDEPTH
 70
3020
  9
$UCSNAME
  2

  9
$UCSORG
 10
0.0
 20
0.0
 30
0.0
  9
$UCSXDIR
 10
1.0
 20
0.0
 30
0.0
  9
$UCSYDIR
 10
0.0
 20
1.0
 30
0.0
  9
$UNITMODE
 70
0
  9
$USERI1
 70
0
  9
$USERI2
 70
0
  9
$USERI3
 70
0
  9
$USERI4
 70
0
  9
$USERI5
 70
0
  9
$USERR1
 40
0.0
  9
$USERR2
 40
0.0
  9
$USERR3
 40
0.0
  9
$USERR4
 40
0.0
  9
$USERR5
 40
0.0
  9
$USRTIMER
 70
1
  9
$VISRETAIN
 70
1
  0
ENDSEC
  0
SECTION
  2
TABLES
  0
TABLE
  2
VPORT
  5
8
100
AcDbSymbolTable
 70
1
  0
VPORT
  5
30
100
AcDbSymbolTableRecord
100
AcDbViewportTableRecord
  2
*Active
 70
0
 10
0.0
 20
0.0
 11
1.0
 21
1.0
 12
286.3055555555554861
 22
148.5
 13
0.0
 23
0.0
 14
10.0
 24
10.0
 15
10.0
 25
10.0
 16
0.0
 26
0.0
 36
1.0
 17
0.0
 27
0.0
 37
0.0
 40
297.0
 41
1.92798353909465
 42
50.0
 43
0.0
 44
0.0
 50
0.0
 51
0.0
 71
0
 72
100
 73
1
 74
3
 75
1
 76
1
 77
0
 78
0
281
0
 65
1
110
0.0
120
0.0
130
0.0
111
1.0
121
0.0
131
0.0
112
0.0
122
1.0
132
0.0
 79
0
146
0.0
  0
ENDTAB
  0
TABLE
  2
LTYPE
  5
5
100
AcDbSymbolTable
 70
50
  0
LTYPE
  5
16
100
AcDbSymbolTableRecord
100
AcDbLinetypeTableRecord
  2
Continuous
 70
0
  3
Solid line
 72
65
 73
0
 40
0.0
  0
LTYPE
  5
31
100
AcDbSymbolTableRecord
100
AcDbLinetypeTableRecord
  2
ACAD_ISO15W100
 70
0
  3
ISO double-dash triple-dot __ __ . . . __ __ . .
 72
65
 73
10
 40
39.0000000000000071
 49
12.0
 74
0
 49
-3.0
 74
0
 49
12.0
 74
0
 49
-2.9500000000000002
 74
0
 49
0.1
 74
0
 49
-2.9000000000000004
 74
0
 49
0.1
 74
0
 49
-2.9000000000000004
 74
0
 49
0.1
 74
0
 49
-2.9500000000000002
 74
0
  0
LTYPE
  5
32
100
AcDbSymbolTableRecord
100
AcDbLinetypeTableRecord
  2
HOT_WATER_SUPPLY
 70
0
  3
Hot water supply ---- HW ---- HW ---- HW ----
 72
65
 73
2
 40
17.7800000000000011
 49
12.6999999999999993
 74
0
 49
-5.0800000000000001
 74
0
  0
LTYPE
  5
33
100
AcDbSymbolTableRecord
100
AcDbLinetypeTableRecord
  2
DIVIDE
 70
0
  3
Divide ____ . . ____ . . ____ . . ____ . . ____
 72
65
 73
6
 40
31.7500000000000036
 49
12.6999999999999993
 74
0
 49
-6.2999999999999998
 74
0
 49
0.1
 74
0
 49
-6.25
 74
0
 49
0.1
 74
0
 49
-6.2999999999999998
 74
0
  0
LTYPE
  5
34
100
AcDbSymbolTableRecord
100
AcDbLinetypeTableRecord
  2
ACAD_ISO10W100
 70
0
  3
ISO dash dot __ . __ . __ . __ . __ . __ . __ . 
 72
65
 73
4
 40
18.0
 49
12.0
 74
0
 49
-2.9500000000000002
 74
0
 49
0.1
 74
0
 49
-2.9500000000000002
 74
0
  0
LTYPE
  5
35
100
AcDbSymbolTableRecord
100
AcDbLinetypeTableRecord
  2
GAS_LINE
 70
0
  3
Gas line ----GAS----GAS----GAS----GAS----GAS----GAS--
 72
65
 73
2
 40
17.7800000000000011
 49
12.6999999999999993
 74
0
 49
-5.0800000000000001
 74
0
  0
LTYPE
  5
36
100
AcDbSymbolTableRecord
100
AcDbLinetypeTableRecord
  2
ACAD_ISO04W100
 70
0
  3
ISO long-dash dot ____ . ____ . ____ . ____ . _
 72
65
 73
4
 40
30.0
 49
24.0
 74
0
 49
-2.9500000000000002
 74
0
 49
0.1
 74
0
 49
-2.9500000000000002
 74
0
  0
LTYPE
  5
14
100
AcDbSymbolTableRecord
100
AcDbLinetypeTableRecord
  2
ByBlock
 70
0
  3

 72
65
 73
0
 40
0.0
  0
LTYPE
  5
37
100
AcDbSymbolTableRecord
100
AcDbLinetypeTableRecord
  2
CENTER2
 70
0
  3
Center (.5x) ___ _ ___ _ ___ _ ___ _ ___ _ ___
 72
65
 73
4
 40
28.5750000000000028
 49
19.0500000000000007
 74
0
 49
-3.1749999999999998
 74
0
 49
3.1749999999999998
 74
0
 49
-3.1749999999999998
 74
0
  0
LTYPE
  5
38
100
AcDbSymbolTableRecord
100
AcDbLinetypeTableRecord
  2
ACAD_ISO11W100
 70
0
  3
ISO double-dash dot __ __ . __ __ . __ __ . __ _
 72
65
 73
6
 40
33.0
 49
12.0
 74
0
 49
-3.0
 74
0
 49
12.0
 74
0
 49
-2.9500000000000002
 74
0
 49
0.1
 74
0
 49
-2.9500000000000002
 74
0
  0
LTYPE
  5
39
100
AcDbSymbolTableRecord
100
AcDbLinetypeTableRecord
  2
HIDDEN2
 70
0
  3
Hidden (.5x) _ _ _ _ _ _ _ _ _ _ _ _ _ _ _ _ _ 
 72
65
 73
2
 40
4.7624999999999993
 49
3.1749999999999998
 74
0
 49
-1.5874999999999999
 74
0
  0
LTYPE
  5
3A
100
AcDbSymbolTableRecord
100
AcDbLinetypeTableRecord
  2
BORDERX2
 70
0
  3
Border (2x) ____  ____  .  ____  ____  .  ___
 72
65
 73
6
 40
88.8999999999999773
 49
25.3999999999999986
 74
0
 49
-12.6999999999999993
 74
0
 49
25.3999999999999986
 74
0
 49
-12.6499999999999986
 74
0
 49
0.1
 74
0
 49
-12.6499999999999986
 74
0
  0
LTYPE
  5
3B
100
AcDbSymbolTableRecord
100
AcDbLinetypeTableRecord
  2
ACAD_ISO05W100
 70
0
  3
ISO long-dash double-dot ____ .. ____ .. ____ . 
 72
65
 73
6
 40
33.0000000000000071
 49
24.0
 74
0
 49
-2.9500000000000002
 74
0
 49
0.1
 74
0
 49
-2.9000000000000004
 74
0
 49
0.1
 74
0
 49
-2.9500000000000002
 74
0
  0
LTYPE
  5
3C
100
AcDbSymbolTableRecord
100
AcDbLinetypeTableRecord
  2
DASHDOTX2
 70
0
  3
Dash dot (2x) ____  .  ____  .  ____  .  ___
 72
65
 73
4
 40
50.7999999999999972
 49
25.3999999999999986
 74
0
 49
-12.6499999999999986
 74
0
 49
0.1
 74
0
 49
-12.6499999999999986
 74
0
  0
LTYPE
  5
3D
100
AcDbSymbolTableRecord
100
AcDbLinetypeTableRecord
  2
HIDDENX2
 70
0
  3
Hidden (2x) ____ ____ ____ ____ ____ ____ ____ 
 72
65
 73
2
 40
19.0499999999999972
 49
12.6999999999999993
 74
0
 49
-6.3499999999999996
 74
0
  0
LTYPE
  5
3E
100
AcDbSymbolTableRecord
100
AcDbLinetypeTableRecord
  2
CENTERX2
 70
0
  3
Center (2x) ________  __  ________  __  _____
 72
65
 73
4
 40
101.6000000000000085
 49
63.5
 74
0
 49
-12.6999999999999993
 74
0
 49
12.6999999999999993
 74
0
 49
-12.6999999999999993
 74
0
  0
LTYPE
  5
3F
100
AcDbSymbolTableRecord
100
AcDbLinetypeTableRecord
  2
BORDER2
 70
0
  3
Border (.5x) __.__.__.__.__.__.__.__.__.__.__.
 72
65
 73
6
 40
22.2250000000000014
 49
6.3499999999999996
 74
0
 49
-3.1749999999999998
 74
0
 49
6.3499999999999996
 74
0
 49
-3.125
 74
0
 49
0.1
 74
0
 49
-3.125
 74
0
  0
LTYPE
  5
40
100
AcDbSymbolTableRecord
100
AcDbLinetypeTableRecord
  2
DASHDOT2
 70
0
  3
Dash dot (.5x) _._._._._._._._._._._._._._._.
 72
65
 73
4
 40
12.6999999999999993
 49
6.3499999999999996
 74
0
 49
-3.125
 74
0
 49
0.1
 74
0
 49
-3.125
 74
0
  0
LTYPE
  5
41
100
AcDbSymbolTableRecord
100
AcDbLinetypeTableRecord
  2
ACAD_ISO12W100
 70
0
  3
ISO dash double-dot __ . . __ . . __ . . __ . . 
 72
65
 73
6
 40
21.0
 49
12.0
 74
0
 49
-2.9500000000000002
 74
0
 49
0.1
 74
0
 49
-2.9000000000000004
 74
0
 49
0.1
 74
0
 49
-2.9500000000000002
 74
0
  0
LTYPE
  5
42
100
AcDbSymbolTableRecord
100
AcDbLinetypeTableRecord
  2
ACAD_ISO07W100
 70
0
  3
ISO dot . . . . . . . . . . . . . . . . . . . . 
 72
65
 73
2
 40
3.0
 49
0.1
 74
0
 49
-2.8999999999999999
 74
0
  0
LTYPE
  5
43
100
AcDbSymbolTableRecord
100
AcDbLinetypeTableRecord
  2
HIDDEN
 70
0
  3
Hidden __ __ __ __ __ __ __ __ __ __ __ __ __ __
 72
65
 73
2
 40
9.5249999999999986
 49
6.3499999999999996
 74
0
 49
-3.1749999999999998
 74
0
  0
LTYPE
  5
44
100
AcDbSymbolTableRecord
100
AcDbLinetypeTableRecord
  2
ACAD_ISO06W100
 70
0
  3
ISO long-dash triple-dot ____ ... ____ ... ____
 72
65
 73
8
 40
36.0000000000000071
 49
24.0
 74
0
 49
-2.9500000000000002
 74
0
 49
0.1
 74
0
 49
-2.9000000000000004
 74
0
 49
0.1
 74
0
 49
-2.9000000000000004
 74
0
 49
0.1
 74
0
 49
-2.9500000000000002
 74
0
  0
LTYPE
  5
45
100
AcDbSymbolTableRecord
100
AcDbLinetypeTableRecord
  2
CENTER
 70
0
  3
Center ____ _ ____ _ ____ _ ____ _ ____ _ ____
 72
65
 73
4
 40
50.8000000000000043
 49
31.75
 74
0
 49
-6.3499999999999996
 74
0
 49
6.3499999999999996
 74
0
 49
-6.3499999999999996
 74
0
  0
LTYPE
  5
46
100
AcDbSymbolTableRecord
100
AcDbLinetypeTableRecord
  2
DOTX2
 70
0
  3
Dot (2x) .  .  .  .  .  .  .  .  .  .  .  .  .  .
 72
65
 73
2
 40
12.6999999999999993
 49
0.1
 74
0
 49
-12.5999999999999996
 74
0
  0
LTYPE
  5
47
100
AcDbSymbolTableRecord
100
AcDbLinetypeTableRecord
  2
PHANTOM
 70
0
  3
Phantom ______  __  __  ______  __  __  ______ 
 72
65
 73
6
 40
63.5000000000000071
 49
31.75
 74
0
 49
-6.3499999999999996
 74
0
 49
6.3499999999999996
 74
0
 49
-6.3499999999999996
 74
0
 49
6.3499999999999996
 74
0
 49
-6.3499999999999996
 74
0
  0
LTYPE
  5
48
100
AcDbSymbolTableRecord
100
AcDbLinetypeTableRecord
  2
ACAD_ISO08W100
 70
0
  3
ISO long-dash short-dash ____ __ ____ __ ____ _
 72
65
 73
4
 40
36.0
 49
24.0
 74
0
 49
-3.0
 74
0
 49
6.0
 74
0
 49
-3.0
 74
0
  0
LTYPE
  5
49
100
AcDbSymbolTableRecord
100
AcDbLinetypeTableRecord
  2
DASHEDX2
 70
0
  3
Dashed (2x) ____  ____  ____  ____  ____  ___
 72
65
 73
2
 40
38.0999999999999943
 49
25.3999999999999986
 74
0
 49
-12.6999999999999993
 74
0
  0
LTYPE
  5
4A
100
AcDbSymbolTableRecord
100
AcDbLinetypeTableRecord
  2
DRAINAGE
 70
0
  3
Drainage ---->---->---->----
 72
65
 73
1
 40
5.0800000000000001
 49
5.0800000000000001
 74
0
  0
LTYPE
  5
4B
100
AcDbSymbolTableRecord
100
AcDbLinetypeTableRecord
  2
ACAD_ISO02W100
 70
0
  3
ISO dash __ __ __ __ __ __ __ __ __ __ __ __ __
 72
65
 73
2
 40
15.0
 49
12.0
 74
0
 49
-3.0
 74
0
  0
LTYPE
  5
4C
100
AcDbSymbolTableRecord
100
AcDbLinetypeTableRecord
  2
PHANTOM2
 70
0
  3
Phantom (.5x) ___ _ _ ___ _ _ ___ _ _ ___ _ _
 72
65
 73
6
 40
31.7500000000000036
 49
15.875
 74
0
 49
-3.1749999999999998
 74
0
 49
3.1749999999999998
 74
0
 49
-3.1749999999999998
 74
0
 49
3.1749999999999998
 74
0
 49
-3.1749999999999998
 74
0
  0
LTYPE
  5
4D
100
AcDbSymbolTableRecord
100
AcDbLinetypeTableRecord
  2
DASHED2
 70
0
  3
Dashed (.5x) _ _ _ _ _ _ _ _ _ _ _ _ _ _ _ _ _ 
 72
65
 73
2
 40
9.5249999999999986
 49
6.3499999999999996
 74
0
 49
-3.1749999999999998
 74
0
  0
LTYPE
  5
4E
100
AcDbSymbolTableRecord
100
AcDbLinetypeTableRecord
  2
ACAD_ISO09W100
 70
0
  3
ISO long-dash double-short-dash ____ __ __ ____
 72
65
 73
6
 40
45.0
 49
24.0
 74
0
 49
-3.0
 74
0
 49
6.0
 74
0
 49
-3.0
 74
0
 49
6.0
 74
0
 49
-3.0
 74
0
  0
LTYPE
  5
4F
100
AcDbSymbolTableRecord
100
AcDbLinetypeTableRecord
  2
ACAD_ISO13W100
 70
0
  3
ISO double-dash double-dot __ __ . . __ __ . . _
 72
65
 73
8
 40
36.0000000000000071
 49
12.0
 74
0
 49
-3.0
 74
0
 49
12.0
 74
0
 49
-2.9500000000000002
 74
0
 49
0.1
 74
0
 49
-2.9000000000000004
 74
0
 49
0.1
 74
0
 49
-2.9500000000000002
 74
0
  0
LTYPE
  5
50
100
AcDbSymbolTableRecord
100
AcDbLinetypeTableRecord
  2
TRACKS
 70
0
  3
Tracks -|-|-|-|-|-|-|-|-|-|-|-|-|-|-|-|-|-|-|-|-|-|-|-|-
 72
65
 73
1
 40
3.8100000000000001
 49
3.8100000000000001
 74
0
  0
LTYPE
  5
51
100
AcDbSymbolTableRecord
100
AcDbLinetypeTableRecord
  2
DRAINAGE2
 70
0
  3
Drainage reversed----<----<----<----
 72
65
 73
1
 40
5.0800000000000001
 49
5.0800000000000001
 74
0
  0
LTYPE
  5
52
100
AcDbSymbolTableRecord
100
AcDbLinetypeTableRecord
  2
DOT2
 70
0
  3
Dot (.5x) ........................................
 72
65
 73
2
 40
3.1749999999999998
 49
0.1
 74
0
 49
-3.0749999999999997
 74
0
  0
LTYPE
  5
53
100
AcDbSymbolTableRecord
100
AcDbLinetypeTableRecord
  2
ZIGZAG
 70
0
  3
Zig zag /\/\/\/\/\/\/\/\/\/\/\/\/\/\/\/\/\/\/\/\/\/\/\/
 72
65
 73
2
 40
5.0825399999999998
 49
0.00254
 74
0
 49
-5.0800000000000001
 74
0
  0
LTYPE
  5
54
100
AcDbSymbolTableRecord
100
AcDbLinetypeTableRecord
  2
DASHED
 70
0
  3
Dashed __ __ __ __ __ __ __ __ __ __ __ __ __ _
 72
65
 73
2
 40
19.0499999999999972
 49
12.6999999999999993
 74
0
 49
-6.3499999999999996
 74
0
  0
LTYPE
  5
55
100
AcDbSymbolTableRecord
100
AcDbLinetypeTableRecord
  2
ACAD_ISO14W100
 70
0
  3
ISO dash triple-dot __ . . . __ . . . __ . . . _
 72
65
 73
8
 40
24.0000000000000036
 49
12.0
 74
0
 49
-2.9500000000000002
 74
0
 49
0.1
 74
0
 49
-2.9000000000000004
 74
0
 49
0.1
 74
0
 49
-2.9000000000000004
 74
0
 49
0.1
 74
0
 49
-2.9500000000000002
 74
0
  0
LTYPE
  5
56
100
AcDbSymbolTableRecord
100
AcDbLinetypeTableRecord
  2
PHANTOMX2
 70
0
  3
Phantom (2x) ____________    ____    ____   _
 72
65
 73
6
 40
127.0000000000000142
 49
63.5
 74
0
 49
-12.6999999999999993
 74
0
 49
12.6999999999999993
 74
0
 49
-12.6999999999999993
 74
0
 49
12.6999999999999993
 74
0
 49
-12.6999999999999993
 74
0
  0
LTYPE
  5
57
100
AcDbSymbolTableRecord
100
AcDbLinetypeTableRecord
  2
DIVIDEX2
 70
0
  3
Divide (2x) ________  .  .  ________  .  .  _
 72
65
 73
6
 40
63.5
 49
25.3999999999999986
 74
0
 49
-12.6499999999999986
 74
0
 49
0.1
 74
0
 49
-12.5999999999999979
 74
0
 49
0.1
 74
0
 49
-12.6499999999999986
 74
0
  0
LTYPE
  5
58
100
AcDbSymbolTableRecord
100
AcDbLinetypeTableRecord
  2
BORDER
 70
0
  3
Border __ __ . __ __ . __ __ . __ __ . __ __ .
 72
65
 73
6
 40
44.4499999999999957
 49
12.6999999999999993
 74
0
 49
-6.3499999999999996
 74
0
 49
12.6999999999999993
 74
0
 49
-6.2999999999999998
 74
0
 49
0.1
 74
0
 49
-6.2999999999999998
 74
0
  0
LTYPE
  5
59
100
AcDbSymbolTableRecord
100
AcDbLinetypeTableRecord
  2
DIVIDE2
 70
0
  3
Divide (.5x) __..__..__..__..__..__..__..__.._
 72
65
 73
6
 40
15.8749999999999982
 49
6.3499999999999996
 74
0
 49
-3.125
 74
0
 49
0.1
 74
0
 49
-3.0750000000000002
 74
0
 49
0.1
 74
0
 49
-3.125
 74
0
  0
LTYPE
  5
5A
100
AcDbSymbolTableRecord
100
AcDbLinetypeTableRecord
  2
DOT
 70
0
  3
Dot . . . . . . . . . . . . . . . . . . . . . . . .
 72
65
 73
2
 40
6.3499999999999996
 49
0.1
 74
0
 49
-6.25
 74
0
  0
LTYPE
  5
5B
100
AcDbSymbolTableRecord
100
AcDbLinetypeTableRecord
  2
DASHDOT
 70
0
  3
Dash dot __ . __ . __ . __ . __ . __ . __ . __
 72
65
 73
4
 40
25.4000000000000021
 49
12.6999999999999993
 74
0
 49
-6.2999999999999998
 74
0
 49
0.1
 74
0
 49
-6.2999999999999998
 74
0
  0
LTYPE
  5
5C
100
AcDbSymbolTableRecord
100
AcDbLinetypeTableRecord
  2
FENCELINE1
 70
0
  3
Fenceline circle ----0-----0----0-----0----0-----0--
 72
65
 73
2
 40
8.8900000000000006
 49
6.3499999999999996
 74
0
 49
-2.54
 74
0
  0
LTYPE
  5
5D
100
AcDbSymbolTableRecord
100
AcDbLinetypeTableRecord
  2
ACAD_ISO03W100
 70
0
  3
ISO dash space __    __    __    __    __    __
 72
65
 73
2
 40
30.0
 49
12.0
 74
0
 49
-18.0
 74
0
  0
LTYPE
  5
15
100
AcDbSymbolTableRecord
100
AcDbLinetypeTableRecord
  2
ByLayer
 70
0
  3

 72
65
 73
0
 40
0.0
  0
LTYPE
  5
5E
100
AcDbSymbolTableRecord
100
AcDbLinetypeTableRecord
  2
BATTING
 70
0
  3
Batting SSSSSSSSSSSSSSSSSSSSSSSSSSSSSSSSSSSSSSSSSSSSSSS
 72
65
 73
2
 40
2.5425400000000002
 49
0.00254
 74
0
 49
-2.54
 74
0
  0
LTYPE
  5
5F
100
AcDbSymbolTableRecord
100
AcDbLinetypeTableRecord
  2
FENCELINE2
 70
0
  3
Fenceline square ----[]-----[]----[]-----[]----[]---
 72
65
 73
2
 40
8.8900000000000006
 49
6.3499999999999996
 74
0
 49
-2.54
 74
0
  0
ENDTAB
  0
TABLE
  2
LAYER
  5
2
100
AcDbSymbolTable
 70
1
  0
LAYER
  5
10
100
AcDbSymbolTableRecord
100
AcDbLayerTableRecord
  2
0
 70
0
 62
7
420
16777215
  6
Continuous
370
25
390
F
  0
ENDTAB
  0
TABLE
  2
STYLE
  5
3
100
AcDbSymbolTable
 70
1
  0
STYLE
  5
60
100
AcDbSymbolTableRecord
100
AcDbTextStyleTableRecord
  2
Standard
 70
0
 40
0.0
 41
1.0
 50
0.0
 71
0
 42
2.5
  3

  4

1001
ACAD
1000
txt
1071
0
  0
ENDTAB
  0
TABLE
  2
VIEW
  5
6
100
AcDbSymbolTable
 70
0
  0
ENDTAB
  0
TABLE
  2
UCS
  5
7
100
AcDbSymbolTable
 70
0
  0
ENDTAB
  0
TABLE
  2
APPID
  5
9
100
AcDbSymbolTable
 70
1
  0
APPID
  5
12
100
AcDbSymbolTableRecord
100
AcDbRegAppTableRecord
  2
ACAD
 70
0
  0
APPID
  5
61
100
AcDbSymbolTableRecord
100
AcDbRegAppTableRecord
  2
QCAD
 70
0
  0
ENDTAB
  0
TABLE
  2
DIMSTYLE
  5
A
100
AcDbSymbolTable
 70
1
100
AcDbDimStyleTable
 71
0
  0
DIMSTYLE
105
27
100
AcDbSymbolTableRecord
100
AcDbDimStyleTableRecord
  2
Standard
 41
2.5
 42
0.625
 43
3.75
 44
1.25
 70
0
 73
0
 74
0
 77
1
 78
8
140
2.5
141
2.5
143
0.03937007874016
147
0.625
171
3
172
1
271
2
272
2
274
3
278
44
283
0
284
8
340
60
  0
ENDTAB
  0
TABLE
  2
BLOCK_RECORD
  5
1
100
AcDbSymbolTable
 70
1
  0
BLOCK_RECORD
  5
1F
100
AcDbSymbolTableRecord
100
AcDbBlockTableRecord
  2
*Model_Space
340
22
  0
BLOCK_RECORD
  5
1B
100
AcDbSymbolTableRecord
100
AcDbBlockTableRecord
  2
*Paper_Space
340
1E
  0
BLOCK_RECORD
  5
23
100
AcDbSymbolTableRecord
100
AcDbBlockTableRecord
  2
*Paper_Space0
340
26
  0
ENDTAB
  0
ENDSEC
  0
SECTION
  2
BLOCKS
  0
BLOCK
  5
20
100
AcDbEntity
  8
0
100
AcDbBlockBegin
  2
*Model_Space
 70
0
 10
0.0
 20
0.0
 30
0.0
  3
*Model_Space
  1

  0
ENDBLK
  5
21
100
AcDbEntity
  8
0
100
AcDbBlockEnd
  0
BLOCK
  5
1C
100
AcDbEntity
 67
1
  8
0
100
AcDbBlockBegin
  2
*Paper_Space
 70
0
 10
0.0
 20
0.0
 30
0.0
  3
*Paper_Space
  1

  0
ENDBLK
  5
1D
100
AcDbEntity
 67
1
  8
0
100
AcDbBlockEnd
  0
BLOCK
  5
24
100
AcDbEntity
  8
0
100
AcDbBlockBegin
  2
*Paper_Space0
 70
0
 10
0.0
 20
0.0
 30
0.0
  3
*Paper_Space0
  1

  0
ENDBLK
  5
25
100
AcDbEntity
  8
0
100
AcDbBlockEnd
  0
ENDSEC
  0
SECTION
  2
ENTITIES
  0
CIRCLE
  5
62
100
AcDbEntity
100
AcDbCircle
  8
0
 62
1
420
16711680
370
5
 48
1.0
  6
ByLayer
 10
4.2000000000000002
 20
21.8000000000000007
 30
0.0
 40
1.6000000000000001
  0
CIRCLE
  5
63
100
AcDbEntity
100
AcDbCircle
  8
0
 62
1
420
16711680
370
5
 48
1.0
  6
ByLayer
 10
7.7999999999999998
 20
57.2000000000000028
 30
0.0
 40
1.6000000000000001
  0
CIRCLE
  5
64
100
AcDbEntity
100
AcDbCircle
  8
0
 62
1
420
16711680
370
5
 48
1.0
  6
ByLayer
 10
26.6000000000000014
 20
65.5999999999999943
 30
0.0
 40
1.6000000000000001
  0
CIRCLE
  5
65
100
AcDbEntity
100
AcDbCircle
  8
0
 62
1
420
16711680
370
5
 48
1.0
  6
ByLayer
 10
76.2000000000000028
 20
65.7999999999999972
 30
0.0
 40
1.6000000000000001
  0
CIRCLE
  5
66
100
AcDbEntity
100
AcDbCircle
  8
0
 62
1
420
16711680
370
5
 48
1.0
  6
ByLayer
 10
94.4000000000000057
 20
54.7999999999999972
 30
0.0
 40
1.6000000000000001
  0
CIRCLE
  5
67
100
AcDbEntity
100
AcDbCircle
  8
0
 62
1
420
16711680
370
5
 48
1.0
  6
ByLayer
 10
95.4000000000000057
 20
4.5999999999999996
 30
0.0
 40
1.6000000000000001
  0
LINE
  5
68
100
AcDbEntity
100
AcDbLine
  8
0
 62
1
420
16711680
370
5
 48
1.0
  6
ByLayer
 10
0.0
 20
55.9016994374947416
 30
0.0
 11
0.0
 21
1.0
 31
0.0
  0
LINE
  5
69
100
AcDbEntity
100
AcDbLine
  8
0
 62
1
420
16711680
370
5
 48
1.0
  6
ByLayer
 10
100.0
 20
0.9999999999999999
 30
0.0
 11
100.0
 21
55.9016994374947416
 31
0.0
  0
ARC
  5
6A
100
AcDbEntity
  8
0
 62
1
420
16711680
370
5
 48
1.0
  6
ByLayer
100
AcDbCircle
 10
50.0
 20
0.0
 30
0.0
 40
75.0
100
AcDbArc
 50
111.0394697813171945
 51
131.8103148957785891
  0
ARC
  5
6B
100
AcDbEntity
  8
0
 62
1
420
16711680
370
5
 48
1.0
  6
ByLayer
100
AcDbCircle
 10
50.0
 20
0.0
 30
0.0
 40
75.0
100
AcDbArc
 50
48.1896851042214109
 51
68.9605302186827771
  0
LINE
  5
6C
100
AcDbEntity
100
AcDbLine
  8
0
 62
1
420
16711680
370
5
 48
1.0
  6
ByLayer
 10
1.0
 20
0.0
 30
0.0
 11
33.0294372515228574
 21
0.0
 31
0.0
  0
LINE
  5
6D
100
AcDbEntity
100
AcDbLine
  8
0
 62
1
420
16711680
370
5
 48
1.0
  6
ByLayer
 10
66.9705627484771355
 20
0.0
 30
0.0
 11
99.0
 21
0.0
 31
0.0
  0
ARC
  5
6E
100
AcDbEntity
  8
0
 62
1
420
16711680
370
5
 48
1.0
  6
ByLayer
100
AcDbCircle
 10
50.0
 20
0.0
 30
0.0
 40
16.0
100
AcDbArc
 50
3.3722866834338312
 51
176.6277133165662008
  0
ARC
  5
6F
100
AcDbEntity
  8
0
 62
1
420
16711680
370
5
 48
1.0
  6
ByLayer
100
AcDbCircle
 10
1.0
 20
1.0
 30
0.0
 40
1.0
100
AcDbArc
 50
180.0
 51
270.0
  0
ARC
  5
70
100
AcDbEntity
  8
0
 62
1
420
16711680
370
5
 48
1.0
  6
ByLayer
100
AcDbCircle
 10
33.0294372515228503
 20
1.0
 30
0.0
 40
1.0
100
AcDbArc
 50
270.0000000000003979
 51
356.6277133165660871
  0
ARC
  5
71
100
AcDbEntity
  8
0
 62
1
420
16711680
370
5
 48
1.0
  6
ByLayer
100
AcDbCircle
 10
66.9705627484771355
 20
1.0
 30
0.0
 40
1.0
100
AcDbArc
 50
183.3722866834339129
 51
270.0
  0
ARC
  5
72
100
AcDbEntity
  8
0
 62
1
420
16711680
370
5
 48
1.0
  6
ByLayer
100
AcDbCircle
 10
99.0
 20
1.0
 30
0.0
 40
1.0
100
AcDbArc
 50
270.0
 51
0.0
  0
LINE
  5
73
100
AcDbEntity
100
AcDbLine
  8
0
 62
7
420
16777215
370
5
 48
1.0
  6
ByLayer
 10
35.6554951036672279
 20
37.9135903050466467
 30
0.0
 11
35.6554951036672279
 21
37.9135903050466467
 31
0.0
  0
ARC
  5
74
100
AcDbEntity
  8
0
 62
3
420
65280
370
5
 48
1.0
  6
ByLayer
100
AcDbCircle
 10
19.0315993732692306
 20
28.2842395560870408
 30
0.0
 40
0.8808707050794693
100
AcDbArc
 50
242.317276575924808
 51
263.204573877032999
  0
ARC
  5
75
100
AcDbEntity
  8
0
 62
3
420
65280
370
5
 48
1.0
  6
ByLayer
100
AcDbCircle
 10
19.0041261498325014
 20
28.2027240353543789
 30
0.0
 40
0.7968722293351099
100
AcDbArc
 50
264.4726431256091246
 51
283.8966039191785171
  0
ARC
  5
76
100
AcDbEntity
  8
0
 62
3
420
65280
370
5
 48
1.0
  6
ByLayer
100
AcDbCircle
 10
19.0165079626198406
 20
28.1739291866581887
 30
0.0
 40
0.7659634425984947
100
AcDbArc
 50
283.5148304693382215
 51
302.3109490889424933
  0
ARC
  5
77
100
AcDbEntity
  8
0
 62
3
420
65280
370
5
 48
1.0
  6
ByLayer
100
AcDbCircle
 10
18.7637302705423501
 20
28.6108948866802599
 30
0.0
 40
1.2705386976852371
100
AcDbArc
 50
301.4123042824845129
 51
312.233822067059009
  0
LINE
  5
78
100
AcDbEntity
100
AcDbLine
  8
0
 62
3
420
65280
370
5
 48
1.0
  6
ByLayer
 10
19.61773273333338
 20
27.6701779388889015
 30
0.0
 11
20.0303754888889394
 21
27.22682940555557
 31
0.0
  0
ARC
  5
79
100
AcDbEntity
  8
0
 62
3
420
65280
370
5
 48
1.0
  6
ByLayer
100
AcDbCircle
 10
18.8747535174191903
 20
28.5462637196792315
 30
0.0
 40
1.753958109599751
100
AcDbArc
 50
298.975103192397512
 51
311.2133842855504895
  0
ARC
  5
7A
100
AcDbEntity
  8
0
 62
3
420
65280
370
5
 48
1.0
  6
ByLayer
100
AcDbCircle
 10
19.1414044626699393
 20
28.0633882050946006
 30
0.0
 40
1.2023505655823841
100
AcDbArc
 50
280.046290841968414
 51
299.0058314860165183
  0
ARC
  5
7B
100
AcDbEntity
  8
0
 62
3
420
65280
370
5
 48
1.0
  6
ByLayer
100
AcDbCircle
 10
19.1159782262080604
 20
28.2613099059073107
 30
0.0
 40
1.401705133023375
100
AcDbArc
 50
261.4847910722460256
 51
279.6583837893330156
  0
ARC
  5
7C
100
AcDbEntity
  8
0
 62
3
420
65280
370
5
 48
1.0
  6
ByLayer
100
AcDbCircle
 10
19.1863912988921008
 20
28.5665762032679496
 30
0.0
 40
1.7142067250999109
100
AcDbArc
 50
242.509710619421611
 51
260.6680290460788569
  0
ARC
  5
7D
100
AcDbEntity
  8
0
 62
3
420
65280
370
5
 48
1.0
  6
ByLayer
100
AcDbCircle
 10
19.1857835298732091
 20
28.7349298433313187
 30
0.0
 40
1.864913264261026
100
AcDbArc
 50
222.9982195635953701
 51
244.9145209376913215
  0
ARC
  5
7E
100
AcDbEntity
  8
0
 62
3
420
65280
370
5
 48
1.0
  6
ByLayer
100
AcDbCircle
 10
18.8100434327588886
 20
28.355831380472619
 30
0.0
 40
1.3317363360993071
100
AcDbArc
 50
196.3558534808151421
 51
222.0939381133439099
  0
ARC
  5
7F
100
AcDbEntity
  8
0
 62
3
420
65280
370
5
 48
1.0
  6
ByLayer
100
AcDbCircle
 10
18.89243788440481
 20
28.3429786428895696
 30
0.0
 40
1.4076256337694459
100
AcDbArc
 50
170.8661618237651112
 51
194.9092859844350016
  0
ARC
  5
80
100
AcDbEntity
  8
0
 62
3
420
65280
370
5
 48
1.0
  6
ByLayer
100
AcDbCircle
 10
19.6240355659660501
 20
28.2117205289382902
 30
0.0
 40
2.150825005084783
100
AcDbArc
 50
153.0549038245893883
 51
170.5076227764529051
  0
ARC
  5
81
100
AcDbEntity
  8
0
 62
3
420
65280
370
5
 48
1.0
  6
ByLayer
100
AcDbCircle
 10
19.6692030948063383
 20
28.24474093934775
 30
0.0
 40
2.176698555410177
100
AcDbArc
 50
136.8342561184124975
 51
154.3685771368213011
  0
ARC
  5
82
100
AcDbEntity
  8
0
 62
3
420
65280
370
5
 48
1.0
  6
ByLayer
100
AcDbCircle
 10
19.0387822898011017
 20
28.8239676791616688
 30
0.0
 40
1.320657499675328
100
AcDbArc
 50
111.3601151695066989
 51
136.4523506144817873
  0
ARC
  5
83
100
AcDbEntity
  8
0
 62
3
420
65280
370
5
 48
1.0
  6
ByLayer
100
AcDbCircle
 10
18.9924997145669607
 20
28.9020041186044701
 30
0.0
 40
1.231211502399471
100
AcDbArc
 50
83.7068045291065204
 51
110.6769348396637014
  0
ARC
  5
84
100
AcDbEntity
  8
0
 62
3
420
65280
370
5
 48
1.0
  6
ByLayer
100
AcDbCircle
 10
18.9136156218979714
 20
28.2454804253861802
 30
0.0
 40
1.8924369190006149
100
AcDbArc
 50
62.4206945075247717
 51
83.5117328517066255
  0
ARC
  5
85
100
AcDbEntity
  8
0
 62
3
420
65280
370
5
 48
1.0
  6
ByLayer
100
AcDbCircle
 10
18.9430964316946095
 20
28.1426654963162797
 30
0.0
 40
1.9712995340907791
100
AcDbArc
 50
48.9603276950503385
 51
64.5642067431450499
  0
ARC
  5
86
100
AcDbEntity
  8
0
 62
3
420
65280
370
5
 48
1.0
  6
ByLayer
100
AcDbCircle
 10
19.4031888468218803
 20
28.6743711087906803
 30
0.0
 40
1.2681714110776099
100
AcDbArc
 50
29.15615519413182
 51
48.8663097382802434
  0
ARC
  5
87
100
AcDbEntity
  8
0
 62
3
420
65280
370
5
 48
1.0
  6
ByLayer
100
AcDbCircle
 10
19.6083330437300312
 20
28.7789710026948207
 30
0.0
 40
1.038095403589794
100
AcDbArc
 50
8.0771863688884853
 51
29.6307078867107414
  0
ARC
  5
88
100
AcDbEntity
  8
0
 62
3
420
65280
370
5
 48
1.0
  6
ByLayer
100
AcDbCircle
 10
19.3590378776986611
 20
28.7306330593517707
 30
0.0
 40
1.291773025549519
100
AcDbArc
 50
351.4373750790359168
 51
8.6462931138730852
  0
LINE
  5
89
100
AcDbEntity
100
AcDbLine
  8
0
 62
3
420
65280
370
5
 48
1.0
  6
ByLayer
 10
20.6364124333333905
 20
28.5383005500000202
 30
0.0
 11
20.0532792333333916
 21
28.6527317833333512
 31
0.0
  0
ARC
  5
8A
100
AcDbEntity
  8
0
 62
3
420
65280
370
5
 48
1.0
  6
ByLayer
100
AcDbCircle
 10
19.3870238733370712
 20
28.756514719000549
 30
0.0
 40
0.674290072935919
100
AcDbArc
 50
351.1461609556883445
 51
9.2352120130243733
  0
ARC
  5
8B
100
AcDbEntity
  8
0
 62
3
420
65280
370
5
 48
1.0
  6
ByLayer
100
AcDbCircle
 10
19.3982611063703594
 20
28.7659739420428799
 30
0.0
 40
0.6617232897180052
100
AcDbArc
 50
8.5829329013346332
 51
28.6645857873409149
  0
ARC
  5
8C
100
AcDbEntity
  8
0
 62
3
420
65280
370
5
 48
1.0
  6
ByLayer
100
AcDbCircle
 10
19.279011113168
 20
28.707297142627251
 30
0.0
 40
0.7945250649020622
100
AcDbArc
 50
28.2523505484143591
 51
46.749836719208993
  0
ARC
  5
8D
100
AcDbEntity
  8
0
 62
3
420
65280
370
5
 48
1.0
  6
ByLayer
100
AcDbCircle
 10
19.166620014418509
 20
28.6048837117151606
 30
0.0
 40
0.9462007536641724
100
AcDbArc
 50
46.0419456784628665
 51
64.4742466159113832
  0
ARC
  5
8E
100
AcDbEntity
  8
0
 62
3
420
65280
370
5
 48
1.0
  6
ByLayer
100
AcDbCircle
 10
19.119223598007661
 20
28.5968556931214692
 30
0.0
 40
0.9746621563998747
100
AcDbArc
 50
62.1627280144778922
 51
86.624600756327041
  0
ARC
  5
8F
100
AcDbEntity
  8
0
 62
3
420
65280
370
5
 48
1.0
  6
ByLayer
100
AcDbCircle
 10
19.1388887479296095
 20
28.8548138226959203
 30
0.0
 40
0.7160074779480035
100
AcDbArc
 50
86.9801402870122331
 51
115.5790245236273108
  0
ARC
  5
90
100
AcDbEntity
  8
0
 62
3
420
65280
370
5
 48
1.0
  6
ByLayer
100
AcDbCircle
 10
19.2635574654582591
 20
28.6471920583978417
 30
0.0
 40
0.9573785050454539
100
AcDbArc
 50
116.9441431517878982
 51
139.5793516124014104
  0
ARC
  5
91
100
AcDbEntity
  8
0
 62
3
420
65280
370
5
 48
1.0
  6
ByLayer
100
AcDbCircle
 10
19.883256751727199
 20
28.1298736231408704
 30
0.0
 40
1.7646028132213141
100
AcDbArc
 50
139.8382168499047964
 51
154.2889579333320285
  0
ARC
  5
92
100
AcDbEntity
  8
0
 62
3
420
65280
370
5
 48
1.0
  6
ByLayer
100
AcDbCircle
 10
19.9298943505544308
 20
28.0653006185241196
 30
0.0
 40
1.8350292644565001
100
AcDbArc
 50
153.1040426264164864
 51
167.1352481009899122
  0
ARC
  5
93
100
AcDbEntity
  8
0
 62
3
420
65280
370
5
 48
1.0
  6
ByLayer
100
AcDbCircle
 10
19.0982257313033408
 20
28.2634230408536098
 30
0.0
 40
0.9801573283534448
100
AcDbArc
 50
167.6016050828027915
 51
190.1165265804837077
  0
ARC
  5
94
100
AcDbEntity
  8
0
 62
3
420
65280
370
5
 48
1.0
  6
ByLayer
100
AcDbCircle
 10
18.8719968396949191
 20
28.2330642489590993
 30
0.0
 40
0.7521776783734196
100
AcDbArc
 50
190.8668899200681892
 51
218.7344274340680954
  0
ARC
  5
95
100
AcDbEntity
  8
0
 62
3
420
65280
370
5
 48
1.0
  6
ByLayer
100
AcDbCircle
 10
19.0328451589974215
 20
28.3892201483861015
 30
0.0
 40
0.9755863062323707
100
AcDbArc
 50
219.977565046424786
 51
245.1169689008931982
  0
ARC
  5
96
100
AcDbEntity
  8
0
 62
3
420
65280
370
5
 48
1.0
  6
ByLayer
100
AcDbCircle
 10
22.2897984728766794
 20
27.9004224639003802
 30
0.0
 40
1.9629388282647271
100
AcDbArc
 50
247.5358101949894944
 51
263.2871015150349194
  0
ARC
  5
97
100
AcDbEntity
  8
0
 62
3
420
65280
370
5
 48
1.0
  6
ByLayer
100
AcDbCircle
 10
21.9886182572076301
 20
27.1530998148639888
 30
0.0
 40
1.157263959798905
100
AcDbArc
 50
223.6762588328280117
 51
247.1778431347357525
  0
ARC
  5
98
100
AcDbEntity
  8
0
 62
3
420
65280
370
5
 48
1.0
  6
ByLayer
100
AcDbCircle
 10
21.903991548764651
 20
27.0304935457551814
 30
0.0
 40
1.0118394201194281
100
AcDbArc
 50
195.353502917403091
 51
221.964012528198964
  0
ARC
  5
99
100
AcDbEntity
  8
0
 62
3
420
65280
370
5
 48
1.0
  6
ByLayer
100
AcDbCircle
 10
22.2839533896415212
 20
27.1062202376989916
 30
0.0
 40
1.3985630452129321
100
AcDbArc
 50
171.3202166649533353
 51
194.2235501241841007
  0
LINE
  5
9A
100
AcDbEntity
100
AcDbLine
  8
0
 62
3
420
65280
370
5
 48
1.0
  6
ByLayer
 10
20.9014078111111594
 20
27.3172802166666813
 30
0.0
 11
21.1478499000000504
 21
29.2440663611111304
 31
0.0
  0
LINE
  5
9B
100
AcDbEntity
100
AcDbLine
  8
0
 62
3
420
65280
370
5
 48
1.0
  6
ByLayer
 10
21.1478499000000504
 20
29.2440663611111304
 30
0.0
 11
21.7930282444444998
 21
29.1615459944444702
 31
0.0
  0
LINE
  5
9C
100
AcDbEntity
100
AcDbLine
  8
0
 62
3
420
65280
370
5
 48
1.0
  6
ByLayer
 10
21.7930282444444998
 20
29.1615459944444702
 30
0.0
 11
21.553019411111169
 21
27.2850617277777907
 31
0.0
  0
ARC
  5
9D
100
AcDbEntity
  8
0
 62
3
420
65280
370
5
 48
1.0
  6
ByLayer
100
AcDbCircle
 10
22.6035243075537693
 20
27.1289757722668412
 30
0.0
 40
1.0620373642003771
100
AcDbArc
 50
171.5487171890260925
 51
190.1343764633188016
  0
ARC
  5
9E
100
AcDbEntity
  8
0
 62
3
420
65280
370
5
 48
1.0
  6
ByLayer
100
AcDbCircle
 10
22.1621213968449702
 20
27.0557929246701008
 30
0.0
 40
0.6146700115302938
100
AcDbArc
 50
190.6589044874532988
 51
216.2129428084411131
  0
ARC
  5
9F
100
AcDbEntity
  8
0
 62
3
420
65280
370
5
 48
1.0
  6
ByLayer
100
AcDbCircle
 10
22.1107400537753414
 20
27.0390089282354609
 30
0.0
 40
0.563549257549123
100
AcDbArc
 50
217.9226370788248062
 51
244.219954654402386
  0
ARC
  5
A0
100
AcDbEntity
  8
0
 62
3
420
65280
370
5
 48
1.0
  6
ByLayer
100
AcDbCircle
 10
22.2467657116807089
 20
27.3581070153103383
 30
0.0
 40
0.9101934096006655
100
AcDbArc
 50
245.2457185016071151
 51
263.4194400024834408
  0
ARC
  5
A1
100
AcDbEntity
  8
0
 62
3
420
65280
370
5
 48
1.0
  6
ByLayer
100
AcDbCircle
 10
22.2686595089400008
 20
27.3614641680205999
 30
0.0
 40
0.9162865887534521
100
AcDbArc
 50
262.0833676077688779
 51
280.5701140928608766
  0
ARC
  5
A2
100
AcDbEntity
  8
0
 62
3
420
65280
370
5
 48
1.0
  6
ByLayer
100
AcDbCircle
 10
22.3223481914615398
 20
27.0407663597283197
 30
0.0
 40
0.5912130341531426
100
AcDbArc
 50
281.1565126706656201
 51
307.4806416306952315
  0
ARC
  5
A3
100
AcDbEntity
  8
0
 62
3
420
65280
370
5
 48
1.0
  6
ByLayer
100
AcDbCircle
 10
22.294941873582669
 20
27.0707737851918893
 30
0.0
 40
0.6317118942981617
100
AcDbArc
 50
307.7971119578256776
 51
333.7090236715548031
  0
ARC
  5
A4
100
AcDbEntity
  8
0
 62
3
420
65280
370
5
 48
1.0
  6
ByLayer
100
AcDbCircle
 10
21.9488689723258688
 20
27.2343944960564386
 30
0.0
 40
1.0144796304069801
100
AcDbArc
 50
334.0812674584387878
 51
353.9585509404495838
  0
LINE
  5
A5
100
AcDbEntity
100
AcDbLine
  8
0
 62
3
420
65280
370
5
 48
1.0
  6
ByLayer
 10
22.9577142000000691
 20
27.1276226500000206
 30
0.0
 11
23.1949248000000701
 21
28.9822361055555788
 31
0.0
  0
LINE
  5
A6
100
AcDbEntity
100
AcDbLine
  8
0
 62
3
420
65280
370
5
 48
1.0
  6
ByLayer
 10
23.1949248000000701
 20
28.9822361055555788
 30
0.0
 11
23.8401031444445088
 21
28.8997157388889114
 31
0.0
  0
LINE
  5
A7
100
AcDbEntity
100
AcDbLine
  8
0
 62
3
420
65280
370
5
 48
1.0
  6
ByLayer
 10
23.8401031444445088
 20
28.8997157388889114
 30
0.0
 11
23.5978562888889591
 21
27.0057351055555799
 31
0.0
  0
ARC
  5
A8
100
AcDbEntity
  8
0
 62
3
420
65280
370
5
 48
1.0
  6
ByLayer
100
AcDbCircle
 10
22.2478674520030388
 20
27.1458000969850204
 30
0.0
 40
1.357235448085502
100
AcDbArc
 50
330.1340789549856822
 51
354.0766016939587075
  0
ARC
  5
A9
100
AcDbEntity
  8
0
 62
3
420
65280
370
5
 48
1.0
  6
ByLayer
100
AcDbCircle
 10
22.5207163284108383
 20
27.00555750032715
 30
0.0
 40
1.050882566806363
100
AcDbArc
 50
302.7435109267653957
 51
329.356920967473684
  0
ARC
  5
AA
100
AcDbEntity
  8
0
 62
3
420
65280
370
5
 48
1.0
  6
ByLayer
100
AcDbCircle
 10
22.444487733443399
 20
27.1701183424005812
 30
0.0
 40
1.23077693340008
100
AcDbArc
 50
278.3347029660491785
 51
301.5846627919589196
  0
ARC
  5
AB
100
AcDbEntity
  8
0
 62
3
420
65280
370
5
 48
1.0
  6
ByLayer
100
AcDbCircle
 10
22.3366070403023613
 20
27.9499216387235698
 30
0.0
 40
2.0179918039028228
100
AcDbArc
 50
262.1314843631258782
 51
278.1559575827059803
  0
ARC
  5
AC
100
AcDbEntity
  8
0
 62
3
420
65280
370
5
 48
1.0
  6
ByLayer
100
AcDbCircle
 10
26.1548917835934311
 20
27.0590420289717208
 30
0.0
 40
0.9423040257728615
100
AcDbArc
 50
347.7203464837998013
 51
11.8235087835418309
  0
ARC
  5
AD
100
AcDbEntity
  8
0
 62
3
420
65280
370
5
 48
1.0
  6
ByLayer
100
AcDbCircle
 10
26.3393689125001593
 20
27.0350790188997401
 30
0.0
 40
0.757116292058699
100
AcDbArc
 50
317.388469628378175
 51
346.5230249902729156
  0
ARC
  5
AE
100
AcDbEntity
  8
0
 62
3
420
65280
370
5
 48
1.0
  6
ByLayer
100
AcDbCircle
 10
26.0330587905141613
 20
27.3254181357174915
 30
0.0
 40
1.179131952376834
100
AcDbArc
 50
294.7472546874133741
 51
317.0823955630129944
  0
ARC
  5
AF
100
AcDbEntity
  8
0
 62
3
420
65280
370
5
 48
1.0
  6
ByLayer
100
AcDbCircle
 10
25.5338242504725095
 20
28.4172495269629906
 30
0.0
 40
2.3796835890023749
100
AcDbArc
 50
280.0925292108211124
 51
294.6588465842294227
  0
ARC
  5
B0
100
AcDbEntity
  8
0
 62
3
420
65280
370
5
 48
1.0
  6
ByLayer
100
AcDbCircle
 10
25.4571682295313195
 20
28.4319488696574183
 30
0.0
 40
2.408691793037558
100
AcDbArc
 50
268.7779072895156105
 51
281.8267295079803034
  0
ARC
  5
B1
100
AcDbEntity
  8
0
 62
3
420
65280
370
5
 48
1.0
  6
ByLayer
100
AcDbCircle
 10
25.4321702702853507
 20
27.3256469200699783
 30
0.0
 40
1.3021090845629211
100
AcDbArc
 50
249.5066872281990982
 51
268.839385047432188
  0
ARC
  5
B2
100
AcDbEntity
  8
0
 62
3
420
65280
370
5
 48
1.0
  6
ByLayer
100
AcDbCircle
 10
25.3143338483128311
 20
26.9708418584900187
 30
0.0
 40
0.9286073550359637
100
AcDbArc
 50
224.9136287561354379
 51
248.6528622751577018
  0
ARC
  5
B3
100
AcDbEntity
  8
0
 62
3
420
65280
370
5
 48
1.0
  6
ByLayer
100
AcDbCircle
 10
25.4765662132949799
 20
27.0901208312901787
 30
0.0
 40
1.1281123890937219
100
AcDbArc
 50
203.0880877757263079
 51
223.3860921074908958
  0
LINE
  5
B4
100
AcDbEntity
100
AcDbLine
  8
0
 62
3
420
65280
370
5
 48
1.0
  6
ByLayer
 10
24.4388121888889387
 20
26.6477362166666794
 30
0.0
 11
25.0355626111111604
 21
26.870213405555571
 31
0.0
  0
ARC
  5
B5
100
AcDbEntity
  8
0
 62
3
420
65280
370
5
 48
1.0
  6
ByLayer
100
AcDbCircle
 10
25.6904273804606511
 20
27.176818945358459
 30
0.0
 40
0.7230870094072536
100
AcDbArc
 50
205.0888396271157887
 51
221.3650594235151061
  0
ARC
  5
B6
100
AcDbEntity
  8
0
 62
3
420
65280
370
5
 48
1.0
  6
ByLayer
100
AcDbCircle
 10
25.5167262014713003
 20
27.0314663414023109
 30
0.0
 40
0.4966976410313074
100
AcDbArc
 50
222.0228163908660122
 51
245.7691090165712922
  0
ARC
  5
B7
100
AcDbEntity
  8
0
 62
3
420
65280
370
5
 48
1.0
  6
ByLayer
100
AcDbCircle
 10
25.5851134281620212
 20
27.247777727898491
 30
0.0
 40
0.7225019373141269
100
AcDbArc
 50
247.8643469000043922
 51
267.2190544022158747
  0
ARC
  5
B8
100
AcDbEntity
  8
0
 62
3
420
65280
370
5
 48
1.0
  6
ByLayer
100
AcDbCircle
 10
25.5872189786043407
 20
27.9006402833570206
 30
0.0
 40
1.3750158306362199
100
AcDbArc
 50
268.4514009722299193
 51
282.0590961124285059
  0
ARC
  5
B9
100
AcDbEntity
  8
0
 62
3
420
65280
370
5
 48
1.0
  6
ByLayer
100
AcDbCircle
 10
25.7332241890167488
 20
27.5830962296957516
 30
0.0
 40
1.036797481694955
100
AcDbArc
 50
277.8309117958780234
 51
306.567453520126719
  0
ARC
  5
BA
100
AcDbEntity
  8
0
 62
3
420
65280
370
5
 48
1.0
  6
ByLayer
100
AcDbCircle
 10
26.1350822788335009
 20
27.0111996333694293
 30
0.0
 40
0.3385377130631834
100
AcDbArc
 50
309.6090906037359787
 51
14.1057029818882604
  0
ARC
  5
BB
100
AcDbEntity
  8
0
 62
3
420
65280
370
5
 48
1.0
  6
ByLayer
100
AcDbCircle
 10
26.1582329481764013
 20
27.0468761023139415
 30
0.0
 40
0.3087513776051751
100
AcDbArc
 50
8.7238605238469074
 51
50.6708942975283065
  0
ARC
  5
BC
100
AcDbEntity
  8
0
 62
3
420
65280
370
5
 48
1.0
  6
ByLayer
100
AcDbCircle
 10
26.031944185679361
 20
26.8591651685243598
 30
0.0
 40
0.5344115838959301
100
AcDbArc
 50
52.9529452181610694
 51
77.880854194467787
  0
ARC
  5
BD
100
AcDbEntity
  8
0
 62
3
420
65280
370
5
 48
1.0
  6
ByLayer
100
AcDbCircle
 10
25.8267738793204593
 20
25.9729529778532111
 30
0.0
 40
1.4440206436065339
100
AcDbArc
 50
77.3038622432722207
 51
88.5540111532451419
  0
ARC
  5
BE
100
AcDbEntity
  8
0
 62
3
420
65280
370
5
 48
1.0
  6
ByLayer
100
AcDbCircle
 10
25.5016283239061288
 20
16.7330909967586514
 30
0.0
 40
10.6895400284178397
100
AcDbArc
 50
88.0615408218588982
 51
89.8023930915429247
  0
ARC
  5
BF
100
AcDbEntity
  8
0
 62
3
420
65280
370
5
 48
1.0
  6
ByLayer
100
AcDbCircle
 10
26.1595743177431608
 20
44.7349367251314618
 30
0.0
 40
17.323506257423599
100
AcDbArc
 50
267.045120289326178
 51
267.9454024513814829
  0
ARC
  5
C0
100
AcDbEntity
  8
0
 62
3
420
65280
370
5
 48
1.0
  6
ByLayer
100
AcDbCircle
 10
25.3775475559270589
 20
29.6501601870490283
 30
0.0
 40
2.218475301925213
100
AcDbArc
 50
260.2661932904462105
 51
267.1322592783541268
  0
ARC
  5
C1
100
AcDbEntity
  8
0
 62
3
420
65280
370
5
 48
1.0
  6
ByLayer
100
AcDbCircle
 10
25.2402915865691106
 20
28.8077769067753096
 30
0.0
 40
1.365031759703647
100
AcDbArc
 50
249.5220010179297958
 51
259.9663917933689277
  0
ARC
  5
C2
100
AcDbEntity
  8
0
 62
3
420
65280
370
5
 48
1.0
  6
ByLayer
100
AcDbCircle
 10
25.0211158899921706
 20
28.2206143067887787
 30
0.0
 40
0.7382958591334745
100
AcDbArc
 50
230.8731193046388057
 51
249.514842960256999
  0
ARC
  5
C3
100
AcDbEntity
  8
0
 62
3
420
65280
370
5
 48
1.0
  6
ByLayer
100
AcDbCircle
 10
25.0507467308192489
 20
28.2178999798798813
 30
0.0
 40
0.7552924110262657
100
AcDbArc
 50
209.9021751183121012
 51
228.9991431066881091
  0
ARC
  5
C4
100
AcDbEntity
  8
0
 62
3
420
65280
370
5
 48
1.0
  6
ByLayer
100
AcDbCircle
 10
25.2201732219962906
 20
28.2855502784537087
 30
0.0
 40
0.9362455990621966
100
AcDbArc
 50
189.982054575737294
 51
208.3219770739794967
  0
ARC
  5
C5
100
AcDbEntity
  8
0
 62
3
420
65280
370
5
 48
1.0
  6
ByLayer
100
AcDbCircle
 10
25.0788152569967693
 20
28.2991848069937788
 30
0.0
 40
0.8002903117232539
100
AcDbArc
 50
163.196929898788909
 51
192.6987004121353095
  0
ARC
  5
C6
100
AcDbEntity
  8
0
 62
3
420
65280
370
5
 48
1.0
  6
ByLayer
100
AcDbCircle
 10
25.0228847559353511
 20
28.2985316171681589
 30
0.0
 40
0.7471254148115178
100
AcDbArc
 50
133.1427394731979916
 51
161.9089285453387106
  0
ARC
  5
C7
100
AcDbEntity
  8
0
 62
3
420
65280
370
5
 48
1.0
  6
ByLayer
100
AcDbCircle
 10
25.3135063453194
 20
27.979848088198839
 30
0.0
 40
1.1784005727471829
100
AcDbArc
 50
112.2415090156772948
 51
132.8573839519607986
  0
ARC
  5
C8
100
AcDbEntity
  8
0
 62
3
420
65280
370
5
 48
1.0
  6
ByLayer
100
AcDbCircle
 10
25.7840916681631214
 20
26.8777538567735093
 30
0.0
 40
2.376688545918364
100
AcDbArc
 50
100.6468080460086014
 51
112.6854967934288823
  0
ARC
  5
C9
100
AcDbEntity
  8
0
 62
3
420
65280
370
5
 48
1.0
  6
ByLayer
100
AcDbCircle
 10
25.8452460952527794
 20
26.8561352634003399
 30
0.0
 40
2.4098867553239049
100
AcDbArc
 50
89.5313555052315451
 51
101.9809014411262069
  0
ARC
  5
CA
100
AcDbEntity
  8
0
 62
3
420
65280
370
5
 48
1.0
  6
ByLayer
100
AcDbCircle
 10
25.8723969566720093
 20
28.2254063541788796
 30
0.0
 40
1.040561647364497
100
AcDbArc
 50
68.7508468643654425
 51
90.4096497639852146
  0
ARC
  5
CB
100
AcDbEntity
  8
0
 62
3
420
65280
370
5
 48
1.0
  6
ByLayer
100
AcDbCircle
 10
25.9871015266862493
 20
28.53744580762962
 30
0.0
 40
0.70819203488993
100
AcDbArc
 50
40.7309014114896826
 51
68.2504884821746174
  0
ARC
  5
CC
100
AcDbEntity
  8
0
 62
3
420
65280
370
5
 48
1.0
  6
ByLayer
100
AcDbCircle
 10
25.696841909284629
 20
28.284309496028559
 30
0.0
 40
1.0933216573996909
100
AcDbArc
 50
21.6864518491936309
 51
40.8580253871690999
  0
LINE
  5
CD
100
AcDbEntity
100
AcDbLine
  8
0
 62
3
420
65280
370
5
 48
1.0
  6
ByLayer
 10
26.7127782333333883
 20
28.6883214166666782
 30
0.0
 11
26.1104750888889505
 21
28.4827295833333487
 31
0.0
  0
ARC
  5
CE
100
AcDbEntity
  8
0
 62
3
420
65280
370
5
 48
1.0
  6
ByLayer
100
AcDbCircle
 10
25.661762128716969
 20
28.2964162083499886
 30
0.0
 40
0.4858559398886378
100
AcDbArc
 50
22.5490694097185305
 51
66.2192869983504124
  0
ARC
  5
CF
100
AcDbEntity
  8
0
 62
3
420
65280
370
5
 48
1.0
  6
ByLayer
100
AcDbCircle
 10
25.6100743531827817
 20
28.0340533894712607
 30
0.0
 40
0.7490728449617117
100
AcDbArc
 50
70.6980836405373765
 51
104.6535497345542041
  0
ARC
  5
D0
100
AcDbEntity
  8
0
 62
3
420
65280
370
5
 48
1.0
  6
ByLayer
100
AcDbCircle
 10
25.6128991930752186
 20
27.6518894887376696
 30
0.0
 40
1.1234555256780669
100
AcDbArc
 50
99.8568190990565085
 51
114.600109258233033
  0
ARC
  5
D1
100
AcDbEntity
  8
0
 62
3
420
65280
370
5
 48
1.0
  6
ByLayer
100
AcDbCircle
 10
25.3529177326874411
 20
28.2013129437457408
 30
0.0
 40
0.5157316001237883
100
AcDbArc
 50
113.748088232373405
 51
135.8208031486128959
  0
ARC
  5
D2
100
AcDbEntity
  8
0
 62
3
420
65280
370
5
 48
1.0
  6
ByLayer
100
AcDbCircle
 10
25.1982615193606705
 20
28.3631911448699903
 30
0.0
 40
0.2921223836817394
100
AcDbArc
 50
137.4514088936128928
 51
167.6513831051026386
  0
ARC
  5
D3
100
AcDbEntity
  8
0
 62
3
420
65280
370
5
 48
1.0
  6
ByLayer
100
AcDbCircle
 10
25.2557461548533801
 20
28.3513140127206213
 30
0.0
 40
0.3508177980718969
100
AcDbArc
 50
167.7642832727734969
 51
191.4496246737668912
  0
ARC
  5
D4
100
AcDbEntity
  8
0
 62
3
420
65280
370
5
 48
1.0
  6
ByLayer
100
AcDbCircle
 10
25.2198419545728889
 20
28.329448909639801
 30
0.0
 40
0.3116161568655132
100
AcDbArc
 50
188.8188999488644129
 51
225.7632733341824007
  0
ARC
  5
D5
100
AcDbEntity
  8
0
 62
3
420
65280
370
5
 48
1.0
  6
ByLayer
100
AcDbCircle
 10
25.2888793012775714
 20
28.4411159427089117
 30
0.0
 40
0.4407022149883157
100
AcDbArc
 50
229.4631928983395142
 51
255.380411264168572
  0
ARC
  5
D6
100
AcDbEntity
  8
0
 62
3
420
65280
370
5
 48
1.0
  6
ByLayer
100
AcDbCircle
 10
25.484816883296709
 20
29.2274894420318887
 30
0.0
 40
1.2511014961938809
100
AcDbArc
 50
255.7874117915603165
 51
267.2719708028869832
  0
ARC
  5
D7
100
AcDbEntity
  8
0
 62
3
420
65280
370
5
 48
1.0
  6
ByLayer
100
AcDbCircle
 10
25.9478747513894383
 20
41.2768857783114669
 30
0.0
 40
13.3093442078876798
100
AcDbArc
 50
267.7496477051259944
 51
269.0921878644393246
  0
ARC
  5
D8
100
AcDbEntity
  8
0
 62
3
420
65280
370
5
 48
1.0
  6
ByLayer
100
AcDbCircle
 10
25.5938511574588787
 20
18.7866110132792699
 30
0.0
 40
9.1837169378781969
100
AcDbArc
 50
87.2581105775004744
 51
89.1068418839442558
  0
ARC
  5
D9
100
AcDbEntity
  8
0
 62
3
420
65280
370
5
 48
1.0
  6
ByLayer
100
AcDbCircle
 10
25.954997666490609
 20
25.4862888779499102
 30
0.0
 40
2.474760222680525
100
AcDbArc
 50
81.5950052573022333
 51
88.1898445155842694
  0
ARC
  5
DA
100
AcDbEntity
  8
0
 62
3
420
65280
370
5
 48
1.0
  6
ByLayer
100
AcDbCircle
 10
26.1120428624988001
 20
26.5399553028863586
 30
0.0
 40
1.4094560627543591
100
AcDbArc
 50
70.765917314022829
 51
81.6496734180479109
  0
ARC
  5
DB
100
AcDbEntity
  8
0
 62
3
420
65280
370
5
 48
1.0
  6
ByLayer
100
AcDbCircle
 10
26.3318595577390688
 20
27.1676371525415092
 30
0.0
 40
0.7443975991889726
100
AcDbArc
 50
51.2170484747091379
 51
70.8252186603852323
  0
ARC
  5
DC
100
AcDbEntity
  8
0
 62
3
420
65280
370
5
 48
1.0
  6
ByLayer
100
AcDbCircle
 10
26.3827270956341486
 20
27.2151610934409405
 30
0.0
 40
0.6755618541639965
100
AcDbArc
 50
29.7171839117299044
 51
52.0554305846223215
  0
ARC
  5
DD
100
AcDbEntity
  8
0
 62
3
420
65280
370
5
 48
1.0
  6
ByLayer
100
AcDbCircle
 10
26.180688366862789
 20
27.0962416474806602
 30
0.0
 40
0.9099850451951228
100
AcDbArc
 50
9.8633270376931801
 51
29.9139471217902084
  0
LINE
  5
DE
100
AcDbEntity
100
AcDbLine
  8
0
 62
3
420
65280
370
5
 48
1.0
  6
ByLayer
 10
27.72522928888894
 20
29.4195027500000101
 30
0.0
 11
28.1802632333333811
 21
28.5726977944444585
 31
0.0
  0
LINE
  5
DF
100
AcDbEntity
100
AcDbLine
  8
0
 62
3
420
65280
370
5
 48
1.0
  6
ByLayer
 10
28.1802632333333811
 20
28.5726977944444585
 30
0.0
 11
29.5805991000000503
 21
29.3251742055555695
 31
0.0
  0
LINE
  5
E0
100
AcDbEntity
100
AcDbLine
  8
0
 62
3
420
65280
370
5
 48
1.0
  6
ByLayer
 10
29.5805991000000503
 20
29.3251742055555695
 30
0.0
 11
29.81855194444449
 21
28.882349194444469
 31
0.0
  0
LINE
  5
E1
100
AcDbEntity
100
AcDbLine
  8
0
 62
3
420
65280
370
5
 48
1.0
  6
ByLayer
 10
29.81855194444449
 20
28.882349194444469
 30
0.0
 11
28.4182160777778314
 21
28.1298727833333508
 31
0.0
  0
LINE
  5
E2
100
AcDbEntity
100
AcDbLine
  8
0
 62
3
420
65280
370
5
 48
1.0
  6
ByLayer
 10
28.4182160777778314
 20
28.1298727833333508
 30
0.0
 11
28.9577868666667193
 21
27.1257486944444608
 31
0.0
  0
LINE
  5
E3
100
AcDbEntity
100
AcDbLine
  8
0
 62
3
420
65280
370
5
 48
1.0
  6
ByLayer
 10
28.9577868666667193
 20
27.1257486944444608
 30
0.0
 11
28.3848334222222789
 21
26.81786965000002
 31
0.0
  0
LINE
  5
E4
100
AcDbEntity
100
AcDbLine
  8
0
 62
3
420
65280
370
5
 48
1.0
  6
ByLayer
 10
28.3848334222222789
 20
26.81786965000002
 30
0.0
 11
26.9143215888889493
 21
29.5544487166666805
 31
0.0
  0
LINE
  5
E5
100
AcDbEntity
100
AcDbLine
  8
0
 62
3
420
65280
370
5
 48
1.0
  6
ByLayer
 10
26.9143215888889493
 20
29.5544487166666805
 30
0.0
 11
28.9322824444444997
 21
30.6388085833333506
 31
0.0
  0
LINE
  5
E6
100
AcDbEntity
100
AcDbLine
  8
0
 62
3
420
65280
370
5
 48
1.0
  6
ByLayer
 10
28.9322824444444997
 20
30.6388085833333506
 30
0.0
 11
29.17023528888895
 21
30.1959835722222394
 31
0.0
  0
LINE
  5
E7
100
AcDbEntity
100
AcDbLine
  8
0
 62
3
420
65280
370
5
 48
1.0
  6
ByLayer
 10
29.17023528888895
 20
30.1959835722222394
 30
0.0
 11
27.72522928888894
 21
29.4195027500000208
 31
0.0
  0
LINE
  5
E8
100
AcDbEntity
100
AcDbLine
  8
0
 62
256
370
5
 48
1.0
  6
ByLayer
 10
16.8978132444444995
 20
27.9609416166666911
 30
0.0
 11
16.8978132444444995
 21
27.9609416166666804
 31
0.0
  0
LINE
  5
E9
100
AcDbEntity
100
AcDbLine
  8
0
 62
3
420
65280
370
5
 48
1.0
  6
ByLayer
 10
16.9096637555556093
 20
43.1775623277777925
 30
0.0
 11
15.7248327777778307
 21
43.9460181611111267
 31
0.0
  0
ARC
  5
EA
100
AcDbEntity
  8
0
 62
3
420
65280
370
5
 48
1.0
  6
ByLayer
100
AcDbCircle
 10
20.8119333223216998
 20
51.7854722664154821
 30
0.0
 40
9.3453535310052196
100
AcDbArc
 50
235.9554620087704393
 51
237.0200556220652004
  0
ARC
  5
EB
100
AcDbEntity
  8
0
 62
3
420
65280
370
5
 48
1.0
  6
ByLayer
100
AcDbCircle
 10
28.27146453712324
 20
62.1216797009872224
 30
0.0
 40
22.0896062889320888
100
AcDbArc
 50
234.5074548468195417
 51
234.9324325080135907
  0
ARC
  5
EC
100
AcDbEntity
  8
0
 62
3
420
65280
370
5
 48
1.0
  6
ByLayer
100
AcDbCircle
 10
9.3326725926976941
 20
35.7888364688723186
 30
0.0
 40
10.3469953369832197
100
AcDbArc
 50
53.7818946034654388
 51
54.7261833397274273
  0
LINE
  5
ED
100
AcDbEntity
100
AcDbLine
  8
0
 62
3
420
65280
370
5
 48
1.0
  6
ByLayer
 10
15.3079030666667304
 20
44.2361397833333427
 30
0.0
 11
15.4800177000000598
 21
44.0456694166666765
 31
0.0
  0
ARC
  5
EE
100
AcDbEntity
  8
0
 62
3
420
65280
370
5
 48
1.0
  6
ByLayer
100
AcDbCircle
 10
9.6140214332738729
 20
38.7479512470786602
 30
0.0
 40
7.9041590321569846
100
AcDbArc
 50
41.3152954138233781
 51
42.0859289658417097
  0
ARC
  5
EF
100
AcDbEntity
  8
0
 62
3
420
65280
370
5
 48
1.0
  6
ByLayer
100
AcDbCircle
 10
10.8857238280872402
 20
39.8627392324770895
 30
0.0
 40
6.213013669459448
100
AcDbArc
 50
40.3517637701701233
 51
41.3362930520998972
  0
ARC
  5
F0
100
AcDbEntity
  8
0
 62
3
420
65280
370
5
 48
1.0
  6
ByLayer
100
AcDbCircle
 10
13.7259245803094796
 20
42.1695388745267579
 30
0.0
 40
2.5562232484630738
100
AcDbArc
 50
40.0086561987349967
 51
42.1675016588524798
  0
ARC
  5
F1
100
AcDbEntity
  8
0
 62
3
420
65280
370
5
 48
1.0
  6
ByLayer
100
AcDbCircle
 10
7.2689143930355122
 20
36.7631528046078273
 30
0.0
 40
10.9777413149104603
100
AcDbArc
 50
39.5485323274707525
 51
39.9552815863035207
  0
LINE
  5
F2
100
AcDbEntity
100
AcDbLine
  8
0
 62
3
420
65280
370
5
 48
1.0
  6
ByLayer
 10
15.7336917333333908
 20
43.753027550000013
 30
0.0
 11
16.5956223888889483
 21
42.693363538888903
 31
0.0
  0
LINE
  5
F3
100
AcDbEntity
100
AcDbLine
  8
0
 62
3
420
65280
370
5
 48
1.0
  6
ByLayer
 10
16.5956223888889483
 20
42.693363538888903
 30
0.0
 11
16.4066576777778401
 21
42.4020114277777935
 31
0.0
  0
LINE
  5
F4
100
AcDbEntity
100
AcDbLine
  8
0
 62
3
420
65280
370
5
 48
1.0
  6
ByLayer
 10
16.4066576777778401
 20
42.4020114277777935
 30
0.0
 11
15.0876131000000608
 21
42.7568818833333495
 31
0.0
  0
ARC
  5
F5
100
AcDbEntity
  8
0
 62
3
420
65280
370
5
 48
1.0
  6
ByLayer
100
AcDbCircle
 10
17.8429711627240515
 20
52.7131575178482166
 30
0.0
 40
10.3305093080763708
100
AcDbArc
 50
254.0985583102188343
 51
254.530792849429389
  0
ARC
  5
F6
100
AcDbEntity
  8
0
 62
3
420
65280
370
5
 48
1.0
  6
ByLayer
100
AcDbCircle
 10
13.9627050981972793
 20
39.5130487209230878
 30
0.0
 40
3.4295526692414962
100
AcDbArc
 50
72.1740352680573665
 51
73.7830787197640632
  0
ARC
  5
F7
100
AcDbEntity
  8
0
 62
3
420
65280
370
5
 48
1.0
  6
ByLayer
100
AcDbCircle
 10
12.4943217621963196
 20
35.3485546606737628
 30
0.0
 40
7.8423172128212491
100
AcDbArc
 50
71.9787862833402414
 51
72.755488286945706
  0
ARC
  5
F8
100
AcDbEntity
  8
0
 62
3
420
65280
370
5
 48
1.0
  6
ByLayer
100
AcDbCircle
 10
12.95959990781963
 20
36.8553888702689534
 30
0.0
 40
6.2652863806116024
100
AcDbArc
 50
72.7341071993491255
 51
73.7104330709184978
  0
ARC
  5
F9
100
AcDbEntity
  8
0
 62
3
420
65280
370
5
 48
1.0
  6
ByLayer
100
AcDbCircle
 10
40.2424065709064465
 20
125.1327121858519007
 30
0.0
 40
86.1326864316879295
100
AcDbArc
 50
252.5901292966040614
 51
252.7614772032962946
  0
ARC
  5
FA
100
AcDbEntity
  8
0
 62
3
420
65280
370
5
 48
1.0
  6
ByLayer
100
AcDbCircle
 10
-7.2983148140597054
 20
5.7466211246669587
 30
0.0
 40
43.1025988084154221
100
AcDbArc
 50
59.1902753331872233
 51
59.4124631369596869
  0
ARC
  5
FB
100
AcDbEntity
  8
0
 62
3
420
65280
370
5
 48
1.0
  6
ByLayer
100
AcDbCircle
 10
12.68318436010121
 20
39.2320255022625588
 30
0.0
 40
4.108606851956246
100
AcDbArc
 50
57.2176450907435594
 51
59.3398490769743816
  0
LINE
  5
FC
100
AcDbEntity
100
AcDbLine
  8
0
 62
3
420
65280
370
5
 48
1.0
  6
ByLayer
 10
14.9077867444445094
 20
42.6862684722222383
 30
0.0
 11
16.0926177222222897
 21
41.917812638888897
 31
0.0
  0
LINE
  5
FD
100
AcDbEntity
100
AcDbLine
  8
0
 62
3
420
65280
370
5
 48
1.0
  6
ByLayer
 10
16.0926177222222897
 20
41.917812638888897
 30
0.0
 11
15.8568619777778501
 21
41.5543160611111233
 31
0.0
  0
LINE
  5
FE
100
AcDbEntity
100
AcDbLine
  8
0
 62
3
420
65280
370
5
 48
1.0
  6
ByLayer
 10
15.8568619777778501
 20
41.5543160611111233
 30
0.0
 11
13.9020300000000692
 21
42.8221782277777976
 31
0.0
  0
LINE
  5
FF
100
AcDbEntity
100
AcDbLine
  8
0
 62
3
420
65280
370
5
 48
1.0
  6
ByLayer
 10
13.9020300000000692
 20
42.8221782277777976
 30
0.0
 11
14.2574634888889609
 21
43.3701973388889073
 31
0.0
  0
LINE
  5
100
100
AcDbEntity
100
AcDbLine
  8
0
 62
3
420
65280
370
5
 48
1.0
  6
ByLayer
 10
14.2574634888889609
 20
43.3701973388889073
 30
0.0
 11
15.5774831444445105
 21
43.0107520611111269
 31
0.0
  0
ARC
  5
101
100
AcDbEntity
  8
0
 62
3
420
65280
370
5
 48
1.0
  6
ByLayer
100
AcDbCircle
 10
15.0851391005346507
 20
41.2345692835096926
 30
0.0
 40
1.84315705164306
100
AcDbArc
 50
70.4530263307843683
 51
74.5070404991388244
  0
ARC
  5
102
100
AcDbEntity
  8
0
 62
3
420
65280
370
5
 48
1.0
  6
ByLayer
100
AcDbCircle
 10
5.1317439602748776
 20
10.5040444020647605
 30
0.0
 40
34.1447251695932366
100
AcDbArc
 50
71.7171595108597444
 51
71.9668662272303123
  0
ARC
  5
103
100
AcDbEntity
  8
0
 62
3
420
65280
370
5
 48
1.0
  6
ByLayer
100
AcDbCircle
 10
18.9968424679341084
 20
51.9882514011948729
 30
0.0
 40
9.5961229042164877
100
AcDbArc
 50
250.8140544658992894
 51
251.8533657766503211
  0
ARC
  5
104
100
AcDbEntity
  8
0
 62
3
420
65280
370
5
 48
1.0
  6
ByLayer
100
AcDbCircle
 10
98.341028401460548
 20
116.9203086271059959
 30
0.0
 40
110.7350032137124032
100
AcDbArc
 50
221.8798516870951971
 51
221.9684772262480124
  0
ARC
  5
105
100
AcDbEntity
  8
0
 62
3
420
65280
370
5
 48
1.0
  6
ByLayer
100
AcDbCircle
 10
11.2243978488863192
 20
38.9237546879395566
 30
0.0
 40
6.1961614063524681
100
AcDbArc
 50
41.098761064551077
 51
41.7814183388090896
  0
ARC
  5
106
100
AcDbEntity
  8
0
 62
3
420
65280
370
5
 48
1.0
  6
ByLayer
100
AcDbCircle
 10
20.3781657406918804
 20
47.1038574373856989
 30
0.0
 40
6.0800574011523603
100
AcDbArc
 50
221.0929728385652027
 51
221.7886562395183034
  0
ARC
  5
107
100
AcDbEntity
  8
0
 62
3
420
65280
370
5
 48
1.0
  6
ByLayer
100
AcDbCircle
 10
17.6788482486654495
 20
44.7516087444327226
 30
0.0
 40
2.499640711207098
100
AcDbArc
 50
219.5433854885241942
 51
221.1263665814429089
  0
ARC
  5
108
100
AcDbEntity
  8
0
 62
3
420
65280
370
5
 48
1.0
  6
ByLayer
100
AcDbCircle
 10
18.6732942390744689
 20
45.5733929074143731
 30
0.0
 40
3.789699551503928
100
AcDbArc
 50
218.6588252172878697
 51
219.5522537200159263
  0
LINE
  5
109
100
AcDbEntity
100
AcDbLine
  8
0
 62
3
420
65280
370
5
 48
1.0
  6
ByLayer
 10
15.7139954444445298
 20
43.2060371388889024
 30
0.0
 11
14.8369546111111905
 21
44.2636762055555693
 31
0.0
  0
LINE
  5
10A
100
AcDbEntity
100
AcDbLine
  8
0
 62
3
420
65280
370
5
 48
1.0
  6
ByLayer
 10
14.8369546111111905
 20
44.2636762055555693
 30
0.0
 11
15.1905875222222999
 21
44.8089196611111333
 31
0.0
  0
LINE
  5
10B
100
AcDbEntity
100
AcDbLine
  8
0
 62
3
420
65280
370
5
 48
1.0
  6
ByLayer
 10
15.1905875222222999
 20
44.8089196611111333
 30
0.0
 11
17.1454195000000702
 21
43.5410574944444591
 31
0.0
  0
LINE
  5
10C
100
AcDbEntity
100
AcDbLine
  8
0
 62
3
420
65280
370
5
 48
1.0
  6
ByLayer
 10
17.1454195000000702
 20
43.5410574944444591
 30
0.0
 11
16.9096637555556306
 21
43.1775623277777925
 31
0.0
  0
LINE
  5
10D
100
AcDbEntity
100
AcDbLine
  8
0
 62
3
420
65280
370
5
 48
1.0
  6
ByLayer
 10
18.7582009666667204
 20
44.9144354944444615
 30
0.0
 11
18.2217769555556117
 21
45.2451519611111195
 31
0.0
  0
LINE
  5
10E
100
AcDbEntity
100
AcDbLine
  8
0
 62
3
420
65280
370
5
 48
1.0
  6
ByLayer
 10
18.2217769555556117
 20
45.2451519611111195
 30
0.0
 11
17.5335935888889516
 21
44.6839375500000102
 31
0.0
  0
LINE
  5
10F
100
AcDbEntity
100
AcDbLine
  8
0
 62
3
420
65280
370
5
 48
1.0
  6
ByLayer
 10
17.5335935888889516
 20
44.6839375500000102
 30
0.0
 11
17.7496347000000583
 21
44.0919496277777867
 31
0.0
  0
LINE
  5
110
100
AcDbEntity
100
AcDbLine
  8
0
 62
3
420
65280
370
5
 48
1.0
  6
ByLayer
 10
17.7496347000000583
 20
44.0919496277777867
 30
0.0
 11
17.3715811000000606
 21
43.7836472500000227
 31
0.0
  0
LINE
  5
111
100
AcDbEntity
100
AcDbLine
  8
0
 62
3
420
65280
370
5
 48
1.0
  6
ByLayer
 10
17.3715811000000606
 20
43.7836472500000227
 30
0.0
 11
16.5577566333333799
 21
46.1265055733333469
 31
0.0
  0
LINE
  5
112
100
AcDbEntity
100
AcDbLine
  8
0
 62
3
420
65280
370
5
 48
1.0
  6
ByLayer
 10
16.5577566333333799
 20
46.1265055733333469
 30
0.0
 11
17.0037312444444986
 21
46.490197307777791
 31
0.0
  0
LINE
  5
113
100
AcDbEntity
100
AcDbLine
  8
0
 62
3
420
65280
370
5
 48
1.0
  6
ByLayer
 10
17.0037312444444986
 20
46.490197307777791
 30
0.0
 11
19.132409288888951
 21
45.2196026655555698
 31
0.0
  0
LINE
  5
114
100
AcDbEntity
100
AcDbLine
  8
0
 62
3
420
65280
370
5
 48
1.0
  6
ByLayer
 10
19.132409288888951
 20
45.2196026655555698
 30
0.0
 11
18.7582009666667311
 21
44.9144354944444615
 31
0.0
  0
LINE
  5
115
100
AcDbEntity
100
AcDbLine
  8
0
 62
3
420
65280
370
5
 48
1.0
  6
ByLayer
 10
17.3037899111111706
 20
45.8344299855555732
 30
0.0
 11
17.1998771000000694
 21
45.8990552055555696
 31
0.0
  0
ARC
  5
116
100
AcDbEntity
  8
0
 62
3
420
65280
370
5
 48
1.0
  6
ByLayer
100
AcDbCircle
 10
2.4391080420002251
 20
23.8673747869538317
 30
0.0
 40
26.5193371947906016
100
AcDbArc
 50
56.1787347340955989
 51
56.421709254296772
  0
ARC
  5
117
100
AcDbEntity
  8
0
 62
3
420
65280
370
5
 48
1.0
  6
ByLayer
100
AcDbCircle
 10
15.9658809994504605
 20
44.3978266085980025
 30
0.0
 40
1.9353337382181031
100
AcDbArc
 50
53.8947895321068984
 51
56.3898209282137088
  0
ARC
  5
118
100
AcDbEntity
  8
0
 62
3
420
65280
370
5
 48
1.0
  6
ByLayer
100
AcDbCircle
 10
16.7916163215443497
 20
45.6886691092209531
 30
0.0
 40
0.4041057833654285
100
AcDbArc
 50
52.5813845914147606
 51
57.7037995376163977
  0
ARC
  5
119
100
AcDbEntity
  8
0
 62
3
420
65280
370
5
 48
1.0
  6
ByLayer
100
AcDbCircle
 10
18.06727016225895
 20
46.4801532371812272
 30
0.0
 40
1.1512851341424071
100
AcDbArc
 50
203.0027937765624131
 51
204.8795150782553378
  0
ARC
  5
11A
100
AcDbEntity
  8
0
 62
3
420
65280
370
5
 48
1.0
  6
ByLayer
100
AcDbCircle
 10
15.2387593072989898
 20
45.1958941041017823
 30
0.0
 40
1.9551856437545321
100
AcDbArc
 50
21.7262348277899413
 51
24.1493962329288081
  0
ARC
  5
11B
100
AcDbEntity
  8
0
 62
3
420
65280
370
5
 48
1.0
  6
ByLayer
100
AcDbCircle
 10
15.0673006921434993
 20
45.052056141569679
 30
0.0
 40
2.1688439998915681
100
AcDbArc
 50
20.6085253286049657
 51
23.5797823410415397
  0
ARC
  5
11C
100
AcDbEntity
  8
0
 62
3
420
65280
370
5
 48
1.0
  6
ByLayer
100
AcDbCircle
 10
12.7055468106437104
 20
44.063615434520969
 30
0.0
 40
4.7283072325042541
100
AcDbArc
 50
20.2698943266555887
 51
21.7463863741395791
  0
LINE
  5
11D
100
AcDbEntity
100
AcDbLine
  8
0
 62
3
420
65280
370
5
 48
1.0
  6
ByLayer
 10
17.1410351777778409
 20
45.7017034144444523
 30
0.0
 11
17.3861635222222795
 21
45.0374138277777973
 31
0.0
  0
LINE
  5
11E
100
AcDbEntity
100
AcDbLine
  8
0
 62
3
420
65280
370
5
 48
1.0
  6
ByLayer
 10
17.3861635222222795
 20
45.0374138277777973
 30
0.0
 11
17.9051857111111694
 21
45.460676464444461
 31
0.0
  0
LINE
  5
11F
100
AcDbEntity
100
AcDbLine
  8
0
 62
3
420
65280
370
5
 48
1.0
  6
ByLayer
 10
17.9051857111111694
 20
45.460676464444461
 30
0.0
 11
17.3037899111111706
 21
45.8344299855555732
 31
0.0
  0
LINE
  5
120
100
AcDbEntity
100
AcDbLine
  8
0
 62
3
420
65280
370
5
 48
1.0
  6
ByLayer
 10
20.9028527888889393
 20
45.9915881111111275
 30
0.0
 11
20.0620930333333796
 21
46.5984001788889088
 31
0.0
  0
LINE
  5
121
100
AcDbEntity
100
AcDbLine
  8
0
 62
3
420
65280
370
5
 48
1.0
  6
ByLayer
 10
20.0620930333333796
 20
46.5984001788889088
 30
0.0
 11
19.5344320222222798
 21
46.3771714000000088
 31
0.0
  0
LINE
  5
122
100
AcDbEntity
100
AcDbLine
  8
0
 62
3
420
65280
370
5
 48
1.0
  6
ByLayer
 10
19.5344320222222798
 20
46.3771714000000088
 30
0.0
 11
19.8765065222222717
 21
45.5612788088889005
 31
0.0
  0
LINE
  5
123
100
AcDbEntity
100
AcDbLine
  8
0
 62
3
420
65280
370
5
 48
1.0
  6
ByLayer
 10
19.8765065222222717
 20
45.5612788088889005
 30
0.0
 11
19.4266217222222686
 21
45.3726588322222426
 31
0.0
  0
LINE
  5
124
100
AcDbEntity
100
AcDbLine
  8
0
 62
3
420
65280
370
5
 48
1.0
  6
ByLayer
 10
19.4266217222222686
 20
45.3726588322222426
 30
0.0
 11
18.5257204111111591
 21
47.5214301111111297
 31
0.0
  0
LINE
  5
125
100
AcDbEntity
100
AcDbLine
  8
0
 62
3
420
65280
370
5
 48
1.0
  6
ByLayer
 10
18.5257204111111591
 20
47.5214301111111297
 30
0.0
 11
19.5993445444444916
 21
47.9715605855555793
 31
0.0
  0
ARC
  5
126
100
AcDbEntity
  8
0
 62
3
420
65280
370
5
 48
1.0
  6
ByLayer
100
AcDbCircle
 10
20.1251648177047606
 20
46.7775636131478905
 30
0.0
 40
1.304651574133965
100
AcDbArc
 50
96.8621903165298619
 51
113.7680498609491053
  0
ARC
  5
127
100
AcDbEntity
  8
0
 62
3
420
65280
370
5
 48
1.0
  6
ByLayer
100
AcDbCircle
 10
20.0677892186775786
 20
47.3299040851893622
 30
0.0
 40
0.7494669134671013
100
AcDbArc
 50
73.9799900059524731
 51
97.5525380322398377
  0
ARC
  5
128
100
AcDbEntity
  8
0
 62
3
420
65280
370
5
 48
1.0
  6
ByLayer
100
AcDbCircle
 10
20.1219808274779695
 20
47.5262589101999282
 30
0.0
 40
0.5457860771311555
100
AcDbArc
 50
44.9159694760533981
 51
73.7593728188145121
  0
ARC
  5
129
100
AcDbEntity
  8
0
 62
3
420
65280
370
5
 48
1.0
  6
ByLayer
100
AcDbCircle
 10
19.9979608123974693
 20
47.3983360585120579
 30
0.0
 40
0.7239386510031787
100
AcDbArc
 50
21.8155215529254782
 51
45.1550654876128377
  0
ARC
  5
12A
100
AcDbEntity
  8
0
 62
3
420
65280
370
5
 48
1.0
  6
ByLayer
100
AcDbCircle
 10
20.0303026343062598
 20
47.3906689396814826
 30
0.0
 40
0.6970249843288929
100
AcDbArc
 50
3.3080836776852469
 51
23.3887802529320084
  0
ARC
  5
12B
100
AcDbEntity
  8
0
 62
3
420
65280
370
5
 48
1.0
  6
ByLayer
100
AcDbCircle
 10
20.0983284135237597
 20
47.3919598259867527
 30
0.0
 40
0.6290435929941954
100
AcDbArc
 50
343.4168243767225022
 51
3.5482440011270331
  0
ARC
  5
12C
100
AcDbEntity
  8
0
 62
3
420
65280
370
5
 48
1.0
  6
ByLayer
100
AcDbCircle
 10
20.0985852461126804
 20
47.3862196923123165
 30
0.0
 40
0.6271826585769977
100
AcDbArc
 50
324.1176235045629141
 51
343.9127084801513092
  0
ARC
  5
12D
100
AcDbEntity
  8
0
 62
3
420
65280
370
5
 48
1.0
  6
ByLayer
100
AcDbCircle
 10
20.0223463112598807
 20
47.4518725630639224
 30
0.0
 40
0.7274835393665664
100
AcDbArc
 50
305.9666862449556106
 51
323.4475284409198821
  0
LINE
  5
12E
100
AcDbEntity
100
AcDbLine
  8
0
 62
3
420
65280
370
5
 48
1.0
  6
ByLayer
 10
20.4496081333333883
 20
46.8630774922222315
 30
0.0
 11
21.4091636888889489
 21
46.2038655066666877
 31
0.0
  0
LINE
  5
12F
100
AcDbEntity
100
AcDbLine
  8
0
 62
3
420
65280
370
5
 48
1.0
  6
ByLayer
 10
21.4091636888889489
 20
46.2038655066666877
 30
0.0
 11
20.9028527888889499
 21
45.9915881111111275
 31
0.0
  0
ARC
  5
130
100
AcDbEntity
  8
0
 62
3
420
65280
370
5
 48
1.0
  6
ByLayer
100
AcDbCircle
 10
19.9466457443833605
 20
47.3657992813735405
 30
0.0
 40
0.2933993693847192
100
AcDbArc
 50
18.5556618990644999
 51
74.862398208718588
  0
ARC
  5
131
100
AcDbEntity
  8
0
 62
3
420
65280
370
5
 48
1.0
  6
ByLayer
100
AcDbCircle
 10
19.9313878885829503
 20
47.1333938448784693
 30
0.0
 40
0.5237456636309767
100
AcDbArc
 50
79.8968844570547958
 51
116.4029729554398926
  0
LINE
  5
132
100
AcDbEntity
100
AcDbLine
  8
0
 62
3
420
65280
370
5
 48
1.0
  6
ByLayer
 10
19.6984878000000592
 20
47.6025069111111208
 30
0.0
 11
19.1220263333333911
 21
47.3608175855555729
 31
0.0
  0
LINE
  5
133
100
AcDbEntity
100
AcDbLine
  8
0
 62
3
420
65280
370
5
 48
1.0
  6
ByLayer
 10
19.1220263333333911
 20
47.3608175855555729
 30
0.0
 11
19.3880123111111686
 21
46.7264039022222306
 31
0.0
  0
LINE
  5
134
100
AcDbEntity
100
AcDbLine
  8
0
 62
3
420
65280
370
5
 48
1.0
  6
ByLayer
 10
19.3880123111111686
 20
46.7264039022222306
 30
0.0
 11
19.9766742444444994
 21
46.97320836444446
 31
0.0
  0
ARC
  5
135
100
AcDbEntity
  8
0
 62
3
420
65280
370
5
 48
1.0
  6
ByLayer
100
AcDbCircle
 10
19.7494651238993093
 20
47.5486717773768106
 30
0.0
 40
0.6186938856033711
100
AcDbArc
 50
291.5454991178040132
 51
309.0703705322897008
  0
ARC
  5
136
100
AcDbEntity
  8
0
 62
3
420
65280
370
5
 48
1.0
  6
ByLayer
100
AcDbCircle
 10
19.9173344193752406
 20
47.3345039606771678
 30
0.0
 40
0.3466474355287825
100
AcDbArc
 50
309.8398631989023784
 51
334.5074005031950719
  0
ARC
  5
137
100
AcDbEntity
  8
0
 62
3
420
65280
370
5
 48
1.0
  6
ByLayer
100
AcDbCircle
 10
19.9575869203452498
 20
47.3091696901982175
 30
0.0
 40
0.2994614615069054
100
AcDbArc
 50
335.568055915153991
 51
1.770686901298929
  0
ARC
  5
138
100
AcDbEntity
  8
0
 62
3
420
65280
370
5
 48
1.0
  6
ByLayer
100
AcDbCircle
 10
19.8632781111584507
 20
47.3026465469124417
 30
0.0
 40
0.3939433031650849
100
AcDbArc
 50
2.2951486832730472
 51
23.4104959160695998
  0
LINE
  5
139
100
AcDbEntity
100
AcDbLine
  8
0
 62
3
420
65280
370
5
 48
1.0
  6
ByLayer
 10
22.5030471444444906
 20
48.3158640766666778
 30
0.0
 11
22.7609206444445
 21
46.3800082977777919
 31
0.0
  0
LINE
  5
13A
100
AcDbEntity
100
AcDbLine
  8
0
 62
3
420
65280
370
5
 48
1.0
  6
ByLayer
 10
22.7609206444445
 20
46.3800082977777919
 30
0.0
 11
22.2773667333333911
 21
46.3155946033333521
 31
0.0
  0
LINE
  5
13B
100
AcDbEntity
100
AcDbLine
  8
0
 62
3
420
65280
370
5
 48
1.0
  6
ByLayer
 10
22.2773667333333911
 20
46.3155946033333521
 30
0.0
 11
22.0194932333333888
 21
48.2514503822222522
 31
0.0
  0
LINE
  5
13C
100
AcDbEntity
100
AcDbLine
  8
0
 62
3
420
65280
370
5
 48
1.0
  6
ByLayer
 10
22.0194932333333888
 20
48.2514503822222522
 30
0.0
 11
21.2736716222222704
 21
48.1521002577778034
 31
0.0
  0
LINE
  5
13D
100
AcDbEntity
100
AcDbLine
  8
0
 62
3
420
65280
370
5
 48
1.0
  6
ByLayer
 10
21.2736716222222704
 20
48.1521002577778034
 30
0.0
 11
21.2238876222222785
 21
48.5258303544444729
 31
0.0
  0
LINE
  5
13E
100
AcDbEntity
100
AcDbLine
  8
0
 62
3
420
65280
370
5
 48
1.0
  6
ByLayer
 10
21.2238876222222785
 20
48.5258303544444729
 30
0.0
 11
23.2007230555556099
 21
48.7891624555555694
 31
0.0
  0
LINE
  5
13F
100
AcDbEntity
100
AcDbLine
  8
0
 62
3
420
65280
370
5
 48
1.0
  6
ByLayer
 10
23.2007230555556099
 20
48.7891624555555694
 30
0.0
 11
23.2505070555556195
 21
48.4154325000000227
 31
0.0
  0
LINE
  5
140
100
AcDbEntity
100
AcDbLine
  8
0
 62
3
420
65280
370
5
 48
1.0
  6
ByLayer
 10
23.2505070555556195
 20
48.4154325000000227
 30
0.0
 11
22.5030471444444906
 21
48.3158640766666778
 31
0.0
  0
LINE
  5
141
100
AcDbEntity
100
AcDbLine
  8
0
 62
3
420
65280
370
5
 48
1.0
  6
ByLayer
 10
23.781499700000051
 20
46.4598184844444475
 30
0.0
 11
24.0420656000000399
 21
48.7751899155555719
 31
0.0
  0
LINE
  5
142
100
AcDbEntity
100
AcDbLine
  8
0
 62
3
420
65280
370
5
 48
1.0
  6
ByLayer
 10
24.0420656000000399
 20
48.7751899155555719
 30
0.0
 11
24.5268316555556005
 21
48.7206355133333489
 31
0.0
  0
LINE
  5
143
100
AcDbEntity
100
AcDbLine
  8
0
 62
3
420
65280
370
5
 48
1.0
  6
ByLayer
 10
24.5268316555556005
 20
48.7206355133333489
 30
0.0
 11
24.3084297555556113
 21
46.7799304511111274
 31
0.0
  0
LINE
  5
144
100
AcDbEntity
100
AcDbLine
  8
0
 62
3
420
65280
370
5
 48
1.0
  6
ByLayer
 10
24.3084297555556113
 20
46.7799304511111274
 30
0.0
 11
25.5507437555556116
 21
46.6401234888888965
 31
0.0
  0
LINE
  5
145
100
AcDbEntity
100
AcDbLine
  8
0
 62
3
420
65280
370
5
 48
1.0
  6
ByLayer
 10
25.5507437555556116
 20
46.6401234888888965
 30
0.0
 11
25.5085797555556013
 21
46.2654572611111234
 31
0.0
  0
LINE
  5
146
100
AcDbEntity
100
AcDbLine
  8
0
 62
3
420
65280
370
5
 48
1.0
  6
ByLayer
 10
25.5085797555556013
 20
46.2654572611111234
 30
0.0
 11
23.781499700000051
 21
46.4598184844444475
 31
0.0
  0
LINE
  5
147
100
AcDbEntity
100
AcDbLine
  8
0
 62
3
420
65280
370
5
 48
1.0
  6
ByLayer
 10
25.8391395888889406
 20
46.1801898844444594
 30
0.0
 11
26.6746725888889387
 21
48.3552126277777887
 31
0.0
  0
LINE
  5
148
100
AcDbEntity
100
AcDbLine
  8
0
 62
3
420
65280
370
5
 48
1.0
  6
ByLayer
 10
26.6746725888889387
 20
48.3552126277777887
 30
0.0
 11
28.3850521444444901
 21
47.698171636666693
 31
0.0
  0
LINE
  5
149
100
AcDbEntity
100
AcDbLine
  8
0
 62
3
420
65280
370
5
 48
1.0
  6
ByLayer
 10
28.3850521444444901
 20
47.698171636666693
 30
0.0
 11
28.2498493555556109
 21
47.3462162544444567
 31
0.0
  0
LINE
  5
14A
100
AcDbEntity
100
AcDbLine
  8
0
 62
3
420
65280
370
5
 48
1.0
  6
ByLayer
 10
28.2498493555556109
 20
47.3462162544444567
 30
0.0
 11
26.9948508777778393
 21
47.828322930000013
 31
0.0
  0
LINE
  5
14B
100
AcDbEntity
100
AcDbLine
  8
0
 62
3
420
65280
370
5
 48
1.0
  6
ByLayer
 10
26.9948508777778393
 20
47.828322930000013
 30
0.0
 11
26.7849297555556092
 21
47.2818659188888972
 31
0.0
  0
LINE
  5
14C
100
AcDbEntity
100
AcDbLine
  8
0
 62
3
420
65280
370
5
 48
1.0
  6
ByLayer
 10
26.7849297555556092
 20
47.2818659188888972
 30
0.0
 11
27.9457647888889404
 21
46.8359319477777873
 31
0.0
  0
LINE
  5
14D
100
AcDbEntity
100
AcDbLine
  8
0
 62
3
420
65280
370
5
 48
1.0
  6
ByLayer
 10
27.9457647888889404
 20
46.8359319477777873
 30
0.0
 11
27.8105620000000506
 21
46.4839765655555723
 31
0.0
  0
LINE
  5
14E
100
AcDbEntity
100
AcDbLine
  8
0
 62
3
420
65280
370
5
 48
1.0
  6
ByLayer
 10
27.8105620000000506
 20
46.4839765655555723
 30
0.0
 11
26.6497255555556087
 21
46.9299103955555665
 31
0.0
  0
LINE
  5
14F
100
AcDbEntity
100
AcDbLine
  8
0
 62
3
420
65280
370
5
 48
1.0
  6
ByLayer
 10
26.6497255555556087
 20
46.9299103955555665
 30
0.0
 11
26.4297234555555995
 21
46.3572110922222294
 31
0.0
  0
LINE
  5
150
100
AcDbEntity
100
AcDbLine
  8
0
 62
3
420
65280
370
5
 48
1.0
  6
ByLayer
 10
26.4297234555555995
 20
46.3572110922222294
 30
0.0
 11
27.7480130888889391
 21
45.8507915366666765
 31
0.0
  0
LINE
  5
151
100
AcDbEntity
100
AcDbLine
  8
0
 62
3
420
65280
370
5
 48
1.0
  6
ByLayer
 10
27.7480130888889391
 20
45.8507915366666765
 30
0.0
 11
27.6128103000000493
 21
45.4988360133333529
 31
0.0
  0
LINE
  5
152
100
AcDbEntity
100
AcDbLine
  8
0
 62
3
420
65280
370
5
 48
1.0
  6
ByLayer
 10
27.6128103000000493
 20
45.4988360133333529
 30
0.0
 11
25.8391395888889406
 21
46.1801898844444594
 31
0.0
  0
LINE
  5
153
100
AcDbEntity
100
AcDbLine
  8
0
 62
3
420
65280
370
5
 48
1.0
  6
ByLayer
 10
29.9196510000000515
 20
46.2814314622222298
 30
0.0
 11
28.7846985666667194
 21
44.6921163500000205
 31
0.0
  0
LINE
  5
154
100
AcDbEntity
100
AcDbLine
  8
0
 62
3
420
65280
370
5
 48
1.0
  6
ByLayer
 10
28.7846985666667194
 20
44.6921163500000205
 30
0.0
 11
28.3877064444444898
 21
44.9756142166666777
 31
0.0
  0
LINE
  5
155
100
AcDbEntity
100
AcDbLine
  8
0
 62
3
420
65280
370
5
 48
1.0
  6
ByLayer
 10
28.3877064444444898
 20
44.9756142166666777
 30
0.0
 11
29.5226588777778289
 21
46.564929046666677
 31
0.0
  0
LINE
  5
156
100
AcDbEntity
100
AcDbLine
  8
0
 62
3
420
65280
370
5
 48
1.0
  6
ByLayer
 10
29.5226588777778289
 20
46.564929046666677
 30
0.0
 11
28.9103481333333896
 21
47.0021882122222365
 31
0.0
  0
LINE
  5
157
100
AcDbEntity
100
AcDbLine
  8
0
 62
3
420
65280
370
5
 48
1.0
  6
ByLayer
 10
28.9103481333333896
 20
47.0021882122222365
 30
0.0
 11
29.1294584111111696
 21
47.3090159788889082
 31
0.0
  0
LINE
  5
158
100
AcDbEntity
100
AcDbLine
  8
0
 62
3
420
65280
370
5
 48
1.0
  6
ByLayer
 10
29.1294584111111696
 20
47.3090159788889082
 30
0.0
 11
30.7524168111111607
 21
46.1500390966666671
 31
0.0
  0
LINE
  5
159
100
AcDbEntity
100
AcDbLine
  8
0
 62
3
420
65280
370
5
 48
1.0
  6
ByLayer
 10
30.7524168111111607
 20
46.1500390966666671
 30
0.0
 11
30.5333065333333913
 21
45.8432113300000168
 31
0.0
  0
LINE
  5
15A
100
AcDbEntity
100
AcDbLine
  8
0
 62
3
420
65280
370
5
 48
1.0
  6
ByLayer
 10
30.5333065333333913
 20
45.8432113300000168
 30
0.0
 11
29.9196510000000515
 21
46.2814314622222298
 31
0.0
  0
LINE
  5
15B
100
AcDbEntity
100
AcDbLine
  8
0
 62
3
420
65280
370
5
 48
1.0
  6
ByLayer
 10
30.1950265111111698
 20
43.3390019055555769
 30
0.0
 11
32.0332964777778173
 21
44.7706446833333374
 31
0.0
  0
LINE
  5
15C
100
AcDbEntity
100
AcDbLine
  8
0
 62
3
420
65280
370
5
 48
1.0
  6
ByLayer
 10
32.0332964777778173
 20
44.7706446833333374
 30
0.0
 11
32.3330362333333881
 21
44.3857697722222326
 31
0.0
  0
LINE
  5
15D
100
AcDbEntity
100
AcDbLine
  8
0
 62
3
420
65280
370
5
 48
1.0
  6
ByLayer
 10
32.3330362333333881
 20
44.3857697722222326
 30
0.0
 11
30.4947662666667192
 21
42.9541255833333508
 31
0.0
  0
LINE
  5
15E
100
AcDbEntity
100
AcDbLine
  8
0
 62
3
420
65280
370
5
 48
1.0
  6
ByLayer
 10
30.4947662666667192
 20
42.9541255833333508
 30
0.0
 11
30.1950265111111698
 21
43.3390019055555769
 31
0.0
  0
LINE
  5
15F
100
AcDbEntity
100
AcDbLine
  8
0
 62
3
420
65280
370
5
 48
1.0
  6
ByLayer
 10
30.7521134222222692
 20
42.5828820055555823
 30
0.0
 11
32.7369159888889385
 21
43.8032913277777993
 31
0.0
  0
LINE
  5
160
100
AcDbEntity
100
AcDbLine
  8
0
 62
3
420
65280
370
5
 48
1.0
  6
ByLayer
 10
32.7369159888889385
 20
43.8032913277777993
 30
0.0
 11
32.9924301111111618
 21
43.3877360388889031
 31
0.0
  0
LINE
  5
161
100
AcDbEntity
100
AcDbLine
  8
0
 62
3
420
65280
370
5
 48
1.0
  6
ByLayer
 10
32.9924301111111618
 20
43.3877360388889031
 30
0.0
 11
31.0076289555555995
 21
42.167326716666679
 31
0.0
  0
LINE
  5
162
100
AcDbEntity
100
AcDbLine
  8
0
 62
3
420
65280
370
5
 48
1.0
  6
ByLayer
 10
31.0076289555555995
 20
42.167326716666679
 30
0.0
 11
30.7521134222222692
 21
42.5828820055555823
 31
0.0
  0
LINE
  5
163
100
AcDbEntity
100
AcDbLine
  8
0
 62
3
420
65280
370
5
 48
1.0
  6
ByLayer
 10
15.8353495888889402
 20
41.3059336944444624
 30
0.0
 11
15.8353495888889508
 21
41.3059336944444624
 31
0.0
  0
LINE
  5
164
100
AcDbEntity
100
AcDbLine
  8
0
 62
3
420
65280
370
5
 48
1.0
  6
ByLayer
 10
14.9682175777778301
 20
31.9182475055555699
 30
0.0
 11
17.6943671222222711
 21
33.6822267055555571
 31
0.0
  0
LINE
  5
165
100
AcDbEntity
100
AcDbLine
  8
0
 62
3
420
65280
370
5
 48
1.0
  6
ByLayer
 10
17.6943671222222711
 20
33.6822267055555571
 30
0.0
 11
20.5096057555556008
 21
32.8091454500000168
 31
0.0
  0
LINE
  5
166
100
AcDbEntity
100
AcDbLine
  8
0
 62
3
420
65280
370
5
 48
1.0
  6
ByLayer
 10
24.8393730111111601
 20
34.3058545611111327
 30
0.0
 11
27.0309823777778213
 21
33.5575000055555677
 31
0.0
  0
LINE
  5
167
100
AcDbEntity
100
AcDbLine
  8
0
 62
3
420
65280
370
5
 48
1.0
  6
ByLayer
 10
27.0309823777778213
 20
33.5575000055555677
 30
0.0
 11
29.0265954666667092
 21
34.5018522500000131
 31
0.0
  0
LINE
  5
168
100
AcDbEntity
100
AcDbLine
  8
0
 62
3
420
65280
370
5
 48
1.0
  6
ByLayer
 10
29.0265954666667092
 20
34.5018522500000131
 30
0.0
 11
32.7861863444444879
 21
32.8269635500000234
 31
0.0
  0
LINE
  5
169
100
AcDbEntity
100
AcDbLine
  8
0
 62
3
420
65280
370
5
 48
1.0
  6
ByLayer
 10
32.7861863444444879
 20
32.8269635500000234
 30
0.0
 11
34.3898040555556008
 21
33.4327747166666924
 31
0.0
  0
LINE
  5
16A
100
AcDbEntity
100
AcDbLine
  8
0
 62
3
420
65280
370
5
 48
1.0
  6
ByLayer
 10
34.3898040555556008
 20
33.4327747166666924
 30
0.0
 11
34.742825696690403
 21
32.8699969624650734
 31
0.0
  0
LINE
  5
16B
100
AcDbEntity
100
AcDbLine
  8
0
 62
3
420
65280
370
5
 48
1.0
  6
ByLayer
 10
13.3463471136717402
 20
31.2396420459808013
 30
0.0
 11
14.9682175777778301
 21
31.9182475055555699
 31
0.0
  0
LINE
  5
16C
100
AcDbEntity
100
AcDbLine
  8
0
 62
3
420
65280
370
5
 48
1.0
  6
ByLayer
 10
22.7739564888889383
 20
30.0888999944444606
 30
0.0
 11
20.9509829666667216
 21
30.1080882833333483
 31
0.0
  0
LINE
  5
16D
100
AcDbEntity
100
AcDbLine
  8
0
 62
3
420
65280
370
5
 48
1.0
  6
ByLayer
 10
20.9509829666667216
 20
30.1080882833333483
 30
0.0
 11
20.9509829666667216
 21
30.3959267277777911
 31
0.0
  0
LINE
  5
16E
100
AcDbEntity
100
AcDbLine
  8
0
 62
3
420
65280
370
5
 48
1.0
  6
ByLayer
 10
20.9509829666667216
 20
30.3959267277777911
 30
0.0
 11
22.7739564888889383
 21
32.3340342166666801
 31
0.0
  0
LINE
  5
16F
100
AcDbEntity
100
AcDbLine
  8
0
 62
3
420
65280
370
5
 48
1.0
  6
ByLayer
 10
22.7739564888889383
 20
32.3340342166666801
 30
0.0
 11
22.7739564888889383
 21
33.5918836835580876
 31
0.0
  0
ARC
  5
170
100
AcDbEntity
  8
0
 62
3
420
65280
370
5
 48
1.0
  6
ByLayer
100
AcDbCircle
 10
86.7601956916445403
 20
38.4225857841074827
 30
0.0
 40
64.1175191889425662
100
AcDbArc
 50
171.8312020629157075
 51
176.3329007426858084
  0
ARC
  5
171
100
AcDbEntity
  8
0
 62
3
420
65280
370
5
 48
1.0
  6
ByLayer
100
AcDbCircle
 10
-35.9678469777504972
 20
38.1304650365864077
 30
0.0
 40
60.0023619051968495
100
AcDbArc
 50
4.2324409003918859
 51
9.0155999086498397
  0
LINE
  5
172
100
AcDbEntity
100
AcDbLine
  8
0
 62
3
420
65280
370
5
 48
1.0
  6
ByLayer
 10
23.8708794777778301
 20
42.5588112722222434
 30
0.0
 11
23.909677462998399
 21
33.9844784419596024
 31
0.0
  0
LINE
  5
173
100
AcDbEntity
100
AcDbLine
  8
0
 62
3
420
65280
370
5
 48
1.0
  6
ByLayer
 10
25.2141909333333807
 20
29.9126832611111304
 30
0.0
 11
25.2141909333333807
 21
29.5531095722222403
 31
0.0
  0
LINE
  5
174
100
AcDbEntity
100
AcDbLine
  8
0
 62
3
420
65280
370
5
 48
1.0
  6
ByLayer
 10
25.2141909333333807
 20
29.5531095722222403
 30
0.0
 11
23.728406644444501
 21
30.014449772222239
 31
0.0
  0
SPLINE
  5
175
  8
0
 62
3
420
65280
370
5
 48
1.0
  6
ByLayer
100
AcDbEntity
100
AcDbSpline
 70
8
 71
3
 72
8
 73
4
 74
0
 40
0.0
 40
0.0
 40
0.0
 40
0.0
 40
1.0
 40
1.0
 40
1.0
 40
1.0
 10
23.728406644444501
 20
30.014449772222239
 30
0.0
 10
23.7631806555556011
 20
30.019162883333351
 30
0.0
 10
22.9626065222222699
 20
29.8996685833333515
 30
0.0
 10
22.7739564888889383
 20
30.0888999944444606
 30
0.0
  0
LINE
  5
176
100
AcDbEntity
100
AcDbLine
  8
0
 62
3
420
65280
370
5
 48
1.0
  6
ByLayer
 10
22.7739564888889383
 20
30.0888999944444606
 30
0.0
 11
22.7739564888889383
 21
30.0888999944444606
 31
0.0
  0
ARC
  5
177
100
AcDbEntity
  8
0
 62
5
420
255
370
5
 48
1.0
  6
ByLayer
100
AcDbCircle
 10
23.4161103739058483
 20
34.2444048397458403
 30
0.0
 40
1.831744181654771
100
AcDbArc
 50
249.8587416667304524
 51
285.2532513628826791
  0
ARC
  5
178
100
AcDbEntity
  8
0
 62
5
420
255
370
5
 48
1.0
  6
ByLayer
100
AcDbCircle
 10
23.2715950121377411
 20
31.3592685844569097
 30
0.0
 40
5.7789413837897543
100
AcDbArc
 50
83.7770658182288628
 51
94.8263711992264575
  0
ARC
  5
179
100
AcDbEntity
  8
0
 62
5
420
255
370
5
 48
1.0
  6
ByLayer
100
AcDbCircle
 10
23.3459864800900405
 20
41.2770357919036428
 30
0.0
 40
1.403940817985438
100
AcDbArc
 50
68.0454385105521311
 51
114.7488704057281979
  0
LINE
  5
17A
100
AcDbEntity
100
AcDbLine
  8
0
 62
5
420
255
370
5
 48
1.0
  6
ByLayer
 10
23.7401993000000608
 20
32.3750820277777933
 30
0.0
 11
23.7142263888889495
 21
30.0313323055555692
 31
0.0
  0
LINE
  5
17B
100
AcDbEntity
100
AcDbLine
  8
0
 62
5
420
255
370
5
 48
1.0
  6
ByLayer
 10
22.7751982666667203
 20
32.3415004055555784
 30
0.0
 11
22.768410822222279
 21
30.0958624166666802
 31
0.0
  0
LINE
  5
17C
100
AcDbEntity
100
AcDbLine
  8
0
 62
3
420
65280
370
5
 48
1.0
  6
ByLayer
 10
25.2107986222222706
 20
29.9160755722222405
 30
0.0
 11
23.9183530385945318
 21
32.0671811330290666
 31
0.0
  0
ARC
  5
17D
100
AcDbEntity
  8
0
 62
3
420
65280
370
5
 48
1.0
  6
ByLayer
100
AcDbCircle
 10
42.8738500535692992
 20
11.6819577382709099
 30
0.0
 40
28.5493790111760184
100
AcDbArc
 50
135.0849786018555108
 51
139.1370214009598953
  0
LINE
  5
17E
100
AcDbEntity
100
AcDbLine
  8
0
 62
3
420
65280
370
5
 48
1.0
  6
ByLayer
 10
21.2826293555556099
 20
30.3604542166666818
 30
0.0
 11
22.6666471333333917
 21
30.3841989833333486
 31
0.0
  0
LINE
  5
17F
100
AcDbEntity
100
AcDbLine
  8
0
 62
3
420
65280
370
5
 48
1.0
  6
ByLayer
 10
22.6666471333333917
 20
30.3841989833333486
 30
0.0
 11
22.6564716111111686
 21
31.8394538833333485
 31
0.0
  0
LINE
  5
180
100
AcDbEntity
100
AcDbLine
  8
0
 62
3
420
65280
370
5
 48
1.0
  6
ByLayer
 10
23.8471333000000492
 20
31.7410796833333499
 30
0.0
 11
23.8301731555556096
 21
30.2586877055555696
 31
0.0
  0
LINE
  5
181
100
AcDbEntity
100
AcDbLine
  8
0
 62
3
420
65280
370
5
 48
1.0
  6
ByLayer
 10
23.8301731555556096
 20
30.2586877055555696
 30
0.0
 11
24.9292466777778294
 21
29.9262525055555706
 31
0.0
  0
LINE
  5
182
100
AcDbEntity
100
AcDbLine
  8
0
 62
3
420
65280
370
5
 48
1.0
  6
ByLayer
 10
24.9292466777778294
 20
29.9262525055555706
 30
0.0
 11
23.8471333000000492
 21
31.7410796833333499
 31
0.0
  0
LINE
  5
183
100
AcDbEntity
100
AcDbLine
  8
0
 62
3
420
65280
370
5
 48
1.0
  6
ByLayer
 10
20.5096057555556008
 20
32.8091454500000168
 30
0.0
 11
22.5112955645765105
 21
33.506035298306557
 31
0.0
  0
LINE
  5
184
100
AcDbEntity
100
AcDbLine
  8
0
 62
3
420
65280
370
5
 48
1.0
  6
ByLayer
 10
24.1089261017389589
 20
34.0642435582789673
 30
0.0
 11
24.8393730111111601
 21
34.3058545611111327
 31
0.0
  0
CIRCLE
  5
185
100
AcDbEntity
100
AcDbCircle
  8
0
 62
3
420
65280
370
5
 48
1.0
  6
ByLayer
 10
23.6362622222222711
 20
37.413591111111117
 30
0.0
 40
12.8160056179763
  0
ARC
  5
186
100
AcDbEntity
  8
0
 62
3
420
65280
370
5
 48
1.0
  6
ByLayer
100
AcDbCircle
 10
23.6362622222222711
 20
37.413591111111117
 30
0.0
 40
12.0
100
AcDbArc
 50
337.7509763427876237
 51
210.9637565320734609
  0
LINE
  5
187
100
AcDbEntity
100
AcDbLine
  8
0
 62
3
420
65280
370
5
 48
1.0
  6
ByLayer
 10
22.7739564888889383
 20
33.5918836835580876
 30
0.0
 11
22.7739564888889383
 21
42.5234953944444669
 31
0.0
  0
LINE
  5
188
100
AcDbEntity
100
AcDbLine
  8
0
 62
5
420
255
370
5
 48
1.0
  6
ByLayer
 10
23.9183530385945318
 20
32.0671811330290666
 30
0.0
 11
23.7351912666667211
 21
32.3720297944444582
 31
0.0
  0
LINE
  5
189
100
AcDbEntity
100
AcDbLine
  8
0
 62
3
420
65280
370
5
 48
1.0
  6
ByLayer
 10
23.909677462998399
 20
33.9844784419596024
 30
0.0
 11
23.9183704222222815
 21
32.063339361111133
 31
0.0
  0
LINE
  5
18A
100
AcDbEntity
100
AcDbLine
  8
0
 62
3
420
65280
370
5
 48
1.0
  6
ByLayer
 10
22.6643387985097817
 20
29.8496783848721599
 30
0.0
 11
20.4767705718431188
 21
29.8727043315388308
 31
0.0
  0
LINE
  5
18B
100
AcDbEntity
100
AcDbLine
  8
0
 62
3
420
65280
370
5
 48
1.0
  6
ByLayer
 10
20.4767705718431188
 20
29.8727043315388308
 30
0.0
 11
20.4767705718431188
 21
30.2181104648721686
 31
0.0
  0
LINE
  5
18C
100
AcDbEntity
100
AcDbLine
  8
0
 62
3
420
65280
370
5
 48
1.0
  6
ByLayer
 10
20.4767705718431188
 20
30.2181104648721686
 30
0.0
 11
22.5112955645765105
 21
32.4088673390504169
 31
0.0
  0
LINE
  5
18D
100
AcDbEntity
100
AcDbLine
  8
0
 62
3
420
65280
370
5
 48
1.0
  6
ByLayer
 10
25.5885493585097805
 20
29.6422890782055006
 30
0.0
 11
24.1089261017389589
 21
32.0944741811349132
 31
0.0
  0
LINE
  5
18E
100
AcDbEntity
100
AcDbLine
  8
0
 62
3
420
65280
370
5
 48
1.0
  6
ByLayer
 10
25.5926201318431197
 20
29.6382183048721686
 30
0.0
 11
25.5935923881056304
 21
29.316964832781661
 31
0.0
  0
LINE
  5
18F
100
AcDbEntity
100
AcDbLine
  8
0
 62
3
420
65280
370
5
 48
1.0
  6
ByLayer
 10
25.3275019298450914
 20
29.2905955080891793
 30
0.0
 11
23.8096789851764505
 21
29.7603381182054996
 31
0.0
  0
SPLINE
  5
190
  8
0
 62
3
420
65280
370
5
 48
1.0
  6
ByLayer
100
AcDbEntity
100
AcDbSpline
 70
8
 71
3
 72
8
 73
4
 74
0
 40
0.0
 40
0.0
 40
0.0
 40
0.0
 40
1.0
 40
1.0
 40
1.0
 40
1.0
 10
23.8096789851764505
 20
29.7603381182054996
 30
0.0
 10
23.8514077985097792
 20
29.7659938515388305
 30
0.0
 10
22.8907188385097804
 20
29.6226006915388282
 30
0.0
 10
22.6643387985097817
 20
29.8496783848721705
 30
0.0
  0
LINE
  5
191
100
AcDbEntity
100
AcDbLine
  8
0
 62
3
420
65280
370
5
 48
1.0
  6
ByLayer
 10
22.5112955645765105
 20
33.506035298306557
 30
0.0
 11
22.5112955645765105
 21
32.4088673390504169
 31
0.0
  0
LINE
  5
192
100
AcDbEntity
100
AcDbLine
  8
0
 62
3
420
65280
370
5
 48
1.0
  6
ByLayer
 10
22.5112955645765105
 20
32.4088673390504169
 30
0.0
 11
22.5112955645765105
 21
32.4088673390504169
 31
0.0
  0
LINE
  5
193
100
AcDbEntity
100
AcDbLine
  8
0
 62
3
420
65280
370
5
 48
1.0
  6
ByLayer
 10
24.1089261017389589
 20
34.0642435582789673
 30
0.0
 11
24.1089261017389589
 21
32.0944741811349132
 31
0.0
  0
LINE
  5
194
100
AcDbEntity
100
AcDbLine
  8
0
 62
3
420
65280
370
5
 48
1.0
  6
ByLayer
 10
25.3275019298450914
 20
29.2905955080891793
 30
0.0
 11
25.5935923881056304
 21
29.316964832781661
 31
0.0
  0
LINE
  5
195
100
AcDbEntity
100
AcDbLine
  8
0
 62
1
420
16711680
370
5
 48
1.0
  6
ByLayer
 10
55.0
 20
61.0
 30
0.0
 11
71.0
 21
61.0
 31
0.0
  0
LINE
  5
196
100
AcDbEntity
100
AcDbLine
  8
0
 62
1
420
16711680
370
5
 48
1.0
  6
ByLayer
 10
71.0
 20
61.0
 30
0.0
 11
71.0
 21
70.0
 31
0.0
  0
LINE
  5
197
100
AcDbEntity
100
AcDbLine
  8
0
 62
1
420
16711680
370
5
 48
1.0
  6
ByLayer
 10
55.0
 20
70.0
 30
0.0
 11
55.0
 21
61.0
 31
0.0
  0
LINE
  5
198
100
AcDbEntity
100
AcDbLine
  8
0
 62
1
420
16711680
370
5
 48
1.0
  6
ByLayer
 10
76.9258240356724912
 20
70.0
 30
0.0
 11
71.0
 21
70.0
 31
0.0
  0
LINE
  5
199
100
AcDbEntity
100
AcDbLine
  8
0
 62
1
420
16711680
370
5
 48
1.0
  6
ByLayer
 10
55.0
 20
70.0
 30
0.0
 11
23.0741759643274911
 21
70.0
 31
0.0
  0
LINE
  5
19A
100
AcDbEntity
100
AcDbLine
  8
0
 62
1
420
16711680
370
5
 48
1.0
  6
ByLayer
 10
71.0
 20
48.0
 30
0.0
 11
91.0
 21
48.0
 31
0.0
  0
LINE
  5
19B
100
AcDbEntity
100
AcDbLine
  8
0
 62
1
420
16711680
370
5
 48
1.0
  6
ByLayer
 10
91.0
 20
48.0
 30
0.0
 11
91.0
 21
60.0
 31
0.0
  0
LINE
  5
19C
100
AcDbEntity
100
AcDbLine
  8
0
 62
1
420
16711680
370
5
 48
1.0
  6
ByLayer
 10
91.0
 20
60.0
 30
0.0
 11
71.0
 21
60.0
 31
0.0
  0
LINE
  5
19D
100
AcDbEntity
100
AcDbLine
  8
0
 62
1
420
16711680
370
5
 48
1.0
  6
ByLayer
 10
71.0
 20
60.0
 30
0.0
 11
71.0
 21
48.0
 31
0.0
  0
ENDSEC
  0
SECTION
  2
OBJECTS
  0
DICTIONARY
  5
C
100
AcDbDictionary
280
0
281
1
  3
ACAD_GROUP
350
D
  3
ACAD_LAYOUT
350
1A
  3
ACAD_MLINESTYLE
350
17
  3
ACAD_PLOTSETTINGS
350
19
  3
ACAD_PLOTSTYLENAME
350
E
  3
AcDbVariableDictionary
350
19E
  3
QCAD_OBJECTS
350
19F
  0
DICTIONARY
  5
D
100
AcDbDictionary
280
0
281
1
  0
ACDBDICTIONARYWDFLT
  5
E
100
AcDbDictionary
281
1
  3
Normal
350
F
100
AcDbDictionaryWithDefault
340
F
  0
ACDBPLACEHOLDER
  5
F
  0
DICTIONARY
  5
17
100
AcDbDictionary
280
0
281
1
  3
Standard
350
18
  0
MLINESTYLE
  5
18
100
AcDbMlineStyle
  2
STANDARD
 70
0
  3

 62
256
 51
90.0
 52
90.0
 71
2
 49
0.5
 62
256
  6
BYLAYER
 49
-0.5
 62
256
  6
BYLAYER
  0
DICTIONARY
  5
19
100
AcDbDictionary
280
0
281
1
  0
DICTIONARY
  5
1A
100
AcDbDictionary
281
1
  3
Layout1
350
1E
  3
Layout2
350
26
  3
Model
350
22
  0
LAYOUT
  5
1E
100
AcDbPlotSettings
  1

  2
none_device
  4

  6

 40
0.0
 41
0.0
 42
0.0
 43
0.0
 44
0.0
 45
0.0
 46
0.0
 47
0.0
 48
0.0
 49
0.0
140
0.0
141
0.0
142
1.0
143
1.0
 70
688
 72
0
 73
0
 74
5
  7

 75
16
147
1.0
148
0.0
149
0.0
100
AcDbLayout
  1
Layout1
 70
1
 71
1
 10
0.0
 20
0.0
 11
420.0
 21
297.0
 12
0.0
 22
0.0
 32
0.0
 14
100000000000000000000.0
 24
100000000000000000000.0
 34
100000000000000000000.0
 15
-100000000000000000000.0
 25
-100000000000000000000.0
 35
-100000000000000000000.0
146
0.0
 13
0.0
 23
0.0
 33
0.0
 16
1.0
 26
0.0
 36
0.0
 17
0.0
 27
1.0
 37
0.0
 76
0
330
1B
  0
LAYOUT
  5
22
100
AcDbPlotSettings
  1

  2
none_device
  4

  6

 40
0.0
 41
0.0
 42
0.0
 43
0.0
 44
0.0
 45
0.0
 46
0.0
 47
0.0
 48
0.0
 49
0.0
140
0.0
141
0.0
142
1.0
143
1.0
 70
1712
 72
0
 73
0
 74
0
  7

 75
0
147
1.0
148
0.0
149
0.0
100
AcDbLayout
  1
Model
 70
1
 71
0
 10
0.0
 20
0.0
 11
12.0
 21
9.0
 12
0.0
 22
0.0
 32
0.0
 14
0.0
 24
0.0
 34
0.0
 15
0.0
 25
0.0
 35
0.0
146
0.0
 13
0.0
 23
0.0
 33
0.0
 16
1.0
 26
0.0
 36
0.0
 17
0.0
 27
1.0
 37
0.0
 76
0
330
1F
  0
LAYOUT
  5
26
100
AcDbPlotSettings
  1

  2
none_device
  4

  6

 40
0.0
 41
0.0
 42
0.0
 43
0.0
 44
0.0
 45
0.0
 46
0.0
 47
0.0
 48
0.0
 49
0.0
140
0.0
141
0.0
142
1.0
143
1.0
 70
688
 72
0
 73
0
 74
5
  7

 75
16
147
1.0
148
0.0
149
0.0
100
AcDbLayout
  1
Layout2
 70
1
 71
2
 10
0.0
 20
0.0
 11
12.0
 21
9.0
 12
0.0
 22
0.0
 32
0.0
 14
0.0
 24
0.0
 34
0.0
 15
0.0
 25
0.0
 35
0.0
146
0.0
 13
0.0
 23
0.0
 33
0.0
 16
1.0
 26
0.0
 36
0.0
 17
0.0
 27
1.0
 37
0.0
 76
0
330
23
  0
DICTIONARY
  5
19E
100
AcDbDictionary
281
1
  3
DIMASSOC
350
1A1
  3
HIDETEXT
350
1A0
  0
DICTIONARYVAR
  5
1A0
100
DictionaryVariables
280
0
  1
2
  0
DICTIONARYVAR
  5
1A1
100
DictionaryVariables
280
0
  1
1
  0
DICTIONARY
  5
19F
100
AcDbDictionary
281
1
  3
ColorSettings/BackgroundColor
350
1A2
  3
ColorSettings/ColorMode
350
1A3
  3
Grid/DisplayGrid00
350
1A4
  3
Grid/DisplayGrid01
350
1A5
  3
Grid/DisplayGrid02
350
1A6
  3
Grid/DisplayGrid03
350
1A7
  3
Grid/GridSpacingX00
350
1A8
  3
Grid/GridSpacingX01
350
1A9
  3
Grid/GridSpacingX02
350
1AA
  3
Grid/GridSpacingX03
350
1AB
  3
Grid/GridSpacingY00
350
1AC
  3
Grid/GridSpacingY01
350
1AD
  3
Grid/GridSpacingY02
350
1AE
  3
Grid/GridSpacingY03
350
1AF
  3
Grid/IsometricGrid00
350
1B0
  3
Grid/IsometricGrid01
350
1B1
  3
Grid/IsometricGrid02
350
1B2
  3
Grid/IsometricGrid03
350
1B3
  3
Grid/IsometricProjection00
350
1B4
  3
Grid/IsometricProjection01
350
1B5
  3
Grid/IsometricProjection02
350
1B6
  3
Grid/IsometricProjection03
350
1B7
  3
Grid/MetaGridSpacingX00
350
1B8
  3
Grid/MetaGridSpacingX01
350
1B9
  3
Grid/MetaGridSpacingX02
350
1BA
  3
Grid/MetaGridSpacingX03
350
1BB
  3
Grid/MetaGridSpacingY00
350
1BC
  3
Grid/MetaGridSpacingY01
350
1BD
  3
Grid/MetaGridSpacingY02
350
1BE
  3
Grid/MetaGridSpacingY03
350
1BF
  3
MultiPageSettings/Columns
350
1C0
  3
MultiPageSettings/GlueMarginsBottom
350
1C1
  3
MultiPageSettings/GlueMarginsLeft
350
1C2
  3
MultiPageSettings/GlueMarginsRight
350
1C3
  3
MultiPageSettings/GlueMarginsTop
350
1C4
  3
MultiPageSettings/PrintCropMarks
350
1C5
  3
MultiPageSettings/Rows
350
1C6
  3
PageSettings/OffsetX
350
1C7
  3
PageSettings/OffsetY
350
1C8
  3
PageSettings/PageOrientation
350
1C9
  3
PageSettings/PaperHeight
350
1CA
  3
PageSettings/PaperWidth
350
1CB
  3
PageSettings/Scale
350
1CC
  3
PageSettings/ShowPaperBorders
350
1CD
  3
QCADVersion
350
1CE
  3
UnitSettings/PaperUnit
350
1CF
  0
XRECORD
  5
1A2
330
19F
100
AcDbXrecord
280
1
1000
#ffffff
  0
XRECORD
  5
1A3
330
19F
100
AcDbXrecord
280
1
1000
FullColor
  0
XRECORD
  5
1A4
330
19F
100
AcDbXrecord
280
1
290
1
  0
XRECORD
  5
1A5
330
19F
100
AcDbXrecord
280
1
290
1
  0
XRECORD
  5
1A6
330
19F
100
AcDbXrecord
280
1
290
1
  0
XRECORD
  5
1A7
330
19F
100
AcDbXrecord
280
1
290
1
  0
XRECORD
  5
1A8
330
19F
100
AcDbXrecord
280
1
1000
auto
  0
XRECORD
  5
1A9
330
19F
100
AcDbXrecord
280
1
1000
auto
  0
XRECORD
  5
1AA
330
19F
100
AcDbXrecord
280
1
1000
auto
  0
XRECORD
  5
1AB
330
19F
100
AcDbXrecord
280
1
1000
auto
  0
XRECORD
  5
1AC
330
19F
100
AcDbXrecord
280
1
1000
auto
  0
XRECORD
  5
1AD
330
19F
100
AcDbXrecord
280
1
1000
auto
  0
XRECORD
  5
1AE
330
19F
100
AcDbXrecord
280
1
1000
auto
  0
XRECORD
  5
1AF
330
19F
100
AcDbXrecord
280
1
1000
auto
  0
XRECORD
  5
1B0
330
19F
100
AcDbXrecord
280
1
290
0
  0
XRECORD
  5
1B1
330
19F
100
AcDbXrecord
280
1
290
0
  0
XRECORD
  5
1B2
330
19F
100
AcDbXrecord
280
1
290
0
  0
XRECORD
  5
1B3
330
19F
100
AcDbXrecord
280
1
290
0
  0
XRECORD
  5
1B4
330
19F
100
AcDbXrecord
280
1
 90
0
  0
XRECORD
  5
1B5
330
19F
100
AcDbXrecord
280
1
 90
0
  0
XRECORD
  5
1B6
330
19F
100
AcDbXrecord
280
1
 90
0
  0
XRECORD
  5
1B7
330
19F
100
AcDbXrecord
280
1
 90
0
  0
XRECORD
  5
1B8
330
19F
100
AcDbXrecord
280
1
1000
auto
  0
XRECORD
  5
1B9
330
19F
100
AcDbXrecord
280
1
1000
auto
  0
XRECORD
  5
1BA
330
19F
100
AcDbXrecord
280
1
1000
auto
  0
XRECORD
  5
1BB
330
19F
100
AcDbXrecord
280
1
1000
auto
  0
XRECORD
  5
1BC
330
19F
100
AcDbXrecord
280
1
1000
auto
  0
XRECORD
  5
1BD
330
19F
100
AcDbXrecord
280
1
1000
auto
  0
XRECORD
  5
1BE
330
19F
100
AcDbXrecord
280
1
1000
auto
  0
XRECORD
  5
1BF
330
19F
100
AcDbXrecord
280
1
1000
auto
  0
XRECORD
  5
1C0
330
19F
100
AcDbXrecord
280
1
 90
1
  0
XRECORD
  5
1C1
330
19F
100
AcDbXrecord
280
1
 40
10.0
  0
XRECORD
  5
1C2
330
19F
100
AcDbXrecord
280
1
 40
10.0
  0
XRECORD
  5
1C3
330
19F
100
AcDbXrecord
280
1
 40
10.0
  0
XRECORD
  5
1C4
330
19F
100
AcDbXrecord
280
1
 40
10.0
  0
XRECORD
  5
1C5
330
19F
100
AcDbXrecord
280
1
290
0
  0
XRECORD
  5
1C6
330
19F
100
AcDbXrecord
280
1
 90
1
  0
XRECORD
  5
1C7
330
19F
100
AcDbXrecord
280
1
 40
0.0
  0
XRECORD
  5
1C8
330
19F
100
AcDbXrecord
280
1
 40
0.0
  0
XRECORD
  5
1C9
330
19F
100
AcDbXrecord
280
1
1000
Portrait
  0
XRECORD
  5
1CA
330
19F
100
AcDbXrecord
280
1
 40
297.0
  0
XRECORD
  5
1CB
330
19F
100
AcDbXrecord
280
1
 40
210.0
  0
XRECORD
  5
1CC
330
19F
100
AcDbXrecord
280
1
1000
1:1
  0
XRECORD
  5
1CD
330
19F
100
AcDbXrecord
280
1
290
1
  0
XRECORD
  5
1CE
330
19F
100
AcDbXrecord
280
1
1000
3.9.5
  0
XRECORD
  5
1CF
330
19F
100
AcDbXrecord
280
1
 90
4
  0
ENDSEC
  0
EOF
